<?xml version="1.0" encoding="UTF-8" standalone="no"?>
<!DOCTYPE svg PUBLIC "-//W3C//DTD SVG 1.1//EN"
 "http://www.w3.org/Graphics/SVG/1.1/DTD/svg11.dtd">
<!-- Generated by graphviz version 2.46.0 (0)
 -->
<!-- Title: deltaf Pages: 1 -->
<svg width="138pt" height="66pt"
 viewBox="0.00 0.00 138.00 66.00" xmlns="http://www.w3.org/2000/svg" xmlns:xlink="http://www.w3.org/1999/xlink">
<g id="graph0" class="graph" transform="scale(1 1) rotate(0) translate(4 62)">
<title>deltaf</title>
<polygon fill="white" stroke="transparent" points="-4,4 -4,-62 134,-62 134,4 -4,4"/>
<!-- Node1 -->
<g id="node1" class="node">
<title>Node1</title>
<g id="a_node1"><a xlink:title=" ">
<polygon fill="#bfbfbf" stroke="black" points="0,-19.5 0,-38.5 41,-38.5 41,-19.5 0,-19.5"/>
<text text-anchor="middle" x="20.5" y="-26.5" font-family="Helvetica,sans-Serif" font-size="10.00">deltaf</text>
</a>
</g>
</g>
<!-- Node2 -->
<g id="node2" class="node">
<title>Node2</title>
<g id="a_node2"><a xlink:href="math_8f.html#add7cf4f5279a2239cfd54f963a53e618" target="_top" xlink:title=" ">
<polygon fill="white" stroke="black" points="87.5,-38.5 87.5,-57.5 119.5,-57.5 119.5,-38.5 87.5,-38.5"/>
<text text-anchor="middle" x="103.5" y="-45.5" font-family="Helvetica,sans-Serif" font-size="10.00">cfill</text>
</a>
</g>
</g>
<!-- Node1&#45;&gt;Node2 -->
<g id="edge1" class="edge">
<title>Node1&#45;&gt;Node2</title>
<path fill="none" stroke="midnightblue" d="M41.11,-33.6C52.01,-36.16 65.68,-39.36 77.36,-42.1"/>
<polygon fill="midnightblue" stroke="midnightblue" points="76.85,-45.58 87.38,-44.45 78.45,-38.76 76.85,-45.58"/>
</g>
<!-- Node3 -->
<g id="node3" class="node">
<title>Node3</title>
<g id="a_node3"><a xlink:href="genxyz_8f.html#a021da9f679e373b16d7cc1902e61f265" target="_top" xlink:title=" ">
<polygon fill="white" stroke="black" points="77,-0.5 77,-19.5 130,-19.5 130,-0.5 77,-0.5"/>
<text text-anchor="middle" x="103.5" y="-7.5" font-family="Helvetica,sans-Serif" font-size="10.00">dxmin_e</text>
</a>
</g>
</g>
<!-- Node1&#45;&gt;Node3 -->
<g id="edge2" class="edge">
<title>Node1&#45;&gt;Node3</title>
<path fill="none" stroke="midnightblue" d="M41.11,-24.4C48.93,-22.57 58.19,-20.39 67.11,-18.3"/>
<polygon fill="midnightblue" stroke="midnightblue" points="68.01,-21.69 76.94,-15.99 66.41,-14.87 68.01,-21.69"/>
</g>
</g>
</svg>
