<?xml version="1.0" encoding="UTF-8" standalone="no"?>
<!DOCTYPE svg PUBLIC "-//W3C//DTD SVG 1.1//EN"
 "http://www.w3.org/Graphics/SVG/1.1/DTD/svg11.dtd">
<!-- Generated by graphviz version 2.46.0 (0)
 -->
<!-- Title: trst3d Pages: 1 -->
<svg width="233pt" height="218pt"
 viewBox="0.00 0.00 233.00 218.00" xmlns="http://www.w3.org/2000/svg" xmlns:xlink="http://www.w3.org/1999/xlink">
<g id="graph0" class="graph" transform="scale(1 1) rotate(0) translate(4 214)">
<title>trst3d</title>
<polygon fill="white" stroke="transparent" points="-4,4 -4,-214 229,-214 229,4 -4,4"/>
<!-- Node1 -->
<g id="node1" class="node">
<title>Node1</title>
<g id="a_node1"><a xlink:title=" ">
<polygon fill="#bfbfbf" stroke="black" points="0,-95.5 0,-114.5 41,-114.5 41,-95.5 0,-95.5"/>
<text text-anchor="middle" x="20.5" y="-102.5" font-family="Helvetica,sans-Serif" font-size="10.00">trst3d</text>
</a>
</g>
</g>
<!-- Node2 -->
<g id="node2" class="node">
<title>Node2</title>
<g id="a_node2"><a xlink:href="math_8f.html#a30b83d516b6ab162d3fafe73e03a3e92" target="_top" xlink:title=" ">
<polygon fill="white" stroke="black" points="83.5,-190.5 83.5,-209.5 121.5,-209.5 121.5,-190.5 83.5,-190.5"/>
<text text-anchor="middle" x="102.5" y="-197.5" font-family="Helvetica,sans-Serif" font-size="10.00">add2</text>
</a>
</g>
</g>
<!-- Node1&#45;&gt;Node2 -->
<g id="edge1" class="edge">
<title>Node1&#45;&gt;Node2</title>
<path fill="none" stroke="midnightblue" d="M27.23,-114.54C36.55,-129.61 56.05,-159.44 77,-181 77.91,-181.93 78.86,-182.86 79.85,-183.77"/>
<polygon fill="midnightblue" stroke="midnightblue" points="77.8,-186.63 87.7,-190.38 82.31,-181.27 77.8,-186.63"/>
</g>
<!-- Node5 -->
<g id="node4" class="node">
<title>Node5</title>
<g id="a_node4"><a xlink:href="byte_8c.html#a2da8eeb074dfd3ffbfb3e9a4d301cda4" target="_top" xlink:title=" ">
<polygon fill="white" stroke="black" points="85,-152.5 85,-171.5 120,-171.5 120,-152.5 85,-152.5"/>
<text text-anchor="middle" x="102.5" y="-159.5" font-family="Helvetica,sans-Serif" font-size="10.00">exitt</text>
</a>
</g>
</g>
<!-- Node1&#45;&gt;Node5 -->
<g id="edge3" class="edge">
<title>Node1&#45;&gt;Node5</title>
<path fill="none" stroke="midnightblue" d="M35.07,-114.67C47.33,-123.4 65.58,-136.4 79.85,-146.57"/>
<polygon fill="midnightblue" stroke="midnightblue" points="77.95,-149.52 88.13,-152.47 82.02,-143.82 77.95,-149.52"/>
</g>
<!-- Node8 -->
<g id="node6" class="node">
<title>Node8</title>
<g id="a_node6"><a xlink:href="subs2_8f.html#a74608551ad6832584488671fd36acad8" target="_top" xlink:title=" ">
<polygon fill="white" stroke="black" points="79.5,-114.5 79.5,-133.5 125.5,-133.5 125.5,-114.5 79.5,-114.5"/>
<text text-anchor="middle" x="102.5" y="-121.5" font-family="Helvetica,sans-Serif" font-size="10.00">facexv</text>
</a>
</g>
</g>
<!-- Node1&#45;&gt;Node8 -->
<g id="edge5" class="edge">
<title>Node1&#45;&gt;Node8</title>
<path fill="none" stroke="midnightblue" d="M41.28,-109.7C49.77,-111.71 59.92,-114.12 69.44,-116.39"/>
<polygon fill="midnightblue" stroke="midnightblue" points="68.88,-119.85 79.42,-118.76 70.5,-113.04 68.88,-119.85"/>
</g>
<!-- Node10 -->
<g id="node8" class="node">
<title>Node10</title>
<g id="a_node8"><a xlink:href="subs2_8f.html#a2671c3a2f2292e6de0cc1e065e5516df" target="_top" xlink:title=" ">
<polygon fill="white" stroke="black" points="77,-76.5 77,-95.5 128,-95.5 128,-76.5 77,-76.5"/>
<text text-anchor="middle" x="102.5" y="-83.5" font-family="Helvetica,sans-Serif" font-size="10.00">facsub2</text>
</a>
</g>
</g>
<!-- Node1&#45;&gt;Node10 -->
<g id="edge7" class="edge">
<title>Node1&#45;&gt;Node10</title>
<path fill="none" stroke="midnightblue" d="M41.28,-100.3C48.99,-98.47 58.07,-96.31 66.8,-94.24"/>
<polygon fill="midnightblue" stroke="midnightblue" points="67.88,-97.58 76.8,-91.87 66.26,-90.77 67.88,-97.58"/>
</g>
<!-- Node11 -->
<g id="node9" class="node">
<title>Node11</title>
<g id="a_node9"><a xlink:href="bdry_8f.html#ad5ba3cc7aa2e469bf6fefd0deaf3517a" target="_top" xlink:title=" ">
<polygon fill="white" stroke="black" points="80.5,-38.5 80.5,-57.5 124.5,-57.5 124.5,-38.5 80.5,-38.5"/>
<text text-anchor="middle" x="102.5" y="-45.5" font-family="Helvetica,sans-Serif" font-size="10.00">rzero3</text>
</a>
</g>
</g>
<!-- Node1&#45;&gt;Node11 -->
<g id="edge9" class="edge">
<title>Node1&#45;&gt;Node11</title>
<path fill="none" stroke="midnightblue" d="M35.07,-95.33C47.33,-86.6 65.58,-73.6 79.85,-63.43"/>
<polygon fill="midnightblue" stroke="midnightblue" points="82.02,-66.18 88.13,-57.53 77.95,-60.48 82.02,-66.18"/>
</g>
<!-- Node12 -->
<g id="node10" class="node">
<title>Node12</title>
<g id="a_node10"><a xlink:href="bdry_8f.html#a7b99fcac9b251197c6eeffaa4e993a87" target="_top" xlink:title=" ">
<polygon fill="white" stroke="red" points="80.5,-0.5 80.5,-19.5 124.5,-19.5 124.5,-0.5 80.5,-0.5"/>
<text text-anchor="middle" x="102.5" y="-7.5" font-family="Helvetica,sans-Serif" font-size="10.00">setdrs</text>
</a>
</g>
</g>
<!-- Node1&#45;&gt;Node12 -->
<g id="edge10" class="edge">
<title>Node1&#45;&gt;Node12</title>
<path fill="none" stroke="midnightblue" d="M27.23,-95.46C36.55,-80.39 56.05,-50.56 77,-29 77.91,-28.07 78.86,-27.14 79.85,-26.23"/>
<polygon fill="midnightblue" stroke="midnightblue" points="82.31,-28.73 87.7,-19.62 77.8,-23.37 82.31,-28.73"/>
</g>
<!-- Node3 -->
<g id="node3" class="node">
<title>Node3</title>
<g id="a_node3"><a xlink:href="comm__mpi_8f.html#af06ec29f06aac3f8809e19de2a7e8946" target="_top" xlink:title=" ">
<polygon fill="white" stroke="red" points="164,-190.5 164,-209.5 225,-209.5 225,-190.5 164,-190.5"/>
<text text-anchor="middle" x="194.5" y="-197.5" font-family="Helvetica,sans-Serif" font-size="10.00">dnekclock</text>
</a>
</g>
</g>
<!-- Node2&#45;&gt;Node3 -->
<g id="edge2" class="edge">
<title>Node2&#45;&gt;Node3</title>
<path fill="none" stroke="midnightblue" d="M121.71,-200C130.99,-200 142.66,-200 153.88,-200"/>
<polygon fill="midnightblue" stroke="midnightblue" points="153.98,-203.5 163.98,-200 153.98,-196.5 153.98,-203.5"/>
</g>
<!-- Node6 -->
<g id="node5" class="node">
<title>Node6</title>
<g id="a_node5"><a xlink:href="comm__mpi_8f.html#acc8803a3787828530843112e0c48941b" target="_top" xlink:title=" ">
<polygon fill="white" stroke="red" points="169.5,-152.5 169.5,-171.5 219.5,-171.5 219.5,-152.5 169.5,-152.5"/>
<text text-anchor="middle" x="194.5" y="-159.5" font-family="Helvetica,sans-Serif" font-size="10.00">nek_die</text>
</a>
</g>
</g>
<!-- Node5&#45;&gt;Node6 -->
<g id="edge4" class="edge">
<title>Node5&#45;&gt;Node6</title>
<path fill="none" stroke="midnightblue" d="M120.01,-162C130.9,-162 145.57,-162 158.95,-162"/>
<polygon fill="midnightblue" stroke="midnightblue" points="159.29,-165.5 169.29,-162 159.29,-158.5 159.29,-165.5"/>
</g>
<!-- Node9 -->
<g id="node7" class="node">
<title>Node9</title>
<g id="a_node7"><a xlink:href="connect1_8f.html#aa6d2ebf2dfdfeae458d41ef4cb6d9fae" target="_top" xlink:title=" ">
<polygon fill="white" stroke="black" points="174,-95.5 174,-114.5 215,-114.5 215,-95.5 174,-95.5"/>
<text text-anchor="middle" x="194.5" y="-102.5" font-family="Helvetica,sans-Serif" font-size="10.00">dsset</text>
</a>
</g>
</g>
<!-- Node8&#45;&gt;Node9 -->
<g id="edge6" class="edge">
<title>Node8&#45;&gt;Node9</title>
<path fill="none" stroke="midnightblue" d="M125.75,-119.3C137.3,-116.87 151.56,-113.85 164.02,-111.22"/>
<polygon fill="midnightblue" stroke="midnightblue" points="164.89,-114.62 173.95,-109.13 163.45,-107.77 164.89,-114.62"/>
</g>
<!-- Node10&#45;&gt;Node9 -->
<g id="edge8" class="edge">
<title>Node10&#45;&gt;Node9</title>
<path fill="none" stroke="midnightblue" d="M128.09,-91.19C139.09,-93.51 152.15,-96.27 163.7,-98.71"/>
<polygon fill="midnightblue" stroke="midnightblue" points="163.27,-102.2 173.78,-100.84 164.72,-95.35 163.27,-102.2"/>
</g>
</g>
</svg>
