<?xml version="1.0" encoding="UTF-8" standalone="no"?>
<!DOCTYPE svg PUBLIC "-//W3C//DTD SVG 1.1//EN"
 "http://www.w3.org/Graphics/SVG/1.1/DTD/svg11.dtd">
<!-- Generated by graphviz version 2.46.0 (0)
 -->
<!-- Title: glcflux Pages: 1 -->
<svg width="295pt" height="66pt"
 viewBox="0.00 0.00 295.00 66.00" xmlns="http://www.w3.org/2000/svg" xmlns:xlink="http://www.w3.org/1999/xlink">
<g id="graph0" class="graph" transform="scale(1 1) rotate(0) translate(4 62)">
<title>glcflux</title>
<polygon fill="white" stroke="transparent" points="-4,4 -4,-62 291,-62 291,4 -4,4"/>
<!-- Node1 -->
<g id="node1" class="node">
<title>Node1</title>
<g id="a_node1"><a xlink:title=" ">
<polygon fill="#bfbfbf" stroke="black" points="0,-19.5 0,-38.5 45,-38.5 45,-19.5 0,-19.5"/>
<text text-anchor="middle" x="22.5" y="-26.5" font-family="Helvetica,sans-Serif" font-size="10.00">glcflux</text>
</a>
</g>
</g>
<!-- Node2 -->
<g id="node2" class="node">
<title>Node2</title>
<g id="a_node2"><a xlink:href="connect1_8f.html#aa1c9016b4c28e8a8512be6f6d67eefce" target="_top" xlink:title=" ">
<polygon fill="white" stroke="black" points="81,-38.5 81,-57.5 124,-57.5 124,-38.5 81,-38.5"/>
<text text-anchor="middle" x="102.5" y="-45.5" font-family="Helvetica,sans-Serif" font-size="10.00">facind</text>
</a>
</g>
</g>
<!-- Node1&#45;&gt;Node2 -->
<g id="edge1" class="edge">
<title>Node1&#45;&gt;Node2</title>
<path fill="none" stroke="midnightblue" d="M45.23,-34.29C53.26,-36.25 62.52,-38.51 71.18,-40.61"/>
<polygon fill="midnightblue" stroke="midnightblue" points="70.42,-44.03 80.96,-43 72.07,-37.23 70.42,-44.03"/>
</g>
<!-- Node3 -->
<g id="node3" class="node">
<title>Node3</title>
<g id="a_node3"><a xlink:href="math_8f.html#ac231f0566c16504dadd6ba0f16a38bd9" target="_top" xlink:title=" ">
<polygon fill="white" stroke="black" points="81,-0.5 81,-19.5 124,-19.5 124,-0.5 81,-0.5"/>
<text text-anchor="middle" x="102.5" y="-7.5" font-family="Helvetica,sans-Serif" font-size="10.00">glsum</text>
</a>
</g>
</g>
<!-- Node1&#45;&gt;Node3 -->
<g id="edge2" class="edge">
<title>Node1&#45;&gt;Node3</title>
<path fill="none" stroke="midnightblue" d="M45.23,-23.71C53.26,-21.75 62.52,-19.49 71.18,-17.39"/>
<polygon fill="midnightblue" stroke="midnightblue" points="72.07,-20.77 80.96,-15 70.42,-13.97 72.07,-20.77"/>
</g>
<!-- Node4 -->
<g id="node4" class="node">
<title>Node4</title>
<g id="a_node4"><a xlink:href="gs__test__gop__blocking_8c.html#ab2e24f9857f6d1ded7e4d556c6bc5e49" target="_top" xlink:title=" ">
<polygon fill="white" stroke="black" points="160,-0.5 160,-19.5 192,-19.5 192,-0.5 160,-0.5"/>
<text text-anchor="middle" x="176" y="-7.5" font-family="Helvetica,sans-Serif" font-size="10.00">gop</text>
</a>
</g>
</g>
<!-- Node3&#45;&gt;Node4 -->
<g id="edge3" class="edge">
<title>Node3&#45;&gt;Node4</title>
<path fill="none" stroke="midnightblue" d="M124.18,-10C132.18,-10 141.42,-10 149.81,-10"/>
<polygon fill="midnightblue" stroke="midnightblue" points="149.82,-13.5 159.82,-10 149.82,-6.5 149.82,-13.5"/>
</g>
<!-- Node5 -->
<g id="node5" class="node">
<title>Node5</title>
<g id="a_node5"><a xlink:href="math_8f.html#a17c0ecae12cc5c6096939885da90ad2b" target="_top" xlink:title=" ">
<polygon fill="white" stroke="black" points="228,-0.5 228,-19.5 287,-19.5 287,-0.5 228,-0.5"/>
<text text-anchor="middle" x="257.5" y="-7.5" font-family="Helvetica,sans-Serif" font-size="10.00">transpose</text>
</a>
</g>
</g>
<!-- Node4&#45;&gt;Node5 -->
<g id="edge4" class="edge">
<title>Node4&#45;&gt;Node5</title>
<path fill="none" stroke="midnightblue" d="M192.33,-10C199.61,-10 208.67,-10 217.67,-10"/>
<polygon fill="midnightblue" stroke="midnightblue" points="217.7,-13.5 227.7,-10 217.7,-6.5 217.7,-13.5"/>
</g>
</g>
</svg>
