<?xml version="1.0" encoding="UTF-8" standalone="no"?>
<!DOCTYPE svg PUBLIC "-//W3C//DTD SVG 1.1//EN"
 "http://www.w3.org/Graphics/SVG/1.1/DTD/svg11.dtd">
<!-- Generated by graphviz version 2.46.0 (0)
 -->
<!-- Title: bcmask Pages: 1 -->
<svg width="244pt" height="256pt"
 viewBox="0.00 0.00 244.00 256.00" xmlns="http://www.w3.org/2000/svg" xmlns:xlink="http://www.w3.org/1999/xlink">
<g id="graph0" class="graph" transform="scale(1 1) rotate(0) translate(4 252)">
<title>bcmask</title>
<polygon fill="white" stroke="transparent" points="-4,4 -4,-252 240,-252 240,4 -4,4"/>
<!-- Node1 -->
<g id="node1" class="node">
<title>Node1</title>
<g id="a_node1"><a xlink:title=" ">
<polygon fill="#bfbfbf" stroke="black" points="0,-114.5 0,-133.5 51,-133.5 51,-114.5 0,-114.5"/>
<text text-anchor="middle" x="25.5" y="-121.5" font-family="Helvetica,sans-Serif" font-size="10.00">bcmask</text>
</a>
</g>
</g>
<!-- Node2 -->
<g id="node2" class="node">
<title>Node2</title>
<g id="a_node2"><a xlink:href="bdry_8f.html#a44c94289bcac47221ec74aac5cb97097" target="_top" xlink:title=" ">
<polygon fill="white" stroke="black" points="88.5,-228.5 88.5,-247.5 139.5,-247.5 139.5,-228.5 88.5,-228.5"/>
<text text-anchor="middle" x="114" y="-235.5" font-family="Helvetica,sans-Serif" font-size="10.00">chknord</text>
</a>
</g>
</g>
<!-- Node1&#45;&gt;Node2 -->
<g id="edge1" class="edge">
<title>Node1&#45;&gt;Node2</title>
<path fill="none" stroke="midnightblue" d="M31.14,-133.71C40.13,-151.87 61.32,-191.62 87,-219 87.9,-219.96 88.86,-220.91 89.86,-221.84"/>
<polygon fill="midnightblue" stroke="midnightblue" points="87.96,-224.81 97.91,-228.43 92.39,-219.39 87.96,-224.81"/>
</g>
<!-- Node3 -->
<g id="node3" class="node">
<title>Node3</title>
<g id="a_node3"><a xlink:href="dssum_8f.html#ab0865b005738b43cd2bcc73e7bac86f7" target="_top" xlink:title=" ">
<polygon fill="white" stroke="black" points="95,-190.5 95,-209.5 133,-209.5 133,-190.5 95,-190.5"/>
<text text-anchor="middle" x="114" y="-197.5" font-family="Helvetica,sans-Serif" font-size="10.00">dsop</text>
</a>
</g>
</g>
<!-- Node1&#45;&gt;Node3 -->
<g id="edge2" class="edge">
<title>Node1&#45;&gt;Node3</title>
<path fill="none" stroke="midnightblue" d="M36.01,-133.67C47.64,-145.33 68.13,-165.32 87,-181 88.33,-182.11 89.72,-183.22 91.13,-184.33"/>
<polygon fill="midnightblue" stroke="midnightblue" points="89.17,-187.23 99.26,-190.45 93.38,-181.64 89.17,-187.23"/>
</g>
<!-- Node6 -->
<g id="node5" class="node">
<title>Node6</title>
<g id="a_node5"><a xlink:href="connect1_8f.html#a1c96db1fac78d436aaab41482ed01aca" target="_top" xlink:title=" ">
<polygon fill="white" stroke="black" points="93.5,-152.5 93.5,-171.5 134.5,-171.5 134.5,-152.5 93.5,-152.5"/>
<text text-anchor="middle" x="114" y="-159.5" font-family="Helvetica,sans-Serif" font-size="10.00">facev</text>
</a>
</g>
</g>
<!-- Node1&#45;&gt;Node6 -->
<g id="edge4" class="edge">
<title>Node1&#45;&gt;Node6</title>
<path fill="none" stroke="midnightblue" d="M48.33,-133.59C59.12,-138.33 72.29,-144.12 83.93,-149.23"/>
<polygon fill="midnightblue" stroke="midnightblue" points="82.69,-152.51 93.25,-153.32 85.5,-146.1 82.69,-152.51"/>
</g>
<!-- Node8 -->
<g id="node7" class="node">
<title>Node8</title>
<g id="a_node7"><a xlink:href="navier1_8f.html#ac796a0447b86c61f9851e9abd09f9e4b" target="_top" xlink:title=" ">
<polygon fill="white" stroke="red" points="90,-114.5 90,-133.5 138,-133.5 138,-114.5 90,-114.5"/>
<text text-anchor="middle" x="114" y="-121.5" font-family="Helvetica,sans-Serif" font-size="10.00">opdsop</text>
</a>
</g>
</g>
<!-- Node1&#45;&gt;Node8 -->
<g id="edge6" class="edge">
<title>Node1&#45;&gt;Node8</title>
<path fill="none" stroke="midnightblue" d="M51.06,-124C60.01,-124 70.28,-124 79.85,-124"/>
<polygon fill="midnightblue" stroke="midnightblue" points="79.87,-127.5 89.87,-124 79.87,-120.5 79.87,-127.5"/>
</g>
<!-- Node13 -->
<g id="node8" class="node">
<title>Node13</title>
<g id="a_node8"><a xlink:href="math_8f.html#ae1294c8ac3b5b3c38bbcc250d252b9cb" target="_top" xlink:title=" ">
<polygon fill="white" stroke="black" points="96.5,-76.5 96.5,-95.5 131.5,-95.5 131.5,-76.5 96.5,-76.5"/>
<text text-anchor="middle" x="114" y="-83.5" font-family="Helvetica,sans-Serif" font-size="10.00">rone</text>
</a>
</g>
</g>
<!-- Node1&#45;&gt;Node13 -->
<g id="edge7" class="edge">
<title>Node1&#45;&gt;Node13</title>
<path fill="none" stroke="midnightblue" d="M48.33,-114.41C60.1,-109.24 74.7,-102.83 87.04,-97.4"/>
<polygon fill="midnightblue" stroke="midnightblue" points="88.62,-100.53 96.37,-93.31 85.8,-94.12 88.62,-100.53"/>
</g>
<!-- Node14 -->
<g id="node9" class="node">
<title>Node14</title>
<g id="a_node9"><a xlink:href="math_8f.html#af44de42b023a4a68cd98ea341204342d" target="_top" xlink:title=" ">
<polygon fill="white" stroke="black" points="95,-38.5 95,-57.5 133,-57.5 133,-38.5 95,-38.5"/>
<text text-anchor="middle" x="114" y="-45.5" font-family="Helvetica,sans-Serif" font-size="10.00">rzero</text>
</a>
</g>
</g>
<!-- Node1&#45;&gt;Node14 -->
<g id="edge8" class="edge">
<title>Node1&#45;&gt;Node14</title>
<path fill="none" stroke="midnightblue" d="M36.01,-114.33C47.64,-102.67 68.13,-82.68 87,-67 88.33,-65.89 89.72,-64.78 91.13,-63.67"/>
<polygon fill="midnightblue" stroke="midnightblue" points="93.38,-66.36 99.26,-57.55 89.17,-60.77 93.38,-66.36"/>
</g>
<!-- Node15 -->
<g id="node10" class="node">
<title>Node15</title>
<g id="a_node10"><a xlink:href="subs2_8f.html#a85491a75f21053030871913510734987" target="_top" xlink:title=" ">
<polygon fill="white" stroke="red" points="87,-0.5 87,-19.5 141,-19.5 141,-0.5 87,-0.5"/>
<text text-anchor="middle" x="114" y="-7.5" font-family="Helvetica,sans-Serif" font-size="10.00">stsmask</text>
</a>
</g>
</g>
<!-- Node1&#45;&gt;Node15 -->
<g id="edge9" class="edge">
<title>Node1&#45;&gt;Node15</title>
<path fill="none" stroke="midnightblue" d="M31.14,-114.29C40.13,-96.13 61.32,-56.38 87,-29 87.9,-28.04 88.86,-27.09 89.86,-26.16"/>
<polygon fill="midnightblue" stroke="midnightblue" points="92.39,-28.61 97.91,-19.57 87.96,-23.19 92.39,-28.61"/>
</g>
<!-- Node4 -->
<g id="node4" class="node">
<title>Node4</title>
<g id="a_node4"><a xlink:href="comm__mpi_8f.html#a4acb4d8e379294232e9219bec063d8f3" target="_top" xlink:title=" ">
<polygon fill="white" stroke="red" points="177,-190.5 177,-209.5 236,-209.5 236,-190.5 177,-190.5"/>
<text text-anchor="middle" x="206.5" y="-197.5" font-family="Helvetica,sans-Serif" font-size="10.00">nekgsync</text>
</a>
</g>
</g>
<!-- Node3&#45;&gt;Node4 -->
<g id="edge3" class="edge">
<title>Node3&#45;&gt;Node4</title>
<path fill="none" stroke="midnightblue" d="M133.31,-200C142.98,-200 155.23,-200 166.88,-200"/>
<polygon fill="midnightblue" stroke="midnightblue" points="166.88,-203.5 176.88,-200 166.88,-196.5 166.88,-203.5"/>
</g>
<!-- Node7 -->
<g id="node6" class="node">
<title>Node7</title>
<g id="a_node6"><a xlink:href="connect1_8f.html#aa1c9016b4c28e8a8512be6f6d67eefce" target="_top" xlink:title=" ">
<polygon fill="white" stroke="black" points="185,-152.5 185,-171.5 228,-171.5 228,-152.5 185,-152.5"/>
<text text-anchor="middle" x="206.5" y="-159.5" font-family="Helvetica,sans-Serif" font-size="10.00">facind</text>
</a>
</g>
</g>
<!-- Node6&#45;&gt;Node7 -->
<g id="edge5" class="edge">
<title>Node6&#45;&gt;Node7</title>
<path fill="none" stroke="midnightblue" d="M134.64,-162C146.37,-162 161.53,-162 174.81,-162"/>
<polygon fill="midnightblue" stroke="midnightblue" points="174.96,-165.5 184.96,-162 174.96,-158.5 174.96,-165.5"/>
</g>
</g>
</svg>
