<?xml version="1.0" encoding="UTF-8" standalone="no"?>
<!DOCTYPE svg PUBLIC "-//W3C//DTD SVG 1.1//EN"
 "http://www.w3.org/Graphics/SVG/1.1/DTD/svg11.dtd">
<!-- Generated by graphviz version 2.46.0 (0)
 -->
<!-- Title: bcneutr Pages: 1 -->
<svg width="407pt" height="142pt"
 viewBox="0.00 0.00 407.00 142.00" xmlns="http://www.w3.org/2000/svg" xmlns:xlink="http://www.w3.org/1999/xlink">
<g id="graph0" class="graph" transform="scale(1 1) rotate(0) translate(4 138)">
<title>bcneutr</title>
<polygon fill="white" stroke="transparent" points="-4,4 -4,-138 403,-138 403,4 -4,4"/>
<!-- Node1 -->
<g id="node1" class="node">
<title>Node1</title>
<g id="a_node1"><a xlink:title=" ">
<polygon fill="#bfbfbf" stroke="black" points="350,-57.5 350,-76.5 399,-76.5 399,-57.5 350,-57.5"/>
<text text-anchor="middle" x="374.5" y="-64.5" font-family="Helvetica,sans-Serif" font-size="10.00">bcneutr</text>
</a>
</g>
</g>
<!-- Node2 -->
<g id="node2" class="node">
<title>Node2</title>
<g id="a_node2"><a xlink:href="induct_8f.html#abbae0312df5e89b7a6fe3f7f1dc8447b" target="_top" xlink:title=" ">
<polygon fill="white" stroke="black" points="261,-114.5 261,-133.5 314,-133.5 314,-114.5 261,-114.5"/>
<text text-anchor="middle" x="287.5" y="-121.5" font-family="Helvetica,sans-Serif" font-size="10.00">cresvibp</text>
</a>
</g>
</g>
<!-- Node1&#45;&gt;Node2 -->
<g id="edge1" class="edge">
<title>Node1&#45;&gt;Node2</title>
<path fill="none" stroke="midnightblue" d="M350.67,-82.31C335.4,-92.55 315.78,-105.71 302.71,-114.47"/>
<polygon fill="midnightblue" stroke="midnightblue" points="352.72,-85.15 359.08,-76.67 348.83,-79.33 352.72,-85.15"/>
</g>
<!-- Node9 -->
<g id="node5" class="node">
<title>Node9</title>
<g id="a_node5"><a xlink:href="planx_8f.html#a02873cc7b2b98973667aa8cb9f2cbadb" target="_top" xlink:title=" ">
<polygon fill="white" stroke="black" points="264.5,-76.5 264.5,-95.5 310.5,-95.5 310.5,-76.5 264.5,-76.5"/>
<text text-anchor="middle" x="287.5" y="-83.5" font-family="Helvetica,sans-Serif" font-size="10.00">cresvif</text>
</a>
</g>
</g>
<!-- Node1&#45;&gt;Node9 -->
<g id="edge4" class="edge">
<title>Node1&#45;&gt;Node9</title>
<path fill="none" stroke="midnightblue" d="M339.89,-74.51C330.05,-76.71 319.53,-79.06 310.59,-81.06"/>
<polygon fill="midnightblue" stroke="midnightblue" points="340.83,-77.89 349.82,-72.29 339.3,-71.06 340.83,-77.89"/>
</g>
<!-- Node16 -->
<g id="node9" class="node">
<title>Node16</title>
<g id="a_node9"><a xlink:href="navier1_8f.html#a23e6343990072aa1a6b17109ccc7ba2b" target="_top" xlink:title=" ">
<polygon fill="white" stroke="black" points="175.5,-38.5 175.5,-57.5 215.5,-57.5 215.5,-38.5 175.5,-38.5"/>
<text text-anchor="middle" x="195.5" y="-45.5" font-family="Helvetica,sans-Serif" font-size="10.00">plan1</text>
</a>
</g>
</g>
<!-- Node1&#45;&gt;Node16 -->
<g id="edge8" class="edge">
<title>Node1&#45;&gt;Node16</title>
<path fill="none" stroke="midnightblue" d="M339.77,-63.38C303.01,-59.43 245.49,-53.26 215.75,-50.07"/>
<polygon fill="midnightblue" stroke="midnightblue" points="339.68,-66.89 350,-64.48 340.43,-59.93 339.68,-66.89"/>
</g>
<!-- Node17 -->
<g id="node10" class="node">
<title>Node17</title>
<g id="a_node10"><a xlink:href="plan4_8f.html#a247fc105464de543a464773054eb509e" target="_top" xlink:title=" ">
<polygon fill="white" stroke="black" points="267.5,-0.5 267.5,-19.5 307.5,-19.5 307.5,-0.5 267.5,-0.5"/>
<text text-anchor="middle" x="287.5" y="-7.5" font-family="Helvetica,sans-Serif" font-size="10.00">plan4</text>
</a>
</g>
</g>
<!-- Node1&#45;&gt;Node17 -->
<g id="edge10" class="edge">
<title>Node1&#45;&gt;Node17</title>
<path fill="none" stroke="midnightblue" d="M350.67,-51.69C335.4,-41.45 315.78,-28.29 302.71,-19.53"/>
<polygon fill="midnightblue" stroke="midnightblue" points="348.83,-54.67 359.08,-57.33 352.72,-48.85 348.83,-54.67"/>
</g>
<!-- Node3 -->
<g id="node3" class="node">
<title>Node3</title>
<g id="a_node3"><a xlink:href="induct_8f.html#adef470718d07d8b4c7f6bf32b2a9ecb9" target="_top" xlink:title=" ">
<polygon fill="white" stroke="black" points="166,-114.5 166,-133.5 225,-133.5 225,-114.5 166,-114.5"/>
<text text-anchor="middle" x="195.5" y="-121.5" font-family="Helvetica,sans-Serif" font-size="10.00">elsasserh</text>
</a>
</g>
</g>
<!-- Node2&#45;&gt;Node3 -->
<g id="edge2" class="edge">
<title>Node2&#45;&gt;Node3</title>
<path fill="none" stroke="midnightblue" d="M250.9,-124C242.4,-124 233.43,-124 225.28,-124"/>
<polygon fill="midnightblue" stroke="midnightblue" points="250.95,-127.5 260.95,-124 250.95,-120.5 250.95,-127.5"/>
</g>
<!-- Node4 -->
<g id="node4" class="node">
<title>Node4</title>
<g id="a_node4"><a xlink:href="induct_8f.html#aa44a44eb5a5e3f510211f8fd8e6b12b7" target="_top" xlink:title=" ">
<polygon fill="white" stroke="red" points="87,-114.5 87,-133.5 130,-133.5 130,-114.5 87,-114.5"/>
<text text-anchor="middle" x="108.5" y="-121.5" font-family="Helvetica,sans-Serif" font-size="10.00">induct</text>
</a>
</g>
</g>
<!-- Node3&#45;&gt;Node4 -->
<g id="edge3" class="edge">
<title>Node3&#45;&gt;Node4</title>
<path fill="none" stroke="midnightblue" d="M155.61,-124C146.84,-124 137.87,-124 130.19,-124"/>
<polygon fill="midnightblue" stroke="midnightblue" points="155.72,-127.5 165.72,-124 155.72,-120.5 155.72,-127.5"/>
</g>
<!-- Node10 -->
<g id="node6" class="node">
<title>Node10</title>
<g id="a_node6"><a xlink:href="planx_8f.html#a142f9186a662d3de60f09bb0ee26782d" target="_top" xlink:title=" ">
<polygon fill="white" stroke="black" points="175.5,-76.5 175.5,-95.5 215.5,-95.5 215.5,-76.5 175.5,-76.5"/>
<text text-anchor="middle" x="195.5" y="-83.5" font-family="Helvetica,sans-Serif" font-size="10.00">plan3</text>
</a>
</g>
</g>
<!-- Node9&#45;&gt;Node10 -->
<g id="edge5" class="edge">
<title>Node9&#45;&gt;Node10</title>
<path fill="none" stroke="midnightblue" d="M253.94,-86C241.13,-86 226.86,-86 215.75,-86"/>
<polygon fill="midnightblue" stroke="midnightblue" points="254.25,-89.5 264.25,-86 254.25,-82.5 254.25,-89.5"/>
</g>
<!-- Node11 -->
<g id="node7" class="node">
<title>Node11</title>
<g id="a_node7"><a xlink:href="drive2_8f.html#ab0aeca9ad3db8be87a01ba29d069d71e" target="_top" xlink:title=" ">
<polygon fill="white" stroke="red" points="91,-38.5 91,-57.5 126,-57.5 126,-38.5 91,-38.5"/>
<text text-anchor="middle" x="108.5" y="-45.5" font-family="Helvetica,sans-Serif" font-size="10.00">fluid</text>
</a>
</g>
</g>
<!-- Node10&#45;&gt;Node11 -->
<g id="edge6" class="edge">
<title>Node10&#45;&gt;Node11</title>
<path fill="none" stroke="midnightblue" d="M166.01,-73.26C152.76,-67.34 137.46,-60.5 126.13,-55.43"/>
<polygon fill="midnightblue" stroke="midnightblue" points="164.65,-76.49 175.21,-77.38 167.51,-70.1 164.65,-76.49"/>
</g>
<!-- Node12 -->
<g id="node8" class="node">
<title>Node12</title>
<g id="a_node8"><a xlink:href="ssolv_8f.html#a4bb42a5afabbba8c6518d83cbe481c17" target="_top" xlink:title=" ">
<polygon fill="white" stroke="black" points="0,-38.5 0,-57.5 51,-57.5 51,-38.5 0,-38.5"/>
<text text-anchor="middle" x="25.5" y="-45.5" font-family="Helvetica,sans-Serif" font-size="10.00">go1step</text>
</a>
</g>
</g>
<!-- Node11&#45;&gt;Node12 -->
<g id="edge7" class="edge">
<title>Node11&#45;&gt;Node12</title>
<path fill="none" stroke="midnightblue" d="M80.63,-48C71.15,-48 60.55,-48 51.26,-48"/>
<polygon fill="midnightblue" stroke="midnightblue" points="80.72,-51.5 90.72,-48 80.72,-44.5 80.72,-51.5"/>
</g>
<!-- Node16&#45;&gt;Node11 -->
<g id="edge9" class="edge">
<title>Node16&#45;&gt;Node11</title>
<path fill="none" stroke="midnightblue" d="M164.85,-48C151.87,-48 137.13,-48 126.13,-48"/>
<polygon fill="midnightblue" stroke="midnightblue" points="165.21,-51.5 175.21,-48 165.21,-44.5 165.21,-51.5"/>
</g>
<!-- Node17&#45;&gt;Node11 -->
<g id="edge11" class="edge">
<title>Node17&#45;&gt;Node11</title>
<path fill="none" stroke="midnightblue" d="M256.99,-13.25C232.42,-16.29 196.64,-21.49 166,-29 152.33,-32.35 137.24,-37.5 126.09,-41.6"/>
<polygon fill="midnightblue" stroke="midnightblue" points="257.59,-16.7 267.1,-12.04 256.76,-9.75 257.59,-16.7"/>
</g>
</g>
</svg>
