<?xml version="1.0" encoding="UTF-8" standalone="no"?>
<!DOCTYPE svg PUBLIC "-//W3C//DTD SVG 1.1//EN"
 "http://www.w3.org/Graphics/SVG/1.1/DTD/svg11.dtd">
<!-- Generated by graphviz version 2.46.0 (0)
 -->
<!-- Title: create_obj Pages: 1 -->
<svg width="418pt" height="142pt"
 viewBox="0.00 0.00 418.00 142.00" xmlns="http://www.w3.org/2000/svg" xmlns:xlink="http://www.w3.org/1999/xlink">
<g id="graph0" class="graph" transform="scale(1 1) rotate(0) translate(4 138)">
<title>create_obj</title>
<polygon fill="white" stroke="transparent" points="-4,4 -4,-138 414,-138 414,4 -4,4"/>
<!-- Node1 -->
<g id="node1" class="node">
<title>Node1</title>
<g id="a_node1"><a xlink:title=" ">
<polygon fill="#bfbfbf" stroke="black" points="0,-57.5 0,-76.5 62,-76.5 62,-57.5 0,-57.5"/>
<text text-anchor="middle" x="31" y="-64.5" font-family="Helvetica,sans-Serif" font-size="10.00">create_obj</text>
</a>
</g>
</g>
<!-- Node2 -->
<g id="node2" class="node">
<title>Node2</title>
<g id="a_node2"><a xlink:href="comm__mpi_8f.html#a59fcf8a02fe54ab37f61050e3ca6b197" target="_top" xlink:title=" ">
<polygon fill="white" stroke="black" points="98,-57.5 98,-76.5 136,-76.5 136,-57.5 98,-57.5"/>
<text text-anchor="middle" x="117" y="-64.5" font-family="Helvetica,sans-Serif" font-size="10.00">exitti</text>
</a>
</g>
</g>
<!-- Node1&#45;&gt;Node2 -->
<g id="edge1" class="edge">
<title>Node1&#45;&gt;Node2</title>
<path fill="none" stroke="midnightblue" d="M62.33,-67C70.56,-67 79.44,-67 87.57,-67"/>
<polygon fill="midnightblue" stroke="midnightblue" points="87.7,-70.5 97.7,-67 87.7,-63.5 87.7,-70.5"/>
</g>
<!-- Node3 -->
<g id="node3" class="node">
<title>Node3</title>
<g id="a_node3"><a xlink:href="math_8f.html#a692155d1d2ec380a9fdb2d81ef221625" target="_top" xlink:title=" ">
<polygon fill="white" stroke="black" points="176,-114.5 176,-133.5 216,-133.5 216,-114.5 176,-114.5"/>
<text text-anchor="middle" x="196" y="-121.5" font-family="Helvetica,sans-Serif" font-size="10.00">blank</text>
</a>
</g>
</g>
<!-- Node2&#45;&gt;Node3 -->
<g id="edge2" class="edge">
<title>Node2&#45;&gt;Node3</title>
<path fill="none" stroke="midnightblue" d="M131.06,-76.67C142.75,-85.32 160.09,-98.16 173.77,-108.28"/>
<polygon fill="midnightblue" stroke="midnightblue" points="172.01,-111.34 182.13,-114.47 176.18,-105.71 172.01,-111.34"/>
</g>
<!-- Node4 -->
<g id="node4" class="node">
<title>Node4</title>
<g id="a_node4"><a xlink:href="math_8f.html#ad7fb480cea001849621405f37167aab1" target="_top" xlink:title=" ">
<polygon fill="white" stroke="black" points="172,-76.5 172,-95.5 220,-95.5 220,-76.5 172,-76.5"/>
<text text-anchor="middle" x="196" y="-83.5" font-family="Helvetica,sans-Serif" font-size="10.00">chcopy</text>
</a>
</g>
</g>
<!-- Node2&#45;&gt;Node4 -->
<g id="edge3" class="edge">
<title>Node2&#45;&gt;Node4</title>
<path fill="none" stroke="midnightblue" d="M136.25,-71.5C144,-73.42 153.29,-75.71 162.17,-77.9"/>
<polygon fill="midnightblue" stroke="midnightblue" points="161.36,-81.3 171.91,-80.3 163.04,-74.51 161.36,-81.3"/>
</g>
<!-- Node5 -->
<g id="node5" class="node">
<title>Node5</title>
<g id="a_node5"><a xlink:href="byte_8c.html#a2da8eeb074dfd3ffbfb3e9a4d301cda4" target="_top" xlink:title=" ">
<polygon fill="white" stroke="black" points="178.5,-38.5 178.5,-57.5 213.5,-57.5 213.5,-38.5 178.5,-38.5"/>
<text text-anchor="middle" x="196" y="-45.5" font-family="Helvetica,sans-Serif" font-size="10.00">exitt</text>
</a>
</g>
</g>
<!-- Node2&#45;&gt;Node5 -->
<g id="edge4" class="edge">
<title>Node2&#45;&gt;Node5</title>
<path fill="none" stroke="midnightblue" d="M136.25,-62.5C145.85,-60.13 157.81,-57.18 168.43,-54.56"/>
<polygon fill="midnightblue" stroke="midnightblue" points="169.59,-57.88 178.46,-52.08 167.91,-51.08 169.59,-57.88"/>
</g>
<!-- Node8 -->
<g id="node8" class="node">
<title>Node8</title>
<g id="a_node8"><a xlink:href="ic_8f.html#ada3a2c3283a9052e1fe4b7a90375b09b" target="_top" xlink:title=" ">
<polygon fill="white" stroke="black" points="176,-0.5 176,-19.5 216,-19.5 216,-0.5 176,-0.5"/>
<text text-anchor="middle" x="196" y="-7.5" font-family="Helvetica,sans-Serif" font-size="10.00">indx1</text>
</a>
</g>
</g>
<!-- Node2&#45;&gt;Node8 -->
<g id="edge7" class="edge">
<title>Node2&#45;&gt;Node8</title>
<path fill="none" stroke="midnightblue" d="M131.06,-57.33C142.75,-48.68 160.09,-35.84 173.77,-25.72"/>
<polygon fill="midnightblue" stroke="midnightblue" points="176.18,-28.29 182.13,-19.53 172.01,-22.66 176.18,-28.29"/>
</g>
<!-- Node6 -->
<g id="node6" class="node">
<title>Node6</title>
<g id="a_node6"><a xlink:href="comm__mpi_8f.html#acc8803a3787828530843112e0c48941b" target="_top" xlink:title=" ">
<polygon fill="white" stroke="black" points="256,-38.5 256,-57.5 306,-57.5 306,-38.5 256,-38.5"/>
<text text-anchor="middle" x="281" y="-45.5" font-family="Helvetica,sans-Serif" font-size="10.00">nek_die</text>
</a>
</g>
</g>
<!-- Node5&#45;&gt;Node6 -->
<g id="edge5" class="edge">
<title>Node5&#45;&gt;Node6</title>
<path fill="none" stroke="midnightblue" d="M213.8,-48C222.99,-48 234.72,-48 245.74,-48"/>
<polygon fill="midnightblue" stroke="midnightblue" points="245.99,-51.5 255.99,-48 245.99,-44.5 245.99,-51.5"/>
</g>
<!-- Node7 -->
<g id="node7" class="node">
<title>Node7</title>
<g id="a_node7"><a xlink:href="mpi__dummy_8f.html#a55e9a1619aadb638b14211ce21d7d566" target="_top" xlink:title=" ">
<polygon fill="white" stroke="black" points="342,-38.5 342,-57.5 410,-57.5 410,-38.5 342,-38.5"/>
<text text-anchor="middle" x="376" y="-45.5" font-family="Helvetica,sans-Serif" font-size="10.00">mpi_finalize</text>
</a>
</g>
</g>
<!-- Node6&#45;&gt;Node7 -->
<g id="edge6" class="edge">
<title>Node6&#45;&gt;Node7</title>
<path fill="none" stroke="midnightblue" d="M306.43,-48C314.25,-48 323.14,-48 331.88,-48"/>
<polygon fill="midnightblue" stroke="midnightblue" points="331.99,-51.5 341.99,-48 331.99,-44.5 331.99,-51.5"/>
</g>
</g>
</svg>
