<?xml version="1.0" encoding="UTF-8" standalone="no"?>
<!DOCTYPE svg PUBLIC "-//W3C//DTD SVG 1.1//EN"
 "http://www.w3.org/Graphics/SVG/1.1/DTD/svg11.dtd">
<!-- Generated by graphviz version 2.46.0 (0)
 -->
<!-- Title: unitvec Pages: 1 -->
<svg width="325pt" height="142pt"
 viewBox="0.00 0.00 325.00 142.00" xmlns="http://www.w3.org/2000/svg" xmlns:xlink="http://www.w3.org/1999/xlink">
<g id="graph0" class="graph" transform="scale(1 1) rotate(0) translate(4 138)">
<title>unitvec</title>
<polygon fill="white" stroke="transparent" points="-4,4 -4,-138 321,-138 321,4 -4,4"/>
<!-- Node1 -->
<g id="node1" class="node">
<title>Node1</title>
<g id="a_node1"><a xlink:title=" ">
<polygon fill="#bfbfbf" stroke="black" points="269,-57.5 269,-76.5 317,-76.5 317,-57.5 269,-57.5"/>
<text text-anchor="middle" x="293" y="-64.5" font-family="Helvetica,sans-Serif" font-size="10.00">unitvec</text>
</a>
</g>
</g>
<!-- Node2 -->
<g id="node2" class="node">
<title>Node2</title>
<g id="a_node2"><a xlink:href="coef_8f.html#a5ec9c11456c9b424c589644a80609d69" target="_top" xlink:title=" ">
<polygon fill="white" stroke="black" points="184.5,-114.5 184.5,-133.5 225.5,-133.5 225.5,-114.5 184.5,-114.5"/>
<text text-anchor="middle" x="205" y="-121.5" font-family="Helvetica,sans-Serif" font-size="10.00">area3</text>
</a>
</g>
</g>
<!-- Node1&#45;&gt;Node2 -->
<g id="edge1" class="edge">
<title>Node1&#45;&gt;Node2</title>
<path fill="none" stroke="midnightblue" d="M268.91,-82.31C253.45,-92.55 233.6,-105.71 220.37,-114.47"/>
<polygon fill="midnightblue" stroke="midnightblue" points="271.01,-85.11 277.41,-76.67 267.14,-79.28 271.01,-85.11"/>
</g>
<!-- Node36 -->
<g id="node5" class="node">
<title>Node36</title>
<g id="a_node5"><a xlink:href="subs2_8f.html#a1dbe7b0bdde5acd34f9628da7b0bb3b8" target="_top" xlink:title=" ">
<polygon fill="white" stroke="black" points="177,-76.5 177,-95.5 233,-95.5 233,-76.5 177,-76.5"/>
<text text-anchor="middle" x="205" y="-83.5" font-family="Helvetica,sans-Serif" font-size="10.00">comavn2</text>
</a>
</g>
</g>
<!-- Node1&#45;&gt;Node36 -->
<g id="edge4" class="edge">
<title>Node1&#45;&gt;Node36</title>
<path fill="none" stroke="midnightblue" d="M259.19,-74.25C250.57,-76.15 241.36,-78.19 233.08,-80.02"/>
<polygon fill="midnightblue" stroke="midnightblue" points="259.94,-77.67 268.95,-72.09 258.43,-70.83 259.94,-77.67"/>
</g>
<!-- Node42 -->
<g id="node8" class="node">
<title>Node42</title>
<g id="a_node8"><a xlink:href="subs2_8f.html#a1e79703717b90d067439461628ea0b4c" target="_top" xlink:title=" ">
<polygon fill="white" stroke="black" points="177,-38.5 177,-57.5 233,-57.5 233,-38.5 177,-38.5"/>
<text text-anchor="middle" x="205" y="-45.5" font-family="Helvetica,sans-Serif" font-size="10.00">comavn3</text>
</a>
</g>
</g>
<!-- Node1&#45;&gt;Node42 -->
<g id="edge7" class="edge">
<title>Node1&#45;&gt;Node42</title>
<path fill="none" stroke="midnightblue" d="M259.19,-59.75C250.57,-57.85 241.36,-55.81 233.08,-53.98"/>
<polygon fill="midnightblue" stroke="midnightblue" points="258.43,-63.17 268.95,-61.91 259.94,-56.33 258.43,-63.17"/>
</g>
<!-- Node43 -->
<g id="node9" class="node">
<title>Node43</title>
<g id="a_node9"><a xlink:href="mvmesh_8f.html#a845012ae3c072f327c08bf2d1a43bf3f" target="_top" xlink:title=" ">
<polygon fill="white" stroke="black" points="180.5,-0.5 180.5,-19.5 229.5,-19.5 229.5,-0.5 180.5,-0.5"/>
<text text-anchor="middle" x="205" y="-7.5" font-family="Helvetica,sans-Serif" font-size="10.00">mvbdry</text>
</a>
</g>
</g>
<!-- Node1&#45;&gt;Node43 -->
<g id="edge9" class="edge">
<title>Node1&#45;&gt;Node43</title>
<path fill="none" stroke="midnightblue" d="M268.91,-51.69C253.45,-41.45 233.6,-28.29 220.37,-19.53"/>
<polygon fill="midnightblue" stroke="midnightblue" points="267.14,-54.72 277.41,-57.33 271.01,-48.89 267.14,-54.72"/>
</g>
<!-- Node3 -->
<g id="node3" class="node">
<title>Node3</title>
<g id="a_node3"><a xlink:href="coef_8f.html#a1c4499ad278bab596a1b4c978fa79ea8" target="_top" xlink:title=" ">
<polygon fill="white" stroke="black" points="91,-114.5 91,-133.5 140,-133.5 140,-114.5 91,-114.5"/>
<text text-anchor="middle" x="115.5" y="-121.5" font-family="Helvetica,sans-Serif" font-size="10.00">setarea</text>
</a>
</g>
</g>
<!-- Node2&#45;&gt;Node3 -->
<g id="edge2" class="edge">
<title>Node2&#45;&gt;Node3</title>
<path fill="none" stroke="midnightblue" d="M174,-124C162.89,-124 150.46,-124 140,-124"/>
<polygon fill="midnightblue" stroke="midnightblue" points="174.14,-127.5 184.14,-124 174.14,-120.5 174.14,-127.5"/>
</g>
<!-- Node4 -->
<g id="node4" class="node">
<title>Node4</title>
<g id="a_node4"><a xlink:href="coef_8f.html#aea7fbfba708ba55609135adf3064f1c3" target="_top" xlink:title=" ">
<polygon fill="white" stroke="red" points="1.5,-114.5 1.5,-133.5 52.5,-133.5 52.5,-114.5 1.5,-114.5"/>
<text text-anchor="middle" x="27" y="-121.5" font-family="Helvetica,sans-Serif" font-size="10.00">geodat1</text>
</a>
</g>
</g>
<!-- Node3&#45;&gt;Node4 -->
<g id="edge3" class="edge">
<title>Node3&#45;&gt;Node4</title>
<path fill="none" stroke="midnightblue" d="M80.63,-124C71.25,-124 61.25,-124 52.51,-124"/>
<polygon fill="midnightblue" stroke="midnightblue" points="80.86,-127.5 90.86,-124 80.86,-120.5 80.86,-127.5"/>
</g>
<!-- Node37 -->
<g id="node6" class="node">
<title>Node37</title>
<g id="a_node6"><a xlink:href="subs2_8f.html#ac51cb7b1a20b0141c3fbf537d9d112ba" target="_top" xlink:title=" ">
<polygon fill="white" stroke="red" points="90,-57.5 90,-76.5 141,-76.5 141,-57.5 90,-57.5"/>
<text text-anchor="middle" x="115.5" y="-64.5" font-family="Helvetica,sans-Serif" font-size="10.00">setcsys</text>
</a>
</g>
</g>
<!-- Node36&#45;&gt;Node37 -->
<g id="edge5" class="edge">
<title>Node36&#45;&gt;Node37</title>
<path fill="none" stroke="midnightblue" d="M166.81,-77.92C158.09,-76.03 149.02,-74.06 141.02,-72.32"/>
<polygon fill="midnightblue" stroke="midnightblue" points="166.28,-81.39 176.79,-80.09 167.76,-74.55 166.28,-81.39"/>
</g>
<!-- Node38 -->
<g id="node7" class="node">
<title>Node38</title>
<g id="a_node7"><a xlink:href="subs2_8f.html#a85491a75f21053030871913510734987" target="_top" xlink:title=" ">
<polygon fill="white" stroke="red" points="0,-57.5 0,-76.5 54,-76.5 54,-57.5 0,-57.5"/>
<text text-anchor="middle" x="27" y="-64.5" font-family="Helvetica,sans-Serif" font-size="10.00">stsmask</text>
</a>
</g>
</g>
<!-- Node37&#45;&gt;Node38 -->
<g id="edge6" class="edge">
<title>Node37&#45;&gt;Node38</title>
<path fill="none" stroke="midnightblue" d="M79.82,-67C71.25,-67 62.21,-67 54.13,-67"/>
<polygon fill="midnightblue" stroke="midnightblue" points="79.94,-70.5 89.94,-67 79.94,-63.5 79.94,-70.5"/>
</g>
<!-- Node42&#45;&gt;Node37 -->
<g id="edge8" class="edge">
<title>Node42&#45;&gt;Node37</title>
<path fill="none" stroke="midnightblue" d="M166.81,-56.08C158.09,-57.97 149.02,-59.94 141.02,-61.68"/>
<polygon fill="midnightblue" stroke="midnightblue" points="167.76,-59.45 176.79,-53.91 166.28,-52.61 167.76,-59.45"/>
</g>
<!-- Node41 -->
<g id="node10" class="node">
<title>Node41</title>
<g id="a_node10"><a xlink:href="drive2_8f.html#aa4f676fe0a57e3cbdce8c8fe353edeb0" target="_top" xlink:title=" ">
<polygon fill="white" stroke="red" points="92.5,-0.5 92.5,-19.5 138.5,-19.5 138.5,-0.5 92.5,-0.5"/>
<text text-anchor="middle" x="115.5" y="-7.5" font-family="Helvetica,sans-Serif" font-size="10.00">meshv</text>
</a>
</g>
</g>
<!-- Node43&#45;&gt;Node41 -->
<g id="edge10" class="edge">
<title>Node43&#45;&gt;Node41</title>
<path fill="none" stroke="midnightblue" d="M169.92,-10C159.39,-10 148.07,-10 138.58,-10"/>
<polygon fill="midnightblue" stroke="midnightblue" points="170.09,-13.5 180.09,-10 170.09,-6.5 170.09,-13.5"/>
</g>
</g>
</svg>
