<?xml version="1.0" encoding="UTF-8" standalone="no"?>
<!DOCTYPE svg PUBLIC "-//W3C//DTD SVG 1.1//EN"
 "http://www.w3.org/Graphics/SVG/1.1/DTD/svg11.dtd">
<!-- Generated by graphviz version 2.46.0 (0)
 -->
<!-- Title: faceis Pages: 1 -->
<svg width="321pt" height="180pt"
 viewBox="0.00 0.00 321.00 180.00" xmlns="http://www.w3.org/2000/svg" xmlns:xlink="http://www.w3.org/1999/xlink">
<g id="graph0" class="graph" transform="scale(1 1) rotate(0) translate(4 176)">
<title>faceis</title>
<polygon fill="white" stroke="transparent" points="-4,4 -4,-176 317,-176 317,4 -4,4"/>
<!-- Node1 -->
<g id="node1" class="node">
<title>Node1</title>
<g id="a_node1"><a xlink:title=" ">
<polygon fill="#bfbfbf" stroke="black" points="270,-57.5 270,-76.5 313,-76.5 313,-57.5 270,-57.5"/>
<text text-anchor="middle" x="291.5" y="-64.5" font-family="Helvetica,sans-Serif" font-size="10.00">faceis</text>
</a>
</g>
</g>
<!-- Node2 -->
<g id="node2" class="node">
<title>Node2</title>
<g id="a_node2"><a xlink:href="plan4_8f.html#aedd42d0105ac2c4eac995ac75c027a4a" target="_top" xlink:title=" ">
<polygon fill="white" stroke="black" points="186.5,-133.5 186.5,-152.5 232.5,-152.5 232.5,-133.5 186.5,-133.5"/>
<text text-anchor="middle" x="209.5" y="-140.5" font-family="Helvetica,sans-Serif" font-size="10.00">bcdirpr</text>
</a>
</g>
</g>
<!-- Node1&#45;&gt;Node2 -->
<g id="edge1" class="edge">
<title>Node1&#45;&gt;Node2</title>
<path fill="none" stroke="midnightblue" d="M272.7,-83.91C256.65,-99.16 233.61,-121.04 220.55,-133.45"/>
<polygon fill="midnightblue" stroke="midnightblue" points="275.53,-86.05 280.37,-76.63 270.71,-80.98 275.53,-86.05"/>
</g>
<!-- Node14 -->
<g id="node4" class="node">
<title>Node14</title>
<g id="a_node4"><a xlink:href="bdry_8f.html#a3dd38c124c25cb2d3f603ecfe2c1b3df" target="_top" xlink:title=" ">
<polygon fill="white" stroke="black" points="185.5,-76.5 185.5,-95.5 233.5,-95.5 233.5,-76.5 185.5,-76.5"/>
<text text-anchor="middle" x="209.5" y="-83.5" font-family="Helvetica,sans-Serif" font-size="10.00">bcdirsc</text>
</a>
</g>
</g>
<!-- Node1&#45;&gt;Node14 -->
<g id="edge3" class="edge">
<title>Node1&#45;&gt;Node14</title>
<path fill="none" stroke="midnightblue" d="M260.01,-74.24C251.24,-76.33 241.82,-78.56 233.57,-80.52"/>
<polygon fill="midnightblue" stroke="midnightblue" points="260.98,-77.61 269.9,-71.89 259.36,-70.8 260.98,-77.61"/>
</g>
<!-- Node25 -->
<g id="node9" class="node">
<title>Node25</title>
<g id="a_node9"><a xlink:href="bdry_8f.html#aee3c4fa7540835700f9b1184f52bbdd7" target="_top" xlink:title=" ">
<polygon fill="white" stroke="red" points="185,-38.5 185,-57.5 234,-57.5 234,-38.5 185,-38.5"/>
<text text-anchor="middle" x="209.5" y="-45.5" font-family="Helvetica,sans-Serif" font-size="10.00">bcneutr</text>
</a>
</g>
</g>
<!-- Node1&#45;&gt;Node25 -->
<g id="edge9" class="edge">
<title>Node1&#45;&gt;Node25</title>
<path fill="none" stroke="midnightblue" d="M259.9,-59.73C251.36,-57.7 242.22,-55.53 234.15,-53.62"/>
<polygon fill="midnightblue" stroke="midnightblue" points="259.36,-63.2 269.9,-62.11 260.98,-56.39 259.36,-63.2"/>
</g>
<!-- Node32 -->
<g id="node10" class="node">
<title>Node32</title>
<g id="a_node10"><a xlink:href="subs1_8f.html#a4882edf58814bb50b7d7d3580977da51" target="_top" xlink:title=" ">
<polygon fill="white" stroke="red" points="186,-0.5 186,-19.5 233,-19.5 233,-0.5 186,-0.5"/>
<text text-anchor="middle" x="209.5" y="-7.5" font-family="Helvetica,sans-Serif" font-size="10.00">setdtfs</text>
</a>
</g>
</g>
<!-- Node1&#45;&gt;Node32 -->
<g id="edge10" class="edge">
<title>Node1&#45;&gt;Node32</title>
<path fill="none" stroke="midnightblue" d="M268.61,-51.41C254.3,-41.21 236.06,-28.21 223.87,-19.53"/>
<polygon fill="midnightblue" stroke="midnightblue" points="266.75,-54.38 276.93,-57.33 270.82,-48.68 266.75,-54.38"/>
</g>
<!-- Node3 -->
<g id="node3" class="node">
<title>Node3</title>
<g id="a_node3"><a xlink:href="plan4_8f.html#a0afe6a03f628b5d52eeb491f7baff5b6" target="_top" xlink:title=" ">
<polygon fill="white" stroke="red" points="89.5,-152.5 89.5,-171.5 140.5,-171.5 140.5,-152.5 89.5,-152.5"/>
<text text-anchor="middle" x="115" y="-159.5" font-family="Helvetica,sans-Serif" font-size="10.00">crespsp</text>
</a>
</g>
</g>
<!-- Node2&#45;&gt;Node3 -->
<g id="edge2" class="edge">
<title>Node2&#45;&gt;Node3</title>
<path fill="none" stroke="midnightblue" d="M176.3,-149.61C164.65,-152.01 151.7,-154.67 140.79,-156.91"/>
<polygon fill="midnightblue" stroke="midnightblue" points="177.02,-153.04 186.11,-147.6 175.61,-146.18 177.02,-153.04"/>
</g>
<!-- Node15 -->
<g id="node5" class="node">
<title>Node15</title>
<g id="a_node5"><a xlink:href="conduct_8f.html#a74a7f053381975ed36df8ea959f3aa01" target="_top" xlink:title=" ">
<polygon fill="white" stroke="red" points="0,-95.5 0,-114.5 45,-114.5 45,-95.5 0,-95.5"/>
<text text-anchor="middle" x="22.5" y="-102.5" font-family="Helvetica,sans-Serif" font-size="10.00">cdscal</text>
</a>
</g>
</g>
<!-- Node14&#45;&gt;Node15 -->
<g id="edge4" class="edge">
<title>Node14&#45;&gt;Node15</title>
<path fill="none" stroke="midnightblue" d="M175.78,-98.44C167.2,-101.15 157.86,-103.62 149,-105 113.05,-110.6 70.59,-108.89 45.42,-107.03"/>
<polygon fill="midnightblue" stroke="midnightblue" points="177.08,-101.7 185.45,-95.2 174.85,-95.06 177.08,-101.7"/>
</g>
<!-- Node21 -->
<g id="node6" class="node">
<title>Node21</title>
<g id="a_node6"><a xlink:href="conduct_8f.html#abc0953779481a8cff2666b1d0878c50c" target="_top" xlink:title=" ">
<polygon fill="white" stroke="black" points="84.5,-76.5 84.5,-95.5 145.5,-95.5 145.5,-76.5 84.5,-76.5"/>
<text text-anchor="middle" x="115" y="-83.5" font-family="Helvetica,sans-Serif" font-size="10.00">cdscal_dg</text>
</a>
</g>
</g>
<!-- Node14&#45;&gt;Node21 -->
<g id="edge5" class="edge">
<title>Node14&#45;&gt;Node21</title>
<path fill="none" stroke="midnightblue" d="M175.11,-86C165.48,-86 155.04,-86 145.65,-86"/>
<polygon fill="midnightblue" stroke="midnightblue" points="175.16,-89.5 185.16,-86 175.16,-82.5 175.16,-89.5"/>
</g>
<!-- Node22 -->
<g id="node7" class="node">
<title>Node22</title>
<g id="a_node7"><a xlink:href="conduct_8f.html#a91ac8efaecaf54411722081213fe3113" target="_top" xlink:title=" ">
<polygon fill="white" stroke="black" points="81,-38.5 81,-57.5 149,-57.5 149,-38.5 81,-38.5"/>
<text text-anchor="middle" x="115" y="-45.5" font-family="Helvetica,sans-Serif" font-size="10.00">cdscal_expl</text>
</a>
</g>
</g>
<!-- Node14&#45;&gt;Node22 -->
<g id="edge7" class="edge">
<title>Node14&#45;&gt;Node22</title>
<path fill="none" stroke="midnightblue" d="M175.85,-72.59C163.8,-67.64 150.4,-62.13 139.33,-57.59"/>
<polygon fill="midnightblue" stroke="midnightblue" points="174.58,-75.85 185.16,-76.41 177.24,-69.37 174.58,-75.85"/>
</g>
<!-- Node23 -->
<g id="node8" class="node">
<title>Node23</title>
<g id="a_node8"><a xlink:href="perturb_8f.html#af07508f1eb200c9ae22de3620ae45d70" target="_top" xlink:title=" ">
<polygon fill="white" stroke="red" points="90,-0.5 90,-19.5 140,-19.5 140,-0.5 90,-0.5"/>
<text text-anchor="middle" x="115" y="-7.5" font-family="Helvetica,sans-Serif" font-size="10.00">cdscalp</text>
</a>
</g>
</g>
<!-- Node14&#45;&gt;Node23 -->
<g id="edge8" class="edge">
<title>Node14&#45;&gt;Node23</title>
<path fill="none" stroke="midnightblue" d="M187.95,-69.66C186.94,-68.77 185.95,-67.88 185,-67 167.92,-51.21 167.27,-43.4 149,-29 144.64,-25.56 139.59,-22.34 134.77,-19.55"/>
<polygon fill="midnightblue" stroke="midnightblue" points="185.89,-72.5 195.8,-76.24 190.39,-67.13 185.89,-72.5"/>
</g>
<!-- Node21&#45;&gt;Node15 -->
<g id="edge6" class="edge">
<title>Node21&#45;&gt;Node15</title>
<path fill="none" stroke="midnightblue" d="M74.5,-94.29C64.43,-96.41 53.97,-98.6 45.16,-100.45"/>
<polygon fill="midnightblue" stroke="midnightblue" points="75.3,-97.7 84.37,-92.22 73.86,-90.85 75.3,-97.7"/>
</g>
</g>
</svg>
