<?xml version="1.0" encoding="UTF-8" standalone="no"?>
<!DOCTYPE svg PUBLIC "-//W3C//DTD SVG 1.1//EN"
 "http://www.w3.org/Graphics/SVG/1.1/DTD/svg11.dtd">
<!-- Generated by graphviz version 2.46.0 (0)
 -->
<!-- Title: check_cyclic Pages: 1 -->
<svg width="438pt" height="161pt"
 viewBox="0.00 0.00 438.00 160.88" xmlns="http://www.w3.org/2000/svg" xmlns:xlink="http://www.w3.org/1999/xlink">
<g id="graph0" class="graph" transform="scale(1 1) rotate(0) translate(4 156.88)">
<title>check_cyclic</title>
<polygon fill="white" stroke="transparent" points="-4,4 -4,-156.88 434,-156.88 434,4 -4,4"/>
<!-- Node1 -->
<g id="node1" class="node">
<title>Node1</title>
<g id="a_node1"><a xlink:title=" ">
<polygon fill="#bfbfbf" stroke="black" points="0,-76.5 0,-95.5 74,-95.5 74,-76.5 0,-76.5"/>
<text text-anchor="middle" x="37" y="-83.5" font-family="Helvetica,sans-Serif" font-size="10.00">check_cyclic</text>
</a>
</g>
</g>
<!-- Node2 -->
<g id="node2" class="node">
<title>Node2</title>
<g id="a_node2"><a xlink:href="bdry_8f.html#adaa309873cbbbd3c117145741e3e41b3" target="_top" xlink:title=" ">
<polygon fill="white" stroke="black" points="305,-104.5 305,-123.5 353,-123.5 353,-104.5 305,-104.5"/>
<text text-anchor="middle" x="329" y="-111.5" font-family="Helvetica,sans-Serif" font-size="10.00">facind2</text>
</a>
</g>
</g>
<!-- Node1&#45;&gt;Node2 -->
<g id="edge1" class="edge">
<title>Node1&#45;&gt;Node2</title>
<path fill="none" stroke="midnightblue" d="M46.1,-95.59C58.31,-109.22 82.9,-133.57 110,-143 173.56,-165.11 252.95,-143.03 296.23,-127.12"/>
<polygon fill="midnightblue" stroke="midnightblue" points="297.56,-130.36 305.66,-123.54 295.07,-123.82 297.56,-130.36"/>
</g>
<!-- Node4 -->
<g id="node4" class="node">
<title>Node4</title>
<g id="a_node4"><a xlink:href="connect1_8f.html#ac89d867068e68898fc10355c1c24678e" target="_top" xlink:title=" ">
<polygon fill="white" stroke="black" points="115,-114.5 115,-133.5 161,-133.5 161,-114.5 115,-114.5"/>
<text text-anchor="middle" x="138" y="-121.5" font-family="Helvetica,sans-Serif" font-size="10.00">facindr</text>
</a>
</g>
</g>
<!-- Node1&#45;&gt;Node4 -->
<g id="edge3" class="edge">
<title>Node1&#45;&gt;Node4</title>
<path fill="none" stroke="midnightblue" d="M62.98,-95.59C75.8,-100.51 91.54,-106.55 105.21,-111.8"/>
<polygon fill="midnightblue" stroke="midnightblue" points="104.14,-115.14 114.73,-115.45 106.65,-108.6 104.14,-115.14"/>
</g>
<!-- Node5 -->
<g id="node5" class="node">
<title>Node5</title>
<g id="a_node5"><a xlink:href="math_8f.html#a8431e1799f5711943b2e061a602754ca" target="_top" xlink:title=" ">
<polygon fill="white" stroke="black" points="115.5,-76.5 115.5,-95.5 160.5,-95.5 160.5,-76.5 115.5,-76.5"/>
<text text-anchor="middle" x="138" y="-83.5" font-family="Helvetica,sans-Serif" font-size="10.00">iglmax</text>
</a>
</g>
</g>
<!-- Node1&#45;&gt;Node5 -->
<g id="edge4" class="edge">
<title>Node1&#45;&gt;Node5</title>
<path fill="none" stroke="midnightblue" d="M74.02,-86C84.17,-86 95.14,-86 105.04,-86"/>
<polygon fill="midnightblue" stroke="midnightblue" points="105.26,-89.5 115.26,-86 105.26,-82.5 105.26,-89.5"/>
</g>
<!-- Node8 -->
<g id="node7" class="node">
<title>Node8</title>
<g id="a_node7"><a xlink:href="navier1_8f.html#a2f89b54d1ceda6fb201432d7a61bc907" target="_top" xlink:title=" ">
<polygon fill="white" stroke="black" points="110,-38.5 110,-57.5 166,-57.5 166,-38.5 110,-38.5"/>
<text text-anchor="middle" x="138" y="-45.5" font-family="Helvetica,sans-Serif" font-size="10.00">opdssum</text>
</a>
</g>
</g>
<!-- Node1&#45;&gt;Node8 -->
<g id="edge6" class="edge">
<title>Node1&#45;&gt;Node8</title>
<path fill="none" stroke="midnightblue" d="M62.98,-76.41C74.94,-71.82 89.45,-66.25 102.45,-61.26"/>
<polygon fill="midnightblue" stroke="midnightblue" points="103.94,-64.44 112.03,-57.59 101.44,-57.9 103.94,-64.44"/>
</g>
<!-- Node15 -->
<g id="node10" class="node">
<title>Node15</title>
<g id="a_node10"><a xlink:href="math_8f.html#af44de42b023a4a68cd98ea341204342d" target="_top" xlink:title=" ">
<polygon fill="white" stroke="black" points="119,-0.5 119,-19.5 157,-19.5 157,-0.5 119,-0.5"/>
<text text-anchor="middle" x="138" y="-7.5" font-family="Helvetica,sans-Serif" font-size="10.00">rzero</text>
</a>
</g>
</g>
<!-- Node1&#45;&gt;Node15 -->
<g id="edge10" class="edge">
<title>Node1&#45;&gt;Node15</title>
<path fill="none" stroke="midnightblue" d="M50.07,-76.11C64.24,-64.57 88.54,-45.03 110,-29 111.58,-27.82 113.23,-26.61 114.9,-25.4"/>
<polygon fill="midnightblue" stroke="midnightblue" points="117.04,-28.17 123.16,-19.52 112.98,-22.47 117.04,-28.17"/>
</g>
<!-- Node3 -->
<g id="node3" class="node">
<title>Node3</title>
<g id="a_node3"><a xlink:href="connect1_8f.html#aa6d2ebf2dfdfeae458d41ef4cb6d9fae" target="_top" xlink:title=" ">
<polygon fill="white" stroke="black" points="389,-104.5 389,-123.5 430,-123.5 430,-104.5 389,-104.5"/>
<text text-anchor="middle" x="409.5" y="-111.5" font-family="Helvetica,sans-Serif" font-size="10.00">dsset</text>
</a>
</g>
</g>
<!-- Node2&#45;&gt;Node3 -->
<g id="edge2" class="edge">
<title>Node2&#45;&gt;Node3</title>
<path fill="none" stroke="midnightblue" d="M353.13,-114C361.14,-114 370.24,-114 378.71,-114"/>
<polygon fill="midnightblue" stroke="midnightblue" points="378.98,-117.5 388.98,-114 378.98,-110.5 378.98,-117.5"/>
</g>
<!-- Node6 -->
<g id="node6" class="node">
<title>Node6</title>
<g id="a_node6"><a xlink:href="gs__test__gop__nonblocking_8c.html#a9a5cca78c6f0fc8b3c6845a29e9113ce" target="_top" xlink:title=" ">
<polygon fill="white" stroke="red" points="218,-95.5 218,-114.5 253,-114.5 253,-95.5 218,-95.5"/>
<text text-anchor="middle" x="235.5" y="-102.5" font-family="Helvetica,sans-Serif" font-size="10.00">igop</text>
</a>
</g>
</g>
<!-- Node5&#45;&gt;Node6 -->
<g id="edge5" class="edge">
<title>Node5&#45;&gt;Node6</title>
<path fill="none" stroke="midnightblue" d="M160.67,-90.31C174.66,-93.1 192.97,-96.74 207.85,-99.7"/>
<polygon fill="midnightblue" stroke="midnightblue" points="207.48,-103.19 217.97,-101.71 208.85,-96.33 207.48,-103.19"/>
</g>
<!-- Node9 -->
<g id="node8" class="node">
<title>Node9</title>
<g id="a_node8"><a xlink:href="navier1_8f.html#a7dc78f2f7df7b41bdbfe8f1bb2d80b4d" target="_top" xlink:title=" ">
<polygon fill="white" stroke="black" points="204.5,-57.5 204.5,-76.5 266.5,-76.5 266.5,-57.5 204.5,-57.5"/>
<text text-anchor="middle" x="235.5" y="-64.5" font-family="Helvetica,sans-Serif" font-size="10.00">rotate_cyc</text>
</a>
</g>
</g>
<!-- Node8&#45;&gt;Node9 -->
<g id="edge7" class="edge">
<title>Node8&#45;&gt;Node9</title>
<path fill="none" stroke="midnightblue" d="M166.11,-53.39C174.86,-55.13 184.75,-57.1 194.24,-58.99"/>
<polygon fill="midnightblue" stroke="midnightblue" points="193.81,-62.47 204.3,-60.99 195.17,-55.61 193.81,-62.47"/>
</g>
<!-- Node10 -->
<g id="node9" class="node">
<title>Node10</title>
<g id="a_node9"><a xlink:href="dssum_8f.html#a04a475747f747981907f8e5203c421ed" target="_top" xlink:title=" ">
<polygon fill="white" stroke="red" points="202,-19.5 202,-38.5 269,-38.5 269,-19.5 202,-19.5"/>
<text text-anchor="middle" x="235.5" y="-26.5" font-family="Helvetica,sans-Serif" font-size="10.00">vec_dssum</text>
</a>
</g>
</g>
<!-- Node8&#45;&gt;Node10 -->
<g id="edge9" class="edge">
<title>Node8&#45;&gt;Node10</title>
<path fill="none" stroke="midnightblue" d="M166.11,-42.61C174.12,-41.01 183.08,-39.23 191.82,-37.49"/>
<polygon fill="midnightblue" stroke="midnightblue" points="192.77,-40.87 201.9,-35.49 191.41,-34.01 192.77,-40.87"/>
</g>
<!-- Node9&#45;&gt;Node2 -->
<g id="edge8" class="edge">
<title>Node9&#45;&gt;Node2</title>
<path fill="none" stroke="midnightblue" d="M255.02,-76.51C267.95,-83.16 285.46,-92.15 300.08,-99.66"/>
<polygon fill="midnightblue" stroke="midnightblue" points="298.7,-102.89 309.2,-104.34 301.9,-96.66 298.7,-102.89"/>
</g>
</g>
</svg>
