<?xml version="1.0" encoding="UTF-8" standalone="no"?>
<!DOCTYPE svg PUBLIC "-//W3C//DTD SVG 1.1//EN"
 "http://www.w3.org/Graphics/SVG/1.1/DTD/svg11.dtd">
<!-- Generated by graphviz version 2.46.0 (0)
 -->
<!-- Title: pythag Pages: 1 -->
<svg width="780pt" height="66pt"
 viewBox="0.00 0.00 780.00 66.00" xmlns="http://www.w3.org/2000/svg" xmlns:xlink="http://www.w3.org/1999/xlink">
<g id="graph0" class="graph" transform="scale(1 1) rotate(0) translate(4 62)">
<title>pythag</title>
<polygon fill="white" stroke="transparent" points="-4,4 -4,-62 776,-62 776,4 -4,4"/>
<!-- Node1 -->
<g id="node1" class="node">
<title>Node1</title>
<g id="a_node1"><a xlink:title=" ">
<polygon fill="#bfbfbf" stroke="black" points="726,-19.5 726,-38.5 772,-38.5 772,-19.5 726,-19.5"/>
<text text-anchor="middle" x="749" y="-26.5" font-family="Helvetica,sans-Serif" font-size="10.00">pythag</text>
</a>
</g>
</g>
<!-- Node2 -->
<g id="node2" class="node">
<title>Node2</title>
<g id="a_node2"><a xlink:href="calcz_8f.html#a10647d37923848f705c9d89e0d98ef52" target="_top" xlink:title=" ">
<polygon fill="white" stroke="black" points="650,-19.5 650,-38.5 690,-38.5 690,-19.5 650,-19.5"/>
<text text-anchor="middle" x="670" y="-26.5" font-family="Helvetica,sans-Serif" font-size="10.00">calcz</text>
</a>
</g>
</g>
<!-- Node1&#45;&gt;Node2 -->
<g id="edge1" class="edge">
<title>Node1&#45;&gt;Node2</title>
<path fill="none" stroke="midnightblue" d="M715.5,-29C706.84,-29 697.77,-29 690.09,-29"/>
<polygon fill="midnightblue" stroke="midnightblue" points="715.73,-32.5 725.73,-29 715.73,-25.5 715.73,-32.5"/>
</g>
<!-- Node3 -->
<g id="node3" class="node">
<title>Node3</title>
<g id="a_node3"><a xlink:href="fast3d_8f.html#a2feef5df79d14b96298a1f757fb9e9b6" target="_top" xlink:title=" ">
<polygon fill="white" stroke="black" points="518,-38.5 518,-57.5 606,-57.5 606,-38.5 518,-38.5"/>
<text text-anchor="middle" x="562" y="-45.5" font-family="Helvetica,sans-Serif" font-size="10.00">gen_eigs_a_fem</text>
</a>
</g>
</g>
<!-- Node2&#45;&gt;Node3 -->
<g id="edge2" class="edge">
<title>Node2&#45;&gt;Node3</title>
<path fill="none" stroke="midnightblue" d="M639.41,-34.3C629.08,-36.16 617.25,-38.28 606.05,-40.28"/>
<polygon fill="midnightblue" stroke="midnightblue" points="640.33,-37.69 649.56,-32.48 639.1,-30.8 640.33,-37.69"/>
</g>
<!-- Node10 -->
<g id="node9" class="node">
<title>Node10</title>
<g id="a_node9"><a xlink:href="fast3d_8f.html#a0f7da4fcc0ef6bba9846187d1de9f1a6" target="_top" xlink:title=" ">
<polygon fill="white" stroke="black" points="510,-0.5 510,-19.5 614,-19.5 614,-0.5 510,-0.5"/>
<text text-anchor="middle" x="562" y="-7.5" font-family="Helvetica,sans-Serif" font-size="10.00">gen_eigs_a_fem_ax</text>
</a>
</g>
</g>
<!-- Node2&#45;&gt;Node10 -->
<g id="edge8" class="edge">
<title>Node2&#45;&gt;Node10</title>
<path fill="none" stroke="midnightblue" d="M639.7,-23.75C631.75,-22.32 622.9,-20.74 614.12,-19.16"/>
<polygon fill="midnightblue" stroke="midnightblue" points="639.1,-27.2 649.56,-25.52 640.33,-20.31 639.1,-27.2"/>
</g>
<!-- Node4 -->
<g id="node4" class="node">
<title>Node4</title>
<g id="a_node4"><a xlink:href="fast3d_8f.html#a5d83946a3a3018cd7937d2c63e30b0e8" target="_top" xlink:title=" ">
<polygon fill="white" stroke="black" points="361,-38.5 361,-57.5 466,-57.5 466,-38.5 361,-38.5"/>
<text text-anchor="middle" x="413.5" y="-45.5" font-family="Helvetica,sans-Serif" font-size="10.00">set_up_fast_1d_fem</text>
</a>
</g>
</g>
<!-- Node3&#45;&gt;Node4 -->
<g id="edge3" class="edge">
<title>Node3&#45;&gt;Node4</title>
<path fill="none" stroke="midnightblue" d="M507.7,-48C494.15,-48 479.62,-48 466.15,-48"/>
<polygon fill="midnightblue" stroke="midnightblue" points="507.84,-51.5 517.84,-48 507.84,-44.5 507.84,-51.5"/>
</g>
<!-- Node5 -->
<g id="node5" class="node">
<title>Node5</title>
<g id="a_node5"><a xlink:href="fast3d_8f.html#ae816aca38820baec08dcc7ac8a89275c" target="_top" xlink:title=" ">
<polygon fill="white" stroke="black" points="263,-19.5 263,-38.5 317,-38.5 317,-19.5 263,-19.5"/>
<text text-anchor="middle" x="290" y="-26.5" font-family="Helvetica,sans-Serif" font-size="10.00">gen_fast</text>
</a>
</g>
</g>
<!-- Node4&#45;&gt;Node5 -->
<g id="edge4" class="edge">
<title>Node4&#45;&gt;Node5</title>
<path fill="none" stroke="midnightblue" d="M350.97,-38.38C339.02,-36.51 327.12,-34.65 317.1,-33.08"/>
<polygon fill="midnightblue" stroke="midnightblue" points="350.55,-41.86 360.97,-39.94 351.63,-34.94 350.55,-41.86"/>
</g>
<!-- Node6 -->
<g id="node6" class="node">
<title>Node6</title>
<g id="a_node6"><a xlink:href="navier6_8f.html#a45317b1def173b8f1db2e5083595d095" target="_top" xlink:title=" ">
<polygon fill="white" stroke="black" points="160,-19.5 160,-38.5 227,-38.5 227,-19.5 160,-19.5"/>
<text text-anchor="middle" x="193.5" y="-26.5" font-family="Helvetica,sans-Serif" font-size="10.00">set_overlap</text>
</a>
</g>
</g>
<!-- Node5&#45;&gt;Node6 -->
<g id="edge5" class="edge">
<title>Node5&#45;&gt;Node6</title>
<path fill="none" stroke="midnightblue" d="M252.67,-29C244.3,-29 235.45,-29 227.24,-29"/>
<polygon fill="midnightblue" stroke="midnightblue" points="252.93,-32.5 262.93,-29 252.93,-25.5 252.93,-32.5"/>
</g>
<!-- Node7 -->
<g id="node7" class="node">
<title>Node7</title>
<g id="a_node7"><a xlink:href="drive2_8f.html#a7cb0ea7de68c5c3cbc3f7290f01a4d51" target="_top" xlink:title=" ">
<polygon fill="white" stroke="black" points="86,-19.5 86,-38.5 124,-38.5 124,-19.5 86,-19.5"/>
<text text-anchor="middle" x="105" y="-26.5" font-family="Helvetica,sans-Serif" font-size="10.00">prinit</text>
</a>
</g>
</g>
<!-- Node6&#45;&gt;Node7 -->
<g id="edge6" class="edge">
<title>Node6&#45;&gt;Node7</title>
<path fill="none" stroke="midnightblue" d="M149.73,-29C140.73,-29 131.7,-29 124.2,-29"/>
<polygon fill="midnightblue" stroke="midnightblue" points="149.8,-32.5 159.8,-29 149.8,-25.5 149.8,-32.5"/>
</g>
<!-- Node8 -->
<g id="node8" class="node">
<title>Node8</title>
<g id="a_node8"><a xlink:href="drive1_8f.html#a83f7c6d78ac4e68394f32533e847d0a3" target="_top" xlink:title=" ">
<polygon fill="white" stroke="red" points="0,-19.5 0,-38.5 50,-38.5 50,-19.5 0,-19.5"/>
<text text-anchor="middle" x="25" y="-26.5" font-family="Helvetica,sans-Serif" font-size="10.00">nek_init</text>
</a>
</g>
</g>
<!-- Node7&#45;&gt;Node8 -->
<g id="edge7" class="edge">
<title>Node7&#45;&gt;Node8</title>
<path fill="none" stroke="midnightblue" d="M75.8,-29C67.42,-29 58.31,-29 50.2,-29"/>
<polygon fill="midnightblue" stroke="midnightblue" points="75.91,-32.5 85.91,-29 75.91,-25.5 75.91,-32.5"/>
</g>
<!-- Node11 -->
<g id="node10" class="node">
<title>Node11</title>
<g id="a_node10"><a xlink:href="fast3d_8f.html#a85f74f8de2b2773b2ad0b77f5ec35e23" target="_top" xlink:title=" ">
<polygon fill="white" stroke="black" points="353,-0.5 353,-19.5 474,-19.5 474,-0.5 353,-0.5"/>
<text text-anchor="middle" x="413.5" y="-7.5" font-family="Helvetica,sans-Serif" font-size="10.00">set_up_fast_1d_fem_ax</text>
</a>
</g>
</g>
<!-- Node10&#45;&gt;Node11 -->
<g id="edge9" class="edge">
<title>Node10&#45;&gt;Node11</title>
<path fill="none" stroke="midnightblue" d="M499.65,-10C491.24,-10 482.62,-10 474.25,-10"/>
<polygon fill="midnightblue" stroke="midnightblue" points="499.76,-13.5 509.76,-10 499.76,-6.5 499.76,-13.5"/>
</g>
<!-- Node11&#45;&gt;Node5 -->
<g id="edge10" class="edge">
<title>Node11&#45;&gt;Node5</title>
<path fill="none" stroke="midnightblue" d="M342.9,-20.88C333.82,-22.3 325,-23.68 317.3,-24.89"/>
<polygon fill="midnightblue" stroke="midnightblue" points="343.48,-24.34 352.82,-19.33 342.4,-17.42 343.48,-24.34"/>
</g>
</g>
</svg>
