<?xml version="1.0" encoding="UTF-8" standalone="no"?>
<!DOCTYPE svg PUBLIC "-//W3C//DTD SVG 1.1//EN"
 "http://www.w3.org/Graphics/SVG/1.1/DTD/svg11.dtd">
<!-- Generated by graphviz version 2.46.0 (0)
 -->
<!-- Title: map12 Pages: 1 -->
<svg width="292pt" height="203pt"
 viewBox="0.00 0.00 292.00 203.30" xmlns="http://www.w3.org/2000/svg" xmlns:xlink="http://www.w3.org/1999/xlink">
<g id="graph0" class="graph" transform="scale(1 1) rotate(0) translate(4 199.3)">
<title>map12</title>
<polygon fill="white" stroke="transparent" points="-4,4 -4,-199.3 288,-199.3 288,4 -4,4"/>
<!-- Node1 -->
<g id="node1" class="node">
<title>Node1</title>
<g id="a_node1"><a xlink:title=" ">
<polygon fill="#bfbfbf" stroke="black" points="238,-80.8 238,-99.8 284,-99.8 284,-80.8 238,-80.8"/>
<text text-anchor="middle" x="261" y="-87.8" font-family="Helvetica,sans-Serif" font-size="10.00">map12</text>
</a>
</g>
</g>
<!-- Node2 -->
<g id="node2" class="node">
<title>Node2</title>
<g id="a_node2"><a xlink:href="navier1_8f.html#aec24385a47394ac281dc04124fff7618" target="_top" xlink:title=" ">
<polygon fill="white" stroke="black" points="138.5,-175.8 138.5,-194.8 179.5,-194.8 179.5,-175.8 138.5,-175.8"/>
<text text-anchor="middle" x="159" y="-182.8" font-family="Helvetica,sans-Serif" font-size="10.00">eprec</text>
</a>
</g>
</g>
<!-- Node1&#45;&gt;Node2 -->
<g id="edge1" class="edge">
<title>Node1&#45;&gt;Node2</title>
<path fill="none" stroke="midnightblue" d="M247.93,-108.58C237.16,-123.94 220.31,-145.8 202,-161.3 195.33,-166.94 187.15,-171.96 179.79,-175.93"/>
<polygon fill="midnightblue" stroke="midnightblue" points="251.06,-110.21 253.81,-99.98 245.28,-106.26 251.06,-110.21"/>
</g>
<!-- Node3 -->
<g id="node3" class="node">
<title>Node3</title>
<g id="a_node3"><a xlink:href="navier1_8f.html#a437311d1b46ce62fc7b4d3b1dda969e2" target="_top" xlink:title=" ">
<polygon fill="white" stroke="red" points="17,-175.8 17,-194.8 63,-194.8 63,-175.8 17,-175.8"/>
<text text-anchor="middle" x="40" y="-182.8" font-family="Helvetica,sans-Serif" font-size="10.00">uzprec</text>
</a>
</g>
</g>
<!-- Node1&#45;&gt;Node3 -->
<g id="edge11" class="edge">
<title>Node1&#45;&gt;Node3</title>
<path fill="none" stroke="midnightblue" d="M238.91,-105.88C228.21,-113.32 214.81,-121.95 202,-128.3 154.44,-151.87 94.68,-170.35 63.03,-179.33"/>
<polygon fill="midnightblue" stroke="midnightblue" points="241.06,-108.64 247.18,-99.99 237,-102.94 241.06,-108.64"/>
</g>
<!-- Node37 -->
<g id="node4" class="node">
<title>Node37</title>
<g id="a_node4"><a xlink:href="coef_8f.html#aa1888ed007f00d368349e09888f324ca" target="_top" xlink:title=" ">
<polygon fill="white" stroke="red" points="136,-99.8 136,-118.8 182,-118.8 182,-99.8 136,-99.8"/>
<text text-anchor="middle" x="159" y="-106.8" font-family="Helvetica,sans-Serif" font-size="10.00">geom2</text>
</a>
</g>
</g>
<!-- Node1&#45;&gt;Node37 -->
<g id="edge3" class="edge">
<title>Node1&#45;&gt;Node37</title>
<path fill="none" stroke="midnightblue" d="M227.93,-96.39C212.99,-99.23 195.58,-102.54 182.13,-105.09"/>
<polygon fill="midnightblue" stroke="midnightblue" points="228.64,-99.82 237.81,-94.52 227.33,-92.94 228.64,-99.82"/>
</g>
<!-- Node56 -->
<g id="node8" class="node">
<title>Node56</title>
<g id="a_node8"><a xlink:href="lpm__solve_8f.html#a955e55739053ff99543f409b011c9241" target="_top" xlink:title=" ">
<polygon fill="white" stroke="black" points="123.5,-61.8 123.5,-80.8 194.5,-80.8 194.5,-61.8 123.5,-61.8"/>
<text text-anchor="middle" x="159" y="-68.8" font-family="Helvetica,sans-Serif" font-size="10.00">lpm_qtl_pvol</text>
</a>
</g>
</g>
<!-- Node1&#45;&gt;Node56 -->
<g id="edge7" class="edge">
<title>Node1&#45;&gt;Node56</title>
<path fill="none" stroke="midnightblue" d="M227.74,-84.17C217.19,-82.17 205.43,-79.93 194.7,-77.89"/>
<polygon fill="midnightblue" stroke="midnightblue" points="227.33,-87.65 237.81,-86.08 228.64,-80.78 227.33,-87.65"/>
</g>
<!-- Node57 -->
<g id="node9" class="node">
<title>Node57</title>
<g id="a_node9"><a xlink:href="ic_8f.html#af499850e0bb56314ceea0c8db0c56784" target="_top" xlink:title=" ">
<polygon fill="white" stroke="red" points="116,-23.8 116,-42.8 202,-42.8 202,-23.8 116,-23.8"/>
<text text-anchor="middle" x="159" y="-30.8" font-family="Helvetica,sans-Serif" font-size="10.00">map_pm1_to_pr</text>
</a>
</g>
</g>
<!-- Node1&#45;&gt;Node57 -->
<g id="edge8" class="edge">
<title>Node1&#45;&gt;Node57</title>
<path fill="none" stroke="midnightblue" d="M238.24,-74.89C227.56,-67.63 214.36,-59.09 202,-52.3 195.97,-48.98 189.25,-45.75 182.98,-42.92"/>
<polygon fill="midnightblue" stroke="midnightblue" points="236.32,-77.82 246.54,-80.62 240.3,-72.06 236.32,-77.82"/>
</g>
<!-- Node82 -->
<g id="node10" class="node">
<title>Node82</title>
<g id="a_node10"><a xlink:href="ic_8f.html#a32489501c226ee8536f0fca3ac1b1b48" target="_top" xlink:title=" ">
<polygon fill="white" stroke="red" points="18,-4.8 18,-23.8 62,-23.8 62,-4.8 18,-4.8"/>
<text text-anchor="middle" x="40" y="-11.8" font-family="Helvetica,sans-Serif" font-size="10.00">restart</text>
</a>
</g>
</g>
<!-- Node1&#45;&gt;Node82 -->
<g id="edge10" class="edge">
<title>Node1&#45;&gt;Node82</title>
<path fill="none" stroke="midnightblue" d="M251.74,-71.33C242.57,-52.92 225.85,-26.1 202,-14.3 156.4,8.26 94.27,-1.26 62.15,-8.64"/>
<polygon fill="midnightblue" stroke="midnightblue" points="248.65,-72.97 256.06,-80.54 254.99,-70 248.65,-72.97"/>
</g>
<!-- Node2&#45;&gt;Node3 -->
<g id="edge2" class="edge">
<title>Node2&#45;&gt;Node3</title>
<path fill="none" stroke="midnightblue" d="M128.15,-185.3C107.85,-185.3 81.44,-185.3 63.04,-185.3"/>
<polygon fill="midnightblue" stroke="midnightblue" points="128.42,-188.8 138.42,-185.3 128.42,-181.8 128.42,-188.8"/>
</g>
<!-- Node38 -->
<g id="node5" class="node">
<title>Node38</title>
<g id="a_node5"><a xlink:href="cvode__driver_8f.html#a365f4a5b0accedd6fda56ba6be129643" target="_top" xlink:title=" ">
<polygon fill="white" stroke="red" points="0,-137.8 0,-156.8 80,-156.8 80,-137.8 0,-137.8"/>
<text text-anchor="middle" x="40" y="-144.8" font-family="Helvetica,sans-Serif" font-size="10.00">cv_eval_geom</text>
</a>
</g>
</g>
<!-- Node37&#45;&gt;Node38 -->
<g id="edge4" class="edge">
<title>Node37&#45;&gt;Node38</title>
<path fill="none" stroke="midnightblue" d="M126.28,-119.6C108.88,-125.25 87.44,-132.21 70.42,-137.74"/>
<polygon fill="midnightblue" stroke="midnightblue" points="127.56,-122.86 135.99,-116.45 125.4,-116.21 127.56,-122.86"/>
</g>
<!-- Node42 -->
<g id="node6" class="node">
<title>Node42</title>
<g id="a_node6"><a xlink:href="drive2_8f.html#aefc07385d7e7539fb57662470f694136" target="_top" xlink:title=" ">
<polygon fill="white" stroke="red" points="12,-99.8 12,-118.8 68,-118.8 68,-99.8 12,-99.8"/>
<text text-anchor="middle" x="40" y="-106.8" font-family="Helvetica,sans-Serif" font-size="10.00">gengeom</text>
</a>
</g>
</g>
<!-- Node37&#45;&gt;Node42 -->
<g id="edge5" class="edge">
<title>Node37&#45;&gt;Node42</title>
<path fill="none" stroke="midnightblue" d="M125.91,-109.3C107.83,-109.3 85.49,-109.3 68.26,-109.3"/>
<polygon fill="midnightblue" stroke="midnightblue" points="125.99,-112.8 135.99,-109.3 125.99,-105.8 125.99,-112.8"/>
</g>
<!-- Node44 -->
<g id="node7" class="node">
<title>Node44</title>
<g id="a_node7"><a xlink:href="ic_8f.html#aaf47b255d1cfac3451a8473ee6876b4f" target="_top" xlink:title=" ">
<polygon fill="white" stroke="red" points="6,-61.8 6,-80.8 74,-80.8 74,-61.8 6,-61.8"/>
<text text-anchor="middle" x="40" y="-68.8" font-family="Helvetica,sans-Serif" font-size="10.00">geom_reset</text>
</a>
</g>
</g>
<!-- Node37&#45;&gt;Node44 -->
<g id="edge6" class="edge">
<title>Node37&#45;&gt;Node44</title>
<path fill="none" stroke="midnightblue" d="M126.28,-99C108.88,-93.34 87.44,-86.38 70.42,-80.85"/>
<polygon fill="midnightblue" stroke="midnightblue" points="125.4,-102.39 135.99,-102.15 127.56,-95.73 125.4,-102.39"/>
</g>
<!-- Node57&#45;&gt;Node82 -->
<g id="edge9" class="edge">
<title>Node57&#45;&gt;Node82</title>
<path fill="none" stroke="midnightblue" d="M105.78,-24.82C90.38,-22.32 74.41,-19.72 62.17,-17.74"/>
<polygon fill="midnightblue" stroke="midnightblue" points="105.33,-28.29 115.76,-26.44 106.45,-21.38 105.33,-28.29"/>
</g>
</g>
</svg>
