<?xml version="1.0" encoding="UTF-8" standalone="no"?>
<!DOCTYPE svg PUBLIC "-//W3C//DTD SVG 1.1//EN"
 "http://www.w3.org/Graphics/SVG/1.1/DTD/svg11.dtd">
<!-- Generated by graphviz version 2.46.0 (0)
 -->
<!-- Title: volume Pages: 1 -->
<svg width="285pt" height="199pt"
 viewBox="0.00 0.00 285.00 199.00" xmlns="http://www.w3.org/2000/svg" xmlns:xlink="http://www.w3.org/1999/xlink">
<g id="graph0" class="graph" transform="scale(1 1) rotate(0) translate(4 195)">
<title>volume</title>
<polygon fill="white" stroke="transparent" points="-4,4 -4,-195 281,-195 281,4 -4,4"/>
<!-- Node1 -->
<g id="node1" class="node">
<title>Node1</title>
<g id="a_node1"><a xlink:title=" ">
<polygon fill="#bfbfbf" stroke="black" points="229,-57.5 229,-76.5 277,-76.5 277,-57.5 229,-57.5"/>
<text text-anchor="middle" x="253" y="-64.5" font-family="Helvetica,sans-Serif" font-size="10.00">volume</text>
</a>
</g>
</g>
<!-- Node2 -->
<g id="node2" class="node">
<title>Node2</title>
<g id="a_node2"><a xlink:href="cvode__driver_8f.html#a365f4a5b0accedd6fda56ba6be129643" target="_top" xlink:title=" ">
<polygon fill="white" stroke="black" points="113,-133.5 113,-152.5 193,-152.5 193,-133.5 113,-133.5"/>
<text text-anchor="middle" x="153" y="-140.5" font-family="Helvetica,sans-Serif" font-size="10.00">cv_eval_geom</text>
</a>
</g>
</g>
<!-- Node1&#45;&gt;Node2 -->
<g id="edge1" class="edge">
<title>Node1&#45;&gt;Node2</title>
<path fill="none" stroke="midnightblue" d="M231.53,-82.87C211.83,-98.15 182.68,-120.76 166.31,-133.45"/>
<polygon fill="midnightblue" stroke="midnightblue" points="233.83,-85.52 239.59,-76.63 229.54,-79.99 233.83,-85.52"/>
</g>
<!-- Node10 -->
<g id="node5" class="node">
<title>Node10</title>
<g id="a_node5"><a xlink:href="drive2_8f.html#aefc07385d7e7539fb57662470f694136" target="_top" xlink:title=" ">
<polygon fill="white" stroke="red" points="125,-76.5 125,-95.5 181,-95.5 181,-76.5 125,-76.5"/>
<text text-anchor="middle" x="153" y="-83.5" font-family="Helvetica,sans-Serif" font-size="10.00">gengeom</text>
</a>
</g>
</g>
<!-- Node1&#45;&gt;Node10 -->
<g id="edge4" class="edge">
<title>Node1&#45;&gt;Node10</title>
<path fill="none" stroke="midnightblue" d="M218.91,-73.42C206.65,-75.79 192.91,-78.46 181.23,-80.72"/>
<polygon fill="midnightblue" stroke="midnightblue" points="219.62,-76.84 228.78,-71.5 218.29,-69.97 219.62,-76.84"/>
</g>
<!-- Node20 -->
<g id="node9" class="node">
<title>Node20</title>
<g id="a_node9"><a xlink:href="ic_8f.html#aaf47b255d1cfac3451a8473ee6876b4f" target="_top" xlink:title=" ">
<polygon fill="white" stroke="red" points="119,-38.5 119,-57.5 187,-57.5 187,-38.5 119,-38.5"/>
<text text-anchor="middle" x="153" y="-45.5" font-family="Helvetica,sans-Serif" font-size="10.00">geom_reset</text>
</a>
</g>
</g>
<!-- Node1&#45;&gt;Node20 -->
<g id="edge8" class="edge">
<title>Node1&#45;&gt;Node20</title>
<path fill="none" stroke="midnightblue" d="M218.93,-60.59C208.66,-58.6 197.34,-56.4 187.07,-54.41"/>
<polygon fill="midnightblue" stroke="midnightblue" points="218.29,-64.03 228.78,-62.5 219.62,-57.16 218.29,-64.03"/>
</g>
<!-- Node31 -->
<g id="node10" class="node">
<title>Node31</title>
<g id="a_node10"><a xlink:href="mvmesh_8f.html#a1c924aee9d9ada8ef173bf0f8a3168b9" target="_top" xlink:title=" ">
<polygon fill="white" stroke="red" points="126,-0.5 126,-19.5 180,-19.5 180,-0.5 126,-0.5"/>
<text text-anchor="middle" x="153" y="-7.5" font-family="Helvetica,sans-Serif" font-size="10.00">ptbgeom</text>
</a>
</g>
</g>
<!-- Node1&#45;&gt;Node31 -->
<g id="edge9" class="edge">
<title>Node1&#45;&gt;Node31</title>
<path fill="none" stroke="midnightblue" d="M229.75,-51.78C218.86,-44.56 205.44,-36 193,-29 187.22,-25.75 180.81,-22.49 174.88,-19.61"/>
<polygon fill="midnightblue" stroke="midnightblue" points="227.97,-54.8 238.22,-57.46 231.87,-48.98 227.97,-54.8"/>
</g>
<!-- Node3 -->
<g id="node3" class="node">
<title>Node3</title>
<g id="a_node3"><a xlink:href="cvode__driver_8f.html#aee31e0eed35b392c2fdac6a1f39d498b" target="_top" xlink:title=" ">
<polygon fill="white" stroke="red" points="0,-171.5 0,-190.5 77,-190.5 77,-171.5 0,-171.5"/>
<text text-anchor="middle" x="38.5" y="-178.5" font-family="Helvetica,sans-Serif" font-size="10.00">cdscal_cvode</text>
</a>
</g>
</g>
<!-- Node2&#45;&gt;Node3 -->
<g id="edge2" class="edge">
<title>Node2&#45;&gt;Node3</title>
<path fill="none" stroke="midnightblue" d="M114.03,-155.83C98.93,-160.92 81.87,-166.69 67.88,-171.41"/>
<polygon fill="midnightblue" stroke="midnightblue" points="115.26,-159.11 123.61,-152.59 113.02,-152.47 115.26,-159.11"/>
</g>
<!-- Node9 -->
<g id="node4" class="node">
<title>Node9</title>
<g id="a_node4"><a xlink:href="cvode__driver_8f.html#a3cf183edc142d3e93dc90e21bdadbc4e" target="_top" xlink:title=" ">
<polygon fill="white" stroke="black" points="16.5,-133.5 16.5,-152.5 60.5,-152.5 60.5,-133.5 16.5,-133.5"/>
<text text-anchor="middle" x="38.5" y="-140.5" font-family="Helvetica,sans-Serif" font-size="10.00">fcvfun</text>
</a>
</g>
</g>
<!-- Node2&#45;&gt;Node9 -->
<g id="edge3" class="edge">
<title>Node2&#45;&gt;Node9</title>
<path fill="none" stroke="midnightblue" d="M102.91,-143C88.15,-143 72.72,-143 60.77,-143"/>
<polygon fill="midnightblue" stroke="midnightblue" points="102.97,-146.5 112.97,-143 102.97,-139.5 102.97,-146.5"/>
</g>
<!-- Node11 -->
<g id="node6" class="node">
<title>Node11</title>
<g id="a_node6"><a xlink:href="plan5_8f.html#a1f0ec8c2c9023166a911daec72f90239" target="_top" xlink:title=" ">
<polygon fill="white" stroke="red" points="7.5,-95.5 7.5,-114.5 69.5,-114.5 69.5,-95.5 7.5,-95.5"/>
<text text-anchor="middle" x="38.5" y="-102.5" font-family="Helvetica,sans-Serif" font-size="10.00">adv_geom</text>
</a>
</g>
</g>
<!-- Node10&#45;&gt;Node11 -->
<g id="edge5" class="edge">
<title>Node10&#45;&gt;Node11</title>
<path fill="none" stroke="midnightblue" d="M114.54,-92.33C99.95,-94.79 83.45,-97.58 69.65,-99.91"/>
<polygon fill="midnightblue" stroke="midnightblue" points="115.49,-95.72 124.77,-90.6 114.32,-88.81 115.49,-95.72"/>
</g>
<!-- Node15 -->
<g id="node7" class="node">
<title>Node15</title>
<g id="a_node7"><a xlink:href="ssolv_8f.html#a4bb42a5afabbba8c6518d83cbe481c17" target="_top" xlink:title=" ">
<polygon fill="white" stroke="black" points="13,-57.5 13,-76.5 64,-76.5 64,-57.5 13,-57.5"/>
<text text-anchor="middle" x="38.5" y="-64.5" font-family="Helvetica,sans-Serif" font-size="10.00">go1step</text>
</a>
</g>
</g>
<!-- Node10&#45;&gt;Node15 -->
<g id="edge6" class="edge">
<title>Node10&#45;&gt;Node15</title>
<path fill="none" stroke="midnightblue" d="M114.8,-79.72C98.16,-76.91 79.01,-73.67 64.18,-71.17"/>
<polygon fill="midnightblue" stroke="midnightblue" points="114.32,-83.19 124.77,-81.4 115.49,-76.28 114.32,-83.19"/>
</g>
<!-- Node16 -->
<g id="node8" class="node">
<title>Node16</title>
<g id="a_node8"><a xlink:href="ssolv_8f.html#a2de8913c214fa083dcb088c57bd45272" target="_top" xlink:title=" ">
<polygon fill="white" stroke="red" points="15.5,-19.5 15.5,-38.5 61.5,-38.5 61.5,-19.5 15.5,-19.5"/>
<text text-anchor="middle" x="38.5" y="-26.5" font-family="Helvetica,sans-Serif" font-size="10.00">gostep</text>
</a>
</g>
</g>
<!-- Node10&#45;&gt;Node16 -->
<g id="edge7" class="edge">
<title>Node10&#45;&gt;Node16</title>
<path fill="none" stroke="midnightblue" d="M122.87,-71.93C119.53,-70.29 116.19,-68.62 113,-67 96.87,-58.81 93.07,-56.31 77,-48 71.04,-44.92 64.52,-41.59 58.61,-38.6"/>
<polygon fill="midnightblue" stroke="midnightblue" points="121.58,-75.2 132.1,-76.46 124.66,-68.91 121.58,-75.2"/>
</g>
</g>
</svg>
