<?xml version="1.0" encoding="UTF-8" standalone="no"?>
<!DOCTYPE svg PUBLIC "-//W3C//DTD SVG 1.1//EN"
 "http://www.w3.org/Graphics/SVG/1.1/DTD/svg11.dtd">
<!-- Generated by graphviz version 2.46.0 (0)
 -->
<!-- Title: setwgtr Pages: 1 -->
<svg width="535pt" height="142pt"
 viewBox="0.00 0.00 535.00 142.00" xmlns="http://www.w3.org/2000/svg" xmlns:xlink="http://www.w3.org/1999/xlink">
<g id="graph0" class="graph" transform="scale(1 1) rotate(0) translate(4 138)">
<title>setwgtr</title>
<polygon fill="white" stroke="transparent" points="-4,4 -4,-138 531,-138 531,4 -4,4"/>
<!-- Node1 -->
<g id="node1" class="node">
<title>Node1</title>
<g id="a_node1"><a xlink:title=" ">
<polygon fill="#bfbfbf" stroke="black" points="478,-57.5 478,-76.5 527,-76.5 527,-57.5 478,-57.5"/>
<text text-anchor="middle" x="502.5" y="-64.5" font-family="Helvetica,sans-Serif" font-size="10.00">setwgtr</text>
</a>
</g>
</g>
<!-- Node2 -->
<g id="node2" class="node">
<title>Node2</title>
<g id="a_node2"><a xlink:href="coef_8f.html#ad1892c5a4092b22a3c6ec171a825da71" target="_top" xlink:title=" ">
<polygon fill="white" stroke="black" points="401,-57.5 401,-76.5 442,-76.5 442,-57.5 401,-57.5"/>
<text text-anchor="middle" x="421.5" y="-64.5" font-family="Helvetica,sans-Serif" font-size="10.00">area2</text>
</a>
</g>
</g>
<!-- Node1&#45;&gt;Node2 -->
<g id="edge1" class="edge">
<title>Node1&#45;&gt;Node2</title>
<path fill="none" stroke="midnightblue" d="M467.54,-67C458.88,-67 449.87,-67 442.19,-67"/>
<polygon fill="midnightblue" stroke="midnightblue" points="467.8,-70.5 477.8,-67 467.8,-63.5 467.8,-70.5"/>
</g>
<!-- Node3 -->
<g id="node3" class="node">
<title>Node3</title>
<g id="a_node3"><a xlink:href="coef_8f.html#a1c4499ad278bab596a1b4c978fa79ea8" target="_top" xlink:title=" ">
<polygon fill="white" stroke="black" points="316,-57.5 316,-76.5 365,-76.5 365,-57.5 316,-57.5"/>
<text text-anchor="middle" x="340.5" y="-64.5" font-family="Helvetica,sans-Serif" font-size="10.00">setarea</text>
</a>
</g>
</g>
<!-- Node2&#45;&gt;Node3 -->
<g id="edge2" class="edge">
<title>Node2&#45;&gt;Node3</title>
<path fill="none" stroke="midnightblue" d="M390.69,-67C382.2,-67 373.08,-67 365.02,-67"/>
<polygon fill="midnightblue" stroke="midnightblue" points="390.97,-70.5 400.97,-67 390.97,-63.5 390.97,-70.5"/>
</g>
<!-- Node4 -->
<g id="node4" class="node">
<title>Node4</title>
<g id="a_node4"><a xlink:href="coef_8f.html#aea7fbfba708ba55609135adf3064f1c3" target="_top" xlink:title=" ">
<polygon fill="white" stroke="black" points="229,-57.5 229,-76.5 280,-76.5 280,-57.5 229,-57.5"/>
<text text-anchor="middle" x="254.5" y="-64.5" font-family="Helvetica,sans-Serif" font-size="10.00">geodat1</text>
</a>
</g>
</g>
<!-- Node3&#45;&gt;Node4 -->
<g id="edge3" class="edge">
<title>Node3&#45;&gt;Node4</title>
<path fill="none" stroke="midnightblue" d="M305.64,-67C297.16,-67 288.23,-67 280.28,-67"/>
<polygon fill="midnightblue" stroke="midnightblue" points="305.65,-70.5 315.65,-67 305.65,-63.5 305.65,-70.5"/>
</g>
<!-- Node5 -->
<g id="node5" class="node">
<title>Node5</title>
<g id="a_node5"><a xlink:href="cvode__driver_8f.html#a365f4a5b0accedd6fda56ba6be129643" target="_top" xlink:title=" ">
<polygon fill="white" stroke="black" points="113,-76.5 113,-95.5 193,-95.5 193,-76.5 113,-76.5"/>
<text text-anchor="middle" x="153" y="-83.5" font-family="Helvetica,sans-Serif" font-size="10.00">cv_eval_geom</text>
</a>
</g>
</g>
<!-- Node4&#45;&gt;Node5 -->
<g id="edge4" class="edge">
<title>Node4&#45;&gt;Node5</title>
<path fill="none" stroke="midnightblue" d="M219.06,-73.58C210.66,-75.18 201.62,-76.91 193.03,-78.55"/>
<polygon fill="midnightblue" stroke="midnightblue" points="219.74,-77.01 228.9,-71.7 218.43,-70.13 219.74,-77.01"/>
</g>
<!-- Node13 -->
<g id="node8" class="node">
<title>Node13</title>
<g id="a_node8"><a xlink:href="coef_8f.html#a8cbb48eee5edaf128d65bb31ac49c3ff" target="_top" xlink:title=" ">
<polygon fill="white" stroke="red" points="130,-38.5 130,-57.5 176,-57.5 176,-38.5 130,-38.5"/>
<text text-anchor="middle" x="153" y="-45.5" font-family="Helvetica,sans-Serif" font-size="10.00">geom1</text>
</a>
</g>
</g>
<!-- Node4&#45;&gt;Node13 -->
<g id="edge7" class="edge">
<title>Node4&#45;&gt;Node13</title>
<path fill="none" stroke="midnightblue" d="M218.99,-60.41C204.83,-57.71 188.85,-54.65 176.28,-52.25"/>
<polygon fill="midnightblue" stroke="midnightblue" points="218.43,-63.87 228.9,-62.3 219.74,-56.99 218.43,-63.87"/>
</g>
<!-- Node6 -->
<g id="node6" class="node">
<title>Node6</title>
<g id="a_node6"><a xlink:href="cvode__driver_8f.html#aee31e0eed35b392c2fdac6a1f39d498b" target="_top" xlink:title=" ">
<polygon fill="white" stroke="red" points="0,-114.5 0,-133.5 77,-133.5 77,-114.5 0,-114.5"/>
<text text-anchor="middle" x="38.5" y="-121.5" font-family="Helvetica,sans-Serif" font-size="10.00">cdscal_cvode</text>
</a>
</g>
</g>
<!-- Node5&#45;&gt;Node6 -->
<g id="edge5" class="edge">
<title>Node5&#45;&gt;Node6</title>
<path fill="none" stroke="midnightblue" d="M114.03,-98.83C98.93,-103.92 81.87,-109.69 67.88,-114.41"/>
<polygon fill="midnightblue" stroke="midnightblue" points="115.26,-102.11 123.61,-95.59 113.02,-95.47 115.26,-102.11"/>
</g>
<!-- Node12 -->
<g id="node7" class="node">
<title>Node12</title>
<g id="a_node7"><a xlink:href="cvode__driver_8f.html#a3cf183edc142d3e93dc90e21bdadbc4e" target="_top" xlink:title=" ">
<polygon fill="white" stroke="black" points="16.5,-76.5 16.5,-95.5 60.5,-95.5 60.5,-76.5 16.5,-76.5"/>
<text text-anchor="middle" x="38.5" y="-83.5" font-family="Helvetica,sans-Serif" font-size="10.00">fcvfun</text>
</a>
</g>
</g>
<!-- Node5&#45;&gt;Node12 -->
<g id="edge6" class="edge">
<title>Node5&#45;&gt;Node12</title>
<path fill="none" stroke="midnightblue" d="M102.91,-86C88.15,-86 72.72,-86 60.77,-86"/>
<polygon fill="midnightblue" stroke="midnightblue" points="102.97,-89.5 112.97,-86 102.97,-82.5 102.97,-89.5"/>
</g>
<!-- Node14 -->
<g id="node9" class="node">
<title>Node14</title>
<g id="a_node9"><a xlink:href="drive2_8f.html#aefc07385d7e7539fb57662470f694136" target="_top" xlink:title=" ">
<polygon fill="white" stroke="red" points="10.5,-38.5 10.5,-57.5 66.5,-57.5 66.5,-38.5 10.5,-38.5"/>
<text text-anchor="middle" x="38.5" y="-45.5" font-family="Helvetica,sans-Serif" font-size="10.00">gengeom</text>
</a>
</g>
</g>
<!-- Node13&#45;&gt;Node14 -->
<g id="edge8" class="edge">
<title>Node13&#45;&gt;Node14</title>
<path fill="none" stroke="midnightblue" d="M119.39,-48C102.73,-48 82.69,-48 66.85,-48"/>
<polygon fill="midnightblue" stroke="midnightblue" points="119.77,-51.5 129.77,-48 119.77,-44.5 119.77,-51.5"/>
</g>
<!-- Node24 -->
<g id="node10" class="node">
<title>Node24</title>
<g id="a_node10"><a xlink:href="ic_8f.html#aaf47b255d1cfac3451a8473ee6876b4f" target="_top" xlink:title=" ">
<polygon fill="white" stroke="red" points="4.5,-0.5 4.5,-19.5 72.5,-19.5 72.5,-0.5 4.5,-0.5"/>
<text text-anchor="middle" x="38.5" y="-7.5" font-family="Helvetica,sans-Serif" font-size="10.00">geom_reset</text>
</a>
</g>
</g>
<!-- Node13&#45;&gt;Node24 -->
<g id="edge9" class="edge">
<title>Node13&#45;&gt;Node24</title>
<path fill="none" stroke="midnightblue" d="M120.02,-37.2C103.52,-31.63 83.59,-24.89 67.68,-19.52"/>
<polygon fill="midnightblue" stroke="midnightblue" points="119.18,-40.61 129.77,-40.49 121.42,-33.98 119.18,-40.61"/>
</g>
</g>
</svg>
