<?xml version="1.0" encoding="UTF-8" standalone="no"?>
<!DOCTYPE svg PUBLIC "-//W3C//DTD SVG 1.1//EN"
 "http://www.w3.org/Graphics/SVG/1.1/DTD/svg11.dtd">
<!-- Generated by graphviz version 2.46.0 (0)
 -->
<!-- Title: area3 Pages: 1 -->
<svg width="450pt" height="180pt"
 viewBox="0.00 0.00 450.00 180.00" xmlns="http://www.w3.org/2000/svg" xmlns:xlink="http://www.w3.org/1999/xlink">
<g id="graph0" class="graph" transform="scale(1 1) rotate(0) translate(4 176)">
<title>area3</title>
<polygon fill="white" stroke="transparent" points="-4,4 -4,-176 446,-176 446,4 -4,4"/>
<!-- Node1 -->
<g id="node1" class="node">
<title>Node1</title>
<g id="a_node1"><a xlink:title=" ">
<polygon fill="#bfbfbf" stroke="black" points="401,-76.5 401,-95.5 442,-95.5 442,-76.5 401,-76.5"/>
<text text-anchor="middle" x="421.5" y="-83.5" font-family="Helvetica,sans-Serif" font-size="10.00">area3</text>
</a>
</g>
</g>
<!-- Node2 -->
<g id="node2" class="node">
<title>Node2</title>
<g id="a_node2"><a xlink:href="coef_8f.html#a1c4499ad278bab596a1b4c978fa79ea8" target="_top" xlink:title=" ">
<polygon fill="white" stroke="black" points="316,-76.5 316,-95.5 365,-95.5 365,-76.5 316,-76.5"/>
<text text-anchor="middle" x="340.5" y="-83.5" font-family="Helvetica,sans-Serif" font-size="10.00">setarea</text>
</a>
</g>
</g>
<!-- Node1&#45;&gt;Node2 -->
<g id="edge1" class="edge">
<title>Node1&#45;&gt;Node2</title>
<path fill="none" stroke="midnightblue" d="M390.69,-86C382.2,-86 373.08,-86 365.02,-86"/>
<polygon fill="midnightblue" stroke="midnightblue" points="390.97,-89.5 400.97,-86 390.97,-82.5 390.97,-89.5"/>
</g>
<!-- Node3 -->
<g id="node3" class="node">
<title>Node3</title>
<g id="a_node3"><a xlink:href="coef_8f.html#aea7fbfba708ba55609135adf3064f1c3" target="_top" xlink:title=" ">
<polygon fill="white" stroke="black" points="229,-76.5 229,-95.5 280,-95.5 280,-76.5 229,-76.5"/>
<text text-anchor="middle" x="254.5" y="-83.5" font-family="Helvetica,sans-Serif" font-size="10.00">geodat1</text>
</a>
</g>
</g>
<!-- Node2&#45;&gt;Node3 -->
<g id="edge2" class="edge">
<title>Node2&#45;&gt;Node3</title>
<path fill="none" stroke="midnightblue" d="M305.64,-86C297.16,-86 288.23,-86 280.28,-86"/>
<polygon fill="midnightblue" stroke="midnightblue" points="305.65,-89.5 315.65,-86 305.65,-82.5 305.65,-89.5"/>
</g>
<!-- Node4 -->
<g id="node4" class="node">
<title>Node4</title>
<g id="a_node4"><a xlink:href="cvode__driver_8f.html#a365f4a5b0accedd6fda56ba6be129643" target="_top" xlink:title=" ">
<polygon fill="white" stroke="black" points="113,-114.5 113,-133.5 193,-133.5 193,-114.5 113,-114.5"/>
<text text-anchor="middle" x="153" y="-121.5" font-family="Helvetica,sans-Serif" font-size="10.00">cv_eval_geom</text>
</a>
</g>
</g>
<!-- Node3&#45;&gt;Node4 -->
<g id="edge3" class="edge">
<title>Node3&#45;&gt;Node4</title>
<path fill="none" stroke="midnightblue" d="M219.19,-99.1C205.99,-104.15 191.17,-109.8 179,-114.45"/>
<polygon fill="midnightblue" stroke="midnightblue" points="220.81,-102.23 228.9,-95.39 218.31,-95.69 220.81,-102.23"/>
</g>
<!-- Node12 -->
<g id="node7" class="node">
<title>Node12</title>
<g id="a_node7"><a xlink:href="coef_8f.html#a8cbb48eee5edaf128d65bb31ac49c3ff" target="_top" xlink:title=" ">
<polygon fill="white" stroke="black" points="130,-57.5 130,-76.5 176,-76.5 176,-57.5 130,-57.5"/>
<text text-anchor="middle" x="153" y="-64.5" font-family="Helvetica,sans-Serif" font-size="10.00">geom1</text>
</a>
</g>
</g>
<!-- Node3&#45;&gt;Node12 -->
<g id="edge6" class="edge">
<title>Node3&#45;&gt;Node12</title>
<path fill="none" stroke="midnightblue" d="M218.99,-79.41C204.83,-76.71 188.85,-73.65 176.28,-71.25"/>
<polygon fill="midnightblue" stroke="midnightblue" points="218.43,-82.87 228.9,-81.3 219.74,-75.99 218.43,-82.87"/>
</g>
<!-- Node5 -->
<g id="node5" class="node">
<title>Node5</title>
<g id="a_node5"><a xlink:href="cvode__driver_8f.html#aee31e0eed35b392c2fdac6a1f39d498b" target="_top" xlink:title=" ">
<polygon fill="white" stroke="red" points="0,-152.5 0,-171.5 77,-171.5 77,-152.5 0,-152.5"/>
<text text-anchor="middle" x="38.5" y="-159.5" font-family="Helvetica,sans-Serif" font-size="10.00">cdscal_cvode</text>
</a>
</g>
</g>
<!-- Node4&#45;&gt;Node5 -->
<g id="edge4" class="edge">
<title>Node4&#45;&gt;Node5</title>
<path fill="none" stroke="midnightblue" d="M114.03,-136.83C98.93,-141.92 81.87,-147.69 67.88,-152.41"/>
<polygon fill="midnightblue" stroke="midnightblue" points="115.26,-140.11 123.61,-133.59 113.02,-133.47 115.26,-140.11"/>
</g>
<!-- Node11 -->
<g id="node6" class="node">
<title>Node11</title>
<g id="a_node6"><a xlink:href="cvode__driver_8f.html#a3cf183edc142d3e93dc90e21bdadbc4e" target="_top" xlink:title=" ">
<polygon fill="white" stroke="black" points="16.5,-114.5 16.5,-133.5 60.5,-133.5 60.5,-114.5 16.5,-114.5"/>
<text text-anchor="middle" x="38.5" y="-121.5" font-family="Helvetica,sans-Serif" font-size="10.00">fcvfun</text>
</a>
</g>
</g>
<!-- Node4&#45;&gt;Node11 -->
<g id="edge5" class="edge">
<title>Node4&#45;&gt;Node11</title>
<path fill="none" stroke="midnightblue" d="M102.91,-124C88.15,-124 72.72,-124 60.77,-124"/>
<polygon fill="midnightblue" stroke="midnightblue" points="102.97,-127.5 112.97,-124 102.97,-120.5 102.97,-127.5"/>
</g>
<!-- Node13 -->
<g id="node8" class="node">
<title>Node13</title>
<g id="a_node8"><a xlink:href="drive2_8f.html#aefc07385d7e7539fb57662470f694136" target="_top" xlink:title=" ">
<polygon fill="white" stroke="red" points="10.5,-76.5 10.5,-95.5 66.5,-95.5 66.5,-76.5 10.5,-76.5"/>
<text text-anchor="middle" x="38.5" y="-83.5" font-family="Helvetica,sans-Serif" font-size="10.00">gengeom</text>
</a>
</g>
</g>
<!-- Node12&#45;&gt;Node13 -->
<g id="edge7" class="edge">
<title>Node12&#45;&gt;Node13</title>
<path fill="none" stroke="midnightblue" d="M119.87,-72.43C103.12,-75.26 82.85,-78.68 66.85,-81.38"/>
<polygon fill="midnightblue" stroke="midnightblue" points="120.5,-75.87 129.77,-70.75 119.33,-68.97 120.5,-75.87"/>
</g>
<!-- Node23 -->
<g id="node9" class="node">
<title>Node23</title>
<g id="a_node9"><a xlink:href="ic_8f.html#aaf47b255d1cfac3451a8473ee6876b4f" target="_top" xlink:title=" ">
<polygon fill="white" stroke="red" points="4.5,-38.5 4.5,-57.5 72.5,-57.5 72.5,-38.5 4.5,-38.5"/>
<text text-anchor="middle" x="38.5" y="-45.5" font-family="Helvetica,sans-Serif" font-size="10.00">geom_reset</text>
</a>
</g>
</g>
<!-- Node12&#45;&gt;Node23 -->
<g id="edge8" class="edge">
<title>Node12&#45;&gt;Node23</title>
<path fill="none" stroke="midnightblue" d="M119.62,-61.53C104.93,-59.05 87.57,-56.12 72.78,-53.62"/>
<polygon fill="midnightblue" stroke="midnightblue" points="119.33,-65.03 129.77,-63.25 120.5,-58.13 119.33,-65.03"/>
</g>
<!-- Node34 -->
<g id="node10" class="node">
<title>Node34</title>
<g id="a_node10"><a xlink:href="mvmesh_8f.html#a1c924aee9d9ada8ef173bf0f8a3168b9" target="_top" xlink:title=" ">
<polygon fill="white" stroke="red" points="11.5,-0.5 11.5,-19.5 65.5,-19.5 65.5,-0.5 11.5,-0.5"/>
<text text-anchor="middle" x="38.5" y="-7.5" font-family="Helvetica,sans-Serif" font-size="10.00">ptbgeom</text>
</a>
</g>
</g>
<!-- Node12&#45;&gt;Node34 -->
<g id="edge9" class="edge">
<title>Node12&#45;&gt;Node34</title>
<path fill="none" stroke="midnightblue" d="M124.02,-52.82C103.55,-42.45 76.34,-28.67 58.39,-19.57"/>
<polygon fill="midnightblue" stroke="midnightblue" points="122.67,-56.06 133.17,-57.46 125.83,-49.82 122.67,-56.06"/>
</g>
</g>
</svg>
