<?xml version="1.0" encoding="UTF-8" standalone="no"?>
<!DOCTYPE svg PUBLIC "-//W3C//DTD SVG 1.1//EN"
 "http://www.w3.org/Graphics/SVG/1.1/DTD/svg11.dtd">
<!-- Generated by graphviz version 2.46.0 (0)
 -->
<!-- Title: map31 Pages: 1 -->
<svg width="442pt" height="161pt"
 viewBox="0.00 0.00 442.00 161.00" xmlns="http://www.w3.org/2000/svg" xmlns:xlink="http://www.w3.org/1999/xlink">
<g id="graph0" class="graph" transform="scale(1 1) rotate(0) translate(4 157)">
<title>map31</title>
<polygon fill="white" stroke="transparent" points="-4,4 -4,-157 438,-157 438,4 -4,4"/>
<!-- Node1 -->
<g id="node1" class="node">
<title>Node1</title>
<g id="a_node1"><a xlink:title=" ">
<polygon fill="#bfbfbf" stroke="black" points="388,-38.5 388,-57.5 434,-57.5 434,-38.5 388,-38.5"/>
<text text-anchor="middle" x="411" y="-45.5" font-family="Helvetica,sans-Serif" font-size="10.00">map31</text>
</a>
</g>
</g>
<!-- Node2 -->
<g id="node2" class="node">
<title>Node2</title>
<g id="a_node2"><a xlink:href="coef_8f.html#a804b631f33dccd942344eec1069ad5ce" target="_top" xlink:title=" ">
<polygon fill="white" stroke="black" points="296,-38.5 296,-57.5 352,-57.5 352,-38.5 296,-38.5"/>
<text text-anchor="middle" x="324" y="-45.5" font-family="Helvetica,sans-Serif" font-size="10.00">glmapm3</text>
</a>
</g>
</g>
<!-- Node1&#45;&gt;Node2 -->
<g id="edge1" class="edge">
<title>Node1&#45;&gt;Node2</title>
<path fill="none" stroke="midnightblue" d="M377.44,-48C369.05,-48 360.11,-48 352.03,-48"/>
<polygon fill="midnightblue" stroke="midnightblue" points="377.67,-51.5 387.67,-48 377.67,-44.5 377.67,-51.5"/>
</g>
<!-- Node3 -->
<g id="node3" class="node">
<title>Node3</title>
<g id="a_node3"><a xlink:href="coef_8f.html#a8cbb48eee5edaf128d65bb31ac49c3ff" target="_top" xlink:title=" ">
<polygon fill="white" stroke="black" points="214,-38.5 214,-57.5 260,-57.5 260,-38.5 214,-38.5"/>
<text text-anchor="middle" x="237" y="-45.5" font-family="Helvetica,sans-Serif" font-size="10.00">geom1</text>
</a>
</g>
</g>
<!-- Node2&#45;&gt;Node3 -->
<g id="edge2" class="edge">
<title>Node2&#45;&gt;Node3</title>
<path fill="none" stroke="midnightblue" d="M285.38,-48C276.78,-48 267.91,-48 260.2,-48"/>
<polygon fill="midnightblue" stroke="midnightblue" points="285.64,-51.5 295.64,-48 285.64,-44.5 285.64,-51.5"/>
</g>
<!-- Node4 -->
<g id="node4" class="node">
<title>Node4</title>
<g id="a_node4"><a xlink:href="drive2_8f.html#aefc07385d7e7539fb57662470f694136" target="_top" xlink:title=" ">
<polygon fill="white" stroke="red" points="116,-76.5 116,-95.5 172,-95.5 172,-76.5 116,-76.5"/>
<text text-anchor="middle" x="144" y="-83.5" font-family="Helvetica,sans-Serif" font-size="10.00">gengeom</text>
</a>
</g>
</g>
<!-- Node3&#45;&gt;Node4 -->
<g id="edge3" class="edge">
<title>Node3&#45;&gt;Node4</title>
<path fill="none" stroke="midnightblue" d="M204.65,-61.09C192.53,-66.15 178.93,-71.83 167.78,-76.49"/>
<polygon fill="midnightblue" stroke="midnightblue" points="206.09,-64.28 213.97,-57.2 203.39,-57.82 206.09,-64.28"/>
</g>
<!-- Node18 -->
<g id="node9" class="node">
<title>Node18</title>
<g id="a_node9"><a xlink:href="ic_8f.html#aaf47b255d1cfac3451a8473ee6876b4f" target="_top" xlink:title=" ">
<polygon fill="white" stroke="red" points="110,-38.5 110,-57.5 178,-57.5 178,-38.5 110,-38.5"/>
<text text-anchor="middle" x="144" y="-45.5" font-family="Helvetica,sans-Serif" font-size="10.00">geom_reset</text>
</a>
</g>
</g>
<!-- Node3&#45;&gt;Node18 -->
<g id="edge8" class="edge">
<title>Node3&#45;&gt;Node18</title>
<path fill="none" stroke="midnightblue" d="M203.87,-48C195.55,-48 186.58,-48 178.2,-48"/>
<polygon fill="midnightblue" stroke="midnightblue" points="203.97,-51.5 213.97,-48 203.97,-44.5 203.97,-51.5"/>
</g>
<!-- Node29 -->
<g id="node10" class="node">
<title>Node29</title>
<g id="a_node10"><a xlink:href="mvmesh_8f.html#a1c924aee9d9ada8ef173bf0f8a3168b9" target="_top" xlink:title=" ">
<polygon fill="white" stroke="red" points="117,-0.5 117,-19.5 171,-19.5 171,-0.5 117,-0.5"/>
<text text-anchor="middle" x="144" y="-7.5" font-family="Helvetica,sans-Serif" font-size="10.00">ptbgeom</text>
</a>
</g>
</g>
<!-- Node3&#45;&gt;Node29 -->
<g id="edge9" class="edge">
<title>Node3&#45;&gt;Node29</title>
<path fill="none" stroke="midnightblue" d="M204.65,-34.91C192.53,-29.85 178.93,-24.17 167.78,-19.51"/>
<polygon fill="midnightblue" stroke="midnightblue" points="203.39,-38.18 213.97,-38.8 206.09,-31.72 203.39,-38.18"/>
</g>
<!-- Node5 -->
<g id="node5" class="node">
<title>Node5</title>
<g id="a_node5"><a xlink:href="plan5_8f.html#a1f0ec8c2c9023166a911daec72f90239" target="_top" xlink:title=" ">
<polygon fill="white" stroke="red" points="6,-133.5 6,-152.5 68,-152.5 68,-133.5 6,-133.5"/>
<text text-anchor="middle" x="37" y="-140.5" font-family="Helvetica,sans-Serif" font-size="10.00">adv_geom</text>
</a>
</g>
</g>
<!-- Node4&#45;&gt;Node5 -->
<g id="edge4" class="edge">
<title>Node4&#45;&gt;Node5</title>
<path fill="none" stroke="midnightblue" d="M116.94,-100.49C104.05,-107.63 88.24,-116.32 74,-124 68.28,-127.09 62.02,-130.41 56.35,-133.4"/>
<polygon fill="midnightblue" stroke="midnightblue" points="118.7,-103.52 125.75,-95.61 115.31,-97.4 118.7,-103.52"/>
</g>
<!-- Node9 -->
<g id="node6" class="node">
<title>Node9</title>
<g id="a_node6"><a xlink:href="ssolv_8f.html#a4bb42a5afabbba8c6518d83cbe481c17" target="_top" xlink:title=" ">
<polygon fill="white" stroke="black" points="11.5,-95.5 11.5,-114.5 62.5,-114.5 62.5,-95.5 11.5,-95.5"/>
<text text-anchor="middle" x="37" y="-102.5" font-family="Helvetica,sans-Serif" font-size="10.00">go1step</text>
</a>
</g>
</g>
<!-- Node4&#45;&gt;Node9 -->
<g id="edge5" class="edge">
<title>Node4&#45;&gt;Node9</title>
<path fill="none" stroke="midnightblue" d="M105.91,-92.71C91.62,-95.3 75.65,-98.19 62.79,-100.51"/>
<polygon fill="midnightblue" stroke="midnightblue" points="106.74,-96.12 115.96,-90.89 105.5,-89.23 106.74,-96.12"/>
</g>
<!-- Node10 -->
<g id="node7" class="node">
<title>Node10</title>
<g id="a_node7"><a xlink:href="ssolv_8f.html#a2de8913c214fa083dcb088c57bd45272" target="_top" xlink:title=" ">
<polygon fill="white" stroke="red" points="14,-57.5 14,-76.5 60,-76.5 60,-57.5 14,-57.5"/>
<text text-anchor="middle" x="37" y="-64.5" font-family="Helvetica,sans-Serif" font-size="10.00">gostep</text>
</a>
</g>
</g>
<!-- Node4&#45;&gt;Node10 -->
<g id="edge6" class="edge">
<title>Node4&#45;&gt;Node10</title>
<path fill="none" stroke="midnightblue" d="M105.74,-79.26C90.43,-76.49 73.24,-73.38 60,-70.98"/>
<polygon fill="midnightblue" stroke="midnightblue" points="105.5,-82.77 115.96,-81.11 106.74,-75.88 105.5,-82.77"/>
</g>
<!-- Node12 -->
<g id="node8" class="node">
<title>Node12</title>
<g id="a_node8"><a xlink:href="drive1_8f.html#ae177ea7efac97f35241521b782a671c0" target="_top" xlink:title=" ">
<polygon fill="white" stroke="red" points="0,-19.5 0,-38.5 74,-38.5 74,-19.5 0,-19.5"/>
<text text-anchor="middle" x="37" y="-26.5" font-family="Helvetica,sans-Serif" font-size="10.00">nek_advance</text>
</a>
</g>
</g>
<!-- Node4&#45;&gt;Node12 -->
<g id="edge7" class="edge">
<title>Node4&#45;&gt;Node12</title>
<path fill="none" stroke="midnightblue" d="M116.94,-71.51C104.05,-64.37 88.24,-55.68 74,-48 68.28,-44.91 62.02,-41.59 56.35,-38.6"/>
<polygon fill="midnightblue" stroke="midnightblue" points="115.31,-74.6 125.75,-76.39 118.7,-68.48 115.31,-74.6"/>
</g>
</g>
</svg>
