<?xml version="1.0" encoding="UTF-8" standalone="no"?>
<!DOCTYPE svg PUBLIC "-//W3C//DTD SVG 1.1//EN"
 "http://www.w3.org/Graphics/SVG/1.1/DTD/svg11.dtd">
<!-- Generated by graphviz version 2.46.0 (0)
 -->
<!-- Title: geom1 Pages: 1 -->
<svg width="354pt" height="256pt"
 viewBox="0.00 0.00 354.00 256.00" xmlns="http://www.w3.org/2000/svg" xmlns:xlink="http://www.w3.org/1999/xlink">
<g id="graph0" class="graph" transform="scale(1 1) rotate(0) translate(4 252)">
<title>geom1</title>
<polygon fill="white" stroke="transparent" points="-4,4 -4,-252 350,-252 350,4 -4,4"/>
<!-- Node1 -->
<g id="node1" class="node">
<title>Node1</title>
<g id="a_node1"><a xlink:title=" ">
<polygon fill="#bfbfbf" stroke="black" points="300,-38.5 300,-57.5 346,-57.5 346,-38.5 300,-38.5"/>
<text text-anchor="middle" x="323" y="-45.5" font-family="Helvetica,sans-Serif" font-size="10.00">geom1</text>
</a>
</g>
</g>
<!-- Node2 -->
<g id="node2" class="node">
<title>Node2</title>
<g id="a_node2"><a xlink:href="drive2_8f.html#aefc07385d7e7539fb57662470f694136" target="_top" xlink:title=" ">
<polygon fill="white" stroke="black" points="202,-133.5 202,-152.5 258,-152.5 258,-133.5 202,-133.5"/>
<text text-anchor="middle" x="230" y="-140.5" font-family="Helvetica,sans-Serif" font-size="10.00">gengeom</text>
</a>
</g>
</g>
<!-- Node1&#45;&gt;Node2 -->
<g id="edge1" class="edge">
<title>Node1&#45;&gt;Node2</title>
<path fill="none" stroke="midnightblue" d="M305.68,-65.03C286.57,-84.99 255.56,-117.36 240.21,-133.39"/>
<polygon fill="midnightblue" stroke="midnightblue" points="308.21,-67.45 312.6,-57.81 303.16,-62.61 308.21,-67.45"/>
</g>
<!-- Node16 -->
<g id="node8" class="node">
<title>Node16</title>
<g id="a_node8"><a xlink:href="ic_8f.html#aaf47b255d1cfac3451a8473ee6876b4f" target="_top" xlink:title=" ">
<polygon fill="white" stroke="red" points="196,-38.5 196,-57.5 264,-57.5 264,-38.5 196,-38.5"/>
<text text-anchor="middle" x="230" y="-45.5" font-family="Helvetica,sans-Serif" font-size="10.00">geom_reset</text>
</a>
</g>
</g>
<!-- Node1&#45;&gt;Node16 -->
<g id="edge7" class="edge">
<title>Node1&#45;&gt;Node16</title>
<path fill="none" stroke="midnightblue" d="M289.87,-48C281.55,-48 272.58,-48 264.2,-48"/>
<polygon fill="midnightblue" stroke="midnightblue" points="289.97,-51.5 299.97,-48 289.97,-44.5 289.97,-51.5"/>
</g>
<!-- Node27 -->
<g id="node10" class="node">
<title>Node27</title>
<g id="a_node10"><a xlink:href="mvmesh_8f.html#a1c924aee9d9ada8ef173bf0f8a3168b9" target="_top" xlink:title=" ">
<polygon fill="white" stroke="red" points="203,-0.5 203,-19.5 257,-19.5 257,-0.5 203,-0.5"/>
<text text-anchor="middle" x="230" y="-7.5" font-family="Helvetica,sans-Serif" font-size="10.00">ptbgeom</text>
</a>
</g>
</g>
<!-- Node1&#45;&gt;Node27 -->
<g id="edge11" class="edge">
<title>Node1&#45;&gt;Node27</title>
<path fill="none" stroke="midnightblue" d="M290.65,-34.91C278.53,-29.85 264.93,-24.17 253.78,-19.51"/>
<polygon fill="midnightblue" stroke="midnightblue" points="289.39,-38.18 299.97,-38.8 292.09,-31.72 289.39,-38.18"/>
</g>
<!-- Node3 -->
<g id="node3" class="node">
<title>Node3</title>
<g id="a_node3"><a xlink:href="plan5_8f.html#a1f0ec8c2c9023166a911daec72f90239" target="_top" xlink:title=" ">
<polygon fill="white" stroke="red" points="92,-228.5 92,-247.5 154,-247.5 154,-228.5 92,-228.5"/>
<text text-anchor="middle" x="123" y="-235.5" font-family="Helvetica,sans-Serif" font-size="10.00">adv_geom</text>
</a>
</g>
</g>
<!-- Node2&#45;&gt;Node3 -->
<g id="edge2" class="edge">
<title>Node2&#45;&gt;Node3</title>
<path fill="none" stroke="midnightblue" d="M215.51,-161.17C202.59,-177.7 181.86,-202.04 160,-219 155.53,-222.46 150.34,-225.62 145.32,-228.32"/>
<polygon fill="midnightblue" stroke="midnightblue" points="218.55,-162.95 221.85,-152.88 212.99,-158.7 218.55,-162.95"/>
</g>
<!-- Node7 -->
<g id="node4" class="node">
<title>Node7</title>
<g id="a_node4"><a xlink:href="ssolv_8f.html#a4bb42a5afabbba8c6518d83cbe481c17" target="_top" xlink:title=" ">
<polygon fill="white" stroke="black" points="97.5,-190.5 97.5,-209.5 148.5,-209.5 148.5,-190.5 97.5,-190.5"/>
<text text-anchor="middle" x="123" y="-197.5" font-family="Helvetica,sans-Serif" font-size="10.00">go1step</text>
</a>
</g>
</g>
<!-- Node2&#45;&gt;Node7 -->
<g id="edge3" class="edge">
<title>Node2&#45;&gt;Node7</title>
<path fill="none" stroke="midnightblue" d="M202.94,-157.49C190.05,-164.63 174.24,-173.32 160,-181 154.28,-184.09 148.02,-187.41 142.35,-190.4"/>
<polygon fill="midnightblue" stroke="midnightblue" points="204.7,-160.52 211.75,-152.61 201.31,-154.4 204.7,-160.52"/>
</g>
<!-- Node8 -->
<g id="node5" class="node">
<title>Node8</title>
<g id="a_node5"><a xlink:href="ssolv_8f.html#a2de8913c214fa083dcb088c57bd45272" target="_top" xlink:title=" ">
<polygon fill="white" stroke="red" points="100,-152.5 100,-171.5 146,-171.5 146,-152.5 100,-152.5"/>
<text text-anchor="middle" x="123" y="-159.5" font-family="Helvetica,sans-Serif" font-size="10.00">gostep</text>
</a>
</g>
</g>
<!-- Node2&#45;&gt;Node8 -->
<g id="edge4" class="edge">
<title>Node2&#45;&gt;Node8</title>
<path fill="none" stroke="midnightblue" d="M191.74,-149.74C176.43,-152.51 159.24,-155.62 146,-158.02"/>
<polygon fill="midnightblue" stroke="midnightblue" points="192.74,-153.12 201.96,-147.89 191.5,-146.23 192.74,-153.12"/>
</g>
<!-- Node10 -->
<g id="node6" class="node">
<title>Node10</title>
<g id="a_node6"><a xlink:href="drive1_8f.html#ae177ea7efac97f35241521b782a671c0" target="_top" xlink:title=" ">
<polygon fill="white" stroke="red" points="86,-114.5 86,-133.5 160,-133.5 160,-114.5 86,-114.5"/>
<text text-anchor="middle" x="123" y="-121.5" font-family="Helvetica,sans-Serif" font-size="10.00">nek_advance</text>
</a>
</g>
</g>
<!-- Node2&#45;&gt;Node10 -->
<g id="edge5" class="edge">
<title>Node2&#45;&gt;Node10</title>
<path fill="none" stroke="midnightblue" d="M191.96,-136.3C181.6,-134.42 170.36,-132.39 160.05,-130.52"/>
<polygon fill="midnightblue" stroke="midnightblue" points="191.5,-139.77 201.96,-138.11 192.74,-132.88 191.5,-139.77"/>
</g>
<!-- Node15 -->
<g id="node7" class="node">
<title>Node15</title>
<g id="a_node7"><a xlink:href="drive1_8f.html#a83f7c6d78ac4e68394f32533e847d0a3" target="_top" xlink:title=" ">
<polygon fill="white" stroke="red" points="0,-38.5 0,-57.5 50,-57.5 50,-38.5 0,-38.5"/>
<text text-anchor="middle" x="25" y="-45.5" font-family="Helvetica,sans-Serif" font-size="10.00">nek_init</text>
</a>
</g>
</g>
<!-- Node2&#45;&gt;Node15 -->
<g id="edge6" class="edge">
<title>Node2&#45;&gt;Node15</title>
<path fill="none" stroke="midnightblue" d="M203.99,-128.43C191.03,-121.08 174.84,-112.22 160,-105 122.26,-86.64 77.12,-68.12 50.05,-57.37"/>
<polygon fill="midnightblue" stroke="midnightblue" points="202.38,-131.54 212.79,-133.47 205.85,-125.46 202.38,-131.54"/>
</g>
<!-- Node16&#45;&gt;Node15 -->
<g id="edge10" class="edge">
<title>Node16&#45;&gt;Node15</title>
<path fill="none" stroke="midnightblue" d="M185.87,-48C144.51,-48 83.57,-48 50.14,-48"/>
<polygon fill="midnightblue" stroke="midnightblue" points="185.93,-51.5 195.93,-48 185.93,-44.5 185.93,-51.5"/>
</g>
<!-- Node17 -->
<g id="node9" class="node">
<title>Node17</title>
<g id="a_node9"><a xlink:href="conduct_8f.html#a3b764ba6cf35187ac351c3072456c805" target="_top" xlink:title=" ">
<polygon fill="white" stroke="black" points="95,-0.5 95,-19.5 151,-19.5 151,-0.5 95,-0.5"/>
<text text-anchor="middle" x="123" y="-7.5" font-family="Helvetica,sans-Serif" font-size="10.00">dg_setup</text>
</a>
</g>
</g>
<!-- Node16&#45;&gt;Node17 -->
<g id="edge8" class="edge">
<title>Node16&#45;&gt;Node17</title>
<path fill="none" stroke="midnightblue" d="M192.75,-34.88C178.87,-29.86 163.29,-24.22 150.49,-19.59"/>
<polygon fill="midnightblue" stroke="midnightblue" points="191.91,-38.3 202.5,-38.41 194.29,-31.72 191.91,-38.3"/>
</g>
<!-- Node17&#45;&gt;Node15 -->
<g id="edge9" class="edge">
<title>Node17&#45;&gt;Node15</title>
<path fill="none" stroke="midnightblue" d="M88.12,-23.41C75.61,-28.36 61.7,-33.87 50.22,-38.41"/>
<polygon fill="midnightblue" stroke="midnightblue" points="89.77,-26.52 97.78,-19.59 87.19,-20.02 89.77,-26.52"/>
</g>
</g>
</svg>
