<?xml version="1.0" encoding="UTF-8" standalone="no"?>
<!DOCTYPE svg PUBLIC "-//W3C//DTD SVG 1.1//EN"
 "http://www.w3.org/Graphics/SVG/1.1/DTD/svg11.dtd">
<!-- Generated by graphviz version 2.46.0 (0)
 -->
<!-- Title: get_msg_vol Pages: 1 -->
<svg width="272pt" height="256pt"
 viewBox="0.00 0.00 272.00 256.00" xmlns="http://www.w3.org/2000/svg" xmlns:xlink="http://www.w3.org/1999/xlink">
<g id="graph0" class="graph" transform="scale(1 1) rotate(0) translate(4 252)">
<title>get_msg_vol</title>
<polygon fill="white" stroke="transparent" points="-4,4 -4,-252 268,-252 268,4 -4,4"/>
<!-- Node1 -->
<g id="node1" class="node">
<title>Node1</title>
<g id="a_node1"><a xlink:title=" ">
<polygon fill="#bfbfbf" stroke="black" points="0,-95.5 0,-114.5 72,-114.5 72,-95.5 0,-95.5"/>
<text text-anchor="middle" x="36" y="-102.5" font-family="Helvetica,sans-Serif" font-size="10.00">get_msg_vol</text>
</a>
</g>
</g>
<!-- Node2 -->
<g id="node2" class="node">
<title>Node2</title>
<g id="a_node2"><a xlink:href="comm__mpi_8f.html#a243c9bed2592e7cd159fb36be4fda037" target="_top" xlink:title=" ">
<polygon fill="white" stroke="black" points="118,-190.5 118,-209.5 159,-209.5 159,-190.5 118,-190.5"/>
<text text-anchor="middle" x="138.5" y="-197.5" font-family="Helvetica,sans-Serif" font-size="10.00">crecv</text>
</a>
</g>
</g>
<!-- Node1&#45;&gt;Node2 -->
<g id="edge1" class="edge">
<title>Node1&#45;&gt;Node2</title>
<path fill="none" stroke="midnightblue" d="M44.64,-114.6C56.98,-129.76 82.5,-159.7 108,-181 109.51,-182.26 111.1,-183.5 112.74,-184.71"/>
<polygon fill="midnightblue" stroke="midnightblue" points="110.85,-187.66 121.07,-190.43 114.81,-181.89 110.85,-187.66"/>
</g>
<!-- Node7 -->
<g id="node5" class="node">
<title>Node7</title>
<g id="a_node5"><a xlink:href="comm__mpi_8f.html#abd95004b45059acdcc13614c52e60eae" target="_top" xlink:title=" ">
<polygon fill="white" stroke="black" points="117,-152.5 117,-171.5 160,-171.5 160,-152.5 117,-152.5"/>
<text text-anchor="middle" x="138.5" y="-159.5" font-family="Helvetica,sans-Serif" font-size="10.00">csend</text>
</a>
</g>
</g>
<!-- Node1&#45;&gt;Node7 -->
<g id="edge4" class="edge">
<title>Node1&#45;&gt;Node7</title>
<path fill="none" stroke="midnightblue" d="M54.05,-114.67C69.88,-123.65 93.67,-137.14 111.81,-147.43"/>
<polygon fill="midnightblue" stroke="midnightblue" points="110.28,-150.58 120.7,-152.47 113.73,-144.5 110.28,-150.58"/>
</g>
<!-- Node9 -->
<g id="node7" class="node">
<title>Node9</title>
<g id="a_node7"><a xlink:href="comm__mpi_8f.html#af06ec29f06aac3f8809e19de2a7e8946" target="_top" xlink:title=" ">
<polygon fill="white" stroke="red" points="108,-114.5 108,-133.5 169,-133.5 169,-114.5 108,-114.5"/>
<text text-anchor="middle" x="138.5" y="-121.5" font-family="Helvetica,sans-Serif" font-size="10.00">dnekclock</text>
</a>
</g>
</g>
<!-- Node1&#45;&gt;Node9 -->
<g id="edge6" class="edge">
<title>Node1&#45;&gt;Node9</title>
<path fill="none" stroke="midnightblue" d="M72.15,-111.65C80.44,-113.21 89.33,-114.89 97.81,-116.5"/>
<polygon fill="midnightblue" stroke="midnightblue" points="97.39,-119.98 107.87,-118.4 98.69,-113.1 97.39,-119.98"/>
</g>
<!-- Node11 -->
<g id="node8" class="node">
<title>Node11</title>
<g id="a_node8"><a xlink:href="gs__test__gop__blocking_8c.html#ab2e24f9857f6d1ded7e4d556c6bc5e49" target="_top" xlink:title=" ">
<polygon fill="white" stroke="red" points="122.5,-76.5 122.5,-95.5 154.5,-95.5 154.5,-76.5 122.5,-76.5"/>
<text text-anchor="middle" x="138.5" y="-83.5" font-family="Helvetica,sans-Serif" font-size="10.00">gop</text>
</a>
</g>
</g>
<!-- Node1&#45;&gt;Node11 -->
<g id="edge7" class="edge">
<title>Node1&#45;&gt;Node11</title>
<path fill="none" stroke="midnightblue" d="M72.15,-98.35C85.46,-95.84 100.33,-93.03 112.51,-90.72"/>
<polygon fill="midnightblue" stroke="midnightblue" points="113.25,-94.15 122.43,-88.85 111.95,-87.27 113.25,-94.15"/>
</g>
<!-- Node13 -->
<g id="node9" class="node">
<title>Node13</title>
<g id="a_node9"><a xlink:href="comm__mpi_8f.html#ae679f95ac0933fe20197a868f1d4272b" target="_top" xlink:title=" ">
<polygon fill="white" stroke="red" points="119.5,-38.5 119.5,-57.5 157.5,-57.5 157.5,-38.5 119.5,-38.5"/>
<text text-anchor="middle" x="138.5" y="-45.5" font-family="Helvetica,sans-Serif" font-size="10.00">irecv</text>
</a>
</g>
</g>
<!-- Node1&#45;&gt;Node13 -->
<g id="edge8" class="edge">
<title>Node1&#45;&gt;Node13</title>
<path fill="none" stroke="midnightblue" d="M54.05,-95.33C69.88,-86.35 93.67,-72.86 111.81,-62.57"/>
<polygon fill="midnightblue" stroke="midnightblue" points="113.73,-65.5 120.7,-57.53 110.28,-59.42 113.73,-65.5"/>
</g>
<!-- Node15 -->
<g id="node10" class="node">
<title>Node15</title>
<g id="a_node10"><a xlink:href="comm__mpi_8f.html#a3b0be5279d427588484102fe8bac8ef0" target="_top" xlink:title=" ">
<polygon fill="white" stroke="red" points="112,-0.5 112,-19.5 165,-19.5 165,-0.5 112,-0.5"/>
<text text-anchor="middle" x="138.5" y="-7.5" font-family="Helvetica,sans-Serif" font-size="10.00">msgwait</text>
</a>
</g>
</g>
<!-- Node1&#45;&gt;Node15 -->
<g id="edge9" class="edge">
<title>Node1&#45;&gt;Node15</title>
<path fill="none" stroke="midnightblue" d="M44.64,-95.4C56.98,-80.24 82.5,-50.3 108,-29 109.51,-27.74 111.1,-26.5 112.74,-25.29"/>
<polygon fill="midnightblue" stroke="midnightblue" points="114.81,-28.11 121.07,-19.57 110.85,-22.34 114.81,-28.11"/>
</g>
<!-- Node3 -->
<g id="node3" class="node">
<title>Node3</title>
<g id="a_node3"><a xlink:href="byte_8c.html#a2da8eeb074dfd3ffbfb3e9a4d301cda4" target="_top" xlink:title=" ">
<polygon fill="white" stroke="red" points="217,-228.5 217,-247.5 252,-247.5 252,-228.5 217,-228.5"/>
<text text-anchor="middle" x="234.5" y="-235.5" font-family="Helvetica,sans-Serif" font-size="10.00">exitt</text>
</a>
</g>
</g>
<!-- Node2&#45;&gt;Node3 -->
<g id="edge2" class="edge">
<title>Node2&#45;&gt;Node3</title>
<path fill="none" stroke="midnightblue" d="M159.43,-208.06C173.4,-213.71 192.21,-221.31 207.38,-227.44"/>
<polygon fill="midnightblue" stroke="midnightblue" points="206.15,-230.72 216.74,-231.22 208.78,-224.23 206.15,-230.72"/>
</g>
<!-- Node6 -->
<g id="node4" class="node">
<title>Node6</title>
<g id="a_node4"><a xlink:href="mpi__dummy_8f.html#a709ef20e522dddac7afb17999141cfd4" target="_top" xlink:title=" ">
<polygon fill="white" stroke="black" points="206.5,-190.5 206.5,-209.5 262.5,-209.5 262.5,-190.5 206.5,-190.5"/>
<text text-anchor="middle" x="234.5" y="-197.5" font-family="Helvetica,sans-Serif" font-size="10.00">mpi_recv</text>
</a>
</g>
</g>
<!-- Node2&#45;&gt;Node6 -->
<g id="edge3" class="edge">
<title>Node2&#45;&gt;Node6</title>
<path fill="none" stroke="midnightblue" d="M159.43,-200C170.13,-200 183.66,-200 196.22,-200"/>
<polygon fill="midnightblue" stroke="midnightblue" points="196.46,-203.5 206.46,-200 196.46,-196.5 196.46,-203.5"/>
</g>
<!-- Node8 -->
<g id="node6" class="node">
<title>Node8</title>
<g id="a_node6"><a xlink:href="mpi__dummy_8f.html#af98c20c7332635506f852083f7ee504a" target="_top" xlink:title=" ">
<polygon fill="white" stroke="black" points="205,-152.5 205,-171.5 264,-171.5 264,-152.5 205,-152.5"/>
<text text-anchor="middle" x="234.5" y="-159.5" font-family="Helvetica,sans-Serif" font-size="10.00">mpi_send</text>
</a>
</g>
</g>
<!-- Node7&#45;&gt;Node8 -->
<g id="edge5" class="edge">
<title>Node7&#45;&gt;Node8</title>
<path fill="none" stroke="midnightblue" d="M160.36,-162C170.49,-162 182.98,-162 194.76,-162"/>
<polygon fill="midnightblue" stroke="midnightblue" points="194.85,-165.5 204.85,-162 194.85,-158.5 194.85,-165.5"/>
</g>
</g>
</svg>
