<?xml version="1.0" encoding="UTF-8" standalone="no"?>
<!DOCTYPE svg PUBLIC "-//W3C//DTD SVG 1.1//EN"
 "http://www.w3.org/Graphics/SVG/1.1/DTD/svg11.dtd">
<!-- Generated by graphviz version 2.46.0 (0)
 -->
<!-- Title: mynode Pages: 1 -->
<svg width="446pt" height="142pt"
 viewBox="0.00 0.00 446.00 142.00" xmlns="http://www.w3.org/2000/svg" xmlns:xlink="http://www.w3.org/1999/xlink">
<g id="graph0" class="graph" transform="scale(1 1) rotate(0) translate(4 138)">
<title>mynode</title>
<polygon fill="white" stroke="transparent" points="-4,4 -4,-138 442,-138 442,4 -4,4"/>
<!-- Node1 -->
<g id="node1" class="node">
<title>Node1</title>
<g id="a_node1"><a xlink:title=" ">
<polygon fill="#bfbfbf" stroke="black" points="387,-57.5 387,-76.5 438,-76.5 438,-57.5 387,-57.5"/>
<text text-anchor="middle" x="412.5" y="-64.5" font-family="Helvetica,sans-Serif" font-size="10.00">mynode</text>
</a>
</g>
</g>
<!-- Node2 -->
<g id="node2" class="node">
<title>Node2</title>
<g id="a_node2"><a xlink:href="fast3d_8f.html#a2feef5df79d14b96298a1f757fb9e9b6" target="_top" xlink:title=" ">
<polygon fill="white" stroke="black" points="255,-114.5 255,-133.5 343,-133.5 343,-114.5 255,-114.5"/>
<text text-anchor="middle" x="299" y="-121.5" font-family="Helvetica,sans-Serif" font-size="10.00">gen_eigs_a_fem</text>
</a>
</g>
</g>
<!-- Node1&#45;&gt;Node2 -->
<g id="edge1" class="edge">
<title>Node1&#45;&gt;Node2</title>
<path fill="none" stroke="midnightblue" d="M389.7,-82.21C378.46,-89.66 364.34,-98.41 351,-105 343.97,-108.47 336.14,-111.69 328.76,-114.45"/>
<polygon fill="midnightblue" stroke="midnightblue" points="391.7,-85.08 398.03,-76.59 387.78,-79.28 391.7,-85.08"/>
</g>
<!-- Node9 -->
<g id="node5" class="node">
<title>Node9</title>
<g id="a_node5"><a xlink:href="fast3d_8f.html#a0f7da4fcc0ef6bba9846187d1de9f1a6" target="_top" xlink:title=" ">
<polygon fill="white" stroke="black" points="247,-76.5 247,-95.5 351,-95.5 351,-76.5 247,-76.5"/>
<text text-anchor="middle" x="299" y="-83.5" font-family="Helvetica,sans-Serif" font-size="10.00">gen_eigs_a_fem_ax</text>
</a>
</g>
</g>
<!-- Node1&#45;&gt;Node9 -->
<g id="edge4" class="edge">
<title>Node1&#45;&gt;Node9</title>
<path fill="none" stroke="midnightblue" d="M376.88,-72.9C368.73,-74.29 359.88,-75.8 351.17,-77.28"/>
<polygon fill="midnightblue" stroke="midnightblue" points="377.48,-76.35 386.75,-71.22 376.31,-69.45 377.48,-76.35"/>
</g>
<!-- Node11 -->
<g id="node7" class="node">
<title>Node11</title>
<g id="a_node7"><a xlink:href="comm__mpi_8f.html#ab90d4741057e2d716d13c2c30ff855de" target="_top" xlink:title=" ">
<polygon fill="white" stroke="black" points="276.5,-38.5 276.5,-57.5 321.5,-57.5 321.5,-38.5 276.5,-38.5"/>
<text text-anchor="middle" x="299" y="-45.5" font-family="Helvetica,sans-Serif" font-size="10.00">iniproc</text>
</a>
</g>
</g>
<!-- Node1&#45;&gt;Node11 -->
<g id="edge7" class="edge">
<title>Node1&#45;&gt;Node11</title>
<path fill="none" stroke="midnightblue" d="M376.88,-61.1C358.84,-58.03 337.33,-54.36 321.66,-51.69"/>
<polygon fill="midnightblue" stroke="midnightblue" points="376.31,-64.55 386.75,-62.78 377.48,-57.65 376.31,-64.55"/>
</g>
<!-- Node12 -->
<g id="node10" class="node">
<title>Node12</title>
<g id="a_node10"><a xlink:href="navier6_8f.html#a73e8b4a9725605faefa0d2a82b599986" target="_top" xlink:title=" ">
<polygon fill="white" stroke="black" points="264.5,-0.5 264.5,-19.5 333.5,-19.5 333.5,-0.5 264.5,-0.5"/>
<text text-anchor="middle" x="299" y="-7.5" font-family="Helvetica,sans-Serif" font-size="10.00">overflow_ck</text>
</a>
</g>
</g>
<!-- Node1&#45;&gt;Node12 -->
<g id="edge10" class="edge">
<title>Node1&#45;&gt;Node12</title>
<path fill="none" stroke="midnightblue" d="M389.7,-51.79C378.46,-44.34 364.34,-35.59 351,-29 343.97,-25.53 336.14,-22.31 328.76,-19.55"/>
<polygon fill="midnightblue" stroke="midnightblue" points="387.78,-54.72 398.03,-57.41 391.7,-48.92 387.78,-54.72"/>
</g>
<!-- Node3 -->
<g id="node3" class="node">
<title>Node3</title>
<g id="a_node3"><a xlink:href="fast3d_8f.html#a5d83946a3a3018cd7937d2c63e30b0e8" target="_top" xlink:title=" ">
<polygon fill="white" stroke="black" points="98,-114.5 98,-133.5 203,-133.5 203,-114.5 98,-114.5"/>
<text text-anchor="middle" x="150.5" y="-121.5" font-family="Helvetica,sans-Serif" font-size="10.00">set_up_fast_1d_fem</text>
</a>
</g>
</g>
<!-- Node2&#45;&gt;Node3 -->
<g id="edge2" class="edge">
<title>Node2&#45;&gt;Node3</title>
<path fill="none" stroke="midnightblue" d="M244.7,-124C231.15,-124 216.62,-124 203.15,-124"/>
<polygon fill="midnightblue" stroke="midnightblue" points="244.84,-127.5 254.84,-124 244.84,-120.5 244.84,-127.5"/>
</g>
<!-- Node4 -->
<g id="node4" class="node">
<title>Node4</title>
<g id="a_node4"><a xlink:href="fast3d_8f.html#ae816aca38820baec08dcc7ac8a89275c" target="_top" xlink:title=" ">
<polygon fill="white" stroke="red" points="0,-95.5 0,-114.5 54,-114.5 54,-95.5 0,-95.5"/>
<text text-anchor="middle" x="27" y="-102.5" font-family="Helvetica,sans-Serif" font-size="10.00">gen_fast</text>
</a>
</g>
</g>
<!-- Node3&#45;&gt;Node4 -->
<g id="edge3" class="edge">
<title>Node3&#45;&gt;Node4</title>
<path fill="none" stroke="midnightblue" d="M87.97,-114.38C76.02,-112.51 64.12,-110.65 54.1,-109.08"/>
<polygon fill="midnightblue" stroke="midnightblue" points="87.55,-117.86 97.97,-115.94 88.63,-110.94 87.55,-117.86"/>
</g>
<!-- Node10 -->
<g id="node6" class="node">
<title>Node10</title>
<g id="a_node6"><a xlink:href="fast3d_8f.html#a85f74f8de2b2773b2ad0b77f5ec35e23" target="_top" xlink:title=" ">
<polygon fill="white" stroke="black" points="90,-76.5 90,-95.5 211,-95.5 211,-76.5 90,-76.5"/>
<text text-anchor="middle" x="150.5" y="-83.5" font-family="Helvetica,sans-Serif" font-size="10.00">set_up_fast_1d_fem_ax</text>
</a>
</g>
</g>
<!-- Node9&#45;&gt;Node10 -->
<g id="edge5" class="edge">
<title>Node9&#45;&gt;Node10</title>
<path fill="none" stroke="midnightblue" d="M236.65,-86C228.24,-86 219.62,-86 211.25,-86"/>
<polygon fill="midnightblue" stroke="midnightblue" points="236.76,-89.5 246.76,-86 236.76,-82.5 236.76,-89.5"/>
</g>
<!-- Node10&#45;&gt;Node4 -->
<g id="edge6" class="edge">
<title>Node10&#45;&gt;Node4</title>
<path fill="none" stroke="midnightblue" d="M79.9,-96.88C70.82,-98.3 62,-99.68 54.3,-100.89"/>
<polygon fill="midnightblue" stroke="midnightblue" points="80.48,-100.34 89.82,-95.33 79.4,-93.42 80.48,-100.34"/>
</g>
<!-- Node7 -->
<g id="node8" class="node">
<title>Node7</title>
<g id="a_node8"><a xlink:href="drive1_8f.html#a83f7c6d78ac4e68394f32533e847d0a3" target="_top" xlink:title=" ">
<polygon fill="white" stroke="black" points="125.5,-38.5 125.5,-57.5 175.5,-57.5 175.5,-38.5 125.5,-38.5"/>
<text text-anchor="middle" x="150.5" y="-45.5" font-family="Helvetica,sans-Serif" font-size="10.00">nek_init</text>
</a>
</g>
</g>
<!-- Node11&#45;&gt;Node7 -->
<g id="edge8" class="edge">
<title>Node11&#45;&gt;Node7</title>
<path fill="none" stroke="midnightblue" d="M266.21,-48C238.99,-48 200.39,-48 175.65,-48"/>
<polygon fill="midnightblue" stroke="midnightblue" points="266.38,-51.5 276.38,-48 266.38,-44.5 266.38,-51.5"/>
</g>
<!-- Node8 -->
<g id="node9" class="node">
<title>Node8</title>
<g id="a_node9"><a xlink:href="drive_8f.html#a13048bf28dd0734640412d69349e3857" target="_top" xlink:title=" ">
<polygon fill="white" stroke="black" points="4,-38.5 4,-57.5 50,-57.5 50,-38.5 4,-38.5"/>
<text text-anchor="middle" x="27" y="-45.5" font-family="Helvetica,sans-Serif" font-size="10.00">nekton</text>
</a>
</g>
</g>
<!-- Node7&#45;&gt;Node8 -->
<g id="edge9" class="edge">
<title>Node7&#45;&gt;Node8</title>
<path fill="none" stroke="midnightblue" d="M115.45,-48C94.61,-48 68.55,-48 50.32,-48"/>
<polygon fill="midnightblue" stroke="midnightblue" points="115.5,-51.5 125.5,-48 115.5,-44.5 115.5,-51.5"/>
</g>
</g>
</svg>
