<?xml version="1.0" encoding="UTF-8" standalone="no"?>
<!DOCTYPE svg PUBLIC "-//W3C//DTD SVG 1.1//EN"
 "http://www.w3.org/Graphics/SVG/1.1/DTD/svg11.dtd">
<!-- Generated by graphviz version 2.46.0 (0)
 -->
<!-- Title: iniproc Pages: 1 -->
<svg width="278pt" height="199pt"
 viewBox="0.00 0.00 278.00 199.00" xmlns="http://www.w3.org/2000/svg" xmlns:xlink="http://www.w3.org/1999/xlink">
<g id="graph0" class="graph" transform="scale(1 1) rotate(0) translate(4 195)">
<title>iniproc</title>
<polygon fill="white" stroke="transparent" points="-4,4 -4,-195 274,-195 274,4 -4,4"/>
<!-- Node1 -->
<g id="node1" class="node">
<title>Node1</title>
<g id="a_node1"><a xlink:title=" ">
<polygon fill="#bfbfbf" stroke="black" points="0,-76.5 0,-95.5 45,-95.5 45,-76.5 0,-76.5"/>
<text text-anchor="middle" x="22.5" y="-83.5" font-family="Helvetica,sans-Serif" font-size="10.00">iniproc</text>
</a>
</g>
</g>
<!-- Node2 -->
<g id="node2" class="node">
<title>Node2</title>
<g id="a_node2"><a xlink:href="comm__mpi_8f.html#af06ec29f06aac3f8809e19de2a7e8946" target="_top" xlink:title=" ">
<polygon fill="white" stroke="black" points="95,-161.5 95,-180.5 156,-180.5 156,-161.5 95,-161.5"/>
<text text-anchor="middle" x="125.5" y="-168.5" font-family="Helvetica,sans-Serif" font-size="10.00">dnekclock</text>
</a>
</g>
</g>
<!-- Node1&#45;&gt;Node2 -->
<g id="edge1" class="edge">
<title>Node1&#45;&gt;Node2</title>
<path fill="none" stroke="midnightblue" d="M32.3,-95.91C43.12,-107.81 62.37,-128.04 81,-143 86.65,-147.53 93.05,-151.99 99.18,-155.97"/>
<polygon fill="midnightblue" stroke="midnightblue" points="97.5,-159.05 107.83,-161.4 101.22,-153.12 97.5,-159.05"/>
</g>
<!-- Node4 -->
<g id="node4" class="node">
<title>Node4</title>
<g id="a_node4"><a xlink:href="comm__mpi_8f.html#a59fcf8a02fe54ab37f61050e3ca6b197" target="_top" xlink:title=" ">
<polygon fill="white" stroke="red" points="106.5,-114.5 106.5,-133.5 144.5,-133.5 144.5,-114.5 106.5,-114.5"/>
<text text-anchor="middle" x="125.5" y="-121.5" font-family="Helvetica,sans-Serif" font-size="10.00">exitti</text>
</a>
</g>
</g>
<!-- Node1&#45;&gt;Node4 -->
<g id="edge3" class="edge">
<title>Node1&#45;&gt;Node4</title>
<path fill="none" stroke="midnightblue" d="M45.42,-94.25C60.5,-99.92 80.66,-107.51 96.85,-113.6"/>
<polygon fill="midnightblue" stroke="midnightblue" points="95.75,-116.92 106.34,-117.17 98.21,-110.37 95.75,-116.92"/>
</g>
<!-- Node11 -->
<g id="node8" class="node">
<title>Node11</title>
<g id="a_node8"><a xlink:href="mpi__dummy_8f.html#a58d1e95144fc92ebd9334f578c640b97" target="_top" xlink:title=" ">
<polygon fill="white" stroke="black" points="81,-76.5 81,-95.5 170,-95.5 170,-76.5 81,-76.5"/>
<text text-anchor="middle" x="125.5" y="-83.5" font-family="Helvetica,sans-Serif" font-size="10.00">mpi_type_extent</text>
</a>
</g>
</g>
<!-- Node1&#45;&gt;Node11 -->
<g id="edge7" class="edge">
<title>Node1&#45;&gt;Node11</title>
<path fill="none" stroke="midnightblue" d="M45.42,-86C52.92,-86 61.68,-86 70.58,-86"/>
<polygon fill="midnightblue" stroke="midnightblue" points="70.63,-89.5 80.63,-86 70.63,-82.5 70.63,-89.5"/>
</g>
<!-- Node12 -->
<g id="node9" class="node">
<title>Node12</title>
<g id="a_node9"><a xlink:href="comm__mpi_8f.html#a2fae0158282f10009f27373acd2a0337" target="_top" xlink:title=" ">
<polygon fill="white" stroke="red" points="100,-38.5 100,-57.5 151,-57.5 151,-38.5 100,-38.5"/>
<text text-anchor="middle" x="125.5" y="-45.5" font-family="Helvetica,sans-Serif" font-size="10.00">mynode</text>
</a>
</g>
</g>
<!-- Node1&#45;&gt;Node12 -->
<g id="edge8" class="edge">
<title>Node1&#45;&gt;Node12</title>
<path fill="none" stroke="midnightblue" d="M45.42,-77.75C58.55,-72.81 75.53,-66.42 90.39,-60.83"/>
<polygon fill="midnightblue" stroke="midnightblue" points="91.66,-64.09 99.79,-57.3 89.2,-57.54 91.66,-64.09"/>
</g>
<!-- Node14 -->
<g id="node10" class="node">
<title>Node14</title>
<g id="a_node10"><a xlink:href="comm__mpi_8f.html#a5fa0e3f8e522daadca985edc11b014c1" target="_top" xlink:title=" ">
<polygon fill="white" stroke="red" points="94.5,-0.5 94.5,-19.5 156.5,-19.5 156.5,-0.5 94.5,-0.5"/>
<text text-anchor="middle" x="125.5" y="-7.5" font-family="Helvetica,sans-Serif" font-size="10.00">numnodes</text>
</a>
</g>
</g>
<!-- Node1&#45;&gt;Node14 -->
<g id="edge9" class="edge">
<title>Node1&#45;&gt;Node14</title>
<path fill="none" stroke="midnightblue" d="M31.19,-76.43C41.47,-64.13 60.76,-42.74 81,-29 83.58,-27.25 86.34,-25.6 89.18,-24.07"/>
<polygon fill="midnightblue" stroke="midnightblue" points="90.94,-27.1 98.37,-19.55 87.85,-20.82 90.94,-27.1"/>
</g>
<!-- Node3 -->
<g id="node3" class="node">
<title>Node3</title>
<g id="a_node3"><a xlink:href="mpi__dummy_8f.html#ae6a5ef945f87c2c27849696b70f3af2a" target="_top" xlink:title=" ">
<polygon fill="white" stroke="black" points="206,-171.5 206,-190.5 270,-190.5 270,-171.5 206,-171.5"/>
<text text-anchor="middle" x="238" y="-178.5" font-family="Helvetica,sans-Serif" font-size="10.00">mpi_wtime</text>
</a>
</g>
</g>
<!-- Node2&#45;&gt;Node3 -->
<g id="edge2" class="edge">
<title>Node2&#45;&gt;Node3</title>
<path fill="none" stroke="midnightblue" d="M156.11,-173.68C168.22,-174.78 182.44,-176.06 195.54,-177.25"/>
<polygon fill="midnightblue" stroke="midnightblue" points="195.48,-180.76 205.76,-178.17 196.12,-173.79 195.48,-180.76"/>
</g>
<!-- Node5 -->
<g id="node5" class="node">
<title>Node5</title>
<g id="a_node5"><a xlink:href="math_8f.html#a692155d1d2ec380a9fdb2d81ef221625" target="_top" xlink:title=" ">
<polygon fill="white" stroke="black" points="218,-133.5 218,-152.5 258,-152.5 258,-133.5 218,-133.5"/>
<text text-anchor="middle" x="238" y="-140.5" font-family="Helvetica,sans-Serif" font-size="10.00">blank</text>
</a>
</g>
</g>
<!-- Node4&#45;&gt;Node5 -->
<g id="edge4" class="edge">
<title>Node4&#45;&gt;Node5</title>
<path fill="none" stroke="midnightblue" d="M144.75,-127.14C161.89,-130.09 187.84,-134.55 207.85,-137.99"/>
<polygon fill="midnightblue" stroke="midnightblue" points="207.54,-141.49 217.98,-139.73 208.72,-134.59 207.54,-141.49"/>
</g>
<!-- Node6 -->
<g id="node6" class="node">
<title>Node6</title>
<g id="a_node6"><a xlink:href="math_8f.html#ad7fb480cea001849621405f37167aab1" target="_top" xlink:title=" ">
<polygon fill="white" stroke="black" points="214,-95.5 214,-114.5 262,-114.5 262,-95.5 214,-95.5"/>
<text text-anchor="middle" x="238" y="-102.5" font-family="Helvetica,sans-Serif" font-size="10.00">chcopy</text>
</a>
</g>
</g>
<!-- Node4&#45;&gt;Node6 -->
<g id="edge5" class="edge">
<title>Node4&#45;&gt;Node6</title>
<path fill="none" stroke="midnightblue" d="M144.75,-120.86C160.75,-118.11 184.42,-114.04 203.78,-110.71"/>
<polygon fill="midnightblue" stroke="midnightblue" points="204.46,-114.15 213.73,-109 203.28,-107.25 204.46,-114.15"/>
</g>
<!-- Node7 -->
<g id="node7" class="node">
<title>Node7</title>
<g id="a_node7"><a xlink:href="byte_8c.html#a2da8eeb074dfd3ffbfb3e9a4d301cda4" target="_top" xlink:title=" ">
<polygon fill="white" stroke="red" points="220.5,-57.5 220.5,-76.5 255.5,-76.5 255.5,-57.5 220.5,-57.5"/>
<text text-anchor="middle" x="238" y="-64.5" font-family="Helvetica,sans-Serif" font-size="10.00">exitt</text>
</a>
</g>
</g>
<!-- Node4&#45;&gt;Node7 -->
<g id="edge6" class="edge">
<title>Node4&#45;&gt;Node7</title>
<path fill="none" stroke="midnightblue" d="M144.9,-116.47C152.72,-113.13 161.89,-109.06 170,-105 184.3,-97.85 199.85,-89.09 212.37,-81.79"/>
<polygon fill="midnightblue" stroke="midnightblue" points="214.44,-84.63 221.28,-76.53 210.89,-78.6 214.44,-84.63"/>
</g>
</g>
</svg>
