<?xml version="1.0" encoding="UTF-8" standalone="no"?>
<!DOCTYPE svg PUBLIC "-//W3C//DTD SVG 1.1//EN"
 "http://www.w3.org/Graphics/SVG/1.1/DTD/svg11.dtd">
<!-- Generated by graphviz version 2.46.0 (0)
 -->
<!-- Title: platform_timer Pages: 1 -->
<svg width="295pt" height="256pt"
 viewBox="0.00 0.00 295.00 256.00" xmlns="http://www.w3.org/2000/svg" xmlns:xlink="http://www.w3.org/1999/xlink">
<g id="graph0" class="graph" transform="scale(1 1) rotate(0) translate(4 252)">
<title>platform_timer</title>
<polygon fill="white" stroke="transparent" points="-4,4 -4,-252 291,-252 291,4 -4,4"/>
<!-- Node1 -->
<g id="node1" class="node">
<title>Node1</title>
<g id="a_node1"><a xlink:title=" ">
<polygon fill="#bfbfbf" stroke="black" points="0,-76.5 0,-95.5 79,-95.5 79,-76.5 0,-76.5"/>
<text text-anchor="middle" x="39.5" y="-83.5" font-family="Helvetica,sans-Serif" font-size="10.00">platform_timer</text>
</a>
</g>
</g>
<!-- Node2 -->
<g id="node2" class="node">
<title>Node2</title>
<g id="a_node2"><a xlink:href="comm__mpi_8f.html#a4ae3a0a5f8272f42f30b9a02ae9b5144" target="_top" xlink:title=" ">
<polygon fill="white" stroke="black" points="120,-133.5 120,-152.5 185,-152.5 185,-133.5 120,-133.5"/>
<text text-anchor="middle" x="152.5" y="-140.5" font-family="Helvetica,sans-Serif" font-size="10.00">comm_test</text>
</a>
</g>
</g>
<!-- Node1&#45;&gt;Node2 -->
<g id="edge1" class="edge">
<title>Node1&#45;&gt;Node2</title>
<path fill="none" stroke="midnightblue" d="M59.08,-95.54C76.77,-104.62 103.61,-118.41 123.82,-128.79"/>
<polygon fill="midnightblue" stroke="midnightblue" points="122.37,-131.97 132.86,-133.43 125.56,-125.75 122.37,-131.97"/>
</g>
<!-- Node32 -->
<g id="node8" class="node">
<title>Node32</title>
<g id="a_node8"><a xlink:href="mxm__std_8f.html#a2f1607228da266881361a7dbb213d9f4" target="_top" xlink:title=" ">
<polygon fill="white" stroke="red" points="115,-38.5 115,-57.5 190,-57.5 190,-38.5 115,-38.5"/>
<text text-anchor="middle" x="152.5" y="-45.5" font-family="Helvetica,sans-Serif" font-size="10.00">mxm_test_all</text>
</a>
</g>
</g>
<!-- Node1&#45;&gt;Node32 -->
<g id="edge7" class="edge">
<title>Node1&#45;&gt;Node32</title>
<path fill="none" stroke="midnightblue" d="M68.51,-76.41C82.18,-71.73 98.83,-66.03 113.62,-60.97"/>
<polygon fill="midnightblue" stroke="midnightblue" points="115.17,-64.14 123.5,-57.59 112.9,-57.51 115.17,-64.14"/>
</g>
<!-- Node3 -->
<g id="node3" class="node">
<title>Node3</title>
<g id="a_node3"><a xlink:href="comm__mpi_8f.html#adfd24553503bf8ac7e0a0be2c517211d" target="_top" xlink:title=" ">
<polygon fill="white" stroke="red" points="229.5,-228.5 229.5,-247.5 283.5,-247.5 283.5,-228.5 229.5,-228.5"/>
<text text-anchor="middle" x="256.5" y="-235.5" font-family="Helvetica,sans-Serif" font-size="10.00">gop_test</text>
</a>
</g>
</g>
<!-- Node2&#45;&gt;Node3 -->
<g id="edge2" class="edge">
<title>Node2&#45;&gt;Node3</title>
<path fill="none" stroke="midnightblue" d="M161.34,-152.58C174,-167.72 200.13,-197.63 226,-219 227.51,-220.25 229.12,-221.49 230.76,-222.7"/>
<polygon fill="midnightblue" stroke="midnightblue" points="228.87,-225.64 239.09,-228.41 232.82,-219.87 228.87,-225.64"/>
</g>
<!-- Node10 -->
<g id="node4" class="node">
<title>Node10</title>
<g id="a_node4"><a xlink:href="comm__mpi_8f.html#a13eb5b07cdb8c8c2d1da7353bae3f02a" target="_top" xlink:title=" ">
<polygon fill="white" stroke="red" points="229.5,-190.5 229.5,-209.5 283.5,-209.5 283.5,-190.5 229.5,-190.5"/>
<text text-anchor="middle" x="256.5" y="-197.5" font-family="Helvetica,sans-Serif" font-size="10.00">gp2_test</text>
</a>
</g>
</g>
<!-- Node2&#45;&gt;Node10 -->
<g id="edge3" class="edge">
<title>Node2&#45;&gt;Node10</title>
<path fill="none" stroke="midnightblue" d="M170.8,-152.67C186.95,-161.69 211.24,-175.27 229.68,-185.57"/>
<polygon fill="midnightblue" stroke="midnightblue" points="228.02,-188.65 238.45,-190.47 231.43,-182.54 228.02,-188.65"/>
</g>
<!-- Node20 -->
<g id="node5" class="node">
<title>Node20</title>
<g id="a_node5"><a xlink:href="math_8f.html#a73058ab7dcbe8aa40dbbd6ffe547b1c9" target="_top" xlink:title=" ">
<polygon fill="white" stroke="black" points="239,-152.5 239,-171.5 274,-171.5 274,-152.5 239,-152.5"/>
<text text-anchor="middle" x="256.5" y="-159.5" font-family="Helvetica,sans-Serif" font-size="10.00">log2</text>
</a>
</g>
</g>
<!-- Node2&#45;&gt;Node20 -->
<g id="edge4" class="edge">
<title>Node2&#45;&gt;Node20</title>
<path fill="none" stroke="midnightblue" d="M185.21,-148.91C199.24,-151.52 215.55,-154.56 228.93,-157.05"/>
<polygon fill="midnightblue" stroke="midnightblue" points="228.46,-160.52 238.93,-158.91 229.74,-153.64 228.46,-160.52"/>
</g>
<!-- Node21 -->
<g id="node6" class="node">
<title>Node21</title>
<g id="a_node6"><a xlink:href="comm__mpi_8f.html#aeddcd2657d2637d2e92b83d293229f29" target="_top" xlink:title=" ">
<polygon fill="white" stroke="red" points="228.5,-114.5 228.5,-133.5 284.5,-133.5 284.5,-114.5 228.5,-114.5"/>
<text text-anchor="middle" x="256.5" y="-121.5" font-family="Helvetica,sans-Serif" font-size="10.00">pingpong</text>
</a>
</g>
</g>
<!-- Node2&#45;&gt;Node21 -->
<g id="edge5" class="edge">
<title>Node2&#45;&gt;Node21</title>
<path fill="none" stroke="midnightblue" d="M185.21,-137.09C195.67,-135.14 207.4,-132.96 218.24,-130.94"/>
<polygon fill="midnightblue" stroke="midnightblue" points="219.09,-134.34 228.28,-129.07 217.81,-127.46 219.09,-134.34"/>
</g>
<!-- Node31 -->
<g id="node7" class="node">
<title>Node31</title>
<g id="a_node7"><a xlink:href="comm__mpi_8f.html#a557724d36fed5680ba696aae60ae5992" target="_top" xlink:title=" ">
<polygon fill="white" stroke="red" points="226,-76.5 226,-95.5 287,-95.5 287,-76.5 226,-76.5"/>
<text text-anchor="middle" x="256.5" y="-83.5" font-family="Helvetica,sans-Serif" font-size="10.00">pingpongo</text>
</a>
</g>
</g>
<!-- Node2&#45;&gt;Node31 -->
<g id="edge6" class="edge">
<title>Node2&#45;&gt;Node31</title>
<path fill="none" stroke="midnightblue" d="M170.8,-133.33C186.95,-124.31 211.24,-110.73 229.68,-100.43"/>
<polygon fill="midnightblue" stroke="midnightblue" points="231.43,-103.46 238.45,-95.53 228.02,-97.35 231.43,-103.46"/>
</g>
<!-- Node33 -->
<g id="node9" class="node">
<title>Node33</title>
<g id="a_node9"><a xlink:href="mxm__std_8f.html#a12ed799305c9b614074f79911f3bccf5" target="_top" xlink:title=" ">
<polygon fill="white" stroke="black" points="236,-38.5 236,-57.5 277,-57.5 277,-38.5 236,-38.5"/>
<text text-anchor="middle" x="256.5" y="-45.5" font-family="Helvetica,sans-Serif" font-size="10.00">madd</text>
</a>
</g>
</g>
<!-- Node32&#45;&gt;Node33 -->
<g id="edge8" class="edge">
<title>Node32&#45;&gt;Node33</title>
<path fill="none" stroke="midnightblue" d="M190.04,-48C201.73,-48 214.54,-48 225.69,-48"/>
<polygon fill="midnightblue" stroke="midnightblue" points="225.79,-51.5 235.79,-48 225.79,-44.5 225.79,-51.5"/>
</g>
<!-- Node34 -->
<g id="node10" class="node">
<title>Node34</title>
<g id="a_node10"><a xlink:href="mxm__std_8f.html#a8530a043fbea2ceac5492781484f58ba" target="_top" xlink:title=" ">
<polygon fill="white" stroke="red" points="232,-0.5 232,-19.5 281,-19.5 281,-0.5 232,-0.5"/>
<text text-anchor="middle" x="256.5" y="-7.5" font-family="Helvetica,sans-Serif" font-size="10.00">mxm44</text>
</a>
</g>
</g>
<!-- Node32&#45;&gt;Node34 -->
<g id="edge9" class="edge">
<title>Node32&#45;&gt;Node34</title>
<path fill="none" stroke="midnightblue" d="M179.24,-38.41C192.25,-33.56 208.2,-27.62 222.14,-22.43"/>
<polygon fill="midnightblue" stroke="midnightblue" points="223.72,-25.58 231.87,-18.8 221.27,-19.02 223.72,-25.58"/>
</g>
</g>
</svg>
