<?xml version="1.0" encoding="UTF-8" standalone="no"?>
<!DOCTYPE svg PUBLIC "-//W3C//DTD SVG 1.1//EN"
 "http://www.w3.org/Graphics/SVG/1.1/DTD/svg11.dtd">
<!-- Generated by graphviz version 2.46.0 (0)
 -->
<!-- Title: comm_test Pages: 1 -->
<svg width="270pt" height="218pt"
 viewBox="0.00 0.00 270.00 218.00" xmlns="http://www.w3.org/2000/svg" xmlns:xlink="http://www.w3.org/1999/xlink">
<g id="graph0" class="graph" transform="scale(1 1) rotate(0) translate(4 214)">
<title>comm_test</title>
<polygon fill="white" stroke="transparent" points="-4,4 -4,-214 266,-214 266,4 -4,4"/>
<!-- Node1 -->
<g id="node1" class="node">
<title>Node1</title>
<g id="a_node1"><a xlink:title=" ">
<polygon fill="#bfbfbf" stroke="black" points="0,-76.5 0,-95.5 65,-95.5 65,-76.5 0,-76.5"/>
<text text-anchor="middle" x="32.5" y="-83.5" font-family="Helvetica,sans-Serif" font-size="10.00">comm_test</text>
</a>
</g>
</g>
<!-- Node2 -->
<g id="node2" class="node">
<title>Node2</title>
<g id="a_node2"><a xlink:href="comm__mpi_8f.html#adfd24553503bf8ac7e0a0be2c517211d" target="_top" xlink:title=" ">
<polygon fill="white" stroke="black" points="104.5,-152.5 104.5,-171.5 158.5,-171.5 158.5,-152.5 104.5,-152.5"/>
<text text-anchor="middle" x="131.5" y="-159.5" font-family="Helvetica,sans-Serif" font-size="10.00">gop_test</text>
</a>
</g>
</g>
<!-- Node1&#45;&gt;Node2 -->
<g id="edge1" class="edge">
<title>Node1&#45;&gt;Node2</title>
<path fill="none" stroke="midnightblue" d="M44.14,-95.73C57.15,-107.45 80.03,-127.5 101,-143 102.62,-144.2 104.31,-145.4 106.02,-146.59"/>
<polygon fill="midnightblue" stroke="midnightblue" points="104.36,-149.69 114.63,-152.31 108.24,-143.86 104.36,-149.69"/>
</g>
<!-- Node9 -->
<g id="node7" class="node">
<title>Node9</title>
<g id="a_node7"><a xlink:href="comm__mpi_8f.html#a13eb5b07cdb8c8c2d1da7353bae3f02a" target="_top" xlink:title=" ">
<polygon fill="white" stroke="red" points="104.5,-114.5 104.5,-133.5 158.5,-133.5 158.5,-114.5 104.5,-114.5"/>
<text text-anchor="middle" x="131.5" y="-121.5" font-family="Helvetica,sans-Serif" font-size="10.00">gp2_test</text>
</a>
</g>
</g>
<!-- Node1&#45;&gt;Node9 -->
<g id="edge6" class="edge">
<title>Node1&#45;&gt;Node9</title>
<path fill="none" stroke="midnightblue" d="M57.98,-95.59C69.69,-100.18 83.92,-105.75 96.65,-110.74"/>
<polygon fill="midnightblue" stroke="midnightblue" points="95.44,-114.03 106.03,-114.41 98,-107.51 95.44,-114.03"/>
</g>
<!-- Node19 -->
<g id="node8" class="node">
<title>Node19</title>
<g id="a_node8"><a xlink:href="math_8f.html#a73058ab7dcbe8aa40dbbd6ffe547b1c9" target="_top" xlink:title=" ">
<polygon fill="white" stroke="black" points="114,-0.5 114,-19.5 149,-19.5 149,-0.5 114,-0.5"/>
<text text-anchor="middle" x="131.5" y="-7.5" font-family="Helvetica,sans-Serif" font-size="10.00">log2</text>
</a>
</g>
</g>
<!-- Node1&#45;&gt;Node19 -->
<g id="edge8" class="edge">
<title>Node1&#45;&gt;Node19</title>
<path fill="none" stroke="midnightblue" d="M44.14,-76.27C57.15,-64.55 80.03,-44.5 101,-29 102.62,-27.8 104.31,-26.6 106.02,-25.41"/>
<polygon fill="midnightblue" stroke="midnightblue" points="108.24,-28.14 114.63,-19.69 104.36,-22.31 108.24,-28.14"/>
</g>
<!-- Node20 -->
<g id="node9" class="node">
<title>Node20</title>
<g id="a_node9"><a xlink:href="comm__mpi_8f.html#aeddcd2657d2637d2e92b83d293229f29" target="_top" xlink:title=" ">
<polygon fill="white" stroke="red" points="103.5,-38.5 103.5,-57.5 159.5,-57.5 159.5,-38.5 103.5,-38.5"/>
<text text-anchor="middle" x="131.5" y="-45.5" font-family="Helvetica,sans-Serif" font-size="10.00">pingpong</text>
</a>
</g>
</g>
<!-- Node1&#45;&gt;Node20 -->
<g id="edge9" class="edge">
<title>Node1&#45;&gt;Node20</title>
<path fill="none" stroke="midnightblue" d="M57.98,-76.41C69.69,-71.82 83.92,-66.25 96.65,-61.26"/>
<polygon fill="midnightblue" stroke="midnightblue" points="98,-64.49 106.03,-57.59 95.44,-57.97 98,-64.49"/>
</g>
<!-- Node30 -->
<g id="node10" class="node">
<title>Node30</title>
<g id="a_node10"><a xlink:href="comm__mpi_8f.html#a557724d36fed5680ba696aae60ae5992" target="_top" xlink:title=" ">
<polygon fill="white" stroke="red" points="101,-76.5 101,-95.5 162,-95.5 162,-76.5 101,-76.5"/>
<text text-anchor="middle" x="131.5" y="-83.5" font-family="Helvetica,sans-Serif" font-size="10.00">pingpongo</text>
</a>
</g>
</g>
<!-- Node1&#45;&gt;Node30 -->
<g id="edge11" class="edge">
<title>Node1&#45;&gt;Node30</title>
<path fill="none" stroke="midnightblue" d="M65.26,-86C73.43,-86 82.32,-86 90.84,-86"/>
<polygon fill="midnightblue" stroke="midnightblue" points="90.97,-89.5 100.97,-86 90.97,-82.5 90.97,-89.5"/>
</g>
<!-- Node3 -->
<g id="node3" class="node">
<title>Node3</title>
<g id="a_node3"><a xlink:href="math_8f.html#add7cf4f5279a2239cfd54f963a53e618" target="_top" xlink:title=" ">
<polygon fill="white" stroke="black" points="214,-190.5 214,-209.5 246,-209.5 246,-190.5 214,-190.5"/>
<text text-anchor="middle" x="230" y="-197.5" font-family="Helvetica,sans-Serif" font-size="10.00">cfill</text>
</a>
</g>
</g>
<!-- Node2&#45;&gt;Node3 -->
<g id="edge2" class="edge">
<title>Node2&#45;&gt;Node3</title>
<path fill="none" stroke="midnightblue" d="M156.85,-171.59C171.46,-177.34 189.98,-184.63 204.59,-190.39"/>
<polygon fill="midnightblue" stroke="midnightblue" points="203.41,-193.68 213.99,-194.09 205.97,-187.17 203.41,-193.68"/>
</g>
<!-- Node4 -->
<g id="node4" class="node">
<title>Node4</title>
<g id="a_node4"><a xlink:href="gs__test__gop__blocking_8c.html#ab2e24f9857f6d1ded7e4d556c6bc5e49" target="_top" xlink:title=" ">
<polygon fill="white" stroke="red" points="214,-152.5 214,-171.5 246,-171.5 246,-152.5 214,-152.5"/>
<text text-anchor="middle" x="230" y="-159.5" font-family="Helvetica,sans-Serif" font-size="10.00">gop</text>
</a>
</g>
</g>
<!-- Node2&#45;&gt;Node4 -->
<g id="edge3" class="edge">
<title>Node2&#45;&gt;Node4</title>
<path fill="none" stroke="midnightblue" d="M158.61,-162C172.62,-162 189.8,-162 203.69,-162"/>
<polygon fill="midnightblue" stroke="midnightblue" points="203.99,-165.5 213.99,-162 203.99,-158.5 203.99,-165.5"/>
</g>
<!-- Node6 -->
<g id="node5" class="node">
<title>Node6</title>
<g id="a_node5"><a xlink:href="mpi__dummy_8f.html#ae6a5ef945f87c2c27849696b70f3af2a" target="_top" xlink:title=" ">
<polygon fill="white" stroke="black" points="198,-114.5 198,-133.5 262,-133.5 262,-114.5 198,-114.5"/>
<text text-anchor="middle" x="230" y="-121.5" font-family="Helvetica,sans-Serif" font-size="10.00">mpi_wtime</text>
</a>
</g>
</g>
<!-- Node2&#45;&gt;Node6 -->
<g id="edge4" class="edge">
<title>Node2&#45;&gt;Node6</title>
<path fill="none" stroke="midnightblue" d="M156.85,-152.41C168.51,-147.82 182.66,-142.25 195.32,-137.26"/>
<polygon fill="midnightblue" stroke="midnightblue" points="196.63,-140.51 204.66,-133.59 194.07,-133.99 196.63,-140.51"/>
</g>
<!-- Node7 -->
<g id="node6" class="node">
<title>Node7</title>
<g id="a_node6"><a xlink:href="comm__mpi_8f.html#a4acb4d8e379294232e9219bec063d8f3" target="_top" xlink:title=" ">
<polygon fill="white" stroke="red" points="200.5,-76.5 200.5,-95.5 259.5,-95.5 259.5,-76.5 200.5,-76.5"/>
<text text-anchor="middle" x="230" y="-83.5" font-family="Helvetica,sans-Serif" font-size="10.00">nekgsync</text>
</a>
</g>
</g>
<!-- Node2&#45;&gt;Node7 -->
<g id="edge5" class="edge">
<title>Node2&#45;&gt;Node7</title>
<path fill="none" stroke="midnightblue" d="M148.91,-152.42C153.31,-149.59 157.97,-146.34 162,-143 179.91,-128.15 179.93,-119.65 198,-105 199.54,-103.75 201.18,-102.52 202.86,-101.32"/>
<polygon fill="midnightblue" stroke="midnightblue" points="204.98,-104.11 211.4,-95.68 201.13,-98.27 204.98,-104.11"/>
</g>
<!-- Node9&#45;&gt;Node6 -->
<g id="edge7" class="edge">
<title>Node9&#45;&gt;Node6</title>
<path fill="none" stroke="midnightblue" d="M158.61,-124C167.56,-124 177.81,-124 187.66,-124"/>
<polygon fill="midnightblue" stroke="midnightblue" points="187.72,-127.5 197.72,-124 187.72,-120.5 187.72,-127.5"/>
</g>
<!-- Node20&#45;&gt;Node7 -->
<g id="edge10" class="edge">
<title>Node20&#45;&gt;Node7</title>
<path fill="none" stroke="midnightblue" d="M156.85,-57.59C168.51,-62.18 182.66,-67.75 195.32,-72.74"/>
<polygon fill="midnightblue" stroke="midnightblue" points="194.07,-76.01 204.66,-76.41 196.63,-69.49 194.07,-76.01"/>
</g>
<!-- Node30&#45;&gt;Node6 -->
<g id="edge12" class="edge">
<title>Node30&#45;&gt;Node6</title>
<path fill="none" stroke="midnightblue" d="M156.85,-95.59C168.51,-100.18 182.66,-105.75 195.32,-110.74"/>
<polygon fill="midnightblue" stroke="midnightblue" points="194.07,-114.01 204.66,-114.41 196.63,-107.49 194.07,-114.01"/>
</g>
<!-- Node30&#45;&gt;Node7 -->
<g id="edge13" class="edge">
<title>Node30&#45;&gt;Node7</title>
<path fill="none" stroke="midnightblue" d="M162.24,-86C171.01,-86 180.75,-86 190.01,-86"/>
<polygon fill="midnightblue" stroke="midnightblue" points="190.18,-89.5 200.18,-86 190.18,-82.5 190.18,-89.5"/>
</g>
</g>
</svg>
