<?xml version="1.0" encoding="UTF-8" standalone="no"?>
<!DOCTYPE svg PUBLIC "-//W3C//DTD SVG 1.1//EN"
 "http://www.w3.org/Graphics/SVG/1.1/DTD/svg11.dtd">
<!-- Generated by graphviz version 2.46.0 (0)
 -->
<!-- Title: pingpong Pages: 1 -->
<svg width="269pt" height="237pt"
 viewBox="0.00 0.00 269.00 237.00" xmlns="http://www.w3.org/2000/svg" xmlns:xlink="http://www.w3.org/1999/xlink">
<g id="graph0" class="graph" transform="scale(1 1) rotate(0) translate(4 233)">
<title>pingpong</title>
<polygon fill="white" stroke="transparent" points="-4,4 -4,-233 265,-233 265,4 -4,4"/>
<!-- Node1 -->
<g id="node1" class="node">
<title>Node1</title>
<g id="a_node1"><a xlink:title=" ">
<polygon fill="#bfbfbf" stroke="black" points="0,-76.5 0,-95.5 56,-95.5 56,-76.5 0,-76.5"/>
<text text-anchor="middle" x="28" y="-83.5" font-family="Helvetica,sans-Serif" font-size="10.00">pingpong</text>
</a>
</g>
</g>
<!-- Node2 -->
<g id="node2" class="node">
<title>Node2</title>
<g id="a_node2"><a xlink:href="comm__mpi_8f.html#a4ae0ceb703bba6170a61c696ee3871d3" target="_top" xlink:title=" ">
<polygon fill="white" stroke="red" points="92,-152.5 92,-171.5 164,-171.5 164,-152.5 92,-152.5"/>
<text text-anchor="middle" x="128" y="-159.5" font-family="Helvetica,sans-Serif" font-size="10.00">get_msg_vol</text>
</a>
</g>
</g>
<!-- Node1&#45;&gt;Node2 -->
<g id="edge1" class="edge">
<title>Node1&#45;&gt;Node2</title>
<path fill="none" stroke="midnightblue" d="M39.91,-95.51C52.29,-106.18 73.2,-123.84 92,-138 95.81,-140.87 99.93,-143.82 103.96,-146.64"/>
<polygon fill="midnightblue" stroke="midnightblue" points="102.26,-149.71 112.49,-152.47 106.22,-143.94 102.26,-149.71"/>
</g>
<!-- Node18 -->
<g id="node7" class="node">
<title>Node18</title>
<g id="a_node7"><a xlink:href="comm__mpi_8f.html#a4acb4d8e379294232e9219bec063d8f3" target="_top" xlink:title=" ">
<polygon fill="white" stroke="red" points="201,-38.5 201,-57.5 260,-57.5 260,-38.5 201,-38.5"/>
<text text-anchor="middle" x="230.5" y="-45.5" font-family="Helvetica,sans-Serif" font-size="10.00">nekgsync</text>
</a>
</g>
</g>
<!-- Node1&#45;&gt;Node18 -->
<g id="edge6" class="edge">
<title>Node1&#45;&gt;Node18</title>
<path fill="none" stroke="midnightblue" d="M51.23,-95.58C78.59,-105.94 126.09,-119.18 164,-105 185.05,-97.13 203.79,-79.1 215.78,-65.41"/>
<polygon fill="midnightblue" stroke="midnightblue" points="218.6,-67.49 222.33,-57.57 213.23,-63 218.6,-67.49"/>
</g>
<!-- Node20 -->
<g id="node8" class="node">
<title>Node20</title>
<g id="a_node8"><a xlink:href="comm__mpi_8f.html#a8493e0f05af0ea25b69053ada11d808a" target="_top" xlink:title=" ">
<polygon fill="white" stroke="red" points="99,-76.5 99,-95.5 157,-95.5 157,-76.5 99,-76.5"/>
<text text-anchor="middle" x="128" y="-83.5" font-family="Helvetica,sans-Serif" font-size="10.00">ping_loop</text>
</a>
</g>
</g>
<!-- Node1&#45;&gt;Node20 -->
<g id="edge7" class="edge">
<title>Node1&#45;&gt;Node20</title>
<path fill="none" stroke="midnightblue" d="M56.04,-86C66.08,-86 77.68,-86 88.56,-86"/>
<polygon fill="midnightblue" stroke="midnightblue" points="88.68,-89.5 98.68,-86 88.68,-82.5 88.68,-89.5"/>
</g>
<!-- Node21 -->
<g id="node9" class="node">
<title>Node21</title>
<g id="a_node9"><a xlink:href="comm__mpi_8f.html#af348945adab9e6683c509187f6e4e2fc" target="_top" xlink:title=" ">
<polygon fill="white" stroke="red" points="96.5,-38.5 96.5,-57.5 159.5,-57.5 159.5,-38.5 96.5,-38.5"/>
<text text-anchor="middle" x="128" y="-45.5" font-family="Helvetica,sans-Serif" font-size="10.00">ping_loop1</text>
</a>
</g>
</g>
<!-- Node1&#45;&gt;Node21 -->
<g id="edge9" class="edge">
<title>Node1&#45;&gt;Node21</title>
<path fill="none" stroke="midnightblue" d="M53.73,-76.41C65.57,-71.82 79.94,-66.25 92.8,-61.26"/>
<polygon fill="midnightblue" stroke="midnightblue" points="94.22,-64.46 102.28,-57.59 91.69,-57.94 94.22,-64.46"/>
</g>
<!-- Node22 -->
<g id="node10" class="node">
<title>Node22</title>
<g id="a_node10"><a xlink:href="comm__mpi_8f.html#ae95dc0de6852549c6cab7465978b3570" target="_top" xlink:title=" ">
<polygon fill="white" stroke="red" points="96.5,-0.5 96.5,-19.5 159.5,-19.5 159.5,-0.5 96.5,-0.5"/>
<text text-anchor="middle" x="128" y="-7.5" font-family="Helvetica,sans-Serif" font-size="10.00">ping_loop2</text>
</a>
</g>
</g>
<!-- Node1&#45;&gt;Node22 -->
<g id="edge11" class="edge">
<title>Node1&#45;&gt;Node22</title>
<path fill="none" stroke="midnightblue" d="M38.21,-76.35C49.98,-64.36 71.3,-43.67 92,-29 94.07,-27.53 96.27,-26.09 98.52,-24.71"/>
<polygon fill="midnightblue" stroke="midnightblue" points="100.34,-27.69 107.25,-19.66 96.84,-21.63 100.34,-27.69"/>
</g>
<!-- Node3 -->
<g id="node3" class="node">
<title>Node3</title>
<g id="a_node3"><a xlink:href="comm__mpi_8f.html#a243c9bed2592e7cd159fb36be4fda037" target="_top" xlink:title=" ">
<polygon fill="white" stroke="red" points="210,-209.5 210,-228.5 251,-228.5 251,-209.5 210,-209.5"/>
<text text-anchor="middle" x="230.5" y="-216.5" font-family="Helvetica,sans-Serif" font-size="10.00">crecv</text>
</a>
</g>
</g>
<!-- Node2&#45;&gt;Node3 -->
<g id="edge2" class="edge">
<title>Node2&#45;&gt;Node3</title>
<path fill="none" stroke="midnightblue" d="M146.05,-171.67C161.88,-180.65 185.67,-194.14 203.81,-204.43"/>
<polygon fill="midnightblue" stroke="midnightblue" points="202.28,-207.58 212.7,-209.47 205.73,-201.5 202.28,-207.58"/>
</g>
<!-- Node8 -->
<g id="node4" class="node">
<title>Node8</title>
<g id="a_node4"><a xlink:href="comm__mpi_8f.html#abd95004b45059acdcc13614c52e60eae" target="_top" xlink:title=" ">
<polygon fill="white" stroke="red" points="209,-171.5 209,-190.5 252,-190.5 252,-171.5 209,-171.5"/>
<text text-anchor="middle" x="230.5" y="-178.5" font-family="Helvetica,sans-Serif" font-size="10.00">csend</text>
</a>
</g>
</g>
<!-- Node2&#45;&gt;Node8 -->
<g id="edge3" class="edge">
<title>Node2&#45;&gt;Node8</title>
<path fill="none" stroke="midnightblue" d="M164.15,-168.65C175.47,-170.79 187.93,-173.14 198.9,-175.21"/>
<polygon fill="midnightblue" stroke="midnightblue" points="198.4,-178.68 208.87,-177.1 199.7,-171.8 198.4,-178.68"/>
</g>
<!-- Node10 -->
<g id="node5" class="node">
<title>Node10</title>
<g id="a_node5"><a xlink:href="comm__mpi_8f.html#af06ec29f06aac3f8809e19de2a7e8946" target="_top" xlink:title=" ">
<polygon fill="white" stroke="red" points="200,-133.5 200,-152.5 261,-152.5 261,-133.5 200,-133.5"/>
<text text-anchor="middle" x="230.5" y="-140.5" font-family="Helvetica,sans-Serif" font-size="10.00">dnekclock</text>
</a>
</g>
</g>
<!-- Node2&#45;&gt;Node10 -->
<g id="edge4" class="edge">
<title>Node2&#45;&gt;Node10</title>
<path fill="none" stroke="midnightblue" d="M164.15,-155.35C172.44,-153.79 181.33,-152.11 189.81,-150.5"/>
<polygon fill="midnightblue" stroke="midnightblue" points="190.69,-153.9 199.87,-148.6 189.39,-147.02 190.69,-153.9"/>
</g>
<!-- Node12 -->
<g id="node6" class="node">
<title>Node12</title>
<g id="a_node6"><a xlink:href="gs__test__gop__blocking_8c.html#ab2e24f9857f6d1ded7e4d556c6bc5e49" target="_top" xlink:title=" ">
<polygon fill="white" stroke="red" points="214.5,-95.5 214.5,-114.5 246.5,-114.5 246.5,-95.5 214.5,-95.5"/>
<text text-anchor="middle" x="230.5" y="-102.5" font-family="Helvetica,sans-Serif" font-size="10.00">gop</text>
</a>
</g>
</g>
<!-- Node2&#45;&gt;Node12 -->
<g id="edge5" class="edge">
<title>Node2&#45;&gt;Node12</title>
<path fill="none" stroke="midnightblue" d="M146.05,-152.33C162.36,-143.08 187.11,-129.04 205.43,-118.65"/>
<polygon fill="midnightblue" stroke="midnightblue" points="207.37,-121.57 214.34,-113.6 203.92,-115.49 207.37,-121.57"/>
</g>
<!-- Node20&#45;&gt;Node18 -->
<g id="edge8" class="edge">
<title>Node20&#45;&gt;Node18</title>
<path fill="none" stroke="midnightblue" d="M154.36,-76.41C166.5,-71.82 181.23,-66.25 194.43,-61.26"/>
<polygon fill="midnightblue" stroke="midnightblue" points="196.03,-64.4 204.15,-57.59 193.56,-57.85 196.03,-64.4"/>
</g>
<!-- Node21&#45;&gt;Node18 -->
<g id="edge10" class="edge">
<title>Node21&#45;&gt;Node18</title>
<path fill="none" stroke="midnightblue" d="M159.7,-48C169.38,-48 180.21,-48 190.4,-48"/>
<polygon fill="midnightblue" stroke="midnightblue" points="190.7,-51.5 200.7,-48 190.7,-44.5 190.7,-51.5"/>
</g>
<!-- Node22&#45;&gt;Node18 -->
<g id="edge12" class="edge">
<title>Node22&#45;&gt;Node18</title>
<path fill="none" stroke="midnightblue" d="M154.36,-19.59C166.5,-24.18 181.23,-29.75 194.43,-34.74"/>
<polygon fill="midnightblue" stroke="midnightblue" points="193.56,-38.15 204.15,-38.41 196.03,-31.6 193.56,-38.15"/>
</g>
</g>
</svg>
