<?xml version="1.0" encoding="UTF-8" standalone="no"?>
<!DOCTYPE svg PUBLIC "-//W3C//DTD SVG 1.1//EN"
 "http://www.w3.org/Graphics/SVG/1.1/DTD/svg11.dtd">
<!-- Generated by graphviz version 2.46.0 (0)
 -->
<!-- Title: gop_test Pages: 1 -->
<svg width="263pt" height="142pt"
 viewBox="0.00 0.00 263.00 142.00" xmlns="http://www.w3.org/2000/svg" xmlns:xlink="http://www.w3.org/1999/xlink">
<g id="graph0" class="graph" transform="scale(1 1) rotate(0) translate(4 138)">
<title>gop_test</title>
<polygon fill="white" stroke="transparent" points="-4,4 -4,-138 259,-138 259,4 -4,4"/>
<!-- Node1 -->
<g id="node1" class="node">
<title>Node1</title>
<g id="a_node1"><a xlink:title=" ">
<polygon fill="#bfbfbf" stroke="black" points="0,-57.5 0,-76.5 54,-76.5 54,-57.5 0,-57.5"/>
<text text-anchor="middle" x="27" y="-64.5" font-family="Helvetica,sans-Serif" font-size="10.00">gop_test</text>
</a>
</g>
</g>
<!-- Node2 -->
<g id="node2" class="node">
<title>Node2</title>
<g id="a_node2"><a xlink:href="math_8f.html#add7cf4f5279a2239cfd54f963a53e618" target="_top" xlink:title=" ">
<polygon fill="white" stroke="black" points="106,-114.5 106,-133.5 138,-133.5 138,-114.5 106,-114.5"/>
<text text-anchor="middle" x="122" y="-121.5" font-family="Helvetica,sans-Serif" font-size="10.00">cfill</text>
</a>
</g>
</g>
<!-- Node1&#45;&gt;Node2 -->
<g id="edge1" class="edge">
<title>Node1&#45;&gt;Node2</title>
<path fill="none" stroke="midnightblue" d="M43.78,-76.67C58.38,-85.62 80.3,-99.06 97.06,-109.33"/>
<polygon fill="midnightblue" stroke="midnightblue" points="95.41,-112.42 105.76,-114.66 99.07,-106.45 95.41,-112.42"/>
</g>
<!-- Node3 -->
<g id="node3" class="node">
<title>Node3</title>
<g id="a_node3"><a xlink:href="gs__test__gop__blocking_8c.html#ab2e24f9857f6d1ded7e4d556c6bc5e49" target="_top" xlink:title=" ">
<polygon fill="white" stroke="black" points="106,-76.5 106,-95.5 138,-95.5 138,-76.5 106,-76.5"/>
<text text-anchor="middle" x="122" y="-83.5" font-family="Helvetica,sans-Serif" font-size="10.00">gop</text>
</a>
</g>
</g>
<!-- Node1&#45;&gt;Node3 -->
<g id="edge2" class="edge">
<title>Node1&#45;&gt;Node3</title>
<path fill="none" stroke="midnightblue" d="M54.4,-72.39C67.41,-75.05 83.01,-78.24 95.84,-80.86"/>
<polygon fill="midnightblue" stroke="midnightblue" points="95.36,-84.33 105.85,-82.91 96.76,-77.47 95.36,-84.33"/>
</g>
<!-- Node5 -->
<g id="node5" class="node">
<title>Node5</title>
<g id="a_node5"><a xlink:href="mpi__dummy_8f.html#ae6a5ef945f87c2c27849696b70f3af2a" target="_top" xlink:title=" ">
<polygon fill="white" stroke="black" points="90,-38.5 90,-57.5 154,-57.5 154,-38.5 90,-38.5"/>
<text text-anchor="middle" x="122" y="-45.5" font-family="Helvetica,sans-Serif" font-size="10.00">mpi_wtime</text>
</a>
</g>
</g>
<!-- Node1&#45;&gt;Node5 -->
<g id="edge4" class="edge">
<title>Node1&#45;&gt;Node5</title>
<path fill="none" stroke="midnightblue" d="M54.4,-61.61C62.35,-59.98 71.27,-58.16 79.94,-56.39"/>
<polygon fill="midnightblue" stroke="midnightblue" points="80.83,-59.78 89.92,-54.35 79.43,-52.92 80.83,-59.78"/>
</g>
<!-- Node6 -->
<g id="node6" class="node">
<title>Node6</title>
<g id="a_node6"><a xlink:href="comm__mpi_8f.html#a4acb4d8e379294232e9219bec063d8f3" target="_top" xlink:title=" ">
<polygon fill="white" stroke="black" points="92.5,-0.5 92.5,-19.5 151.5,-19.5 151.5,-0.5 92.5,-0.5"/>
<text text-anchor="middle" x="122" y="-7.5" font-family="Helvetica,sans-Serif" font-size="10.00">nekgsync</text>
</a>
</g>
</g>
<!-- Node1&#45;&gt;Node6 -->
<g id="edge5" class="edge">
<title>Node1&#45;&gt;Node6</title>
<path fill="none" stroke="midnightblue" d="M43.78,-57.33C58.29,-48.43 80.04,-35.1 96.76,-24.86"/>
<polygon fill="midnightblue" stroke="midnightblue" points="98.76,-27.74 105.46,-19.53 95.1,-21.77 98.76,-27.74"/>
</g>
<!-- Node4 -->
<g id="node4" class="node">
<title>Node4</title>
<g id="a_node4"><a xlink:href="math_8f.html#a17c0ecae12cc5c6096939885da90ad2b" target="_top" xlink:title=" ">
<polygon fill="white" stroke="black" points="193,-76.5 193,-95.5 252,-95.5 252,-76.5 193,-76.5"/>
<text text-anchor="middle" x="222.5" y="-83.5" font-family="Helvetica,sans-Serif" font-size="10.00">transpose</text>
</a>
</g>
</g>
<!-- Node3&#45;&gt;Node4 -->
<g id="edge3" class="edge">
<title>Node3&#45;&gt;Node4</title>
<path fill="none" stroke="midnightblue" d="M138.39,-86C150.17,-86 166.97,-86 182.38,-86"/>
<polygon fill="midnightblue" stroke="midnightblue" points="182.74,-89.5 192.74,-86 182.74,-82.5 182.74,-89.5"/>
</g>
<!-- Node7 -->
<g id="node7" class="node">
<title>Node7</title>
<g id="a_node7"><a xlink:href="mpi__dummy_8f.html#a070afe564196eb48413dbf1a9fbc99aa" target="_top" xlink:title=" ">
<polygon fill="white" stroke="black" points="190,-0.5 190,-19.5 255,-19.5 255,-0.5 190,-0.5"/>
<text text-anchor="middle" x="222.5" y="-7.5" font-family="Helvetica,sans-Serif" font-size="10.00">mpi_barrier</text>
</a>
</g>
</g>
<!-- Node6&#45;&gt;Node7 -->
<g id="edge6" class="edge">
<title>Node6&#45;&gt;Node7</title>
<path fill="none" stroke="midnightblue" d="M151.76,-10C160.51,-10 170.32,-10 179.76,-10"/>
<polygon fill="midnightblue" stroke="midnightblue" points="179.78,-13.5 189.78,-10 179.78,-6.5 179.78,-13.5"/>
</g>
</g>
</svg>
