<?xml version="1.0" encoding="UTF-8" standalone="no"?>
<!DOCTYPE svg PUBLIC "-//W3C//DTD SVG 1.1//EN"
 "http://www.w3.org/Graphics/SVG/1.1/DTD/svg11.dtd">
<!-- Generated by graphviz version 2.46.0 (0)
 -->
<!-- Title: set_eta_alpha2 Pages: 1 -->
<svg width="635pt" height="142pt"
 viewBox="0.00 0.00 635.00 142.00" xmlns="http://www.w3.org/2000/svg" xmlns:xlink="http://www.w3.org/1999/xlink">
<g id="graph0" class="graph" transform="scale(1 1) rotate(0) translate(4 138)">
<title>set_eta_alpha2</title>
<polygon fill="white" stroke="transparent" points="-4,4 -4,-138 631,-138 631,4 -4,4"/>
<!-- Node1 -->
<g id="node1" class="node">
<title>Node1</title>
<g id="a_node1"><a xlink:title=" ">
<polygon fill="#bfbfbf" stroke="black" points="544,-57.5 544,-76.5 627,-76.5 627,-57.5 544,-57.5"/>
<text text-anchor="middle" x="585.5" y="-64.5" font-family="Helvetica,sans-Serif" font-size="10.00">set_eta_alpha2</text>
</a>
</g>
</g>
<!-- Node2 -->
<g id="node2" class="node">
<title>Node2</title>
<g id="a_node2"><a xlink:href="conduct_8f.html#a486b5e058b61fd9efa731f698201a9fd" target="_top" xlink:title=" ">
<polygon fill="white" stroke="black" points="446,-57.5 446,-76.5 508,-76.5 508,-57.5 446,-57.5"/>
<text text-anchor="middle" x="477" y="-64.5" font-family="Helvetica,sans-Serif" font-size="10.00">dg_setup2</text>
</a>
</g>
</g>
<!-- Node1&#45;&gt;Node2 -->
<g id="edge1" class="edge">
<title>Node1&#45;&gt;Node2</title>
<path fill="none" stroke="midnightblue" d="M533.76,-67C525.01,-67 516.17,-67 508.18,-67"/>
<polygon fill="midnightblue" stroke="midnightblue" points="533.93,-70.5 543.93,-67 533.93,-63.5 533.93,-70.5"/>
</g>
<!-- Node3 -->
<g id="node3" class="node">
<title>Node3</title>
<g id="a_node3"><a xlink:href="conduct_8f.html#abc0953779481a8cff2666b1d0878c50c" target="_top" xlink:title=" ">
<polygon fill="white" stroke="black" points="349,-57.5 349,-76.5 410,-76.5 410,-57.5 349,-57.5"/>
<text text-anchor="middle" x="379.5" y="-64.5" font-family="Helvetica,sans-Serif" font-size="10.00">cdscal_dg</text>
</a>
</g>
</g>
<!-- Node2&#45;&gt;Node3 -->
<g id="edge2" class="edge">
<title>Node2&#45;&gt;Node3</title>
<path fill="none" stroke="midnightblue" d="M435.62,-67C427.09,-67 418.24,-67 410.19,-67"/>
<polygon fill="midnightblue" stroke="midnightblue" points="435.78,-70.5 445.78,-67 435.78,-63.5 435.78,-70.5"/>
</g>
<!-- Node4 -->
<g id="node4" class="node">
<title>Node4</title>
<g id="a_node4"><a xlink:href="conduct_8f.html#a74a7f053381975ed36df8ea959f3aa01" target="_top" xlink:title=" ">
<polygon fill="white" stroke="black" points="268,-57.5 268,-76.5 313,-76.5 313,-57.5 268,-57.5"/>
<text text-anchor="middle" x="290.5" y="-64.5" font-family="Helvetica,sans-Serif" font-size="10.00">cdscal</text>
</a>
</g>
</g>
<!-- Node3&#45;&gt;Node4 -->
<g id="edge3" class="edge">
<title>Node3&#45;&gt;Node4</title>
<path fill="none" stroke="midnightblue" d="M338.52,-67C329.82,-67 320.93,-67 313.25,-67"/>
<polygon fill="midnightblue" stroke="midnightblue" points="338.56,-70.5 348.56,-67 338.56,-63.5 338.56,-70.5"/>
</g>
<!-- Node5 -->
<g id="node5" class="node">
<title>Node5</title>
<g id="a_node5"><a xlink:href="drive2_8f.html#acce80cd37f20e9b52729eb52d86a9c86" target="_top" xlink:title=" ">
<polygon fill="white" stroke="black" points="197,-57.5 197,-76.5 232,-76.5 232,-57.5 197,-57.5"/>
<text text-anchor="middle" x="214.5" y="-64.5" font-family="Helvetica,sans-Serif" font-size="10.00">heat</text>
</a>
</g>
</g>
<!-- Node4&#45;&gt;Node5 -->
<g id="edge4" class="edge">
<title>Node4&#45;&gt;Node5</title>
<path fill="none" stroke="midnightblue" d="M257.5,-67C248.88,-67 239.89,-67 232.45,-67"/>
<polygon fill="midnightblue" stroke="midnightblue" points="257.7,-70.5 267.7,-67 257.7,-63.5 257.7,-70.5"/>
</g>
<!-- Node6 -->
<g id="node6" class="node">
<title>Node6</title>
<g id="a_node6"><a xlink:href="ssolv_8f.html#a4bb42a5afabbba8c6518d83cbe481c17" target="_top" xlink:title=" ">
<polygon fill="white" stroke="black" points="98.5,-114.5 98.5,-133.5 149.5,-133.5 149.5,-114.5 98.5,-114.5"/>
<text text-anchor="middle" x="124" y="-121.5" font-family="Helvetica,sans-Serif" font-size="10.00">go1step</text>
</a>
</g>
</g>
<!-- Node5&#45;&gt;Node6 -->
<g id="edge5" class="edge">
<title>Node5&#45;&gt;Node6</title>
<path fill="none" stroke="midnightblue" d="M193.23,-82.7C183.67,-89.83 171.97,-98.18 161,-105 155.72,-108.28 149.81,-111.55 144.34,-114.43"/>
<polygon fill="midnightblue" stroke="midnightblue" points="195.46,-85.39 201.32,-76.57 191.24,-79.81 195.46,-85.39"/>
</g>
<!-- Node7 -->
<g id="node7" class="node">
<title>Node7</title>
<g id="a_node7"><a xlink:href="ssolv_8f.html#a2de8913c214fa083dcb088c57bd45272" target="_top" xlink:title=" ">
<polygon fill="white" stroke="black" points="101,-76.5 101,-95.5 147,-95.5 147,-76.5 101,-76.5"/>
<text text-anchor="middle" x="124" y="-83.5" font-family="Helvetica,sans-Serif" font-size="10.00">gostep</text>
</a>
</g>
</g>
<!-- Node5&#45;&gt;Node7 -->
<g id="edge6" class="edge">
<title>Node5&#45;&gt;Node7</title>
<path fill="none" stroke="midnightblue" d="M186.88,-72.71C174.24,-75.43 159.29,-78.64 147.25,-81.22"/>
<polygon fill="midnightblue" stroke="midnightblue" points="187.81,-76.09 196.85,-70.57 186.34,-69.25 187.81,-76.09"/>
</g>
<!-- Node9 -->
<g id="node9" class="node">
<title>Node9</title>
<g id="a_node9"><a xlink:href="drive1_8f.html#ae177ea7efac97f35241521b782a671c0" target="_top" xlink:title=" ">
<polygon fill="white" stroke="red" points="87,-38.5 87,-57.5 161,-57.5 161,-38.5 87,-38.5"/>
<text text-anchor="middle" x="124" y="-45.5" font-family="Helvetica,sans-Serif" font-size="10.00">nek_advance</text>
</a>
</g>
</g>
<!-- Node5&#45;&gt;Node9 -->
<g id="edge8" class="edge">
<title>Node5&#45;&gt;Node9</title>
<path fill="none" stroke="midnightblue" d="M186.83,-61.27C178.71,-59.53 169.64,-57.58 161,-55.73"/>
<polygon fill="midnightblue" stroke="midnightblue" points="186.34,-64.75 196.85,-63.43 187.81,-57.91 186.34,-64.75"/>
</g>
<!-- Node13 -->
<g id="node10" class="node">
<title>Node13</title>
<g id="a_node10"><a xlink:href="ic_8f.html#a0cc013924d0d5a37e36e63bc7c692fc3" target="_top" xlink:title=" ">
<polygon fill="white" stroke="red" points="101,-0.5 101,-19.5 147,-19.5 147,-0.5 101,-0.5"/>
<text text-anchor="middle" x="124" y="-7.5" font-family="Helvetica,sans-Serif" font-size="10.00">prsolvt</text>
</a>
</g>
</g>
<!-- Node5&#45;&gt;Node13 -->
<g id="edge9" class="edge">
<title>Node5&#45;&gt;Node13</title>
<path fill="none" stroke="midnightblue" d="M193.23,-51.3C183.67,-44.17 171.97,-35.82 161,-29 155.72,-25.72 149.81,-22.45 144.34,-19.57"/>
<polygon fill="midnightblue" stroke="midnightblue" points="191.24,-54.19 201.32,-57.43 195.46,-48.61 191.24,-54.19"/>
</g>
<!-- Node8 -->
<g id="node8" class="node">
<title>Node8</title>
<g id="a_node8"><a xlink:href="ssolv_8f.html#a4c61f5b12a3bb1945a465966ba14ff9b" target="_top" xlink:title=" ">
<polygon fill="white" stroke="black" points="0,-76.5 0,-95.5 51,-95.5 51,-76.5 0,-76.5"/>
<text text-anchor="middle" x="25.5" y="-83.5" font-family="Helvetica,sans-Serif" font-size="10.00">gonstep</text>
</a>
</g>
</g>
<!-- Node7&#45;&gt;Node8 -->
<g id="edge7" class="edge">
<title>Node7&#45;&gt;Node8</title>
<path fill="none" stroke="midnightblue" d="M90.33,-86C77.51,-86 63.05,-86 51.13,-86"/>
<polygon fill="midnightblue" stroke="midnightblue" points="90.62,-89.5 100.62,-86 90.62,-82.5 90.62,-89.5"/>
</g>
</g>
</svg>
