<?xml version="1.0" encoding="UTF-8" standalone="no"?>
<!DOCTYPE svg PUBLIC "-//W3C//DTD SVG 1.1//EN"
 "http://www.w3.org/Graphics/SVG/1.1/DTD/svg11.dtd">
<!-- Generated by graphviz version 2.46.0 (0)
 -->
<!-- Title: nekuq Pages: 1 -->
<svg width="444pt" height="142pt"
 viewBox="0.00 0.00 444.00 142.00" xmlns="http://www.w3.org/2000/svg" xmlns:xlink="http://www.w3.org/1999/xlink">
<g id="graph0" class="graph" transform="scale(1 1) rotate(0) translate(4 138)">
<title>nekuq</title>
<polygon fill="white" stroke="transparent" points="-4,4 -4,-138 440,-138 440,4 -4,4"/>
<!-- Node1 -->
<g id="node1" class="node">
<title>Node1</title>
<g id="a_node1"><a xlink:title=" ">
<polygon fill="#bfbfbf" stroke="black" points="393,-38.5 393,-57.5 436,-57.5 436,-38.5 393,-38.5"/>
<text text-anchor="middle" x="414.5" y="-45.5" font-family="Helvetica,sans-Serif" font-size="10.00">nekuq</text>
</a>
</g>
</g>
<!-- Node2 -->
<g id="node2" class="node">
<title>Node2</title>
<g id="a_node2"><a xlink:href="conduct_8f.html#af0e288fad495f966ca997a13837ba9f0" target="_top" xlink:title=" ">
<polygon fill="white" stroke="black" points="309,-38.5 309,-57.5 357,-57.5 357,-38.5 309,-38.5"/>
<text text-anchor="middle" x="333" y="-45.5" font-family="Helvetica,sans-Serif" font-size="10.00">setqvol</text>
</a>
</g>
</g>
<!-- Node1&#45;&gt;Node2 -->
<g id="edge1" class="edge">
<title>Node1&#45;&gt;Node2</title>
<path fill="none" stroke="midnightblue" d="M382.42,-48C374.04,-48 365.13,-48 357.27,-48"/>
<polygon fill="midnightblue" stroke="midnightblue" points="382.61,-51.5 392.61,-48 382.61,-44.5 382.61,-51.5"/>
</g>
<!-- Node3 -->
<g id="node3" class="node">
<title>Node3</title>
<g id="a_node3"><a xlink:href="conduct_8f.html#aa167d71e770cd729d61c955a42f4a2bd" target="_top" xlink:title=" ">
<polygon fill="white" stroke="black" points="219.5,-66.5 219.5,-85.5 270.5,-85.5 270.5,-66.5 219.5,-66.5"/>
<text text-anchor="middle" x="245" y="-73.5" font-family="Helvetica,sans-Serif" font-size="10.00">makeuq</text>
</a>
</g>
</g>
<!-- Node2&#45;&gt;Node3 -->
<g id="edge2" class="edge">
<title>Node2&#45;&gt;Node3</title>
<path fill="none" stroke="midnightblue" d="M299.36,-58.63C289.83,-61.73 279.57,-65.07 270.62,-67.99"/>
<polygon fill="midnightblue" stroke="midnightblue" points="300.53,-61.93 308.95,-55.5 298.36,-55.27 300.53,-61.93"/>
</g>
<!-- Node25 -->
<g id="node9" class="node">
<title>Node25</title>
<g id="a_node9"><a xlink:href="perturb_8f.html#ad879a2175a055817a256c88f2be2534d" target="_top" xlink:title=" ">
<polygon fill="white" stroke="black" points="217,-19.5 217,-38.5 273,-38.5 273,-19.5 217,-19.5"/>
<text text-anchor="middle" x="245" y="-26.5" font-family="Helvetica,sans-Serif" font-size="10.00">makeuqp</text>
</a>
</g>
</g>
<!-- Node2&#45;&gt;Node25 -->
<g id="edge8" class="edge">
<title>Node2&#45;&gt;Node25</title>
<path fill="none" stroke="midnightblue" d="M299.19,-40.75C290.57,-38.85 281.36,-36.81 273.08,-34.98"/>
<polygon fill="midnightblue" stroke="midnightblue" points="298.43,-44.17 308.95,-42.91 299.94,-37.33 298.43,-44.17"/>
</g>
<!-- Node4 -->
<g id="node4" class="node">
<title>Node4</title>
<g id="a_node4"><a xlink:href="induct_8f.html#a0f0eb9c29e64571293f094020bee8033" target="_top" xlink:title=" ">
<polygon fill="white" stroke="black" points="82,-114.5 82,-133.5 181,-133.5 181,-114.5 82,-114.5"/>
<text text-anchor="middle" x="131.5" y="-121.5" font-family="Helvetica,sans-Serif" font-size="10.00">makebsource_mhd</text>
</a>
</g>
</g>
<!-- Node3&#45;&gt;Node4 -->
<g id="edge3" class="edge">
<title>Node3&#45;&gt;Node4</title>
<path fill="none" stroke="midnightblue" d="M214.76,-89.89C204.19,-94.8 192.11,-100.27 181,-105 173.51,-108.19 165.29,-111.48 157.79,-114.41"/>
<polygon fill="midnightblue" stroke="midnightblue" points="216.41,-92.98 223.99,-85.57 213.45,-86.64 216.41,-92.98"/>
</g>
<!-- Node10 -->
<g id="node6" class="node">
<title>Node10</title>
<g id="a_node6"><a xlink:href="makeq__aux_8f.html#a5175a1919b169361f171b8909a169863" target="_top" xlink:title=" ">
<polygon fill="white" stroke="black" points="98,-76.5 98,-95.5 165,-95.5 165,-76.5 98,-76.5"/>
<text text-anchor="middle" x="131.5" y="-83.5" font-family="Helvetica,sans-Serif" font-size="10.00">makeq_aux</text>
</a>
</g>
</g>
<!-- Node3&#45;&gt;Node10 -->
<g id="edge5" class="edge">
<title>Node3&#45;&gt;Node10</title>
<path fill="none" stroke="midnightblue" d="M209.02,-79.14C195.02,-80.39 178.98,-81.83 165.22,-83.07"/>
<polygon fill="midnightblue" stroke="midnightblue" points="209.61,-82.6 219.25,-78.22 208.98,-75.63 209.61,-82.6"/>
</g>
<!-- Node24 -->
<g id="node8" class="node">
<title>Node24</title>
<g id="a_node8"><a xlink:href="plan4_8f.html#a2a58ef58c4513d56903b075defcf0314" target="_top" xlink:title=" ">
<polygon fill="white" stroke="black" points="97,-38.5 97,-57.5 166,-57.5 166,-38.5 97,-38.5"/>
<text text-anchor="middle" x="131.5" y="-45.5" font-family="Helvetica,sans-Serif" font-size="10.00">userqtl_scig</text>
</a>
</g>
</g>
<!-- Node3&#45;&gt;Node24 -->
<g id="edge7" class="edge">
<title>Node3&#45;&gt;Node24</title>
<path fill="none" stroke="midnightblue" d="M209.19,-67.26C195.44,-63.8 179.69,-59.85 166.06,-56.43"/>
<polygon fill="midnightblue" stroke="midnightblue" points="208.7,-70.74 219.25,-69.79 210.41,-63.96 208.7,-70.74"/>
</g>
<!-- Node5 -->
<g id="node5" class="node">
<title>Node5</title>
<g id="a_node5"><a xlink:href="induct_8f.html#aa44a44eb5a5e3f510211f8fd8e6b12b7" target="_top" xlink:title=" ">
<polygon fill="white" stroke="red" points="1.5,-114.5 1.5,-133.5 44.5,-133.5 44.5,-114.5 1.5,-114.5"/>
<text text-anchor="middle" x="23" y="-121.5" font-family="Helvetica,sans-Serif" font-size="10.00">induct</text>
</a>
</g>
</g>
<!-- Node4&#45;&gt;Node5 -->
<g id="edge4" class="edge">
<title>Node4&#45;&gt;Node5</title>
<path fill="none" stroke="midnightblue" d="M71.72,-124C61.96,-124 52.45,-124 44.53,-124"/>
<polygon fill="midnightblue" stroke="midnightblue" points="71.92,-127.5 81.92,-124 71.92,-120.5 71.92,-127.5"/>
</g>
<!-- Node11 -->
<g id="node7" class="node">
<title>Node11</title>
<g id="a_node7"><a xlink:href="makeq_8f.html#aad7ee07cd8b6df77d80fd1f50bfb5322" target="_top" xlink:title=" ">
<polygon fill="white" stroke="red" points="0,-76.5 0,-95.5 46,-95.5 46,-76.5 0,-76.5"/>
<text text-anchor="middle" x="23" y="-83.5" font-family="Helvetica,sans-Serif" font-size="10.00">makeq</text>
</a>
</g>
</g>
<!-- Node10&#45;&gt;Node11 -->
<g id="edge6" class="edge">
<title>Node10&#45;&gt;Node11</title>
<path fill="none" stroke="midnightblue" d="M87.84,-86C73.58,-86 58.28,-86 46.22,-86"/>
<polygon fill="midnightblue" stroke="midnightblue" points="87.97,-89.5 97.97,-86 87.97,-82.5 87.97,-89.5"/>
</g>
<!-- Node26 -->
<g id="node10" class="node">
<title>Node26</title>
<g id="a_node10"><a xlink:href="perturb_8f.html#a634404bcd696013d358ddbe24423001f" target="_top" xlink:title=" ">
<polygon fill="white" stroke="red" points="106,-0.5 106,-19.5 157,-19.5 157,-0.5 106,-0.5"/>
<text text-anchor="middle" x="131.5" y="-7.5" font-family="Helvetica,sans-Serif" font-size="10.00">makeqp</text>
</a>
</g>
</g>
<!-- Node25&#45;&gt;Node26 -->
<g id="edge9" class="edge">
<title>Node25&#45;&gt;Node26</title>
<path fill="none" stroke="midnightblue" d="M206.46,-22.6C190.22,-19.84 171.67,-16.68 157.21,-14.21"/>
<polygon fill="midnightblue" stroke="midnightblue" points="206.28,-26.12 216.72,-24.35 207.45,-19.22 206.28,-26.12"/>
</g>
</g>
</svg>
