<?xml version="1.0" encoding="UTF-8" standalone="no"?>
<!DOCTYPE svg PUBLIC "-//W3C//DTD SVG 1.1//EN"
 "http://www.w3.org/Graphics/SVG/1.1/DTD/svg11.dtd">
<!-- Generated by graphviz version 2.46.0 (0)
 -->
<!-- Title: setqvol Pages: 1 -->
<svg width="369pt" height="142pt"
 viewBox="0.00 0.00 369.00 142.00" xmlns="http://www.w3.org/2000/svg" xmlns:xlink="http://www.w3.org/1999/xlink">
<g id="graph0" class="graph" transform="scale(1 1) rotate(0) translate(4 138)">
<title>setqvol</title>
<polygon fill="white" stroke="transparent" points="-4,4 -4,-138 365,-138 365,4 -4,4"/>
<!-- Node1 -->
<g id="node1" class="node">
<title>Node1</title>
<g id="a_node1"><a xlink:title=" ">
<polygon fill="#bfbfbf" stroke="black" points="313,-38.5 313,-57.5 361,-57.5 361,-38.5 313,-38.5"/>
<text text-anchor="middle" x="337" y="-45.5" font-family="Helvetica,sans-Serif" font-size="10.00">setqvol</text>
</a>
</g>
</g>
<!-- Node2 -->
<g id="node2" class="node">
<title>Node2</title>
<g id="a_node2"><a xlink:href="conduct_8f.html#aa167d71e770cd729d61c955a42f4a2bd" target="_top" xlink:title=" ">
<polygon fill="white" stroke="black" points="223.5,-66.5 223.5,-85.5 274.5,-85.5 274.5,-66.5 223.5,-66.5"/>
<text text-anchor="middle" x="249" y="-73.5" font-family="Helvetica,sans-Serif" font-size="10.00">makeuq</text>
</a>
</g>
</g>
<!-- Node1&#45;&gt;Node2 -->
<g id="edge1" class="edge">
<title>Node1&#45;&gt;Node2</title>
<path fill="none" stroke="midnightblue" d="M303.36,-58.63C293.83,-61.73 283.57,-65.07 274.62,-67.99"/>
<polygon fill="midnightblue" stroke="midnightblue" points="304.53,-61.93 312.95,-55.5 302.36,-55.27 304.53,-61.93"/>
</g>
<!-- Node24 -->
<g id="node8" class="node">
<title>Node24</title>
<g id="a_node8"><a xlink:href="perturb_8f.html#ad879a2175a055817a256c88f2be2534d" target="_top" xlink:title=" ">
<polygon fill="white" stroke="black" points="221,-19.5 221,-38.5 277,-38.5 277,-19.5 221,-19.5"/>
<text text-anchor="middle" x="249" y="-26.5" font-family="Helvetica,sans-Serif" font-size="10.00">makeuqp</text>
</a>
</g>
</g>
<!-- Node1&#45;&gt;Node24 -->
<g id="edge7" class="edge">
<title>Node1&#45;&gt;Node24</title>
<path fill="none" stroke="midnightblue" d="M303.19,-40.75C294.57,-38.85 285.36,-36.81 277.08,-34.98"/>
<polygon fill="midnightblue" stroke="midnightblue" points="302.43,-44.17 312.95,-42.91 303.94,-37.33 302.43,-44.17"/>
</g>
<!-- Node3 -->
<g id="node3" class="node">
<title>Node3</title>
<g id="a_node3"><a xlink:href="induct_8f.html#a0f0eb9c29e64571293f094020bee8033" target="_top" xlink:title=" ">
<polygon fill="white" stroke="black" points="86,-114.5 86,-133.5 185,-133.5 185,-114.5 86,-114.5"/>
<text text-anchor="middle" x="135.5" y="-121.5" font-family="Helvetica,sans-Serif" font-size="10.00">makebsource_mhd</text>
</a>
</g>
</g>
<!-- Node2&#45;&gt;Node3 -->
<g id="edge2" class="edge">
<title>Node2&#45;&gt;Node3</title>
<path fill="none" stroke="midnightblue" d="M218.76,-89.89C208.19,-94.8 196.11,-100.27 185,-105 177.51,-108.19 169.29,-111.48 161.79,-114.41"/>
<polygon fill="midnightblue" stroke="midnightblue" points="220.41,-92.98 227.99,-85.57 217.45,-86.64 220.41,-92.98"/>
</g>
<!-- Node9 -->
<g id="node5" class="node">
<title>Node9</title>
<g id="a_node5"><a xlink:href="makeq__aux_8f.html#a5175a1919b169361f171b8909a169863" target="_top" xlink:title=" ">
<polygon fill="white" stroke="black" points="102,-76.5 102,-95.5 169,-95.5 169,-76.5 102,-76.5"/>
<text text-anchor="middle" x="135.5" y="-83.5" font-family="Helvetica,sans-Serif" font-size="10.00">makeq_aux</text>
</a>
</g>
</g>
<!-- Node2&#45;&gt;Node9 -->
<g id="edge4" class="edge">
<title>Node2&#45;&gt;Node9</title>
<path fill="none" stroke="midnightblue" d="M213.02,-79.14C199.02,-80.39 182.98,-81.83 169.22,-83.07"/>
<polygon fill="midnightblue" stroke="midnightblue" points="213.61,-82.6 223.25,-78.22 212.98,-75.63 213.61,-82.6"/>
</g>
<!-- Node23 -->
<g id="node7" class="node">
<title>Node23</title>
<g id="a_node7"><a xlink:href="plan4_8f.html#a2a58ef58c4513d56903b075defcf0314" target="_top" xlink:title=" ">
<polygon fill="white" stroke="black" points="101,-38.5 101,-57.5 170,-57.5 170,-38.5 101,-38.5"/>
<text text-anchor="middle" x="135.5" y="-45.5" font-family="Helvetica,sans-Serif" font-size="10.00">userqtl_scig</text>
</a>
</g>
</g>
<!-- Node2&#45;&gt;Node23 -->
<g id="edge6" class="edge">
<title>Node2&#45;&gt;Node23</title>
<path fill="none" stroke="midnightblue" d="M213.19,-67.26C199.44,-63.8 183.69,-59.85 170.06,-56.43"/>
<polygon fill="midnightblue" stroke="midnightblue" points="212.7,-70.74 223.25,-69.79 214.41,-63.96 212.7,-70.74"/>
</g>
<!-- Node4 -->
<g id="node4" class="node">
<title>Node4</title>
<g id="a_node4"><a xlink:href="induct_8f.html#aa44a44eb5a5e3f510211f8fd8e6b12b7" target="_top" xlink:title=" ">
<polygon fill="white" stroke="red" points="3.5,-114.5 3.5,-133.5 46.5,-133.5 46.5,-114.5 3.5,-114.5"/>
<text text-anchor="middle" x="25" y="-121.5" font-family="Helvetica,sans-Serif" font-size="10.00">induct</text>
</a>
</g>
</g>
<!-- Node3&#45;&gt;Node4 -->
<g id="edge3" class="edge">
<title>Node3&#45;&gt;Node4</title>
<path fill="none" stroke="midnightblue" d="M75.92,-124C65.47,-124 55.23,-124 46.77,-124"/>
<polygon fill="midnightblue" stroke="midnightblue" points="75.96,-127.5 85.96,-124 75.96,-120.5 75.96,-127.5"/>
</g>
<!-- Node10 -->
<g id="node6" class="node">
<title>Node10</title>
<g id="a_node6"><a xlink:href="makeq_8f.html#aad7ee07cd8b6df77d80fd1f50bfb5322" target="_top" xlink:title=" ">
<polygon fill="white" stroke="red" points="2,-76.5 2,-95.5 48,-95.5 48,-76.5 2,-76.5"/>
<text text-anchor="middle" x="25" y="-83.5" font-family="Helvetica,sans-Serif" font-size="10.00">makeq</text>
</a>
</g>
</g>
<!-- Node9&#45;&gt;Node10 -->
<g id="edge5" class="edge">
<title>Node9&#45;&gt;Node10</title>
<path fill="none" stroke="midnightblue" d="M91.87,-86C76.95,-86 60.79,-86 48.22,-86"/>
<polygon fill="midnightblue" stroke="midnightblue" points="91.95,-89.5 101.95,-86 91.95,-82.5 91.95,-89.5"/>
</g>
<!-- Node25 -->
<g id="node9" class="node">
<title>Node25</title>
<g id="a_node9"><a xlink:href="perturb_8f.html#a634404bcd696013d358ddbe24423001f" target="_top" xlink:title=" ">
<polygon fill="white" stroke="black" points="110,-0.5 110,-19.5 161,-19.5 161,-0.5 110,-0.5"/>
<text text-anchor="middle" x="135.5" y="-7.5" font-family="Helvetica,sans-Serif" font-size="10.00">makeqp</text>
</a>
</g>
</g>
<!-- Node24&#45;&gt;Node25 -->
<g id="edge8" class="edge">
<title>Node24&#45;&gt;Node25</title>
<path fill="none" stroke="midnightblue" d="M210.46,-22.6C194.22,-19.84 175.67,-16.68 161.21,-14.21"/>
<polygon fill="midnightblue" stroke="midnightblue" points="210.28,-26.12 220.72,-24.35 211.45,-19.22 210.28,-26.12"/>
</g>
<!-- Node26 -->
<g id="node10" class="node">
<title>Node26</title>
<g id="a_node10"><a xlink:href="perturb_8f.html#af07508f1eb200c9ae22de3620ae45d70" target="_top" xlink:title=" ">
<polygon fill="white" stroke="red" points="0,-0.5 0,-19.5 50,-19.5 50,-0.5 0,-0.5"/>
<text text-anchor="middle" x="25" y="-7.5" font-family="Helvetica,sans-Serif" font-size="10.00">cdscalp</text>
</a>
</g>
</g>
<!-- Node25&#45;&gt;Node26 -->
<g id="edge9" class="edge">
<title>Node25&#45;&gt;Node26</title>
<path fill="none" stroke="midnightblue" d="M99.71,-10C83.55,-10 64.73,-10 50.15,-10"/>
<polygon fill="midnightblue" stroke="midnightblue" points="99.88,-13.5 109.88,-10 99.88,-6.5 99.88,-13.5"/>
</g>
</g>
</svg>
