<?xml version="1.0" encoding="UTF-8" standalone="no"?>
<!DOCTYPE svg PUBLIC "-//W3C//DTD SVG 1.1//EN"
 "http://www.w3.org/Graphics/SVG/1.1/DTD/svg11.dtd">
<!-- Generated by graphviz version 2.46.0 (0)
 -->
<!-- Title: dg_setup Pages: 1 -->
<svg width="258pt" height="218pt"
 viewBox="0.00 0.00 258.00 218.00" xmlns="http://www.w3.org/2000/svg" xmlns:xlink="http://www.w3.org/1999/xlink">
<g id="graph0" class="graph" transform="scale(1 1) rotate(0) translate(4 214)">
<title>dg_setup</title>
<polygon fill="white" stroke="transparent" points="-4,4 -4,-214 254,-214 254,4 -4,4"/>
<!-- Node1 -->
<g id="node1" class="node">
<title>Node1</title>
<g id="a_node1"><a xlink:title=" ">
<polygon fill="#bfbfbf" stroke="black" points="0,-95.5 0,-114.5 56,-114.5 56,-95.5 0,-95.5"/>
<text text-anchor="middle" x="28" y="-102.5" font-family="Helvetica,sans-Serif" font-size="10.00">dg_setup</text>
</a>
</g>
</g>
<!-- Node2 -->
<g id="node2" class="node">
<title>Node2</title>
<g id="a_node2"><a xlink:href="convect_8f.html#a4d424efe4c0c3008f4ee65baea30b4f2" target="_top" xlink:title=" ">
<polygon fill="white" stroke="black" points="92,-76.5 92,-95.5 168,-95.5 168,-76.5 92,-76.5"/>
<text text-anchor="middle" x="130" y="-83.5" font-family="Helvetica,sans-Serif" font-size="10.00">dg_set_fc_ptr</text>
</a>
</g>
</g>
<!-- Node1&#45;&gt;Node2 -->
<g id="edge1" class="edge">
<title>Node1&#45;&gt;Node2</title>
<path fill="none" stroke="midnightblue" d="M56.06,-99.86C64.05,-98.34 73.03,-96.63 81.89,-94.95"/>
<polygon fill="midnightblue" stroke="midnightblue" points="82.61,-98.38 91.78,-93.07 81.3,-91.5 82.61,-98.38"/>
</g>
<!-- Node4 -->
<g id="node4" class="node">
<title>Node4</title>
<g id="a_node4"><a xlink:href="ic_8f.html#aaf47b255d1cfac3451a8473ee6876b4f" target="_top" xlink:title=" ">
<polygon fill="white" stroke="red" points="96,-190.5 96,-209.5 164,-209.5 164,-190.5 96,-190.5"/>
<text text-anchor="middle" x="130" y="-197.5" font-family="Helvetica,sans-Serif" font-size="10.00">geom_reset</text>
</a>
</g>
</g>
<!-- Node1&#45;&gt;Node4 -->
<g id="edge3" class="edge">
<title>Node1&#45;&gt;Node4</title>
<path fill="none" stroke="midnightblue" d="M35.31,-114.97C45.62,-130.63 67.41,-161.26 92,-181 93.78,-182.43 95.69,-183.8 97.67,-185.1"/>
<polygon fill="midnightblue" stroke="midnightblue" points="96.19,-188.29 106.58,-190.33 99.73,-182.25 96.19,-188.29"/>
</g>
<!-- Node14 -->
<g id="node7" class="node">
<title>Node14</title>
<g id="a_node7"><a xlink:href="math_8f.html#a0fcb0ff151fe3548d0d07961e8365efe" target="_top" xlink:title=" ">
<polygon fill="white" stroke="black" points="106,-114.5 106,-133.5 154,-133.5 154,-114.5 106,-114.5"/>
<text text-anchor="middle" x="130" y="-121.5" font-family="Helvetica,sans-Serif" font-size="10.00">invers2</text>
</a>
</g>
</g>
<!-- Node1&#45;&gt;Node14 -->
<g id="edge6" class="edge">
<title>Node1&#45;&gt;Node14</title>
<path fill="none" stroke="midnightblue" d="M56.06,-110.14C68.38,-112.48 83.08,-115.28 96.04,-117.74"/>
<polygon fill="midnightblue" stroke="midnightblue" points="95.51,-121.2 105.99,-119.63 96.82,-114.32 95.51,-121.2"/>
</g>
<!-- Node150 -->
<g id="node8" class="node">
<title>Node150</title>
<g id="a_node8"><a xlink:href="convect_8f.html#a1ea9345e199e3ab349e0616a5aaa0bf0" target="_top" xlink:title=" ">
<polygon fill="white" stroke="red" points="94,-152.5 94,-171.5 166,-171.5 166,-152.5 94,-152.5"/>
<text text-anchor="middle" x="130" y="-159.5" font-family="Helvetica,sans-Serif" font-size="10.00">set_dg_wgts</text>
</a>
</g>
</g>
<!-- Node1&#45;&gt;Node150 -->
<g id="edge7" class="edge">
<title>Node1&#45;&gt;Node150</title>
<path fill="none" stroke="midnightblue" d="M44.11,-114.51C56.76,-122.38 75.38,-133.73 92,-143 94.75,-144.53 97.64,-146.09 100.53,-147.63"/>
<polygon fill="midnightblue" stroke="midnightblue" points="99.18,-150.87 109.66,-152.39 102.41,-144.66 99.18,-150.87"/>
</g>
<!-- Node153 -->
<g id="node9" class="node">
<title>Node153</title>
<g id="a_node9"><a xlink:href="coef_8f.html#aa90c057ed2e36fef8ea6a54e5bc6c952" target="_top" xlink:title=" ">
<polygon fill="white" stroke="black" points="105.5,-38.5 105.5,-57.5 154.5,-57.5 154.5,-38.5 105.5,-38.5"/>
<text text-anchor="middle" x="130" y="-45.5" font-family="Helvetica,sans-Serif" font-size="10.00">set_unr</text>
</a>
</g>
</g>
<!-- Node1&#45;&gt;Node153 -->
<g id="edge9" class="edge">
<title>Node1&#45;&gt;Node153</title>
<path fill="none" stroke="midnightblue" d="M44.11,-95.49C56.76,-87.62 75.38,-76.27 92,-67 94.75,-65.47 97.64,-63.91 100.53,-62.37"/>
<polygon fill="midnightblue" stroke="midnightblue" points="102.41,-65.34 109.66,-57.61 99.18,-59.13 102.41,-65.34"/>
</g>
<!-- Node154 -->
<g id="node10" class="node">
<title>Node154</title>
<g id="a_node10"><a xlink:href="convect_8f.html#ae036baf441f94f93768933971b22ca5e" target="_top" xlink:title=" ">
<polygon fill="white" stroke="red" points="94,-0.5 94,-19.5 166,-19.5 166,-0.5 94,-0.5"/>
<text text-anchor="middle" x="130" y="-7.5" font-family="Helvetica,sans-Serif" font-size="10.00">setup_dg_gs</text>
</a>
</g>
</g>
<!-- Node1&#45;&gt;Node154 -->
<g id="edge11" class="edge">
<title>Node1&#45;&gt;Node154</title>
<path fill="none" stroke="midnightblue" d="M35.31,-95.03C45.62,-79.37 67.41,-48.74 92,-29 93.78,-27.57 95.69,-26.2 97.67,-24.9"/>
<polygon fill="midnightblue" stroke="midnightblue" points="99.73,-27.75 106.58,-19.67 96.19,-21.71 99.73,-27.75"/>
</g>
<!-- Node3 -->
<g id="node3" class="node">
<title>Node3</title>
<g id="a_node3"><a xlink:href="connect1_8f.html#aa6d2ebf2dfdfeae458d41ef4cb6d9fae" target="_top" xlink:title=" ">
<polygon fill="white" stroke="black" points="206.5,-57.5 206.5,-76.5 247.5,-76.5 247.5,-57.5 206.5,-57.5"/>
<text text-anchor="middle" x="227" y="-64.5" font-family="Helvetica,sans-Serif" font-size="10.00">dsset</text>
</a>
</g>
</g>
<!-- Node2&#45;&gt;Node3 -->
<g id="edge2" class="edge">
<title>Node2&#45;&gt;Node3</title>
<path fill="none" stroke="midnightblue" d="M168,-78.6C177.44,-76.71 187.46,-74.71 196.46,-72.91"/>
<polygon fill="midnightblue" stroke="midnightblue" points="197.36,-76.3 206.48,-70.9 195.99,-69.43 197.36,-76.3"/>
</g>
<!-- Node5 -->
<g id="node5" class="node">
<title>Node5</title>
<g id="a_node5"><a xlink:href="math_8f.html#a3b43508554f14bdea8e14473d7d0803c" target="_top" xlink:title=" ">
<polygon fill="white" stroke="black" points="208,-152.5 208,-171.5 246,-171.5 246,-152.5 208,-152.5"/>
<text text-anchor="middle" x="227" y="-159.5" font-family="Helvetica,sans-Serif" font-size="10.00">copy</text>
</a>
</g>
</g>
<!-- Node4&#45;&gt;Node5 -->
<g id="edge4" class="edge">
<title>Node4&#45;&gt;Node5</title>
<path fill="none" stroke="midnightblue" d="M154.97,-190.41C168.15,-185.14 184.57,-178.57 198.3,-173.08"/>
<polygon fill="midnightblue" stroke="midnightblue" points="199.75,-176.27 207.73,-169.31 197.15,-169.77 199.75,-176.27"/>
</g>
<!-- Node6 -->
<g id="node6" class="node">
<title>Node6</title>
<g id="a_node6"><a xlink:href="coef_8f.html#a8cbb48eee5edaf128d65bb31ac49c3ff" target="_top" xlink:title=" ">
<polygon fill="white" stroke="red" points="204,-190.5 204,-209.5 250,-209.5 250,-190.5 204,-190.5"/>
<text text-anchor="middle" x="227" y="-197.5" font-family="Helvetica,sans-Serif" font-size="10.00">geom1</text>
</a>
</g>
</g>
<!-- Node4&#45;&gt;Node6 -->
<g id="edge5" class="edge">
<title>Node4&#45;&gt;Node6</title>
<path fill="none" stroke="midnightblue" d="M164.23,-200C173.79,-200 184.2,-200 193.71,-200"/>
<polygon fill="midnightblue" stroke="midnightblue" points="193.96,-203.5 203.96,-200 193.96,-196.5 193.96,-203.5"/>
</g>
<!-- Node150&#45;&gt;Node5 -->
<g id="edge8" class="edge">
<title>Node150&#45;&gt;Node5</title>
<path fill="none" stroke="midnightblue" d="M166.1,-162C176.51,-162 187.76,-162 197.68,-162"/>
<polygon fill="midnightblue" stroke="midnightblue" points="197.81,-165.5 207.81,-162 197.81,-158.5 197.81,-165.5"/>
</g>
<!-- Node153&#45;&gt;Node3 -->
<g id="edge10" class="edge">
<title>Node153&#45;&gt;Node3</title>
<path fill="none" stroke="midnightblue" d="M154.97,-52.79C167.46,-55.29 182.86,-58.37 196.12,-61.02"/>
<polygon fill="midnightblue" stroke="midnightblue" points="195.71,-64.51 206.2,-63.04 197.08,-57.65 195.71,-64.51"/>
</g>
</g>
</svg>
