<?xml version="1.0" encoding="UTF-8" standalone="no"?>
<!DOCTYPE svg PUBLIC "-//W3C//DTD SVG 1.1//EN"
 "http://www.w3.org/Graphics/SVG/1.1/DTD/svg11.dtd">
<!-- Generated by graphviz version 2.46.0 (0)
 -->
<!-- Title: verify Pages: 1 -->
<svg width="403pt" height="142pt"
 viewBox="0.00 0.00 403.00 142.00" xmlns="http://www.w3.org/2000/svg" xmlns:xlink="http://www.w3.org/1999/xlink">
<g id="graph0" class="graph" transform="scale(1 1) rotate(0) translate(4 138)">
<title>verify</title>
<polygon fill="white" stroke="transparent" points="-4,4 -4,-138 399,-138 399,4 -4,4"/>
<!-- Node1 -->
<g id="node1" class="node">
<title>Node1</title>
<g id="a_node1"><a xlink:title=" ">
<polygon fill="#bfbfbf" stroke="black" points="0,-57.5 0,-76.5 41,-76.5 41,-57.5 0,-57.5"/>
<text text-anchor="middle" x="20.5" y="-64.5" font-family="Helvetica,sans-Serif" font-size="10.00">verify</text>
</a>
</g>
</g>
<!-- Node2 -->
<g id="node2" class="node">
<title>Node2</title>
<g id="a_node2"><a xlink:href="connect1_8f.html#ab641b774823d34f2ffdc9965944d1c38" target="_top" xlink:title=" ">
<polygon fill="white" stroke="black" points="77,-57.5 77,-76.5 121,-76.5 121,-57.5 77,-57.5"/>
<text text-anchor="middle" x="99" y="-64.5" font-family="Helvetica,sans-Serif" font-size="10.00">verrhe</text>
</a>
</g>
</g>
<!-- Node1&#45;&gt;Node2 -->
<g id="edge1" class="edge">
<title>Node1&#45;&gt;Node2</title>
<path fill="none" stroke="midnightblue" d="M41.2,-67C48.94,-67 58.02,-67 66.62,-67"/>
<polygon fill="midnightblue" stroke="midnightblue" points="66.76,-70.5 76.76,-67 66.76,-63.5 66.76,-70.5"/>
</g>
<!-- Node3 -->
<g id="node3" class="node">
<title>Node3</title>
<g id="a_node3"><a xlink:href="connect1_8f.html#a8b68679c233b9e662e4db528b0664fab" target="_top" xlink:title=" ">
<polygon fill="white" stroke="black" points="158,-114.5 158,-133.5 204,-133.5 204,-114.5 158,-114.5"/>
<text text-anchor="middle" x="181" y="-121.5" font-family="Helvetica,sans-Serif" font-size="10.00">crss2d</text>
</a>
</g>
</g>
<!-- Node2&#45;&gt;Node3 -->
<g id="edge2" class="edge">
<title>Node2&#45;&gt;Node3</title>
<path fill="none" stroke="midnightblue" d="M113.57,-76.67C125.83,-85.4 144.08,-98.4 158.35,-108.57"/>
<polygon fill="midnightblue" stroke="midnightblue" points="156.45,-111.52 166.63,-114.47 160.52,-105.82 156.45,-111.52"/>
</g>
<!-- Node4 -->
<g id="node4" class="node">
<title>Node4</title>
<g id="a_node4"><a xlink:href="byte_8c.html#a2da8eeb074dfd3ffbfb3e9a4d301cda4" target="_top" xlink:title=" ">
<polygon fill="white" stroke="black" points="163.5,-76.5 163.5,-95.5 198.5,-95.5 198.5,-76.5 163.5,-76.5"/>
<text text-anchor="middle" x="181" y="-83.5" font-family="Helvetica,sans-Serif" font-size="10.00">exitt</text>
</a>
</g>
</g>
<!-- Node2&#45;&gt;Node4 -->
<g id="edge3" class="edge">
<title>Node2&#45;&gt;Node4</title>
<path fill="none" stroke="midnightblue" d="M121.02,-71.99C130.95,-74.35 142.91,-77.19 153.46,-79.7"/>
<polygon fill="midnightblue" stroke="midnightblue" points="152.87,-83.15 163.41,-82.06 154.49,-76.34 152.87,-83.15"/>
</g>
<!-- Node7 -->
<g id="node7" class="node">
<title>Node7</title>
<g id="a_node7"><a xlink:href="math_8f.html#ac055b7944cdc827520b7cc61d0d2edd6" target="_top" xlink:title=" ">
<polygon fill="white" stroke="black" points="162.5,-38.5 162.5,-57.5 199.5,-57.5 199.5,-38.5 162.5,-38.5"/>
<text text-anchor="middle" x="181" y="-45.5" font-family="Helvetica,sans-Serif" font-size="10.00">gllog</text>
</a>
</g>
</g>
<!-- Node2&#45;&gt;Node7 -->
<g id="edge6" class="edge">
<title>Node2&#45;&gt;Node7</title>
<path fill="none" stroke="midnightblue" d="M121.02,-62.01C130.67,-59.72 142.24,-56.97 152.57,-54.51"/>
<polygon fill="midnightblue" stroke="midnightblue" points="153.45,-57.9 162.37,-52.19 151.83,-51.09 153.45,-57.9"/>
</g>
<!-- Node10 -->
<g id="node10" class="node">
<title>Node10</title>
<g id="a_node10"><a xlink:href="connect1_8f.html#aa04fa2fac6361428e8c9a6d422093455" target="_top" xlink:title=" ">
<polygon fill="white" stroke="black" points="157,-0.5 157,-19.5 205,-19.5 205,-0.5 157,-0.5"/>
<text text-anchor="middle" x="181" y="-7.5" font-family="Helvetica,sans-Serif" font-size="10.00">volum0</text>
</a>
</g>
</g>
<!-- Node2&#45;&gt;Node10 -->
<g id="edge9" class="edge">
<title>Node2&#45;&gt;Node10</title>
<path fill="none" stroke="midnightblue" d="M113.57,-57.33C125.83,-48.6 144.08,-35.6 158.35,-25.43"/>
<polygon fill="midnightblue" stroke="midnightblue" points="160.52,-28.18 166.63,-19.53 156.45,-22.48 160.52,-28.18"/>
</g>
<!-- Node5 -->
<g id="node5" class="node">
<title>Node5</title>
<g id="a_node5"><a xlink:href="comm__mpi_8f.html#acc8803a3787828530843112e0c48941b" target="_top" xlink:title=" ">
<polygon fill="white" stroke="black" points="241,-76.5 241,-95.5 291,-95.5 291,-76.5 241,-76.5"/>
<text text-anchor="middle" x="266" y="-83.5" font-family="Helvetica,sans-Serif" font-size="10.00">nek_die</text>
</a>
</g>
</g>
<!-- Node4&#45;&gt;Node5 -->
<g id="edge4" class="edge">
<title>Node4&#45;&gt;Node5</title>
<path fill="none" stroke="midnightblue" d="M198.8,-86C207.99,-86 219.72,-86 230.74,-86"/>
<polygon fill="midnightblue" stroke="midnightblue" points="230.99,-89.5 240.99,-86 230.99,-82.5 230.99,-89.5"/>
</g>
<!-- Node6 -->
<g id="node6" class="node">
<title>Node6</title>
<g id="a_node6"><a xlink:href="mpi__dummy_8f.html#a55e9a1619aadb638b14211ce21d7d566" target="_top" xlink:title=" ">
<polygon fill="white" stroke="black" points="327,-76.5 327,-95.5 395,-95.5 395,-76.5 327,-76.5"/>
<text text-anchor="middle" x="361" y="-83.5" font-family="Helvetica,sans-Serif" font-size="10.00">mpi_finalize</text>
</a>
</g>
</g>
<!-- Node5&#45;&gt;Node6 -->
<g id="edge5" class="edge">
<title>Node5&#45;&gt;Node6</title>
<path fill="none" stroke="midnightblue" d="M291.43,-86C299.25,-86 308.14,-86 316.88,-86"/>
<polygon fill="midnightblue" stroke="midnightblue" points="316.99,-89.5 326.99,-86 316.99,-82.5 316.99,-89.5"/>
</g>
<!-- Node8 -->
<g id="node8" class="node">
<title>Node8</title>
<g id="a_node8"><a xlink:href="gs__test__gop__blocking_8c.html#ab2e24f9857f6d1ded7e4d556c6bc5e49" target="_top" xlink:title=" ">
<polygon fill="white" stroke="black" points="250,-38.5 250,-57.5 282,-57.5 282,-38.5 250,-38.5"/>
<text text-anchor="middle" x="266" y="-45.5" font-family="Helvetica,sans-Serif" font-size="10.00">gop</text>
</a>
</g>
</g>
<!-- Node7&#45;&gt;Node8 -->
<g id="edge7" class="edge">
<title>Node7&#45;&gt;Node8</title>
<path fill="none" stroke="midnightblue" d="M199.6,-48C211.28,-48 226.78,-48 239.76,-48"/>
<polygon fill="midnightblue" stroke="midnightblue" points="239.93,-51.5 249.93,-48 239.93,-44.5 239.93,-51.5"/>
</g>
<!-- Node9 -->
<g id="node9" class="node">
<title>Node9</title>
<g id="a_node9"><a xlink:href="math_8f.html#a17c0ecae12cc5c6096939885da90ad2b" target="_top" xlink:title=" ">
<polygon fill="white" stroke="black" points="331.5,-38.5 331.5,-57.5 390.5,-57.5 390.5,-38.5 331.5,-38.5"/>
<text text-anchor="middle" x="361" y="-45.5" font-family="Helvetica,sans-Serif" font-size="10.00">transpose</text>
</a>
</g>
</g>
<!-- Node8&#45;&gt;Node9 -->
<g id="edge8" class="edge">
<title>Node8&#45;&gt;Node9</title>
<path fill="none" stroke="midnightblue" d="M282.36,-48C292.96,-48 307.57,-48 321.26,-48"/>
<polygon fill="midnightblue" stroke="midnightblue" points="321.46,-51.5 331.46,-48 321.46,-44.5 321.46,-51.5"/>
</g>
</g>
</svg>
