<?xml version="1.0" encoding="UTF-8" standalone="no"?>
<!DOCTYPE svg PUBLIC "-//W3C//DTD SVG 1.1//EN"
 "http://www.w3.org/Graphics/SVG/1.1/DTD/svg11.dtd">
<!-- Generated by graphviz version 2.46.0 (0)
 -->
<!-- Title: get_dgl_ptr Pages: 1 -->
<svg width="323pt" height="218pt"
 viewBox="0.00 0.00 323.00 218.00" xmlns="http://www.w3.org/2000/svg" xmlns:xlink="http://www.w3.org/1999/xlink">
<g id="graph0" class="graph" transform="scale(1 1) rotate(0) translate(4 214)">
<title>get_dgl_ptr</title>
<polygon fill="white" stroke="transparent" points="-4,4 -4,-214 319,-214 319,4 -4,4"/>
<!-- Node1 -->
<g id="node1" class="node">
<title>Node1</title>
<g id="a_node1"><a xlink:title=" ">
<polygon fill="#bfbfbf" stroke="black" points="250,-57.5 250,-76.5 315,-76.5 315,-57.5 250,-57.5"/>
<text text-anchor="middle" x="282.5" y="-64.5" font-family="Helvetica,sans-Serif" font-size="10.00">get_dgl_ptr</text>
</a>
</g>
</g>
<!-- Node2 -->
<g id="node2" class="node">
<title>Node2</title>
<g id="a_node2"><a xlink:href="convect_8f.html#af2ed8cbbeeddc66bc8705dbf318b126d" target="_top" xlink:title=" ">
<polygon fill="white" stroke="black" points="152.5,-95.5 152.5,-114.5 204.5,-114.5 204.5,-95.5 152.5,-95.5"/>
<text text-anchor="middle" x="178.5" y="-102.5" font-family="Helvetica,sans-Serif" font-size="10.00">grad_rst</text>
</a>
</g>
</g>
<!-- Node1&#45;&gt;Node2 -->
<g id="edge1" class="edge">
<title>Node1&#45;&gt;Node2</title>
<path fill="none" stroke="midnightblue" d="M246.14,-80.17C232.43,-85.28 217.05,-91.01 204.53,-95.68"/>
<polygon fill="midnightblue" stroke="midnightblue" points="247.61,-83.36 255.76,-76.59 245.17,-76.8 247.61,-83.36"/>
</g>
<!-- Node57 -->
<g id="node9" class="node">
<title>Node57</title>
<g id="a_node9"><a xlink:href="convect_8f.html#aa4ec1eea6c397af2007b94806e2ff9fb" target="_top" xlink:title=" ">
<polygon fill="white" stroke="red" points="150,-57.5 150,-76.5 207,-76.5 207,-57.5 150,-57.5"/>
<text text-anchor="middle" x="178.5" y="-64.5" font-family="Helvetica,sans-Serif" font-size="10.00">grad_rstd</text>
</a>
</g>
</g>
<!-- Node1&#45;&gt;Node57 -->
<g id="edge8" class="edge">
<title>Node1&#45;&gt;Node57</title>
<path fill="none" stroke="midnightblue" d="M239.53,-67C228.58,-67 217.05,-67 207.06,-67"/>
<polygon fill="midnightblue" stroke="midnightblue" points="239.79,-70.5 249.79,-67 239.79,-63.5 239.79,-70.5"/>
</g>
<!-- Node60 -->
<g id="node10" class="node">
<title>Node60</title>
<g id="a_node10"><a xlink:href="convect_8f.html#ae6d180b7227de36418c704fc1f7a3206" target="_top" xlink:title=" ">
<polygon fill="white" stroke="red" points="143,-19.5 143,-38.5 214,-38.5 214,-19.5 143,-19.5"/>
<text text-anchor="middle" x="178.5" y="-26.5" font-family="Helvetica,sans-Serif" font-size="10.00">grad_rstd_ta</text>
</a>
</g>
</g>
<!-- Node1&#45;&gt;Node60 -->
<g id="edge9" class="edge">
<title>Node1&#45;&gt;Node60</title>
<path fill="none" stroke="midnightblue" d="M246.29,-53.88C232.8,-48.86 217.67,-43.22 205.23,-38.59"/>
<polygon fill="midnightblue" stroke="midnightblue" points="245.17,-57.2 255.76,-57.41 247.61,-50.64 245.17,-57.2"/>
</g>
<!-- Node3 -->
<g id="node3" class="node">
<title>Node3</title>
<g id="a_node3"><a xlink:href="induct_8f.html#a4b88749c2f906451df477afc0153c210" target="_top" xlink:title=" ">
<polygon fill="white" stroke="red" points="0,-190.5 0,-209.5 107,-209.5 107,-190.5 0,-190.5"/>
<text text-anchor="middle" x="53.5" y="-197.5" font-family="Helvetica,sans-Serif" font-size="10.00">advab_elsasser_fast</text>
</a>
</g>
</g>
<!-- Node2&#45;&gt;Node3 -->
<g id="edge2" class="edge">
<title>Node2&#45;&gt;Node3</title>
<path fill="none" stroke="midnightblue" d="M164.78,-123.05C151.95,-140.1 130.67,-165.32 107,-181 101.34,-184.75 94.85,-187.87 88.41,-190.42"/>
<polygon fill="midnightblue" stroke="midnightblue" points="167.93,-124.67 171.01,-114.54 162.28,-120.54 167.93,-124.67"/>
</g>
<!-- Node10 -->
<g id="node4" class="node">
<title>Node10</title>
<g id="a_node4"><a xlink:href="convect_8f.html#ac5955ce05d0725ed90a8fd09bb96ac81" target="_top" xlink:title=" ">
<polygon fill="white" stroke="red" points="15,-152.5 15,-171.5 92,-171.5 92,-152.5 15,-152.5"/>
<text text-anchor="middle" x="53.5" y="-159.5" font-family="Helvetica,sans-Serif" font-size="10.00">convect_cons</text>
</a>
</g>
</g>
<!-- Node2&#45;&gt;Node10 -->
<g id="edge3" class="edge">
<title>Node2&#45;&gt;Node10</title>
<path fill="none" stroke="midnightblue" d="M152.34,-119.73C139.09,-127.19 122.42,-136.1 107,-143 99.39,-146.41 90.97,-149.67 83.14,-152.5"/>
<polygon fill="midnightblue" stroke="midnightblue" points="154.37,-122.6 161.32,-114.61 150.9,-116.52 154.37,-122.6"/>
</g>
<!-- Node47 -->
<g id="node5" class="node">
<title>Node47</title>
<g id="a_node5"><a xlink:href="convect_8f.html#aef829efeef773567be893471f50529b1" target="_top" xlink:title=" ">
<polygon fill="white" stroke="red" points="16.5,-114.5 16.5,-133.5 90.5,-133.5 90.5,-114.5 16.5,-114.5"/>
<text text-anchor="middle" x="53.5" y="-121.5" font-family="Helvetica,sans-Serif" font-size="10.00">convect_new</text>
</a>
</g>
</g>
<!-- Node2&#45;&gt;Node47 -->
<g id="edge4" class="edge">
<title>Node2&#45;&gt;Node47</title>
<path fill="none" stroke="midnightblue" d="M142.22,-110.45C126.12,-112.94 107.08,-115.88 90.85,-118.38"/>
<polygon fill="midnightblue" stroke="midnightblue" points="142.96,-113.88 152.31,-108.89 141.9,-106.96 142.96,-113.88"/>
</g>
<!-- Node48 -->
<g id="node6" class="node">
<title>Node48</title>
<g id="a_node6"><a xlink:href="perturb_8f.html#ab40957f09440ef41d588a2295d22e96f" target="_top" xlink:title=" ">
<polygon fill="white" stroke="red" points="20.5,-76.5 20.5,-95.5 86.5,-95.5 86.5,-76.5 20.5,-76.5"/>
<text text-anchor="middle" x="53.5" y="-83.5" font-family="Helvetica,sans-Serif" font-size="10.00">convop_adj</text>
</a>
</g>
</g>
<!-- Node2&#45;&gt;Node48 -->
<g id="edge5" class="edge">
<title>Node2&#45;&gt;Node48</title>
<path fill="none" stroke="midnightblue" d="M141.96,-99.51C124.51,-96.81 103.65,-93.59 86.68,-90.97"/>
<polygon fill="midnightblue" stroke="midnightblue" points="141.9,-103.04 152.31,-101.11 142.96,-96.12 141.9,-103.04"/>
</g>
<!-- Node49 -->
<g id="node7" class="node">
<title>Node49</title>
<g id="a_node7"><a xlink:href="convect_8f.html#aadc03184873881e2a6bd5ca5541cffa3" target="_top" xlink:title=" ">
<polygon fill="white" stroke="red" points="8.5,-38.5 8.5,-57.5 98.5,-57.5 98.5,-38.5 8.5,-38.5"/>
<text text-anchor="middle" x="53.5" y="-45.5" font-family="Helvetica,sans-Serif" font-size="10.00">convop_cons_2d</text>
</a>
</g>
</g>
<!-- Node2&#45;&gt;Node49 -->
<g id="edge6" class="edge">
<title>Node2&#45;&gt;Node49</title>
<path fill="none" stroke="midnightblue" d="M151.09,-90.52C133.02,-80.66 111.54,-69.03 107,-67 99.39,-63.59 90.97,-60.33 83.14,-57.5"/>
<polygon fill="midnightblue" stroke="midnightblue" points="149.67,-93.74 160.13,-95.46 153.03,-87.59 149.67,-93.74"/>
</g>
<!-- Node56 -->
<g id="node8" class="node">
<title>Node56</title>
<g id="a_node8"><a xlink:href="convect_8f.html#a281f1b22620e0b1de622a0a0a760df6b" target="_top" xlink:title=" ">
<polygon fill="white" stroke="red" points="8.5,-0.5 8.5,-19.5 98.5,-19.5 98.5,-0.5 8.5,-0.5"/>
<text text-anchor="middle" x="53.5" y="-7.5" font-family="Helvetica,sans-Serif" font-size="10.00">convop_cons_3d</text>
</a>
</g>
</g>
<!-- Node2&#45;&gt;Node56 -->
<g id="edge7" class="edge">
<title>Node2&#45;&gt;Node56</title>
<path fill="none" stroke="midnightblue" d="M147.55,-89.82C145.95,-88.61 144.42,-87.34 143,-86 121.19,-65.46 130.35,-47.78 107,-29 102.24,-25.17 96.65,-22.08 90.91,-19.59"/>
<polygon fill="midnightblue" stroke="midnightblue" points="145.65,-92.76 155.93,-95.31 149.48,-86.9 145.65,-92.76"/>
</g>
</g>
</svg>
