<?xml version="1.0" encoding="UTF-8" standalone="no"?>
<!DOCTYPE svg PUBLIC "-//W3C//DTD SVG 1.1//EN"
 "http://www.w3.org/Graphics/SVG/1.1/DTD/svg11.dtd">
<!-- Generated by graphviz version 2.46.0 (0)
 -->
<!-- Title: set_conv_char Pages: 1 -->
<svg width="321pt" height="256pt"
 viewBox="0.00 0.00 321.00 256.00" xmlns="http://www.w3.org/2000/svg" xmlns:xlink="http://www.w3.org/1999/xlink">
<g id="graph0" class="graph" transform="scale(1 1) rotate(0) translate(4 252)">
<title>set_conv_char</title>
<polygon fill="white" stroke="transparent" points="-4,4 -4,-252 317,-252 317,4 -4,4"/>
<!-- Node1 -->
<g id="node1" class="node">
<title>Node1</title>
<g id="a_node1"><a xlink:title=" ">
<polygon fill="#bfbfbf" stroke="black" points="0,-95.5 0,-114.5 80,-114.5 80,-95.5 0,-95.5"/>
<text text-anchor="middle" x="40" y="-102.5" font-family="Helvetica,sans-Serif" font-size="10.00">set_conv_char</text>
</a>
</g>
</g>
<!-- Node2 -->
<g id="node2" class="node">
<title>Node2</title>
<g id="a_node2"><a xlink:href="comm__mpi_8f.html#a59fcf8a02fe54ab37f61050e3ca6b197" target="_top" xlink:title=" ">
<polygon fill="white" stroke="black" points="129.5,-152.5 129.5,-171.5 167.5,-171.5 167.5,-152.5 129.5,-152.5"/>
<text text-anchor="middle" x="148.5" y="-159.5" font-family="Helvetica,sans-Serif" font-size="10.00">exitti</text>
</a>
</g>
</g>
<!-- Node1&#45;&gt;Node2 -->
<g id="edge1" class="edge">
<title>Node1&#45;&gt;Node2</title>
<path fill="none" stroke="midnightblue" d="M59.07,-114.67C76,-123.73 101.52,-137.39 120.8,-147.71"/>
<polygon fill="midnightblue" stroke="midnightblue" points="119.23,-150.84 129.7,-152.47 122.54,-144.67 119.23,-150.84"/>
</g>
<!-- Node9 -->
<g id="node7" class="node">
<title>Node9</title>
<g id="a_node7"><a xlink:href="convect_8f.html#ac3d8bc4e3ce025f8bd0e116715d69ad2" target="_top" xlink:title=" ">
<polygon fill="white" stroke="black" points="116,-57.5 116,-76.5 181,-76.5 181,-57.5 116,-57.5"/>
<text text-anchor="middle" x="148.5" y="-64.5" font-family="Helvetica,sans-Serif" font-size="10.00">set_ct_cvx</text>
</a>
</g>
</g>
<!-- Node1&#45;&gt;Node9 -->
<g id="edge6" class="edge">
<title>Node1&#45;&gt;Node9</title>
<path fill="none" stroke="midnightblue" d="M67.87,-95.41C80.99,-90.73 96.97,-85.03 111.15,-79.97"/>
<polygon fill="midnightblue" stroke="midnightblue" points="112.39,-83.24 120.63,-76.59 110.04,-76.65 112.39,-83.24"/>
</g>
<!-- Node3 -->
<g id="node3" class="node">
<title>Node3</title>
<g id="a_node3"><a xlink:href="math_8f.html#a692155d1d2ec380a9fdb2d81ef221625" target="_top" xlink:title=" ">
<polygon fill="white" stroke="black" points="245,-228.5 245,-247.5 285,-247.5 285,-228.5 245,-228.5"/>
<text text-anchor="middle" x="265" y="-235.5" font-family="Helvetica,sans-Serif" font-size="10.00">blank</text>
</a>
</g>
</g>
<!-- Node2&#45;&gt;Node3 -->
<g id="edge2" class="edge">
<title>Node2&#45;&gt;Node3</title>
<path fill="none" stroke="midnightblue" d="M158.81,-171.56C171.18,-183.84 194.15,-205.22 217,-219 222.64,-222.4 229,-225.44 235.17,-228.03"/>
<polygon fill="midnightblue" stroke="midnightblue" points="234,-231.33 244.59,-231.73 236.56,-224.82 234,-231.33"/>
</g>
<!-- Node4 -->
<g id="node4" class="node">
<title>Node4</title>
<g id="a_node4"><a xlink:href="math_8f.html#ad7fb480cea001849621405f37167aab1" target="_top" xlink:title=" ">
<polygon fill="white" stroke="black" points="241,-190.5 241,-209.5 289,-209.5 289,-190.5 241,-190.5"/>
<text text-anchor="middle" x="265" y="-197.5" font-family="Helvetica,sans-Serif" font-size="10.00">chcopy</text>
</a>
</g>
</g>
<!-- Node2&#45;&gt;Node4 -->
<g id="edge3" class="edge">
<title>Node2&#45;&gt;Node4</title>
<path fill="none" stroke="midnightblue" d="M167.64,-168.02C184.66,-173.67 210.5,-182.25 231.14,-189.1"/>
<polygon fill="midnightblue" stroke="midnightblue" points="230.2,-192.47 240.8,-192.3 232.41,-185.83 230.2,-192.47"/>
</g>
<!-- Node5 -->
<g id="node5" class="node">
<title>Node5</title>
<g id="a_node5"><a xlink:href="byte_8c.html#a2da8eeb074dfd3ffbfb3e9a4d301cda4" target="_top" xlink:title=" ">
<polygon fill="white" stroke="red" points="247.5,-152.5 247.5,-171.5 282.5,-171.5 282.5,-152.5 247.5,-152.5"/>
<text text-anchor="middle" x="265" y="-159.5" font-family="Helvetica,sans-Serif" font-size="10.00">exitt</text>
</a>
</g>
</g>
<!-- Node2&#45;&gt;Node5 -->
<g id="edge4" class="edge">
<title>Node2&#45;&gt;Node5</title>
<path fill="none" stroke="midnightblue" d="M167.64,-162C186.42,-162 215.93,-162 237.36,-162"/>
<polygon fill="midnightblue" stroke="midnightblue" points="237.43,-165.5 247.43,-162 237.43,-158.5 237.43,-165.5"/>
</g>
<!-- Node8 -->
<g id="node6" class="node">
<title>Node8</title>
<g id="a_node6"><a xlink:href="ic_8f.html#ada3a2c3283a9052e1fe4b7a90375b09b" target="_top" xlink:title=" ">
<polygon fill="white" stroke="black" points="245,-114.5 245,-133.5 285,-133.5 285,-114.5 245,-114.5"/>
<text text-anchor="middle" x="265" y="-121.5" font-family="Helvetica,sans-Serif" font-size="10.00">indx1</text>
</a>
</g>
</g>
<!-- Node2&#45;&gt;Node8 -->
<g id="edge5" class="edge">
<title>Node2&#45;&gt;Node8</title>
<path fill="none" stroke="midnightblue" d="M167.64,-155.98C185.74,-149.97 213.83,-140.65 235.02,-133.62"/>
<polygon fill="midnightblue" stroke="midnightblue" points="236.41,-136.85 244.8,-130.37 234.2,-130.2 236.41,-136.85"/>
</g>
<!-- Node10 -->
<g id="node8" class="node">
<title>Node10</title>
<g id="a_node8"><a xlink:href="math_8f.html#a3b43508554f14bdea8e14473d7d0803c" target="_top" xlink:title=" ">
<polygon fill="white" stroke="black" points="246,-76.5 246,-95.5 284,-95.5 284,-76.5 246,-76.5"/>
<text text-anchor="middle" x="265" y="-83.5" font-family="Helvetica,sans-Serif" font-size="10.00">copy</text>
</a>
</g>
</g>
<!-- Node9&#45;&gt;Node10 -->
<g id="edge7" class="edge">
<title>Node9&#45;&gt;Node10</title>
<path fill="none" stroke="midnightblue" d="M181.09,-72.24C198.14,-75.07 219.02,-78.54 235.56,-81.28"/>
<polygon fill="midnightblue" stroke="midnightblue" points="235.28,-84.78 245.72,-82.97 236.43,-77.88 235.28,-84.78"/>
</g>
<!-- Node11 -->
<g id="node9" class="node">
<title>Node11</title>
<g id="a_node9"><a xlink:href="convect_8f.html#ab9dc1c74179f5d10465e63bb065f65eb" target="_top" xlink:title=" ">
<polygon fill="white" stroke="red" points="217,-38.5 217,-57.5 313,-57.5 313,-38.5 217,-38.5"/>
<text text-anchor="middle" x="265" y="-45.5" font-family="Helvetica,sans-Serif" font-size="10.00">set_convect_cons</text>
</a>
</g>
</g>
<!-- Node9&#45;&gt;Node11 -->
<g id="edge8" class="edge">
<title>Node9&#45;&gt;Node11</title>
<path fill="none" stroke="midnightblue" d="M181.09,-61.76C189.07,-60.43 197.9,-58.97 206.72,-57.5"/>
<polygon fill="midnightblue" stroke="midnightblue" points="207.35,-60.95 216.64,-55.86 206.2,-54.04 207.35,-60.95"/>
</g>
<!-- Node33 -->
<g id="node10" class="node">
<title>Node33</title>
<g id="a_node10"><a xlink:href="convect_8f.html#a768d72f963bbcaf77ab9725ad7847c72" target="_top" xlink:title=" ">
<polygon fill="white" stroke="red" points="218.5,-0.5 218.5,-19.5 311.5,-19.5 311.5,-0.5 218.5,-0.5"/>
<text text-anchor="middle" x="265" y="-7.5" font-family="Helvetica,sans-Serif" font-size="10.00">set_convect_new</text>
</a>
</g>
</g>
<!-- Node9&#45;&gt;Node33 -->
<g id="edge9" class="edge">
<title>Node9&#45;&gt;Node33</title>
<path fill="none" stroke="midnightblue" d="M165.29,-57.35C178.77,-49.29 198.82,-37.75 217,-29 220.84,-27.15 224.9,-25.33 228.97,-23.58"/>
<polygon fill="midnightblue" stroke="midnightblue" points="230.48,-26.74 238.37,-19.67 227.79,-20.28 230.48,-26.74"/>
</g>
</g>
</svg>
