<?xml version="1.0" encoding="UTF-8" standalone="no"?>
<!DOCTYPE svg PUBLIC "-//W3C//DTD SVG 1.1//EN"
 "http://www.w3.org/Graphics/SVG/1.1/DTD/svg11.dtd">
<!-- Generated by graphviz version 2.46.0 (0)
 -->
<!-- Title: conv_rhs_dg_weak Pages: 1 -->
<svg width="427pt" height="180pt"
 viewBox="0.00 0.00 427.00 180.00" xmlns="http://www.w3.org/2000/svg" xmlns:xlink="http://www.w3.org/1999/xlink">
<g id="graph0" class="graph" transform="scale(1 1) rotate(0) translate(4 176)">
<title>conv_rhs_dg_weak</title>
<polygon fill="white" stroke="transparent" points="-4,4 -4,-176 423,-176 423,4 -4,4"/>
<!-- Node1 -->
<g id="node1" class="node">
<title>Node1</title>
<g id="a_node1"><a xlink:title=" ">
<polygon fill="#bfbfbf" stroke="black" points="318,-114.5 318,-133.5 419,-133.5 419,-114.5 318,-114.5"/>
<text text-anchor="middle" x="368.5" y="-121.5" font-family="Helvetica,sans-Serif" font-size="10.00">conv_rhs_dg_weak</text>
</a>
</g>
</g>
<!-- Node2 -->
<g id="node2" class="node">
<title>Node2</title>
<g id="a_node2"><a xlink:href="convect_8f.html#a54a097b9694cc1cd26ab1bc8eba625e4" target="_top" xlink:title=" ">
<polygon fill="white" stroke="black" points="210,-142.5 210,-161.5 282,-161.5 282,-142.5 210,-142.5"/>
<text text-anchor="middle" x="246" y="-149.5" font-family="Helvetica,sans-Serif" font-size="10.00">conv_rhs_dg</text>
</a>
</g>
</g>
<!-- Node1&#45;&gt;Node2 -->
<g id="edge1" class="edge">
<title>Node1&#45;&gt;Node2</title>
<path fill="none" stroke="midnightblue" d="M316.43,-135.87C304.94,-138.54 293,-141.31 282.32,-143.79"/>
<polygon fill="midnightblue" stroke="midnightblue" points="317.42,-139.23 326.37,-133.56 315.84,-132.41 317.42,-139.23"/>
</g>
<!-- Node31 -->
<g id="node5" class="node">
<title>Node31</title>
<g id="a_node5"><a xlink:href="convect_8f.html#ac116aa7e82985c8c7851da63aef07c6c" target="_top" xlink:title=" ">
<polygon fill="white" stroke="black" points="212.5,-95.5 212.5,-114.5 279.5,-114.5 279.5,-95.5 212.5,-95.5"/>
<text text-anchor="middle" x="246" y="-102.5" font-family="Helvetica,sans-Serif" font-size="10.00">convect_dg</text>
</a>
</g>
</g>
<!-- Node1&#45;&gt;Node31 -->
<g id="edge4" class="edge">
<title>Node1&#45;&gt;Node31</title>
<path fill="none" stroke="midnightblue" d="M307.77,-114.58C298.12,-113.06 288.44,-111.53 279.74,-110.16"/>
<polygon fill="midnightblue" stroke="midnightblue" points="307.37,-118.06 317.79,-116.16 308.46,-111.15 307.37,-118.06"/>
</g>
<!-- Node3 -->
<g id="node3" class="node">
<title>Node3</title>
<g id="a_node3"><a xlink:href="convect_8f.html#a036e0748e08b74d166f83b1a6dab88a4" target="_top" xlink:title=" ">
<polygon fill="white" stroke="black" points="118,-147.5 118,-166.5 174,-166.5 174,-147.5 118,-147.5"/>
<text text-anchor="middle" x="146" y="-154.5" font-family="Helvetica,sans-Serif" font-size="10.00">conv_rhs</text>
</a>
</g>
</g>
<!-- Node2&#45;&gt;Node3 -->
<g id="edge2" class="edge">
<title>Node2&#45;&gt;Node3</title>
<path fill="none" stroke="midnightblue" d="M199.77,-154.31C191.03,-154.75 182.12,-155.21 174.17,-155.61"/>
<polygon fill="midnightblue" stroke="midnightblue" points="200.09,-157.8 209.9,-153.79 199.73,-150.81 200.09,-157.8"/>
</g>
<!-- Node4 -->
<g id="node4" class="node">
<title>Node4</title>
<g id="a_node4"><a xlink:href="convect_8f.html#a462db3d75569eb808bc6e5d8cda2c542" target="_top" xlink:title=" ">
<polygon fill="white" stroke="red" points="7.5,-152.5 7.5,-171.5 74.5,-171.5 74.5,-152.5 7.5,-152.5"/>
<text text-anchor="middle" x="41" y="-159.5" font-family="Helvetica,sans-Serif" font-size="10.00">char_conv1</text>
</a>
</g>
</g>
<!-- Node3&#45;&gt;Node4 -->
<g id="edge3" class="edge">
<title>Node3&#45;&gt;Node4</title>
<path fill="none" stroke="midnightblue" d="M107.9,-158.8C97.06,-159.33 85.3,-159.9 74.75,-160.41"/>
<polygon fill="midnightblue" stroke="midnightblue" points="108.12,-162.29 117.94,-158.31 107.78,-155.3 108.12,-162.29"/>
</g>
<!-- Node32 -->
<g id="node6" class="node">
<title>Node32</title>
<g id="a_node6"><a xlink:href="navier1_8f.html#a38ba376801cfa958294fae8c90db7680" target="_top" xlink:title=" ">
<polygon fill="white" stroke="red" points="122,-76.5 122,-95.5 170,-95.5 170,-76.5 122,-76.5"/>
<text text-anchor="middle" x="146" y="-83.5" font-family="Helvetica,sans-Serif" font-size="10.00">convop</text>
</a>
</g>
</g>
<!-- Node31&#45;&gt;Node32 -->
<g id="edge5" class="edge">
<title>Node31&#45;&gt;Node32</title>
<path fill="none" stroke="midnightblue" d="M202.4,-96.74C191.34,-94.6 179.84,-92.37 170.2,-90.5"/>
<polygon fill="midnightblue" stroke="midnightblue" points="201.88,-100.21 212.37,-98.67 203.22,-93.33 201.88,-100.21"/>
</g>
<!-- Node33 -->
<g id="node7" class="node">
<title>Node33</title>
<g id="a_node7"><a xlink:href="navier1_8f.html#a344ec731e4a89d0f136c91bc1963e8d5" target="_top" xlink:title=" ">
<polygon fill="white" stroke="red" points="19.5,-114.5 19.5,-133.5 62.5,-133.5 62.5,-114.5 19.5,-114.5"/>
<text text-anchor="middle" x="41" y="-121.5" font-family="Helvetica,sans-Serif" font-size="10.00">advab</text>
</a>
</g>
</g>
<!-- Node32&#45;&gt;Node33 -->
<g id="edge6" class="edge">
<title>Node32&#45;&gt;Node33</title>
<path fill="none" stroke="midnightblue" d="M112.2,-98.1C95.93,-104.1 76.78,-111.17 62.59,-116.4"/>
<polygon fill="midnightblue" stroke="midnightblue" points="113.71,-101.27 121.88,-94.53 111.29,-94.71 113.71,-101.27"/>
</g>
<!-- Node34 -->
<g id="node8" class="node">
<title>Node34</title>
<g id="a_node8"><a xlink:href="perturb_8f.html#a57aed02316492f3059b70c7a98e4e2f9" target="_top" xlink:title=" ">
<polygon fill="white" stroke="red" points="17,-76.5 17,-95.5 65,-95.5 65,-76.5 17,-76.5"/>
<text text-anchor="middle" x="41" y="-83.5" font-family="Helvetica,sans-Serif" font-size="10.00">advabp</text>
</a>
</g>
</g>
<!-- Node32&#45;&gt;Node34 -->
<g id="edge7" class="edge">
<title>Node32&#45;&gt;Node34</title>
<path fill="none" stroke="midnightblue" d="M111.79,-86C96.53,-86 78.81,-86 65.04,-86"/>
<polygon fill="midnightblue" stroke="midnightblue" points="111.88,-89.5 121.88,-86 111.88,-82.5 111.88,-89.5"/>
</g>
<!-- Node38 -->
<g id="node9" class="node">
<title>Node38</title>
<g id="a_node9"><a xlink:href="perturb_8f.html#afb8592701ab3283a1c01ed23f1d0ff56" target="_top" xlink:title=" ">
<polygon fill="white" stroke="red" points="0,-38.5 0,-57.5 82,-57.5 82,-38.5 0,-38.5"/>
<text text-anchor="middle" x="41" y="-45.5" font-family="Helvetica,sans-Serif" font-size="10.00">advabp_adjoint</text>
</a>
</g>
</g>
<!-- Node32&#45;&gt;Node38 -->
<g id="edge8" class="edge">
<title>Node32&#45;&gt;Node38</title>
<path fill="none" stroke="midnightblue" d="M112.38,-73.97C98.04,-68.67 81.42,-62.54 67.94,-57.57"/>
<polygon fill="midnightblue" stroke="midnightblue" points="111.29,-77.29 121.88,-77.47 113.71,-70.73 111.29,-77.29"/>
</g>
<!-- Node39 -->
<g id="node10" class="node">
<title>Node39</title>
<g id="a_node10"><a xlink:href="avm_8f.html#a9e1209421d37bc600934cdb4974e3437" target="_top" xlink:title=" ">
<polygon fill="white" stroke="black" points="11.5,-0.5 11.5,-19.5 70.5,-19.5 70.5,-0.5 11.5,-0.5"/>
<text text-anchor="middle" x="41" y="-7.5" font-family="Helvetica,sans-Serif" font-size="10.00">avm_vdiff</text>
</a>
</g>
</g>
<!-- Node32&#45;&gt;Node39 -->
<g id="edge9" class="edge">
<title>Node32&#45;&gt;Node39</title>
<path fill="none" stroke="midnightblue" d="M128.77,-68.85C116.67,-56.7 99.3,-40.57 82,-29 76.76,-25.5 70.77,-22.29 65.05,-19.54"/>
<polygon fill="midnightblue" stroke="midnightblue" points="126.43,-71.46 135.91,-76.17 131.44,-66.57 126.43,-71.46"/>
</g>
</g>
</svg>
