<?xml version="1.0" encoding="UTF-8" standalone="no"?>
<!DOCTYPE svg PUBLIC "-//W3C//DTD SVG 1.1//EN"
 "http://www.w3.org/Graphics/SVG/1.1/DTD/svg11.dtd">
<!-- Generated by graphviz version 2.46.0 (0)
 -->
<!-- Title: intp_rstd Pages: 1 -->
<svg width="435pt" height="180pt"
 viewBox="0.00 0.00 435.00 180.00" xmlns="http://www.w3.org/2000/svg" xmlns:xlink="http://www.w3.org/1999/xlink">
<g id="graph0" class="graph" transform="scale(1 1) rotate(0) translate(4 176)">
<title>intp_rstd</title>
<polygon fill="white" stroke="transparent" points="-4,4 -4,-176 431,-176 431,4 -4,4"/>
<!-- Node1 -->
<g id="node1" class="node">
<title>Node1</title>
<g id="a_node1"><a xlink:title=" ">
<polygon fill="#bfbfbf" stroke="black" points="0,-38.5 0,-57.5 54,-57.5 54,-38.5 0,-38.5"/>
<text text-anchor="middle" x="27" y="-45.5" font-family="Helvetica,sans-Serif" font-size="10.00">intp_rstd</text>
</a>
</g>
</g>
<!-- Node2 -->
<g id="node2" class="node">
<title>Node2</title>
<g id="a_node2"><a xlink:href="convect_8f.html#a92eec6b22d330a307e543facfa634daa" target="_top" xlink:title=" ">
<polygon fill="white" stroke="black" points="90,-76.5 90,-95.5 152,-95.5 152,-76.5 90,-76.5"/>
<text text-anchor="middle" x="121" y="-83.5" font-family="Helvetica,sans-Serif" font-size="10.00">get_int_ptr</text>
</a>
</g>
</g>
<!-- Node1&#45;&gt;Node2 -->
<g id="edge1" class="edge">
<title>Node1&#45;&gt;Node2</title>
<path fill="none" stroke="midnightblue" d="M51.22,-57.59C62.22,-62.13 75.55,-67.64 87.54,-72.59"/>
<polygon fill="midnightblue" stroke="midnightblue" points="86.21,-75.83 96.79,-76.41 88.89,-69.36 86.21,-75.83"/>
</g>
<!-- Node22 -->
<g id="node7" class="node">
<title>Node22</title>
<g id="a_node7"><a xlink:href="convect_8f.html#aef5d48d354e9e03de35748eecb7e42f9" target="_top" xlink:title=" ">
<polygon fill="white" stroke="black" points="188,-38.5 188,-57.5 238,-57.5 238,-38.5 188,-38.5"/>
<text text-anchor="middle" x="213" y="-45.5" font-family="Helvetica,sans-Serif" font-size="10.00">lim_chk</text>
</a>
</g>
</g>
<!-- Node1&#45;&gt;Node22 -->
<g id="edge9" class="edge">
<title>Node1&#45;&gt;Node22</title>
<path fill="none" stroke="midnightblue" d="M54.36,-48C86.69,-48 141.59,-48 177.31,-48"/>
<polygon fill="midnightblue" stroke="midnightblue" points="177.74,-51.5 187.74,-48 177.74,-44.5 177.74,-51.5"/>
</g>
<!-- Node27 -->
<g id="node10" class="node">
<title>Node27</title>
<g id="a_node10"><a xlink:href="navier8_8f.html#a5c307bcd1af1a0036e75f65db3d06e39" target="_top" xlink:title=" ">
<polygon fill="white" stroke="black" points="93,-0.5 93,-19.5 149,-19.5 149,-0.5 93,-0.5"/>
<text text-anchor="middle" x="121" y="-7.5" font-family="Helvetica,sans-Serif" font-size="10.00">specmpn</text>
</a>
</g>
</g>
<!-- Node1&#45;&gt;Node27 -->
<g id="edge10" class="edge">
<title>Node1&#45;&gt;Node27</title>
<path fill="none" stroke="midnightblue" d="M51.22,-38.41C62.22,-33.87 75.55,-28.36 87.54,-23.41"/>
<polygon fill="midnightblue" stroke="midnightblue" points="88.89,-26.64 96.79,-19.59 86.21,-20.17 88.89,-26.64"/>
</g>
<!-- Node3 -->
<g id="node3" class="node">
<title>Node3</title>
<g id="a_node3"><a xlink:href="convect_8f.html#a58f02ae257240ef90f8a1c9e5b092d1c" target="_top" xlink:title=" ">
<polygon fill="white" stroke="red" points="189,-95.5 189,-114.5 237,-114.5 237,-95.5 189,-95.5"/>
<text text-anchor="middle" x="213" y="-102.5" font-family="Helvetica,sans-Serif" font-size="10.00">gen_int</text>
</a>
</g>
</g>
<!-- Node2&#45;&gt;Node3 -->
<g id="edge2" class="edge">
<title>Node2&#45;&gt;Node3</title>
<path fill="none" stroke="midnightblue" d="M152.47,-92.43C161.05,-94.24 170.41,-96.22 179.12,-98.06"/>
<polygon fill="midnightblue" stroke="midnightblue" points="178.45,-101.5 188.96,-100.14 179.9,-94.65 178.45,-101.5"/>
</g>
<!-- Node2&#45;&gt;Node22 -->
<g id="edge6" class="edge">
<title>Node2&#45;&gt;Node22</title>
<path fill="none" stroke="midnightblue" d="M144.71,-76.41C155.37,-71.91 168.26,-66.47 179.9,-61.56"/>
<polygon fill="midnightblue" stroke="midnightblue" points="181.45,-64.7 189.3,-57.59 178.72,-58.25 181.45,-64.7"/>
</g>
<!-- Node4 -->
<g id="node4" class="node">
<title>Node4</title>
<g id="a_node4"><a xlink:href="fast3d_8f.html#ad007f6eca12b1b9307f46e56bcc40a59" target="_top" xlink:title=" ">
<polygon fill="white" stroke="black" points="274,-152.5 274,-171.5 356,-171.5 356,-152.5 274,-152.5"/>
<text text-anchor="middle" x="315" y="-159.5" font-family="Helvetica,sans-Serif" font-size="10.00">fd_weights_full</text>
</a>
</g>
</g>
<!-- Node3&#45;&gt;Node4 -->
<g id="edge3" class="edge">
<title>Node3&#45;&gt;Node4</title>
<path fill="none" stroke="midnightblue" d="M228.01,-114.56C239.99,-122.56 257.8,-134.07 274,-143 277.05,-144.68 280.28,-146.37 283.53,-148"/>
<polygon fill="midnightblue" stroke="midnightblue" points="282.06,-151.18 292.58,-152.41 285.13,-144.89 282.06,-151.18"/>
</g>
<!-- Node5 -->
<g id="node5" class="node">
<title>Node5</title>
<g id="a_node5"><a xlink:href="math_8f.html#a17c0ecae12cc5c6096939885da90ad2b" target="_top" xlink:title=" ">
<polygon fill="white" stroke="black" points="285.5,-114.5 285.5,-133.5 344.5,-133.5 344.5,-114.5 285.5,-114.5"/>
<text text-anchor="middle" x="315" y="-121.5" font-family="Helvetica,sans-Serif" font-size="10.00">transpose</text>
</a>
</g>
</g>
<!-- Node3&#45;&gt;Node5 -->
<g id="edge4" class="edge">
<title>Node3&#45;&gt;Node5</title>
<path fill="none" stroke="midnightblue" d="M237.19,-109.41C248.48,-111.55 262.36,-114.19 275.2,-116.63"/>
<polygon fill="midnightblue" stroke="midnightblue" points="274.73,-120.1 285.21,-118.53 276.04,-113.22 274.73,-120.1"/>
</g>
<!-- Node6 -->
<g id="node6" class="node">
<title>Node6</title>
<g id="a_node6"><a xlink:href="speclib_8f.html#a1aea25f2ddfcdcb1f50e66bbd4282fe2" target="_top" xlink:title=" ">
<polygon fill="white" stroke="red" points="296.5,-76.5 296.5,-95.5 333.5,-95.5 333.5,-76.5 296.5,-76.5"/>
<text text-anchor="middle" x="315" y="-83.5" font-family="Helvetica,sans-Serif" font-size="10.00">zwgl</text>
</a>
</g>
</g>
<!-- Node3&#45;&gt;Node6 -->
<g id="edge5" class="edge">
<title>Node3&#45;&gt;Node6</title>
<path fill="none" stroke="midnightblue" d="M237.19,-100.59C251.82,-97.81 270.79,-94.21 286.22,-91.28"/>
<polygon fill="midnightblue" stroke="midnightblue" points="287.07,-94.68 296.24,-89.37 285.76,-87.8 287.07,-94.68"/>
</g>
<!-- Node23 -->
<g id="node8" class="node">
<title>Node23</title>
<g id="a_node8"><a xlink:href="comm__mpi_8f.html#a59fcf8a02fe54ab37f61050e3ca6b197" target="_top" xlink:title=" ">
<polygon fill="white" stroke="red" points="296,-38.5 296,-57.5 334,-57.5 334,-38.5 296,-38.5"/>
<text text-anchor="middle" x="315" y="-45.5" font-family="Helvetica,sans-Serif" font-size="10.00">exitti</text>
</a>
</g>
</g>
<!-- Node22&#45;&gt;Node23 -->
<g id="edge7" class="edge">
<title>Node22&#45;&gt;Node23</title>
<path fill="none" stroke="midnightblue" d="M238.21,-48C252.53,-48 270.75,-48 285.73,-48"/>
<polygon fill="midnightblue" stroke="midnightblue" points="285.97,-51.5 295.97,-48 285.97,-44.5 285.97,-51.5"/>
</g>
<!-- Node8 -->
<g id="node9" class="node">
<title>Node8</title>
<g id="a_node9"><a xlink:href="byte_8c.html#a2da8eeb074dfd3ffbfb3e9a4d301cda4" target="_top" xlink:title=" ">
<polygon fill="white" stroke="red" points="392,-19.5 392,-38.5 427,-38.5 427,-19.5 392,-19.5"/>
<text text-anchor="middle" x="409.5" y="-26.5" font-family="Helvetica,sans-Serif" font-size="10.00">exitt</text>
</a>
</g>
</g>
<!-- Node23&#45;&gt;Node8 -->
<g id="edge8" class="edge">
<title>Node23&#45;&gt;Node8</title>
<path fill="none" stroke="midnightblue" d="M334.28,-44.25C347.88,-41.45 366.65,-37.6 381.92,-34.46"/>
<polygon fill="midnightblue" stroke="midnightblue" points="382.73,-37.87 391.82,-32.43 381.32,-31.01 382.73,-37.87"/>
</g>
<!-- Node27&#45;&gt;Node8 -->
<g id="edge11" class="edge">
<title>Node27&#45;&gt;Node8</title>
<path fill="none" stroke="midnightblue" d="M149.21,-11.8C203.96,-15.44 326.86,-23.59 381.47,-27.21"/>
<polygon fill="midnightblue" stroke="midnightblue" points="381.53,-30.72 391.74,-27.89 381.99,-23.73 381.53,-30.72"/>
</g>
</g>
</svg>
