<?xml version="1.0" encoding="UTF-8" standalone="no"?>
<!DOCTYPE svg PUBLIC "-//W3C//DTD SVG 1.1//EN"
 "http://www.w3.org/Graphics/SVG/1.1/DTD/svg11.dtd">
<!-- Generated by graphviz version 2.46.0 (0)
 -->
<!-- Title: full2face Pages: 1 -->
<svg width="508pt" height="142pt"
 viewBox="0.00 0.00 508.00 142.00" xmlns="http://www.w3.org/2000/svg" xmlns:xlink="http://www.w3.org/1999/xlink">
<g id="graph0" class="graph" transform="scale(1 1) rotate(0) translate(4 138)">
<title>full2face</title>
<polygon fill="white" stroke="transparent" points="-4,4 -4,-138 504,-138 504,4 -4,4"/>
<!-- Node1 -->
<g id="node1" class="node">
<title>Node1</title>
<g id="a_node1"><a xlink:title=" ">
<polygon fill="#bfbfbf" stroke="black" points="447,-57.5 447,-76.5 500,-76.5 500,-57.5 447,-57.5"/>
<text text-anchor="middle" x="473.5" y="-64.5" font-family="Helvetica,sans-Serif" font-size="10.00">full2face</text>
</a>
</g>
</g>
<!-- Node2 -->
<g id="node2" class="node">
<title>Node2</title>
<g id="a_node2"><a xlink:href="convect_8f.html#afeef10dae9b9e61e439b05a116b0ab4c" target="_top" xlink:title=" ">
<polygon fill="white" stroke="black" points="304,-114.5 304,-133.5 410,-133.5 410,-114.5 304,-114.5"/>
<text text-anchor="middle" x="357" y="-121.5" font-family="Helvetica,sans-Serif" font-size="10.00">conv_bdry_dg_weak</text>
</a>
</g>
</g>
<!-- Node1&#45;&gt;Node2 -->
<g id="edge1" class="edge">
<title>Node1&#45;&gt;Node2</title>
<path fill="none" stroke="midnightblue" d="M446.45,-81.48C435.58,-87.39 422.76,-94.19 411,-100 400.95,-104.97 389.65,-110.14 380.07,-114.4"/>
<polygon fill="midnightblue" stroke="midnightblue" points="448.34,-84.43 455.43,-76.56 444.98,-78.29 448.34,-84.43"/>
</g>
<!-- Node17 -->
<g id="node5" class="node">
<title>Node17</title>
<g id="a_node5"><a xlink:href="convect_8f.html#a54a097b9694cc1cd26ab1bc8eba625e4" target="_top" xlink:title=" ">
<polygon fill="white" stroke="black" points="195,-76.5 195,-95.5 267,-95.5 267,-76.5 195,-76.5"/>
<text text-anchor="middle" x="231" y="-83.5" font-family="Helvetica,sans-Serif" font-size="10.00">conv_rhs_dg</text>
</a>
</g>
</g>
<!-- Node1&#45;&gt;Node17 -->
<g id="edge4" class="edge">
<title>Node1&#45;&gt;Node17</title>
<path fill="none" stroke="midnightblue" d="M436.72,-69.83C391.08,-73.43 312.62,-79.63 267.24,-83.22"/>
<polygon fill="midnightblue" stroke="midnightblue" points="437.07,-73.31 446.76,-69.03 436.52,-66.33 437.07,-73.31"/>
</g>
<!-- Node32 -->
<g id="node8" class="node">
<title>Node32</title>
<g id="a_node8"><a xlink:href="convect_8f.html#ace970aac277cdecdce1ee7e820473310" target="_top" xlink:title=" ">
<polygon fill="white" stroke="black" points="303,-0.5 303,-19.5 411,-19.5 411,-0.5 303,-0.5"/>
<text text-anchor="middle" x="357" y="-7.5" font-family="Helvetica,sans-Serif" font-size="10.00">conv_rhs_dg_aliased</text>
</a>
</g>
</g>
<!-- Node1&#45;&gt;Node32 -->
<g id="edge7" class="edge">
<title>Node1&#45;&gt;Node32</title>
<path fill="none" stroke="midnightblue" d="M450.34,-51.74C438.92,-44.28 424.56,-35.53 411,-29 403.78,-25.52 395.75,-22.32 388.16,-19.58"/>
<polygon fill="midnightblue" stroke="midnightblue" points="448.54,-54.75 458.81,-57.38 452.42,-48.92 448.54,-54.75"/>
</g>
<!-- Node33 -->
<g id="node9" class="node">
<title>Node33</title>
<g id="a_node9"><a xlink:href="convect_8f.html#a7975b977bdaf7637493e0beacb3a224b" target="_top" xlink:title=" ">
<polygon fill="white" stroke="black" points="306.5,-38.5 306.5,-57.5 407.5,-57.5 407.5,-38.5 306.5,-38.5"/>
<text text-anchor="middle" x="357" y="-45.5" font-family="Helvetica,sans-Serif" font-size="10.00">conv_rhs_dg_weak</text>
</a>
</g>
</g>
<!-- Node1&#45;&gt;Node33 -->
<g id="edge9" class="edge">
<title>Node1&#45;&gt;Node33</title>
<path fill="none" stroke="midnightblue" d="M436.78,-61.07C427.52,-59.54 417.38,-57.85 407.55,-56.22"/>
<polygon fill="midnightblue" stroke="midnightblue" points="436.37,-64.55 446.8,-62.74 437.51,-57.65 436.37,-64.55"/>
</g>
<!-- Node3 -->
<g id="node3" class="node">
<title>Node3</title>
<g id="a_node3"><a xlink:href="conduct_8f.html#abc0953779481a8cff2666b1d0878c50c" target="_top" xlink:title=" ">
<polygon fill="white" stroke="black" points="200.5,-114.5 200.5,-133.5 261.5,-133.5 261.5,-114.5 200.5,-114.5"/>
<text text-anchor="middle" x="231" y="-121.5" font-family="Helvetica,sans-Serif" font-size="10.00">cdscal_dg</text>
</a>
</g>
</g>
<!-- Node2&#45;&gt;Node3 -->
<g id="edge2" class="edge">
<title>Node2&#45;&gt;Node3</title>
<path fill="none" stroke="midnightblue" d="M293.55,-124C282.38,-124 271.23,-124 261.54,-124"/>
<polygon fill="midnightblue" stroke="midnightblue" points="293.77,-127.5 303.77,-124 293.77,-120.5 293.77,-127.5"/>
</g>
<!-- Node4 -->
<g id="node4" class="node">
<title>Node4</title>
<g id="a_node4"><a xlink:href="conduct_8f.html#a74a7f053381975ed36df8ea959f3aa01" target="_top" xlink:title=" ">
<polygon fill="white" stroke="red" points="108.5,-114.5 108.5,-133.5 153.5,-133.5 153.5,-114.5 108.5,-114.5"/>
<text text-anchor="middle" x="131" y="-121.5" font-family="Helvetica,sans-Serif" font-size="10.00">cdscal</text>
</a>
</g>
</g>
<!-- Node3&#45;&gt;Node4 -->
<g id="edge3" class="edge">
<title>Node3&#45;&gt;Node4</title>
<path fill="none" stroke="midnightblue" d="M190.16,-124C177.73,-124 164.49,-124 153.79,-124"/>
<polygon fill="midnightblue" stroke="midnightblue" points="190.33,-127.5 200.33,-124 190.33,-120.5 190.33,-127.5"/>
</g>
<!-- Node18 -->
<g id="node6" class="node">
<title>Node18</title>
<g id="a_node6"><a xlink:href="convect_8f.html#a036e0748e08b74d166f83b1a6dab88a4" target="_top" xlink:title=" ">
<polygon fill="white" stroke="black" points="103,-38.5 103,-57.5 159,-57.5 159,-38.5 103,-38.5"/>
<text text-anchor="middle" x="131" y="-45.5" font-family="Helvetica,sans-Serif" font-size="10.00">conv_rhs</text>
</a>
</g>
</g>
<!-- Node17&#45;&gt;Node18 -->
<g id="edge5" class="edge">
<title>Node17&#45;&gt;Node18</title>
<path fill="none" stroke="midnightblue" d="M195.79,-72.74C182.93,-67.75 168.56,-62.18 156.72,-57.59"/>
<polygon fill="midnightblue" stroke="midnightblue" points="194.68,-76.06 205.27,-76.41 197.21,-69.53 194.68,-76.06"/>
</g>
<!-- Node19 -->
<g id="node7" class="node">
<title>Node19</title>
<g id="a_node7"><a xlink:href="convect_8f.html#a462db3d75569eb808bc6e5d8cda2c542" target="_top" xlink:title=" ">
<polygon fill="white" stroke="red" points="0,-38.5 0,-57.5 67,-57.5 67,-38.5 0,-38.5"/>
<text text-anchor="middle" x="33.5" y="-45.5" font-family="Helvetica,sans-Serif" font-size="10.00">char_conv1</text>
</a>
</g>
</g>
<!-- Node18&#45;&gt;Node19 -->
<g id="edge6" class="edge">
<title>Node18&#45;&gt;Node19</title>
<path fill="none" stroke="midnightblue" d="M92.84,-48C84.35,-48 75.39,-48 67.1,-48"/>
<polygon fill="midnightblue" stroke="midnightblue" points="92.89,-51.5 102.89,-48 92.89,-44.5 92.89,-51.5"/>
</g>
<!-- Node32&#45;&gt;Node18 -->
<g id="edge8" class="edge">
<title>Node32&#45;&gt;Node18</title>
<path fill="none" stroke="midnightblue" d="M292.42,-14.91C262.64,-17.87 226.8,-22.38 195,-29 183.03,-31.49 170.06,-35.22 159.02,-38.71"/>
<polygon fill="midnightblue" stroke="midnightblue" points="293.07,-18.36 302.69,-13.93 292.4,-11.4 293.07,-18.36"/>
</g>
<!-- Node33&#45;&gt;Node17 -->
<g id="edge10" class="edge">
<title>Node33&#45;&gt;Node17</title>
<path fill="none" stroke="midnightblue" d="M315.1,-60.54C298.23,-65.7 278.99,-71.6 263.28,-76.41"/>
<polygon fill="midnightblue" stroke="midnightblue" points="316.17,-63.87 324.71,-57.59 314.12,-57.17 316.17,-63.87"/>
</g>
<!-- Node34 -->
<g id="node10" class="node">
<title>Node34</title>
<g id="a_node10"><a xlink:href="convect_8f.html#ac116aa7e82985c8c7851da63aef07c6c" target="_top" xlink:title=" ">
<polygon fill="white" stroke="red" points="197.5,-38.5 197.5,-57.5 264.5,-57.5 264.5,-38.5 197.5,-38.5"/>
<text text-anchor="middle" x="231" y="-45.5" font-family="Helvetica,sans-Serif" font-size="10.00">convect_dg</text>
</a>
</g>
</g>
<!-- Node33&#45;&gt;Node34 -->
<g id="edge11" class="edge">
<title>Node33&#45;&gt;Node34</title>
<path fill="none" stroke="midnightblue" d="M295.99,-48C285.18,-48 274.29,-48 264.64,-48"/>
<polygon fill="midnightblue" stroke="midnightblue" points="296.28,-51.5 306.28,-48 296.28,-44.5 296.28,-51.5"/>
</g>
</g>
</svg>
