<?xml version="1.0" encoding="UTF-8" standalone="no"?>
<!DOCTYPE svg PUBLIC "-//W3C//DTD SVG 1.1//EN"
 "http://www.w3.org/Graphics/SVG/1.1/DTD/svg11.dtd">
<!-- Generated by graphviz version 2.46.0 (0)
 -->
<!-- Title: set_convect_new Pages: 1 -->
<svg width="636pt" height="123pt"
 viewBox="0.00 0.00 636.00 123.00" xmlns="http://www.w3.org/2000/svg" xmlns:xlink="http://www.w3.org/1999/xlink">
<g id="graph0" class="graph" transform="scale(1 1) rotate(0) translate(4 119)">
<title>set_convect_new</title>
<polygon fill="white" stroke="transparent" points="-4,4 -4,-119 632,-119 632,4 -4,4"/>
<!-- Node1 -->
<g id="node1" class="node">
<title>Node1</title>
<g id="a_node1"><a xlink:title=" ">
<polygon fill="#bfbfbf" stroke="black" points="0,-76.5 0,-95.5 93,-95.5 93,-76.5 0,-76.5"/>
<text text-anchor="middle" x="46.5" y="-83.5" font-family="Helvetica,sans-Serif" font-size="10.00">set_convect_new</text>
</a>
</g>
</g>
<!-- Node2 -->
<g id="node2" class="node">
<title>Node2</title>
<g id="a_node2"><a xlink:href="convect_8f.html#a9560f353879de6e4a86926a9831842a3" target="_top" xlink:title=" ">
<polygon fill="white" stroke="black" points="245,-57.5 245,-76.5 299,-76.5 299,-57.5 245,-57.5"/>
<text text-anchor="middle" x="272" y="-64.5" font-family="Helvetica,sans-Serif" font-size="10.00">intp_rstd</text>
</a>
</g>
</g>
<!-- Node1&#45;&gt;Node2 -->
<g id="edge1" class="edge">
<title>Node1&#45;&gt;Node2</title>
<path fill="none" stroke="midnightblue" d="M93.27,-82.11C135.06,-78.56 196.03,-73.37 234.6,-70.09"/>
<polygon fill="midnightblue" stroke="midnightblue" points="235.18,-73.56 244.84,-69.22 234.58,-66.58 235.18,-73.56"/>
</g>
<!-- Node29 -->
<g id="node10" class="node">
<title>Node29</title>
<g id="a_node10"><a xlink:href="convect2_8f.html#adcae8f87adfb3b7c619cd72c46ccd4ac" target="_top" xlink:title=" ">
<polygon fill="white" stroke="black" points="129,-95.5 129,-114.5 209,-114.5 209,-95.5 129,-95.5"/>
<text text-anchor="middle" x="169" y="-102.5" font-family="Helvetica,sans-Serif" font-size="10.00">set_dealias_rx</text>
</a>
</g>
</g>
<!-- Node1&#45;&gt;Node29 -->
<g id="edge11" class="edge">
<title>Node1&#45;&gt;Node29</title>
<path fill="none" stroke="midnightblue" d="M93.06,-93.18C101.4,-94.5 110.13,-95.88 118.58,-97.21"/>
<polygon fill="midnightblue" stroke="midnightblue" points="118.27,-100.7 128.69,-98.8 119.36,-93.79 118.27,-100.7"/>
</g>
<!-- Node3 -->
<g id="node3" class="node">
<title>Node3</title>
<g id="a_node3"><a xlink:href="convect_8f.html#a92eec6b22d330a307e543facfa634daa" target="_top" xlink:title=" ">
<polygon fill="white" stroke="black" points="335,-76.5 335,-95.5 397,-95.5 397,-76.5 335,-76.5"/>
<text text-anchor="middle" x="366" y="-83.5" font-family="Helvetica,sans-Serif" font-size="10.00">get_int_ptr</text>
</a>
</g>
</g>
<!-- Node2&#45;&gt;Node3 -->
<g id="edge2" class="edge">
<title>Node2&#45;&gt;Node3</title>
<path fill="none" stroke="midnightblue" d="M299.12,-72.39C307.14,-74.05 316.15,-75.91 324.88,-77.71"/>
<polygon fill="midnightblue" stroke="midnightblue" points="324.42,-81.19 334.92,-79.79 325.83,-74.34 324.42,-81.19"/>
</g>
<!-- Node23 -->
<g id="node6" class="node">
<title>Node23</title>
<g id="a_node6"><a xlink:href="convect_8f.html#aef5d48d354e9e03de35748eecb7e42f9" target="_top" xlink:title=" ">
<polygon fill="white" stroke="black" points="433,-38.5 433,-57.5 483,-57.5 483,-38.5 433,-38.5"/>
<text text-anchor="middle" x="458" y="-45.5" font-family="Helvetica,sans-Serif" font-size="10.00">lim_chk</text>
</a>
</g>
</g>
<!-- Node2&#45;&gt;Node23 -->
<g id="edge8" class="edge">
<title>Node2&#45;&gt;Node23</title>
<path fill="none" stroke="midnightblue" d="M299.36,-64.28C331.83,-60.92 387.06,-55.22 422.77,-51.53"/>
<polygon fill="midnightblue" stroke="midnightblue" points="423.15,-55.01 432.74,-50.51 422.43,-48.05 423.15,-55.01"/>
</g>
<!-- Node28 -->
<g id="node9" class="node">
<title>Node28</title>
<g id="a_node9"><a xlink:href="navier8_8f.html#a5c307bcd1af1a0036e75f65db3d06e39" target="_top" xlink:title=" ">
<polygon fill="white" stroke="black" points="338,-0.5 338,-19.5 394,-19.5 394,-0.5 338,-0.5"/>
<text text-anchor="middle" x="366" y="-7.5" font-family="Helvetica,sans-Serif" font-size="10.00">specmpn</text>
</a>
</g>
</g>
<!-- Node2&#45;&gt;Node28 -->
<g id="edge9" class="edge">
<title>Node2&#45;&gt;Node28</title>
<path fill="none" stroke="midnightblue" d="M288.61,-57.33C302.97,-48.43 324.48,-35.1 341.02,-24.86"/>
<polygon fill="midnightblue" stroke="midnightblue" points="342.97,-27.77 349.62,-19.53 339.28,-21.82 342.97,-27.77"/>
</g>
<!-- Node4 -->
<g id="node4" class="node">
<title>Node4</title>
<g id="a_node4"><a xlink:href="convect_8f.html#a58f02ae257240ef90f8a1c9e5b092d1c" target="_top" xlink:title=" ">
<polygon fill="white" stroke="red" points="434,-76.5 434,-95.5 482,-95.5 482,-76.5 434,-76.5"/>
<text text-anchor="middle" x="458" y="-83.5" font-family="Helvetica,sans-Serif" font-size="10.00">gen_int</text>
</a>
</g>
</g>
<!-- Node3&#45;&gt;Node4 -->
<g id="edge3" class="edge">
<title>Node3&#45;&gt;Node4</title>
<path fill="none" stroke="midnightblue" d="M397.47,-86C405.95,-86 415.21,-86 423.84,-86"/>
<polygon fill="midnightblue" stroke="midnightblue" points="423.96,-89.5 433.96,-86 423.96,-82.5 423.96,-89.5"/>
</g>
<!-- Node3&#45;&gt;Node23 -->
<g id="edge5" class="edge">
<title>Node3&#45;&gt;Node23</title>
<path fill="none" stroke="midnightblue" d="M389.71,-76.41C400.37,-71.91 413.26,-66.47 424.9,-61.56"/>
<polygon fill="midnightblue" stroke="midnightblue" points="426.45,-64.7 434.3,-57.59 423.72,-58.25 426.45,-64.7"/>
</g>
<!-- Node7 -->
<g id="node5" class="node">
<title>Node7</title>
<g id="a_node5"><a xlink:href="speclib_8f.html#a1aea25f2ddfcdcb1f50e66bbd4282fe2" target="_top" xlink:title=" ">
<polygon fill="white" stroke="red" points="519.5,-95.5 519.5,-114.5 556.5,-114.5 556.5,-95.5 519.5,-95.5"/>
<text text-anchor="middle" x="538" y="-102.5" font-family="Helvetica,sans-Serif" font-size="10.00">zwgl</text>
</a>
</g>
</g>
<!-- Node4&#45;&gt;Node7 -->
<g id="edge4" class="edge">
<title>Node4&#45;&gt;Node7</title>
<path fill="none" stroke="midnightblue" d="M482.4,-91.7C490.92,-93.77 500.62,-96.14 509.46,-98.29"/>
<polygon fill="midnightblue" stroke="midnightblue" points="508.77,-101.73 519.32,-100.69 510.43,-94.93 508.77,-101.73"/>
</g>
<!-- Node24 -->
<g id="node7" class="node">
<title>Node24</title>
<g id="a_node7"><a xlink:href="comm__mpi_8f.html#a59fcf8a02fe54ab37f61050e3ca6b197" target="_top" xlink:title=" ">
<polygon fill="white" stroke="red" points="519,-38.5 519,-57.5 557,-57.5 557,-38.5 519,-38.5"/>
<text text-anchor="middle" x="538" y="-45.5" font-family="Helvetica,sans-Serif" font-size="10.00">exitti</text>
</a>
</g>
</g>
<!-- Node23&#45;&gt;Node24 -->
<g id="edge6" class="edge">
<title>Node23&#45;&gt;Node24</title>
<path fill="none" stroke="midnightblue" d="M483.25,-48C491.3,-48 500.33,-48 508.66,-48"/>
<polygon fill="midnightblue" stroke="midnightblue" points="508.71,-51.5 518.71,-48 508.71,-44.5 508.71,-51.5"/>
</g>
<!-- Node9 -->
<g id="node8" class="node">
<title>Node9</title>
<g id="a_node8"><a xlink:href="byte_8c.html#a2da8eeb074dfd3ffbfb3e9a4d301cda4" target="_top" xlink:title=" ">
<polygon fill="white" stroke="red" points="593,-19.5 593,-38.5 628,-38.5 628,-19.5 593,-19.5"/>
<text text-anchor="middle" x="610.5" y="-26.5" font-family="Helvetica,sans-Serif" font-size="10.00">exitt</text>
</a>
</g>
</g>
<!-- Node24&#45;&gt;Node9 -->
<g id="edge7" class="edge">
<title>Node24&#45;&gt;Node9</title>
<path fill="none" stroke="midnightblue" d="M557.16,-43.11C564.93,-41.01 574.17,-38.52 582.7,-36.22"/>
<polygon fill="midnightblue" stroke="midnightblue" points="583.87,-39.53 592.62,-33.55 582.05,-32.77 583.87,-39.53"/>
</g>
<!-- Node28&#45;&gt;Node9 -->
<g id="edge10" class="edge">
<title>Node28&#45;&gt;Node9</title>
<path fill="none" stroke="midnightblue" d="M394.35,-12.14C441.13,-15.81 535.98,-23.24 582.52,-26.89"/>
<polygon fill="midnightblue" stroke="midnightblue" points="582.49,-30.39 592.73,-27.69 583.03,-23.42 582.49,-30.39"/>
</g>
<!-- Node29&#45;&gt;Node2 -->
<g id="edge12" class="edge">
<title>Node29&#45;&gt;Node2</title>
<path fill="none" stroke="midnightblue" d="M195.49,-95.41C207.81,-90.78 222.78,-85.14 236.14,-80.11"/>
<polygon fill="midnightblue" stroke="midnightblue" points="237.39,-83.38 245.52,-76.59 234.93,-76.83 237.39,-83.38"/>
</g>
<!-- Node29&#45;&gt;Node7 -->
<g id="edge13" class="edge">
<title>Node29&#45;&gt;Node7</title>
<path fill="none" stroke="midnightblue" d="M209.28,-105C283.92,-105 444.56,-105 509.21,-105"/>
<polygon fill="midnightblue" stroke="midnightblue" points="509.43,-108.5 519.43,-105 509.43,-101.5 509.43,-108.5"/>
</g>
</g>
</svg>
