<?xml version="1.0" encoding="UTF-8" standalone="no"?>
<!DOCTYPE svg PUBLIC "-//W3C//DTD SVG 1.1//EN"
 "http://www.w3.org/Graphics/SVG/1.1/DTD/svg11.dtd">
<!-- Generated by graphviz version 2.46.0 (0)
 -->
<!-- Title: get_dgl_ptr Pages: 1 -->
<svg width="435pt" height="161pt"
 viewBox="0.00 0.00 435.00 161.00" xmlns="http://www.w3.org/2000/svg" xmlns:xlink="http://www.w3.org/1999/xlink">
<g id="graph0" class="graph" transform="scale(1 1) rotate(0) translate(4 157)">
<title>get_dgl_ptr</title>
<polygon fill="white" stroke="transparent" points="-4,4 -4,-157 431,-157 431,4 -4,4"/>
<!-- Node1 -->
<g id="node1" class="node">
<title>Node1</title>
<g id="a_node1"><a xlink:title=" ">
<polygon fill="#bfbfbf" stroke="black" points="0,-95.5 0,-114.5 65,-114.5 65,-95.5 0,-95.5"/>
<text text-anchor="middle" x="32.5" y="-102.5" font-family="Helvetica,sans-Serif" font-size="10.00">get_dgl_ptr</text>
</a>
</g>
</g>
<!-- Node2 -->
<g id="node2" class="node">
<title>Node2</title>
<g id="a_node2"><a xlink:href="convect_8f.html#aa262674ee97d23a029b59e09a9a985a6" target="_top" xlink:title=" ">
<polygon fill="white" stroke="black" points="101,-76.5 101,-95.5 151,-95.5 151,-76.5 101,-76.5"/>
<text text-anchor="middle" x="126" y="-83.5" font-family="Helvetica,sans-Serif" font-size="10.00">gen_dgl</text>
</a>
</g>
</g>
<!-- Node1&#45;&gt;Node2 -->
<g id="edge1" class="edge">
<title>Node1&#45;&gt;Node2</title>
<path fill="none" stroke="midnightblue" d="M65.25,-98.41C73.54,-96.69 82.51,-94.82 90.92,-93.08"/>
<polygon fill="midnightblue" stroke="midnightblue" points="91.73,-96.48 100.81,-91.02 90.31,-89.63 91.73,-96.48"/>
</g>
<!-- Node4 -->
<g id="node4" class="node">
<title>Node4</title>
<g id="a_node4"><a xlink:href="convect_8f.html#aef5d48d354e9e03de35748eecb7e42f9" target="_top" xlink:title=" ">
<polygon fill="white" stroke="black" points="203,-114.5 203,-133.5 253,-133.5 253,-114.5 203,-114.5"/>
<text text-anchor="middle" x="228" y="-121.5" font-family="Helvetica,sans-Serif" font-size="10.00">lim_chk</text>
</a>
</g>
</g>
<!-- Node1&#45;&gt;Node4 -->
<g id="edge10" class="edge">
<title>Node1&#45;&gt;Node4</title>
<path fill="none" stroke="midnightblue" d="M65.02,-108.09C100.11,-111.54 156.62,-117.09 192.77,-120.64"/>
<polygon fill="midnightblue" stroke="midnightblue" points="192.55,-124.13 202.84,-121.63 193.23,-117.17 192.55,-124.13"/>
</g>
<!-- Node3 -->
<g id="node3" class="node">
<title>Node3</title>
<g id="a_node3"><a xlink:href="fast3d_8f.html#ad007f6eca12b1b9307f46e56bcc40a59" target="_top" xlink:title=" ">
<polygon fill="white" stroke="black" points="187,-76.5 187,-95.5 269,-95.5 269,-76.5 187,-76.5"/>
<text text-anchor="middle" x="228" y="-83.5" font-family="Helvetica,sans-Serif" font-size="10.00">fd_weights_full</text>
</a>
</g>
</g>
<!-- Node2&#45;&gt;Node3 -->
<g id="edge2" class="edge">
<title>Node2&#45;&gt;Node3</title>
<path fill="none" stroke="midnightblue" d="M151.21,-86C158.85,-86 167.6,-86 176.38,-86"/>
<polygon fill="midnightblue" stroke="midnightblue" points="176.63,-89.5 186.63,-86 176.63,-82.5 176.63,-89.5"/>
</g>
<!-- Node2&#45;&gt;Node4 -->
<g id="edge3" class="edge">
<title>Node2&#45;&gt;Node4</title>
<path fill="none" stroke="midnightblue" d="M151.21,-95.2C163.77,-99.97 179.31,-105.88 193.05,-111.1"/>
<polygon fill="midnightblue" stroke="midnightblue" points="192.08,-114.47 202.67,-114.75 194.56,-107.93 192.08,-114.47"/>
</g>
<!-- Node12 -->
<g id="node8" class="node">
<title>Node12</title>
<g id="a_node8"><a xlink:href="math_8f.html#a17c0ecae12cc5c6096939885da90ad2b" target="_top" xlink:title=" ">
<polygon fill="white" stroke="black" points="198.5,-38.5 198.5,-57.5 257.5,-57.5 257.5,-38.5 198.5,-38.5"/>
<text text-anchor="middle" x="228" y="-45.5" font-family="Helvetica,sans-Serif" font-size="10.00">transpose</text>
</a>
</g>
</g>
<!-- Node2&#45;&gt;Node12 -->
<g id="edge7" class="edge">
<title>Node2&#45;&gt;Node12</title>
<path fill="none" stroke="midnightblue" d="M151.21,-76.8C163.58,-72.1 178.85,-66.3 192.44,-61.13"/>
<polygon fill="midnightblue" stroke="midnightblue" points="193.87,-64.33 201.97,-57.51 191.38,-57.79 193.87,-64.33"/>
</g>
<!-- Node13 -->
<g id="node9" class="node">
<title>Node13</title>
<g id="a_node9"><a xlink:href="speclib_8f.html#a1aea25f2ddfcdcb1f50e66bbd4282fe2" target="_top" xlink:title=" ">
<polygon fill="white" stroke="black" points="209.5,-0.5 209.5,-19.5 246.5,-19.5 246.5,-0.5 209.5,-0.5"/>
<text text-anchor="middle" x="228" y="-7.5" font-family="Helvetica,sans-Serif" font-size="10.00">zwgl</text>
</a>
</g>
</g>
<!-- Node2&#45;&gt;Node13 -->
<g id="edge8" class="edge">
<title>Node2&#45;&gt;Node13</title>
<path fill="none" stroke="midnightblue" d="M135.56,-76.13C146.54,-63.91 166.63,-42.99 187,-29 191.06,-26.21 195.6,-23.63 200.12,-21.32"/>
<polygon fill="midnightblue" stroke="midnightblue" points="201.69,-24.45 209.21,-17 198.68,-18.13 201.69,-24.45"/>
</g>
<!-- Node5 -->
<g id="node5" class="node">
<title>Node5</title>
<g id="a_node5"><a xlink:href="comm__mpi_8f.html#a59fcf8a02fe54ab37f61050e3ca6b197" target="_top" xlink:title=" ">
<polygon fill="white" stroke="red" points="305,-114.5 305,-133.5 343,-133.5 343,-114.5 305,-114.5"/>
<text text-anchor="middle" x="324" y="-121.5" font-family="Helvetica,sans-Serif" font-size="10.00">exitti</text>
</a>
</g>
</g>
<!-- Node4&#45;&gt;Node5 -->
<g id="edge4" class="edge">
<title>Node4&#45;&gt;Node5</title>
<path fill="none" stroke="midnightblue" d="M253.21,-124C265.91,-124 281.55,-124 294.8,-124"/>
<polygon fill="midnightblue" stroke="midnightblue" points="294.81,-127.5 304.81,-124 294.81,-120.5 294.81,-127.5"/>
</g>
<!-- Node6 -->
<g id="node6" class="node">
<title>Node6</title>
<g id="a_node6"><a xlink:href="math_8f.html#a692155d1d2ec380a9fdb2d81ef221625" target="_top" xlink:title=" ">
<polygon fill="white" stroke="black" points="383,-133.5 383,-152.5 423,-152.5 423,-133.5 383,-133.5"/>
<text text-anchor="middle" x="403" y="-140.5" font-family="Helvetica,sans-Serif" font-size="10.00">blank</text>
</a>
</g>
</g>
<!-- Node5&#45;&gt;Node6 -->
<g id="edge5" class="edge">
<title>Node5&#45;&gt;Node6</title>
<path fill="none" stroke="midnightblue" d="M343.25,-128.5C352.09,-130.69 362.93,-133.36 372.88,-135.82"/>
<polygon fill="midnightblue" stroke="midnightblue" points="372.26,-139.27 382.81,-138.26 373.94,-132.47 372.26,-139.27"/>
</g>
<!-- Node7 -->
<g id="node7" class="node">
<title>Node7</title>
<g id="a_node7"><a xlink:href="math_8f.html#ad7fb480cea001849621405f37167aab1" target="_top" xlink:title=" ">
<polygon fill="white" stroke="black" points="379,-95.5 379,-114.5 427,-114.5 427,-95.5 379,-95.5"/>
<text text-anchor="middle" x="403" y="-102.5" font-family="Helvetica,sans-Serif" font-size="10.00">chcopy</text>
</a>
</g>
</g>
<!-- Node5&#45;&gt;Node7 -->
<g id="edge6" class="edge">
<title>Node5&#45;&gt;Node7</title>
<path fill="none" stroke="midnightblue" d="M343.25,-119.5C351,-117.58 360.29,-115.29 369.17,-113.1"/>
<polygon fill="midnightblue" stroke="midnightblue" points="370.04,-116.49 378.91,-110.7 368.36,-109.7 370.04,-116.49"/>
</g>
<!-- Node14 -->
<g id="node10" class="node">
<title>Node14</title>
<g id="a_node10"><a xlink:href="speclib_8f.html#ae296dfc5588151cd6cc7e2045e2c0330" target="_top" xlink:title=" ">
<polygon fill="white" stroke="red" points="305.5,-0.5 305.5,-19.5 342.5,-19.5 342.5,-0.5 305.5,-0.5"/>
<text text-anchor="middle" x="324" y="-7.5" font-family="Helvetica,sans-Serif" font-size="10.00">zwgj</text>
</a>
</g>
</g>
<!-- Node13&#45;&gt;Node14 -->
<g id="edge9" class="edge">
<title>Node13&#45;&gt;Node14</title>
<path fill="none" stroke="midnightblue" d="M246.68,-10C260.34,-10 279.49,-10 295.19,-10"/>
<polygon fill="midnightblue" stroke="midnightblue" points="295.4,-13.5 305.4,-10 295.4,-6.5 295.4,-13.5"/>
</g>
</g>
</svg>
