<?xml version="1.0" encoding="UTF-8" standalone="no"?>
<!DOCTYPE svg PUBLIC "-//W3C//DTD SVG 1.1//EN"
 "http://www.w3.org/Graphics/SVG/1.1/DTD/svg11.dtd">
<!-- Generated by graphviz version 2.46.0 (0)
 -->
<!-- Title: int_vel Pages: 1 -->
<svg width="361pt" height="104pt"
 viewBox="0.00 0.00 361.00 104.00" xmlns="http://www.w3.org/2000/svg" xmlns:xlink="http://www.w3.org/1999/xlink">
<g id="graph0" class="graph" transform="scale(1 1) rotate(0) translate(4 100)">
<title>int_vel</title>
<polygon fill="white" stroke="transparent" points="-4,4 -4,-100 357,-100 357,4 -4,4"/>
<!-- Node1 -->
<g id="node1" class="node">
<title>Node1</title>
<g id="a_node1"><a xlink:title=" ">
<polygon fill="#bfbfbf" stroke="black" points="0,-38.5 0,-57.5 45,-57.5 45,-38.5 0,-38.5"/>
<text text-anchor="middle" x="22.5" y="-45.5" font-family="Helvetica,sans-Serif" font-size="10.00">int_vel</text>
</a>
</g>
</g>
<!-- Node2 -->
<g id="node2" class="node">
<title>Node2</title>
<g id="a_node2"><a xlink:href="byte_8c.html#a2da8eeb074dfd3ffbfb3e9a4d301cda4" target="_top" xlink:title=" ">
<polygon fill="white" stroke="black" points="104.5,-76.5 104.5,-95.5 139.5,-95.5 139.5,-76.5 104.5,-76.5"/>
<text text-anchor="middle" x="122" y="-83.5" font-family="Helvetica,sans-Serif" font-size="10.00">exitt</text>
</a>
</g>
</g>
<!-- Node1&#45;&gt;Node2 -->
<g id="edge1" class="edge">
<title>Node1&#45;&gt;Node2</title>
<path fill="none" stroke="midnightblue" d="M45.14,-56.43C59.77,-62.14 79.19,-69.7 94.71,-75.75"/>
<polygon fill="midnightblue" stroke="midnightblue" points="93.68,-79.11 104.26,-79.48 96.22,-72.58 93.68,-79.11"/>
</g>
<!-- Node5 -->
<g id="node5" class="node">
<title>Node5</title>
<g id="a_node5"><a xlink:href="fast3d_8f.html#ad007f6eca12b1b9307f46e56bcc40a59" target="_top" xlink:title=" ">
<polygon fill="white" stroke="black" points="81,-38.5 81,-57.5 163,-57.5 163,-38.5 81,-38.5"/>
<text text-anchor="middle" x="122" y="-45.5" font-family="Helvetica,sans-Serif" font-size="10.00">fd_weights_full</text>
</a>
</g>
</g>
<!-- Node1&#45;&gt;Node5 -->
<g id="edge4" class="edge">
<title>Node1&#45;&gt;Node5</title>
<path fill="none" stroke="midnightblue" d="M45.14,-48C52.8,-48 61.78,-48 70.81,-48"/>
<polygon fill="midnightblue" stroke="midnightblue" points="70.98,-51.5 80.98,-48 70.98,-44.5 70.98,-51.5"/>
</g>
<!-- Node6 -->
<g id="node6" class="node">
<title>Node6</title>
<g id="a_node6"><a xlink:href="math_8f.html#af44de42b023a4a68cd98ea341204342d" target="_top" xlink:title=" ">
<polygon fill="white" stroke="black" points="103,-0.5 103,-19.5 141,-19.5 141,-0.5 103,-0.5"/>
<text text-anchor="middle" x="122" y="-7.5" font-family="Helvetica,sans-Serif" font-size="10.00">rzero</text>
</a>
</g>
</g>
<!-- Node1&#45;&gt;Node6 -->
<g id="edge5" class="edge">
<title>Node1&#45;&gt;Node6</title>
<path fill="none" stroke="midnightblue" d="M45.14,-39.57C59.31,-34.04 77.97,-26.77 93.24,-20.82"/>
<polygon fill="midnightblue" stroke="midnightblue" points="94.65,-24.03 102.7,-17.13 92.11,-17.5 94.65,-24.03"/>
</g>
<!-- Node3 -->
<g id="node3" class="node">
<title>Node3</title>
<g id="a_node3"><a xlink:href="comm__mpi_8f.html#acc8803a3787828530843112e0c48941b" target="_top" xlink:title=" ">
<polygon fill="white" stroke="black" points="199,-76.5 199,-95.5 249,-95.5 249,-76.5 199,-76.5"/>
<text text-anchor="middle" x="224" y="-83.5" font-family="Helvetica,sans-Serif" font-size="10.00">nek_die</text>
</a>
</g>
</g>
<!-- Node2&#45;&gt;Node3 -->
<g id="edge2" class="edge">
<title>Node2&#45;&gt;Node3</title>
<path fill="none" stroke="midnightblue" d="M139.51,-86C152.8,-86 171.93,-86 188.52,-86"/>
<polygon fill="midnightblue" stroke="midnightblue" points="188.98,-89.5 198.98,-86 188.98,-82.5 188.98,-89.5"/>
</g>
<!-- Node4 -->
<g id="node4" class="node">
<title>Node4</title>
<g id="a_node4"><a xlink:href="mpi__dummy_8f.html#a55e9a1619aadb638b14211ce21d7d566" target="_top" xlink:title=" ">
<polygon fill="white" stroke="black" points="285,-76.5 285,-95.5 353,-95.5 353,-76.5 285,-76.5"/>
<text text-anchor="middle" x="319" y="-83.5" font-family="Helvetica,sans-Serif" font-size="10.00">mpi_finalize</text>
</a>
</g>
</g>
<!-- Node3&#45;&gt;Node4 -->
<g id="edge3" class="edge">
<title>Node3&#45;&gt;Node4</title>
<path fill="none" stroke="midnightblue" d="M249.43,-86C257.25,-86 266.14,-86 274.88,-86"/>
<polygon fill="midnightblue" stroke="midnightblue" points="274.99,-89.5 284.99,-86 274.99,-82.5 274.99,-89.5"/>
</g>
</g>
</svg>
