<?xml version="1.0" encoding="UTF-8" standalone="no"?>
<!DOCTYPE svg PUBLIC "-//W3C//DTD SVG 1.1//EN"
 "http://www.w3.org/Graphics/SVG/1.1/DTD/svg11.dtd">
<!-- Generated by graphviz version 2.46.0 (0)
 -->
<!-- Title: get_int_ptr Pages: 1 -->
<svg width="349pt" height="180pt"
 viewBox="0.00 0.00 349.00 180.00" xmlns="http://www.w3.org/2000/svg" xmlns:xlink="http://www.w3.org/1999/xlink">
<g id="graph0" class="graph" transform="scale(1 1) rotate(0) translate(4 176)">
<title>get_int_ptr</title>
<polygon fill="white" stroke="transparent" points="-4,4 -4,-176 345,-176 345,4 -4,4"/>
<!-- Node1 -->
<g id="node1" class="node">
<title>Node1</title>
<g id="a_node1"><a xlink:title=" ">
<polygon fill="#bfbfbf" stroke="black" points="0,-38.5 0,-57.5 62,-57.5 62,-38.5 0,-38.5"/>
<text text-anchor="middle" x="31" y="-45.5" font-family="Helvetica,sans-Serif" font-size="10.00">get_int_ptr</text>
</a>
</g>
</g>
<!-- Node2 -->
<g id="node2" class="node">
<title>Node2</title>
<g id="a_node2"><a xlink:href="convect_8f.html#a58f02ae257240ef90f8a1c9e5b092d1c" target="_top" xlink:title=" ">
<polygon fill="white" stroke="black" points="99,-76.5 99,-95.5 147,-95.5 147,-76.5 99,-76.5"/>
<text text-anchor="middle" x="123" y="-83.5" font-family="Helvetica,sans-Serif" font-size="10.00">gen_int</text>
</a>
</g>
</g>
<!-- Node1&#45;&gt;Node2 -->
<g id="edge1" class="edge">
<title>Node1&#45;&gt;Node2</title>
<path fill="none" stroke="midnightblue" d="M54.71,-57.59C65.37,-62.09 78.26,-67.53 89.9,-72.44"/>
<polygon fill="midnightblue" stroke="midnightblue" points="88.72,-75.75 99.3,-76.41 91.45,-69.3 88.72,-75.75"/>
</g>
<!-- Node21 -->
<g id="node9" class="node">
<title>Node21</title>
<g id="a_node9"><a xlink:href="convect_8f.html#aef5d48d354e9e03de35748eecb7e42f9" target="_top" xlink:title=" ">
<polygon fill="white" stroke="black" points="98,-19.5 98,-38.5 148,-38.5 148,-19.5 98,-19.5"/>
<text text-anchor="middle" x="123" y="-26.5" font-family="Helvetica,sans-Serif" font-size="10.00">lim_chk</text>
</a>
</g>
</g>
<!-- Node1&#45;&gt;Node21 -->
<g id="edge8" class="edge">
<title>Node1&#45;&gt;Node21</title>
<path fill="none" stroke="midnightblue" d="M62.47,-41.57C70.66,-39.84 79.58,-37.96 87.95,-36.19"/>
<polygon fill="midnightblue" stroke="midnightblue" points="88.75,-39.6 97.82,-34.11 87.31,-32.75 88.75,-39.6"/>
</g>
<!-- Node3 -->
<g id="node3" class="node">
<title>Node3</title>
<g id="a_node3"><a xlink:href="fast3d_8f.html#ad007f6eca12b1b9307f46e56bcc40a59" target="_top" xlink:title=" ">
<polygon fill="white" stroke="black" points="184,-152.5 184,-171.5 266,-171.5 266,-152.5 184,-152.5"/>
<text text-anchor="middle" x="225" y="-159.5" font-family="Helvetica,sans-Serif" font-size="10.00">fd_weights_full</text>
</a>
</g>
</g>
<!-- Node2&#45;&gt;Node3 -->
<g id="edge2" class="edge">
<title>Node2&#45;&gt;Node3</title>
<path fill="none" stroke="midnightblue" d="M132.56,-95.87C143.54,-108.09 163.63,-129.01 184,-143 186.38,-144.63 188.92,-146.19 191.52,-147.67"/>
<polygon fill="midnightblue" stroke="midnightblue" points="189.98,-150.82 200.47,-152.34 193.22,-144.61 189.98,-150.82"/>
</g>
<!-- Node4 -->
<g id="node4" class="node">
<title>Node4</title>
<g id="a_node4"><a xlink:href="math_8f.html#a17c0ecae12cc5c6096939885da90ad2b" target="_top" xlink:title=" ">
<polygon fill="white" stroke="black" points="195.5,-114.5 195.5,-133.5 254.5,-133.5 254.5,-114.5 195.5,-114.5"/>
<text text-anchor="middle" x="225" y="-121.5" font-family="Helvetica,sans-Serif" font-size="10.00">transpose</text>
</a>
</g>
</g>
<!-- Node2&#45;&gt;Node4 -->
<g id="edge3" class="edge">
<title>Node2&#45;&gt;Node4</title>
<path fill="none" stroke="midnightblue" d="M147.19,-94.81C159.64,-99.54 175.22,-105.46 189.1,-110.74"/>
<polygon fill="midnightblue" stroke="midnightblue" points="188.24,-114.16 198.83,-114.44 190.73,-107.61 188.24,-114.16"/>
</g>
<!-- Node5 -->
<g id="node5" class="node">
<title>Node5</title>
<g id="a_node5"><a xlink:href="speclib_8f.html#a1aea25f2ddfcdcb1f50e66bbd4282fe2" target="_top" xlink:title=" ">
<polygon fill="white" stroke="black" points="206.5,-76.5 206.5,-95.5 243.5,-95.5 243.5,-76.5 206.5,-76.5"/>
<text text-anchor="middle" x="225" y="-83.5" font-family="Helvetica,sans-Serif" font-size="10.00">zwgl</text>
</a>
</g>
</g>
<!-- Node2&#45;&gt;Node5 -->
<g id="edge4" class="edge">
<title>Node2&#45;&gt;Node5</title>
<path fill="none" stroke="midnightblue" d="M147.19,-86C161.82,-86 180.79,-86 196.22,-86"/>
<polygon fill="midnightblue" stroke="midnightblue" points="196.24,-89.5 206.24,-86 196.24,-82.5 196.24,-89.5"/>
</g>
<!-- Node16 -->
<g id="node7" class="node">
<title>Node16</title>
<g id="a_node7"><a xlink:href="speclib_8f.html#a3788ff93193b0428aad51e76c6ed2e18" target="_top" xlink:title=" ">
<polygon fill="white" stroke="black" points="205.5,-38.5 205.5,-57.5 244.5,-57.5 244.5,-38.5 205.5,-38.5"/>
<text text-anchor="middle" x="225" y="-45.5" font-family="Helvetica,sans-Serif" font-size="10.00">zwgll</text>
</a>
</g>
</g>
<!-- Node2&#45;&gt;Node16 -->
<g id="edge6" class="edge">
<title>Node2&#45;&gt;Node16</title>
<path fill="none" stroke="midnightblue" d="M147.19,-77.19C161.68,-71.68 180.42,-64.56 195.76,-58.73"/>
<polygon fill="midnightblue" stroke="midnightblue" points="197.17,-61.94 205.28,-55.11 194.69,-55.39 197.17,-61.94"/>
</g>
<!-- Node6 -->
<g id="node6" class="node">
<title>Node6</title>
<g id="a_node6"><a xlink:href="speclib_8f.html#ae296dfc5588151cd6cc7e2045e2c0330" target="_top" xlink:title=" ">
<polygon fill="white" stroke="red" points="303,-76.5 303,-95.5 340,-95.5 340,-76.5 303,-76.5"/>
<text text-anchor="middle" x="321.5" y="-83.5" font-family="Helvetica,sans-Serif" font-size="10.00">zwgj</text>
</a>
</g>
</g>
<!-- Node5&#45;&gt;Node6 -->
<g id="edge5" class="edge">
<title>Node5&#45;&gt;Node6</title>
<path fill="none" stroke="midnightblue" d="M243.77,-86C257.5,-86 276.76,-86 292.54,-86"/>
<polygon fill="midnightblue" stroke="midnightblue" points="292.81,-89.5 302.8,-86 292.8,-82.5 292.81,-89.5"/>
</g>
<!-- Node17 -->
<g id="node8" class="node">
<title>Node17</title>
<g id="a_node8"><a xlink:href="speclib_8f.html#a0a1a17375323b7ab32d6ebe1c52ab1c3" target="_top" xlink:title=" ">
<polygon fill="white" stroke="red" points="302,-38.5 302,-57.5 341,-57.5 341,-38.5 302,-38.5"/>
<text text-anchor="middle" x="321.5" y="-45.5" font-family="Helvetica,sans-Serif" font-size="10.00">zwglj</text>
</a>
</g>
</g>
<!-- Node16&#45;&gt;Node17 -->
<g id="edge7" class="edge">
<title>Node16&#45;&gt;Node17</title>
<path fill="none" stroke="midnightblue" d="M244.67,-48C258.13,-48 276.55,-48 291.86,-48"/>
<polygon fill="midnightblue" stroke="midnightblue" points="291.87,-51.5 301.87,-48 291.87,-44.5 291.87,-51.5"/>
</g>
<!-- Node22 -->
<g id="node10" class="node">
<title>Node22</title>
<g id="a_node10"><a xlink:href="comm__mpi_8f.html#a59fcf8a02fe54ab37f61050e3ca6b197" target="_top" xlink:title=" ">
<polygon fill="white" stroke="red" points="206,-0.5 206,-19.5 244,-19.5 244,-0.5 206,-0.5"/>
<text text-anchor="middle" x="225" y="-7.5" font-family="Helvetica,sans-Serif" font-size="10.00">exitti</text>
</a>
</g>
</g>
<!-- Node21&#45;&gt;Node22 -->
<g id="edge9" class="edge">
<title>Node21&#45;&gt;Node22</title>
<path fill="none" stroke="midnightblue" d="M148.21,-24.4C162.53,-21.68 180.75,-18.22 195.73,-15.37"/>
<polygon fill="midnightblue" stroke="midnightblue" points="196.8,-18.73 205.97,-13.43 195.49,-11.85 196.8,-18.73"/>
</g>
</g>
</svg>
