<?xml version="1.0" encoding="UTF-8" standalone="no"?>
<!DOCTYPE svg PUBLIC "-//W3C//DTD SVG 1.1//EN"
 "http://www.w3.org/Graphics/SVG/1.1/DTD/svg11.dtd">
<!-- Generated by graphviz version 2.46.0 (0)
 -->
<!-- Title: convch Pages: 1 -->
<svg width="629pt" height="208pt"
 viewBox="0.00 0.00 629.00 208.00" xmlns="http://www.w3.org/2000/svg" xmlns:xlink="http://www.w3.org/1999/xlink">
<g id="graph0" class="graph" transform="scale(1 1) rotate(0) translate(4 204)">
<title>convch</title>
<polygon fill="white" stroke="transparent" points="-4,4 -4,-204 625,-204 625,4 -4,4"/>
<!-- Node1 -->
<g id="node1" class="node">
<title>Node1</title>
<g id="a_node1"><a xlink:title=" ">
<polygon fill="#bfbfbf" stroke="black" points="0,-28.5 0,-47.5 48,-47.5 48,-28.5 0,-28.5"/>
<text text-anchor="middle" x="24" y="-35.5" font-family="Helvetica,sans-Serif" font-size="10.00">convch</text>
</a>
</g>
</g>
<!-- Node2 -->
<g id="node2" class="node">
<title>Node2</title>
<g id="a_node2"><a xlink:href="convect_8f.html#ae4ae44dd6c99361a823026cc794c68a0" target="_top" xlink:title=" ">
<polygon fill="white" stroke="black" points="84,-66.5 84,-85.5 146,-85.5 146,-66.5 84,-66.5"/>
<text text-anchor="middle" x="115" y="-73.5" font-family="Helvetica,sans-Serif" font-size="10.00">char_conv</text>
</a>
</g>
</g>
<!-- Node1&#45;&gt;Node2 -->
<g id="edge1" class="edge">
<title>Node1&#45;&gt;Node2</title>
<path fill="none" stroke="midnightblue" d="M47.46,-47.59C58,-52.09 70.75,-57.53 82.25,-62.44"/>
<polygon fill="midnightblue" stroke="midnightblue" points="80.98,-65.71 91.55,-66.41 83.73,-59.27 80.98,-65.71"/>
</g>
<!-- Node6 -->
<g id="node6" class="node">
<title>Node6</title>
<g id="a_node6"><a xlink:href="comm__mpi_8f.html#af06ec29f06aac3f8809e19de2a7e8946" target="_top" xlink:title=" ">
<polygon fill="white" stroke="black" points="460,-28.5 460,-47.5 521,-47.5 521,-28.5 460,-28.5"/>
<text text-anchor="middle" x="490.5" y="-35.5" font-family="Helvetica,sans-Serif" font-size="10.00">dnekclock</text>
</a>
</g>
</g>
<!-- Node1&#45;&gt;Node6 -->
<g id="edge12" class="edge">
<title>Node1&#45;&gt;Node6</title>
<path fill="none" stroke="midnightblue" d="M48.04,-30.31C83.42,-19.21 153.43,0 214.5,0 214.5,0 214.5,0 314,0 362.8,0 417.55,-14.21 452.72,-25.25"/>
<polygon fill="midnightblue" stroke="midnightblue" points="451.94,-28.68 462.53,-28.41 454.09,-22.02 451.94,-28.68"/>
</g>
<!-- Node3 -->
<g id="node3" class="node">
<title>Node3</title>
<g id="a_node3"><a xlink:href="convect_8f.html#a462db3d75569eb808bc6e5d8cda2c542" target="_top" xlink:title=" ">
<polygon fill="white" stroke="red" points="182,-85.5 182,-104.5 249,-104.5 249,-85.5 182,-85.5"/>
<text text-anchor="middle" x="215.5" y="-92.5" font-family="Helvetica,sans-Serif" font-size="10.00">char_conv1</text>
</a>
</g>
</g>
<!-- Node2&#45;&gt;Node3 -->
<g id="edge2" class="edge">
<title>Node2&#45;&gt;Node3</title>
<path fill="none" stroke="midnightblue" d="M146.09,-81.8C154.22,-83.37 163.18,-85.1 171.86,-86.77"/>
<polygon fill="midnightblue" stroke="midnightblue" points="171.37,-90.25 181.85,-88.7 172.7,-83.37 171.37,-90.25"/>
</g>
<!-- Node4 -->
<g id="node4" class="node">
<title>Node4</title>
<g id="a_node4"><a xlink:href="math_8f.html#a18b187e72cf5dd7aa5ff77f8bf2b32f8" target="_top" xlink:title=" ">
<polygon fill="white" stroke="black" points="286.5,-180.5 286.5,-199.5 339.5,-199.5 339.5,-180.5 286.5,-180.5"/>
<text text-anchor="middle" x="313" y="-187.5" font-family="Helvetica,sans-Serif" font-size="10.00">add3s12</text>
</a>
</g>
</g>
<!-- Node3&#45;&gt;Node4 -->
<g id="edge3" class="edge">
<title>Node3&#45;&gt;Node4</title>
<path fill="none" stroke="midnightblue" d="M225.58,-104.88C238.48,-118.81 263.01,-144.89 285,-166 287.61,-168.51 290.42,-171.11 293.2,-173.63"/>
<polygon fill="midnightblue" stroke="midnightblue" points="290.99,-176.35 300.79,-180.38 295.65,-171.12 290.99,-176.35"/>
</g>
<!-- Node5 -->
<g id="node5" class="node">
<title>Node5</title>
<g id="a_node5"><a xlink:href="math_8f.html#a3470db04166d9ba91454a14cc17dbec2" target="_top" xlink:title=" ">
<polygon fill="white" stroke="black" points="383,-104.5 383,-123.5 418,-123.5 418,-104.5 383,-104.5"/>
<text text-anchor="middle" x="400.5" y="-111.5" font-family="Helvetica,sans-Serif" font-size="10.00">col2</text>
</a>
</g>
</g>
<!-- Node3&#45;&gt;Node5 -->
<g id="edge4" class="edge">
<title>Node3&#45;&gt;Node5</title>
<path fill="none" stroke="midnightblue" d="M229.29,-104.72C242.44,-114.07 263.93,-127.55 285,-133 314.74,-140.7 349.66,-132.49 373.05,-124.59"/>
<polygon fill="midnightblue" stroke="midnightblue" points="374.39,-127.83 382.62,-121.16 372.02,-121.24 374.39,-127.83"/>
</g>
<!-- Node8 -->
<g id="node8" class="node">
<title>Node8</title>
<g id="a_node8"><a xlink:href="convect_8f.html#a036e0748e08b74d166f83b1a6dab88a4" target="_top" xlink:title=" ">
<polygon fill="white" stroke="red" points="285,-104.5 285,-123.5 341,-123.5 341,-104.5 285,-104.5"/>
<text text-anchor="middle" x="313" y="-111.5" font-family="Helvetica,sans-Serif" font-size="10.00">conv_rhs</text>
</a>
</g>
</g>
<!-- Node3&#45;&gt;Node8 -->
<g id="edge7" class="edge">
<title>Node3&#45;&gt;Node8</title>
<path fill="none" stroke="midnightblue" d="M249.1,-101.49C257.4,-103.14 266.37,-104.92 274.88,-106.61"/>
<polygon fill="midnightblue" stroke="midnightblue" points="274.45,-110.1 284.94,-108.62 275.82,-103.23 274.45,-110.1"/>
</g>
<!-- Node86 -->
<g id="node9" class="node">
<title>Node86</title>
<g id="a_node9"><a xlink:href="convect_8f.html#a6f4ecff7b056abede61e5a0ac5b2049c" target="_top" xlink:title=" ">
<polygon fill="white" stroke="red" points="290.5,-66.5 290.5,-85.5 335.5,-85.5 335.5,-66.5 290.5,-66.5"/>
<text text-anchor="middle" x="313" y="-73.5" font-family="Helvetica,sans-Serif" font-size="10.00">int_vel</text>
</a>
</g>
</g>
<!-- Node3&#45;&gt;Node86 -->
<g id="edge9" class="edge">
<title>Node3&#45;&gt;Node86</title>
<path fill="none" stroke="midnightblue" d="M249.1,-88.51C259.2,-86.5 270.32,-84.29 280.36,-82.29"/>
<polygon fill="midnightblue" stroke="midnightblue" points="281.22,-85.69 290.35,-80.31 279.86,-78.83 281.22,-85.69"/>
</g>
<!-- Node87 -->
<g id="node10" class="node">
<title>Node87</title>
<g id="a_node10"><a xlink:href="math_8f.html#a12a3f9854732798780dfe93ecd4e38bf" target="_top" xlink:title=" ">
<polygon fill="white" stroke="black" points="377,-28.5 377,-47.5 424,-47.5 424,-28.5 377,-28.5"/>
<text text-anchor="middle" x="400.5" y="-35.5" font-family="Helvetica,sans-Serif" font-size="10.00">invcol2</text>
</a>
</g>
</g>
<!-- Node3&#45;&gt;Node87 -->
<g id="edge10" class="edge">
<title>Node3&#45;&gt;Node87</title>
<path fill="none" stroke="midnightblue" d="M230.52,-85.33C243.91,-76.57 264.97,-63.98 285,-57 311.73,-47.68 343.6,-42.87 366.93,-40.42"/>
<polygon fill="midnightblue" stroke="midnightblue" points="367.37,-43.9 376.99,-39.46 366.7,-36.93 367.37,-43.9"/>
</g>
<!-- Node5&#45;&gt;Node6 -->
<g id="edge5" class="edge">
<title>Node5&#45;&gt;Node6</title>
<path fill="none" stroke="midnightblue" d="M412.65,-104.37C427.19,-91.81 452.87,-69.63 470.51,-54.4"/>
<polygon fill="midnightblue" stroke="midnightblue" points="473.16,-56.73 478.45,-47.55 468.59,-51.43 473.16,-56.73"/>
</g>
<!-- Node7 -->
<g id="node7" class="node">
<title>Node7</title>
<g id="a_node7"><a xlink:href="mpi__dummy_8f.html#ae6a5ef945f87c2c27849696b70f3af2a" target="_top" xlink:title=" ">
<polygon fill="white" stroke="black" points="557,-28.5 557,-47.5 621,-47.5 621,-28.5 557,-28.5"/>
<text text-anchor="middle" x="589" y="-35.5" font-family="Helvetica,sans-Serif" font-size="10.00">mpi_wtime</text>
</a>
</g>
</g>
<!-- Node6&#45;&gt;Node7 -->
<g id="edge6" class="edge">
<title>Node6&#45;&gt;Node7</title>
<path fill="none" stroke="midnightblue" d="M521.24,-38C529.27,-38 538.11,-38 546.65,-38"/>
<polygon fill="midnightblue" stroke="midnightblue" points="546.85,-41.5 556.85,-38 546.85,-34.5 546.85,-41.5"/>
</g>
<!-- Node8&#45;&gt;Node5 -->
<g id="edge8" class="edge">
<title>Node8&#45;&gt;Node5</title>
<path fill="none" stroke="midnightblue" d="M341.05,-114C351.11,-114 362.52,-114 372.57,-114"/>
<polygon fill="midnightblue" stroke="midnightblue" points="372.81,-117.5 382.81,-114 372.81,-110.5 372.81,-117.5"/>
</g>
<!-- Node87&#45;&gt;Node6 -->
<g id="edge11" class="edge">
<title>Node87&#45;&gt;Node6</title>
<path fill="none" stroke="midnightblue" d="M424.16,-38C432,-38 441.02,-38 449.81,-38"/>
<polygon fill="midnightblue" stroke="midnightblue" points="449.94,-41.5 459.94,-38 449.94,-34.5 449.94,-41.5"/>
</g>
</g>
</svg>
