<?xml version="1.0" encoding="UTF-8" standalone="no"?>
<!DOCTYPE svg PUBLIC "-//W3C//DTD SVG 1.1//EN"
 "http://www.w3.org/Graphics/SVG/1.1/DTD/svg11.dtd">
<!-- Generated by graphviz version 2.46.0 (0)
 -->
<!-- Title: fbinvert Pages: 1 -->
<!--zoomable 66 -->
<svg id="main" version="1.1" xmlns="http://www.w3.org/2000/svg" xmlns:xlink="http://www.w3.org/1999/xlink" xml:space="preserve" onload="init(evt)">
<style type="text/css"><![CDATA[
.edge:hover path { stroke: red; }
.edge:hover polygon { stroke: red; fill: red; }
]]></style>
<script type="text/javascript"><![CDATA[
var edges = document.getElementsByTagName('g');
if (edges && edges.length) {
  for (var i=0;i<edges.length;i++) {
    if (edges[i].id.substr(0,4)=='edge') {
      edges[i].setAttribute('class','edge');
    }
  }
}
]]></script>
        <defs>
                <circle id="rim" cx="0" cy="0" r="7"/>
                <circle id="rim2" cx="0" cy="0" r="3.5"/>
                <g id="zoomPlus">
                        <use xlink:href="#rim" fill="#404040">
                                <set attributeName="fill" to="#808080" begin="zoomplus.mouseover" end="zoomplus.mouseout"/>
                        </use>
                        <path d="M-4,0h8M0,-4v8" fill="none" stroke="white" stroke-width="1.5" pointer-events="none"/>
                </g>
                <g id="zoomMin">
                        <use xlink:href="#rim" fill="#404040">
                                <set attributeName="fill" to="#808080" begin="zoomminus.mouseover" end="zoomminus.mouseout"/>
                        </use>
                        <path d="M-4,0h8" fill="none" stroke="white" stroke-width="1.5" pointer-events="none"/>
                </g>
                <g id="dirArrow">
                        <path fill="none" stroke="white" stroke-width="1.5" d="M0,-3.0v7 M-2.5,-0.5L0,-3.0L2.5,-0.5"/>
                </g>
               <g id="resetDef">
                       <use xlink:href="#rim2" fill="#404040">
                               <set attributeName="fill" to="#808080" begin="reset.mouseover" end="reset.mouseout"/>
                       </use>
               </g>
        </defs>

<script type="text/javascript">
var viewWidth = 663;
var viewHeight = 66;
var sectionId = 'dynsection-38';
</script>
<script xlink:href="svgpan.js"/>
<svg id="graph" class="graph">
<g id="viewport">
<title>fbinvert</title>
<polygon fill="white" stroke="transparent" points="-4,4 -4,-62 659,-62 659,4 -4,4"/>
<!-- Node1 -->
<g id="node1" class="node">
<title>Node1</title>
<g id="a_node1"><a xlink:title=" ">
<polygon fill="#bfbfbf" stroke="black" points="606,-19.5 606,-38.5 655,-38.5 655,-19.5 606,-19.5"/>
<text text-anchor="middle" x="630.5" y="-26.5" font-family="Helvetica,sans-Serif" font-size="10.00">fbinvert</text>
</a>
</g>
</g>
<!-- Node2 -->
<g id="node2" class="node">
<title>Node2</title>
<g id="a_node2"><a xlink:href="convect_8f.html#a54a097b9694cc1cd26ab1bc8eba625e4" target="_top" xlink:title=" ">
<polygon fill="white" stroke="black" points="480,-38.5 480,-57.5 552,-57.5 552,-38.5 480,-38.5"/>
<text text-anchor="middle" x="516" y="-45.5" font-family="Helvetica,sans-Serif" font-size="10.00">conv_rhs_dg</text>
</a>
</g>
</g>
<!-- Node1&#45;&gt;Node2 -->
<g id="edge1" class="edge">
<title>Node1&#45;&gt;Node2</title>
<path fill="none" stroke="midnightblue" d="M595.85,-34.68C582.04,-37.02 566.05,-39.72 552.09,-42.07"/>
<polygon fill="midnightblue" stroke="midnightblue" points="596.64,-38.1 605.92,-32.98 595.47,-31.2 596.64,-38.1"/>
</g>
<!-- Node31 -->
<g id="node10" class="node">
<title>Node31</title>
<g id="a_node10"><a xlink:href="convect_8f.html#ace970aac277cdecdce1ee7e820473310" target="_top" xlink:title=" ">
<polygon fill="white" stroke="black" points="462,-0.5 462,-19.5 570,-19.5 570,-0.5 462,-0.5"/>
<text text-anchor="middle" x="516" y="-7.5" font-family="Helvetica,sans-Serif" font-size="10.00">conv_rhs_dg_aliased</text>
</a>
</g>
</g>
<!-- Node1&#45;&gt;Node31 -->
<g id="edge9" class="edge">
<title>Node1&#45;&gt;Node31</title>
<path fill="none" stroke="midnightblue" d="M595.81,-23.31C587.74,-21.95 578.93,-20.46 570.21,-18.99"/>
<polygon fill="midnightblue" stroke="midnightblue" points="595.47,-26.8 605.92,-25.02 596.64,-19.9 595.47,-26.8"/>
</g>
<!-- Node3 -->
<g id="node3" class="node">
<title>Node3</title>
<g id="a_node3"><a xlink:href="convect_8f.html#a036e0748e08b74d166f83b1a6dab88a4" target="_top" xlink:title=" ">
<polygon fill="white" stroke="black" points="370,-19.5 370,-38.5 426,-38.5 426,-19.5 370,-19.5"/>
<text text-anchor="middle" x="398" y="-26.5" font-family="Helvetica,sans-Serif" font-size="10.00">conv_rhs</text>
</a>
</g>
</g>
<!-- Node2&#45;&gt;Node3 -->
<g id="edge2" class="edge">
<title>Node2&#45;&gt;Node3</title>
<path fill="none" stroke="midnightblue" d="M469.92,-40.62C455.18,-38.2 439.27,-35.6 426.26,-33.47"/>
<polygon fill="midnightblue" stroke="midnightblue" points="469.45,-44.09 479.88,-42.25 470.58,-37.18 469.45,-44.09"/>
</g>
<!-- Node4 -->
<g id="node4" class="node">
<title>Node4</title>
<g id="a_node4"><a xlink:href="convect_8f.html#a462db3d75569eb808bc6e5d8cda2c542" target="_top" xlink:title=" ">
<polygon fill="white" stroke="black" points="267,-19.5 267,-38.5 334,-38.5 334,-19.5 267,-19.5"/>
<text text-anchor="middle" x="300.5" y="-26.5" font-family="Helvetica,sans-Serif" font-size="10.00">char_conv1</text>
</a>
</g>
</g>
<!-- Node3&#45;&gt;Node4 -->
<g id="edge3" class="edge">
<title>Node3&#45;&gt;Node4</title>
<path fill="none" stroke="midnightblue" d="M359.84,-29C351.35,-29 342.39,-29 334.1,-29"/>
<polygon fill="midnightblue" stroke="midnightblue" points="359.89,-32.5 369.89,-29 359.89,-25.5 359.89,-32.5"/>
</g>
<!-- Node5 -->
<g id="node5" class="node">
<title>Node5</title>
<g id="a_node5"><a xlink:href="convect_8f.html#ae4ae44dd6c99361a823026cc794c68a0" target="_top" xlink:title=" ">
<polygon fill="white" stroke="black" points="169,-19.5 169,-38.5 231,-38.5 231,-19.5 169,-19.5"/>
<text text-anchor="middle" x="200" y="-26.5" font-family="Helvetica,sans-Serif" font-size="10.00">char_conv</text>
</a>
</g>
</g>
<!-- Node4&#45;&gt;Node5 -->
<g id="edge4" class="edge">
<title>Node4&#45;&gt;Node5</title>
<path fill="none" stroke="midnightblue" d="M256.97,-29C248.28,-29 239.31,-29 231.16,-29"/>
<polygon fill="midnightblue" stroke="midnightblue" points="256.97,-32.5 266.97,-29 256.97,-25.5 256.97,-32.5"/>
</g>
<!-- Node6 -->
<g id="node6" class="node">
<title>Node6</title>
<g id="a_node6"><a xlink:href="convect_8f.html#afc0b2ce765c4ad0f0ec6f2a62536bf57" target="_top" xlink:title=" ">
<polygon fill="white" stroke="black" points="82,-38.5 82,-57.5 133,-57.5 133,-38.5 82,-38.5"/>
<text text-anchor="middle" x="107.5" y="-45.5" font-family="Helvetica,sans-Serif" font-size="10.00">advchar</text>
</a>
</g>
</g>
<!-- Node5&#45;&gt;Node6 -->
<g id="edge5" class="edge">
<title>Node5&#45;&gt;Node6</title>
<path fill="none" stroke="midnightblue" d="M159.07,-37.38C150.22,-39.24 141.1,-41.16 133.09,-42.84"/>
<polygon fill="midnightblue" stroke="midnightblue" points="159.8,-40.81 168.86,-35.33 158.36,-33.96 159.8,-40.81"/>
</g>
<!-- Node20 -->
<g id="node8" class="node">
<title>Node20</title>
<g id="a_node8"><a xlink:href="convect_8f.html#a3b2c8621bcdfb80fd4be220ddd337aa1" target="_top" xlink:title=" ">
<polygon fill="white" stroke="black" points="83.5,-0.5 83.5,-19.5 131.5,-19.5 131.5,-0.5 83.5,-0.5"/>
<text text-anchor="middle" x="107.5" y="-7.5" font-family="Helvetica,sans-Serif" font-size="10.00">convch</text>
</a>
</g>
</g>
<!-- Node5&#45;&gt;Node20 -->
<g id="edge7" class="edge">
<title>Node5&#45;&gt;Node20</title>
<path fill="none" stroke="midnightblue" d="M158.92,-20.59C149.59,-18.63 139.95,-16.6 131.63,-14.86"/>
<polygon fill="midnightblue" stroke="midnightblue" points="158.36,-24.04 168.86,-22.67 159.8,-17.19 158.36,-24.04"/>
</g>
<!-- Node7 -->
<g id="node7" class="node">
<title>Node7</title>
<g id="a_node7"><a xlink:href="navier1_8f.html#a83189b3d1938d87f00ace2e7e05d9e4c" target="_top" xlink:title=" ">
<polygon fill="white" stroke="red" points="1,-38.5 1,-57.5 45,-57.5 45,-38.5 1,-38.5"/>
<text text-anchor="middle" x="23" y="-45.5" font-family="Helvetica,sans-Serif" font-size="10.00">makef</text>
</a>
</g>
</g>
<!-- Node6&#45;&gt;Node7 -->
<g id="edge6" class="edge">
<title>Node6&#45;&gt;Node7</title>
<path fill="none" stroke="midnightblue" d="M71.5,-48C62.52,-48 53.14,-48 45.11,-48"/>
<polygon fill="midnightblue" stroke="midnightblue" points="71.75,-51.5 81.75,-48 71.75,-44.5 71.75,-51.5"/>
</g>
<!-- Node21 -->
<g id="node9" class="node">
<title>Node21</title>
<g id="a_node9"><a xlink:href="makeq_8f.html#aad7ee07cd8b6df77d80fd1f50bfb5322" target="_top" xlink:title=" ">
<polygon fill="white" stroke="red" points="0,-0.5 0,-19.5 46,-19.5 46,-0.5 0,-0.5"/>
<text text-anchor="middle" x="23" y="-7.5" font-family="Helvetica,sans-Serif" font-size="10.00">makeq</text>
</a>
</g>
</g>
<!-- Node20&#45;&gt;Node21 -->
<g id="edge8" class="edge">
<title>Node20&#45;&gt;Node21</title>
<path fill="none" stroke="midnightblue" d="M72.83,-10C63.8,-10 54.28,-10 46.06,-10"/>
<polygon fill="midnightblue" stroke="midnightblue" points="73.08,-13.5 83.08,-10 73.08,-6.5 73.08,-13.5"/>
</g>
<!-- Node31&#45;&gt;Node3 -->
<g id="edge10" class="edge">
<title>Node31&#45;&gt;Node3</title>
<path fill="none" stroke="midnightblue" d="M451.67,-20.37C442.76,-21.83 434.02,-23.26 426.3,-24.53"/>
<polygon fill="midnightblue" stroke="midnightblue" points="452.45,-23.79 461.75,-18.72 451.32,-16.88 452.45,-23.79"/>
</g>
</g>
</svg>
        <g id="navigator" transform="translate(0 0)" fill="#404254">
                <rect fill="#f2f5e9" fill-opacity="0.5" stroke="#606060" stroke-width=".5" x="0" y="0" width="60" height="60"/>
                <use id="zoomplus" xlink:href="#zoomPlus" x="17" y="9" onmousedown="handleZoom(evt,'in')"/>
                <use id="zoomminus" xlink:href="#zoomMin" x="42" y="9" onmousedown="handleZoom(evt,'out')"/>
                <use id="reset" xlink:href="#resetDef" x="30" y="36" onmousedown="handleReset()"/>
                <g id="arrowUp" xlink:href="#dirArrow" transform="translate(30 24)" onmousedown="handlePan(0,-1)">
                  <use xlink:href="#rim" fill="#404040">
                        <set attributeName="fill" to="#808080" begin="arrowUp.mouseover" end="arrowUp.mouseout"/>
                  </use>
                  <path fill="none" stroke="white" stroke-width="1.5" d="M0,-3.0v7 M-2.5,-0.5L0,-3.0L2.5,-0.5"/>
                </g>
                <g id="arrowRight" xlink:href="#dirArrow" transform="rotate(90) translate(36 -43)" onmousedown="handlePan(1,0)">
                  <use xlink:href="#rim" fill="#404040">
                        <set attributeName="fill" to="#808080" begin="arrowRight.mouseover" end="arrowRight.mouseout"/>
                  </use>
                  <path fill="none" stroke="white" stroke-width="1.5" d="M0,-3.0v7 M-2.5,-0.5L0,-3.0L2.5,-0.5"/>
                </g>
                <g id="arrowDown" xlink:href="#dirArrow" transform="rotate(180) translate(-30 -48)" onmousedown="handlePan(0,1)">
                  <use xlink:href="#rim" fill="#404040">
                        <set attributeName="fill" to="#808080" begin="arrowDown.mouseover" end="arrowDown.mouseout"/>
                  </use>
                  <path fill="none" stroke="white" stroke-width="1.5" d="M0,-3.0v7 M-2.5,-0.5L0,-3.0L2.5,-0.5"/>
                </g>
                <g id="arrowLeft" xlink:href="#dirArrow" transform="rotate(270) translate(-36 17)" onmousedown="handlePan(-1,0)">
                  <use xlink:href="#rim" fill="#404040">
                        <set attributeName="fill" to="#808080" begin="arrowLeft.mouseover" end="arrowLeft.mouseout"/>
                  </use>
                  <path fill="none" stroke="white" stroke-width="1.5" d="M0,-3.0v7 M-2.5,-0.5L0,-3.0L2.5,-0.5"/>
                </g>
        </g>
        <svg viewBox="0 0 15 15" width="100%" height="30px" preserveAspectRatio="xMaxYMin meet">
         <g id="arrow_out" transform="scale(0.3 0.3)">
          <a xlink:href="convect_8f_ab6188f7006db1c14b2392e513422c0ac_icgraph_org.svg" target="_base">
           <rect id="button" ry="5" rx="5" y="6" x="6" height="38" width="38"
                fill="#f2f5e9" fill-opacity="0.5" stroke="#606060" stroke-width="1.0"/>
           <path id="arrow"
             d="M 11.500037,31.436501 C 11.940474,20.09759 22.043105,11.32322 32.158766,21.979434 L 37.068811,17.246167 C 37.068811,17.246167 37.088388,32 37.088388,32 L 22.160133,31.978069 C 22.160133,31.978069 26.997745,27.140456 26.997745,27.140456 C 18.528582,18.264221 13.291696,25.230495 11.500037,31.436501 z"
             style="fill:#404040;"/>
          </a>
         </g>
        </svg>
</svg>
