<?xml version="1.0" encoding="UTF-8" standalone="no"?>
<!DOCTYPE svg PUBLIC "-//W3C//DTD SVG 1.1//EN"
 "http://www.w3.org/Graphics/SVG/1.1/DTD/svg11.dtd">
<!-- Generated by graphviz version 2.46.0 (0)
 -->
<!-- Title: conv_rhs_dg_weak Pages: 1 -->
<!--zoomable 180 -->
<svg id="main" version="1.1" xmlns="http://www.w3.org/2000/svg" xmlns:xlink="http://www.w3.org/1999/xlink" xml:space="preserve" onload="init(evt)">
<style type="text/css"><![CDATA[
.edge:hover path { stroke: red; }
.edge:hover polygon { stroke: red; fill: red; }
]]></style>
<script type="text/javascript"><![CDATA[
var edges = document.getElementsByTagName('g');
if (edges && edges.length) {
  for (var i=0;i<edges.length;i++) {
    if (edges[i].id.substr(0,4)=='edge') {
      edges[i].setAttribute('class','edge');
    }
  }
}
]]></script>
        <defs>
                <circle id="rim" cx="0" cy="0" r="7"/>
                <circle id="rim2" cx="0" cy="0" r="3.5"/>
                <g id="zoomPlus">
                        <use xlink:href="#rim" fill="#404040">
                                <set attributeName="fill" to="#808080" begin="zoomplus.mouseover" end="zoomplus.mouseout"/>
                        </use>
                        <path d="M-4,0h8M0,-4v8" fill="none" stroke="white" stroke-width="1.5" pointer-events="none"/>
                </g>
                <g id="zoomMin">
                        <use xlink:href="#rim" fill="#404040">
                                <set attributeName="fill" to="#808080" begin="zoomminus.mouseover" end="zoomminus.mouseout"/>
                        </use>
                        <path d="M-4,0h8" fill="none" stroke="white" stroke-width="1.5" pointer-events="none"/>
                </g>
                <g id="dirArrow">
                        <path fill="none" stroke="white" stroke-width="1.5" d="M0,-3.0v7 M-2.5,-0.5L0,-3.0L2.5,-0.5"/>
                </g>
               <g id="resetDef">
                       <use xlink:href="#rim2" fill="#404040">
                               <set attributeName="fill" to="#808080" begin="reset.mouseover" end="reset.mouseout"/>
                       </use>
               </g>
        </defs>

<script type="text/javascript">
var viewWidth = 513;
var viewHeight = 180;
var sectionId = 'dynsection-15';
</script>
<script xlink:href="svgpan.js"/>
<svg id="graph" class="graph">
<g id="viewport">
<title>conv_rhs_dg_weak</title>
<polygon fill="white" stroke="transparent" points="-4,4 -4,-176 509,-176 509,4 -4,4"/>
<!-- Node1 -->
<g id="node1" class="node">
<title>Node1</title>
<g id="a_node1"><a xlink:title=" ">
<polygon fill="#bfbfbf" stroke="black" points="0,-76.5 0,-95.5 101,-95.5 101,-76.5 0,-76.5"/>
<text text-anchor="middle" x="50.5" y="-83.5" font-family="Helvetica,sans-Serif" font-size="10.00">conv_rhs_dg_weak</text>
</a>
</g>
</g>
<!-- Node2 -->
<g id="node2" class="node">
<title>Node2</title>
<g id="a_node2"><a xlink:href="convect_8f.html#ae77a896f076c052786cd0dbdbc7b7e95" target="_top" xlink:title=" ">
<polygon fill="white" stroke="black" points="137,-152.5 137,-171.5 214,-171.5 214,-152.5 137,-152.5"/>
<text text-anchor="middle" x="175.5" y="-159.5" font-family="Helvetica,sans-Serif" font-size="10.00">convop_weak</text>
</a>
</g>
</g>
<!-- Node1&#45;&gt;Node2 -->
<g id="edge1" class="edge">
<title>Node1&#45;&gt;Node2</title>
<path fill="none" stroke="midnightblue" d="M64.81,-95.59C81.36,-107.35 110.66,-127.62 137,-143 139.69,-144.57 142.52,-146.14 145.37,-147.67"/>
<polygon fill="midnightblue" stroke="midnightblue" points="143.93,-150.87 154.41,-152.38 147.16,-144.66 143.93,-150.87"/>
</g>
<!-- Node61 -->
<g id="node7" class="node">
<title>Node61</title>
<g id="a_node7"><a xlink:href="math_8f.html#a3b43508554f14bdea8e14473d7d0803c" target="_top" xlink:title=" ">
<polygon fill="white" stroke="black" points="156.5,-114.5 156.5,-133.5 194.5,-133.5 194.5,-114.5 156.5,-114.5"/>
<text text-anchor="middle" x="175.5" y="-121.5" font-family="Helvetica,sans-Serif" font-size="10.00">copy</text>
</a>
</g>
</g>
<!-- Node1&#45;&gt;Node61 -->
<g id="edge8" class="edge">
<title>Node1&#45;&gt;Node61</title>
<path fill="none" stroke="midnightblue" d="M82.54,-95.59C102.32,-101.7 127.74,-109.55 146.84,-115.45"/>
<polygon fill="midnightblue" stroke="midnightblue" points="145.86,-118.82 156.45,-118.42 147.93,-112.13 145.86,-118.82"/>
</g>
<!-- Node62 -->
<g id="node8" class="node">
<title>Node62</title>
<g id="a_node8"><a xlink:href="convect_8f.html#a81ad5024730ce16b71458235d4565f3c" target="_top" xlink:title=" ">
<polygon fill="white" stroke="black" points="149,-76.5 149,-95.5 202,-95.5 202,-76.5 149,-76.5"/>
<text text-anchor="middle" x="175.5" y="-83.5" font-family="Helvetica,sans-Serif" font-size="10.00">full2face</text>
</a>
</g>
</g>
<!-- Node1&#45;&gt;Node62 -->
<g id="edge9" class="edge">
<title>Node1&#45;&gt;Node62</title>
<path fill="none" stroke="midnightblue" d="M101.17,-86C113.73,-86 126.97,-86 138.7,-86"/>
<polygon fill="midnightblue" stroke="midnightblue" points="138.97,-89.5 148.97,-86 138.97,-82.5 138.97,-89.5"/>
</g>
<!-- Node63 -->
<g id="node9" class="node">
<title>Node63</title>
<g id="a_node9"><a xlink:href="convect_8f.html#ae2e3f3b9edb0976a0d8ab264e9902f59" target="_top" xlink:title=" ">
<polygon fill="white" stroke="black" points="253,-57.5 253,-76.5 318,-76.5 318,-57.5 253,-57.5"/>
<text text-anchor="middle" x="285.5" y="-64.5" font-family="Helvetica,sans-Serif" font-size="10.00">map_faced</text>
</a>
</g>
</g>
<!-- Node1&#45;&gt;Node63 -->
<g id="edge10" class="edge">
<title>Node1&#45;&gt;Node63</title>
<path fill="none" stroke="midnightblue" d="M86.15,-76.49C101.59,-72.73 120.07,-68.86 137,-67 172.37,-63.12 212.79,-63.45 242.37,-64.56"/>
<polygon fill="midnightblue" stroke="midnightblue" points="242.6,-68.08 252.74,-65 242.9,-61.08 242.6,-68.08"/>
</g>
<!-- Node64 -->
<g id="node10" class="node">
<title>Node64</title>
<g id="a_node10"><a xlink:href="math_8f.html#af44de42b023a4a68cd98ea341204342d" target="_top" xlink:title=" ">
<polygon fill="white" stroke="black" points="156.5,-0.5 156.5,-19.5 194.5,-19.5 194.5,-0.5 156.5,-0.5"/>
<text text-anchor="middle" x="175.5" y="-7.5" font-family="Helvetica,sans-Serif" font-size="10.00">rzero</text>
</a>
</g>
</g>
<!-- Node1&#45;&gt;Node64 -->
<g id="edge13" class="edge">
<title>Node1&#45;&gt;Node64</title>
<path fill="none" stroke="midnightblue" d="M67.08,-76.37C88.06,-63.41 125.6,-40.21 150.28,-24.96"/>
<polygon fill="midnightblue" stroke="midnightblue" points="152.38,-27.78 159.05,-19.55 148.7,-21.83 152.38,-27.78"/>
</g>
<!-- Node3 -->
<g id="node3" class="node">
<title>Node3</title>
<g id="a_node3"><a xlink:href="convect_8f.html#ae6d180b7227de36418c704fc1f7a3206" target="_top" xlink:title=" ">
<polygon fill="white" stroke="red" points="250,-133.5 250,-152.5 321,-152.5 321,-133.5 250,-133.5"/>
<text text-anchor="middle" x="285.5" y="-140.5" font-family="Helvetica,sans-Serif" font-size="10.00">grad_rstd_ta</text>
</a>
</g>
</g>
<!-- Node2&#45;&gt;Node3 -->
<g id="edge2" class="edge">
<title>Node2&#45;&gt;Node3</title>
<path fill="none" stroke="midnightblue" d="M214.27,-155.35C222.49,-153.91 231.26,-152.37 239.72,-150.88"/>
<polygon fill="midnightblue" stroke="midnightblue" points="240.58,-154.28 249.82,-149.1 239.37,-147.39 240.58,-154.28"/>
</g>
<!-- Node52 -->
<g id="node4" class="node">
<title>Node52</title>
<g id="a_node4"><a xlink:href="convect_8f.html#a9560f353879de6e4a86926a9831842a3" target="_top" xlink:title=" ">
<polygon fill="white" stroke="red" points="258.5,-95.5 258.5,-114.5 312.5,-114.5 312.5,-95.5 258.5,-95.5"/>
<text text-anchor="middle" x="285.5" y="-102.5" font-family="Helvetica,sans-Serif" font-size="10.00">intp_rstd</text>
</a>
</g>
</g>
<!-- Node2&#45;&gt;Node52 -->
<g id="edge3" class="edge">
<title>Node2&#45;&gt;Node52</title>
<path fill="none" stroke="midnightblue" d="M195.63,-152.43C201.53,-149.44 208.05,-146.11 214,-143 228.58,-135.38 244.73,-126.69 257.9,-119.54"/>
<polygon fill="midnightblue" stroke="midnightblue" points="259.78,-122.5 266.89,-114.65 256.44,-116.36 259.78,-122.5"/>
</g>
<!-- Node7 -->
<g id="node6" class="node">
<title>Node7</title>
<g id="a_node6"><a xlink:href="convect_8f.html#aef5d48d354e9e03de35748eecb7e42f9" target="_top" xlink:title=" ">
<polygon fill="white" stroke="red" points="455,-114.5 455,-133.5 505,-133.5 505,-114.5 455,-114.5"/>
<text text-anchor="middle" x="480" y="-121.5" font-family="Helvetica,sans-Serif" font-size="10.00">lim_chk</text>
</a>
</g>
</g>
<!-- Node2&#45;&gt;Node7 -->
<g id="edge7" class="edge">
<title>Node2&#45;&gt;Node7</title>
<path fill="none" stroke="midnightblue" d="M214.06,-164.36C243.31,-165.63 284.87,-166.18 321,-162 365.44,-156.85 375.52,-149.54 419,-139 427.38,-136.97 436.41,-134.73 444.86,-132.63"/>
<polygon fill="midnightblue" stroke="midnightblue" points="445.94,-135.96 454.79,-130.14 444.24,-129.17 445.94,-135.96"/>
</g>
<!-- Node53 -->
<g id="node5" class="node">
<title>Node53</title>
<g id="a_node5"><a xlink:href="convect_8f.html#a92eec6b22d330a307e543facfa634daa" target="_top" xlink:title=" ">
<polygon fill="white" stroke="red" points="357,-95.5 357,-114.5 419,-114.5 419,-95.5 357,-95.5"/>
<text text-anchor="middle" x="388" y="-102.5" font-family="Helvetica,sans-Serif" font-size="10.00">get_int_ptr</text>
</a>
</g>
</g>
<!-- Node52&#45;&gt;Node53 -->
<g id="edge4" class="edge">
<title>Node52&#45;&gt;Node53</title>
<path fill="none" stroke="midnightblue" d="M312.64,-105C322.97,-105 335.09,-105 346.5,-105"/>
<polygon fill="midnightblue" stroke="midnightblue" points="346.71,-108.5 356.71,-105 346.71,-101.5 346.71,-108.5"/>
</g>
<!-- Node52&#45;&gt;Node7 -->
<g id="edge6" class="edge">
<title>Node52&#45;&gt;Node7</title>
<path fill="none" stroke="midnightblue" d="M312.61,-113.8C325.76,-117.78 342.05,-122.02 357,-124 386.27,-127.87 419.83,-127.53 444.33,-126.41"/>
<polygon fill="midnightblue" stroke="midnightblue" points="444.77,-129.89 454.57,-125.88 444.4,-122.9 444.77,-129.89"/>
</g>
<!-- Node53&#45;&gt;Node7 -->
<g id="edge5" class="edge">
<title>Node53&#45;&gt;Node7</title>
<path fill="none" stroke="midnightblue" d="M419.47,-111.43C427.66,-113.16 436.58,-115.04 444.95,-116.81"/>
<polygon fill="midnightblue" stroke="midnightblue" points="444.31,-120.25 454.82,-118.89 445.75,-113.4 444.31,-120.25"/>
</g>
<!-- Node63&#45;&gt;Node53 -->
<g id="edge11" class="edge">
<title>Node63&#45;&gt;Node53</title>
<path fill="none" stroke="midnightblue" d="M311.86,-76.59C324,-81.18 338.73,-86.75 351.93,-91.74"/>
<polygon fill="midnightblue" stroke="midnightblue" points="351.06,-95.15 361.65,-95.41 353.53,-88.6 351.06,-95.15"/>
</g>
<!-- Node63&#45;&gt;Node7 -->
<g id="edge12" class="edge">
<title>Node63&#45;&gt;Node7</title>
<path fill="none" stroke="midnightblue" d="M318.2,-67.82C345.63,-69.4 385.97,-73.81 419,-86 433.24,-91.25 447.66,-100.24 458.79,-108.16"/>
<polygon fill="midnightblue" stroke="midnightblue" points="456.82,-111.06 466.95,-114.18 460.98,-105.43 456.82,-111.06"/>
</g>
</g>
</svg>
        <g id="navigator" transform="translate(0 0)" fill="#404254">
                <rect fill="#f2f5e9" fill-opacity="0.5" stroke="#606060" stroke-width=".5" x="0" y="0" width="60" height="60"/>
                <use id="zoomplus" xlink:href="#zoomPlus" x="17" y="9" onmousedown="handleZoom(evt,'in')"/>
                <use id="zoomminus" xlink:href="#zoomMin" x="42" y="9" onmousedown="handleZoom(evt,'out')"/>
                <use id="reset" xlink:href="#resetDef" x="30" y="36" onmousedown="handleReset()"/>
                <g id="arrowUp" xlink:href="#dirArrow" transform="translate(30 24)" onmousedown="handlePan(0,-1)">
                  <use xlink:href="#rim" fill="#404040">
                        <set attributeName="fill" to="#808080" begin="arrowUp.mouseover" end="arrowUp.mouseout"/>
                  </use>
                  <path fill="none" stroke="white" stroke-width="1.5" d="M0,-3.0v7 M-2.5,-0.5L0,-3.0L2.5,-0.5"/>
                </g>
                <g id="arrowRight" xlink:href="#dirArrow" transform="rotate(90) translate(36 -43)" onmousedown="handlePan(1,0)">
                  <use xlink:href="#rim" fill="#404040">
                        <set attributeName="fill" to="#808080" begin="arrowRight.mouseover" end="arrowRight.mouseout"/>
                  </use>
                  <path fill="none" stroke="white" stroke-width="1.5" d="M0,-3.0v7 M-2.5,-0.5L0,-3.0L2.5,-0.5"/>
                </g>
                <g id="arrowDown" xlink:href="#dirArrow" transform="rotate(180) translate(-30 -48)" onmousedown="handlePan(0,1)">
                  <use xlink:href="#rim" fill="#404040">
                        <set attributeName="fill" to="#808080" begin="arrowDown.mouseover" end="arrowDown.mouseout"/>
                  </use>
                  <path fill="none" stroke="white" stroke-width="1.5" d="M0,-3.0v7 M-2.5,-0.5L0,-3.0L2.5,-0.5"/>
                </g>
                <g id="arrowLeft" xlink:href="#dirArrow" transform="rotate(270) translate(-36 17)" onmousedown="handlePan(-1,0)">
                  <use xlink:href="#rim" fill="#404040">
                        <set attributeName="fill" to="#808080" begin="arrowLeft.mouseover" end="arrowLeft.mouseout"/>
                  </use>
                  <path fill="none" stroke="white" stroke-width="1.5" d="M0,-3.0v7 M-2.5,-0.5L0,-3.0L2.5,-0.5"/>
                </g>
        </g>
        <svg viewBox="0 0 15 15" width="100%" height="30px" preserveAspectRatio="xMaxYMin meet">
         <g id="arrow_out" transform="scale(0.3 0.3)">
          <a xlink:href="convect_8f_a7975b977bdaf7637493e0beacb3a224b_cgraph_org.svg" target="_base">
           <rect id="button" ry="5" rx="5" y="6" x="6" height="38" width="38"
                fill="#f2f5e9" fill-opacity="0.5" stroke="#606060" stroke-width="1.0"/>
           <path id="arrow"
             d="M 11.500037,31.436501 C 11.940474,20.09759 22.043105,11.32322 32.158766,21.979434 L 37.068811,17.246167 C 37.068811,17.246167 37.088388,32 37.088388,32 L 22.160133,31.978069 C 22.160133,31.978069 26.997745,27.140456 26.997745,27.140456 C 18.528582,18.264221 13.291696,25.230495 11.500037,31.436501 z"
             style="fill:#404040;"/>
          </a>
         </g>
        </svg>
</svg>
