<?xml version="1.0" encoding="UTF-8" standalone="no"?>
<!DOCTYPE svg PUBLIC "-//W3C//DTD SVG 1.1//EN"
 "http://www.w3.org/Graphics/SVG/1.1/DTD/svg11.dtd">
<!-- Generated by graphviz version 2.46.0 (0)
 -->
<!-- Title: set_conv_char Pages: 1 -->
<svg width="718pt" height="123pt"
 viewBox="0.00 0.00 718.00 123.00" xmlns="http://www.w3.org/2000/svg" xmlns:xlink="http://www.w3.org/1999/xlink">
<g id="graph0" class="graph" transform="scale(1 1) rotate(0) translate(4 119)">
<title>set_conv_char</title>
<polygon fill="white" stroke="transparent" points="-4,4 -4,-119 714,-119 714,4 -4,4"/>
<!-- Node1 -->
<g id="node1" class="node">
<title>Node1</title>
<g id="a_node1"><a xlink:title=" ">
<polygon fill="#bfbfbf" stroke="black" points="630,-76.5 630,-95.5 710,-95.5 710,-76.5 630,-76.5"/>
<text text-anchor="middle" x="670" y="-83.5" font-family="Helvetica,sans-Serif" font-size="10.00">set_conv_char</text>
</a>
</g>
</g>
<!-- Node2 -->
<g id="node2" class="node">
<title>Node2</title>
<g id="a_node2"><a xlink:href="convect2_8f.html#a9b58d62988f53102b490531b844a1891" target="_top" xlink:title=" ">
<polygon fill="white" stroke="black" points="514,-76.5 514,-95.5 594,-95.5 594,-76.5 514,-76.5"/>
<text text-anchor="middle" x="554" y="-83.5" font-family="Helvetica,sans-Serif" font-size="10.00">setup_convect</text>
</a>
</g>
</g>
<!-- Node1&#45;&gt;Node2 -->
<g id="edge1" class="edge">
<title>Node1&#45;&gt;Node2</title>
<path fill="none" stroke="midnightblue" d="M619.61,-86C611.15,-86 602.46,-86 594.3,-86"/>
<polygon fill="midnightblue" stroke="midnightblue" points="619.77,-89.5 629.77,-86 619.77,-82.5 619.77,-89.5"/>
</g>
<!-- Node3 -->
<g id="node3" class="node">
<title>Node3</title>
<g id="a_node3"><a xlink:href="drive1_8f.html#ae177ea7efac97f35241521b782a671c0" target="_top" xlink:title=" ">
<polygon fill="white" stroke="black" points="239,-95.5 239,-114.5 313,-114.5 313,-95.5 239,-95.5"/>
<text text-anchor="middle" x="276" y="-102.5" font-family="Helvetica,sans-Serif" font-size="10.00">nek_advance</text>
</a>
</g>
</g>
<!-- Node2&#45;&gt;Node3 -->
<g id="edge2" class="edge">
<title>Node2&#45;&gt;Node3</title>
<path fill="none" stroke="midnightblue" d="M512.77,-98.14C501.62,-100.97 489.43,-103.57 478,-105 420.69,-112.15 353.47,-110.05 313.11,-107.68"/>
<polygon fill="midnightblue" stroke="midnightblue" points="513.91,-101.46 522.68,-95.5 512.11,-94.7 513.91,-101.46"/>
</g>
<!-- Node7 -->
<g id="node6" class="node">
<title>Node7</title>
<g id="a_node6"><a xlink:href="plan5_8f.html#ae6f47947bd1a89d608ae3b90ac8f433d" target="_top" xlink:title=" ">
<polygon fill="white" stroke="black" points="436.5,-76.5 436.5,-95.5 476.5,-95.5 476.5,-76.5 436.5,-76.5"/>
<text text-anchor="middle" x="456.5" y="-83.5" font-family="Helvetica,sans-Serif" font-size="10.00">plan5</text>
</a>
</g>
</g>
<!-- Node2&#45;&gt;Node7 -->
<g id="edge5" class="edge">
<title>Node2&#45;&gt;Node7</title>
<path fill="none" stroke="midnightblue" d="M503.82,-86C494.12,-86 484.5,-86 476.57,-86"/>
<polygon fill="midnightblue" stroke="midnightblue" points="503.88,-89.5 513.88,-86 503.88,-82.5 503.88,-89.5"/>
</g>
<!-- Node13 -->
<g id="node8" class="node">
<title>Node13</title>
<g id="a_node8"><a xlink:href="ic_8f.html#acaefa33e86633e4a7a4b28347d4620d1" target="_top" xlink:title=" ">
<polygon fill="white" stroke="black" points="435,-38.5 435,-57.5 478,-57.5 478,-38.5 435,-38.5"/>
<text text-anchor="middle" x="456.5" y="-45.5" font-family="Helvetica,sans-Serif" font-size="10.00">setics</text>
</a>
</g>
</g>
<!-- Node2&#45;&gt;Node13 -->
<g id="edge8" class="edge">
<title>Node2&#45;&gt;Node13</title>
<path fill="none" stroke="midnightblue" d="M519.26,-72.57C505.5,-67.1 490.04,-60.95 478.03,-56.17"/>
<polygon fill="midnightblue" stroke="midnightblue" points="518.32,-75.97 528.9,-76.41 520.9,-69.46 518.32,-75.97"/>
</g>
<!-- Node4 -->
<g id="node4" class="node">
<title>Node4</title>
<g id="a_node4"><a xlink:href="drive1_8f.html#a18d3e839786263fc4cf91f7eeb714371" target="_top" xlink:title=" ">
<polygon fill="white" stroke="black" points="97,-95.5 97,-114.5 203,-114.5 203,-95.5 97,-95.5"/>
<text text-anchor="middle" x="150" y="-102.5" font-family="Helvetica,sans-Serif" font-size="10.00">nek__multi_advance</text>
</a>
</g>
</g>
<!-- Node3&#45;&gt;Node4 -->
<g id="edge3" class="edge">
<title>Node3&#45;&gt;Node4</title>
<path fill="none" stroke="midnightblue" d="M228.56,-105C220.27,-105 211.58,-105 203.14,-105"/>
<polygon fill="midnightblue" stroke="midnightblue" points="228.8,-108.5 238.8,-105 228.8,-101.5 228.8,-108.5"/>
</g>
<!-- Node5 -->
<g id="node5" class="node">
<title>Node5</title>
<g id="a_node5"><a xlink:href="drive1_8f.html#a6ad57e0cf728f343e371ef8c9a02cd8a" target="_top" xlink:title=" ">
<polygon fill="white" stroke="red" points="0,-95.5 0,-114.5 61,-114.5 61,-95.5 0,-95.5"/>
<text text-anchor="middle" x="30.5" y="-102.5" font-family="Helvetica,sans-Serif" font-size="10.00">nek_solve</text>
</a>
</g>
</g>
<!-- Node4&#45;&gt;Node5 -->
<g id="edge4" class="edge">
<title>Node4&#45;&gt;Node5</title>
<path fill="none" stroke="midnightblue" d="M86.68,-105C77.74,-105 68.91,-105 61.02,-105"/>
<polygon fill="midnightblue" stroke="midnightblue" points="86.78,-108.5 96.78,-105 86.78,-101.5 86.78,-108.5"/>
</g>
<!-- Node8 -->
<g id="node7" class="node">
<title>Node8</title>
<g id="a_node7"><a xlink:href="drive2_8f.html#ab0aeca9ad3db8be87a01ba29d069d71e" target="_top" xlink:title=" ">
<polygon fill="white" stroke="red" points="356.5,-76.5 356.5,-95.5 391.5,-95.5 391.5,-76.5 356.5,-76.5"/>
<text text-anchor="middle" x="374" y="-83.5" font-family="Helvetica,sans-Serif" font-size="10.00">fluid</text>
</a>
</g>
</g>
<!-- Node7&#45;&gt;Node8 -->
<g id="edge6" class="edge">
<title>Node7&#45;&gt;Node8</title>
<path fill="none" stroke="midnightblue" d="M426.26,-86C414.65,-86 401.73,-86 391.76,-86"/>
<polygon fill="midnightblue" stroke="midnightblue" points="426.42,-89.5 436.42,-86 426.42,-82.5 426.42,-89.5"/>
</g>
<!-- Node8&#45;&gt;Node3 -->
<g id="edge7" class="edge">
<title>Node8&#45;&gt;Node3</title>
<path fill="none" stroke="midnightblue" d="M346.25,-91.29C335.96,-93.33 324.03,-95.69 313.01,-97.87"/>
<polygon fill="midnightblue" stroke="midnightblue" points="347.15,-94.68 356.28,-89.31 345.79,-87.82 347.15,-94.68"/>
</g>
<!-- Node14 -->
<g id="node9" class="node">
<title>Node14</title>
<g id="a_node9"><a xlink:href="postpro_8f.html#ac11e1909dcf07a738bcba7e6cbb4295f" target="_top" xlink:title=" ">
<polygon fill="white" stroke="black" points="349,-38.5 349,-57.5 399,-57.5 399,-38.5 349,-38.5"/>
<text text-anchor="middle" x="374" y="-45.5" font-family="Helvetica,sans-Serif" font-size="10.00">load_fld</text>
</a>
</g>
</g>
<!-- Node13&#45;&gt;Node14 -->
<g id="edge9" class="edge">
<title>Node13&#45;&gt;Node14</title>
<path fill="none" stroke="midnightblue" d="M424.51,-48C416.08,-48 407.07,-48 399.09,-48"/>
<polygon fill="midnightblue" stroke="midnightblue" points="424.77,-51.5 434.77,-48 424.77,-44.5 424.77,-51.5"/>
</g>
<!-- Node15 -->
<g id="node10" class="node">
<title>Node15</title>
<g id="a_node10"><a xlink:href="drive1_8f.html#a83f7c6d78ac4e68394f32533e847d0a3" target="_top" xlink:title=" ">
<polygon fill="white" stroke="red" points="349,-0.5 349,-19.5 399,-19.5 399,-0.5 349,-0.5"/>
<text text-anchor="middle" x="374" y="-7.5" font-family="Helvetica,sans-Serif" font-size="10.00">nek_init</text>
</a>
</g>
</g>
<!-- Node13&#45;&gt;Node15 -->
<g id="edge10" class="edge">
<title>Node13&#45;&gt;Node15</title>
<path fill="none" stroke="midnightblue" d="M425.84,-34C415.68,-29.2 404.55,-23.95 395.31,-19.59"/>
<polygon fill="midnightblue" stroke="midnightblue" points="424.65,-37.31 435.19,-38.41 427.64,-30.98 424.65,-37.31"/>
</g>
</g>
</svg>
