<?xml version="1.0" encoding="UTF-8" standalone="no"?>
<!DOCTYPE svg PUBLIC "-//W3C//DTD SVG 1.1//EN"
 "http://www.w3.org/Graphics/SVG/1.1/DTD/svg11.dtd">
<!-- Generated by graphviz version 2.46.0 (0)
 -->
<!-- Title: grad_rstd Pages: 1 -->
<svg width="785pt" height="66pt"
 viewBox="0.00 0.00 785.00 66.00" xmlns="http://www.w3.org/2000/svg" xmlns:xlink="http://www.w3.org/1999/xlink">
<g id="graph0" class="graph" transform="scale(1 1) rotate(0) translate(4 62)">
<title>grad_rstd</title>
<polygon fill="white" stroke="transparent" points="-4,4 -4,-62 781,-62 781,4 -4,4"/>
<!-- Node1 -->
<g id="node1" class="node">
<title>Node1</title>
<g id="a_node1"><a xlink:title=" ">
<polygon fill="#bfbfbf" stroke="black" points="720,-19.5 720,-38.5 777,-38.5 777,-19.5 720,-19.5"/>
<text text-anchor="middle" x="748.5" y="-26.5" font-family="Helvetica,sans-Serif" font-size="10.00">grad_rstd</text>
</a>
</g>
</g>
<!-- Node2 -->
<g id="node2" class="node">
<title>Node2</title>
<g id="a_node2"><a xlink:href="convect_8f.html#a99596f9c7a3ed1479d79bbbefc309449" target="_top" xlink:title=" ">
<polygon fill="white" stroke="black" points="604,-38.5 604,-57.5 684,-57.5 684,-38.5 604,-38.5"/>
<text text-anchor="middle" x="644" y="-45.5" font-family="Helvetica,sans-Serif" font-size="10.00">convop_fst_2d</text>
</a>
</g>
</g>
<!-- Node1&#45;&gt;Node2 -->
<g id="edge1" class="edge">
<title>Node1&#45;&gt;Node2</title>
<path fill="none" stroke="midnightblue" d="M709.91,-35.97C701.57,-37.51 692.71,-39.16 684.3,-40.71"/>
<polygon fill="midnightblue" stroke="midnightblue" points="710.57,-39.41 719.76,-34.14 709.29,-32.52 710.57,-39.41"/>
</g>
<!-- Node32 -->
<g id="node10" class="node">
<title>Node32</title>
<g id="a_node10"><a xlink:href="convect_8f.html#a48fc2129fc315f3f12e1ecbb79c3fa5d" target="_top" xlink:title=" ">
<polygon fill="white" stroke="black" points="604,-0.5 604,-19.5 684,-19.5 684,-0.5 604,-0.5"/>
<text text-anchor="middle" x="644" y="-7.5" font-family="Helvetica,sans-Serif" font-size="10.00">convop_fst_3d</text>
</a>
</g>
</g>
<!-- Node1&#45;&gt;Node32 -->
<g id="edge10" class="edge">
<title>Node1&#45;&gt;Node32</title>
<path fill="none" stroke="midnightblue" d="M709.91,-22.03C701.57,-20.49 692.71,-18.84 684.3,-17.29"/>
<polygon fill="midnightblue" stroke="midnightblue" points="709.29,-25.48 719.76,-23.86 710.57,-18.59 709.29,-25.48"/>
</g>
<!-- Node3 -->
<g id="node3" class="node">
<title>Node3</title>
<g id="a_node3"><a xlink:href="convect_8f.html#a036e0748e08b74d166f83b1a6dab88a4" target="_top" xlink:title=" ">
<polygon fill="white" stroke="black" points="368,-19.5 368,-38.5 424,-38.5 424,-19.5 368,-19.5"/>
<text text-anchor="middle" x="396" y="-26.5" font-family="Helvetica,sans-Serif" font-size="10.00">conv_rhs</text>
</a>
</g>
</g>
<!-- Node2&#45;&gt;Node3 -->
<g id="edge2" class="edge">
<title>Node2&#45;&gt;Node3</title>
<path fill="none" stroke="midnightblue" d="M593.82,-51.87C556.82,-53.85 504.96,-54.63 460,-48 447.46,-46.15 433.94,-42.33 422.66,-38.6"/>
<polygon fill="midnightblue" stroke="midnightblue" points="594.07,-55.36 603.85,-51.29 593.66,-48.38 594.07,-55.36"/>
</g>
<!-- Node31 -->
<g id="node9" class="node">
<title>Node31</title>
<g id="a_node9"><a xlink:href="convect_8f.html#ace970aac277cdecdce1ee7e820473310" target="_top" xlink:title=" ">
<polygon fill="white" stroke="black" points="460,-19.5 460,-38.5 568,-38.5 568,-19.5 460,-19.5"/>
<text text-anchor="middle" x="514" y="-26.5" font-family="Helvetica,sans-Serif" font-size="10.00">conv_rhs_dg_aliased</text>
</a>
</g>
</g>
<!-- Node2&#45;&gt;Node31 -->
<g id="edge8" class="edge">
<title>Node2&#45;&gt;Node31</title>
<path fill="none" stroke="midnightblue" d="M593.82,-40.7C585.36,-39.44 576.55,-38.14 568,-36.87"/>
<polygon fill="midnightblue" stroke="midnightblue" points="593.49,-44.19 603.9,-42.2 594.52,-37.27 593.49,-44.19"/>
</g>
<!-- Node4 -->
<g id="node4" class="node">
<title>Node4</title>
<g id="a_node4"><a xlink:href="convect_8f.html#a462db3d75569eb808bc6e5d8cda2c542" target="_top" xlink:title=" ">
<polygon fill="white" stroke="black" points="265,-19.5 265,-38.5 332,-38.5 332,-19.5 265,-19.5"/>
<text text-anchor="middle" x="298.5" y="-26.5" font-family="Helvetica,sans-Serif" font-size="10.00">char_conv1</text>
</a>
</g>
</g>
<!-- Node3&#45;&gt;Node4 -->
<g id="edge3" class="edge">
<title>Node3&#45;&gt;Node4</title>
<path fill="none" stroke="midnightblue" d="M357.84,-29C349.35,-29 340.39,-29 332.1,-29"/>
<polygon fill="midnightblue" stroke="midnightblue" points="357.89,-32.5 367.89,-29 357.89,-25.5 357.89,-32.5"/>
</g>
<!-- Node5 -->
<g id="node5" class="node">
<title>Node5</title>
<g id="a_node5"><a xlink:href="convect_8f.html#ae4ae44dd6c99361a823026cc794c68a0" target="_top" xlink:title=" ">
<polygon fill="white" stroke="black" points="167,-19.5 167,-38.5 229,-38.5 229,-19.5 167,-19.5"/>
<text text-anchor="middle" x="198" y="-26.5" font-family="Helvetica,sans-Serif" font-size="10.00">char_conv</text>
</a>
</g>
</g>
<!-- Node4&#45;&gt;Node5 -->
<g id="edge4" class="edge">
<title>Node4&#45;&gt;Node5</title>
<path fill="none" stroke="midnightblue" d="M254.97,-29C246.28,-29 237.31,-29 229.16,-29"/>
<polygon fill="midnightblue" stroke="midnightblue" points="254.97,-32.5 264.97,-29 254.97,-25.5 254.97,-32.5"/>
</g>
<!-- Node6 -->
<g id="node6" class="node">
<title>Node6</title>
<g id="a_node6"><a xlink:href="convect_8f.html#afc0b2ce765c4ad0f0ec6f2a62536bf57" target="_top" xlink:title=" ">
<polygon fill="white" stroke="black" points="80,-38.5 80,-57.5 131,-57.5 131,-38.5 80,-38.5"/>
<text text-anchor="middle" x="105.5" y="-45.5" font-family="Helvetica,sans-Serif" font-size="10.00">advchar</text>
</a>
</g>
</g>
<!-- Node5&#45;&gt;Node6 -->
<g id="edge5" class="edge">
<title>Node5&#45;&gt;Node6</title>
<path fill="none" stroke="midnightblue" d="M157.07,-37.38C148.22,-39.24 139.1,-41.16 131.09,-42.84"/>
<polygon fill="midnightblue" stroke="midnightblue" points="157.8,-40.81 166.86,-35.33 156.36,-33.96 157.8,-40.81"/>
</g>
<!-- Node20 -->
<g id="node8" class="node">
<title>Node20</title>
<g id="a_node8"><a xlink:href="convect_8f.html#a3b2c8621bcdfb80fd4be220ddd337aa1" target="_top" xlink:title=" ">
<polygon fill="white" stroke="red" points="81.5,-0.5 81.5,-19.5 129.5,-19.5 129.5,-0.5 81.5,-0.5"/>
<text text-anchor="middle" x="105.5" y="-7.5" font-family="Helvetica,sans-Serif" font-size="10.00">convch</text>
</a>
</g>
</g>
<!-- Node5&#45;&gt;Node20 -->
<g id="edge7" class="edge">
<title>Node5&#45;&gt;Node20</title>
<path fill="none" stroke="midnightblue" d="M156.92,-20.59C147.59,-18.63 137.95,-16.6 129.63,-14.86"/>
<polygon fill="midnightblue" stroke="midnightblue" points="156.36,-24.04 166.86,-22.67 157.8,-17.19 156.36,-24.04"/>
</g>
<!-- Node7 -->
<g id="node7" class="node">
<title>Node7</title>
<g id="a_node7"><a xlink:href="navier1_8f.html#a83189b3d1938d87f00ace2e7e05d9e4c" target="_top" xlink:title=" ">
<polygon fill="white" stroke="red" points="0,-38.5 0,-57.5 44,-57.5 44,-38.5 0,-38.5"/>
<text text-anchor="middle" x="22" y="-45.5" font-family="Helvetica,sans-Serif" font-size="10.00">makef</text>
</a>
</g>
</g>
<!-- Node6&#45;&gt;Node7 -->
<g id="edge6" class="edge">
<title>Node6&#45;&gt;Node7</title>
<path fill="none" stroke="midnightblue" d="M69.4,-48C60.81,-48 51.88,-48 44.17,-48"/>
<polygon fill="midnightblue" stroke="midnightblue" points="69.6,-51.5 79.6,-48 69.6,-44.5 69.6,-51.5"/>
</g>
<!-- Node31&#45;&gt;Node3 -->
<g id="edge9" class="edge">
<title>Node31&#45;&gt;Node3</title>
<path fill="none" stroke="midnightblue" d="M449.67,-29C440.76,-29 432.02,-29 424.3,-29"/>
<polygon fill="midnightblue" stroke="midnightblue" points="449.75,-32.5 459.75,-29 449.75,-25.5 449.75,-32.5"/>
</g>
<!-- Node32&#45;&gt;Node3 -->
<g id="edge11" class="edge">
<title>Node32&#45;&gt;Node3</title>
<path fill="none" stroke="midnightblue" d="M593.82,-6.13C556.82,-4.15 504.96,-3.37 460,-10 447.46,-11.85 433.94,-15.67 422.66,-19.4"/>
<polygon fill="midnightblue" stroke="midnightblue" points="593.66,-9.62 603.85,-6.71 594.07,-2.64 593.66,-9.62"/>
</g>
<!-- Node32&#45;&gt;Node31 -->
<g id="edge12" class="edge">
<title>Node32&#45;&gt;Node31</title>
<path fill="none" stroke="midnightblue" d="M593.82,-17.3C585.36,-18.56 576.55,-19.86 568,-21.13"/>
<polygon fill="midnightblue" stroke="midnightblue" points="594.52,-20.73 603.9,-15.8 593.49,-13.81 594.52,-20.73"/>
</g>
</g>
</svg>
