<?xml version="1.0" encoding="UTF-8" standalone="no"?>
<!DOCTYPE svg PUBLIC "-//W3C//DTD SVG 1.1//EN"
 "http://www.w3.org/Graphics/SVG/1.1/DTD/svg11.dtd">
<!-- Generated by graphviz version 2.46.0 (0)
 -->
<!-- Title: grad_rst Pages: 1 -->
<svg width="456pt" height="218pt"
 viewBox="0.00 0.00 456.00 218.00" xmlns="http://www.w3.org/2000/svg" xmlns:xlink="http://www.w3.org/1999/xlink">
<g id="graph0" class="graph" transform="scale(1 1) rotate(0) translate(4 214)">
<title>grad_rst</title>
<polygon fill="white" stroke="transparent" points="-4,4 -4,-214 452,-214 452,4 -4,4"/>
<!-- Node1 -->
<g id="node1" class="node">
<title>Node1</title>
<g id="a_node1"><a xlink:title=" ">
<polygon fill="#bfbfbf" stroke="black" points="396,-95.5 396,-114.5 448,-114.5 448,-95.5 396,-95.5"/>
<text text-anchor="middle" x="422" y="-102.5" font-family="Helvetica,sans-Serif" font-size="10.00">grad_rst</text>
</a>
</g>
</g>
<!-- Node2 -->
<g id="node2" class="node">
<title>Node2</title>
<g id="a_node2"><a xlink:href="induct_8f.html#a4b88749c2f906451df477afc0153c210" target="_top" xlink:title=" ">
<polygon fill="white" stroke="black" points="253,-190.5 253,-209.5 360,-209.5 360,-190.5 253,-190.5"/>
<text text-anchor="middle" x="306.5" y="-197.5" font-family="Helvetica,sans-Serif" font-size="10.00">advab_elsasser_fast</text>
</a>
</g>
</g>
<!-- Node1&#45;&gt;Node2 -->
<g id="edge1" class="edge">
<title>Node1&#45;&gt;Node2</title>
<path fill="none" stroke="midnightblue" d="M410.24,-123.6C399.5,-140.68 381.51,-165.61 360,-181 354.72,-184.78 348.6,-187.88 342.46,-190.4"/>
<polygon fill="midnightblue" stroke="midnightblue" points="413.52,-124.94 415.7,-114.58 407.53,-121.32 413.52,-124.94"/>
</g>
<!-- Node9 -->
<g id="node4" class="node">
<title>Node9</title>
<g id="a_node4"><a xlink:href="convect_8f.html#ac5955ce05d0725ed90a8fd09bb96ac81" target="_top" xlink:title=" ">
<polygon fill="white" stroke="black" points="268,-152.5 268,-171.5 345,-171.5 345,-152.5 268,-152.5"/>
<text text-anchor="middle" x="306.5" y="-159.5" font-family="Helvetica,sans-Serif" font-size="10.00">convect_cons</text>
</a>
</g>
</g>
<!-- Node1&#45;&gt;Node9 -->
<g id="edge3" class="edge">
<title>Node1&#45;&gt;Node9</title>
<path fill="none" stroke="midnightblue" d="M399.03,-120.25C387.7,-127.71 373.46,-136.46 360,-143 352.85,-146.47 344.89,-149.67 337.38,-152.41"/>
<polygon fill="midnightblue" stroke="midnightblue" points="401.07,-123.1 407.42,-114.62 397.17,-117.28 401.07,-123.1"/>
</g>
<!-- Node46 -->
<g id="node7" class="node">
<title>Node46</title>
<g id="a_node7"><a xlink:href="convect_8f.html#aef829efeef773567be893471f50529b1" target="_top" xlink:title=" ">
<polygon fill="white" stroke="black" points="269.5,-114.5 269.5,-133.5 343.5,-133.5 343.5,-114.5 269.5,-114.5"/>
<text text-anchor="middle" x="306.5" y="-121.5" font-family="Helvetica,sans-Serif" font-size="10.00">convect_new</text>
</a>
</g>
</g>
<!-- Node1&#45;&gt;Node46 -->
<g id="edge6" class="edge">
<title>Node1&#45;&gt;Node46</title>
<path fill="none" stroke="midnightblue" d="M385.61,-110.92C372.32,-113.15 357.19,-115.68 343.82,-117.92"/>
<polygon fill="midnightblue" stroke="midnightblue" points="386.53,-114.32 395.81,-109.22 385.37,-107.42 386.53,-114.32"/>
</g>
<!-- Node47 -->
<g id="node8" class="node">
<title>Node47</title>
<g id="a_node8"><a xlink:href="perturb_8f.html#ab40957f09440ef41d588a2295d22e96f" target="_top" xlink:title=" ">
<polygon fill="white" stroke="black" points="134.5,-76.5 134.5,-95.5 200.5,-95.5 200.5,-76.5 134.5,-76.5"/>
<text text-anchor="middle" x="167.5" y="-83.5" font-family="Helvetica,sans-Serif" font-size="10.00">convop_adj</text>
</a>
</g>
</g>
<!-- Node1&#45;&gt;Node47 -->
<g id="edge8" class="edge">
<title>Node1&#45;&gt;Node47</title>
<path fill="none" stroke="midnightblue" d="M385.7,-102.34C336.51,-98.64 248.05,-91.99 200.62,-88.42"/>
<polygon fill="midnightblue" stroke="midnightblue" points="385.63,-105.85 395.87,-103.11 386.16,-98.87 385.63,-105.85"/>
</g>
<!-- Node48 -->
<g id="node9" class="node">
<title>Node48</title>
<g id="a_node9"><a xlink:href="convect_8f.html#aadc03184873881e2a6bd5ca5541cffa3" target="_top" xlink:title=" ">
<polygon fill="white" stroke="red" points="261.5,-38.5 261.5,-57.5 351.5,-57.5 351.5,-38.5 261.5,-38.5"/>
<text text-anchor="middle" x="306.5" y="-45.5" font-family="Helvetica,sans-Serif" font-size="10.00">convop_cons_2d</text>
</a>
</g>
</g>
<!-- Node1&#45;&gt;Node48 -->
<g id="edge10" class="edge">
<title>Node1&#45;&gt;Node48</title>
<path fill="none" stroke="midnightblue" d="M395.16,-90.53C384.38,-84.62 371.67,-77.82 360,-72 350.04,-67.04 338.85,-61.87 329.37,-57.6"/>
<polygon fill="midnightblue" stroke="midnightblue" points="393.62,-93.67 404.07,-95.44 397.01,-87.55 393.62,-93.67"/>
</g>
<!-- Node55 -->
<g id="node10" class="node">
<title>Node55</title>
<g id="a_node10"><a xlink:href="convect_8f.html#a281f1b22620e0b1de622a0a0a760df6b" target="_top" xlink:title=" ">
<polygon fill="white" stroke="red" points="261.5,-0.5 261.5,-19.5 351.5,-19.5 351.5,-0.5 261.5,-0.5"/>
<text text-anchor="middle" x="306.5" y="-7.5" font-family="Helvetica,sans-Serif" font-size="10.00">convop_cons_3d</text>
</a>
</g>
</g>
<!-- Node1&#45;&gt;Node55 -->
<g id="edge11" class="edge">
<title>Node1&#45;&gt;Node55</title>
<path fill="none" stroke="midnightblue" d="M410.24,-86.4C399.5,-69.32 381.51,-44.39 360,-29 354.72,-25.22 348.6,-22.12 342.46,-19.6"/>
<polygon fill="midnightblue" stroke="midnightblue" points="407.53,-88.68 415.7,-95.42 413.52,-85.06 407.53,-88.68"/>
</g>
<!-- Node3 -->
<g id="node3" class="node">
<title>Node3</title>
<g id="a_node3"><a xlink:href="induct_8f.html#a0f0eb9c29e64571293f094020bee8033" target="_top" xlink:title=" ">
<polygon fill="white" stroke="red" points="118,-190.5 118,-209.5 217,-209.5 217,-190.5 118,-190.5"/>
<text text-anchor="middle" x="167.5" y="-197.5" font-family="Helvetica,sans-Serif" font-size="10.00">makebsource_mhd</text>
</a>
</g>
</g>
<!-- Node2&#45;&gt;Node3 -->
<g id="edge2" class="edge">
<title>Node2&#45;&gt;Node3</title>
<path fill="none" stroke="midnightblue" d="M242.87,-200C234.22,-200 225.45,-200 217.11,-200"/>
<polygon fill="midnightblue" stroke="midnightblue" points="242.92,-203.5 252.92,-200 242.92,-196.5 242.92,-203.5"/>
</g>
<!-- Node10 -->
<g id="node5" class="node">
<title>Node10</title>
<g id="a_node5"><a xlink:href="navier1_8f.html#a38ba376801cfa958294fae8c90db7680" target="_top" xlink:title=" ">
<polygon fill="white" stroke="red" points="143.5,-114.5 143.5,-133.5 191.5,-133.5 191.5,-114.5 143.5,-114.5"/>
<text text-anchor="middle" x="167.5" y="-121.5" font-family="Helvetica,sans-Serif" font-size="10.00">convop</text>
</a>
</g>
</g>
<!-- Node9&#45;&gt;Node10 -->
<g id="edge4" class="edge">
<title>Node9&#45;&gt;Node10</title>
<path fill="none" stroke="midnightblue" d="M261.01,-149.66C237.97,-143.27 210.77,-135.73 191.86,-130.48"/>
<polygon fill="midnightblue" stroke="midnightblue" points="260.36,-153.11 270.93,-152.41 262.23,-146.37 260.36,-153.11"/>
</g>
<!-- Node25 -->
<g id="node6" class="node">
<title>Node25</title>
<g id="a_node6"><a xlink:href="perturb_8f.html#afb8592701ab3283a1c01ed23f1d0ff56" target="_top" xlink:title=" ">
<polygon fill="white" stroke="red" points="0,-95.5 0,-114.5 82,-114.5 82,-95.5 0,-95.5"/>
<text text-anchor="middle" x="41" y="-102.5" font-family="Helvetica,sans-Serif" font-size="10.00">advabp_adjoint</text>
</a>
</g>
</g>
<!-- Node10&#45;&gt;Node25 -->
<g id="edge5" class="edge">
<title>Node10&#45;&gt;Node25</title>
<path fill="none" stroke="midnightblue" d="M133.09,-118.9C117.41,-116.51 98.59,-113.64 82.14,-111.13"/>
<polygon fill="midnightblue" stroke="midnightblue" points="132.96,-122.42 143.37,-120.47 134.02,-115.5 132.96,-122.42"/>
</g>
<!-- Node46&#45;&gt;Node10 -->
<g id="edge7" class="edge">
<title>Node46&#45;&gt;Node10</title>
<path fill="none" stroke="midnightblue" d="M259.02,-124C236.33,-124 210.04,-124 191.66,-124"/>
<polygon fill="midnightblue" stroke="midnightblue" points="259.15,-127.5 269.15,-124 259.15,-120.5 259.15,-127.5"/>
</g>
<!-- Node47&#45;&gt;Node25 -->
<g id="edge9" class="edge">
<title>Node47&#45;&gt;Node25</title>
<path fill="none" stroke="midnightblue" d="M124.4,-92.42C110.85,-94.49 95.87,-96.78 82.44,-98.83"/>
<polygon fill="midnightblue" stroke="midnightblue" points="125.08,-95.86 134.44,-90.89 124.02,-88.94 125.08,-95.86"/>
</g>
</g>
</svg>
