<?xml version="1.0" encoding="UTF-8" standalone="no"?>
<!DOCTYPE svg PUBLIC "-//W3C//DTD SVG 1.1//EN"
 "http://www.w3.org/Graphics/SVG/1.1/DTD/svg11.dtd">
<!-- Generated by graphviz version 2.46.0 (0)
 -->
<!-- Title: gen_int Pages: 1 -->
<svg width="398pt" height="218pt"
 viewBox="0.00 0.00 398.00 218.00" xmlns="http://www.w3.org/2000/svg" xmlns:xlink="http://www.w3.org/1999/xlink">
<g id="graph0" class="graph" transform="scale(1 1) rotate(0) translate(4 214)">
<title>gen_int</title>
<polygon fill="white" stroke="transparent" points="-4,4 -4,-214 394,-214 394,4 -4,4"/>
<!-- Node1 -->
<g id="node1" class="node">
<title>Node1</title>
<g id="a_node1"><a xlink:title=" ">
<polygon fill="#bfbfbf" stroke="black" points="342,-76.5 342,-95.5 390,-95.5 390,-76.5 342,-76.5"/>
<text text-anchor="middle" x="366" y="-83.5" font-family="Helvetica,sans-Serif" font-size="10.00">gen_int</text>
</a>
</g>
</g>
<!-- Node2 -->
<g id="node2" class="node">
<title>Node2</title>
<g id="a_node2"><a xlink:href="convect_8f.html#a92eec6b22d330a307e543facfa634daa" target="_top" xlink:title=" ">
<polygon fill="white" stroke="black" points="244,-76.5 244,-95.5 306,-95.5 306,-76.5 244,-76.5"/>
<text text-anchor="middle" x="275" y="-83.5" font-family="Helvetica,sans-Serif" font-size="10.00">get_int_ptr</text>
</a>
</g>
</g>
<!-- Node1&#45;&gt;Node2 -->
<g id="edge1" class="edge">
<title>Node1&#45;&gt;Node2</title>
<path fill="none" stroke="midnightblue" d="M331.51,-86C323.22,-86 314.39,-86 306.27,-86"/>
<polygon fill="midnightblue" stroke="midnightblue" points="331.62,-89.5 341.62,-86 331.62,-82.5 331.62,-89.5"/>
</g>
<!-- Node3 -->
<g id="node3" class="node">
<title>Node3</title>
<g id="a_node3"><a xlink:href="convect_8f.html#a9560f353879de6e4a86926a9831842a3" target="_top" xlink:title=" ">
<polygon fill="white" stroke="red" points="148.5,-95.5 148.5,-114.5 202.5,-114.5 202.5,-95.5 148.5,-95.5"/>
<text text-anchor="middle" x="175.5" y="-102.5" font-family="Helvetica,sans-Serif" font-size="10.00">intp_rstd</text>
</a>
</g>
</g>
<!-- Node2&#45;&gt;Node3 -->
<g id="edge2" class="edge">
<title>Node2&#45;&gt;Node3</title>
<path fill="none" stroke="midnightblue" d="M234.05,-93.79C223.46,-95.85 212.3,-98.02 202.66,-99.9"/>
<polygon fill="midnightblue" stroke="midnightblue" points="234.81,-97.2 243.95,-91.86 233.47,-90.33 234.81,-97.2"/>
</g>
<!-- Node73 -->
<g id="node10" class="node">
<title>Node73</title>
<g id="a_node10"><a xlink:href="convect_8f.html#ae2e3f3b9edb0976a0d8ab264e9902f59" target="_top" xlink:title=" ">
<polygon fill="white" stroke="red" points="143,-57.5 143,-76.5 208,-76.5 208,-57.5 143,-57.5"/>
<text text-anchor="middle" x="175.5" y="-64.5" font-family="Helvetica,sans-Serif" font-size="10.00">map_faced</text>
</a>
</g>
</g>
<!-- Node2&#45;&gt;Node73 -->
<g id="edge9" class="edge">
<title>Node2&#45;&gt;Node73</title>
<path fill="none" stroke="midnightblue" d="M234.11,-78.23C225.51,-76.55 216.54,-74.8 208.31,-73.2"/>
<polygon fill="midnightblue" stroke="midnightblue" points="233.47,-81.67 243.95,-80.14 234.81,-74.8 233.47,-81.67"/>
</g>
<!-- Node4 -->
<g id="node4" class="node">
<title>Node4</title>
<g id="a_node4"><a xlink:href="induct_8f.html#a4b88749c2f906451df477afc0153c210" target="_top" xlink:title=" ">
<polygon fill="white" stroke="red" points="0,-190.5 0,-209.5 107,-209.5 107,-190.5 0,-190.5"/>
<text text-anchor="middle" x="53.5" y="-197.5" font-family="Helvetica,sans-Serif" font-size="10.00">advab_elsasser_fast</text>
</a>
</g>
</g>
<!-- Node3&#45;&gt;Node4 -->
<g id="edge3" class="edge">
<title>Node3&#45;&gt;Node4</title>
<path fill="none" stroke="midnightblue" d="M162.49,-123.08C150.32,-140.14 130.04,-165.37 107,-181 101.46,-184.75 95.1,-187.86 88.75,-190.41"/>
<polygon fill="midnightblue" stroke="midnightblue" points="165.58,-124.77 168.38,-114.55 159.82,-120.79 165.58,-124.77"/>
</g>
<!-- Node11 -->
<g id="node5" class="node">
<title>Node11</title>
<g id="a_node5"><a xlink:href="convect_8f.html#ac5955ce05d0725ed90a8fd09bb96ac81" target="_top" xlink:title=" ">
<polygon fill="white" stroke="red" points="15,-152.5 15,-171.5 92,-171.5 92,-152.5 15,-152.5"/>
<text text-anchor="middle" x="53.5" y="-159.5" font-family="Helvetica,sans-Serif" font-size="10.00">convect_cons</text>
</a>
</g>
</g>
<!-- Node3&#45;&gt;Node11 -->
<g id="edge4" class="edge">
<title>Node3&#45;&gt;Node11</title>
<path fill="none" stroke="midnightblue" d="M150.48,-119.8C137.81,-127.28 121.85,-136.19 107,-143 99.51,-146.43 91.21,-149.68 83.46,-152.49"/>
<polygon fill="midnightblue" stroke="midnightblue" points="152.29,-122.8 159.06,-114.66 148.69,-116.8 152.29,-122.8"/>
</g>
<!-- Node48 -->
<g id="node6" class="node">
<title>Node48</title>
<g id="a_node6"><a xlink:href="convect_8f.html#aef829efeef773567be893471f50529b1" target="_top" xlink:title=" ">
<polygon fill="white" stroke="red" points="16.5,-114.5 16.5,-133.5 90.5,-133.5 90.5,-114.5 16.5,-114.5"/>
<text text-anchor="middle" x="53.5" y="-121.5" font-family="Helvetica,sans-Serif" font-size="10.00">convect_new</text>
</a>
</g>
</g>
<!-- Node3&#45;&gt;Node48 -->
<g id="edge5" class="edge">
<title>Node3&#45;&gt;Node48</title>
<path fill="none" stroke="midnightblue" d="M138.41,-110.71C123.25,-113.11 105.65,-115.9 90.5,-118.3"/>
<polygon fill="midnightblue" stroke="midnightblue" points="139.13,-114.14 148.46,-109.12 138.04,-107.23 139.13,-114.14"/>
</g>
<!-- Node49 -->
<g id="node7" class="node">
<title>Node49</title>
<g id="a_node7"><a xlink:href="perturb_8f.html#ab40957f09440ef41d588a2295d22e96f" target="_top" xlink:title=" ">
<polygon fill="white" stroke="red" points="20.5,-76.5 20.5,-95.5 86.5,-95.5 86.5,-76.5 20.5,-76.5"/>
<text text-anchor="middle" x="53.5" y="-83.5" font-family="Helvetica,sans-Serif" font-size="10.00">convop_adj</text>
</a>
</g>
</g>
<!-- Node3&#45;&gt;Node49 -->
<g id="edge6" class="edge">
<title>Node3&#45;&gt;Node49</title>
<path fill="none" stroke="midnightblue" d="M138.2,-99.25C121.87,-96.67 102.75,-93.64 86.91,-91.13"/>
<polygon fill="midnightblue" stroke="midnightblue" points="138.04,-102.77 148.46,-100.88 139.13,-95.86 138.04,-102.77"/>
</g>
<!-- Node50 -->
<g id="node8" class="node">
<title>Node50</title>
<g id="a_node8"><a xlink:href="convect_8f.html#aadc03184873881e2a6bd5ca5541cffa3" target="_top" xlink:title=" ">
<polygon fill="white" stroke="red" points="8.5,-38.5 8.5,-57.5 98.5,-57.5 98.5,-38.5 8.5,-38.5"/>
<text text-anchor="middle" x="53.5" y="-45.5" font-family="Helvetica,sans-Serif" font-size="10.00">convop_cons_2d</text>
</a>
</g>
</g>
<!-- Node3&#45;&gt;Node50 -->
<g id="edge7" class="edge">
<title>Node3&#45;&gt;Node50</title>
<path fill="none" stroke="midnightblue" d="M149.48,-90.34C133.91,-81.34 115.33,-70.82 107,-67 99.51,-63.57 91.21,-60.32 83.46,-57.51"/>
<polygon fill="midnightblue" stroke="midnightblue" points="147.79,-93.41 158.19,-95.41 151.3,-87.36 147.79,-93.41"/>
</g>
<!-- Node57 -->
<g id="node9" class="node">
<title>Node57</title>
<g id="a_node9"><a xlink:href="convect_8f.html#a281f1b22620e0b1de622a0a0a760df6b" target="_top" xlink:title=" ">
<polygon fill="white" stroke="red" points="8.5,-0.5 8.5,-19.5 98.5,-19.5 98.5,-0.5 8.5,-0.5"/>
<text text-anchor="middle" x="53.5" y="-7.5" font-family="Helvetica,sans-Serif" font-size="10.00">convop_cons_3d</text>
</a>
</g>
</g>
<!-- Node3&#45;&gt;Node57 -->
<g id="edge8" class="edge">
<title>Node3&#45;&gt;Node57</title>
<path fill="none" stroke="midnightblue" d="M147.01,-89.55C145.6,-88.41 144.25,-87.23 143,-86 121.6,-65.03 130.35,-47.78 107,-29 102.24,-25.17 96.65,-22.08 90.91,-19.59"/>
<polygon fill="midnightblue" stroke="midnightblue" points="145.28,-92.61 155.48,-95.48 149.3,-86.87 145.28,-92.61"/>
</g>
</g>
</svg>
