<?xml version="1.0" encoding="UTF-8" standalone="no"?>
<!DOCTYPE svg PUBLIC "-//W3C//DTD SVG 1.1//EN"
 "http://www.w3.org/Graphics/SVG/1.1/DTD/svg11.dtd">
<!-- Generated by graphviz version 2.46.0 (0)
 -->
<!-- Title: conv_rhs_dg_aliased Pages: 1 -->
<svg width="316pt" height="332pt"
 viewBox="0.00 0.00 316.00 332.00" xmlns="http://www.w3.org/2000/svg" xmlns:xlink="http://www.w3.org/1999/xlink">
<g id="graph0" class="graph" transform="scale(1 1) rotate(0) translate(4 328)">
<title>conv_rhs_dg_aliased</title>
<polygon fill="white" stroke="transparent" points="-4,4 -4,-328 312,-328 312,4 -4,4"/>
<!-- Node1 -->
<g id="node1" class="node">
<title>Node1</title>
<g id="a_node1"><a xlink:title=" ">
<polygon fill="#bfbfbf" stroke="black" points="0,-152.5 0,-171.5 108,-171.5 108,-152.5 0,-152.5"/>
<text text-anchor="middle" x="54" y="-159.5" font-family="Helvetica,sans-Serif" font-size="10.00">conv_rhs_dg_aliased</text>
</a>
</g>
</g>
<!-- Node2 -->
<g id="node2" class="node">
<title>Node2</title>
<g id="a_node2"><a xlink:href="convect_8f.html#ab0242c1110829477bfb44e4f32604a81" target="_top" xlink:title=" ">
<polygon fill="white" stroke="black" points="152,-304.5 152,-323.5 226,-323.5 226,-304.5 152,-304.5"/>
<text text-anchor="middle" x="189" y="-311.5" font-family="Helvetica,sans-Serif" font-size="10.00">add_face2full</text>
</a>
</g>
</g>
<!-- Node1&#45;&gt;Node2 -->
<g id="edge1" class="edge">
<title>Node1&#45;&gt;Node2</title>
<path fill="none" stroke="midnightblue" d="M59.13,-171.74C69.79,-195.81 100.44,-258.73 144,-295 145.96,-296.63 148.08,-298.14 150.29,-299.54"/>
<polygon fill="midnightblue" stroke="midnightblue" points="148.71,-302.66 159.16,-304.39 152.06,-296.52 148.71,-302.66"/>
</g>
<!-- Node3 -->
<g id="node3" class="node">
<title>Node3</title>
<g id="a_node3"><a xlink:href="math_8f.html#a3470db04166d9ba91454a14cc17dbec2" target="_top" xlink:title=" ">
<polygon fill="white" stroke="red" points="171.5,-266.5 171.5,-285.5 206.5,-285.5 206.5,-266.5 171.5,-266.5"/>
<text text-anchor="middle" x="189" y="-273.5" font-family="Helvetica,sans-Serif" font-size="10.00">col2</text>
</a>
</g>
</g>
<!-- Node1&#45;&gt;Node3 -->
<g id="edge2" class="edge">
<title>Node1&#45;&gt;Node3</title>
<path fill="none" stroke="midnightblue" d="M61.82,-171.58C75.52,-190.23 108.13,-231.78 144,-257 149.45,-260.83 155.79,-264.12 161.94,-266.84"/>
<polygon fill="midnightblue" stroke="midnightblue" points="160.7,-270.11 171.28,-270.63 163.33,-263.63 160.7,-270.11"/>
</g>
<!-- Node6 -->
<g id="node4" class="node">
<title>Node6</title>
<g id="a_node4"><a xlink:href="convect_8f.html#aadc03184873881e2a6bd5ca5541cffa3" target="_top" xlink:title=" ">
<polygon fill="white" stroke="red" points="144,-228.5 144,-247.5 234,-247.5 234,-228.5 144,-228.5"/>
<text text-anchor="middle" x="189" y="-235.5" font-family="Helvetica,sans-Serif" font-size="10.00">convop_cons_2d</text>
</a>
</g>
</g>
<!-- Node1&#45;&gt;Node6 -->
<g id="edge3" class="edge">
<title>Node1&#45;&gt;Node6</title>
<path fill="none" stroke="midnightblue" d="M71,-171.54C88.75,-182.08 118.29,-199.48 144,-214 149.44,-217.07 155.28,-220.3 160.88,-223.37"/>
<polygon fill="midnightblue" stroke="midnightblue" points="159.5,-226.6 169.95,-228.31 162.84,-220.45 159.5,-226.6"/>
</g>
<!-- Node39 -->
<g id="node5" class="node">
<title>Node39</title>
<g id="a_node5"><a xlink:href="math_8f.html#af44de42b023a4a68cd98ea341204342d" target="_top" xlink:title=" ">
<polygon fill="white" stroke="black" points="270,-190.5 270,-209.5 308,-209.5 308,-190.5 270,-190.5"/>
<text text-anchor="middle" x="289" y="-197.5" font-family="Helvetica,sans-Serif" font-size="10.00">rzero</text>
</a>
</g>
</g>
<!-- Node1&#45;&gt;Node39 -->
<g id="edge11" class="edge">
<title>Node1&#45;&gt;Node39</title>
<path fill="none" stroke="midnightblue" d="M96.52,-171.58C111.44,-174.83 128.43,-178.32 144,-181 183.88,-187.88 230.36,-193.6 259.48,-196.91"/>
<polygon fill="midnightblue" stroke="midnightblue" points="259.42,-200.43 269.74,-198.06 260.2,-193.47 259.42,-200.43"/>
</g>
<!-- Node40 -->
<g id="node6" class="node">
<title>Node40</title>
<g id="a_node6"><a xlink:href="convect_8f.html#a281f1b22620e0b1de622a0a0a760df6b" target="_top" xlink:title=" ">
<polygon fill="white" stroke="red" points="144,-152.5 144,-171.5 234,-171.5 234,-152.5 144,-152.5"/>
<text text-anchor="middle" x="189" y="-159.5" font-family="Helvetica,sans-Serif" font-size="10.00">convop_cons_3d</text>
</a>
</g>
</g>
<!-- Node1&#45;&gt;Node40 -->
<g id="edge5" class="edge">
<title>Node1&#45;&gt;Node40</title>
<path fill="none" stroke="midnightblue" d="M108.33,-162C116.65,-162 125.26,-162 133.61,-162"/>
<polygon fill="midnightblue" stroke="midnightblue" points="133.62,-165.5 143.62,-162 133.62,-158.5 133.62,-165.5"/>
</g>
<!-- Node41 -->
<g id="node7" class="node">
<title>Node41</title>
<g id="a_node7"><a xlink:href="convect_8f.html#a99596f9c7a3ed1479d79bbbefc309449" target="_top" xlink:title=" ">
<polygon fill="white" stroke="red" points="149,-114.5 149,-133.5 229,-133.5 229,-114.5 149,-114.5"/>
<text text-anchor="middle" x="189" y="-121.5" font-family="Helvetica,sans-Serif" font-size="10.00">convop_fst_2d</text>
</a>
</g>
</g>
<!-- Node1&#45;&gt;Node41 -->
<g id="edge7" class="edge">
<title>Node1&#45;&gt;Node41</title>
<path fill="none" stroke="midnightblue" d="M88.56,-152.41C105.57,-147.55 126.43,-141.59 144.64,-136.39"/>
<polygon fill="midnightblue" stroke="midnightblue" points="145.8,-139.7 154.45,-133.59 143.87,-132.97 145.8,-139.7"/>
</g>
<!-- Node43 -->
<g id="node8" class="node">
<title>Node43</title>
<g id="a_node8"><a xlink:href="convect_8f.html#a48fc2129fc315f3f12e1ecbb79c3fa5d" target="_top" xlink:title=" ">
<polygon fill="white" stroke="red" points="149,-76.5 149,-95.5 229,-95.5 229,-76.5 149,-76.5"/>
<text text-anchor="middle" x="189" y="-83.5" font-family="Helvetica,sans-Serif" font-size="10.00">convop_fst_3d</text>
</a>
</g>
</g>
<!-- Node1&#45;&gt;Node43 -->
<g id="edge8" class="edge">
<title>Node1&#45;&gt;Node43</title>
<path fill="none" stroke="midnightblue" d="M68.46,-152.4C85.54,-140.45 116.13,-119.81 144,-105 147.36,-103.22 150.92,-101.46 154.5,-99.79"/>
<polygon fill="midnightblue" stroke="midnightblue" points="156.23,-102.85 163.92,-95.56 153.36,-96.46 156.23,-102.85"/>
</g>
<!-- Node44 -->
<g id="node9" class="node">
<title>Node44</title>
<g id="a_node9"><a xlink:href="convect_8f.html#ab6188f7006db1c14b2392e513422c0ac" target="_top" xlink:title=" ">
<polygon fill="white" stroke="black" points="164.5,-38.5 164.5,-57.5 213.5,-57.5 213.5,-38.5 164.5,-38.5"/>
<text text-anchor="middle" x="189" y="-45.5" font-family="Helvetica,sans-Serif" font-size="10.00">fbinvert</text>
</a>
</g>
</g>
<!-- Node1&#45;&gt;Node44 -->
<g id="edge9" class="edge">
<title>Node1&#45;&gt;Node44</title>
<path fill="none" stroke="midnightblue" d="M61.82,-152.42C75.52,-133.77 108.13,-92.22 144,-67 147.45,-64.58 151.25,-62.37 155.13,-60.39"/>
<polygon fill="midnightblue" stroke="midnightblue" points="156.62,-63.56 164.22,-56.17 153.67,-57.21 156.62,-63.56"/>
</g>
<!-- Node45 -->
<g id="node10" class="node">
<title>Node45</title>
<g id="a_node10"><a xlink:href="convect_8f.html#a81ad5024730ce16b71458235d4565f3c" target="_top" xlink:title=" ">
<polygon fill="white" stroke="black" points="162.5,-0.5 162.5,-19.5 215.5,-19.5 215.5,-0.5 162.5,-0.5"/>
<text text-anchor="middle" x="189" y="-7.5" font-family="Helvetica,sans-Serif" font-size="10.00">full2face</text>
</a>
</g>
</g>
<!-- Node1&#45;&gt;Node45 -->
<g id="edge10" class="edge">
<title>Node1&#45;&gt;Node45</title>
<path fill="none" stroke="midnightblue" d="M59.13,-152.26C69.79,-128.19 100.44,-65.27 144,-29 146.85,-26.62 150.05,-24.5 153.38,-22.61"/>
<polygon fill="midnightblue" stroke="midnightblue" points="154.97,-25.73 162.38,-18.15 151.86,-19.46 154.97,-25.73"/>
</g>
<!-- Node6&#45;&gt;Node39 -->
<g id="edge4" class="edge">
<title>Node6&#45;&gt;Node39</title>
<path fill="none" stroke="midnightblue" d="M214.73,-228.41C228.64,-223.02 246.05,-216.27 260.4,-210.7"/>
<polygon fill="midnightblue" stroke="midnightblue" points="261.72,-213.95 269.78,-207.07 259.19,-207.42 261.72,-213.95"/>
</g>
<!-- Node40&#45;&gt;Node39 -->
<g id="edge6" class="edge">
<title>Node40&#45;&gt;Node39</title>
<path fill="none" stroke="midnightblue" d="M214.73,-171.59C228.64,-176.98 246.05,-183.73 260.4,-189.3"/>
<polygon fill="midnightblue" stroke="midnightblue" points="259.19,-192.58 269.78,-192.93 261.72,-186.05 259.19,-192.58"/>
</g>
</g>
</svg>
