<?xml version="1.0" encoding="UTF-8" standalone="no"?>
<!DOCTYPE svg PUBLIC "-//W3C//DTD SVG 1.1//EN"
 "http://www.w3.org/Graphics/SVG/1.1/DTD/svg11.dtd">
<!-- Generated by graphviz version 2.46.0 (0)
 -->
<!-- Title: advchar Pages: 1 -->
<svg width="620pt" height="208pt"
 viewBox="0.00 0.00 620.00 208.00" xmlns="http://www.w3.org/2000/svg" xmlns:xlink="http://www.w3.org/1999/xlink">
<g id="graph0" class="graph" transform="scale(1 1) rotate(0) translate(4 204)">
<title>advchar</title>
<polygon fill="white" stroke="transparent" points="-4,4 -4,-204 616,-204 616,4 -4,4"/>
<!-- Node1 -->
<g id="node1" class="node">
<title>Node1</title>
<g id="a_node1"><a xlink:title=" ">
<polygon fill="#bfbfbf" stroke="black" points="0,-47.5 0,-66.5 51,-66.5 51,-47.5 0,-47.5"/>
<text text-anchor="middle" x="25.5" y="-54.5" font-family="Helvetica,sans-Serif" font-size="10.00">advchar</text>
</a>
</g>
</g>
<!-- Node2 -->
<g id="node2" class="node">
<title>Node2</title>
<g id="a_node2"><a xlink:href="math_8f.html#add7cf4f5279a2239cfd54f963a53e618" target="_top" xlink:title=" ">
<polygon fill="white" stroke="black" points="102,-104.5 102,-123.5 134,-123.5 134,-104.5 102,-104.5"/>
<text text-anchor="middle" x="118" y="-111.5" font-family="Helvetica,sans-Serif" font-size="10.00">cfill</text>
</a>
</g>
</g>
<!-- Node1&#45;&gt;Node2 -->
<g id="edge1" class="edge">
<title>Node1&#45;&gt;Node2</title>
<path fill="none" stroke="midnightblue" d="M41.85,-66.67C55.85,-75.48 76.75,-88.65 92.96,-98.86"/>
<polygon fill="midnightblue" stroke="midnightblue" points="91.55,-102.11 101.87,-104.47 95.28,-96.18 91.55,-102.11"/>
</g>
<!-- Node3 -->
<g id="node3" class="node">
<title>Node3</title>
<g id="a_node3"><a xlink:href="convect_8f.html#ae4ae44dd6c99361a823026cc794c68a0" target="_top" xlink:title=" ">
<polygon fill="white" stroke="black" points="87,-66.5 87,-85.5 149,-85.5 149,-66.5 87,-66.5"/>
<text text-anchor="middle" x="118" y="-73.5" font-family="Helvetica,sans-Serif" font-size="10.00">char_conv</text>
</a>
</g>
</g>
<!-- Node1&#45;&gt;Node3 -->
<g id="edge2" class="edge">
<title>Node1&#45;&gt;Node3</title>
<path fill="none" stroke="midnightblue" d="M51.23,-62.19C59.13,-63.85 68.09,-65.73 76.79,-67.56"/>
<polygon fill="midnightblue" stroke="midnightblue" points="76.31,-71.03 86.82,-69.66 77.75,-64.18 76.31,-71.03"/>
</g>
<!-- Node6 -->
<g id="node6" class="node">
<title>Node6</title>
<g id="a_node6"><a xlink:href="math_8f.html#a3470db04166d9ba91454a14cc17dbec2" target="_top" xlink:title=" ">
<polygon fill="white" stroke="black" points="380,-66.5 380,-85.5 415,-85.5 415,-66.5 380,-66.5"/>
<text text-anchor="middle" x="397.5" y="-73.5" font-family="Helvetica,sans-Serif" font-size="10.00">col2</text>
</a>
</g>
</g>
<!-- Node1&#45;&gt;Node6 -->
<g id="edge11" class="edge">
<title>Node1&#45;&gt;Node6</title>
<path fill="none" stroke="midnightblue" d="M51.05,-54.14C104.7,-48.51 236.23,-38.1 344,-57 352.82,-58.55 362.12,-61.45 370.4,-64.54"/>
<polygon fill="midnightblue" stroke="midnightblue" points="369.3,-67.87 379.89,-68.3 371.88,-61.36 369.3,-67.87"/>
</g>
<!-- Node7 -->
<g id="node7" class="node">
<title>Node7</title>
<g id="a_node7"><a xlink:href="comm__mpi_8f.html#af06ec29f06aac3f8809e19de2a7e8946" target="_top" xlink:title=" ">
<polygon fill="white" stroke="black" points="451,-28.5 451,-47.5 512,-47.5 512,-28.5 451,-28.5"/>
<text text-anchor="middle" x="481.5" y="-35.5" font-family="Helvetica,sans-Serif" font-size="10.00">dnekclock</text>
</a>
</g>
</g>
<!-- Node1&#45;&gt;Node7 -->
<g id="edge12" class="edge">
<title>Node1&#45;&gt;Node7</title>
<path fill="none" stroke="midnightblue" d="M45.19,-47.46C78.77,-31.23 151.92,0 217.5,0 217.5,0 217.5,0 317,0 362.43,0 413.15,-14.09 445.88,-25.11"/>
<polygon fill="midnightblue" stroke="midnightblue" points="444.84,-28.45 455.43,-28.41 447.12,-21.84 444.84,-28.45"/>
</g>
<!-- Node4 -->
<g id="node4" class="node">
<title>Node4</title>
<g id="a_node4"><a xlink:href="convect_8f.html#a462db3d75569eb808bc6e5d8cda2c542" target="_top" xlink:title=" ">
<polygon fill="white" stroke="red" points="185,-104.5 185,-123.5 252,-123.5 252,-104.5 185,-104.5"/>
<text text-anchor="middle" x="218.5" y="-111.5" font-family="Helvetica,sans-Serif" font-size="10.00">char_conv1</text>
</a>
</g>
</g>
<!-- Node3&#45;&gt;Node4 -->
<g id="edge3" class="edge">
<title>Node3&#45;&gt;Node4</title>
<path fill="none" stroke="midnightblue" d="M143.86,-85.59C155.75,-90.18 170.19,-95.75 183.13,-100.74"/>
<polygon fill="midnightblue" stroke="midnightblue" points="182.06,-104.08 192.65,-104.41 184.58,-97.55 182.06,-104.08"/>
</g>
<!-- Node5 -->
<g id="node5" class="node">
<title>Node5</title>
<g id="a_node5"><a xlink:href="math_8f.html#a18b187e72cf5dd7aa5ff77f8bf2b32f8" target="_top" xlink:title=" ">
<polygon fill="white" stroke="black" points="289.5,-180.5 289.5,-199.5 342.5,-199.5 342.5,-180.5 289.5,-180.5"/>
<text text-anchor="middle" x="316" y="-187.5" font-family="Helvetica,sans-Serif" font-size="10.00">add3s12</text>
</a>
</g>
</g>
<!-- Node4&#45;&gt;Node5 -->
<g id="edge4" class="edge">
<title>Node4&#45;&gt;Node5</title>
<path fill="none" stroke="midnightblue" d="M231.6,-123.63C247.6,-136.36 276.01,-158.97 295.17,-174.22"/>
<polygon fill="midnightblue" stroke="midnightblue" points="293,-176.96 303,-180.45 297.36,-171.49 293,-176.96"/>
</g>
<!-- Node4&#45;&gt;Node6 -->
<g id="edge5" class="edge">
<title>Node4&#45;&gt;Node6</title>
<path fill="none" stroke="midnightblue" d="M239.79,-123.67C265.2,-134.33 309.56,-148.1 344,-133 362.02,-125.1 376.59,-107.62 385.76,-94.09"/>
<polygon fill="midnightblue" stroke="midnightblue" points="388.8,-95.83 391.23,-85.52 382.9,-92.07 388.8,-95.83"/>
</g>
<!-- Node9 -->
<g id="node9" class="node">
<title>Node9</title>
<g id="a_node9"><a xlink:href="convect_8f.html#a036e0748e08b74d166f83b1a6dab88a4" target="_top" xlink:title=" ">
<polygon fill="white" stroke="red" points="288,-104.5 288,-123.5 344,-123.5 344,-104.5 288,-104.5"/>
<text text-anchor="middle" x="316" y="-111.5" font-family="Helvetica,sans-Serif" font-size="10.00">conv_rhs</text>
</a>
</g>
</g>
<!-- Node4&#45;&gt;Node9 -->
<g id="edge8" class="edge">
<title>Node4&#45;&gt;Node9</title>
<path fill="none" stroke="midnightblue" d="M252.1,-114C260.4,-114 269.37,-114 277.88,-114"/>
<polygon fill="midnightblue" stroke="midnightblue" points="277.94,-117.5 287.94,-114 277.94,-110.5 277.94,-117.5"/>
</g>
<!-- Node87 -->
<g id="node10" class="node">
<title>Node87</title>
<g id="a_node10"><a xlink:href="convect_8f.html#a6f4ecff7b056abede61e5a0ac5b2049c" target="_top" xlink:title=" ">
<polygon fill="white" stroke="red" points="293.5,-66.5 293.5,-85.5 338.5,-85.5 338.5,-66.5 293.5,-66.5"/>
<text text-anchor="middle" x="316" y="-73.5" font-family="Helvetica,sans-Serif" font-size="10.00">int_vel</text>
</a>
</g>
</g>
<!-- Node4&#45;&gt;Node87 -->
<g id="edge10" class="edge">
<title>Node4&#45;&gt;Node87</title>
<path fill="none" stroke="midnightblue" d="M243.6,-104.41C255.75,-99.58 270.64,-93.65 283.67,-88.47"/>
<polygon fill="midnightblue" stroke="midnightblue" points="285.2,-91.63 293.2,-84.68 282.61,-85.12 285.2,-91.63"/>
</g>
<!-- Node6&#45;&gt;Node7 -->
<g id="edge6" class="edge">
<title>Node6&#45;&gt;Node7</title>
<path fill="none" stroke="midnightblue" d="M415.09,-68.31C425.29,-63.59 438.64,-57.4 450.62,-51.84"/>
<polygon fill="midnightblue" stroke="midnightblue" points="452.25,-54.95 459.85,-47.57 449.31,-48.6 452.25,-54.95"/>
</g>
<!-- Node8 -->
<g id="node8" class="node">
<title>Node8</title>
<g id="a_node8"><a xlink:href="mpi__dummy_8f.html#ae6a5ef945f87c2c27849696b70f3af2a" target="_top" xlink:title=" ">
<polygon fill="white" stroke="black" points="548,-28.5 548,-47.5 612,-47.5 612,-28.5 548,-28.5"/>
<text text-anchor="middle" x="580" y="-35.5" font-family="Helvetica,sans-Serif" font-size="10.00">mpi_wtime</text>
</a>
</g>
</g>
<!-- Node7&#45;&gt;Node8 -->
<g id="edge7" class="edge">
<title>Node7&#45;&gt;Node8</title>
<path fill="none" stroke="midnightblue" d="M512.24,-38C520.27,-38 529.11,-38 537.65,-38"/>
<polygon fill="midnightblue" stroke="midnightblue" points="537.85,-41.5 547.85,-38 537.85,-34.5 537.85,-41.5"/>
</g>
<!-- Node9&#45;&gt;Node6 -->
<g id="edge9" class="edge">
<title>Node9&#45;&gt;Node6</title>
<path fill="none" stroke="midnightblue" d="M337.06,-104.41C347.31,-99.51 359.89,-93.5 370.83,-88.27"/>
<polygon fill="midnightblue" stroke="midnightblue" points="372.42,-91.39 379.93,-83.92 369.4,-85.07 372.42,-91.39"/>
</g>
</g>
</svg>
