<?xml version="1.0" encoding="UTF-8" standalone="no"?>
<!DOCTYPE svg PUBLIC "-//W3C//DTD SVG 1.1//EN"
 "http://www.w3.org/Graphics/SVG/1.1/DTD/svg11.dtd">
<!-- Generated by graphviz version 2.46.0 (0)
 -->
<!-- Title: char_conv Pages: 1 -->
<svg width="417pt" height="180pt"
 viewBox="0.00 0.00 417.00 180.00" xmlns="http://www.w3.org/2000/svg" xmlns:xlink="http://www.w3.org/1999/xlink">
<g id="graph0" class="graph" transform="scale(1 1) rotate(0) translate(4 176)">
<title>char_conv</title>
<polygon fill="white" stroke="transparent" points="-4,4 -4,-176 413,-176 413,4 -4,4"/>
<!-- Node1 -->
<g id="node1" class="node">
<title>Node1</title>
<g id="a_node1"><a xlink:title=" ">
<polygon fill="#bfbfbf" stroke="black" points="347,-76.5 347,-95.5 409,-95.5 409,-76.5 347,-76.5"/>
<text text-anchor="middle" x="378" y="-83.5" font-family="Helvetica,sans-Serif" font-size="10.00">char_conv</text>
</a>
</g>
</g>
<!-- Node2 -->
<g id="node2" class="node">
<title>Node2</title>
<g id="a_node2"><a xlink:href="convect_8f.html#afc0b2ce765c4ad0f0ec6f2a62536bf57" target="_top" xlink:title=" ">
<polygon fill="white" stroke="black" points="260,-104.5 260,-123.5 311,-123.5 311,-104.5 260,-104.5"/>
<text text-anchor="middle" x="285.5" y="-111.5" font-family="Helvetica,sans-Serif" font-size="10.00">advchar</text>
</a>
</g>
</g>
<!-- Node1&#45;&gt;Node2 -->
<g id="edge1" class="edge">
<title>Node1&#45;&gt;Node2</title>
<path fill="none" stroke="midnightblue" d="M337.07,-98.35C328.22,-101.09 319.1,-103.91 311.09,-106.39"/>
<polygon fill="midnightblue" stroke="midnightblue" points="338.35,-101.62 346.86,-95.32 336.28,-94.94 338.35,-101.62"/>
</g>
<!-- Node16 -->
<g id="node7" class="node">
<title>Node16</title>
<g id="a_node7"><a xlink:href="convect_8f.html#a3b2c8621bcdfb80fd4be220ddd337aa1" target="_top" xlink:title=" ">
<polygon fill="white" stroke="black" points="261.5,-57.5 261.5,-76.5 309.5,-76.5 309.5,-57.5 261.5,-57.5"/>
<text text-anchor="middle" x="285.5" y="-64.5" font-family="Helvetica,sans-Serif" font-size="10.00">convch</text>
</a>
</g>
</g>
<!-- Node1&#45;&gt;Node16 -->
<g id="edge6" class="edge">
<title>Node1&#45;&gt;Node16</title>
<path fill="none" stroke="midnightblue" d="M336.92,-77.59C327.59,-75.63 317.95,-73.6 309.63,-71.86"/>
<polygon fill="midnightblue" stroke="midnightblue" points="336.36,-81.04 346.86,-79.67 337.8,-74.19 336.36,-81.04"/>
</g>
<!-- Node3 -->
<g id="node3" class="node">
<title>Node3</title>
<g id="a_node3"><a xlink:href="navier1_8f.html#a83189b3d1938d87f00ace2e7e05d9e4c" target="_top" xlink:title=" ">
<polygon fill="white" stroke="black" points="179,-109.5 179,-128.5 223,-128.5 223,-109.5 179,-109.5"/>
<text text-anchor="middle" x="201" y="-116.5" font-family="Helvetica,sans-Serif" font-size="10.00">makef</text>
</a>
</g>
</g>
<!-- Node2&#45;&gt;Node3 -->
<g id="edge2" class="edge">
<title>Node2&#45;&gt;Node3</title>
<path fill="none" stroke="midnightblue" d="M249.5,-116.12C240.52,-116.67 231.14,-117.23 223.11,-117.72"/>
<polygon fill="midnightblue" stroke="midnightblue" points="249.98,-119.6 259.75,-115.5 249.55,-112.61 249.98,-119.6"/>
</g>
<!-- Node4 -->
<g id="node4" class="node">
<title>Node4</title>
<g id="a_node4"><a xlink:href="navier1_8f.html#a23e6343990072aa1a6b17109ccc7ba2b" target="_top" xlink:title=" ">
<polygon fill="white" stroke="red" points="91.5,-152.5 91.5,-171.5 131.5,-171.5 131.5,-152.5 91.5,-152.5"/>
<text text-anchor="middle" x="111.5" y="-159.5" font-family="Helvetica,sans-Serif" font-size="10.00">plan1</text>
</a>
</g>
</g>
<!-- Node3&#45;&gt;Node4 -->
<g id="edge3" class="edge">
<title>Node3&#45;&gt;Node4</title>
<path fill="none" stroke="midnightblue" d="M171.5,-133.01C158.41,-139.44 143.24,-146.89 131.56,-152.63"/>
<polygon fill="midnightblue" stroke="midnightblue" points="173.15,-136.09 180.58,-128.54 170.06,-129.81 173.15,-136.09"/>
</g>
<!-- Node14 -->
<g id="node5" class="node">
<title>Node14</title>
<g id="a_node5"><a xlink:href="planx_8f.html#a142f9186a662d3de60f09bb0ee26782d" target="_top" xlink:title=" ">
<polygon fill="white" stroke="red" points="91.5,-114.5 91.5,-133.5 131.5,-133.5 131.5,-114.5 91.5,-114.5"/>
<text text-anchor="middle" x="111.5" y="-121.5" font-family="Helvetica,sans-Serif" font-size="10.00">plan3</text>
</a>
</g>
</g>
<!-- Node3&#45;&gt;Node14 -->
<g id="edge4" class="edge">
<title>Node3&#45;&gt;Node14</title>
<path fill="none" stroke="midnightblue" d="M168.48,-120.8C156.17,-121.5 142.47,-122.29 131.7,-122.9"/>
<polygon fill="midnightblue" stroke="midnightblue" points="169.03,-124.28 178.82,-120.21 168.64,-117.29 169.03,-124.28"/>
</g>
<!-- Node15 -->
<g id="node6" class="node">
<title>Node15</title>
<g id="a_node6"><a xlink:href="plan4_8f.html#a247fc105464de543a464773054eb509e" target="_top" xlink:title=" ">
<polygon fill="white" stroke="red" points="91.5,-76.5 91.5,-95.5 131.5,-95.5 131.5,-76.5 91.5,-76.5"/>
<text text-anchor="middle" x="111.5" y="-83.5" font-family="Helvetica,sans-Serif" font-size="10.00">plan4</text>
</a>
</g>
</g>
<!-- Node3&#45;&gt;Node15 -->
<g id="edge5" class="edge">
<title>Node3&#45;&gt;Node15</title>
<path fill="none" stroke="midnightblue" d="M169.22,-107.39C156.73,-102.68 142.68,-97.38 131.7,-93.24"/>
<polygon fill="midnightblue" stroke="midnightblue" points="168.23,-110.76 178.82,-111.01 170.7,-104.21 168.23,-110.76"/>
</g>
<!-- Node17 -->
<g id="node8" class="node">
<title>Node17</title>
<g id="a_node8"><a xlink:href="makeq_8f.html#aad7ee07cd8b6df77d80fd1f50bfb5322" target="_top" xlink:title=" ">
<polygon fill="white" stroke="red" points="178,-38.5 178,-57.5 224,-57.5 224,-38.5 178,-38.5"/>
<text text-anchor="middle" x="201" y="-45.5" font-family="Helvetica,sans-Serif" font-size="10.00">makeq</text>
</a>
</g>
</g>
<!-- Node16&#45;&gt;Node17 -->
<g id="edge7" class="edge">
<title>Node16&#45;&gt;Node17</title>
<path fill="none" stroke="midnightblue" d="M251.12,-59.31C242.01,-57.21 232.37,-54.99 224.06,-53.08"/>
<polygon fill="midnightblue" stroke="midnightblue" points="250.55,-62.77 261.08,-61.61 252.12,-55.95 250.55,-62.77"/>
</g>
<!-- Node18 -->
<g id="node9" class="node">
<title>Node18</title>
<g id="a_node9"><a xlink:href="conduct_8f.html#a74a7f053381975ed36df8ea959f3aa01" target="_top" xlink:title=" ">
<polygon fill="white" stroke="red" points="0,-19.5 0,-38.5 45,-38.5 45,-19.5 0,-19.5"/>
<text text-anchor="middle" x="22.5" y="-26.5" font-family="Helvetica,sans-Serif" font-size="10.00">cdscal</text>
</a>
</g>
</g>
<!-- Node17&#45;&gt;Node18 -->
<g id="edge8" class="edge">
<title>Node17&#45;&gt;Node18</title>
<path fill="none" stroke="midnightblue" d="M167.29,-44.48C131.65,-40.64 75.65,-34.61 45.12,-31.33"/>
<polygon fill="midnightblue" stroke="midnightblue" points="167.33,-48 177.65,-45.59 168.08,-41.04 167.33,-48"/>
</g>
<!-- Node24 -->
<g id="node10" class="node">
<title>Node24</title>
<g id="a_node10"><a xlink:href="conduct_8f.html#abc0953779481a8cff2666b1d0878c50c" target="_top" xlink:title=" ">
<polygon fill="white" stroke="black" points="81,-0.5 81,-19.5 142,-19.5 142,-0.5 81,-0.5"/>
<text text-anchor="middle" x="111.5" y="-7.5" font-family="Helvetica,sans-Serif" font-size="10.00">cdscal_dg</text>
</a>
</g>
</g>
<!-- Node17&#45;&gt;Node24 -->
<g id="edge9" class="edge">
<title>Node17&#45;&gt;Node24</title>
<path fill="none" stroke="midnightblue" d="M168.44,-34.29C157.22,-29.42 144.83,-24.04 134.57,-19.59"/>
<polygon fill="midnightblue" stroke="midnightblue" points="167.35,-37.64 177.92,-38.41 170.14,-31.22 167.35,-37.64"/>
</g>
<!-- Node24&#45;&gt;Node18 -->
<g id="edge10" class="edge">
<title>Node24&#45;&gt;Node18</title>
<path fill="none" stroke="midnightblue" d="M70.52,-18.73C61.82,-20.63 52.93,-22.57 45.25,-24.25"/>
<polygon fill="midnightblue" stroke="midnightblue" points="71.54,-22.09 80.56,-16.54 70.04,-15.25 71.54,-22.09"/>
</g>
</g>
</svg>
