<?xml version="1.0" encoding="UTF-8" standalone="no"?>
<!DOCTYPE svg PUBLIC "-//W3C//DTD SVG 1.1//EN"
 "http://www.w3.org/Graphics/SVG/1.1/DTD/svg11.dtd">
<!-- Generated by graphviz version 2.46.0 (0)
 -->
<!-- Title: convop_fst_2d Pages: 1 -->
<svg width="770pt" height="66pt"
 viewBox="0.00 0.00 770.00 66.00" xmlns="http://www.w3.org/2000/svg" xmlns:xlink="http://www.w3.org/1999/xlink">
<g id="graph0" class="graph" transform="scale(1 1) rotate(0) translate(4 62)">
<title>convop_fst_2d</title>
<polygon fill="white" stroke="transparent" points="-4,4 -4,-62 766,-62 766,4 -4,4"/>
<!-- Node1 -->
<g id="node1" class="node">
<title>Node1</title>
<g id="a_node1"><a xlink:title=" ">
<polygon fill="#bfbfbf" stroke="black" points="682,-19.5 682,-38.5 762,-38.5 762,-19.5 682,-19.5"/>
<text text-anchor="middle" x="722" y="-26.5" font-family="Helvetica,sans-Serif" font-size="10.00">convop_fst_2d</text>
</a>
</g>
</g>
<!-- Node2 -->
<g id="node2" class="node">
<title>Node2</title>
<g id="a_node2"><a xlink:href="convect_8f.html#a036e0748e08b74d166f83b1a6dab88a4" target="_top" xlink:title=" ">
<polygon fill="white" stroke="black" points="446,-19.5 446,-38.5 502,-38.5 502,-19.5 446,-19.5"/>
<text text-anchor="middle" x="474" y="-26.5" font-family="Helvetica,sans-Serif" font-size="10.00">conv_rhs</text>
</a>
</g>
</g>
<!-- Node1&#45;&gt;Node2 -->
<g id="edge1" class="edge">
<title>Node1&#45;&gt;Node2</title>
<path fill="none" stroke="midnightblue" d="M671.62,-29C620.7,-29 543.13,-29 502.31,-29"/>
<polygon fill="midnightblue" stroke="midnightblue" points="671.75,-32.5 681.75,-29 671.75,-25.5 671.75,-32.5"/>
</g>
<!-- Node30 -->
<g id="node10" class="node">
<title>Node30</title>
<g id="a_node10"><a xlink:href="convect_8f.html#ace970aac277cdecdce1ee7e820473310" target="_top" xlink:title=" ">
<polygon fill="white" stroke="black" points="538,-0.5 538,-19.5 646,-19.5 646,-0.5 538,-0.5"/>
<text text-anchor="middle" x="592" y="-7.5" font-family="Helvetica,sans-Serif" font-size="10.00">conv_rhs_dg_aliased</text>
</a>
</g>
</g>
<!-- Node1&#45;&gt;Node30 -->
<g id="edge9" class="edge">
<title>Node1&#45;&gt;Node30</title>
<path fill="none" stroke="midnightblue" d="M671.82,-21.7C663.36,-20.44 654.55,-19.14 646,-17.87"/>
<polygon fill="midnightblue" stroke="midnightblue" points="671.49,-25.19 681.9,-23.2 672.52,-18.27 671.49,-25.19"/>
</g>
<!-- Node3 -->
<g id="node3" class="node">
<title>Node3</title>
<g id="a_node3"><a xlink:href="convect_8f.html#a462db3d75569eb808bc6e5d8cda2c542" target="_top" xlink:title=" ">
<polygon fill="white" stroke="black" points="343,-19.5 343,-38.5 410,-38.5 410,-19.5 343,-19.5"/>
<text text-anchor="middle" x="376.5" y="-26.5" font-family="Helvetica,sans-Serif" font-size="10.00">char_conv1</text>
</a>
</g>
</g>
<!-- Node2&#45;&gt;Node3 -->
<g id="edge2" class="edge">
<title>Node2&#45;&gt;Node3</title>
<path fill="none" stroke="midnightblue" d="M435.84,-29C427.35,-29 418.39,-29 410.1,-29"/>
<polygon fill="midnightblue" stroke="midnightblue" points="435.89,-32.5 445.89,-29 435.89,-25.5 435.89,-32.5"/>
</g>
<!-- Node4 -->
<g id="node4" class="node">
<title>Node4</title>
<g id="a_node4"><a xlink:href="convect_8f.html#ae4ae44dd6c99361a823026cc794c68a0" target="_top" xlink:title=" ">
<polygon fill="white" stroke="black" points="245,-19.5 245,-38.5 307,-38.5 307,-19.5 245,-19.5"/>
<text text-anchor="middle" x="276" y="-26.5" font-family="Helvetica,sans-Serif" font-size="10.00">char_conv</text>
</a>
</g>
</g>
<!-- Node3&#45;&gt;Node4 -->
<g id="edge3" class="edge">
<title>Node3&#45;&gt;Node4</title>
<path fill="none" stroke="midnightblue" d="M332.97,-29C324.28,-29 315.31,-29 307.16,-29"/>
<polygon fill="midnightblue" stroke="midnightblue" points="332.97,-32.5 342.97,-29 332.97,-25.5 332.97,-32.5"/>
</g>
<!-- Node5 -->
<g id="node5" class="node">
<title>Node5</title>
<g id="a_node5"><a xlink:href="convect_8f.html#afc0b2ce765c4ad0f0ec6f2a62536bf57" target="_top" xlink:title=" ">
<polygon fill="white" stroke="black" points="158,-38.5 158,-57.5 209,-57.5 209,-38.5 158,-38.5"/>
<text text-anchor="middle" x="183.5" y="-45.5" font-family="Helvetica,sans-Serif" font-size="10.00">advchar</text>
</a>
</g>
</g>
<!-- Node4&#45;&gt;Node5 -->
<g id="edge4" class="edge">
<title>Node4&#45;&gt;Node5</title>
<path fill="none" stroke="midnightblue" d="M235.07,-37.38C226.22,-39.24 217.1,-41.16 209.09,-42.84"/>
<polygon fill="midnightblue" stroke="midnightblue" points="235.8,-40.81 244.86,-35.33 234.36,-33.96 235.8,-40.81"/>
</g>
<!-- Node19 -->
<g id="node8" class="node">
<title>Node19</title>
<g id="a_node8"><a xlink:href="convect_8f.html#a3b2c8621bcdfb80fd4be220ddd337aa1" target="_top" xlink:title=" ">
<polygon fill="white" stroke="black" points="159.5,-0.5 159.5,-19.5 207.5,-19.5 207.5,-0.5 159.5,-0.5"/>
<text text-anchor="middle" x="183.5" y="-7.5" font-family="Helvetica,sans-Serif" font-size="10.00">convch</text>
</a>
</g>
</g>
<!-- Node4&#45;&gt;Node19 -->
<g id="edge7" class="edge">
<title>Node4&#45;&gt;Node19</title>
<path fill="none" stroke="midnightblue" d="M234.92,-20.59C225.59,-18.63 215.95,-16.6 207.63,-14.86"/>
<polygon fill="midnightblue" stroke="midnightblue" points="234.36,-24.04 244.86,-22.67 235.8,-17.19 234.36,-24.04"/>
</g>
<!-- Node6 -->
<g id="node6" class="node">
<title>Node6</title>
<g id="a_node6"><a xlink:href="navier1_8f.html#a83189b3d1938d87f00ace2e7e05d9e4c" target="_top" xlink:title=" ">
<polygon fill="white" stroke="red" points="77,-38.5 77,-57.5 121,-57.5 121,-38.5 77,-38.5"/>
<text text-anchor="middle" x="99" y="-45.5" font-family="Helvetica,sans-Serif" font-size="10.00">makef</text>
</a>
</g>
</g>
<!-- Node5&#45;&gt;Node6 -->
<g id="edge5" class="edge">
<title>Node5&#45;&gt;Node6</title>
<path fill="none" stroke="midnightblue" d="M147.5,-48C138.52,-48 129.14,-48 121.11,-48"/>
<polygon fill="midnightblue" stroke="midnightblue" points="147.75,-51.5 157.75,-48 147.75,-44.5 147.75,-51.5"/>
</g>
<!-- Node7 -->
<g id="node7" class="node">
<title>Node7</title>
<g id="a_node7"><a xlink:href="navier1_8f.html#a23e6343990072aa1a6b17109ccc7ba2b" target="_top" xlink:title=" ">
<polygon fill="white" stroke="red" points="0,-38.5 0,-57.5 40,-57.5 40,-38.5 0,-38.5"/>
<text text-anchor="middle" x="20" y="-45.5" font-family="Helvetica,sans-Serif" font-size="10.00">plan1</text>
</a>
</g>
</g>
<!-- Node6&#45;&gt;Node7 -->
<g id="edge6" class="edge">
<title>Node6&#45;&gt;Node7</title>
<path fill="none" stroke="midnightblue" d="M66.77,-48C57.76,-48 48.21,-48 40.17,-48"/>
<polygon fill="midnightblue" stroke="midnightblue" points="66.96,-51.5 76.96,-48 66.96,-44.5 66.96,-51.5"/>
</g>
<!-- Node20 -->
<g id="node9" class="node">
<title>Node20</title>
<g id="a_node9"><a xlink:href="makeq_8f.html#aad7ee07cd8b6df77d80fd1f50bfb5322" target="_top" xlink:title=" ">
<polygon fill="white" stroke="red" points="76,-0.5 76,-19.5 122,-19.5 122,-0.5 76,-0.5"/>
<text text-anchor="middle" x="99" y="-7.5" font-family="Helvetica,sans-Serif" font-size="10.00">makeq</text>
</a>
</g>
</g>
<!-- Node19&#45;&gt;Node20 -->
<g id="edge8" class="edge">
<title>Node19&#45;&gt;Node20</title>
<path fill="none" stroke="midnightblue" d="M148.83,-10C139.8,-10 130.28,-10 122.06,-10"/>
<polygon fill="midnightblue" stroke="midnightblue" points="149.08,-13.5 159.08,-10 149.08,-6.5 149.08,-13.5"/>
</g>
<!-- Node30&#45;&gt;Node2 -->
<g id="edge10" class="edge">
<title>Node30&#45;&gt;Node2</title>
<path fill="none" stroke="midnightblue" d="M527.67,-20.37C518.76,-21.83 510.02,-23.26 502.3,-24.53"/>
<polygon fill="midnightblue" stroke="midnightblue" points="528.45,-23.79 537.75,-18.72 527.32,-16.88 528.45,-23.79"/>
</g>
</g>
</svg>
