<?xml version="1.0" encoding="UTF-8" standalone="no"?>
<!DOCTYPE svg PUBLIC "-//W3C//DTD SVG 1.1//EN"
 "http://www.w3.org/Graphics/SVG/1.1/DTD/svg11.dtd">
<!-- Generated by graphviz version 2.46.0 (0)
 -->
<!-- Title: conv_rhs_dg Pages: 1 -->
<svg width="330pt" height="256pt"
 viewBox="0.00 0.00 330.00 256.00" xmlns="http://www.w3.org/2000/svg" xmlns:xlink="http://www.w3.org/1999/xlink">
<g id="graph0" class="graph" transform="scale(1 1) rotate(0) translate(4 252)">
<title>conv_rhs_dg</title>
<polygon fill="white" stroke="transparent" points="-4,4 -4,-252 326,-252 326,4 -4,4"/>
<!-- Node1 -->
<g id="node1" class="node">
<title>Node1</title>
<g id="a_node1"><a xlink:title=" ">
<polygon fill="#bfbfbf" stroke="black" points="0,-114.5 0,-133.5 72,-133.5 72,-114.5 0,-114.5"/>
<text text-anchor="middle" x="36" y="-121.5" font-family="Helvetica,sans-Serif" font-size="10.00">conv_rhs_dg</text>
</a>
</g>
</g>
<!-- Node2 -->
<g id="node2" class="node">
<title>Node2</title>
<g id="a_node2"><a xlink:href="convect_8f.html#ab0242c1110829477bfb44e4f32604a81" target="_top" xlink:title=" ">
<polygon fill="white" stroke="black" points="121.5,-228.5 121.5,-247.5 195.5,-247.5 195.5,-228.5 121.5,-228.5"/>
<text text-anchor="middle" x="158.5" y="-235.5" font-family="Helvetica,sans-Serif" font-size="10.00">add_face2full</text>
</a>
</g>
</g>
<!-- Node1&#45;&gt;Node2 -->
<g id="edge1" class="edge">
<title>Node1&#45;&gt;Node2</title>
<path fill="none" stroke="midnightblue" d="M41.87,-133.78C51.8,-152.77 76.15,-194.9 108,-219 110.34,-220.77 112.86,-222.39 115.49,-223.88"/>
<polygon fill="midnightblue" stroke="midnightblue" points="114.18,-227.14 124.7,-228.42 117.28,-220.86 114.18,-227.14"/>
</g>
<!-- Node3 -->
<g id="node3" class="node">
<title>Node3</title>
<g id="a_node3"><a xlink:href="math_8f.html#a3470db04166d9ba91454a14cc17dbec2" target="_top" xlink:title=" ">
<polygon fill="white" stroke="black" points="141,-190.5 141,-209.5 176,-209.5 176,-190.5 141,-190.5"/>
<text text-anchor="middle" x="158.5" y="-197.5" font-family="Helvetica,sans-Serif" font-size="10.00">col2</text>
</a>
</g>
</g>
<!-- Node1&#45;&gt;Node3 -->
<g id="edge2" class="edge">
<title>Node1&#45;&gt;Node3</title>
<path fill="none" stroke="midnightblue" d="M48.6,-133.52C62.3,-144.51 86.01,-162.76 108,-176 115.36,-180.43 123.67,-184.71 131.34,-188.4"/>
<polygon fill="midnightblue" stroke="midnightblue" points="130.06,-191.67 140.61,-192.73 133.02,-185.33 130.06,-191.67"/>
</g>
<!-- Node6 -->
<g id="node5" class="node">
<title>Node6</title>
<g id="a_node5"><a xlink:href="convect_8f.html#a7975b977bdaf7637493e0beacb3a224b" target="_top" xlink:title=" ">
<polygon fill="white" stroke="red" points="108,-114.5 108,-133.5 209,-133.5 209,-114.5 108,-114.5"/>
<text text-anchor="middle" x="158.5" y="-121.5" font-family="Helvetica,sans-Serif" font-size="10.00">conv_rhs_dg_weak</text>
</a>
</g>
</g>
<!-- Node1&#45;&gt;Node6 -->
<g id="edge4" class="edge">
<title>Node1&#45;&gt;Node6</title>
<path fill="none" stroke="midnightblue" d="M72.18,-124C80.17,-124 88.87,-124 97.57,-124"/>
<polygon fill="midnightblue" stroke="midnightblue" points="97.73,-127.5 107.73,-124 97.73,-120.5 97.73,-127.5"/>
</g>
<!-- Node67 -->
<g id="node7" class="node">
<title>Node67</title>
<g id="a_node7"><a xlink:href="convect_8f.html#a81ad5024730ce16b71458235d4565f3c" target="_top" xlink:title=" ">
<polygon fill="white" stroke="black" points="257,-152.5 257,-171.5 310,-171.5 310,-152.5 257,-152.5"/>
<text text-anchor="middle" x="283.5" y="-159.5" font-family="Helvetica,sans-Serif" font-size="10.00">full2face</text>
</a>
</g>
</g>
<!-- Node1&#45;&gt;Node67 -->
<g id="edge10" class="edge">
<title>Node1&#45;&gt;Node67</title>
<path fill="none" stroke="midnightblue" d="M68.57,-133.56C80.79,-136.97 94.96,-140.56 108,-143 155.51,-151.89 211.12,-157.06 246.57,-159.7"/>
<polygon fill="midnightblue" stroke="midnightblue" points="246.66,-163.22 256.89,-160.44 247.17,-156.24 246.66,-163.22"/>
</g>
<!-- Node68 -->
<g id="node8" class="node">
<title>Node68</title>
<g id="a_node8"><a xlink:href="convect_8f.html#ae2e3f3b9edb0976a0d8ab264e9902f59" target="_top" xlink:title=" ">
<polygon fill="white" stroke="red" points="251,-76.5 251,-95.5 316,-95.5 316,-76.5 251,-76.5"/>
<text text-anchor="middle" x="283.5" y="-83.5" font-family="Helvetica,sans-Serif" font-size="10.00">map_faced</text>
</a>
</g>
</g>
<!-- Node1&#45;&gt;Node68 -->
<g id="edge11" class="edge">
<title>Node1&#45;&gt;Node68</title>
<path fill="none" stroke="midnightblue" d="M68.57,-114.44C80.79,-111.03 94.96,-107.44 108,-105 152.98,-96.58 205.24,-91.5 240.76,-88.74"/>
<polygon fill="midnightblue" stroke="midnightblue" points="241.05,-92.23 250.76,-87.99 240.53,-85.25 241.05,-92.23"/>
</g>
<!-- Node69 -->
<g id="node9" class="node">
<title>Node69</title>
<g id="a_node9"><a xlink:href="math_8f.html#af44de42b023a4a68cd98ea341204342d" target="_top" xlink:title=" ">
<polygon fill="white" stroke="black" points="264.5,-38.5 264.5,-57.5 302.5,-57.5 302.5,-38.5 264.5,-38.5"/>
<text text-anchor="middle" x="283.5" y="-45.5" font-family="Helvetica,sans-Serif" font-size="10.00">rzero</text>
</a>
</g>
</g>
<!-- Node1&#45;&gt;Node69 -->
<g id="edge12" class="edge">
<title>Node1&#45;&gt;Node69</title>
<path fill="none" stroke="midnightblue" d="M52.53,-114.39C66.56,-106.09 88.02,-94.3 108,-87 158.08,-68.71 219.5,-57.41 254.5,-51.95"/>
<polygon fill="midnightblue" stroke="midnightblue" points="255.11,-55.4 264.48,-50.44 254.07,-48.48 255.11,-55.4"/>
</g>
<!-- Node70 -->
<g id="node10" class="node">
<title>Node70</title>
<g id="a_node10"><a xlink:href="convect_8f.html#ab6188f7006db1c14b2392e513422c0ac" target="_top" xlink:title=" ">
<polygon fill="white" stroke="black" points="134,-0.5 134,-19.5 183,-19.5 183,-0.5 134,-0.5"/>
<text text-anchor="middle" x="158.5" y="-7.5" font-family="Helvetica,sans-Serif" font-size="10.00">fbinvert</text>
</a>
</g>
</g>
<!-- Node1&#45;&gt;Node70 -->
<g id="edge9" class="edge">
<title>Node1&#45;&gt;Node70</title>
<path fill="none" stroke="midnightblue" d="M42.51,-114.43C53.17,-96.6 78.22,-57.94 108,-34 113.03,-29.96 118.86,-26.37 124.71,-23.29"/>
<polygon fill="midnightblue" stroke="midnightblue" points="126.34,-26.39 133.81,-18.87 123.28,-20.09 126.34,-26.39"/>
</g>
<!-- Node4 -->
<g id="node4" class="node">
<title>Node4</title>
<g id="a_node4"><a xlink:href="comm__mpi_8f.html#af06ec29f06aac3f8809e19de2a7e8946" target="_top" xlink:title=" ">
<polygon fill="white" stroke="red" points="253,-190.5 253,-209.5 314,-209.5 314,-190.5 253,-190.5"/>
<text text-anchor="middle" x="283.5" y="-197.5" font-family="Helvetica,sans-Serif" font-size="10.00">dnekclock</text>
</a>
</g>
</g>
<!-- Node3&#45;&gt;Node4 -->
<g id="edge3" class="edge">
<title>Node3&#45;&gt;Node4</title>
<path fill="none" stroke="midnightblue" d="M176.09,-200C193.15,-200 220.34,-200 242.97,-200"/>
<polygon fill="midnightblue" stroke="midnightblue" points="242.99,-203.5 252.99,-200 242.99,-196.5 242.99,-203.5"/>
</g>
<!-- Node7 -->
<g id="node6" class="node">
<title>Node7</title>
<g id="a_node6"><a xlink:href="convect_8f.html#ae77a896f076c052786cd0dbdbc7b7e95" target="_top" xlink:title=" ">
<polygon fill="white" stroke="red" points="245,-114.5 245,-133.5 322,-133.5 322,-114.5 245,-114.5"/>
<text text-anchor="middle" x="283.5" y="-121.5" font-family="Helvetica,sans-Serif" font-size="10.00">convop_weak</text>
</a>
</g>
</g>
<!-- Node6&#45;&gt;Node7 -->
<g id="edge5" class="edge">
<title>Node6&#45;&gt;Node7</title>
<path fill="none" stroke="midnightblue" d="M209.17,-124C217.61,-124 226.36,-124 234.74,-124"/>
<polygon fill="midnightblue" stroke="midnightblue" points="234.75,-127.5 244.75,-124 234.75,-120.5 234.75,-127.5"/>
</g>
<!-- Node6&#45;&gt;Node67 -->
<g id="edge6" class="edge">
<title>Node6&#45;&gt;Node67</title>
<path fill="none" stroke="midnightblue" d="M190.54,-133.59C207.75,-138.91 229.22,-145.54 247.09,-151.06"/>
<polygon fill="midnightblue" stroke="midnightblue" points="246.28,-154.47 256.86,-154.08 248.34,-147.78 246.28,-154.47"/>
</g>
<!-- Node6&#45;&gt;Node68 -->
<g id="edge7" class="edge">
<title>Node6&#45;&gt;Node68</title>
<path fill="none" stroke="midnightblue" d="M190.54,-114.41C205.98,-109.64 224.85,-103.81 241.47,-98.68"/>
<polygon fill="midnightblue" stroke="midnightblue" points="242.95,-101.88 251.47,-95.59 240.88,-95.19 242.95,-101.88"/>
</g>
<!-- Node6&#45;&gt;Node69 -->
<g id="edge8" class="edge">
<title>Node6&#45;&gt;Node69</title>
<path fill="none" stroke="midnightblue" d="M172.81,-114.41C189.36,-102.65 218.66,-82.38 245,-67 248.28,-65.08 251.78,-63.16 255.27,-61.31"/>
<polygon fill="midnightblue" stroke="midnightblue" points="257.04,-64.34 264.34,-56.66 253.84,-58.11 257.04,-64.34"/>
</g>
</g>
</svg>
