<?xml version="1.0" encoding="UTF-8" standalone="no"?>
<!DOCTYPE svg PUBLIC "-//W3C//DTD SVG 1.1//EN"
 "http://www.w3.org/Graphics/SVG/1.1/DTD/svg11.dtd">
<!-- Generated by graphviz version 2.46.0 (0)
 -->
<!-- Title: set_char_mask Pages: 1 -->
<svg width="270pt" height="256pt"
 viewBox="0.00 0.00 270.00 256.00" xmlns="http://www.w3.org/2000/svg" xmlns:xlink="http://www.w3.org/1999/xlink">
<g id="graph0" class="graph" transform="scale(1 1) rotate(0) translate(4 252)">
<title>set_char_mask</title>
<polygon fill="white" stroke="transparent" points="-4,4 -4,-252 266,-252 266,4 -4,4"/>
<!-- Node1 -->
<g id="node1" class="node">
<title>Node1</title>
<g id="a_node1"><a xlink:title=" ">
<polygon fill="#bfbfbf" stroke="black" points="0,-114.5 0,-133.5 83,-133.5 83,-114.5 0,-114.5"/>
<text text-anchor="middle" x="41.5" y="-121.5" font-family="Helvetica,sans-Serif" font-size="10.00">set_char_mask</text>
</a>
</g>
</g>
<!-- Node2 -->
<g id="node2" class="node">
<title>Node2</title>
<g id="a_node2"><a xlink:href="dssum_8f.html#ab0865b005738b43cd2bcc73e7bac86f7" target="_top" xlink:title=" ">
<polygon fill="white" stroke="black" points="124,-228.5 124,-247.5 162,-247.5 162,-228.5 124,-228.5"/>
<text text-anchor="middle" x="143" y="-235.5" font-family="Helvetica,sans-Serif" font-size="10.00">dsop</text>
</a>
</g>
</g>
<!-- Node1&#45;&gt;Node2 -->
<g id="edge1" class="edge">
<title>Node1&#45;&gt;Node2</title>
<path fill="none" stroke="midnightblue" d="M49.29,-133.7C61.98,-151.5 90.58,-190.22 119,-219 119.9,-219.91 120.84,-220.83 121.81,-221.73"/>
<polygon fill="midnightblue" stroke="midnightblue" points="119.59,-224.44 129.42,-228.38 124.19,-219.17 119.59,-224.44"/>
</g>
<!-- Node5 -->
<g id="node4" class="node">
<title>Node5</title>
<g id="a_node4"><a xlink:href="subs1_8f.html#ac031cc2389be2401847bfda335f228fd" target="_top" xlink:title=" ">
<polygon fill="white" stroke="black" points="121.5,-190.5 121.5,-209.5 164.5,-209.5 164.5,-190.5 121.5,-190.5"/>
<text text-anchor="middle" x="143" y="-197.5" font-family="Helvetica,sans-Serif" font-size="10.00">faccl3</text>
</a>
</g>
</g>
<!-- Node1&#45;&gt;Node5 -->
<g id="edge3" class="edge">
<title>Node1&#45;&gt;Node5</title>
<path fill="none" stroke="midnightblue" d="M55.1,-133.63C71.77,-146.36 101.38,-168.97 121.34,-184.22"/>
<polygon fill="midnightblue" stroke="midnightblue" points="119.43,-187.16 129.5,-190.45 123.68,-181.6 119.43,-187.16"/>
</g>
<!-- Node7 -->
<g id="node6" class="node">
<title>Node7</title>
<g id="a_node6"><a xlink:href="connect1_8f.html#a1c96db1fac78d436aaab41482ed01aca" target="_top" xlink:title=" ">
<polygon fill="white" stroke="red" points="122.5,-152.5 122.5,-171.5 163.5,-171.5 163.5,-152.5 122.5,-152.5"/>
<text text-anchor="middle" x="143" y="-159.5" font-family="Helvetica,sans-Serif" font-size="10.00">facev</text>
</a>
</g>
</g>
<!-- Node1&#45;&gt;Node7 -->
<g id="edge5" class="edge">
<title>Node1&#45;&gt;Node7</title>
<path fill="none" stroke="midnightblue" d="M67.61,-133.59C81.36,-138.84 98.47,-145.38 112.82,-150.85"/>
<polygon fill="midnightblue" stroke="midnightblue" points="111.64,-154.15 122.23,-154.45 114.14,-147.61 111.64,-154.15"/>
</g>
<!-- Node9 -->
<g id="node7" class="node">
<title>Node9</title>
<g id="a_node7"><a xlink:href="subs1_8f.html#a300a6ec376ec9db6364ed826c08800f8" target="_top" xlink:title=" ">
<polygon fill="white" stroke="black" points="119,-114.5 119,-133.5 167,-133.5 167,-114.5 119,-114.5"/>
<text text-anchor="middle" x="143" y="-121.5" font-family="Helvetica,sans-Serif" font-size="10.00">faddcl3</text>
</a>
</g>
</g>
<!-- Node1&#45;&gt;Node9 -->
<g id="edge6" class="edge">
<title>Node1&#45;&gt;Node9</title>
<path fill="none" stroke="midnightblue" d="M83.26,-124C91.69,-124 100.48,-124 108.61,-124"/>
<polygon fill="midnightblue" stroke="midnightblue" points="108.84,-127.5 118.84,-124 108.84,-120.5 108.84,-127.5"/>
</g>
<!-- Node10 -->
<g id="node8" class="node">
<title>Node10</title>
<g id="a_node8"><a xlink:href="subs1_8f.html#a6238bd08ca72803d019b79f691a06b61" target="_top" xlink:title=" ">
<polygon fill="white" stroke="black" points="121,-76.5 121,-95.5 165,-95.5 165,-76.5 121,-76.5"/>
<text text-anchor="middle" x="143" y="-83.5" font-family="Helvetica,sans-Serif" font-size="10.00">fcaver</text>
</a>
</g>
</g>
<!-- Node1&#45;&gt;Node10 -->
<g id="edge8" class="edge">
<title>Node1&#45;&gt;Node10</title>
<path fill="none" stroke="midnightblue" d="M67.61,-114.41C80.86,-109.35 97.23,-103.1 111.23,-97.75"/>
<polygon fill="midnightblue" stroke="midnightblue" points="112.84,-100.88 120.94,-94.04 110.35,-94.34 112.84,-100.88"/>
</g>
<!-- Node11 -->
<g id="node9" class="node">
<title>Node11</title>
<g id="a_node9"><a xlink:href="math_8f.html#ae1294c8ac3b5b3c38bbcc250d252b9cb" target="_top" xlink:title=" ">
<polygon fill="white" stroke="black" points="125.5,-38.5 125.5,-57.5 160.5,-57.5 160.5,-38.5 125.5,-38.5"/>
<text text-anchor="middle" x="143" y="-45.5" font-family="Helvetica,sans-Serif" font-size="10.00">rone</text>
</a>
</g>
</g>
<!-- Node1&#45;&gt;Node11 -->
<g id="edge10" class="edge">
<title>Node1&#45;&gt;Node11</title>
<path fill="none" stroke="midnightblue" d="M55.1,-114.37C71.77,-101.64 101.38,-79.03 121.34,-63.78"/>
<polygon fill="midnightblue" stroke="midnightblue" points="123.68,-66.4 129.5,-57.55 119.43,-60.84 123.68,-66.4"/>
</g>
<!-- Node12 -->
<g id="node10" class="node">
<title>Node12</title>
<g id="a_node10"><a xlink:href="math_8f.html#af44de42b023a4a68cd98ea341204342d" target="_top" xlink:title=" ">
<polygon fill="white" stroke="black" points="124,-0.5 124,-19.5 162,-19.5 162,-0.5 124,-0.5"/>
<text text-anchor="middle" x="143" y="-7.5" font-family="Helvetica,sans-Serif" font-size="10.00">rzero</text>
</a>
</g>
</g>
<!-- Node1&#45;&gt;Node12 -->
<g id="edge11" class="edge">
<title>Node1&#45;&gt;Node12</title>
<path fill="none" stroke="midnightblue" d="M49.29,-114.3C61.98,-96.5 90.58,-57.78 119,-29 119.9,-28.09 120.84,-27.17 121.81,-26.27"/>
<polygon fill="midnightblue" stroke="midnightblue" points="124.19,-28.83 129.42,-19.62 119.59,-23.56 124.19,-28.83"/>
</g>
<!-- Node3 -->
<g id="node3" class="node">
<title>Node3</title>
<g id="a_node3"><a xlink:href="comm__mpi_8f.html#a4acb4d8e379294232e9219bec063d8f3" target="_top" xlink:title=" ">
<polygon fill="white" stroke="red" points="203,-228.5 203,-247.5 262,-247.5 262,-228.5 203,-228.5"/>
<text text-anchor="middle" x="232.5" y="-235.5" font-family="Helvetica,sans-Serif" font-size="10.00">nekgsync</text>
</a>
</g>
</g>
<!-- Node2&#45;&gt;Node3 -->
<g id="edge2" class="edge">
<title>Node2&#45;&gt;Node3</title>
<path fill="none" stroke="midnightblue" d="M162.13,-238C171.01,-238 182.06,-238 192.71,-238"/>
<polygon fill="midnightblue" stroke="midnightblue" points="192.71,-241.5 202.71,-238 192.71,-234.5 192.71,-241.5"/>
</g>
<!-- Node6 -->
<g id="node5" class="node">
<title>Node6</title>
<g id="a_node5"><a xlink:href="connect1_8f.html#aa6d2ebf2dfdfeae458d41ef4cb6d9fae" target="_top" xlink:title=" ">
<polygon fill="white" stroke="black" points="212,-114.5 212,-133.5 253,-133.5 253,-114.5 212,-114.5"/>
<text text-anchor="middle" x="232.5" y="-121.5" font-family="Helvetica,sans-Serif" font-size="10.00">dsset</text>
</a>
</g>
</g>
<!-- Node5&#45;&gt;Node6 -->
<g id="edge4" class="edge">
<title>Node5&#45;&gt;Node6</title>
<path fill="none" stroke="midnightblue" d="M155.76,-190.41C159.39,-187.42 163.38,-184.1 167,-181 182.66,-167.62 200.15,-152.13 212.96,-140.67"/>
<polygon fill="midnightblue" stroke="midnightblue" points="215.53,-143.07 220.64,-133.79 210.86,-137.86 215.53,-143.07"/>
</g>
<!-- Node9&#45;&gt;Node6 -->
<g id="edge7" class="edge">
<title>Node9&#45;&gt;Node6</title>
<path fill="none" stroke="midnightblue" d="M167.45,-124C177.96,-124 190.48,-124 201.65,-124"/>
<polygon fill="midnightblue" stroke="midnightblue" points="201.84,-127.5 211.84,-124 201.84,-120.5 201.84,-127.5"/>
</g>
<!-- Node10&#45;&gt;Node6 -->
<g id="edge9" class="edge">
<title>Node10&#45;&gt;Node6</title>
<path fill="none" stroke="midnightblue" d="M165.18,-95.2C176.36,-100.05 190.24,-106.08 202.4,-111.36"/>
<polygon fill="midnightblue" stroke="midnightblue" points="201.15,-114.63 211.71,-115.41 203.94,-108.21 201.15,-114.63"/>
</g>
</g>
</svg>
