<?xml version="1.0" encoding="UTF-8" standalone="no"?>
<!DOCTYPE svg PUBLIC "-//W3C//DTD SVG 1.1//EN"
 "http://www.w3.org/Graphics/SVG/1.1/DTD/svg11.dtd">
<!-- Generated by graphviz version 2.46.0 (0)
 -->
<!-- Title: cv_upd_v Pages: 1 -->
<svg width="430pt" height="66pt"
 viewBox="0.00 0.00 430.00 66.00" xmlns="http://www.w3.org/2000/svg" xmlns:xlink="http://www.w3.org/1999/xlink">
<g id="graph0" class="graph" transform="scale(1 1) rotate(0) translate(4 62)">
<title>cv_upd_v</title>
<polygon fill="white" stroke="transparent" points="-4,4 -4,-62 426,-62 426,4 -4,4"/>
<!-- Node1 -->
<g id="node1" class="node">
<title>Node1</title>
<g id="a_node1"><a xlink:title=" ">
<polygon fill="#bfbfbf" stroke="black" points="0,-19.5 0,-38.5 59,-38.5 59,-19.5 0,-19.5"/>
<text text-anchor="middle" x="29.5" y="-26.5" font-family="Helvetica,sans-Serif" font-size="10.00">cv_upd_v</text>
</a>
</g>
</g>
<!-- Node2 -->
<g id="node2" class="node">
<title>Node2</title>
<g id="a_node2"><a xlink:href="plan4_8f.html#a8b108456b0f09d13fd66b6eda4c97ac6" target="_top" xlink:title=" ">
<polygon fill="white" stroke="black" points="95,-19.5 95,-38.5 141,-38.5 141,-19.5 95,-19.5"/>
<text text-anchor="middle" x="118" y="-26.5" font-family="Helvetica,sans-Serif" font-size="10.00">sumab</text>
</a>
</g>
</g>
<!-- Node1&#45;&gt;Node2 -->
<g id="edge1" class="edge">
<title>Node1&#45;&gt;Node2</title>
<path fill="none" stroke="midnightblue" d="M59.3,-29C67.46,-29 76.39,-29 84.73,-29"/>
<polygon fill="midnightblue" stroke="midnightblue" points="84.89,-32.5 94.89,-29 84.89,-25.5 84.89,-32.5"/>
</g>
<!-- Node3 -->
<g id="node3" class="node">
<title>Node3</title>
<g id="a_node3"><a xlink:href="math_8f.html#a34a2c89ac31311482e2ec34fbb7c5a7a" target="_top" xlink:title=" ">
<polygon fill="white" stroke="black" points="177,-38.5 177,-57.5 225,-57.5 225,-38.5 177,-38.5"/>
<text text-anchor="middle" x="201" y="-45.5" font-family="Helvetica,sans-Serif" font-size="10.00">add2s2</text>
</a>
</g>
</g>
<!-- Node2&#45;&gt;Node3 -->
<g id="edge2" class="edge">
<title>Node2&#45;&gt;Node3</title>
<path fill="none" stroke="midnightblue" d="M141.13,-34.19C149.08,-36.06 158.22,-38.2 166.89,-40.23"/>
<polygon fill="midnightblue" stroke="midnightblue" points="166.23,-43.67 176.76,-42.55 167.83,-36.86 166.23,-43.67"/>
</g>
<!-- Node6 -->
<g id="node6" class="node">
<title>Node6</title>
<g id="a_node6"><a xlink:href="math_8f.html#ac62ce88420771d0183fa4e9182f250dc" target="_top" xlink:title=" ">
<polygon fill="white" stroke="black" points="177,-0.5 177,-19.5 225,-19.5 225,-0.5 177,-0.5"/>
<text text-anchor="middle" x="201" y="-7.5" font-family="Helvetica,sans-Serif" font-size="10.00">add3s2</text>
</a>
</g>
</g>
<!-- Node2&#45;&gt;Node6 -->
<g id="edge5" class="edge">
<title>Node2&#45;&gt;Node6</title>
<path fill="none" stroke="midnightblue" d="M141.13,-23.81C149.08,-21.94 158.22,-19.8 166.89,-17.77"/>
<polygon fill="midnightblue" stroke="midnightblue" points="167.83,-21.14 176.76,-15.45 166.23,-14.33 167.83,-21.14"/>
</g>
<!-- Node4 -->
<g id="node4" class="node">
<title>Node4</title>
<g id="a_node4"><a xlink:href="comm__mpi_8f.html#af06ec29f06aac3f8809e19de2a7e8946" target="_top" xlink:title=" ">
<polygon fill="white" stroke="black" points="261,-38.5 261,-57.5 322,-57.5 322,-38.5 261,-38.5"/>
<text text-anchor="middle" x="291.5" y="-45.5" font-family="Helvetica,sans-Serif" font-size="10.00">dnekclock</text>
</a>
</g>
</g>
<!-- Node3&#45;&gt;Node4 -->
<g id="edge3" class="edge">
<title>Node3&#45;&gt;Node4</title>
<path fill="none" stroke="midnightblue" d="M225.25,-48C233.06,-48 241.99,-48 250.7,-48"/>
<polygon fill="midnightblue" stroke="midnightblue" points="250.73,-51.5 260.73,-48 250.73,-44.5 250.73,-51.5"/>
</g>
<!-- Node5 -->
<g id="node5" class="node">
<title>Node5</title>
<g id="a_node5"><a xlink:href="mpi__dummy_8f.html#ae6a5ef945f87c2c27849696b70f3af2a" target="_top" xlink:title=" ">
<polygon fill="white" stroke="black" points="358,-38.5 358,-57.5 422,-57.5 422,-38.5 358,-38.5"/>
<text text-anchor="middle" x="390" y="-45.5" font-family="Helvetica,sans-Serif" font-size="10.00">mpi_wtime</text>
</a>
</g>
</g>
<!-- Node4&#45;&gt;Node5 -->
<g id="edge4" class="edge">
<title>Node4&#45;&gt;Node5</title>
<path fill="none" stroke="midnightblue" d="M322.24,-48C330.27,-48 339.11,-48 347.65,-48"/>
<polygon fill="midnightblue" stroke="midnightblue" points="347.85,-51.5 357.85,-48 347.85,-44.5 347.85,-51.5"/>
</g>
</g>
</svg>
