<?xml version="1.0" encoding="UTF-8" standalone="no"?>
<!DOCTYPE svg PUBLIC "-//W3C//DTD SVG 1.1//EN"
 "http://www.w3.org/Graphics/SVG/1.1/DTD/svg11.dtd">
<!-- Generated by graphviz version 2.46.0 (0)
 -->
<!-- Title: daxpy Pages: 1 -->
<svg width="217pt" height="256pt"
 viewBox="0.00 0.00 217.00 256.00" xmlns="http://www.w3.org/2000/svg" xmlns:xlink="http://www.w3.org/1999/xlink">
<g id="graph0" class="graph" transform="scale(1 1) rotate(0) translate(4 252)">
<title>daxpy</title>
<polygon fill="white" stroke="transparent" points="-4,4 -4,-252 213,-252 213,4 -4,4"/>
<!-- Node1 -->
<g id="node1" class="node">
<title>Node1</title>
<g id="a_node1"><a xlink:title=" ">
<polygon fill="#bfbfbf" stroke="black" points="166,-114.5 166,-133.5 209,-133.5 209,-114.5 166,-114.5"/>
<text text-anchor="middle" x="187.5" y="-121.5" font-family="Helvetica,sans-Serif" font-size="10.00">daxpy</text>
</a>
</g>
</g>
<!-- Node2 -->
<g id="node2" class="node">
<title>Node2</title>
<g id="a_node2"><a xlink:href="dlahrd_8f.html#a78226eb6548e718c68940e25709dc36b" target="_top" xlink:title=" ">
<polygon fill="white" stroke="black" points="84.5,-228.5 84.5,-247.5 127.5,-247.5 127.5,-228.5 84.5,-228.5"/>
<text text-anchor="middle" x="106" y="-235.5" font-family="Helvetica,sans-Serif" font-size="10.00">dlahrd</text>
</a>
</g>
</g>
<!-- Node1&#45;&gt;Node2 -->
<g id="edge1" class="edge">
<title>Node1&#45;&gt;Node2</title>
<path fill="none" stroke="midnightblue" d="M177.83,-142.64C167.96,-162.74 150.51,-195.07 130,-219 127.17,-222.3 123.72,-225.49 120.36,-228.27"/>
<polygon fill="midnightblue" stroke="midnightblue" points="181,-144.13 182.17,-133.6 174.69,-141.1 181,-144.13"/>
</g>
<!-- Node5 -->
<g id="node4" class="node">
<title>Node5</title>
<g id="a_node4"><a xlink:href="dlatrd_8f.html#a331dd66010736c74b3e4b219b06cf11b" target="_top" xlink:title=" ">
<polygon fill="white" stroke="black" points="85.5,-190.5 85.5,-209.5 126.5,-209.5 126.5,-190.5 85.5,-190.5"/>
<text text-anchor="middle" x="106" y="-197.5" font-family="Helvetica,sans-Serif" font-size="10.00">dlatrd</text>
</a>
</g>
</g>
<!-- Node1&#45;&gt;Node5 -->
<g id="edge3" class="edge">
<title>Node1&#45;&gt;Node5</title>
<path fill="none" stroke="midnightblue" d="M170.63,-140.87C159.53,-152.45 144.21,-168.02 130,-181 126.63,-184.07 122.87,-187.28 119.37,-190.16"/>
<polygon fill="midnightblue" stroke="midnightblue" points="173.22,-143.23 177.58,-133.57 168.15,-138.4 173.22,-143.23"/>
</g>
<!-- Node92 -->
<g id="node6" class="node">
<title>Node92</title>
<g id="a_node6"><a xlink:href="dlatrs_8f.html#aa495c9c519906a3053f0ec56d702ef5f" target="_top" xlink:title=" ">
<polygon fill="white" stroke="red" points="85.5,-152.5 85.5,-171.5 126.5,-171.5 126.5,-152.5 85.5,-152.5"/>
<text text-anchor="middle" x="106" y="-159.5" font-family="Helvetica,sans-Serif" font-size="10.00">dlatrs</text>
</a>
</g>
</g>
<!-- Node1&#45;&gt;Node92 -->
<g id="edge5" class="edge">
<title>Node1&#45;&gt;Node92</title>
<path fill="none" stroke="midnightblue" d="M157.37,-137.92C147.1,-142.83 135.79,-148.24 126.51,-152.68"/>
<polygon fill="midnightblue" stroke="midnightblue" points="158.93,-141.06 166.44,-133.59 155.91,-134.74 158.93,-141.06"/>
</g>
<!-- Node94 -->
<g id="node7" class="node">
<title>Node94</title>
<g id="a_node7"><a xlink:href="dsygs2_8f.html#a4ac61c8e385266015e852e25c060cdb0" target="_top" xlink:title=" ">
<polygon fill="white" stroke="red" points="82,-114.5 82,-133.5 130,-133.5 130,-114.5 82,-114.5"/>
<text text-anchor="middle" x="106" y="-121.5" font-family="Helvetica,sans-Serif" font-size="10.00">dsygs2</text>
</a>
</g>
</g>
<!-- Node1&#45;&gt;Node94 -->
<g id="edge6" class="edge">
<title>Node1&#45;&gt;Node94</title>
<path fill="none" stroke="midnightblue" d="M155.42,-124C147.04,-124 138.13,-124 130.27,-124"/>
<polygon fill="midnightblue" stroke="midnightblue" points="155.61,-127.5 165.61,-124 155.61,-120.5 155.61,-127.5"/>
</g>
<!-- Node96 -->
<g id="node8" class="node">
<title>Node96</title>
<g id="a_node8"><a xlink:href="dsyrfs_8f.html#ad62575e82d54e086a0797a1af1b52e85" target="_top" xlink:title=" ">
<polygon fill="white" stroke="black" points="84,-76.5 84,-95.5 128,-95.5 128,-76.5 84,-76.5"/>
<text text-anchor="middle" x="106" y="-83.5" font-family="Helvetica,sans-Serif" font-size="10.00">dsyrfs</text>
</a>
</g>
</g>
<!-- Node1&#45;&gt;Node96 -->
<g id="edge7" class="edge">
<title>Node1&#45;&gt;Node96</title>
<path fill="none" stroke="midnightblue" d="M157.21,-110C147.17,-105.2 136.19,-99.95 127.05,-95.59"/>
<polygon fill="midnightblue" stroke="midnightblue" points="155.91,-113.26 166.44,-114.41 158.93,-106.94 155.91,-113.26"/>
</g>
<!-- Node97 -->
<g id="node9" class="node">
<title>Node97</title>
<g id="a_node9"><a xlink:href="dsytd2_8f.html#a5ce2d4703eeccf51cc89171b375c796f" target="_top" xlink:title=" ">
<polygon fill="white" stroke="black" points="83,-38.5 83,-57.5 129,-57.5 129,-38.5 83,-38.5"/>
<text text-anchor="middle" x="106" y="-45.5" font-family="Helvetica,sans-Serif" font-size="10.00">dsytd2</text>
</a>
</g>
</g>
<!-- Node1&#45;&gt;Node97 -->
<g id="edge8" class="edge">
<title>Node1&#45;&gt;Node97</title>
<path fill="none" stroke="midnightblue" d="M170.63,-107.13C159.53,-95.55 144.21,-79.98 130,-67 126.63,-63.93 122.87,-60.72 119.37,-57.84"/>
<polygon fill="midnightblue" stroke="midnightblue" points="168.15,-109.6 177.58,-114.43 173.22,-104.77 168.15,-109.6"/>
</g>
<!-- Node98 -->
<g id="node10" class="node">
<title>Node98</title>
<g id="a_node10"><a xlink:href="dtrevc_8f.html#a9b4b6d9f16d6869eff87fd28958e3582" target="_top" xlink:title=" ">
<polygon fill="white" stroke="red" points="84,-0.5 84,-19.5 128,-19.5 128,-0.5 84,-0.5"/>
<text text-anchor="middle" x="106" y="-7.5" font-family="Helvetica,sans-Serif" font-size="10.00">dtrevc</text>
</a>
</g>
</g>
<!-- Node1&#45;&gt;Node98 -->
<g id="edge10" class="edge">
<title>Node1&#45;&gt;Node98</title>
<path fill="none" stroke="midnightblue" d="M177.83,-105.36C167.96,-85.26 150.51,-52.93 130,-29 127.17,-25.7 123.72,-22.51 120.36,-19.73"/>
<polygon fill="midnightblue" stroke="midnightblue" points="174.69,-106.9 182.17,-114.4 181,-103.87 174.69,-106.9"/>
</g>
<!-- Node3 -->
<g id="node3" class="node">
<title>Node3</title>
<g id="a_node3"><a xlink:href="dgehrd_8f.html#a2611cc9dfdc84e2a08ec57a5dd6cdd2e" target="_top" xlink:title=" ">
<polygon fill="white" stroke="red" points="0,-228.5 0,-247.5 46,-247.5 46,-228.5 0,-228.5"/>
<text text-anchor="middle" x="23" y="-235.5" font-family="Helvetica,sans-Serif" font-size="10.00">dgehrd</text>
</a>
</g>
</g>
<!-- Node2&#45;&gt;Node3 -->
<g id="edge2" class="edge">
<title>Node2&#45;&gt;Node3</title>
<path fill="none" stroke="midnightblue" d="M74.08,-238C64.8,-238 54.81,-238 46.21,-238"/>
<polygon fill="midnightblue" stroke="midnightblue" points="74.14,-241.5 84.14,-238 74.14,-234.5 74.14,-241.5"/>
</g>
<!-- Node6 -->
<g id="node5" class="node">
<title>Node6</title>
<g id="a_node5"><a xlink:href="dsytrd_8f.html#aefcd0b153f8e0c36b510af4364a12cd2" target="_top" xlink:title=" ">
<polygon fill="white" stroke="red" points="1,-114.5 1,-133.5 45,-133.5 45,-114.5 1,-114.5"/>
<text text-anchor="middle" x="23" y="-121.5" font-family="Helvetica,sans-Serif" font-size="10.00">dsytrd</text>
</a>
</g>
</g>
<!-- Node5&#45;&gt;Node6 -->
<g id="edge4" class="edge">
<title>Node5&#45;&gt;Node6</title>
<path fill="none" stroke="midnightblue" d="M84.93,-183.6C83.94,-182.73 82.95,-181.86 82,-181 64.17,-164.93 44.45,-145.07 33.2,-133.54"/>
<polygon fill="midnightblue" stroke="midnightblue" points="82.76,-186.35 92.66,-190.13 87.28,-181 82.76,-186.35"/>
</g>
<!-- Node97&#45;&gt;Node6 -->
<g id="edge9" class="edge">
<title>Node97&#45;&gt;Node6</title>
<path fill="none" stroke="midnightblue" d="M84.93,-64.4C83.94,-65.27 82.95,-66.14 82,-67 64.17,-83.07 44.45,-102.93 33.2,-114.46"/>
<polygon fill="midnightblue" stroke="midnightblue" points="87.28,-67 92.66,-57.87 82.76,-61.65 87.28,-67"/>
</g>
</g>
</svg>
