<?xml version="1.0" encoding="UTF-8" standalone="no"?>
<!DOCTYPE svg PUBLIC "-//W3C//DTD SVG 1.1//EN"
 "http://www.w3.org/Graphics/SVG/1.1/DTD/svg11.dtd">
<!-- Generated by graphviz version 2.46.0 (0)
 -->
<!-- Title: dgecon Pages: 1 -->
<svg width="297pt" height="256pt"
 viewBox="0.00 0.00 297.00 256.00" xmlns="http://www.w3.org/2000/svg" xmlns:xlink="http://www.w3.org/1999/xlink">
<g id="graph0" class="graph" transform="scale(1 1) rotate(0) translate(4 252)">
<title>dgecon</title>
<polygon fill="white" stroke="transparent" points="-4,4 -4,-252 293,-252 293,4 -4,4"/>
<!-- Node1 -->
<g id="node1" class="node">
<title>Node1</title>
<g id="a_node1"><a xlink:title=" ">
<polygon fill="#bfbfbf" stroke="black" points="0,-152.5 0,-171.5 48,-171.5 48,-152.5 0,-152.5"/>
<text text-anchor="middle" x="24" y="-159.5" font-family="Helvetica,sans-Serif" font-size="10.00">dgecon</text>
</a>
</g>
</g>
<!-- Node2 -->
<g id="node2" class="node">
<title>Node2</title>
<g id="a_node2"><a xlink:href="dlacon_8f.html#aab73b5456fe2ae079f549904132126b8" target="_top" xlink:title=" ">
<polygon fill="white" stroke="black" points="84,-228.5 84,-247.5 129,-247.5 129,-228.5 84,-228.5"/>
<text text-anchor="middle" x="106.5" y="-235.5" font-family="Helvetica,sans-Serif" font-size="10.00">dlacon</text>
</a>
</g>
</g>
<!-- Node1&#45;&gt;Node2 -->
<g id="edge1" class="edge">
<title>Node1&#45;&gt;Node2</title>
<path fill="none" stroke="midnightblue" d="M35.2,-171.63C48.38,-184.07 71.57,-205.96 87.69,-221.19"/>
<polygon fill="midnightblue" stroke="midnightblue" points="85.71,-224.13 95.39,-228.45 90.52,-219.04 85.71,-224.13"/>
</g>
<!-- Node4 -->
<g id="node4" class="node">
<title>Node4</title>
<g id="a_node4"><a xlink:href="dlatrs_8f.html#aa495c9c519906a3053f0ec56d702ef5f" target="_top" xlink:title=" ">
<polygon fill="white" stroke="black" points="86,-114.5 86,-133.5 127,-133.5 127,-114.5 86,-114.5"/>
<text text-anchor="middle" x="106.5" y="-121.5" font-family="Helvetica,sans-Serif" font-size="10.00">dlatrs</text>
</a>
</g>
</g>
<!-- Node1&#45;&gt;Node4 -->
<g id="edge3" class="edge">
<title>Node1&#45;&gt;Node4</title>
<path fill="none" stroke="midnightblue" d="M45.31,-152.41C54.8,-147.93 66.26,-142.52 76.63,-137.63"/>
<polygon fill="midnightblue" stroke="midnightblue" points="78.2,-140.76 85.75,-133.32 75.21,-134.43 78.2,-140.76"/>
</g>
<!-- Node8 -->
<g id="node8" class="node">
<title>Node8</title>
<g id="a_node8"><a xlink:href="xerbla_8f.html#a377ee61015baf8dea7770b3a404b1c07" target="_top" xlink:title=" ">
<polygon fill="white" stroke="black" points="246,-114.5 246,-133.5 289,-133.5 289,-114.5 246,-114.5"/>
<text text-anchor="middle" x="267.5" y="-121.5" font-family="Helvetica,sans-Serif" font-size="10.00">xerbla</text>
</a>
</g>
</g>
<!-- Node1&#45;&gt;Node8 -->
<g id="edge12" class="edge">
<title>Node1&#45;&gt;Node8</title>
<path fill="none" stroke="midnightblue" d="M48.25,-171.3C84.36,-184.25 155.46,-203.73 210,-181 228.81,-173.16 244.57,-155.67 254.62,-142.12"/>
<polygon fill="midnightblue" stroke="midnightblue" points="257.77,-143.74 260.64,-133.54 252.03,-139.72 257.77,-143.74"/>
</g>
<!-- Node9 -->
<g id="node9" class="node">
<title>Node9</title>
<g id="a_node9"><a xlink:href="drscl_8f.html#a662e4c4f54a2670dd8408f6b6b306dec" target="_top" xlink:title=" ">
<polygon fill="white" stroke="black" points="87.5,-38.5 87.5,-57.5 125.5,-57.5 125.5,-38.5 87.5,-38.5"/>
<text text-anchor="middle" x="106.5" y="-45.5" font-family="Helvetica,sans-Serif" font-size="10.00">drscl</text>
</a>
</g>
</g>
<!-- Node1&#45;&gt;Node9 -->
<g id="edge9" class="edge">
<title>Node1&#45;&gt;Node9</title>
<path fill="none" stroke="midnightblue" d="M31.86,-152.28C45.35,-133.18 75.49,-90.5 92.74,-66.08"/>
<polygon fill="midnightblue" stroke="midnightblue" points="95.74,-67.88 98.65,-57.69 90.03,-63.84 95.74,-67.88"/>
</g>
<!-- Node3 -->
<g id="node3" class="node">
<title>Node3</title>
<g id="a_node3"><a xlink:href="dcopy_8f.html#afc29c83942509cba5f3764115f0471d5" target="_top" xlink:title=" ">
<polygon fill="white" stroke="black" points="166,-228.5 166,-247.5 209,-247.5 209,-228.5 166,-228.5"/>
<text text-anchor="middle" x="187.5" y="-235.5" font-family="Helvetica,sans-Serif" font-size="10.00">dcopy</text>
</a>
</g>
</g>
<!-- Node2&#45;&gt;Node3 -->
<g id="edge2" class="edge">
<title>Node2&#45;&gt;Node3</title>
<path fill="none" stroke="midnightblue" d="M129.09,-238C137.3,-238 146.81,-238 155.71,-238"/>
<polygon fill="midnightblue" stroke="midnightblue" points="155.76,-241.5 165.76,-238 155.76,-234.5 155.76,-241.5"/>
</g>
<!-- Node5 -->
<g id="node5" class="node">
<title>Node5</title>
<g id="a_node5"><a xlink:href="daxpy_8f.html#adb136e14634fe4b772a0b034f52f3939" target="_top" xlink:title=" ">
<polygon fill="white" stroke="black" points="166,-152.5 166,-171.5 209,-171.5 209,-152.5 166,-152.5"/>
<text text-anchor="middle" x="187.5" y="-159.5" font-family="Helvetica,sans-Serif" font-size="10.00">daxpy</text>
</a>
</g>
</g>
<!-- Node4&#45;&gt;Node5 -->
<g id="edge4" class="edge">
<title>Node4&#45;&gt;Node5</title>
<path fill="none" stroke="midnightblue" d="M127.03,-133.39C136.17,-137.79 147.25,-143.12 157.35,-147.98"/>
<polygon fill="midnightblue" stroke="midnightblue" points="156.12,-151.27 166.65,-152.45 159.15,-144.96 156.12,-151.27"/>
</g>
<!-- Node6 -->
<g id="node6" class="node">
<title>Node6</title>
<g id="a_node6"><a xlink:href="dscal_8f.html#a0590f8db475e11dc2c9137bb13887acf" target="_top" xlink:title=" ">
<polygon fill="white" stroke="black" points="167.5,-38.5 167.5,-57.5 207.5,-57.5 207.5,-38.5 167.5,-38.5"/>
<text text-anchor="middle" x="187.5" y="-45.5" font-family="Helvetica,sans-Serif" font-size="10.00">dscal</text>
</a>
</g>
</g>
<!-- Node4&#45;&gt;Node6 -->
<g id="edge5" class="edge">
<title>Node4&#45;&gt;Node6</title>
<path fill="none" stroke="midnightblue" d="M117.1,-114.15C128.38,-102.64 147.76,-83.14 165,-67 165.94,-66.12 166.91,-65.22 167.9,-64.32"/>
<polygon fill="midnightblue" stroke="midnightblue" points="170.34,-66.83 175.45,-57.55 165.67,-61.62 170.34,-66.83"/>
</g>
<!-- Node7 -->
<g id="node7" class="node">
<title>Node7</title>
<g id="a_node7"><a xlink:href="dtrsv_8f.html#ad2a01dd62718b28e35b752dbad8474ab" target="_top" xlink:title=" ">
<polygon fill="white" stroke="black" points="168.5,-76.5 168.5,-95.5 206.5,-95.5 206.5,-76.5 168.5,-76.5"/>
<text text-anchor="middle" x="187.5" y="-83.5" font-family="Helvetica,sans-Serif" font-size="10.00">dtrsv</text>
</a>
</g>
</g>
<!-- Node4&#45;&gt;Node7 -->
<g id="edge6" class="edge">
<title>Node4&#45;&gt;Node7</title>
<path fill="none" stroke="midnightblue" d="M127.03,-114.61C136.68,-109.96 148.5,-104.28 159.05,-99.21"/>
<polygon fill="midnightblue" stroke="midnightblue" points="160.79,-102.25 168.28,-94.76 157.75,-95.94 160.79,-102.25"/>
</g>
<!-- Node4&#45;&gt;Node8 -->
<g id="edge8" class="edge">
<title>Node4&#45;&gt;Node8</title>
<path fill="none" stroke="midnightblue" d="M127.32,-124C154.54,-124 203.77,-124 235.79,-124"/>
<polygon fill="midnightblue" stroke="midnightblue" points="235.93,-127.5 245.93,-124 235.93,-120.5 235.93,-127.5"/>
</g>
<!-- Node7&#45;&gt;Node8 -->
<g id="edge7" class="edge">
<title>Node7&#45;&gt;Node8</title>
<path fill="none" stroke="midnightblue" d="M206.59,-94.81C215.83,-99.31 227.28,-104.89 237.69,-109.97"/>
<polygon fill="midnightblue" stroke="midnightblue" points="236.34,-113.2 246.87,-114.44 239.41,-106.91 236.34,-113.2"/>
</g>
<!-- Node9&#45;&gt;Node6 -->
<g id="edge11" class="edge">
<title>Node9&#45;&gt;Node6</title>
<path fill="none" stroke="midnightblue" d="M125.82,-48C135.19,-48 146.81,-48 157.37,-48"/>
<polygon fill="midnightblue" stroke="midnightblue" points="157.45,-51.5 167.45,-48 157.45,-44.5 157.45,-51.5"/>
</g>
<!-- Node10 -->
<g id="node10" class="node">
<title>Node10</title>
<g id="a_node10"><a xlink:href="dlabad_8f.html#a57ac7409aedb2a380d5d0e625ffbeb7a" target="_top" xlink:title=" ">
<polygon fill="white" stroke="black" points="165,-0.5 165,-19.5 210,-19.5 210,-0.5 165,-0.5"/>
<text text-anchor="middle" x="187.5" y="-7.5" font-family="Helvetica,sans-Serif" font-size="10.00">dlabad</text>
</a>
</g>
</g>
<!-- Node9&#45;&gt;Node10 -->
<g id="edge10" class="edge">
<title>Node9&#45;&gt;Node10</title>
<path fill="none" stroke="midnightblue" d="M125.82,-39.19C135.18,-34.69 146.78,-29.11 157.32,-24.03"/>
<polygon fill="midnightblue" stroke="midnightblue" points="159.12,-27.05 166.62,-19.56 156.09,-20.75 159.12,-27.05"/>
</g>
</g>
</svg>
