<?xml version="1.0" encoding="UTF-8" standalone="no"?>
<!DOCTYPE svg PUBLIC "-//W3C//DTD SVG 1.1//EN"
 "http://www.w3.org/Graphics/SVG/1.1/DTD/svg11.dtd">
<!-- Generated by graphviz version 2.46.0 (0)
 -->
<!-- Title: dgehd2 Pages: 1 -->
<svg width="294pt" height="142pt"
 viewBox="0.00 0.00 294.00 142.00" xmlns="http://www.w3.org/2000/svg" xmlns:xlink="http://www.w3.org/1999/xlink">
<g id="graph0" class="graph" transform="scale(1 1) rotate(0) translate(4 138)">
<title>dgehd2</title>
<polygon fill="white" stroke="transparent" points="-4,4 -4,-138 290,-138 290,4 -4,4"/>
<!-- Node1 -->
<g id="node1" class="node">
<title>Node1</title>
<g id="a_node1"><a xlink:title=" ">
<polygon fill="#bfbfbf" stroke="black" points="0,-38.5 0,-57.5 48,-57.5 48,-38.5 0,-38.5"/>
<text text-anchor="middle" x="24" y="-45.5" font-family="Helvetica,sans-Serif" font-size="10.00">dgehd2</text>
</a>
</g>
</g>
<!-- Node2 -->
<g id="node2" class="node">
<title>Node2</title>
<g id="a_node2"><a xlink:href="dlarf_8f.html#a39a2b39f56ce497b218c5f48339ee712" target="_top" xlink:title=" ">
<polygon fill="white" stroke="black" points="87,-76.5 87,-95.5 122,-95.5 122,-76.5 87,-76.5"/>
<text text-anchor="middle" x="104.5" y="-83.5" font-family="Helvetica,sans-Serif" font-size="10.00">dlarf</text>
</a>
</g>
</g>
<!-- Node1&#45;&gt;Node2 -->
<g id="edge1" class="edge">
<title>Node1&#45;&gt;Node2</title>
<path fill="none" stroke="midnightblue" d="M44.81,-57.59C54.75,-62.4 66.93,-68.3 77.6,-73.46"/>
<polygon fill="midnightblue" stroke="midnightblue" points="76.36,-76.75 86.88,-77.96 79.41,-70.45 76.36,-76.75"/>
</g>
<!-- Node4 -->
<g id="node4" class="node">
<title>Node4</title>
<g id="a_node4"><a xlink:href="xerbla_8f.html#a377ee61015baf8dea7770b3a404b1c07" target="_top" xlink:title=" ">
<polygon fill="white" stroke="black" points="243,-76.5 243,-95.5 286,-95.5 286,-76.5 243,-76.5"/>
<text text-anchor="middle" x="264.5" y="-83.5" font-family="Helvetica,sans-Serif" font-size="10.00">xerbla</text>
</a>
</g>
</g>
<!-- Node1&#45;&gt;Node4 -->
<g id="edge8" class="edge">
<title>Node1&#45;&gt;Node4</title>
<path fill="none" stroke="midnightblue" d="M48.24,-48.79C83.1,-50.34 150.81,-54.78 207,-67 215.72,-68.9 224.98,-71.67 233.42,-74.52"/>
<polygon fill="midnightblue" stroke="midnightblue" points="232.28,-77.83 242.88,-77.85 234.61,-71.23 232.28,-77.83"/>
</g>
<!-- Node6 -->
<g id="node6" class="node">
<title>Node6</title>
<g id="a_node6"><a xlink:href="dlarfg_8f.html#aabb59655e820b3551af27781bd716143" target="_top" xlink:title=" ">
<polygon fill="white" stroke="black" points="84,-0.5 84,-19.5 125,-19.5 125,-0.5 84,-0.5"/>
<text text-anchor="middle" x="104.5" y="-7.5" font-family="Helvetica,sans-Serif" font-size="10.00">dlarfg</text>
</a>
</g>
</g>
<!-- Node1&#45;&gt;Node6 -->
<g id="edge6" class="edge">
<title>Node1&#45;&gt;Node6</title>
<path fill="none" stroke="midnightblue" d="M44.81,-38.41C53.9,-34.01 64.84,-28.71 74.81,-23.89"/>
<polygon fill="midnightblue" stroke="midnightblue" points="76.49,-26.96 83.97,-19.45 73.44,-20.66 76.49,-26.96"/>
</g>
<!-- Node3 -->
<g id="node3" class="node">
<title>Node3</title>
<g id="a_node3"><a xlink:href="dgemv_8f.html#add421a107a488d524859b4a64c1901a9" target="_top" xlink:title=" ">
<polygon fill="white" stroke="black" points="161,-114.5 161,-133.5 207,-133.5 207,-114.5 161,-114.5"/>
<text text-anchor="middle" x="184" y="-121.5" font-family="Helvetica,sans-Serif" font-size="10.00">dgemv</text>
</a>
</g>
</g>
<!-- Node2&#45;&gt;Node3 -->
<g id="edge2" class="edge">
<title>Node2&#45;&gt;Node3</title>
<path fill="none" stroke="midnightblue" d="M122.32,-94.25C131.68,-98.84 143.6,-104.68 154.38,-109.97"/>
<polygon fill="midnightblue" stroke="midnightblue" points="152.96,-113.17 163.48,-114.43 156.04,-106.88 152.96,-113.17"/>
</g>
<!-- Node5 -->
<g id="node5" class="node">
<title>Node5</title>
<g id="a_node5"><a xlink:href="dger_8f.html#a458222e01b4d348e9b52b9343d52f828" target="_top" xlink:title=" ">
<polygon fill="white" stroke="black" points="166.5,-76.5 166.5,-95.5 201.5,-95.5 201.5,-76.5 166.5,-76.5"/>
<text text-anchor="middle" x="184" y="-83.5" font-family="Helvetica,sans-Serif" font-size="10.00">dger</text>
</a>
</g>
</g>
<!-- Node2&#45;&gt;Node5 -->
<g id="edge4" class="edge">
<title>Node2&#45;&gt;Node5</title>
<path fill="none" stroke="midnightblue" d="M122.32,-86C132.23,-86 145.01,-86 156.28,-86"/>
<polygon fill="midnightblue" stroke="midnightblue" points="156.48,-89.5 166.48,-86 156.48,-82.5 156.48,-89.5"/>
</g>
<!-- Node3&#45;&gt;Node4 -->
<g id="edge3" class="edge">
<title>Node3&#45;&gt;Node4</title>
<path fill="none" stroke="midnightblue" d="M204.81,-114.41C213.83,-110.05 224.68,-104.79 234.58,-100"/>
<polygon fill="midnightblue" stroke="midnightblue" points="236.22,-103.09 243.7,-95.59 233.17,-96.79 236.22,-103.09"/>
</g>
<!-- Node5&#45;&gt;Node4 -->
<g id="edge5" class="edge">
<title>Node5&#45;&gt;Node4</title>
<path fill="none" stroke="midnightblue" d="M201.65,-86C210.69,-86 222.17,-86 232.77,-86"/>
<polygon fill="midnightblue" stroke="midnightblue" points="232.96,-89.5 242.96,-86 232.96,-82.5 232.96,-89.5"/>
</g>
<!-- Node7 -->
<g id="node7" class="node">
<title>Node7</title>
<g id="a_node7"><a xlink:href="dscal_8f.html#a0590f8db475e11dc2c9137bb13887acf" target="_top" xlink:title=" ">
<polygon fill="white" stroke="black" points="164,-0.5 164,-19.5 204,-19.5 204,-0.5 164,-0.5"/>
<text text-anchor="middle" x="184" y="-7.5" font-family="Helvetica,sans-Serif" font-size="10.00">dscal</text>
</a>
</g>
</g>
<!-- Node6&#45;&gt;Node7 -->
<g id="edge7" class="edge">
<title>Node6&#45;&gt;Node7</title>
<path fill="none" stroke="midnightblue" d="M125.06,-10C133.82,-10 144.33,-10 153.98,-10"/>
<polygon fill="midnightblue" stroke="midnightblue" points="153.99,-13.5 163.99,-10 153.99,-6.5 153.99,-13.5"/>
</g>
</g>
</svg>
