<?xml version="1.0" encoding="UTF-8" standalone="no"?>
<!DOCTYPE svg PUBLIC "-//W3C//DTD SVG 1.1//EN"
 "http://www.w3.org/Graphics/SVG/1.1/DTD/svg11.dtd">
<!-- Generated by graphviz version 2.46.0 (0)
 -->
<!-- Title: dgesv Pages: 1 -->
<svg width="378pt" height="229pt"
 viewBox="0.00 0.00 378.00 229.10" xmlns="http://www.w3.org/2000/svg" xmlns:xlink="http://www.w3.org/1999/xlink">
<g id="graph0" class="graph" transform="scale(1 1) rotate(0) translate(4 225.1)">
<title>dgesv</title>
<polygon fill="white" stroke="transparent" points="-4,4 -4,-225.1 374,-225.1 374,4 -4,4"/>
<!-- Node1 -->
<g id="node1" class="node">
<title>Node1</title>
<g id="a_node1"><a xlink:title=" ">
<polygon fill="#bfbfbf" stroke="black" points="0,-175.67 0,-194.67 43,-194.67 43,-175.67 0,-175.67"/>
<text text-anchor="middle" x="21.5" y="-182.67" font-family="Helvetica,sans-Serif" font-size="10.00">dgesv</text>
</a>
</g>
</g>
<!-- Node2 -->
<g id="node2" class="node">
<title>Node2</title>
<g id="a_node2"><a xlink:href="dgetrf_8f.html#a0019443faea08275ca60a734d0593e60" target="_top" xlink:title=" ">
<polygon fill="white" stroke="black" points="80.5,-118.67 80.5,-137.67 121.5,-137.67 121.5,-118.67 80.5,-118.67"/>
<text text-anchor="middle" x="101" y="-125.67" font-family="Helvetica,sans-Serif" font-size="10.00">dgetrf</text>
</a>
</g>
</g>
<!-- Node1&#45;&gt;Node2 -->
<g id="edge1" class="edge">
<title>Node1&#45;&gt;Node2</title>
<path fill="none" stroke="midnightblue" d="M35.65,-175.5C47.41,-166.85 64.87,-154.01 78.63,-143.88"/>
<polygon fill="midnightblue" stroke="midnightblue" points="81.07,-146.44 87.05,-137.69 76.92,-140.8 81.07,-146.44"/>
</g>
<!-- Node4 -->
<g id="node4" class="node">
<title>Node4</title>
<g id="a_node4"><a xlink:href="xerbla_8f.html#a377ee61015baf8dea7770b3a404b1c07" target="_top" xlink:title=" ">
<polygon fill="white" stroke="black" points="327,-137.67 327,-156.67 370,-156.67 370,-137.67 327,-137.67"/>
<text text-anchor="middle" x="348.5" y="-144.67" font-family="Helvetica,sans-Serif" font-size="10.00">xerbla</text>
</a>
</g>
</g>
<!-- Node1&#45;&gt;Node4 -->
<g id="edge17" class="edge">
<title>Node1&#45;&gt;Node4</title>
<path fill="none" stroke="midnightblue" d="M43.22,-192.9C53.82,-196.66 66.98,-201.04 79,-204.17 134,-218.5 149.41,-224.45 206,-219.17 244.28,-215.6 256.97,-221.04 291,-203.17 308.49,-193.99 324.07,-177.59 334.41,-164.9"/>
<polygon fill="midnightblue" stroke="midnightblue" points="337.31,-166.88 340.7,-156.84 331.79,-162.57 337.31,-166.88"/>
</g>
<!-- Node11 -->
<g id="node10" class="node">
<title>Node11</title>
<g id="a_node10"><a xlink:href="dgetrs_8f.html#a58e332cb1b8ab770270843221a48296d" target="_top" xlink:title=" ">
<polygon fill="white" stroke="black" points="79,-175.67 79,-194.67 123,-194.67 123,-175.67 79,-175.67"/>
<text text-anchor="middle" x="101" y="-182.67" font-family="Helvetica,sans-Serif" font-size="10.00">dgetrs</text>
</a>
</g>
</g>
<!-- Node1&#45;&gt;Node11 -->
<g id="edge13" class="edge">
<title>Node1&#45;&gt;Node11</title>
<path fill="none" stroke="midnightblue" d="M43.27,-185.17C51.11,-185.17 60.21,-185.17 68.8,-185.17"/>
<polygon fill="midnightblue" stroke="midnightblue" points="68.9,-188.67 78.9,-185.17 68.9,-181.67 68.9,-188.67"/>
</g>
<!-- Node3 -->
<g id="node3" class="node">
<title>Node3</title>
<g id="a_node3"><a xlink:href="dgemm_8f.html#aeda3cbd99c8fb834a60a6412878226e1" target="_top" xlink:title=" ">
<polygon fill="white" stroke="black" points="242,-137.67 242,-156.67 291,-156.67 291,-137.67 242,-137.67"/>
<text text-anchor="middle" x="266.5" y="-144.67" font-family="Helvetica,sans-Serif" font-size="10.00">dgemm</text>
</a>
</g>
</g>
<!-- Node2&#45;&gt;Node3 -->
<g id="edge2" class="edge">
<title>Node2&#45;&gt;Node3</title>
<path fill="none" stroke="midnightblue" d="M121.69,-126.37C142.71,-124.87 176.92,-123.64 206,-128.17 214.7,-129.52 223.87,-131.93 232.34,-134.59"/>
<polygon fill="midnightblue" stroke="midnightblue" points="231.28,-137.92 241.88,-137.77 233.5,-131.28 231.28,-137.92"/>
</g>
<!-- Node2&#45;&gt;Node4 -->
<g id="edge12" class="edge">
<title>Node2&#45;&gt;Node4</title>
<path fill="none" stroke="midnightblue" d="M107.1,-118.54C115.85,-102.81 135.11,-71.42 159,-52.17 206.53,-13.86 240.09,19.52 291,-14.17 329.4,-39.58 341.78,-96.92 345.71,-127.34"/>
<polygon fill="midnightblue" stroke="midnightblue" points="342.26,-128.01 346.84,-137.56 349.22,-127.24 342.26,-128.01"/>
</g>
<!-- Node5 -->
<g id="node5" class="node">
<title>Node5</title>
<g id="a_node5"><a xlink:href="dgetf2_8f.html#a8360b5b2c819e19c82bfd7e6b8285f74" target="_top" xlink:title=" ">
<polygon fill="white" stroke="red" points="160.5,-61.67 160.5,-80.67 204.5,-80.67 204.5,-61.67 160.5,-61.67"/>
<text text-anchor="middle" x="182.5" y="-68.67" font-family="Helvetica,sans-Serif" font-size="10.00">dgetf2</text>
</a>
</g>
</g>
<!-- Node2&#45;&gt;Node5 -->
<g id="edge4" class="edge">
<title>Node2&#45;&gt;Node5</title>
<path fill="none" stroke="midnightblue" d="M115.49,-118.5C127.67,-109.76 145.8,-96.76 159.98,-86.59"/>
<polygon fill="midnightblue" stroke="midnightblue" points="162.13,-89.36 168.21,-80.69 158.05,-83.68 162.13,-89.36"/>
</g>
<!-- Node9 -->
<g id="node8" class="node">
<title>Node9</title>
<g id="a_node8"><a xlink:href="dlaswp_8f.html#a3ccc0cf84b0493bd9adcdc02fcff449f" target="_top" xlink:title=" ">
<polygon fill="white" stroke="black" points="159,-175.67 159,-194.67 206,-194.67 206,-175.67 159,-175.67"/>
<text text-anchor="middle" x="182.5" y="-182.67" font-family="Helvetica,sans-Serif" font-size="10.00">dlaswp</text>
</a>
</g>
</g>
<!-- Node2&#45;&gt;Node9 -->
<g id="edge9" class="edge">
<title>Node2&#45;&gt;Node9</title>
<path fill="none" stroke="midnightblue" d="M115.49,-137.84C127.67,-146.57 145.8,-159.57 159.98,-169.74"/>
<polygon fill="midnightblue" stroke="midnightblue" points="158.05,-172.66 168.21,-175.64 162.13,-166.97 158.05,-172.66"/>
</g>
<!-- Node10 -->
<g id="node9" class="node">
<title>Node10</title>
<g id="a_node9"><a xlink:href="dtrsm_8f.html#a6a0a7704f4a747562c1bd9487e89795c" target="_top" xlink:title=" ">
<polygon fill="white" stroke="black" points="162,-137.67 162,-156.67 203,-156.67 203,-137.67 162,-137.67"/>
<text text-anchor="middle" x="182.5" y="-144.67" font-family="Helvetica,sans-Serif" font-size="10.00">dtrsm</text>
</a>
</g>
</g>
<!-- Node2&#45;&gt;Node10 -->
<g id="edge10" class="edge">
<title>Node2&#45;&gt;Node10</title>
<path fill="none" stroke="midnightblue" d="M121.65,-132.86C130.73,-135.03 141.7,-137.66 151.76,-140.06"/>
<polygon fill="midnightblue" stroke="midnightblue" points="151.26,-143.54 161.8,-142.46 152.89,-136.73 151.26,-143.54"/>
</g>
<!-- Node3&#45;&gt;Node4 -->
<g id="edge3" class="edge">
<title>Node3&#45;&gt;Node4</title>
<path fill="none" stroke="midnightblue" d="M291.07,-147.17C299.13,-147.17 308.27,-147.17 316.81,-147.17"/>
<polygon fill="midnightblue" stroke="midnightblue" points="316.81,-150.67 326.81,-147.17 316.81,-143.67 316.81,-150.67"/>
</g>
<!-- Node5&#45;&gt;Node4 -->
<g id="edge8" class="edge">
<title>Node5&#45;&gt;Node4</title>
<path fill="none" stroke="midnightblue" d="M204.27,-80.79C232.98,-94.1 284.96,-118.19 317.78,-133.39"/>
<polygon fill="midnightblue" stroke="midnightblue" points="316.35,-136.59 326.9,-137.62 319.3,-130.24 316.35,-136.59"/>
</g>
<!-- Node6 -->
<g id="node6" class="node">
<title>Node6</title>
<g id="a_node6"><a xlink:href="dger_8f.html#a458222e01b4d348e9b52b9343d52f828" target="_top" xlink:title=" ">
<polygon fill="white" stroke="black" points="249,-23.67 249,-42.67 284,-42.67 284,-23.67 249,-23.67"/>
<text text-anchor="middle" x="266.5" y="-30.67" font-family="Helvetica,sans-Serif" font-size="10.00">dger</text>
</a>
</g>
</g>
<!-- Node5&#45;&gt;Node6 -->
<g id="edge5" class="edge">
<title>Node5&#45;&gt;Node6</title>
<path fill="none" stroke="midnightblue" d="M204.19,-61.58C215.02,-56.56 228.36,-50.38 239.84,-45.06"/>
<polygon fill="midnightblue" stroke="midnightblue" points="241.34,-48.22 248.94,-40.84 238.4,-41.87 241.34,-48.22"/>
</g>
<!-- Node7 -->
<g id="node7" class="node">
<title>Node7</title>
<g id="a_node7"><a xlink:href="dscal_8f.html#a0590f8db475e11dc2c9137bb13887acf" target="_top" xlink:title=" ">
<polygon fill="white" stroke="black" points="246.5,-61.67 246.5,-80.67 286.5,-80.67 286.5,-61.67 246.5,-61.67"/>
<text text-anchor="middle" x="266.5" y="-68.67" font-family="Helvetica,sans-Serif" font-size="10.00">dscal</text>
</a>
</g>
</g>
<!-- Node5&#45;&gt;Node7 -->
<g id="edge7" class="edge">
<title>Node5&#45;&gt;Node7</title>
<path fill="none" stroke="midnightblue" d="M204.62,-71.17C214.2,-71.17 225.69,-71.17 236.09,-71.17"/>
<polygon fill="midnightblue" stroke="midnightblue" points="236.42,-74.67 246.42,-71.17 236.42,-67.67 236.42,-74.67"/>
</g>
<!-- Node6&#45;&gt;Node4 -->
<g id="edge6" class="edge">
<title>Node6&#45;&gt;Node4</title>
<path fill="none" stroke="midnightblue" d="M281.16,-42.86C284.59,-45.64 288.11,-48.83 291,-52.17 311.63,-75.99 329.05,-108.35 338.88,-128.49"/>
<polygon fill="midnightblue" stroke="midnightblue" points="335.74,-130.02 343.19,-137.54 342.06,-127.01 335.74,-130.02"/>
</g>
<!-- Node10&#45;&gt;Node4 -->
<g id="edge11" class="edge">
<title>Node10&#45;&gt;Node4</title>
<path fill="none" stroke="midnightblue" d="M203.15,-155.26C214.33,-159.43 228.71,-164.06 242,-166.17 263.51,-169.57 269.51,-169.68 291,-166.17 299.81,-164.72 309.1,-162.1 317.54,-159.25"/>
<polygon fill="midnightblue" stroke="midnightblue" points="318.75,-162.53 326.98,-155.86 316.39,-155.94 318.75,-162.53"/>
</g>
<!-- Node11&#45;&gt;Node4 -->
<g id="edge16" class="edge">
<title>Node11&#45;&gt;Node4</title>
<path fill="none" stroke="midnightblue" d="M123.24,-194.06C133.79,-198 146.85,-202.19 159,-204.17 179.62,-207.51 185.29,-206.92 206,-204.17 244.8,-199.01 255,-196.51 291,-181.17 302.93,-176.08 315.37,-168.83 325.53,-162.34"/>
<polygon fill="midnightblue" stroke="midnightblue" points="327.71,-165.09 334.14,-156.67 323.86,-159.25 327.71,-165.09"/>
</g>
<!-- Node11&#45;&gt;Node9 -->
<g id="edge14" class="edge">
<title>Node11&#45;&gt;Node9</title>
<path fill="none" stroke="midnightblue" d="M123.3,-185.17C131.09,-185.17 140.08,-185.17 148.64,-185.17"/>
<polygon fill="midnightblue" stroke="midnightblue" points="148.74,-188.67 158.74,-185.17 148.74,-181.67 148.74,-188.67"/>
</g>
<!-- Node11&#45;&gt;Node10 -->
<g id="edge15" class="edge">
<title>Node11&#45;&gt;Node10</title>
<path fill="none" stroke="midnightblue" d="M122.06,-175.58C131.33,-171.15 142.52,-165.8 152.67,-160.95"/>
<polygon fill="midnightblue" stroke="midnightblue" points="154.48,-163.96 161.99,-156.49 151.46,-157.64 154.48,-163.96"/>
</g>
</g>
</svg>
