<?xml version="1.0" encoding="UTF-8" standalone="no"?>
<!DOCTYPE svg PUBLIC "-//W3C//DTD SVG 1.1//EN"
 "http://www.w3.org/Graphics/SVG/1.1/DTD/svg11.dtd">
<!-- Generated by graphviz version 2.46.0 (0)
 -->
<!-- Title: dgetf2 Pages: 1 -->
<svg width="208pt" height="28pt"
 viewBox="0.00 0.00 208.00 28.00" xmlns="http://www.w3.org/2000/svg" xmlns:xlink="http://www.w3.org/1999/xlink">
<g id="graph0" class="graph" transform="scale(1 1) rotate(0) translate(4 24)">
<title>dgetf2</title>
<polygon fill="white" stroke="transparent" points="-4,4 -4,-24 204,-24 204,4 -4,4"/>
<!-- Node1 -->
<g id="node1" class="node">
<title>Node1</title>
<g id="a_node1"><a xlink:title=" ">
<polygon fill="#bfbfbf" stroke="black" points="156,-0.5 156,-19.5 200,-19.5 200,-0.5 156,-0.5"/>
<text text-anchor="middle" x="178" y="-7.5" font-family="Helvetica,sans-Serif" font-size="10.00">dgetf2</text>
</a>
</g>
</g>
<!-- Node2 -->
<g id="node2" class="node">
<title>Node2</title>
<g id="a_node2"><a xlink:href="dgetrf_8f.html#a0019443faea08275ca60a734d0593e60" target="_top" xlink:title=" ">
<polygon fill="white" stroke="black" points="79,-0.5 79,-19.5 120,-19.5 120,-0.5 79,-0.5"/>
<text text-anchor="middle" x="99.5" y="-7.5" font-family="Helvetica,sans-Serif" font-size="10.00">dgetrf</text>
</a>
</g>
</g>
<!-- Node1&#45;&gt;Node2 -->
<g id="edge1" class="edge">
<title>Node1&#45;&gt;Node2</title>
<path fill="none" stroke="midnightblue" d="M145.55,-10C136.94,-10 127.86,-10 120.12,-10"/>
<polygon fill="midnightblue" stroke="midnightblue" points="145.69,-13.5 155.69,-10 145.69,-6.5 145.69,-13.5"/>
</g>
<!-- Node3 -->
<g id="node3" class="node">
<title>Node3</title>
<g id="a_node3"><a xlink:href="dgesv_8f.html#a5ee879032a8365897c3ba91e3dc8d512" target="_top" xlink:title=" ">
<polygon fill="white" stroke="black" points="0,-0.5 0,-19.5 43,-19.5 43,-0.5 0,-0.5"/>
<text text-anchor="middle" x="21.5" y="-7.5" font-family="Helvetica,sans-Serif" font-size="10.00">dgesv</text>
</a>
</g>
</g>
<!-- Node2&#45;&gt;Node3 -->
<g id="edge2" class="edge">
<title>Node2&#45;&gt;Node3</title>
<path fill="none" stroke="midnightblue" d="M68.84,-10C60.22,-10 51,-10 43.07,-10"/>
<polygon fill="midnightblue" stroke="midnightblue" points="68.93,-13.5 78.93,-10 68.93,-6.5 68.93,-13.5"/>
</g>
</g>
</svg>
