<?xml version="1.0" encoding="UTF-8" standalone="no"?>
<!DOCTYPE svg PUBLIC "-//W3C//DTD SVG 1.1//EN"
 "http://www.w3.org/Graphics/SVG/1.1/DTD/svg11.dtd">
<!-- Generated by graphviz version 2.46.0 (0)
 -->
<!-- Title: dgetri Pages: 1 -->
<svg width="295pt" height="256pt"
 viewBox="0.00 0.00 295.00 256.00" xmlns="http://www.w3.org/2000/svg" xmlns:xlink="http://www.w3.org/1999/xlink">
<g id="graph0" class="graph" transform="scale(1 1) rotate(0) translate(4 252)">
<title>dgetri</title>
<polygon fill="white" stroke="transparent" points="-4,4 -4,-252 291,-252 291,4 -4,4"/>
<!-- Node1 -->
<g id="node1" class="node">
<title>Node1</title>
<g id="a_node1"><a xlink:title="DGETRI">
<polygon fill="#bfbfbf" stroke="black" points="0,-133.5 0,-152.5 41,-152.5 41,-133.5 0,-133.5"/>
<text text-anchor="middle" x="20.5" y="-140.5" font-family="Helvetica,sans-Serif" font-size="10.00">dgetri</text>
</a>
</g>
</g>
<!-- Node2 -->
<g id="node2" class="node">
<title>Node2</title>
<g id="a_node2"><a xlink:href="dgemm_8f.html#aeda3cbd99c8fb834a60a6412878226e1" target="_top" xlink:title=" ">
<polygon fill="white" stroke="black" points="159,-228.5 159,-247.5 208,-247.5 208,-228.5 159,-228.5"/>
<text text-anchor="middle" x="183.5" y="-235.5" font-family="Helvetica,sans-Serif" font-size="10.00">dgemm</text>
</a>
</g>
</g>
<!-- Node1&#45;&gt;Node2 -->
<g id="edge1" class="edge">
<title>Node1&#45;&gt;Node2</title>
<path fill="none" stroke="midnightblue" d="M26.17,-152.52C34.27,-167.99 52.43,-198.41 77,-214 98.53,-227.67 126.9,-233.59 148.8,-236.13"/>
<polygon fill="midnightblue" stroke="midnightblue" points="148.68,-239.64 158.97,-237.13 149.36,-232.67 148.68,-239.64"/>
</g>
<!-- Node3 -->
<g id="node3" class="node">
<title>Node3</title>
<g id="a_node3"><a xlink:href="xerbla_8f.html#a377ee61015baf8dea7770b3a404b1c07" target="_top" xlink:title=" ">
<polygon fill="white" stroke="black" points="244,-114.5 244,-133.5 287,-133.5 287,-114.5 244,-114.5"/>
<text text-anchor="middle" x="265.5" y="-121.5" font-family="Helvetica,sans-Serif" font-size="10.00">xerbla</text>
</a>
</g>
</g>
<!-- Node1&#45;&gt;Node3 -->
<g id="edge16" class="edge">
<title>Node1&#45;&gt;Node3</title>
<path fill="none" stroke="midnightblue" d="M31.53,-152.69C41.93,-162.01 59.15,-175.48 77,-181 96.53,-187.05 102.69,-183.36 123,-181 161.55,-176.53 172.34,-176.31 208,-161 220.83,-155.49 233.96,-147.1 244.32,-139.7"/>
<polygon fill="midnightblue" stroke="midnightblue" points="246.68,-142.31 252.64,-133.55 242.52,-136.68 246.68,-142.31"/>
</g>
<!-- Node4 -->
<g id="node4" class="node">
<title>Node4</title>
<g id="a_node4"><a xlink:href="dgemv_8f.html#add421a107a488d524859b4a64c1901a9" target="_top" xlink:title=" ">
<polygon fill="white" stroke="black" points="77,-152.5 77,-171.5 123,-171.5 123,-152.5 77,-152.5"/>
<text text-anchor="middle" x="100" y="-159.5" font-family="Helvetica,sans-Serif" font-size="10.00">dgemv</text>
</a>
</g>
</g>
<!-- Node1&#45;&gt;Node4 -->
<g id="edge3" class="edge">
<title>Node1&#45;&gt;Node4</title>
<path fill="none" stroke="midnightblue" d="M41.06,-147.79C48.92,-149.72 58.2,-152 66.99,-154.15"/>
<polygon fill="midnightblue" stroke="midnightblue" points="66.44,-157.62 76.99,-156.6 68.11,-150.82 66.44,-157.62"/>
</g>
<!-- Node5 -->
<g id="node5" class="node">
<title>Node5</title>
<g id="a_node5"><a xlink:href="dswap_8f.html#a780475990528dce288cf4f7bba36c90f" target="_top" xlink:title=" ">
<polygon fill="white" stroke="black" points="77.5,-114.5 77.5,-133.5 122.5,-133.5 122.5,-114.5 77.5,-114.5"/>
<text text-anchor="middle" x="100" y="-121.5" font-family="Helvetica,sans-Serif" font-size="10.00">dswap</text>
</a>
</g>
</g>
<!-- Node1&#45;&gt;Node5 -->
<g id="edge5" class="edge">
<title>Node1&#45;&gt;Node5</title>
<path fill="none" stroke="midnightblue" d="M41.06,-138.21C49.07,-136.24 58.55,-133.92 67.5,-131.72"/>
<polygon fill="midnightblue" stroke="midnightblue" points="68.38,-135.11 77.26,-129.33 66.72,-128.31 68.38,-135.11"/>
</g>
<!-- Node6 -->
<g id="node6" class="node">
<title>Node6</title>
<g id="a_node6"><a xlink:href="dtrsm_8f.html#a6a0a7704f4a747562c1bd9487e89795c" target="_top" xlink:title=" ">
<polygon fill="white" stroke="black" points="163,-114.5 163,-133.5 204,-133.5 204,-114.5 163,-114.5"/>
<text text-anchor="middle" x="183.5" y="-121.5" font-family="Helvetica,sans-Serif" font-size="10.00">dtrsm</text>
</a>
</g>
</g>
<!-- Node1&#45;&gt;Node6 -->
<g id="edge6" class="edge">
<title>Node1&#45;&gt;Node6</title>
<path fill="none" stroke="midnightblue" d="M31.53,-133.31C41.93,-123.99 59.15,-110.52 77,-105 102.17,-97.21 131.77,-103.85 153.2,-111.34"/>
<polygon fill="midnightblue" stroke="midnightblue" points="152.12,-114.67 162.71,-114.91 154.58,-108.12 152.12,-114.67"/>
</g>
<!-- Node7 -->
<g id="node7" class="node">
<title>Node7</title>
<g id="a_node7"><a xlink:href="dtrtri_8f.html#a97c5ddb103f5f6bc2dc060886aaf2ffc" target="_top" xlink:title="DTRTRI">
<polygon fill="white" stroke="black" points="82,-38.5 82,-57.5 118,-57.5 118,-38.5 82,-38.5"/>
<text text-anchor="middle" x="100" y="-45.5" font-family="Helvetica,sans-Serif" font-size="10.00">dtrtri</text>
</a>
</g>
</g>
<!-- Node1&#45;&gt;Node7 -->
<g id="edge8" class="edge">
<title>Node1&#45;&gt;Node7</title>
<path fill="none" stroke="midnightblue" d="M28.8,-133.16C39.2,-119.28 59,-93.25 77,-72 78.92,-69.74 80.97,-67.39 83.03,-65.09"/>
<polygon fill="midnightblue" stroke="midnightblue" points="85.67,-67.4 89.83,-57.65 80.5,-62.67 85.67,-67.4"/>
</g>
<!-- Node2&#45;&gt;Node3 -->
<g id="edge2" class="edge">
<title>Node2&#45;&gt;Node3</title>
<path fill="none" stroke="midnightblue" d="M195.07,-228.17C199.31,-223.99 204.1,-218.95 208,-214 226.3,-190.79 243.82,-161.38 254.37,-142.63"/>
<polygon fill="midnightblue" stroke="midnightblue" points="257.57,-144.08 259.35,-133.64 251.44,-140.69 257.57,-144.08"/>
</g>
<!-- Node4&#45;&gt;Node3 -->
<g id="edge4" class="edge">
<title>Node4&#45;&gt;Node3</title>
<path fill="none" stroke="midnightblue" d="M123.34,-159.02C145.13,-155.89 179.12,-150.38 208,-143 216.65,-140.79 225.88,-137.91 234.33,-135.07"/>
<polygon fill="midnightblue" stroke="midnightblue" points="235.49,-138.37 243.79,-131.79 233.2,-131.76 235.49,-138.37"/>
</g>
<!-- Node6&#45;&gt;Node3 -->
<g id="edge7" class="edge">
<title>Node6&#45;&gt;Node3</title>
<path fill="none" stroke="midnightblue" d="M204.28,-124C213.11,-124 223.73,-124 233.58,-124"/>
<polygon fill="midnightblue" stroke="midnightblue" points="233.84,-127.5 243.84,-124 233.84,-120.5 233.84,-127.5"/>
</g>
<!-- Node7&#45;&gt;Node3 -->
<g id="edge15" class="edge">
<title>Node7&#45;&gt;Node3</title>
<path fill="none" stroke="midnightblue" d="M118.19,-55.99C145.8,-68.82 200.38,-94.2 234.52,-110.06"/>
<polygon fill="midnightblue" stroke="midnightblue" points="233.44,-113.42 243.98,-114.46 236.39,-107.07 233.44,-113.42"/>
</g>
<!-- Node7&#45;&gt;Node6 -->
<g id="edge11" class="edge">
<title>Node7&#45;&gt;Node6</title>
<path fill="none" stroke="midnightblue" d="M111.32,-57.63C124.79,-70.19 148.58,-92.37 164.92,-107.6"/>
<polygon fill="midnightblue" stroke="midnightblue" points="162.56,-110.19 172.26,-114.45 167.34,-105.07 162.56,-110.19"/>
</g>
<!-- Node8 -->
<g id="node8" class="node">
<title>Node8</title>
<g id="a_node8"><a xlink:href="dtrmm_8f.html#af07edfbb2d2077687522652c9e283e1e" target="_top" xlink:title=" ">
<polygon fill="white" stroke="black" points="161.5,-38.5 161.5,-57.5 205.5,-57.5 205.5,-38.5 161.5,-38.5"/>
<text text-anchor="middle" x="183.5" y="-45.5" font-family="Helvetica,sans-Serif" font-size="10.00">dtrmm</text>
</a>
</g>
</g>
<!-- Node7&#45;&gt;Node8 -->
<g id="edge9" class="edge">
<title>Node7&#45;&gt;Node8</title>
<path fill="none" stroke="midnightblue" d="M118.28,-48C127.84,-48 140.02,-48 151.19,-48"/>
<polygon fill="midnightblue" stroke="midnightblue" points="151.48,-51.5 161.48,-48 151.48,-44.5 151.48,-51.5"/>
</g>
<!-- Node9 -->
<g id="node9" class="node">
<title>Node9</title>
<g id="a_node9"><a xlink:href="dtrti2_8f.html#a6251426a82e7eb6410091403114067f5" target="_top" xlink:title="DTRTI2 computes the inverse of a triangular matrix (unblocked algorithm).">
<polygon fill="white" stroke="red" points="164.5,-0.5 164.5,-19.5 202.5,-19.5 202.5,-0.5 164.5,-0.5"/>
<text text-anchor="middle" x="183.5" y="-7.5" font-family="Helvetica,sans-Serif" font-size="10.00">dtrti2</text>
</a>
</g>
</g>
<!-- Node7&#45;&gt;Node9 -->
<g id="edge12" class="edge">
<title>Node7&#45;&gt;Node9</title>
<path fill="none" stroke="midnightblue" d="M118.28,-39.94C128.98,-34.96 142.94,-28.45 155.11,-22.77"/>
<polygon fill="midnightblue" stroke="midnightblue" points="156.81,-25.84 164.39,-18.44 153.85,-19.5 156.81,-25.84"/>
</g>
<!-- Node8&#45;&gt;Node3 -->
<g id="edge10" class="edge">
<title>Node8&#45;&gt;Node3</title>
<path fill="none" stroke="midnightblue" d="M194.63,-57.63C207.74,-70.07 230.78,-91.96 246.8,-107.19"/>
<polygon fill="midnightblue" stroke="midnightblue" points="244.79,-110.1 254.45,-114.45 249.61,-105.03 244.79,-110.1"/>
</g>
<!-- Node9&#45;&gt;Node3 -->
<g id="edge14" class="edge">
<title>Node9&#45;&gt;Node3</title>
<path fill="none" stroke="midnightblue" d="M198.16,-19.69C201.59,-22.48 205.11,-25.67 208,-29 228.63,-52.83 246.05,-85.19 255.88,-105.32"/>
<polygon fill="midnightblue" stroke="midnightblue" points="252.74,-106.85 260.19,-114.38 259.06,-103.85 252.74,-106.85"/>
</g>
<!-- Node10 -->
<g id="node10" class="node">
<title>Node10</title>
<g id="a_node10"><a xlink:href="dscal_8f.html#a0590f8db475e11dc2c9137bb13887acf" target="_top" xlink:title=" ">
<polygon fill="white" stroke="black" points="245.5,-0.5 245.5,-19.5 285.5,-19.5 285.5,-0.5 245.5,-0.5"/>
<text text-anchor="middle" x="265.5" y="-7.5" font-family="Helvetica,sans-Serif" font-size="10.00">dscal</text>
</a>
</g>
</g>
<!-- Node9&#45;&gt;Node10 -->
<g id="edge13" class="edge">
<title>Node9&#45;&gt;Node10</title>
<path fill="none" stroke="midnightblue" d="M202.65,-10C212.2,-10 224.13,-10 234.97,-10"/>
<polygon fill="midnightblue" stroke="midnightblue" points="235.3,-13.5 245.3,-10 235.3,-6.5 235.3,-13.5"/>
</g>
</g>
</svg>
