<?xml version="1.0" encoding="UTF-8" standalone="no"?>
<!DOCTYPE svg PUBLIC "-//W3C//DTD SVG 1.1//EN"
 "http://www.w3.org/Graphics/SVG/1.1/DTD/svg11.dtd">
<!-- Generated by graphviz version 2.46.0 (0)
 -->
<!-- Title: dictionary.c Pages: 1 -->
<svg width="257pt" height="140pt"
 viewBox="0.00 0.00 256.50 140.00" xmlns="http://www.w3.org/2000/svg" xmlns:xlink="http://www.w3.org/1999/xlink">
<g id="graph0" class="graph" transform="scale(1 1) rotate(0) translate(4 136)">
<title>dictionary.c</title>
<polygon fill="white" stroke="transparent" points="-4,4 -4,-136 252.5,-136 252.5,4 -4,4"/>
<!-- Node1 -->
<g id="node1" class="node">
<title>Node1</title>
<g id="a_node1"><a xlink:title="Implements a dictionary for string variables.">
<polygon fill="#bfbfbf" stroke="black" points="90.5,-112.5 90.5,-131.5 155.5,-131.5 155.5,-112.5 90.5,-112.5"/>
<text text-anchor="middle" x="123" y="-119.5" font-family="Helvetica,sans-Serif" font-size="10.00">dictionary.c</text>
</a>
</g>
</g>
<!-- Node2 -->
<g id="node2" class="node">
<title>Node2</title>
<g id="a_node2"><a xlink:href="dictionary_8h.html" target="_top" xlink:title="Implements a dictionary for string variables.">
<polygon fill="white" stroke="black" points="90.5,-56.5 90.5,-75.5 155.5,-75.5 155.5,-56.5 90.5,-56.5"/>
<text text-anchor="middle" x="123" y="-63.5" font-family="Helvetica,sans-Serif" font-size="10.00">dictionary.h</text>
</a>
</g>
</g>
<!-- Node1&#45;&gt;Node2 -->
<g id="edge1" class="edge">
<title>Node1&#45;&gt;Node2</title>
<path fill="none" stroke="midnightblue" d="M123,-112.08C123,-105.01 123,-94.86 123,-85.99"/>
<polygon fill="midnightblue" stroke="midnightblue" points="126.5,-85.75 123,-75.75 119.5,-85.75 126.5,-85.75"/>
</g>
<!-- Node3 -->
<g id="node3" class="node">
<title>Node3</title>
<g id="a_node3"><a xlink:title=" ">
<polygon fill="white" stroke="#bfbfbf" points="0,-0.5 0,-19.5 46,-19.5 46,-0.5 0,-0.5"/>
<text text-anchor="middle" x="23" y="-7.5" font-family="Helvetica,sans-Serif" font-size="10.00">stdio.h</text>
</a>
</g>
</g>
<!-- Node1&#45;&gt;Node3 -->
<g id="edge6" class="edge">
<title>Node1&#45;&gt;Node3</title>
<path fill="none" stroke="midnightblue" d="M112.79,-112.48C102.55,-103.75 86.55,-89.56 74,-76 59.75,-60.6 45.14,-41.58 35.23,-28.11"/>
<polygon fill="midnightblue" stroke="midnightblue" points="37.89,-25.81 29.18,-19.77 32.22,-29.92 37.89,-25.81"/>
</g>
<!-- Node4 -->
<g id="node4" class="node">
<title>Node4</title>
<g id="a_node4"><a xlink:title=" ">
<polygon fill="white" stroke="#bfbfbf" points="64,-0.5 64,-19.5 112,-19.5 112,-0.5 64,-0.5"/>
<text text-anchor="middle" x="88" y="-7.5" font-family="Helvetica,sans-Serif" font-size="10.00">stdlib.h</text>
</a>
</g>
</g>
<!-- Node1&#45;&gt;Node4 -->
<g id="edge7" class="edge">
<title>Node1&#45;&gt;Node4</title>
<path fill="none" stroke="midnightblue" d="M110.79,-112.24C100.65,-104.14 86.96,-91.11 81,-76 75.15,-61.15 77.84,-43 81.45,-29.66"/>
<polygon fill="midnightblue" stroke="midnightblue" points="84.9,-30.35 84.53,-19.76 78.22,-28.27 84.9,-30.35"/>
</g>
<!-- Node5 -->
<g id="node5" class="node">
<title>Node5</title>
<g id="a_node5"><a xlink:title=" ">
<polygon fill="white" stroke="#bfbfbf" points="130.5,-0.5 130.5,-19.5 179.5,-19.5 179.5,-0.5 130.5,-0.5"/>
<text text-anchor="middle" x="155" y="-7.5" font-family="Helvetica,sans-Serif" font-size="10.00">string.h</text>
</a>
</g>
</g>
<!-- Node1&#45;&gt;Node5 -->
<g id="edge8" class="edge">
<title>Node1&#45;&gt;Node5</title>
<path fill="none" stroke="midnightblue" d="M135.21,-112.24C145.35,-104.14 159.04,-91.11 165,-76 170.95,-60.91 167.22,-42.56 162.72,-29.21"/>
<polygon fill="midnightblue" stroke="midnightblue" points="165.94,-27.83 159.11,-19.73 159.4,-30.32 165.94,-27.83"/>
</g>
<!-- Node6 -->
<g id="node6" class="node">
<title>Node6</title>
<g id="a_node6"><a xlink:title=" ">
<polygon fill="white" stroke="#bfbfbf" points="197.5,-0.5 197.5,-19.5 248.5,-19.5 248.5,-0.5 197.5,-0.5"/>
<text text-anchor="middle" x="223" y="-7.5" font-family="Helvetica,sans-Serif" font-size="10.00">unistd.h</text>
</a>
</g>
</g>
<!-- Node1&#45;&gt;Node6 -->
<g id="edge9" class="edge">
<title>Node1&#45;&gt;Node6</title>
<path fill="none" stroke="midnightblue" d="M136.2,-112.39C148.43,-104.02 166.69,-90.48 180,-76 193.41,-61.41 205.55,-42.24 213.49,-28.51"/>
<polygon fill="midnightblue" stroke="midnightblue" points="216.64,-30.04 218.48,-19.61 210.53,-26.62 216.64,-30.04"/>
</g>
<!-- Node2&#45;&gt;Node3 -->
<g id="edge2" class="edge">
<title>Node2&#45;&gt;Node3</title>
<path fill="none" stroke="midnightblue" d="M106.93,-56.32C91.04,-47.74 66.49,-34.49 48.04,-24.52"/>
<polygon fill="midnightblue" stroke="midnightblue" points="49.49,-21.33 39.03,-19.65 46.16,-27.49 49.49,-21.33"/>
</g>
<!-- Node2&#45;&gt;Node4 -->
<g id="edge3" class="edge">
<title>Node2&#45;&gt;Node4</title>
<path fill="none" stroke="midnightblue" d="M117.22,-56.08C112.33,-48.53 105.17,-37.49 99.17,-28.23"/>
<polygon fill="midnightblue" stroke="midnightblue" points="102.05,-26.24 93.67,-19.75 96.17,-30.05 102.05,-26.24"/>
</g>
<!-- Node2&#45;&gt;Node5 -->
<g id="edge4" class="edge">
<title>Node2&#45;&gt;Node5</title>
<path fill="none" stroke="midnightblue" d="M128.28,-56.08C132.71,-48.61 139.16,-37.72 144.62,-28.52"/>
<polygon fill="midnightblue" stroke="midnightblue" points="147.73,-30.14 149.81,-19.75 141.71,-26.57 147.73,-30.14"/>
</g>
<!-- Node2&#45;&gt;Node6 -->
<g id="edge5" class="edge">
<title>Node2&#45;&gt;Node6</title>
<path fill="none" stroke="midnightblue" d="M139.07,-56.32C154.96,-47.74 179.51,-34.49 197.96,-24.52"/>
<polygon fill="midnightblue" stroke="midnightblue" points="199.84,-27.49 206.97,-19.65 196.51,-21.33 199.84,-27.49"/>
</g>
</g>
</svg>
