<?xml version="1.0" encoding="UTF-8" standalone="no"?>
<!DOCTYPE svg PUBLIC "-//W3C//DTD SVG 1.1//EN"
 "http://www.w3.org/Graphics/SVG/1.1/DTD/svg11.dtd">
<!-- Generated by graphviz version 2.46.0 (0)
 -->
<!-- Title: gslib Pages: 1 -->
<svg width="254pt" height="175pt"
 viewBox="0.00 0.00 254.00 175.00" xmlns="http://www.w3.org/2000/svg" xmlns:xlink="http://www.w3.org/1999/xlink">
<g id="graph0" class="graph" transform="scale(1 1) rotate(0) translate(4 171)">
<title>gslib</title>
<polygon fill="white" stroke="transparent" points="-4,4 -4,-171 250,-171 250,4 -4,4"/>
<g id="clust1" class="cluster">
<title>clusterdir_c428274b933a6d619cc1919c6f12a827</title>
<g id="a_clust1"><a xlink:href="dir_c428274b933a6d619cc1919c6f12a827.html" target="_top" xlink:title="gslib">
<polygon fill="#ddddee" stroke="black" points="8,-8 8,-159 238,-159 238,-8 8,-8"/>
<text text-anchor="middle" x="123" y="-147" font-family="Helvetica,sans-Serif" font-size="10.00">gslib</text>
</a>
</g>
</g>
<g id="clust2" class="cluster">
<title>clusterdir_d541c17c00054410292c9f66a33aef99</title>
<g id="a_clust2"><a xlink:href="dir_d541c17c00054410292c9f66a33aef99.html" target="_top">
<polygon fill="#eeeeff" stroke="black" points="16,-80 16,-132 230,-132 230,-80 16,-80"/>
</a>
</g>
</g>
<!-- dir_293e2d2413360d859d204d81372ba0fb -->
<g id="node1" class="node">
<title>dir_293e2d2413360d859d204d81372ba0fb</title>
<g id="a_node1"><a xlink:href="dir_293e2d2413360d859d204d81372ba0fb.html" target="_top" xlink:title="include">
<polygon fill="none" stroke="black" points="150,-52 96,-52 96,-16 150,-16 150,-52"/>
<text text-anchor="middle" x="123" y="-31.5" font-family="Helvetica,sans-Serif" font-size="10.00">include</text>
</a>
</g>
</g>
<!-- dir_d541c17c00054410292c9f66a33aef99 -->
<g id="node2" class="node">
<title>dir_d541c17c00054410292c9f66a33aef99</title>
<text text-anchor="middle" x="195" y="-103.5" font-family="Helvetica,sans-Serif" font-size="10.00">gslib</text>
</g>
<!-- dir_ceda7b4c9d5a2d39f6a107186ecbc1c8 -->
<g id="node3" class="node">
<title>dir_ceda7b4c9d5a2d39f6a107186ecbc1c8</title>
<g id="a_node3"><a xlink:href="dir_ceda7b4c9d5a2d39f6a107186ecbc1c8.html" target="_top" xlink:title="src">
<polygon fill="white" stroke="black" points="150,-124 96,-124 96,-88 150,-88 150,-124"/>
<text text-anchor="middle" x="123" y="-103.5" font-family="Helvetica,sans-Serif" font-size="10.00">src</text>
</a>
</g>
</g>
<!-- dir_ceda7b4c9d5a2d39f6a107186ecbc1c8&#45;&gt;dir_293e2d2413360d859d204d81372ba0fb -->
<g id="edge1" class="edge">
<title>dir_ceda7b4c9d5a2d39f6a107186ecbc1c8&#45;&gt;dir_293e2d2413360d859d204d81372ba0fb</title>
<path fill="none" stroke="black" d="M123,-87.7C123,-79.98 123,-70.71 123,-62.11"/>
<polygon fill="black" stroke="black" points="126.5,-62.1 123,-52.1 119.5,-62.1 126.5,-62.1"/>
<g id="a_edge1&#45;headlabel"><a xlink:href="dir_000005_000006.html" target="_top" xlink:title="1">
<text text-anchor="middle" x="129.34" y="-63.2" font-family="Helvetica,sans-Serif" font-size="10.00">1</text>
</a>
</g>
</g>
<!-- dir_c5591124607e93cc3e319f0f2fa5be56 -->
<g id="node4" class="node">
<title>dir_c5591124607e93cc3e319f0f2fa5be56</title>
<g id="a_node4"><a xlink:href="dir_c5591124607e93cc3e319f0f2fa5be56.html" target="_top" xlink:title="tests">
<polygon fill="white" stroke="red" points="78,-124 24,-124 24,-88 78,-88 78,-124"/>
<text text-anchor="middle" x="51" y="-103.5" font-family="Helvetica,sans-Serif" font-size="10.00">tests</text>
</a>
</g>
</g>
</g>
</svg>
