<?xml version="1.0" encoding="UTF-8" standalone="no"?>
<!DOCTYPE svg PUBLIC "-//W3C//DTD SVG 1.1//EN"
 "http://www.w3.org/Graphics/SVG/1.1/DTD/svg11.dtd">
<!-- Generated by graphviz version 2.46.0 (0)
 -->
<!-- Title: dladiv Pages: 1 -->
<svg width="287pt" height="66pt"
 viewBox="0.00 0.00 287.00 66.00" xmlns="http://www.w3.org/2000/svg" xmlns:xlink="http://www.w3.org/1999/xlink">
<g id="graph0" class="graph" transform="scale(1 1) rotate(0) translate(4 62)">
<title>dladiv</title>
<polygon fill="white" stroke="transparent" points="-4,4 -4,-62 283,-62 283,4 -4,4"/>
<!-- Node1 -->
<g id="node1" class="node">
<title>Node1</title>
<g id="a_node1"><a xlink:title=" ">
<polygon fill="#bfbfbf" stroke="black" points="237,-19.5 237,-38.5 279,-38.5 279,-19.5 237,-19.5"/>
<text text-anchor="middle" x="258" y="-26.5" font-family="Helvetica,sans-Serif" font-size="10.00">dladiv</text>
</a>
</g>
</g>
<!-- Node2 -->
<g id="node2" class="node">
<title>Node2</title>
<g id="a_node2"><a xlink:href="dlaln2_8f.html#ad0418b909a2871d01b8d43c24f0f207b" target="_top" xlink:title=" ">
<polygon fill="white" stroke="black" points="159,-38.5 159,-57.5 201,-57.5 201,-38.5 159,-38.5"/>
<text text-anchor="middle" x="180" y="-45.5" font-family="Helvetica,sans-Serif" font-size="10.00">dlaln2</text>
</a>
</g>
</g>
<!-- Node1&#45;&gt;Node2 -->
<g id="edge1" class="edge">
<title>Node1&#45;&gt;Node2</title>
<path fill="none" stroke="midnightblue" d="M226.87,-36.53C218.24,-38.69 209.04,-40.99 201.16,-42.96"/>
<polygon fill="midnightblue" stroke="midnightblue" points="227.78,-39.91 236.63,-34.09 226.08,-33.12 227.78,-39.91"/>
</g>
<!-- Node5 -->
<g id="node5" class="node">
<title>Node5</title>
<g id="a_node5"><a xlink:href="zladiv_8f.html#ab2df4e160d6a71fbcaf50740d5729dd8" target="_top" xlink:title=" ">
<polygon fill="white" stroke="black" points="159,-0.5 159,-19.5 201,-19.5 201,-0.5 159,-0.5"/>
<text text-anchor="middle" x="180" y="-7.5" font-family="Helvetica,sans-Serif" font-size="10.00">zladiv</text>
</a>
</g>
</g>
<!-- Node1&#45;&gt;Node5 -->
<g id="edge4" class="edge">
<title>Node1&#45;&gt;Node5</title>
<path fill="none" stroke="midnightblue" d="M226.87,-21.47C218.24,-19.31 209.04,-17.01 201.16,-15.04"/>
<polygon fill="midnightblue" stroke="midnightblue" points="226.08,-24.88 236.63,-23.91 227.78,-18.09 226.08,-24.88"/>
</g>
<!-- Node3 -->
<g id="node3" class="node">
<title>Node3</title>
<g id="a_node3"><a xlink:href="dtrevc_8f.html#a9b4b6d9f16d6869eff87fd28958e3582" target="_top" xlink:title=" ">
<polygon fill="white" stroke="black" points="79,-38.5 79,-57.5 123,-57.5 123,-38.5 79,-38.5"/>
<text text-anchor="middle" x="101" y="-45.5" font-family="Helvetica,sans-Serif" font-size="10.00">dtrevc</text>
</a>
</g>
</g>
<!-- Node2&#45;&gt;Node3 -->
<g id="edge2" class="edge">
<title>Node2&#45;&gt;Node3</title>
<path fill="none" stroke="midnightblue" d="M148.74,-48C140.19,-48 131.06,-48 123.17,-48"/>
<polygon fill="midnightblue" stroke="midnightblue" points="148.77,-51.5 158.77,-48 148.77,-44.5 148.77,-51.5"/>
</g>
<!-- Node4 -->
<g id="node4" class="node">
<title>Node4</title>
<g id="a_node4"><a xlink:href="dgeev_8f.html#a66e19253344358f5dee1e60502b9e96f" target="_top" xlink:title=" ">
<polygon fill="white" stroke="black" points="0,-38.5 0,-57.5 43,-57.5 43,-38.5 0,-38.5"/>
<text text-anchor="middle" x="21.5" y="-45.5" font-family="Helvetica,sans-Serif" font-size="10.00">dgeev</text>
</a>
</g>
</g>
<!-- Node3&#45;&gt;Node4 -->
<g id="edge3" class="edge">
<title>Node3&#45;&gt;Node4</title>
<path fill="none" stroke="midnightblue" d="M68.69,-48C60.08,-48 50.96,-48 43.12,-48"/>
<polygon fill="midnightblue" stroke="midnightblue" points="68.82,-51.5 78.82,-48 68.82,-44.5 68.82,-51.5"/>
</g>
</g>
</svg>
