<?xml version="1.0" encoding="UTF-8" standalone="no"?>
<!DOCTYPE svg PUBLIC "-//W3C//DTD SVG 1.1//EN"
 "http://www.w3.org/Graphics/SVG/1.1/DTD/svg11.dtd">
<!-- Generated by graphviz version 2.46.0 (0)
 -->
<!-- Title: dlaev2 Pages: 1 -->
<!--zoomable 142 -->
<svg id="main" version="1.1" xmlns="http://www.w3.org/2000/svg" xmlns:xlink="http://www.w3.org/1999/xlink" xml:space="preserve" onload="init(evt)">
<style type="text/css"><![CDATA[
.edge:hover path { stroke: red; }
.edge:hover polygon { stroke: red; fill: red; }
]]></style>
<script type="text/javascript"><![CDATA[
var edges = document.getElementsByTagName('g');
if (edges && edges.length) {
  for (var i=0;i<edges.length;i++) {
    if (edges[i].id.substr(0,4)=='edge') {
      edges[i].setAttribute('class','edge');
    }
  }
}
]]></script>
        <defs>
                <circle id="rim" cx="0" cy="0" r="7"/>
                <circle id="rim2" cx="0" cy="0" r="3.5"/>
                <g id="zoomPlus">
                        <use xlink:href="#rim" fill="#404040">
                                <set attributeName="fill" to="#808080" begin="zoomplus.mouseover" end="zoomplus.mouseout"/>
                        </use>
                        <path d="M-4,0h8M0,-4v8" fill="none" stroke="white" stroke-width="1.5" pointer-events="none"/>
                </g>
                <g id="zoomMin">
                        <use xlink:href="#rim" fill="#404040">
                                <set attributeName="fill" to="#808080" begin="zoomminus.mouseover" end="zoomminus.mouseout"/>
                        </use>
                        <path d="M-4,0h8" fill="none" stroke="white" stroke-width="1.5" pointer-events="none"/>
                </g>
                <g id="dirArrow">
                        <path fill="none" stroke="white" stroke-width="1.5" d="M0,-3.0v7 M-2.5,-0.5L0,-3.0L2.5,-0.5"/>
                </g>
               <g id="resetDef">
                       <use xlink:href="#rim2" fill="#404040">
                               <set attributeName="fill" to="#808080" begin="reset.mouseover" end="reset.mouseout"/>
                       </use>
               </g>
        </defs>

<script type="text/javascript">
var viewWidth = 540;
var viewHeight = 142;
var sectionId = 'dynsection-0';
</script>
<script xlink:href="svgpan.js"/>
<svg id="graph" class="graph">
<g id="viewport">
<title>dlaev2</title>
<polygon fill="white" stroke="transparent" points="-4,4 -4,-138 536,-138 536,4 -4,4"/>
<!-- Node1 -->
<g id="node1" class="node">
<title>Node1</title>
<g id="a_node1"><a xlink:title=" ">
<polygon fill="#bfbfbf" stroke="black" points="487,-76.5 487,-95.5 532,-95.5 532,-76.5 487,-76.5"/>
<text text-anchor="middle" x="509.5" y="-83.5" font-family="Helvetica,sans-Serif" font-size="10.00">dlaev2</text>
</a>
</g>
</g>
<!-- Node2 -->
<g id="node2" class="node">
<title>Node2</title>
<g id="a_node2"><a xlink:href="dsteqr_8f.html#a47fe470e7a882c58d4cc49e2c6cb7c70" target="_top" xlink:title=" ">
<polygon fill="white" stroke="black" points="407,-76.5 407,-95.5 451,-95.5 451,-76.5 407,-76.5"/>
<text text-anchor="middle" x="429" y="-83.5" font-family="Helvetica,sans-Serif" font-size="10.00">dsteqr</text>
</a>
</g>
</g>
<!-- Node1&#45;&gt;Node2 -->
<g id="edge1" class="edge">
<title>Node1&#45;&gt;Node2</title>
<path fill="none" stroke="midnightblue" d="M476.57,-86C468.03,-86 459.01,-86 451.21,-86"/>
<polygon fill="midnightblue" stroke="midnightblue" points="476.63,-89.5 486.63,-86 476.63,-82.5 476.63,-89.5"/>
</g>
<!-- Node3 -->
<g id="node3" class="node">
<title>Node3</title>
<g id="a_node3"><a xlink:href="dstev_8f.html#aaa6df51cfd92c4ab08d41a54bf05c3ab" target="_top" xlink:title=" ">
<polygon fill="white" stroke="black" points="329,-95.5 329,-114.5 370,-114.5 370,-95.5 329,-95.5"/>
<text text-anchor="middle" x="349.5" y="-102.5" font-family="Helvetica,sans-Serif" font-size="10.00">dstev</text>
</a>
</g>
</g>
<!-- Node2&#45;&gt;Node3 -->
<g id="edge2" class="edge">
<title>Node2&#45;&gt;Node3</title>
<path fill="none" stroke="midnightblue" d="M396.94,-93.62C387.86,-95.84 378.2,-98.21 370.06,-100.21"/>
<polygon fill="midnightblue" stroke="midnightblue" points="397.94,-96.97 406.82,-91.19 396.28,-90.17 397.94,-96.97"/>
</g>
<!-- Node4 -->
<g id="node4" class="node">
<title>Node4</title>
<g id="a_node4"><a xlink:href="dsyev_8f.html#a442c43fca5493590f8f26cf42fed4044" target="_top" xlink:title=" ">
<polygon fill="white" stroke="black" points="328,-57.5 328,-76.5 371,-76.5 371,-57.5 328,-57.5"/>
<text text-anchor="middle" x="349.5" y="-64.5" font-family="Helvetica,sans-Serif" font-size="10.00">dsyev</text>
</a>
</g>
</g>
<!-- Node2&#45;&gt;Node4 -->
<g id="edge3" class="edge">
<title>Node2&#45;&gt;Node4</title>
<path fill="none" stroke="midnightblue" d="M396.97,-78.39C388.28,-76.26 379.04,-74 371.12,-72.05"/>
<polygon fill="midnightblue" stroke="midnightblue" points="396.28,-81.83 406.82,-80.81 397.94,-75.03 396.28,-81.83"/>
</g>
<!-- Node5 -->
<g id="node5" class="node">
<title>Node5</title>
<g id="a_node5"><a xlink:href="dsygv_8f.html#a007d33bcdcc697e17c6d15432f159b73" target="_top" xlink:title=" ">
<polygon fill="white" stroke="black" points="249,-57.5 249,-76.5 292,-76.5 292,-57.5 249,-57.5"/>
<text text-anchor="middle" x="270.5" y="-64.5" font-family="Helvetica,sans-Serif" font-size="10.00">dsygv</text>
</a>
</g>
</g>
<!-- Node4&#45;&gt;Node5 -->
<g id="edge4" class="edge">
<title>Node4&#45;&gt;Node5</title>
<path fill="none" stroke="midnightblue" d="M317.77,-67C309.18,-67 300.05,-67 292.19,-67"/>
<polygon fill="midnightblue" stroke="midnightblue" points="317.87,-70.5 327.87,-67 317.87,-63.5 317.87,-70.5"/>
</g>
<!-- Node6 -->
<g id="node6" class="node">
<title>Node6</title>
<g id="a_node6"><a xlink:href="hmholtz_8f.html#a5a846560cdbe979f8cf9a71599a7f460" target="_top" xlink:title=" ">
<polygon fill="white" stroke="black" points="154,-57.5 154,-76.5 213,-76.5 213,-57.5 154,-57.5"/>
<text text-anchor="middle" x="183.5" y="-64.5" font-family="Helvetica,sans-Serif" font-size="10.00">generalev</text>
</a>
</g>
</g>
<!-- Node5&#45;&gt;Node6 -->
<g id="edge5" class="edge">
<title>Node5&#45;&gt;Node6</title>
<path fill="none" stroke="midnightblue" d="M238.82,-67C230.47,-67 221.47,-67 213.24,-67"/>
<polygon fill="midnightblue" stroke="midnightblue" points="238.92,-70.5 248.92,-67 238.92,-63.5 238.92,-70.5"/>
</g>
<!-- Node7 -->
<g id="node7" class="node">
<title>Node7</title>
<g id="a_node7"><a xlink:href="hsmg_8f.html#a57c4906700aca571f060a547363b280f" target="_top" xlink:title=" ">
<polygon fill="white" stroke="red" points="8,-114.5 8,-133.5 110,-133.5 110,-114.5 8,-114.5"/>
<text text-anchor="middle" x="59" y="-121.5" font-family="Helvetica,sans-Serif" font-size="10.00">hsmg_setup_fast1d</text>
</a>
</g>
</g>
<!-- Node6&#45;&gt;Node7 -->
<g id="edge6" class="edge">
<title>Node6&#45;&gt;Node7</title>
<path fill="none" stroke="midnightblue" d="M159.6,-82.13C147.56,-89.66 132.35,-98.52 118,-105 110.18,-108.53 101.5,-111.73 93.29,-114.46"/>
<polygon fill="midnightblue" stroke="midnightblue" points="161.58,-85.02 168.13,-76.69 157.81,-79.12 161.58,-85.02"/>
</g>
<!-- Node17 -->
<g id="node8" class="node">
<title>Node17</title>
<g id="a_node8"><a xlink:href="hmholtz_8f.html#abd6f3614f9436265a22e0d5354f18926" target="_top" xlink:title=" ">
<polygon fill="white" stroke="red" points="0,-76.5 0,-95.5 118,-95.5 118,-76.5 0,-76.5"/>
<text text-anchor="middle" x="59" y="-83.5" font-family="Helvetica,sans-Serif" font-size="10.00">set_fdm_prec_h1a_gen</text>
</a>
</g>
</g>
<!-- Node6&#45;&gt;Node17 -->
<g id="edge7" class="edge">
<title>Node6&#45;&gt;Node17</title>
<path fill="none" stroke="midnightblue" d="M143.63,-73.03C135.6,-74.27 126.99,-75.61 118.44,-76.94"/>
<polygon fill="midnightblue" stroke="midnightblue" points="144.43,-76.45 153.78,-71.45 143.36,-69.53 144.43,-76.45"/>
</g>
<!-- Node84 -->
<g id="node9" class="node">
<title>Node84</title>
<g id="a_node9"><a xlink:href="fast3d_8f.html#a05d4e543e6504bffe2f7b080de6f71cf" target="_top" xlink:title=" ">
<polygon fill="white" stroke="red" points="5.5,-38.5 5.5,-57.5 112.5,-57.5 112.5,-38.5 5.5,-38.5"/>
<text text-anchor="middle" x="59" y="-45.5" font-family="Helvetica,sans-Serif" font-size="10.00">set_up_fast_1d_sem</text>
</a>
</g>
</g>
<!-- Node6&#45;&gt;Node84 -->
<g id="edge8" class="edge">
<title>Node6&#45;&gt;Node84</title>
<path fill="none" stroke="midnightblue" d="M143.82,-61C133.9,-59.46 123.06,-57.78 112.56,-56.15"/>
<polygon fill="midnightblue" stroke="midnightblue" points="143.36,-64.47 153.78,-62.55 144.43,-57.55 143.36,-64.47"/>
</g>
<!-- Node86 -->
<g id="node10" class="node">
<title>Node86</title>
<g id="a_node10"><a xlink:href="gmres_8f.html#aa171d4647e9b81013eef39d18ffc4592" target="_top" xlink:title=" ">
<polygon fill="white" stroke="red" points="0,-0.5 0,-19.5 118,-19.5 118,-0.5 0,-0.5"/>
<text text-anchor="middle" x="59" y="-7.5" font-family="Helvetica,sans-Serif" font-size="10.00">set_up_fast_1d_sem_g</text>
</a>
</g>
</g>
<!-- Node6&#45;&gt;Node86 -->
<g id="edge9" class="edge">
<title>Node6&#45;&gt;Node86</title>
<path fill="none" stroke="midnightblue" d="M159.6,-51.87C147.56,-44.34 132.35,-35.48 118,-29 110.18,-25.47 101.5,-22.27 93.29,-19.54"/>
<polygon fill="midnightblue" stroke="midnightblue" points="157.81,-54.88 168.13,-57.31 161.58,-48.98 157.81,-54.88"/>
</g>
</g>
</svg>
        <g id="navigator" transform="translate(0 0)" fill="#404254">
                <rect fill="#f2f5e9" fill-opacity="0.5" stroke="#606060" stroke-width=".5" x="0" y="0" width="60" height="60"/>
                <use id="zoomplus" xlink:href="#zoomPlus" x="17" y="9" onmousedown="handleZoom(evt,'in')"/>
                <use id="zoomminus" xlink:href="#zoomMin" x="42" y="9" onmousedown="handleZoom(evt,'out')"/>
                <use id="reset" xlink:href="#resetDef" x="30" y="36" onmousedown="handleReset()"/>
                <g id="arrowUp" xlink:href="#dirArrow" transform="translate(30 24)" onmousedown="handlePan(0,-1)">
                  <use xlink:href="#rim" fill="#404040">
                        <set attributeName="fill" to="#808080" begin="arrowUp.mouseover" end="arrowUp.mouseout"/>
                  </use>
                  <path fill="none" stroke="white" stroke-width="1.5" d="M0,-3.0v7 M-2.5,-0.5L0,-3.0L2.5,-0.5"/>
                </g>
                <g id="arrowRight" xlink:href="#dirArrow" transform="rotate(90) translate(36 -43)" onmousedown="handlePan(1,0)">
                  <use xlink:href="#rim" fill="#404040">
                        <set attributeName="fill" to="#808080" begin="arrowRight.mouseover" end="arrowRight.mouseout"/>
                  </use>
                  <path fill="none" stroke="white" stroke-width="1.5" d="M0,-3.0v7 M-2.5,-0.5L0,-3.0L2.5,-0.5"/>
                </g>
                <g id="arrowDown" xlink:href="#dirArrow" transform="rotate(180) translate(-30 -48)" onmousedown="handlePan(0,1)">
                  <use xlink:href="#rim" fill="#404040">
                        <set attributeName="fill" to="#808080" begin="arrowDown.mouseover" end="arrowDown.mouseout"/>
                  </use>
                  <path fill="none" stroke="white" stroke-width="1.5" d="M0,-3.0v7 M-2.5,-0.5L0,-3.0L2.5,-0.5"/>
                </g>
                <g id="arrowLeft" xlink:href="#dirArrow" transform="rotate(270) translate(-36 17)" onmousedown="handlePan(-1,0)">
                  <use xlink:href="#rim" fill="#404040">
                        <set attributeName="fill" to="#808080" begin="arrowLeft.mouseover" end="arrowLeft.mouseout"/>
                  </use>
                  <path fill="none" stroke="white" stroke-width="1.5" d="M0,-3.0v7 M-2.5,-0.5L0,-3.0L2.5,-0.5"/>
                </g>
        </g>
        <svg viewBox="0 0 15 15" width="100%" height="30px" preserveAspectRatio="xMaxYMin meet">
         <g id="arrow_out" transform="scale(0.3 0.3)">
          <a xlink:href="dlaev2_8f_a404759a75990a78660c741b3448b27e8_icgraph_org.svg" target="_base">
           <rect id="button" ry="5" rx="5" y="6" x="6" height="38" width="38"
                fill="#f2f5e9" fill-opacity="0.5" stroke="#606060" stroke-width="1.0"/>
           <path id="arrow"
             d="M 11.500037,31.436501 C 11.940474,20.09759 22.043105,11.32322 32.158766,21.979434 L 37.068811,17.246167 C 37.068811,17.246167 37.088388,32 37.088388,32 L 22.160133,31.978069 C 22.160133,31.978069 26.997745,27.140456 26.997745,27.140456 C 18.528582,18.264221 13.291696,25.230495 11.500037,31.436501 z"
             style="fill:#404040;"/>
          </a>
         </g>
        </svg>
</svg>
