<?xml version="1.0" encoding="UTF-8" standalone="no"?>
<!DOCTYPE svg PUBLIC "-//W3C//DTD SVG 1.1//EN"
 "http://www.w3.org/Graphics/SVG/1.1/DTD/svg11.dtd">
<!-- Generated by graphviz version 2.46.0 (0)
 -->
<!-- Title: dlae2 Pages: 1 -->
<svg width="535pt" height="104pt"
 viewBox="0.00 0.00 535.00 104.00" xmlns="http://www.w3.org/2000/svg" xmlns:xlink="http://www.w3.org/1999/xlink">
<g id="graph0" class="graph" transform="scale(1 1) rotate(0) translate(4 100)">
<title>dlae2</title>
<polygon fill="white" stroke="transparent" points="-4,4 -4,-100 531,-100 531,4 -4,4"/>
<!-- Node1 -->
<g id="node1" class="node">
<title>Node1</title>
<g id="a_node1"><a xlink:title=" ">
<polygon fill="#bfbfbf" stroke="black" points="487,-57.5 487,-76.5 527,-76.5 527,-57.5 487,-57.5"/>
<text text-anchor="middle" x="507" y="-64.5" font-family="Helvetica,sans-Serif" font-size="10.00">dlae2</text>
</a>
</g>
</g>
<!-- Node2 -->
<g id="node2" class="node">
<title>Node2</title>
<g id="a_node2"><a xlink:href="dsteqr_8f.html#a47fe470e7a882c58d4cc49e2c6cb7c70" target="_top" xlink:title=" ">
<polygon fill="white" stroke="black" points="407,-76.5 407,-95.5 451,-95.5 451,-76.5 407,-76.5"/>
<text text-anchor="middle" x="429" y="-83.5" font-family="Helvetica,sans-Serif" font-size="10.00">dsteqr</text>
</a>
</g>
</g>
<!-- Node1&#45;&gt;Node2 -->
<g id="edge1" class="edge">
<title>Node1&#45;&gt;Node2</title>
<path fill="none" stroke="midnightblue" d="M477.08,-74.23C468.42,-76.39 459.09,-78.73 451.04,-80.74"/>
<polygon fill="midnightblue" stroke="midnightblue" points="477.97,-77.62 486.82,-71.79 476.27,-70.82 477.97,-77.62"/>
</g>
<!-- Node89 -->
<g id="node10" class="node">
<title>Node89</title>
<g id="a_node10"><a xlink:href="dsterf_8f.html#af0616552c11358ae8298d0ac18ac023c" target="_top" xlink:title=" ">
<polygon fill="white" stroke="black" points="408.5,-38.5 408.5,-57.5 449.5,-57.5 449.5,-38.5 408.5,-38.5"/>
<text text-anchor="middle" x="429" y="-45.5" font-family="Helvetica,sans-Serif" font-size="10.00">dsterf</text>
</a>
</g>
</g>
<!-- Node1&#45;&gt;Node89 -->
<g id="edge9" class="edge">
<title>Node1&#45;&gt;Node89</title>
<path fill="none" stroke="midnightblue" d="M476.96,-59.74C467.85,-57.46 458.01,-55 449.7,-52.93"/>
<polygon fill="midnightblue" stroke="midnightblue" points="476.27,-63.18 486.82,-62.21 477.97,-56.38 476.27,-63.18"/>
</g>
<!-- Node3 -->
<g id="node3" class="node">
<title>Node3</title>
<g id="a_node3"><a xlink:href="dstev_8f.html#aaa6df51cfd92c4ab08d41a54bf05c3ab" target="_top" xlink:title=" ">
<polygon fill="white" stroke="black" points="329,-76.5 329,-95.5 370,-95.5 370,-76.5 329,-76.5"/>
<text text-anchor="middle" x="349.5" y="-83.5" font-family="Helvetica,sans-Serif" font-size="10.00">dstev</text>
</a>
</g>
</g>
<!-- Node2&#45;&gt;Node3 -->
<g id="edge2" class="edge">
<title>Node2&#45;&gt;Node3</title>
<path fill="none" stroke="midnightblue" d="M396.65,-86C387.66,-86 378.12,-86 370.06,-86"/>
<polygon fill="midnightblue" stroke="midnightblue" points="396.82,-89.5 406.82,-86 396.82,-82.5 396.82,-89.5"/>
</g>
<!-- Node4 -->
<g id="node4" class="node">
<title>Node4</title>
<g id="a_node4"><a xlink:href="dsyev_8f.html#a442c43fca5493590f8f26cf42fed4044" target="_top" xlink:title=" ">
<polygon fill="white" stroke="black" points="328,-38.5 328,-57.5 371,-57.5 371,-38.5 328,-38.5"/>
<text text-anchor="middle" x="349.5" y="-45.5" font-family="Helvetica,sans-Serif" font-size="10.00">dsyev</text>
</a>
</g>
</g>
<!-- Node2&#45;&gt;Node4 -->
<g id="edge3" class="edge">
<title>Node2&#45;&gt;Node4</title>
<path fill="none" stroke="midnightblue" d="M399.44,-72C389.66,-67.2 378.95,-61.95 370.05,-57.59"/>
<polygon fill="midnightblue" stroke="midnightblue" points="397.92,-75.15 408.44,-76.41 401.01,-68.87 397.92,-75.15"/>
</g>
<!-- Node5 -->
<g id="node5" class="node">
<title>Node5</title>
<g id="a_node5"><a xlink:href="dsygv_8f.html#a007d33bcdcc697e17c6d15432f159b73" target="_top" xlink:title=" ">
<polygon fill="white" stroke="black" points="249,-38.5 249,-57.5 292,-57.5 292,-38.5 249,-38.5"/>
<text text-anchor="middle" x="270.5" y="-45.5" font-family="Helvetica,sans-Serif" font-size="10.00">dsygv</text>
</a>
</g>
</g>
<!-- Node4&#45;&gt;Node5 -->
<g id="edge4" class="edge">
<title>Node4&#45;&gt;Node5</title>
<path fill="none" stroke="midnightblue" d="M317.77,-48C309.18,-48 300.05,-48 292.19,-48"/>
<polygon fill="midnightblue" stroke="midnightblue" points="317.87,-51.5 327.87,-48 317.87,-44.5 317.87,-51.5"/>
</g>
<!-- Node6 -->
<g id="node6" class="node">
<title>Node6</title>
<g id="a_node6"><a xlink:href="hmholtz_8f.html#a5a846560cdbe979f8cf9a71599a7f460" target="_top" xlink:title=" ">
<polygon fill="white" stroke="red" points="154,-38.5 154,-57.5 213,-57.5 213,-38.5 154,-38.5"/>
<text text-anchor="middle" x="183.5" y="-45.5" font-family="Helvetica,sans-Serif" font-size="10.00">generalev</text>
</a>
</g>
</g>
<!-- Node5&#45;&gt;Node6 -->
<g id="edge5" class="edge">
<title>Node5&#45;&gt;Node6</title>
<path fill="none" stroke="midnightblue" d="M238.82,-48C230.47,-48 221.47,-48 213.24,-48"/>
<polygon fill="midnightblue" stroke="midnightblue" points="238.92,-51.5 248.92,-48 238.92,-44.5 238.92,-51.5"/>
</g>
<!-- Node7 -->
<g id="node7" class="node">
<title>Node7</title>
<g id="a_node7"><a xlink:href="hsmg_8f.html#a57c4906700aca571f060a547363b280f" target="_top" xlink:title=" ">
<polygon fill="white" stroke="red" points="8,-76.5 8,-95.5 110,-95.5 110,-76.5 8,-76.5"/>
<text text-anchor="middle" x="59" y="-83.5" font-family="Helvetica,sans-Serif" font-size="10.00">hsmg_setup_fast1d</text>
</a>
</g>
</g>
<!-- Node6&#45;&gt;Node7 -->
<g id="edge6" class="edge">
<title>Node6&#45;&gt;Node7</title>
<path fill="none" stroke="midnightblue" d="M144.03,-59.93C126.83,-65.27 106.85,-71.47 90.68,-76.48"/>
<polygon fill="midnightblue" stroke="midnightblue" points="145.27,-63.22 153.78,-56.91 143.19,-56.53 145.27,-63.22"/>
</g>
<!-- Node17 -->
<g id="node8" class="node">
<title>Node17</title>
<g id="a_node8"><a xlink:href="hmholtz_8f.html#abd6f3614f9436265a22e0d5354f18926" target="_top" xlink:title=" ">
<polygon fill="white" stroke="red" points="0,-38.5 0,-57.5 118,-57.5 118,-38.5 0,-38.5"/>
<text text-anchor="middle" x="59" y="-45.5" font-family="Helvetica,sans-Serif" font-size="10.00">set_fdm_prec_h1a_gen</text>
</a>
</g>
</g>
<!-- Node6&#45;&gt;Node17 -->
<g id="edge7" class="edge">
<title>Node6&#45;&gt;Node17</title>
<path fill="none" stroke="midnightblue" d="M143.63,-48C135.6,-48 126.99,-48 118.44,-48"/>
<polygon fill="midnightblue" stroke="midnightblue" points="143.78,-51.5 153.78,-48 143.78,-44.5 143.78,-51.5"/>
</g>
<!-- Node84 -->
<g id="node9" class="node">
<title>Node84</title>
<g id="a_node9"><a xlink:href="fast3d_8f.html#a05d4e543e6504bffe2f7b080de6f71cf" target="_top" xlink:title=" ">
<polygon fill="white" stroke="red" points="5.5,-0.5 5.5,-19.5 112.5,-19.5 112.5,-0.5 5.5,-0.5"/>
<text text-anchor="middle" x="59" y="-7.5" font-family="Helvetica,sans-Serif" font-size="10.00">set_up_fast_1d_sem</text>
</a>
</g>
</g>
<!-- Node6&#45;&gt;Node84 -->
<g id="edge8" class="edge">
<title>Node6&#45;&gt;Node84</title>
<path fill="none" stroke="midnightblue" d="M144.03,-36.07C126.83,-30.73 106.85,-24.53 90.68,-19.52"/>
<polygon fill="midnightblue" stroke="midnightblue" points="143.19,-39.47 153.78,-39.09 145.27,-32.78 143.19,-39.47"/>
</g>
<!-- Node89&#45;&gt;Node3 -->
<g id="edge10" class="edge">
<title>Node89&#45;&gt;Node3</title>
<path fill="none" stroke="midnightblue" d="M399.44,-62C389.66,-66.8 378.95,-72.05 370.05,-76.41"/>
<polygon fill="midnightblue" stroke="midnightblue" points="401.01,-65.13 408.44,-57.59 397.92,-58.85 401.01,-65.13"/>
</g>
<!-- Node89&#45;&gt;Node4 -->
<g id="edge11" class="edge">
<title>Node89&#45;&gt;Node4</title>
<path fill="none" stroke="midnightblue" d="M398.26,-48C389.2,-48 379.45,-48 371.13,-48"/>
<polygon fill="midnightblue" stroke="midnightblue" points="398.44,-51.5 408.44,-48 398.44,-44.5 398.44,-51.5"/>
</g>
</g>
</svg>
