<?xml version="1.0" encoding="UTF-8" standalone="no"?>
<!DOCTYPE svg PUBLIC "-//W3C//DTD SVG 1.1//EN"
 "http://www.w3.org/Graphics/SVG/1.1/DTD/svg11.dtd">
<!-- Generated by graphviz version 2.46.0 (0)
 -->
<!-- Title: dlanst Pages: 1 -->
<svg width="384pt" height="180pt"
 viewBox="0.00 0.00 384.00 180.00" xmlns="http://www.w3.org/2000/svg" xmlns:xlink="http://www.w3.org/1999/xlink">
<g id="graph0" class="graph" transform="scale(1 1) rotate(0) translate(4 176)">
<title>dlanst</title>
<polygon fill="white" stroke="transparent" points="-4,4 -4,-176 380,-176 380,4 -4,4"/>
<!-- Node1 -->
<g id="node1" class="node">
<title>Node1</title>
<g id="a_node1"><a xlink:title=" ">
<polygon fill="#bfbfbf" stroke="black" points="0,-114.5 0,-133.5 43,-133.5 43,-114.5 0,-114.5"/>
<text text-anchor="middle" x="21.5" y="-121.5" font-family="Helvetica,sans-Serif" font-size="10.00">dlanst</text>
</a>
</g>
</g>
<!-- Node2 -->
<g id="node2" class="node">
<title>Node2</title>
<g id="a_node2"><a xlink:href="dlassq_8f.html#a9c824016058563e3b7189801d1de6d58" target="_top" xlink:title=" ">
<polygon fill="white" stroke="black" points="79,-152.5 79,-171.5 124,-171.5 124,-152.5 79,-152.5"/>
<text text-anchor="middle" x="101.5" y="-159.5" font-family="Helvetica,sans-Serif" font-size="10.00">dlassq</text>
</a>
</g>
</g>
<!-- Node1&#45;&gt;Node2 -->
<g id="edge1" class="edge">
<title>Node1&#45;&gt;Node2</title>
<path fill="none" stroke="midnightblue" d="M42.18,-133.59C51.14,-137.95 61.92,-143.21 71.77,-148"/>
<polygon fill="midnightblue" stroke="midnightblue" points="70.3,-151.18 80.82,-152.41 73.37,-144.89 70.3,-151.18"/>
</g>
<!-- Node3 -->
<g id="node3" class="node">
<title>Node3</title>
<g id="a_node3"><a xlink:href="lsame_8f.html#ada799b40a93f1fd2c6d1a86a95f21631" target="_top" xlink:title=" ">
<polygon fill="white" stroke="black" points="80,-114.5 80,-133.5 123,-133.5 123,-114.5 80,-114.5"/>
<text text-anchor="middle" x="101.5" y="-121.5" font-family="Helvetica,sans-Serif" font-size="10.00">lsame</text>
</a>
</g>
</g>
<!-- Node1&#45;&gt;Node3 -->
<g id="edge2" class="edge">
<title>Node1&#45;&gt;Node3</title>
<path fill="none" stroke="midnightblue" d="M43.4,-124C51.42,-124 60.76,-124 69.52,-124"/>
<polygon fill="midnightblue" stroke="midnightblue" points="69.81,-127.5 79.81,-124 69.81,-120.5 69.81,-127.5"/>
</g>
<!-- Node4 -->
<g id="node4" class="node">
<title>Node4</title>
<g id="a_node4"><a xlink:href="connect2_8f.html#a6e862f603b59c81091476a690c5e94ee" target="_top" xlink:title=" ">
<polygon fill="white" stroke="black" points="81.5,-76.5 81.5,-95.5 121.5,-95.5 121.5,-76.5 81.5,-76.5"/>
<text text-anchor="middle" x="101.5" y="-83.5" font-family="Helvetica,sans-Serif" font-size="10.00">scale</text>
</a>
</g>
</g>
<!-- Node1&#45;&gt;Node4 -->
<g id="edge3" class="edge">
<title>Node1&#45;&gt;Node4</title>
<path fill="none" stroke="midnightblue" d="M42.18,-114.41C51.28,-109.98 62.25,-104.63 72.22,-99.78"/>
<polygon fill="midnightblue" stroke="midnightblue" points="73.91,-102.85 81.36,-95.32 70.84,-96.56 73.91,-102.85"/>
</g>
<!-- Node5 -->
<g id="node5" class="node">
<title>Node5</title>
<g id="a_node5"><a xlink:href="math_8f.html#ac231f0566c16504dadd6ba0f16a38bd9" target="_top" xlink:title=" ">
<polygon fill="white" stroke="black" points="165,-152.5 165,-171.5 208,-171.5 208,-152.5 165,-152.5"/>
<text text-anchor="middle" x="186.5" y="-159.5" font-family="Helvetica,sans-Serif" font-size="10.00">glsum</text>
</a>
</g>
</g>
<!-- Node4&#45;&gt;Node5 -->
<g id="edge4" class="edge">
<title>Node4&#45;&gt;Node5</title>
<path fill="none" stroke="midnightblue" d="M113.48,-95.62C116.87,-98.61 120.6,-101.92 124,-105 138.87,-118.46 155.56,-133.95 167.79,-145.38"/>
<polygon fill="midnightblue" stroke="midnightblue" points="165.43,-147.96 175.12,-152.24 170.21,-142.85 165.43,-147.96"/>
</g>
<!-- Node6 -->
<g id="node6" class="node">
<title>Node6</title>
<g id="a_node6"><a xlink:href="gs__test__gop__blocking_8c.html#ab2e24f9857f6d1ded7e4d556c6bc5e49" target="_top" xlink:title=" ">
<polygon fill="white" stroke="black" points="249,-114.5 249,-133.5 281,-133.5 281,-114.5 249,-114.5"/>
<text text-anchor="middle" x="265" y="-121.5" font-family="Helvetica,sans-Serif" font-size="10.00">gop</text>
</a>
</g>
</g>
<!-- Node4&#45;&gt;Node6 -->
<g id="edge7" class="edge">
<title>Node4&#45;&gt;Node6</title>
<path fill="none" stroke="midnightblue" d="M121.73,-93.1C132.81,-97 147.06,-101.7 160,-105 186.5,-111.76 217.39,-117.09 238.58,-120.36"/>
<polygon fill="midnightblue" stroke="midnightblue" points="238.29,-123.86 248.7,-121.88 239.33,-116.94 238.29,-123.86"/>
</g>
<!-- Node8 -->
<g id="node8" class="node">
<title>Node8</title>
<g id="a_node8"><a xlink:href="connect2_8f.html#a15434c453b53c83ba2cb2a768d35085e" target="_top" xlink:title=" ">
<polygon fill="white" stroke="black" points="167.5,-76.5 167.5,-95.5 205.5,-95.5 205.5,-76.5 167.5,-76.5"/>
<text text-anchor="middle" x="186.5" y="-83.5" font-family="Helvetica,sans-Serif" font-size="10.00">inrtia</text>
</a>
</g>
</g>
<!-- Node4&#45;&gt;Node8 -->
<g id="edge8" class="edge">
<title>Node4&#45;&gt;Node8</title>
<path fill="none" stroke="midnightblue" d="M121.75,-86C132.31,-86 145.6,-86 157.31,-86"/>
<polygon fill="midnightblue" stroke="midnightblue" points="157.49,-89.5 167.49,-86 157.49,-82.5 157.49,-89.5"/>
</g>
<!-- Node9 -->
<g id="node9" class="node">
<title>Node9</title>
<g id="a_node9"><a xlink:href="math_8f.html#af44de42b023a4a68cd98ea341204342d" target="_top" xlink:title=" ">
<polygon fill="white" stroke="black" points="167.5,-38.5 167.5,-57.5 205.5,-57.5 205.5,-38.5 167.5,-38.5"/>
<text text-anchor="middle" x="186.5" y="-45.5" font-family="Helvetica,sans-Serif" font-size="10.00">rzero</text>
</a>
</g>
</g>
<!-- Node4&#45;&gt;Node9 -->
<g id="edge10" class="edge">
<title>Node4&#45;&gt;Node9</title>
<path fill="none" stroke="midnightblue" d="M121.75,-77.19C132.63,-72.2 146.41,-65.89 158.38,-60.42"/>
<polygon fill="midnightblue" stroke="midnightblue" points="159.85,-63.59 167.49,-56.25 156.94,-57.23 159.85,-63.59"/>
</g>
<!-- Node10 -->
<g id="node10" class="node">
<title>Node10</title>
<g id="a_node10"><a xlink:href="connect2_8f.html#a87e4cf77e2fcb243172fa8da88d5dfae" target="_top" xlink:title=" ">
<polygon fill="white" stroke="black" points="160,-0.5 160,-19.5 213,-19.5 213,-0.5 160,-0.5"/>
<text text-anchor="middle" x="186.5" y="-7.5" font-family="Helvetica,sans-Serif" font-size="10.00">volume2</text>
</a>
</g>
</g>
<!-- Node4&#45;&gt;Node10 -->
<g id="edge11" class="edge">
<title>Node4&#45;&gt;Node10</title>
<path fill="none" stroke="midnightblue" d="M111.48,-76.3C122.48,-64.61 141.89,-44.59 160,-29 161.29,-27.89 162.65,-26.76 164.03,-25.65"/>
<polygon fill="midnightblue" stroke="midnightblue" points="166.2,-28.39 171.99,-19.52 161.93,-22.85 166.2,-28.39"/>
</g>
<!-- Node5&#45;&gt;Node6 -->
<g id="edge5" class="edge">
<title>Node5&#45;&gt;Node6</title>
<path fill="none" stroke="midnightblue" d="M206.8,-152.41C216.7,-147.5 228.86,-141.46 239.42,-136.21"/>
<polygon fill="midnightblue" stroke="midnightblue" points="241.15,-139.26 248.55,-131.67 238.04,-132.99 241.15,-139.26"/>
</g>
<!-- Node7 -->
<g id="node7" class="node">
<title>Node7</title>
<g id="a_node7"><a xlink:href="math_8f.html#a17c0ecae12cc5c6096939885da90ad2b" target="_top" xlink:title=" ">
<polygon fill="white" stroke="black" points="317,-114.5 317,-133.5 376,-133.5 376,-114.5 317,-114.5"/>
<text text-anchor="middle" x="346.5" y="-121.5" font-family="Helvetica,sans-Serif" font-size="10.00">transpose</text>
</a>
</g>
</g>
<!-- Node6&#45;&gt;Node7 -->
<g id="edge6" class="edge">
<title>Node6&#45;&gt;Node7</title>
<path fill="none" stroke="midnightblue" d="M281.33,-124C288.61,-124 297.67,-124 306.67,-124"/>
<polygon fill="midnightblue" stroke="midnightblue" points="306.7,-127.5 316.7,-124 306.7,-120.5 306.7,-127.5"/>
</g>
<!-- Node8&#45;&gt;Node6 -->
<g id="edge9" class="edge">
<title>Node8&#45;&gt;Node6</title>
<path fill="none" stroke="midnightblue" d="M205.63,-95.01C215.81,-100.06 228.66,-106.44 239.7,-111.93"/>
<polygon fill="midnightblue" stroke="midnightblue" points="238.32,-115.15 248.83,-116.47 241.43,-108.88 238.32,-115.15"/>
</g>
</g>
</svg>
