<?xml version="1.0" encoding="UTF-8" standalone="no"?>
<!DOCTYPE svg PUBLIC "-//W3C//DTD SVG 1.1//EN"
 "http://www.w3.org/Graphics/SVG/1.1/DTD/svg11.dtd">
<!-- Generated by graphviz version 2.46.0 (0)
 -->
<!-- Title: dlansy Pages: 1 -->
<svg width="386pt" height="180pt"
 viewBox="0.00 0.00 386.00 180.00" xmlns="http://www.w3.org/2000/svg" xmlns:xlink="http://www.w3.org/1999/xlink">
<g id="graph0" class="graph" transform="scale(1 1) rotate(0) translate(4 176)">
<title>dlansy</title>
<polygon fill="white" stroke="transparent" points="-4,4 -4,-176 382,-176 382,4 -4,4"/>
<!-- Node1 -->
<g id="node1" class="node">
<title>Node1</title>
<g id="a_node1"><a xlink:title=" ">
<polygon fill="#bfbfbf" stroke="black" points="0,-114.5 0,-133.5 45,-133.5 45,-114.5 0,-114.5"/>
<text text-anchor="middle" x="22.5" y="-121.5" font-family="Helvetica,sans-Serif" font-size="10.00">dlansy</text>
</a>
</g>
</g>
<!-- Node2 -->
<g id="node2" class="node">
<title>Node2</title>
<g id="a_node2"><a xlink:href="dlassq_8f.html#a9c824016058563e3b7189801d1de6d58" target="_top" xlink:title=" ">
<polygon fill="white" stroke="black" points="81,-152.5 81,-171.5 126,-171.5 126,-152.5 81,-152.5"/>
<text text-anchor="middle" x="103.5" y="-159.5" font-family="Helvetica,sans-Serif" font-size="10.00">dlassq</text>
</a>
</g>
</g>
<!-- Node1&#45;&gt;Node2 -->
<g id="edge1" class="edge">
<title>Node1&#45;&gt;Node2</title>
<path fill="none" stroke="midnightblue" d="M43.44,-133.59C52.51,-137.95 63.43,-143.21 73.4,-148"/>
<polygon fill="midnightblue" stroke="midnightblue" points="72.04,-151.23 82.57,-152.41 75.08,-144.93 72.04,-151.23"/>
</g>
<!-- Node3 -->
<g id="node3" class="node">
<title>Node3</title>
<g id="a_node3"><a xlink:href="lsame_8f.html#ada799b40a93f1fd2c6d1a86a95f21631" target="_top" xlink:title=" ">
<polygon fill="white" stroke="black" points="82,-114.5 82,-133.5 125,-133.5 125,-114.5 82,-114.5"/>
<text text-anchor="middle" x="103.5" y="-121.5" font-family="Helvetica,sans-Serif" font-size="10.00">lsame</text>
</a>
</g>
</g>
<!-- Node1&#45;&gt;Node3 -->
<g id="edge2" class="edge">
<title>Node1&#45;&gt;Node3</title>
<path fill="none" stroke="midnightblue" d="M45.09,-124C53.3,-124 62.81,-124 71.71,-124"/>
<polygon fill="midnightblue" stroke="midnightblue" points="71.76,-127.5 81.76,-124 71.76,-120.5 71.76,-127.5"/>
</g>
<!-- Node4 -->
<g id="node4" class="node">
<title>Node4</title>
<g id="a_node4"><a xlink:href="connect2_8f.html#a6e862f603b59c81091476a690c5e94ee" target="_top" xlink:title=" ">
<polygon fill="white" stroke="black" points="83.5,-76.5 83.5,-95.5 123.5,-95.5 123.5,-76.5 83.5,-76.5"/>
<text text-anchor="middle" x="103.5" y="-83.5" font-family="Helvetica,sans-Serif" font-size="10.00">scale</text>
</a>
</g>
</g>
<!-- Node1&#45;&gt;Node4 -->
<g id="edge3" class="edge">
<title>Node1&#45;&gt;Node4</title>
<path fill="none" stroke="midnightblue" d="M43.44,-114.41C52.72,-109.95 63.93,-104.55 74.08,-99.67"/>
<polygon fill="midnightblue" stroke="midnightblue" points="75.89,-102.68 83.39,-95.19 72.86,-96.37 75.89,-102.68"/>
</g>
<!-- Node5 -->
<g id="node5" class="node">
<title>Node5</title>
<g id="a_node5"><a xlink:href="math_8f.html#ac231f0566c16504dadd6ba0f16a38bd9" target="_top" xlink:title=" ">
<polygon fill="white" stroke="black" points="167,-152.5 167,-171.5 210,-171.5 210,-152.5 167,-152.5"/>
<text text-anchor="middle" x="188.5" y="-159.5" font-family="Helvetica,sans-Serif" font-size="10.00">glsum</text>
</a>
</g>
</g>
<!-- Node4&#45;&gt;Node5 -->
<g id="edge4" class="edge">
<title>Node4&#45;&gt;Node5</title>
<path fill="none" stroke="midnightblue" d="M115.48,-95.62C118.87,-98.61 122.6,-101.92 126,-105 140.87,-118.46 157.56,-133.95 169.79,-145.38"/>
<polygon fill="midnightblue" stroke="midnightblue" points="167.43,-147.96 177.12,-152.24 172.21,-142.85 167.43,-147.96"/>
</g>
<!-- Node6 -->
<g id="node6" class="node">
<title>Node6</title>
<g id="a_node6"><a xlink:href="gs__test__gop__blocking_8c.html#ab2e24f9857f6d1ded7e4d556c6bc5e49" target="_top" xlink:title=" ">
<polygon fill="white" stroke="black" points="251,-114.5 251,-133.5 283,-133.5 283,-114.5 251,-114.5"/>
<text text-anchor="middle" x="267" y="-121.5" font-family="Helvetica,sans-Serif" font-size="10.00">gop</text>
</a>
</g>
</g>
<!-- Node4&#45;&gt;Node6 -->
<g id="edge7" class="edge">
<title>Node4&#45;&gt;Node6</title>
<path fill="none" stroke="midnightblue" d="M123.73,-93.1C134.81,-97 149.06,-101.7 162,-105 188.5,-111.76 219.39,-117.09 240.58,-120.36"/>
<polygon fill="midnightblue" stroke="midnightblue" points="240.29,-123.86 250.7,-121.88 241.33,-116.94 240.29,-123.86"/>
</g>
<!-- Node8 -->
<g id="node8" class="node">
<title>Node8</title>
<g id="a_node8"><a xlink:href="connect2_8f.html#a15434c453b53c83ba2cb2a768d35085e" target="_top" xlink:title=" ">
<polygon fill="white" stroke="black" points="169.5,-76.5 169.5,-95.5 207.5,-95.5 207.5,-76.5 169.5,-76.5"/>
<text text-anchor="middle" x="188.5" y="-83.5" font-family="Helvetica,sans-Serif" font-size="10.00">inrtia</text>
</a>
</g>
</g>
<!-- Node4&#45;&gt;Node8 -->
<g id="edge8" class="edge">
<title>Node4&#45;&gt;Node8</title>
<path fill="none" stroke="midnightblue" d="M123.75,-86C134.31,-86 147.6,-86 159.31,-86"/>
<polygon fill="midnightblue" stroke="midnightblue" points="159.49,-89.5 169.49,-86 159.49,-82.5 159.49,-89.5"/>
</g>
<!-- Node9 -->
<g id="node9" class="node">
<title>Node9</title>
<g id="a_node9"><a xlink:href="math_8f.html#af44de42b023a4a68cd98ea341204342d" target="_top" xlink:title=" ">
<polygon fill="white" stroke="black" points="169.5,-38.5 169.5,-57.5 207.5,-57.5 207.5,-38.5 169.5,-38.5"/>
<text text-anchor="middle" x="188.5" y="-45.5" font-family="Helvetica,sans-Serif" font-size="10.00">rzero</text>
</a>
</g>
</g>
<!-- Node4&#45;&gt;Node9 -->
<g id="edge10" class="edge">
<title>Node4&#45;&gt;Node9</title>
<path fill="none" stroke="midnightblue" d="M123.75,-77.19C134.63,-72.2 148.41,-65.89 160.38,-60.42"/>
<polygon fill="midnightblue" stroke="midnightblue" points="161.85,-63.59 169.49,-56.25 158.94,-57.23 161.85,-63.59"/>
</g>
<!-- Node10 -->
<g id="node10" class="node">
<title>Node10</title>
<g id="a_node10"><a xlink:href="connect2_8f.html#a87e4cf77e2fcb243172fa8da88d5dfae" target="_top" xlink:title=" ">
<polygon fill="white" stroke="black" points="162,-0.5 162,-19.5 215,-19.5 215,-0.5 162,-0.5"/>
<text text-anchor="middle" x="188.5" y="-7.5" font-family="Helvetica,sans-Serif" font-size="10.00">volume2</text>
</a>
</g>
</g>
<!-- Node4&#45;&gt;Node10 -->
<g id="edge11" class="edge">
<title>Node4&#45;&gt;Node10</title>
<path fill="none" stroke="midnightblue" d="M113.48,-76.3C124.48,-64.61 143.89,-44.59 162,-29 163.29,-27.89 164.65,-26.76 166.03,-25.65"/>
<polygon fill="midnightblue" stroke="midnightblue" points="168.2,-28.39 173.99,-19.52 163.93,-22.85 168.2,-28.39"/>
</g>
<!-- Node5&#45;&gt;Node6 -->
<g id="edge5" class="edge">
<title>Node5&#45;&gt;Node6</title>
<path fill="none" stroke="midnightblue" d="M208.8,-152.41C218.7,-147.5 230.86,-141.46 241.42,-136.21"/>
<polygon fill="midnightblue" stroke="midnightblue" points="243.15,-139.26 250.55,-131.67 240.04,-132.99 243.15,-139.26"/>
</g>
<!-- Node7 -->
<g id="node7" class="node">
<title>Node7</title>
<g id="a_node7"><a xlink:href="math_8f.html#a17c0ecae12cc5c6096939885da90ad2b" target="_top" xlink:title=" ">
<polygon fill="white" stroke="black" points="319,-114.5 319,-133.5 378,-133.5 378,-114.5 319,-114.5"/>
<text text-anchor="middle" x="348.5" y="-121.5" font-family="Helvetica,sans-Serif" font-size="10.00">transpose</text>
</a>
</g>
</g>
<!-- Node6&#45;&gt;Node7 -->
<g id="edge6" class="edge">
<title>Node6&#45;&gt;Node7</title>
<path fill="none" stroke="midnightblue" d="M283.33,-124C290.61,-124 299.67,-124 308.67,-124"/>
<polygon fill="midnightblue" stroke="midnightblue" points="308.7,-127.5 318.7,-124 308.7,-120.5 308.7,-127.5"/>
</g>
<!-- Node8&#45;&gt;Node6 -->
<g id="edge9" class="edge">
<title>Node8&#45;&gt;Node6</title>
<path fill="none" stroke="midnightblue" d="M207.63,-95.01C217.81,-100.06 230.66,-106.44 241.7,-111.93"/>
<polygon fill="midnightblue" stroke="midnightblue" points="240.32,-115.15 250.83,-116.47 243.43,-108.88 240.32,-115.15"/>
</g>
</g>
</svg>
