<?xml version="1.0" encoding="UTF-8" standalone="no"?>
<!DOCTYPE svg PUBLIC "-//W3C//DTD SVG 1.1//EN"
 "http://www.w3.org/Graphics/SVG/1.1/DTD/svg11.dtd">
<!-- Generated by graphviz version 2.46.0 (0)
 -->
<!-- Title: dlasrt Pages: 1 -->
<svg width="377pt" height="142pt"
 viewBox="0.00 0.00 377.00 142.00" xmlns="http://www.w3.org/2000/svg" xmlns:xlink="http://www.w3.org/1999/xlink">
<g id="graph0" class="graph" transform="scale(1 1) rotate(0) translate(4 138)">
<title>dlasrt</title>
<polygon fill="white" stroke="transparent" points="-4,4 -4,-138 373,-138 373,4 -4,4"/>
<!-- Node1 -->
<g id="node1" class="node">
<title>Node1</title>
<g id="a_node1"><a xlink:title=" ">
<polygon fill="#bfbfbf" stroke="black" points="328,-57.5 328,-76.5 369,-76.5 369,-57.5 328,-57.5"/>
<text text-anchor="middle" x="348.5" y="-64.5" font-family="Helvetica,sans-Serif" font-size="10.00">dlasrt</text>
</a>
</g>
</g>
<!-- Node2 -->
<g id="node2" class="node">
<title>Node2</title>
<g id="a_node2"><a xlink:href="dlasq1_8f.html#ab333230afcb0c2897f759d74e6f5c8d9" target="_top" xlink:title=" ">
<polygon fill="white" stroke="black" points="166,-95.5 166,-114.5 211,-114.5 211,-95.5 166,-95.5"/>
<text text-anchor="middle" x="188.5" y="-102.5" font-family="Helvetica,sans-Serif" font-size="10.00">dlasq1</text>
</a>
</g>
</g>
<!-- Node1&#45;&gt;Node2 -->
<g id="edge1" class="edge">
<title>Node1&#45;&gt;Node2</title>
<path fill="none" stroke="midnightblue" d="M329.73,-83.28C319.5,-91.52 305.94,-100.68 292,-105 265.14,-113.31 232.39,-111.37 211.25,-108.66"/>
<polygon fill="midnightblue" stroke="midnightblue" points="332.12,-85.84 337.47,-76.69 327.58,-80.51 332.12,-85.84"/>
</g>
<!-- Node6 -->
<g id="node6" class="node">
<title>Node6</title>
<g id="a_node6"><a xlink:href="dlasq2_8f.html#aa23a44b0562a4dfc670e5b7a676a2e2d" target="_top" xlink:title=" ">
<polygon fill="white" stroke="black" points="247,-76.5 247,-95.5 292,-95.5 292,-76.5 247,-76.5"/>
<text text-anchor="middle" x="269.5" y="-83.5" font-family="Helvetica,sans-Serif" font-size="10.00">dlasq2</text>
</a>
</g>
</g>
<!-- Node1&#45;&gt;Node6 -->
<g id="edge5" class="edge">
<title>Node1&#45;&gt;Node6</title>
<path fill="none" stroke="midnightblue" d="M317.7,-74.35C309.19,-76.45 300.08,-78.7 292.16,-80.66"/>
<polygon fill="midnightblue" stroke="midnightblue" points="318.8,-77.69 327.67,-71.89 317.12,-70.89 318.8,-77.69"/>
</g>
<!-- Node7 -->
<g id="node7" class="node">
<title>Node7</title>
<g id="a_node7"><a xlink:href="dsteqr_8f.html#a47fe470e7a882c58d4cc49e2c6cb7c70" target="_top" xlink:title=" ">
<polygon fill="white" stroke="black" points="247.5,-38.5 247.5,-57.5 291.5,-57.5 291.5,-38.5 247.5,-38.5"/>
<text text-anchor="middle" x="269.5" y="-45.5" font-family="Helvetica,sans-Serif" font-size="10.00">dsteqr</text>
</a>
</g>
</g>
<!-- Node1&#45;&gt;Node7 -->
<g id="edge7" class="edge">
<title>Node1&#45;&gt;Node7</title>
<path fill="none" stroke="midnightblue" d="M317.82,-59.68C309.08,-57.52 299.7,-55.2 291.61,-53.21"/>
<polygon fill="midnightblue" stroke="midnightblue" points="317.12,-63.11 327.67,-62.11 318.8,-56.31 317.12,-63.11"/>
</g>
<!-- Node94 -->
<g id="node10" class="node">
<title>Node94</title>
<g id="a_node10"><a xlink:href="dsterf_8f.html#af0616552c11358ae8298d0ac18ac023c" target="_top" xlink:title=" ">
<polygon fill="white" stroke="black" points="249,-0.5 249,-19.5 290,-19.5 290,-0.5 249,-0.5"/>
<text text-anchor="middle" x="269.5" y="-7.5" font-family="Helvetica,sans-Serif" font-size="10.00">dsterf</text>
</a>
</g>
</g>
<!-- Node1&#45;&gt;Node94 -->
<g id="edge10" class="edge">
<title>Node1&#45;&gt;Node94</title>
<path fill="none" stroke="midnightblue" d="M326.04,-51.12C312.33,-40.96 294.99,-28.13 283.37,-19.53"/>
<polygon fill="midnightblue" stroke="midnightblue" points="324.32,-54.19 334.44,-57.33 328.48,-48.57 324.32,-54.19"/>
</g>
<!-- Node3 -->
<g id="node3" class="node">
<title>Node3</title>
<g id="a_node3"><a xlink:href="dbdsqr_8f.html#a65ed5af8564ace53daffd808e51a7ba7" target="_top" xlink:title=" ">
<polygon fill="white" stroke="black" points="84,-95.5 84,-114.5 130,-114.5 130,-95.5 84,-95.5"/>
<text text-anchor="middle" x="107" y="-102.5" font-family="Helvetica,sans-Serif" font-size="10.00">dbdsqr</text>
</a>
</g>
</g>
<!-- Node2&#45;&gt;Node3 -->
<g id="edge2" class="edge">
<title>Node2&#45;&gt;Node3</title>
<path fill="none" stroke="midnightblue" d="M155.73,-105C147.19,-105 138.15,-105 130.25,-105"/>
<polygon fill="midnightblue" stroke="midnightblue" points="155.78,-108.5 165.78,-105 155.78,-101.5 155.78,-108.5"/>
</g>
<!-- Node4 -->
<g id="node4" class="node">
<title>Node4</title>
<g id="a_node4"><a xlink:href="dgelss_8f.html#aa6ed601d0622edcecb90de08d7a218ec" target="_top" xlink:title=" ">
<polygon fill="white" stroke="black" points="1.5,-114.5 1.5,-133.5 46.5,-133.5 46.5,-114.5 1.5,-114.5"/>
<text text-anchor="middle" x="24" y="-121.5" font-family="Helvetica,sans-Serif" font-size="10.00">dgelss</text>
</a>
</g>
</g>
<!-- Node3&#45;&gt;Node4 -->
<g id="edge3" class="edge">
<title>Node3&#45;&gt;Node4</title>
<path fill="none" stroke="midnightblue" d="M73.87,-112.54C64.7,-114.69 54.92,-116.98 46.55,-118.95"/>
<polygon fill="midnightblue" stroke="midnightblue" points="74.93,-115.88 83.87,-110.19 73.33,-109.07 74.93,-115.88"/>
</g>
<!-- Node5 -->
<g id="node5" class="node">
<title>Node5</title>
<g id="a_node5"><a xlink:href="dgesvd_8f.html#a84fdf22a62b12ff364621e4713ce02f2" target="_top" xlink:title=" ">
<polygon fill="white" stroke="black" points="0,-76.5 0,-95.5 48,-95.5 48,-76.5 0,-76.5"/>
<text text-anchor="middle" x="24" y="-83.5" font-family="Helvetica,sans-Serif" font-size="10.00">dgesvd</text>
</a>
</g>
</g>
<!-- Node3&#45;&gt;Node5 -->
<g id="edge4" class="edge">
<title>Node3&#45;&gt;Node5</title>
<path fill="none" stroke="midnightblue" d="M74.09,-97.51C65.46,-95.49 56.29,-93.34 48.24,-91.45"/>
<polygon fill="midnightblue" stroke="midnightblue" points="73.33,-100.93 83.87,-99.81 74.93,-94.12 73.33,-100.93"/>
</g>
<!-- Node6&#45;&gt;Node2 -->
<g id="edge6" class="edge">
<title>Node6&#45;&gt;Node2</title>
<path fill="none" stroke="midnightblue" d="M237.04,-93.57C228.33,-95.66 219.07,-97.89 211.06,-99.81"/>
<polygon fill="midnightblue" stroke="midnightblue" points="238.01,-96.93 246.91,-91.19 236.37,-90.13 238.01,-96.93"/>
</g>
<!-- Node8 -->
<g id="node8" class="node">
<title>Node8</title>
<g id="a_node8"><a xlink:href="dstev_8f.html#aaa6df51cfd92c4ab08d41a54bf05c3ab" target="_top" xlink:title=" ">
<polygon fill="white" stroke="black" points="168,-0.5 168,-19.5 209,-19.5 209,-0.5 168,-0.5"/>
<text text-anchor="middle" x="188.5" y="-7.5" font-family="Helvetica,sans-Serif" font-size="10.00">dstev</text>
</a>
</g>
</g>
<!-- Node7&#45;&gt;Node8 -->
<g id="edge8" class="edge">
<title>Node7&#45;&gt;Node8</title>
<path fill="none" stroke="midnightblue" d="M239.32,-33.96C229.27,-29.13 218.26,-23.83 209.15,-19.45"/>
<polygon fill="midnightblue" stroke="midnightblue" points="238.04,-37.23 248.56,-38.41 241.07,-30.92 238.04,-37.23"/>
</g>
<!-- Node9 -->
<g id="node9" class="node">
<title>Node9</title>
<g id="a_node9"><a xlink:href="dsyev_8f.html#a442c43fca5493590f8f26cf42fed4044" target="_top" xlink:title=" ">
<polygon fill="white" stroke="red" points="167,-38.5 167,-57.5 210,-57.5 210,-38.5 167,-38.5"/>
<text text-anchor="middle" x="188.5" y="-45.5" font-family="Helvetica,sans-Serif" font-size="10.00">dsyev</text>
</a>
</g>
</g>
<!-- Node7&#45;&gt;Node9 -->
<g id="edge9" class="edge">
<title>Node7&#45;&gt;Node9</title>
<path fill="none" stroke="midnightblue" d="M237.1,-48C228.05,-48 218.41,-48 210.18,-48"/>
<polygon fill="midnightblue" stroke="midnightblue" points="237.33,-51.5 247.33,-48 237.33,-44.5 237.33,-51.5"/>
</g>
<!-- Node94&#45;&gt;Node8 -->
<g id="edge11" class="edge">
<title>Node94&#45;&gt;Node8</title>
<path fill="none" stroke="midnightblue" d="M238.69,-10C228.78,-10 218.01,-10 209.08,-10"/>
<polygon fill="midnightblue" stroke="midnightblue" points="238.97,-13.5 248.97,-10 238.97,-6.5 238.97,-13.5"/>
</g>
<!-- Node94&#45;&gt;Node9 -->
<g id="edge12" class="edge">
<title>Node94&#45;&gt;Node9</title>
<path fill="none" stroke="midnightblue" d="M239.71,-23.85C229.63,-28.7 218.54,-34.03 209.35,-38.45"/>
<polygon fill="midnightblue" stroke="midnightblue" points="241.48,-26.88 248.97,-19.39 238.44,-20.57 241.48,-26.88"/>
</g>
</g>
</svg>
