<?xml version="1.0" encoding="UTF-8" standalone="no"?>
<!DOCTYPE svg PUBLIC "-//W3C//DTD SVG 1.1//EN"
 "http://www.w3.org/Graphics/SVG/1.1/DTD/svg11.dtd">
<!-- Generated by graphviz version 2.46.0 (0)
 -->
<!-- Title: dlaset Pages: 1 -->
<svg width="388pt" height="180pt"
 viewBox="0.00 0.00 388.00 180.00" xmlns="http://www.w3.org/2000/svg" xmlns:xlink="http://www.w3.org/1999/xlink">
<g id="graph0" class="graph" transform="scale(1 1) rotate(0) translate(4 176)">
<title>dlaset</title>
<polygon fill="white" stroke="transparent" points="-4,4 -4,-176 384,-176 384,4 -4,4"/>
<!-- Node1 -->
<g id="node1" class="node">
<title>Node1</title>
<g id="a_node1"><a xlink:title=" ">
<polygon fill="#bfbfbf" stroke="black" points="337,-95.5 337,-114.5 380,-114.5 380,-95.5 337,-95.5"/>
<text text-anchor="middle" x="358.5" y="-102.5" font-family="Helvetica,sans-Serif" font-size="10.00">dlaset</text>
</a>
</g>
</g>
<!-- Node2 -->
<g id="node2" class="node">
<title>Node2</title>
<g id="a_node2"><a xlink:href="dgelss_8f.html#aa6ed601d0622edcecb90de08d7a218ec" target="_top" xlink:title=" ">
<polygon fill="white" stroke="black" points="254.5,-152.5 254.5,-171.5 299.5,-171.5 299.5,-152.5 254.5,-152.5"/>
<text text-anchor="middle" x="277" y="-159.5" font-family="Helvetica,sans-Serif" font-size="10.00">dgelss</text>
</a>
</g>
</g>
<!-- Node1&#45;&gt;Node2 -->
<g id="edge1" class="edge">
<title>Node1&#45;&gt;Node2</title>
<path fill="none" stroke="midnightblue" d="M335.75,-120.59C321.52,-130.79 303.4,-143.79 291.29,-152.47"/>
<polygon fill="midnightblue" stroke="midnightblue" points="337.93,-123.34 344.01,-114.67 333.85,-117.65 337.93,-123.34"/>
</g>
<!-- Node3 -->
<g id="node3" class="node">
<title>Node3</title>
<g id="a_node3"><a xlink:href="dgesvd_8f.html#a84fdf22a62b12ff364621e4713ce02f2" target="_top" xlink:title=" ">
<polygon fill="white" stroke="black" points="253,-114.5 253,-133.5 301,-133.5 301,-114.5 253,-114.5"/>
<text text-anchor="middle" x="277" y="-121.5" font-family="Helvetica,sans-Serif" font-size="10.00">dgesvd</text>
</a>
</g>
</g>
<!-- Node1&#45;&gt;Node3 -->
<g id="edge2" class="edge">
<title>Node1&#45;&gt;Node3</title>
<path fill="none" stroke="midnightblue" d="M326.69,-112.36C318.24,-114.38 309.22,-116.54 301.27,-118.44"/>
<polygon fill="midnightblue" stroke="midnightblue" points="327.7,-115.72 336.61,-109.99 326.07,-108.91 327.7,-115.72"/>
</g>
<!-- Node4 -->
<g id="node4" class="node">
<title>Node4</title>
<g id="a_node4"><a xlink:href="dhseqr_8f.html#acb35e85b362ce8ccf9d653cc3f8fb89c" target="_top" xlink:title=" ">
<polygon fill="white" stroke="black" points="254,-76.5 254,-95.5 300,-95.5 300,-76.5 254,-76.5"/>
<text text-anchor="middle" x="277" y="-83.5" font-family="Helvetica,sans-Serif" font-size="10.00">dhseqr</text>
</a>
</g>
</g>
<!-- Node1&#45;&gt;Node4 -->
<g id="edge3" class="edge">
<title>Node1&#45;&gt;Node4</title>
<path fill="none" stroke="midnightblue" d="M326.63,-97.62C317.8,-95.51 308.34,-93.25 300.14,-91.29"/>
<polygon fill="midnightblue" stroke="midnightblue" points="326.07,-101.09 336.61,-100.01 327.7,-94.28 326.07,-101.09"/>
</g>
<!-- Node6 -->
<g id="node6" class="node">
<title>Node6</title>
<g id="a_node6"><a xlink:href="dsteqr_8f.html#a47fe470e7a882c58d4cc49e2c6cb7c70" target="_top" xlink:title=" ">
<polygon fill="white" stroke="black" points="255,-38.5 255,-57.5 299,-57.5 299,-38.5 255,-38.5"/>
<text text-anchor="middle" x="277" y="-45.5" font-family="Helvetica,sans-Serif" font-size="10.00">dsteqr</text>
</a>
</g>
</g>
<!-- Node1&#45;&gt;Node6 -->
<g id="edge5" class="edge">
<title>Node1&#45;&gt;Node6</title>
<path fill="none" stroke="midnightblue" d="M335.75,-89.41C321.52,-79.21 303.4,-66.21 291.29,-57.53"/>
<polygon fill="midnightblue" stroke="midnightblue" points="333.85,-92.35 344.01,-95.33 337.93,-86.66 333.85,-92.35"/>
</g>
<!-- Node5 -->
<g id="node5" class="node">
<title>Node5</title>
<g id="a_node5"><a xlink:href="dgeev_8f.html#a66e19253344358f5dee1e60502b9e96f" target="_top" xlink:title=" ">
<polygon fill="white" stroke="black" points="174,-76.5 174,-95.5 217,-95.5 217,-76.5 174,-76.5"/>
<text text-anchor="middle" x="195.5" y="-83.5" font-family="Helvetica,sans-Serif" font-size="10.00">dgeev</text>
</a>
</g>
</g>
<!-- Node4&#45;&gt;Node5 -->
<g id="edge4" class="edge">
<title>Node4&#45;&gt;Node5</title>
<path fill="none" stroke="midnightblue" d="M243.69,-86C234.74,-86 225.26,-86 217.16,-86"/>
<polygon fill="midnightblue" stroke="midnightblue" points="243.85,-89.5 253.85,-86 243.85,-82.5 243.85,-89.5"/>
</g>
<!-- Node7 -->
<g id="node7" class="node">
<title>Node7</title>
<g id="a_node7"><a xlink:href="dstev_8f.html#aaa6df51cfd92c4ab08d41a54bf05c3ab" target="_top" xlink:title=" ">
<polygon fill="white" stroke="black" points="175,-38.5 175,-57.5 216,-57.5 216,-38.5 175,-38.5"/>
<text text-anchor="middle" x="195.5" y="-45.5" font-family="Helvetica,sans-Serif" font-size="10.00">dstev</text>
</a>
</g>
</g>
<!-- Node6&#45;&gt;Node7 -->
<g id="edge6" class="edge">
<title>Node6&#45;&gt;Node7</title>
<path fill="none" stroke="midnightblue" d="M244.67,-48C235.08,-48 224.81,-48 216.23,-48"/>
<polygon fill="midnightblue" stroke="midnightblue" points="244.7,-51.5 254.7,-48 244.7,-44.5 244.7,-51.5"/>
</g>
<!-- Node8 -->
<g id="node8" class="node">
<title>Node8</title>
<g id="a_node8"><a xlink:href="dsyev_8f.html#a442c43fca5493590f8f26cf42fed4044" target="_top" xlink:title=" ">
<polygon fill="white" stroke="black" points="174,-0.5 174,-19.5 217,-19.5 217,-0.5 174,-0.5"/>
<text text-anchor="middle" x="195.5" y="-7.5" font-family="Helvetica,sans-Serif" font-size="10.00">dsyev</text>
</a>
</g>
</g>
<!-- Node6&#45;&gt;Node8 -->
<g id="edge7" class="edge">
<title>Node6&#45;&gt;Node8</title>
<path fill="none" stroke="midnightblue" d="M246.71,-34C236.67,-29.2 225.69,-23.95 216.55,-19.59"/>
<polygon fill="midnightblue" stroke="midnightblue" points="245.41,-37.26 255.94,-38.41 248.43,-30.94 245.41,-37.26"/>
</g>
<!-- Node9 -->
<g id="node9" class="node">
<title>Node9</title>
<g id="a_node9"><a xlink:href="dsygv_8f.html#a007d33bcdcc697e17c6d15432f159b73" target="_top" xlink:title=" ">
<polygon fill="white" stroke="black" points="95,-0.5 95,-19.5 138,-19.5 138,-0.5 95,-0.5"/>
<text text-anchor="middle" x="116.5" y="-7.5" font-family="Helvetica,sans-Serif" font-size="10.00">dsygv</text>
</a>
</g>
</g>
<!-- Node8&#45;&gt;Node9 -->
<g id="edge8" class="edge">
<title>Node8&#45;&gt;Node9</title>
<path fill="none" stroke="midnightblue" d="M163.77,-10C155.18,-10 146.05,-10 138.19,-10"/>
<polygon fill="midnightblue" stroke="midnightblue" points="163.87,-13.5 173.87,-10 163.87,-6.5 163.87,-13.5"/>
</g>
<!-- Node10 -->
<g id="node10" class="node">
<title>Node10</title>
<g id="a_node10"><a xlink:href="hmholtz_8f.html#a5a846560cdbe979f8cf9a71599a7f460" target="_top" xlink:title=" ">
<polygon fill="white" stroke="red" points="0,-0.5 0,-19.5 59,-19.5 59,-0.5 0,-0.5"/>
<text text-anchor="middle" x="29.5" y="-7.5" font-family="Helvetica,sans-Serif" font-size="10.00">generalev</text>
</a>
</g>
</g>
<!-- Node9&#45;&gt;Node10 -->
<g id="edge9" class="edge">
<title>Node9&#45;&gt;Node10</title>
<path fill="none" stroke="midnightblue" d="M84.82,-10C76.47,-10 67.47,-10 59.24,-10"/>
<polygon fill="midnightblue" stroke="midnightblue" points="84.92,-13.5 94.92,-10 84.92,-6.5 84.92,-13.5"/>
</g>
</g>
</svg>
