<?xml version="1.0" encoding="UTF-8" standalone="no"?>
<!DOCTYPE svg PUBLIC "-//W3C//DTD SVG 1.1//EN"
 "http://www.w3.org/Graphics/SVG/1.1/DTD/svg11.dtd">
<!-- Generated by graphviz version 2.46.0 (0)
 -->
<!-- Title: dlasq2 Pages: 1 -->
<svg width="215pt" height="142pt"
 viewBox="0.00 0.00 215.00 142.00" xmlns="http://www.w3.org/2000/svg" xmlns:xlink="http://www.w3.org/1999/xlink">
<g id="graph0" class="graph" transform="scale(1 1) rotate(0) translate(4 138)">
<title>dlasq2</title>
<polygon fill="white" stroke="transparent" points="-4,4 -4,-138 211,-138 211,4 -4,4"/>
<!-- Node1 -->
<g id="node1" class="node">
<title>Node1</title>
<g id="a_node1"><a xlink:title=" ">
<polygon fill="#bfbfbf" stroke="black" points="0,-38.5 0,-57.5 45,-57.5 45,-38.5 0,-38.5"/>
<text text-anchor="middle" x="22.5" y="-45.5" font-family="Helvetica,sans-Serif" font-size="10.00">dlasq2</text>
</a>
</g>
</g>
<!-- Node2 -->
<g id="node2" class="node">
<title>Node2</title>
<g id="a_node2"><a xlink:href="dlasq3_8f.html#ae26b5ce2ec17d27379810080f5cd5713" target="_top" xlink:title=" ">
<polygon fill="white" stroke="black" points="81,-76.5 81,-95.5 126,-95.5 126,-76.5 81,-76.5"/>
<text text-anchor="middle" x="103.5" y="-83.5" font-family="Helvetica,sans-Serif" font-size="10.00">dlasq3</text>
</a>
</g>
</g>
<!-- Node1&#45;&gt;Node2 -->
<g id="edge1" class="edge">
<title>Node1&#45;&gt;Node2</title>
<path fill="none" stroke="midnightblue" d="M43.44,-57.59C52.51,-61.95 63.43,-67.21 73.4,-72"/>
<polygon fill="midnightblue" stroke="midnightblue" points="72.04,-75.23 82.57,-76.41 75.08,-68.93 72.04,-75.23"/>
</g>
<!-- Node6 -->
<g id="node6" class="node">
<title>Node6</title>
<g id="a_node6"><a xlink:href="dlasrt_8f.html#a88a9fb57b6459176b68f21720d3d2ad2" target="_top" xlink:title=" ">
<polygon fill="white" stroke="black" points="83,-38.5 83,-57.5 124,-57.5 124,-38.5 83,-38.5"/>
<text text-anchor="middle" x="103.5" y="-45.5" font-family="Helvetica,sans-Serif" font-size="10.00">dlasrt</text>
</a>
</g>
</g>
<!-- Node1&#45;&gt;Node6 -->
<g id="edge5" class="edge">
<title>Node1&#45;&gt;Node6</title>
<path fill="none" stroke="midnightblue" d="M45.09,-48C53.56,-48 63.42,-48 72.56,-48"/>
<polygon fill="midnightblue" stroke="midnightblue" points="72.83,-51.5 82.83,-48 72.83,-44.5 72.83,-51.5"/>
</g>
<!-- Node7 -->
<g id="node7" class="node">
<title>Node7</title>
<g id="a_node7"><a xlink:href="xerbla_8f.html#a377ee61015baf8dea7770b3a404b1c07" target="_top" xlink:title=" ">
<polygon fill="white" stroke="black" points="163,-0.5 163,-19.5 206,-19.5 206,-0.5 163,-0.5"/>
<text text-anchor="middle" x="184.5" y="-7.5" font-family="Helvetica,sans-Serif" font-size="10.00">xerbla</text>
</a>
</g>
</g>
<!-- Node1&#45;&gt;Node7 -->
<g id="edge7" class="edge">
<title>Node1&#45;&gt;Node7</title>
<path fill="none" stroke="midnightblue" d="M45.14,-40.08C55.83,-36.36 68.98,-32.08 81,-29 104.88,-22.87 132.38,-17.88 152.88,-14.56"/>
<polygon fill="midnightblue" stroke="midnightblue" points="153.57,-17.99 162.9,-12.97 152.48,-11.08 153.57,-17.99"/>
</g>
<!-- Node3 -->
<g id="node3" class="node">
<title>Node3</title>
<g id="a_node3"><a xlink:href="dlasq4_8f.html#a4b724d22720fa90a4db9fdea3fdc3a22" target="_top" xlink:title=" ">
<polygon fill="white" stroke="black" points="162,-114.5 162,-133.5 207,-133.5 207,-114.5 162,-114.5"/>
<text text-anchor="middle" x="184.5" y="-121.5" font-family="Helvetica,sans-Serif" font-size="10.00">dlasq4</text>
</a>
</g>
</g>
<!-- Node2&#45;&gt;Node3 -->
<g id="edge2" class="edge">
<title>Node2&#45;&gt;Node3</title>
<path fill="none" stroke="midnightblue" d="M124.44,-95.59C133.51,-99.95 144.43,-105.21 154.4,-110"/>
<polygon fill="midnightblue" stroke="midnightblue" points="153.04,-113.23 163.57,-114.41 156.08,-106.93 153.04,-113.23"/>
</g>
<!-- Node4 -->
<g id="node4" class="node">
<title>Node4</title>
<g id="a_node4"><a xlink:href="dlasq5_8f.html#a4a94713732374a76cc15b29f5012ec69" target="_top" xlink:title=" ">
<polygon fill="white" stroke="black" points="162,-76.5 162,-95.5 207,-95.5 207,-76.5 162,-76.5"/>
<text text-anchor="middle" x="184.5" y="-83.5" font-family="Helvetica,sans-Serif" font-size="10.00">dlasq5</text>
</a>
</g>
</g>
<!-- Node2&#45;&gt;Node4 -->
<g id="edge3" class="edge">
<title>Node2&#45;&gt;Node4</title>
<path fill="none" stroke="midnightblue" d="M126.09,-86C134.01,-86 143.16,-86 151.79,-86"/>
<polygon fill="midnightblue" stroke="midnightblue" points="151.94,-89.5 161.94,-86 151.94,-82.5 151.94,-89.5"/>
</g>
<!-- Node5 -->
<g id="node5" class="node">
<title>Node5</title>
<g id="a_node5"><a xlink:href="dlasq6_8f.html#a5b8d724babb26c081b057fa28f05b16e" target="_top" xlink:title=" ">
<polygon fill="white" stroke="black" points="162,-38.5 162,-57.5 207,-57.5 207,-38.5 162,-38.5"/>
<text text-anchor="middle" x="184.5" y="-45.5" font-family="Helvetica,sans-Serif" font-size="10.00">dlasq6</text>
</a>
</g>
</g>
<!-- Node2&#45;&gt;Node5 -->
<g id="edge4" class="edge">
<title>Node2&#45;&gt;Node5</title>
<path fill="none" stroke="midnightblue" d="M124.44,-76.41C133.51,-72.05 144.43,-66.79 154.4,-62"/>
<polygon fill="midnightblue" stroke="midnightblue" points="156.08,-65.07 163.57,-57.59 153.04,-58.77 156.08,-65.07"/>
</g>
<!-- Node6&#45;&gt;Node7 -->
<g id="edge6" class="edge">
<title>Node6&#45;&gt;Node7</title>
<path fill="none" stroke="midnightblue" d="M124.03,-38.61C133.17,-34.21 144.25,-28.88 154.35,-24.02"/>
<polygon fill="midnightblue" stroke="midnightblue" points="156.15,-27.04 163.65,-19.55 153.12,-20.73 156.15,-27.04"/>
</g>
</g>
</svg>
