<?xml version="1.0" encoding="UTF-8" standalone="no"?>
<!DOCTYPE svg PUBLIC "-//W3C//DTD SVG 1.1//EN"
 "http://www.w3.org/Graphics/SVG/1.1/DTD/svg11.dtd">
<!-- Generated by graphviz version 2.46.0 (0)
 -->
<!-- Title: dlasq3 Pages: 1 -->
<svg width="134pt" height="104pt"
 viewBox="0.00 0.00 134.00 104.00" xmlns="http://www.w3.org/2000/svg" xmlns:xlink="http://www.w3.org/1999/xlink">
<g id="graph0" class="graph" transform="scale(1 1) rotate(0) translate(4 100)">
<title>dlasq3</title>
<polygon fill="white" stroke="transparent" points="-4,4 -4,-100 130,-100 130,4 -4,4"/>
<!-- Node1 -->
<g id="node1" class="node">
<title>Node1</title>
<g id="a_node1"><a xlink:title=" ">
<polygon fill="#bfbfbf" stroke="black" points="0,-38.5 0,-57.5 45,-57.5 45,-38.5 0,-38.5"/>
<text text-anchor="middle" x="22.5" y="-45.5" font-family="Helvetica,sans-Serif" font-size="10.00">dlasq3</text>
</a>
</g>
</g>
<!-- Node2 -->
<g id="node2" class="node">
<title>Node2</title>
<g id="a_node2"><a xlink:href="dlasq4_8f.html#a4b724d22720fa90a4db9fdea3fdc3a22" target="_top" xlink:title=" ">
<polygon fill="white" stroke="black" points="81,-76.5 81,-95.5 126,-95.5 126,-76.5 81,-76.5"/>
<text text-anchor="middle" x="103.5" y="-83.5" font-family="Helvetica,sans-Serif" font-size="10.00">dlasq4</text>
</a>
</g>
</g>
<!-- Node1&#45;&gt;Node2 -->
<g id="edge1" class="edge">
<title>Node1&#45;&gt;Node2</title>
<path fill="none" stroke="midnightblue" d="M43.44,-57.59C52.51,-61.95 63.43,-67.21 73.4,-72"/>
<polygon fill="midnightblue" stroke="midnightblue" points="72.04,-75.23 82.57,-76.41 75.08,-68.93 72.04,-75.23"/>
</g>
<!-- Node3 -->
<g id="node3" class="node">
<title>Node3</title>
<g id="a_node3"><a xlink:href="dlasq5_8f.html#a4a94713732374a76cc15b29f5012ec69" target="_top" xlink:title=" ">
<polygon fill="white" stroke="black" points="81,-38.5 81,-57.5 126,-57.5 126,-38.5 81,-38.5"/>
<text text-anchor="middle" x="103.5" y="-45.5" font-family="Helvetica,sans-Serif" font-size="10.00">dlasq5</text>
</a>
</g>
</g>
<!-- Node1&#45;&gt;Node3 -->
<g id="edge2" class="edge">
<title>Node1&#45;&gt;Node3</title>
<path fill="none" stroke="midnightblue" d="M45.09,-48C53.01,-48 62.16,-48 70.79,-48"/>
<polygon fill="midnightblue" stroke="midnightblue" points="70.94,-51.5 80.94,-48 70.94,-44.5 70.94,-51.5"/>
</g>
<!-- Node4 -->
<g id="node4" class="node">
<title>Node4</title>
<g id="a_node4"><a xlink:href="dlasq6_8f.html#a5b8d724babb26c081b057fa28f05b16e" target="_top" xlink:title=" ">
<polygon fill="white" stroke="black" points="81,-0.5 81,-19.5 126,-19.5 126,-0.5 81,-0.5"/>
<text text-anchor="middle" x="103.5" y="-7.5" font-family="Helvetica,sans-Serif" font-size="10.00">dlasq6</text>
</a>
</g>
</g>
<!-- Node1&#45;&gt;Node4 -->
<g id="edge3" class="edge">
<title>Node1&#45;&gt;Node4</title>
<path fill="none" stroke="midnightblue" d="M43.44,-38.41C52.51,-34.05 63.43,-28.79 73.4,-24"/>
<polygon fill="midnightblue" stroke="midnightblue" points="75.08,-27.07 82.57,-19.59 72.04,-20.77 75.08,-27.07"/>
</g>
</g>
</svg>
