<?xml version="1.0" encoding="UTF-8" standalone="no"?>
<!DOCTYPE svg PUBLIC "-//W3C//DTD SVG 1.1//EN"
 "http://www.w3.org/Graphics/SVG/1.1/DTD/svg11.dtd">
<!-- Generated by graphviz version 2.46.0 (0)
 -->
<!-- Title: dlasq4 Pages: 1 -->
<svg width="462pt" height="66pt"
 viewBox="0.00 0.00 462.00 66.00" xmlns="http://www.w3.org/2000/svg" xmlns:xlink="http://www.w3.org/1999/xlink">
<g id="graph0" class="graph" transform="scale(1 1) rotate(0) translate(4 62)">
<title>dlasq4</title>
<polygon fill="white" stroke="transparent" points="-4,4 -4,-62 458,-62 458,4 -4,4"/>
<!-- Node1 -->
<g id="node1" class="node">
<title>Node1</title>
<g id="a_node1"><a xlink:title=" ">
<polygon fill="#bfbfbf" stroke="black" points="409,-19.5 409,-38.5 454,-38.5 454,-19.5 409,-19.5"/>
<text text-anchor="middle" x="431.5" y="-26.5" font-family="Helvetica,sans-Serif" font-size="10.00">dlasq4</text>
</a>
</g>
</g>
<!-- Node2 -->
<g id="node2" class="node">
<title>Node2</title>
<g id="a_node2"><a xlink:href="dlasq3_8f.html#ae26b5ce2ec17d27379810080f5cd5713" target="_top" xlink:title=" ">
<polygon fill="white" stroke="black" points="328,-19.5 328,-38.5 373,-38.5 373,-19.5 328,-19.5"/>
<text text-anchor="middle" x="350.5" y="-26.5" font-family="Helvetica,sans-Serif" font-size="10.00">dlasq3</text>
</a>
</g>
</g>
<!-- Node1&#45;&gt;Node2 -->
<g id="edge1" class="edge">
<title>Node1&#45;&gt;Node2</title>
<path fill="none" stroke="midnightblue" d="M398.76,-29C390.13,-29 380.98,-29 373.06,-29"/>
<polygon fill="midnightblue" stroke="midnightblue" points="398.91,-32.5 408.91,-29 398.91,-25.5 398.91,-32.5"/>
</g>
<!-- Node3 -->
<g id="node3" class="node">
<title>Node3</title>
<g id="a_node3"><a xlink:href="dlasq2_8f.html#aa23a44b0562a4dfc670e5b7a676a2e2d" target="_top" xlink:title=" ">
<polygon fill="white" stroke="black" points="247,-19.5 247,-38.5 292,-38.5 292,-19.5 247,-19.5"/>
<text text-anchor="middle" x="269.5" y="-26.5" font-family="Helvetica,sans-Serif" font-size="10.00">dlasq2</text>
</a>
</g>
</g>
<!-- Node2&#45;&gt;Node3 -->
<g id="edge2" class="edge">
<title>Node2&#45;&gt;Node3</title>
<path fill="none" stroke="midnightblue" d="M317.76,-29C309.13,-29 299.98,-29 292.06,-29"/>
<polygon fill="midnightblue" stroke="midnightblue" points="317.91,-32.5 327.91,-29 317.91,-25.5 317.91,-32.5"/>
</g>
<!-- Node4 -->
<g id="node4" class="node">
<title>Node4</title>
<g id="a_node4"><a xlink:href="dlasq1_8f.html#ab333230afcb0c2897f759d74e6f5c8d9" target="_top" xlink:title=" ">
<polygon fill="white" stroke="black" points="166,-19.5 166,-38.5 211,-38.5 211,-19.5 166,-19.5"/>
<text text-anchor="middle" x="188.5" y="-26.5" font-family="Helvetica,sans-Serif" font-size="10.00">dlasq1</text>
</a>
</g>
</g>
<!-- Node3&#45;&gt;Node4 -->
<g id="edge3" class="edge">
<title>Node3&#45;&gt;Node4</title>
<path fill="none" stroke="midnightblue" d="M236.76,-29C228.13,-29 218.98,-29 211.06,-29"/>
<polygon fill="midnightblue" stroke="midnightblue" points="236.91,-32.5 246.91,-29 236.91,-25.5 236.91,-32.5"/>
</g>
<!-- Node5 -->
<g id="node5" class="node">
<title>Node5</title>
<g id="a_node5"><a xlink:href="dbdsqr_8f.html#a65ed5af8564ace53daffd808e51a7ba7" target="_top" xlink:title=" ">
<polygon fill="white" stroke="black" points="84,-19.5 84,-38.5 130,-38.5 130,-19.5 84,-19.5"/>
<text text-anchor="middle" x="107" y="-26.5" font-family="Helvetica,sans-Serif" font-size="10.00">dbdsqr</text>
</a>
</g>
</g>
<!-- Node4&#45;&gt;Node5 -->
<g id="edge4" class="edge">
<title>Node4&#45;&gt;Node5</title>
<path fill="none" stroke="midnightblue" d="M155.73,-29C147.19,-29 138.15,-29 130.25,-29"/>
<polygon fill="midnightblue" stroke="midnightblue" points="155.78,-32.5 165.78,-29 155.78,-25.5 155.78,-32.5"/>
</g>
<!-- Node6 -->
<g id="node6" class="node">
<title>Node6</title>
<g id="a_node6"><a xlink:href="dgelss_8f.html#aa6ed601d0622edcecb90de08d7a218ec" target="_top" xlink:title=" ">
<polygon fill="white" stroke="black" points="1.5,-38.5 1.5,-57.5 46.5,-57.5 46.5,-38.5 1.5,-38.5"/>
<text text-anchor="middle" x="24" y="-45.5" font-family="Helvetica,sans-Serif" font-size="10.00">dgelss</text>
</a>
</g>
</g>
<!-- Node5&#45;&gt;Node6 -->
<g id="edge5" class="edge">
<title>Node5&#45;&gt;Node6</title>
<path fill="none" stroke="midnightblue" d="M73.87,-36.54C64.7,-38.69 54.92,-40.98 46.55,-42.95"/>
<polygon fill="midnightblue" stroke="midnightblue" points="74.93,-39.88 83.87,-34.19 73.33,-33.07 74.93,-39.88"/>
</g>
<!-- Node7 -->
<g id="node7" class="node">
<title>Node7</title>
<g id="a_node7"><a xlink:href="dgesvd_8f.html#a84fdf22a62b12ff364621e4713ce02f2" target="_top" xlink:title=" ">
<polygon fill="white" stroke="black" points="0,-0.5 0,-19.5 48,-19.5 48,-0.5 0,-0.5"/>
<text text-anchor="middle" x="24" y="-7.5" font-family="Helvetica,sans-Serif" font-size="10.00">dgesvd</text>
</a>
</g>
</g>
<!-- Node5&#45;&gt;Node7 -->
<g id="edge6" class="edge">
<title>Node5&#45;&gt;Node7</title>
<path fill="none" stroke="midnightblue" d="M74.09,-21.51C65.46,-19.49 56.29,-17.34 48.24,-15.45"/>
<polygon fill="midnightblue" stroke="midnightblue" points="73.33,-24.93 83.87,-23.81 74.93,-18.12 73.33,-24.93"/>
</g>
</g>
</svg>
