<?xml version="1.0" encoding="UTF-8" standalone="no"?>
<!DOCTYPE svg PUBLIC "-//W3C//DTD SVG 1.1//EN"
 "http://www.w3.org/Graphics/SVG/1.1/DTD/svg11.dtd">
<!-- Generated by graphviz version 2.46.0 (0)
 -->
<!-- Title: dlassq Pages: 1 -->
<svg width="134pt" height="142pt"
 viewBox="0.00 0.00 134.00 142.00" xmlns="http://www.w3.org/2000/svg" xmlns:xlink="http://www.w3.org/1999/xlink">
<g id="graph0" class="graph" transform="scale(1 1) rotate(0) translate(4 138)">
<title>dlassq</title>
<polygon fill="white" stroke="transparent" points="-4,4 -4,-138 130,-138 130,4 -4,4"/>
<!-- Node1 -->
<g id="node1" class="node">
<title>Node1</title>
<g id="a_node1"><a xlink:title=" ">
<polygon fill="#bfbfbf" stroke="black" points="81,-57.5 81,-76.5 126,-76.5 126,-57.5 81,-57.5"/>
<text text-anchor="middle" x="103.5" y="-64.5" font-family="Helvetica,sans-Serif" font-size="10.00">dlassq</text>
</a>
</g>
</g>
<!-- Node2 -->
<g id="node2" class="node">
<title>Node2</title>
<g id="a_node2"><a xlink:href="dlange_8f.html#aefa80dbd8cd1732740478618b8b622a1" target="_top" xlink:title=" ">
<polygon fill="white" stroke="black" points="0,-114.5 0,-133.5 45,-133.5 45,-114.5 0,-114.5"/>
<text text-anchor="middle" x="22.5" y="-121.5" font-family="Helvetica,sans-Serif" font-size="10.00">dlange</text>
</a>
</g>
</g>
<!-- Node1&#45;&gt;Node2 -->
<g id="edge1" class="edge">
<title>Node1&#45;&gt;Node2</title>
<path fill="none" stroke="midnightblue" d="M80.89,-82.59C66.75,-92.79 48.74,-105.79 36.7,-114.47"/>
<polygon fill="midnightblue" stroke="midnightblue" points="83.04,-85.36 89.1,-76.67 78.94,-79.68 83.04,-85.36"/>
</g>
<!-- Node3 -->
<g id="node3" class="node">
<title>Node3</title>
<g id="a_node3"><a xlink:href="dlanhs_8f.html#ab29fb7acb6d53d816856903e9c918242" target="_top" xlink:title=" ">
<polygon fill="white" stroke="black" points="0,-76.5 0,-95.5 45,-95.5 45,-76.5 0,-76.5"/>
<text text-anchor="middle" x="22.5" y="-83.5" font-family="Helvetica,sans-Serif" font-size="10.00">dlanhs</text>
</a>
</g>
</g>
<!-- Node1&#45;&gt;Node3 -->
<g id="edge2" class="edge">
<title>Node1&#45;&gt;Node3</title>
<path fill="none" stroke="midnightblue" d="M71.04,-74.57C62.33,-76.66 53.07,-78.89 45.06,-80.81"/>
<polygon fill="midnightblue" stroke="midnightblue" points="72.01,-77.93 80.91,-72.19 70.37,-71.13 72.01,-77.93"/>
</g>
<!-- Node4 -->
<g id="node4" class="node">
<title>Node4</title>
<g id="a_node4"><a xlink:href="dlanst_8f.html#a2d199841a9ffcf46d31e13e326d195dc" target="_top" xlink:title=" ">
<polygon fill="white" stroke="black" points="1,-38.5 1,-57.5 44,-57.5 44,-38.5 1,-38.5"/>
<text text-anchor="middle" x="22.5" y="-45.5" font-family="Helvetica,sans-Serif" font-size="10.00">dlanst</text>
</a>
</g>
</g>
<!-- Node1&#45;&gt;Node4 -->
<g id="edge3" class="edge">
<title>Node1&#45;&gt;Node4</title>
<path fill="none" stroke="midnightblue" d="M71.08,-59.44C62.06,-57.27 52.45,-54.96 44.24,-52.99"/>
<polygon fill="midnightblue" stroke="midnightblue" points="70.37,-62.87 80.91,-61.81 72.01,-56.07 70.37,-62.87"/>
</g>
<!-- Node5 -->
<g id="node5" class="node">
<title>Node5</title>
<g id="a_node5"><a xlink:href="dlansy_8f.html#a8e0d957efd6f93764d9bc98a7aa1927a" target="_top" xlink:title=" ">
<polygon fill="white" stroke="black" points="0,-0.5 0,-19.5 45,-19.5 45,-0.5 0,-0.5"/>
<text text-anchor="middle" x="22.5" y="-7.5" font-family="Helvetica,sans-Serif" font-size="10.00">dlansy</text>
</a>
</g>
</g>
<!-- Node1&#45;&gt;Node5 -->
<g id="edge4" class="edge">
<title>Node1&#45;&gt;Node5</title>
<path fill="none" stroke="midnightblue" d="M80.89,-51.41C66.75,-41.21 48.74,-28.21 36.7,-19.53"/>
<polygon fill="midnightblue" stroke="midnightblue" points="78.94,-54.32 89.1,-57.33 83.04,-48.64 78.94,-54.32"/>
</g>
</g>
</svg>
