<?xml version="1.0" encoding="UTF-8" standalone="no"?>
<!DOCTYPE svg PUBLIC "-//W3C//DTD SVG 1.1//EN"
 "http://www.w3.org/Graphics/SVG/1.1/DTD/svg11.dtd">
<!-- Generated by graphviz version 2.46.0 (0)
 -->
<!-- Title: dorgtr Pages: 1 -->
<svg width="373pt" height="243pt"
 viewBox="0.00 0.00 373.00 242.91" xmlns="http://www.w3.org/2000/svg" xmlns:xlink="http://www.w3.org/1999/xlink">
<g id="graph0" class="graph" transform="scale(1 1) rotate(0) translate(4 238.91)">
<title>dorgtr</title>
<polygon fill="white" stroke="transparent" points="-4,4 -4,-238.91 369,-238.91 369,4 -4,4"/>
<!-- Node1 -->
<g id="node1" class="node">
<title>Node1</title>
<g id="a_node1"><a xlink:title=" ">
<polygon fill="#bfbfbf" stroke="black" points="0,-133.5 0,-152.5 41,-152.5 41,-133.5 0,-133.5"/>
<text text-anchor="middle" x="20.5" y="-140.5" font-family="Helvetica,sans-Serif" font-size="10.00">dorgtr</text>
</a>
</g>
</g>
<!-- Node2 -->
<g id="node2" class="node">
<title>Node2</title>
<g id="a_node2"><a xlink:href="dorgql_8f.html#a97adc24a3547a789a3ab145688e3a3ca" target="_top" xlink:title=" ">
<polygon fill="white" stroke="black" points="77.5,-133.5 77.5,-152.5 120.5,-152.5 120.5,-133.5 77.5,-133.5"/>
<text text-anchor="middle" x="99" y="-140.5" font-family="Helvetica,sans-Serif" font-size="10.00">dorgql</text>
</a>
</g>
</g>
<!-- Node1&#45;&gt;Node2 -->
<g id="edge1" class="edge">
<title>Node1&#45;&gt;Node2</title>
<path fill="none" stroke="midnightblue" d="M41.2,-143C49.07,-143 58.32,-143 67.04,-143"/>
<polygon fill="midnightblue" stroke="midnightblue" points="67.3,-146.5 77.3,-143 67.3,-139.5 67.3,-146.5"/>
</g>
<!-- Node6 -->
<g id="node6" class="node">
<title>Node6</title>
<g id="a_node6"><a xlink:href="xerbla_8f.html#a377ee61015baf8dea7770b3a404b1c07" target="_top" xlink:title=" ">
<polygon fill="white" stroke="black" points="322,-114.5 322,-133.5 365,-133.5 365,-114.5 322,-114.5"/>
<text text-anchor="middle" x="343.5" y="-121.5" font-family="Helvetica,sans-Serif" font-size="10.00">xerbla</text>
</a>
</g>
</g>
<!-- Node1&#45;&gt;Node6 -->
<g id="edge16" class="edge">
<title>Node1&#45;&gt;Node6</title>
<path fill="none" stroke="midnightblue" d="M33.35,-152.55C72.01,-182.48 197.12,-269.55 286,-219 314.51,-202.78 330.14,-165.87 337.37,-143.13"/>
<polygon fill="midnightblue" stroke="midnightblue" points="340.73,-144.11 340.2,-133.53 334.02,-142.13 340.73,-144.11"/>
</g>
<!-- Node15 -->
<g id="node9" class="node">
<title>Node15</title>
<g id="a_node9"><a xlink:href="dorgqr_8f.html#a14b45f7374dc8654073aa06879c1c459" target="_top" xlink:title=" ">
<polygon fill="white" stroke="black" points="77,-76.5 77,-95.5 121,-95.5 121,-76.5 77,-76.5"/>
<text text-anchor="middle" x="99" y="-83.5" font-family="Helvetica,sans-Serif" font-size="10.00">dorgqr</text>
</a>
</g>
</g>
<!-- Node1&#45;&gt;Node15 -->
<g id="edge10" class="edge">
<title>Node1&#45;&gt;Node15</title>
<path fill="none" stroke="midnightblue" d="M34.48,-133.33C46.09,-124.68 63.32,-111.84 76.91,-101.72"/>
<polygon fill="midnightblue" stroke="midnightblue" points="79.29,-104.31 85.21,-95.53 75.1,-98.69 79.29,-104.31"/>
</g>
<!-- Node3 -->
<g id="node3" class="node">
<title>Node3</title>
<g id="a_node3"><a xlink:href="dlarfb_8f.html#a83c81583bd444e0cf021fb006cd9a5e8" target="_top" xlink:title=" ">
<polygon fill="white" stroke="red" points="158.5,-76.5 158.5,-95.5 199.5,-95.5 199.5,-76.5 158.5,-76.5"/>
<text text-anchor="middle" x="179" y="-83.5" font-family="Helvetica,sans-Serif" font-size="10.00">dlarfb</text>
</a>
</g>
</g>
<!-- Node2&#45;&gt;Node3 -->
<g id="edge2" class="edge">
<title>Node2&#45;&gt;Node3</title>
<path fill="none" stroke="midnightblue" d="M113.23,-133.33C125.18,-124.6 142.97,-111.6 156.89,-101.43"/>
<polygon fill="midnightblue" stroke="midnightblue" points="158.95,-104.25 164.96,-95.53 154.82,-98.6 158.95,-104.25"/>
</g>
<!-- Node2&#45;&gt;Node6 -->
<g id="edge9" class="edge">
<title>Node2&#45;&gt;Node6</title>
<path fill="none" stroke="midnightblue" d="M120.54,-145.15C155.01,-148.28 226.57,-152.73 286,-143 294.81,-141.56 304.1,-138.93 312.54,-136.08"/>
<polygon fill="midnightblue" stroke="midnightblue" points="313.75,-139.36 321.98,-132.69 311.39,-132.78 313.75,-139.36"/>
</g>
<!-- Node8 -->
<g id="node7" class="node">
<title>Node8</title>
<g id="a_node7"><a xlink:href="dlarft_8f.html#a25cff1fc222eccac2633af51f7eff84a" target="_top" xlink:title=" ">
<polygon fill="white" stroke="red" points="160,-114.5 160,-133.5 198,-133.5 198,-114.5 160,-114.5"/>
<text text-anchor="middle" x="179" y="-121.5" font-family="Helvetica,sans-Serif" font-size="10.00">dlarft</text>
</a>
</g>
</g>
<!-- Node2&#45;&gt;Node8 -->
<g id="edge6" class="edge">
<title>Node2&#45;&gt;Node8</title>
<path fill="none" stroke="midnightblue" d="M120.9,-137.91C129.85,-135.73 140.43,-133.15 150.04,-130.81"/>
<polygon fill="midnightblue" stroke="midnightblue" points="151.07,-134.16 159.96,-128.4 149.41,-127.36 151.07,-134.16"/>
</g>
<!-- Node11 -->
<g id="node8" class="node">
<title>Node11</title>
<g id="a_node8"><a xlink:href="dorg2l_8f.html#a36e161d993b87804f7014a7020fc4bac" target="_top" xlink:title=" ">
<polygon fill="white" stroke="red" points="240,-190.5 240,-209.5 283,-209.5 283,-190.5 240,-190.5"/>
<text text-anchor="middle" x="261.5" y="-197.5" font-family="Helvetica,sans-Serif" font-size="10.00">dorg2l</text>
</a>
</g>
</g>
<!-- Node2&#45;&gt;Node11 -->
<g id="edge7" class="edge">
<title>Node2&#45;&gt;Node11</title>
<path fill="none" stroke="midnightblue" d="M113.93,-152.64C125.12,-159.99 141.47,-169.86 157,-176 180.63,-185.34 208.79,-191.57 229.77,-195.34"/>
<polygon fill="midnightblue" stroke="midnightblue" points="229.28,-198.81 239.73,-197.05 230.46,-191.91 229.28,-198.81"/>
</g>
<!-- Node4 -->
<g id="node4" class="node">
<title>Node4</title>
<g id="a_node4"><a xlink:href="dcopy_8f.html#afc29c83942509cba5f3764115f0471d5" target="_top" xlink:title=" ">
<polygon fill="white" stroke="black" points="240,-114.5 240,-133.5 283,-133.5 283,-114.5 240,-114.5"/>
<text text-anchor="middle" x="261.5" y="-121.5" font-family="Helvetica,sans-Serif" font-size="10.00">dcopy</text>
</a>
</g>
</g>
<!-- Node3&#45;&gt;Node4 -->
<g id="edge3" class="edge">
<title>Node3&#45;&gt;Node4</title>
<path fill="none" stroke="midnightblue" d="M199.9,-95.39C209.31,-99.84 220.73,-105.23 231.12,-110.13"/>
<polygon fill="midnightblue" stroke="midnightblue" points="229.73,-113.35 240.27,-114.45 232.72,-107.02 229.73,-113.35"/>
</g>
<!-- Node5 -->
<g id="node5" class="node">
<title>Node5</title>
<g id="a_node5"><a xlink:href="dgemm_8f.html#aeda3cbd99c8fb834a60a6412878226e1" target="_top" xlink:title=" ">
<polygon fill="white" stroke="black" points="237,-76.5 237,-95.5 286,-95.5 286,-76.5 237,-76.5"/>
<text text-anchor="middle" x="261.5" y="-83.5" font-family="Helvetica,sans-Serif" font-size="10.00">dgemm</text>
</a>
</g>
</g>
<!-- Node3&#45;&gt;Node5 -->
<g id="edge4" class="edge">
<title>Node3&#45;&gt;Node5</title>
<path fill="none" stroke="midnightblue" d="M199.9,-86C208.02,-86 217.64,-86 226.79,-86"/>
<polygon fill="midnightblue" stroke="midnightblue" points="226.82,-89.5 236.82,-86 226.82,-82.5 226.82,-89.5"/>
</g>
<!-- Node5&#45;&gt;Node6 -->
<g id="edge5" class="edge">
<title>Node5&#45;&gt;Node6</title>
<path fill="none" stroke="midnightblue" d="M282.69,-95.59C291.88,-99.95 302.93,-105.21 313.03,-110"/>
<polygon fill="midnightblue" stroke="midnightblue" points="311.78,-113.28 322.32,-114.41 314.79,-106.96 311.78,-113.28"/>
</g>
<!-- Node11&#45;&gt;Node6 -->
<g id="edge8" class="edge">
<title>Node11&#45;&gt;Node6</title>
<path fill="none" stroke="midnightblue" d="M272.63,-190.37C285.74,-177.93 308.78,-156.04 324.8,-140.81"/>
<polygon fill="midnightblue" stroke="midnightblue" points="327.61,-142.97 332.45,-133.55 322.79,-137.9 327.61,-142.97"/>
</g>
<!-- Node15&#45;&gt;Node3 -->
<g id="edge11" class="edge">
<title>Node15&#45;&gt;Node3</title>
<path fill="none" stroke="midnightblue" d="M121.31,-86C129.61,-86 139.27,-86 148.23,-86"/>
<polygon fill="midnightblue" stroke="midnightblue" points="148.32,-89.5 158.32,-86 148.32,-82.5 148.32,-89.5"/>
</g>
<!-- Node15&#45;&gt;Node6 -->
<g id="edge15" class="edge">
<title>Node15&#45;&gt;Node6</title>
<path fill="none" stroke="midnightblue" d="M121.04,-77.51C156.55,-64.55 229.97,-43.65 286,-67 304.81,-74.84 320.57,-92.33 330.62,-105.88"/>
<polygon fill="midnightblue" stroke="midnightblue" points="328.03,-108.28 336.64,-114.46 333.77,-104.26 328.03,-108.28"/>
</g>
<!-- Node15&#45;&gt;Node8 -->
<g id="edge12" class="edge">
<title>Node15&#45;&gt;Node8</title>
<path fill="none" stroke="midnightblue" d="M119.68,-95.59C129.15,-100.2 140.65,-105.8 150.93,-110.81"/>
<polygon fill="midnightblue" stroke="midnightblue" points="149.4,-113.96 159.93,-115.2 152.47,-107.67 149.4,-113.96"/>
</g>
<!-- Node16 -->
<g id="node10" class="node">
<title>Node16</title>
<g id="a_node10"><a xlink:href="dorg2r_8f.html#a0598b93548008b36c26ce99b314e77e5" target="_top" xlink:title=" ">
<polygon fill="white" stroke="red" points="157,-0.5 157,-19.5 201,-19.5 201,-0.5 157,-0.5"/>
<text text-anchor="middle" x="179" y="-7.5" font-family="Helvetica,sans-Serif" font-size="10.00">dorg2r</text>
</a>
</g>
</g>
<!-- Node15&#45;&gt;Node16 -->
<g id="edge13" class="edge">
<title>Node15&#45;&gt;Node16</title>
<path fill="none" stroke="midnightblue" d="M109.88,-76.37C122.59,-63.99 144.87,-42.28 160.49,-27.06"/>
<polygon fill="midnightblue" stroke="midnightblue" points="163.24,-29.27 167.96,-19.79 158.35,-24.26 163.24,-29.27"/>
</g>
<!-- Node16&#45;&gt;Node6 -->
<g id="edge14" class="edge">
<title>Node16&#45;&gt;Node6</title>
<path fill="none" stroke="midnightblue" d="M201.03,-10.12C223.91,-11.23 260.6,-16 286,-34 310.98,-51.7 327.32,-84.28 335.72,-105"/>
<polygon fill="midnightblue" stroke="midnightblue" points="332.46,-106.27 339.3,-114.36 339,-103.77 332.46,-106.27"/>
</g>
</g>
</svg>
