<?xml version="1.0" encoding="UTF-8" standalone="no"?>
<!DOCTYPE svg PUBLIC "-//W3C//DTD SVG 1.1//EN"
 "http://www.w3.org/Graphics/SVG/1.1/DTD/svg11.dtd">
<!-- Generated by graphviz version 2.46.0 (0)
 -->
<!-- Title: dorg2r Pages: 1 -->
<svg width="375pt" height="142pt"
 viewBox="0.00 0.00 375.00 142.00" xmlns="http://www.w3.org/2000/svg" xmlns:xlink="http://www.w3.org/1999/xlink">
<g id="graph0" class="graph" transform="scale(1 1) rotate(0) translate(4 138)">
<title>dorg2r</title>
<polygon fill="white" stroke="transparent" points="-4,4 -4,-138 371,-138 371,4 -4,4"/>
<!-- Node1 -->
<g id="node1" class="node">
<title>Node1</title>
<g id="a_node1"><a xlink:title=" ">
<polygon fill="#bfbfbf" stroke="black" points="323,-57.5 323,-76.5 367,-76.5 367,-57.5 323,-57.5"/>
<text text-anchor="middle" x="345" y="-64.5" font-family="Helvetica,sans-Serif" font-size="10.00">dorg2r</text>
</a>
</g>
</g>
<!-- Node2 -->
<g id="node2" class="node">
<title>Node2</title>
<g id="a_node2"><a xlink:href="dorgqr_8f.html#a14b45f7374dc8654073aa06879c1c459" target="_top" xlink:title=" ">
<polygon fill="white" stroke="black" points="243,-57.5 243,-76.5 287,-76.5 287,-57.5 243,-57.5"/>
<text text-anchor="middle" x="265" y="-64.5" font-family="Helvetica,sans-Serif" font-size="10.00">dorgqr</text>
</a>
</g>
</g>
<!-- Node1&#45;&gt;Node2 -->
<g id="edge1" class="edge">
<title>Node1&#45;&gt;Node2</title>
<path fill="none" stroke="midnightblue" d="M312.57,-67C303.98,-67 294.88,-67 287.02,-67"/>
<polygon fill="midnightblue" stroke="midnightblue" points="312.69,-70.5 322.69,-67 312.69,-63.5 312.69,-70.5"/>
</g>
<!-- Node3 -->
<g id="node3" class="node">
<title>Node3</title>
<g id="a_node3"><a xlink:href="dgesvd_8f.html#a84fdf22a62b12ff364621e4713ce02f2" target="_top" xlink:title=" ">
<polygon fill="white" stroke="black" points="79,-114.5 79,-133.5 127,-133.5 127,-114.5 79,-114.5"/>
<text text-anchor="middle" x="103" y="-121.5" font-family="Helvetica,sans-Serif" font-size="10.00">dgesvd</text>
</a>
</g>
</g>
<!-- Node2&#45;&gt;Node3 -->
<g id="edge2" class="edge">
<title>Node2&#45;&gt;Node3</title>
<path fill="none" stroke="midnightblue" d="M244.52,-82.88C233.99,-90.68 220.43,-99.55 207,-105 180.88,-115.59 148.63,-120.32 127.25,-122.41"/>
<polygon fill="midnightblue" stroke="midnightblue" points="246.79,-85.55 252.57,-76.67 242.51,-80 246.79,-85.55"/>
</g>
<!-- Node4 -->
<g id="node4" class="node">
<title>Node4</title>
<g id="a_node4"><a xlink:href="dorgbr_8f.html#a3cef6a16beac76badd73886c843d2c31" target="_top" xlink:title=" ">
<polygon fill="white" stroke="black" points="163,-76.5 163,-95.5 207,-95.5 207,-76.5 163,-76.5"/>
<text text-anchor="middle" x="185" y="-83.5" font-family="Helvetica,sans-Serif" font-size="10.00">dorgbr</text>
</a>
</g>
</g>
<!-- Node2&#45;&gt;Node4 -->
<g id="edge3" class="edge">
<title>Node2&#45;&gt;Node4</title>
<path fill="none" stroke="midnightblue" d="M232.86,-74.59C224.18,-76.7 214.96,-78.95 207.02,-80.88"/>
<polygon fill="midnightblue" stroke="midnightblue" points="233.8,-77.96 242.69,-72.19 232.14,-71.16 233.8,-77.96"/>
</g>
<!-- Node6 -->
<g id="node6" class="node">
<title>Node6</title>
<g id="a_node6"><a xlink:href="dorghr_8f.html#adacfe7750b7fbd625d8101c118174dec" target="_top" xlink:title=" ">
<polygon fill="white" stroke="black" points="163,-38.5 163,-57.5 207,-57.5 207,-38.5 163,-38.5"/>
<text text-anchor="middle" x="185" y="-45.5" font-family="Helvetica,sans-Serif" font-size="10.00">dorghr</text>
</a>
</g>
</g>
<!-- Node2&#45;&gt;Node6 -->
<g id="edge6" class="edge">
<title>Node2&#45;&gt;Node6</title>
<path fill="none" stroke="midnightblue" d="M232.86,-59.41C224.18,-57.3 214.96,-55.05 207.02,-53.12"/>
<polygon fill="midnightblue" stroke="midnightblue" points="232.14,-62.84 242.69,-61.81 233.8,-56.04 232.14,-62.84"/>
</g>
<!-- Node8 -->
<g id="node8" class="node">
<title>Node8</title>
<g id="a_node8"><a xlink:href="dorgtr_8f.html#ab9106f66ee699faf1bd78afc143eda43" target="_top" xlink:title=" ">
<polygon fill="white" stroke="black" points="164.5,-0.5 164.5,-19.5 205.5,-19.5 205.5,-0.5 164.5,-0.5"/>
<text text-anchor="middle" x="185" y="-7.5" font-family="Helvetica,sans-Serif" font-size="10.00">dorgtr</text>
</a>
</g>
</g>
<!-- Node2&#45;&gt;Node8 -->
<g id="edge8" class="edge">
<title>Node2&#45;&gt;Node8</title>
<path fill="none" stroke="midnightblue" d="M242.66,-51.41C228.7,-41.21 210.92,-28.21 199.04,-19.53"/>
<polygon fill="midnightblue" stroke="midnightblue" points="240.63,-54.26 250.77,-57.33 244.76,-48.6 240.63,-54.26"/>
</g>
<!-- Node4&#45;&gt;Node3 -->
<g id="edge5" class="edge">
<title>Node4&#45;&gt;Node3</title>
<path fill="none" stroke="midnightblue" d="M154.52,-100C144.43,-104.8 133.37,-110.05 124.18,-114.41"/>
<polygon fill="midnightblue" stroke="midnightblue" points="156.28,-103.04 163.81,-95.59 153.28,-96.72 156.28,-103.04"/>
</g>
<!-- Node5 -->
<g id="node5" class="node">
<title>Node5</title>
<g id="a_node5"><a xlink:href="dgelss_8f.html#aa6ed601d0622edcecb90de08d7a218ec" target="_top" xlink:title=" ">
<polygon fill="white" stroke="black" points="80.5,-76.5 80.5,-95.5 125.5,-95.5 125.5,-76.5 80.5,-76.5"/>
<text text-anchor="middle" x="103" y="-83.5" font-family="Helvetica,sans-Serif" font-size="10.00">dgelss</text>
</a>
</g>
</g>
<!-- Node4&#45;&gt;Node5 -->
<g id="edge4" class="edge">
<title>Node4&#45;&gt;Node5</title>
<path fill="none" stroke="midnightblue" d="M152.77,-86C143.72,-86 134.04,-86 125.72,-86"/>
<polygon fill="midnightblue" stroke="midnightblue" points="152.98,-89.5 162.98,-86 152.98,-82.5 152.98,-89.5"/>
</g>
<!-- Node7 -->
<g id="node7" class="node">
<title>Node7</title>
<g id="a_node7"><a xlink:href="dgeev_8f.html#a66e19253344358f5dee1e60502b9e96f" target="_top" xlink:title=" ">
<polygon fill="white" stroke="black" points="81.5,-38.5 81.5,-57.5 124.5,-57.5 124.5,-38.5 81.5,-38.5"/>
<text text-anchor="middle" x="103" y="-45.5" font-family="Helvetica,sans-Serif" font-size="10.00">dgeev</text>
</a>
</g>
</g>
<!-- Node6&#45;&gt;Node7 -->
<g id="edge7" class="edge">
<title>Node6&#45;&gt;Node7</title>
<path fill="none" stroke="midnightblue" d="M152.73,-48C143.29,-48 133.16,-48 124.6,-48"/>
<polygon fill="midnightblue" stroke="midnightblue" points="152.98,-51.5 162.98,-48 152.98,-44.5 152.98,-51.5"/>
</g>
<!-- Node9 -->
<g id="node9" class="node">
<title>Node9</title>
<g id="a_node9"><a xlink:href="dsyev_8f.html#a442c43fca5493590f8f26cf42fed4044" target="_top" xlink:title=" ">
<polygon fill="white" stroke="black" points="81.5,-0.5 81.5,-19.5 124.5,-19.5 124.5,-0.5 81.5,-0.5"/>
<text text-anchor="middle" x="103" y="-7.5" font-family="Helvetica,sans-Serif" font-size="10.00">dsyev</text>
</a>
</g>
</g>
<!-- Node8&#45;&gt;Node9 -->
<g id="edge9" class="edge">
<title>Node8&#45;&gt;Node9</title>
<path fill="none" stroke="midnightblue" d="M154.06,-10C144.27,-10 133.61,-10 124.66,-10"/>
<polygon fill="midnightblue" stroke="midnightblue" points="154.22,-13.5 164.22,-10 154.22,-6.5 154.22,-13.5"/>
</g>
<!-- Node10 -->
<g id="node10" class="node">
<title>Node10</title>
<g id="a_node10"><a xlink:href="dsygv_8f.html#a007d33bcdcc697e17c6d15432f159b73" target="_top" xlink:title=" ">
<polygon fill="white" stroke="red" points="0,-0.5 0,-19.5 43,-19.5 43,-0.5 0,-0.5"/>
<text text-anchor="middle" x="21.5" y="-7.5" font-family="Helvetica,sans-Serif" font-size="10.00">dsygv</text>
</a>
</g>
</g>
<!-- Node9&#45;&gt;Node10 -->
<g id="edge10" class="edge">
<title>Node9&#45;&gt;Node10</title>
<path fill="none" stroke="midnightblue" d="M71.01,-10C61.7,-10 51.72,-10 43.25,-10"/>
<polygon fill="midnightblue" stroke="midnightblue" points="71.11,-13.5 81.11,-10 71.11,-6.5 71.11,-13.5"/>
</g>
</g>
</svg>
