<?xml version="1.0" encoding="UTF-8" standalone="no"?>
<!DOCTYPE svg PUBLIC "-//W3C//DTD SVG 1.1//EN"
 "http://www.w3.org/Graphics/SVG/1.1/DTD/svg11.dtd">
<!-- Generated by graphviz version 2.46.0 (0)
 -->
<!-- Title: dorg2r Pages: 1 -->
<svg width="289pt" height="142pt"
 viewBox="0.00 0.00 289.00 142.00" xmlns="http://www.w3.org/2000/svg" xmlns:xlink="http://www.w3.org/1999/xlink">
<g id="graph0" class="graph" transform="scale(1 1) rotate(0) translate(4 138)">
<title>dorg2r</title>
<polygon fill="white" stroke="transparent" points="-4,4 -4,-138 285,-138 285,4 -4,4"/>
<!-- Node1 -->
<g id="node1" class="node">
<title>Node1</title>
<g id="a_node1"><a xlink:title=" ">
<polygon fill="#bfbfbf" stroke="black" points="0,-38.5 0,-57.5 44,-57.5 44,-38.5 0,-38.5"/>
<text text-anchor="middle" x="22" y="-45.5" font-family="Helvetica,sans-Serif" font-size="10.00">dorg2r</text>
</a>
</g>
</g>
<!-- Node2 -->
<g id="node2" class="node">
<title>Node2</title>
<g id="a_node2"><a xlink:href="dlarf_8f.html#a39a2b39f56ce497b218c5f48339ee712" target="_top" xlink:title=" ">
<polygon fill="white" stroke="black" points="82.5,-76.5 82.5,-95.5 117.5,-95.5 117.5,-76.5 82.5,-76.5"/>
<text text-anchor="middle" x="100" y="-83.5" font-family="Helvetica,sans-Serif" font-size="10.00">dlarf</text>
</a>
</g>
</g>
<!-- Node1&#45;&gt;Node2 -->
<g id="edge1" class="edge">
<title>Node1&#45;&gt;Node2</title>
<path fill="none" stroke="midnightblue" d="M42.18,-57.59C51.58,-62.29 63.03,-68.01 73.18,-73.09"/>
<polygon fill="midnightblue" stroke="midnightblue" points="71.9,-76.36 82.41,-77.7 75.03,-70.1 71.9,-76.36"/>
</g>
<!-- Node4 -->
<g id="node4" class="node">
<title>Node4</title>
<g id="a_node4"><a xlink:href="xerbla_8f.html#a377ee61015baf8dea7770b3a404b1c07" target="_top" xlink:title=" ">
<polygon fill="white" stroke="black" points="238,-76.5 238,-95.5 281,-95.5 281,-76.5 238,-76.5"/>
<text text-anchor="middle" x="259.5" y="-83.5" font-family="Helvetica,sans-Serif" font-size="10.00">xerbla</text>
</a>
</g>
</g>
<!-- Node1&#45;&gt;Node4 -->
<g id="edge7" class="edge">
<title>Node1&#45;&gt;Node4</title>
<path fill="none" stroke="midnightblue" d="M44.18,-48.75C77.93,-50.28 145.82,-54.73 202,-67 210.72,-68.9 219.98,-71.68 228.42,-74.53"/>
<polygon fill="midnightblue" stroke="midnightblue" points="227.28,-77.84 237.88,-77.85 229.6,-71.24 227.28,-77.84"/>
</g>
<!-- Node6 -->
<g id="node6" class="node">
<title>Node6</title>
<g id="a_node6"><a xlink:href="dscal_8f.html#a0590f8db475e11dc2c9137bb13887acf" target="_top" xlink:title=" ">
<polygon fill="white" stroke="black" points="80,-0.5 80,-19.5 120,-19.5 120,-0.5 80,-0.5"/>
<text text-anchor="middle" x="100" y="-7.5" font-family="Helvetica,sans-Serif" font-size="10.00">dscal</text>
</a>
</g>
</g>
<!-- Node1&#45;&gt;Node6 -->
<g id="edge6" class="edge">
<title>Node1&#45;&gt;Node6</title>
<path fill="none" stroke="midnightblue" d="M42.18,-38.41C50.82,-34.09 61.2,-28.9 70.71,-24.15"/>
<polygon fill="midnightblue" stroke="midnightblue" points="72.45,-27.19 79.83,-19.59 69.32,-20.93 72.45,-27.19"/>
</g>
<!-- Node3 -->
<g id="node3" class="node">
<title>Node3</title>
<g id="a_node3"><a xlink:href="dgemv_8f.html#add421a107a488d524859b4a64c1901a9" target="_top" xlink:title=" ">
<polygon fill="white" stroke="black" points="156,-114.5 156,-133.5 202,-133.5 202,-114.5 156,-114.5"/>
<text text-anchor="middle" x="179" y="-121.5" font-family="Helvetica,sans-Serif" font-size="10.00">dgemv</text>
</a>
</g>
</g>
<!-- Node2&#45;&gt;Node3 -->
<g id="edge2" class="edge">
<title>Node2&#45;&gt;Node3</title>
<path fill="none" stroke="midnightblue" d="M117.71,-94.25C127.01,-98.84 138.85,-104.68 149.57,-109.97"/>
<polygon fill="midnightblue" stroke="midnightblue" points="148.09,-113.14 158.61,-114.43 151.19,-106.87 148.09,-113.14"/>
</g>
<!-- Node5 -->
<g id="node5" class="node">
<title>Node5</title>
<g id="a_node5"><a xlink:href="dger_8f.html#a458222e01b4d348e9b52b9343d52f828" target="_top" xlink:title=" ">
<polygon fill="white" stroke="black" points="161.5,-76.5 161.5,-95.5 196.5,-95.5 196.5,-76.5 161.5,-76.5"/>
<text text-anchor="middle" x="179" y="-83.5" font-family="Helvetica,sans-Serif" font-size="10.00">dger</text>
</a>
</g>
</g>
<!-- Node2&#45;&gt;Node5 -->
<g id="edge4" class="edge">
<title>Node2&#45;&gt;Node5</title>
<path fill="none" stroke="midnightblue" d="M117.71,-86C127.5,-86 140.08,-86 151.23,-86"/>
<polygon fill="midnightblue" stroke="midnightblue" points="151.32,-89.5 161.32,-86 151.32,-82.5 151.32,-89.5"/>
</g>
<!-- Node3&#45;&gt;Node4 -->
<g id="edge3" class="edge">
<title>Node3&#45;&gt;Node4</title>
<path fill="none" stroke="midnightblue" d="M199.81,-114.41C208.83,-110.05 219.68,-104.79 229.58,-100"/>
<polygon fill="midnightblue" stroke="midnightblue" points="231.22,-103.09 238.7,-95.59 228.17,-96.79 231.22,-103.09"/>
</g>
<!-- Node5&#45;&gt;Node4 -->
<g id="edge5" class="edge">
<title>Node5&#45;&gt;Node4</title>
<path fill="none" stroke="midnightblue" d="M196.65,-86C205.69,-86 217.17,-86 227.77,-86"/>
<polygon fill="midnightblue" stroke="midnightblue" points="227.96,-89.5 237.96,-86 227.96,-82.5 227.96,-89.5"/>
</g>
</g>
</svg>
