<?xml version="1.0" encoding="UTF-8" standalone="no"?>
<!DOCTYPE svg PUBLIC "-//W3C//DTD SVG 1.1//EN"
 "http://www.w3.org/Graphics/SVG/1.1/DTD/svg11.dtd">
<!-- Generated by graphviz version 2.46.0 (0)
 -->
<!-- Title: dormbr Pages: 1 -->
<svg width="139pt" height="66pt"
 viewBox="0.00 0.00 139.00 66.00" xmlns="http://www.w3.org/2000/svg" xmlns:xlink="http://www.w3.org/1999/xlink">
<g id="graph0" class="graph" transform="scale(1 1) rotate(0) translate(4 62)">
<title>dormbr</title>
<polygon fill="white" stroke="transparent" points="-4,4 -4,-62 135,-62 135,4 -4,4"/>
<!-- Node1 -->
<g id="node1" class="node">
<title>Node1</title>
<g id="a_node1"><a xlink:title=" ">
<polygon fill="#bfbfbf" stroke="black" points="84,-19.5 84,-38.5 131,-38.5 131,-19.5 84,-19.5"/>
<text text-anchor="middle" x="107.5" y="-26.5" font-family="Helvetica,sans-Serif" font-size="10.00">dormbr</text>
</a>
</g>
</g>
<!-- Node2 -->
<g id="node2" class="node">
<title>Node2</title>
<g id="a_node2"><a xlink:href="dgelss_8f.html#aa6ed601d0622edcecb90de08d7a218ec" target="_top" xlink:title=" ">
<polygon fill="white" stroke="black" points="1.5,-38.5 1.5,-57.5 46.5,-57.5 46.5,-38.5 1.5,-38.5"/>
<text text-anchor="middle" x="24" y="-45.5" font-family="Helvetica,sans-Serif" font-size="10.00">dgelss</text>
</a>
</g>
</g>
<!-- Node1&#45;&gt;Node2 -->
<g id="edge1" class="edge">
<title>Node1&#45;&gt;Node2</title>
<path fill="none" stroke="midnightblue" d="M73.85,-36.61C64.73,-38.74 55.06,-40.99 46.74,-42.93"/>
<polygon fill="midnightblue" stroke="midnightblue" points="74.85,-39.97 83.8,-34.29 73.26,-33.15 74.85,-39.97"/>
</g>
<!-- Node3 -->
<g id="node3" class="node">
<title>Node3</title>
<g id="a_node3"><a xlink:href="dgesvd_8f.html#a84fdf22a62b12ff364621e4713ce02f2" target="_top" xlink:title=" ">
<polygon fill="white" stroke="black" points="0,-0.5 0,-19.5 48,-19.5 48,-0.5 0,-0.5"/>
<text text-anchor="middle" x="24" y="-7.5" font-family="Helvetica,sans-Serif" font-size="10.00">dgesvd</text>
</a>
</g>
</g>
<!-- Node1&#45;&gt;Node3 -->
<g id="edge2" class="edge">
<title>Node1&#45;&gt;Node3</title>
<path fill="none" stroke="midnightblue" d="M73.98,-21.42C65.34,-19.4 56.18,-17.27 48.15,-15.4"/>
<polygon fill="midnightblue" stroke="midnightblue" points="73.26,-24.85 83.8,-23.71 74.85,-18.03 73.26,-24.85"/>
</g>
</g>
</svg>
