<?xml version="1.0" encoding="UTF-8" standalone="no"?>
<!DOCTYPE svg PUBLIC "-//W3C//DTD SVG 1.1//EN"
 "http://www.w3.org/Graphics/SVG/1.1/DTD/svg11.dtd">
<!-- Generated by graphviz version 2.46.0 (0)
 -->
<!-- Title: dpotrf Pages: 1 -->
<svg width="293pt" height="246pt"
 viewBox="0.00 0.00 293.00 246.00" xmlns="http://www.w3.org/2000/svg" xmlns:xlink="http://www.w3.org/1999/xlink">
<g id="graph0" class="graph" transform="scale(1 1) rotate(0) translate(4 242)">
<title>dpotrf</title>
<polygon fill="white" stroke="transparent" points="-4,4 -4,-242 289,-242 289,4 -4,4"/>
<!-- Node1 -->
<g id="node1" class="node">
<title>Node1</title>
<g id="a_node1"><a xlink:title=" ">
<polygon fill="#bfbfbf" stroke="black" points="0,-104.5 0,-123.5 41,-123.5 41,-104.5 0,-104.5"/>
<text text-anchor="middle" x="20.5" y="-111.5" font-family="Helvetica,sans-Serif" font-size="10.00">dpotrf</text>
</a>
</g>
</g>
<!-- Node2 -->
<g id="node2" class="node">
<title>Node2</title>
<g id="a_node2"><a xlink:href="dgemm_8f.html#aeda3cbd99c8fb834a60a6412878226e1" target="_top" xlink:title=" ">
<polygon fill="white" stroke="black" points="157,-218.5 157,-237.5 206,-237.5 206,-218.5 157,-218.5"/>
<text text-anchor="middle" x="181.5" y="-225.5" font-family="Helvetica,sans-Serif" font-size="10.00">dgemm</text>
</a>
</g>
</g>
<!-- Node1&#45;&gt;Node2 -->
<g id="edge1" class="edge">
<title>Node1&#45;&gt;Node2</title>
<path fill="none" stroke="midnightblue" d="M24.6,-123.62C31.12,-142.25 48.08,-183.22 77,-204 97.21,-218.52 124.87,-224.4 146.51,-226.72"/>
<polygon fill="midnightblue" stroke="midnightblue" points="146.32,-230.21 156.59,-227.59 146.93,-223.24 146.32,-230.21"/>
</g>
<!-- Node3 -->
<g id="node3" class="node">
<title>Node3</title>
<g id="a_node3"><a xlink:href="xerbla_8f.html#a377ee61015baf8dea7770b3a404b1c07" target="_top" xlink:title=" ">
<polygon fill="white" stroke="black" points="242,-123.5 242,-142.5 285,-142.5 285,-123.5 242,-123.5"/>
<text text-anchor="middle" x="263.5" y="-130.5" font-family="Helvetica,sans-Serif" font-size="10.00">xerbla</text>
</a>
</g>
</g>
<!-- Node1&#45;&gt;Node3 -->
<g id="edge12" class="edge">
<title>Node1&#45;&gt;Node3</title>
<path fill="none" stroke="midnightblue" d="M41.05,-121.7C74.62,-133.99 145.44,-155.9 206,-148 214.59,-146.88 223.72,-144.84 232.09,-142.62"/>
<polygon fill="midnightblue" stroke="midnightblue" points="233.16,-145.95 241.83,-139.87 231.25,-139.22 233.16,-145.95"/>
</g>
<!-- Node4 -->
<g id="node4" class="node">
<title>Node4</title>
<g id="a_node4"><a xlink:href="dpotf2_8f.html#a7a5f5e88ba6f8d8d0382cac5c2c18019" target="_top" xlink:title=" ">
<polygon fill="white" stroke="black" points="77,-104.5 77,-123.5 121,-123.5 121,-104.5 77,-104.5"/>
<text text-anchor="middle" x="99" y="-111.5" font-family="Helvetica,sans-Serif" font-size="10.00">dpotf2</text>
</a>
</g>
</g>
<!-- Node1&#45;&gt;Node4 -->
<g id="edge3" class="edge">
<title>Node1&#45;&gt;Node4</title>
<path fill="none" stroke="midnightblue" d="M41.2,-114C48.94,-114 58.02,-114 66.62,-114"/>
<polygon fill="midnightblue" stroke="midnightblue" points="66.76,-117.5 76.76,-114 66.76,-110.5 66.76,-117.5"/>
</g>
<!-- Node7 -->
<g id="node7" class="node">
<title>Node7</title>
<g id="a_node7"><a xlink:href="dsyrk_8f.html#ae0ba56279ae3fa27c75fefbc4cc73ddf" target="_top" xlink:title=" ">
<polygon fill="white" stroke="black" points="78.5,-47.5 78.5,-66.5 119.5,-66.5 119.5,-47.5 78.5,-47.5"/>
<text text-anchor="middle" x="99" y="-54.5" font-family="Helvetica,sans-Serif" font-size="10.00">dsyrk</text>
</a>
</g>
</g>
<!-- Node1&#45;&gt;Node7 -->
<g id="edge8" class="edge">
<title>Node1&#45;&gt;Node7</title>
<path fill="none" stroke="midnightblue" d="M34.48,-104.33C46.09,-95.68 63.32,-82.84 76.91,-72.72"/>
<polygon fill="midnightblue" stroke="midnightblue" points="79.29,-75.31 85.21,-66.53 75.1,-69.69 79.29,-75.31"/>
</g>
<!-- Node8 -->
<g id="node8" class="node">
<title>Node8</title>
<g id="a_node8"><a xlink:href="dtrsm_8f.html#a6a0a7704f4a747562c1bd9487e89795c" target="_top" xlink:title=" ">
<polygon fill="white" stroke="black" points="78.5,-0.5 78.5,-19.5 119.5,-19.5 119.5,-0.5 78.5,-0.5"/>
<text text-anchor="middle" x="99" y="-7.5" font-family="Helvetica,sans-Serif" font-size="10.00">dtrsm</text>
</a>
</g>
</g>
<!-- Node1&#45;&gt;Node8 -->
<g id="edge10" class="edge">
<title>Node1&#45;&gt;Node8</title>
<path fill="none" stroke="midnightblue" d="M28.64,-104.13C39.17,-89.61 59.51,-61.64 77,-38 79.49,-34.63 82.16,-31.05 84.74,-27.61"/>
<polygon fill="midnightblue" stroke="midnightblue" points="87.57,-29.67 90.78,-19.57 81.97,-25.46 87.57,-29.67"/>
</g>
<!-- Node2&#45;&gt;Node3 -->
<g id="edge2" class="edge">
<title>Node2&#45;&gt;Node3</title>
<path fill="none" stroke="midnightblue" d="M192.34,-218.41C196.64,-214.1 201.68,-208.9 206,-204 221.37,-186.6 237.77,-165.69 248.92,-151.09"/>
<polygon fill="midnightblue" stroke="midnightblue" points="251.88,-152.99 255.13,-142.9 246.3,-148.76 251.88,-152.99"/>
</g>
<!-- Node4&#45;&gt;Node3 -->
<g id="edge7" class="edge">
<title>Node4&#45;&gt;Node3</title>
<path fill="none" stroke="midnightblue" d="M121.24,-122.89C131.79,-126.84 144.85,-131.03 157,-133 181.9,-137.04 210.55,-136.73 231.7,-135.59"/>
<polygon fill="midnightblue" stroke="midnightblue" points="231.96,-139.08 241.72,-134.95 231.52,-132.09 231.96,-139.08"/>
</g>
<!-- Node5 -->
<g id="node5" class="node">
<title>Node5</title>
<g id="a_node5"><a xlink:href="dgemv_8f.html#add421a107a488d524859b4a64c1901a9" target="_top" xlink:title=" ">
<polygon fill="white" stroke="black" points="158.5,-104.5 158.5,-123.5 204.5,-123.5 204.5,-104.5 158.5,-104.5"/>
<text text-anchor="middle" x="181.5" y="-111.5" font-family="Helvetica,sans-Serif" font-size="10.00">dgemv</text>
</a>
</g>
</g>
<!-- Node4&#45;&gt;Node5 -->
<g id="edge4" class="edge">
<title>Node4&#45;&gt;Node5</title>
<path fill="none" stroke="midnightblue" d="M121.15,-114C129.39,-114 139.01,-114 148.09,-114"/>
<polygon fill="midnightblue" stroke="midnightblue" points="148.37,-117.5 158.37,-114 148.37,-110.5 148.37,-117.5"/>
</g>
<!-- Node6 -->
<g id="node6" class="node">
<title>Node6</title>
<g id="a_node6"><a xlink:href="dscal_8f.html#a0590f8db475e11dc2c9137bb13887acf" target="_top" xlink:title=" ">
<polygon fill="white" stroke="black" points="161.5,-66.5 161.5,-85.5 201.5,-85.5 201.5,-66.5 161.5,-66.5"/>
<text text-anchor="middle" x="181.5" y="-73.5" font-family="Helvetica,sans-Serif" font-size="10.00">dscal</text>
</a>
</g>
</g>
<!-- Node4&#45;&gt;Node6 -->
<g id="edge6" class="edge">
<title>Node4&#45;&gt;Node6</title>
<path fill="none" stroke="midnightblue" d="M120.31,-104.41C129.94,-99.87 141.61,-94.36 152.09,-89.41"/>
<polygon fill="midnightblue" stroke="midnightblue" points="153.75,-92.5 161.3,-85.06 150.76,-86.17 153.75,-92.5"/>
</g>
<!-- Node5&#45;&gt;Node3 -->
<g id="edge5" class="edge">
<title>Node5&#45;&gt;Node3</title>
<path fill="none" stroke="midnightblue" d="M204.78,-119.29C213.25,-121.3 223.04,-123.63 232.13,-125.79"/>
<polygon fill="midnightblue" stroke="midnightblue" points="231.44,-129.22 241.98,-128.13 233.06,-122.41 231.44,-129.22"/>
</g>
<!-- Node7&#45;&gt;Node3 -->
<g id="edge9" class="edge">
<title>Node7&#45;&gt;Node3</title>
<path fill="none" stroke="midnightblue" d="M119.57,-52C141.8,-47.4 178.54,-43.2 206,-57 229.55,-68.84 245.76,-95.65 254.59,-114.04"/>
<polygon fill="midnightblue" stroke="midnightblue" points="251.44,-115.57 258.74,-123.25 257.82,-112.69 251.44,-115.57"/>
</g>
<!-- Node8&#45;&gt;Node3 -->
<g id="edge11" class="edge">
<title>Node8&#45;&gt;Node3</title>
<path fill="none" stroke="midnightblue" d="M119.87,-12.02C142.71,-15.21 180.34,-23.25 206,-43 230.03,-61.49 246.49,-93.34 255.2,-113.77"/>
<polygon fill="midnightblue" stroke="midnightblue" points="252.05,-115.32 259.05,-123.28 258.54,-112.69 252.05,-115.32"/>
</g>
</g>
</svg>
