<?xml version="1.0" encoding="UTF-8" standalone="no"?>
<!DOCTYPE svg PUBLIC "-//W3C//DTD SVG 1.1//EN"
 "http://www.w3.org/Graphics/SVG/1.1/DTD/svg11.dtd">
<!-- Generated by graphviz version 2.46.0 (0)
 -->
<!-- Title: dprocmapput Pages: 1 -->
<svg width="466pt" height="142pt"
 viewBox="0.00 0.00 466.00 142.00" xmlns="http://www.w3.org/2000/svg" xmlns:xlink="http://www.w3.org/1999/xlink">
<g id="graph0" class="graph" transform="scale(1 1) rotate(0) translate(4 138)">
<title>dprocmapput</title>
<polygon fill="white" stroke="transparent" points="-4,4 -4,-138 462,-138 462,4 -4,4"/>
<!-- Node1 -->
<g id="node1" class="node">
<title>Node1</title>
<g id="a_node1"><a xlink:title=" ">
<polygon fill="#bfbfbf" stroke="black" points="0,-57.5 0,-76.5 73,-76.5 73,-57.5 0,-57.5"/>
<text text-anchor="middle" x="36.5" y="-64.5" font-family="Helvetica,sans-Serif" font-size="10.00">dprocmapput</text>
</a>
</g>
</g>
<!-- Node2 -->
<g id="node2" class="node">
<title>Node2</title>
<g id="a_node2"><a xlink:href="dprocmap_8f.html#a6a1e00e712d066b755283763aae0e73b" target="_top" xlink:title=" ">
<polygon fill="white" stroke="black" points="109,-95.5 109,-114.5 184,-114.5 184,-95.5 109,-95.5"/>
<text text-anchor="middle" x="146.5" y="-102.5" font-family="Helvetica,sans-Serif" font-size="10.00">dprocmapfind</text>
</a>
</g>
</g>
<!-- Node1&#45;&gt;Node2 -->
<g id="edge1" class="edge">
<title>Node1&#45;&gt;Node2</title>
<path fill="none" stroke="midnightblue" d="M64.75,-76.59C78.06,-81.27 94.25,-86.97 108.64,-92.03"/>
<polygon fill="midnightblue" stroke="midnightblue" points="107.66,-95.4 118.26,-95.41 109.98,-88.79 107.66,-95.4"/>
</g>
<!-- Node3 -->
<g id="node3" class="node">
<title>Node3</title>
<g id="a_node3"><a xlink:href="comm__mpi_8f.html#a59fcf8a02fe54ab37f61050e3ca6b197" target="_top" xlink:title=" ">
<polygon fill="white" stroke="black" points="127.5,-57.5 127.5,-76.5 165.5,-76.5 165.5,-57.5 127.5,-57.5"/>
<text text-anchor="middle" x="146.5" y="-64.5" font-family="Helvetica,sans-Serif" font-size="10.00">exitti</text>
</a>
</g>
</g>
<!-- Node1&#45;&gt;Node3 -->
<g id="edge2" class="edge">
<title>Node1&#45;&gt;Node3</title>
<path fill="none" stroke="midnightblue" d="M73.16,-67C87.51,-67 103.82,-67 117.32,-67"/>
<polygon fill="midnightblue" stroke="midnightblue" points="117.45,-70.5 127.45,-67 117.45,-63.5 117.45,-70.5"/>
</g>
<!-- Node10 -->
<g id="node10" class="node">
<title>Node10</title>
<g id="a_node10"><a xlink:href="math_8f.html#a1e85d2406444243269f0d85c61a02dce" target="_top" xlink:title=" ">
<polygon fill="white" stroke="black" points="126.5,-19.5 126.5,-38.5 166.5,-38.5 166.5,-19.5 126.5,-19.5"/>
<text text-anchor="middle" x="146.5" y="-26.5" font-family="Helvetica,sans-Serif" font-size="10.00">icopy</text>
</a>
</g>
</g>
<!-- Node1&#45;&gt;Node10 -->
<g id="edge9" class="edge">
<title>Node1&#45;&gt;Node10</title>
<path fill="none" stroke="midnightblue" d="M64.75,-57.41C80.69,-51.8 100.79,-44.73 116.95,-39.05"/>
<polygon fill="midnightblue" stroke="midnightblue" points="118.15,-42.33 126.42,-35.71 115.83,-35.73 118.15,-42.33"/>
</g>
<!-- Node4 -->
<g id="node4" class="node">
<title>Node4</title>
<g id="a_node4"><a xlink:href="math_8f.html#a692155d1d2ec380a9fdb2d81ef221625" target="_top" xlink:title=" ">
<polygon fill="white" stroke="black" points="224,-114.5 224,-133.5 264,-133.5 264,-114.5 224,-114.5"/>
<text text-anchor="middle" x="244" y="-121.5" font-family="Helvetica,sans-Serif" font-size="10.00">blank</text>
</a>
</g>
</g>
<!-- Node3&#45;&gt;Node4 -->
<g id="edge3" class="edge">
<title>Node3&#45;&gt;Node4</title>
<path fill="none" stroke="midnightblue" d="M165.5,-75.95C171.45,-79.02 178.07,-82.56 184,-86 196.18,-93.07 209.4,-101.51 220.22,-108.63"/>
<polygon fill="midnightblue" stroke="midnightblue" points="218.42,-111.64 228.68,-114.25 222.29,-105.8 218.42,-111.64"/>
</g>
<!-- Node5 -->
<g id="node5" class="node">
<title>Node5</title>
<g id="a_node5"><a xlink:href="math_8f.html#ad7fb480cea001849621405f37167aab1" target="_top" xlink:title=" ">
<polygon fill="white" stroke="black" points="220,-76.5 220,-95.5 268,-95.5 268,-76.5 220,-76.5"/>
<text text-anchor="middle" x="244" y="-83.5" font-family="Helvetica,sans-Serif" font-size="10.00">chcopy</text>
</a>
</g>
</g>
<!-- Node3&#45;&gt;Node5 -->
<g id="edge4" class="edge">
<title>Node3&#45;&gt;Node5</title>
<path fill="none" stroke="midnightblue" d="M165.91,-70.66C178.42,-73.15 195.31,-76.51 210.09,-79.45"/>
<polygon fill="midnightblue" stroke="midnightblue" points="209.42,-82.89 219.91,-81.41 210.79,-76.02 209.42,-82.89"/>
</g>
<!-- Node6 -->
<g id="node6" class="node">
<title>Node6</title>
<g id="a_node6"><a xlink:href="byte_8c.html#a2da8eeb074dfd3ffbfb3e9a4d301cda4" target="_top" xlink:title=" ">
<polygon fill="white" stroke="black" points="226.5,-38.5 226.5,-57.5 261.5,-57.5 261.5,-38.5 226.5,-38.5"/>
<text text-anchor="middle" x="244" y="-45.5" font-family="Helvetica,sans-Serif" font-size="10.00">exitt</text>
</a>
</g>
</g>
<!-- Node3&#45;&gt;Node6 -->
<g id="edge5" class="edge">
<title>Node3&#45;&gt;Node6</title>
<path fill="none" stroke="midnightblue" d="M165.91,-63.34C180.23,-60.49 200.29,-56.5 216.36,-53.3"/>
<polygon fill="midnightblue" stroke="midnightblue" points="217.12,-56.72 226.24,-51.33 215.75,-49.85 217.12,-56.72"/>
</g>
<!-- Node9 -->
<g id="node9" class="node">
<title>Node9</title>
<g id="a_node9"><a xlink:href="ic_8f.html#ada3a2c3283a9052e1fe4b7a90375b09b" target="_top" xlink:title=" ">
<polygon fill="white" stroke="black" points="224,-0.5 224,-19.5 264,-19.5 264,-0.5 224,-0.5"/>
<text text-anchor="middle" x="244" y="-7.5" font-family="Helvetica,sans-Serif" font-size="10.00">indx1</text>
</a>
</g>
</g>
<!-- Node3&#45;&gt;Node9 -->
<g id="edge8" class="edge">
<title>Node3&#45;&gt;Node9</title>
<path fill="none" stroke="midnightblue" d="M165.5,-58.05C171.45,-54.98 178.07,-51.44 184,-48 196.18,-40.93 209.4,-32.49 220.22,-25.37"/>
<polygon fill="midnightblue" stroke="midnightblue" points="222.29,-28.2 228.68,-19.75 218.42,-22.36 222.29,-28.2"/>
</g>
<!-- Node7 -->
<g id="node7" class="node">
<title>Node7</title>
<g id="a_node7"><a xlink:href="comm__mpi_8f.html#acc8803a3787828530843112e0c48941b" target="_top" xlink:title=" ">
<polygon fill="white" stroke="black" points="304,-38.5 304,-57.5 354,-57.5 354,-38.5 304,-38.5"/>
<text text-anchor="middle" x="329" y="-45.5" font-family="Helvetica,sans-Serif" font-size="10.00">nek_die</text>
</a>
</g>
</g>
<!-- Node6&#45;&gt;Node7 -->
<g id="edge6" class="edge">
<title>Node6&#45;&gt;Node7</title>
<path fill="none" stroke="midnightblue" d="M261.8,-48C270.99,-48 282.72,-48 293.74,-48"/>
<polygon fill="midnightblue" stroke="midnightblue" points="293.99,-51.5 303.99,-48 293.99,-44.5 293.99,-51.5"/>
</g>
<!-- Node8 -->
<g id="node8" class="node">
<title>Node8</title>
<g id="a_node8"><a xlink:href="mpi__dummy_8f.html#a55e9a1619aadb638b14211ce21d7d566" target="_top" xlink:title=" ">
<polygon fill="white" stroke="black" points="390,-38.5 390,-57.5 458,-57.5 458,-38.5 390,-38.5"/>
<text text-anchor="middle" x="424" y="-45.5" font-family="Helvetica,sans-Serif" font-size="10.00">mpi_finalize</text>
</a>
</g>
</g>
<!-- Node7&#45;&gt;Node8 -->
<g id="edge7" class="edge">
<title>Node7&#45;&gt;Node8</title>
<path fill="none" stroke="midnightblue" d="M354.43,-48C362.25,-48 371.14,-48 379.88,-48"/>
<polygon fill="midnightblue" stroke="midnightblue" points="379.99,-51.5 389.99,-48 379.99,-44.5 379.99,-51.5"/>
</g>
</g>
</svg>
