<?xml version="1.0" encoding="UTF-8" standalone="no"?>
<!DOCTYPE svg PUBLIC "-//W3C//DTD SVG 1.1//EN"
 "http://www.w3.org/Graphics/SVG/1.1/DTD/svg11.dtd">
<!-- Generated by graphviz version 2.46.0 (0)
 -->
<!-- Title: dprocmapput Pages: 1 -->
<svg width="535pt" height="199pt"
 viewBox="0.00 0.00 535.00 199.00" xmlns="http://www.w3.org/2000/svg" xmlns:xlink="http://www.w3.org/1999/xlink">
<g id="graph0" class="graph" transform="scale(1 1) rotate(0) translate(4 195)">
<title>dprocmapput</title>
<polygon fill="white" stroke="transparent" points="-4,4 -4,-195 531,-195 531,4 -4,4"/>
<!-- Node1 -->
<g id="node1" class="node">
<title>Node1</title>
<g id="a_node1"><a xlink:title=" ">
<polygon fill="#bfbfbf" stroke="black" points="454,-76.5 454,-95.5 527,-95.5 527,-76.5 454,-76.5"/>
<text text-anchor="middle" x="490.5" y="-83.5" font-family="Helvetica,sans-Serif" font-size="10.00">dprocmapput</text>
</a>
</g>
</g>
<!-- Node2 -->
<g id="node2" class="node">
<title>Node2</title>
<g id="a_node2"><a xlink:href="map2_8f.html#ad7e6baf5b27258e1eaa5451ff2265b18" target="_top" xlink:title=" ">
<polygon fill="white" stroke="black" points="342,-76.5 342,-95.5 418,-95.5 418,-76.5 342,-76.5"/>
<text text-anchor="middle" x="380" y="-83.5" font-family="Helvetica,sans-Serif" font-size="10.00">get_vert_map</text>
</a>
</g>
</g>
<!-- Node1&#45;&gt;Node2 -->
<g id="edge1" class="edge">
<title>Node1&#45;&gt;Node2</title>
<path fill="none" stroke="midnightblue" d="M443.74,-86C435.19,-86 426.35,-86 418.1,-86"/>
<polygon fill="midnightblue" stroke="midnightblue" points="443.97,-89.5 453.97,-86 443.97,-82.5 443.97,-89.5"/>
</g>
<!-- Node3 -->
<g id="node3" class="node">
<title>Node3</title>
<g id="a_node3"><a xlink:href="map2_8f.html#a3126acd6d2b7a3e63f6f0329d5bae424" target="_top" xlink:title=" ">
<polygon fill="white" stroke="black" points="254,-76.5 254,-95.5 306,-95.5 306,-76.5 254,-76.5"/>
<text text-anchor="middle" x="280" y="-83.5" font-family="Helvetica,sans-Serif" font-size="10.00">get_vert</text>
</a>
</g>
</g>
<!-- Node2&#45;&gt;Node3 -->
<g id="edge2" class="edge">
<title>Node2&#45;&gt;Node3</title>
<path fill="none" stroke="midnightblue" d="M331.72,-86C322.92,-86 314.04,-86 306.23,-86"/>
<polygon fill="midnightblue" stroke="midnightblue" points="331.95,-89.5 341.95,-86 331.95,-82.5 331.95,-89.5"/>
</g>
<!-- Node4 -->
<g id="node4" class="node">
<title>Node4</title>
<g id="a_node4"><a xlink:href="map2_8f.html#a13d7dde54ee02508285dda66f7def6bf" target="_top" xlink:title=" ">
<polygon fill="white" stroke="black" points="139,-152.5 139,-171.5 193,-171.5 193,-152.5 139,-152.5"/>
<text text-anchor="middle" x="166" y="-159.5" font-family="Helvetica,sans-Serif" font-size="10.00">get_map</text>
</a>
</g>
</g>
<!-- Node3&#45;&gt;Node4 -->
<g id="edge3" class="edge">
<title>Node3&#45;&gt;Node4</title>
<path fill="none" stroke="midnightblue" d="M264.08,-103.21C252.53,-115.65 235.59,-132.11 218,-143 210.37,-147.72 201.38,-151.56 193.09,-154.51"/>
<polygon fill="midnightblue" stroke="midnightblue" points="266.74,-105.48 270.83,-95.71 261.54,-100.8 266.74,-105.48"/>
</g>
<!-- Node13 -->
<g id="node7" class="node">
<title>Node13</title>
<g id="a_node7"><a xlink:href="navier8_8f.html#a3c68a6cfc47f9c2602ab5029cae20ac8" target="_top" xlink:title=" ">
<polygon fill="white" stroke="red" points="135,-114.5 135,-133.5 197,-133.5 197,-114.5 135,-114.5"/>
<text text-anchor="middle" x="166" y="-121.5" font-family="Helvetica,sans-Serif" font-size="10.00">get_vertex</text>
</a>
</g>
</g>
<!-- Node3&#45;&gt;Node13 -->
<g id="edge6" class="edge">
<title>Node3&#45;&gt;Node13</title>
<path fill="none" stroke="midnightblue" d="M243.98,-97.88C228.28,-103.21 210,-109.41 195.2,-114.43"/>
<polygon fill="midnightblue" stroke="midnightblue" points="245.52,-101.06 253.87,-94.53 243.27,-94.43 245.52,-101.06"/>
</g>
<!-- Node73 -->
<g id="node8" class="node">
<title>Node73</title>
<g id="a_node8"><a xlink:href="hsmg_8f.html#af4bdfbdcb8eeccc615c574ca02e629a9" target="_top" xlink:title=" ">
<polygon fill="white" stroke="red" points="114,-76.5 114,-95.5 218,-95.5 218,-76.5 114,-76.5"/>
<text text-anchor="middle" x="166" y="-83.5" font-family="Helvetica,sans-Serif" font-size="10.00">h1mg_setup_dssum</text>
</a>
</g>
</g>
<!-- Node3&#45;&gt;Node73 -->
<g id="edge7" class="edge">
<title>Node3&#45;&gt;Node73</title>
<path fill="none" stroke="midnightblue" d="M243.67,-86C235.57,-86 226.8,-86 218.18,-86"/>
<polygon fill="midnightblue" stroke="midnightblue" points="243.87,-89.5 253.87,-86 243.86,-82.5 243.87,-89.5"/>
</g>
<!-- Node75 -->
<g id="node9" class="node">
<title>Node75</title>
<g id="a_node9"><a xlink:href="hsmg_8f.html#ae0fd4b116048f3b3c3efe9116ae63a58" target="_top" xlink:title=" ">
<polygon fill="white" stroke="red" points="114,-38.5 114,-57.5 218,-57.5 218,-38.5 114,-38.5"/>
<text text-anchor="middle" x="166" y="-45.5" font-family="Helvetica,sans-Serif" font-size="10.00">hsmg_setup_dssum</text>
</a>
</g>
</g>
<!-- Node3&#45;&gt;Node75 -->
<g id="edge8" class="edge">
<title>Node3&#45;&gt;Node75</title>
<path fill="none" stroke="midnightblue" d="M243.98,-74.12C228.28,-68.79 210,-62.59 195.2,-57.57"/>
<polygon fill="midnightblue" stroke="midnightblue" points="243.27,-77.57 253.87,-77.47 245.52,-70.94 243.27,-77.57"/>
</g>
<!-- Node77 -->
<g id="node10" class="node">
<title>Node77</title>
<g id="a_node10"><a xlink:href="connect1_8f.html#a555c5112d24b342a7e0c9d0990c53ae2" target="_top" xlink:title=" ">
<polygon fill="white" stroke="red" points="133.5,-0.5 133.5,-19.5 198.5,-19.5 198.5,-0.5 133.5,-0.5"/>
<text text-anchor="middle" x="166" y="-7.5" font-family="Helvetica,sans-Serif" font-size="10.00">setup_topo</text>
</a>
</g>
</g>
<!-- Node3&#45;&gt;Node77 -->
<g id="edge9" class="edge">
<title>Node3&#45;&gt;Node77</title>
<path fill="none" stroke="midnightblue" d="M264.08,-68.79C252.53,-56.35 235.59,-39.89 218,-29 212.05,-25.32 205.28,-22.18 198.66,-19.58"/>
<polygon fill="midnightblue" stroke="midnightblue" points="261.54,-71.2 270.83,-76.29 266.74,-66.52 261.54,-71.2"/>
</g>
<!-- Node5 -->
<g id="node5" class="node">
<title>Node5</title>
<g id="a_node5"><a xlink:href="map2_8f.html#a8beadce5e829399452ec13a7ac6b4633" target="_top" xlink:title=" ">
<polygon fill="white" stroke="red" points="2.5,-171.5 2.5,-190.5 75.5,-190.5 75.5,-171.5 2.5,-171.5"/>
<text text-anchor="middle" x="39" y="-178.5" font-family="Helvetica,sans-Serif" font-size="10.00">assign_gllnid</text>
</a>
</g>
</g>
<!-- Node4&#45;&gt;Node5 -->
<g id="edge4" class="edge">
<title>Node4&#45;&gt;Node5</title>
<path fill="none" stroke="midnightblue" d="M128.84,-167.5C112.11,-170.04 92.31,-173.05 75.65,-175.58"/>
<polygon fill="midnightblue" stroke="midnightblue" points="129.44,-170.95 138.8,-165.98 128.38,-164.03 129.44,-170.95"/>
</g>
<!-- Node7 -->
<g id="node6" class="node">
<title>Node7</title>
<g id="a_node6"><a xlink:href="map2_8f.html#a7d36efc1d668447eee63563983385f7a" target="_top" xlink:title=" ">
<polygon fill="white" stroke="red" points="0,-133.5 0,-152.5 78,-152.5 78,-133.5 0,-133.5"/>
<text text-anchor="middle" x="39" y="-140.5" font-family="Helvetica,sans-Serif" font-size="10.00">set_proc_map</text>
</a>
</g>
</g>
<!-- Node4&#45;&gt;Node7 -->
<g id="edge5" class="edge">
<title>Node4&#45;&gt;Node7</title>
<path fill="none" stroke="midnightblue" d="M128.79,-156.5C112.87,-154.08 94.16,-151.23 78.03,-148.78"/>
<polygon fill="midnightblue" stroke="midnightblue" points="128.38,-159.97 138.8,-158.02 129.44,-153.05 128.38,-159.97"/>
</g>
</g>
</svg>
