<?xml version="1.0" encoding="UTF-8" standalone="no"?>
<!DOCTYPE svg PUBLIC "-//W3C//DTD SVG 1.1//EN"
 "http://www.w3.org/Graphics/SVG/1.1/DTD/svg11.dtd">
<!-- Generated by graphviz version 2.46.0 (0)
 -->
<!-- Title: dprocmapinit Pages: 1 -->
<svg width="624pt" height="180pt"
 viewBox="0.00 0.00 624.00 180.00" xmlns="http://www.w3.org/2000/svg" xmlns:xlink="http://www.w3.org/1999/xlink">
<g id="graph0" class="graph" transform="scale(1 1) rotate(0) translate(4 176)">
<title>dprocmapinit</title>
<polygon fill="white" stroke="transparent" points="-4,4 -4,-176 620,-176 620,4 -4,4"/>
<!-- Node1 -->
<g id="node1" class="node">
<title>Node1</title>
<g id="a_node1"><a xlink:title=" ">
<polygon fill="#bfbfbf" stroke="black" points="544,-24.5 544,-43.5 616,-43.5 616,-24.5 544,-24.5"/>
<text text-anchor="middle" x="580" y="-31.5" font-family="Helvetica,sans-Serif" font-size="10.00">dprocmapinit</text>
</a>
</g>
</g>
<!-- Node2 -->
<g id="node2" class="node">
<title>Node2</title>
<g id="a_node2"><a xlink:href="map2_8f.html#a8beadce5e829399452ec13a7ac6b4633" target="_top" xlink:title=" ">
<polygon fill="white" stroke="black" points="435,-24.5 435,-43.5 508,-43.5 508,-24.5 435,-24.5"/>
<text text-anchor="middle" x="471.5" y="-31.5" font-family="Helvetica,sans-Serif" font-size="10.00">assign_gllnid</text>
</a>
</g>
</g>
<!-- Node1&#45;&gt;Node2 -->
<g id="edge1" class="edge">
<title>Node1&#45;&gt;Node2</title>
<path fill="none" stroke="midnightblue" d="M533.7,-34C525.23,-34 516.49,-34 508.36,-34"/>
<polygon fill="midnightblue" stroke="midnightblue" points="533.83,-37.5 543.83,-34 533.83,-30.5 533.83,-37.5"/>
</g>
<!-- Node3 -->
<g id="node3" class="node">
<title>Node3</title>
<g id="a_node3"><a xlink:href="map2_8f.html#aae64b5fb12bc50321e1e4bdc3a2e978f" target="_top" xlink:title=" ">
<polygon fill="white" stroke="black" points="340,-62.5 340,-81.5 399,-81.5 399,-62.5 340,-62.5"/>
<text text-anchor="middle" x="369.5" y="-69.5" font-family="Helvetica,sans-Serif" font-size="10.00">read_map</text>
</a>
</g>
</g>
<!-- Node2&#45;&gt;Node3 -->
<g id="edge2" class="edge">
<title>Node2&#45;&gt;Node3</title>
<path fill="none" stroke="midnightblue" d="M435.59,-47.26C422.47,-52.25 407.81,-57.82 395.73,-62.41"/>
<polygon fill="midnightblue" stroke="midnightblue" points="437.16,-50.41 445.27,-43.59 434.67,-43.87 437.16,-50.41"/>
</g>
<!-- Node4 -->
<g id="node4" class="node">
<title>Node4</title>
<g id="a_node4"><a xlink:href="map2_8f.html#ad7e6baf5b27258e1eaa5451ff2265b18" target="_top" xlink:title=" ">
<polygon fill="white" stroke="black" points="228,-71.5 228,-90.5 304,-90.5 304,-71.5 228,-71.5"/>
<text text-anchor="middle" x="266" y="-78.5" font-family="Helvetica,sans-Serif" font-size="10.00">get_vert_map</text>
</a>
</g>
</g>
<!-- Node3&#45;&gt;Node4 -->
<g id="edge3" class="edge">
<title>Node3&#45;&gt;Node4</title>
<path fill="none" stroke="midnightblue" d="M329.92,-75.42C321.44,-76.17 312.47,-76.97 304.05,-77.71"/>
<polygon fill="midnightblue" stroke="midnightblue" points="330.3,-78.9 339.96,-74.53 329.69,-71.93 330.3,-78.9"/>
</g>
<!-- Node5 -->
<g id="node5" class="node">
<title>Node5</title>
<g id="a_node5"><a xlink:href="map2_8f.html#a3126acd6d2b7a3e63f6f0329d5bae424" target="_top" xlink:title=" ">
<polygon fill="white" stroke="black" points="140,-73.5 140,-92.5 192,-92.5 192,-73.5 140,-73.5"/>
<text text-anchor="middle" x="166" y="-80.5" font-family="Helvetica,sans-Serif" font-size="10.00">get_vert</text>
</a>
</g>
</g>
<!-- Node4&#45;&gt;Node5 -->
<g id="edge4" class="edge">
<title>Node4&#45;&gt;Node5</title>
<path fill="none" stroke="midnightblue" d="M217.72,-81.96C208.92,-82.14 200.04,-82.33 192.23,-82.49"/>
<polygon fill="midnightblue" stroke="midnightblue" points="218.02,-85.46 227.95,-81.76 217.88,-78.46 218.02,-85.46"/>
</g>
<!-- Node6 -->
<g id="node6" class="node">
<title>Node6</title>
<g id="a_node6"><a xlink:href="map2_8f.html#a13d7dde54ee02508285dda66f7def6bf" target="_top" xlink:title=" ">
<polygon fill="white" stroke="red" points="25,-0.5 25,-19.5 79,-19.5 79,-0.5 25,-0.5"/>
<text text-anchor="middle" x="52" y="-7.5" font-family="Helvetica,sans-Serif" font-size="10.00">get_map</text>
</a>
</g>
</g>
<!-- Node5&#45;&gt;Node6 -->
<g id="edge5" class="edge">
<title>Node5&#45;&gt;Node6</title>
<path fill="none" stroke="midnightblue" d="M149.17,-66C137.57,-54.33 120.95,-39.17 104,-29 96.3,-24.38 87.3,-20.57 79.01,-17.61"/>
<polygon fill="midnightblue" stroke="midnightblue" points="146.88,-68.66 156.34,-73.42 151.91,-63.8 146.88,-68.66"/>
</g>
<!-- Node13 -->
<g id="node7" class="node">
<title>Node13</title>
<g id="a_node7"><a xlink:href="navier8_8f.html#a3c68a6cfc47f9c2602ab5029cae20ac8" target="_top" xlink:title=" ">
<polygon fill="white" stroke="red" points="21,-114.5 21,-133.5 83,-133.5 83,-114.5 21,-114.5"/>
<text text-anchor="middle" x="52" y="-121.5" font-family="Helvetica,sans-Serif" font-size="10.00">get_vertex</text>
</a>
</g>
</g>
<!-- Node5&#45;&gt;Node13 -->
<g id="edge7" class="edge">
<title>Node5&#45;&gt;Node13</title>
<path fill="none" stroke="midnightblue" d="M130.06,-95.79C113.63,-101.8 94.38,-108.85 79.22,-114.4"/>
<polygon fill="midnightblue" stroke="midnightblue" points="131.68,-98.93 139.87,-92.2 129.27,-92.35 131.68,-98.93"/>
</g>
<!-- Node73 -->
<g id="node8" class="node">
<title>Node73</title>
<g id="a_node8"><a xlink:href="hsmg_8f.html#af4bdfbdcb8eeccc615c574ca02e629a9" target="_top" xlink:title=" ">
<polygon fill="white" stroke="red" points="0,-76.5 0,-95.5 104,-95.5 104,-76.5 0,-76.5"/>
<text text-anchor="middle" x="52" y="-83.5" font-family="Helvetica,sans-Serif" font-size="10.00">h1mg_setup_dssum</text>
</a>
</g>
</g>
<!-- Node5&#45;&gt;Node73 -->
<g id="edge8" class="edge">
<title>Node5&#45;&gt;Node73</title>
<path fill="none" stroke="midnightblue" d="M129.67,-83.95C121.57,-84.16 112.8,-84.4 104.18,-84.63"/>
<polygon fill="midnightblue" stroke="midnightblue" points="129.96,-87.44 139.87,-83.67 129.77,-80.44 129.96,-87.44"/>
</g>
<!-- Node75 -->
<g id="node9" class="node">
<title>Node75</title>
<g id="a_node9"><a xlink:href="hsmg_8f.html#ae0fd4b116048f3b3c3efe9116ae63a58" target="_top" xlink:title=" ">
<polygon fill="white" stroke="red" points="0,-38.5 0,-57.5 104,-57.5 104,-38.5 0,-38.5"/>
<text text-anchor="middle" x="52" y="-45.5" font-family="Helvetica,sans-Serif" font-size="10.00">hsmg_setup_dssum</text>
</a>
</g>
</g>
<!-- Node5&#45;&gt;Node75 -->
<g id="edge9" class="edge">
<title>Node5&#45;&gt;Node75</title>
<path fill="none" stroke="midnightblue" d="M130.01,-72.07C115.15,-67.42 97.99,-62.06 83.64,-57.57"/>
<polygon fill="midnightblue" stroke="midnightblue" points="129.28,-75.5 139.87,-75.15 131.36,-68.82 129.28,-75.5"/>
</g>
<!-- Node77 -->
<g id="node10" class="node">
<title>Node77</title>
<g id="a_node10"><a xlink:href="connect1_8f.html#a555c5112d24b342a7e0c9d0990c53ae2" target="_top" xlink:title=" ">
<polygon fill="white" stroke="red" points="19.5,-152.5 19.5,-171.5 84.5,-171.5 84.5,-152.5 19.5,-152.5"/>
<text text-anchor="middle" x="52" y="-159.5" font-family="Helvetica,sans-Serif" font-size="10.00">setup_topo</text>
</a>
</g>
</g>
<!-- Node5&#45;&gt;Node77 -->
<g id="edge10" class="edge">
<title>Node5&#45;&gt;Node77</title>
<path fill="none" stroke="midnightblue" d="M150.64,-100.71C139.18,-113.87 122.09,-131.48 104,-143 98.1,-146.75 91.35,-149.93 84.74,-152.54"/>
<polygon fill="midnightblue" stroke="midnightblue" points="153.54,-102.7 157.31,-92.8 148.19,-98.19 153.54,-102.7"/>
</g>
<!-- Node6&#45;&gt;Node2 -->
<g id="edge6" class="edge">
<title>Node6&#45;&gt;Node2</title>
<path fill="none" stroke="midnightblue" d="M89.54,-12.1C168.93,-16.66 356.37,-27.44 434.9,-31.95"/>
<polygon fill="midnightblue" stroke="midnightblue" points="89.26,-8.58 79.07,-11.5 88.85,-15.57 89.26,-8.58"/>
</g>
</g>
</svg>
