<?xml version="1.0" encoding="UTF-8" standalone="no"?>
<!DOCTYPE svg PUBLIC "-//W3C//DTD SVG 1.1//EN"
 "http://www.w3.org/Graphics/SVG/1.1/DTD/svg11.dtd">
<!-- Generated by graphviz version 2.46.0 (0)
 -->
<!-- Title: nekton Pages: 1 -->
<svg width="256pt" height="218pt"
 viewBox="0.00 0.00 256.00 218.00" xmlns="http://www.w3.org/2000/svg" xmlns:xlink="http://www.w3.org/1999/xlink">
<g id="graph0" class="graph" transform="scale(1 1) rotate(0) translate(4 214)">
<title>nekton</title>
<polygon fill="white" stroke="transparent" points="-4,4 -4,-214 252,-214 252,4 -4,4"/>
<!-- Node1 -->
<g id="node1" class="node">
<title>Node1</title>
<g id="a_node1"><a xlink:title=" ">
<polygon fill="#bfbfbf" stroke="black" points="0,-95.5 0,-114.5 46,-114.5 46,-95.5 0,-95.5"/>
<text text-anchor="middle" x="23" y="-102.5" font-family="Helvetica,sans-Serif" font-size="10.00">nekton</text>
</a>
</g>
</g>
<!-- Node2 -->
<g id="node2" class="node">
<title>Node2</title>
<g id="a_node2"><a xlink:href="drive1_8f.html#a10055f031c0ac540cc534ab2b0363206" target="_top" xlink:title=" ">
<polygon fill="white" stroke="black" points="86,-133.5 86,-152.5 139,-152.5 139,-133.5 86,-133.5"/>
<text text-anchor="middle" x="112.5" y="-140.5" font-family="Helvetica,sans-Serif" font-size="10.00">nek_end</text>
</a>
</g>
</g>
<!-- Node1&#45;&gt;Node2 -->
<g id="edge1" class="edge">
<title>Node1&#45;&gt;Node2</title>
<path fill="none" stroke="midnightblue" d="M46.08,-114.59C56.34,-119.04 68.73,-124.42 79.95,-129.3"/>
<polygon fill="midnightblue" stroke="midnightblue" points="78.86,-132.64 89.43,-133.41 81.65,-126.22 78.86,-132.64"/>
</g>
<!-- Node31 -->
<g id="node6" class="node">
<title>Node31</title>
<g id="a_node6"><a xlink:href="drive1_8f.html#a83f7c6d78ac4e68394f32533e847d0a3" target="_top" xlink:title=" ">
<polygon fill="white" stroke="red" points="87.5,-57.5 87.5,-76.5 137.5,-76.5 137.5,-57.5 87.5,-57.5"/>
<text text-anchor="middle" x="112.5" y="-64.5" font-family="Helvetica,sans-Serif" font-size="10.00">nek_init</text>
</a>
</g>
</g>
<!-- Node1&#45;&gt;Node31 -->
<g id="edge5" class="edge">
<title>Node1&#45;&gt;Node31</title>
<path fill="none" stroke="midnightblue" d="M46.08,-95.41C56.34,-90.96 68.73,-85.58 79.95,-80.7"/>
<polygon fill="midnightblue" stroke="midnightblue" points="81.65,-83.78 89.43,-76.59 78.86,-77.36 81.65,-83.78"/>
</g>
<!-- Node884 -->
<g id="node10" class="node">
<title>Node884</title>
<g id="a_node10"><a xlink:href="drive1_8f.html#a6ad57e0cf728f343e371ef8c9a02cd8a" target="_top" xlink:title=" ">
<polygon fill="white" stroke="red" points="82,-95.5 82,-114.5 143,-114.5 143,-95.5 82,-95.5"/>
<text text-anchor="middle" x="112.5" y="-102.5" font-family="Helvetica,sans-Serif" font-size="10.00">nek_solve</text>
</a>
</g>
</g>
<!-- Node1&#45;&gt;Node884 -->
<g id="edge9" class="edge">
<title>Node1&#45;&gt;Node884</title>
<path fill="none" stroke="midnightblue" d="M46.08,-105C53.87,-105 62.88,-105 71.68,-105"/>
<polygon fill="midnightblue" stroke="midnightblue" points="71.82,-108.5 81.82,-105 71.82,-101.5 71.82,-108.5"/>
</g>
<!-- Node3 -->
<g id="node3" class="node">
<title>Node3</title>
<g id="a_node3"><a xlink:href="comm__mpi_8f.html#a7c71e890279f4933a841a2d97c7de4bd" target="_top" xlink:title=" ">
<polygon fill="white" stroke="red" points="193,-190.5 193,-209.5 234,-209.5 234,-190.5 193,-190.5"/>
<text text-anchor="middle" x="213.5" y="-197.5" font-family="Helvetica,sans-Serif" font-size="10.00">exitt0</text>
</a>
</g>
</g>
<!-- Node2&#45;&gt;Node3 -->
<g id="edge2" class="edge">
<title>Node2&#45;&gt;Node3</title>
<path fill="none" stroke="midnightblue" d="M129.89,-152.57C143.13,-160.28 162.24,-171.38 179,-181 181.5,-182.43 184.11,-183.93 186.72,-185.41"/>
<polygon fill="midnightblue" stroke="midnightblue" points="185.02,-188.47 195.44,-190.37 188.47,-182.38 185.02,-188.47"/>
</g>
<!-- Node17 -->
<g id="node4" class="node">
<title>Node17</title>
<g id="a_node4"><a xlink:href="nek__in__situ_8f.html#aa83c23a3eb1f4da0509772f8457933b6" target="_top" xlink:title=" ">
<polygon fill="white" stroke="red" points="180.5,-152.5 180.5,-171.5 246.5,-171.5 246.5,-152.5 180.5,-152.5"/>
<text text-anchor="middle" x="213.5" y="-159.5" font-family="Helvetica,sans-Serif" font-size="10.00">in_situ_end</text>
</a>
</g>
</g>
<!-- Node2&#45;&gt;Node17 -->
<g id="edge3" class="edge">
<title>Node2&#45;&gt;Node17</title>
<path fill="none" stroke="midnightblue" d="M139.25,-147.94C148.72,-149.76 159.7,-151.87 170.24,-153.89"/>
<polygon fill="midnightblue" stroke="midnightblue" points="169.66,-157.34 180.14,-155.79 170.98,-150.47 169.66,-157.34"/>
</g>
<!-- Node21 -->
<g id="node5" class="node">
<title>Node21</title>
<g id="a_node5"><a xlink:href="drive2_8f.html#a6637d27bdf1984d5964bd31465cd304a" target="_top" xlink:title=" ">
<polygon fill="white" stroke="red" points="190,-114.5 190,-133.5 237,-133.5 237,-114.5 190,-114.5"/>
<text text-anchor="middle" x="213.5" y="-121.5" font-family="Helvetica,sans-Serif" font-size="10.00">runstat</text>
</a>
</g>
</g>
<!-- Node2&#45;&gt;Node21 -->
<g id="edge4" class="edge">
<title>Node2&#45;&gt;Node21</title>
<path fill="none" stroke="midnightblue" d="M139.25,-138.06C151.64,-135.68 166.63,-132.8 179.81,-130.27"/>
<polygon fill="midnightblue" stroke="midnightblue" points="180.75,-133.66 189.91,-128.34 179.43,-126.78 180.75,-133.66"/>
</g>
<!-- Node32 -->
<g id="node7" class="node">
<title>Node32</title>
<g id="a_node7"><a xlink:href="bdry_8f.html#aff6088943a1cc02fb036375d9008b4c7" target="_top" xlink:title=" ">
<polygon fill="white" stroke="red" points="188,-38.5 188,-57.5 239,-57.5 239,-38.5 188,-38.5"/>
<text text-anchor="middle" x="213.5" y="-45.5" font-family="Helvetica,sans-Serif" font-size="10.00">bcmask</text>
</a>
</g>
</g>
<!-- Node31&#45;&gt;Node32 -->
<g id="edge6" class="edge">
<title>Node31&#45;&gt;Node32</title>
<path fill="none" stroke="midnightblue" d="M137.72,-62.35C149.73,-60.05 164.46,-57.22 177.67,-54.69"/>
<polygon fill="midnightblue" stroke="midnightblue" points="178.68,-58.05 187.84,-52.73 177.36,-51.18 178.68,-58.05"/>
</g>
<!-- Node74 -->
<g id="node8" class="node">
<title>Node74</title>
<g id="a_node8"><a xlink:href="multimesh_8f.html#a97c55697114eaad3acd14c0b1d8ca4a4" target="_top" xlink:title=" ">
<polygon fill="white" stroke="red" points="179,-0.5 179,-19.5 248,-19.5 248,-0.5 179,-0.5"/>
<text text-anchor="middle" x="213.5" y="-7.5" font-family="Helvetica,sans-Serif" font-size="10.00">chk_outflow</text>
</a>
</g>
</g>
<!-- Node31&#45;&gt;Node74 -->
<g id="edge7" class="edge">
<title>Node31&#45;&gt;Node74</title>
<path fill="none" stroke="midnightblue" d="M129.89,-57.43C143.13,-49.72 162.24,-38.62 179,-29 181.5,-27.57 184.11,-26.07 186.72,-24.59"/>
<polygon fill="midnightblue" stroke="midnightblue" points="188.47,-27.62 195.44,-19.63 185.02,-21.53 188.47,-27.62"/>
</g>
<!-- Node75 -->
<g id="node9" class="node">
<title>Node75</title>
<g id="a_node9"><a xlink:href="drive2_8f.html#ab79ec3c35ce2079b236a435feee313c2" target="_top" xlink:title=" ">
<polygon fill="white" stroke="red" points="185,-76.5 185,-95.5 242,-95.5 242,-76.5 185,-76.5"/>
<text text-anchor="middle" x="213.5" y="-83.5" font-family="Helvetica,sans-Serif" font-size="10.00">comment</text>
</a>
</g>
</g>
<!-- Node31&#45;&gt;Node75 -->
<g id="edge8" class="edge">
<title>Node31&#45;&gt;Node75</title>
<path fill="none" stroke="midnightblue" d="M137.72,-71.65C148.81,-73.78 162.21,-76.35 174.6,-78.73"/>
<polygon fill="midnightblue" stroke="midnightblue" points="174.2,-82.21 184.68,-80.66 175.52,-75.34 174.2,-82.21"/>
</g>
<!-- Node884&#45;&gt;Node21 -->
<g id="edge11" class="edge">
<title>Node884&#45;&gt;Node21</title>
<path fill="none" stroke="midnightblue" d="M143.2,-110.7C154.74,-112.92 168.01,-115.46 179.82,-117.73"/>
<polygon fill="midnightblue" stroke="midnightblue" points="179.26,-121.18 189.74,-119.63 180.58,-114.31 179.26,-121.18"/>
</g>
<!-- Node884&#45;&gt;Node75 -->
<g id="edge10" class="edge">
<title>Node884&#45;&gt;Node75</title>
<path fill="none" stroke="midnightblue" d="M143.2,-99.3C153.11,-97.4 164.29,-95.25 174.73,-93.25"/>
<polygon fill="midnightblue" stroke="midnightblue" points="175.69,-96.63 184.85,-91.31 174.37,-89.75 175.69,-96.63"/>
</g>
</g>
</svg>
