<?xml version="1.0" encoding="UTF-8" standalone="no"?>
<!DOCTYPE svg PUBLIC "-//W3C//DTD SVG 1.1//EN"
 "http://www.w3.org/Graphics/SVG/1.1/DTD/svg11.dtd">
<!-- Generated by graphviz version 2.46.0 (0)
 -->
<!-- Title: heat_cvode Pages: 1 -->
<svg width="304pt" height="256pt"
 viewBox="0.00 0.00 304.00 256.00" xmlns="http://www.w3.org/2000/svg" xmlns:xlink="http://www.w3.org/1999/xlink">
<g id="graph0" class="graph" transform="scale(1 1) rotate(0) translate(4 252)">
<title>heat_cvode</title>
<polygon fill="white" stroke="transparent" points="-4,4 -4,-252 300,-252 300,4 -4,4"/>
<!-- Node1 -->
<g id="node1" class="node">
<title>Node1</title>
<g id="a_node1"><a xlink:title=" ">
<polygon fill="#bfbfbf" stroke="black" points="0,-95.5 0,-114.5 67,-114.5 67,-95.5 0,-95.5"/>
<text text-anchor="middle" x="33.5" y="-102.5" font-family="Helvetica,sans-Serif" font-size="10.00">heat_cvode</text>
</a>
</g>
</g>
<!-- Node2 -->
<g id="node2" class="node">
<title>Node2</title>
<g id="a_node2"><a xlink:href="cvode__driver_8f.html#aee31e0eed35b392c2fdac6a1f39d498b" target="_top" xlink:title=" ">
<polygon fill="white" stroke="red" points="103,-114.5 103,-133.5 180,-133.5 180,-114.5 103,-114.5"/>
<text text-anchor="middle" x="141.5" y="-121.5" font-family="Helvetica,sans-Serif" font-size="10.00">cdscal_cvode</text>
</a>
</g>
</g>
<!-- Node1&#45;&gt;Node2 -->
<g id="edge1" class="edge">
<title>Node1&#45;&gt;Node2</title>
<path fill="none" stroke="midnightblue" d="M67.17,-110.86C75.3,-112.31 84.19,-113.91 92.88,-115.46"/>
<polygon fill="midnightblue" stroke="midnightblue" points="92.47,-118.95 102.93,-117.27 93.71,-112.06 92.47,-118.95"/>
</g>
<!-- Node10 -->
<g id="node10" class="node">
<title>Node10</title>
<g id="a_node10"><a xlink:href="comm__mpi_8f.html#af06ec29f06aac3f8809e19de2a7e8946" target="_top" xlink:title=" ">
<polygon fill="white" stroke="red" points="111,-76.5 111,-95.5 172,-95.5 172,-76.5 111,-76.5"/>
<text text-anchor="middle" x="141.5" y="-83.5" font-family="Helvetica,sans-Serif" font-size="10.00">dnekclock</text>
</a>
</g>
</g>
<!-- Node1&#45;&gt;Node10 -->
<g id="edge9" class="edge">
<title>Node1&#45;&gt;Node10</title>
<path fill="none" stroke="midnightblue" d="M67.17,-99.14C77.79,-97.24 89.69,-95.11 100.77,-93.12"/>
<polygon fill="midnightblue" stroke="midnightblue" points="101.42,-96.56 110.64,-91.35 100.18,-89.67 101.42,-96.56"/>
</g>
<!-- Node3 -->
<g id="node3" class="node">
<title>Node3</title>
<g id="a_node3"><a xlink:href="math_8f.html#add7cf4f5279a2239cfd54f963a53e618" target="_top" xlink:title=" ">
<polygon fill="white" stroke="black" points="240,-228.5 240,-247.5 272,-247.5 272,-228.5 240,-228.5"/>
<text text-anchor="middle" x="256" y="-235.5" font-family="Helvetica,sans-Serif" font-size="10.00">cfill</text>
</a>
</g>
</g>
<!-- Node2&#45;&gt;Node3 -->
<g id="edge2" class="edge">
<title>Node2&#45;&gt;Node3</title>
<path fill="none" stroke="midnightblue" d="M147.82,-133.53C158.59,-152.08 184.62,-193.47 216,-219 220.34,-222.53 225.45,-225.62 230.52,-228.21"/>
<polygon fill="midnightblue" stroke="midnightblue" points="229.44,-231.57 239.99,-232.6 232.39,-225.22 229.44,-231.57"/>
</g>
<!-- Node4 -->
<g id="node4" class="node">
<title>Node4</title>
<g id="a_node4"><a xlink:href="math_8f.html#a3b43508554f14bdea8e14473d7d0803c" target="_top" xlink:title=" ">
<polygon fill="white" stroke="black" points="237,-190.5 237,-209.5 275,-209.5 275,-190.5 237,-190.5"/>
<text text-anchor="middle" x="256" y="-197.5" font-family="Helvetica,sans-Serif" font-size="10.00">copy</text>
</a>
</g>
</g>
<!-- Node2&#45;&gt;Node4 -->
<g id="edge3" class="edge">
<title>Node2&#45;&gt;Node4</title>
<path fill="none" stroke="midnightblue" d="M153.43,-133.64C167.34,-145.64 192.42,-166.33 216,-181 219.67,-183.28 223.65,-185.5 227.63,-187.56"/>
<polygon fill="midnightblue" stroke="midnightblue" points="226.21,-190.76 236.72,-192.05 229.31,-184.48 226.21,-190.76"/>
</g>
<!-- Node5 -->
<g id="node5" class="node">
<title>Node5</title>
<g id="a_node5"><a xlink:href="comm__mpi_8f.html#a0d0f535bedd0124e7a09b4f15db6de8e" target="_top" xlink:title=" ">
<polygon fill="white" stroke="red" points="218,-152.5 218,-171.5 294,-171.5 294,-152.5 218,-152.5"/>
<text text-anchor="middle" x="256" y="-159.5" font-family="Helvetica,sans-Serif" font-size="10.00">create_comm</text>
</a>
</g>
</g>
<!-- Node2&#45;&gt;Node5 -->
<g id="edge4" class="edge">
<title>Node2&#45;&gt;Node5</title>
<path fill="none" stroke="midnightblue" d="M170.89,-133.59C184.88,-138.31 201.94,-144.08 217.04,-149.18"/>
<polygon fill="midnightblue" stroke="midnightblue" points="216.03,-152.53 226.62,-152.41 218.27,-145.9 216.03,-152.53"/>
</g>
<!-- Node7 -->
<g id="node6" class="node">
<title>Node7</title>
<g id="a_node6"><a xlink:href="cvode__driver_8f.html#a365f4a5b0accedd6fda56ba6be129643" target="_top" xlink:title=" ">
<polygon fill="white" stroke="red" points="216,-114.5 216,-133.5 296,-133.5 296,-114.5 216,-114.5"/>
<text text-anchor="middle" x="256" y="-121.5" font-family="Helvetica,sans-Serif" font-size="10.00">cv_eval_geom</text>
</a>
</g>
</g>
<!-- Node2&#45;&gt;Node7 -->
<g id="edge5" class="edge">
<title>Node2&#45;&gt;Node7</title>
<path fill="none" stroke="midnightblue" d="M180.27,-124C188.44,-124 197.2,-124 205.73,-124"/>
<polygon fill="midnightblue" stroke="midnightblue" points="205.98,-127.5 215.98,-124 205.98,-120.5 205.98,-127.5"/>
</g>
<!-- Node135 -->
<g id="node7" class="node">
<title>Node135</title>
<g id="a_node7"><a xlink:href="cvode__driver_8f.html#aa55ffca49272253ac13bea60ca42a9b5" target="_top" xlink:title=" ">
<polygon fill="white" stroke="black" points="229,-76.5 229,-95.5 283,-95.5 283,-76.5 229,-76.5"/>
<text text-anchor="middle" x="256" y="-83.5" font-family="Helvetica,sans-Serif" font-size="10.00">cv_pstat</text>
</a>
</g>
</g>
<!-- Node2&#45;&gt;Node135 -->
<g id="edge6" class="edge">
<title>Node2&#45;&gt;Node135</title>
<path fill="none" stroke="midnightblue" d="M170.89,-114.41C185.52,-109.47 203.51,-103.39 219.1,-98.13"/>
<polygon fill="midnightblue" stroke="midnightblue" points="220.58,-101.32 228.93,-94.8 218.34,-94.69 220.58,-101.32"/>
</g>
<!-- Node136 -->
<g id="node8" class="node">
<title>Node136</title>
<g id="a_node8"><a xlink:href="cvode__driver_8f.html#ac3b7b8ff406fe23d7556a630d2ad524a" target="_top" xlink:title=" ">
<polygon fill="white" stroke="black" points="230,-38.5 230,-57.5 282,-57.5 282,-38.5 230,-38.5"/>
<text text-anchor="middle" x="256" y="-45.5" font-family="Helvetica,sans-Serif" font-size="10.00">cv_rstat</text>
</a>
</g>
</g>
<!-- Node2&#45;&gt;Node136 -->
<g id="edge7" class="edge">
<title>Node2&#45;&gt;Node136</title>
<path fill="none" stroke="midnightblue" d="M164.67,-114.36C169.9,-111.65 175.32,-108.49 180,-105 198.65,-91.09 197.24,-80.76 216,-67 218.2,-65.39 220.56,-63.85 222.99,-62.4"/>
<polygon fill="midnightblue" stroke="midnightblue" points="224.82,-65.39 231.93,-57.54 221.48,-59.24 224.82,-65.39"/>
</g>
<!-- Node137 -->
<g id="node9" class="node">
<title>Node137</title>
<g id="a_node9"><a xlink:href="cvode__aux_8h.html#a1eb82247fe589957f964f2b86d73ad61" target="_top" xlink:title=" ">
<polygon fill="white" stroke="black" points="226.5,-0.5 226.5,-19.5 285.5,-19.5 285.5,-0.5 226.5,-0.5"/>
<text text-anchor="middle" x="256" y="-7.5" font-family="Helvetica,sans-Serif" font-size="10.00">cvunpack</text>
</a>
</g>
</g>
<!-- Node2&#45;&gt;Node137 -->
<g id="edge8" class="edge">
<title>Node2&#45;&gt;Node137</title>
<path fill="none" stroke="midnightblue" d="M167.09,-114.5C171.76,-111.91 176.33,-108.76 180,-105 206.07,-78.22 189.72,-55.57 216,-29 217.39,-27.59 218.91,-26.28 220.51,-25.05"/>
<polygon fill="midnightblue" stroke="midnightblue" points="222.5,-27.93 229.02,-19.58 218.72,-22.03 222.5,-27.93"/>
</g>
</g>
</svg>
