<?xml version="1.0" encoding="UTF-8" standalone="no"?>
<!DOCTYPE svg PUBLIC "-//W3C//DTD SVG 1.1//EN"
 "http://www.w3.org/Graphics/SVG/1.1/DTD/svg11.dtd">
<!-- Generated by graphviz version 2.46.0 (0)
 -->
<!-- Title: compute_vol_soln Pages: 1 -->
<svg width="279pt" height="180pt"
 viewBox="0.00 0.00 279.00 180.00" xmlns="http://www.w3.org/2000/svg" xmlns:xlink="http://www.w3.org/1999/xlink">
<g id="graph0" class="graph" transform="scale(1 1) rotate(0) translate(4 176)">
<title>compute_vol_soln</title>
<polygon fill="white" stroke="transparent" points="-4,4 -4,-176 275,-176 275,4 -4,4"/>
<!-- Node1 -->
<g id="node1" class="node">
<title>Node1</title>
<g id="a_node1"><a xlink:title=" ">
<polygon fill="#bfbfbf" stroke="black" points="0,-76.5 0,-95.5 95,-95.5 95,-76.5 0,-76.5"/>
<text text-anchor="middle" x="47.5" y="-83.5" font-family="Helvetica,sans-Serif" font-size="10.00">compute_vol_soln</text>
</a>
</g>
</g>
<!-- Node2 -->
<g id="node2" class="node">
<title>Node2</title>
<g id="a_node2"><a xlink:href="math_8f.html#af58b0d2ff8df811dc27c9e42460492b9" target="_top" xlink:title=" ">
<polygon fill="white" stroke="black" points="138.5,-152.5 138.5,-171.5 181.5,-171.5 181.5,-152.5 138.5,-152.5"/>
<text text-anchor="middle" x="160" y="-159.5" font-family="Helvetica,sans-Serif" font-size="10.00">glmax</text>
</a>
</g>
</g>
<!-- Node1&#45;&gt;Node2 -->
<g id="edge1" class="edge">
<title>Node1&#45;&gt;Node2</title>
<path fill="none" stroke="midnightblue" d="M62.2,-95.52C78.55,-106.86 106.72,-126.38 131,-143 132.67,-144.15 134.4,-145.33 136.14,-146.51"/>
<polygon fill="midnightblue" stroke="midnightblue" points="134.5,-149.63 144.74,-152.36 138.44,-143.84 134.5,-149.63"/>
</g>
<!-- Node5 -->
<g id="node4" class="node">
<title>Node5</title>
<g id="a_node4"><a xlink:href="math_8f.html#a102af0dc870819a605ae55d60c59f84a" target="_top" xlink:title=" ">
<polygon fill="white" stroke="black" points="140,-114.5 140,-133.5 180,-133.5 180,-114.5 140,-114.5"/>
<text text-anchor="middle" x="160" y="-121.5" font-family="Helvetica,sans-Serif" font-size="10.00">glmin</text>
</a>
</g>
</g>
<!-- Node1&#45;&gt;Node5 -->
<g id="edge3" class="edge">
<title>Node1&#45;&gt;Node5</title>
<path fill="none" stroke="midnightblue" d="M76.38,-95.59C92.8,-101.23 113.52,-108.36 130.11,-114.06"/>
<polygon fill="midnightblue" stroke="midnightblue" points="129.23,-117.46 139.82,-117.41 131.51,-110.84 129.23,-117.46"/>
</g>
<!-- Node6 -->
<g id="node5" class="node">
<title>Node6</title>
<g id="a_node5"><a xlink:href="math_8f.html#a255eb2b5e6ee8be11915d2c3b5b5bf74" target="_top" xlink:title=" ">
<polygon fill="white" stroke="black" points="140,-76.5 140,-95.5 180,-95.5 180,-76.5 140,-76.5"/>
<text text-anchor="middle" x="160" y="-83.5" font-family="Helvetica,sans-Serif" font-size="10.00">glsc2</text>
</a>
</g>
</g>
<!-- Node1&#45;&gt;Node6 -->
<g id="edge5" class="edge">
<title>Node1&#45;&gt;Node6</title>
<path fill="none" stroke="midnightblue" d="M95.04,-86C106.81,-86 119.12,-86 129.76,-86"/>
<polygon fill="midnightblue" stroke="midnightblue" points="129.76,-89.5 139.76,-86 129.76,-82.5 129.76,-89.5"/>
</g>
<!-- Node7 -->
<g id="node6" class="node">
<title>Node7</title>
<g id="a_node6"><a xlink:href="drive2_8f.html#af4200cfe213ef1c8819f8a0f7b506a2d" target="_top" xlink:title=" ">
<polygon fill="white" stroke="red" points="131,-38.5 131,-57.5 189,-57.5 189,-38.5 131,-38.5"/>
<text text-anchor="middle" x="160" y="-45.5" font-family="Helvetica,sans-Serif" font-size="10.00">plan3_vol</text>
</a>
</g>
</g>
<!-- Node1&#45;&gt;Node7 -->
<g id="edge7" class="edge">
<title>Node1&#45;&gt;Node7</title>
<path fill="none" stroke="midnightblue" d="M76.38,-76.41C89.99,-71.73 106.57,-66.03 121.29,-60.97"/>
<polygon fill="midnightblue" stroke="midnightblue" points="122.81,-64.15 131.13,-57.59 120.53,-57.53 122.81,-64.15"/>
</g>
<!-- Node414 -->
<g id="node10" class="node">
<title>Node414</title>
<g id="a_node10"><a xlink:href="drive2_8f.html#afe26dea455fd7088135bf58cb3df9f6d" target="_top" xlink:title=" ">
<polygon fill="white" stroke="red" points="131,-0.5 131,-19.5 189,-19.5 189,-0.5 131,-0.5"/>
<text text-anchor="middle" x="160" y="-7.5" font-family="Helvetica,sans-Serif" font-size="10.00">plan4_vol</text>
</a>
</g>
</g>
<!-- Node1&#45;&gt;Node414 -->
<g id="edge11" class="edge">
<title>Node1&#45;&gt;Node414</title>
<path fill="none" stroke="midnightblue" d="M62.2,-76.48C78.55,-65.14 106.72,-45.62 131,-29 132.67,-27.85 134.4,-26.67 136.14,-25.49"/>
<polygon fill="midnightblue" stroke="midnightblue" points="138.44,-28.16 144.74,-19.64 134.5,-22.37 138.44,-28.16"/>
</g>
<!-- Node3 -->
<g id="node3" class="node">
<title>Node3</title>
<g id="a_node3"><a xlink:href="gs__test__gop__blocking_8c.html#ab2e24f9857f6d1ded7e4d556c6bc5e49" target="_top" xlink:title=" ">
<polygon fill="white" stroke="red" points="232,-114.5 232,-133.5 264,-133.5 264,-114.5 232,-114.5"/>
<text text-anchor="middle" x="248" y="-121.5" font-family="Helvetica,sans-Serif" font-size="10.00">gop</text>
</a>
</g>
</g>
<!-- Node2&#45;&gt;Node3 -->
<g id="edge2" class="edge">
<title>Node2&#45;&gt;Node3</title>
<path fill="none" stroke="midnightblue" d="M181.82,-152.8C194.1,-147.38 209.7,-140.48 222.56,-134.8"/>
<polygon fill="midnightblue" stroke="midnightblue" points="224.03,-137.98 231.76,-130.73 221.2,-131.57 224.03,-137.98"/>
</g>
<!-- Node5&#45;&gt;Node3 -->
<g id="edge4" class="edge">
<title>Node5&#45;&gt;Node3</title>
<path fill="none" stroke="midnightblue" d="M180.09,-124C192.3,-124 208.3,-124 221.58,-124"/>
<polygon fill="midnightblue" stroke="midnightblue" points="221.96,-127.5 231.96,-124 221.96,-120.5 221.96,-127.5"/>
</g>
<!-- Node6&#45;&gt;Node3 -->
<g id="edge6" class="edge">
<title>Node6&#45;&gt;Node3</title>
<path fill="none" stroke="midnightblue" d="M180.09,-94.43C192.67,-99.99 209.26,-107.32 222.77,-113.29"/>
<polygon fill="midnightblue" stroke="midnightblue" points="221.4,-116.52 231.96,-117.36 224.23,-110.11 221.4,-116.52"/>
</g>
<!-- Node8 -->
<g id="node7" class="node">
<title>Node8</title>
<g id="a_node7"><a xlink:href="math_8f.html#af75d691116fa36c290d6a2848b113928" target="_top" xlink:title=" ">
<polygon fill="white" stroke="black" points="225.5,-76.5 225.5,-95.5 270.5,-95.5 270.5,-76.5 225.5,-76.5"/>
<text text-anchor="middle" x="248" y="-83.5" font-family="Helvetica,sans-Serif" font-size="10.00">chsign</text>
</a>
</g>
</g>
<!-- Node7&#45;&gt;Node8 -->
<g id="edge8" class="edge">
<title>Node7&#45;&gt;Node8</title>
<path fill="none" stroke="midnightblue" d="M182.7,-57.59C192.78,-62.04 204.96,-67.42 215.99,-72.3"/>
<polygon fill="midnightblue" stroke="midnightblue" points="214.74,-75.57 225.31,-76.41 217.57,-69.17 214.74,-75.57"/>
</g>
<!-- Node9 -->
<g id="node8" class="node">
<title>Node9</title>
<g id="a_node8"><a xlink:href="math_8f.html#ad2b51b68d370651f4f6d81952503e7be" target="_top" xlink:title=" ">
<polygon fill="white" stroke="black" points="227.5,-38.5 227.5,-57.5 268.5,-57.5 268.5,-38.5 227.5,-38.5"/>
<text text-anchor="middle" x="248" y="-45.5" font-family="Helvetica,sans-Serif" font-size="10.00">cmult</text>
</a>
</g>
</g>
<!-- Node7&#45;&gt;Node9 -->
<g id="edge9" class="edge">
<title>Node7&#45;&gt;Node9</title>
<path fill="none" stroke="midnightblue" d="M189.16,-48C198.17,-48 208.18,-48 217.3,-48"/>
<polygon fill="midnightblue" stroke="midnightblue" points="217.49,-51.5 227.49,-48 217.49,-44.5 217.49,-51.5"/>
</g>
<!-- Node10 -->
<g id="node9" class="node">
<title>Node10</title>
<g id="a_node9"><a xlink:href="subs2_8f.html#a3c61e9653d5734accc15712a2f1b9c11" target="_top" xlink:title=" ">
<polygon fill="white" stroke="black" points="225,-0.5 225,-19.5 271,-19.5 271,-0.5 225,-0.5"/>
<text text-anchor="middle" x="248" y="-7.5" font-family="Helvetica,sans-Serif" font-size="10.00">cmult2</text>
</a>
</g>
</g>
<!-- Node7&#45;&gt;Node10 -->
<g id="edge10" class="edge">
<title>Node7&#45;&gt;Node10</title>
<path fill="none" stroke="midnightblue" d="M182.7,-38.41C192.78,-33.96 204.96,-28.58 215.99,-23.7"/>
<polygon fill="midnightblue" stroke="midnightblue" points="217.57,-26.83 225.31,-19.59 214.74,-20.43 217.57,-26.83"/>
</g>
</g>
</svg>
