<?xml version="1.0" encoding="UTF-8" standalone="no"?>
<!DOCTYPE svg PUBLIC "-//W3C//DTD SVG 1.1//EN"
 "http://www.w3.org/Graphics/SVG/1.1/DTD/svg11.dtd">
<!-- Generated by graphviz version 2.46.0 (0)
 -->
<!-- Title: a_dmp Pages: 1 -->
<svg width="224pt" height="275pt"
 viewBox="0.00 0.00 224.00 275.00" xmlns="http://www.w3.org/2000/svg" xmlns:xlink="http://www.w3.org/1999/xlink">
<g id="graph0" class="graph" transform="scale(1 1) rotate(0) translate(4 271)">
<title>a_dmp</title>
<polygon fill="white" stroke="transparent" points="-4,4 -4,-271 220,-271 220,4 -4,4"/>
<!-- Node1 -->
<g id="node1" class="node">
<title>Node1</title>
<g id="a_node1"><a xlink:title=" ">
<polygon fill="#bfbfbf" stroke="black" points="0,-57.5 0,-76.5 46,-76.5 46,-57.5 0,-57.5"/>
<text text-anchor="middle" x="23" y="-64.5" font-family="Helvetica,sans-Serif" font-size="10.00">a_dmp</text>
</a>
</g>
</g>
<!-- Node2 -->
<g id="node2" class="node">
<title>Node2</title>
<g id="a_node2"><a xlink:href="hmholtz_8f.html#aa576b5bd623cce50fd6323db12ba5376" target="_top" xlink:title=" ">
<polygon fill="white" stroke="red" points="82,-133.5 82,-152.5 130,-152.5 130,-133.5 82,-133.5"/>
<text text-anchor="middle" x="106" y="-140.5" font-family="Helvetica,sans-Serif" font-size="10.00">axhelm</text>
</a>
</g>
</g>
<!-- Node1&#45;&gt;Node2 -->
<g id="edge1" class="edge">
<title>Node1&#45;&gt;Node2</title>
<path fill="none" stroke="midnightblue" d="M34.26,-76.63C47.65,-89.19 71.28,-111.37 87.52,-126.6"/>
<polygon fill="midnightblue" stroke="midnightblue" points="85.14,-129.16 94.82,-133.45 89.93,-124.06 85.14,-129.16"/>
</g>
<!-- Node12 -->
<g id="node8" class="node">
<title>Node12</title>
<g id="a_node8"><a xlink:href="math_8f.html#af44de42b023a4a68cd98ea341204342d" target="_top" xlink:title=" ">
<polygon fill="white" stroke="black" points="172,-57.5 172,-76.5 210,-76.5 210,-57.5 172,-57.5"/>
<text text-anchor="middle" x="191" y="-64.5" font-family="Helvetica,sans-Serif" font-size="10.00">rzero</text>
</a>
</g>
</g>
<!-- Node1&#45;&gt;Node12 -->
<g id="edge10" class="edge">
<title>Node1&#45;&gt;Node12</title>
<path fill="none" stroke="midnightblue" d="M46.04,-67C75.84,-67 128.98,-67 161.7,-67"/>
<polygon fill="midnightblue" stroke="midnightblue" points="161.94,-70.5 171.94,-67 161.94,-63.5 161.94,-70.5"/>
</g>
<!-- Node19 -->
<g id="node9" class="node">
<title>Node19</title>
<g id="a_node9"><a xlink:href="drive2_8f.html#a8b4ddabff3b53fb3933f378c4faeb8f2" target="_top" xlink:title=" ">
<polygon fill="white" stroke="black" points="85.5,-38.5 85.5,-57.5 126.5,-57.5 126.5,-38.5 85.5,-38.5"/>
<text text-anchor="middle" x="106" y="-45.5" font-family="Helvetica,sans-Serif" font-size="10.00">outrio</text>
</a>
</g>
</g>
<!-- Node1&#45;&gt;Node19 -->
<g id="edge8" class="edge">
<title>Node1&#45;&gt;Node19</title>
<path fill="none" stroke="midnightblue" d="M46.13,-61.81C55.15,-59.69 65.7,-57.22 75.36,-54.95"/>
<polygon fill="midnightblue" stroke="midnightblue" points="76.44,-58.29 85.38,-52.6 74.84,-51.48 76.44,-58.29"/>
</g>
<!-- Node20 -->
<g id="node10" class="node">
<title>Node20</title>
<g id="a_node10"><a xlink:href="math_8f.html#ae1294c8ac3b5b3c38bbcc250d252b9cb" target="_top" xlink:title=" ">
<polygon fill="white" stroke="black" points="88.5,-0.5 88.5,-19.5 123.5,-19.5 123.5,-0.5 88.5,-0.5"/>
<text text-anchor="middle" x="106" y="-7.5" font-family="Helvetica,sans-Serif" font-size="10.00">rone</text>
</a>
</g>
</g>
<!-- Node1&#45;&gt;Node20 -->
<g id="edge9" class="edge">
<title>Node1&#45;&gt;Node20</title>
<path fill="none" stroke="midnightblue" d="M37.74,-57.33C50.15,-48.6 68.63,-35.6 83.08,-25.43"/>
<polygon fill="midnightblue" stroke="midnightblue" points="85.3,-28.14 91.46,-19.53 81.27,-22.42 85.3,-28.14"/>
</g>
<!-- Node3 -->
<g id="node3" class="node">
<title>Node3</title>
<g id="a_node3"><a xlink:href="math_8f.html#a30b83d516b6ab162d3fafe73e03a3e92" target="_top" xlink:title=" ">
<polygon fill="white" stroke="red" points="172,-247.5 172,-266.5 210,-266.5 210,-247.5 172,-247.5"/>
<text text-anchor="middle" x="191" y="-254.5" font-family="Helvetica,sans-Serif" font-size="10.00">add2</text>
</a>
</g>
</g>
<!-- Node2&#45;&gt;Node3 -->
<g id="edge2" class="edge">
<title>Node2&#45;&gt;Node3</title>
<path fill="none" stroke="midnightblue" d="M111.57,-152.63C120.4,-170.65 141.18,-210.18 166,-238 166.74,-238.83 167.53,-239.66 168.34,-240.47"/>
<polygon fill="midnightblue" stroke="midnightblue" points="166.27,-243.31 176.08,-247.31 170.9,-238.06 166.27,-243.31"/>
</g>
<!-- Node6 -->
<g id="node4" class="node">
<title>Node6</title>
<g id="a_node4"><a xlink:href="math_8f.html#a6d333c9b7537e63344c7162824904329" target="_top" xlink:title=" ">
<polygon fill="white" stroke="black" points="172,-209.5 172,-228.5 210,-228.5 210,-209.5 172,-209.5"/>
<text text-anchor="middle" x="191" y="-216.5" font-family="Helvetica,sans-Serif" font-size="10.00">add3</text>
</a>
</g>
</g>
<!-- Node2&#45;&gt;Node6 -->
<g id="edge3" class="edge">
<title>Node2&#45;&gt;Node6</title>
<path fill="none" stroke="midnightblue" d="M116.33,-152.58C127.74,-164.15 147.78,-184.05 166,-200 166.99,-200.87 168.01,-201.74 169.05,-202.62"/>
<polygon fill="midnightblue" stroke="midnightblue" points="167.14,-205.57 177.1,-209.17 171.56,-200.14 167.14,-205.57"/>
</g>
<!-- Node7 -->
<g id="node5" class="node">
<title>Node7</title>
<g id="a_node5"><a xlink:href="math_8f.html#a1f336314da3012286837ede20a0495c6" target="_top" xlink:title=" ">
<polygon fill="white" stroke="red" points="166,-171.5 166,-190.5 216,-190.5 216,-171.5 166,-171.5"/>
<text text-anchor="middle" x="191" y="-178.5" font-family="Helvetica,sans-Serif" font-size="10.00">addcol3</text>
</a>
</g>
</g>
<!-- Node2&#45;&gt;Node7 -->
<g id="edge4" class="edge">
<title>Node2&#45;&gt;Node7</title>
<path fill="none" stroke="midnightblue" d="M127.94,-152.59C137.58,-157 149.19,-162.31 159.75,-167.15"/>
<polygon fill="midnightblue" stroke="midnightblue" points="158.51,-170.43 169.06,-171.41 161.43,-164.07 158.51,-170.43"/>
</g>
<!-- Node8 -->
<g id="node6" class="node">
<title>Node8</title>
<g id="a_node6"><a xlink:href="math_8f.html#a40268d720140e9b00647213189f3144a" target="_top" xlink:title=" ">
<polygon fill="white" stroke="black" points="166,-133.5 166,-152.5 216,-152.5 216,-133.5 166,-133.5"/>
<text text-anchor="middle" x="191" y="-140.5" font-family="Helvetica,sans-Serif" font-size="10.00">addcol4</text>
</a>
</g>
</g>
<!-- Node2&#45;&gt;Node8 -->
<g id="edge5" class="edge">
<title>Node2&#45;&gt;Node8</title>
<path fill="none" stroke="midnightblue" d="M130.12,-143C138.03,-143 147.06,-143 155.66,-143"/>
<polygon fill="midnightblue" stroke="midnightblue" points="155.85,-146.5 165.85,-143 155.85,-139.5 155.85,-146.5"/>
</g>
<!-- Node9 -->
<g id="node7" class="node">
<title>Node9</title>
<g id="a_node7"><a xlink:href="math_8f.html#ad2b51b68d370651f4f6d81952503e7be" target="_top" xlink:title=" ">
<polygon fill="white" stroke="black" points="170.5,-95.5 170.5,-114.5 211.5,-114.5 211.5,-95.5 170.5,-95.5"/>
<text text-anchor="middle" x="191" y="-102.5" font-family="Helvetica,sans-Serif" font-size="10.00">cmult</text>
</a>
</g>
</g>
<!-- Node2&#45;&gt;Node9 -->
<g id="edge6" class="edge">
<title>Node2&#45;&gt;Node9</title>
<path fill="none" stroke="midnightblue" d="M127.94,-133.41C138.05,-128.79 150.32,-123.16 161.28,-118.15"/>
<polygon fill="midnightblue" stroke="midnightblue" points="162.85,-121.28 170.49,-113.93 159.94,-114.91 162.85,-121.28"/>
</g>
<!-- Node2&#45;&gt;Node12 -->
<g id="edge7" class="edge">
<title>Node2&#45;&gt;Node12</title>
<path fill="none" stroke="midnightblue" d="M116.33,-133.42C127.74,-121.85 147.78,-101.95 166,-86 166.99,-85.13 168.01,-84.26 169.05,-83.38"/>
<polygon fill="midnightblue" stroke="midnightblue" points="171.56,-85.86 177.1,-76.83 167.14,-80.43 171.56,-85.86"/>
</g>
</g>
</svg>
