<?xml version="1.0" encoding="UTF-8" standalone="no"?>
<!DOCTYPE svg PUBLIC "-//W3C//DTD SVG 1.1//EN"
 "http://www.w3.org/Graphics/SVG/1.1/DTD/svg11.dtd">
<!-- Generated by graphviz version 2.46.0 (0)
 -->
<!-- Title: geneig Pages: 1 -->
<svg width="232pt" height="256pt"
 viewBox="0.00 0.00 232.00 256.00" xmlns="http://www.w3.org/2000/svg" xmlns:xlink="http://www.w3.org/1999/xlink">
<g id="graph0" class="graph" transform="scale(1 1) rotate(0) translate(4 252)">
<title>geneig</title>
<polygon fill="white" stroke="transparent" points="-4,4 -4,-252 228,-252 228,4 -4,4"/>
<!-- Node1 -->
<g id="node1" class="node">
<title>Node1</title>
<g id="a_node1"><a xlink:title=" ">
<polygon fill="#bfbfbf" stroke="black" points="0,-95.5 0,-114.5 45,-114.5 45,-95.5 0,-95.5"/>
<text text-anchor="middle" x="22.5" y="-102.5" font-family="Helvetica,sans-Serif" font-size="10.00">geneig</text>
</a>
</g>
</g>
<!-- Node2 -->
<g id="node2" class="node">
<title>Node2</title>
<g id="a_node2"><a xlink:href="eigsolv_8f.html#a91ddf7cb5ca6b19d1c736da5bf7386b3" target="_top" xlink:title=" ">
<polygon fill="white" stroke="red" points="81,-114.5 81,-133.5 126,-133.5 126,-114.5 81,-114.5"/>
<text text-anchor="middle" x="103.5" y="-121.5" font-family="Helvetica,sans-Serif" font-size="10.00">eigenv</text>
</a>
</g>
</g>
<!-- Node1&#45;&gt;Node2 -->
<g id="edge1" class="edge">
<title>Node1&#45;&gt;Node2</title>
<path fill="none" stroke="midnightblue" d="M45.09,-110.19C53.1,-112.12 62.36,-114.35 71.07,-116.44"/>
<polygon fill="midnightblue" stroke="midnightblue" points="70.4,-119.88 80.94,-118.81 72.03,-113.07 70.4,-119.88"/>
</g>
<!-- Node448 -->
<g id="node10" class="node">
<title>Node448</title>
<g id="a_node10"><a xlink:href="eigsolv_8f.html#a1db10d40f8df1de37de90fbff50443f6" target="_top" xlink:title=" ">
<polygon fill="white" stroke="red" points="82,-76.5 82,-95.5 125,-95.5 125,-76.5 82,-76.5"/>
<text text-anchor="middle" x="103.5" y="-83.5" font-family="Helvetica,sans-Serif" font-size="10.00">esteig</text>
</a>
</g>
</g>
<!-- Node1&#45;&gt;Node448 -->
<g id="edge9" class="edge">
<title>Node1&#45;&gt;Node448</title>
<path fill="none" stroke="midnightblue" d="M45.09,-99.81C53.39,-97.81 63.02,-95.49 72,-93.33"/>
<polygon fill="midnightblue" stroke="midnightblue" points="72.85,-96.73 81.76,-90.99 71.22,-89.92 72.85,-96.73"/>
</g>
<!-- Node3 -->
<g id="node3" class="node">
<title>Node3</title>
<g id="a_node3"><a xlink:href="eigsolv_8f.html#a285ca4aa2354ca8584af31946d6761c2" target="_top" xlink:title=" ">
<polygon fill="white" stroke="red" points="166.5,-228.5 166.5,-247.5 219.5,-247.5 219.5,-228.5 166.5,-228.5"/>
<text text-anchor="middle" x="193" y="-235.5" font-family="Helvetica,sans-Serif" font-size="10.00">alpham1</text>
</a>
</g>
</g>
<!-- Node2&#45;&gt;Node3 -->
<g id="edge2" class="edge">
<title>Node2&#45;&gt;Node3</title>
<path fill="none" stroke="midnightblue" d="M108.5,-133.6C116.5,-151.92 135.96,-192.42 162,-219 163.08,-220.1 164.23,-221.17 165.44,-222.2"/>
<polygon fill="midnightblue" stroke="midnightblue" points="163.73,-225.28 173.85,-228.4 167.88,-219.65 163.73,-225.28"/>
</g>
<!-- Node202 -->
<g id="node4" class="node">
<title>Node202</title>
<g id="a_node4"><a xlink:href="eigsolv_8f.html#ae85b67491410da26b954f7e1257a7938" target="_top" xlink:title=" ">
<polygon fill="white" stroke="red" points="166.5,-190.5 166.5,-209.5 219.5,-209.5 219.5,-190.5 166.5,-190.5"/>
<text text-anchor="middle" x="193" y="-197.5" font-family="Helvetica,sans-Serif" font-size="10.00">alpham2</text>
</a>
</g>
</g>
<!-- Node2&#45;&gt;Node202 -->
<g id="edge3" class="edge">
<title>Node2&#45;&gt;Node202</title>
<path fill="none" stroke="midnightblue" d="M112.9,-133.52C123.64,-145.38 143.09,-165.93 162,-181 163.55,-182.24 165.19,-183.47 166.87,-184.67"/>
<polygon fill="midnightblue" stroke="midnightblue" points="165.11,-187.7 175.37,-190.36 169.01,-181.89 165.11,-187.7"/>
</g>
<!-- Node406 -->
<g id="node5" class="node">
<title>Node406</title>
<g id="a_node5"><a xlink:href="eigsolv_8f.html#a40aa959fb07551b7b3fe2e5bd7ed6fda" target="_top" xlink:title=" ">
<polygon fill="white" stroke="red" points="162,-152.5 162,-171.5 224,-171.5 224,-152.5 162,-152.5"/>
<text text-anchor="middle" x="193" y="-159.5" font-family="Helvetica,sans-Serif" font-size="10.00">gammam1</text>
</a>
</g>
</g>
<!-- Node2&#45;&gt;Node406 -->
<g id="edge4" class="edge">
<title>Node2&#45;&gt;Node406</title>
<path fill="none" stroke="midnightblue" d="M126.13,-133.39C136.57,-137.93 149.28,-143.45 160.75,-148.43"/>
<polygon fill="midnightblue" stroke="midnightblue" points="159.45,-151.68 170.01,-152.45 162.23,-145.26 159.45,-151.68"/>
</g>
<!-- Node407 -->
<g id="node6" class="node">
<title>Node407</title>
<g id="a_node6"><a xlink:href="eigsolv_8f.html#aca8bd4d1702a986c85fad671139a5527" target="_top" xlink:title=" ">
<polygon fill="white" stroke="red" points="162,-114.5 162,-133.5 224,-133.5 224,-114.5 162,-114.5"/>
<text text-anchor="middle" x="193" y="-121.5" font-family="Helvetica,sans-Serif" font-size="10.00">gammam2</text>
</a>
</g>
</g>
<!-- Node2&#45;&gt;Node407 -->
<g id="edge5" class="edge">
<title>Node2&#45;&gt;Node407</title>
<path fill="none" stroke="midnightblue" d="M126.13,-124C133.84,-124 142.8,-124 151.57,-124"/>
<polygon fill="midnightblue" stroke="midnightblue" points="151.71,-127.5 161.71,-124 151.71,-120.5 151.71,-127.5"/>
</g>
<!-- Node408 -->
<g id="node7" class="node">
<title>Node408</title>
<g id="a_node7"><a xlink:href="subs2_8f.html#ad8a6bc8a1f656abf763a97453f623f0f" target="_top" xlink:title=" ">
<polygon fill="white" stroke="red" points="164.5,-76.5 164.5,-95.5 221.5,-95.5 221.5,-76.5 164.5,-76.5"/>
<text text-anchor="middle" x="193" y="-83.5" font-family="Helvetica,sans-Serif" font-size="10.00">gammasf</text>
</a>
</g>
</g>
<!-- Node2&#45;&gt;Node408 -->
<g id="edge6" class="edge">
<title>Node2&#45;&gt;Node408</title>
<path fill="none" stroke="midnightblue" d="M126.13,-114.61C136.57,-110.07 149.28,-104.55 160.75,-99.57"/>
<polygon fill="midnightblue" stroke="midnightblue" points="162.23,-102.74 170.01,-95.55 159.45,-96.32 162.23,-102.74"/>
</g>
<!-- Node96 -->
<g id="node8" class="node">
<title>Node96</title>
<g id="a_node8"><a xlink:href="math_8f.html#a0fcb0ff151fe3548d0d07961e8365efe" target="_top" xlink:title=" ">
<polygon fill="white" stroke="black" points="169,-38.5 169,-57.5 217,-57.5 217,-38.5 169,-38.5"/>
<text text-anchor="middle" x="193" y="-45.5" font-family="Helvetica,sans-Serif" font-size="10.00">invers2</text>
</a>
</g>
</g>
<!-- Node2&#45;&gt;Node96 -->
<g id="edge7" class="edge">
<title>Node2&#45;&gt;Node96</title>
<path fill="none" stroke="midnightblue" d="M116.05,-114.13C119.32,-111.24 122.85,-108.05 126,-105 142.73,-88.84 144.04,-81.78 162,-67 163.54,-65.74 165.16,-64.49 166.83,-63.28"/>
<polygon fill="midnightblue" stroke="midnightblue" points="168.97,-66.05 175.3,-57.55 165.05,-60.25 168.97,-66.05"/>
</g>
<!-- Node57 -->
<g id="node9" class="node">
<title>Node57</title>
<g id="a_node9"><a xlink:href="math_8f.html#ae1294c8ac3b5b3c38bbcc250d252b9cb" target="_top" xlink:title=" ">
<polygon fill="white" stroke="black" points="175.5,-0.5 175.5,-19.5 210.5,-19.5 210.5,-0.5 175.5,-0.5"/>
<text text-anchor="middle" x="193" y="-7.5" font-family="Helvetica,sans-Serif" font-size="10.00">rone</text>
</a>
</g>
</g>
<!-- Node2&#45;&gt;Node57 -->
<g id="edge8" class="edge">
<title>Node2&#45;&gt;Node57</title>
<path fill="none" stroke="midnightblue" d="M117.17,-114.32C120.31,-111.54 123.49,-108.34 126,-105 148.46,-75.13 137.23,-56.99 162,-29 163.53,-27.27 165.25,-25.65 167.07,-24.13"/>
<polygon fill="midnightblue" stroke="midnightblue" points="169.34,-26.81 175.47,-18.17 165.28,-21.1 169.34,-26.81"/>
</g>
</g>
</svg>
