<?xml version="1.0" encoding="UTF-8" standalone="no"?>
<!DOCTYPE svg PUBLIC "-//W3C//DTD SVG 1.1//EN"
 "http://www.w3.org/Graphics/SVG/1.1/DTD/svg11.dtd">
<!-- Generated by graphviz version 2.46.0 (0)
 -->
<!-- Title: comment Pages: 1 -->
<svg width="496pt" height="180pt"
 viewBox="0.00 0.00 496.00 180.00" xmlns="http://www.w3.org/2000/svg" xmlns:xlink="http://www.w3.org/1999/xlink">
<g id="graph0" class="graph" transform="scale(1 1) rotate(0) translate(4 176)">
<title>comment</title>
<polygon fill="white" stroke="transparent" points="-4,4 -4,-176 492,-176 492,4 -4,4"/>
<!-- Node1 -->
<g id="node1" class="node">
<title>Node1</title>
<g id="a_node1"><a xlink:title=" ">
<polygon fill="#bfbfbf" stroke="black" points="431,-76.5 431,-95.5 488,-95.5 488,-76.5 431,-76.5"/>
<text text-anchor="middle" x="459.5" y="-83.5" font-family="Helvetica,sans-Serif" font-size="10.00">comment</text>
</a>
</g>
</g>
<!-- Node2 -->
<g id="node2" class="node">
<title>Node2</title>
<g id="a_node2"><a xlink:href="ssolv_8f.html#a4bb42a5afabbba8c6518d83cbe481c17" target="_top" xlink:title=" ">
<polygon fill="white" stroke="black" points="332.5,-152.5 332.5,-171.5 383.5,-171.5 383.5,-152.5 332.5,-152.5"/>
<text text-anchor="middle" x="358" y="-159.5" font-family="Helvetica,sans-Serif" font-size="10.00">go1step</text>
</a>
</g>
</g>
<!-- Node1&#45;&gt;Node2 -->
<g id="edge1" class="edge">
<title>Node1&#45;&gt;Node2</title>
<path fill="none" stroke="midnightblue" d="M441.97,-102.92C429.68,-114.96 412.15,-131.05 395,-143 390.13,-146.39 384.58,-149.61 379.32,-152.39"/>
<polygon fill="midnightblue" stroke="midnightblue" points="444.62,-105.22 449.23,-95.68 439.68,-100.26 444.62,-105.22"/>
</g>
<!-- Node3 -->
<g id="node3" class="node">
<title>Node3</title>
<g id="a_node3"><a xlink:href="ssolv_8f.html#a2de8913c214fa083dcb088c57bd45272" target="_top" xlink:title=" ">
<polygon fill="white" stroke="black" points="335,-114.5 335,-133.5 381,-133.5 381,-114.5 335,-114.5"/>
<text text-anchor="middle" x="358" y="-121.5" font-family="Helvetica,sans-Serif" font-size="10.00">gostep</text>
</a>
</g>
</g>
<!-- Node1&#45;&gt;Node3 -->
<g id="edge2" class="edge">
<title>Node1&#45;&gt;Node3</title>
<path fill="none" stroke="midnightblue" d="M423.9,-99.21C409.68,-104.64 393.63,-110.77 381.05,-115.58"/>
<polygon fill="midnightblue" stroke="midnightblue" points="425.3,-102.43 433.39,-95.59 422.8,-95.89 425.3,-102.43"/>
</g>
<!-- Node5 -->
<g id="node5" class="node">
<title>Node5</title>
<g id="a_node5"><a xlink:href="drive1_8f.html#ae177ea7efac97f35241521b782a671c0" target="_top" xlink:title=" ">
<polygon fill="white" stroke="black" points="321,-76.5 321,-95.5 395,-95.5 395,-76.5 321,-76.5"/>
<text text-anchor="middle" x="358" y="-83.5" font-family="Helvetica,sans-Serif" font-size="10.00">nek_advance</text>
</a>
</g>
</g>
<!-- Node1&#45;&gt;Node5 -->
<g id="edge4" class="edge">
<title>Node1&#45;&gt;Node5</title>
<path fill="none" stroke="midnightblue" d="M420.55,-86C412.21,-86 403.4,-86 395.13,-86"/>
<polygon fill="midnightblue" stroke="midnightblue" points="420.78,-89.5 430.78,-86 420.78,-82.5 420.78,-89.5"/>
</g>
<!-- Node7 -->
<g id="node7" class="node">
<title>Node7</title>
<g id="a_node7"><a xlink:href="drive1_8f.html#a6ad57e0cf728f343e371ef8c9a02cd8a" target="_top" xlink:title=" ">
<polygon fill="white" stroke="black" points="82,-38.5 82,-57.5 143,-57.5 143,-38.5 82,-38.5"/>
<text text-anchor="middle" x="112.5" y="-45.5" font-family="Helvetica,sans-Serif" font-size="10.00">nek_solve</text>
</a>
</g>
</g>
<!-- Node1&#45;&gt;Node7 -->
<g id="edge10" class="edge">
<title>Node1&#45;&gt;Node7</title>
<path fill="none" stroke="midnightblue" d="M421.54,-73.43C412.92,-70.92 403.71,-68.58 395,-67 304.38,-50.6 195.05,-48.04 143.35,-47.84"/>
<polygon fill="midnightblue" stroke="midnightblue" points="420.73,-76.84 431.32,-76.41 422.78,-70.15 420.73,-76.84"/>
</g>
<!-- Node9 -->
<g id="node9" class="node">
<title>Node9</title>
<g id="a_node9"><a xlink:href="drive1_8f.html#a83f7c6d78ac4e68394f32533e847d0a3" target="_top" xlink:title=" ">
<polygon fill="white" stroke="black" points="87.5,-0.5 87.5,-19.5 137.5,-19.5 137.5,-0.5 87.5,-0.5"/>
<text text-anchor="middle" x="112.5" y="-7.5" font-family="Helvetica,sans-Serif" font-size="10.00">nek_init</text>
</a>
</g>
</g>
<!-- Node1&#45;&gt;Node9 -->
<g id="edge8" class="edge">
<title>Node1&#45;&gt;Node9</title>
<path fill="none" stroke="midnightblue" d="M434.82,-71.33C423.22,-64.76 408.79,-57.5 395,-53 303.12,-23.02 187.4,-13.75 137.84,-11.05"/>
<polygon fill="midnightblue" stroke="midnightblue" points="433.06,-74.36 443.46,-76.38 436.6,-68.31 433.06,-74.36"/>
</g>
<!-- Node4 -->
<g id="node4" class="node">
<title>Node4</title>
<g id="a_node4"><a xlink:href="ssolv_8f.html#a4c61f5b12a3bb1945a465966ba14ff9b" target="_top" xlink:title=" ">
<polygon fill="white" stroke="black" points="206.5,-114.5 206.5,-133.5 257.5,-133.5 257.5,-114.5 206.5,-114.5"/>
<text text-anchor="middle" x="232" y="-121.5" font-family="Helvetica,sans-Serif" font-size="10.00">gonstep</text>
</a>
</g>
</g>
<!-- Node3&#45;&gt;Node4 -->
<g id="edge3" class="edge">
<title>Node3&#45;&gt;Node4</title>
<path fill="none" stroke="midnightblue" d="M324.76,-124C303.76,-124 276.78,-124 257.53,-124"/>
<polygon fill="midnightblue" stroke="midnightblue" points="324.83,-127.5 334.83,-124 324.83,-120.5 324.83,-127.5"/>
</g>
<!-- Node6 -->
<g id="node6" class="node">
<title>Node6</title>
<g id="a_node6"><a xlink:href="drive1_8f.html#a18d3e839786263fc4cf91f7eeb714371" target="_top" xlink:title=" ">
<polygon fill="white" stroke="black" points="179,-76.5 179,-95.5 285,-95.5 285,-76.5 179,-76.5"/>
<text text-anchor="middle" x="232" y="-83.5" font-family="Helvetica,sans-Serif" font-size="10.00">nek__multi_advance</text>
</a>
</g>
</g>
<!-- Node5&#45;&gt;Node6 -->
<g id="edge5" class="edge">
<title>Node5&#45;&gt;Node6</title>
<path fill="none" stroke="midnightblue" d="M310.56,-86C302.27,-86 293.58,-86 285.14,-86"/>
<polygon fill="midnightblue" stroke="midnightblue" points="310.8,-89.5 320.8,-86 310.8,-82.5 310.8,-89.5"/>
</g>
<!-- Node6&#45;&gt;Node7 -->
<g id="edge6" class="edge">
<title>Node6&#45;&gt;Node7</title>
<path fill="none" stroke="midnightblue" d="M191.79,-73.32C175.91,-68.19 157.89,-62.36 143.14,-57.59"/>
<polygon fill="midnightblue" stroke="midnightblue" points="190.76,-76.66 201.35,-76.41 192.91,-70 190.76,-76.66"/>
</g>
<!-- Node8 -->
<g id="node8" class="node">
<title>Node8</title>
<g id="a_node8"><a xlink:href="drive_8f.html#a13048bf28dd0734640412d69349e3857" target="_top" xlink:title=" ">
<polygon fill="white" stroke="black" points="0,-19.5 0,-38.5 46,-38.5 46,-19.5 0,-19.5"/>
<text text-anchor="middle" x="23" y="-26.5" font-family="Helvetica,sans-Serif" font-size="10.00">nekton</text>
</a>
</g>
</g>
<!-- Node7&#45;&gt;Node8 -->
<g id="edge7" class="edge">
<title>Node7&#45;&gt;Node8</title>
<path fill="none" stroke="midnightblue" d="M72.02,-39.43C63.13,-37.5 54,-35.51 46.12,-33.8"/>
<polygon fill="midnightblue" stroke="midnightblue" points="71.36,-42.87 81.88,-41.57 72.85,-36.03 71.36,-42.87"/>
</g>
<!-- Node9&#45;&gt;Node8 -->
<g id="edge9" class="edge">
<title>Node9&#45;&gt;Node8</title>
<path fill="none" stroke="midnightblue" d="M77.06,-17.48C66.66,-19.74 55.52,-22.16 46.15,-24.19"/>
<polygon fill="midnightblue" stroke="midnightblue" points="78.1,-20.83 87.13,-15.29 76.61,-13.99 78.1,-20.83"/>
</g>
</g>
</svg>
