<?xml version="1.0" encoding="UTF-8" standalone="no"?>
<!DOCTYPE svg PUBLIC "-//W3C//DTD SVG 1.1//EN"
 "http://www.w3.org/Graphics/SVG/1.1/DTD/svg11.dtd">
<!-- Generated by graphviz version 2.46.0 (0)
 -->
<!-- Title: opcount Pages: 1 -->
<svg width="240pt" height="256pt"
 viewBox="0.00 0.00 240.00 256.00" xmlns="http://www.w3.org/2000/svg" xmlns:xlink="http://www.w3.org/1999/xlink">
<g id="graph0" class="graph" transform="scale(1 1) rotate(0) translate(4 252)">
<title>opcount</title>
<polygon fill="white" stroke="transparent" points="-4,4 -4,-252 236,-252 236,4 -4,4"/>
<!-- Node1 -->
<g id="node1" class="node">
<title>Node1</title>
<g id="a_node1"><a xlink:title=" ">
<polygon fill="#bfbfbf" stroke="black" points="0,-114.5 0,-133.5 51,-133.5 51,-114.5 0,-114.5"/>
<text text-anchor="middle" x="25.5" y="-121.5" font-family="Helvetica,sans-Serif" font-size="10.00">opcount</text>
</a>
</g>
</g>
<!-- Node2 -->
<g id="node2" class="node">
<title>Node2</title>
<g id="a_node2"><a xlink:href="math_8f.html#aaf00eb15c01d18f7794592197b7f5edb" target="_top" xlink:title=" ">
<polygon fill="white" stroke="black" points="87,-228.5 87,-247.5 140,-247.5 140,-228.5 87,-228.5"/>
<text text-anchor="middle" x="113.5" y="-235.5" font-family="Helvetica,sans-Serif" font-size="10.00">chswapr</text>
</a>
</g>
</g>
<!-- Node1&#45;&gt;Node2 -->
<g id="edge1" class="edge">
<title>Node1&#45;&gt;Node2</title>
<path fill="none" stroke="midnightblue" d="M31.16,-133.69C40.19,-151.81 61.44,-191.5 87,-219 87.89,-219.96 88.83,-220.9 89.81,-221.82"/>
<polygon fill="midnightblue" stroke="midnightblue" points="87.78,-224.69 97.71,-228.4 92.26,-219.31 87.78,-224.69"/>
</g>
<!-- Node3 -->
<g id="node3" class="node">
<title>Node3</title>
<g id="a_node3"><a xlink:href="comm__mpi_8f.html#a243c9bed2592e7cd159fb36be4fda037" target="_top" xlink:title=" ">
<polygon fill="white" stroke="black" points="93,-190.5 93,-209.5 134,-209.5 134,-190.5 93,-190.5"/>
<text text-anchor="middle" x="113.5" y="-197.5" font-family="Helvetica,sans-Serif" font-size="10.00">crecv</text>
</a>
</g>
</g>
<!-- Node1&#45;&gt;Node3 -->
<g id="edge2" class="edge">
<title>Node1&#45;&gt;Node3</title>
<path fill="none" stroke="midnightblue" d="M36.03,-133.64C47.69,-145.27 68.2,-165.23 87,-181 88.31,-182.1 89.67,-183.21 91.06,-184.31"/>
<polygon fill="midnightblue" stroke="midnightblue" points="88.97,-187.12 99.04,-190.42 93.23,-181.56 88.97,-187.12"/>
</g>
<!-- Node8 -->
<g id="node6" class="node">
<title>Node8</title>
<g id="a_node6"><a xlink:href="comm__mpi_8f.html#abd95004b45059acdcc13614c52e60eae" target="_top" xlink:title=" ">
<polygon fill="white" stroke="red" points="92,-152.5 92,-171.5 135,-171.5 135,-152.5 92,-152.5"/>
<text text-anchor="middle" x="113.5" y="-159.5" font-family="Helvetica,sans-Serif" font-size="10.00">csend</text>
</a>
</g>
</g>
<!-- Node1&#45;&gt;Node8 -->
<g id="edge5" class="edge">
<title>Node1&#45;&gt;Node8</title>
<path fill="none" stroke="midnightblue" d="M48.2,-133.59C58.7,-138.23 71.46,-143.87 82.84,-148.89"/>
<polygon fill="midnightblue" stroke="midnightblue" points="81.43,-152.1 91.99,-152.94 84.26,-145.69 81.43,-152.1"/>
</g>
<!-- Node10 -->
<g id="node7" class="node">
<title>Node10</title>
<g id="a_node7"><a xlink:href="math_8f.html#ac2caa204997ab75598615eae14d58cee" target="_top" xlink:title=" ">
<polygon fill="white" stroke="black" points="90.5,-114.5 90.5,-133.5 136.5,-133.5 136.5,-114.5 90.5,-114.5"/>
<text text-anchor="middle" x="113.5" y="-121.5" font-family="Helvetica,sans-Serif" font-size="10.00">drcopy</text>
</a>
</g>
</g>
<!-- Node1&#45;&gt;Node10 -->
<g id="edge6" class="edge">
<title>Node1&#45;&gt;Node10</title>
<path fill="none" stroke="midnightblue" d="M51.37,-124C60.31,-124 70.53,-124 80.02,-124"/>
<polygon fill="midnightblue" stroke="midnightblue" points="80.32,-127.5 90.32,-124 80.32,-120.5 80.32,-127.5"/>
</g>
<!-- Node11 -->
<g id="node8" class="node">
<title>Node11</title>
<g id="a_node8"><a xlink:href="gs__test__gop__blocking_8c.html#ab2e24f9857f6d1ded7e4d556c6bc5e49" target="_top" xlink:title=" ">
<polygon fill="white" stroke="red" points="97.5,-76.5 97.5,-95.5 129.5,-95.5 129.5,-76.5 97.5,-76.5"/>
<text text-anchor="middle" x="113.5" y="-83.5" font-family="Helvetica,sans-Serif" font-size="10.00">gop</text>
</a>
</g>
</g>
<!-- Node1&#45;&gt;Node11 -->
<g id="edge7" class="edge">
<title>Node1&#45;&gt;Node11</title>
<path fill="none" stroke="midnightblue" d="M48.2,-114.41C60.29,-109.07 75.39,-102.4 87.92,-96.86"/>
<polygon fill="midnightblue" stroke="midnightblue" points="89.58,-99.95 97.31,-92.71 86.75,-93.55 89.58,-99.95"/>
</g>
<!-- Node13 -->
<g id="node9" class="node">
<title>Node13</title>
<g id="a_node9"><a xlink:href="math_8f.html#a0b48d4dddcd8963078c8fe2ad35a0bef" target="_top" xlink:title=" ">
<polygon fill="white" stroke="black" points="92.5,-38.5 92.5,-57.5 134.5,-57.5 134.5,-38.5 92.5,-38.5"/>
<text text-anchor="middle" x="113.5" y="-45.5" font-family="Helvetica,sans-Serif" font-size="10.00">iswap</text>
</a>
</g>
</g>
<!-- Node1&#45;&gt;Node13 -->
<g id="edge8" class="edge">
<title>Node1&#45;&gt;Node13</title>
<path fill="none" stroke="midnightblue" d="M36.03,-114.36C47.69,-102.73 68.2,-82.77 87,-67 88.31,-65.9 89.67,-64.79 91.06,-63.69"/>
<polygon fill="midnightblue" stroke="midnightblue" points="93.23,-66.44 99.04,-57.58 88.97,-60.88 93.23,-66.44"/>
</g>
<!-- Node14 -->
<g id="node10" class="node">
<title>Node14</title>
<g id="a_node10"><a xlink:href="math_8f.html#afe46b1d4d7c6bffb46d1997bec21c471" target="_top" xlink:title=" ">
<polygon fill="white" stroke="black" points="97,-0.5 97,-19.5 130,-19.5 130,-0.5 97,-0.5"/>
<text text-anchor="middle" x="113.5" y="-7.5" font-family="Helvetica,sans-Serif" font-size="10.00">sort</text>
</a>
</g>
</g>
<!-- Node1&#45;&gt;Node14 -->
<g id="edge9" class="edge">
<title>Node1&#45;&gt;Node14</title>
<path fill="none" stroke="midnightblue" d="M31.16,-114.31C40.19,-96.19 61.44,-56.5 87,-29 87.89,-28.04 88.83,-27.1 89.81,-26.18"/>
<polygon fill="midnightblue" stroke="midnightblue" points="92.26,-28.69 97.71,-19.6 87.78,-23.31 92.26,-28.69"/>
</g>
<!-- Node4 -->
<g id="node4" class="node">
<title>Node4</title>
<g id="a_node4"><a xlink:href="byte_8c.html#a2da8eeb074dfd3ffbfb3e9a4d301cda4" target="_top" xlink:title=" ">
<polygon fill="white" stroke="red" points="186.5,-209.5 186.5,-228.5 221.5,-228.5 221.5,-209.5 186.5,-209.5"/>
<text text-anchor="middle" x="204" y="-216.5" font-family="Helvetica,sans-Serif" font-size="10.00">exitt</text>
</a>
</g>
</g>
<!-- Node3&#45;&gt;Node4 -->
<g id="edge3" class="edge">
<title>Node3&#45;&gt;Node4</title>
<path fill="none" stroke="midnightblue" d="M134.14,-204.22C146.64,-206.9 162.98,-210.41 176.6,-213.33"/>
<polygon fill="midnightblue" stroke="midnightblue" points="175.87,-216.76 186.39,-215.43 177.34,-209.91 175.87,-216.76"/>
</g>
<!-- Node7 -->
<g id="node5" class="node">
<title>Node7</title>
<g id="a_node5"><a xlink:href="mpi__dummy_8f.html#a709ef20e522dddac7afb17999141cfd4" target="_top" xlink:title=" ">
<polygon fill="white" stroke="black" points="176,-171.5 176,-190.5 232,-190.5 232,-171.5 176,-171.5"/>
<text text-anchor="middle" x="204" y="-178.5" font-family="Helvetica,sans-Serif" font-size="10.00">mpi_recv</text>
</a>
</g>
</g>
<!-- Node3&#45;&gt;Node7 -->
<g id="edge4" class="edge">
<title>Node3&#45;&gt;Node7</title>
<path fill="none" stroke="midnightblue" d="M134.14,-195.78C143.4,-193.79 154.77,-191.35 165.59,-189.03"/>
<polygon fill="midnightblue" stroke="midnightblue" points="166.65,-192.38 175.69,-186.86 165.18,-185.54 166.65,-192.38"/>
</g>
</g>
</svg>
