<?xml version="1.0" encoding="UTF-8" standalone="no"?>
<!DOCTYPE svg PUBLIC "-//W3C//DTD SVG 1.1//EN"
 "http://www.w3.org/Graphics/SVG/1.1/DTD/svg11.dtd">
<!-- Generated by graphviz version 2.46.0 (0)
 -->
<!-- Title: meshv Pages: 1 -->
<svg width="403pt" height="180pt"
 viewBox="0.00 0.00 403.00 180.00" xmlns="http://www.w3.org/2000/svg" xmlns:xlink="http://www.w3.org/1999/xlink">
<g id="graph0" class="graph" transform="scale(1 1) rotate(0) translate(4 176)">
<title>meshv</title>
<polygon fill="white" stroke="transparent" points="-4,4 -4,-176 399,-176 399,4 -4,4"/>
<!-- Node1 -->
<g id="node1" class="node">
<title>Node1</title>
<g id="a_node1"><a xlink:title=" ">
<polygon fill="#bfbfbf" stroke="black" points="349,-95.5 349,-114.5 395,-114.5 395,-95.5 349,-95.5"/>
<text text-anchor="middle" x="372" y="-102.5" font-family="Helvetica,sans-Serif" font-size="10.00">meshv</text>
</a>
</g>
</g>
<!-- Node2 -->
<g id="node2" class="node">
<title>Node2</title>
<g id="a_node2"><a xlink:href="ssolv_8f.html#a4bb42a5afabbba8c6518d83cbe481c17" target="_top" xlink:title=" ">
<polygon fill="white" stroke="black" points="250.5,-152.5 250.5,-171.5 301.5,-171.5 301.5,-152.5 250.5,-152.5"/>
<text text-anchor="middle" x="276" y="-159.5" font-family="Helvetica,sans-Serif" font-size="10.00">go1step</text>
</a>
</g>
</g>
<!-- Node1&#45;&gt;Node2 -->
<g id="edge1" class="edge">
<title>Node1&#45;&gt;Node2</title>
<path fill="none" stroke="midnightblue" d="M348.62,-120.37C337.98,-127.49 324.99,-135.93 313,-143 307.52,-146.23 301.45,-149.54 295.87,-152.47"/>
<polygon fill="midnightblue" stroke="midnightblue" points="350.61,-123.25 356.94,-114.75 346.69,-117.45 350.61,-123.25"/>
</g>
<!-- Node3 -->
<g id="node3" class="node">
<title>Node3</title>
<g id="a_node3"><a xlink:href="ssolv_8f.html#a2de8913c214fa083dcb088c57bd45272" target="_top" xlink:title=" ">
<polygon fill="white" stroke="black" points="253,-114.5 253,-133.5 299,-133.5 299,-114.5 253,-114.5"/>
<text text-anchor="middle" x="276" y="-121.5" font-family="Helvetica,sans-Serif" font-size="10.00">gostep</text>
</a>
</g>
</g>
<!-- Node1&#45;&gt;Node3 -->
<g id="edge2" class="edge">
<title>Node1&#45;&gt;Node3</title>
<path fill="none" stroke="midnightblue" d="M338.7,-111.53C325.65,-114.17 310.91,-117.15 299.12,-119.53"/>
<polygon fill="midnightblue" stroke="midnightblue" points="339.61,-114.91 348.72,-109.5 338.23,-108.05 339.61,-114.91"/>
</g>
<!-- Node5 -->
<g id="node5" class="node">
<title>Node5</title>
<g id="a_node5"><a xlink:href="drive1_8f.html#ae177ea7efac97f35241521b782a671c0" target="_top" xlink:title=" ">
<polygon fill="white" stroke="black" points="239,-76.5 239,-95.5 313,-95.5 313,-76.5 239,-76.5"/>
<text text-anchor="middle" x="276" y="-83.5" font-family="Helvetica,sans-Serif" font-size="10.00">nek_advance</text>
</a>
</g>
</g>
<!-- Node1&#45;&gt;Node5 -->
<g id="edge4" class="edge">
<title>Node1&#45;&gt;Node5</title>
<path fill="none" stroke="midnightblue" d="M338.71,-98.47C330.45,-96.8 321.52,-95 313.08,-93.29"/>
<polygon fill="midnightblue" stroke="midnightblue" points="338.23,-101.95 348.72,-100.5 339.61,-95.09 338.23,-101.95"/>
</g>
<!-- Node9 -->
<g id="node8" class="node">
<title>Node9</title>
<g id="a_node8"><a xlink:href="ic_8f.html#acaefa33e86633e4a7a4b28347d4620d1" target="_top" xlink:title=" ">
<polygon fill="white" stroke="black" points="254.5,-38.5 254.5,-57.5 297.5,-57.5 297.5,-38.5 254.5,-38.5"/>
<text text-anchor="middle" x="276" y="-45.5" font-family="Helvetica,sans-Serif" font-size="10.00">setics</text>
</a>
</g>
</g>
<!-- Node1&#45;&gt;Node9 -->
<g id="edge7" class="edge">
<title>Node1&#45;&gt;Node9</title>
<path fill="none" stroke="midnightblue" d="M348.62,-89.63C337.98,-82.51 324.99,-74.07 313,-67 307.52,-63.77 301.45,-60.46 295.87,-57.53"/>
<polygon fill="midnightblue" stroke="midnightblue" points="346.69,-92.55 356.94,-95.25 350.61,-86.75 346.69,-92.55"/>
</g>
<!-- Node4 -->
<g id="node4" class="node">
<title>Node4</title>
<g id="a_node4"><a xlink:href="ssolv_8f.html#a4c61f5b12a3bb1945a465966ba14ff9b" target="_top" xlink:title=" ">
<polygon fill="white" stroke="black" points="124.5,-114.5 124.5,-133.5 175.5,-133.5 175.5,-114.5 124.5,-114.5"/>
<text text-anchor="middle" x="150" y="-121.5" font-family="Helvetica,sans-Serif" font-size="10.00">gonstep</text>
</a>
</g>
</g>
<!-- Node3&#45;&gt;Node4 -->
<g id="edge3" class="edge">
<title>Node3&#45;&gt;Node4</title>
<path fill="none" stroke="midnightblue" d="M242.76,-124C221.76,-124 194.78,-124 175.53,-124"/>
<polygon fill="midnightblue" stroke="midnightblue" points="242.83,-127.5 252.83,-124 242.83,-120.5 242.83,-127.5"/>
</g>
<!-- Node6 -->
<g id="node6" class="node">
<title>Node6</title>
<g id="a_node6"><a xlink:href="drive1_8f.html#a18d3e839786263fc4cf91f7eeb714371" target="_top" xlink:title=" ">
<polygon fill="white" stroke="black" points="97,-76.5 97,-95.5 203,-95.5 203,-76.5 97,-76.5"/>
<text text-anchor="middle" x="150" y="-83.5" font-family="Helvetica,sans-Serif" font-size="10.00">nek__multi_advance</text>
</a>
</g>
</g>
<!-- Node5&#45;&gt;Node6 -->
<g id="edge5" class="edge">
<title>Node5&#45;&gt;Node6</title>
<path fill="none" stroke="midnightblue" d="M228.56,-86C220.27,-86 211.58,-86 203.14,-86"/>
<polygon fill="midnightblue" stroke="midnightblue" points="228.8,-89.5 238.8,-86 228.8,-82.5 228.8,-89.5"/>
</g>
<!-- Node7 -->
<g id="node7" class="node">
<title>Node7</title>
<g id="a_node7"><a xlink:href="drive1_8f.html#a6ad57e0cf728f343e371ef8c9a02cd8a" target="_top" xlink:title=" ">
<polygon fill="white" stroke="red" points="0,-76.5 0,-95.5 61,-95.5 61,-76.5 0,-76.5"/>
<text text-anchor="middle" x="30.5" y="-83.5" font-family="Helvetica,sans-Serif" font-size="10.00">nek_solve</text>
</a>
</g>
</g>
<!-- Node6&#45;&gt;Node7 -->
<g id="edge6" class="edge">
<title>Node6&#45;&gt;Node7</title>
<path fill="none" stroke="midnightblue" d="M86.68,-86C77.74,-86 68.91,-86 61.02,-86"/>
<polygon fill="midnightblue" stroke="midnightblue" points="86.78,-89.5 96.78,-86 86.78,-82.5 86.78,-89.5"/>
</g>
<!-- Node10 -->
<g id="node9" class="node">
<title>Node10</title>
<g id="a_node9"><a xlink:href="postpro_8f.html#ac11e1909dcf07a738bcba7e6cbb4295f" target="_top" xlink:title=" ">
<polygon fill="white" stroke="black" points="125,-38.5 125,-57.5 175,-57.5 175,-38.5 125,-38.5"/>
<text text-anchor="middle" x="150" y="-45.5" font-family="Helvetica,sans-Serif" font-size="10.00">load_fld</text>
</a>
</g>
</g>
<!-- Node9&#45;&gt;Node10 -->
<g id="edge8" class="edge">
<title>Node9&#45;&gt;Node10</title>
<path fill="none" stroke="midnightblue" d="M244.09,-48C222.8,-48 194.91,-48 175.23,-48"/>
<polygon fill="midnightblue" stroke="midnightblue" points="244.25,-51.5 254.25,-48 244.25,-44.5 244.25,-51.5"/>
</g>
<!-- Node11 -->
<g id="node10" class="node">
<title>Node11</title>
<g id="a_node10"><a xlink:href="drive1_8f.html#a83f7c6d78ac4e68394f32533e847d0a3" target="_top" xlink:title=" ">
<polygon fill="white" stroke="red" points="125,-0.5 125,-19.5 175,-19.5 175,-0.5 125,-0.5"/>
<text text-anchor="middle" x="150" y="-7.5" font-family="Helvetica,sans-Serif" font-size="10.00">nek_init</text>
</a>
</g>
</g>
<!-- Node9&#45;&gt;Node11 -->
<g id="edge9" class="edge">
<title>Node9&#45;&gt;Node11</title>
<path fill="none" stroke="midnightblue" d="M244.67,-38.71C223.31,-32.16 195.09,-23.51 175.23,-17.42"/>
<polygon fill="midnightblue" stroke="midnightblue" points="243.66,-42.06 254.25,-41.64 245.71,-35.36 243.66,-42.06"/>
</g>
</g>
</svg>
