<?xml version="1.0" encoding="UTF-8" standalone="no"?>
<!DOCTYPE svg PUBLIC "-//W3C//DTD SVG 1.1//EN"
 "http://www.w3.org/Graphics/SVG/1.1/DTD/svg11.dtd">
<!-- Generated by graphviz version 2.46.0 (0)
 -->
<!-- Title: heat Pages: 1 -->
<svg width="491pt" height="209pt"
 viewBox="0.00 0.00 491.00 208.65" xmlns="http://www.w3.org/2000/svg" xmlns:xlink="http://www.w3.org/1999/xlink">
<g id="graph0" class="graph" transform="scale(1 1) rotate(0) translate(4 204.65)">
<title>heat</title>
<polygon fill="white" stroke="transparent" points="-4,4 -4,-204.65 487,-204.65 487,4 -4,4"/>
<!-- Node1 -->
<g id="node1" class="node">
<title>Node1</title>
<g id="a_node1"><a xlink:title=" ">
<polygon fill="#bfbfbf" stroke="black" points="0,-76.5 0,-95.5 35,-95.5 35,-76.5 0,-76.5"/>
<text text-anchor="middle" x="17.5" y="-83.5" font-family="Helvetica,sans-Serif" font-size="10.00">heat</text>
</a>
</g>
</g>
<!-- Node2 -->
<g id="node2" class="node">
<title>Node2</title>
<g id="a_node2"><a xlink:href="conduct_8f.html#a74a7f053381975ed36df8ea959f3aa01" target="_top" xlink:title=" ">
<polygon fill="white" stroke="red" points="71,-95.5 71,-114.5 116,-114.5 116,-95.5 71,-95.5"/>
<text text-anchor="middle" x="93.5" y="-102.5" font-family="Helvetica,sans-Serif" font-size="10.00">cdscal</text>
</a>
</g>
</g>
<!-- Node1&#45;&gt;Node2 -->
<g id="edge1" class="edge">
<title>Node1&#45;&gt;Node2</title>
<path fill="none" stroke="midnightblue" d="M35.29,-90.31C42.98,-92.28 52.34,-94.69 61.24,-96.97"/>
<polygon fill="midnightblue" stroke="midnightblue" points="60.43,-100.38 70.99,-99.48 62.18,-93.6 60.43,-100.38"/>
</g>
<!-- Node4 -->
<g id="node4" class="node">
<title>Node4</title>
<g id="a_node4"><a xlink:href="comm__mpi_8f.html#af06ec29f06aac3f8809e19de2a7e8946" target="_top" xlink:title=" ">
<polygon fill="white" stroke="red" points="422,-114.5 422,-133.5 483,-133.5 483,-114.5 422,-114.5"/>
<text text-anchor="middle" x="452.5" y="-121.5" font-family="Helvetica,sans-Serif" font-size="10.00">dnekclock</text>
</a>
</g>
</g>
<!-- Node1&#45;&gt;Node4 -->
<g id="edge15" class="edge">
<title>Node1&#45;&gt;Node4</title>
<path fill="none" stroke="midnightblue" d="M25.37,-95.72C45.75,-123.29 108.98,-200 181.5,-200 181.5,-200 181.5,-200 274,-200 324.49,-200 340.36,-202.6 386,-181 405.86,-171.6 424.34,-154.43 436.57,-141.38"/>
<polygon fill="midnightblue" stroke="midnightblue" points="439.22,-143.66 443.33,-133.89 434.03,-138.97 439.22,-143.66"/>
</g>
<!-- Node402 -->
<g id="node9" class="node">
<title>Node402</title>
<g id="a_node9"><a xlink:href="ssolv_8f.html#a46706a53a1b0d4e826ad1a0722616bed" target="_top" xlink:title=" ">
<polygon fill="white" stroke="red" points="71.5,-57.5 71.5,-76.5 115.5,-76.5 115.5,-57.5 71.5,-57.5"/>
<text text-anchor="middle" x="93.5" y="-64.5" font-family="Helvetica,sans-Serif" font-size="10.00">settolt</text>
</a>
</g>
</g>
<!-- Node1&#45;&gt;Node402 -->
<g id="edge16" class="edge">
<title>Node1&#45;&gt;Node402</title>
<path fill="none" stroke="midnightblue" d="M35.29,-81.69C43.04,-79.7 52.49,-77.27 61.46,-74.97"/>
<polygon fill="midnightblue" stroke="midnightblue" points="62.45,-78.33 71.27,-72.45 60.71,-71.55 62.45,-78.33"/>
</g>
<!-- Node234 -->
<g id="node10" class="node">
<title>Node234</title>
<g id="a_node10"><a xlink:href="subs1_8f.html#a8f2e17fa9df4e1df865aa17b294f867c" target="_top" xlink:title=" ">
<polygon fill="white" stroke="red" points="71.5,-19.5 71.5,-38.5 115.5,-38.5 115.5,-19.5 71.5,-19.5"/>
<text text-anchor="middle" x="93.5" y="-26.5" font-family="Helvetica,sans-Serif" font-size="10.00">unorm</text>
</a>
</g>
</g>
<!-- Node1&#45;&gt;Node234 -->
<g id="edge17" class="edge">
<title>Node1&#45;&gt;Node234</title>
<path fill="none" stroke="midnightblue" d="M31.05,-76.33C42.28,-67.68 58.95,-54.84 72.1,-44.72"/>
<polygon fill="midnightblue" stroke="midnightblue" points="74.35,-47.4 80.13,-38.53 70.07,-41.86 74.35,-47.4"/>
</g>
<!-- Node3 -->
<g id="node3" class="node">
<title>Node3</title>
<g id="a_node3"><a xlink:href="math_8f.html#a30b83d516b6ab162d3fafe73e03a3e92" target="_top" xlink:title=" ">
<polygon fill="white" stroke="black" points="340.5,-76.5 340.5,-95.5 378.5,-95.5 378.5,-76.5 340.5,-76.5"/>
<text text-anchor="middle" x="359.5" y="-83.5" font-family="Helvetica,sans-Serif" font-size="10.00">add2</text>
</a>
</g>
</g>
<!-- Node2&#45;&gt;Node3 -->
<g id="edge2" class="edge">
<title>Node2&#45;&gt;Node3</title>
<path fill="none" stroke="midnightblue" d="M116.1,-103.45C163.57,-100.03 276.95,-91.87 330.09,-88.04"/>
<polygon fill="midnightblue" stroke="midnightblue" points="330.46,-91.53 340.18,-87.32 329.95,-84.55 330.46,-91.53"/>
</g>
<!-- Node6 -->
<g id="node5" class="node">
<title>Node6</title>
<g id="a_node5"><a xlink:href="hmholtz_8f.html#aa576b5bd623cce50fd6323db12ba5376" target="_top" xlink:title=" ">
<polygon fill="white" stroke="red" points="249,-114.5 249,-133.5 297,-133.5 297,-114.5 249,-114.5"/>
<text text-anchor="middle" x="273" y="-121.5" font-family="Helvetica,sans-Serif" font-size="10.00">axhelm</text>
</a>
</g>
</g>
<!-- Node2&#45;&gt;Node6 -->
<g id="edge4" class="edge">
<title>Node2&#45;&gt;Node6</title>
<path fill="none" stroke="midnightblue" d="M116.26,-107.33C146.93,-110.61 203.12,-116.63 238.96,-120.46"/>
<polygon fill="midnightblue" stroke="midnightblue" points="238.62,-123.95 248.93,-121.53 239.36,-116.99 238.62,-123.95"/>
</g>
<!-- Node20 -->
<g id="node6" class="node">
<title>Node20</title>
<g id="a_node6"><a xlink:href="bdry_8f.html#a3dd38c124c25cb2d3f603ecfe2c1b3df" target="_top" xlink:title=" ">
<polygon fill="white" stroke="red" points="249,-0.5 249,-19.5 297,-19.5 297,-0.5 249,-0.5"/>
<text text-anchor="middle" x="273" y="-7.5" font-family="Helvetica,sans-Serif" font-size="10.00">bcdirsc</text>
</a>
</g>
</g>
<!-- Node2&#45;&gt;Node20 -->
<g id="edge7" class="edge">
<title>Node2&#45;&gt;Node20</title>
<path fill="none" stroke="midnightblue" d="M106.9,-95.11C110.04,-92.33 113.29,-89.19 116,-86 135.42,-63.18 126.97,-45.48 152,-29 177.7,-12.08 213.09,-8.27 238.77,-8.13"/>
<polygon fill="midnightblue" stroke="midnightblue" points="238.73,-11.63 248.78,-8.25 238.82,-4.63 238.73,-11.63"/>
</g>
<!-- Node28 -->
<g id="node7" class="node">
<title>Node28</title>
<g id="a_node7"><a xlink:href="bdry_8f.html#a8988b35c52124e8bd28cae74f255e98d" target="_top" xlink:title=" ">
<polygon fill="white" stroke="red" points="333,-152.5 333,-171.5 386,-171.5 386,-152.5 333,-152.5"/>
<text text-anchor="middle" x="359.5" y="-159.5" font-family="Helvetica,sans-Serif" font-size="10.00">bcneusc</text>
</a>
</g>
</g>
<!-- Node2&#45;&gt;Node28 -->
<g id="edge10" class="edge">
<title>Node2&#45;&gt;Node28</title>
<path fill="none" stroke="midnightblue" d="M115.15,-114.53C125.94,-119.18 139.47,-124.51 152,-128 210.6,-144.33 280.87,-153.85 322.49,-158.47"/>
<polygon fill="midnightblue" stroke="midnightblue" points="322.36,-161.98 332.68,-159.57 323.11,-155.02 322.36,-161.98"/>
</g>
<!-- Node29 -->
<g id="node8" class="node">
<title>Node29</title>
<g id="a_node8"><a xlink:href="conduct_8f.html#abc0953779481a8cff2666b1d0878c50c" target="_top" xlink:title=" ">
<polygon fill="white" stroke="red" points="152,-38.5 152,-57.5 213,-57.5 213,-38.5 152,-38.5"/>
<text text-anchor="middle" x="182.5" y="-45.5" font-family="Helvetica,sans-Serif" font-size="10.00">cdscal_dg</text>
</a>
</g>
</g>
<!-- Node2&#45;&gt;Node29 -->
<g id="edge12" class="edge">
<title>Node2&#45;&gt;Node29</title>
<path fill="none" stroke="midnightblue" d="M109.26,-95.33C122.71,-86.52 142.81,-73.35 158.39,-63.14"/>
<polygon fill="midnightblue" stroke="midnightblue" points="160.51,-65.93 166.96,-57.53 156.68,-60.08 160.51,-65.93"/>
</g>
<!-- Node3&#45;&gt;Node4 -->
<g id="edge3" class="edge">
<title>Node3&#45;&gt;Node4</title>
<path fill="none" stroke="midnightblue" d="M378.92,-93.69C390.45,-98.51 405.63,-104.85 419.13,-110.48"/>
<polygon fill="midnightblue" stroke="midnightblue" points="418.01,-113.81 428.59,-114.43 420.71,-107.35 418.01,-113.81"/>
</g>
<!-- Node6&#45;&gt;Node3 -->
<g id="edge5" class="edge">
<title>Node6&#45;&gt;Node3</title>
<path fill="none" stroke="midnightblue" d="M295.32,-114.41C306.17,-109.53 319.48,-103.55 331.08,-98.33"/>
<polygon fill="midnightblue" stroke="midnightblue" points="332.65,-101.46 340.33,-94.17 329.78,-95.08 332.65,-101.46"/>
</g>
<!-- Node6&#45;&gt;Node4 -->
<g id="edge6" class="edge">
<title>Node6&#45;&gt;Node4</title>
<path fill="none" stroke="midnightblue" d="M297.21,-124C326.16,-124 376.15,-124 411.36,-124"/>
<polygon fill="midnightblue" stroke="midnightblue" points="411.78,-127.5 421.78,-124 411.78,-120.5 411.78,-127.5"/>
</g>
<!-- Node20&#45;&gt;Node3 -->
<g id="edge8" class="edge">
<title>Node20&#45;&gt;Node3</title>
<path fill="none" stroke="midnightblue" d="M284.7,-19.63C298.67,-32.19 323.33,-54.37 340.27,-69.6"/>
<polygon fill="midnightblue" stroke="midnightblue" points="338.11,-72.37 347.88,-76.45 342.79,-67.16 338.11,-72.37"/>
</g>
<!-- Node20&#45;&gt;Node4 -->
<g id="edge9" class="edge">
<title>Node20&#45;&gt;Node4</title>
<path fill="none" stroke="midnightblue" d="M296.79,-19.61C320.09,-29.88 356.88,-47.36 386,-67 403.63,-78.89 421.73,-94.99 434.41,-107.05"/>
<polygon fill="midnightblue" stroke="midnightblue" points="432.29,-109.86 441.91,-114.3 437.16,-104.83 432.29,-109.86"/>
</g>
<!-- Node28&#45;&gt;Node4 -->
<g id="edge11" class="edge">
<title>Node28&#45;&gt;Node4</title>
<path fill="none" stroke="midnightblue" d="M383.46,-152.41C394.24,-147.91 407.27,-142.47 419.04,-137.56"/>
<polygon fill="midnightblue" stroke="midnightblue" points="420.67,-140.67 428.54,-133.59 417.97,-134.21 420.67,-140.67"/>
</g>
<!-- Node29&#45;&gt;Node3 -->
<g id="edge13" class="edge">
<title>Node29&#45;&gt;Node3</title>
<path fill="none" stroke="midnightblue" d="M213.4,-54.19C236.3,-58.96 268.67,-65.78 297,-72 307.99,-74.41 320.06,-77.14 330.58,-79.55"/>
<polygon fill="midnightblue" stroke="midnightblue" points="329.96,-83 340.49,-81.82 331.52,-76.17 329.96,-83"/>
</g>
<!-- Node29&#45;&gt;Node20 -->
<g id="edge14" class="edge">
<title>Node29&#45;&gt;Node20</title>
<path fill="none" stroke="midnightblue" d="M205.83,-38.41C216.31,-33.91 228.99,-28.47 240.43,-23.56"/>
<polygon fill="midnightblue" stroke="midnightblue" points="241.87,-26.75 249.67,-19.59 239.11,-20.32 241.87,-26.75"/>
</g>
</g>
</svg>
