<?xml version="1.0" encoding="UTF-8" standalone="no"?>
<!DOCTYPE svg PUBLIC "-//W3C//DTD SVG 1.1//EN"
 "http://www.w3.org/Graphics/SVG/1.1/DTD/svg11.dtd">
<!-- Generated by graphviz version 2.46.0 (0)
 -->
<!-- Title: dssum_msk2 Pages: 1 -->
<svg width="275pt" height="246pt"
 viewBox="0.00 0.00 275.00 246.00" xmlns="http://www.w3.org/2000/svg" xmlns:xlink="http://www.w3.org/1999/xlink">
<g id="graph0" class="graph" transform="scale(1 1) rotate(0) translate(4 242)">
<title>dssum_msk2</title>
<polygon fill="white" stroke="transparent" points="-4,4 -4,-242 271,-242 271,4 -4,4"/>
<!-- Node1 -->
<g id="node1" class="node">
<title>Node1</title>
<g id="a_node1"><a xlink:title=" ">
<polygon fill="#bfbfbf" stroke="black" points="0,-76.5 0,-95.5 75,-95.5 75,-76.5 0,-76.5"/>
<text text-anchor="middle" x="37.5" y="-83.5" font-family="Helvetica,sans-Serif" font-size="10.00">dssum_msk2</text>
</a>
</g>
</g>
<!-- Node2 -->
<g id="node2" class="node">
<title>Node2</title>
<g id="a_node2"><a xlink:href="dssum_8f.html#a31a64067a6274e816e2291149e0fbc26" target="_top" xlink:title=" ">
<polygon fill="white" stroke="black" points="117,-161.5 117,-180.5 164,-180.5 164,-161.5 117,-161.5"/>
<text text-anchor="middle" x="140.5" y="-168.5" font-family="Helvetica,sans-Serif" font-size="10.00">apply_j</text>
</a>
</g>
</g>
<!-- Node1&#45;&gt;Node2 -->
<g id="edge1" class="edge">
<title>Node1&#45;&gt;Node2</title>
<path fill="none" stroke="midnightblue" d="M50.09,-95.75C67.21,-110.16 99.48,-137.32 120.21,-154.76"/>
<polygon fill="midnightblue" stroke="midnightblue" points="118.14,-157.6 128.05,-161.36 122.65,-152.25 118.14,-157.6"/>
</g>
<!-- Node9 -->
<g id="node6" class="node">
<title>Node9</title>
<g id="a_node6"><a xlink:href="dssum_8f.html#a9443c1f36d3059401c55b612e5292096" target="_top" xlink:title=" ">
<polygon fill="white" stroke="red" points="115.5,-114.5 115.5,-133.5 165.5,-133.5 165.5,-114.5 115.5,-114.5"/>
<text text-anchor="middle" x="140.5" y="-121.5" font-family="Helvetica,sans-Serif" font-size="10.00">apply_jt</text>
</a>
</g>
</g>
<!-- Node1&#45;&gt;Node9 -->
<g id="edge5" class="edge">
<title>Node1&#45;&gt;Node9</title>
<path fill="none" stroke="midnightblue" d="M63.99,-95.59C76.68,-100.37 92.2,-106.2 105.86,-111.34"/>
<polygon fill="midnightblue" stroke="midnightblue" points="104.82,-114.69 115.41,-114.94 107.29,-108.14 104.82,-114.69"/>
</g>
<!-- Node14 -->
<g id="node8" class="node">
<title>Node14</title>
<g id="a_node8"><a xlink:href="math_8f.html#a0d9af374781723c272547a185cb3da5e" target="_top" xlink:title=" ">
<polygon fill="white" stroke="black" points="123,-76.5 123,-95.5 158,-95.5 158,-76.5 123,-76.5"/>
<text text-anchor="middle" x="140.5" y="-83.5" font-family="Helvetica,sans-Serif" font-size="10.00">col3</text>
</a>
</g>
</g>
<!-- Node1&#45;&gt;Node14 -->
<g id="edge7" class="edge">
<title>Node1&#45;&gt;Node14</title>
<path fill="none" stroke="midnightblue" d="M75.25,-86C87.64,-86 101.24,-86 112.71,-86"/>
<polygon fill="midnightblue" stroke="midnightblue" points="112.96,-89.5 122.96,-86 112.96,-82.5 112.96,-89.5"/>
</g>
<!-- Node15 -->
<g id="node9" class="node">
<title>Node15</title>
<g id="a_node9"><a xlink:href="comm__mpi_8f.html#af06ec29f06aac3f8809e19de2a7e8946" target="_top" xlink:title=" ">
<polygon fill="white" stroke="red" points="206,-66.5 206,-85.5 267,-85.5 267,-66.5 206,-66.5"/>
<text text-anchor="middle" x="236.5" y="-73.5" font-family="Helvetica,sans-Serif" font-size="10.00">dnekclock</text>
</a>
</g>
</g>
<!-- Node1&#45;&gt;Node15 -->
<g id="edge9" class="edge">
<title>Node1&#45;&gt;Node15</title>
<path fill="none" stroke="midnightblue" d="M67.79,-76.5C80.86,-72.73 96.55,-68.86 111,-67 137.01,-63.65 143.84,-65.21 170,-67 178.39,-67.57 187.33,-68.56 195.84,-69.66"/>
<polygon fill="midnightblue" stroke="midnightblue" points="195.53,-73.16 205.92,-71.06 196.49,-66.22 195.53,-73.16"/>
</g>
<!-- Node17 -->
<g id="node10" class="node">
<title>Node17</title>
<g id="a_node10"><a xlink:href="comm__mpi_8f.html#a4acb4d8e379294232e9219bec063d8f3" target="_top" xlink:title=" ">
<polygon fill="white" stroke="red" points="111,-0.5 111,-19.5 170,-19.5 170,-0.5 111,-0.5"/>
<text text-anchor="middle" x="140.5" y="-7.5" font-family="Helvetica,sans-Serif" font-size="10.00">nekgsync</text>
</a>
</g>
</g>
<!-- Node1&#45;&gt;Node17 -->
<g id="edge10" class="edge">
<title>Node1&#45;&gt;Node17</title>
<path fill="none" stroke="midnightblue" d="M51.29,-76.37C68.29,-63.58 98.53,-40.83 118.8,-25.57"/>
<polygon fill="midnightblue" stroke="midnightblue" points="120.93,-28.36 126.81,-19.55 116.72,-22.76 120.93,-28.36"/>
</g>
<!-- Node3 -->
<g id="node3" class="node">
<title>Node3</title>
<g id="a_node3"><a xlink:href="dssum_8f.html#a192f8f2b30754037489f2268d6fab2a2" target="_top" xlink:title=" ">
<polygon fill="white" stroke="red" points="214.5,-218.5 214.5,-237.5 258.5,-237.5 258.5,-218.5 214.5,-218.5"/>
<text text-anchor="middle" x="236.5" y="-225.5" font-family="Helvetica,sans-Serif" font-size="10.00">ftovec</text>
</a>
</g>
</g>
<!-- Node2&#45;&gt;Node3 -->
<g id="edge2" class="edge">
<title>Node2&#45;&gt;Node3</title>
<path fill="none" stroke="midnightblue" d="M157.45,-180.67C172.12,-189.57 194.1,-202.9 211,-213.14"/>
<polygon fill="midnightblue" stroke="midnightblue" points="209.42,-216.28 219.79,-218.47 213.05,-210.3 209.42,-216.28"/>
</g>
<!-- Node5 -->
<g id="node4" class="node">
<title>Node5</title>
<g id="a_node4"><a xlink:href="dssum_8f.html#a6a874ca710334407c7e4e1e45ba3622b" target="_top" xlink:title=" ">
<polygon fill="white" stroke="red" points="209.5,-180.5 209.5,-199.5 263.5,-199.5 263.5,-180.5 209.5,-180.5"/>
<text text-anchor="middle" x="236.5" y="-187.5" font-family="Helvetica,sans-Serif" font-size="10.00">matvec3</text>
</a>
</g>
</g>
<!-- Node2&#45;&gt;Node5 -->
<g id="edge3" class="edge">
<title>Node2&#45;&gt;Node5</title>
<path fill="none" stroke="midnightblue" d="M164.25,-175.6C174.76,-177.72 187.49,-180.3 199.27,-182.68"/>
<polygon fill="midnightblue" stroke="midnightblue" points="198.8,-186.15 209.3,-184.7 200.19,-179.29 198.8,-186.15"/>
</g>
<!-- Node8 -->
<g id="node5" class="node">
<title>Node8</title>
<g id="a_node5"><a xlink:href="dssum_8f.html#aae6bc5b0b8979029573a6a52e83de868" target="_top" xlink:title=" ">
<polygon fill="white" stroke="red" points="214.5,-142.5 214.5,-161.5 258.5,-161.5 258.5,-142.5 214.5,-142.5"/>
<text text-anchor="middle" x="236.5" y="-149.5" font-family="Helvetica,sans-Serif" font-size="10.00">vectof</text>
</a>
</g>
</g>
<!-- Node2&#45;&gt;Node8 -->
<g id="edge4" class="edge">
<title>Node2&#45;&gt;Node8</title>
<path fill="none" stroke="midnightblue" d="M164.25,-166.4C176.26,-163.97 191.17,-160.96 204.24,-158.32"/>
<polygon fill="midnightblue" stroke="midnightblue" points="205.14,-161.71 214.24,-156.3 203.75,-154.85 205.14,-161.71"/>
</g>
<!-- Node10 -->
<g id="node7" class="node">
<title>Node10</title>
<g id="a_node7"><a xlink:href="dssum_8f.html#a83fca26083d2ff2aa1533db6c722224a" target="_top" xlink:title=" ">
<polygon fill="white" stroke="red" points="209.5,-104.5 209.5,-123.5 263.5,-123.5 263.5,-104.5 209.5,-104.5"/>
<text text-anchor="middle" x="236.5" y="-111.5" font-family="Helvetica,sans-Serif" font-size="10.00">ftovec_0</text>
</a>
</g>
</g>
<!-- Node9&#45;&gt;Node10 -->
<g id="edge6" class="edge">
<title>Node9&#45;&gt;Node10</title>
<path fill="none" stroke="midnightblue" d="M165.71,-121.42C175.95,-120.33 188.1,-119.04 199.37,-117.84"/>
<polygon fill="midnightblue" stroke="midnightblue" points="199.82,-121.32 209.4,-116.78 199.08,-114.35 199.82,-121.32"/>
</g>
<!-- Node14&#45;&gt;Node15 -->
<g id="edge8" class="edge">
<title>Node14&#45;&gt;Node15</title>
<path fill="none" stroke="midnightblue" d="M158.31,-84.21C168.72,-83.1 182.57,-81.63 195.66,-80.24"/>
<polygon fill="midnightblue" stroke="midnightblue" points="196.34,-83.69 205.92,-79.15 195.6,-76.72 196.34,-83.69"/>
</g>
</g>
</svg>
