<?xml version="1.0" encoding="UTF-8" standalone="no"?>
<!DOCTYPE svg PUBLIC "-//W3C//DTD SVG 1.1//EN"
 "http://www.w3.org/Graphics/SVG/1.1/DTD/svg11.dtd">
<!-- Generated by graphviz version 2.46.0 (0)
 -->
<!-- Title: dssum_msk Pages: 1 -->
<svg width="270pt" height="246pt"
 viewBox="0.00 0.00 270.00 246.00" xmlns="http://www.w3.org/2000/svg" xmlns:xlink="http://www.w3.org/1999/xlink">
<g id="graph0" class="graph" transform="scale(1 1) rotate(0) translate(4 242)">
<title>dssum_msk</title>
<polygon fill="white" stroke="transparent" points="-4,4 -4,-242 266,-242 266,4 -4,4"/>
<!-- Node1 -->
<g id="node1" class="node">
<title>Node1</title>
<g id="a_node1"><a xlink:title=" ">
<polygon fill="#bfbfbf" stroke="black" points="0,-76.5 0,-95.5 70,-95.5 70,-76.5 0,-76.5"/>
<text text-anchor="middle" x="35" y="-83.5" font-family="Helvetica,sans-Serif" font-size="10.00">dssum_msk</text>
</a>
</g>
</g>
<!-- Node2 -->
<g id="node2" class="node">
<title>Node2</title>
<g id="a_node2"><a xlink:href="dssum_8f.html#a31a64067a6274e816e2291149e0fbc26" target="_top" xlink:title=" ">
<polygon fill="white" stroke="black" points="112,-161.5 112,-180.5 159,-180.5 159,-161.5 112,-161.5"/>
<text text-anchor="middle" x="135.5" y="-168.5" font-family="Helvetica,sans-Serif" font-size="10.00">apply_j</text>
</a>
</g>
</g>
<!-- Node1&#45;&gt;Node2 -->
<g id="edge1" class="edge">
<title>Node1&#45;&gt;Node2</title>
<path fill="none" stroke="midnightblue" d="M47.3,-95.75C64,-110.16 95.47,-137.32 115.69,-154.76"/>
<polygon fill="midnightblue" stroke="midnightblue" points="113.48,-157.48 123.33,-161.36 118.05,-152.18 113.48,-157.48"/>
</g>
<!-- Node9 -->
<g id="node6" class="node">
<title>Node9</title>
<g id="a_node6"><a xlink:href="dssum_8f.html#a9443c1f36d3059401c55b612e5292096" target="_top" xlink:title=" ">
<polygon fill="white" stroke="red" points="110.5,-114.5 110.5,-133.5 160.5,-133.5 160.5,-114.5 110.5,-114.5"/>
<text text-anchor="middle" x="135.5" y="-121.5" font-family="Helvetica,sans-Serif" font-size="10.00">apply_jt</text>
</a>
</g>
</g>
<!-- Node1&#45;&gt;Node9 -->
<g id="edge5" class="edge">
<title>Node1&#45;&gt;Node9</title>
<path fill="none" stroke="midnightblue" d="M60.86,-95.59C72.94,-100.25 87.64,-105.92 100.72,-110.97"/>
<polygon fill="midnightblue" stroke="midnightblue" points="99.74,-114.34 110.33,-114.68 102.26,-107.81 99.74,-114.34"/>
</g>
<!-- Node14 -->
<g id="node8" class="node">
<title>Node14</title>
<g id="a_node8"><a xlink:href="math_8f.html#a3470db04166d9ba91454a14cc17dbec2" target="_top" xlink:title=" ">
<polygon fill="white" stroke="black" points="118,-76.5 118,-95.5 153,-95.5 153,-76.5 118,-76.5"/>
<text text-anchor="middle" x="135.5" y="-83.5" font-family="Helvetica,sans-Serif" font-size="10.00">col2</text>
</a>
</g>
</g>
<!-- Node1&#45;&gt;Node14 -->
<g id="edge7" class="edge">
<title>Node1&#45;&gt;Node14</title>
<path fill="none" stroke="midnightblue" d="M70.17,-86C82.39,-86 95.96,-86 107.49,-86"/>
<polygon fill="midnightblue" stroke="midnightblue" points="107.8,-89.5 117.8,-86 107.8,-82.5 107.8,-89.5"/>
</g>
<!-- Node15 -->
<g id="node9" class="node">
<title>Node15</title>
<g id="a_node9"><a xlink:href="comm__mpi_8f.html#af06ec29f06aac3f8809e19de2a7e8946" target="_top" xlink:title=" ">
<polygon fill="white" stroke="red" points="201,-66.5 201,-85.5 262,-85.5 262,-66.5 201,-66.5"/>
<text text-anchor="middle" x="231.5" y="-73.5" font-family="Helvetica,sans-Serif" font-size="10.00">dnekclock</text>
</a>
</g>
</g>
<!-- Node1&#45;&gt;Node15 -->
<g id="edge9" class="edge">
<title>Node1&#45;&gt;Node15</title>
<path fill="none" stroke="midnightblue" d="M64.26,-76.5C76.87,-72.73 92.02,-68.86 106,-67 134.29,-63.23 166.42,-65.72 190.95,-69.03"/>
<polygon fill="midnightblue" stroke="midnightblue" points="190.57,-72.51 200.97,-70.48 191.57,-65.58 190.57,-72.51"/>
</g>
<!-- Node17 -->
<g id="node10" class="node">
<title>Node17</title>
<g id="a_node10"><a xlink:href="comm__mpi_8f.html#a4acb4d8e379294232e9219bec063d8f3" target="_top" xlink:title=" ">
<polygon fill="white" stroke="red" points="106,-0.5 106,-19.5 165,-19.5 165,-0.5 106,-0.5"/>
<text text-anchor="middle" x="135.5" y="-7.5" font-family="Helvetica,sans-Serif" font-size="10.00">nekgsync</text>
</a>
</g>
</g>
<!-- Node1&#45;&gt;Node17 -->
<g id="edge10" class="edge">
<title>Node1&#45;&gt;Node17</title>
<path fill="none" stroke="midnightblue" d="M48.48,-76.37C64.98,-63.64 94.29,-41.03 114.05,-25.78"/>
<polygon fill="midnightblue" stroke="midnightblue" points="116.35,-28.43 122.13,-19.55 112.07,-22.89 116.35,-28.43"/>
</g>
<!-- Node3 -->
<g id="node3" class="node">
<title>Node3</title>
<g id="a_node3"><a xlink:href="dssum_8f.html#a192f8f2b30754037489f2268d6fab2a2" target="_top" xlink:title=" ">
<polygon fill="white" stroke="red" points="209.5,-218.5 209.5,-237.5 253.5,-237.5 253.5,-218.5 209.5,-218.5"/>
<text text-anchor="middle" x="231.5" y="-225.5" font-family="Helvetica,sans-Serif" font-size="10.00">ftovec</text>
</a>
</g>
</g>
<!-- Node2&#45;&gt;Node3 -->
<g id="edge2" class="edge">
<title>Node2&#45;&gt;Node3</title>
<path fill="none" stroke="midnightblue" d="M152.45,-180.67C167.12,-189.57 189.1,-202.9 206,-213.14"/>
<polygon fill="midnightblue" stroke="midnightblue" points="204.42,-216.28 214.79,-218.47 208.05,-210.3 204.42,-216.28"/>
</g>
<!-- Node5 -->
<g id="node4" class="node">
<title>Node5</title>
<g id="a_node4"><a xlink:href="dssum_8f.html#a6a874ca710334407c7e4e1e45ba3622b" target="_top" xlink:title=" ">
<polygon fill="white" stroke="red" points="204.5,-180.5 204.5,-199.5 258.5,-199.5 258.5,-180.5 204.5,-180.5"/>
<text text-anchor="middle" x="231.5" y="-187.5" font-family="Helvetica,sans-Serif" font-size="10.00">matvec3</text>
</a>
</g>
</g>
<!-- Node2&#45;&gt;Node5 -->
<g id="edge3" class="edge">
<title>Node2&#45;&gt;Node5</title>
<path fill="none" stroke="midnightblue" d="M159.25,-175.6C169.76,-177.72 182.49,-180.3 194.27,-182.68"/>
<polygon fill="midnightblue" stroke="midnightblue" points="193.8,-186.15 204.3,-184.7 195.19,-179.29 193.8,-186.15"/>
</g>
<!-- Node8 -->
<g id="node5" class="node">
<title>Node8</title>
<g id="a_node5"><a xlink:href="dssum_8f.html#aae6bc5b0b8979029573a6a52e83de868" target="_top" xlink:title=" ">
<polygon fill="white" stroke="red" points="209.5,-142.5 209.5,-161.5 253.5,-161.5 253.5,-142.5 209.5,-142.5"/>
<text text-anchor="middle" x="231.5" y="-149.5" font-family="Helvetica,sans-Serif" font-size="10.00">vectof</text>
</a>
</g>
</g>
<!-- Node2&#45;&gt;Node8 -->
<g id="edge4" class="edge">
<title>Node2&#45;&gt;Node8</title>
<path fill="none" stroke="midnightblue" d="M159.25,-166.4C171.26,-163.97 186.17,-160.96 199.24,-158.32"/>
<polygon fill="midnightblue" stroke="midnightblue" points="200.14,-161.71 209.24,-156.3 198.75,-154.85 200.14,-161.71"/>
</g>
<!-- Node10 -->
<g id="node7" class="node">
<title>Node10</title>
<g id="a_node7"><a xlink:href="dssum_8f.html#a83fca26083d2ff2aa1533db6c722224a" target="_top" xlink:title=" ">
<polygon fill="white" stroke="red" points="204.5,-104.5 204.5,-123.5 258.5,-123.5 258.5,-104.5 204.5,-104.5"/>
<text text-anchor="middle" x="231.5" y="-111.5" font-family="Helvetica,sans-Serif" font-size="10.00">ftovec_0</text>
</a>
</g>
</g>
<!-- Node9&#45;&gt;Node10 -->
<g id="edge6" class="edge">
<title>Node9&#45;&gt;Node10</title>
<path fill="none" stroke="midnightblue" d="M160.71,-121.42C170.95,-120.33 183.1,-119.04 194.37,-117.84"/>
<polygon fill="midnightblue" stroke="midnightblue" points="194.82,-121.32 204.4,-116.78 194.08,-114.35 194.82,-121.32"/>
</g>
<!-- Node14&#45;&gt;Node15 -->
<g id="edge8" class="edge">
<title>Node14&#45;&gt;Node15</title>
<path fill="none" stroke="midnightblue" d="M153.31,-84.21C163.72,-83.1 177.57,-81.63 190.66,-80.24"/>
<polygon fill="midnightblue" stroke="midnightblue" points="191.34,-83.69 200.92,-79.15 190.6,-76.72 191.34,-83.69"/>
</g>
</g>
</svg>
