<?xml version="1.0" encoding="UTF-8" standalone="no"?>
<!DOCTYPE svg PUBLIC "-//W3C//DTD SVG 1.1//EN"
 "http://www.w3.org/Graphics/SVG/1.1/DTD/svg11.dtd">
<!-- Generated by graphviz version 2.46.0 (0)
 -->
<!-- Title: dsygs2 Pages: 1 -->
<svg width="214pt" height="218pt"
 viewBox="0.00 0.00 214.00 218.00" xmlns="http://www.w3.org/2000/svg" xmlns:xlink="http://www.w3.org/1999/xlink">
<g id="graph0" class="graph" transform="scale(1 1) rotate(0) translate(4 214)">
<title>dsygs2</title>
<polygon fill="white" stroke="transparent" points="-4,4 -4,-214 210,-214 210,4 -4,4"/>
<!-- Node1 -->
<g id="node1" class="node">
<title>Node1</title>
<g id="a_node1"><a xlink:title=" ">
<polygon fill="#bfbfbf" stroke="black" points="0,-95.5 0,-114.5 48,-114.5 48,-95.5 0,-95.5"/>
<text text-anchor="middle" x="24" y="-102.5" font-family="Helvetica,sans-Serif" font-size="10.00">dsygs2</text>
</a>
</g>
</g>
<!-- Node2 -->
<g id="node2" class="node">
<title>Node2</title>
<g id="a_node2"><a xlink:href="daxpy_8f.html#adb136e14634fe4b772a0b034f52f3939" target="_top" xlink:title=" ">
<polygon fill="white" stroke="black" points="84,-190.5 84,-209.5 127,-209.5 127,-190.5 84,-190.5"/>
<text text-anchor="middle" x="105.5" y="-197.5" font-family="Helvetica,sans-Serif" font-size="10.00">daxpy</text>
</a>
</g>
</g>
<!-- Node1&#45;&gt;Node2 -->
<g id="edge1" class="edge">
<title>Node1&#45;&gt;Node2</title>
<path fill="none" stroke="midnightblue" d="M31.79,-114.76C42.31,-129.63 63.46,-158.59 84,-181 84.63,-181.69 85.28,-182.38 85.95,-183.07"/>
<polygon fill="midnightblue" stroke="midnightblue" points="83.72,-185.79 93.33,-190.26 88.61,-180.78 83.72,-185.79"/>
</g>
<!-- Node3 -->
<g id="node3" class="node">
<title>Node3</title>
<g id="a_node3"><a xlink:href="dscal_8f.html#a0590f8db475e11dc2c9137bb13887acf" target="_top" xlink:title=" ">
<polygon fill="white" stroke="black" points="85.5,-152.5 85.5,-171.5 125.5,-171.5 125.5,-152.5 85.5,-152.5"/>
<text text-anchor="middle" x="105.5" y="-159.5" font-family="Helvetica,sans-Serif" font-size="10.00">dscal</text>
</a>
</g>
</g>
<!-- Node1&#45;&gt;Node3 -->
<g id="edge2" class="edge">
<title>Node1&#45;&gt;Node3</title>
<path fill="none" stroke="midnightblue" d="M38.49,-114.67C50.67,-123.4 68.8,-136.4 82.98,-146.57"/>
<polygon fill="midnightblue" stroke="midnightblue" points="81.05,-149.49 91.21,-152.47 85.13,-143.8 81.05,-149.49"/>
</g>
<!-- Node4 -->
<g id="node4" class="node">
<title>Node4</title>
<g id="a_node4"><a xlink:href="dsyr2_8f.html#ae96880c53b8eaee70bbef273b905715f" target="_top" xlink:title=" ">
<polygon fill="white" stroke="black" points="85,-114.5 85,-133.5 126,-133.5 126,-114.5 85,-114.5"/>
<text text-anchor="middle" x="105.5" y="-121.5" font-family="Helvetica,sans-Serif" font-size="10.00">dsyr2</text>
</a>
</g>
</g>
<!-- Node1&#45;&gt;Node4 -->
<g id="edge3" class="edge">
<title>Node1&#45;&gt;Node4</title>
<path fill="none" stroke="midnightblue" d="M48.42,-110.6C56.78,-112.6 66.31,-114.87 75.11,-116.98"/>
<polygon fill="midnightblue" stroke="midnightblue" points="74.46,-120.42 84.99,-119.34 76.08,-113.61 74.46,-120.42"/>
</g>
<!-- Node5 -->
<g id="node5" class="node">
<title>Node5</title>
<g id="a_node5"><a xlink:href="xerbla_8f.html#a377ee61015baf8dea7770b3a404b1c07" target="_top" xlink:title=" ">
<polygon fill="white" stroke="black" points="163,-57.5 163,-76.5 206,-76.5 206,-57.5 163,-57.5"/>
<text text-anchor="middle" x="184.5" y="-64.5" font-family="Helvetica,sans-Serif" font-size="10.00">xerbla</text>
</a>
</g>
</g>
<!-- Node1&#45;&gt;Node5 -->
<g id="edge9" class="edge">
<title>Node1&#45;&gt;Node5</title>
<path fill="none" stroke="midnightblue" d="M48.05,-99.47C75.82,-92.82 122.56,-81.61 153.22,-74.26"/>
<polygon fill="midnightblue" stroke="midnightblue" points="154.04,-77.66 162.95,-71.93 152.41,-70.86 154.04,-77.66"/>
</g>
<!-- Node6 -->
<g id="node6" class="node">
<title>Node6</title>
<g id="a_node6"><a xlink:href="dtrmv_8f.html#a596c2acd9f81df6608bd5ed97e193897" target="_top" xlink:title=" ">
<polygon fill="white" stroke="black" points="85,-38.5 85,-57.5 126,-57.5 126,-38.5 85,-38.5"/>
<text text-anchor="middle" x="105.5" y="-45.5" font-family="Helvetica,sans-Serif" font-size="10.00">dtrmv</text>
</a>
</g>
</g>
<!-- Node1&#45;&gt;Node6 -->
<g id="edge5" class="edge">
<title>Node1&#45;&gt;Node6</title>
<path fill="none" stroke="midnightblue" d="M38.49,-95.33C50.67,-86.6 68.8,-73.6 82.98,-63.43"/>
<polygon fill="midnightblue" stroke="midnightblue" points="85.13,-66.2 91.21,-57.53 81.05,-60.51 85.13,-66.2"/>
</g>
<!-- Node7 -->
<g id="node7" class="node">
<title>Node7</title>
<g id="a_node7"><a xlink:href="dtrsv_8f.html#ad2a01dd62718b28e35b752dbad8474ab" target="_top" xlink:title=" ">
<polygon fill="white" stroke="black" points="86.5,-0.5 86.5,-19.5 124.5,-19.5 124.5,-0.5 86.5,-0.5"/>
<text text-anchor="middle" x="105.5" y="-7.5" font-family="Helvetica,sans-Serif" font-size="10.00">dtrsv</text>
</a>
</g>
</g>
<!-- Node1&#45;&gt;Node7 -->
<g id="edge7" class="edge">
<title>Node1&#45;&gt;Node7</title>
<path fill="none" stroke="midnightblue" d="M31.79,-95.24C42.31,-80.37 63.46,-51.41 84,-29 84.63,-28.31 85.28,-27.62 85.95,-26.93"/>
<polygon fill="midnightblue" stroke="midnightblue" points="88.61,-29.22 93.33,-19.74 83.72,-24.21 88.61,-29.22"/>
</g>
<!-- Node4&#45;&gt;Node5 -->
<g id="edge4" class="edge">
<title>Node4&#45;&gt;Node5</title>
<path fill="none" stroke="midnightblue" d="M119.56,-114.33C131.25,-105.68 148.59,-92.84 162.27,-82.72"/>
<polygon fill="midnightblue" stroke="midnightblue" points="164.68,-85.29 170.63,-76.53 160.51,-79.66 164.68,-85.29"/>
</g>
<!-- Node6&#45;&gt;Node5 -->
<g id="edge6" class="edge">
<title>Node6&#45;&gt;Node5</title>
<path fill="none" stroke="midnightblue" d="M126.33,-52.89C134.49,-54.91 144.12,-57.28 153.13,-59.51"/>
<polygon fill="midnightblue" stroke="midnightblue" points="152.38,-62.93 162.93,-61.92 154.06,-56.13 152.38,-62.93"/>
</g>
<!-- Node7&#45;&gt;Node5 -->
<g id="edge8" class="edge">
<title>Node7&#45;&gt;Node5</title>
<path fill="none" stroke="midnightblue" d="M119.56,-19.67C131.25,-28.32 148.59,-41.16 162.27,-51.28"/>
<polygon fill="midnightblue" stroke="midnightblue" points="160.51,-54.34 170.63,-57.47 164.68,-48.71 160.51,-54.34"/>
</g>
</g>
</svg>
