<?xml version="1.0" encoding="UTF-8" standalone="no"?>
<!DOCTYPE svg PUBLIC "-//W3C//DTD SVG 1.1//EN"
 "http://www.w3.org/Graphics/SVG/1.1/DTD/svg11.dtd">
<!-- Generated by graphviz version 2.46.0 (0)
 -->
<!-- Title: dsymv Pages: 1 -->
<svg width="623pt" height="104pt"
 viewBox="0.00 0.00 623.00 104.00" xmlns="http://www.w3.org/2000/svg" xmlns:xlink="http://www.w3.org/1999/xlink">
<g id="graph0" class="graph" transform="scale(1 1) rotate(0) translate(4 100)">
<title>dsymv</title>
<polygon fill="white" stroke="transparent" points="-4,4 -4,-100 619,-100 619,4 -4,4"/>
<!-- Node1 -->
<g id="node1" class="node">
<title>Node1</title>
<g id="a_node1"><a xlink:title=" ">
<polygon fill="#bfbfbf" stroke="black" points="569,-38.5 569,-57.5 615,-57.5 615,-38.5 569,-38.5"/>
<text text-anchor="middle" x="592" y="-45.5" font-family="Helvetica,sans-Serif" font-size="10.00">dsymv</text>
</a>
</g>
</g>
<!-- Node2 -->
<g id="node2" class="node">
<title>Node2</title>
<g id="a_node2"><a xlink:href="dlatrd_8f.html#a331dd66010736c74b3e4b219b06cf11b" target="_top" xlink:title=" ">
<polygon fill="white" stroke="black" points="489.5,-76.5 489.5,-95.5 530.5,-95.5 530.5,-76.5 489.5,-76.5"/>
<text text-anchor="middle" x="510" y="-83.5" font-family="Helvetica,sans-Serif" font-size="10.00">dlatrd</text>
</a>
</g>
</g>
<!-- Node1&#45;&gt;Node2 -->
<g id="edge1" class="edge">
<title>Node1&#45;&gt;Node2</title>
<path fill="none" stroke="midnightblue" d="M561.69,-61.92C551.35,-66.83 539.98,-72.24 530.63,-76.68"/>
<polygon fill="midnightblue" stroke="midnightblue" points="563.28,-65.04 570.81,-57.59 560.28,-58.72 563.28,-65.04"/>
</g>
<!-- Node89 -->
<g id="node9" class="node">
<title>Node89</title>
<g id="a_node9"><a xlink:href="dsyrfs_8f.html#ad62575e82d54e086a0797a1af1b52e85" target="_top" xlink:title=" ">
<polygon fill="white" stroke="black" points="488,-38.5 488,-57.5 532,-57.5 532,-38.5 488,-38.5"/>
<text text-anchor="middle" x="510" y="-45.5" font-family="Helvetica,sans-Serif" font-size="10.00">dsyrfs</text>
</a>
</g>
</g>
<!-- Node1&#45;&gt;Node89 -->
<g id="edge8" class="edge">
<title>Node1&#45;&gt;Node89</title>
<path fill="none" stroke="midnightblue" d="M558.58,-48C549.64,-48 540.18,-48 532.06,-48"/>
<polygon fill="midnightblue" stroke="midnightblue" points="558.72,-51.5 568.72,-48 558.72,-44.5 558.72,-51.5"/>
</g>
<!-- Node90 -->
<g id="node10" class="node">
<title>Node90</title>
<g id="a_node10"><a xlink:href="dsytd2_8f.html#a5ce2d4703eeccf51cc89171b375c796f" target="_top" xlink:title=" ">
<polygon fill="white" stroke="black" points="487,-0.5 487,-19.5 533,-19.5 533,-0.5 487,-0.5"/>
<text text-anchor="middle" x="510" y="-7.5" font-family="Helvetica,sans-Serif" font-size="10.00">dsytd2</text>
</a>
</g>
</g>
<!-- Node1&#45;&gt;Node90 -->
<g id="edge9" class="edge">
<title>Node1&#45;&gt;Node90</title>
<path fill="none" stroke="midnightblue" d="M561.52,-34C551.43,-29.2 540.37,-23.95 531.18,-19.59"/>
<polygon fill="midnightblue" stroke="midnightblue" points="560.28,-37.28 570.81,-38.41 563.28,-30.96 560.28,-37.28"/>
</g>
<!-- Node3 -->
<g id="node3" class="node">
<title>Node3</title>
<g id="a_node3"><a xlink:href="dsytrd_8f.html#aefcd0b153f8e0c36b510af4364a12cd2" target="_top" xlink:title=" ">
<polygon fill="white" stroke="black" points="407,-38.5 407,-57.5 451,-57.5 451,-38.5 407,-38.5"/>
<text text-anchor="middle" x="429" y="-45.5" font-family="Helvetica,sans-Serif" font-size="10.00">dsytrd</text>
</a>
</g>
</g>
<!-- Node2&#45;&gt;Node3 -->
<g id="edge2" class="edge">
<title>Node2&#45;&gt;Node3</title>
<path fill="none" stroke="midnightblue" d="M480.21,-72.15C470.13,-67.3 459.04,-61.97 449.85,-57.55"/>
<polygon fill="midnightblue" stroke="midnightblue" points="478.94,-75.43 489.47,-76.61 481.98,-69.12 478.94,-75.43"/>
</g>
<!-- Node4 -->
<g id="node4" class="node">
<title>Node4</title>
<g id="a_node4"><a xlink:href="dsyev_8f.html#a442c43fca5493590f8f26cf42fed4044" target="_top" xlink:title=" ">
<polygon fill="white" stroke="black" points="328,-38.5 328,-57.5 371,-57.5 371,-38.5 328,-38.5"/>
<text text-anchor="middle" x="349.5" y="-45.5" font-family="Helvetica,sans-Serif" font-size="10.00">dsyev</text>
</a>
</g>
</g>
<!-- Node3&#45;&gt;Node4 -->
<g id="edge3" class="edge">
<title>Node3&#45;&gt;Node4</title>
<path fill="none" stroke="midnightblue" d="M396.69,-48C388.08,-48 378.96,-48 371.12,-48"/>
<polygon fill="midnightblue" stroke="midnightblue" points="396.82,-51.5 406.82,-48 396.82,-44.5 396.82,-51.5"/>
</g>
<!-- Node5 -->
<g id="node5" class="node">
<title>Node5</title>
<g id="a_node5"><a xlink:href="dsygv_8f.html#a007d33bcdcc697e17c6d15432f159b73" target="_top" xlink:title=" ">
<polygon fill="white" stroke="black" points="249,-38.5 249,-57.5 292,-57.5 292,-38.5 249,-38.5"/>
<text text-anchor="middle" x="270.5" y="-45.5" font-family="Helvetica,sans-Serif" font-size="10.00">dsygv</text>
</a>
</g>
</g>
<!-- Node4&#45;&gt;Node5 -->
<g id="edge4" class="edge">
<title>Node4&#45;&gt;Node5</title>
<path fill="none" stroke="midnightblue" d="M317.77,-48C309.18,-48 300.05,-48 292.19,-48"/>
<polygon fill="midnightblue" stroke="midnightblue" points="317.87,-51.5 327.87,-48 317.87,-44.5 317.87,-51.5"/>
</g>
<!-- Node6 -->
<g id="node6" class="node">
<title>Node6</title>
<g id="a_node6"><a xlink:href="hmholtz_8f.html#a5a846560cdbe979f8cf9a71599a7f460" target="_top" xlink:title=" ">
<polygon fill="white" stroke="red" points="154,-38.5 154,-57.5 213,-57.5 213,-38.5 154,-38.5"/>
<text text-anchor="middle" x="183.5" y="-45.5" font-family="Helvetica,sans-Serif" font-size="10.00">generalev</text>
</a>
</g>
</g>
<!-- Node5&#45;&gt;Node6 -->
<g id="edge5" class="edge">
<title>Node5&#45;&gt;Node6</title>
<path fill="none" stroke="midnightblue" d="M238.82,-48C230.47,-48 221.47,-48 213.24,-48"/>
<polygon fill="midnightblue" stroke="midnightblue" points="238.92,-51.5 248.92,-48 238.92,-44.5 238.92,-51.5"/>
</g>
<!-- Node7 -->
<g id="node7" class="node">
<title>Node7</title>
<g id="a_node7"><a xlink:href="hsmg_8f.html#a57c4906700aca571f060a547363b280f" target="_top" xlink:title=" ">
<polygon fill="white" stroke="red" points="8,-57.5 8,-76.5 110,-76.5 110,-57.5 8,-57.5"/>
<text text-anchor="middle" x="59" y="-64.5" font-family="Helvetica,sans-Serif" font-size="10.00">hsmg_setup_fast1d</text>
</a>
</g>
</g>
<!-- Node6&#45;&gt;Node7 -->
<g id="edge6" class="edge">
<title>Node6&#45;&gt;Node7</title>
<path fill="none" stroke="midnightblue" d="M143.89,-53.99C133.18,-55.65 121.4,-57.48 110.13,-59.22"/>
<polygon fill="midnightblue" stroke="midnightblue" points="144.43,-57.45 153.78,-52.45 143.36,-50.53 144.43,-57.45"/>
</g>
<!-- Node17 -->
<g id="node8" class="node">
<title>Node17</title>
<g id="a_node8"><a xlink:href="hmholtz_8f.html#abd6f3614f9436265a22e0d5354f18926" target="_top" xlink:title=" ">
<polygon fill="white" stroke="red" points="0,-19.5 0,-38.5 118,-38.5 118,-19.5 0,-19.5"/>
<text text-anchor="middle" x="59" y="-26.5" font-family="Helvetica,sans-Serif" font-size="10.00">set_fdm_prec_h1a_gen</text>
</a>
</g>
</g>
<!-- Node6&#45;&gt;Node17 -->
<g id="edge7" class="edge">
<title>Node6&#45;&gt;Node17</title>
<path fill="none" stroke="midnightblue" d="M143.63,-41.97C135.6,-40.73 126.99,-39.39 118.44,-38.06"/>
<polygon fill="midnightblue" stroke="midnightblue" points="143.36,-45.47 153.78,-43.55 144.43,-38.55 143.36,-45.47"/>
</g>
<!-- Node90&#45;&gt;Node3 -->
<g id="edge10" class="edge">
<title>Node90&#45;&gt;Node3</title>
<path fill="none" stroke="midnightblue" d="M479.89,-24C469.92,-28.8 459,-34.05 449.93,-38.41"/>
<polygon fill="midnightblue" stroke="midnightblue" points="481.57,-27.08 489.06,-19.59 478.54,-20.77 481.57,-27.08"/>
</g>
</g>
</svg>
