<?xml version="1.0" encoding="UTF-8" standalone="no"?>
<!DOCTYPE svg PUBLIC "-//W3C//DTD SVG 1.1//EN"
 "http://www.w3.org/Graphics/SVG/1.1/DTD/svg11.dtd">
<!-- Generated by graphviz version 2.46.0 (0)
 -->
<!-- Title: dsyr2 Pages: 1 -->
<!--zoomable 66 -->
<svg id="main" version="1.1" xmlns="http://www.w3.org/2000/svg" xmlns:xlink="http://www.w3.org/1999/xlink" xml:space="preserve" onload="init(evt)">
<style type="text/css"><![CDATA[
.edge:hover path { stroke: red; }
.edge:hover polygon { stroke: red; fill: red; }
]]></style>
<script type="text/javascript"><![CDATA[
var edges = document.getElementsByTagName('g');
if (edges && edges.length) {
  for (var i=0;i<edges.length;i++) {
    if (edges[i].id.substr(0,4)=='edge') {
      edges[i].setAttribute('class','edge');
    }
  }
}
]]></script>
        <defs>
                <circle id="rim" cx="0" cy="0" r="7"/>
                <circle id="rim2" cx="0" cy="0" r="3.5"/>
                <g id="zoomPlus">
                        <use xlink:href="#rim" fill="#404040">
                                <set attributeName="fill" to="#808080" begin="zoomplus.mouseover" end="zoomplus.mouseout"/>
                        </use>
                        <path d="M-4,0h8M0,-4v8" fill="none" stroke="white" stroke-width="1.5" pointer-events="none"/>
                </g>
                <g id="zoomMin">
                        <use xlink:href="#rim" fill="#404040">
                                <set attributeName="fill" to="#808080" begin="zoomminus.mouseover" end="zoomminus.mouseout"/>
                        </use>
                        <path d="M-4,0h8" fill="none" stroke="white" stroke-width="1.5" pointer-events="none"/>
                </g>
                <g id="dirArrow">
                        <path fill="none" stroke="white" stroke-width="1.5" d="M0,-3.0v7 M-2.5,-0.5L0,-3.0L2.5,-0.5"/>
                </g>
               <g id="resetDef">
                       <use xlink:href="#rim2" fill="#404040">
                               <set attributeName="fill" to="#808080" begin="reset.mouseover" end="reset.mouseout"/>
                       </use>
               </g>
        </defs>

<script type="text/javascript">
var viewWidth = 623;
var viewHeight = 66;
var sectionId = 'dynsection-1';
</script>
<script xlink:href="svgpan.js"/>
<svg id="graph" class="graph">
<g id="viewport">
<title>dsyr2</title>
<polygon fill="white" stroke="transparent" points="-4,4 -4,-62 619,-62 619,4 -4,4"/>
<!-- Node1 -->
<g id="node1" class="node">
<title>Node1</title>
<g id="a_node1"><a xlink:title=" ">
<polygon fill="#bfbfbf" stroke="black" points="574,-19.5 574,-38.5 615,-38.5 615,-19.5 574,-19.5"/>
<text text-anchor="middle" x="594.5" y="-26.5" font-family="Helvetica,sans-Serif" font-size="10.00">dsyr2</text>
</a>
</g>
</g>
<!-- Node2 -->
<g id="node2" class="node">
<title>Node2</title>
<g id="a_node2"><a xlink:href="dsygs2_8f.html#a4ac61c8e385266015e852e25c060cdb0" target="_top" xlink:title=" ">
<polygon fill="white" stroke="black" points="490,-38.5 490,-57.5 538,-57.5 538,-38.5 490,-38.5"/>
<text text-anchor="middle" x="514" y="-45.5" font-family="Helvetica,sans-Serif" font-size="10.00">dsygs2</text>
</a>
</g>
</g>
<!-- Node1&#45;&gt;Node2 -->
<g id="edge1" class="edge">
<title>Node1&#45;&gt;Node2</title>
<path fill="none" stroke="midnightblue" d="M563.77,-36.2C555.29,-38.25 546.18,-40.45 538.15,-42.4"/>
<polygon fill="midnightblue" stroke="midnightblue" points="564.8,-39.55 573.69,-33.79 563.15,-32.75 564.8,-39.55"/>
</g>
<!-- Node88 -->
<g id="node8" class="node">
<title>Node88</title>
<g id="a_node8"><a xlink:href="dsytd2_8f.html#a5ce2d4703eeccf51cc89171b375c796f" target="_top" xlink:title=" ">
<polygon fill="white" stroke="black" points="491,-0.5 491,-19.5 537,-19.5 537,-0.5 491,-0.5"/>
<text text-anchor="middle" x="514" y="-7.5" font-family="Helvetica,sans-Serif" font-size="10.00">dsytd2</text>
</a>
</g>
</g>
<!-- Node1&#45;&gt;Node88 -->
<g id="edge7" class="edge">
<title>Node1&#45;&gt;Node88</title>
<path fill="none" stroke="midnightblue" d="M563.71,-21.79C554.85,-19.64 545.29,-17.33 537.02,-15.33"/>
<polygon fill="midnightblue" stroke="midnightblue" points="563.15,-25.25 573.69,-24.21 564.8,-18.45 563.15,-25.25"/>
</g>
<!-- Node3 -->
<g id="node3" class="node">
<title>Node3</title>
<g id="a_node3"><a xlink:href="dsygst_8f.html#a2de4dd06c6513d1a9b7776e32a1295c7" target="_top" xlink:title=" ">
<polygon fill="white" stroke="black" points="328,-38.5 328,-57.5 374,-57.5 374,-38.5 328,-38.5"/>
<text text-anchor="middle" x="351" y="-45.5" font-family="Helvetica,sans-Serif" font-size="10.00">dsygst</text>
</a>
</g>
</g>
<!-- Node2&#45;&gt;Node3 -->
<g id="edge2" class="edge">
<title>Node2&#45;&gt;Node3</title>
<path fill="none" stroke="midnightblue" d="M479.85,-48C448.27,-48 401.6,-48 374.25,-48"/>
<polygon fill="midnightblue" stroke="midnightblue" points="479.93,-51.5 489.93,-48 479.93,-44.5 479.93,-51.5"/>
</g>
<!-- Node4 -->
<g id="node4" class="node">
<title>Node4</title>
<g id="a_node4"><a xlink:href="dsygv_8f.html#a007d33bcdcc697e17c6d15432f159b73" target="_top" xlink:title=" ">
<polygon fill="white" stroke="black" points="249,-19.5 249,-38.5 292,-38.5 292,-19.5 249,-19.5"/>
<text text-anchor="middle" x="270.5" y="-26.5" font-family="Helvetica,sans-Serif" font-size="10.00">dsygv</text>
</a>
</g>
</g>
<!-- Node3&#45;&gt;Node4 -->
<g id="edge3" class="edge">
<title>Node3&#45;&gt;Node4</title>
<path fill="none" stroke="midnightblue" d="M317.88,-40.22C309.22,-38.13 300.08,-35.92 292.22,-34.02"/>
<polygon fill="midnightblue" stroke="midnightblue" points="317.17,-43.66 327.72,-42.61 318.82,-36.85 317.17,-43.66"/>
</g>
<!-- Node5 -->
<g id="node5" class="node">
<title>Node5</title>
<g id="a_node5"><a xlink:href="hmholtz_8f.html#a5a846560cdbe979f8cf9a71599a7f460" target="_top" xlink:title=" ">
<polygon fill="white" stroke="red" points="154,-19.5 154,-38.5 213,-38.5 213,-19.5 154,-19.5"/>
<text text-anchor="middle" x="183.5" y="-26.5" font-family="Helvetica,sans-Serif" font-size="10.00">generalev</text>
</a>
</g>
</g>
<!-- Node4&#45;&gt;Node5 -->
<g id="edge4" class="edge">
<title>Node4&#45;&gt;Node5</title>
<path fill="none" stroke="midnightblue" d="M238.82,-29C230.47,-29 221.47,-29 213.24,-29"/>
<polygon fill="midnightblue" stroke="midnightblue" points="238.92,-32.5 248.92,-29 238.92,-25.5 238.92,-32.5"/>
</g>
<!-- Node6 -->
<g id="node6" class="node">
<title>Node6</title>
<g id="a_node6"><a xlink:href="hsmg_8f.html#a57c4906700aca571f060a547363b280f" target="_top" xlink:title=" ">
<polygon fill="white" stroke="red" points="8,-38.5 8,-57.5 110,-57.5 110,-38.5 8,-38.5"/>
<text text-anchor="middle" x="59" y="-45.5" font-family="Helvetica,sans-Serif" font-size="10.00">hsmg_setup_fast1d</text>
</a>
</g>
</g>
<!-- Node5&#45;&gt;Node6 -->
<g id="edge5" class="edge">
<title>Node5&#45;&gt;Node6</title>
<path fill="none" stroke="midnightblue" d="M143.89,-34.99C133.18,-36.65 121.4,-38.48 110.13,-40.22"/>
<polygon fill="midnightblue" stroke="midnightblue" points="144.43,-38.45 153.78,-33.45 143.36,-31.53 144.43,-38.45"/>
</g>
<!-- Node16 -->
<g id="node7" class="node">
<title>Node16</title>
<g id="a_node7"><a xlink:href="hmholtz_8f.html#abd6f3614f9436265a22e0d5354f18926" target="_top" xlink:title=" ">
<polygon fill="white" stroke="red" points="0,-0.5 0,-19.5 118,-19.5 118,-0.5 0,-0.5"/>
<text text-anchor="middle" x="59" y="-7.5" font-family="Helvetica,sans-Serif" font-size="10.00">set_fdm_prec_h1a_gen</text>
</a>
</g>
</g>
<!-- Node5&#45;&gt;Node16 -->
<g id="edge6" class="edge">
<title>Node5&#45;&gt;Node16</title>
<path fill="none" stroke="midnightblue" d="M143.63,-22.97C135.6,-21.73 126.99,-20.39 118.44,-19.06"/>
<polygon fill="midnightblue" stroke="midnightblue" points="143.36,-26.47 153.78,-24.55 144.43,-19.55 143.36,-26.47"/>
</g>
<!-- Node89 -->
<g id="node9" class="node">
<title>Node89</title>
<g id="a_node9"><a xlink:href="dsytrd_8f.html#aefcd0b153f8e0c36b510af4364a12cd2" target="_top" xlink:title=" ">
<polygon fill="white" stroke="black" points="410,-0.5 410,-19.5 454,-19.5 454,-0.5 410,-0.5"/>
<text text-anchor="middle" x="432" y="-7.5" font-family="Helvetica,sans-Serif" font-size="10.00">dsytrd</text>
</a>
</g>
</g>
<!-- Node88&#45;&gt;Node89 -->
<g id="edge8" class="edge">
<title>Node88&#45;&gt;Node89</title>
<path fill="none" stroke="midnightblue" d="M480.58,-10C471.64,-10 462.18,-10 454.06,-10"/>
<polygon fill="midnightblue" stroke="midnightblue" points="480.72,-13.5 490.72,-10 480.72,-6.5 480.72,-13.5"/>
</g>
<!-- Node90 -->
<g id="node10" class="node">
<title>Node90</title>
<g id="a_node10"><a xlink:href="dsyev_8f.html#a442c43fca5493590f8f26cf42fed4044" target="_top" xlink:title=" ">
<polygon fill="white" stroke="black" points="329.5,-0.5 329.5,-19.5 372.5,-19.5 372.5,-0.5 329.5,-0.5"/>
<text text-anchor="middle" x="351" y="-7.5" font-family="Helvetica,sans-Serif" font-size="10.00">dsyev</text>
</a>
</g>
</g>
<!-- Node89&#45;&gt;Node90 -->
<g id="edge9" class="edge">
<title>Node89&#45;&gt;Node90</title>
<path fill="none" stroke="midnightblue" d="M399.6,-10C390.55,-10 380.91,-10 372.68,-10"/>
<polygon fill="midnightblue" stroke="midnightblue" points="399.83,-13.5 409.83,-10 399.83,-6.5 399.83,-13.5"/>
</g>
<!-- Node90&#45;&gt;Node4 -->
<g id="edge10" class="edge">
<title>Node90&#45;&gt;Node4</title>
<path fill="none" stroke="midnightblue" d="M319.48,-17.39C310.37,-19.59 300.59,-21.96 292.26,-23.98"/>
<polygon fill="midnightblue" stroke="midnightblue" points="320.48,-20.75 329.38,-14.99 318.83,-13.94 320.48,-20.75"/>
</g>
</g>
</svg>
        <g id="navigator" transform="translate(0 0)" fill="#404254">
                <rect fill="#f2f5e9" fill-opacity="0.5" stroke="#606060" stroke-width=".5" x="0" y="0" width="60" height="60"/>
                <use id="zoomplus" xlink:href="#zoomPlus" x="17" y="9" onmousedown="handleZoom(evt,'in')"/>
                <use id="zoomminus" xlink:href="#zoomMin" x="42" y="9" onmousedown="handleZoom(evt,'out')"/>
                <use id="reset" xlink:href="#resetDef" x="30" y="36" onmousedown="handleReset()"/>
                <g id="arrowUp" xlink:href="#dirArrow" transform="translate(30 24)" onmousedown="handlePan(0,-1)">
                  <use xlink:href="#rim" fill="#404040">
                        <set attributeName="fill" to="#808080" begin="arrowUp.mouseover" end="arrowUp.mouseout"/>
                  </use>
                  <path fill="none" stroke="white" stroke-width="1.5" d="M0,-3.0v7 M-2.5,-0.5L0,-3.0L2.5,-0.5"/>
                </g>
                <g id="arrowRight" xlink:href="#dirArrow" transform="rotate(90) translate(36 -43)" onmousedown="handlePan(1,0)">
                  <use xlink:href="#rim" fill="#404040">
                        <set attributeName="fill" to="#808080" begin="arrowRight.mouseover" end="arrowRight.mouseout"/>
                  </use>
                  <path fill="none" stroke="white" stroke-width="1.5" d="M0,-3.0v7 M-2.5,-0.5L0,-3.0L2.5,-0.5"/>
                </g>
                <g id="arrowDown" xlink:href="#dirArrow" transform="rotate(180) translate(-30 -48)" onmousedown="handlePan(0,1)">
                  <use xlink:href="#rim" fill="#404040">
                        <set attributeName="fill" to="#808080" begin="arrowDown.mouseover" end="arrowDown.mouseout"/>
                  </use>
                  <path fill="none" stroke="white" stroke-width="1.5" d="M0,-3.0v7 M-2.5,-0.5L0,-3.0L2.5,-0.5"/>
                </g>
                <g id="arrowLeft" xlink:href="#dirArrow" transform="rotate(270) translate(-36 17)" onmousedown="handlePan(-1,0)">
                  <use xlink:href="#rim" fill="#404040">
                        <set attributeName="fill" to="#808080" begin="arrowLeft.mouseover" end="arrowLeft.mouseout"/>
                  </use>
                  <path fill="none" stroke="white" stroke-width="1.5" d="M0,-3.0v7 M-2.5,-0.5L0,-3.0L2.5,-0.5"/>
                </g>
        </g>
        <svg viewBox="0 0 15 15" width="100%" height="30px" preserveAspectRatio="xMaxYMin meet">
         <g id="arrow_out" transform="scale(0.3 0.3)">
          <a xlink:href="dsyr2_8f_ae96880c53b8eaee70bbef273b905715f_icgraph_org.svg" target="_base">
           <rect id="button" ry="5" rx="5" y="6" x="6" height="38" width="38"
                fill="#f2f5e9" fill-opacity="0.5" stroke="#606060" stroke-width="1.0"/>
           <path id="arrow"
             d="M 11.500037,31.436501 C 11.940474,20.09759 22.043105,11.32322 32.158766,21.979434 L 37.068811,17.246167 C 37.068811,17.246167 37.088388,32 37.088388,32 L 22.160133,31.978069 C 22.160133,31.978069 26.997745,27.140456 26.997745,27.140456 C 18.528582,18.264221 13.291696,25.230495 11.500037,31.436501 z"
             style="fill:#404040;"/>
          </a>
         </g>
        </svg>
</svg>
