<?xml version="1.0" encoding="UTF-8" standalone="no"?>
<!DOCTYPE svg PUBLIC "-//W3C//DTD SVG 1.1//EN"
 "http://www.w3.org/Graphics/SVG/1.1/DTD/svg11.dtd">
<!-- Generated by graphviz version 2.46.0 (0)
 -->
<!-- Title: dsyrk Pages: 1 -->
<svg width="454pt" height="142pt"
 viewBox="0.00 0.00 454.00 142.00" xmlns="http://www.w3.org/2000/svg" xmlns:xlink="http://www.w3.org/1999/xlink">
<g id="graph0" class="graph" transform="scale(1 1) rotate(0) translate(4 138)">
<title>dsyrk</title>
<polygon fill="white" stroke="transparent" points="-4,4 -4,-138 450,-138 450,4 -4,4"/>
<!-- Node1 -->
<g id="node1" class="node">
<title>Node1</title>
<g id="a_node1"><a xlink:title=" ">
<polygon fill="#bfbfbf" stroke="black" points="405,-95.5 405,-114.5 446,-114.5 446,-95.5 405,-95.5"/>
<text text-anchor="middle" x="425.5" y="-102.5" font-family="Helvetica,sans-Serif" font-size="10.00">dsyrk</text>
</a>
</g>
</g>
<!-- Node2 -->
<g id="node2" class="node">
<title>Node2</title>
<g id="a_node2"><a xlink:href="dpbtrf_8f.html#ad8b0e25cecc84ea3c5aa894ca1f1b5ca" target="_top" xlink:title=" ">
<polygon fill="white" stroke="black" points="328,-114.5 328,-133.5 369,-133.5 369,-114.5 328,-114.5"/>
<text text-anchor="middle" x="348.5" y="-121.5" font-family="Helvetica,sans-Serif" font-size="10.00">dpbtrf</text>
</a>
</g>
</g>
<!-- Node1&#45;&gt;Node2 -->
<g id="edge1" class="edge">
<title>Node1&#45;&gt;Node2</title>
<path fill="none" stroke="midnightblue" d="M394.98,-112.48C386.28,-114.68 376.98,-117.04 369.07,-119.04"/>
<polygon fill="midnightblue" stroke="midnightblue" points="395.96,-115.84 404.79,-109.99 394.24,-109.06 395.96,-115.84"/>
</g>
<!-- Node3 -->
<g id="node3" class="node">
<title>Node3</title>
<g id="a_node3"><a xlink:href="dpotrf_8f.html#a2f55f604a6003d03b5cd4a0adcfb74d6" target="_top" xlink:title=" ">
<polygon fill="white" stroke="black" points="328,-76.5 328,-95.5 369,-95.5 369,-76.5 328,-76.5"/>
<text text-anchor="middle" x="348.5" y="-83.5" font-family="Helvetica,sans-Serif" font-size="10.00">dpotrf</text>
</a>
</g>
</g>
<!-- Node1&#45;&gt;Node3 -->
<g id="edge2" class="edge">
<title>Node1&#45;&gt;Node3</title>
<path fill="none" stroke="midnightblue" d="M394.98,-97.52C386.28,-95.32 376.98,-92.96 369.07,-90.96"/>
<polygon fill="midnightblue" stroke="midnightblue" points="394.24,-100.94 404.79,-100.01 395.96,-94.16 394.24,-100.94"/>
</g>
<!-- Node4 -->
<g id="node4" class="node">
<title>Node4</title>
<g id="a_node4"><a xlink:href="dposv_8f.html#a9ce56acceb70eb6484a768eaa841f70d" target="_top" xlink:title=" ">
<polygon fill="white" stroke="black" points="249,-95.5 249,-114.5 292,-114.5 292,-95.5 249,-95.5"/>
<text text-anchor="middle" x="270.5" y="-102.5" font-family="Helvetica,sans-Serif" font-size="10.00">dposv</text>
</a>
</g>
</g>
<!-- Node3&#45;&gt;Node4 -->
<g id="edge3" class="edge">
<title>Node3&#45;&gt;Node4</title>
<path fill="none" stroke="midnightblue" d="M318.12,-93.34C309.42,-95.52 300.08,-97.85 292.07,-99.86"/>
<polygon fill="midnightblue" stroke="midnightblue" points="319.08,-96.71 327.93,-90.89 317.38,-89.92 319.08,-96.71"/>
</g>
<!-- Node5 -->
<g id="node5" class="node">
<title>Node5</title>
<g id="a_node5"><a xlink:href="dsygv_8f.html#a007d33bcdcc697e17c6d15432f159b73" target="_top" xlink:title=" ">
<polygon fill="white" stroke="black" points="249,-57.5 249,-76.5 292,-76.5 292,-57.5 249,-57.5"/>
<text text-anchor="middle" x="270.5" y="-64.5" font-family="Helvetica,sans-Serif" font-size="10.00">dsygv</text>
</a>
</g>
</g>
<!-- Node3&#45;&gt;Node5 -->
<g id="edge4" class="edge">
<title>Node3&#45;&gt;Node5</title>
<path fill="none" stroke="midnightblue" d="M318.12,-78.66C309.42,-76.48 300.08,-74.15 292.07,-72.14"/>
<polygon fill="midnightblue" stroke="midnightblue" points="317.38,-82.08 327.93,-81.11 319.08,-75.29 317.38,-82.08"/>
</g>
<!-- Node6 -->
<g id="node6" class="node">
<title>Node6</title>
<g id="a_node6"><a xlink:href="hmholtz_8f.html#a5a846560cdbe979f8cf9a71599a7f460" target="_top" xlink:title=" ">
<polygon fill="white" stroke="black" points="154,-57.5 154,-76.5 213,-76.5 213,-57.5 154,-57.5"/>
<text text-anchor="middle" x="183.5" y="-64.5" font-family="Helvetica,sans-Serif" font-size="10.00">generalev</text>
</a>
</g>
</g>
<!-- Node5&#45;&gt;Node6 -->
<g id="edge5" class="edge">
<title>Node5&#45;&gt;Node6</title>
<path fill="none" stroke="midnightblue" d="M238.82,-67C230.47,-67 221.47,-67 213.24,-67"/>
<polygon fill="midnightblue" stroke="midnightblue" points="238.92,-70.5 248.92,-67 238.92,-63.5 238.92,-70.5"/>
</g>
<!-- Node7 -->
<g id="node7" class="node">
<title>Node7</title>
<g id="a_node7"><a xlink:href="hsmg_8f.html#a57c4906700aca571f060a547363b280f" target="_top" xlink:title=" ">
<polygon fill="white" stroke="red" points="8,-114.5 8,-133.5 110,-133.5 110,-114.5 8,-114.5"/>
<text text-anchor="middle" x="59" y="-121.5" font-family="Helvetica,sans-Serif" font-size="10.00">hsmg_setup_fast1d</text>
</a>
</g>
</g>
<!-- Node6&#45;&gt;Node7 -->
<g id="edge6" class="edge">
<title>Node6&#45;&gt;Node7</title>
<path fill="none" stroke="midnightblue" d="M159.6,-82.13C147.56,-89.66 132.35,-98.52 118,-105 110.18,-108.53 101.5,-111.73 93.29,-114.46"/>
<polygon fill="midnightblue" stroke="midnightblue" points="161.58,-85.02 168.13,-76.69 157.81,-79.12 161.58,-85.02"/>
</g>
<!-- Node17 -->
<g id="node8" class="node">
<title>Node17</title>
<g id="a_node8"><a xlink:href="hmholtz_8f.html#abd6f3614f9436265a22e0d5354f18926" target="_top" xlink:title=" ">
<polygon fill="white" stroke="red" points="0,-76.5 0,-95.5 118,-95.5 118,-76.5 0,-76.5"/>
<text text-anchor="middle" x="59" y="-83.5" font-family="Helvetica,sans-Serif" font-size="10.00">set_fdm_prec_h1a_gen</text>
</a>
</g>
</g>
<!-- Node6&#45;&gt;Node17 -->
<g id="edge7" class="edge">
<title>Node6&#45;&gt;Node17</title>
<path fill="none" stroke="midnightblue" d="M143.63,-73.03C135.6,-74.27 126.99,-75.61 118.44,-76.94"/>
<polygon fill="midnightblue" stroke="midnightblue" points="144.43,-76.45 153.78,-71.45 143.36,-69.53 144.43,-76.45"/>
</g>
<!-- Node84 -->
<g id="node9" class="node">
<title>Node84</title>
<g id="a_node9"><a xlink:href="fast3d_8f.html#a05d4e543e6504bffe2f7b080de6f71cf" target="_top" xlink:title=" ">
<polygon fill="white" stroke="red" points="5.5,-38.5 5.5,-57.5 112.5,-57.5 112.5,-38.5 5.5,-38.5"/>
<text text-anchor="middle" x="59" y="-45.5" font-family="Helvetica,sans-Serif" font-size="10.00">set_up_fast_1d_sem</text>
</a>
</g>
</g>
<!-- Node6&#45;&gt;Node84 -->
<g id="edge8" class="edge">
<title>Node6&#45;&gt;Node84</title>
<path fill="none" stroke="midnightblue" d="M143.82,-61C133.9,-59.46 123.06,-57.78 112.56,-56.15"/>
<polygon fill="midnightblue" stroke="midnightblue" points="143.36,-64.47 153.78,-62.55 144.43,-57.55 143.36,-64.47"/>
</g>
<!-- Node86 -->
<g id="node10" class="node">
<title>Node86</title>
<g id="a_node10"><a xlink:href="gmres_8f.html#aa171d4647e9b81013eef39d18ffc4592" target="_top" xlink:title=" ">
<polygon fill="white" stroke="red" points="0,-0.5 0,-19.5 118,-19.5 118,-0.5 0,-0.5"/>
<text text-anchor="middle" x="59" y="-7.5" font-family="Helvetica,sans-Serif" font-size="10.00">set_up_fast_1d_sem_g</text>
</a>
</g>
</g>
<!-- Node6&#45;&gt;Node86 -->
<g id="edge9" class="edge">
<title>Node6&#45;&gt;Node86</title>
<path fill="none" stroke="midnightblue" d="M159.6,-51.87C147.56,-44.34 132.35,-35.48 118,-29 110.18,-25.47 101.5,-22.27 93.29,-19.54"/>
<polygon fill="midnightblue" stroke="midnightblue" points="157.81,-54.88 168.13,-57.31 161.58,-48.98 157.81,-54.88"/>
</g>
</g>
</svg>
