<?xml version="1.0" encoding="UTF-8" standalone="no"?>
<!DOCTYPE svg PUBLIC "-//W3C//DTD SVG 1.1//EN"
 "http://www.w3.org/Graphics/SVG/1.1/DTD/svg11.dtd">
<!-- Generated by graphviz version 2.46.0 (0)
 -->
<!-- Title: dsytd2 Pages: 1 -->
<svg width="215pt" height="180pt"
 viewBox="0.00 0.00 215.00 180.00" xmlns="http://www.w3.org/2000/svg" xmlns:xlink="http://www.w3.org/1999/xlink">
<g id="graph0" class="graph" transform="scale(1 1) rotate(0) translate(4 176)">
<title>dsytd2</title>
<polygon fill="white" stroke="transparent" points="-4,4 -4,-176 211,-176 211,4 -4,4"/>
<!-- Node1 -->
<g id="node1" class="node">
<title>Node1</title>
<g id="a_node1"><a xlink:title=" ">
<polygon fill="#bfbfbf" stroke="black" points="0,-76.5 0,-95.5 46,-95.5 46,-76.5 0,-76.5"/>
<text text-anchor="middle" x="23" y="-83.5" font-family="Helvetica,sans-Serif" font-size="10.00">dsytd2</text>
</a>
</g>
</g>
<!-- Node2 -->
<g id="node2" class="node">
<title>Node2</title>
<g id="a_node2"><a xlink:href="daxpy_8f.html#adb136e14634fe4b772a0b034f52f3939" target="_top" xlink:title=" ">
<polygon fill="white" stroke="black" points="83.5,-152.5 83.5,-171.5 126.5,-171.5 126.5,-152.5 83.5,-152.5"/>
<text text-anchor="middle" x="105" y="-159.5" font-family="Helvetica,sans-Serif" font-size="10.00">daxpy</text>
</a>
</g>
</g>
<!-- Node1&#45;&gt;Node2 -->
<g id="edge1" class="edge">
<title>Node1&#45;&gt;Node2</title>
<path fill="none" stroke="midnightblue" d="M33.67,-95.88C45.03,-107.4 64.56,-126.93 82,-143 82.96,-143.88 83.95,-144.78 84.96,-145.69"/>
<polygon fill="midnightblue" stroke="midnightblue" points="82.86,-148.51 92.69,-152.47 87.48,-143.24 82.86,-148.51"/>
</g>
<!-- Node3 -->
<g id="node3" class="node">
<title>Node3</title>
<g id="a_node3"><a xlink:href="dlarfg_8f.html#aabb59655e820b3551af27781bd716143" target="_top" xlink:title=" ">
<polygon fill="white" stroke="black" points="84.5,-114.5 84.5,-133.5 125.5,-133.5 125.5,-114.5 84.5,-114.5"/>
<text text-anchor="middle" x="105" y="-121.5" font-family="Helvetica,sans-Serif" font-size="10.00">dlarfg</text>
</a>
</g>
</g>
<!-- Node1&#45;&gt;Node3 -->
<g id="edge2" class="edge">
<title>Node1&#45;&gt;Node3</title>
<path fill="none" stroke="midnightblue" d="M44.19,-95.59C53.61,-100.07 65.01,-105.48 75.31,-110.37"/>
<polygon fill="midnightblue" stroke="midnightblue" points="73.84,-113.55 84.37,-114.68 76.84,-107.22 73.84,-113.55"/>
</g>
<!-- Node5 -->
<g id="node5" class="node">
<title>Node5</title>
<g id="a_node5"><a xlink:href="dsymv_8f.html#a6ab49c8fa5e2608d9545483045bf3d03" target="_top" xlink:title=" ">
<polygon fill="white" stroke="black" points="82,-76.5 82,-95.5 128,-95.5 128,-76.5 82,-76.5"/>
<text text-anchor="middle" x="105" y="-83.5" font-family="Helvetica,sans-Serif" font-size="10.00">dsymv</text>
</a>
</g>
</g>
<!-- Node1&#45;&gt;Node5 -->
<g id="edge4" class="edge">
<title>Node1&#45;&gt;Node5</title>
<path fill="none" stroke="midnightblue" d="M46.28,-86C54.17,-86 63.21,-86 71.76,-86"/>
<polygon fill="midnightblue" stroke="midnightblue" points="71.84,-89.5 81.84,-86 71.84,-82.5 71.84,-89.5"/>
</g>
<!-- Node6 -->
<g id="node6" class="node">
<title>Node6</title>
<g id="a_node6"><a xlink:href="xerbla_8f.html#a377ee61015baf8dea7770b3a404b1c07" target="_top" xlink:title=" ">
<polygon fill="white" stroke="black" points="164,-38.5 164,-57.5 207,-57.5 207,-38.5 164,-38.5"/>
<text text-anchor="middle" x="185.5" y="-45.5" font-family="Helvetica,sans-Serif" font-size="10.00">xerbla</text>
</a>
</g>
</g>
<!-- Node1&#45;&gt;Node6 -->
<g id="edge8" class="edge">
<title>Node1&#45;&gt;Node6</title>
<path fill="none" stroke="midnightblue" d="M46.11,-77.99C56.84,-74.3 69.99,-70.07 82,-67 105.89,-60.9 133.39,-55.91 153.88,-52.58"/>
<polygon fill="midnightblue" stroke="midnightblue" points="154.58,-56.01 163.91,-50.99 153.48,-49.1 154.58,-56.01"/>
</g>
<!-- Node7 -->
<g id="node7" class="node">
<title>Node7</title>
<g id="a_node7"><a xlink:href="dsyr2_8f.html#ae96880c53b8eaee70bbef273b905715f" target="_top" xlink:title=" ">
<polygon fill="white" stroke="black" points="84.5,-0.5 84.5,-19.5 125.5,-19.5 125.5,-0.5 84.5,-0.5"/>
<text text-anchor="middle" x="105" y="-7.5" font-family="Helvetica,sans-Serif" font-size="10.00">dsyr2</text>
</a>
</g>
</g>
<!-- Node1&#45;&gt;Node7 -->
<g id="edge6" class="edge">
<title>Node1&#45;&gt;Node7</title>
<path fill="none" stroke="midnightblue" d="M34.13,-76.37C47.24,-63.93 70.28,-42.04 86.3,-26.81"/>
<polygon fill="midnightblue" stroke="midnightblue" points="89.11,-28.97 93.95,-19.55 84.29,-23.9 89.11,-28.97"/>
</g>
<!-- Node4 -->
<g id="node4" class="node">
<title>Node4</title>
<g id="a_node4"><a xlink:href="dscal_8f.html#a0590f8db475e11dc2c9137bb13887acf" target="_top" xlink:title=" ">
<polygon fill="white" stroke="black" points="165.5,-114.5 165.5,-133.5 205.5,-133.5 205.5,-114.5 165.5,-114.5"/>
<text text-anchor="middle" x="185.5" y="-121.5" font-family="Helvetica,sans-Serif" font-size="10.00">dscal</text>
</a>
</g>
</g>
<!-- Node3&#45;&gt;Node4 -->
<g id="edge3" class="edge">
<title>Node3&#45;&gt;Node4</title>
<path fill="none" stroke="midnightblue" d="M125.81,-124C134.68,-124 145.33,-124 155.1,-124"/>
<polygon fill="midnightblue" stroke="midnightblue" points="155.24,-127.5 165.24,-124 155.24,-120.5 155.24,-127.5"/>
</g>
<!-- Node5&#45;&gt;Node6 -->
<g id="edge5" class="edge">
<title>Node5&#45;&gt;Node6</title>
<path fill="none" stroke="midnightblue" d="M125.81,-76.41C134.83,-72.05 145.68,-66.79 155.58,-62"/>
<polygon fill="midnightblue" stroke="midnightblue" points="157.22,-65.09 164.7,-57.59 154.17,-58.79 157.22,-65.09"/>
</g>
<!-- Node7&#45;&gt;Node6 -->
<g id="edge7" class="edge">
<title>Node7&#45;&gt;Node6</title>
<path fill="none" stroke="midnightblue" d="M125.81,-19.59C134.83,-23.95 145.68,-29.21 155.58,-34"/>
<polygon fill="midnightblue" stroke="midnightblue" points="154.17,-37.21 164.7,-38.41 157.22,-30.91 154.17,-37.21"/>
</g>
</g>
</svg>
