<?xml version="1.0" encoding="UTF-8" standalone="no"?>
<!DOCTYPE svg PUBLIC "-//W3C//DTD SVG 1.1//EN"
 "http://www.w3.org/Graphics/SVG/1.1/DTD/svg11.dtd">
<!-- Generated by graphviz version 2.46.0 (0)
 -->
<!-- Title: dtrmm Pages: 1 -->
<svg width="216pt" height="256pt"
 viewBox="0.00 0.00 216.00 256.00" xmlns="http://www.w3.org/2000/svg" xmlns:xlink="http://www.w3.org/1999/xlink">
<g id="graph0" class="graph" transform="scale(1 1) rotate(0) translate(4 252)">
<title>dtrmm</title>
<polygon fill="white" stroke="transparent" points="-4,4 -4,-252 212,-252 212,4 -4,4"/>
<!-- Node1 -->
<g id="node1" class="node">
<title>Node1</title>
<g id="a_node1"><a xlink:title=" ">
<polygon fill="#bfbfbf" stroke="black" points="164,-57.5 164,-76.5 208,-76.5 208,-57.5 164,-57.5"/>
<text text-anchor="middle" x="186" y="-64.5" font-family="Helvetica,sans-Serif" font-size="10.00">dtrmm</text>
</a>
</g>
</g>
<!-- Node2 -->
<g id="node2" class="node">
<title>Node2</title>
<g id="a_node2"><a xlink:href="dlarfb_8f.html#a83c81583bd444e0cf021fb006cd9a5e8" target="_top" xlink:title=" ">
<polygon fill="white" stroke="red" points="84.5,-133.5 84.5,-152.5 125.5,-152.5 125.5,-133.5 84.5,-133.5"/>
<text text-anchor="middle" x="105" y="-140.5" font-family="Helvetica,sans-Serif" font-size="10.00">dlarfb</text>
</a>
</g>
</g>
<!-- Node1&#45;&gt;Node2 -->
<g id="edge1" class="edge">
<title>Node1&#45;&gt;Node2</title>
<path fill="none" stroke="midnightblue" d="M167.42,-83.91C151.57,-99.16 128.82,-121.04 115.92,-133.45"/>
<polygon fill="midnightblue" stroke="midnightblue" points="170.21,-86.08 174.99,-76.63 165.36,-81.04 170.21,-86.08"/>
</g>
<!-- Node103 -->
<g id="node8" class="node">
<title>Node103</title>
<g id="a_node8"><a xlink:href="dsygst_8f.html#a2de4dd06c6513d1a9b7776e32a1295c7" target="_top" xlink:title=" ">
<polygon fill="white" stroke="black" points="82,-76.5 82,-95.5 128,-95.5 128,-76.5 82,-76.5"/>
<text text-anchor="middle" x="105" y="-83.5" font-family="Helvetica,sans-Serif" font-size="10.00">dsygst</text>
</a>
</g>
</g>
<!-- Node1&#45;&gt;Node103 -->
<g id="edge7" class="edge">
<title>Node1&#45;&gt;Node103</title>
<path fill="none" stroke="midnightblue" d="M154.02,-74.45C145.35,-76.54 136.1,-78.76 128.06,-80.7"/>
<polygon fill="midnightblue" stroke="midnightblue" points="154.93,-77.83 163.83,-72.09 153.29,-71.03 154.93,-77.83"/>
</g>
<!-- Node14 -->
<g id="node9" class="node">
<title>Node14</title>
<g id="a_node9"><a xlink:href="dsygv_8f.html#a007d33bcdcc697e17c6d15432f159b73" target="_top" xlink:title=" ">
<polygon fill="white" stroke="red" points="1.5,-38.5 1.5,-57.5 44.5,-57.5 44.5,-38.5 1.5,-38.5"/>
<text text-anchor="middle" x="23" y="-45.5" font-family="Helvetica,sans-Serif" font-size="10.00">dsygv</text>
</a>
</g>
</g>
<!-- Node1&#45;&gt;Node14 -->
<g id="edge9" class="edge">
<title>Node1&#45;&gt;Node14</title>
<path fill="none" stroke="midnightblue" d="M153.73,-63.31C121.49,-59.51 72.16,-53.68 44.54,-50.42"/>
<polygon fill="midnightblue" stroke="midnightblue" points="153.61,-66.82 163.95,-64.52 154.43,-59.87 153.61,-66.82"/>
</g>
<!-- Node104 -->
<g id="node10" class="node">
<title>Node104</title>
<g id="a_node10"><a xlink:href="dtrtri_8f.html#a97c5ddb103f5f6bc2dc060886aaf2ffc" target="_top" xlink:title="DTRTRI">
<polygon fill="white" stroke="red" points="87,-0.5 87,-19.5 123,-19.5 123,-0.5 87,-0.5"/>
<text text-anchor="middle" x="105" y="-7.5" font-family="Helvetica,sans-Serif" font-size="10.00">dtrtri</text>
</a>
</g>
</g>
<!-- Node1&#45;&gt;Node104 -->
<g id="edge10" class="edge">
<title>Node1&#45;&gt;Node104</title>
<path fill="none" stroke="midnightblue" d="M163.39,-51.41C149.25,-41.21 131.24,-28.21 119.2,-19.53"/>
<polygon fill="midnightblue" stroke="midnightblue" points="161.44,-54.32 171.6,-57.33 165.54,-48.64 161.44,-54.32"/>
</g>
<!-- Node3 -->
<g id="node3" class="node">
<title>Node3</title>
<g id="a_node3"><a xlink:href="dgehrd_8f.html#a2611cc9dfdc84e2a08ec57a5dd6cdd2e" target="_top" xlink:title=" ">
<polygon fill="white" stroke="red" points="0,-228.5 0,-247.5 46,-247.5 46,-228.5 0,-228.5"/>
<text text-anchor="middle" x="23" y="-235.5" font-family="Helvetica,sans-Serif" font-size="10.00">dgehrd</text>
</a>
</g>
</g>
<!-- Node2&#45;&gt;Node3 -->
<g id="edge2" class="edge">
<title>Node2&#45;&gt;Node3</title>
<path fill="none" stroke="midnightblue" d="M91.65,-161.3C80.53,-177.24 63.31,-200.61 46,-219 42.96,-222.23 39.41,-225.49 36.06,-228.37"/>
<polygon fill="midnightblue" stroke="midnightblue" points="94.67,-163.09 97.45,-152.87 88.9,-159.12 94.67,-163.09"/>
</g>
<!-- Node5 -->
<g id="node4" class="node">
<title>Node5</title>
<g id="a_node4"><a xlink:href="dgelqf_8f.html#a436228e38ef5c55e3229502afa2c4220" target="_top" xlink:title=" ">
<polygon fill="white" stroke="red" points="1.5,-190.5 1.5,-209.5 44.5,-209.5 44.5,-190.5 1.5,-190.5"/>
<text text-anchor="middle" x="23" y="-197.5" font-family="Helvetica,sans-Serif" font-size="10.00">dgelqf</text>
</a>
</g>
</g>
<!-- Node2&#45;&gt;Node5 -->
<g id="edge3" class="edge">
<title>Node2&#45;&gt;Node5</title>
<path fill="none" stroke="midnightblue" d="M82.11,-158.59C67.8,-168.79 49.56,-181.79 37.37,-190.47"/>
<polygon fill="midnightblue" stroke="midnightblue" points="84.32,-161.32 90.43,-152.67 80.25,-155.62 84.32,-161.32"/>
</g>
<!-- Node8 -->
<g id="node5" class="node">
<title>Node8</title>
<g id="a_node5"><a xlink:href="dgeqrf_8f.html#a3766ea903391b5cf9008132f7440ec7b" target="_top" xlink:title=" ">
<polygon fill="white" stroke="red" points="1,-152.5 1,-171.5 45,-171.5 45,-152.5 1,-152.5"/>
<text text-anchor="middle" x="23" y="-159.5" font-family="Helvetica,sans-Serif" font-size="10.00">dgeqrf</text>
</a>
</g>
</g>
<!-- Node2&#45;&gt;Node8 -->
<g id="edge4" class="edge">
<title>Node2&#45;&gt;Node8</title>
<path fill="none" stroke="midnightblue" d="M74.22,-150.07C64.59,-152.36 54.11,-154.85 45.23,-156.96"/>
<polygon fill="midnightblue" stroke="midnightblue" points="75.3,-153.41 84.22,-147.7 73.69,-146.6 75.3,-153.41"/>
</g>
<!-- Node9 -->
<g id="node6" class="node">
<title>Node9</title>
<g id="a_node6"><a xlink:href="dorglq_8f.html#a224721cea0929f2ead5c87ce50822555" target="_top" xlink:title=" ">
<polygon fill="white" stroke="red" points="1.5,-114.5 1.5,-133.5 44.5,-133.5 44.5,-114.5 1.5,-114.5"/>
<text text-anchor="middle" x="23" y="-121.5" font-family="Helvetica,sans-Serif" font-size="10.00">dorglq</text>
</a>
</g>
</g>
<!-- Node2&#45;&gt;Node9 -->
<g id="edge5" class="edge">
<title>Node2&#45;&gt;Node9</title>
<path fill="none" stroke="midnightblue" d="M74.37,-135.96C64.49,-133.62 53.71,-131.06 44.66,-128.91"/>
<polygon fill="midnightblue" stroke="midnightblue" points="73.69,-139.4 84.22,-138.3 75.3,-132.59 73.69,-139.4"/>
</g>
<!-- Node11 -->
<g id="node7" class="node">
<title>Node11</title>
<g id="a_node7"><a xlink:href="dorgql_8f.html#a97adc24a3547a789a3ab145688e3a3ca" target="_top" xlink:title=" ">
<polygon fill="white" stroke="red" points="1.5,-76.5 1.5,-95.5 44.5,-95.5 44.5,-76.5 1.5,-76.5"/>
<text text-anchor="middle" x="23" y="-83.5" font-family="Helvetica,sans-Serif" font-size="10.00">dorgql</text>
</a>
</g>
</g>
<!-- Node2&#45;&gt;Node11 -->
<g id="edge6" class="edge">
<title>Node2&#45;&gt;Node11</title>
<path fill="none" stroke="midnightblue" d="M82.11,-127.41C67.8,-117.21 49.56,-104.21 37.37,-95.53"/>
<polygon fill="midnightblue" stroke="midnightblue" points="80.25,-130.38 90.43,-133.33 84.32,-124.68 80.25,-130.38"/>
</g>
<!-- Node103&#45;&gt;Node14 -->
<g id="edge8" class="edge">
<title>Node103&#45;&gt;Node14</title>
<path fill="none" stroke="midnightblue" d="M74.52,-72C64.43,-67.2 53.37,-61.95 44.18,-57.59"/>
<polygon fill="midnightblue" stroke="midnightblue" points="73.28,-75.28 83.81,-76.41 76.28,-68.96 73.28,-75.28"/>
</g>
</g>
</svg>
