<?xml version="1.0" encoding="UTF-8" standalone="no"?>
<!DOCTYPE svg PUBLIC "-//W3C//DTD SVG 1.1//EN"
 "http://www.w3.org/Graphics/SVG/1.1/DTD/svg11.dtd">
<!-- Generated by graphviz version 2.46.0 (0)
 -->
<!-- Title: dtrsv Pages: 1 -->
<!--zoomable 104 -->
<svg id="main" version="1.1" xmlns="http://www.w3.org/2000/svg" xmlns:xlink="http://www.w3.org/1999/xlink" xml:space="preserve" onload="init(evt)">
<style type="text/css"><![CDATA[
.edge:hover path { stroke: red; }
.edge:hover polygon { stroke: red; fill: red; }
]]></style>
<script type="text/javascript"><![CDATA[
var edges = document.getElementsByTagName('g');
if (edges && edges.length) {
  for (var i=0;i<edges.length;i++) {
    if (edges[i].id.substr(0,4)=='edge') {
      edges[i].setAttribute('class','edge');
    }
  }
}
]]></script>
        <defs>
                <circle id="rim" cx="0" cy="0" r="7"/>
                <circle id="rim2" cx="0" cy="0" r="3.5"/>
                <g id="zoomPlus">
                        <use xlink:href="#rim" fill="#404040">
                                <set attributeName="fill" to="#808080" begin="zoomplus.mouseover" end="zoomplus.mouseout"/>
                        </use>
                        <path d="M-4,0h8M0,-4v8" fill="none" stroke="white" stroke-width="1.5" pointer-events="none"/>
                </g>
                <g id="zoomMin">
                        <use xlink:href="#rim" fill="#404040">
                                <set attributeName="fill" to="#808080" begin="zoomminus.mouseover" end="zoomminus.mouseout"/>
                        </use>
                        <path d="M-4,0h8" fill="none" stroke="white" stroke-width="1.5" pointer-events="none"/>
                </g>
                <g id="dirArrow">
                        <path fill="none" stroke="white" stroke-width="1.5" d="M0,-3.0v7 M-2.5,-0.5L0,-3.0L2.5,-0.5"/>
                </g>
               <g id="resetDef">
                       <use xlink:href="#rim2" fill="#404040">
                               <set attributeName="fill" to="#808080" begin="reset.mouseover" end="reset.mouseout"/>
                       </use>
               </g>
        </defs>

<script type="text/javascript">
var viewWidth = 542;
var viewHeight = 104;
var sectionId = 'dynsection-1';
</script>
<script xlink:href="svgpan.js"/>
<svg id="graph" class="graph">
<g id="viewport">
<title>dtrsv</title>
<polygon fill="white" stroke="transparent" points="-4,4 -4,-100 538,-100 538,4 -4,4"/>
<!-- Node1 -->
<g id="node1" class="node">
<title>Node1</title>
<g id="a_node1"><a xlink:title=" ">
<polygon fill="#bfbfbf" stroke="black" points="496,-57.5 496,-76.5 534,-76.5 534,-57.5 496,-57.5"/>
<text text-anchor="middle" x="515" y="-64.5" font-family="Helvetica,sans-Serif" font-size="10.00">dtrsv</text>
</a>
</g>
</g>
<!-- Node2 -->
<g id="node2" class="node">
<title>Node2</title>
<g id="a_node2"><a xlink:href="dlatrs_8f.html#aa495c9c519906a3053f0ec56d702ef5f" target="_top" xlink:title=" ">
<polygon fill="white" stroke="black" points="415.5,-76.5 415.5,-95.5 456.5,-95.5 456.5,-76.5 415.5,-76.5"/>
<text text-anchor="middle" x="436" y="-83.5" font-family="Helvetica,sans-Serif" font-size="10.00">dlatrs</text>
</a>
</g>
</g>
<!-- Node1&#45;&gt;Node2 -->
<g id="edge1" class="edge">
<title>Node1&#45;&gt;Node2</title>
<path fill="none" stroke="midnightblue" d="M485.78,-73.96C476.14,-76.34 465.56,-78.95 456.74,-81.13"/>
<polygon fill="midnightblue" stroke="midnightblue" points="486.88,-77.3 495.75,-71.5 485.2,-70.5 486.88,-77.3"/>
</g>
<!-- Node4 -->
<g id="node4" class="node">
<title>Node4</title>
<g id="a_node4"><a xlink:href="dsygs2_8f.html#a4ac61c8e385266015e852e25c060cdb0" target="_top" xlink:title=" ">
<polygon fill="white" stroke="black" points="412,-38.5 412,-57.5 460,-57.5 460,-38.5 412,-38.5"/>
<text text-anchor="middle" x="436" y="-45.5" font-family="Helvetica,sans-Serif" font-size="10.00">dsygs2</text>
</a>
</g>
</g>
<!-- Node1&#45;&gt;Node4 -->
<g id="edge3" class="edge">
<title>Node1&#45;&gt;Node4</title>
<path fill="none" stroke="midnightblue" d="M485.89,-60.06C477.41,-57.97 468.2,-55.7 460.09,-53.7"/>
<polygon fill="midnightblue" stroke="midnightblue" points="485.2,-63.5 495.75,-62.5 486.88,-56.7 485.2,-63.5"/>
</g>
<!-- Node3 -->
<g id="node3" class="node">
<title>Node3</title>
<g id="a_node3"><a xlink:href="dgecon_8f.html#a188b8d30443d14b1a3f7f8331d87ae60" target="_top" xlink:title=" ">
<polygon fill="white" stroke="black" points="328,-76.5 328,-95.5 376,-95.5 376,-76.5 328,-76.5"/>
<text text-anchor="middle" x="352" y="-83.5" font-family="Helvetica,sans-Serif" font-size="10.00">dgecon</text>
</a>
</g>
</g>
<!-- Node2&#45;&gt;Node3 -->
<g id="edge2" class="edge">
<title>Node2&#45;&gt;Node3</title>
<path fill="none" stroke="midnightblue" d="M404.91,-86C395.42,-86 385.09,-86 376.16,-86"/>
<polygon fill="midnightblue" stroke="midnightblue" points="405.15,-89.5 415.15,-86 405.15,-82.5 405.15,-89.5"/>
</g>
<!-- Node5 -->
<g id="node5" class="node">
<title>Node5</title>
<g id="a_node5"><a xlink:href="dsygst_8f.html#a2de4dd06c6513d1a9b7776e32a1295c7" target="_top" xlink:title=" ">
<polygon fill="white" stroke="black" points="329,-38.5 329,-57.5 375,-57.5 375,-38.5 329,-38.5"/>
<text text-anchor="middle" x="352" y="-45.5" font-family="Helvetica,sans-Serif" font-size="10.00">dsygst</text>
</a>
</g>
</g>
<!-- Node4&#45;&gt;Node5 -->
<g id="edge4" class="edge">
<title>Node4&#45;&gt;Node5</title>
<path fill="none" stroke="midnightblue" d="M401.62,-48C392.72,-48 383.34,-48 375.21,-48"/>
<polygon fill="midnightblue" stroke="midnightblue" points="401.72,-51.5 411.72,-48 401.72,-44.5 401.72,-51.5"/>
</g>
<!-- Node6 -->
<g id="node6" class="node">
<title>Node6</title>
<g id="a_node6"><a xlink:href="dsygv_8f.html#a007d33bcdcc697e17c6d15432f159b73" target="_top" xlink:title=" ">
<polygon fill="white" stroke="black" points="249,-38.5 249,-57.5 292,-57.5 292,-38.5 249,-38.5"/>
<text text-anchor="middle" x="270.5" y="-45.5" font-family="Helvetica,sans-Serif" font-size="10.00">dsygv</text>
</a>
</g>
</g>
<!-- Node5&#45;&gt;Node6 -->
<g id="edge5" class="edge">
<title>Node5&#45;&gt;Node6</title>
<path fill="none" stroke="midnightblue" d="M318.69,-48C309.74,-48 300.26,-48 292.16,-48"/>
<polygon fill="midnightblue" stroke="midnightblue" points="318.85,-51.5 328.85,-48 318.85,-44.5 318.85,-51.5"/>
</g>
<!-- Node7 -->
<g id="node7" class="node">
<title>Node7</title>
<g id="a_node7"><a xlink:href="hmholtz_8f.html#a5a846560cdbe979f8cf9a71599a7f460" target="_top" xlink:title=" ">
<polygon fill="white" stroke="red" points="154,-38.5 154,-57.5 213,-57.5 213,-38.5 154,-38.5"/>
<text text-anchor="middle" x="183.5" y="-45.5" font-family="Helvetica,sans-Serif" font-size="10.00">generalev</text>
</a>
</g>
</g>
<!-- Node6&#45;&gt;Node7 -->
<g id="edge6" class="edge">
<title>Node6&#45;&gt;Node7</title>
<path fill="none" stroke="midnightblue" d="M238.82,-48C230.47,-48 221.47,-48 213.24,-48"/>
<polygon fill="midnightblue" stroke="midnightblue" points="238.92,-51.5 248.92,-48 238.92,-44.5 238.92,-51.5"/>
</g>
<!-- Node8 -->
<g id="node8" class="node">
<title>Node8</title>
<g id="a_node8"><a xlink:href="hsmg_8f.html#a57c4906700aca571f060a547363b280f" target="_top" xlink:title=" ">
<polygon fill="white" stroke="red" points="8,-76.5 8,-95.5 110,-95.5 110,-76.5 8,-76.5"/>
<text text-anchor="middle" x="59" y="-83.5" font-family="Helvetica,sans-Serif" font-size="10.00">hsmg_setup_fast1d</text>
</a>
</g>
</g>
<!-- Node7&#45;&gt;Node8 -->
<g id="edge7" class="edge">
<title>Node7&#45;&gt;Node8</title>
<path fill="none" stroke="midnightblue" d="M144.03,-59.93C126.83,-65.27 106.85,-71.47 90.68,-76.48"/>
<polygon fill="midnightblue" stroke="midnightblue" points="145.27,-63.22 153.78,-56.91 143.19,-56.53 145.27,-63.22"/>
</g>
<!-- Node18 -->
<g id="node9" class="node">
<title>Node18</title>
<g id="a_node9"><a xlink:href="hmholtz_8f.html#abd6f3614f9436265a22e0d5354f18926" target="_top" xlink:title=" ">
<polygon fill="white" stroke="red" points="0,-38.5 0,-57.5 118,-57.5 118,-38.5 0,-38.5"/>
<text text-anchor="middle" x="59" y="-45.5" font-family="Helvetica,sans-Serif" font-size="10.00">set_fdm_prec_h1a_gen</text>
</a>
</g>
</g>
<!-- Node7&#45;&gt;Node18 -->
<g id="edge8" class="edge">
<title>Node7&#45;&gt;Node18</title>
<path fill="none" stroke="midnightblue" d="M143.63,-48C135.6,-48 126.99,-48 118.44,-48"/>
<polygon fill="midnightblue" stroke="midnightblue" points="143.78,-51.5 153.78,-48 143.78,-44.5 143.78,-51.5"/>
</g>
<!-- Node85 -->
<g id="node10" class="node">
<title>Node85</title>
<g id="a_node10"><a xlink:href="fast3d_8f.html#a05d4e543e6504bffe2f7b080de6f71cf" target="_top" xlink:title=" ">
<polygon fill="white" stroke="red" points="5.5,-0.5 5.5,-19.5 112.5,-19.5 112.5,-0.5 5.5,-0.5"/>
<text text-anchor="middle" x="59" y="-7.5" font-family="Helvetica,sans-Serif" font-size="10.00">set_up_fast_1d_sem</text>
</a>
</g>
</g>
<!-- Node7&#45;&gt;Node85 -->
<g id="edge9" class="edge">
<title>Node7&#45;&gt;Node85</title>
<path fill="none" stroke="midnightblue" d="M144.03,-36.07C126.83,-30.73 106.85,-24.53 90.68,-19.52"/>
<polygon fill="midnightblue" stroke="midnightblue" points="143.19,-39.47 153.78,-39.09 145.27,-32.78 143.19,-39.47"/>
</g>
</g>
</svg>
        <g id="navigator" transform="translate(0 0)" fill="#404254">
                <rect fill="#f2f5e9" fill-opacity="0.5" stroke="#606060" stroke-width=".5" x="0" y="0" width="60" height="60"/>
                <use id="zoomplus" xlink:href="#zoomPlus" x="17" y="9" onmousedown="handleZoom(evt,'in')"/>
                <use id="zoomminus" xlink:href="#zoomMin" x="42" y="9" onmousedown="handleZoom(evt,'out')"/>
                <use id="reset" xlink:href="#resetDef" x="30" y="36" onmousedown="handleReset()"/>
                <g id="arrowUp" xlink:href="#dirArrow" transform="translate(30 24)" onmousedown="handlePan(0,-1)">
                  <use xlink:href="#rim" fill="#404040">
                        <set attributeName="fill" to="#808080" begin="arrowUp.mouseover" end="arrowUp.mouseout"/>
                  </use>
                  <path fill="none" stroke="white" stroke-width="1.5" d="M0,-3.0v7 M-2.5,-0.5L0,-3.0L2.5,-0.5"/>
                </g>
                <g id="arrowRight" xlink:href="#dirArrow" transform="rotate(90) translate(36 -43)" onmousedown="handlePan(1,0)">
                  <use xlink:href="#rim" fill="#404040">
                        <set attributeName="fill" to="#808080" begin="arrowRight.mouseover" end="arrowRight.mouseout"/>
                  </use>
                  <path fill="none" stroke="white" stroke-width="1.5" d="M0,-3.0v7 M-2.5,-0.5L0,-3.0L2.5,-0.5"/>
                </g>
                <g id="arrowDown" xlink:href="#dirArrow" transform="rotate(180) translate(-30 -48)" onmousedown="handlePan(0,1)">
                  <use xlink:href="#rim" fill="#404040">
                        <set attributeName="fill" to="#808080" begin="arrowDown.mouseover" end="arrowDown.mouseout"/>
                  </use>
                  <path fill="none" stroke="white" stroke-width="1.5" d="M0,-3.0v7 M-2.5,-0.5L0,-3.0L2.5,-0.5"/>
                </g>
                <g id="arrowLeft" xlink:href="#dirArrow" transform="rotate(270) translate(-36 17)" onmousedown="handlePan(-1,0)">
                  <use xlink:href="#rim" fill="#404040">
                        <set attributeName="fill" to="#808080" begin="arrowLeft.mouseover" end="arrowLeft.mouseout"/>
                  </use>
                  <path fill="none" stroke="white" stroke-width="1.5" d="M0,-3.0v7 M-2.5,-0.5L0,-3.0L2.5,-0.5"/>
                </g>
        </g>
        <svg viewBox="0 0 15 15" width="100%" height="30px" preserveAspectRatio="xMaxYMin meet">
         <g id="arrow_out" transform="scale(0.3 0.3)">
          <a xlink:href="dtrsv_8f_ad2a01dd62718b28e35b752dbad8474ab_icgraph_org.svg" target="_base">
           <rect id="button" ry="5" rx="5" y="6" x="6" height="38" width="38"
                fill="#f2f5e9" fill-opacity="0.5" stroke="#606060" stroke-width="1.0"/>
           <path id="arrow"
             d="M 11.500037,31.436501 C 11.940474,20.09759 22.043105,11.32322 32.158766,21.979434 L 37.068811,17.246167 C 37.068811,17.246167 37.088388,32 37.088388,32 L 22.160133,31.978069 C 22.160133,31.978069 26.997745,27.140456 26.997745,27.140456 C 18.528582,18.264221 13.291696,25.230495 11.500037,31.436501 z"
             style="fill:#404040;"/>
          </a>
         </g>
        </svg>
</svg>
