<?xml version="1.0" encoding="UTF-8" standalone="no"?>
<!DOCTYPE svg PUBLIC "-//W3C//DTD SVG 1.1//EN"
 "http://www.w3.org/Graphics/SVG/1.1/DTD/svg11.dtd">
<!-- Generated by graphviz version 2.46.0 (0)
 -->
<!-- Title: dtrtri Pages: 1 -->
<svg width="280pt" height="218pt"
 viewBox="0.00 0.00 280.00 218.00" xmlns="http://www.w3.org/2000/svg" xmlns:xlink="http://www.w3.org/1999/xlink">
<g id="graph0" class="graph" transform="scale(1 1) rotate(0) translate(4 214)">
<title>dtrtri</title>
<polygon fill="white" stroke="transparent" points="-4,4 -4,-214 276,-214 276,4 -4,4"/>
<!-- Node1 -->
<g id="node1" class="node">
<title>Node1</title>
<g id="a_node1"><a xlink:title="DTRTRI">
<polygon fill="#bfbfbf" stroke="black" points="0,-133.5 0,-152.5 36,-152.5 36,-133.5 0,-133.5"/>
<text text-anchor="middle" x="18" y="-140.5" font-family="Helvetica,sans-Serif" font-size="10.00">dtrtri</text>
</a>
</g>
</g>
<!-- Node2 -->
<g id="node2" class="node">
<title>Node2</title>
<g id="a_node2"><a xlink:href="dtrmm_8f.html#af07edfbb2d2077687522652c9e283e1e" target="_top" xlink:title=" ">
<polygon fill="white" stroke="black" points="149,-190.5 149,-209.5 193,-209.5 193,-190.5 149,-190.5"/>
<text text-anchor="middle" x="171" y="-197.5" font-family="Helvetica,sans-Serif" font-size="10.00">dtrmm</text>
</a>
</g>
</g>
<!-- Node1&#45;&gt;Node2 -->
<g id="edge1" class="edge">
<title>Node1&#45;&gt;Node2</title>
<path fill="none" stroke="midnightblue" d="M31.87,-152.64C42.23,-159.99 57.41,-169.86 72,-176 93.48,-185.05 119.12,-191.17 138.78,-194.97"/>
<polygon fill="midnightblue" stroke="midnightblue" points="138.27,-198.44 148.74,-196.8 139.53,-191.55 138.27,-198.44"/>
</g>
<!-- Node3 -->
<g id="node3" class="node">
<title>Node3</title>
<g id="a_node3"><a xlink:href="xerbla_8f.html#a377ee61015baf8dea7770b3a404b1c07" target="_top" xlink:title=" ">
<polygon fill="white" stroke="black" points="229,-114.5 229,-133.5 272,-133.5 272,-114.5 229,-114.5"/>
<text text-anchor="middle" x="250.5" y="-121.5" font-family="Helvetica,sans-Serif" font-size="10.00">xerbla</text>
</a>
</g>
</g>
<!-- Node1&#45;&gt;Node3 -->
<g id="edge10" class="edge">
<title>Node1&#45;&gt;Node3</title>
<path fill="none" stroke="midnightblue" d="M36.42,-143.92C67.89,-145.26 136.25,-146.73 193,-138 201.52,-136.69 210.64,-134.7 219.01,-132.62"/>
<polygon fill="midnightblue" stroke="midnightblue" points="219.95,-135.99 228.75,-130.09 218.19,-129.22 219.95,-135.99"/>
</g>
<!-- Node4 -->
<g id="node4" class="node">
<title>Node4</title>
<g id="a_node4"><a xlink:href="dtrsm_8f.html#a6a0a7704f4a747562c1bd9487e89795c" target="_top" xlink:title=" ">
<polygon fill="white" stroke="black" points="72,-114.5 72,-133.5 113,-133.5 113,-114.5 72,-114.5"/>
<text text-anchor="middle" x="92.5" y="-121.5" font-family="Helvetica,sans-Serif" font-size="10.00">dtrsm</text>
</a>
</g>
</g>
<!-- Node1&#45;&gt;Node4 -->
<g id="edge3" class="edge">
<title>Node1&#45;&gt;Node4</title>
<path fill="none" stroke="midnightblue" d="M36.18,-138.5C43.89,-136.48 53.2,-134.04 61.97,-131.74"/>
<polygon fill="midnightblue" stroke="midnightblue" points="63.09,-135.06 71.88,-129.14 61.32,-128.29 63.09,-135.06"/>
</g>
<!-- Node5 -->
<g id="node5" class="node">
<title>Node5</title>
<g id="a_node5"><a xlink:href="dtrti2_8f.html#a6251426a82e7eb6410091403114067f5" target="_top" xlink:title="DTRTI2 computes the inverse of a triangular matrix (unblocked algorithm).">
<polygon fill="white" stroke="black" points="73.5,-57.5 73.5,-76.5 111.5,-76.5 111.5,-57.5 73.5,-57.5"/>
<text text-anchor="middle" x="92.5" y="-64.5" font-family="Helvetica,sans-Serif" font-size="10.00">dtrti2</text>
</a>
</g>
</g>
<!-- Node1&#45;&gt;Node5 -->
<g id="edge5" class="edge">
<title>Node1&#45;&gt;Node5</title>
<path fill="none" stroke="midnightblue" d="M28.18,-133.37C39.99,-120.99 60.71,-99.28 75.22,-84.06"/>
<polygon fill="midnightblue" stroke="midnightblue" points="77.79,-86.44 82.16,-76.79 72.73,-81.61 77.79,-86.44"/>
</g>
<!-- Node2&#45;&gt;Node3 -->
<g id="edge2" class="edge">
<title>Node2&#45;&gt;Node3</title>
<path fill="none" stroke="midnightblue" d="M181.82,-190.37C194.44,-177.99 216.59,-156.28 232.1,-141.06"/>
<polygon fill="midnightblue" stroke="midnightblue" points="234.83,-143.29 239.52,-133.79 229.93,-138.29 234.83,-143.29"/>
</g>
<!-- Node4&#45;&gt;Node3 -->
<g id="edge4" class="edge">
<title>Node4&#45;&gt;Node3</title>
<path fill="none" stroke="midnightblue" d="M113.26,-124C139.81,-124 187.27,-124 218.57,-124"/>
<polygon fill="midnightblue" stroke="midnightblue" points="218.91,-127.5 228.91,-124 218.91,-120.5 218.91,-127.5"/>
</g>
<!-- Node5&#45;&gt;Node3 -->
<g id="edge9" class="edge">
<title>Node5&#45;&gt;Node3</title>
<path fill="none" stroke="midnightblue" d="M111.7,-73.65C138.1,-83.3 187.34,-101.29 219.25,-112.95"/>
<polygon fill="midnightblue" stroke="midnightblue" points="218.35,-116.35 228.95,-116.49 220.76,-109.77 218.35,-116.35"/>
</g>
<!-- Node6 -->
<g id="node6" class="node">
<title>Node6</title>
<g id="a_node6"><a xlink:href="dscal_8f.html#a0590f8db475e11dc2c9137bb13887acf" target="_top" xlink:title=" ">
<polygon fill="white" stroke="black" points="151,-38.5 151,-57.5 191,-57.5 191,-38.5 151,-38.5"/>
<text text-anchor="middle" x="171" y="-45.5" font-family="Helvetica,sans-Serif" font-size="10.00">dscal</text>
</a>
</g>
</g>
<!-- Node5&#45;&gt;Node6 -->
<g id="edge6" class="edge">
<title>Node5&#45;&gt;Node6</title>
<path fill="none" stroke="midnightblue" d="M111.63,-62.5C120.42,-60.31 131.19,-57.64 141.07,-55.18"/>
<polygon fill="midnightblue" stroke="midnightblue" points="142.07,-58.54 150.93,-52.74 140.38,-51.75 142.07,-58.54"/>
</g>
<!-- Node7 -->
<g id="node7" class="node">
<title>Node7</title>
<g id="a_node7"><a xlink:href="dtrmv_8f.html#a596c2acd9f81df6608bd5ed97e193897" target="_top" xlink:title=" ">
<polygon fill="white" stroke="black" points="150.5,-0.5 150.5,-19.5 191.5,-19.5 191.5,-0.5 150.5,-0.5"/>
<text text-anchor="middle" x="171" y="-7.5" font-family="Helvetica,sans-Serif" font-size="10.00">dtrmv</text>
</a>
</g>
</g>
<!-- Node5&#45;&gt;Node7 -->
<g id="edge7" class="edge">
<title>Node5&#45;&gt;Node7</title>
<path fill="none" stroke="midnightblue" d="M106.48,-57.33C118.09,-48.68 135.32,-35.84 148.91,-25.72"/>
<polygon fill="midnightblue" stroke="midnightblue" points="151.29,-28.31 157.21,-19.53 147.1,-22.69 151.29,-28.31"/>
</g>
<!-- Node7&#45;&gt;Node3 -->
<g id="edge8" class="edge">
<title>Node7&#45;&gt;Node3</title>
<path fill="none" stroke="midnightblue" d="M184.16,-19.88C187.22,-22.66 190.38,-25.8 193,-29 212.86,-53.26 230.39,-85.25 240.47,-105.22"/>
<polygon fill="midnightblue" stroke="midnightblue" points="237.34,-106.81 244.91,-114.22 243.62,-103.71 237.34,-106.81"/>
</g>
</g>
</svg>
