<?xml version="1.0" encoding="UTF-8" standalone="no"?>
<!DOCTYPE svg PUBLIC "-//W3C//DTD SVG 1.1//EN"
 "http://www.w3.org/Graphics/SVG/1.1/DTD/svg11.dtd">
<!-- Generated by graphviz version 2.46.0 (0)
 -->
<!-- Title: dtrti2 Pages: 1 -->
<svg width="195pt" height="28pt"
 viewBox="0.00 0.00 195.00 28.00" xmlns="http://www.w3.org/2000/svg" xmlns:xlink="http://www.w3.org/1999/xlink">
<g id="graph0" class="graph" transform="scale(1 1) rotate(0) translate(4 24)">
<title>dtrti2</title>
<polygon fill="white" stroke="transparent" points="-4,4 -4,-24 191,-24 191,4 -4,4"/>
<!-- Node1 -->
<g id="node1" class="node">
<title>Node1</title>
<g id="a_node1"><a xlink:title="DTRTI2 computes the inverse of a triangular matrix (unblocked algorithm).">
<polygon fill="#bfbfbf" stroke="black" points="149,-0.5 149,-19.5 187,-19.5 187,-0.5 149,-0.5"/>
<text text-anchor="middle" x="168" y="-7.5" font-family="Helvetica,sans-Serif" font-size="10.00">dtrti2</text>
</a>
</g>
</g>
<!-- Node2 -->
<g id="node2" class="node">
<title>Node2</title>
<g id="a_node2"><a xlink:href="dtrtri_8f.html#a97c5ddb103f5f6bc2dc060886aaf2ffc" target="_top" xlink:title="DTRTRI">
<polygon fill="white" stroke="black" points="77,-0.5 77,-19.5 113,-19.5 113,-0.5 77,-0.5"/>
<text text-anchor="middle" x="95" y="-7.5" font-family="Helvetica,sans-Serif" font-size="10.00">dtrtri</text>
</a>
</g>
</g>
<!-- Node1&#45;&gt;Node2 -->
<g id="edge1" class="edge">
<title>Node1&#45;&gt;Node2</title>
<path fill="none" stroke="midnightblue" d="M138.58,-10C129.92,-10 120.66,-10 113,-10"/>
<polygon fill="midnightblue" stroke="midnightblue" points="138.72,-13.5 148.72,-10 138.72,-6.5 138.72,-13.5"/>
</g>
<!-- Node3 -->
<g id="node3" class="node">
<title>Node3</title>
<g id="a_node3"><a xlink:href="dgetri_8f.html#a56d9c860ce4ce42ded7f914fdb0683ff" target="_top" xlink:title="DGETRI">
<polygon fill="white" stroke="black" points="0,-0.5 0,-19.5 41,-19.5 41,-0.5 0,-0.5"/>
<text text-anchor="middle" x="20.5" y="-7.5" font-family="Helvetica,sans-Serif" font-size="10.00">dgetri</text>
</a>
</g>
</g>
<!-- Node2&#45;&gt;Node3 -->
<g id="edge2" class="edge">
<title>Node2&#45;&gt;Node3</title>
<path fill="none" stroke="midnightblue" d="M66.6,-10C58.12,-10 48.96,-10 41.12,-10"/>
<polygon fill="midnightblue" stroke="midnightblue" points="66.82,-13.5 76.82,-10 66.82,-6.5 66.82,-13.5"/>
</g>
</g>
</svg>
