<?xml version="1.0" encoding="UTF-8" standalone="no"?>
<!DOCTYPE svg PUBLIC "-//W3C//DTD SVG 1.1//EN"
 "http://www.w3.org/Graphics/SVG/1.1/DTD/svg11.dtd">
<!-- Generated by graphviz version 2.46.0 (0)
 -->
<!-- Title: eigenv Pages: 1 -->
<svg width="225pt" height="332pt"
 viewBox="0.00 0.00 225.00 332.00" xmlns="http://www.w3.org/2000/svg" xmlns:xlink="http://www.w3.org/1999/xlink">
<g id="graph0" class="graph" transform="scale(1 1) rotate(0) translate(4 328)">
<title>eigenv</title>
<polygon fill="white" stroke="transparent" points="-4,4 -4,-328 221,-328 221,4 -4,4"/>
<!-- Node1 -->
<g id="node1" class="node">
<title>Node1</title>
<g id="a_node1"><a xlink:title=" ">
<polygon fill="#bfbfbf" stroke="black" points="0,-152.5 0,-171.5 45,-171.5 45,-152.5 0,-152.5"/>
<text text-anchor="middle" x="22.5" y="-159.5" font-family="Helvetica,sans-Serif" font-size="10.00">eigenv</text>
</a>
</g>
</g>
<!-- Node2 -->
<g id="node2" class="node">
<title>Node2</title>
<g id="a_node2"><a xlink:href="eigsolv_8f.html#a285ca4aa2354ca8584af31946d6761c2" target="_top" xlink:title=" ">
<polygon fill="white" stroke="red" points="85.5,-304.5 85.5,-323.5 138.5,-323.5 138.5,-304.5 85.5,-304.5"/>
<text text-anchor="middle" x="112" y="-311.5" font-family="Helvetica,sans-Serif" font-size="10.00">alpham1</text>
</a>
</g>
</g>
<!-- Node1&#45;&gt;Node2 -->
<g id="edge1" class="edge">
<title>Node1&#45;&gt;Node2</title>
<path fill="none" stroke="midnightblue" d="M25.61,-171.75C31.11,-195.3 47.82,-256.18 81,-295 81.86,-296 82.78,-296.97 83.75,-297.9"/>
<polygon fill="midnightblue" stroke="midnightblue" points="81.86,-300.87 91.88,-304.31 86.19,-295.37 81.86,-300.87"/>
</g>
<!-- Node201 -->
<g id="node3" class="node">
<title>Node201</title>
<g id="a_node3"><a xlink:href="eigsolv_8f.html#ae85b67491410da26b954f7e1257a7938" target="_top" xlink:title=" ">
<polygon fill="white" stroke="red" points="85.5,-266.5 85.5,-285.5 138.5,-285.5 138.5,-266.5 85.5,-266.5"/>
<text text-anchor="middle" x="112" y="-273.5" font-family="Helvetica,sans-Serif" font-size="10.00">alpham2</text>
</a>
</g>
</g>
<!-- Node1&#45;&gt;Node201 -->
<g id="edge2" class="edge">
<title>Node1&#45;&gt;Node201</title>
<path fill="none" stroke="midnightblue" d="M27.5,-171.6C35.5,-189.92 54.96,-230.42 81,-257 82.08,-258.1 83.23,-259.17 84.44,-260.2"/>
<polygon fill="midnightblue" stroke="midnightblue" points="82.73,-263.28 92.85,-266.4 86.88,-257.65 82.73,-263.28"/>
</g>
<!-- Node405 -->
<g id="node4" class="node">
<title>Node405</title>
<g id="a_node4"><a xlink:href="eigsolv_8f.html#a40aa959fb07551b7b3fe2e5bd7ed6fda" target="_top" xlink:title=" ">
<polygon fill="white" stroke="red" points="81,-228.5 81,-247.5 143,-247.5 143,-228.5 81,-228.5"/>
<text text-anchor="middle" x="112" y="-235.5" font-family="Helvetica,sans-Serif" font-size="10.00">gammam1</text>
</a>
</g>
</g>
<!-- Node1&#45;&gt;Node405 -->
<g id="edge3" class="edge">
<title>Node1&#45;&gt;Node405</title>
<path fill="none" stroke="midnightblue" d="M31.9,-171.52C42.64,-183.38 62.09,-203.93 81,-219 82.55,-220.24 84.19,-221.47 85.87,-222.67"/>
<polygon fill="midnightblue" stroke="midnightblue" points="84.11,-225.7 94.37,-228.36 88.01,-219.89 84.11,-225.7"/>
</g>
<!-- Node406 -->
<g id="node5" class="node">
<title>Node406</title>
<g id="a_node5"><a xlink:href="eigsolv_8f.html#aca8bd4d1702a986c85fad671139a5527" target="_top" xlink:title=" ">
<polygon fill="white" stroke="red" points="81,-190.5 81,-209.5 143,-209.5 143,-190.5 81,-190.5"/>
<text text-anchor="middle" x="112" y="-197.5" font-family="Helvetica,sans-Serif" font-size="10.00">gammam2</text>
</a>
</g>
</g>
<!-- Node1&#45;&gt;Node406 -->
<g id="edge4" class="edge">
<title>Node1&#45;&gt;Node406</title>
<path fill="none" stroke="midnightblue" d="M45.13,-171.39C55.57,-175.93 68.28,-181.45 79.75,-186.43"/>
<polygon fill="midnightblue" stroke="midnightblue" points="78.45,-189.68 89.01,-190.45 81.23,-183.26 78.45,-189.68"/>
</g>
<!-- Node407 -->
<g id="node6" class="node">
<title>Node407</title>
<g id="a_node6"><a xlink:href="subs2_8f.html#ad8a6bc8a1f656abf763a97453f623f0f" target="_top" xlink:title=" ">
<polygon fill="white" stroke="red" points="83.5,-152.5 83.5,-171.5 140.5,-171.5 140.5,-152.5 83.5,-152.5"/>
<text text-anchor="middle" x="112" y="-159.5" font-family="Helvetica,sans-Serif" font-size="10.00">gammasf</text>
</a>
</g>
</g>
<!-- Node1&#45;&gt;Node407 -->
<g id="edge5" class="edge">
<title>Node1&#45;&gt;Node407</title>
<path fill="none" stroke="midnightblue" d="M45.13,-162C53.6,-162 63.58,-162 73.17,-162"/>
<polygon fill="midnightblue" stroke="midnightblue" points="73.33,-165.5 83.33,-162 73.33,-158.5 73.33,-165.5"/>
</g>
<!-- Node95 -->
<g id="node7" class="node">
<title>Node95</title>
<g id="a_node7"><a xlink:href="math_8f.html#a0fcb0ff151fe3548d0d07961e8365efe" target="_top" xlink:title=" ">
<polygon fill="white" stroke="black" points="88,-114.5 88,-133.5 136,-133.5 136,-114.5 88,-114.5"/>
<text text-anchor="middle" x="112" y="-121.5" font-family="Helvetica,sans-Serif" font-size="10.00">invers2</text>
</a>
</g>
</g>
<!-- Node1&#45;&gt;Node95 -->
<g id="edge6" class="edge">
<title>Node1&#45;&gt;Node95</title>
<path fill="none" stroke="midnightblue" d="M45.13,-152.61C55.57,-148.07 68.28,-142.55 79.75,-137.57"/>
<polygon fill="midnightblue" stroke="midnightblue" points="81.23,-140.74 89.01,-133.55 78.45,-134.32 81.23,-140.74"/>
</g>
<!-- Node56 -->
<g id="node8" class="node">
<title>Node56</title>
<g id="a_node8"><a xlink:href="math_8f.html#ae1294c8ac3b5b3c38bbcc250d252b9cb" target="_top" xlink:title=" ">
<polygon fill="white" stroke="black" points="94.5,-76.5 94.5,-95.5 129.5,-95.5 129.5,-76.5 94.5,-76.5"/>
<text text-anchor="middle" x="112" y="-83.5" font-family="Helvetica,sans-Serif" font-size="10.00">rone</text>
</a>
</g>
</g>
<!-- Node1&#45;&gt;Node56 -->
<g id="edge7" class="edge">
<title>Node1&#45;&gt;Node56</title>
<path fill="none" stroke="midnightblue" d="M31.9,-152.48C42.64,-140.62 62.09,-120.07 81,-105 82.55,-103.76 84.19,-102.53 85.87,-101.33"/>
<polygon fill="midnightblue" stroke="midnightblue" points="88.01,-104.11 94.37,-95.64 84.11,-98.3 88.01,-104.11"/>
</g>
<!-- Node13 -->
<g id="node9" class="node">
<title>Node13</title>
<g id="a_node9"><a xlink:href="math_8f.html#af44de42b023a4a68cd98ea341204342d" target="_top" xlink:title=" ">
<polygon fill="white" stroke="black" points="179,-19.5 179,-38.5 217,-38.5 217,-19.5 179,-19.5"/>
<text text-anchor="middle" x="198" y="-26.5" font-family="Helvetica,sans-Serif" font-size="10.00">rzero</text>
</a>
</g>
</g>
<!-- Node1&#45;&gt;Node13 -->
<g id="edge8" class="edge">
<title>Node1&#45;&gt;Node13</title>
<path fill="none" stroke="midnightblue" d="M26.73,-152.37C33.61,-133.27 51.57,-90.39 81,-67 106.55,-46.69 143.34,-37.07 168.6,-32.62"/>
<polygon fill="midnightblue" stroke="midnightblue" points="169.33,-36.05 178.65,-31.01 168.22,-29.14 169.33,-36.05"/>
</g>
<!-- Node446 -->
<g id="node10" class="node">
<title>Node446</title>
<g id="a_node10"><a xlink:href="subs1_8f.html#ae2376b70f309c6118b4e43df9cbe66b1" target="_top" xlink:title=" ">
<polygon fill="white" stroke="red" points="89,-0.5 89,-19.5 135,-19.5 135,-0.5 89,-0.5"/>
<text text-anchor="middle" x="112" y="-7.5" font-family="Helvetica,sans-Serif" font-size="10.00">sethlm</text>
</a>
</g>
</g>
<!-- Node1&#45;&gt;Node446 -->
<g id="edge9" class="edge">
<title>Node1&#45;&gt;Node446</title>
<path fill="none" stroke="midnightblue" d="M26.17,-152.17C32.67,-129.54 51.01,-72.71 81,-34 83.12,-31.26 85.62,-28.64 88.26,-26.21"/>
<polygon fill="midnightblue" stroke="midnightblue" points="90.85,-28.61 96.32,-19.54 86.39,-23.21 90.85,-28.61"/>
</g>
<!-- Node446&#45;&gt;Node13 -->
<g id="edge10" class="edge">
<title>Node446&#45;&gt;Node13</title>
<path fill="none" stroke="midnightblue" d="M135.07,-14.99C145.38,-17.32 157.79,-20.13 168.77,-22.62"/>
<polygon fill="midnightblue" stroke="midnightblue" points="168.23,-26.08 178.76,-24.87 169.78,-19.25 168.23,-26.08"/>
</g>
</g>
</svg>
