<?xml version="1.0" encoding="UTF-8" standalone="no"?>
<!DOCTYPE svg PUBLIC "-//W3C//DTD SVG 1.1//EN"
 "http://www.w3.org/Graphics/SVG/1.1/DTD/svg11.dtd">
<!-- Generated by graphviz version 2.46.0 (0)
 -->
<!-- Title: startx2 Pages: 1 -->
<svg width="229pt" height="218pt"
 viewBox="0.00 0.00 229.00 218.00" xmlns="http://www.w3.org/2000/svg" xmlns:xlink="http://www.w3.org/1999/xlink">
<g id="graph0" class="graph" transform="scale(1 1) rotate(0) translate(4 214)">
<title>startx2</title>
<polygon fill="white" stroke="transparent" points="-4,4 -4,-214 225,-214 225,4 -4,4"/>
<!-- Node1 -->
<g id="node1" class="node">
<title>Node1</title>
<g id="a_node1"><a xlink:title=" ">
<polygon fill="#bfbfbf" stroke="black" points="0,-114.5 0,-133.5 47,-133.5 47,-114.5 0,-114.5"/>
<text text-anchor="middle" x="23.5" y="-121.5" font-family="Helvetica,sans-Serif" font-size="10.00">startx2</text>
</a>
</g>
</g>
<!-- Node2 -->
<g id="node2" class="node">
<title>Node2</title>
<g id="a_node2"><a xlink:href="math_8f.html#ad2b51b68d370651f4f6d81952503e7be" target="_top" xlink:title=" ">
<polygon fill="white" stroke="black" points="83,-190.5 83,-209.5 124,-209.5 124,-190.5 83,-190.5"/>
<text text-anchor="middle" x="103.5" y="-197.5" font-family="Helvetica,sans-Serif" font-size="10.00">cmult</text>
</a>
</g>
</g>
<!-- Node1&#45;&gt;Node2 -->
<g id="edge1" class="edge">
<title>Node1&#45;&gt;Node2</title>
<path fill="none" stroke="midnightblue" d="M34.38,-133.63C47.09,-146.01 69.37,-167.72 84.99,-182.94"/>
<polygon fill="midnightblue" stroke="midnightblue" points="82.85,-185.74 92.46,-190.21 87.74,-180.73 82.85,-185.74"/>
</g>
<!-- Node3 -->
<g id="node3" class="node">
<title>Node3</title>
<g id="a_node3"><a xlink:href="math_8f.html#a0d9af374781723c272547a185cb3da5e" target="_top" xlink:title=" ">
<polygon fill="white" stroke="black" points="86,-152.5 86,-171.5 121,-171.5 121,-152.5 86,-152.5"/>
<text text-anchor="middle" x="103.5" y="-159.5" font-family="Helvetica,sans-Serif" font-size="10.00">col3</text>
</a>
</g>
</g>
<!-- Node1&#45;&gt;Node3 -->
<g id="edge2" class="edge">
<title>Node1&#45;&gt;Node3</title>
<path fill="none" stroke="midnightblue" d="M44.18,-133.59C54.06,-138.4 66.16,-144.3 76.77,-149.46"/>
<polygon fill="midnightblue" stroke="midnightblue" points="75.47,-152.72 85.99,-153.96 78.53,-146.43 75.47,-152.72"/>
</g>
<!-- Node6 -->
<g id="node5" class="node">
<title>Node6</title>
<g id="a_node5"><a xlink:href="math_8f.html#a3b43508554f14bdea8e14473d7d0803c" target="_top" xlink:title=" ">
<polygon fill="white" stroke="black" points="84.5,-114.5 84.5,-133.5 122.5,-133.5 122.5,-114.5 84.5,-114.5"/>
<text text-anchor="middle" x="103.5" y="-121.5" font-family="Helvetica,sans-Serif" font-size="10.00">copy</text>
</a>
</g>
</g>
<!-- Node1&#45;&gt;Node6 -->
<g id="edge4" class="edge">
<title>Node1&#45;&gt;Node6</title>
<path fill="none" stroke="midnightblue" d="M47.06,-124C55.6,-124 65.42,-124 74.41,-124"/>
<polygon fill="midnightblue" stroke="midnightblue" points="74.44,-127.5 84.44,-124 74.44,-120.5 74.44,-127.5"/>
</g>
<!-- Node7 -->
<g id="node6" class="node">
<title>Node7</title>
<g id="a_node6"><a xlink:href="math_8f.html#a255eb2b5e6ee8be11915d2c3b5b5bf74" target="_top" xlink:title=" ">
<polygon fill="white" stroke="black" points="83.5,-76.5 83.5,-95.5 123.5,-95.5 123.5,-76.5 83.5,-76.5"/>
<text text-anchor="middle" x="103.5" y="-83.5" font-family="Helvetica,sans-Serif" font-size="10.00">glsc2</text>
</a>
</g>
</g>
<!-- Node1&#45;&gt;Node7 -->
<g id="edge5" class="edge">
<title>Node1&#45;&gt;Node7</title>
<path fill="none" stroke="midnightblue" d="M44.18,-114.41C53.28,-109.98 64.25,-104.63 74.22,-99.78"/>
<polygon fill="midnightblue" stroke="midnightblue" points="75.91,-102.85 83.36,-95.32 72.84,-96.56 75.91,-102.85"/>
</g>
<!-- Node10 -->
<g id="node8" class="node">
<title>Node10</title>
<g id="a_node8"><a xlink:href="navier1_8f.html#a4905d51f51b57bfec184a6b44f858bdb" target="_top" xlink:title=" ">
<polygon fill="white" stroke="red" points="84.5,-38.5 84.5,-57.5 122.5,-57.5 122.5,-38.5 84.5,-38.5"/>
<text text-anchor="middle" x="103.5" y="-45.5" font-family="Helvetica,sans-Serif" font-size="10.00">ortho</text>
</a>
</g>
</g>
<!-- Node1&#45;&gt;Node10 -->
<g id="edge7" class="edge">
<title>Node1&#45;&gt;Node10</title>
<path fill="none" stroke="midnightblue" d="M34.38,-114.37C47.09,-101.99 69.37,-80.28 84.99,-65.06"/>
<polygon fill="midnightblue" stroke="midnightblue" points="87.74,-67.27 92.46,-57.79 82.85,-62.26 87.74,-67.27"/>
</g>
<!-- Node4 -->
<g id="node4" class="node">
<title>Node4</title>
<g id="a_node4"><a xlink:href="comm__mpi_8f.html#af06ec29f06aac3f8809e19de2a7e8946" target="_top" xlink:title=" ">
<polygon fill="white" stroke="red" points="160,-152.5 160,-171.5 221,-171.5 221,-152.5 160,-152.5"/>
<text text-anchor="middle" x="190.5" y="-159.5" font-family="Helvetica,sans-Serif" font-size="10.00">dnekclock</text>
</a>
</g>
</g>
<!-- Node3&#45;&gt;Node4 -->
<g id="edge3" class="edge">
<title>Node3&#45;&gt;Node4</title>
<path fill="none" stroke="midnightblue" d="M121.29,-162C129.41,-162 139.53,-162 149.47,-162"/>
<polygon fill="midnightblue" stroke="midnightblue" points="149.66,-165.5 159.66,-162 149.66,-158.5 149.66,-165.5"/>
</g>
<!-- Node8 -->
<g id="node7" class="node">
<title>Node8</title>
<g id="a_node7"><a xlink:href="gs__test__gop__blocking_8c.html#ab2e24f9857f6d1ded7e4d556c6bc5e49" target="_top" xlink:title=" ">
<polygon fill="white" stroke="red" points="174.5,-76.5 174.5,-95.5 206.5,-95.5 206.5,-76.5 174.5,-76.5"/>
<text text-anchor="middle" x="190.5" y="-83.5" font-family="Helvetica,sans-Serif" font-size="10.00">gop</text>
</a>
</g>
</g>
<!-- Node7&#45;&gt;Node8 -->
<g id="edge6" class="edge">
<title>Node7&#45;&gt;Node8</title>
<path fill="none" stroke="midnightblue" d="M123.79,-86C135.73,-86 151.19,-86 164.12,-86"/>
<polygon fill="midnightblue" stroke="midnightblue" points="164.25,-89.5 174.25,-86 164.25,-82.5 164.25,-89.5"/>
</g>
<!-- Node11 -->
<g id="node9" class="node">
<title>Node11</title>
<g id="a_node9"><a xlink:href="math_8f.html#a0c68692ff686bdf254efd74deff61b72" target="_top" xlink:title=" ">
<polygon fill="white" stroke="black" points="171.5,-38.5 171.5,-57.5 209.5,-57.5 209.5,-38.5 171.5,-38.5"/>
<text text-anchor="middle" x="190.5" y="-45.5" font-family="Helvetica,sans-Serif" font-size="10.00">cadd</text>
</a>
</g>
</g>
<!-- Node10&#45;&gt;Node11 -->
<g id="edge8" class="edge">
<title>Node10&#45;&gt;Node11</title>
<path fill="none" stroke="midnightblue" d="M122.53,-48C133.8,-48 148.55,-48 161.34,-48"/>
<polygon fill="midnightblue" stroke="midnightblue" points="161.5,-51.5 171.5,-48 161.5,-44.5 161.5,-51.5"/>
</g>
<!-- Node12 -->
<g id="node10" class="node">
<title>Node12</title>
<g id="a_node10"><a xlink:href="comm__mpi_8f.html#a59fcf8a02fe54ab37f61050e3ca6b197" target="_top" xlink:title=" ">
<polygon fill="white" stroke="red" points="171.5,-0.5 171.5,-19.5 209.5,-19.5 209.5,-0.5 171.5,-0.5"/>
<text text-anchor="middle" x="190.5" y="-7.5" font-family="Helvetica,sans-Serif" font-size="10.00">exitti</text>
</a>
</g>
</g>
<!-- Node10&#45;&gt;Node12 -->
<g id="edge9" class="edge">
<title>Node10&#45;&gt;Node12</title>
<path fill="none" stroke="midnightblue" d="M122.53,-39.94C134.02,-34.8 149.14,-28.04 162.1,-22.25"/>
<polygon fill="midnightblue" stroke="midnightblue" points="163.8,-25.32 171.5,-18.05 160.94,-18.93 163.8,-25.32"/>
</g>
</g>
</svg>
