<?xml version="1.0" encoding="UTF-8" standalone="no"?>
<!DOCTYPE svg PUBLIC "-//W3C//DTD SVG 1.1//EN"
 "http://www.w3.org/Graphics/SVG/1.1/DTD/svg11.dtd">
<!-- Generated by graphviz version 2.46.0 (0)
 -->
<!-- Title: gammam1 Pages: 1 -->
<svg width="236pt" height="256pt"
 viewBox="0.00 0.00 236.00 256.00" xmlns="http://www.w3.org/2000/svg" xmlns:xlink="http://www.w3.org/1999/xlink">
<g id="graph0" class="graph" transform="scale(1 1) rotate(0) translate(4 252)">
<title>gammam1</title>
<polygon fill="white" stroke="transparent" points="-4,4 -4,-252 232,-252 232,4 -4,4"/>
<!-- Node1 -->
<g id="node1" class="node">
<title>Node1</title>
<g id="a_node1"><a xlink:title=" ">
<polygon fill="#bfbfbf" stroke="black" points="0,-114.5 0,-133.5 62,-133.5 62,-114.5 0,-114.5"/>
<text text-anchor="middle" x="31" y="-121.5" font-family="Helvetica,sans-Serif" font-size="10.00">gammam1</text>
</a>
</g>
</g>
<!-- Node2 -->
<g id="node2" class="node">
<title>Node2</title>
<g id="a_node2"><a xlink:href="hmholtz_8f.html#aa576b5bd623cce50fd6323db12ba5376" target="_top" xlink:title=" ">
<polygon fill="white" stroke="red" points="98,-190.5 98,-209.5 146,-209.5 146,-190.5 98,-190.5"/>
<text text-anchor="middle" x="122" y="-197.5" font-family="Helvetica,sans-Serif" font-size="10.00">axhelm</text>
</a>
</g>
</g>
<!-- Node1&#45;&gt;Node2 -->
<g id="edge1" class="edge">
<title>Node1&#45;&gt;Node2</title>
<path fill="none" stroke="midnightblue" d="M43.27,-133.63C57.98,-146.19 83.95,-168.37 101.8,-183.6"/>
<polygon fill="midnightblue" stroke="midnightblue" points="99.94,-186.62 109.82,-190.45 104.49,-181.3 99.94,-186.62"/>
</g>
<!-- Node9 -->
<g id="node5" class="node">
<title>Node9</title>
<g id="a_node5"><a xlink:href="math_8f.html#ad2b51b68d370651f4f6d81952503e7be" target="_top" xlink:title=" ">
<polygon fill="white" stroke="black" points="184.5,-228.5 184.5,-247.5 225.5,-247.5 225.5,-228.5 184.5,-228.5"/>
<text text-anchor="middle" x="205" y="-235.5" font-family="Helvetica,sans-Serif" font-size="10.00">cmult</text>
</a>
</g>
</g>
<!-- Node1&#45;&gt;Node9 -->
<g id="edge7" class="edge">
<title>Node1&#45;&gt;Node9</title>
<path fill="none" stroke="midnightblue" d="M35.72,-133.71C43.78,-153.35 64.87,-197.74 98,-219 120.82,-233.64 151.81,-237.79 174.38,-238.64"/>
<polygon fill="midnightblue" stroke="midnightblue" points="174.34,-242.14 184.41,-238.82 174.47,-235.14 174.34,-242.14"/>
</g>
<!-- Node10 -->
<g id="node6" class="node">
<title>Node10</title>
<g id="a_node6"><a xlink:href="math_8f.html#a3470db04166d9ba91454a14cc17dbec2" target="_top" xlink:title=" ">
<polygon fill="white" stroke="red" points="187.5,-114.5 187.5,-133.5 222.5,-133.5 222.5,-114.5 187.5,-114.5"/>
<text text-anchor="middle" x="205" y="-121.5" font-family="Helvetica,sans-Serif" font-size="10.00">col2</text>
</a>
</g>
</g>
<!-- Node1&#45;&gt;Node10 -->
<g id="edge8" class="edge">
<title>Node1&#45;&gt;Node10</title>
<path fill="none" stroke="midnightblue" d="M62.02,-131.75C73.23,-134.28 86.12,-136.75 98,-138 119.22,-140.23 124.82,-140.52 146,-138 156.42,-136.76 167.68,-134.31 177.49,-131.8"/>
<polygon fill="midnightblue" stroke="midnightblue" points="178.7,-135.09 187.44,-129.1 176.87,-128.34 178.7,-135.09"/>
</g>
<!-- Node11 -->
<g id="node7" class="node">
<title>Node11</title>
<g id="a_node7"><a xlink:href="math_8f.html#a0d9af374781723c272547a185cb3da5e" target="_top" xlink:title=" ">
<polygon fill="white" stroke="red" points="187.5,-76.5 187.5,-95.5 222.5,-95.5 222.5,-76.5 187.5,-76.5"/>
<text text-anchor="middle" x="205" y="-83.5" font-family="Helvetica,sans-Serif" font-size="10.00">col3</text>
</a>
</g>
</g>
<!-- Node1&#45;&gt;Node11 -->
<g id="edge9" class="edge">
<title>Node1&#45;&gt;Node11</title>
<path fill="none" stroke="midnightblue" d="M62.26,-120.23C85.38,-117.04 117.94,-111.89 146,-105 156.54,-102.41 167.93,-98.85 177.8,-95.51"/>
<polygon fill="midnightblue" stroke="midnightblue" points="179.14,-98.75 187.44,-92.17 176.85,-92.14 179.14,-98.75"/>
</g>
<!-- Node19 -->
<g id="node8" class="node">
<title>Node19</title>
<g id="a_node8"><a xlink:href="dssum_8f.html#ad67373714b1c3bafed536081167e2cd6" target="_top" xlink:title=" ">
<polygon fill="white" stroke="red" points="182,-38.5 182,-57.5 228,-57.5 228,-38.5 182,-38.5"/>
<text text-anchor="middle" x="205" y="-45.5" font-family="Helvetica,sans-Serif" font-size="10.00">dssum</text>
</a>
</g>
</g>
<!-- Node1&#45;&gt;Node19 -->
<g id="edge10" class="edge">
<title>Node1&#45;&gt;Node19</title>
<path fill="none" stroke="midnightblue" d="M40.26,-114.14C51.77,-101.11 73.95,-78.47 98,-67 121.21,-55.94 150.06,-51.28 171.81,-49.33"/>
<polygon fill="midnightblue" stroke="midnightblue" points="172.14,-52.82 181.85,-48.58 171.62,-45.84 172.14,-52.82"/>
</g>
<!-- Node22 -->
<g id="node9" class="node">
<title>Node22</title>
<g id="a_node9"><a xlink:href="math_8f.html#a2e1d409e78d80b2a41ac715c2d5f607b" target="_top" xlink:title=" ">
<polygon fill="white" stroke="red" points="185,-0.5 185,-19.5 225,-19.5 225,-0.5 185,-0.5"/>
<text text-anchor="middle" x="205" y="-7.5" font-family="Helvetica,sans-Serif" font-size="10.00">glsc3</text>
</a>
</g>
</g>
<!-- Node1&#45;&gt;Node22 -->
<g id="edge11" class="edge">
<title>Node1&#45;&gt;Node22</title>
<path fill="none" stroke="midnightblue" d="M37.92,-114.43C48.24,-98.5 71.03,-66.45 98,-48 121.4,-31.99 152.31,-21.93 174.71,-16.21"/>
<polygon fill="midnightblue" stroke="midnightblue" points="175.74,-19.56 184.64,-13.81 174.1,-12.75 175.74,-19.56"/>
</g>
<!-- Node25 -->
<g id="node10" class="node">
<title>Node25</title>
<g id="a_node10"><a xlink:href="eigsolv_8f.html#a641903cf1502c362e017e07dcb6cae02" target="_top" xlink:title=" ">
<polygon fill="white" stroke="red" points="98.5,-76.5 98.5,-95.5 145.5,-95.5 145.5,-76.5 98.5,-76.5"/>
<text text-anchor="middle" x="122" y="-83.5" font-family="Helvetica,sans-Serif" font-size="10.00">startx1</text>
</a>
</g>
</g>
<!-- Node1&#45;&gt;Node25 -->
<g id="edge12" class="edge">
<title>Node1&#45;&gt;Node25</title>
<path fill="none" stroke="midnightblue" d="M54.46,-114.41C65,-109.91 77.75,-104.47 89.25,-99.56"/>
<polygon fill="midnightblue" stroke="midnightblue" points="90.73,-102.73 98.55,-95.59 87.98,-96.29 90.73,-102.73"/>
</g>
<!-- Node3 -->
<g id="node3" class="node">
<title>Node3</title>
<g id="a_node3"><a xlink:href="math_8f.html#a30b83d516b6ab162d3fafe73e03a3e92" target="_top" xlink:title=" ">
<polygon fill="white" stroke="red" points="186,-152.5 186,-171.5 224,-171.5 224,-152.5 186,-152.5"/>
<text text-anchor="middle" x="205" y="-159.5" font-family="Helvetica,sans-Serif" font-size="10.00">add2</text>
</a>
</g>
</g>
<!-- Node2&#45;&gt;Node3 -->
<g id="edge2" class="edge">
<title>Node2&#45;&gt;Node3</title>
<path fill="none" stroke="midnightblue" d="M143.44,-190.41C153.52,-185.68 165.81,-179.92 176.68,-174.82"/>
<polygon fill="midnightblue" stroke="midnightblue" points="178.21,-177.96 185.78,-170.55 175.24,-171.63 178.21,-177.96"/>
</g>
<!-- Node6 -->
<g id="node4" class="node">
<title>Node6</title>
<g id="a_node4"><a xlink:href="math_8f.html#a6d333c9b7537e63344c7162824904329" target="_top" xlink:title=" ">
<polygon fill="white" stroke="black" points="186,-190.5 186,-209.5 224,-209.5 224,-190.5 186,-190.5"/>
<text text-anchor="middle" x="205" y="-197.5" font-family="Helvetica,sans-Serif" font-size="10.00">add3</text>
</a>
</g>
</g>
<!-- Node2&#45;&gt;Node6 -->
<g id="edge3" class="edge">
<title>Node2&#45;&gt;Node6</title>
<path fill="none" stroke="midnightblue" d="M146.43,-200C155.53,-200 166.03,-200 175.56,-200"/>
<polygon fill="midnightblue" stroke="midnightblue" points="175.77,-203.5 185.77,-200 175.77,-196.5 175.77,-203.5"/>
</g>
<!-- Node2&#45;&gt;Node9 -->
<g id="edge4" class="edge">
<title>Node2&#45;&gt;Node9</title>
<path fill="none" stroke="midnightblue" d="M143.44,-209.59C153.06,-214.1 164.69,-219.56 175.18,-224.48"/>
<polygon fill="midnightblue" stroke="midnightblue" points="173.87,-227.73 184.41,-228.81 176.84,-221.39 173.87,-227.73"/>
</g>
<!-- Node2&#45;&gt;Node10 -->
<g id="edge5" class="edge">
<title>Node2&#45;&gt;Node10</title>
<path fill="none" stroke="midnightblue" d="M132.86,-190.15C144.45,-178.64 164.33,-159.14 182,-143 182.96,-142.12 183.96,-141.22 184.97,-140.32"/>
<polygon fill="midnightblue" stroke="midnightblue" points="187.49,-142.77 192.7,-133.55 182.87,-137.5 187.49,-142.77"/>
</g>
<!-- Node2&#45;&gt;Node11 -->
<g id="edge6" class="edge">
<title>Node2&#45;&gt;Node11</title>
<path fill="none" stroke="midnightblue" d="M127.68,-190.47C136.7,-172.61 157.78,-133.34 182,-105 182.6,-104.29 183.23,-103.59 183.88,-102.9"/>
<polygon fill="midnightblue" stroke="midnightblue" points="186.46,-105.28 191.28,-95.84 181.63,-100.21 186.46,-105.28"/>
</g>
<!-- Node25&#45;&gt;Node9 -->
<g id="edge13" class="edge">
<title>Node25&#45;&gt;Node9</title>
<path fill="none" stroke="midnightblue" d="M125.71,-95.79C132.44,-118.9 151.61,-178.01 182,-219 182.55,-219.74 183.14,-220.48 183.75,-221.21"/>
<polygon fill="midnightblue" stroke="midnightblue" points="181.42,-223.82 190.97,-228.41 186.36,-218.87 181.42,-223.82"/>
</g>
<!-- Node25&#45;&gt;Node10 -->
<g id="edge14" class="edge">
<title>Node25&#45;&gt;Node10</title>
<path fill="none" stroke="midnightblue" d="M143.44,-95.59C153.95,-100.52 166.88,-106.58 178.08,-111.84"/>
<polygon fill="midnightblue" stroke="midnightblue" points="176.84,-115.13 187.38,-116.2 179.82,-108.79 176.84,-115.13"/>
</g>
<!-- Node25&#45;&gt;Node11 -->
<g id="edge15" class="edge">
<title>Node25&#45;&gt;Node11</title>
<path fill="none" stroke="midnightblue" d="M145.56,-86C155.43,-86 167.08,-86 177.37,-86"/>
<polygon fill="midnightblue" stroke="midnightblue" points="177.47,-89.5 187.46,-86 177.46,-82.5 177.47,-89.5"/>
</g>
<!-- Node25&#45;&gt;Node19 -->
<g id="edge16" class="edge">
<title>Node25&#45;&gt;Node19</title>
<path fill="none" stroke="midnightblue" d="M143.44,-76.41C152.84,-72 164.17,-66.69 174.48,-61.85"/>
<polygon fill="midnightblue" stroke="midnightblue" points="176,-65 183.57,-57.59 173.03,-58.66 176,-65"/>
</g>
<!-- Node25&#45;&gt;Node22 -->
<g id="edge17" class="edge">
<title>Node25&#45;&gt;Node22</title>
<path fill="none" stroke="midnightblue" d="M132.86,-76.15C144.45,-64.64 164.33,-45.14 182,-29 182.96,-28.12 183.96,-27.22 184.97,-26.32"/>
<polygon fill="midnightblue" stroke="midnightblue" points="187.49,-28.77 192.7,-19.55 182.87,-23.5 187.49,-28.77"/>
</g>
</g>
</svg>
