<?xml version="1.0" encoding="UTF-8" standalone="no"?>
<!DOCTYPE svg PUBLIC "-//W3C//DTD SVG 1.1//EN"
 "http://www.w3.org/Graphics/SVG/1.1/DTD/svg11.dtd">
<!-- Generated by graphviz version 2.46.0 (0)
 -->
<!-- Title: fail Pages: 1 -->
<svg width="332pt" height="66pt"
 viewBox="0.00 0.00 332.00 66.00" xmlns="http://www.w3.org/2000/svg" xmlns:xlink="http://www.w3.org/1999/xlink">
<g id="graph0" class="graph" transform="scale(1 1) rotate(0) translate(4 62)">
<title>fail</title>
<polygon fill="white" stroke="transparent" points="-4,4 -4,-62 328,-62 328,4 -4,4"/>
<!-- Node1 -->
<g id="node1" class="node">
<title>Node1</title>
<g id="a_node1"><a xlink:title=" ">
<polygon fill="#bfbfbf" stroke="black" points="0,-19.5 0,-38.5 29,-38.5 29,-19.5 0,-19.5"/>
<text text-anchor="middle" x="14.5" y="-26.5" font-family="Helvetica,sans-Serif" font-size="10.00">fail</text>
</a>
</g>
</g>
<!-- Node2 -->
<g id="node2" class="node">
<title>Node2</title>
<g id="a_node2"><a xlink:href="fail_8c.html#a016d8836ade99456457a913955d1dc3b" target="_top" xlink:title=" ">
<polygon fill="white" stroke="black" points="65,-19.5 65,-38.5 100,-38.5 100,-19.5 65,-19.5"/>
<text text-anchor="middle" x="82.5" y="-26.5" font-family="Helvetica,sans-Serif" font-size="10.00">vfail</text>
</a>
</g>
</g>
<!-- Node1&#45;&gt;Node2 -->
<g id="edge1" class="edge">
<title>Node1&#45;&gt;Node2</title>
<path fill="none" stroke="midnightblue" d="M29.18,-29C36.48,-29 45.73,-29 54.41,-29"/>
<polygon fill="midnightblue" stroke="midnightblue" points="54.56,-32.5 64.56,-29 54.56,-25.5 54.56,-32.5"/>
</g>
<!-- Node3 -->
<g id="node3" class="node">
<title>Node3</title>
<g id="a_node3"><a xlink:href="fail_8c.html#a6a96bcb04cc5efcd64cbeed06a292419" target="_top" xlink:title=" ">
<polygon fill="white" stroke="black" points="154.5,-38.5 154.5,-57.5 183.5,-57.5 183.5,-38.5 154.5,-38.5"/>
<text text-anchor="middle" x="169" y="-45.5" font-family="Helvetica,sans-Serif" font-size="10.00">die</text>
</a>
</g>
</g>
<!-- Node2&#45;&gt;Node3 -->
<g id="edge2" class="edge">
<title>Node2&#45;&gt;Node3</title>
<path fill="none" stroke="midnightblue" d="M100.19,-32.75C112.84,-35.6 130.39,-39.54 144.46,-42.71"/>
<polygon fill="midnightblue" stroke="midnightblue" points="143.88,-46.16 154.4,-44.94 145.42,-39.33 143.88,-46.16"/>
</g>
<!-- Node5 -->
<g id="node5" class="node">
<title>Node5</title>
<g id="a_node5"><a xlink:href="fail_8c.html#a92d8c60ba2ef526cc6aca428bc8770ce" target="_top" xlink:title=" ">
<polygon fill="white" stroke="black" points="136,-0.5 136,-19.5 202,-19.5 202,-0.5 136,-0.5"/>
<text text-anchor="middle" x="169" y="-7.5" font-family="Helvetica,sans-Serif" font-size="10.00">vdiagnostic</text>
</a>
</g>
</g>
<!-- Node2&#45;&gt;Node5 -->
<g id="edge4" class="edge">
<title>Node2&#45;&gt;Node5</title>
<path fill="none" stroke="midnightblue" d="M100.19,-25.25C107.68,-23.56 116.89,-21.49 126.07,-19.43"/>
<polygon fill="midnightblue" stroke="midnightblue" points="126.96,-22.82 135.94,-17.21 125.42,-15.99 126.96,-22.82"/>
</g>
<!-- Node4 -->
<g id="node4" class="node">
<title>Node4</title>
<g id="a_node4"><a xlink:href="fail_8c.html#ad6680e7618c5b06e1b9a49392485fe77" target="_top" xlink:title=" ">
<polygon fill="white" stroke="black" points="238,-38.5 238,-57.5 324,-57.5 324,-38.5 238,-38.5"/>
<text text-anchor="middle" x="281" y="-45.5" font-family="Helvetica,sans-Serif" font-size="10.00">userExitHandler</text>
</a>
</g>
</g>
<!-- Node3&#45;&gt;Node4 -->
<g id="edge3" class="edge">
<title>Node3&#45;&gt;Node4</title>
<path fill="none" stroke="midnightblue" d="M183.93,-48C195.03,-48 211.31,-48 227.32,-48"/>
<polygon fill="midnightblue" stroke="midnightblue" points="227.75,-51.5 237.75,-48 227.75,-44.5 227.75,-51.5"/>
</g>
</g>
</svg>
