<?xml version="1.0" encoding="UTF-8" standalone="no"?>
<!DOCTYPE svg PUBLIC "-//W3C//DTD SVG 1.1//EN"
 "http://www.w3.org/Graphics/SVG/1.1/DTD/svg11.dtd">
<!-- Generated by graphviz version 2.46.0 (0)
 -->
<!-- Title: vdiagnostic Pages: 1 -->
<svg width="366pt" height="180pt"
 viewBox="0.00 0.00 366.00 180.00" xmlns="http://www.w3.org/2000/svg" xmlns:xlink="http://www.w3.org/1999/xlink">
<g id="graph0" class="graph" transform="scale(1 1) rotate(0) translate(4 176)">
<title>vdiagnostic</title>
<polygon fill="white" stroke="transparent" points="-4,4 -4,-176 362,-176 362,4 -4,4"/>
<!-- Node1 -->
<g id="node1" class="node">
<title>Node1</title>
<g id="a_node1"><a xlink:title=" ">
<polygon fill="#bfbfbf" stroke="black" points="292,-95.5 292,-114.5 358,-114.5 358,-95.5 292,-95.5"/>
<text text-anchor="middle" x="325" y="-102.5" font-family="Helvetica,sans-Serif" font-size="10.00">vdiagnostic</text>
</a>
</g>
</g>
<!-- Node2 -->
<g id="node2" class="node">
<title>Node2</title>
<g id="a_node2"><a xlink:href="fail_8c.html#a3f0e9aca2bcb9ac0274be889ea70adc6" target="_top" xlink:title=" ">
<polygon fill="white" stroke="black" points="195,-114.5 195,-133.5 256,-133.5 256,-114.5 195,-114.5"/>
<text text-anchor="middle" x="225.5" y="-121.5" font-family="Helvetica,sans-Serif" font-size="10.00">diagnostic</text>
</a>
</g>
</g>
<!-- Node1&#45;&gt;Node2 -->
<g id="edge1" class="edge">
<title>Node1&#45;&gt;Node2</title>
<path fill="none" stroke="midnightblue" d="M281.8,-113.22C273.12,-114.92 264.15,-116.66 256.03,-118.25"/>
<polygon fill="midnightblue" stroke="midnightblue" points="282.66,-116.62 291.8,-111.27 281.32,-109.75 282.66,-116.62"/>
</g>
<!-- Node3 -->
<g id="node3" class="node">
<title>Node3</title>
<g id="a_node3"><a xlink:href="fail_8c.html#a016d8836ade99456457a913955d1dc3b" target="_top" xlink:title=" ">
<polygon fill="white" stroke="black" points="208,-76.5 208,-95.5 243,-95.5 243,-76.5 208,-76.5"/>
<text text-anchor="middle" x="225.5" y="-83.5" font-family="Helvetica,sans-Serif" font-size="10.00">vfail</text>
</a>
</g>
</g>
<!-- Node1&#45;&gt;Node3 -->
<g id="edge2" class="edge">
<title>Node1&#45;&gt;Node3</title>
<path fill="none" stroke="midnightblue" d="M281.59,-96.74C267.97,-94.08 253.68,-91.3 243.07,-89.23"/>
<polygon fill="midnightblue" stroke="midnightblue" points="281.32,-100.25 291.8,-98.73 282.66,-93.38 281.32,-100.25"/>
</g>
<!-- Node4 -->
<g id="node4" class="node">
<title>Node4</title>
<g id="a_node4"><a xlink:href="fail_8c.html#a9e0caa24596d5da82c0d6e25260e2ef0" target="_top" xlink:title=" ">
<polygon fill="white" stroke="black" points="130,-76.5 130,-95.5 159,-95.5 159,-76.5 130,-76.5"/>
<text text-anchor="middle" x="144.5" y="-83.5" font-family="Helvetica,sans-Serif" font-size="10.00">fail</text>
</a>
</g>
</g>
<!-- Node3&#45;&gt;Node4 -->
<g id="edge3" class="edge">
<title>Node3&#45;&gt;Node4</title>
<path fill="none" stroke="midnightblue" d="M197.49,-86C184.55,-86 169.61,-86 159.08,-86"/>
<polygon fill="midnightblue" stroke="midnightblue" points="197.75,-89.5 207.75,-86 197.75,-82.5 197.75,-89.5"/>
</g>
<!-- Node5 -->
<g id="node5" class="node">
<title>Node5</title>
<g id="a_node5"><a xlink:href="crs__hypre_8c.html#a51e11becc6c5f803cae8369ec5816469" target="_top" xlink:title=" ">
<polygon fill="white" stroke="black" points="4,-152.5 4,-171.5 90,-171.5 90,-152.5 4,-152.5"/>
<text text-anchor="middle" x="47" y="-159.5" font-family="Helvetica,sans-Serif" font-size="10.00">ccrs_hypre_free</text>
</a>
</g>
</g>
<!-- Node4&#45;&gt;Node5 -->
<g id="edge4" class="edge">
<title>Node4&#45;&gt;Node5</title>
<path fill="none" stroke="midnightblue" d="M131.4,-103.9C122.31,-116.24 108.9,-132.28 94,-143 88.95,-146.63 83.1,-149.73 77.3,-152.29"/>
<polygon fill="midnightblue" stroke="midnightblue" points="134.28,-105.88 137.22,-95.7 128.57,-101.83 134.28,-105.88"/>
</g>
<!-- Node6 -->
<g id="node6" class="node">
<title>Node6</title>
<g id="a_node6"><a xlink:href="crs_8h.html#a279174b8d32b492102194248bd96d706" target="_top" xlink:title=" ">
<polygon fill="white" stroke="black" points="0,-114.5 0,-133.5 94,-133.5 94,-114.5 0,-114.5"/>
<text text-anchor="middle" x="47" y="-121.5" font-family="Helvetica,sans-Serif" font-size="10.00">ccrs_hypre_setup</text>
</a>
</g>
</g>
<!-- Node4&#45;&gt;Node6 -->
<g id="edge5" class="edge">
<title>Node4&#45;&gt;Node6</title>
<path fill="none" stroke="midnightblue" d="M120.45,-95.17C105.79,-101 86.84,-108.55 71.99,-114.45"/>
<polygon fill="midnightblue" stroke="midnightblue" points="121.82,-98.39 129.82,-91.44 119.23,-91.89 121.82,-98.39"/>
</g>
<!-- Node7 -->
<g id="node7" class="node">
<title>Node7</title>
<g id="a_node7"><a xlink:href="comm_8c.html#a4ecfa6d8abe0d44845f0b58ab2a96e64" target="_top" xlink:title=" ">
<polygon fill="white" stroke="black" points="2,-76.5 2,-95.5 92,-95.5 92,-76.5 2,-76.5"/>
<text text-anchor="middle" x="47" y="-83.5" font-family="Helvetica,sans-Serif" font-size="10.00">comm_iallreduce</text>
</a>
</g>
</g>
<!-- Node4&#45;&gt;Node7 -->
<g id="edge6" class="edge">
<title>Node4&#45;&gt;Node7</title>
<path fill="none" stroke="midnightblue" d="M119.76,-86C111.43,-86 101.79,-86 92.33,-86"/>
<polygon fill="midnightblue" stroke="midnightblue" points="119.82,-89.5 129.82,-86 119.82,-82.5 119.82,-89.5"/>
</g>
<!-- Node8 -->
<g id="node8" class="node">
<title>Node8</title>
<g id="a_node8"><a xlink:href="fem__amg__preco_8c.html#ae8403449795de6118036c68d58db9ff8" target="_top" xlink:title=" ">
<polygon fill="white" stroke="black" points="4,-38.5 4,-57.5 90,-57.5 90,-38.5 4,-38.5"/>
<text text-anchor="middle" x="47" y="-45.5" font-family="Helvetica,sans-Serif" font-size="10.00">fem_amg_setup</text>
</a>
</g>
</g>
<!-- Node4&#45;&gt;Node8 -->
<g id="edge7" class="edge">
<title>Node4&#45;&gt;Node8</title>
<path fill="none" stroke="midnightblue" d="M120.45,-76.83C105.79,-71 86.84,-63.45 71.99,-57.55"/>
<polygon fill="midnightblue" stroke="midnightblue" points="119.23,-80.11 129.82,-80.56 121.82,-73.61 119.23,-80.11"/>
</g>
<!-- Node9 -->
<g id="node9" class="node">
<title>Node9</title>
<g id="a_node9"><a xlink:href="gslib_2src_2sort__imp_8h.html#a505134c756da7e5a1312fa13487435b4" target="_top" xlink:title=" ">
<polygon fill="white" stroke="black" points="28,-0.5 28,-19.5 66,-19.5 66,-0.5 28,-0.5"/>
<text text-anchor="middle" x="47" y="-7.5" font-family="Helvetica,sans-Serif" font-size="10.00">sortv</text>
</a>
</g>
</g>
<!-- Node4&#45;&gt;Node9 -->
<g id="edge8" class="edge">
<title>Node4&#45;&gt;Node9</title>
<path fill="none" stroke="midnightblue" d="M131.4,-68.1C122.31,-55.76 108.9,-39.72 94,-29 85.58,-22.94 74.95,-18.39 66.03,-15.26"/>
<polygon fill="midnightblue" stroke="midnightblue" points="128.57,-70.17 137.22,-76.3 134.28,-66.12 128.57,-70.17"/>
</g>
</g>
</svg>
