<?xml version="1.0" encoding="UTF-8" standalone="no"?>
<!DOCTYPE svg PUBLIC "-//W3C//DTD SVG 1.1//EN"
 "http://www.w3.org/Graphics/SVG/1.1/DTD/svg11.dtd">
<!-- Generated by graphviz version 2.46.0 (0)
 -->
<!-- Title: local_solves_fdm Pages: 1 -->
<svg width="410pt" height="294pt"
 viewBox="0.00 0.00 410.00 294.00" xmlns="http://www.w3.org/2000/svg" xmlns:xlink="http://www.w3.org/1999/xlink">
<g id="graph0" class="graph" transform="scale(1 1) rotate(0) translate(4 290)">
<title>local_solves_fdm</title>
<polygon fill="white" stroke="transparent" points="-4,4 -4,-290 406,-290 406,4 -4,4"/>
<!-- Node1 -->
<g id="node1" class="node">
<title>Node1</title>
<g id="a_node1"><a xlink:title=" ">
<polygon fill="#bfbfbf" stroke="black" points="0,-133.5 0,-152.5 92,-152.5 92,-133.5 0,-133.5"/>
<text text-anchor="middle" x="46" y="-140.5" font-family="Helvetica,sans-Serif" font-size="10.00">local_solves_fdm</text>
</a>
</g>
</g>
<!-- Node2 -->
<g id="node2" class="node">
<title>Node2</title>
<g id="a_node2"><a xlink:href="fasts_8f.html#aa8fc56b441461ca7120172e9d0607497" target="_top" xlink:title=" ">
<polygon fill="white" stroke="black" points="129.5,-266.5 129.5,-285.5 203.5,-285.5 203.5,-266.5 129.5,-266.5"/>
<text text-anchor="middle" x="166.5" y="-273.5" font-family="Helvetica,sans-Serif" font-size="10.00">dface_add1si</text>
</a>
</g>
</g>
<!-- Node1&#45;&gt;Node2 -->
<g id="edge1" class="edge">
<title>Node1&#45;&gt;Node2</title>
<path fill="none" stroke="midnightblue" d="M51.81,-152.75C62.75,-174.07 91.39,-225.47 128,-257 129.71,-258.47 131.55,-259.86 133.47,-261.17"/>
<polygon fill="midnightblue" stroke="midnightblue" points="131.81,-264.26 142.19,-266.4 135.41,-258.26 131.81,-264.26"/>
</g>
<!-- Node3 -->
<g id="node3" class="node">
<title>Node3</title>
<g id="a_node3"><a xlink:href="fasts_8f.html#a63db5cdcc66dff9bed317458c17523c1" target="_top" xlink:title=" ">
<polygon fill="white" stroke="black" points="137,-228.5 137,-247.5 196,-247.5 196,-228.5 137,-228.5"/>
<text text-anchor="middle" x="166.5" y="-235.5" font-family="Helvetica,sans-Serif" font-size="10.00">dface_ext</text>
</a>
</g>
</g>
<!-- Node1&#45;&gt;Node3 -->
<g id="edge2" class="edge">
<title>Node1&#45;&gt;Node3</title>
<path fill="none" stroke="midnightblue" d="M57.06,-152.71C71.98,-166.89 101.09,-193.78 128,-214 132.04,-217.03 136.45,-220.08 140.79,-222.94"/>
<polygon fill="midnightblue" stroke="midnightblue" points="139.14,-226.04 149.45,-228.47 142.91,-220.14 139.14,-226.04"/>
</g>
<!-- Node4 -->
<g id="node4" class="node">
<title>Node4</title>
<g id="a_node4"><a xlink:href="comm__mpi_8f.html#af06ec29f06aac3f8809e19de2a7e8946" target="_top" xlink:title=" ">
<polygon fill="white" stroke="black" points="241,-152.5 241,-171.5 302,-171.5 302,-152.5 241,-152.5"/>
<text text-anchor="middle" x="271.5" y="-159.5" font-family="Helvetica,sans-Serif" font-size="10.00">dnekclock</text>
</a>
</g>
</g>
<!-- Node1&#45;&gt;Node4 -->
<g id="edge3" class="edge">
<title>Node1&#45;&gt;Node4</title>
<path fill="none" stroke="midnightblue" d="M62.1,-152.57C77.85,-161.93 103.59,-175.56 128,-181 161.4,-188.45 171.12,-185.81 205,-181 214.64,-179.63 224.85,-177.18 234.26,-174.48"/>
<polygon fill="midnightblue" stroke="midnightblue" points="235.55,-177.75 244.1,-171.5 233.52,-171.05 235.55,-177.75"/>
</g>
<!-- Node6 -->
<g id="node6" class="node">
<title>Node6</title>
<g id="a_node6"><a xlink:href="fasts_8f.html#ac760e0162c8437ea1a71c435f2c5e952" target="_top" xlink:title=" ">
<polygon fill="white" stroke="black" points="128,-152.5 128,-171.5 205,-171.5 205,-152.5 128,-152.5"/>
<text text-anchor="middle" x="166.5" y="-159.5" font-family="Helvetica,sans-Serif" font-size="10.00">do_weight_op</text>
</a>
</g>
</g>
<!-- Node1&#45;&gt;Node6 -->
<g id="edge5" class="edge">
<title>Node1&#45;&gt;Node6</title>
<path fill="none" stroke="midnightblue" d="M92.14,-150.24C100.51,-151.58 109.28,-152.99 117.72,-154.34"/>
<polygon fill="midnightblue" stroke="midnightblue" points="117.39,-157.83 127.82,-155.96 118.5,-150.92 117.39,-157.83"/>
</g>
<!-- Node7 -->
<g id="node7" class="node">
<title>Node7</title>
<g id="a_node7"><a xlink:href="dssum_8f.html#ad67373714b1c3bafed536081167e2cd6" target="_top" xlink:title=" ">
<polygon fill="white" stroke="red" points="143.5,-114.5 143.5,-133.5 189.5,-133.5 189.5,-114.5 143.5,-114.5"/>
<text text-anchor="middle" x="166.5" y="-121.5" font-family="Helvetica,sans-Serif" font-size="10.00">dssum</text>
</a>
</g>
</g>
<!-- Node1&#45;&gt;Node7 -->
<g id="edge6" class="edge">
<title>Node1&#45;&gt;Node7</title>
<path fill="none" stroke="midnightblue" d="M92.14,-135.76C105.83,-133.57 120.59,-131.2 133.26,-129.17"/>
<polygon fill="midnightblue" stroke="midnightblue" points="134.02,-132.59 143.34,-127.55 132.91,-125.68 134.02,-132.59"/>
</g>
<!-- Node10 -->
<g id="node8" class="node">
<title>Node10</title>
<g id="a_node8"><a xlink:href="fasts_8f.html#ae4ffd1107924214c455b887f532e2e25" target="_top" xlink:title=" ">
<polygon fill="white" stroke="red" points="140.5,-76.5 140.5,-95.5 192.5,-95.5 192.5,-76.5 140.5,-76.5"/>
<text text-anchor="middle" x="166.5" y="-83.5" font-family="Helvetica,sans-Serif" font-size="10.00">fastdm1</text>
</a>
</g>
</g>
<!-- Node1&#45;&gt;Node10 -->
<g id="edge8" class="edge">
<title>Node1&#45;&gt;Node10</title>
<path fill="none" stroke="midnightblue" d="M66.83,-133.46C85.89,-124.29 114.9,-110.34 136.54,-99.93"/>
<polygon fill="midnightblue" stroke="midnightblue" points="138.11,-103.06 145.6,-95.57 135.07,-96.75 138.11,-103.06"/>
</g>
<!-- Node16 -->
<g id="node9" class="node">
<title>Node16</title>
<g id="a_node9"><a xlink:href="math_8f.html#af44de42b023a4a68cd98ea341204342d" target="_top" xlink:title=" ">
<polygon fill="white" stroke="black" points="147.5,-38.5 147.5,-57.5 185.5,-57.5 185.5,-38.5 147.5,-38.5"/>
<text text-anchor="middle" x="166.5" y="-45.5" font-family="Helvetica,sans-Serif" font-size="10.00">rzero</text>
</a>
</g>
</g>
<!-- Node1&#45;&gt;Node16 -->
<g id="edge9" class="edge">
<title>Node1&#45;&gt;Node16</title>
<path fill="none" stroke="midnightblue" d="M55.72,-133.18C69.81,-117.72 98.94,-87.36 128,-67 131.27,-64.71 134.85,-62.53 138.47,-60.52"/>
<polygon fill="midnightblue" stroke="midnightblue" points="140.09,-63.62 147.35,-55.9 136.87,-57.41 140.09,-63.62"/>
</g>
<!-- Node17 -->
<g id="node10" class="node">
<title>Node17</title>
<g id="a_node10"><a xlink:href="fasts_8f.html#a54d901fabdc331c56c38f89c30f7efe8" target="_top" xlink:title=" ">
<polygon fill="white" stroke="black" points="129,-0.5 129,-19.5 204,-19.5 204,-0.5 129,-0.5"/>
<text text-anchor="middle" x="166.5" y="-7.5" font-family="Helvetica,sans-Serif" font-size="10.00">s_face_to_int</text>
</a>
</g>
</g>
<!-- Node1&#45;&gt;Node17 -->
<g id="edge10" class="edge">
<title>Node1&#45;&gt;Node17</title>
<path fill="none" stroke="midnightblue" d="M51.81,-133.25C62.75,-111.93 91.39,-60.53 128,-29 129.71,-27.53 131.55,-26.14 133.47,-24.83"/>
<polygon fill="midnightblue" stroke="midnightblue" points="135.41,-27.74 142.19,-19.6 131.81,-21.74 135.41,-27.74"/>
</g>
<!-- Node5 -->
<g id="node5" class="node">
<title>Node5</title>
<g id="a_node5"><a xlink:href="mpi__dummy_8f.html#ae6a5ef945f87c2c27849696b70f3af2a" target="_top" xlink:title=" ">
<polygon fill="white" stroke="black" points="338,-152.5 338,-171.5 402,-171.5 402,-152.5 338,-152.5"/>
<text text-anchor="middle" x="370" y="-159.5" font-family="Helvetica,sans-Serif" font-size="10.00">mpi_wtime</text>
</a>
</g>
</g>
<!-- Node4&#45;&gt;Node5 -->
<g id="edge4" class="edge">
<title>Node4&#45;&gt;Node5</title>
<path fill="none" stroke="midnightblue" d="M302.24,-162C310.27,-162 319.11,-162 327.65,-162"/>
<polygon fill="midnightblue" stroke="midnightblue" points="327.85,-165.5 337.85,-162 327.85,-158.5 327.85,-165.5"/>
</g>
<!-- Node7&#45;&gt;Node4 -->
<g id="edge7" class="edge">
<title>Node7&#45;&gt;Node4</title>
<path fill="none" stroke="midnightblue" d="M189.6,-132.15C202.79,-137.02 219.84,-143.31 234.89,-148.86"/>
<polygon fill="midnightblue" stroke="midnightblue" points="233.84,-152.21 244.43,-152.38 236.26,-145.64 233.84,-152.21"/>
</g>
</g>
</svg>
