<?xml version="1.0" encoding="UTF-8" standalone="no"?>
<!DOCTYPE svg PUBLIC "-//W3C//DTD SVG 1.1//EN"
 "http://www.w3.org/Graphics/SVG/1.1/DTD/svg11.dtd">
<!-- Generated by graphviz version 2.46.0 (0)
 -->
<!-- Title: gen_fast Pages: 1 -->
<svg width="293pt" height="322pt"
 viewBox="0.00 0.00 293.00 321.68" xmlns="http://www.w3.org/2000/svg" xmlns:xlink="http://www.w3.org/1999/xlink">
<g id="graph0" class="graph" transform="scale(1 1) rotate(0) translate(4 317.68)">
<title>gen_fast</title>
<polygon fill="white" stroke="transparent" points="-4,4 -4,-317.68 289,-317.68 289,4 -4,4"/>
<!-- Node1 -->
<g id="node1" class="node">
<title>Node1</title>
<g id="a_node1"><a xlink:title=" ">
<polygon fill="#bfbfbf" stroke="black" points="0,-152.5 0,-171.5 54,-171.5 54,-152.5 0,-152.5"/>
<text text-anchor="middle" x="27" y="-159.5" font-family="Helvetica,sans-Serif" font-size="10.00">gen_fast</text>
</a>
</g>
</g>
<!-- Node2 -->
<g id="node2" class="node">
<title>Node2</title>
<g id="a_node2"><a xlink:href="comm__mpi_8f.html#a59fcf8a02fe54ab37f61050e3ca6b197" target="_top" xlink:title=" ">
<polygon fill="white" stroke="red" points="247,-285.5 247,-304.5 285,-304.5 285,-285.5 247,-285.5"/>
<text text-anchor="middle" x="266" y="-292.5" font-family="Helvetica,sans-Serif" font-size="10.00">exitti</text>
</a>
</g>
</g>
<!-- Node1&#45;&gt;Node2 -->
<g id="edge1" class="edge">
<title>Node1&#45;&gt;Node2</title>
<path fill="none" stroke="midnightblue" d="M29.06,-171.64C32.44,-197.19 45.53,-266.66 90,-295 134.78,-323.53 199.97,-313.11 236.84,-303.62"/>
<polygon fill="midnightblue" stroke="midnightblue" points="238.16,-306.89 246.88,-300.88 236.31,-300.14 238.16,-306.89"/>
</g>
<!-- Node9 -->
<g id="node3" class="node">
<title>Node9</title>
<g id="a_node3"><a xlink:href="fast3d_8f.html#ab60c76ed10c432bca639d052ca18f115" target="_top" xlink:title=" ">
<polygon fill="white" stroke="red" points="116.5,-266.5 116.5,-285.5 184.5,-285.5 184.5,-266.5 116.5,-266.5"/>
<text text-anchor="middle" x="150.5" y="-273.5" font-family="Helvetica,sans-Serif" font-size="10.00">get_fast_bc</text>
</a>
</g>
</g>
<!-- Node1&#45;&gt;Node9 -->
<g id="edge2" class="edge">
<title>Node1&#45;&gt;Node9</title>
<path fill="none" stroke="midnightblue" d="M31.68,-171.65C39.47,-190.79 59.45,-233.73 90,-257 95.04,-260.84 100.88,-263.91 106.88,-266.37"/>
<polygon fill="midnightblue" stroke="midnightblue" points="105.78,-269.7 116.38,-269.76 108.13,-263.1 105.78,-269.7"/>
</g>
<!-- Node11 -->
<g id="node4" class="node">
<title>Node11</title>
<g id="a_node4"><a xlink:href="math_8f.html#a8431e1799f5711943b2e061a602754ca" target="_top" xlink:title=" ">
<polygon fill="white" stroke="red" points="128,-228.5 128,-247.5 173,-247.5 173,-228.5 128,-228.5"/>
<text text-anchor="middle" x="150.5" y="-235.5" font-family="Helvetica,sans-Serif" font-size="10.00">iglmax</text>
</a>
</g>
</g>
<!-- Node1&#45;&gt;Node11 -->
<g id="edge4" class="edge">
<title>Node1&#45;&gt;Node11</title>
<path fill="none" stroke="midnightblue" d="M36.24,-171.86C47.26,-184.48 68,-206.22 90,-219 98.61,-224 108.69,-227.86 118.09,-230.75"/>
<polygon fill="midnightblue" stroke="midnightblue" points="117.34,-234.17 127.91,-233.51 119.23,-227.43 117.34,-234.17"/>
</g>
<!-- Node14 -->
<g id="node5" class="node">
<title>Node14</title>
<g id="a_node5"><a xlink:href="fast3d_8f.html#a5d83946a3a3018cd7937d2c63e30b0e8" target="_top" xlink:title=" ">
<polygon fill="white" stroke="red" points="98,-190.5 98,-209.5 203,-209.5 203,-190.5 98,-190.5"/>
<text text-anchor="middle" x="150.5" y="-197.5" font-family="Helvetica,sans-Serif" font-size="10.00">set_up_fast_1d_fem</text>
</a>
</g>
</g>
<!-- Node1&#45;&gt;Node14 -->
<g id="edge5" class="edge">
<title>Node1&#45;&gt;Node14</title>
<path fill="none" stroke="midnightblue" d="M54.06,-170.15C70.07,-175.16 90.9,-181.67 109.01,-187.34"/>
<polygon fill="midnightblue" stroke="midnightblue" points="108.16,-190.74 118.75,-190.38 110.25,-184.06 108.16,-190.74"/>
</g>
<!-- Node36 -->
<g id="node6" class="node">
<title>Node36</title>
<g id="a_node6"><a xlink:href="fast3d_8f.html#a85f74f8de2b2773b2ad0b77f5ec35e23" target="_top" xlink:title=" ">
<polygon fill="white" stroke="red" points="90,-152.5 90,-171.5 211,-171.5 211,-152.5 90,-152.5"/>
<text text-anchor="middle" x="150.5" y="-159.5" font-family="Helvetica,sans-Serif" font-size="10.00">set_up_fast_1d_fem_ax</text>
</a>
</g>
</g>
<!-- Node1&#45;&gt;Node36 -->
<g id="edge6" class="edge">
<title>Node1&#45;&gt;Node36</title>
<path fill="none" stroke="midnightblue" d="M54.06,-162C61.66,-162 70.35,-162 79.32,-162"/>
<polygon fill="midnightblue" stroke="midnightblue" points="79.52,-165.5 89.52,-162 79.52,-158.5 79.52,-165.5"/>
</g>
<!-- Node39 -->
<g id="node7" class="node">
<title>Node39</title>
<g id="a_node7"><a xlink:href="fast3d_8f.html#a05d4e543e6504bffe2f7b080de6f71cf" target="_top" xlink:title=" ">
<polygon fill="white" stroke="red" points="97,-114.5 97,-133.5 204,-133.5 204,-114.5 97,-114.5"/>
<text text-anchor="middle" x="150.5" y="-121.5" font-family="Helvetica,sans-Serif" font-size="10.00">set_up_fast_1d_sem</text>
</a>
</g>
</g>
<!-- Node1&#45;&gt;Node39 -->
<g id="edge7" class="edge">
<title>Node1&#45;&gt;Node39</title>
<path fill="none" stroke="midnightblue" d="M54.06,-153.85C70.07,-148.84 90.9,-142.33 109.01,-136.66"/>
<polygon fill="midnightblue" stroke="midnightblue" points="110.25,-139.94 118.75,-133.62 108.16,-133.26 110.25,-139.94"/>
</g>
<!-- Node26 -->
<g id="node8" class="node">
<title>Node26</title>
<g id="a_node8"><a xlink:href="math_8f.html#a3a4077924e14ce175a0d9991f9006d16" target="_top" xlink:title=" ">
<polygon fill="white" stroke="black" points="129,-76.5 129,-95.5 172,-95.5 172,-76.5 129,-76.5"/>
<text text-anchor="middle" x="150.5" y="-83.5" font-family="Helvetica,sans-Serif" font-size="10.00">vlmax</text>
</a>
</g>
</g>
<!-- Node1&#45;&gt;Node26 -->
<g id="edge8" class="edge">
<title>Node1&#45;&gt;Node26</title>
<path fill="none" stroke="midnightblue" d="M36.24,-152.14C47.26,-139.52 68,-117.78 90,-105 98.91,-99.83 109.4,-95.88 119.07,-92.95"/>
<polygon fill="midnightblue" stroke="midnightblue" points="120.05,-96.31 128.75,-90.27 118.18,-89.57 120.05,-96.31"/>
</g>
<!-- Node89 -->
<g id="node9" class="node">
<title>Node89</title>
<g id="a_node9"><a xlink:href="math_8f.html#ab07e2f3ed4f12e1651e80df2497ffaa2" target="_top" xlink:title=" ">
<polygon fill="white" stroke="black" points="130.5,-38.5 130.5,-57.5 170.5,-57.5 170.5,-38.5 130.5,-38.5"/>
<text text-anchor="middle" x="150.5" y="-45.5" font-family="Helvetica,sans-Serif" font-size="10.00">vlsc2</text>
</a>
</g>
</g>
<!-- Node1&#45;&gt;Node89 -->
<g id="edge9" class="edge">
<title>Node1&#45;&gt;Node89</title>
<path fill="none" stroke="midnightblue" d="M31.68,-152.35C39.47,-133.21 59.45,-90.27 90,-67 98.8,-60.3 110.03,-55.92 120.36,-53.08"/>
<polygon fill="midnightblue" stroke="midnightblue" points="121.35,-56.44 130.27,-50.72 119.73,-49.63 121.35,-56.44"/>
</g>
<!-- Node28 -->
<g id="node10" class="node">
<title>Node28</title>
<g id="a_node10"><a xlink:href="math_8f.html#a77c801497edba9cfca69fc6f8fe6f5b1" target="_top" xlink:title=" ">
<polygon fill="white" stroke="black" points="129,-0.5 129,-19.5 172,-19.5 172,-0.5 129,-0.5"/>
<text text-anchor="middle" x="150.5" y="-7.5" font-family="Helvetica,sans-Serif" font-size="10.00">vlsum</text>
</a>
</g>
</g>
<!-- Node1&#45;&gt;Node28 -->
<g id="edge10" class="edge">
<title>Node1&#45;&gt;Node28</title>
<path fill="none" stroke="midnightblue" d="M29.73,-152.38C34.62,-128.04 50.8,-63.51 90,-29 98.12,-21.85 108.94,-17.39 119.13,-14.61"/>
<polygon fill="midnightblue" stroke="midnightblue" points="120.03,-17.99 128.99,-12.34 118.46,-11.17 120.03,-17.99"/>
</g>
<!-- Node9&#45;&gt;Node2 -->
<g id="edge3" class="edge">
<title>Node9&#45;&gt;Node2</title>
<path fill="none" stroke="midnightblue" d="M184.63,-281.55C201.11,-284.31 220.83,-287.61 236.61,-290.25"/>
<polygon fill="midnightblue" stroke="midnightblue" points="236.37,-293.76 246.81,-291.96 237.53,-286.85 236.37,-293.76"/>
</g>
</g>
</svg>
