<?xml version="1.0" encoding="UTF-8" standalone="no"?>
<!DOCTYPE svg PUBLIC "-//W3C//DTD SVG 1.1//EN"
 "http://www.w3.org/Graphics/SVG/1.1/DTD/svg11.dtd">
<!-- Generated by graphviz version 2.46.0 (0)
 -->
<!-- Title: set_up_1d_geom_ax Pages: 1 -->
<svg width="443pt" height="180pt"
 viewBox="0.00 0.00 443.00 180.00" xmlns="http://www.w3.org/2000/svg" xmlns:xlink="http://www.w3.org/1999/xlink">
<g id="graph0" class="graph" transform="scale(1 1) rotate(0) translate(4 176)">
<title>set_up_1d_geom_ax</title>
<polygon fill="white" stroke="transparent" points="-4,4 -4,-176 439,-176 439,4 -4,4"/>
<!-- Node1 -->
<g id="node1" class="node">
<title>Node1</title>
<g id="a_node1"><a xlink:title=" ">
<polygon fill="#bfbfbf" stroke="black" points="0,-95.5 0,-114.5 107,-114.5 107,-95.5 0,-95.5"/>
<text text-anchor="middle" x="53.5" y="-102.5" font-family="Helvetica,sans-Serif" font-size="10.00">set_up_1d_geom_ax</text>
</a>
</g>
</g>
<!-- Node2 -->
<g id="node2" class="node">
<title>Node2</title>
<g id="a_node2"><a xlink:href="math_8f.html#ae1294c8ac3b5b3c38bbcc250d252b9cb" target="_top" xlink:title=" ">
<polygon fill="white" stroke="black" points="145.5,-114.5 145.5,-133.5 180.5,-133.5 180.5,-114.5 145.5,-114.5"/>
<text text-anchor="middle" x="163" y="-121.5" font-family="Helvetica,sans-Serif" font-size="10.00">rone</text>
</a>
</g>
</g>
<!-- Node1&#45;&gt;Node2 -->
<g id="edge1" class="edge">
<title>Node1&#45;&gt;Node2</title>
<path fill="none" stroke="midnightblue" d="M107.31,-114.33C117.01,-116.05 126.76,-117.77 135.28,-119.28"/>
<polygon fill="midnightblue" stroke="midnightblue" points="134.87,-122.76 145.33,-121.05 136.09,-115.87 134.87,-122.76"/>
</g>
<!-- Node3 -->
<g id="node3" class="node">
<title>Node3</title>
<g id="a_node3"><a xlink:href="connect2_8f.html#a6e862f603b59c81091476a690c5e94ee" target="_top" xlink:title=" ">
<polygon fill="white" stroke="black" points="143,-76.5 143,-95.5 183,-95.5 183,-76.5 143,-76.5"/>
<text text-anchor="middle" x="163" y="-83.5" font-family="Helvetica,sans-Serif" font-size="10.00">scale</text>
</a>
</g>
</g>
<!-- Node1&#45;&gt;Node3 -->
<g id="edge2" class="edge">
<title>Node1&#45;&gt;Node3</title>
<path fill="none" stroke="midnightblue" d="M107.31,-95.67C116.17,-94.1 125.06,-92.53 133.03,-91.12"/>
<polygon fill="midnightblue" stroke="midnightblue" points="133.64,-94.57 142.88,-89.38 132.43,-87.67 133.64,-94.57"/>
</g>
<!-- Node4 -->
<g id="node4" class="node">
<title>Node4</title>
<g id="a_node4"><a xlink:href="math_8f.html#ac231f0566c16504dadd6ba0f16a38bd9" target="_top" xlink:title=" ">
<polygon fill="white" stroke="black" points="224,-152.5 224,-171.5 267,-171.5 267,-152.5 224,-152.5"/>
<text text-anchor="middle" x="245.5" y="-159.5" font-family="Helvetica,sans-Serif" font-size="10.00">glsum</text>
</a>
</g>
</g>
<!-- Node3&#45;&gt;Node4 -->
<g id="edge3" class="edge">
<title>Node3&#45;&gt;Node4</title>
<path fill="none" stroke="midnightblue" d="M174.13,-95.59C185.16,-106.03 203.32,-123.21 219,-138 221.48,-140.34 224.09,-142.8 226.66,-145.22"/>
<polygon fill="midnightblue" stroke="midnightblue" points="224.39,-147.89 234.07,-152.2 229.19,-142.79 224.39,-147.89"/>
</g>
<!-- Node5 -->
<g id="node5" class="node">
<title>Node5</title>
<g id="a_node5"><a xlink:href="gs__test__gop__blocking_8c.html#ab2e24f9857f6d1ded7e4d556c6bc5e49" target="_top" xlink:title=" ">
<polygon fill="white" stroke="black" points="308,-114.5 308,-133.5 340,-133.5 340,-114.5 308,-114.5"/>
<text text-anchor="middle" x="324" y="-121.5" font-family="Helvetica,sans-Serif" font-size="10.00">gop</text>
</a>
</g>
</g>
<!-- Node3&#45;&gt;Node5 -->
<g id="edge6" class="edge">
<title>Node3&#45;&gt;Node5</title>
<path fill="none" stroke="midnightblue" d="M183.12,-93.41C193.6,-97.26 206.88,-101.82 219,-105 245.46,-111.94 276.35,-117.24 297.56,-120.46"/>
<polygon fill="midnightblue" stroke="midnightblue" points="297.28,-123.95 307.68,-121.95 298.3,-117.03 297.28,-123.95"/>
</g>
<!-- Node7 -->
<g id="node7" class="node">
<title>Node7</title>
<g id="a_node7"><a xlink:href="connect2_8f.html#a15434c453b53c83ba2cb2a768d35085e" target="_top" xlink:title=" ">
<polygon fill="white" stroke="black" points="226.5,-76.5 226.5,-95.5 264.5,-95.5 264.5,-76.5 226.5,-76.5"/>
<text text-anchor="middle" x="245.5" y="-83.5" font-family="Helvetica,sans-Serif" font-size="10.00">inrtia</text>
</a>
</g>
</g>
<!-- Node3&#45;&gt;Node7 -->
<g id="edge7" class="edge">
<title>Node3&#45;&gt;Node7</title>
<path fill="none" stroke="midnightblue" d="M183.08,-86C193.01,-86 205.36,-86 216.36,-86"/>
<polygon fill="midnightblue" stroke="midnightblue" points="216.39,-89.5 226.39,-86 216.39,-82.5 216.39,-89.5"/>
</g>
<!-- Node8 -->
<g id="node8" class="node">
<title>Node8</title>
<g id="a_node8"><a xlink:href="math_8f.html#af44de42b023a4a68cd98ea341204342d" target="_top" xlink:title=" ">
<polygon fill="white" stroke="black" points="226.5,-38.5 226.5,-57.5 264.5,-57.5 264.5,-38.5 226.5,-38.5"/>
<text text-anchor="middle" x="245.5" y="-45.5" font-family="Helvetica,sans-Serif" font-size="10.00">rzero</text>
</a>
</g>
</g>
<!-- Node3&#45;&gt;Node8 -->
<g id="edge9" class="edge">
<title>Node3&#45;&gt;Node8</title>
<path fill="none" stroke="midnightblue" d="M183.08,-76.99C193.22,-72.21 205.87,-66.24 217.04,-60.96"/>
<polygon fill="midnightblue" stroke="midnightblue" points="218.84,-63.98 226.39,-56.55 215.85,-57.65 218.84,-63.98"/>
</g>
<!-- Node9 -->
<g id="node9" class="node">
<title>Node9</title>
<g id="a_node9"><a xlink:href="connect2_8f.html#a87e4cf77e2fcb243172fa8da88d5dfae" target="_top" xlink:title=" ">
<polygon fill="white" stroke="black" points="219,-0.5 219,-19.5 272,-19.5 272,-0.5 219,-0.5"/>
<text text-anchor="middle" x="245.5" y="-7.5" font-family="Helvetica,sans-Serif" font-size="10.00">volume2</text>
</a>
</g>
</g>
<!-- Node3&#45;&gt;Node9 -->
<g id="edge10" class="edge">
<title>Node3&#45;&gt;Node9</title>
<path fill="none" stroke="midnightblue" d="M172.51,-76.25C182.96,-64.51 201.45,-44.45 219,-29 220.14,-28 221.33,-26.99 222.54,-25.99"/>
<polygon fill="midnightblue" stroke="midnightblue" points="224.94,-28.56 230.68,-19.66 220.64,-23.04 224.94,-28.56"/>
</g>
<!-- Node4&#45;&gt;Node5 -->
<g id="edge4" class="edge">
<title>Node4&#45;&gt;Node5</title>
<path fill="none" stroke="midnightblue" d="M265.8,-152.41C275.7,-147.5 287.86,-141.46 298.42,-136.21"/>
<polygon fill="midnightblue" stroke="midnightblue" points="300.15,-139.26 307.55,-131.67 297.04,-132.99 300.15,-139.26"/>
</g>
<!-- Node6 -->
<g id="node6" class="node">
<title>Node6</title>
<g id="a_node6"><a xlink:href="math_8f.html#a17c0ecae12cc5c6096939885da90ad2b" target="_top" xlink:title=" ">
<polygon fill="white" stroke="black" points="376,-114.5 376,-133.5 435,-133.5 435,-114.5 376,-114.5"/>
<text text-anchor="middle" x="405.5" y="-121.5" font-family="Helvetica,sans-Serif" font-size="10.00">transpose</text>
</a>
</g>
</g>
<!-- Node5&#45;&gt;Node6 -->
<g id="edge5" class="edge">
<title>Node5&#45;&gt;Node6</title>
<path fill="none" stroke="midnightblue" d="M340.33,-124C347.61,-124 356.67,-124 365.67,-124"/>
<polygon fill="midnightblue" stroke="midnightblue" points="365.7,-127.5 375.7,-124 365.7,-120.5 365.7,-127.5"/>
</g>
<!-- Node7&#45;&gt;Node5 -->
<g id="edge8" class="edge">
<title>Node7&#45;&gt;Node5</title>
<path fill="none" stroke="midnightblue" d="M264.63,-95.01C274.81,-100.06 287.66,-106.44 298.7,-111.93"/>
<polygon fill="midnightblue" stroke="midnightblue" points="297.32,-115.15 307.83,-116.47 300.43,-108.88 297.32,-115.15"/>
</g>
</g>
</svg>
