<?xml version="1.0" encoding="UTF-8" standalone="no"?>
<!DOCTYPE svg PUBLIC "-//W3C//DTD SVG 1.1//EN"
 "http://www.w3.org/Graphics/SVG/1.1/DTD/svg11.dtd">
<!-- Generated by graphviz version 2.46.0 (0)
 -->
<!-- Title: local_solves_fdm Pages: 1 -->
<!--zoomable 66 -->
<svg id="main" version="1.1" xmlns="http://www.w3.org/2000/svg" xmlns:xlink="http://www.w3.org/1999/xlink" xml:space="preserve" onload="init(evt)">
<style type="text/css"><![CDATA[
.edge:hover path { stroke: red; }
.edge:hover polygon { stroke: red; fill: red; }
]]></style>
<script type="text/javascript"><![CDATA[
var edges = document.getElementsByTagName('g');
if (edges && edges.length) {
  for (var i=0;i<edges.length;i++) {
    if (edges[i].id.substr(0,4)=='edge') {
      edges[i].setAttribute('class','edge');
    }
  }
}
]]></script>
        <defs>
                <circle id="rim" cx="0" cy="0" r="7"/>
                <circle id="rim2" cx="0" cy="0" r="3.5"/>
                <g id="zoomPlus">
                        <use xlink:href="#rim" fill="#404040">
                                <set attributeName="fill" to="#808080" begin="zoomplus.mouseover" end="zoomplus.mouseout"/>
                        </use>
                        <path d="M-4,0h8M0,-4v8" fill="none" stroke="white" stroke-width="1.5" pointer-events="none"/>
                </g>
                <g id="zoomMin">
                        <use xlink:href="#rim" fill="#404040">
                                <set attributeName="fill" to="#808080" begin="zoomminus.mouseover" end="zoomminus.mouseout"/>
                        </use>
                        <path d="M-4,0h8" fill="none" stroke="white" stroke-width="1.5" pointer-events="none"/>
                </g>
                <g id="dirArrow">
                        <path fill="none" stroke="white" stroke-width="1.5" d="M0,-3.0v7 M-2.5,-0.5L0,-3.0L2.5,-0.5"/>
                </g>
               <g id="resetDef">
                       <use xlink:href="#rim2" fill="#404040">
                               <set attributeName="fill" to="#808080" begin="reset.mouseover" end="reset.mouseout"/>
                       </use>
               </g>
        </defs>

<script type="text/javascript">
var viewWidth = 671;
var viewHeight = 66;
var sectionId = 'dynsection-8';
</script>
<script xlink:href="svgpan.js"/>
<svg id="graph" class="graph">
<g id="viewport">
<title>local_solves_fdm</title>
<polygon fill="white" stroke="transparent" points="-4,4 -4,-62 667,-62 667,4 -4,4"/>
<!-- Node1 -->
<g id="node1" class="node">
<title>Node1</title>
<g id="a_node1"><a xlink:title=" ">
<polygon fill="#bfbfbf" stroke="black" points="571,-19.5 571,-38.5 663,-38.5 663,-19.5 571,-19.5"/>
<text text-anchor="middle" x="617" y="-26.5" font-family="Helvetica,sans-Serif" font-size="10.00">local_solves_fdm</text>
</a>
</g>
</g>
<!-- Node2 -->
<g id="node2" class="node">
<title>Node2</title>
<g id="a_node2"><a xlink:href="navier3_8f.html#af669ac1ac644d9b0594f8e305471b0aa" target="_top" xlink:title=" ">
<polygon fill="white" stroke="black" points="476,-38.5 476,-57.5 535,-57.5 535,-38.5 476,-38.5"/>
<text text-anchor="middle" x="505.5" y="-45.5" font-family="Helvetica,sans-Serif" font-size="10.00">dd_solver</text>
</a>
</g>
</g>
<!-- Node1&#45;&gt;Node2 -->
<g id="edge1" class="edge">
<title>Node1&#45;&gt;Node2</title>
<path fill="none" stroke="midnightblue" d="M560.88,-38.56C552.02,-40.1 543.18,-41.63 535.28,-43.01"/>
<polygon fill="midnightblue" stroke="midnightblue" points="561.58,-42 570.83,-36.84 560.38,-35.1 561.58,-42"/>
</g>
<!-- Node38 -->
<g id="node10" class="node">
<title>Node38</title>
<g id="a_node10"><a xlink:href="hsmg_8f.html#ab28b637ce952431f92c7210efdd23b52" target="_top" xlink:title=" ">
<polygon fill="white" stroke="black" points="371,-0.5 371,-19.5 440,-19.5 440,-0.5 371,-0.5"/>
<text text-anchor="middle" x="405.5" y="-7.5" font-family="Helvetica,sans-Serif" font-size="10.00">hsmg_solve</text>
</a>
</g>
</g>
<!-- Node1&#45;&gt;Node38 -->
<g id="edge10" class="edge">
<title>Node1&#45;&gt;Node38</title>
<path fill="none" stroke="midnightblue" d="M560.83,-24C522.55,-20.53 472.79,-16.01 440.27,-13.06"/>
<polygon fill="midnightblue" stroke="midnightblue" points="560.52,-27.48 570.8,-24.9 561.16,-20.51 560.52,-27.48"/>
</g>
<!-- Node3 -->
<g id="node3" class="node">
<title>Node3</title>
<g id="a_node3"><a xlink:href="navier3_8f.html#a7b3bc6faab84d98556026751dbf434ef" target="_top" xlink:title=" ">
<polygon fill="white" stroke="black" points="382.5,-38.5 382.5,-57.5 428.5,-57.5 428.5,-38.5 382.5,-38.5"/>
<text text-anchor="middle" x="405.5" y="-45.5" font-family="Helvetica,sans-Serif" font-size="10.00">eprec2</text>
</a>
</g>
</g>
<!-- Node2&#45;&gt;Node3 -->
<g id="edge2" class="edge">
<title>Node2&#45;&gt;Node3</title>
<path fill="none" stroke="midnightblue" d="M465.66,-48C453.13,-48 439.67,-48 428.76,-48"/>
<polygon fill="midnightblue" stroke="midnightblue" points="465.89,-51.5 475.89,-48 465.89,-44.5 465.89,-51.5"/>
</g>
<!-- Node4 -->
<g id="node4" class="node">
<title>Node4</title>
<g id="a_node4"><a xlink:href="navier1_8f.html#a437311d1b46ce62fc7b4d3b1dda969e2" target="_top" xlink:title=" ">
<polygon fill="white" stroke="black" points="289,-38.5 289,-57.5 335,-57.5 335,-38.5 289,-38.5"/>
<text text-anchor="middle" x="312" y="-45.5" font-family="Helvetica,sans-Serif" font-size="10.00">uzprec</text>
</a>
</g>
</g>
<!-- Node3&#45;&gt;Node4 -->
<g id="edge3" class="edge">
<title>Node3&#45;&gt;Node4</title>
<path fill="none" stroke="midnightblue" d="M372.09,-48C359.9,-48 346.32,-48 335.26,-48"/>
<polygon fill="midnightblue" stroke="midnightblue" points="372.35,-51.5 382.35,-48 372.35,-44.5 372.35,-51.5"/>
</g>
<!-- Node5 -->
<g id="node5" class="node">
<title>Node5</title>
<g id="a_node5"><a xlink:href="navier1_8f.html#a159801e9971330a0281ce3a6f984b7de" target="_top" xlink:title=" ">
<polygon fill="white" stroke="red" points="192,-38.5 192,-57.5 237,-57.5 237,-38.5 192,-38.5"/>
<text text-anchor="middle" x="214.5" y="-45.5" font-family="Helvetica,sans-Serif" font-size="10.00">uzawa</text>
</a>
</g>
</g>
<!-- Node4&#45;&gt;Node5 -->
<g id="edge4" class="edge">
<title>Node4&#45;&gt;Node5</title>
<path fill="none" stroke="midnightblue" d="M278.83,-48C265.13,-48 249.5,-48 237.2,-48"/>
<polygon fill="midnightblue" stroke="midnightblue" points="278.85,-51.5 288.85,-48 278.85,-44.5 278.85,-51.5"/>
</g>
<!-- Node37 -->
<g id="node9" class="node">
<title>Node37</title>
<g id="a_node9"><a xlink:href="gmres_8f.html#a7ddb9e8764ebf87db6b357ca39df2a08" target="_top" xlink:title=" ">
<polygon fill="white" stroke="black" points="176,-0.5 176,-19.5 253,-19.5 253,-0.5 176,-0.5"/>
<text text-anchor="middle" x="214.5" y="-7.5" font-family="Helvetica,sans-Serif" font-size="10.00">uzawa_gmres</text>
</a>
</g>
</g>
<!-- Node4&#45;&gt;Node37 -->
<g id="edge8" class="edge">
<title>Node4&#45;&gt;Node37</title>
<path fill="none" stroke="midnightblue" d="M279.35,-35.41C266.38,-30.24 251.6,-24.37 239.54,-19.56"/>
<polygon fill="midnightblue" stroke="midnightblue" points="278.26,-38.74 288.85,-39.19 280.85,-32.24 278.26,-38.74"/>
</g>
<!-- Node17 -->
<g id="node6" class="node">
<title>Node17</title>
<g id="a_node6"><a xlink:href="navier0_8f.html#aaba079db7e38db9800deef09526370ec" target="_top" xlink:title=" ">
<polygon fill="white" stroke="red" points="92,-19.5 92,-38.5 140,-38.5 140,-19.5 92,-19.5"/>
<text text-anchor="middle" x="116" y="-26.5" font-family="Helvetica,sans-Serif" font-size="10.00">esolver</text>
</a>
</g>
</g>
<!-- Node5&#45;&gt;Node17 -->
<g id="edge5" class="edge">
<title>Node5&#45;&gt;Node17</title>
<path fill="none" stroke="midnightblue" d="M181.7,-41.74C168.14,-39.07 152.6,-36.01 140.16,-33.56"/>
<polygon fill="midnightblue" stroke="midnightblue" points="181.11,-45.19 191.6,-43.69 182.47,-38.32 181.11,-45.19"/>
</g>
<!-- Node18 -->
<g id="node7" class="node">
<title>Node18</title>
<g id="a_node7"><a xlink:href="induct_8f.html#aeb2c6d4ae2c98143118acce2419c034d" target="_top" xlink:title=" ">
<polygon fill="white" stroke="red" points="0,-38.5 0,-57.5 56,-57.5 56,-38.5 0,-38.5"/>
<text text-anchor="middle" x="28" y="-45.5" font-family="Helvetica,sans-Serif" font-size="10.00">incomprn</text>
</a>
</g>
</g>
<!-- Node17&#45;&gt;Node18 -->
<g id="edge6" class="edge">
<title>Node17&#45;&gt;Node18</title>
<path fill="none" stroke="midnightblue" d="M82.19,-36.25C73.57,-38.15 64.36,-40.19 56.08,-42.02"/>
<polygon fill="midnightblue" stroke="midnightblue" points="82.94,-39.67 91.95,-34.09 81.43,-32.83 82.94,-39.67"/>
</g>
<!-- Node26 -->
<g id="node8" class="node">
<title>Node26</title>
<g id="a_node8"><a xlink:href="perturb_8f.html#a0db1f2daa54855dae3938a53c1fd7a65" target="_top" xlink:title=" ">
<polygon fill="white" stroke="red" points="0,-0.5 0,-19.5 56,-19.5 56,-0.5 0,-0.5"/>
<text text-anchor="middle" x="28" y="-7.5" font-family="Helvetica,sans-Serif" font-size="10.00">incomprp</text>
</a>
</g>
</g>
<!-- Node17&#45;&gt;Node26 -->
<g id="edge7" class="edge">
<title>Node17&#45;&gt;Node26</title>
<path fill="none" stroke="midnightblue" d="M82.19,-21.75C73.57,-19.85 64.36,-17.81 56.08,-15.98"/>
<polygon fill="midnightblue" stroke="midnightblue" points="81.43,-25.17 91.95,-23.91 82.94,-18.33 81.43,-25.17"/>
</g>
<!-- Node37&#45;&gt;Node17 -->
<g id="edge9" class="edge">
<title>Node37&#45;&gt;Node17</title>
<path fill="none" stroke="midnightblue" d="M165.87,-19.38C156.91,-21.14 147.92,-22.91 140.13,-24.45"/>
<polygon fill="midnightblue" stroke="midnightblue" points="166.78,-22.77 175.91,-17.4 165.43,-15.9 166.78,-22.77"/>
</g>
<!-- Node38&#45;&gt;Node37 -->
<g id="edge11" class="edge">
<title>Node38&#45;&gt;Node37</title>
<path fill="none" stroke="midnightblue" d="M360.58,-10C328.04,-10 284.17,-10 253.21,-10"/>
<polygon fill="midnightblue" stroke="midnightblue" points="360.71,-13.5 370.71,-10 360.71,-6.5 360.71,-13.5"/>
</g>
</g>
</svg>
        <g id="navigator" transform="translate(0 0)" fill="#404254">
                <rect fill="#f2f5e9" fill-opacity="0.5" stroke="#606060" stroke-width=".5" x="0" y="0" width="60" height="60"/>
                <use id="zoomplus" xlink:href="#zoomPlus" x="17" y="9" onmousedown="handleZoom(evt,'in')"/>
                <use id="zoomminus" xlink:href="#zoomMin" x="42" y="9" onmousedown="handleZoom(evt,'out')"/>
                <use id="reset" xlink:href="#resetDef" x="30" y="36" onmousedown="handleReset()"/>
                <g id="arrowUp" xlink:href="#dirArrow" transform="translate(30 24)" onmousedown="handlePan(0,-1)">
                  <use xlink:href="#rim" fill="#404040">
                        <set attributeName="fill" to="#808080" begin="arrowUp.mouseover" end="arrowUp.mouseout"/>
                  </use>
                  <path fill="none" stroke="white" stroke-width="1.5" d="M0,-3.0v7 M-2.5,-0.5L0,-3.0L2.5,-0.5"/>
                </g>
                <g id="arrowRight" xlink:href="#dirArrow" transform="rotate(90) translate(36 -43)" onmousedown="handlePan(1,0)">
                  <use xlink:href="#rim" fill="#404040">
                        <set attributeName="fill" to="#808080" begin="arrowRight.mouseover" end="arrowRight.mouseout"/>
                  </use>
                  <path fill="none" stroke="white" stroke-width="1.5" d="M0,-3.0v7 M-2.5,-0.5L0,-3.0L2.5,-0.5"/>
                </g>
                <g id="arrowDown" xlink:href="#dirArrow" transform="rotate(180) translate(-30 -48)" onmousedown="handlePan(0,1)">
                  <use xlink:href="#rim" fill="#404040">
                        <set attributeName="fill" to="#808080" begin="arrowDown.mouseover" end="arrowDown.mouseout"/>
                  </use>
                  <path fill="none" stroke="white" stroke-width="1.5" d="M0,-3.0v7 M-2.5,-0.5L0,-3.0L2.5,-0.5"/>
                </g>
                <g id="arrowLeft" xlink:href="#dirArrow" transform="rotate(270) translate(-36 17)" onmousedown="handlePan(-1,0)">
                  <use xlink:href="#rim" fill="#404040">
                        <set attributeName="fill" to="#808080" begin="arrowLeft.mouseover" end="arrowLeft.mouseout"/>
                  </use>
                  <path fill="none" stroke="white" stroke-width="1.5" d="M0,-3.0v7 M-2.5,-0.5L0,-3.0L2.5,-0.5"/>
                </g>
        </g>
        <svg viewBox="0 0 15 15" width="100%" height="30px" preserveAspectRatio="xMaxYMin meet">
         <g id="arrow_out" transform="scale(0.3 0.3)">
          <a xlink:href="fasts_8f_adf929f1c8210a58914bda5771ed68098_icgraph_org.svg" target="_base">
           <rect id="button" ry="5" rx="5" y="6" x="6" height="38" width="38"
                fill="#f2f5e9" fill-opacity="0.5" stroke="#606060" stroke-width="1.0"/>
           <path id="arrow"
             d="M 11.500037,31.436501 C 11.940474,20.09759 22.043105,11.32322 32.158766,21.979434 L 37.068811,17.246167 C 37.068811,17.246167 37.088388,32 37.088388,32 L 22.160133,31.978069 C 22.160133,31.978069 26.997745,27.140456 26.997745,27.140456 C 18.528582,18.264221 13.291696,25.230495 11.500037,31.436501 z"
             style="fill:#404040;"/>
          </a>
         </g>
        </svg>
</svg>
