<?xml version="1.0" encoding="UTF-8" standalone="no"?>
<!DOCTYPE svg PUBLIC "-//W3C//DTD SVG 1.1//EN"
 "http://www.w3.org/Graphics/SVG/1.1/DTD/svg11.dtd">
<!-- Generated by graphviz version 2.46.0 (0)
 -->
<!-- Title: load_semhat_weighted Pages: 1 -->
<svg width="522pt" height="142pt"
 viewBox="0.00 0.00 522.00 142.00" xmlns="http://www.w3.org/2000/svg" xmlns:xlink="http://www.w3.org/1999/xlink">
<g id="graph0" class="graph" transform="scale(1 1) rotate(0) translate(4 138)">
<title>load_semhat_weighted</title>
<polygon fill="white" stroke="transparent" points="-4,4 -4,-138 518,-138 518,4 -4,4"/>
<!-- Node1 -->
<g id="node1" class="node">
<title>Node1</title>
<g id="a_node1"><a xlink:title=" ">
<polygon fill="#bfbfbf" stroke="black" points="0,-76.5 0,-95.5 116,-95.5 116,-76.5 0,-76.5"/>
<text text-anchor="middle" x="58" y="-83.5" font-family="Helvetica,sans-Serif" font-size="10.00">load_semhat_weighted</text>
</a>
</g>
</g>
<!-- Node2 -->
<g id="node2" class="node">
<title>Node2</title>
<g id="a_node2"><a xlink:href="fast3d_8f.html#a8f29c10a081f6ca77c666190b981496a" target="_top" xlink:title=" ">
<polygon fill="white" stroke="black" points="152,-95.5 152,-114.5 250,-114.5 250,-95.5 152,-95.5"/>
<text text-anchor="middle" x="201" y="-102.5" font-family="Helvetica,sans-Serif" font-size="10.00">do_semhat_weight</text>
</a>
</g>
</g>
<!-- Node1&#45;&gt;Node2 -->
<g id="edge1" class="edge">
<title>Node1&#45;&gt;Node2</title>
<path fill="none" stroke="midnightblue" d="M116.35,-93.73C124.7,-94.85 133.3,-96.01 141.67,-97.14"/>
<polygon fill="midnightblue" stroke="midnightblue" points="141.34,-100.63 151.72,-98.49 142.28,-93.69 141.34,-100.63"/>
</g>
<!-- Node3 -->
<g id="node3" class="node">
<title>Node3</title>
<g id="a_node3"><a xlink:href="fast3d_8f.html#a99894224741a84f40eaffab59f606087" target="_top" xlink:title=" ">
<polygon fill="white" stroke="black" points="176.5,-57.5 176.5,-76.5 225.5,-76.5 225.5,-57.5 176.5,-57.5"/>
<text text-anchor="middle" x="201" y="-64.5" font-family="Helvetica,sans-Serif" font-size="10.00">semhat</text>
</a>
</g>
</g>
<!-- Node1&#45;&gt;Node3 -->
<g id="edge2" class="edge">
<title>Node1&#45;&gt;Node3</title>
<path fill="none" stroke="midnightblue" d="M116.35,-78.27C133.28,-75.99 151.27,-73.57 166.2,-71.55"/>
<polygon fill="midnightblue" stroke="midnightblue" points="167.04,-74.97 176.48,-70.17 166.1,-68.04 167.04,-74.97"/>
</g>
<!-- Node4 -->
<g id="node4" class="node">
<title>Node4</title>
<g id="a_node4"><a xlink:href="fast3d_8f.html#ad007f6eca12b1b9307f46e56bcc40a59" target="_top" xlink:title=" ">
<polygon fill="white" stroke="black" points="286,-114.5 286,-133.5 368,-133.5 368,-114.5 286,-114.5"/>
<text text-anchor="middle" x="327" y="-121.5" font-family="Helvetica,sans-Serif" font-size="10.00">fd_weights_full</text>
</a>
</g>
</g>
<!-- Node3&#45;&gt;Node4 -->
<g id="edge3" class="edge">
<title>Node3&#45;&gt;Node4</title>
<path fill="none" stroke="midnightblue" d="M225.65,-75.77C233.48,-78.83 242.18,-82.4 250,-86 266.44,-93.56 269.83,-96.89 286,-105 289.36,-106.68 292.89,-108.42 296.41,-110.12"/>
<polygon fill="midnightblue" stroke="midnightblue" points="295.04,-113.34 305.57,-114.5 298.06,-107.03 295.04,-113.34"/>
</g>
<!-- Node5 -->
<g id="node5" class="node">
<title>Node5</title>
<g id="a_node5"><a xlink:href="math_8f.html#af44de42b023a4a68cd98ea341204342d" target="_top" xlink:title=" ">
<polygon fill="white" stroke="black" points="308,-76.5 308,-95.5 346,-95.5 346,-76.5 308,-76.5"/>
<text text-anchor="middle" x="327" y="-83.5" font-family="Helvetica,sans-Serif" font-size="10.00">rzero</text>
</a>
</g>
</g>
<!-- Node3&#45;&gt;Node5 -->
<g id="edge4" class="edge">
<title>Node3&#45;&gt;Node5</title>
<path fill="none" stroke="midnightblue" d="M225.62,-70.62C246.15,-73.76 275.94,-78.33 297.73,-81.67"/>
<polygon fill="midnightblue" stroke="midnightblue" points="297.3,-85.14 307.71,-83.2 298.36,-78.22 297.3,-85.14"/>
</g>
<!-- Node6 -->
<g id="node6" class="node">
<title>Node6</title>
<g id="a_node6"><a xlink:href="speclib_8f.html#a1aea25f2ddfcdcb1f50e66bbd4282fe2" target="_top" xlink:title=" ">
<polygon fill="white" stroke="black" points="308.5,-38.5 308.5,-57.5 345.5,-57.5 345.5,-38.5 308.5,-38.5"/>
<text text-anchor="middle" x="327" y="-45.5" font-family="Helvetica,sans-Serif" font-size="10.00">zwgl</text>
</a>
</g>
</g>
<!-- Node3&#45;&gt;Node6 -->
<g id="edge5" class="edge">
<title>Node3&#45;&gt;Node6</title>
<path fill="none" stroke="midnightblue" d="M225.62,-63.38C246.39,-60.2 276.64,-55.56 298.5,-52.21"/>
<polygon fill="midnightblue" stroke="midnightblue" points="299.12,-55.66 308.48,-50.69 298.06,-48.74 299.12,-55.66"/>
</g>
<!-- Node17 -->
<g id="node9" class="node">
<title>Node17</title>
<g id="a_node9"><a xlink:href="speclib_8f.html#a3788ff93193b0428aad51e76c6ed2e18" target="_top" xlink:title=" ">
<polygon fill="white" stroke="black" points="307.5,-0.5 307.5,-19.5 346.5,-19.5 346.5,-0.5 307.5,-0.5"/>
<text text-anchor="middle" x="327" y="-7.5" font-family="Helvetica,sans-Serif" font-size="10.00">zwgll</text>
</a>
</g>
</g>
<!-- Node3&#45;&gt;Node17 -->
<g id="edge8" class="edge">
<title>Node3&#45;&gt;Node17</title>
<path fill="none" stroke="midnightblue" d="M222.75,-57.46C243.39,-47.98 275.17,-33.37 298.02,-22.86"/>
<polygon fill="midnightblue" stroke="midnightblue" points="299.59,-25.99 307.21,-18.64 296.66,-19.63 299.59,-25.99"/>
</g>
<!-- Node7 -->
<g id="node7" class="node">
<title>Node7</title>
<g id="a_node7"><a xlink:href="speclib_8f.html#ae296dfc5588151cd6cc7e2045e2c0330" target="_top" xlink:title=" ">
<polygon fill="white" stroke="red" points="405,-38.5 405,-57.5 442,-57.5 442,-38.5 405,-38.5"/>
<text text-anchor="middle" x="423.5" y="-45.5" font-family="Helvetica,sans-Serif" font-size="10.00">zwgj</text>
</a>
</g>
</g>
<!-- Node6&#45;&gt;Node7 -->
<g id="edge6" class="edge">
<title>Node6&#45;&gt;Node7</title>
<path fill="none" stroke="midnightblue" d="M345.77,-48C359.5,-48 378.76,-48 394.54,-48"/>
<polygon fill="midnightblue" stroke="midnightblue" points="394.81,-51.5 404.8,-48 394.8,-44.5 394.81,-51.5"/>
</g>
<!-- Node8 -->
<g id="node8" class="node">
<title>Node8</title>
<g id="a_node8"><a xlink:href="byte_8c.html#a2da8eeb074dfd3ffbfb3e9a4d301cda4" target="_top" xlink:title=" ">
<polygon fill="white" stroke="red" points="479,-19.5 479,-38.5 514,-38.5 514,-19.5 479,-19.5"/>
<text text-anchor="middle" x="496.5" y="-26.5" font-family="Helvetica,sans-Serif" font-size="10.00">exitt</text>
</a>
</g>
</g>
<!-- Node7&#45;&gt;Node8 -->
<g id="edge7" class="edge">
<title>Node7&#45;&gt;Node8</title>
<path fill="none" stroke="midnightblue" d="M442.05,-43.3C450.17,-41.13 459.98,-38.51 468.97,-36.1"/>
<polygon fill="midnightblue" stroke="midnightblue" points="469.88,-39.48 478.64,-33.51 468.08,-32.72 469.88,-39.48"/>
</g>
<!-- Node18 -->
<g id="node10" class="node">
<title>Node18</title>
<g id="a_node10"><a xlink:href="speclib_8f.html#a0a1a17375323b7ab32d6ebe1c52ab1c3" target="_top" xlink:title=" ">
<polygon fill="white" stroke="red" points="404,-0.5 404,-19.5 443,-19.5 443,-0.5 404,-0.5"/>
<text text-anchor="middle" x="423.5" y="-7.5" font-family="Helvetica,sans-Serif" font-size="10.00">zwglj</text>
</a>
</g>
</g>
<!-- Node17&#45;&gt;Node18 -->
<g id="edge9" class="edge">
<title>Node17&#45;&gt;Node18</title>
<path fill="none" stroke="midnightblue" d="M346.67,-10C360.13,-10 378.55,-10 393.86,-10"/>
<polygon fill="midnightblue" stroke="midnightblue" points="393.87,-13.5 403.87,-10 393.87,-6.5 393.87,-13.5"/>
</g>
<!-- Node18&#45;&gt;Node8 -->
<g id="edge10" class="edge">
<title>Node18&#45;&gt;Node8</title>
<path fill="none" stroke="midnightblue" d="M443.15,-14.99C450.98,-17.09 460.23,-19.56 468.76,-21.85"/>
<polygon fill="midnightblue" stroke="midnightblue" points="468.1,-25.29 478.67,-24.5 469.91,-18.53 468.1,-25.29"/>
</g>
</g>
</svg>
