<?xml version="1.0" encoding="UTF-8" standalone="no"?>
<!DOCTYPE svg PUBLIC "-//W3C//DTD SVG 1.1//EN"
 "http://www.w3.org/Graphics/SVG/1.1/DTD/svg11.dtd">
<!-- Generated by graphviz version 2.46.0 (0)
 -->
<!-- Title: gen_fast_spacing Pages: 1 -->
<svg width="505pt" height="142pt"
 viewBox="0.00 0.00 505.00 142.00" xmlns="http://www.w3.org/2000/svg" xmlns:xlink="http://www.w3.org/1999/xlink">
<g id="graph0" class="graph" transform="scale(1 1) rotate(0) translate(4 138)">
<title>gen_fast_spacing</title>
<polygon fill="white" stroke="transparent" points="-4,4 -4,-138 501,-138 501,4 -4,4"/>
<!-- Node1 -->
<g id="node1" class="node">
<title>Node1</title>
<g id="a_node1"><a xlink:title=" ">
<polygon fill="#bfbfbf" stroke="black" points="0,-38.5 0,-57.5 93,-57.5 93,-38.5 0,-38.5"/>
<text text-anchor="middle" x="46.5" y="-45.5" font-family="Helvetica,sans-Serif" font-size="10.00">gen_fast_spacing</text>
</a>
</g>
</g>
<!-- Node2 -->
<g id="node2" class="node">
<title>Node2</title>
<g id="a_node2"><a xlink:href="fast3d_8f.html#aaecd6a47c5672d77b02de8e2d8b97c23" target="_top" xlink:title=" ">
<polygon fill="white" stroke="black" points="129,-76.5 129,-95.5 245,-95.5 245,-76.5 129,-76.5"/>
<text text-anchor="middle" x="187" y="-83.5" font-family="Helvetica,sans-Serif" font-size="10.00">load_semhat_weighted</text>
</a>
</g>
</g>
<!-- Node1&#45;&gt;Node2 -->
<g id="edge1" class="edge">
<title>Node1&#45;&gt;Node2</title>
<path fill="none" stroke="midnightblue" d="M82.45,-57.59C100.33,-62.49 122.29,-68.52 141.38,-73.76"/>
<polygon fill="midnightblue" stroke="midnightblue" points="140.49,-77.14 151.06,-76.41 142.34,-70.39 140.49,-77.14"/>
</g>
<!-- Node23 -->
<g id="node9" class="node">
<title>Node23</title>
<g id="a_node9"><a xlink:href="fast3d_8f.html#a657bf5a4b87c3e07069aa7bbc7d4ee43" target="_top" xlink:title=" ">
<polygon fill="white" stroke="black" points="151.5,-38.5 151.5,-57.5 222.5,-57.5 222.5,-38.5 151.5,-38.5"/>
<text text-anchor="middle" x="187" y="-45.5" font-family="Helvetica,sans-Serif" font-size="10.00">plane_space</text>
</a>
</g>
</g>
<!-- Node1&#45;&gt;Node23 -->
<g id="edge8" class="edge">
<title>Node1&#45;&gt;Node23</title>
<path fill="none" stroke="midnightblue" d="M93.23,-48C108.6,-48 125.72,-48 141.02,-48"/>
<polygon fill="midnightblue" stroke="midnightblue" points="141.29,-51.5 151.29,-48 141.29,-44.5 141.29,-51.5"/>
</g>
<!-- Node24 -->
<g id="node10" class="node">
<title>Node24</title>
<g id="a_node10"><a xlink:href="fast3d_8f.html#a9f885131f2d7c409d6c650fd22af8359" target="_top" xlink:title=" ">
<polygon fill="white" stroke="black" points="148.5,-0.5 148.5,-19.5 225.5,-19.5 225.5,-0.5 148.5,-0.5"/>
<text text-anchor="middle" x="187" y="-7.5" font-family="Helvetica,sans-Serif" font-size="10.00">plane_space2</text>
</a>
</g>
</g>
<!-- Node1&#45;&gt;Node24 -->
<g id="edge9" class="edge">
<title>Node1&#45;&gt;Node24</title>
<path fill="none" stroke="midnightblue" d="M82.45,-38.41C100.33,-33.51 122.29,-27.48 141.38,-22.24"/>
<polygon fill="midnightblue" stroke="midnightblue" points="142.34,-25.61 151.06,-19.59 140.49,-18.86 142.34,-25.61"/>
</g>
<!-- Node3 -->
<g id="node3" class="node">
<title>Node3</title>
<g id="a_node3"><a xlink:href="fast3d_8f.html#a8f29c10a081f6ca77c666190b981496a" target="_top" xlink:title=" ">
<polygon fill="white" stroke="black" points="281,-95.5 281,-114.5 379,-114.5 379,-95.5 281,-95.5"/>
<text text-anchor="middle" x="330" y="-102.5" font-family="Helvetica,sans-Serif" font-size="10.00">do_semhat_weight</text>
</a>
</g>
</g>
<!-- Node2&#45;&gt;Node3 -->
<g id="edge2" class="edge">
<title>Node2&#45;&gt;Node3</title>
<path fill="none" stroke="midnightblue" d="M245.35,-93.73C253.7,-94.85 262.3,-96.01 270.67,-97.14"/>
<polygon fill="midnightblue" stroke="midnightblue" points="270.34,-100.63 280.72,-98.49 271.28,-93.69 270.34,-100.63"/>
</g>
<!-- Node4 -->
<g id="node4" class="node">
<title>Node4</title>
<g id="a_node4"><a xlink:href="fast3d_8f.html#a99894224741a84f40eaffab59f606087" target="_top" xlink:title=" ">
<polygon fill="white" stroke="black" points="305.5,-57.5 305.5,-76.5 354.5,-76.5 354.5,-57.5 305.5,-57.5"/>
<text text-anchor="middle" x="330" y="-64.5" font-family="Helvetica,sans-Serif" font-size="10.00">semhat</text>
</a>
</g>
</g>
<!-- Node2&#45;&gt;Node4 -->
<g id="edge3" class="edge">
<title>Node2&#45;&gt;Node4</title>
<path fill="none" stroke="midnightblue" d="M245.35,-78.27C262.28,-75.99 280.27,-73.57 295.2,-71.55"/>
<polygon fill="midnightblue" stroke="midnightblue" points="296.04,-74.97 305.48,-70.17 295.1,-68.04 296.04,-74.97"/>
</g>
<!-- Node5 -->
<g id="node5" class="node">
<title>Node5</title>
<g id="a_node5"><a xlink:href="fast3d_8f.html#ad007f6eca12b1b9307f46e56bcc40a59" target="_top" xlink:title=" ">
<polygon fill="white" stroke="black" points="415,-114.5 415,-133.5 497,-133.5 497,-114.5 415,-114.5"/>
<text text-anchor="middle" x="456" y="-121.5" font-family="Helvetica,sans-Serif" font-size="10.00">fd_weights_full</text>
</a>
</g>
</g>
<!-- Node4&#45;&gt;Node5 -->
<g id="edge4" class="edge">
<title>Node4&#45;&gt;Node5</title>
<path fill="none" stroke="midnightblue" d="M354.65,-75.77C362.48,-78.83 371.18,-82.4 379,-86 395.44,-93.56 398.83,-96.89 415,-105 418.36,-106.68 421.89,-108.42 425.41,-110.12"/>
<polygon fill="midnightblue" stroke="midnightblue" points="424.04,-113.34 434.57,-114.5 427.06,-107.03 424.04,-113.34"/>
</g>
<!-- Node6 -->
<g id="node6" class="node">
<title>Node6</title>
<g id="a_node6"><a xlink:href="math_8f.html#af44de42b023a4a68cd98ea341204342d" target="_top" xlink:title=" ">
<polygon fill="white" stroke="black" points="437,-76.5 437,-95.5 475,-95.5 475,-76.5 437,-76.5"/>
<text text-anchor="middle" x="456" y="-83.5" font-family="Helvetica,sans-Serif" font-size="10.00">rzero</text>
</a>
</g>
</g>
<!-- Node4&#45;&gt;Node6 -->
<g id="edge5" class="edge">
<title>Node4&#45;&gt;Node6</title>
<path fill="none" stroke="midnightblue" d="M354.62,-70.62C375.15,-73.76 404.94,-78.33 426.73,-81.67"/>
<polygon fill="midnightblue" stroke="midnightblue" points="426.3,-85.14 436.71,-83.2 427.36,-78.22 426.3,-85.14"/>
</g>
<!-- Node7 -->
<g id="node7" class="node">
<title>Node7</title>
<g id="a_node7"><a xlink:href="speclib_8f.html#a1aea25f2ddfcdcb1f50e66bbd4282fe2" target="_top" xlink:title=" ">
<polygon fill="white" stroke="red" points="437.5,-38.5 437.5,-57.5 474.5,-57.5 474.5,-38.5 437.5,-38.5"/>
<text text-anchor="middle" x="456" y="-45.5" font-family="Helvetica,sans-Serif" font-size="10.00">zwgl</text>
</a>
</g>
</g>
<!-- Node4&#45;&gt;Node7 -->
<g id="edge6" class="edge">
<title>Node4&#45;&gt;Node7</title>
<path fill="none" stroke="midnightblue" d="M354.62,-63.38C375.39,-60.2 405.64,-55.56 427.5,-52.21"/>
<polygon fill="midnightblue" stroke="midnightblue" points="428.12,-55.66 437.48,-50.69 427.06,-48.74 428.12,-55.66"/>
</g>
<!-- Node18 -->
<g id="node8" class="node">
<title>Node18</title>
<g id="a_node8"><a xlink:href="speclib_8f.html#a3788ff93193b0428aad51e76c6ed2e18" target="_top" xlink:title=" ">
<polygon fill="white" stroke="red" points="436.5,-0.5 436.5,-19.5 475.5,-19.5 475.5,-0.5 436.5,-0.5"/>
<text text-anchor="middle" x="456" y="-7.5" font-family="Helvetica,sans-Serif" font-size="10.00">zwgll</text>
</a>
</g>
</g>
<!-- Node4&#45;&gt;Node18 -->
<g id="edge7" class="edge">
<title>Node4&#45;&gt;Node18</title>
<path fill="none" stroke="midnightblue" d="M351.75,-57.46C372.39,-47.98 404.17,-33.37 427.02,-22.86"/>
<polygon fill="midnightblue" stroke="midnightblue" points="428.59,-25.99 436.21,-18.64 425.66,-19.63 428.59,-25.99"/>
</g>
</g>
</svg>
