<?xml version="1.0" encoding="UTF-8" standalone="no"?>
<!DOCTYPE svg PUBLIC "-//W3C//DTD SVG 1.1//EN"
 "http://www.w3.org/Graphics/SVG/1.1/DTD/svg11.dtd">
<!-- Generated by graphviz version 2.46.0 (0)
 -->
<!-- Title: set_up_fast_1d_fem_ax Pages: 1 -->
<svg width="445pt" height="218pt"
 viewBox="0.00 0.00 445.00 218.00" xmlns="http://www.w3.org/2000/svg" xmlns:xlink="http://www.w3.org/1999/xlink">
<g id="graph0" class="graph" transform="scale(1 1) rotate(0) translate(4 214)">
<title>set_up_fast_1d_fem_ax</title>
<polygon fill="white" stroke="transparent" points="-4,4 -4,-214 441,-214 441,4 -4,4"/>
<!-- Node1 -->
<g id="node1" class="node">
<title>Node1</title>
<g id="a_node1"><a xlink:title=" ">
<polygon fill="#bfbfbf" stroke="black" points="0,-114.5 0,-133.5 121,-133.5 121,-114.5 0,-114.5"/>
<text text-anchor="middle" x="60.5" y="-121.5" font-family="Helvetica,sans-Serif" font-size="10.00">set_up_fast_1d_fem_ax</text>
</a>
</g>
</g>
<!-- Node2 -->
<g id="node2" class="node">
<title>Node2</title>
<g id="a_node2"><a xlink:href="byte_8c.html#a2da8eeb074dfd3ffbfb3e9a4d301cda4" target="_top" xlink:title=" ">
<polygon fill="white" stroke="black" points="308,-190.5 308,-209.5 343,-209.5 343,-190.5 308,-190.5"/>
<text text-anchor="middle" x="325.5" y="-197.5" font-family="Helvetica,sans-Serif" font-size="10.00">exitt</text>
</a>
</g>
</g>
<!-- Node1&#45;&gt;Node2 -->
<g id="edge1" class="edge">
<title>Node1&#45;&gt;Node2</title>
<path fill="none" stroke="midnightblue" d="M94.54,-133.55C147.37,-148.81 249.8,-178.41 298.09,-192.37"/>
<polygon fill="midnightblue" stroke="midnightblue" points="297.23,-195.76 307.8,-195.18 299.17,-189.04 297.23,-195.76"/>
</g>
<!-- Node5 -->
<g id="node4" class="node">
<title>Node5</title>
<g id="a_node4"><a xlink:href="fast3d_8f.html#a0f7da4fcc0ef6bba9846187d1de9f1a6" target="_top" xlink:title=" ">
<polygon fill="white" stroke="red" points="158.5,-114.5 158.5,-133.5 262.5,-133.5 262.5,-114.5 158.5,-114.5"/>
<text text-anchor="middle" x="210.5" y="-121.5" font-family="Helvetica,sans-Serif" font-size="10.00">gen_eigs_a_fem_ax</text>
</a>
</g>
</g>
<!-- Node1&#45;&gt;Node5 -->
<g id="edge3" class="edge">
<title>Node1&#45;&gt;Node5</title>
<path fill="none" stroke="midnightblue" d="M121.27,-124C130.04,-124 139.08,-124 147.88,-124"/>
<polygon fill="midnightblue" stroke="midnightblue" points="148.07,-127.5 158.07,-124 148.07,-120.5 148.07,-127.5"/>
</g>
<!-- Node20 -->
<g id="node10" class="node">
<title>Node20</title>
<g id="a_node10"><a xlink:href="fast3d_8f.html#a93e09732cfb358f9d31b8321469c21c3" target="_top" xlink:title=" ">
<polygon fill="white" stroke="red" points="157,-76.5 157,-95.5 264,-95.5 264,-76.5 157,-76.5"/>
<text text-anchor="middle" x="210.5" y="-83.5" font-family="Helvetica,sans-Serif" font-size="10.00">set_up_1d_geom_ax</text>
</a>
</g>
</g>
<!-- Node1&#45;&gt;Node20 -->
<g id="edge10" class="edge">
<title>Node1&#45;&gt;Node20</title>
<path fill="none" stroke="midnightblue" d="M98.85,-114.41C118.2,-109.44 142.03,-103.32 162.61,-98.04"/>
<polygon fill="midnightblue" stroke="midnightblue" points="163.61,-101.4 172.42,-95.52 161.87,-94.62 163.61,-101.4"/>
</g>
<!-- Node3 -->
<g id="node3" class="node">
<title>Node3</title>
<g id="a_node3"><a xlink:href="comm__mpi_8f.html#acc8803a3787828530843112e0c48941b" target="_top" xlink:title=" ">
<polygon fill="white" stroke="red" points="387,-190.5 387,-209.5 437,-209.5 437,-190.5 387,-190.5"/>
<text text-anchor="middle" x="412" y="-197.5" font-family="Helvetica,sans-Serif" font-size="10.00">nek_die</text>
</a>
</g>
</g>
<!-- Node2&#45;&gt;Node3 -->
<g id="edge2" class="edge">
<title>Node2&#45;&gt;Node3</title>
<path fill="none" stroke="midnightblue" d="M343.19,-200C352.77,-200 365.15,-200 376.7,-200"/>
<polygon fill="midnightblue" stroke="midnightblue" points="376.98,-203.5 386.98,-200 376.98,-196.5 376.98,-203.5"/>
</g>
<!-- Node5&#45;&gt;Node2 -->
<g id="edge7" class="edge">
<title>Node5&#45;&gt;Node2</title>
<path fill="none" stroke="midnightblue" d="M225.81,-133.63C245,-146.53 279.27,-169.58 301.95,-184.83"/>
<polygon fill="midnightblue" stroke="midnightblue" points="300.05,-187.78 310.3,-190.45 303.96,-181.97 300.05,-187.78"/>
</g>
<!-- Node6 -->
<g id="node5" class="node">
<title>Node6</title>
<g id="a_node5"><a xlink:href="calcz_8f.html#a10647d37923848f705c9d89e0d98ef52" target="_top" xlink:title=" ">
<polygon fill="white" stroke="red" points="305.5,-152.5 305.5,-171.5 345.5,-171.5 345.5,-152.5 305.5,-152.5"/>
<text text-anchor="middle" x="325.5" y="-159.5" font-family="Helvetica,sans-Serif" font-size="10.00">calcz</text>
</a>
</g>
</g>
<!-- Node5&#45;&gt;Node6 -->
<g id="edge4" class="edge">
<title>Node5&#45;&gt;Node6</title>
<path fill="none" stroke="midnightblue" d="M240.01,-133.59C256.91,-139.27 278.27,-146.45 295.28,-152.17"/>
<polygon fill="midnightblue" stroke="midnightblue" points="294.64,-155.65 305.24,-155.52 296.87,-149.02 294.64,-155.65"/>
</g>
<!-- Node10 -->
<g id="node6" class="node">
<title>Node10</title>
<g id="a_node6"><a xlink:href="math_8f.html#af75d691116fa36c290d6a2848b113928" target="_top" xlink:title=" ">
<polygon fill="white" stroke="black" points="303,-114.5 303,-133.5 348,-133.5 348,-114.5 303,-114.5"/>
<text text-anchor="middle" x="325.5" y="-121.5" font-family="Helvetica,sans-Serif" font-size="10.00">chsign</text>
</a>
</g>
</g>
<!-- Node5&#45;&gt;Node10 -->
<g id="edge5" class="edge">
<title>Node5&#45;&gt;Node10</title>
<path fill="none" stroke="midnightblue" d="M262.71,-124C272.98,-124 283.48,-124 292.85,-124"/>
<polygon fill="midnightblue" stroke="midnightblue" points="292.86,-127.5 302.86,-124 292.86,-120.5 292.86,-127.5"/>
</g>
<!-- Node11 -->
<g id="node7" class="node">
<title>Node11</title>
<g id="a_node7"><a xlink:href="math_8f.html#ad2b51b68d370651f4f6d81952503e7be" target="_top" xlink:title=" ">
<polygon fill="white" stroke="black" points="305,-76.5 305,-95.5 346,-95.5 346,-76.5 305,-76.5"/>
<text text-anchor="middle" x="325.5" y="-83.5" font-family="Helvetica,sans-Serif" font-size="10.00">cmult</text>
</a>
</g>
</g>
<!-- Node5&#45;&gt;Node11 -->
<g id="edge6" class="edge">
<title>Node5&#45;&gt;Node11</title>
<path fill="none" stroke="midnightblue" d="M240.01,-114.41C256.8,-108.77 277.99,-101.64 294.95,-95.94"/>
<polygon fill="midnightblue" stroke="midnightblue" points="296.53,-99.1 304.89,-92.59 294.3,-92.46 296.53,-99.1"/>
</g>
<!-- Node12 -->
<g id="node8" class="node">
<title>Node12</title>
<g id="a_node8"><a xlink:href="comm__mpi_8f.html#a2fae0158282f10009f27373acd2a0337" target="_top" xlink:title=" ">
<polygon fill="white" stroke="red" points="300,-38.5 300,-57.5 351,-57.5 351,-38.5 300,-38.5"/>
<text text-anchor="middle" x="325.5" y="-45.5" font-family="Helvetica,sans-Serif" font-size="10.00">mynode</text>
</a>
</g>
</g>
<!-- Node5&#45;&gt;Node12 -->
<g id="edge8" class="edge">
<title>Node5&#45;&gt;Node12</title>
<path fill="none" stroke="midnightblue" d="M245.11,-114.48C251.64,-111.91 258.24,-108.77 264,-105 283.46,-92.25 282.76,-82.62 300,-67 301.12,-65.98 302.29,-64.96 303.49,-63.95"/>
<polygon fill="midnightblue" stroke="midnightblue" points="305.89,-66.5 311.48,-57.5 301.5,-61.05 305.89,-66.5"/>
</g>
<!-- Node8 -->
<g id="node9" class="node">
<title>Node8</title>
<g id="a_node9"><a xlink:href="math_8f.html#af44de42b023a4a68cd98ea341204342d" target="_top" xlink:title=" ">
<polygon fill="white" stroke="black" points="306.5,-0.5 306.5,-19.5 344.5,-19.5 344.5,-0.5 306.5,-0.5"/>
<text text-anchor="middle" x="325.5" y="-7.5" font-family="Helvetica,sans-Serif" font-size="10.00">rzero</text>
</a>
</g>
</g>
<!-- Node5&#45;&gt;Node8 -->
<g id="edge9" class="edge">
<title>Node5&#45;&gt;Node8</title>
<path fill="none" stroke="midnightblue" d="M249.4,-114.4C254.7,-111.93 259.77,-108.85 264,-105 291.66,-79.86 276.59,-58.14 300,-29 300.69,-28.14 301.43,-27.3 302.2,-26.47"/>
<polygon fill="midnightblue" stroke="midnightblue" points="304.69,-28.94 309.76,-19.63 300,-23.74 304.69,-28.94"/>
</g>
</g>
</svg>
