<?xml version="1.0" encoding="UTF-8" standalone="no"?>
<!DOCTYPE svg PUBLIC "-//W3C//DTD SVG 1.1//EN"
 "http://www.w3.org/Graphics/SVG/1.1/DTD/svg11.dtd">
<!-- Generated by graphviz version 2.46.0 (0)
 -->
<!-- Title: set_up_fast_1d_fem Pages: 1 -->
<svg width="413pt" height="218pt"
 viewBox="0.00 0.00 413.00 218.00" xmlns="http://www.w3.org/2000/svg" xmlns:xlink="http://www.w3.org/1999/xlink">
<g id="graph0" class="graph" transform="scale(1 1) rotate(0) translate(4 214)">
<title>set_up_fast_1d_fem</title>
<polygon fill="white" stroke="transparent" points="-4,4 -4,-214 409,-214 409,4 -4,4"/>
<!-- Node1 -->
<g id="node1" class="node">
<title>Node1</title>
<g id="a_node1"><a xlink:title=" ">
<polygon fill="#bfbfbf" stroke="black" points="0,-114.5 0,-133.5 105,-133.5 105,-114.5 0,-114.5"/>
<text text-anchor="middle" x="52.5" y="-121.5" font-family="Helvetica,sans-Serif" font-size="10.00">set_up_fast_1d_fem</text>
</a>
</g>
</g>
<!-- Node2 -->
<g id="node2" class="node">
<title>Node2</title>
<g id="a_node2"><a xlink:href="byte_8c.html#a2da8eeb074dfd3ffbfb3e9a4d301cda4" target="_top" xlink:title=" ">
<polygon fill="white" stroke="black" points="276,-190.5 276,-209.5 311,-209.5 311,-190.5 276,-190.5"/>
<text text-anchor="middle" x="293.5" y="-197.5" font-family="Helvetica,sans-Serif" font-size="10.00">exitt</text>
</a>
</g>
</g>
<!-- Node1&#45;&gt;Node2 -->
<g id="edge1" class="edge">
<title>Node1&#45;&gt;Node2</title>
<path fill="none" stroke="midnightblue" d="M83.77,-133.63C131.08,-148.67 221.75,-177.5 266.37,-191.69"/>
<polygon fill="midnightblue" stroke="midnightblue" points="265.33,-195.03 275.92,-194.73 267.45,-188.36 265.33,-195.03"/>
</g>
<!-- Node5 -->
<g id="node4" class="node">
<title>Node5</title>
<g id="a_node4"><a xlink:href="fast3d_8f.html#a2feef5df79d14b96298a1f757fb9e9b6" target="_top" xlink:title=" ">
<polygon fill="white" stroke="red" points="142.5,-114.5 142.5,-133.5 230.5,-133.5 230.5,-114.5 142.5,-114.5"/>
<text text-anchor="middle" x="186.5" y="-121.5" font-family="Helvetica,sans-Serif" font-size="10.00">gen_eigs_a_fem</text>
</a>
</g>
</g>
<!-- Node1&#45;&gt;Node5 -->
<g id="edge3" class="edge">
<title>Node1&#45;&gt;Node5</title>
<path fill="none" stroke="midnightblue" d="M105.29,-124C114.12,-124 123.3,-124 132.16,-124"/>
<polygon fill="midnightblue" stroke="midnightblue" points="132.38,-127.5 142.38,-124 132.38,-120.5 132.38,-127.5"/>
</g>
<!-- Node20 -->
<g id="node10" class="node">
<title>Node20</title>
<g id="a_node10"><a xlink:href="fast3d_8f.html#a6637776b9ae4c8e12091aebf5cc0918e" target="_top" xlink:title=" ">
<polygon fill="white" stroke="red" points="141,-76.5 141,-95.5 232,-95.5 232,-76.5 141,-76.5"/>
<text text-anchor="middle" x="186.5" y="-83.5" font-family="Helvetica,sans-Serif" font-size="10.00">set_up_1d_geom</text>
</a>
</g>
</g>
<!-- Node1&#45;&gt;Node20 -->
<g id="edge10" class="edge">
<title>Node1&#45;&gt;Node20</title>
<path fill="none" stroke="midnightblue" d="M86.81,-114.41C103.69,-109.55 124.39,-103.59 142.47,-98.39"/>
<polygon fill="midnightblue" stroke="midnightblue" points="143.56,-101.72 152.2,-95.59 141.62,-94.99 143.56,-101.72"/>
</g>
<!-- Node3 -->
<g id="node3" class="node">
<title>Node3</title>
<g id="a_node3"><a xlink:href="comm__mpi_8f.html#acc8803a3787828530843112e0c48941b" target="_top" xlink:title=" ">
<polygon fill="white" stroke="red" points="355,-190.5 355,-209.5 405,-209.5 405,-190.5 355,-190.5"/>
<text text-anchor="middle" x="380" y="-197.5" font-family="Helvetica,sans-Serif" font-size="10.00">nek_die</text>
</a>
</g>
</g>
<!-- Node2&#45;&gt;Node3 -->
<g id="edge2" class="edge">
<title>Node2&#45;&gt;Node3</title>
<path fill="none" stroke="midnightblue" d="M311.19,-200C320.77,-200 333.15,-200 344.7,-200"/>
<polygon fill="midnightblue" stroke="midnightblue" points="344.98,-203.5 354.98,-200 344.98,-196.5 344.98,-203.5"/>
</g>
<!-- Node5&#45;&gt;Node2 -->
<g id="edge7" class="edge">
<title>Node5&#45;&gt;Node2</title>
<path fill="none" stroke="midnightblue" d="M200.8,-133.63C218.47,-146.42 249.91,-169.17 270.98,-184.43"/>
<polygon fill="midnightblue" stroke="midnightblue" points="269.16,-187.42 279.31,-190.45 273.26,-181.75 269.16,-187.42"/>
</g>
<!-- Node6 -->
<g id="node5" class="node">
<title>Node6</title>
<g id="a_node5"><a xlink:href="calcz_8f.html#a10647d37923848f705c9d89e0d98ef52" target="_top" xlink:title=" ">
<polygon fill="white" stroke="red" points="273.5,-152.5 273.5,-171.5 313.5,-171.5 313.5,-152.5 273.5,-152.5"/>
<text text-anchor="middle" x="293.5" y="-159.5" font-family="Helvetica,sans-Serif" font-size="10.00">calcz</text>
</a>
</g>
</g>
<!-- Node5&#45;&gt;Node6 -->
<g id="edge4" class="edge">
<title>Node5&#45;&gt;Node6</title>
<path fill="none" stroke="midnightblue" d="M214,-133.59C229.15,-139.07 248.16,-145.95 263.68,-151.57"/>
<polygon fill="midnightblue" stroke="midnightblue" points="262.71,-154.94 273.3,-155.05 265.09,-148.36 262.71,-154.94"/>
</g>
<!-- Node10 -->
<g id="node6" class="node">
<title>Node10</title>
<g id="a_node6"><a xlink:href="math_8f.html#af75d691116fa36c290d6a2848b113928" target="_top" xlink:title=" ">
<polygon fill="white" stroke="black" points="271,-114.5 271,-133.5 316,-133.5 316,-114.5 271,-114.5"/>
<text text-anchor="middle" x="293.5" y="-121.5" font-family="Helvetica,sans-Serif" font-size="10.00">chsign</text>
</a>
</g>
</g>
<!-- Node5&#45;&gt;Node10 -->
<g id="edge5" class="edge">
<title>Node5&#45;&gt;Node10</title>
<path fill="none" stroke="midnightblue" d="M230.51,-124C240.63,-124 251.24,-124 260.77,-124"/>
<polygon fill="midnightblue" stroke="midnightblue" points="260.97,-127.5 270.97,-124 260.97,-120.5 260.97,-127.5"/>
</g>
<!-- Node11 -->
<g id="node7" class="node">
<title>Node11</title>
<g id="a_node7"><a xlink:href="math_8f.html#ad2b51b68d370651f4f6d81952503e7be" target="_top" xlink:title=" ">
<polygon fill="white" stroke="black" points="273,-76.5 273,-95.5 314,-95.5 314,-76.5 273,-76.5"/>
<text text-anchor="middle" x="293.5" y="-83.5" font-family="Helvetica,sans-Serif" font-size="10.00">cmult</text>
</a>
</g>
</g>
<!-- Node5&#45;&gt;Node11 -->
<g id="edge6" class="edge">
<title>Node5&#45;&gt;Node11</title>
<path fill="none" stroke="midnightblue" d="M214,-114.41C229.05,-108.96 247.91,-102.14 263.38,-96.54"/>
<polygon fill="midnightblue" stroke="midnightblue" points="264.76,-99.76 272.97,-93.07 262.38,-93.18 264.76,-99.76"/>
</g>
<!-- Node12 -->
<g id="node8" class="node">
<title>Node12</title>
<g id="a_node8"><a xlink:href="comm__mpi_8f.html#a2fae0158282f10009f27373acd2a0337" target="_top" xlink:title=" ">
<polygon fill="white" stroke="red" points="268,-38.5 268,-57.5 319,-57.5 319,-38.5 268,-38.5"/>
<text text-anchor="middle" x="293.5" y="-45.5" font-family="Helvetica,sans-Serif" font-size="10.00">mynode</text>
</a>
</g>
</g>
<!-- Node5&#45;&gt;Node12 -->
<g id="edge8" class="edge">
<title>Node5&#45;&gt;Node12</title>
<path fill="none" stroke="midnightblue" d="M214.79,-114.44C220.71,-111.8 226.76,-108.65 232,-105 251.1,-91.71 250.76,-82.62 268,-67 269.12,-65.98 270.29,-64.96 271.49,-63.95"/>
<polygon fill="midnightblue" stroke="midnightblue" points="273.89,-66.5 279.48,-57.5 269.5,-61.05 273.89,-66.5"/>
</g>
<!-- Node8 -->
<g id="node9" class="node">
<title>Node8</title>
<g id="a_node9"><a xlink:href="math_8f.html#af44de42b023a4a68cd98ea341204342d" target="_top" xlink:title=" ">
<polygon fill="white" stroke="black" points="274.5,-0.5 274.5,-19.5 312.5,-19.5 312.5,-0.5 274.5,-0.5"/>
<text text-anchor="middle" x="293.5" y="-7.5" font-family="Helvetica,sans-Serif" font-size="10.00">rzero</text>
</a>
</g>
</g>
<!-- Node5&#45;&gt;Node8 -->
<g id="edge9" class="edge">
<title>Node5&#45;&gt;Node8</title>
<path fill="none" stroke="midnightblue" d="M218.05,-114.49C223.11,-111.97 228,-108.84 232,-105 258.94,-79.09 244.59,-58.14 268,-29 268.69,-28.14 269.43,-27.3 270.2,-26.47"/>
<polygon fill="midnightblue" stroke="midnightblue" points="272.69,-28.94 277.76,-19.63 268,-23.74 272.69,-28.94"/>
</g>
</g>
</svg>
