<?xml version="1.0" encoding="UTF-8" standalone="no"?>
<!DOCTYPE svg PUBLIC "-//W3C//DTD SVG 1.1//EN"
 "http://www.w3.org/Graphics/SVG/1.1/DTD/svg11.dtd">
<!-- Generated by graphviz version 2.46.0 (0)
 -->
<!-- Title: do_semhat_weight Pages: 1 -->
<svg width="737pt" height="66pt"
 viewBox="0.00 0.00 737.00 66.00" xmlns="http://www.w3.org/2000/svg" xmlns:xlink="http://www.w3.org/1999/xlink">
<g id="graph0" class="graph" transform="scale(1 1) rotate(0) translate(4 62)">
<title>do_semhat_weight</title>
<polygon fill="white" stroke="transparent" points="-4,4 -4,-62 733,-62 733,4 -4,4"/>
<!-- Node1 -->
<g id="node1" class="node">
<title>Node1</title>
<g id="a_node1"><a xlink:title=" ">
<polygon fill="#bfbfbf" stroke="black" points="631,-19.5 631,-38.5 729,-38.5 729,-19.5 631,-19.5"/>
<text text-anchor="middle" x="680" y="-26.5" font-family="Helvetica,sans-Serif" font-size="10.00">do_semhat_weight</text>
</a>
</g>
</g>
<!-- Node2 -->
<g id="node2" class="node">
<title>Node2</title>
<g id="a_node2"><a xlink:href="fast3d_8f.html#aaecd6a47c5672d77b02de8e2d8b97c23" target="_top" xlink:title=" ">
<polygon fill="white" stroke="black" points="479,-19.5 479,-38.5 595,-38.5 595,-19.5 479,-19.5"/>
<text text-anchor="middle" x="537" y="-26.5" font-family="Helvetica,sans-Serif" font-size="10.00">load_semhat_weighted</text>
</a>
</g>
</g>
<!-- Node1&#45;&gt;Node2 -->
<g id="edge1" class="edge">
<title>Node1&#45;&gt;Node2</title>
<path fill="none" stroke="midnightblue" d="M620.72,-29C612.27,-29 603.58,-29 595.16,-29"/>
<polygon fill="midnightblue" stroke="midnightblue" points="620.87,-32.5 630.87,-29 620.87,-25.5 620.87,-32.5"/>
</g>
<!-- Node3 -->
<g id="node3" class="node">
<title>Node3</title>
<g id="a_node3"><a xlink:href="gmres_8f.html#a318ed98b18a9670923d141144c2eeb15" target="_top" xlink:title=" ">
<polygon fill="white" stroke="black" points="364,-38.5 364,-57.5 429,-57.5 429,-38.5 364,-38.5"/>
<text text-anchor="middle" x="396.5" y="-45.5" font-family="Helvetica,sans-Serif" font-size="10.00">gen_fast_g</text>
</a>
</g>
</g>
<!-- Node2&#45;&gt;Node3 -->
<g id="edge2" class="edge">
<title>Node2&#45;&gt;Node3</title>
<path fill="none" stroke="midnightblue" d="M468.83,-38.21C454.97,-40.12 441.01,-42.03 429.15,-43.66"/>
<polygon fill="midnightblue" stroke="midnightblue" points="469.44,-41.66 478.87,-36.84 468.48,-34.73 469.44,-41.66"/>
</g>
<!-- Node5 -->
<g id="node5" class="node">
<title>Node5</title>
<g id="a_node5"><a xlink:href="fast3d_8f.html#aa55ba5f1f18d52cbc1563322052ac67e" target="_top" xlink:title=" ">
<polygon fill="white" stroke="black" points="350,-0.5 350,-19.5 443,-19.5 443,-0.5 350,-0.5"/>
<text text-anchor="middle" x="396.5" y="-7.5" font-family="Helvetica,sans-Serif" font-size="10.00">gen_fast_spacing</text>
</a>
</g>
</g>
<!-- Node2&#45;&gt;Node5 -->
<g id="edge4" class="edge">
<title>Node2&#45;&gt;Node5</title>
<path fill="none" stroke="midnightblue" d="M468.72,-19.77C460.04,-18.58 451.31,-17.38 443.09,-16.25"/>
<polygon fill="midnightblue" stroke="midnightblue" points="468.48,-23.27 478.87,-21.16 469.44,-16.34 468.48,-23.27"/>
</g>
<!-- Node4 -->
<g id="node4" class="node">
<title>Node4</title>
<g id="a_node4"><a xlink:href="gmres_8f.html#ac62460e6c2b6516988bd796051c3119c" target="_top" xlink:title=" ">
<polygon fill="white" stroke="black" points="242,-38.5 242,-57.5 314,-57.5 314,-38.5 242,-38.5"/>
<text text-anchor="middle" x="278" y="-45.5" font-family="Helvetica,sans-Serif" font-size="10.00">set_overlap2</text>
</a>
</g>
</g>
<!-- Node3&#45;&gt;Node4 -->
<g id="edge3" class="edge">
<title>Node3&#45;&gt;Node4</title>
<path fill="none" stroke="midnightblue" d="M353.88,-48C340.91,-48 326.74,-48 314.25,-48"/>
<polygon fill="midnightblue" stroke="midnightblue" points="353.97,-51.5 363.97,-48 353.97,-44.5 353.97,-51.5"/>
</g>
<!-- Node6 -->
<g id="node6" class="node">
<title>Node6</title>
<g id="a_node6"><a xlink:href="navier6_8f.html#a45317b1def173b8f1db2e5083595d095" target="_top" xlink:title=" ">
<polygon fill="white" stroke="black" points="244.5,-0.5 244.5,-19.5 311.5,-19.5 311.5,-0.5 244.5,-0.5"/>
<text text-anchor="middle" x="278" y="-7.5" font-family="Helvetica,sans-Serif" font-size="10.00">set_overlap</text>
</a>
</g>
</g>
<!-- Node5&#45;&gt;Node6 -->
<g id="edge5" class="edge">
<title>Node5&#45;&gt;Node6</title>
<path fill="none" stroke="midnightblue" d="M339.5,-10C329.95,-10 320.31,-10 311.62,-10"/>
<polygon fill="midnightblue" stroke="midnightblue" points="339.79,-13.5 349.79,-10 339.79,-6.5 339.79,-13.5"/>
</g>
<!-- Node7 -->
<g id="node7" class="node">
<title>Node7</title>
<g id="a_node7"><a xlink:href="drive2_8f.html#a7cb0ea7de68c5c3cbc3f7290f01a4d51" target="_top" xlink:title=" ">
<polygon fill="white" stroke="black" points="168,-0.5 168,-19.5 206,-19.5 206,-0.5 168,-0.5"/>
<text text-anchor="middle" x="187" y="-7.5" font-family="Helvetica,sans-Serif" font-size="10.00">prinit</text>
</a>
</g>
</g>
<!-- Node6&#45;&gt;Node7 -->
<g id="edge6" class="edge">
<title>Node6&#45;&gt;Node7</title>
<path fill="none" stroke="midnightblue" d="M234.18,-10C224.3,-10 214.3,-10 206.15,-10"/>
<polygon fill="midnightblue" stroke="midnightblue" points="234.37,-13.5 244.37,-10 234.37,-6.5 234.37,-13.5"/>
</g>
<!-- Node8 -->
<g id="node8" class="node">
<title>Node8</title>
<g id="a_node8"><a xlink:href="drive1_8f.html#a83f7c6d78ac4e68394f32533e847d0a3" target="_top" xlink:title=" ">
<polygon fill="white" stroke="black" points="82,-0.5 82,-19.5 132,-19.5 132,-0.5 82,-0.5"/>
<text text-anchor="middle" x="107" y="-7.5" font-family="Helvetica,sans-Serif" font-size="10.00">nek_init</text>
</a>
</g>
</g>
<!-- Node7&#45;&gt;Node8 -->
<g id="edge7" class="edge">
<title>Node7&#45;&gt;Node8</title>
<path fill="none" stroke="midnightblue" d="M157.8,-10C149.42,-10 140.31,-10 132.2,-10"/>
<polygon fill="midnightblue" stroke="midnightblue" points="157.91,-13.5 167.91,-10 157.91,-6.5 157.91,-13.5"/>
</g>
<!-- Node9 -->
<g id="node9" class="node">
<title>Node9</title>
<g id="a_node9"><a xlink:href="drive_8f.html#a13048bf28dd0734640412d69349e3857" target="_top" xlink:title=" ">
<polygon fill="white" stroke="black" points="0,-0.5 0,-19.5 46,-19.5 46,-0.5 0,-0.5"/>
<text text-anchor="middle" x="23" y="-7.5" font-family="Helvetica,sans-Serif" font-size="10.00">nekton</text>
</a>
</g>
</g>
<!-- Node8&#45;&gt;Node9 -->
<g id="edge8" class="edge">
<title>Node8&#45;&gt;Node9</title>
<path fill="none" stroke="midnightblue" d="M71.59,-10C62.94,-10 53.89,-10 46.03,-10"/>
<polygon fill="midnightblue" stroke="midnightblue" points="71.84,-13.5 81.84,-10 71.84,-6.5 71.84,-13.5"/>
</g>
</g>
</svg>
