<?xml version="1.0" encoding="UTF-8" standalone="no"?>
<!DOCTYPE svg PUBLIC "-//W3C//DTD SVG 1.1//EN"
 "http://www.w3.org/Graphics/SVG/1.1/DTD/svg11.dtd">
<!-- Generated by graphviz version 2.46.0 (0)
 -->
<!-- Title: row_zero Pages: 1 -->
<svg width="474pt" height="142pt"
 viewBox="0.00 0.00 474.00 142.00" xmlns="http://www.w3.org/2000/svg" xmlns:xlink="http://www.w3.org/1999/xlink">
<g id="graph0" class="graph" transform="scale(1 1) rotate(0) translate(4 138)">
<title>row_zero</title>
<polygon fill="white" stroke="transparent" points="-4,4 -4,-138 470,-138 470,4 -4,4"/>
<!-- Node1 -->
<g id="node1" class="node">
<title>Node1</title>
<g id="a_node1"><a xlink:title=" ">
<polygon fill="#bfbfbf" stroke="black" points="410,-38.5 410,-57.5 466,-57.5 466,-38.5 410,-38.5"/>
<text text-anchor="middle" x="438" y="-45.5" font-family="Helvetica,sans-Serif" font-size="10.00">row_zero</text>
</a>
</g>
</g>
<!-- Node2 -->
<g id="node2" class="node">
<title>Node2</title>
<g id="a_node2"><a xlink:href="hsmg_8f.html#a57c4906700aca571f060a547363b280f" target="_top" xlink:title=" ">
<polygon fill="white" stroke="black" points="264,-76.5 264,-95.5 366,-95.5 366,-76.5 264,-76.5"/>
<text text-anchor="middle" x="315" y="-83.5" font-family="Helvetica,sans-Serif" font-size="10.00">hsmg_setup_fast1d</text>
</a>
</g>
</g>
<!-- Node1&#45;&gt;Node2 -->
<g id="edge1" class="edge">
<title>Node1&#45;&gt;Node2</title>
<path fill="none" stroke="midnightblue" d="M400.13,-59.58C382.96,-64.97 362.77,-71.31 346.47,-76.43"/>
<polygon fill="midnightblue" stroke="midnightblue" points="401.35,-62.86 409.85,-56.53 399.26,-56.19 401.35,-62.86"/>
</g>
<!-- Node12 -->
<g id="node6" class="node">
<title>Node12</title>
<g id="a_node6"><a xlink:href="fast3d_8f.html#a05d4e543e6504bffe2f7b080de6f71cf" target="_top" xlink:title=" ">
<polygon fill="white" stroke="black" points="261.5,-38.5 261.5,-57.5 368.5,-57.5 368.5,-38.5 261.5,-38.5"/>
<text text-anchor="middle" x="315" y="-45.5" font-family="Helvetica,sans-Serif" font-size="10.00">set_up_fast_1d_sem</text>
</a>
</g>
</g>
<!-- Node1&#45;&gt;Node12 -->
<g id="edge5" class="edge">
<title>Node1&#45;&gt;Node12</title>
<path fill="none" stroke="midnightblue" d="M399.69,-48C389.94,-48 379.24,-48 368.85,-48"/>
<polygon fill="midnightblue" stroke="midnightblue" points="399.85,-51.5 409.85,-48 399.85,-44.5 399.85,-51.5"/>
</g>
<!-- Node14 -->
<g id="node9" class="node">
<title>Node14</title>
<g id="a_node9"><a xlink:href="gmres_8f.html#aa171d4647e9b81013eef39d18ffc4592" target="_top" xlink:title=" ">
<polygon fill="white" stroke="black" points="256,-0.5 256,-19.5 374,-19.5 374,-0.5 256,-0.5"/>
<text text-anchor="middle" x="315" y="-7.5" font-family="Helvetica,sans-Serif" font-size="10.00">set_up_fast_1d_sem_g</text>
</a>
</g>
</g>
<!-- Node1&#45;&gt;Node14 -->
<g id="edge8" class="edge">
<title>Node1&#45;&gt;Node14</title>
<path fill="none" stroke="midnightblue" d="M400.13,-36.42C382.96,-31.03 362.77,-24.69 346.47,-19.57"/>
<polygon fill="midnightblue" stroke="midnightblue" points="399.26,-39.81 409.85,-39.47 401.35,-33.14 399.26,-39.81"/>
</g>
<!-- Node3 -->
<g id="node3" class="node">
<title>Node3</title>
<g id="a_node3"><a xlink:href="hsmg_8f.html#ad38a0646e0ae6eba29f1be94d7458e27" target="_top" xlink:title=" ">
<polygon fill="white" stroke="black" points="128,-76.5 128,-95.5 220,-95.5 220,-76.5 128,-76.5"/>
<text text-anchor="middle" x="174" y="-83.5" font-family="Helvetica,sans-Serif" font-size="10.00">hsmg_setup_fast</text>
</a>
</g>
</g>
<!-- Node2&#45;&gt;Node3 -->
<g id="edge2" class="edge">
<title>Node2&#45;&gt;Node3</title>
<path fill="none" stroke="midnightblue" d="M253.6,-86C242.33,-86 230.74,-86 220.03,-86"/>
<polygon fill="midnightblue" stroke="midnightblue" points="253.82,-89.5 263.82,-86 253.82,-82.5 253.82,-89.5"/>
</g>
<!-- Node4 -->
<g id="node4" class="node">
<title>Node4</title>
<g id="a_node4"><a xlink:href="hsmg_8f.html#a0cb685872badeb2b5d57bb11d2392c8c" target="_top" xlink:title=" ">
<polygon fill="white" stroke="red" points="0,-114.5 0,-133.5 92,-133.5 92,-114.5 0,-114.5"/>
<text text-anchor="middle" x="46" y="-121.5" font-family="Helvetica,sans-Serif" font-size="10.00">h1mg_setup_fdm</text>
</a>
</g>
</g>
<!-- Node3&#45;&gt;Node4 -->
<g id="edge3" class="edge">
<title>Node3&#45;&gt;Node4</title>
<path fill="none" stroke="midnightblue" d="M131.44,-98.54C114.29,-103.7 94.75,-109.6 78.78,-114.41"/>
<polygon fill="midnightblue" stroke="midnightblue" points="132.64,-101.83 141.2,-95.59 130.62,-95.13 132.64,-101.83"/>
</g>
<!-- Node10 -->
<g id="node5" class="node">
<title>Node10</title>
<g id="a_node5"><a xlink:href="hsmg_8f.html#a97ac4daa5772d8a28941639b361add77" target="_top" xlink:title=" ">
<polygon fill="white" stroke="red" points="0,-76.5 0,-95.5 92,-95.5 92,-76.5 0,-76.5"/>
<text text-anchor="middle" x="46" y="-83.5" font-family="Helvetica,sans-Serif" font-size="10.00">hsmg_setup_fdm</text>
</a>
</g>
</g>
<!-- Node3&#45;&gt;Node10 -->
<g id="edge4" class="edge">
<title>Node3&#45;&gt;Node10</title>
<path fill="none" stroke="midnightblue" d="M117.65,-86C109.16,-86 100.48,-86 92.24,-86"/>
<polygon fill="midnightblue" stroke="midnightblue" points="117.87,-89.5 127.87,-86 117.87,-82.5 117.87,-89.5"/>
</g>
<!-- Node13 -->
<g id="node7" class="node">
<title>Node13</title>
<g id="a_node7"><a xlink:href="fast3d_8f.html#ae816aca38820baec08dcc7ac8a89275c" target="_top" xlink:title=" ">
<polygon fill="white" stroke="black" points="147,-38.5 147,-57.5 201,-57.5 201,-38.5 147,-38.5"/>
<text text-anchor="middle" x="174" y="-45.5" font-family="Helvetica,sans-Serif" font-size="10.00">gen_fast</text>
</a>
</g>
</g>
<!-- Node12&#45;&gt;Node13 -->
<g id="edge6" class="edge">
<title>Node12&#45;&gt;Node13</title>
<path fill="none" stroke="midnightblue" d="M251.17,-48C233.55,-48 215.34,-48 201.15,-48"/>
<polygon fill="midnightblue" stroke="midnightblue" points="251.45,-51.5 261.45,-48 251.45,-44.5 251.45,-51.5"/>
</g>
<!-- Node6 -->
<g id="node8" class="node">
<title>Node6</title>
<g id="a_node8"><a xlink:href="navier6_8f.html#a45317b1def173b8f1db2e5083595d095" target="_top" xlink:title=" ">
<polygon fill="white" stroke="red" points="12.5,-38.5 12.5,-57.5 79.5,-57.5 79.5,-38.5 12.5,-38.5"/>
<text text-anchor="middle" x="46" y="-45.5" font-family="Helvetica,sans-Serif" font-size="10.00">set_overlap</text>
</a>
</g>
</g>
<!-- Node13&#45;&gt;Node6 -->
<g id="edge7" class="edge">
<title>Node13&#45;&gt;Node6</title>
<path fill="none" stroke="midnightblue" d="M136.79,-48C118.82,-48 97.29,-48 79.81,-48"/>
<polygon fill="midnightblue" stroke="midnightblue" points="136.89,-51.5 146.89,-48 136.89,-44.5 136.89,-51.5"/>
</g>
<!-- Node15 -->
<g id="node10" class="node">
<title>Node15</title>
<g id="a_node10"><a xlink:href="gmres_8f.html#a318ed98b18a9670923d141144c2eeb15" target="_top" xlink:title=" ">
<polygon fill="white" stroke="red" points="141.5,-0.5 141.5,-19.5 206.5,-19.5 206.5,-0.5 141.5,-0.5"/>
<text text-anchor="middle" x="174" y="-7.5" font-family="Helvetica,sans-Serif" font-size="10.00">gen_fast_g</text>
</a>
</g>
</g>
<!-- Node14&#45;&gt;Node15 -->
<g id="edge9" class="edge">
<title>Node14&#45;&gt;Node15</title>
<path fill="none" stroke="midnightblue" d="M245.53,-10C231.97,-10 218.36,-10 206.76,-10"/>
<polygon fill="midnightblue" stroke="midnightblue" points="245.86,-13.5 255.86,-10 245.86,-6.5 245.86,-13.5"/>
</g>
</g>
</svg>
