<?xml version="1.0" encoding="UTF-8" standalone="no"?>
<!DOCTYPE svg PUBLIC "-//W3C//DTD SVG 1.1//EN"
 "http://www.w3.org/Graphics/SVG/1.1/DTD/svg11.dtd">
<!-- Generated by graphviz version 2.46.0 (0)
 -->
<!-- Title: semhat Pages: 1 -->
<svg width="479pt" height="154pt"
 viewBox="0.00 0.00 479.00 153.64" xmlns="http://www.w3.org/2000/svg" xmlns:xlink="http://www.w3.org/1999/xlink">
<g id="graph0" class="graph" transform="scale(1 1) rotate(0) translate(4 149.64)">
<title>semhat</title>
<polygon fill="white" stroke="transparent" points="-4,4 -4,-149.64 475,-149.64 475,4 -4,4"/>
<!-- Node1 -->
<g id="node1" class="node">
<title>Node1</title>
<g id="a_node1"><a xlink:title=" ">
<polygon fill="#bfbfbf" stroke="black" points="0,-69.14 0,-88.14 49,-88.14 49,-69.14 0,-69.14"/>
<text text-anchor="middle" x="24.5" y="-76.14" font-family="Helvetica,sans-Serif" font-size="10.00">semhat</text>
</a>
</g>
</g>
<!-- Node2 -->
<g id="node2" class="node">
<title>Node2</title>
<g id="a_node2"><a xlink:href="fast3d_8f.html#ad007f6eca12b1b9307f46e56bcc40a59" target="_top" xlink:title=" ">
<polygon fill="white" stroke="black" points="85,-126.14 85,-145.14 167,-145.14 167,-126.14 85,-126.14"/>
<text text-anchor="middle" x="126" y="-133.14" font-family="Helvetica,sans-Serif" font-size="10.00">fd_weights_full</text>
</a>
</g>
</g>
<!-- Node1&#45;&gt;Node2 -->
<g id="edge1" class="edge">
<title>Node1&#45;&gt;Node2</title>
<path fill="none" stroke="midnightblue" d="M39.38,-88.21C51.25,-96.22 68.92,-107.73 85,-116.64 88.05,-118.33 91.28,-120.02 94.52,-121.65"/>
<polygon fill="midnightblue" stroke="midnightblue" points="93.05,-124.83 103.58,-126.07 96.12,-118.54 93.05,-124.83"/>
</g>
<!-- Node3 -->
<g id="node3" class="node">
<title>Node3</title>
<g id="a_node3"><a xlink:href="math_8f.html#af44de42b023a4a68cd98ea341204342d" target="_top" xlink:title=" ">
<polygon fill="white" stroke="black" points="107,-88.14 107,-107.14 145,-107.14 145,-88.14 107,-88.14"/>
<text text-anchor="middle" x="126" y="-95.14" font-family="Helvetica,sans-Serif" font-size="10.00">rzero</text>
</a>
</g>
</g>
<!-- Node1&#45;&gt;Node3 -->
<g id="edge2" class="edge">
<title>Node1&#45;&gt;Node3</title>
<path fill="none" stroke="midnightblue" d="M49.08,-83.14C63.46,-85.89 81.92,-89.41 97.04,-92.3"/>
<polygon fill="midnightblue" stroke="midnightblue" points="96.4,-95.74 106.88,-94.18 97.71,-88.87 96.4,-95.74"/>
</g>
<!-- Node4 -->
<g id="node4" class="node">
<title>Node4</title>
<g id="a_node4"><a xlink:href="speclib_8f.html#a1aea25f2ddfcdcb1f50e66bbd4282fe2" target="_top" xlink:title=" ">
<polygon fill="white" stroke="black" points="204,-50.14 204,-69.14 241,-69.14 241,-50.14 204,-50.14"/>
<text text-anchor="middle" x="222.5" y="-57.14" font-family="Helvetica,sans-Serif" font-size="10.00">zwgl</text>
</a>
</g>
</g>
<!-- Node1&#45;&gt;Node4 -->
<g id="edge3" class="edge">
<title>Node1&#45;&gt;Node4</title>
<path fill="none" stroke="midnightblue" d="M49.14,-76.35C85.53,-72.82 155.1,-66.08 193.8,-62.33"/>
<polygon fill="midnightblue" stroke="midnightblue" points="194.23,-65.8 203.84,-61.35 193.55,-58.83 194.23,-65.8"/>
</g>
<!-- Node15 -->
<g id="node8" class="node">
<title>Node15</title>
<g id="a_node8"><a xlink:href="speclib_8f.html#a3788ff93193b0428aad51e76c6ed2e18" target="_top" xlink:title=" ">
<polygon fill="white" stroke="black" points="106.5,-12.14 106.5,-31.14 145.5,-31.14 145.5,-12.14 106.5,-12.14"/>
<text text-anchor="middle" x="126" y="-19.14" font-family="Helvetica,sans-Serif" font-size="10.00">zwgll</text>
</a>
</g>
</g>
<!-- Node1&#45;&gt;Node15 -->
<g id="edge8" class="edge">
<title>Node1&#45;&gt;Node15</title>
<path fill="none" stroke="midnightblue" d="M42.38,-68.97C58.05,-59.99 81.61,-46.5 99.56,-36.21"/>
<polygon fill="midnightblue" stroke="midnightblue" points="101.43,-39.17 108.37,-31.17 97.95,-33.1 101.43,-39.17"/>
</g>
<!-- Node5 -->
<g id="node5" class="node">
<title>Node5</title>
<g id="a_node5"><a xlink:href="speclib_8f.html#ae296dfc5588151cd6cc7e2045e2c0330" target="_top" xlink:title=" ">
<polygon fill="white" stroke="black" points="281.5,-50.14 281.5,-69.14 318.5,-69.14 318.5,-50.14 281.5,-50.14"/>
<text text-anchor="middle" x="300" y="-57.14" font-family="Helvetica,sans-Serif" font-size="10.00">zwgj</text>
</a>
</g>
</g>
<!-- Node4&#45;&gt;Node5 -->
<g id="edge4" class="edge">
<title>Node4&#45;&gt;Node5</title>
<path fill="none" stroke="midnightblue" d="M241.01,-59.64C250,-59.64 261.16,-59.64 271.28,-59.64"/>
<polygon fill="midnightblue" stroke="midnightblue" points="271.32,-63.14 281.32,-59.64 271.32,-56.14 271.32,-63.14"/>
</g>
<!-- Node6 -->
<g id="node6" class="node">
<title>Node6</title>
<g id="a_node6"><a xlink:href="byte_8c.html#a2da8eeb074dfd3ffbfb3e9a4d301cda4" target="_top" xlink:title=" ">
<polygon fill="white" stroke="red" points="436,-31.14 436,-50.14 471,-50.14 471,-31.14 436,-31.14"/>
<text text-anchor="middle" x="453.5" y="-38.14" font-family="Helvetica,sans-Serif" font-size="10.00">exitt</text>
</a>
</g>
</g>
<!-- Node5&#45;&gt;Node6 -->
<g id="edge5" class="edge">
<title>Node5&#45;&gt;Node6</title>
<path fill="none" stroke="midnightblue" d="M318.86,-68.35C338.94,-76.95 372.36,-87.59 400,-78.64 413.25,-74.35 425.95,-65.33 435.55,-57.15"/>
<polygon fill="midnightblue" stroke="midnightblue" points="438.03,-59.62 443.11,-50.32 433.35,-54.42 438.03,-59.62"/>
</g>
<!-- Node9 -->
<g id="node7" class="node">
<title>Node9</title>
<g id="a_node7"><a xlink:href="speclib_8f.html#a66d184d6cf0d520944c94caa7c86c03e" target="_top" xlink:title=" ">
<polygon fill="white" stroke="red" points="358,-50.14 358,-69.14 400,-69.14 400,-50.14 358,-50.14"/>
<text text-anchor="middle" x="379" y="-57.14" font-family="Helvetica,sans-Serif" font-size="10.00">zwgjd</text>
</a>
</g>
</g>
<!-- Node5&#45;&gt;Node9 -->
<g id="edge6" class="edge">
<title>Node5&#45;&gt;Node9</title>
<path fill="none" stroke="midnightblue" d="M318.86,-59.64C327.41,-59.64 337.88,-59.64 347.63,-59.64"/>
<polygon fill="midnightblue" stroke="midnightblue" points="347.79,-63.14 357.79,-59.64 347.79,-56.14 347.79,-63.14"/>
</g>
<!-- Node9&#45;&gt;Node6 -->
<g id="edge7" class="edge">
<title>Node9&#45;&gt;Node6</title>
<path fill="none" stroke="midnightblue" d="M400.2,-54.35C408.18,-52.26 417.46,-49.82 425.98,-47.59"/>
<polygon fill="midnightblue" stroke="midnightblue" points="427.05,-50.93 435.84,-45.01 425.28,-44.16 427.05,-50.93"/>
</g>
<!-- Node16 -->
<g id="node9" class="node">
<title>Node16</title>
<g id="a_node9"><a xlink:href="speclib_8f.html#a0a1a17375323b7ab32d6ebe1c52ab1c3" target="_top" xlink:title=" ">
<polygon fill="white" stroke="black" points="203,-12.14 203,-31.14 242,-31.14 242,-12.14 203,-12.14"/>
<text text-anchor="middle" x="222.5" y="-19.14" font-family="Helvetica,sans-Serif" font-size="10.00">zwglj</text>
</a>
</g>
</g>
<!-- Node15&#45;&gt;Node16 -->
<g id="edge9" class="edge">
<title>Node15&#45;&gt;Node16</title>
<path fill="none" stroke="midnightblue" d="M145.67,-21.64C159.13,-21.64 177.55,-21.64 192.86,-21.64"/>
<polygon fill="midnightblue" stroke="midnightblue" points="192.87,-25.14 202.87,-21.64 192.87,-18.14 192.87,-25.14"/>
</g>
<!-- Node16&#45;&gt;Node6 -->
<g id="edge10" class="edge">
<title>Node16&#45;&gt;Node6</title>
<path fill="none" stroke="midnightblue" d="M242.26,-13.35C252.58,-9.24 265.75,-4.71 278,-2.64 331.14,6.36 392.58,-14.39 426.54,-28.63"/>
<polygon fill="midnightblue" stroke="midnightblue" points="425.19,-31.86 435.76,-32.62 427.97,-25.44 425.19,-31.86"/>
</g>
<!-- Node17 -->
<g id="node10" class="node">
<title>Node17</title>
<g id="a_node10"><a xlink:href="speclib_8f.html#a1de21b6470e13421db7e4bafe58b6a20" target="_top" xlink:title=" ">
<polygon fill="white" stroke="red" points="278,-12.14 278,-31.14 322,-31.14 322,-12.14 278,-12.14"/>
<text text-anchor="middle" x="300" y="-19.14" font-family="Helvetica,sans-Serif" font-size="10.00">zwgljd</text>
</a>
</g>
</g>
<!-- Node16&#45;&gt;Node17 -->
<g id="edge11" class="edge">
<title>Node16&#45;&gt;Node17</title>
<path fill="none" stroke="midnightblue" d="M242.16,-21.64C249.86,-21.64 259,-21.64 267.67,-21.64"/>
<polygon fill="midnightblue" stroke="midnightblue" points="267.89,-25.14 277.89,-21.64 267.89,-18.14 267.89,-25.14"/>
</g>
<!-- Node17&#45;&gt;Node6 -->
<g id="edge12" class="edge">
<title>Node17&#45;&gt;Node6</title>
<path fill="none" stroke="midnightblue" d="M322.07,-24.28C349.15,-27.68 396.2,-33.58 425.77,-37.29"/>
<polygon fill="midnightblue" stroke="midnightblue" points="425.45,-40.77 435.81,-38.55 426.32,-33.83 425.45,-40.77"/>
</g>
<!-- Node17&#45;&gt;Node9 -->
<g id="edge13" class="edge">
<title>Node17&#45;&gt;Node9</title>
<path fill="none" stroke="midnightblue" d="M320.43,-31.23C329.18,-35.55 339.7,-40.74 349.33,-45.49"/>
<polygon fill="midnightblue" stroke="midnightblue" points="348.06,-48.77 358.58,-50.05 351.16,-42.49 348.06,-48.77"/>
</g>
</g>
</svg>
