<?xml version="1.0" encoding="UTF-8" standalone="no"?>
<!DOCTYPE svg PUBLIC "-//W3C//DTD SVG 1.1//EN"
 "http://www.w3.org/Graphics/SVG/1.1/DTD/svg11.dtd">
<!-- Generated by graphviz version 2.46.0 (0)
 -->
<!-- Title: s_face_to_int Pages: 1 -->
<svg width="515pt" height="104pt"
 viewBox="0.00 0.00 515.00 104.00" xmlns="http://www.w3.org/2000/svg" xmlns:xlink="http://www.w3.org/1999/xlink">
<g id="graph0" class="graph" transform="scale(1 1) rotate(0) translate(4 100)">
<title>s_face_to_int</title>
<polygon fill="white" stroke="transparent" points="-4,4 -4,-100 511,-100 511,4 -4,4"/>
<!-- Node1 -->
<g id="node1" class="node">
<title>Node1</title>
<g id="a_node1"><a xlink:title=" ">
<polygon fill="#bfbfbf" stroke="black" points="432,-57.5 432,-76.5 507,-76.5 507,-57.5 432,-57.5"/>
<text text-anchor="middle" x="469.5" y="-64.5" font-family="Helvetica,sans-Serif" font-size="10.00">s_face_to_int</text>
</a>
</g>
</g>
<!-- Node2 -->
<g id="node2" class="node">
<title>Node2</title>
<g id="a_node2"><a xlink:href="fasts_8f.html#a059797b879e83b0d771fb55fbcbd6aad" target="_top" xlink:title=" ">
<polygon fill="white" stroke="black" points="310.5,-76.5 310.5,-95.5 389.5,-95.5 389.5,-76.5 310.5,-76.5"/>
<text text-anchor="middle" x="350" y="-83.5" font-family="Helvetica,sans-Serif" font-size="10.00">init_weight_op</text>
</a>
</g>
</g>
<!-- Node1&#45;&gt;Node2 -->
<g id="edge1" class="edge">
<title>Node1&#45;&gt;Node2</title>
<path fill="none" stroke="midnightblue" d="M421.9,-74.53C411.18,-76.27 399.89,-78.1 389.55,-79.77"/>
<polygon fill="midnightblue" stroke="midnightblue" points="422.65,-77.96 431.97,-72.91 421.54,-71.05 422.65,-77.96"/>
</g>
<!-- Node7 -->
<g id="node6" class="node">
<title>Node7</title>
<g id="a_node6"><a xlink:href="fasts_8f.html#adf929f1c8210a58914bda5771ed68098" target="_top" xlink:title=" ">
<polygon fill="white" stroke="black" points="304,-38.5 304,-57.5 396,-57.5 396,-38.5 304,-38.5"/>
<text text-anchor="middle" x="350" y="-45.5" font-family="Helvetica,sans-Serif" font-size="10.00">local_solves_fdm</text>
</a>
</g>
</g>
<!-- Node1&#45;&gt;Node7 -->
<g id="edge5" class="edge">
<title>Node1&#45;&gt;Node7</title>
<path fill="none" stroke="midnightblue" d="M421.88,-59.46C413.42,-58.09 404.62,-56.67 396.21,-55.31"/>
<polygon fill="midnightblue" stroke="midnightblue" points="421.54,-62.95 431.97,-61.09 422.65,-56.04 421.54,-62.95"/>
</g>
<!-- Node3 -->
<g id="node3" class="node">
<title>Node3</title>
<g id="a_node3"><a xlink:href="navier6_8f.html#a45317b1def173b8f1db2e5083595d095" target="_top" xlink:title=" ">
<polygon fill="white" stroke="black" points="200,-76.5 200,-95.5 267,-95.5 267,-76.5 200,-76.5"/>
<text text-anchor="middle" x="233.5" y="-83.5" font-family="Helvetica,sans-Serif" font-size="10.00">set_overlap</text>
</a>
</g>
</g>
<!-- Node2&#45;&gt;Node3 -->
<g id="edge2" class="edge">
<title>Node2&#45;&gt;Node3</title>
<path fill="none" stroke="midnightblue" d="M300.16,-86C289,-86 277.4,-86 267.12,-86"/>
<polygon fill="midnightblue" stroke="midnightblue" points="300.24,-89.5 310.24,-86 300.24,-82.5 300.24,-89.5"/>
</g>
<!-- Node4 -->
<g id="node4" class="node">
<title>Node4</title>
<g id="a_node4"><a xlink:href="drive2_8f.html#a7cb0ea7de68c5c3cbc3f7290f01a4d51" target="_top" xlink:title=" ">
<polygon fill="white" stroke="black" points="105.5,-76.5 105.5,-95.5 143.5,-95.5 143.5,-76.5 105.5,-76.5"/>
<text text-anchor="middle" x="124.5" y="-83.5" font-family="Helvetica,sans-Serif" font-size="10.00">prinit</text>
</a>
</g>
</g>
<!-- Node3&#45;&gt;Node4 -->
<g id="edge3" class="edge">
<title>Node3&#45;&gt;Node4</title>
<path fill="none" stroke="midnightblue" d="M189.56,-86C173.57,-86 156.28,-86 143.69,-86"/>
<polygon fill="midnightblue" stroke="midnightblue" points="189.82,-89.5 199.82,-86 189.82,-82.5 189.82,-89.5"/>
</g>
<!-- Node5 -->
<g id="node5" class="node">
<title>Node5</title>
<g id="a_node5"><a xlink:href="drive1_8f.html#a83f7c6d78ac4e68394f32533e847d0a3" target="_top" xlink:title=" ">
<polygon fill="white" stroke="red" points="0,-76.5 0,-95.5 50,-95.5 50,-76.5 0,-76.5"/>
<text text-anchor="middle" x="25" y="-83.5" font-family="Helvetica,sans-Serif" font-size="10.00">nek_init</text>
</a>
</g>
</g>
<!-- Node4&#45;&gt;Node5 -->
<g id="edge4" class="edge">
<title>Node4&#45;&gt;Node5</title>
<path fill="none" stroke="midnightblue" d="M94.93,-86C80.71,-86 63.71,-86 50.15,-86"/>
<polygon fill="midnightblue" stroke="midnightblue" points="95.16,-89.5 105.16,-86 95.16,-82.5 95.16,-89.5"/>
</g>
<!-- Node8 -->
<g id="node7" class="node">
<title>Node8</title>
<g id="a_node7"><a xlink:href="navier3_8f.html#af669ac1ac644d9b0594f8e305471b0aa" target="_top" xlink:title=" ">
<polygon fill="white" stroke="black" points="204,-38.5 204,-57.5 263,-57.5 263,-38.5 204,-38.5"/>
<text text-anchor="middle" x="233.5" y="-45.5" font-family="Helvetica,sans-Serif" font-size="10.00">dd_solver</text>
</a>
</g>
</g>
<!-- Node7&#45;&gt;Node8 -->
<g id="edge6" class="edge">
<title>Node7&#45;&gt;Node8</title>
<path fill="none" stroke="midnightblue" d="M293.73,-48C283.2,-48 272.58,-48 263.3,-48"/>
<polygon fill="midnightblue" stroke="midnightblue" points="293.75,-51.5 303.75,-48 293.75,-44.5 293.75,-51.5"/>
</g>
<!-- Node42 -->
<g id="node9" class="node">
<title>Node42</title>
<g id="a_node9"><a xlink:href="hsmg_8f.html#ab28b637ce952431f92c7210efdd23b52" target="_top" xlink:title=" ">
<polygon fill="white" stroke="black" points="199,-0.5 199,-19.5 268,-19.5 268,-0.5 199,-0.5"/>
<text text-anchor="middle" x="233.5" y="-7.5" font-family="Helvetica,sans-Serif" font-size="10.00">hsmg_solve</text>
</a>
</g>
</g>
<!-- Node7&#45;&gt;Node42 -->
<g id="edge8" class="edge">
<title>Node7&#45;&gt;Node42</title>
<path fill="none" stroke="midnightblue" d="M310.35,-35.17C294.99,-30.08 277.62,-24.31 263.38,-19.59"/>
<polygon fill="midnightblue" stroke="midnightblue" points="309.51,-38.58 320.11,-38.41 311.72,-31.94 309.51,-38.58"/>
</g>
<!-- Node9 -->
<g id="node8" class="node">
<title>Node9</title>
<g id="a_node8"><a xlink:href="navier3_8f.html#a7b3bc6faab84d98556026751dbf434ef" target="_top" xlink:title=" ">
<polygon fill="white" stroke="red" points="101.5,-38.5 101.5,-57.5 147.5,-57.5 147.5,-38.5 101.5,-38.5"/>
<text text-anchor="middle" x="124.5" y="-45.5" font-family="Helvetica,sans-Serif" font-size="10.00">eprec2</text>
</a>
</g>
</g>
<!-- Node8&#45;&gt;Node9 -->
<g id="edge7" class="edge">
<title>Node8&#45;&gt;Node9</title>
<path fill="none" stroke="midnightblue" d="M193.52,-48C178.14,-48 161.02,-48 147.8,-48"/>
<polygon fill="midnightblue" stroke="midnightblue" points="193.83,-51.5 203.83,-48 193.83,-44.5 193.83,-51.5"/>
</g>
<!-- Node41 -->
<g id="node10" class="node">
<title>Node41</title>
<g id="a_node10"><a xlink:href="gmres_8f.html#a7ddb9e8764ebf87db6b357ca39df2a08" target="_top" xlink:title=" ">
<polygon fill="white" stroke="red" points="86,-0.5 86,-19.5 163,-19.5 163,-0.5 86,-0.5"/>
<text text-anchor="middle" x="124.5" y="-7.5" font-family="Helvetica,sans-Serif" font-size="10.00">uzawa_gmres</text>
</a>
</g>
</g>
<!-- Node42&#45;&gt;Node41 -->
<g id="edge9" class="edge">
<title>Node42&#45;&gt;Node41</title>
<path fill="none" stroke="midnightblue" d="M188.76,-10C180.23,-10 171.35,-10 163.04,-10"/>
<polygon fill="midnightblue" stroke="midnightblue" points="188.94,-13.5 198.94,-10 188.94,-6.5 188.94,-13.5"/>
</g>
</g>
</svg>
