<?xml version="1.0" encoding="UTF-8" standalone="no"?>
<!DOCTYPE svg PUBLIC "-//W3C//DTD SVG 1.1//EN"
 "http://www.w3.org/Graphics/SVG/1.1/DTD/svg11.dtd">
<!-- Generated by graphviz version 2.46.0 (0)
 -->
<!-- Title: set_up_1d_geom Pages: 1 -->
<svg width="427pt" height="180pt"
 viewBox="0.00 0.00 427.00 180.00" xmlns="http://www.w3.org/2000/svg" xmlns:xlink="http://www.w3.org/1999/xlink">
<g id="graph0" class="graph" transform="scale(1 1) rotate(0) translate(4 176)">
<title>set_up_1d_geom</title>
<polygon fill="white" stroke="transparent" points="-4,4 -4,-176 423,-176 423,4 -4,4"/>
<!-- Node1 -->
<g id="node1" class="node">
<title>Node1</title>
<g id="a_node1"><a xlink:title=" ">
<polygon fill="#bfbfbf" stroke="black" points="0,-95.5 0,-114.5 91,-114.5 91,-95.5 0,-95.5"/>
<text text-anchor="middle" x="45.5" y="-102.5" font-family="Helvetica,sans-Serif" font-size="10.00">set_up_1d_geom</text>
</a>
</g>
</g>
<!-- Node2 -->
<g id="node2" class="node">
<title>Node2</title>
<g id="a_node2"><a xlink:href="math_8f.html#ae1294c8ac3b5b3c38bbcc250d252b9cb" target="_top" xlink:title=" ">
<polygon fill="white" stroke="black" points="129.5,-114.5 129.5,-133.5 164.5,-133.5 164.5,-114.5 129.5,-114.5"/>
<text text-anchor="middle" x="147" y="-121.5" font-family="Helvetica,sans-Serif" font-size="10.00">rone</text>
</a>
</g>
</g>
<!-- Node1&#45;&gt;Node2 -->
<g id="edge1" class="edge">
<title>Node1&#45;&gt;Node2</title>
<path fill="none" stroke="midnightblue" d="M91.01,-113.5C100.72,-115.35 110.7,-117.26 119.45,-118.93"/>
<polygon fill="midnightblue" stroke="midnightblue" points="118.93,-122.39 129.41,-120.83 120.24,-115.52 118.93,-122.39"/>
</g>
<!-- Node3 -->
<g id="node3" class="node">
<title>Node3</title>
<g id="a_node3"><a xlink:href="connect2_8f.html#a6e862f603b59c81091476a690c5e94ee" target="_top" xlink:title=" ">
<polygon fill="white" stroke="black" points="127,-76.5 127,-95.5 167,-95.5 167,-76.5 127,-76.5"/>
<text text-anchor="middle" x="147" y="-83.5" font-family="Helvetica,sans-Serif" font-size="10.00">scale</text>
</a>
</g>
</g>
<!-- Node1&#45;&gt;Node3 -->
<g id="edge2" class="edge">
<title>Node1&#45;&gt;Node3</title>
<path fill="none" stroke="midnightblue" d="M91.01,-96.5C99.79,-94.82 108.79,-93.11 116.9,-91.56"/>
<polygon fill="midnightblue" stroke="midnightblue" points="117.79,-94.95 126.95,-89.64 116.47,-88.08 117.79,-94.95"/>
</g>
<!-- Node4 -->
<g id="node4" class="node">
<title>Node4</title>
<g id="a_node4"><a xlink:href="math_8f.html#ac231f0566c16504dadd6ba0f16a38bd9" target="_top" xlink:title=" ">
<polygon fill="white" stroke="black" points="208,-152.5 208,-171.5 251,-171.5 251,-152.5 208,-152.5"/>
<text text-anchor="middle" x="229.5" y="-159.5" font-family="Helvetica,sans-Serif" font-size="10.00">glsum</text>
</a>
</g>
</g>
<!-- Node3&#45;&gt;Node4 -->
<g id="edge3" class="edge">
<title>Node3&#45;&gt;Node4</title>
<path fill="none" stroke="midnightblue" d="M158.13,-95.59C169.16,-106.03 187.32,-123.21 203,-138 205.48,-140.34 208.09,-142.8 210.66,-145.22"/>
<polygon fill="midnightblue" stroke="midnightblue" points="208.39,-147.89 218.07,-152.2 213.19,-142.79 208.39,-147.89"/>
</g>
<!-- Node5 -->
<g id="node5" class="node">
<title>Node5</title>
<g id="a_node5"><a xlink:href="gs__test__gop__blocking_8c.html#ab2e24f9857f6d1ded7e4d556c6bc5e49" target="_top" xlink:title=" ">
<polygon fill="white" stroke="black" points="292,-114.5 292,-133.5 324,-133.5 324,-114.5 292,-114.5"/>
<text text-anchor="middle" x="308" y="-121.5" font-family="Helvetica,sans-Serif" font-size="10.00">gop</text>
</a>
</g>
</g>
<!-- Node3&#45;&gt;Node5 -->
<g id="edge6" class="edge">
<title>Node3&#45;&gt;Node5</title>
<path fill="none" stroke="midnightblue" d="M167.12,-93.41C177.6,-97.26 190.88,-101.82 203,-105 229.46,-111.94 260.35,-117.24 281.56,-120.46"/>
<polygon fill="midnightblue" stroke="midnightblue" points="281.28,-123.95 291.68,-121.95 282.3,-117.03 281.28,-123.95"/>
</g>
<!-- Node7 -->
<g id="node7" class="node">
<title>Node7</title>
<g id="a_node7"><a xlink:href="connect2_8f.html#a15434c453b53c83ba2cb2a768d35085e" target="_top" xlink:title=" ">
<polygon fill="white" stroke="black" points="210.5,-76.5 210.5,-95.5 248.5,-95.5 248.5,-76.5 210.5,-76.5"/>
<text text-anchor="middle" x="229.5" y="-83.5" font-family="Helvetica,sans-Serif" font-size="10.00">inrtia</text>
</a>
</g>
</g>
<!-- Node3&#45;&gt;Node7 -->
<g id="edge7" class="edge">
<title>Node3&#45;&gt;Node7</title>
<path fill="none" stroke="midnightblue" d="M167.08,-86C177.01,-86 189.36,-86 200.36,-86"/>
<polygon fill="midnightblue" stroke="midnightblue" points="200.39,-89.5 210.39,-86 200.39,-82.5 200.39,-89.5"/>
</g>
<!-- Node8 -->
<g id="node8" class="node">
<title>Node8</title>
<g id="a_node8"><a xlink:href="math_8f.html#af44de42b023a4a68cd98ea341204342d" target="_top" xlink:title=" ">
<polygon fill="white" stroke="black" points="210.5,-38.5 210.5,-57.5 248.5,-57.5 248.5,-38.5 210.5,-38.5"/>
<text text-anchor="middle" x="229.5" y="-45.5" font-family="Helvetica,sans-Serif" font-size="10.00">rzero</text>
</a>
</g>
</g>
<!-- Node3&#45;&gt;Node8 -->
<g id="edge9" class="edge">
<title>Node3&#45;&gt;Node8</title>
<path fill="none" stroke="midnightblue" d="M167.08,-76.99C177.22,-72.21 189.87,-66.24 201.04,-60.96"/>
<polygon fill="midnightblue" stroke="midnightblue" points="202.84,-63.98 210.39,-56.55 199.85,-57.65 202.84,-63.98"/>
</g>
<!-- Node9 -->
<g id="node9" class="node">
<title>Node9</title>
<g id="a_node9"><a xlink:href="connect2_8f.html#a87e4cf77e2fcb243172fa8da88d5dfae" target="_top" xlink:title=" ">
<polygon fill="white" stroke="black" points="203,-0.5 203,-19.5 256,-19.5 256,-0.5 203,-0.5"/>
<text text-anchor="middle" x="229.5" y="-7.5" font-family="Helvetica,sans-Serif" font-size="10.00">volume2</text>
</a>
</g>
</g>
<!-- Node3&#45;&gt;Node9 -->
<g id="edge10" class="edge">
<title>Node3&#45;&gt;Node9</title>
<path fill="none" stroke="midnightblue" d="M156.51,-76.25C166.96,-64.51 185.45,-44.45 203,-29 204.14,-28 205.33,-26.99 206.54,-25.99"/>
<polygon fill="midnightblue" stroke="midnightblue" points="208.94,-28.56 214.68,-19.66 204.64,-23.04 208.94,-28.56"/>
</g>
<!-- Node4&#45;&gt;Node5 -->
<g id="edge4" class="edge">
<title>Node4&#45;&gt;Node5</title>
<path fill="none" stroke="midnightblue" d="M249.8,-152.41C259.7,-147.5 271.86,-141.46 282.42,-136.21"/>
<polygon fill="midnightblue" stroke="midnightblue" points="284.15,-139.26 291.55,-131.67 281.04,-132.99 284.15,-139.26"/>
</g>
<!-- Node6 -->
<g id="node6" class="node">
<title>Node6</title>
<g id="a_node6"><a xlink:href="math_8f.html#a17c0ecae12cc5c6096939885da90ad2b" target="_top" xlink:title=" ">
<polygon fill="white" stroke="black" points="360,-114.5 360,-133.5 419,-133.5 419,-114.5 360,-114.5"/>
<text text-anchor="middle" x="389.5" y="-121.5" font-family="Helvetica,sans-Serif" font-size="10.00">transpose</text>
</a>
</g>
</g>
<!-- Node5&#45;&gt;Node6 -->
<g id="edge5" class="edge">
<title>Node5&#45;&gt;Node6</title>
<path fill="none" stroke="midnightblue" d="M324.33,-124C331.61,-124 340.67,-124 349.67,-124"/>
<polygon fill="midnightblue" stroke="midnightblue" points="349.7,-127.5 359.7,-124 349.7,-120.5 349.7,-127.5"/>
</g>
<!-- Node7&#45;&gt;Node5 -->
<g id="edge8" class="edge">
<title>Node7&#45;&gt;Node5</title>
<path fill="none" stroke="midnightblue" d="M248.63,-95.01C258.81,-100.06 271.66,-106.44 282.7,-111.93"/>
<polygon fill="midnightblue" stroke="midnightblue" points="281.32,-115.15 291.83,-116.47 284.43,-108.88 281.32,-115.15"/>
</g>
</g>
</svg>
