<?xml version="1.0" encoding="UTF-8" standalone="no"?>
<!DOCTYPE svg PUBLIC "-//W3C//DTD SVG 1.1//EN"
 "http://www.w3.org/Graphics/SVG/1.1/DTD/svg11.dtd">
<!-- Generated by graphviz version 2.46.0 (0)
 -->
<!-- Title: finiparser_getBool Pages: 1 -->
<svg width="611pt" height="85pt"
 viewBox="0.00 0.00 611.00 85.00" xmlns="http://www.w3.org/2000/svg" xmlns:xlink="http://www.w3.org/1999/xlink">
<g id="graph0" class="graph" transform="scale(1 1) rotate(0) translate(4 81)">
<title>finiparser_getBool</title>
<polygon fill="white" stroke="transparent" points="-4,4 -4,-81 607,-81 607,4 -4,4"/>
<!-- Node1 -->
<g id="node1" class="node">
<title>Node1</title>
<g id="a_node1"><a xlink:title=" ">
<polygon fill="#bfbfbf" stroke="black" points="0,-38.5 0,-57.5 95,-57.5 95,-38.5 0,-38.5"/>
<text text-anchor="middle" x="47.5" y="-45.5" font-family="Helvetica,sans-Serif" font-size="10.00">finiparser_getBool</text>
</a>
</g>
</g>
<!-- Node2 -->
<g id="node2" class="node">
<title>Node2</title>
<g id="a_node2"><a xlink:href="finiparser_8c.html#a6be15697584eab554b10454d143a44d8" target="_top" xlink:title=" ">
<polygon fill="white" stroke="black" points="156,-57.5 156,-76.5 212,-76.5 212,-57.5 156,-57.5"/>
<text text-anchor="middle" x="184" y="-64.5" font-family="Helvetica,sans-Serif" font-size="10.00">addchar0</text>
</a>
</g>
</g>
<!-- Node1&#45;&gt;Node2 -->
<g id="edge1" class="edge">
<title>Node1&#45;&gt;Node2</title>
<path fill="none" stroke="midnightblue" d="M95.16,-54.59C111.56,-56.91 129.77,-59.48 145.33,-61.68"/>
<polygon fill="midnightblue" stroke="midnightblue" points="145.24,-65.2 155.63,-63.13 146.22,-58.27 145.24,-65.2"/>
</g>
<!-- Node3 -->
<g id="node3" class="node">
<title>Node3</title>
<g id="a_node3"><a xlink:href="iniparser_8c.html#afa30800883e2853074c038467f5fde2b" target="_top" xlink:title="Get the string associated to a key, convert to a boolean.">
<polygon fill="white" stroke="black" points="131,-19.5 131,-38.5 237,-38.5 237,-19.5 131,-19.5"/>
<text text-anchor="middle" x="184" y="-26.5" font-family="Helvetica,sans-Serif" font-size="10.00">iniparser_getboolean</text>
</a>
</g>
</g>
<!-- Node1&#45;&gt;Node3 -->
<g id="edge2" class="edge">
<title>Node1&#45;&gt;Node3</title>
<path fill="none" stroke="midnightblue" d="M95.16,-41.41C103.45,-40.24 112.2,-39 120.84,-37.78"/>
<polygon fill="midnightblue" stroke="midnightblue" points="121.48,-41.22 130.9,-36.36 120.51,-34.29 121.48,-41.22"/>
</g>
<!-- Node4 -->
<g id="node4" class="node">
<title>Node4</title>
<g id="a_node4"><a xlink:href="iniparser_8c.html#afa02a2ab6d21e751472f6a330ab7b815" target="_top" xlink:title="Get the string associated to a key.">
<polygon fill="white" stroke="black" points="273,-19.5 273,-38.5 369,-38.5 369,-19.5 273,-19.5"/>
<text text-anchor="middle" x="321" y="-26.5" font-family="Helvetica,sans-Serif" font-size="10.00">iniparser_getstring</text>
</a>
</g>
</g>
<!-- Node3&#45;&gt;Node4 -->
<g id="edge3" class="edge">
<title>Node3&#45;&gt;Node4</title>
<path fill="none" stroke="midnightblue" d="M237.19,-29C245.53,-29 254.19,-29 262.64,-29"/>
<polygon fill="midnightblue" stroke="midnightblue" points="262.8,-32.5 272.8,-29 262.8,-25.5 262.8,-32.5"/>
</g>
<!-- Node5 -->
<g id="node5" class="node">
<title>Node5</title>
<g id="a_node5"><a xlink:href="dictionary_8c.html#a8691664a012a1c689bd46b6b4477ea68" target="_top" xlink:title="Get a value from a dictionary.">
<polygon fill="white" stroke="black" points="405,-38.5 405,-57.5 482,-57.5 482,-38.5 405,-38.5"/>
<text text-anchor="middle" x="443.5" y="-45.5" font-family="Helvetica,sans-Serif" font-size="10.00">dictionary_get</text>
</a>
</g>
</g>
<!-- Node4&#45;&gt;Node5 -->
<g id="edge4" class="edge">
<title>Node4&#45;&gt;Node5</title>
<path fill="none" stroke="midnightblue" d="M369.28,-36.45C377.62,-37.77 386.32,-39.14 394.67,-40.46"/>
<polygon fill="midnightblue" stroke="midnightblue" points="394.24,-43.93 404.66,-42.03 395.33,-37.02 394.24,-43.93"/>
</g>
<!-- Node7 -->
<g id="node7" class="node">
<title>Node7</title>
<g id="a_node7"><a xlink:href="iniparser_8c.html#a427d5fbf1dca7f817ee5f4af7f9bc6e3" target="_top" xlink:title="Convert a string to lowercase.">
<polygon fill="white" stroke="black" points="422,-0.5 422,-19.5 465,-19.5 465,-0.5 422,-0.5"/>
<text text-anchor="middle" x="443.5" y="-7.5" font-family="Helvetica,sans-Serif" font-size="10.00">strlwc</text>
</a>
</g>
</g>
<!-- Node4&#45;&gt;Node7 -->
<g id="edge6" class="edge">
<title>Node4&#45;&gt;Node7</title>
<path fill="none" stroke="midnightblue" d="M369.28,-21.55C383.5,-19.3 398.73,-16.9 411.59,-14.87"/>
<polygon fill="midnightblue" stroke="midnightblue" points="412.44,-18.28 421.77,-13.27 411.35,-11.37 412.44,-18.28"/>
</g>
<!-- Node6 -->
<g id="node6" class="node">
<title>Node6</title>
<g id="a_node6"><a xlink:href="dictionary_8c.html#a7c1ef0a729e668d1e8d6a7e774feaf2e" target="_top" xlink:title="Compute the hash key for a string.">
<polygon fill="white" stroke="black" points="518,-38.5 518,-57.5 603,-57.5 603,-38.5 518,-38.5"/>
<text text-anchor="middle" x="560.5" y="-45.5" font-family="Helvetica,sans-Serif" font-size="10.00">dictionary_hash</text>
</a>
</g>
</g>
<!-- Node5&#45;&gt;Node6 -->
<g id="edge5" class="edge">
<title>Node5&#45;&gt;Node6</title>
<path fill="none" stroke="midnightblue" d="M482.16,-48C490.35,-48 499.15,-48 507.78,-48"/>
<polygon fill="midnightblue" stroke="midnightblue" points="507.78,-51.5 517.78,-48 507.78,-44.5 507.78,-51.5"/>
</g>
</g>
</svg>
