<?xml version="1.0" encoding="UTF-8" standalone="no"?>
<!DOCTYPE svg PUBLIC "-//W3C//DTD SVG 1.1//EN"
 "http://www.w3.org/Graphics/SVG/1.1/DTD/svg11.dtd">
<!-- Generated by graphviz version 2.46.0 (0)
 -->
<!-- Title: finiparser_findTokens Pages: 1 -->
<svg width="483pt" height="85pt"
 viewBox="0.00 0.00 483.00 85.00" xmlns="http://www.w3.org/2000/svg" xmlns:xlink="http://www.w3.org/1999/xlink">
<g id="graph0" class="graph" transform="scale(1 1) rotate(0) translate(4 81)">
<title>finiparser_findTokens</title>
<polygon fill="white" stroke="transparent" points="-4,4 -4,-81 479,-81 479,4 -4,4"/>
<!-- Node1 -->
<g id="node1" class="node">
<title>Node1</title>
<g id="a_node1"><a xlink:title=" ">
<polygon fill="#bfbfbf" stroke="black" points="0,-38.5 0,-57.5 109,-57.5 109,-38.5 0,-38.5"/>
<text text-anchor="middle" x="54.5" y="-45.5" font-family="Helvetica,sans-Serif" font-size="10.00">finiparser_findTokens</text>
</a>
</g>
</g>
<!-- Node2 -->
<g id="node2" class="node">
<title>Node2</title>
<g id="a_node2"><a xlink:href="finiparser_8c.html#a6be15697584eab554b10454d143a44d8" target="_top" xlink:title=" ">
<polygon fill="white" stroke="black" points="165,-57.5 165,-76.5 221,-76.5 221,-57.5 165,-57.5"/>
<text text-anchor="middle" x="193" y="-64.5" font-family="Helvetica,sans-Serif" font-size="10.00">addchar0</text>
</a>
</g>
</g>
<!-- Node1&#45;&gt;Node2 -->
<g id="edge1" class="edge">
<title>Node1&#45;&gt;Node2</title>
<path fill="none" stroke="midnightblue" d="M109.06,-55.45C124.29,-57.58 140.56,-59.84 154.61,-61.8"/>
<polygon fill="midnightblue" stroke="midnightblue" points="154.48,-65.31 164.87,-63.22 155.45,-58.38 154.48,-65.31"/>
</g>
<!-- Node3 -->
<g id="node3" class="node">
<title>Node3</title>
<g id="a_node3"><a xlink:href="iniparser_8c.html#afa02a2ab6d21e751472f6a330ab7b815" target="_top" xlink:title="Get the string associated to a key.">
<polygon fill="white" stroke="black" points="145,-19.5 145,-38.5 241,-38.5 241,-19.5 145,-19.5"/>
<text text-anchor="middle" x="193" y="-26.5" font-family="Helvetica,sans-Serif" font-size="10.00">iniparser_getstring</text>
</a>
</g>
</g>
<!-- Node1&#45;&gt;Node3 -->
<g id="edge2" class="edge">
<title>Node1&#45;&gt;Node3</title>
<path fill="none" stroke="midnightblue" d="M109.06,-40.55C117.45,-39.38 126.15,-38.17 134.62,-36.99"/>
<polygon fill="midnightblue" stroke="midnightblue" points="135.38,-40.42 144.8,-35.57 134.41,-33.48 135.38,-40.42"/>
</g>
<!-- Node4 -->
<g id="node4" class="node">
<title>Node4</title>
<g id="a_node4"><a xlink:href="dictionary_8c.html#a8691664a012a1c689bd46b6b4477ea68" target="_top" xlink:title="Get a value from a dictionary.">
<polygon fill="white" stroke="black" points="277,-38.5 277,-57.5 354,-57.5 354,-38.5 277,-38.5"/>
<text text-anchor="middle" x="315.5" y="-45.5" font-family="Helvetica,sans-Serif" font-size="10.00">dictionary_get</text>
</a>
</g>
</g>
<!-- Node3&#45;&gt;Node4 -->
<g id="edge3" class="edge">
<title>Node3&#45;&gt;Node4</title>
<path fill="none" stroke="midnightblue" d="M241.28,-36.45C249.62,-37.77 258.32,-39.14 266.67,-40.46"/>
<polygon fill="midnightblue" stroke="midnightblue" points="266.24,-43.93 276.66,-42.03 267.33,-37.02 266.24,-43.93"/>
</g>
<!-- Node6 -->
<g id="node6" class="node">
<title>Node6</title>
<g id="a_node6"><a xlink:href="iniparser_8c.html#a427d5fbf1dca7f817ee5f4af7f9bc6e3" target="_top" xlink:title="Convert a string to lowercase.">
<polygon fill="white" stroke="black" points="294,-0.5 294,-19.5 337,-19.5 337,-0.5 294,-0.5"/>
<text text-anchor="middle" x="315.5" y="-7.5" font-family="Helvetica,sans-Serif" font-size="10.00">strlwc</text>
</a>
</g>
</g>
<!-- Node3&#45;&gt;Node6 -->
<g id="edge5" class="edge">
<title>Node3&#45;&gt;Node6</title>
<path fill="none" stroke="midnightblue" d="M241.28,-21.55C255.5,-19.3 270.73,-16.9 283.59,-14.87"/>
<polygon fill="midnightblue" stroke="midnightblue" points="284.44,-18.28 293.77,-13.27 283.35,-11.37 284.44,-18.28"/>
</g>
<!-- Node5 -->
<g id="node5" class="node">
<title>Node5</title>
<g id="a_node5"><a xlink:href="dictionary_8c.html#a7c1ef0a729e668d1e8d6a7e774feaf2e" target="_top" xlink:title="Compute the hash key for a string.">
<polygon fill="white" stroke="black" points="390,-38.5 390,-57.5 475,-57.5 475,-38.5 390,-38.5"/>
<text text-anchor="middle" x="432.5" y="-45.5" font-family="Helvetica,sans-Serif" font-size="10.00">dictionary_hash</text>
</a>
</g>
</g>
<!-- Node4&#45;&gt;Node5 -->
<g id="edge4" class="edge">
<title>Node4&#45;&gt;Node5</title>
<path fill="none" stroke="midnightblue" d="M354.16,-48C362.35,-48 371.15,-48 379.78,-48"/>
<polygon fill="midnightblue" stroke="midnightblue" points="379.78,-51.5 389.78,-48 379.78,-44.5 379.78,-51.5"/>
</g>
</g>
</svg>
