<?xml version="1.0" encoding="UTF-8" standalone="no"?>
<!DOCTYPE svg PUBLIC "-//W3C//DTD SVG 1.1//EN"
 "http://www.w3.org/Graphics/SVG/1.1/DTD/svg11.dtd">
<!-- Generated by graphviz version 2.46.0 (0)
 -->
<!-- Title: gen_poly_imp.c Pages: 1 -->
<svg width="182pt" height="84pt"
 viewBox="0.00 0.00 181.50 84.00" xmlns="http://www.w3.org/2000/svg" xmlns:xlink="http://www.w3.org/1999/xlink">
<g id="graph0" class="graph" transform="scale(1 1) rotate(0) translate(4 80)">
<title>gen_poly_imp.c</title>
<polygon fill="white" stroke="transparent" points="-4,4 -4,-80 177.5,-80 177.5,4 -4,4"/>
<!-- Node1 -->
<g id="node1" class="node">
<title>Node1</title>
<g id="a_node1"><a xlink:title=" ">
<polygon fill="#bfbfbf" stroke="black" points="46,-56.5 46,-75.5 131,-75.5 131,-56.5 46,-56.5"/>
<text text-anchor="middle" x="88.5" y="-63.5" font-family="Helvetica,sans-Serif" font-size="10.00">gen_poly_imp.c</text>
</a>
</g>
</g>
<!-- Node2 -->
<g id="node2" class="node">
<title>Node2</title>
<g id="a_node2"><a xlink:title=" ">
<polygon fill="white" stroke="#bfbfbf" points="0,-0.5 0,-19.5 47,-19.5 47,-0.5 0,-0.5"/>
<text text-anchor="middle" x="23.5" y="-7.5" font-family="Helvetica,sans-Serif" font-size="10.00">math.h</text>
</a>
</g>
</g>
<!-- Node1&#45;&gt;Node2 -->
<g id="edge1" class="edge">
<title>Node1&#45;&gt;Node2</title>
<path fill="none" stroke="midnightblue" d="M78.06,-56.32C68.35,-48.26 53.68,-36.08 42,-26.37"/>
<polygon fill="midnightblue" stroke="midnightblue" points="44.06,-23.53 34.13,-19.83 39.59,-28.92 44.06,-23.53"/>
</g>
<!-- Node3 -->
<g id="node3" class="node">
<title>Node3</title>
<g id="a_node3"><a xlink:title=" ">
<polygon fill="white" stroke="#bfbfbf" points="65.5,-0.5 65.5,-19.5 111.5,-19.5 111.5,-0.5 65.5,-0.5"/>
<text text-anchor="middle" x="88.5" y="-7.5" font-family="Helvetica,sans-Serif" font-size="10.00">stdio.h</text>
</a>
</g>
</g>
<!-- Node1&#45;&gt;Node3 -->
<g id="edge2" class="edge">
<title>Node1&#45;&gt;Node3</title>
<path fill="none" stroke="midnightblue" d="M88.5,-56.08C88.5,-49.01 88.5,-38.86 88.5,-29.99"/>
<polygon fill="midnightblue" stroke="midnightblue" points="92,-29.75 88.5,-19.75 85,-29.75 92,-29.75"/>
</g>
<!-- Node4 -->
<g id="node4" class="node">
<title>Node4</title>
<g id="a_node4"><a xlink:title=" ">
<polygon fill="white" stroke="#bfbfbf" points="129.5,-0.5 129.5,-19.5 173.5,-19.5 173.5,-0.5 129.5,-0.5"/>
<text text-anchor="middle" x="151.5" y="-7.5" font-family="Helvetica,sans-Serif" font-size="10.00">gmp.h</text>
</a>
</g>
</g>
<!-- Node1&#45;&gt;Node4 -->
<g id="edge3" class="edge">
<title>Node1&#45;&gt;Node4</title>
<path fill="none" stroke="midnightblue" d="M98.62,-56.32C108.03,-48.26 122.24,-36.08 133.57,-26.37"/>
<polygon fill="midnightblue" stroke="midnightblue" points="135.88,-29 141.19,-19.83 131.32,-23.68 135.88,-29"/>
</g>
</g>
</svg>
