<?xml version="1.0" encoding="UTF-8" standalone="no"?>
<!DOCTYPE svg PUBLIC "-//W3C//DTD SVG 1.1//EN"
 "http://www.w3.org/Graphics/SVG/1.1/DTD/svg11.dtd">
<!-- Generated by graphviz version 2.46.0 (0)
 -->
<!-- Title: prjects Pages: 1 -->
<svg width="208pt" height="104pt"
 viewBox="0.00 0.00 208.00 104.00" xmlns="http://www.w3.org/2000/svg" xmlns:xlink="http://www.w3.org/1999/xlink">
<g id="graph0" class="graph" transform="scale(1 1) rotate(0) translate(4 100)">
<title>prjects</title>
<polygon fill="white" stroke="transparent" points="-4,4 -4,-100 204,-100 204,4 -4,4"/>
<!-- Node1 -->
<g id="node1" class="node">
<title>Node1</title>
<g id="a_node1"><a xlink:title=" ">
<polygon fill="#bfbfbf" stroke="black" points="0,-38.5 0,-57.5 46,-57.5 46,-38.5 0,-38.5"/>
<text text-anchor="middle" x="23" y="-45.5" font-family="Helvetica,sans-Serif" font-size="10.00">prjects</text>
</a>
</g>
</g>
<!-- Node2 -->
<g id="node2" class="node">
<title>Node2</title>
<g id="a_node2"><a xlink:href="math_8f.html#a3b43508554f14bdea8e14473d7d0803c" target="_top" xlink:title=" ">
<polygon fill="white" stroke="black" points="83.5,-76.5 83.5,-95.5 121.5,-95.5 121.5,-76.5 83.5,-76.5"/>
<text text-anchor="middle" x="102.5" y="-83.5" font-family="Helvetica,sans-Serif" font-size="10.00">copy</text>
</a>
</g>
</g>
<!-- Node1&#45;&gt;Node2 -->
<g id="edge1" class="edge">
<title>Node1&#45;&gt;Node2</title>
<path fill="none" stroke="midnightblue" d="M43.56,-57.59C52.8,-62.12 63.99,-67.61 74.07,-72.55"/>
<polygon fill="midnightblue" stroke="midnightblue" points="72.76,-75.81 83.28,-77.07 75.84,-69.52 72.76,-75.81"/>
</g>
<!-- Node3 -->
<g id="node3" class="node">
<title>Node3</title>
<g id="a_node3"><a xlink:href="genxyz_8f.html#a1b6412acc2a57fc74eaf79316452906a" target="_top" xlink:title=" ">
<polygon fill="white" stroke="black" points="159,-19.5 159,-38.5 200,-38.5 200,-19.5 159,-19.5"/>
<text text-anchor="middle" x="179.5" y="-26.5" font-family="Helvetica,sans-Serif" font-size="10.00">ressrf</text>
</a>
</g>
</g>
<!-- Node1&#45;&gt;Node3 -->
<g id="edge2" class="edge">
<title>Node1&#45;&gt;Node3</title>
<path fill="none" stroke="midnightblue" d="M46.14,-45.28C73.04,-41.97 118.54,-36.37 148.56,-32.68"/>
<polygon fill="midnightblue" stroke="midnightblue" points="149.35,-36.11 158.85,-31.42 148.5,-29.16 149.35,-36.11"/>
</g>
<!-- Node4 -->
<g id="node4" class="node">
<title>Node4</title>
<g id="a_node4"><a xlink:href="genxyz_8f.html#a8c3ae3f12a2d60eb86f3ed3377df0924" target="_top" xlink:title=" ">
<polygon fill="white" stroke="black" points="82,-0.5 82,-19.5 123,-19.5 123,-0.5 82,-0.5"/>
<text text-anchor="middle" x="102.5" y="-7.5" font-family="Helvetica,sans-Serif" font-size="10.00">srfind</text>
</a>
</g>
</g>
<!-- Node1&#45;&gt;Node4 -->
<g id="edge3" class="edge">
<title>Node1&#45;&gt;Node4</title>
<path fill="none" stroke="midnightblue" d="M43.56,-38.41C52.46,-34.05 63.17,-28.79 72.95,-24"/>
<polygon fill="midnightblue" stroke="midnightblue" points="74.51,-27.13 81.95,-19.59 71.43,-20.85 74.51,-27.13"/>
</g>
<!-- Node4&#45;&gt;Node3 -->
<g id="edge4" class="edge">
<title>Node4&#45;&gt;Node3</title>
<path fill="none" stroke="midnightblue" d="M123.21,-14.99C131.13,-17 140.43,-19.36 149.12,-21.56"/>
<polygon fill="midnightblue" stroke="midnightblue" points="148.37,-24.98 158.93,-24.04 150.09,-18.19 148.37,-24.98"/>
</g>
</g>
</svg>
