<?xml version="1.0" encoding="UTF-8" standalone="no"?>
<!DOCTYPE svg PUBLIC "-//W3C//DTD SVG 1.1//EN"
 "http://www.w3.org/Graphics/SVG/1.1/DTD/svg11.dtd">
<!-- Generated by graphviz version 2.46.0 (0)
 -->
<!-- Title: defsrf Pages: 1 -->
<svg width="272pt" height="85pt"
 viewBox="0.00 0.00 272.00 85.00" xmlns="http://www.w3.org/2000/svg" xmlns:xlink="http://www.w3.org/1999/xlink">
<g id="graph0" class="graph" transform="scale(1 1) rotate(0) translate(4 81)">
<title>defsrf</title>
<polygon fill="white" stroke="transparent" points="-4,4 -4,-81 268,-81 268,4 -4,4"/>
<!-- Node1 -->
<g id="node1" class="node">
<title>Node1</title>
<g id="a_node1"><a xlink:title=" ">
<polygon fill="#bfbfbf" stroke="black" points="0,-38.5 0,-57.5 41,-57.5 41,-38.5 0,-38.5"/>
<text text-anchor="middle" x="20.5" y="-45.5" font-family="Helvetica,sans-Serif" font-size="10.00">defsrf</text>
</a>
</g>
</g>
<!-- Node2 -->
<g id="node2" class="node">
<title>Node2</title>
<g id="a_node2"><a xlink:href="connect1_8f.html#aa6d2ebf2dfdfeae458d41ef4cb6d9fae" target="_top" xlink:title=" ">
<polygon fill="white" stroke="black" points="77,-57.5 77,-76.5 118,-76.5 118,-57.5 77,-57.5"/>
<text text-anchor="middle" x="97.5" y="-64.5" font-family="Helvetica,sans-Serif" font-size="10.00">dsset</text>
</a>
</g>
</g>
<!-- Node1&#45;&gt;Node2 -->
<g id="edge1" class="edge">
<title>Node1&#45;&gt;Node2</title>
<path fill="none" stroke="midnightblue" d="M41.21,-52.99C49.13,-55 58.43,-57.36 67.12,-59.56"/>
<polygon fill="midnightblue" stroke="midnightblue" points="66.37,-62.98 76.93,-62.04 68.09,-56.19 66.37,-62.98"/>
</g>
<!-- Node3 -->
<g id="node3" class="node">
<title>Node3</title>
<g id="a_node3"><a xlink:href="genxyz_8f.html#a56aa4b290784d22577dc004269147942" target="_top" xlink:title=" ">
<polygon fill="white" stroke="black" points="77,-19.5 77,-38.5 118,-38.5 118,-19.5 77,-19.5"/>
<text text-anchor="middle" x="97.5" y="-26.5" font-family="Helvetica,sans-Serif" font-size="10.00">intrsc</text>
</a>
</g>
</g>
<!-- Node1&#45;&gt;Node3 -->
<g id="edge2" class="edge">
<title>Node1&#45;&gt;Node3</title>
<path fill="none" stroke="midnightblue" d="M41.21,-43.01C49.13,-41 58.43,-38.64 67.12,-36.44"/>
<polygon fill="midnightblue" stroke="midnightblue" points="68.09,-39.81 76.93,-33.96 66.37,-33.02 68.09,-39.81"/>
</g>
<!-- Node4 -->
<g id="node4" class="node">
<title>Node4</title>
<g id="a_node4"><a xlink:href="genxyz_8f.html#aab8ab9498da96048a71f6e81343f747a" target="_top" xlink:title=" ">
<polygon fill="white" stroke="black" points="155.5,-38.5 155.5,-57.5 196.5,-57.5 196.5,-38.5 155.5,-38.5"/>
<text text-anchor="middle" x="176" y="-45.5" font-family="Helvetica,sans-Serif" font-size="10.00">zbrac</text>
</a>
</g>
</g>
<!-- Node3&#45;&gt;Node4 -->
<g id="edge3" class="edge">
<title>Node3&#45;&gt;Node4</title>
<path fill="none" stroke="midnightblue" d="M118.2,-33.89C126.5,-35.95 136.33,-38.4 145.47,-40.67"/>
<polygon fill="midnightblue" stroke="midnightblue" points="144.82,-44.11 155.37,-43.12 146.5,-37.32 144.82,-44.11"/>
</g>
<!-- Node6 -->
<g id="node6" class="node">
<title>Node6</title>
<g id="a_node6"><a xlink:href="genxyz_8f.html#a388e028d9c702800ecb8d1ae208a109a" target="_top" xlink:title=" ">
<polygon fill="white" stroke="black" points="154,-0.5 154,-19.5 198,-19.5 198,-0.5 154,-0.5"/>
<text text-anchor="middle" x="176" y="-7.5" font-family="Helvetica,sans-Serif" font-size="10.00">zbrent</text>
</a>
</g>
</g>
<!-- Node3&#45;&gt;Node6 -->
<g id="edge5" class="edge">
<title>Node3&#45;&gt;Node6</title>
<path fill="none" stroke="midnightblue" d="M118.2,-24.11C126.03,-22.16 135.22,-19.88 143.91,-17.72"/>
<polygon fill="midnightblue" stroke="midnightblue" points="144.89,-21.08 153.76,-15.28 143.21,-14.29 144.89,-21.08"/>
</g>
<!-- Node5 -->
<g id="node5" class="node">
<title>Node5</title>
<g id="a_node5"><a xlink:href="genxyz_8f.html#ae170813cbb19cda10fb5447ed2d83d00" target="_top" xlink:title=" ">
<polygon fill="white" stroke="black" points="234,-19.5 234,-38.5 264,-38.5 264,-19.5 234,-19.5"/>
<text text-anchor="middle" x="249" y="-26.5" font-family="Helvetica,sans-Serif" font-size="10.00">fnc</text>
</a>
</g>
</g>
<!-- Node4&#45;&gt;Node5 -->
<g id="edge4" class="edge">
<title>Node4&#45;&gt;Node5</title>
<path fill="none" stroke="midnightblue" d="M196.78,-42.71C205.27,-40.43 215.27,-37.76 224.17,-35.38"/>
<polygon fill="midnightblue" stroke="midnightblue" points="225.2,-38.73 233.95,-32.76 223.39,-31.96 225.2,-38.73"/>
</g>
<!-- Node6&#45;&gt;Node5 -->
<g id="edge6" class="edge">
<title>Node6&#45;&gt;Node5</title>
<path fill="none" stroke="midnightblue" d="M198.3,-15.7C206.34,-17.85 215.55,-20.32 223.83,-22.53"/>
<polygon fill="midnightblue" stroke="midnightblue" points="223.12,-25.96 233.68,-25.17 224.92,-19.2 223.12,-25.96"/>
</g>
</g>
</svg>
