<?xml version="1.0" encoding="UTF-8" standalone="no"?>
<!DOCTYPE svg PUBLIC "-//W3C//DTD SVG 1.1//EN"
 "http://www.w3.org/Graphics/SVG/1.1/DTD/svg11.dtd">
<!-- Generated by graphviz version 2.46.0 (0)
 -->
<!-- Title: clean_xyzq Pages: 1 -->
<svg width="619pt" height="142pt"
 viewBox="0.00 0.00 619.00 142.00" xmlns="http://www.w3.org/2000/svg" xmlns:xlink="http://www.w3.org/1999/xlink">
<g id="graph0" class="graph" transform="scale(1 1) rotate(0) translate(4 138)">
<title>clean_xyzq</title>
<polygon fill="white" stroke="transparent" points="-4,4 -4,-138 615,-138 615,4 -4,4"/>
<!-- Node1 -->
<g id="node1" class="node">
<title>Node1</title>
<g id="a_node1"><a xlink:title=" ">
<polygon fill="#bfbfbf" stroke="black" points="545,-57.5 545,-76.5 611,-76.5 611,-57.5 545,-57.5"/>
<text text-anchor="middle" x="578" y="-64.5" font-family="Helvetica,sans-Serif" font-size="10.00">clean_xyzq</text>
</a>
</g>
</g>
<!-- Node2 -->
<g id="node2" class="node">
<title>Node2</title>
<g id="a_node2"><a xlink:href="genxyz_8f.html#a7c0d9ad72ade85a885511477626382a9" target="_top" xlink:title=" ">
<polygon fill="white" stroke="black" points="456,-57.5 456,-76.5 509,-76.5 509,-57.5 456,-57.5"/>
<text text-anchor="middle" x="482.5" y="-64.5" font-family="Helvetica,sans-Serif" font-size="10.00">xyzquad</text>
</a>
</g>
</g>
<!-- Node1&#45;&gt;Node2 -->
<g id="edge1" class="edge">
<title>Node1&#45;&gt;Node2</title>
<path fill="none" stroke="midnightblue" d="M534.77,-67C526.07,-67 517.15,-67 509.25,-67"/>
<polygon fill="midnightblue" stroke="midnightblue" points="534.82,-70.5 544.82,-67 534.82,-63.5 534.82,-70.5"/>
</g>
<!-- Node3 -->
<g id="node3" class="node">
<title>Node3</title>
<g id="a_node3"><a xlink:href="genxyz_8f.html#a68c86aab3d5439b8cdc8368eed562f9c" target="_top" xlink:title=" ">
<polygon fill="white" stroke="black" points="373,-57.5 373,-76.5 420,-76.5 420,-57.5 373,-57.5"/>
<text text-anchor="middle" x="396.5" y="-64.5" font-family="Helvetica,sans-Serif" font-size="10.00">linquad</text>
</a>
</g>
</g>
<!-- Node2&#45;&gt;Node3 -->
<g id="edge2" class="edge">
<title>Node2&#45;&gt;Node3</title>
<path fill="none" stroke="midnightblue" d="M445.59,-67C436.96,-67 427.99,-67 420.16,-67"/>
<polygon fill="midnightblue" stroke="midnightblue" points="445.84,-70.5 455.84,-67 445.84,-63.5 445.84,-70.5"/>
</g>
<!-- Node4 -->
<g id="node4" class="node">
<title>Node4</title>
<g id="a_node4"><a xlink:href="genxyz_8f.html#a10f2e4b6c10053ac6abb2cd014cb8d44" target="_top" xlink:title=" ">
<polygon fill="white" stroke="black" points="289,-57.5 289,-76.5 337,-76.5 337,-57.5 289,-57.5"/>
<text text-anchor="middle" x="313" y="-64.5" font-family="Helvetica,sans-Serif" font-size="10.00">genxyz</text>
</a>
</g>
</g>
<!-- Node3&#45;&gt;Node4 -->
<g id="edge3" class="edge">
<title>Node3&#45;&gt;Node4</title>
<path fill="none" stroke="midnightblue" d="M362.7,-67C354.14,-67 345.09,-67 337.15,-67"/>
<polygon fill="midnightblue" stroke="midnightblue" points="362.8,-70.5 372.8,-67 362.8,-63.5 362.8,-70.5"/>
</g>
<!-- Node5 -->
<g id="node5" class="node">
<title>Node5</title>
<g id="a_node5"><a xlink:href="genxyz_8f.html#a6861908edfdc393cd40b5fd8ec8b242d" target="_top" xlink:title=" ">
<polygon fill="white" stroke="black" points="202,-57.5 202,-76.5 253,-76.5 253,-57.5 202,-57.5"/>
<text text-anchor="middle" x="227.5" y="-64.5" font-family="Helvetica,sans-Serif" font-size="10.00">gencoor</text>
</a>
</g>
</g>
<!-- Node4&#45;&gt;Node5 -->
<g id="edge4" class="edge">
<title>Node4&#45;&gt;Node5</title>
<path fill="none" stroke="midnightblue" d="M278.67,-67C270.13,-67 261.1,-67 253.09,-67"/>
<polygon fill="midnightblue" stroke="midnightblue" points="278.74,-70.5 288.74,-67 278.74,-63.5 278.74,-70.5"/>
</g>
<!-- Node6 -->
<g id="node6" class="node">
<title>Node6</title>
<g id="a_node6"><a xlink:href="drive2_8f.html#aefc07385d7e7539fb57662470f694136" target="_top" xlink:title=" ">
<polygon fill="white" stroke="red" points="110,-57.5 110,-76.5 166,-76.5 166,-57.5 110,-57.5"/>
<text text-anchor="middle" x="138" y="-64.5" font-family="Helvetica,sans-Serif" font-size="10.00">gengeom</text>
</a>
</g>
</g>
<!-- Node5&#45;&gt;Node6 -->
<g id="edge5" class="edge">
<title>Node5&#45;&gt;Node6</title>
<path fill="none" stroke="midnightblue" d="M191.61,-67C183.1,-67 174.13,-67 166.05,-67"/>
<polygon fill="midnightblue" stroke="midnightblue" points="191.66,-70.5 201.66,-67 191.66,-63.5 191.66,-70.5"/>
</g>
<!-- Node7 -->
<g id="node7" class="node">
<title>Node7</title>
<g id="a_node7"><a xlink:href="plan5_8f.html#a1f0ec8c2c9023166a911daec72f90239" target="_top" xlink:title=" ">
<polygon fill="white" stroke="red" points="6,-114.5 6,-133.5 68,-133.5 68,-114.5 6,-114.5"/>
<text text-anchor="middle" x="37" y="-121.5" font-family="Helvetica,sans-Serif" font-size="10.00">adv_geom</text>
</a>
</g>
</g>
<!-- Node6&#45;&gt;Node7 -->
<g id="edge6" class="edge">
<title>Node6&#45;&gt;Node7</title>
<path fill="none" stroke="midnightblue" d="M112.89,-81.98C101.24,-89.11 86.99,-97.66 74,-105 68.46,-108.13 62.37,-111.41 56.79,-114.34"/>
<polygon fill="midnightblue" stroke="midnightblue" points="114.93,-84.84 121.61,-76.62 111.26,-78.88 114.93,-84.84"/>
</g>
<!-- Node11 -->
<g id="node8" class="node">
<title>Node11</title>
<g id="a_node8"><a xlink:href="ssolv_8f.html#a4bb42a5afabbba8c6518d83cbe481c17" target="_top" xlink:title=" ">
<polygon fill="white" stroke="black" points="11.5,-76.5 11.5,-95.5 62.5,-95.5 62.5,-76.5 11.5,-76.5"/>
<text text-anchor="middle" x="37" y="-83.5" font-family="Helvetica,sans-Serif" font-size="10.00">go1step</text>
</a>
</g>
</g>
<!-- Node6&#45;&gt;Node11 -->
<g id="edge7" class="edge">
<title>Node6&#45;&gt;Node11</title>
<path fill="none" stroke="midnightblue" d="M99.84,-74.13C87.42,-76.52 73.88,-79.11 62.65,-81.27"/>
<polygon fill="midnightblue" stroke="midnightblue" points="100.79,-77.51 109.95,-72.19 99.47,-70.64 100.79,-77.51"/>
</g>
<!-- Node12 -->
<g id="node9" class="node">
<title>Node12</title>
<g id="a_node9"><a xlink:href="ssolv_8f.html#a2de8913c214fa083dcb088c57bd45272" target="_top" xlink:title=" ">
<polygon fill="white" stroke="red" points="14,-38.5 14,-57.5 60,-57.5 60,-38.5 14,-38.5"/>
<text text-anchor="middle" x="37" y="-45.5" font-family="Helvetica,sans-Serif" font-size="10.00">gostep</text>
</a>
</g>
</g>
<!-- Node6&#45;&gt;Node12 -->
<g id="edge8" class="edge">
<title>Node6&#45;&gt;Node12</title>
<path fill="none" stroke="midnightblue" d="M99.99,-59.9C86.53,-57.31 71.76,-54.48 60.02,-52.23"/>
<polygon fill="midnightblue" stroke="midnightblue" points="99.47,-63.36 109.95,-61.81 100.79,-56.49 99.47,-63.36"/>
</g>
<!-- Node14 -->
<g id="node10" class="node">
<title>Node14</title>
<g id="a_node10"><a xlink:href="drive1_8f.html#ae177ea7efac97f35241521b782a671c0" target="_top" xlink:title=" ">
<polygon fill="white" stroke="red" points="0,-0.5 0,-19.5 74,-19.5 74,-0.5 0,-0.5"/>
<text text-anchor="middle" x="37" y="-7.5" font-family="Helvetica,sans-Serif" font-size="10.00">nek_advance</text>
</a>
</g>
</g>
<!-- Node6&#45;&gt;Node14 -->
<g id="edge9" class="edge">
<title>Node6&#45;&gt;Node14</title>
<path fill="none" stroke="midnightblue" d="M112.89,-52.02C101.24,-44.89 86.99,-36.34 74,-29 68.46,-25.87 62.37,-22.59 56.79,-19.66"/>
<polygon fill="midnightblue" stroke="midnightblue" points="111.26,-55.12 121.61,-57.38 114.93,-49.16 111.26,-55.12"/>
</g>
</g>
</svg>
