<?xml version="1.0" encoding="UTF-8" standalone="no"?>
<!DOCTYPE svg PUBLIC "-//W3C//DTD SVG 1.1//EN"
 "http://www.w3.org/Graphics/SVG/1.1/DTD/svg11.dtd">
<!-- Generated by graphviz version 2.46.0 (0)
 -->
<!-- Title: setzgml Pages: 1 -->
<svg width="407pt" height="142pt"
 viewBox="0.00 0.00 407.00 142.00" xmlns="http://www.w3.org/2000/svg" xmlns:xlink="http://www.w3.org/1999/xlink">
<g id="graph0" class="graph" transform="scale(1 1) rotate(0) translate(4 138)">
<title>setzgml</title>
<polygon fill="white" stroke="transparent" points="-4,4 -4,-138 403,-138 403,4 -4,4"/>
<!-- Node1 -->
<g id="node1" class="node">
<title>Node1</title>
<g id="a_node1"><a xlink:title=" ">
<polygon fill="#bfbfbf" stroke="black" points="0,-57.5 0,-76.5 51,-76.5 51,-57.5 0,-57.5"/>
<text text-anchor="middle" x="25.5" y="-64.5" font-family="Helvetica,sans-Serif" font-size="10.00">setzgml</text>
</a>
</g>
</g>
<!-- Node2 -->
<g id="node2" class="node">
<title>Node2</title>
<g id="a_node2"><a xlink:href="math_8f.html#a3b43508554f14bdea8e14473d7d0803c" target="_top" xlink:title=" ">
<polygon fill="white" stroke="black" points="87,-95.5 87,-114.5 125,-114.5 125,-95.5 87,-95.5"/>
<text text-anchor="middle" x="106" y="-102.5" font-family="Helvetica,sans-Serif" font-size="10.00">copy</text>
</a>
</g>
</g>
<!-- Node1&#45;&gt;Node2 -->
<g id="edge1" class="edge">
<title>Node1&#45;&gt;Node2</title>
<path fill="none" stroke="midnightblue" d="M46.31,-76.59C55.84,-81.2 67.41,-86.8 77.75,-91.81"/>
<polygon fill="midnightblue" stroke="midnightblue" points="76.29,-94.99 86.81,-96.2 79.34,-88.69 76.29,-94.99"/>
</g>
<!-- Node3 -->
<g id="node3" class="node">
<title>Node3</title>
<g id="a_node3"><a xlink:href="comm__mpi_8f.html#a59fcf8a02fe54ab37f61050e3ca6b197" target="_top" xlink:title=" ">
<polygon fill="white" stroke="black" points="87,-57.5 87,-76.5 125,-76.5 125,-57.5 87,-57.5"/>
<text text-anchor="middle" x="106" y="-64.5" font-family="Helvetica,sans-Serif" font-size="10.00">exitti</text>
</a>
</g>
</g>
<!-- Node1&#45;&gt;Node3 -->
<g id="edge2" class="edge">
<title>Node1&#45;&gt;Node3</title>
<path fill="none" stroke="midnightblue" d="M51.34,-67C59.42,-67 68.46,-67 76.77,-67"/>
<polygon fill="midnightblue" stroke="midnightblue" points="76.79,-70.5 86.79,-67 76.79,-63.5 76.79,-70.5"/>
</g>
<!-- Node10 -->
<g id="node10" class="node">
<title>Node10</title>
<g id="a_node10"><a xlink:href="math_8f.html#af44de42b023a4a68cd98ea341204342d" target="_top" xlink:title=" ">
<polygon fill="white" stroke="black" points="87,-19.5 87,-38.5 125,-38.5 125,-19.5 87,-19.5"/>
<text text-anchor="middle" x="106" y="-26.5" font-family="Helvetica,sans-Serif" font-size="10.00">rzero</text>
</a>
</g>
</g>
<!-- Node1&#45;&gt;Node10 -->
<g id="edge9" class="edge">
<title>Node1&#45;&gt;Node10</title>
<path fill="none" stroke="midnightblue" d="M46.31,-57.41C55.84,-52.8 67.41,-47.2 77.75,-42.19"/>
<polygon fill="midnightblue" stroke="midnightblue" points="79.34,-45.31 86.81,-37.8 76.29,-39.01 79.34,-45.31"/>
</g>
<!-- Node4 -->
<g id="node4" class="node">
<title>Node4</title>
<g id="a_node4"><a xlink:href="math_8f.html#a692155d1d2ec380a9fdb2d81ef221625" target="_top" xlink:title=" ">
<polygon fill="white" stroke="black" points="165,-114.5 165,-133.5 205,-133.5 205,-114.5 165,-114.5"/>
<text text-anchor="middle" x="185" y="-121.5" font-family="Helvetica,sans-Serif" font-size="10.00">blank</text>
</a>
</g>
</g>
<!-- Node3&#45;&gt;Node4 -->
<g id="edge3" class="edge">
<title>Node3&#45;&gt;Node4</title>
<path fill="none" stroke="midnightblue" d="M120.06,-76.67C131.75,-85.32 149.09,-98.16 162.77,-108.28"/>
<polygon fill="midnightblue" stroke="midnightblue" points="161.01,-111.34 171.13,-114.47 165.18,-105.71 161.01,-111.34"/>
</g>
<!-- Node5 -->
<g id="node5" class="node">
<title>Node5</title>
<g id="a_node5"><a xlink:href="math_8f.html#ad7fb480cea001849621405f37167aab1" target="_top" xlink:title=" ">
<polygon fill="white" stroke="black" points="161,-76.5 161,-95.5 209,-95.5 209,-76.5 161,-76.5"/>
<text text-anchor="middle" x="185" y="-83.5" font-family="Helvetica,sans-Serif" font-size="10.00">chcopy</text>
</a>
</g>
</g>
<!-- Node3&#45;&gt;Node5 -->
<g id="edge4" class="edge">
<title>Node3&#45;&gt;Node5</title>
<path fill="none" stroke="midnightblue" d="M125.25,-71.5C133,-73.42 142.29,-75.71 151.17,-77.9"/>
<polygon fill="midnightblue" stroke="midnightblue" points="150.36,-81.3 160.91,-80.3 152.04,-74.51 150.36,-81.3"/>
</g>
<!-- Node6 -->
<g id="node6" class="node">
<title>Node6</title>
<g id="a_node6"><a xlink:href="byte_8c.html#a2da8eeb074dfd3ffbfb3e9a4d301cda4" target="_top" xlink:title=" ">
<polygon fill="white" stroke="black" points="167.5,-38.5 167.5,-57.5 202.5,-57.5 202.5,-38.5 167.5,-38.5"/>
<text text-anchor="middle" x="185" y="-45.5" font-family="Helvetica,sans-Serif" font-size="10.00">exitt</text>
</a>
</g>
</g>
<!-- Node3&#45;&gt;Node6 -->
<g id="edge5" class="edge">
<title>Node3&#45;&gt;Node6</title>
<path fill="none" stroke="midnightblue" d="M125.25,-62.5C134.85,-60.13 146.81,-57.18 157.43,-54.56"/>
<polygon fill="midnightblue" stroke="midnightblue" points="158.59,-57.88 167.46,-52.08 156.91,-51.08 158.59,-57.88"/>
</g>
<!-- Node9 -->
<g id="node9" class="node">
<title>Node9</title>
<g id="a_node9"><a xlink:href="ic_8f.html#ada3a2c3283a9052e1fe4b7a90375b09b" target="_top" xlink:title=" ">
<polygon fill="white" stroke="black" points="165,-0.5 165,-19.5 205,-19.5 205,-0.5 165,-0.5"/>
<text text-anchor="middle" x="185" y="-7.5" font-family="Helvetica,sans-Serif" font-size="10.00">indx1</text>
</a>
</g>
</g>
<!-- Node3&#45;&gt;Node9 -->
<g id="edge8" class="edge">
<title>Node3&#45;&gt;Node9</title>
<path fill="none" stroke="midnightblue" d="M120.06,-57.33C131.75,-48.68 149.09,-35.84 162.77,-25.72"/>
<polygon fill="midnightblue" stroke="midnightblue" points="165.18,-28.29 171.13,-19.53 161.01,-22.66 165.18,-28.29"/>
</g>
<!-- Node7 -->
<g id="node7" class="node">
<title>Node7</title>
<g id="a_node7"><a xlink:href="comm__mpi_8f.html#acc8803a3787828530843112e0c48941b" target="_top" xlink:title=" ">
<polygon fill="white" stroke="black" points="245,-38.5 245,-57.5 295,-57.5 295,-38.5 245,-38.5"/>
<text text-anchor="middle" x="270" y="-45.5" font-family="Helvetica,sans-Serif" font-size="10.00">nek_die</text>
</a>
</g>
</g>
<!-- Node6&#45;&gt;Node7 -->
<g id="edge6" class="edge">
<title>Node6&#45;&gt;Node7</title>
<path fill="none" stroke="midnightblue" d="M202.8,-48C211.99,-48 223.72,-48 234.74,-48"/>
<polygon fill="midnightblue" stroke="midnightblue" points="234.99,-51.5 244.99,-48 234.99,-44.5 234.99,-51.5"/>
</g>
<!-- Node8 -->
<g id="node8" class="node">
<title>Node8</title>
<g id="a_node8"><a xlink:href="mpi__dummy_8f.html#a55e9a1619aadb638b14211ce21d7d566" target="_top" xlink:title=" ">
<polygon fill="white" stroke="black" points="331,-38.5 331,-57.5 399,-57.5 399,-38.5 331,-38.5"/>
<text text-anchor="middle" x="365" y="-45.5" font-family="Helvetica,sans-Serif" font-size="10.00">mpi_finalize</text>
</a>
</g>
</g>
<!-- Node7&#45;&gt;Node8 -->
<g id="edge7" class="edge">
<title>Node7&#45;&gt;Node8</title>
<path fill="none" stroke="midnightblue" d="M295.43,-48C303.25,-48 312.14,-48 320.88,-48"/>
<polygon fill="midnightblue" stroke="midnightblue" points="320.99,-51.5 330.99,-48 320.99,-44.5 320.99,-51.5"/>
</g>
</g>
</svg>
