<?xml version="1.0" encoding="UTF-8" standalone="no"?>
<!DOCTYPE svg PUBLIC "-//W3C//DTD SVG 1.1//EN"
 "http://www.w3.org/Graphics/SVG/1.1/DTD/svg11.dtd">
<!-- Generated by graphviz version 2.46.0 (0)
 -->
<!-- Title: genxyz Pages: 1 -->
<svg width="229pt" height="256pt"
 viewBox="0.00 0.00 229.00 256.00" xmlns="http://www.w3.org/2000/svg" xmlns:xlink="http://www.w3.org/1999/xlink">
<g id="graph0" class="graph" transform="scale(1 1) rotate(0) translate(4 252)">
<title>genxyz</title>
<polygon fill="white" stroke="transparent" points="-4,4 -4,-252 225,-252 225,4 -4,4"/>
<!-- Node1 -->
<g id="node1" class="node">
<title>Node1</title>
<g id="a_node1"><a xlink:title=" ">
<polygon fill="#bfbfbf" stroke="black" points="0,-95.5 0,-114.5 48,-114.5 48,-95.5 0,-95.5"/>
<text text-anchor="middle" x="24" y="-102.5" font-family="Helvetica,sans-Serif" font-size="10.00">genxyz</text>
</a>
</g>
</g>
<!-- Node2 -->
<g id="node2" class="node">
<title>Node2</title>
<g id="a_node2"><a xlink:href="genxyz_8f.html#a3e5af3cbd83d806231beb3b9d7190e75" target="_top" xlink:title=" ">
<polygon fill="white" stroke="black" points="89.5,-190.5 89.5,-209.5 130.5,-209.5 130.5,-190.5 89.5,-190.5"/>
<text text-anchor="middle" x="110" y="-197.5" font-family="Helvetica,sans-Serif" font-size="10.00">arcsrf</text>
</a>
</g>
</g>
<!-- Node1&#45;&gt;Node2 -->
<g id="edge1" class="edge">
<title>Node1&#45;&gt;Node2</title>
<path fill="none" stroke="midnightblue" d="M31.19,-114.52C41.23,-129.58 62.16,-159.38 84,-181 84.94,-181.93 85.92,-182.85 86.93,-183.76"/>
<polygon fill="midnightblue" stroke="midnightblue" points="85.02,-186.72 94.98,-190.36 89.46,-181.31 85.02,-186.72"/>
</g>
<!-- Node8 -->
<g id="node6" class="node">
<title>Node8</title>
<g id="a_node6"><a xlink:href="genxyz_8f.html#a5b53bcd6af6b4a78e2a15dad4ee2d284" target="_top" xlink:title=" ">
<polygon fill="white" stroke="red" points="88,-152.5 88,-171.5 132,-171.5 132,-152.5 88,-152.5"/>
<text text-anchor="middle" x="110" y="-159.5" font-family="Helvetica,sans-Serif" font-size="10.00">gensrf</text>
</a>
</g>
</g>
<!-- Node1&#45;&gt;Node8 -->
<g id="edge5" class="edge">
<title>Node1&#45;&gt;Node8</title>
<path fill="none" stroke="midnightblue" d="M39.25,-114.67C52.12,-123.4 71.28,-136.4 86.26,-146.57"/>
<polygon fill="midnightblue" stroke="midnightblue" points="84.72,-149.75 94.96,-152.47 88.65,-143.96 84.72,-149.75"/>
</g>
<!-- Node14 -->
<g id="node7" class="node">
<title>Node14</title>
<g id="a_node7"><a xlink:href="genxyz_8f.html#a68c86aab3d5439b8cdc8368eed562f9c" target="_top" xlink:title=" ">
<polygon fill="white" stroke="red" points="86.5,-114.5 86.5,-133.5 133.5,-133.5 133.5,-114.5 86.5,-114.5"/>
<text text-anchor="middle" x="110" y="-121.5" font-family="Helvetica,sans-Serif" font-size="10.00">linquad</text>
</a>
</g>
</g>
<!-- Node1&#45;&gt;Node14 -->
<g id="edge6" class="edge">
<title>Node1&#45;&gt;Node14</title>
<path fill="none" stroke="midnightblue" d="M48.4,-110.29C57.1,-112.26 67.13,-114.53 76.5,-116.65"/>
<polygon fill="midnightblue" stroke="midnightblue" points="75.78,-120.07 86.31,-118.87 77.33,-113.25 75.78,-120.07"/>
</g>
<!-- Node34 -->
<g id="node8" class="node">
<title>Node34</title>
<g id="a_node8"><a xlink:href="genxyz_8f.html#ae1dbf064481984b1e4e5605c91570c72" target="_top" xlink:title=" ">
<polygon fill="white" stroke="red" points="84,-76.5 84,-95.5 136,-95.5 136,-76.5 84,-76.5"/>
<text text-anchor="middle" x="110" y="-83.5" font-family="Helvetica,sans-Serif" font-size="10.00">sethmat</text>
</a>
</g>
</g>
<!-- Node1&#45;&gt;Node34 -->
<g id="edge7" class="edge">
<title>Node1&#45;&gt;Node34</title>
<path fill="none" stroke="midnightblue" d="M48.4,-99.71C56.35,-97.91 65.42,-95.86 74.08,-93.9"/>
<polygon fill="midnightblue" stroke="midnightblue" points="74.98,-97.28 83.96,-91.66 73.44,-90.46 74.98,-97.28"/>
</g>
<!-- Node17 -->
<g id="node9" class="node">
<title>Node17</title>
<g id="a_node9"><a xlink:href="genxyz_8f.html#a87589b3d23bfc65828b0ba8f207b145a" target="_top" xlink:title=" ">
<polygon fill="white" stroke="red" points="84.5,-38.5 84.5,-57.5 135.5,-57.5 135.5,-38.5 84.5,-38.5"/>
<text text-anchor="middle" x="110" y="-45.5" font-family="Helvetica,sans-Serif" font-size="10.00">setzgml</text>
</a>
</g>
</g>
<!-- Node1&#45;&gt;Node17 -->
<g id="edge8" class="edge">
<title>Node1&#45;&gt;Node17</title>
<path fill="none" stroke="midnightblue" d="M39.25,-95.33C52.12,-86.6 71.28,-73.6 86.26,-63.43"/>
<polygon fill="midnightblue" stroke="midnightblue" points="88.65,-66.04 94.96,-57.53 84.72,-60.25 88.65,-66.04"/>
</g>
<!-- Node36 -->
<g id="node10" class="node">
<title>Node36</title>
<g id="a_node10"><a xlink:href="genxyz_8f.html#a7b652d5ffddd9cc491e9afc0d3fa225d" target="_top" xlink:title=" ">
<polygon fill="white" stroke="red" points="88,-0.5 88,-19.5 132,-19.5 132,-0.5 88,-0.5"/>
<text text-anchor="middle" x="110" y="-7.5" font-family="Helvetica,sans-Serif" font-size="10.00">sphsrf</text>
</a>
</g>
</g>
<!-- Node1&#45;&gt;Node36 -->
<g id="edge9" class="edge">
<title>Node1&#45;&gt;Node36</title>
<path fill="none" stroke="midnightblue" d="M31.19,-95.48C41.23,-80.42 62.16,-50.62 84,-29 84.94,-28.07 85.92,-27.15 86.93,-26.24"/>
<polygon fill="midnightblue" stroke="midnightblue" points="89.46,-28.69 94.98,-19.64 85.02,-23.28 89.46,-28.69"/>
</g>
<!-- Node3 -->
<g id="node3" class="node">
<title>Node3</title>
<g id="a_node3"><a xlink:href="math_8f.html#a430b8ef9397666753bd47f0de85b775f" target="_top" xlink:title=" ">
<polygon fill="white" stroke="black" points="172,-228.5 172,-247.5 221,-247.5 221,-228.5 172,-228.5"/>
<text text-anchor="middle" x="196.5" y="-235.5" font-family="Helvetica,sans-Serif" font-size="10.00">addtnsr</text>
</a>
</g>
</g>
<!-- Node2&#45;&gt;Node3 -->
<g id="edge2" class="edge">
<title>Node2&#45;&gt;Node3</title>
<path fill="none" stroke="midnightblue" d="M130.6,-208.81C140.81,-213.4 153.52,-219.12 164.98,-224.28"/>
<polygon fill="midnightblue" stroke="midnightblue" points="163.68,-227.53 174.23,-228.44 166.55,-221.14 163.68,-227.53"/>
</g>
<!-- Node4 -->
<g id="node4" class="node">
<title>Node4</title>
<g id="a_node4"><a xlink:href="byte_8c.html#a2da8eeb074dfd3ffbfb3e9a4d301cda4" target="_top" xlink:title=" ">
<polygon fill="white" stroke="red" points="179,-190.5 179,-209.5 214,-209.5 214,-190.5 179,-190.5"/>
<text text-anchor="middle" x="196.5" y="-197.5" font-family="Helvetica,sans-Serif" font-size="10.00">exitt</text>
</a>
</g>
</g>
<!-- Node2&#45;&gt;Node4 -->
<g id="edge3" class="edge">
<title>Node2&#45;&gt;Node4</title>
<path fill="none" stroke="midnightblue" d="M130.6,-200C141.91,-200 156.3,-200 168.65,-200"/>
<polygon fill="midnightblue" stroke="midnightblue" points="168.86,-203.5 178.86,-200 168.86,-196.5 168.86,-203.5"/>
</g>
<!-- Node7 -->
<g id="node5" class="node">
<title>Node7</title>
<g id="a_node5"><a xlink:href="math_8f.html#a18da186617e323c027aa36f56343e400" target="_top" xlink:title=" ">
<polygon fill="white" stroke="black" points="176,-152.5 176,-171.5 217,-171.5 217,-152.5 176,-152.5"/>
<text text-anchor="middle" x="196.5" y="-159.5" font-family="Helvetica,sans-Serif" font-size="10.00">mod1</text>
</a>
</g>
</g>
<!-- Node2&#45;&gt;Node7 -->
<g id="edge4" class="edge">
<title>Node2&#45;&gt;Node7</title>
<path fill="none" stroke="midnightblue" d="M130.6,-191.19C141.19,-186.42 154.47,-180.45 166.26,-175.15"/>
<polygon fill="midnightblue" stroke="midnightblue" points="168.03,-178.19 175.72,-170.9 165.16,-171.81 168.03,-178.19"/>
</g>
</g>
</svg>
