<?xml version="1.0" encoding="UTF-8" standalone="no"?>
<!DOCTYPE svg PUBLIC "-//W3C//DTD SVG 1.1//EN"
 "http://www.w3.org/Graphics/SVG/1.1/DTD/svg11.dtd">
<!-- Generated by graphviz version 2.46.0 (0)
 -->
<!-- Title: dxmin_e Pages: 1 -->
<svg width="352pt" height="66pt"
 viewBox="0.00 0.00 352.00 66.00" xmlns="http://www.w3.org/2000/svg" xmlns:xlink="http://www.w3.org/1999/xlink">
<g id="graph0" class="graph" transform="scale(1 1) rotate(0) translate(4 62)">
<title>dxmin_e</title>
<polygon fill="white" stroke="transparent" points="-4,4 -4,-62 348,-62 348,4 -4,4"/>
<!-- Node1 -->
<g id="node1" class="node">
<title>Node1</title>
<g id="a_node1"><a xlink:title=" ">
<polygon fill="#bfbfbf" stroke="black" points="291,-19.5 291,-38.5 344,-38.5 344,-19.5 291,-19.5"/>
<text text-anchor="middle" x="317.5" y="-26.5" font-family="Helvetica,sans-Serif" font-size="10.00">dxmin_e</text>
</a>
</g>
</g>
<!-- Node2 -->
<g id="node2" class="node">
<title>Node2</title>
<g id="a_node2"><a xlink:href="avm_8f.html#aa02298ac037a0b1b6ed527c3f9fd63cc" target="_top" xlink:title=" ">
<polygon fill="white" stroke="black" points="195.5,-38.5 195.5,-57.5 236.5,-57.5 236.5,-38.5 195.5,-38.5"/>
<text text-anchor="middle" x="216" y="-45.5" font-family="Helvetica,sans-Serif" font-size="10.00">deltaf</text>
</a>
</g>
</g>
<!-- Node1&#45;&gt;Node2 -->
<g id="edge1" class="edge">
<title>Node1&#45;&gt;Node2</title>
<path fill="none" stroke="midnightblue" d="M280.91,-35.8C265.98,-38.65 249.19,-41.85 236.57,-44.26"/>
<polygon fill="midnightblue" stroke="midnightblue" points="281.71,-39.21 290.88,-33.89 280.4,-32.33 281.71,-39.21"/>
</g>
<!-- Node4 -->
<g id="node4" class="node">
<title>Node4</title>
<g id="a_node4"><a xlink:href="genxyz_8f.html#aea17dd307e81e2ea9c30d813756a8527" target="_top" xlink:title=" ">
<polygon fill="white" stroke="black" points="177,-0.5 177,-19.5 255,-19.5 255,-0.5 177,-0.5"/>
<text text-anchor="middle" x="216" y="-7.5" font-family="Helvetica,sans-Serif" font-size="10.00">mesh_metrics</text>
</a>
</g>
</g>
<!-- Node1&#45;&gt;Node4 -->
<g id="edge3" class="edge">
<title>Node1&#45;&gt;Node4</title>
<path fill="none" stroke="midnightblue" d="M280.78,-22.18C272.51,-20.6 263.68,-18.91 255.3,-17.31"/>
<polygon fill="midnightblue" stroke="midnightblue" points="280.4,-25.67 290.88,-24.11 281.71,-18.79 280.4,-25.67"/>
</g>
<!-- Node3 -->
<g id="node3" class="node">
<title>Node3</title>
<g id="a_node3"><a xlink:href="avm_8f.html#a9e1209421d37bc600934cdb4974e3437" target="_top" xlink:title=" ">
<polygon fill="white" stroke="black" points="82,-38.5 82,-57.5 141,-57.5 141,-38.5 82,-38.5"/>
<text text-anchor="middle" x="111.5" y="-45.5" font-family="Helvetica,sans-Serif" font-size="10.00">avm_vdiff</text>
</a>
</g>
</g>
<!-- Node2&#45;&gt;Node3 -->
<g id="edge2" class="edge">
<title>Node2&#45;&gt;Node3</title>
<path fill="none" stroke="midnightblue" d="M185.2,-48C171.31,-48 154.86,-48 141.12,-48"/>
<polygon fill="midnightblue" stroke="midnightblue" points="185.24,-51.5 195.24,-48 185.24,-44.5 185.24,-51.5"/>
</g>
<!-- Node5 -->
<g id="node5" class="node">
<title>Node5</title>
<g id="a_node5"><a xlink:href="drive1_8f.html#a83f7c6d78ac4e68394f32533e847d0a3" target="_top" xlink:title=" ">
<polygon fill="white" stroke="black" points="86.5,-0.5 86.5,-19.5 136.5,-19.5 136.5,-0.5 86.5,-0.5"/>
<text text-anchor="middle" x="111.5" y="-7.5" font-family="Helvetica,sans-Serif" font-size="10.00">nek_init</text>
</a>
</g>
</g>
<!-- Node4&#45;&gt;Node5 -->
<g id="edge4" class="edge">
<title>Node4&#45;&gt;Node5</title>
<path fill="none" stroke="midnightblue" d="M166.58,-10C156.21,-10 145.69,-10 136.72,-10"/>
<polygon fill="midnightblue" stroke="midnightblue" points="166.83,-13.5 176.83,-10 166.83,-6.5 166.83,-13.5"/>
</g>
<!-- Node6 -->
<g id="node6" class="node">
<title>Node6</title>
<g id="a_node6"><a xlink:href="drive_8f.html#a13048bf28dd0734640412d69349e3857" target="_top" xlink:title=" ">
<polygon fill="white" stroke="black" points="0,-0.5 0,-19.5 46,-19.5 46,-0.5 0,-0.5"/>
<text text-anchor="middle" x="23" y="-7.5" font-family="Helvetica,sans-Serif" font-size="10.00">nekton</text>
</a>
</g>
</g>
<!-- Node5&#45;&gt;Node6 -->
<g id="edge5" class="edge">
<title>Node5&#45;&gt;Node6</title>
<path fill="none" stroke="midnightblue" d="M76.22,-10C66.11,-10 55.32,-10 46.19,-10"/>
<polygon fill="midnightblue" stroke="midnightblue" points="76.4,-13.5 86.4,-10 76.4,-6.5 76.4,-13.5"/>
</g>
</g>
</svg>
