<?xml version="1.0" encoding="UTF-8" standalone="no"?>
<!DOCTYPE svg PUBLIC "-//W3C//DTD SVG 1.1//EN"
 "http://www.w3.org/Graphics/SVG/1.1/DTD/svg11.dtd">
<!-- Generated by graphviz version 2.46.0 (0)
 -->
<!-- Title: linquad Pages: 1 -->
<svg width="403pt" height="285pt"
 viewBox="0.00 0.00 403.00 284.79" xmlns="http://www.w3.org/2000/svg" xmlns:xlink="http://www.w3.org/1999/xlink">
<g id="graph0" class="graph" transform="scale(1 1) rotate(0) translate(4 280.79)">
<title>linquad</title>
<polygon fill="white" stroke="transparent" points="-4,4 -4,-280.79 399,-280.79 399,4 -4,4"/>
<!-- Node1 -->
<g id="node1" class="node">
<title>Node1</title>
<g id="a_node1"><a xlink:title=" ">
<polygon fill="#bfbfbf" stroke="black" points="0,-171.5 0,-190.5 47,-190.5 47,-171.5 0,-171.5"/>
<text text-anchor="middle" x="23.5" y="-178.5" font-family="Helvetica,sans-Serif" font-size="10.00">linquad</text>
</a>
</g>
</g>
<!-- Node2 -->
<g id="node2" class="node">
<title>Node2</title>
<g id="a_node2"><a xlink:href="genxyz_8f.html#a16eca2a8f6bca6167dcfa98ff3eac09c" target="_top" xlink:title=" ">
<polygon fill="white" stroke="black" points="194,-228.5 194,-247.5 236,-247.5 236,-228.5 194,-228.5"/>
<text text-anchor="middle" x="215" y="-235.5" font-family="Helvetica,sans-Serif" font-size="10.00">xyzlin</text>
</a>
</g>
</g>
<!-- Node1&#45;&gt;Node2 -->
<g id="edge1" class="edge">
<title>Node1&#45;&gt;Node2</title>
<path fill="none" stroke="midnightblue" d="M47.36,-187.88C81.55,-198.16 146.04,-217.56 183.99,-228.97"/>
<polygon fill="midnightblue" stroke="midnightblue" points="183.36,-232.44 193.94,-231.97 185.37,-225.73 183.36,-232.44"/>
</g>
<!-- Node16 -->
<g id="node7" class="node">
<title>Node16</title>
<g id="a_node7"><a xlink:href="genxyz_8f.html#a7c0d9ad72ade85a885511477626382a9" target="_top" xlink:title=" ">
<polygon fill="white" stroke="black" points="83,-152.5 83,-171.5 136,-171.5 136,-152.5 83,-152.5"/>
<text text-anchor="middle" x="109.5" y="-159.5" font-family="Helvetica,sans-Serif" font-size="10.00">xyzquad</text>
</a>
</g>
</g>
<!-- Node1&#45;&gt;Node16 -->
<g id="edge6" class="edge">
<title>Node1&#45;&gt;Node16</title>
<path fill="none" stroke="midnightblue" d="M47.01,-175.91C54.97,-174.11 64.14,-172.03 72.92,-170.05"/>
<polygon fill="midnightblue" stroke="midnightblue" points="73.98,-173.4 82.96,-167.78 72.43,-166.57 73.98,-173.4"/>
</g>
<!-- Node3 -->
<g id="node3" class="node">
<title>Node3</title>
<g id="a_node3"><a xlink:href="fast3d_8f.html#ad007f6eca12b1b9307f46e56bcc40a59" target="_top" xlink:title=" ">
<polygon fill="white" stroke="black" points="303.5,-256.5 303.5,-275.5 385.5,-275.5 385.5,-256.5 303.5,-256.5"/>
<text text-anchor="middle" x="344.5" y="-263.5" font-family="Helvetica,sans-Serif" font-size="10.00">fd_weights_full</text>
</a>
</g>
</g>
<!-- Node2&#45;&gt;Node3 -->
<g id="edge2" class="edge">
<title>Node2&#45;&gt;Node3</title>
<path fill="none" stroke="midnightblue" d="M236.2,-242.44C251.58,-245.81 273.43,-250.61 293.41,-255"/>
<polygon fill="midnightblue" stroke="midnightblue" points="292.82,-258.45 303.33,-257.18 294.32,-251.62 292.82,-258.45"/>
</g>
<!-- Node4 -->
<g id="node4" class="node">
<title>Node4</title>
<g id="a_node4"><a xlink:href="genxyz_8f.html#a87589b3d23bfc65828b0ba8f207b145a" target="_top" xlink:title=" ">
<polygon fill="white" stroke="red" points="319,-209.5 319,-228.5 370,-228.5 370,-209.5 319,-209.5"/>
<text text-anchor="middle" x="344.5" y="-216.5" font-family="Helvetica,sans-Serif" font-size="10.00">setzgml</text>
</a>
</g>
</g>
<!-- Node2&#45;&gt;Node4 -->
<g id="edge3" class="edge">
<title>Node2&#45;&gt;Node4</title>
<path fill="none" stroke="midnightblue" d="M236.2,-234.99C255.57,-232.1 285.2,-227.69 308.42,-224.23"/>
<polygon fill="midnightblue" stroke="midnightblue" points="309.2,-227.65 318.58,-222.71 308.17,-220.73 309.2,-227.65"/>
</g>
<!-- Node14 -->
<g id="node5" class="node">
<title>Node14</title>
<g id="a_node5"><a xlink:href="fasts_8f.html#a1dc2171702fabe2e09c87421de1f0e5d" target="_top" xlink:title=" ">
<polygon fill="white" stroke="red" points="322.5,-162.5 322.5,-181.5 366.5,-181.5 366.5,-162.5 322.5,-162.5"/>
<text text-anchor="middle" x="344.5" y="-169.5" font-family="Helvetica,sans-Serif" font-size="10.00">tensr3</text>
</a>
</g>
</g>
<!-- Node2&#45;&gt;Node14 -->
<g id="edge4" class="edge">
<title>Node2&#45;&gt;Node14</title>
<path fill="none" stroke="midnightblue" d="M234.54,-228.4C255.88,-217.36 291.15,-199.1 315.76,-186.36"/>
<polygon fill="midnightblue" stroke="midnightblue" points="317.67,-189.31 324.94,-181.61 314.45,-183.1 317.67,-189.31"/>
</g>
<!-- Node15 -->
<g id="node6" class="node">
<title>Node15</title>
<g id="a_node6"><a xlink:href="math_8f.html#a17c0ecae12cc5c6096939885da90ad2b" target="_top" xlink:title=" ">
<polygon fill="white" stroke="black" points="315,-105.5 315,-124.5 374,-124.5 374,-105.5 315,-105.5"/>
<text text-anchor="middle" x="344.5" y="-112.5" font-family="Helvetica,sans-Serif" font-size="10.00">transpose</text>
</a>
</g>
</g>
<!-- Node2&#45;&gt;Node15 -->
<g id="edge5" class="edge">
<title>Node2&#45;&gt;Node15</title>
<path fill="none" stroke="midnightblue" d="M223.93,-228.32C237.49,-211.99 266.38,-178.3 294,-153 302.51,-145.21 312.5,-137.32 321.28,-130.77"/>
<polygon fill="midnightblue" stroke="midnightblue" points="323.55,-133.45 329.54,-124.71 319.41,-127.8 323.55,-133.45"/>
</g>
<!-- Node16&#45;&gt;Node2 -->
<g id="edge15" class="edge">
<title>Node16&#45;&gt;Node2</title>
<path fill="none" stroke="midnightblue" d="M120.91,-171.83C132.77,-182.78 152.98,-200.69 172,-214 176.64,-217.25 181.76,-220.45 186.77,-223.41"/>
<polygon fill="midnightblue" stroke="midnightblue" points="185.15,-226.51 195.57,-228.42 188.61,-220.43 185.15,-226.51"/>
</g>
<!-- Node16&#45;&gt;Node3 -->
<g id="edge8" class="edge">
<title>Node16&#45;&gt;Node3</title>
<path fill="none" stroke="midnightblue" d="M113.46,-171.72C120.14,-191.81 138.49,-237.62 172,-257 208.41,-278.06 256.77,-278.64 292.86,-274.92"/>
<polygon fill="midnightblue" stroke="midnightblue" points="293.64,-278.35 303.16,-273.71 292.82,-271.4 293.64,-278.35"/>
</g>
<!-- Node16&#45;&gt;Node4 -->
<g id="edge12" class="edge">
<title>Node16&#45;&gt;Node4</title>
<path fill="none" stroke="midnightblue" d="M136.1,-170.42C147.09,-173.9 160.12,-177.85 172,-181 219.02,-193.45 274.02,-205.14 308.81,-212.18"/>
<polygon fill="midnightblue" stroke="midnightblue" points="308.43,-215.67 318.92,-214.21 309.81,-208.81 308.43,-215.67"/>
</g>
<!-- Node16&#45;&gt;Node14 -->
<g id="edge13" class="edge">
<title>Node16&#45;&gt;Node14</title>
<path fill="none" stroke="midnightblue" d="M135.54,-152.4C146.54,-148.67 159.73,-144.85 172,-143 209.79,-137.29 220.29,-136.78 258,-143 276.7,-146.08 296.81,-152.72 312.82,-158.87"/>
<polygon fill="midnightblue" stroke="midnightblue" points="311.63,-162.17 322.21,-162.6 314.21,-155.66 311.63,-162.17"/>
</g>
<!-- Node16&#45;&gt;Node15 -->
<g id="edge14" class="edge">
<title>Node16&#45;&gt;Node15</title>
<path fill="none" stroke="midnightblue" d="M127.71,-152.38C139.74,-146.1 156.39,-138.3 172,-134 216.36,-121.78 269.24,-117.38 304.43,-115.82"/>
<polygon fill="midnightblue" stroke="midnightblue" points="304.9,-119.31 314.76,-115.42 304.63,-112.31 304.9,-119.31"/>
</g>
<!-- Node17 -->
<g id="node8" class="node">
<title>Node17</title>
<g id="a_node8"><a xlink:href="genxyz_8f.html#adebf3e6276187c41a41596d0d4b34419" target="_top" xlink:title=" ">
<polygon fill="white" stroke="black" points="182,-152.5 182,-171.5 248,-171.5 248,-152.5 182,-152.5"/>
<text text-anchor="middle" x="215" y="-159.5" font-family="Helvetica,sans-Serif" font-size="10.00">clean_xyzq</text>
</a>
</g>
</g>
<!-- Node16&#45;&gt;Node17 -->
<g id="edge7" class="edge">
<title>Node16&#45;&gt;Node17</title>
<path fill="none" stroke="midnightblue" d="M136.08,-162C146.73,-162 159.39,-162 171.37,-162"/>
<polygon fill="midnightblue" stroke="midnightblue" points="171.66,-165.5 181.66,-162 171.66,-158.5 171.66,-165.5"/>
</g>
<!-- Node18 -->
<g id="node9" class="node">
<title>Node18</title>
<g id="a_node9"><a xlink:href="navier5_8f.html#af2ef7089f186c5f1d1cde2552169d2e8" target="_top" xlink:title=" ">
<polygon fill="white" stroke="red" points="172,-0.5 172,-19.5 258,-19.5 258,-0.5 172,-0.5"/>
<text text-anchor="middle" x="215" y="-7.5" font-family="Helvetica,sans-Serif" font-size="10.00">gh_face_extend</text>
</a>
</g>
</g>
<!-- Node16&#45;&gt;Node18 -->
<g id="edge9" class="edge">
<title>Node16&#45;&gt;Node18</title>
<path fill="none" stroke="midnightblue" d="M113.02,-152.18C119.39,-129.07 138.06,-70.45 172,-34 175.11,-30.66 178.79,-27.66 182.66,-25"/>
<polygon fill="midnightblue" stroke="midnightblue" points="184.58,-27.93 191.29,-19.73 180.93,-21.95 184.58,-27.93"/>
</g>
<!-- Node19 -->
<g id="node10" class="node">
<title>Node19</title>
<g id="a_node10"><a xlink:href="navier5_8f.html#a873cc89bd529760e23bcf8268c35e796" target="_top" xlink:title=" ">
<polygon fill="white" stroke="red" points="294,-19.5 294,-38.5 395,-38.5 395,-19.5 294,-19.5"/>
<text text-anchor="middle" x="344.5" y="-26.5" font-family="Helvetica,sans-Serif" font-size="10.00">gh_face_extend_2d</text>
</a>
</g>
</g>
<!-- Node16&#45;&gt;Node19 -->
<g id="edge11" class="edge">
<title>Node16&#45;&gt;Node19</title>
<path fill="none" stroke="midnightblue" d="M121.82,-152.31C133.82,-142.3 153.54,-126.54 172,-115 218.73,-85.79 276.69,-58.42 311.85,-42.7"/>
<polygon fill="midnightblue" stroke="midnightblue" points="313.4,-45.84 321.13,-38.59 310.57,-39.44 313.4,-45.84"/>
</g>
<!-- Node18&#45;&gt;Node19 -->
<g id="edge10" class="edge">
<title>Node18&#45;&gt;Node19</title>
<path fill="none" stroke="midnightblue" d="M258.1,-16.27C266.34,-17.5 275.12,-18.81 283.81,-20.1"/>
<polygon fill="midnightblue" stroke="midnightblue" points="283.51,-23.6 293.92,-21.61 284.54,-16.68 283.51,-23.6"/>
</g>
</g>
</svg>
