<?xml version="1.0" encoding="UTF-8" standalone="no"?>
<!DOCTYPE svg PUBLIC "-//W3C//DTD SVG 1.1//EN"
 "http://www.w3.org/Graphics/SVG/1.1/DTD/svg11.dtd">
<!-- Generated by graphviz version 2.46.0 (0)
 -->
<!-- Title: mesh_metrics Pages: 1 -->
<svg width="181pt" height="332pt"
 viewBox="0.00 0.00 181.00 332.00" xmlns="http://www.w3.org/2000/svg" xmlns:xlink="http://www.w3.org/1999/xlink">
<g id="graph0" class="graph" transform="scale(1 1) rotate(0) translate(4 328)">
<title>mesh_metrics</title>
<polygon fill="white" stroke="transparent" points="-4,4 -4,-328 177,-328 177,4 -4,4"/>
<!-- Node1 -->
<g id="node1" class="node">
<title>Node1</title>
<g id="a_node1"><a xlink:title=" ">
<polygon fill="#bfbfbf" stroke="black" points="0,-152.5 0,-171.5 78,-171.5 78,-152.5 0,-152.5"/>
<text text-anchor="middle" x="39" y="-159.5" font-family="Helvetica,sans-Serif" font-size="10.00">mesh_metrics</text>
</a>
</g>
</g>
<!-- Node2 -->
<g id="node2" class="node">
<title>Node2</title>
<g id="a_node2"><a xlink:href="genxyz_8f.html#a0d088d2a2c15ecdd6f239e3627346ad4" target="_top" xlink:title=" ">
<polygon fill="white" stroke="black" points="114,-304.5 114,-323.5 173,-323.5 173,-304.5 114,-304.5"/>
<text text-anchor="middle" x="143.5" y="-311.5" font-family="Helvetica,sans-Serif" font-size="10.00">dist_xyzc</text>
</a>
</g>
</g>
<!-- Node1&#45;&gt;Node2 -->
<g id="edge1" class="edge">
<title>Node1&#45;&gt;Node2</title>
<path fill="none" stroke="midnightblue" d="M43.52,-171.67C52.41,-195.05 77.62,-255.58 114,-295 115.01,-296.09 116.09,-297.15 117.23,-298.18"/>
<polygon fill="midnightblue" stroke="midnightblue" points="115.14,-300.99 125.18,-304.36 119.44,-295.46 115.14,-300.99"/>
</g>
<!-- Node3 -->
<g id="node3" class="node">
<title>Node3</title>
<g id="a_node3"><a xlink:href="genxyz_8f.html#abb0bb43507a8e76fa4bf80d19200f410" target="_top" xlink:title=" ">
<polygon fill="white" stroke="black" points="115.5,-266.5 115.5,-285.5 171.5,-285.5 171.5,-266.5 115.5,-266.5"/>
<text text-anchor="middle" x="143.5" y="-273.5" font-family="Helvetica,sans-Serif" font-size="10.00">dxmax_e</text>
</a>
</g>
</g>
<!-- Node1&#45;&gt;Node3 -->
<g id="edge2" class="edge">
<title>Node1&#45;&gt;Node3</title>
<path fill="none" stroke="midnightblue" d="M46.05,-171.72C57.67,-189.9 84.59,-229.68 114,-257 115.26,-258.17 116.6,-259.32 117.98,-260.43"/>
<polygon fill="midnightblue" stroke="midnightblue" points="116.01,-263.33 126.15,-266.4 120.14,-257.67 116.01,-263.33"/>
</g>
<!-- Node4 -->
<g id="node4" class="node">
<title>Node4</title>
<g id="a_node4"><a xlink:href="genxyz_8f.html#a021da9f679e373b16d7cc1902e61f265" target="_top" xlink:title=" ">
<polygon fill="white" stroke="black" points="117,-228.5 117,-247.5 170,-247.5 170,-228.5 117,-228.5"/>
<text text-anchor="middle" x="143.5" y="-235.5" font-family="Helvetica,sans-Serif" font-size="10.00">dxmin_e</text>
</a>
</g>
</g>
<!-- Node1&#45;&gt;Node4 -->
<g id="edge3" class="edge">
<title>Node1&#45;&gt;Node4</title>
<path fill="none" stroke="midnightblue" d="M51.86,-171.54C66.32,-183.07 91.6,-202.93 114,-219 115.63,-220.17 117.33,-221.36 119.04,-222.55"/>
<polygon fill="midnightblue" stroke="midnightblue" points="117.33,-225.62 127.58,-228.33 121.26,-219.82 117.33,-225.62"/>
</g>
<!-- Node5 -->
<g id="node5" class="node">
<title>Node5</title>
<g id="a_node5"><a xlink:href="math_8f.html#af58b0d2ff8df811dc27c9e42460492b9" target="_top" xlink:title=" ">
<polygon fill="white" stroke="red" points="122,-190.5 122,-209.5 165,-209.5 165,-190.5 122,-190.5"/>
<text text-anchor="middle" x="143.5" y="-197.5" font-family="Helvetica,sans-Serif" font-size="10.00">glmax</text>
</a>
</g>
</g>
<!-- Node1&#45;&gt;Node5 -->
<g id="edge4" class="edge">
<title>Node1&#45;&gt;Node5</title>
<path fill="none" stroke="midnightblue" d="M65.87,-171.59C79.94,-176.81 97.42,-183.29 112.14,-188.74"/>
<polygon fill="midnightblue" stroke="midnightblue" points="111.21,-192.13 121.8,-192.33 113.64,-185.57 111.21,-192.13"/>
</g>
<!-- Node8 -->
<g id="node6" class="node">
<title>Node8</title>
<g id="a_node6"><a xlink:href="math_8f.html#a102af0dc870819a605ae55d60c59f84a" target="_top" xlink:title=" ">
<polygon fill="white" stroke="red" points="123.5,-152.5 123.5,-171.5 163.5,-171.5 163.5,-152.5 123.5,-152.5"/>
<text text-anchor="middle" x="143.5" y="-159.5" font-family="Helvetica,sans-Serif" font-size="10.00">glmin</text>
</a>
</g>
</g>
<!-- Node1&#45;&gt;Node8 -->
<g id="edge5" class="edge">
<title>Node1&#45;&gt;Node8</title>
<path fill="none" stroke="midnightblue" d="M78.17,-162C89.69,-162 102.17,-162 113.03,-162"/>
<polygon fill="midnightblue" stroke="midnightblue" points="113.27,-165.5 123.27,-162 113.27,-158.5 113.27,-165.5"/>
</g>
<!-- Node9 -->
<g id="node7" class="node">
<title>Node9</title>
<g id="a_node7"><a xlink:href="math_8f.html#ac231f0566c16504dadd6ba0f16a38bd9" target="_top" xlink:title=" ">
<polygon fill="white" stroke="red" points="122,-114.5 122,-133.5 165,-133.5 165,-114.5 122,-114.5"/>
<text text-anchor="middle" x="143.5" y="-121.5" font-family="Helvetica,sans-Serif" font-size="10.00">glsum</text>
</a>
</g>
</g>
<!-- Node1&#45;&gt;Node9 -->
<g id="edge6" class="edge">
<title>Node1&#45;&gt;Node9</title>
<path fill="none" stroke="midnightblue" d="M65.87,-152.41C79.94,-147.19 97.42,-140.71 112.14,-135.26"/>
<polygon fill="midnightblue" stroke="midnightblue" points="113.64,-138.43 121.8,-131.67 111.21,-131.87 113.64,-138.43"/>
</g>
<!-- Node10 -->
<g id="node8" class="node">
<title>Node10</title>
<g id="a_node8"><a xlink:href="math_8f.html#a3a4077924e14ce175a0d9991f9006d16" target="_top" xlink:title=" ">
<polygon fill="white" stroke="black" points="122,-76.5 122,-95.5 165,-95.5 165,-76.5 122,-76.5"/>
<text text-anchor="middle" x="143.5" y="-83.5" font-family="Helvetica,sans-Serif" font-size="10.00">vlmax</text>
</a>
</g>
</g>
<!-- Node1&#45;&gt;Node10 -->
<g id="edge7" class="edge">
<title>Node1&#45;&gt;Node10</title>
<path fill="none" stroke="midnightblue" d="M51.86,-152.46C66.32,-140.93 91.6,-121.07 114,-105 115.63,-103.83 117.33,-102.64 119.04,-101.45"/>
<polygon fill="midnightblue" stroke="midnightblue" points="121.26,-104.18 127.58,-95.67 117.33,-98.38 121.26,-104.18"/>
</g>
<!-- Node11 -->
<g id="node9" class="node">
<title>Node11</title>
<g id="a_node9"><a xlink:href="math_8f.html#aefe89276b8a8ae8a9f1ea1ede71b142f" target="_top" xlink:title=" ">
<polygon fill="white" stroke="black" points="123.5,-38.5 123.5,-57.5 163.5,-57.5 163.5,-38.5 123.5,-38.5"/>
<text text-anchor="middle" x="143.5" y="-45.5" font-family="Helvetica,sans-Serif" font-size="10.00">vlmin</text>
</a>
</g>
</g>
<!-- Node1&#45;&gt;Node11 -->
<g id="edge8" class="edge">
<title>Node1&#45;&gt;Node11</title>
<path fill="none" stroke="midnightblue" d="M46.05,-152.28C57.67,-134.1 84.59,-94.32 114,-67 115.26,-65.83 116.6,-64.68 117.98,-63.57"/>
<polygon fill="midnightblue" stroke="midnightblue" points="120.14,-66.33 126.15,-57.6 116.01,-60.67 120.14,-66.33"/>
</g>
<!-- Node12 -->
<g id="node10" class="node">
<title>Node12</title>
<g id="a_node10"><a xlink:href="math_8f.html#a77c801497edba9cfca69fc6f8fe6f5b1" target="_top" xlink:title=" ">
<polygon fill="white" stroke="black" points="122,-0.5 122,-19.5 165,-19.5 165,-0.5 122,-0.5"/>
<text text-anchor="middle" x="143.5" y="-7.5" font-family="Helvetica,sans-Serif" font-size="10.00">vlsum</text>
</a>
</g>
</g>
<!-- Node1&#45;&gt;Node12 -->
<g id="edge9" class="edge">
<title>Node1&#45;&gt;Node12</title>
<path fill="none" stroke="midnightblue" d="M43.52,-152.33C52.41,-128.95 77.62,-68.42 114,-29 115.01,-27.91 116.09,-26.85 117.23,-25.82"/>
<polygon fill="midnightblue" stroke="midnightblue" points="119.44,-28.54 125.18,-19.64 115.14,-23.01 119.44,-28.54"/>
</g>
</g>
</svg>
