<?xml version="1.0" encoding="UTF-8" standalone="no"?>
<!DOCTYPE svg PUBLIC "-//W3C//DTD SVG 1.1//EN"
 "http://www.w3.org/Graphics/SVG/1.1/DTD/svg11.dtd">
<!-- Generated by graphviz version 2.46.0 (0)
 -->
<!-- Title: sphsrf Pages: 1 -->
<svg width="282pt" height="256pt"
 viewBox="0.00 0.00 282.00 256.00" xmlns="http://www.w3.org/2000/svg" xmlns:xlink="http://www.w3.org/1999/xlink">
<g id="graph0" class="graph" transform="scale(1 1) rotate(0) translate(4 252)">
<title>sphsrf</title>
<polygon fill="white" stroke="transparent" points="-4,4 -4,-252 278,-252 278,4 -4,4"/>
<!-- Node1 -->
<g id="node1" class="node">
<title>Node1</title>
<g id="a_node1"><a xlink:title=" ">
<polygon fill="#bfbfbf" stroke="black" points="0,-114.5 0,-133.5 44,-133.5 44,-114.5 0,-114.5"/>
<text text-anchor="middle" x="22" y="-121.5" font-family="Helvetica,sans-Serif" font-size="10.00">sphsrf</text>
</a>
</g>
</g>
<!-- Node2 -->
<g id="node2" class="node">
<title>Node2</title>
<g id="a_node2"><a xlink:href="math_8f.html#ad2b51b68d370651f4f6d81952503e7be" target="_top" xlink:title=" ">
<polygon fill="white" stroke="black" points="81,-228.5 81,-247.5 122,-247.5 122,-228.5 81,-228.5"/>
<text text-anchor="middle" x="101.5" y="-235.5" font-family="Helvetica,sans-Serif" font-size="10.00">cmult</text>
</a>
</g>
</g>
<!-- Node1&#45;&gt;Node2 -->
<g id="edge1" class="edge">
<title>Node1&#45;&gt;Node2</title>
<path fill="none" stroke="midnightblue" d="M27.68,-133.75C36.51,-151.63 56.85,-190.48 80,-219 80.59,-219.73 81.2,-220.45 81.84,-221.17"/>
<polygon fill="midnightblue" stroke="midnightblue" points="79.56,-223.83 89.08,-228.48 84.53,-218.91 79.56,-223.83"/>
</g>
<!-- Node3 -->
<g id="node3" class="node">
<title>Node3</title>
<g id="a_node3"><a xlink:href="genxyz_8f.html#a4b9437ca4b072d779c7f9e6822bf93d4" target="_top" xlink:title=" ">
<polygon fill="white" stroke="black" points="81,-190.5 81,-209.5 122,-209.5 122,-190.5 81,-190.5"/>
<text text-anchor="middle" x="101.5" y="-197.5" font-family="Helvetica,sans-Serif" font-size="10.00">crn3d</text>
</a>
</g>
</g>
<!-- Node1&#45;&gt;Node3 -->
<g id="edge2" class="edge">
<title>Node1&#45;&gt;Node3</title>
<path fill="none" stroke="midnightblue" d="M32.82,-133.63C45.44,-146.01 67.59,-167.72 83.1,-182.94"/>
<polygon fill="midnightblue" stroke="midnightblue" points="80.93,-185.71 90.52,-190.21 85.83,-180.71 80.93,-185.71"/>
</g>
<!-- Node7 -->
<g id="node5" class="node">
<title>Node7</title>
<g id="a_node5"><a xlink:href="genxyz_8f.html#abaf230ec04e873e9768e7ea62dc6b1a0" target="_top" xlink:title=" ">
<polygon fill="white" stroke="black" points="163,-114.5 163,-133.5 204,-133.5 204,-114.5 163,-114.5"/>
<text text-anchor="middle" x="183.5" y="-121.5" font-family="Helvetica,sans-Serif" font-size="10.00">cross</text>
</a>
</g>
</g>
<!-- Node1&#45;&gt;Node7 -->
<g id="edge4" class="edge">
<title>Node1&#45;&gt;Node7</title>
<path fill="none" stroke="midnightblue" d="M44.18,-124C71.92,-124 120.74,-124 152.34,-124"/>
<polygon fill="midnightblue" stroke="midnightblue" points="152.74,-127.5 162.74,-124 152.74,-120.5 152.74,-127.5"/>
</g>
<!-- Node8 -->
<g id="node6" class="node">
<title>Node8</title>
<g id="a_node6"><a xlink:href="genxyz_8f.html#a0a3061a8ab3b46ffa65ada9ddefa78b8" target="_top" xlink:title=" ">
<polygon fill="white" stroke="black" points="244,-76.5 244,-95.5 274,-95.5 274,-76.5 244,-76.5"/>
<text text-anchor="middle" x="259" y="-83.5" font-family="Helvetica,sans-Serif" font-size="10.00">dot</text>
</a>
</g>
</g>
<!-- Node1&#45;&gt;Node8 -->
<g id="edge5" class="edge">
<title>Node1&#45;&gt;Node8</title>
<path fill="none" stroke="midnightblue" d="M44.09,-132.83C79.64,-146.29 153,-167.91 208,-143 225.37,-135.13 239.09,-117.92 247.73,-104.46"/>
<polygon fill="midnightblue" stroke="midnightblue" points="250.96,-105.88 253.1,-95.5 244.96,-102.28 250.96,-105.88"/>
</g>
<!-- Node9 -->
<g id="node7" class="node">
<title>Node9</title>
<g id="a_node7"><a xlink:href="connect1_8f.html#aa6d2ebf2dfdfeae458d41ef4cb6d9fae" target="_top" xlink:title=" ">
<polygon fill="white" stroke="black" points="81,-76.5 81,-95.5 122,-95.5 122,-76.5 81,-76.5"/>
<text text-anchor="middle" x="101.5" y="-83.5" font-family="Helvetica,sans-Serif" font-size="10.00">dsset</text>
</a>
</g>
</g>
<!-- Node1&#45;&gt;Node9 -->
<g id="edge6" class="edge">
<title>Node1&#45;&gt;Node9</title>
<path fill="none" stroke="midnightblue" d="M42.56,-114.41C51.46,-110.05 62.17,-104.79 71.95,-100"/>
<polygon fill="midnightblue" stroke="midnightblue" points="73.51,-103.13 80.95,-95.59 70.43,-96.85 73.51,-103.13"/>
</g>
<!-- Node10 -->
<g id="node8" class="node">
<title>Node10</title>
<g id="a_node8"><a xlink:href="genxyz_8f.html#a7453c73378380473c945da08e946a0a1" target="_top" xlink:title=" ">
<polygon fill="white" stroke="black" points="80,-38.5 80,-57.5 123,-57.5 123,-38.5 80,-38.5"/>
<text text-anchor="middle" x="101.5" y="-45.5" font-family="Helvetica,sans-Serif" font-size="10.00">edg3d</text>
</a>
</g>
</g>
<!-- Node1&#45;&gt;Node10 -->
<g id="edge7" class="edge">
<title>Node1&#45;&gt;Node10</title>
<path fill="none" stroke="midnightblue" d="M32.57,-114.21C43.81,-102.76 63.06,-83.31 80,-67 80.8,-66.23 81.63,-65.44 82.46,-64.64"/>
<polygon fill="midnightblue" stroke="midnightblue" points="85.09,-66.98 90,-57.59 80.31,-61.87 85.09,-66.98"/>
</g>
<!-- Node12 -->
<g id="node10" class="node">
<title>Node12</title>
<g id="a_node10"><a xlink:href="genxyz_8f.html#ab1ce14609c107357a717ecb7506eb781" target="_top" xlink:title=" ">
<polygon fill="white" stroke="black" points="159,-0.5 159,-19.5 208,-19.5 208,-0.5 159,-0.5"/>
<text text-anchor="middle" x="183.5" y="-7.5" font-family="Helvetica,sans-Serif" font-size="10.00">norm3d</text>
</a>
</g>
</g>
<!-- Node1&#45;&gt;Node12 -->
<g id="edge13" class="edge">
<title>Node1&#45;&gt;Node12</title>
<path fill="none" stroke="midnightblue" d="M25.82,-114.33C32.07,-94.76 49.03,-50.5 80,-29 99.97,-15.14 127.2,-10.59 148.57,-9.4"/>
<polygon fill="midnightblue" stroke="midnightblue" points="148.96,-12.89 158.84,-9.06 148.73,-5.89 148.96,-12.89"/>
</g>
<!-- Node4 -->
<g id="node4" class="node">
<title>Node4</title>
<g id="a_node4"><a xlink:href="byte_8c.html#a2da8eeb074dfd3ffbfb3e9a4d301cda4" target="_top" xlink:title=" ">
<polygon fill="white" stroke="red" points="166,-190.5 166,-209.5 201,-209.5 201,-190.5 166,-190.5"/>
<text text-anchor="middle" x="183.5" y="-197.5" font-family="Helvetica,sans-Serif" font-size="10.00">exitt</text>
</a>
</g>
</g>
<!-- Node3&#45;&gt;Node4 -->
<g id="edge3" class="edge">
<title>Node3&#45;&gt;Node4</title>
<path fill="none" stroke="midnightblue" d="M122.28,-200C132.34,-200 144.72,-200 155.63,-200"/>
<polygon fill="midnightblue" stroke="midnightblue" points="155.92,-203.5 165.92,-200 155.92,-196.5 155.92,-203.5"/>
</g>
<!-- Node10&#45;&gt;Node7 -->
<g id="edge9" class="edge">
<title>Node10&#45;&gt;Node7</title>
<path fill="none" stroke="midnightblue" d="M112.96,-57.63C116.19,-60.62 119.75,-63.94 123,-67 137.21,-80.39 153.18,-95.71 165,-107.09"/>
<polygon fill="midnightblue" stroke="midnightblue" points="162.81,-109.84 172.44,-114.27 167.67,-104.81 162.81,-109.84"/>
</g>
<!-- Node10&#45;&gt;Node8 -->
<g id="edge10" class="edge">
<title>Node10&#45;&gt;Node8</title>
<path fill="none" stroke="midnightblue" d="M123.23,-55.72C133.82,-59.47 146.99,-63.84 159,-67 184.25,-73.64 213.69,-78.99 233.87,-82.3"/>
<polygon fill="midnightblue" stroke="midnightblue" points="233.34,-85.76 243.77,-83.89 234.44,-78.85 233.34,-85.76"/>
</g>
<!-- Node11 -->
<g id="node9" class="node">
<title>Node11</title>
<g id="a_node9"><a xlink:href="math_8f.html#a3b43508554f14bdea8e14473d7d0803c" target="_top" xlink:title=" ">
<polygon fill="white" stroke="black" points="164.5,-38.5 164.5,-57.5 202.5,-57.5 202.5,-38.5 164.5,-38.5"/>
<text text-anchor="middle" x="183.5" y="-45.5" font-family="Helvetica,sans-Serif" font-size="10.00">copy</text>
</a>
</g>
</g>
<!-- Node10&#45;&gt;Node11 -->
<g id="edge8" class="edge">
<title>Node10&#45;&gt;Node11</title>
<path fill="none" stroke="midnightblue" d="M123.1,-48C132.59,-48 143.99,-48 154.26,-48"/>
<polygon fill="midnightblue" stroke="midnightblue" points="154.42,-51.5 164.42,-48 154.42,-44.5 154.42,-51.5"/>
</g>
<!-- Node10&#45;&gt;Node12 -->
<g id="edge11" class="edge">
<title>Node10&#45;&gt;Node12</title>
<path fill="none" stroke="midnightblue" d="M122.69,-38.41C131.88,-34.05 142.93,-28.79 153.03,-24"/>
<polygon fill="midnightblue" stroke="midnightblue" points="154.79,-27.04 162.32,-19.59 151.78,-20.72 154.79,-27.04"/>
</g>
<!-- Node12&#45;&gt;Node8 -->
<g id="edge12" class="edge">
<title>Node12&#45;&gt;Node8</title>
<path fill="none" stroke="midnightblue" d="M197.28,-19.68C200.85,-22.56 204.67,-25.8 208,-29 220.86,-41.35 234.11,-56.59 243.74,-68.21"/>
<polygon fill="midnightblue" stroke="midnightblue" points="241.29,-70.74 250.33,-76.27 246.71,-66.31 241.29,-70.74"/>
</g>
</g>
</svg>
