<?xml version="1.0" encoding="UTF-8" standalone="no"?>
<!DOCTYPE svg PUBLIC "-//W3C//DTD SVG 1.1//EN"
 "http://www.w3.org/Graphics/SVG/1.1/DTD/svg11.dtd">
<!-- Generated by graphviz version 2.46.0 (0)
 -->
<!-- Title: gfldr_getxyz Pages: 1 -->
<svg width="360pt" height="151pt"
 viewBox="0.00 0.00 360.00 151.00" xmlns="http://www.w3.org/2000/svg" xmlns:xlink="http://www.w3.org/1999/xlink">
<g id="graph0" class="graph" transform="scale(1 1) rotate(0) translate(4 147)">
<title>gfldr_getxyz</title>
<polygon fill="white" stroke="transparent" points="-4,4 -4,-147 356,-147 356,4 -4,4"/>
<!-- Node1 -->
<g id="node1" class="node">
<title>Node1</title>
<g id="a_node1"><a xlink:title=" ">
<polygon fill="#bfbfbf" stroke="black" points="0,-57.5 0,-76.5 70,-76.5 70,-57.5 0,-57.5"/>
<text text-anchor="middle" x="35" y="-64.5" font-family="Helvetica,sans-Serif" font-size="10.00">gfldr_getxyz</text>
</a>
</g>
</g>
<!-- Node2 -->
<g id="node2" class="node">
<title>Node2</title>
<g id="a_node2"><a xlink:href="byte__mpi_8f.html#a91adf5e8a4faef0ead93d4cd48e4ab00" target="_top" xlink:title=" ">
<polygon fill="white" stroke="black" points="106,-95.5 106,-114.5 186,-114.5 186,-95.5 106,-95.5"/>
<text text-anchor="middle" x="146" y="-102.5" font-family="Helvetica,sans-Serif" font-size="10.00">byte_read_mpi</text>
</a>
</g>
</g>
<!-- Node1&#45;&gt;Node2 -->
<g id="edge1" class="edge">
<title>Node1&#45;&gt;Node2</title>
<path fill="none" stroke="midnightblue" d="M63.51,-76.59C76.93,-81.27 93.28,-86.97 107.8,-92.03"/>
<polygon fill="midnightblue" stroke="midnightblue" points="106.91,-95.43 117.5,-95.41 109.21,-88.82 106.91,-95.43"/>
</g>
<!-- Node10 -->
<g id="node7" class="node">
<title>Node10</title>
<g id="a_node7"><a xlink:href="byte__mpi_8f.html#ad62e65c087d45367b00222a7b05890eb" target="_top" xlink:title=" ">
<polygon fill="white" stroke="black" points="106,-57.5 106,-76.5 186,-76.5 186,-57.5 106,-57.5"/>
<text text-anchor="middle" x="146" y="-64.5" font-family="Helvetica,sans-Serif" font-size="10.00">byte_set_view</text>
</a>
</g>
</g>
<!-- Node1&#45;&gt;Node10 -->
<g id="edge6" class="edge">
<title>Node1&#45;&gt;Node10</title>
<path fill="none" stroke="midnightblue" d="M70.19,-67C78.36,-67 87.23,-67 95.92,-67"/>
<polygon fill="midnightblue" stroke="midnightblue" points="95.99,-70.5 105.99,-67 95.99,-63.5 95.99,-70.5"/>
</g>
<!-- Node11 -->
<g id="node8" class="node">
<title>Node11</title>
<g id="a_node8"><a xlink:href="gfldr_8f.html#a8440d1a31fda144769b0a6fe8ab8d3e4" target="_top" xlink:title=" ">
<polygon fill="white" stroke="black" points="112.5,-19.5 112.5,-38.5 179.5,-38.5 179.5,-19.5 112.5,-19.5"/>
<text text-anchor="middle" x="146" y="-26.5" font-family="Helvetica,sans-Serif" font-size="10.00">gfldr_buf2vi</text>
</a>
</g>
</g>
<!-- Node1&#45;&gt;Node11 -->
<g id="edge8" class="edge">
<title>Node1&#45;&gt;Node11</title>
<path fill="none" stroke="midnightblue" d="M63.51,-57.41C76.93,-52.73 93.28,-47.03 107.8,-41.97"/>
<polygon fill="midnightblue" stroke="midnightblue" points="109.21,-45.18 117.5,-38.59 106.91,-38.57 109.21,-45.18"/>
</g>
<!-- Node3 -->
<g id="node3" class="node">
<title>Node3</title>
<g id="a_node3"><a xlink:href="comm__mpi_8f.html#a59fcf8a02fe54ab37f61050e3ca6b197" target="_top" xlink:title=" ">
<polygon fill="white" stroke="red" points="226,-85.5 226,-104.5 264,-104.5 264,-85.5 226,-85.5"/>
<text text-anchor="middle" x="245" y="-92.5" font-family="Helvetica,sans-Serif" font-size="10.00">exitti</text>
</a>
</g>
</g>
<!-- Node2&#45;&gt;Node3 -->
<g id="edge2" class="edge">
<title>Node2&#45;&gt;Node3</title>
<path fill="none" stroke="midnightblue" d="M186.17,-100.96C196.08,-99.94 206.52,-98.86 215.76,-97.91"/>
<polygon fill="midnightblue" stroke="midnightblue" points="216.37,-101.37 225.96,-96.86 215.65,-94.4 216.37,-101.37"/>
</g>
<!-- Node4 -->
<g id="node4" class="node">
<title>Node4</title>
<g id="a_node4"><a xlink:href="math_8f.html#a692155d1d2ec380a9fdb2d81ef221625" target="_top" xlink:title=" ">
<polygon fill="white" stroke="black" points="308,-123.5 308,-142.5 348,-142.5 348,-123.5 308,-123.5"/>
<text text-anchor="middle" x="328" y="-130.5" font-family="Helvetica,sans-Serif" font-size="10.00">blank</text>
</a>
</g>
</g>
<!-- Node3&#45;&gt;Node4 -->
<g id="edge3" class="edge">
<title>Node3&#45;&gt;Node4</title>
<path fill="none" stroke="midnightblue" d="M264.38,-103.62C274.52,-108.38 287.32,-114.39 298.71,-119.73"/>
<polygon fill="midnightblue" stroke="midnightblue" points="297.31,-122.94 307.85,-124.01 300.28,-116.6 297.31,-122.94"/>
</g>
<!-- Node5 -->
<g id="node5" class="node">
<title>Node5</title>
<g id="a_node5"><a xlink:href="math_8f.html#ad7fb480cea001849621405f37167aab1" target="_top" xlink:title=" ">
<polygon fill="white" stroke="black" points="304,-85.5 304,-104.5 352,-104.5 352,-85.5 304,-85.5"/>
<text text-anchor="middle" x="328" y="-92.5" font-family="Helvetica,sans-Serif" font-size="10.00">chcopy</text>
</a>
</g>
</g>
<!-- Node3&#45;&gt;Node5 -->
<g id="edge4" class="edge">
<title>Node3&#45;&gt;Node5</title>
<path fill="none" stroke="midnightblue" d="M264.38,-95C273.04,-95 283.65,-95 293.65,-95"/>
<polygon fill="midnightblue" stroke="midnightblue" points="293.76,-98.5 303.76,-95 293.76,-91.5 293.76,-98.5"/>
</g>
<!-- Node6 -->
<g id="node6" class="node">
<title>Node6</title>
<g id="a_node6"><a xlink:href="byte_8c.html#a2da8eeb074dfd3ffbfb3e9a4d301cda4" target="_top" xlink:title=" ">
<polygon fill="white" stroke="red" points="310.5,-47.5 310.5,-66.5 345.5,-66.5 345.5,-47.5 310.5,-47.5"/>
<text text-anchor="middle" x="328" y="-54.5" font-family="Helvetica,sans-Serif" font-size="10.00">exitt</text>
</a>
</g>
</g>
<!-- Node3&#45;&gt;Node6 -->
<g id="edge5" class="edge">
<title>Node3&#45;&gt;Node6</title>
<path fill="none" stroke="midnightblue" d="M264.38,-86.38C275.28,-81.26 289.27,-74.7 301.26,-69.08"/>
<polygon fill="midnightblue" stroke="midnightblue" points="302.78,-72.23 310.35,-64.81 299.81,-65.89 302.78,-72.23"/>
</g>
<!-- Node10&#45;&gt;Node3 -->
<g id="edge7" class="edge">
<title>Node10&#45;&gt;Node3</title>
<path fill="none" stroke="midnightblue" d="M180.11,-76.56C191.79,-79.93 204.8,-83.69 216.02,-86.92"/>
<polygon fill="midnightblue" stroke="midnightblue" points="215.15,-90.31 225.72,-89.72 217.09,-83.59 215.15,-90.31"/>
</g>
<!-- Node12 -->
<g id="node9" class="node">
<title>Node12</title>
<g id="a_node9"><a xlink:href="math_8f.html#a3b43508554f14bdea8e14473d7d0803c" target="_top" xlink:title=" ">
<polygon fill="white" stroke="black" points="226,-38.5 226,-57.5 264,-57.5 264,-38.5 226,-38.5"/>
<text text-anchor="middle" x="245" y="-45.5" font-family="Helvetica,sans-Serif" font-size="10.00">copy</text>
</a>
</g>
</g>
<!-- Node11&#45;&gt;Node12 -->
<g id="edge9" class="edge">
<title>Node11&#45;&gt;Node12</title>
<path fill="none" stroke="midnightblue" d="M179.57,-35.38C191.37,-37.69 204.58,-40.28 215.96,-42.51"/>
<polygon fill="midnightblue" stroke="midnightblue" points="215.31,-45.95 225.79,-44.43 216.65,-39.08 215.31,-45.95"/>
</g>
<!-- Node13 -->
<g id="node10" class="node">
<title>Node13</title>
<g id="a_node10"><a xlink:href="prepost_8f.html#a5802584ce57124068d1ee183348e3275" target="_top" xlink:title=" ">
<polygon fill="white" stroke="black" points="222,-0.5 222,-19.5 268,-19.5 268,-0.5 222,-0.5"/>
<text text-anchor="middle" x="245" y="-7.5" font-family="Helvetica,sans-Serif" font-size="10.00">copy4r</text>
</a>
</g>
</g>
<!-- Node11&#45;&gt;Node13 -->
<g id="edge10" class="edge">
<title>Node11&#45;&gt;Node13</title>
<path fill="none" stroke="midnightblue" d="M179.57,-22.62C189.97,-20.58 201.47,-18.33 211.85,-16.3"/>
<polygon fill="midnightblue" stroke="midnightblue" points="212.62,-19.71 221.76,-14.36 211.27,-12.84 212.62,-19.71"/>
</g>
</g>
</svg>
