<?xml version="1.0" encoding="UTF-8" standalone="no"?>
<!DOCTYPE svg PUBLIC "-//W3C//DTD SVG 1.1//EN"
 "http://www.w3.org/Graphics/SVG/1.1/DTD/svg11.dtd">
<!-- Generated by graphviz version 2.46.0 (0)
 -->
<!-- Title: setupds_no_crn Pages: 1 -->
<svg width="485pt" height="180pt"
 viewBox="0.00 0.00 485.00 180.00" xmlns="http://www.w3.org/2000/svg" xmlns:xlink="http://www.w3.org/1999/xlink">
<g id="graph0" class="graph" transform="scale(1 1) rotate(0) translate(4 176)">
<title>setupds_no_crn</title>
<polygon fill="white" stroke="transparent" points="-4,4 -4,-176 481,-176 481,4 -4,4"/>
<!-- Node1 -->
<g id="node1" class="node">
<title>Node1</title>
<g id="a_node1"><a xlink:title=" ">
<polygon fill="#bfbfbf" stroke="black" points="0,-114.5 0,-133.5 86,-133.5 86,-114.5 0,-114.5"/>
<text text-anchor="middle" x="43" y="-121.5" font-family="Helvetica,sans-Serif" font-size="10.00">setupds_no_crn</text>
</a>
</g>
</g>
<!-- Node2 -->
<g id="node2" class="node">
<title>Node2</title>
<g id="a_node2"><a xlink:href="comm__mpi_8f.html#af06ec29f06aac3f8809e19de2a7e8946" target="_top" xlink:title=" ">
<polygon fill="white" stroke="black" points="122,-142.5 122,-161.5 183,-161.5 183,-142.5 122,-142.5"/>
<text text-anchor="middle" x="152.5" y="-149.5" font-family="Helvetica,sans-Serif" font-size="10.00">dnekclock</text>
</a>
</g>
</g>
<!-- Node1&#45;&gt;Node2 -->
<g id="edge1" class="edge">
<title>Node1&#45;&gt;Node2</title>
<path fill="none" stroke="midnightblue" d="M80.69,-133.56C90.73,-136.17 101.65,-139.02 111.84,-141.67"/>
<polygon fill="midnightblue" stroke="midnightblue" points="111.18,-145.11 121.74,-144.25 112.94,-138.34 111.18,-145.11"/>
</g>
<!-- Node4 -->
<g id="node4" class="node">
<title>Node4</title>
<g id="a_node4"><a xlink:href="navier8_8f.html#a51b2c2d951e069b7ffa9a395b2def117" target="_top" xlink:title=" ">
<polygon fill="white" stroke="black" points="126.5,-95.5 126.5,-114.5 178.5,-114.5 178.5,-95.5 126.5,-95.5"/>
<text text-anchor="middle" x="152.5" y="-102.5" font-family="Helvetica,sans-Serif" font-size="10.00">set_vert</text>
</a>
</g>
</g>
<!-- Node1&#45;&gt;Node4 -->
<g id="edge3" class="edge">
<title>Node1&#45;&gt;Node4</title>
<path fill="none" stroke="midnightblue" d="M86.18,-116.55C96.11,-114.79 106.6,-112.94 116.2,-111.24"/>
<polygon fill="midnightblue" stroke="midnightblue" points="116.95,-114.66 126.19,-109.47 115.74,-107.77 116.95,-114.66"/>
</g>
<!-- Node3 -->
<g id="node3" class="node">
<title>Node3</title>
<g id="a_node3"><a xlink:href="mpi__dummy_8f.html#ae6a5ef945f87c2c27849696b70f3af2a" target="_top" xlink:title=" ">
<polygon fill="white" stroke="black" points="221.5,-152.5 221.5,-171.5 285.5,-171.5 285.5,-152.5 221.5,-152.5"/>
<text text-anchor="middle" x="253.5" y="-159.5" font-family="Helvetica,sans-Serif" font-size="10.00">mpi_wtime</text>
</a>
</g>
</g>
<!-- Node2&#45;&gt;Node3 -->
<g id="edge2" class="edge">
<title>Node2&#45;&gt;Node3</title>
<path fill="none" stroke="midnightblue" d="M183.2,-155C192.07,-155.9 201.95,-156.89 211.41,-157.85"/>
<polygon fill="midnightblue" stroke="midnightblue" points="211.14,-161.34 221.44,-158.86 211.85,-154.38 211.14,-161.34"/>
</g>
<!-- Node5 -->
<g id="node5" class="node">
<title>Node5</title>
<g id="a_node5"><a xlink:href="navier8_8f.html#a0233bb24c5654d0cfdce5b4a72f6c61b" target="_top" xlink:title=" ">
<polygon fill="white" stroke="black" points="219,-114.5 219,-133.5 288,-133.5 288,-114.5 219,-114.5"/>
<text text-anchor="middle" x="253.5" y="-121.5" font-family="Helvetica,sans-Serif" font-size="10.00">check_p_bc</text>
</a>
</g>
</g>
<!-- Node4&#45;&gt;Node5 -->
<g id="edge4" class="edge">
<title>Node4&#45;&gt;Node5</title>
<path fill="none" stroke="midnightblue" d="M178.74,-109.84C187.85,-111.59 198.41,-113.62 208.65,-115.58"/>
<polygon fill="midnightblue" stroke="midnightblue" points="208.23,-119.07 218.71,-117.52 209.55,-112.19 208.23,-119.07"/>
</g>
<!-- Node6 -->
<g id="node6" class="node">
<title>Node6</title>
<g id="a_node6"><a xlink:href="navier8_8f.html#aacefc924fd8555d5a3b58b36c7eda2ad" target="_top" xlink:title=" ">
<polygon fill="white" stroke="black" points="225,-76.5 225,-95.5 282,-95.5 282,-76.5 225,-76.5"/>
<text text-anchor="middle" x="253.5" y="-83.5" font-family="Helvetica,sans-Serif" font-size="10.00">setvert2d</text>
</a>
</g>
</g>
<!-- Node4&#45;&gt;Node6 -->
<g id="edge5" class="edge">
<title>Node4&#45;&gt;Node6</title>
<path fill="none" stroke="midnightblue" d="M178.74,-100.16C189.75,-98.04 202.89,-95.52 215,-93.2"/>
<polygon fill="midnightblue" stroke="midnightblue" points="215.71,-96.62 224.87,-91.3 214.39,-89.75 215.71,-96.62"/>
</g>
<!-- Node22 -->
<g id="node9" class="node">
<title>Node22</title>
<g id="a_node9"><a xlink:href="navier8_8f.html#a928aff746415692c89ffdfbaf08fd98d" target="_top" xlink:title=" ">
<polygon fill="white" stroke="red" points="225,-38.5 225,-57.5 282,-57.5 282,-38.5 225,-38.5"/>
<text text-anchor="middle" x="253.5" y="-45.5" font-family="Helvetica,sans-Serif" font-size="10.00">setvert3d</text>
</a>
</g>
</g>
<!-- Node4&#45;&gt;Node22 -->
<g id="edge9" class="edge">
<title>Node4&#45;&gt;Node22</title>
<path fill="none" stroke="midnightblue" d="M169.89,-95.43C183.13,-87.72 202.24,-76.62 219,-67 221.5,-65.57 224.11,-64.07 226.72,-62.59"/>
<polygon fill="midnightblue" stroke="midnightblue" points="228.47,-65.62 235.44,-57.63 225.02,-59.53 228.47,-65.62"/>
</g>
<!-- Node7 -->
<g id="node7" class="node">
<title>Node7</title>
<g id="a_node7"><a xlink:href="navier8_8f.html#ad95667f017072090d261e5eaef823395" target="_top" xlink:title=" ">
<polygon fill="white" stroke="red" points="324,-76.5 324,-95.5 396,-95.5 396,-76.5 324,-76.5"/>
<text text-anchor="middle" x="360" y="-83.5" font-family="Helvetica,sans-Serif" font-size="10.00">gbtuple_rank</text>
</a>
</g>
</g>
<!-- Node6&#45;&gt;Node7 -->
<g id="edge6" class="edge">
<title>Node6&#45;&gt;Node7</title>
<path fill="none" stroke="midnightblue" d="M282.23,-86C291.85,-86 302.91,-86 313.58,-86"/>
<polygon fill="midnightblue" stroke="midnightblue" points="313.63,-89.5 323.63,-86 313.63,-82.5 313.63,-89.5"/>
</g>
<!-- Node17 -->
<g id="node8" class="node">
<title>Node17</title>
<g id="a_node8"><a xlink:href="math_8f.html#a8431e1799f5711943b2e061a602754ca" target="_top" xlink:title=" ">
<polygon fill="white" stroke="red" points="432,-76.5 432,-95.5 477,-95.5 477,-76.5 432,-76.5"/>
<text text-anchor="middle" x="454.5" y="-83.5" font-family="Helvetica,sans-Serif" font-size="10.00">iglmax</text>
</a>
</g>
</g>
<!-- Node6&#45;&gt;Node17 -->
<g id="edge8" class="edge">
<title>Node6&#45;&gt;Node17</title>
<path fill="none" stroke="midnightblue" d="M282.22,-95.4C294.81,-99.2 309.99,-103.12 324,-105 355.72,-109.26 364.41,-110.08 396,-105 404.73,-103.6 413.93,-101.06 422.35,-98.3"/>
<polygon fill="midnightblue" stroke="midnightblue" points="423.51,-101.6 431.79,-94.99 421.2,-94.99 423.51,-101.6"/>
</g>
<!-- Node7&#45;&gt;Node17 -->
<g id="edge7" class="edge">
<title>Node7&#45;&gt;Node17</title>
<path fill="none" stroke="midnightblue" d="M396.23,-86C404.54,-86 413.35,-86 421.51,-86"/>
<polygon fill="midnightblue" stroke="midnightblue" points="421.75,-89.5 431.75,-86 421.75,-82.5 421.75,-89.5"/>
</g>
<!-- Node22&#45;&gt;Node7 -->
<g id="edge11" class="edge">
<title>Node22&#45;&gt;Node7</title>
<path fill="none" stroke="midnightblue" d="M280.87,-57.59C293.62,-62.22 309.11,-67.86 322.93,-72.89"/>
<polygon fill="midnightblue" stroke="midnightblue" points="322.04,-76.29 332.64,-76.41 324.44,-69.71 322.04,-76.29"/>
</g>
<!-- Node22&#45;&gt;Node17 -->
<g id="edge12" class="edge">
<title>Node22&#45;&gt;Node17</title>
<path fill="none" stroke="midnightblue" d="M282.16,-50.18C310.89,-52.81 356.99,-58.02 396,-67 404.69,-69 413.93,-71.76 422.41,-74.56"/>
<polygon fill="midnightblue" stroke="midnightblue" points="421.33,-77.89 431.93,-77.82 423.6,-71.27 421.33,-77.89"/>
</g>
<!-- Node23 -->
<g id="node10" class="node">
<title>Node23</title>
<g id="a_node10"><a xlink:href="connect1_8f.html#aa6d2ebf2dfdfeae458d41ef4cb6d9fae" target="_top" xlink:title=" ">
<polygon fill="white" stroke="black" points="339.5,-0.5 339.5,-19.5 380.5,-19.5 380.5,-0.5 339.5,-0.5"/>
<text text-anchor="middle" x="360" y="-7.5" font-family="Helvetica,sans-Serif" font-size="10.00">dsset</text>
</a>
</g>
</g>
<!-- Node22&#45;&gt;Node23 -->
<g id="edge10" class="edge">
<title>Node22&#45;&gt;Node23</title>
<path fill="none" stroke="midnightblue" d="M280.87,-38.41C295.75,-33 314.38,-26.23 329.71,-20.65"/>
<polygon fill="midnightblue" stroke="midnightblue" points="331.04,-23.89 339.24,-17.19 328.64,-17.31 331.04,-23.89"/>
</g>
</g>
</svg>
