<?xml version="1.0" encoding="UTF-8" standalone="no"?>
<!DOCTYPE svg PUBLIC "-//W3C//DTD SVG 1.1//EN"
 "http://www.w3.org/Graphics/SVG/1.1/DTD/svg11.dtd">
<!-- Generated by graphviz version 2.46.0 (0)
 -->
<!-- Title: set_up_fast_1d_sem_g Pages: 1 -->
<svg width="384pt" height="237pt"
 viewBox="0.00 0.00 384.00 237.00" xmlns="http://www.w3.org/2000/svg" xmlns:xlink="http://www.w3.org/1999/xlink">
<g id="graph0" class="graph" transform="scale(1 1) rotate(0) translate(4 233)">
<title>set_up_fast_1d_sem_g</title>
<polygon fill="white" stroke="transparent" points="-4,4 -4,-233 380,-233 380,4 -4,4"/>
<!-- Node1 -->
<g id="node1" class="node">
<title>Node1</title>
<g id="a_node1"><a xlink:title=" ">
<polygon fill="#bfbfbf" stroke="black" points="0,-76.5 0,-95.5 118,-95.5 118,-76.5 0,-76.5"/>
<text text-anchor="middle" x="59" y="-83.5" font-family="Helvetica,sans-Serif" font-size="10.00">set_up_fast_1d_sem_g</text>
</a>
</g>
</g>
<!-- Node2 -->
<g id="node2" class="node">
<title>Node2</title>
<g id="a_node2"><a xlink:href="hmholtz_8f.html#a5a846560cdbe979f8cf9a71599a7f460" target="_top" xlink:title=" ">
<polygon fill="white" stroke="black" points="191.5,-152.5 191.5,-171.5 250.5,-171.5 250.5,-152.5 191.5,-152.5"/>
<text text-anchor="middle" x="221" y="-159.5" font-family="Helvetica,sans-Serif" font-size="10.00">generalev</text>
</a>
</g>
</g>
<!-- Node1&#45;&gt;Node2 -->
<g id="edge1" class="edge">
<title>Node1&#45;&gt;Node2</title>
<path fill="none" stroke="midnightblue" d="M73.39,-95.7C91.09,-108.13 123.58,-129.68 154,-143 162.74,-146.83 172.47,-150.12 181.71,-152.84"/>
<polygon fill="midnightblue" stroke="midnightblue" points="180.91,-156.25 191.48,-155.56 182.79,-149.5 180.91,-156.25"/>
</g>
<!-- Node52 -->
<g id="node7" class="node">
<title>Node52</title>
<g id="a_node7"><a xlink:href="fast3d_8f.html#a85ab5f066f6e3f2c4d37e131c38b4774" target="_top" xlink:title=" ">
<polygon fill="white" stroke="black" points="193,-114.5 193,-133.5 249,-133.5 249,-114.5 193,-114.5"/>
<text text-anchor="middle" x="221" y="-121.5" font-family="Helvetica,sans-Serif" font-size="10.00">row_zero</text>
</a>
</g>
</g>
<!-- Node1&#45;&gt;Node52 -->
<g id="edge6" class="edge">
<title>Node1&#45;&gt;Node52</title>
<path fill="none" stroke="midnightblue" d="M100.37,-95.59C125.76,-101.62 158.27,-109.34 182.99,-115.21"/>
<polygon fill="midnightblue" stroke="midnightblue" points="182.18,-118.62 192.72,-117.52 183.8,-111.81 182.18,-118.62"/>
</g>
<!-- Node53 -->
<g id="node8" class="node">
<title>Node53</title>
<g id="a_node8"><a xlink:href="gmres_8f.html#a9b7b40cc4e87fc2df89628f906a606bf" target="_top" xlink:title=" ">
<polygon fill="white" stroke="red" points="154,-76.5 154,-95.5 288,-95.5 288,-76.5 154,-76.5"/>
<text text-anchor="middle" x="221" y="-83.5" font-family="Helvetica,sans-Serif" font-size="10.00">set_up_fast_1d_sem_op_a</text>
</a>
</g>
</g>
<!-- Node1&#45;&gt;Node53 -->
<g id="edge7" class="edge">
<title>Node1&#45;&gt;Node53</title>
<path fill="none" stroke="midnightblue" d="M118.22,-86C126.57,-86 135.26,-86 143.89,-86"/>
<polygon fill="midnightblue" stroke="midnightblue" points="143.97,-89.5 153.97,-86 143.97,-82.5 143.97,-89.5"/>
</g>
<!-- Node55 -->
<g id="node9" class="node">
<title>Node55</title>
<g id="a_node9"><a xlink:href="gmres_8f.html#a0a98f15d0ea4bd90c2a4c3acaeec8134" target="_top" xlink:title=" ">
<polygon fill="white" stroke="red" points="154,-38.5 154,-57.5 288,-57.5 288,-38.5 154,-38.5"/>
<text text-anchor="middle" x="221" y="-45.5" font-family="Helvetica,sans-Serif" font-size="10.00">set_up_fast_1d_sem_op_b</text>
</a>
</g>
</g>
<!-- Node1&#45;&gt;Node55 -->
<g id="edge8" class="edge">
<title>Node1&#45;&gt;Node55</title>
<path fill="none" stroke="midnightblue" d="M100.37,-76.41C121.49,-71.4 147.53,-65.21 169.92,-59.89"/>
<polygon fill="midnightblue" stroke="midnightblue" points="170.99,-63.24 179.92,-57.52 169.38,-56.43 170.99,-63.24"/>
</g>
<!-- Node56 -->
<g id="node10" class="node">
<title>Node56</title>
<g id="a_node10"><a xlink:href="math_8f.html#a17c0ecae12cc5c6096939885da90ad2b" target="_top" xlink:title=" ">
<polygon fill="white" stroke="black" points="191.5,-0.5 191.5,-19.5 250.5,-19.5 250.5,-0.5 191.5,-0.5"/>
<text text-anchor="middle" x="221" y="-7.5" font-family="Helvetica,sans-Serif" font-size="10.00">transpose</text>
</a>
</g>
</g>
<!-- Node1&#45;&gt;Node56 -->
<g id="edge9" class="edge">
<title>Node1&#45;&gt;Node56</title>
<path fill="none" stroke="midnightblue" d="M73.39,-76.3C91.09,-63.87 123.58,-42.32 154,-29 162.74,-25.17 172.47,-21.88 181.71,-19.16"/>
<polygon fill="midnightblue" stroke="midnightblue" points="182.79,-22.5 191.48,-16.44 180.91,-15.75 182.79,-22.5"/>
</g>
<!-- Node3 -->
<g id="node3" class="node">
<title>Node3</title>
<g id="a_node3"><a xlink:href="math_8f.html#a3b43508554f14bdea8e14473d7d0803c" target="_top" xlink:title=" ">
<polygon fill="white" stroke="black" points="331,-209.5 331,-228.5 369,-228.5 369,-209.5 331,-209.5"/>
<text text-anchor="middle" x="350" y="-216.5" font-family="Helvetica,sans-Serif" font-size="10.00">copy</text>
</a>
</g>
</g>
<!-- Node2&#45;&gt;Node3 -->
<g id="edge2" class="edge">
<title>Node2&#45;&gt;Node3</title>
<path fill="none" stroke="midnightblue" d="M243.26,-171.54C264.76,-181.19 298.09,-196.15 321.57,-206.69"/>
<polygon fill="midnightblue" stroke="midnightblue" points="320.41,-210 330.97,-210.91 323.28,-203.62 320.41,-210"/>
</g>
<!-- Node4 -->
<g id="node4" class="node">
<title>Node4</title>
<g id="a_node4"><a xlink:href="dsygv_8f.html#a007d33bcdcc697e17c6d15432f159b73" target="_top" xlink:title=" ">
<polygon fill="white" stroke="red" points="328.5,-171.5 328.5,-190.5 371.5,-190.5 371.5,-171.5 328.5,-171.5"/>
<text text-anchor="middle" x="350" y="-178.5" font-family="Helvetica,sans-Serif" font-size="10.00">dsygv</text>
</a>
</g>
</g>
<!-- Node2&#45;&gt;Node4 -->
<g id="edge3" class="edge">
<title>Node2&#45;&gt;Node4</title>
<path fill="none" stroke="midnightblue" d="M250.5,-166.26C270.68,-169.28 297.71,-173.33 318.35,-176.42"/>
<polygon fill="midnightblue" stroke="midnightblue" points="318.09,-179.91 328.5,-177.93 319.12,-172.99 318.09,-179.91"/>
</g>
<!-- Node48 -->
<g id="node5" class="node">
<title>Node48</title>
<g id="a_node5"><a xlink:href="byte_8c.html#a2da8eeb074dfd3ffbfb3e9a4d301cda4" target="_top" xlink:title=" ">
<polygon fill="white" stroke="red" points="332.5,-133.5 332.5,-152.5 367.5,-152.5 367.5,-133.5 332.5,-133.5"/>
<text text-anchor="middle" x="350" y="-140.5" font-family="Helvetica,sans-Serif" font-size="10.00">exitt</text>
</a>
</g>
</g>
<!-- Node2&#45;&gt;Node48 -->
<g id="edge4" class="edge">
<title>Node2&#45;&gt;Node48</title>
<path fill="none" stroke="midnightblue" d="M250.5,-157.74C271.92,-154.53 301.08,-150.17 322.1,-147.02"/>
<polygon fill="midnightblue" stroke="midnightblue" points="322.9,-150.44 332.27,-145.5 321.86,-143.52 322.9,-150.44"/>
</g>
<!-- Node51 -->
<g id="node6" class="node">
<title>Node51</title>
<g id="a_node6"><a xlink:href="hmholtz_8f.html#a0c12437d60cdcc0814b9bd6af2040c58" target="_top" xlink:title=" ">
<polygon fill="white" stroke="black" points="324,-95.5 324,-114.5 376,-114.5 376,-95.5 324,-95.5"/>
<text text-anchor="middle" x="350" y="-102.5" font-family="Helvetica,sans-Serif" font-size="10.00">outmat2</text>
</a>
</g>
</g>
<!-- Node2&#45;&gt;Node51 -->
<g id="edge5" class="edge">
<title>Node2&#45;&gt;Node51</title>
<path fill="none" stroke="midnightblue" d="M250.55,-155.63C262.4,-152.51 276.13,-148.28 288,-143 301.85,-136.84 316.3,-127.96 327.65,-120.34"/>
<polygon fill="midnightblue" stroke="midnightblue" points="329.78,-123.13 336.03,-114.57 325.81,-117.36 329.78,-123.13"/>
</g>
</g>
</svg>
