<?xml version="1.0" encoding="UTF-8" standalone="no"?>
<!DOCTYPE svg PUBLIC "-//W3C//DTD SVG 1.1//EN"
 "http://www.w3.org/Graphics/SVG/1.1/DTD/svg11.dtd">
<!-- Generated by graphviz version 2.46.0 (0)
 -->
<!-- Title: fastdm1_g Pages: 1 -->
<!--zoomable 104 -->
<svg id="main" version="1.1" xmlns="http://www.w3.org/2000/svg" xmlns:xlink="http://www.w3.org/1999/xlink" xml:space="preserve" onload="init(evt)">
<style type="text/css"><![CDATA[
.edge:hover path { stroke: red; }
.edge:hover polygon { stroke: red; fill: red; }
]]></style>
<script type="text/javascript"><![CDATA[
var edges = document.getElementsByTagName('g');
if (edges && edges.length) {
  for (var i=0;i<edges.length;i++) {
    if (edges[i].id.substr(0,4)=='edge') {
      edges[i].setAttribute('class','edge');
    }
  }
}
]]></script>
        <defs>
                <circle id="rim" cx="0" cy="0" r="7"/>
                <circle id="rim2" cx="0" cy="0" r="3.5"/>
                <g id="zoomPlus">
                        <use xlink:href="#rim" fill="#404040">
                                <set attributeName="fill" to="#808080" begin="zoomplus.mouseover" end="zoomplus.mouseout"/>
                        </use>
                        <path d="M-4,0h8M0,-4v8" fill="none" stroke="white" stroke-width="1.5" pointer-events="none"/>
                </g>
                <g id="zoomMin">
                        <use xlink:href="#rim" fill="#404040">
                                <set attributeName="fill" to="#808080" begin="zoomminus.mouseover" end="zoomminus.mouseout"/>
                        </use>
                        <path d="M-4,0h8" fill="none" stroke="white" stroke-width="1.5" pointer-events="none"/>
                </g>
                <g id="dirArrow">
                        <path fill="none" stroke="white" stroke-width="1.5" d="M0,-3.0v7 M-2.5,-0.5L0,-3.0L2.5,-0.5"/>
                </g>
               <g id="resetDef">
                       <use xlink:href="#rim2" fill="#404040">
                               <set attributeName="fill" to="#808080" begin="reset.mouseover" end="reset.mouseout"/>
                       </use>
               </g>
        </defs>

<script type="text/javascript">
var viewWidth = 649;
var viewHeight = 104;
var sectionId = 'dynsection-7';
</script>
<script xlink:href="svgpan.js"/>
<svg id="graph" class="graph">
<g id="viewport">
<title>fastdm1_g</title>
<polygon fill="white" stroke="transparent" points="-4,4 -4,-100 645,-100 645,4 -4,4"/>
<!-- Node1 -->
<g id="node1" class="node">
<title>Node1</title>
<g id="a_node1"><a xlink:title=" ">
<polygon fill="#bfbfbf" stroke="black" points="579,-19.5 579,-38.5 641,-38.5 641,-19.5 579,-19.5"/>
<text text-anchor="middle" x="610" y="-26.5" font-family="Helvetica,sans-Serif" font-size="10.00">fastdm1_g</text>
</a>
</g>
</g>
<!-- Node2 -->
<g id="node2" class="node">
<title>Node2</title>
<g id="a_node2"><a xlink:href="gmres_8f.html#a7dd7ba8d0405188645e01979e306211b" target="_top" xlink:title=" ">
<polygon fill="white" stroke="black" points="464,-19.5 464,-38.5 543,-38.5 543,-19.5 464,-19.5"/>
<text text-anchor="middle" x="503.5" y="-26.5" font-family="Helvetica,sans-Serif" font-size="10.00">dd_swap_vals</text>
</a>
</g>
</g>
<!-- Node1&#45;&gt;Node2 -->
<g id="edge1" class="edge">
<title>Node1&#45;&gt;Node2</title>
<path fill="none" stroke="midnightblue" d="M568.54,-29C560.22,-29 551.49,-29 543.24,-29"/>
<polygon fill="midnightblue" stroke="midnightblue" points="568.77,-32.5 578.77,-29 568.77,-25.5 568.77,-32.5"/>
</g>
<!-- Node3 -->
<g id="node3" class="node">
<title>Node3</title>
<g id="a_node3"><a xlink:href="gmres_8f.html#a3186bb19bf545a9381a31573cc142500" target="_top" xlink:title=" ">
<polygon fill="white" stroke="black" points="354,-19.5 354,-38.5 428,-38.5 428,-19.5 354,-19.5"/>
<text text-anchor="middle" x="391" y="-26.5" font-family="Helvetica,sans-Serif" font-size="10.00">h1_overlap_2</text>
</a>
</g>
</g>
<!-- Node2&#45;&gt;Node3 -->
<g id="edge2" class="edge">
<title>Node2&#45;&gt;Node3</title>
<path fill="none" stroke="midnightblue" d="M453.6,-29C445.07,-29 436.33,-29 428.22,-29"/>
<polygon fill="midnightblue" stroke="midnightblue" points="453.85,-32.5 463.85,-29 453.85,-25.5 453.85,-32.5"/>
</g>
<!-- Node4 -->
<g id="node4" class="node">
<title>Node4</title>
<g id="a_node4"><a xlink:href="hmholtz_8f.html#a8734f3cc2d37d6a2ccd1daa8db57513d" target="_top" xlink:title=" ">
<polygon fill="white" stroke="black" points="176,-19.5 176,-38.5 214,-38.5 214,-19.5 176,-19.5"/>
<text text-anchor="middle" x="195" y="-26.5" font-family="Helvetica,sans-Serif" font-size="10.00">cggo</text>
</a>
</g>
</g>
<!-- Node3&#45;&gt;Node4 -->
<g id="edge3" class="edge">
<title>Node3&#45;&gt;Node4</title>
<path fill="none" stroke="midnightblue" d="M343.8,-29C302.24,-29 243.35,-29 214.03,-29"/>
<polygon fill="midnightblue" stroke="midnightblue" points="343.96,-32.5 353.96,-29 343.96,-25.5 343.96,-32.5"/>
</g>
<!-- Node73 -->
<g id="node10" class="node">
<title>Node73</title>
<g id="a_node10"><a xlink:href="gmres_8f.html#a377d8578c6ccd4fddffb699c7a18f603" target="_top" xlink:title=" ">
<polygon fill="white" stroke="black" points="250,-0.5 250,-19.5 318,-19.5 318,-0.5 250,-0.5"/>
<text text-anchor="middle" x="284" y="-7.5" font-family="Helvetica,sans-Serif" font-size="10.00">hmh_gmres</text>
</a>
</g>
</g>
<!-- Node3&#45;&gt;Node73 -->
<g id="edge9" class="edge">
<title>Node3&#45;&gt;Node73</title>
<path fill="none" stroke="midnightblue" d="M343.83,-20.65C335.14,-19.07 326.22,-17.46 318.03,-15.98"/>
<polygon fill="midnightblue" stroke="midnightblue" points="343.4,-24.12 353.86,-22.46 344.65,-17.24 343.4,-24.12"/>
</g>
<!-- Node5 -->
<g id="node5" class="node">
<title>Node5</title>
<g id="a_node5"><a xlink:href="hmholtz_8f.html#a52dcac1fe733719d4987d36aac022e4d" target="_top" xlink:title=" ">
<polygon fill="white" stroke="red" points="89,-38.5 89,-57.5 140,-57.5 140,-38.5 89,-38.5"/>
<text text-anchor="middle" x="114.5" y="-45.5" font-family="Helvetica,sans-Serif" font-size="10.00">hmholtz</text>
</a>
</g>
</g>
<!-- Node4&#45;&gt;Node5 -->
<g id="edge4" class="edge">
<title>Node4&#45;&gt;Node5</title>
<path fill="none" stroke="midnightblue" d="M165.99,-35.78C157.55,-37.82 148.35,-40.05 140.15,-42.03"/>
<polygon fill="midnightblue" stroke="midnightblue" points="166.9,-39.16 175.79,-33.41 165.25,-32.36 166.9,-39.16"/>
</g>
<!-- Node67 -->
<g id="node9" class="node">
<title>Node67</title>
<g id="a_node9"><a xlink:href="navier4_8f.html#abff3f3a3a3b301fbd3e883cb30d2d967" target="_top" xlink:title=" ">
<polygon fill="white" stroke="red" points="90,-0.5 90,-19.5 139,-19.5 139,-0.5 90,-0.5"/>
<text text-anchor="middle" x="114.5" y="-7.5" font-family="Helvetica,sans-Serif" font-size="10.00">hmhzpf</text>
</a>
</g>
</g>
<!-- Node4&#45;&gt;Node67 -->
<g id="edge8" class="edge">
<title>Node4&#45;&gt;Node67</title>
<path fill="none" stroke="midnightblue" d="M166.01,-22.23C157.26,-20.11 147.7,-17.79 139.27,-15.75"/>
<polygon fill="midnightblue" stroke="midnightblue" points="165.25,-25.64 175.79,-24.59 166.9,-18.84 165.25,-25.64"/>
</g>
<!-- Node6 -->
<g id="node6" class="node">
<title>Node6</title>
<g id="a_node6"><a xlink:href="eigsolv_8f.html#a285ca4aa2354ca8584af31946d6761c2" target="_top" xlink:title=" ">
<polygon fill="white" stroke="red" points="0,-76.5 0,-95.5 53,-95.5 53,-76.5 0,-76.5"/>
<text text-anchor="middle" x="26.5" y="-83.5" font-family="Helvetica,sans-Serif" font-size="10.00">alpham1</text>
</a>
</g>
</g>
<!-- Node5&#45;&gt;Node6 -->
<g id="edge5" class="edge">
<title>Node5&#45;&gt;Node6</title>
<path fill="none" stroke="midnightblue" d="M82.48,-61.71C71.45,-66.58 59.28,-71.96 49.19,-76.41"/>
<polygon fill="midnightblue" stroke="midnightblue" points="84.07,-64.83 91.8,-57.59 81.24,-58.43 84.07,-64.83"/>
</g>
<!-- Node17 -->
<g id="node7" class="node">
<title>Node17</title>
<g id="a_node7"><a xlink:href="perturb_8f.html#af07508f1eb200c9ae22de3620ae45d70" target="_top" xlink:title=" ">
<polygon fill="white" stroke="red" points="1.5,-38.5 1.5,-57.5 51.5,-57.5 51.5,-38.5 1.5,-38.5"/>
<text text-anchor="middle" x="26.5" y="-45.5" font-family="Helvetica,sans-Serif" font-size="10.00">cdscalp</text>
</a>
</g>
</g>
<!-- Node5&#45;&gt;Node17 -->
<g id="edge6" class="edge">
<title>Node5&#45;&gt;Node17</title>
<path fill="none" stroke="midnightblue" d="M78.42,-48C69.45,-48 60.01,-48 51.73,-48"/>
<polygon fill="midnightblue" stroke="midnightblue" points="78.63,-51.5 88.63,-48 78.63,-44.5 78.63,-51.5"/>
</g>
<!-- Node19 -->
<g id="node8" class="node">
<title>Node19</title>
<g id="a_node8"><a xlink:href="navier1_8f.html#aec24385a47394ac281dc04124fff7618" target="_top" xlink:title=" ">
<polygon fill="white" stroke="red" points="6,-0.5 6,-19.5 47,-19.5 47,-0.5 6,-0.5"/>
<text text-anchor="middle" x="26.5" y="-7.5" font-family="Helvetica,sans-Serif" font-size="10.00">eprec</text>
</a>
</g>
</g>
<!-- Node5&#45;&gt;Node19 -->
<g id="edge7" class="edge">
<title>Node5&#45;&gt;Node19</title>
<path fill="none" stroke="midnightblue" d="M82.31,-34.22C70.57,-29.03 57.54,-23.27 47.14,-18.68"/>
<polygon fill="midnightblue" stroke="midnightblue" points="81.24,-37.57 91.8,-38.41 84.07,-31.17 81.24,-37.57"/>
</g>
<!-- Node73&#45;&gt;Node4 -->
<g id="edge10" class="edge">
<title>Node73&#45;&gt;Node4</title>
<path fill="none" stroke="midnightblue" d="M239.83,-19.43C230.74,-21.41 221.63,-23.4 214.09,-25.05"/>
<polygon fill="midnightblue" stroke="midnightblue" points="240.59,-22.84 249.61,-17.29 239.1,-16.01 240.59,-22.84"/>
</g>
</g>
</svg>
        <g id="navigator" transform="translate(0 0)" fill="#404254">
                <rect fill="#f2f5e9" fill-opacity="0.5" stroke="#606060" stroke-width=".5" x="0" y="0" width="60" height="60"/>
                <use id="zoomplus" xlink:href="#zoomPlus" x="17" y="9" onmousedown="handleZoom(evt,'in')"/>
                <use id="zoomminus" xlink:href="#zoomMin" x="42" y="9" onmousedown="handleZoom(evt,'out')"/>
                <use id="reset" xlink:href="#resetDef" x="30" y="36" onmousedown="handleReset()"/>
                <g id="arrowUp" xlink:href="#dirArrow" transform="translate(30 24)" onmousedown="handlePan(0,-1)">
                  <use xlink:href="#rim" fill="#404040">
                        <set attributeName="fill" to="#808080" begin="arrowUp.mouseover" end="arrowUp.mouseout"/>
                  </use>
                  <path fill="none" stroke="white" stroke-width="1.5" d="M0,-3.0v7 M-2.5,-0.5L0,-3.0L2.5,-0.5"/>
                </g>
                <g id="arrowRight" xlink:href="#dirArrow" transform="rotate(90) translate(36 -43)" onmousedown="handlePan(1,0)">
                  <use xlink:href="#rim" fill="#404040">
                        <set attributeName="fill" to="#808080" begin="arrowRight.mouseover" end="arrowRight.mouseout"/>
                  </use>
                  <path fill="none" stroke="white" stroke-width="1.5" d="M0,-3.0v7 M-2.5,-0.5L0,-3.0L2.5,-0.5"/>
                </g>
                <g id="arrowDown" xlink:href="#dirArrow" transform="rotate(180) translate(-30 -48)" onmousedown="handlePan(0,1)">
                  <use xlink:href="#rim" fill="#404040">
                        <set attributeName="fill" to="#808080" begin="arrowDown.mouseover" end="arrowDown.mouseout"/>
                  </use>
                  <path fill="none" stroke="white" stroke-width="1.5" d="M0,-3.0v7 M-2.5,-0.5L0,-3.0L2.5,-0.5"/>
                </g>
                <g id="arrowLeft" xlink:href="#dirArrow" transform="rotate(270) translate(-36 17)" onmousedown="handlePan(-1,0)">
                  <use xlink:href="#rim" fill="#404040">
                        <set attributeName="fill" to="#808080" begin="arrowLeft.mouseover" end="arrowLeft.mouseout"/>
                  </use>
                  <path fill="none" stroke="white" stroke-width="1.5" d="M0,-3.0v7 M-2.5,-0.5L0,-3.0L2.5,-0.5"/>
                </g>
        </g>
        <svg viewBox="0 0 15 15" width="100%" height="30px" preserveAspectRatio="xMaxYMin meet">
         <g id="arrow_out" transform="scale(0.3 0.3)">
          <a xlink:href="gmres_8f_a8ef45923e5b26db001db4fe04e126444_icgraph_org.svg" target="_base">
           <rect id="button" ry="5" rx="5" y="6" x="6" height="38" width="38"
                fill="#f2f5e9" fill-opacity="0.5" stroke="#606060" stroke-width="1.0"/>
           <path id="arrow"
             d="M 11.500037,31.436501 C 11.940474,20.09759 22.043105,11.32322 32.158766,21.979434 L 37.068811,17.246167 C 37.068811,17.246167 37.088388,32 37.088388,32 L 22.160133,31.978069 C 22.160133,31.978069 26.997745,27.140456 26.997745,27.140456 C 18.528582,18.264221 13.291696,25.230495 11.500037,31.436501 z"
             style="fill:#404040;"/>
          </a>
         </g>
        </svg>
</svg>
