<?xml version="1.0" encoding="UTF-8" standalone="no"?>
<!DOCTYPE svg PUBLIC "-//W3C//DTD SVG 1.1//EN"
 "http://www.w3.org/Graphics/SVG/1.1/DTD/svg11.dtd">
<!-- Generated by graphviz version 2.46.0 (0)
 -->
<!-- Title: dd_swap_vals Pages: 1 -->
<svg width="391pt" height="218pt"
 viewBox="0.00 0.00 391.00 218.00" xmlns="http://www.w3.org/2000/svg" xmlns:xlink="http://www.w3.org/1999/xlink">
<g id="graph0" class="graph" transform="scale(1 1) rotate(0) translate(4 214)">
<title>dd_swap_vals</title>
<polygon fill="white" stroke="transparent" points="-4,4 -4,-214 387,-214 387,4 -4,4"/>
<!-- Node1 -->
<g id="node1" class="node">
<title>Node1</title>
<g id="a_node1"><a xlink:title=" ">
<polygon fill="#bfbfbf" stroke="black" points="0,-95.5 0,-114.5 79,-114.5 79,-95.5 0,-95.5"/>
<text text-anchor="middle" x="39.5" y="-102.5" font-family="Helvetica,sans-Serif" font-size="10.00">dd_swap_vals</text>
</a>
</g>
</g>
<!-- Node2 -->
<g id="node2" class="node">
<title>Node2</title>
<g id="a_node2"><a xlink:href="gmres_8f.html#a43659b68b83fec09ec0b3bf692d51236" target="_top" xlink:title=" ">
<polygon fill="white" stroke="black" points="118,-190.5 118,-209.5 203,-209.5 203,-190.5 118,-190.5"/>
<text text-anchor="middle" x="160.5" y="-197.5" font-family="Helvetica,sans-Serif" font-size="10.00">dface_add1si_g</text>
</a>
</g>
</g>
<!-- Node1&#45;&gt;Node2 -->
<g id="edge1" class="edge">
<title>Node1&#45;&gt;Node2</title>
<path fill="none" stroke="midnightblue" d="M47.8,-114.59C60.15,-130.28 86.63,-161.61 115,-181 117.55,-182.74 120.29,-184.38 123.11,-185.9"/>
<polygon fill="midnightblue" stroke="midnightblue" points="121.73,-189.13 132.26,-190.37 124.81,-182.84 121.73,-189.13"/>
</g>
<!-- Node3 -->
<g id="node3" class="node">
<title>Node3</title>
<g id="a_node3"><a xlink:href="gmres_8f.html#a1e8a9de3b82706c57cdcfc6bc70b0395" target="_top" xlink:title=" ">
<polygon fill="white" stroke="black" points="125.5,-152.5 125.5,-171.5 195.5,-171.5 195.5,-152.5 125.5,-152.5"/>
<text text-anchor="middle" x="160.5" y="-159.5" font-family="Helvetica,sans-Serif" font-size="10.00">dface_ext_g</text>
</a>
</g>
</g>
<!-- Node1&#45;&gt;Node3 -->
<g id="edge2" class="edge">
<title>Node1&#45;&gt;Node3</title>
<path fill="none" stroke="midnightblue" d="M58.4,-114.56C73.38,-122.46 95.4,-133.83 115,-143 118.85,-144.8 122.92,-146.63 126.97,-148.41"/>
<polygon fill="midnightblue" stroke="midnightblue" points="125.7,-151.68 136.27,-152.44 128.48,-145.25 125.7,-151.68"/>
</g>
<!-- Node4 -->
<g id="node4" class="node">
<title>Node4</title>
<g id="a_node4"><a xlink:href="gmres_8f.html#a8ef45923e5b26db001db4fe04e126444" target="_top" xlink:title=" ">
<polygon fill="white" stroke="black" points="129.5,-114.5 129.5,-133.5 191.5,-133.5 191.5,-114.5 129.5,-114.5"/>
<text text-anchor="middle" x="160.5" y="-121.5" font-family="Helvetica,sans-Serif" font-size="10.00">fastdm1_g</text>
</a>
</g>
</g>
<!-- Node1&#45;&gt;Node4 -->
<g id="edge3" class="edge">
<title>Node1&#45;&gt;Node4</title>
<path fill="none" stroke="midnightblue" d="M79.14,-111.17C91.99,-113.22 106.33,-115.51 119.29,-117.58"/>
<polygon fill="midnightblue" stroke="midnightblue" points="118.92,-121.07 129.35,-119.19 120.02,-114.15 118.92,-121.07"/>
</g>
<!-- Node12 -->
<g id="node8" class="node">
<title>Node12</title>
<g id="a_node8"><a xlink:href="gmres_8f.html#a0653af42d72c8e02e3cf690c6190170b" target="_top" xlink:title=" ">
<polygon fill="white" stroke="black" points="125,-76.5 125,-95.5 196,-95.5 196,-76.5 125,-76.5"/>
<text text-anchor="middle" x="160.5" y="-83.5" font-family="Helvetica,sans-Serif" font-size="10.00">fill_interior_g</text>
</a>
</g>
</g>
<!-- Node1&#45;&gt;Node12 -->
<g id="edge7" class="edge">
<title>Node1&#45;&gt;Node12</title>
<path fill="none" stroke="midnightblue" d="M79.14,-98.83C90.47,-97.02 102.97,-95.03 114.66,-93.16"/>
<polygon fill="midnightblue" stroke="midnightblue" points="115.35,-96.59 124.68,-91.56 114.25,-89.68 115.35,-96.59"/>
</g>
<!-- Node13 -->
<g id="node9" class="node">
<title>Node13</title>
<g id="a_node9"><a xlink:href="gmres_8f.html#a62ea61d640cbb0cf09e3c2c42c3232e7" target="_top" xlink:title=" ">
<polygon fill="white" stroke="black" points="136,-38.5 136,-57.5 185,-57.5 185,-38.5 136,-38.5"/>
<text text-anchor="middle" x="160.5" y="-45.5" font-family="Helvetica,sans-Serif" font-size="10.00">rzero_g</text>
</a>
</g>
</g>
<!-- Node1&#45;&gt;Node13 -->
<g id="edge8" class="edge">
<title>Node1&#45;&gt;Node13</title>
<path fill="none" stroke="midnightblue" d="M58.4,-95.44C73.38,-87.54 95.4,-76.17 115,-67 118.85,-65.2 122.92,-63.37 126.97,-61.59"/>
<polygon fill="midnightblue" stroke="midnightblue" points="128.48,-64.75 136.27,-57.56 125.7,-58.32 128.48,-64.75"/>
</g>
<!-- Node14 -->
<g id="node10" class="node">
<title>Node14</title>
<g id="a_node10"><a xlink:href="gmres_8f.html#a4b9312508a390141e159b0cbb2206fa9" target="_top" xlink:title=" ">
<polygon fill="white" stroke="black" points="115,-0.5 115,-19.5 206,-19.5 206,-0.5 115,-0.5"/>
<text text-anchor="middle" x="160.5" y="-7.5" font-family="Helvetica,sans-Serif" font-size="10.00">s_face_to_int2_g</text>
</a>
</g>
</g>
<!-- Node1&#45;&gt;Node14 -->
<g id="edge9" class="edge">
<title>Node1&#45;&gt;Node14</title>
<path fill="none" stroke="midnightblue" d="M47.8,-95.41C60.15,-79.72 86.63,-48.39 115,-29 117.55,-27.26 120.29,-25.62 123.11,-24.1"/>
<polygon fill="midnightblue" stroke="midnightblue" points="124.81,-27.16 132.26,-19.63 121.73,-20.87 124.81,-27.16"/>
</g>
<!-- Node5 -->
<g id="node5" class="node">
<title>Node5</title>
<g id="a_node5"><a xlink:href="math_8f.html#a3470db04166d9ba91454a14cc17dbec2" target="_top" xlink:title=" ">
<polygon fill="white" stroke="black" points="246.5,-133.5 246.5,-152.5 281.5,-152.5 281.5,-133.5 246.5,-133.5"/>
<text text-anchor="middle" x="264" y="-140.5" font-family="Helvetica,sans-Serif" font-size="10.00">col2</text>
</a>
</g>
</g>
<!-- Node4&#45;&gt;Node5 -->
<g id="edge4" class="edge">
<title>Node4&#45;&gt;Node5</title>
<path fill="none" stroke="midnightblue" d="M191.68,-129.65C205.79,-132.29 222.45,-135.41 236.12,-137.97"/>
<polygon fill="midnightblue" stroke="midnightblue" points="235.86,-141.48 246.34,-139.88 237.15,-134.6 235.86,-141.48"/>
</g>
<!-- Node8 -->
<g id="node7" class="node">
<title>Node8</title>
<g id="a_node7"><a xlink:href="fasts_8f.html#a1dc2171702fabe2e09c87421de1f0e5d" target="_top" xlink:title=" ">
<polygon fill="white" stroke="red" points="242,-95.5 242,-114.5 286,-114.5 286,-95.5 242,-95.5"/>
<text text-anchor="middle" x="264" y="-102.5" font-family="Helvetica,sans-Serif" font-size="10.00">tensr3</text>
</a>
</g>
</g>
<!-- Node4&#45;&gt;Node8 -->
<g id="edge6" class="edge">
<title>Node4&#45;&gt;Node8</title>
<path fill="none" stroke="midnightblue" d="M191.68,-118.35C204.28,-115.99 218.92,-113.25 231.64,-110.87"/>
<polygon fill="midnightblue" stroke="midnightblue" points="232.6,-114.25 241.79,-108.97 231.32,-107.37 232.6,-114.25"/>
</g>
<!-- Node6 -->
<g id="node6" class="node">
<title>Node6</title>
<g id="a_node6"><a xlink:href="comm__mpi_8f.html#af06ec29f06aac3f8809e19de2a7e8946" target="_top" xlink:title=" ">
<polygon fill="white" stroke="red" points="322,-133.5 322,-152.5 383,-152.5 383,-133.5 322,-133.5"/>
<text text-anchor="middle" x="352.5" y="-140.5" font-family="Helvetica,sans-Serif" font-size="10.00">dnekclock</text>
</a>
</g>
</g>
<!-- Node5&#45;&gt;Node6 -->
<g id="edge5" class="edge">
<title>Node5&#45;&gt;Node6</title>
<path fill="none" stroke="midnightblue" d="M281.68,-143C290.31,-143 301.25,-143 311.89,-143"/>
<polygon fill="midnightblue" stroke="midnightblue" points="311.91,-146.5 321.91,-143 311.91,-139.5 311.91,-146.5"/>
</g>
</g>
</svg>
