<?xml version="1.0" encoding="UTF-8" standalone="no"?>
<!DOCTYPE svg PUBLIC "-//W3C//DTD SVG 1.1//EN"
 "http://www.w3.org/Graphics/SVG/1.1/DTD/svg11.dtd">
<!-- Generated by graphviz version 2.46.0 (0)
 -->
<!-- Title: uzawa_gmres Pages: 1 -->
<svg width="377pt" height="208pt"
 viewBox="0.00 0.00 377.00 208.00" xmlns="http://www.w3.org/2000/svg" xmlns:xlink="http://www.w3.org/1999/xlink">
<g id="graph0" class="graph" transform="scale(1 1) rotate(0) translate(4 204)">
<title>uzawa_gmres</title>
<polygon fill="white" stroke="transparent" points="-4,4 -4,-204 373,-204 373,4 -4,4"/>
<!-- Node1 -->
<g id="node1" class="node">
<title>Node1</title>
<g id="a_node1"><a xlink:title=" ">
<polygon fill="#bfbfbf" stroke="black" points="292,-57.5 292,-76.5 369,-76.5 369,-57.5 292,-57.5"/>
<text text-anchor="middle" x="330.5" y="-64.5" font-family="Helvetica,sans-Serif" font-size="10.00">uzawa_gmres</text>
</a>
</g>
</g>
<!-- Node2 -->
<g id="node2" class="node">
<title>Node2</title>
<g id="a_node2"><a xlink:href="navier0_8f.html#aaba079db7e38db9800deef09526370ec" target="_top" xlink:title=" ">
<polygon fill="white" stroke="black" points="208,-57.5 208,-76.5 256,-76.5 256,-57.5 208,-57.5"/>
<text text-anchor="middle" x="232" y="-64.5" font-family="Helvetica,sans-Serif" font-size="10.00">esolver</text>
</a>
</g>
</g>
<!-- Node1&#45;&gt;Node2 -->
<g id="edge1" class="edge">
<title>Node1&#45;&gt;Node2</title>
<path fill="none" stroke="midnightblue" d="M281.87,-67C272.91,-67 263.92,-67 256.13,-67"/>
<polygon fill="midnightblue" stroke="midnightblue" points="281.91,-70.5 291.91,-67 281.91,-63.5 281.91,-70.5"/>
</g>
<!-- Node3 -->
<g id="node3" class="node">
<title>Node3</title>
<g id="a_node3"><a xlink:href="induct_8f.html#aeb2c6d4ae2c98143118acce2419c034d" target="_top" xlink:title=" ">
<polygon fill="white" stroke="black" points="105.5,-123.5 105.5,-142.5 161.5,-142.5 161.5,-123.5 105.5,-123.5"/>
<text text-anchor="middle" x="133.5" y="-130.5" font-family="Helvetica,sans-Serif" font-size="10.00">incomprn</text>
</a>
</g>
</g>
<!-- Node2&#45;&gt;Node3 -->
<g id="edge2" class="edge">
<title>Node2&#45;&gt;Node3</title>
<path fill="none" stroke="midnightblue" d="M208.3,-82.52C189.76,-95.2 164.15,-112.72 148.48,-123.44"/>
<polygon fill="midnightblue" stroke="midnightblue" points="210.48,-85.27 216.76,-76.74 206.53,-79.49 210.48,-85.27"/>
</g>
<!-- Node18 -->
<g id="node7" class="node">
<title>Node18</title>
<g id="a_node7"><a xlink:href="perturb_8f.html#a0db1f2daa54855dae3938a53c1fd7a65" target="_top" xlink:title=" ">
<polygon fill="white" stroke="black" points="105.5,-76.5 105.5,-95.5 161.5,-95.5 161.5,-76.5 105.5,-76.5"/>
<text text-anchor="middle" x="133.5" y="-83.5" font-family="Helvetica,sans-Serif" font-size="10.00">incomprp</text>
</a>
</g>
</g>
<!-- Node2&#45;&gt;Node18 -->
<g id="edge6" class="edge">
<title>Node2&#45;&gt;Node18</title>
<path fill="none" stroke="midnightblue" d="M197.74,-73.55C186,-75.86 172.94,-78.43 161.75,-80.63"/>
<polygon fill="midnightblue" stroke="midnightblue" points="198.5,-76.97 207.64,-71.6 197.15,-70.1 198.5,-76.97"/>
</g>
<!-- Node21 -->
<g id="node9" class="node">
<title>Node21</title>
<g id="a_node9"><a xlink:href="drive2_8f.html#af4200cfe213ef1c8819f8a0f7b506a2d" target="_top" xlink:title=" ">
<polygon fill="white" stroke="red" points="104.5,-38.5 104.5,-57.5 162.5,-57.5 162.5,-38.5 104.5,-38.5"/>
<text text-anchor="middle" x="133.5" y="-45.5" font-family="Helvetica,sans-Serif" font-size="10.00">plan3_vol</text>
</a>
</g>
</g>
<!-- Node2&#45;&gt;Node21 -->
<g id="edge8" class="edge">
<title>Node2&#45;&gt;Node21</title>
<path fill="none" stroke="midnightblue" d="M197.64,-60.43C186.29,-58.2 173.72,-55.72 162.81,-53.57"/>
<polygon fill="midnightblue" stroke="midnightblue" points="197.15,-63.9 207.64,-62.4 198.5,-57.03 197.15,-63.9"/>
</g>
<!-- Node24 -->
<g id="node10" class="node">
<title>Node24</title>
<g id="a_node10"><a xlink:href="multimesh_8f.html#a496bf595bdb0c099877ab39e6236c027" target="_top" xlink:title=" ">
<polygon fill="white" stroke="red" points="95,-0.5 95,-19.5 172,-19.5 172,-0.5 95,-0.5"/>
<text text-anchor="middle" x="133.5" y="-7.5" font-family="Helvetica,sans-Serif" font-size="10.00">plan3_vol_ms</text>
</a>
</g>
</g>
<!-- Node2&#45;&gt;Node24 -->
<g id="edge9" class="edge">
<title>Node2&#45;&gt;Node24</title>
<path fill="none" stroke="midnightblue" d="M208.26,-51.57C197.44,-44.44 184.22,-36.01 172,-29 166.43,-25.81 160.26,-22.56 154.55,-19.68"/>
<polygon fill="midnightblue" stroke="midnightblue" points="206.45,-54.57 216.71,-57.21 210.33,-48.75 206.45,-54.57"/>
</g>
<!-- Node4 -->
<g id="node4" class="node">
<title>Node4</title>
<g id="a_node4"><a xlink:href="induct_8f.html#adef470718d07d8b4c7f6bf32b2a9ecb9" target="_top" xlink:title=" ">
<polygon fill="white" stroke="red" points="0,-180.5 0,-199.5 59,-199.5 59,-180.5 0,-180.5"/>
<text text-anchor="middle" x="29.5" y="-187.5" font-family="Helvetica,sans-Serif" font-size="10.00">elsasserh</text>
</a>
</g>
</g>
<!-- Node3&#45;&gt;Node4 -->
<g id="edge3" class="edge">
<title>Node3&#45;&gt;Node4</title>
<path fill="none" stroke="midnightblue" d="M106.38,-147.59C87.89,-157.93 63.6,-171.5 47.55,-180.47"/>
<polygon fill="midnightblue" stroke="midnightblue" points="108.18,-150.6 115.2,-142.67 104.76,-144.49 108.18,-150.6"/>
</g>
<!-- Node10 -->
<g id="node5" class="node">
<title>Node10</title>
<g id="a_node5"><a xlink:href="plan5_8f.html#a1c77871dc9883719557071c0006dc66e" target="_top" xlink:title=" ">
<polygon fill="white" stroke="red" points="4,-142.5 4,-161.5 55,-161.5 55,-142.5 4,-142.5"/>
<text text-anchor="middle" x="29.5" y="-149.5" font-family="Helvetica,sans-Serif" font-size="10.00">midstep</text>
</a>
</g>
</g>
<!-- Node3&#45;&gt;Node10 -->
<g id="edge4" class="edge">
<title>Node3&#45;&gt;Node10</title>
<path fill="none" stroke="midnightblue" d="M95.53,-139.89C82.13,-142.38 67.33,-145.14 55.24,-147.39"/>
<polygon fill="midnightblue" stroke="midnightblue" points="96.24,-143.31 105.43,-138.04 94.96,-136.43 96.24,-143.31"/>
</g>
<!-- Node17 -->
<g id="node6" class="node">
<title>Node17</title>
<g id="a_node6"><a xlink:href="planx_8f.html#a142f9186a662d3de60f09bb0ee26782d" target="_top" xlink:title=" ">
<polygon fill="white" stroke="red" points="9.5,-104.5 9.5,-123.5 49.5,-123.5 49.5,-104.5 9.5,-104.5"/>
<text text-anchor="middle" x="29.5" y="-111.5" font-family="Helvetica,sans-Serif" font-size="10.00">plan3</text>
</a>
</g>
</g>
<!-- Node3&#45;&gt;Node17 -->
<g id="edge5" class="edge">
<title>Node3&#45;&gt;Node17</title>
<path fill="none" stroke="midnightblue" d="M95.54,-126.12C79.98,-123.22 62.52,-119.96 49.61,-117.56"/>
<polygon fill="midnightblue" stroke="midnightblue" points="94.96,-129.57 105.43,-127.96 96.24,-122.69 94.96,-129.57"/>
</g>
<!-- Node19 -->
<g id="node8" class="node">
<title>Node19</title>
<g id="a_node8"><a xlink:href="perturb_8f.html#a4b77d7db844b723bd5ed857e918bc83f" target="_top" xlink:title=" ">
<polygon fill="white" stroke="red" points="3.5,-66.5 3.5,-85.5 55.5,-85.5 55.5,-66.5 3.5,-66.5"/>
<text text-anchor="middle" x="29.5" y="-73.5" font-family="Helvetica,sans-Serif" font-size="10.00">perturbv</text>
</a>
</g>
</g>
<!-- Node18&#45;&gt;Node19 -->
<g id="edge7" class="edge">
<title>Node18&#45;&gt;Node19</title>
<path fill="none" stroke="midnightblue" d="M95.22,-82.34C82.03,-81.05 67.52,-79.63 55.59,-78.46"/>
<polygon fill="midnightblue" stroke="midnightblue" points="95.14,-85.85 105.43,-83.35 95.82,-78.89 95.14,-85.85"/>
</g>
</g>
</svg>
