<?xml version="1.0" encoding="UTF-8" standalone="no"?>
<!DOCTYPE svg PUBLIC "-//W3C//DTD SVG 1.1//EN"
 "http://www.w3.org/Graphics/SVG/1.1/DTD/svg11.dtd">
<!-- Generated by graphviz version 2.46.0 (0)
 -->
<!-- Title: ax Pages: 1 -->
<svg width="395pt" height="142pt"
 viewBox="0.00 0.00 395.00 142.00" xmlns="http://www.w3.org/2000/svg" xmlns:xlink="http://www.w3.org/1999/xlink">
<g id="graph0" class="graph" transform="scale(1 1) rotate(0) translate(4 138)">
<title>ax</title>
<polygon fill="white" stroke="transparent" points="-4,4 -4,-138 391,-138 391,4 -4,4"/>
<!-- Node1 -->
<g id="node1" class="node">
<title>Node1</title>
<g id="a_node1"><a xlink:title=" ">
<polygon fill="#bfbfbf" stroke="black" points="358,-19.5 358,-38.5 387,-38.5 387,-19.5 358,-19.5"/>
<text text-anchor="middle" x="372.5" y="-26.5" font-family="Helvetica,sans-Serif" font-size="10.00">ax</text>
</a>
</g>
</g>
<!-- Node2 -->
<g id="node2" class="node">
<title>Node2</title>
<g id="a_node2"><a xlink:href="hmholtz_8f.html#a8a396e973763e576543b4ab90c072b6d" target="_top" xlink:title=" ">
<polygon fill="white" stroke="black" points="250,-38.5 250,-57.5 322,-57.5 322,-38.5 250,-38.5"/>
<text text-anchor="middle" x="286" y="-45.5" font-family="Helvetica,sans-Serif" font-size="10.00">hmh_flex_cg</text>
</a>
</g>
</g>
<!-- Node1&#45;&gt;Node2 -->
<g id="edge1" class="edge">
<title>Node1&#45;&gt;Node2</title>
<path fill="none" stroke="midnightblue" d="M348.12,-34.26C340.06,-36.07 330.84,-38.14 322.06,-40.12"/>
<polygon fill="midnightblue" stroke="midnightblue" points="348.94,-37.66 357.92,-32.05 347.4,-30.83 348.94,-37.66"/>
</g>
<!-- Node72 -->
<g id="node10" class="node">
<title>Node72</title>
<g id="a_node10"><a xlink:href="gmres_8f.html#a377d8578c6ccd4fddffb699c7a18f603" target="_top" xlink:title=" ">
<polygon fill="white" stroke="black" points="252,-0.5 252,-19.5 320,-19.5 320,-0.5 252,-0.5"/>
<text text-anchor="middle" x="286" y="-7.5" font-family="Helvetica,sans-Serif" font-size="10.00">hmh_gmres</text>
</a>
</g>
</g>
<!-- Node1&#45;&gt;Node72 -->
<g id="edge10" class="edge">
<title>Node1&#45;&gt;Node72</title>
<path fill="none" stroke="midnightblue" d="M347.9,-23.69C339.33,-21.77 329.48,-19.55 320.24,-17.47"/>
<polygon fill="midnightblue" stroke="midnightblue" points="347.4,-27.17 357.92,-25.95 348.94,-20.34 347.4,-27.17"/>
</g>
<!-- Node3 -->
<g id="node3" class="node">
<title>Node3</title>
<g id="a_node3"><a xlink:href="hmholtz_8f.html#a8734f3cc2d37d6a2ccd1daa8db57513d" target="_top" xlink:title=" ">
<polygon fill="white" stroke="black" points="176,-19.5 176,-38.5 214,-38.5 214,-19.5 176,-19.5"/>
<text text-anchor="middle" x="195" y="-26.5" font-family="Helvetica,sans-Serif" font-size="10.00">cggo</text>
</a>
</g>
</g>
<!-- Node2&#45;&gt;Node3 -->
<g id="edge2" class="edge">
<title>Node2&#45;&gt;Node3</title>
<path fill="none" stroke="midnightblue" d="M239.93,-38.38C230.76,-36.42 221.62,-34.47 214.07,-32.86"/>
<polygon fill="midnightblue" stroke="midnightblue" points="239.31,-41.83 249.82,-40.49 240.78,-34.98 239.31,-41.83"/>
</g>
<!-- Node4 -->
<g id="node4" class="node">
<title>Node4</title>
<g id="a_node4"><a xlink:href="hmholtz_8f.html#a52dcac1fe733719d4987d36aac022e4d" target="_top" xlink:title=" ">
<polygon fill="white" stroke="red" points="89,-38.5 89,-57.5 140,-57.5 140,-38.5 89,-38.5"/>
<text text-anchor="middle" x="114.5" y="-45.5" font-family="Helvetica,sans-Serif" font-size="10.00">hmholtz</text>
</a>
</g>
</g>
<!-- Node3&#45;&gt;Node4 -->
<g id="edge3" class="edge">
<title>Node3&#45;&gt;Node4</title>
<path fill="none" stroke="midnightblue" d="M165.99,-35.78C157.55,-37.82 148.35,-40.05 140.15,-42.03"/>
<polygon fill="midnightblue" stroke="midnightblue" points="166.9,-39.16 175.79,-33.41 165.25,-32.36 166.9,-39.16"/>
</g>
<!-- Node66 -->
<g id="node9" class="node">
<title>Node66</title>
<g id="a_node9"><a xlink:href="navier4_8f.html#abff3f3a3a3b301fbd3e883cb30d2d967" target="_top" xlink:title=" ">
<polygon fill="white" stroke="red" points="90,-0.5 90,-19.5 139,-19.5 139,-0.5 90,-0.5"/>
<text text-anchor="middle" x="114.5" y="-7.5" font-family="Helvetica,sans-Serif" font-size="10.00">hmhzpf</text>
</a>
</g>
</g>
<!-- Node3&#45;&gt;Node66 -->
<g id="edge8" class="edge">
<title>Node3&#45;&gt;Node66</title>
<path fill="none" stroke="midnightblue" d="M166.01,-22.23C157.26,-20.11 147.7,-17.79 139.27,-15.75"/>
<polygon fill="midnightblue" stroke="midnightblue" points="165.25,-25.64 175.79,-24.59 166.9,-18.84 165.25,-25.64"/>
</g>
<!-- Node5 -->
<g id="node5" class="node">
<title>Node5</title>
<g id="a_node5"><a xlink:href="eigsolv_8f.html#a285ca4aa2354ca8584af31946d6761c2" target="_top" xlink:title=" ">
<polygon fill="white" stroke="red" points="0,-114.5 0,-133.5 53,-133.5 53,-114.5 0,-114.5"/>
<text text-anchor="middle" x="26.5" y="-121.5" font-family="Helvetica,sans-Serif" font-size="10.00">alpham1</text>
</a>
</g>
</g>
<!-- Node4&#45;&gt;Node5 -->
<g id="edge4" class="edge">
<title>Node4&#45;&gt;Node5</title>
<path fill="none" stroke="midnightblue" d="M96.54,-64.98C84.68,-76.61 68.27,-92.19 53,-105 49.19,-108.19 44.91,-111.49 40.96,-114.42"/>
<polygon fill="midnightblue" stroke="midnightblue" points="99.32,-67.16 103.97,-57.64 94.4,-62.18 99.32,-67.16"/>
</g>
<!-- Node16 -->
<g id="node6" class="node">
<title>Node16</title>
<g id="a_node6"><a xlink:href="perturb_8f.html#af07508f1eb200c9ae22de3620ae45d70" target="_top" xlink:title=" ">
<polygon fill="white" stroke="red" points="1.5,-76.5 1.5,-95.5 51.5,-95.5 51.5,-76.5 1.5,-76.5"/>
<text text-anchor="middle" x="26.5" y="-83.5" font-family="Helvetica,sans-Serif" font-size="10.00">cdscalp</text>
</a>
</g>
</g>
<!-- Node4&#45;&gt;Node16 -->
<g id="edge5" class="edge">
<title>Node4&#45;&gt;Node16</title>
<path fill="none" stroke="midnightblue" d="M82.48,-61.71C71.45,-66.58 59.28,-71.96 49.19,-76.41"/>
<polygon fill="midnightblue" stroke="midnightblue" points="84.07,-64.83 91.8,-57.59 81.24,-58.43 84.07,-64.83"/>
</g>
<!-- Node18 -->
<g id="node7" class="node">
<title>Node18</title>
<g id="a_node7"><a xlink:href="navier1_8f.html#aec24385a47394ac281dc04124fff7618" target="_top" xlink:title=" ">
<polygon fill="white" stroke="red" points="6,-38.5 6,-57.5 47,-57.5 47,-38.5 6,-38.5"/>
<text text-anchor="middle" x="26.5" y="-45.5" font-family="Helvetica,sans-Serif" font-size="10.00">eprec</text>
</a>
</g>
</g>
<!-- Node4&#45;&gt;Node18 -->
<g id="edge6" class="edge">
<title>Node4&#45;&gt;Node18</title>
<path fill="none" stroke="midnightblue" d="M78.31,-48C67.67,-48 56.37,-48 47.13,-48"/>
<polygon fill="midnightblue" stroke="midnightblue" points="78.63,-51.5 88.63,-48 78.63,-44.5 78.63,-51.5"/>
</g>
<!-- Node43 -->
<g id="node8" class="node">
<title>Node43</title>
<g id="a_node8"><a xlink:href="navier4_8f.html#a2c8eef885087bb1ef49c29a936b96918" target="_top" xlink:title=" ">
<polygon fill="white" stroke="red" points="4,-0.5 4,-19.5 49,-19.5 49,-0.5 4,-0.5"/>
<text text-anchor="middle" x="26.5" y="-7.5" font-family="Helvetica,sans-Serif" font-size="10.00">hsolve</text>
</a>
</g>
</g>
<!-- Node4&#45;&gt;Node43 -->
<g id="edge7" class="edge">
<title>Node4&#45;&gt;Node43</title>
<path fill="none" stroke="midnightblue" d="M82.48,-34.29C71.45,-29.42 59.28,-24.04 49.19,-19.59"/>
<polygon fill="midnightblue" stroke="midnightblue" points="81.24,-37.57 91.8,-38.41 84.07,-31.17 81.24,-37.57"/>
</g>
<!-- Node66&#45;&gt;Node43 -->
<g id="edge9" class="edge">
<title>Node66&#45;&gt;Node43</title>
<path fill="none" stroke="midnightblue" d="M79.33,-10C69.2,-10 58.39,-10 49.27,-10"/>
<polygon fill="midnightblue" stroke="midnightblue" points="79.54,-13.5 89.54,-10 79.54,-6.5 79.54,-13.5"/>
</g>
<!-- Node72&#45;&gt;Node3 -->
<g id="edge11" class="edge">
<title>Node72&#45;&gt;Node3</title>
<path fill="none" stroke="midnightblue" d="M241.89,-19.2C232.22,-21.27 222.46,-23.35 214.44,-25.06"/>
<polygon fill="midnightblue" stroke="midnightblue" points="242.81,-22.59 251.86,-17.07 241.35,-15.74 242.81,-22.59"/>
</g>
</g>
</svg>
