<?xml version="1.0" encoding="UTF-8" standalone="no"?>
<!DOCTYPE svg PUBLIC "-//W3C//DTD SVG 1.1//EN"
 "http://www.w3.org/Graphics/SVG/1.1/DTD/svg11.dtd">
<!-- Generated by graphviz version 2.46.0 (0)
 -->
<!-- Title: gs_local.c Pages: 1 -->
<svg width="428pt" height="140pt"
 viewBox="0.00 0.00 428.00 140.00" xmlns="http://www.w3.org/2000/svg" xmlns:xlink="http://www.w3.org/1999/xlink">
<g id="graph0" class="graph" transform="scale(1 1) rotate(0) translate(4 136)">
<title>gs_local.c</title>
<polygon fill="white" stroke="transparent" points="-4,4 -4,-136 424,-136 424,4 -4,4"/>
<!-- Node1 -->
<g id="node1" class="node">
<title>Node1</title>
<g id="a_node1"><a xlink:title=" ">
<polygon fill="#bfbfbf" stroke="black" points="158,-112.5 158,-131.5 219,-131.5 219,-112.5 158,-112.5"/>
<text text-anchor="middle" x="188.5" y="-119.5" font-family="Helvetica,sans-Serif" font-size="10.00">gs_local.c</text>
</a>
</g>
</g>
<!-- Node2 -->
<g id="node2" class="node">
<title>Node2</title>
<g id="a_node2"><a xlink:title=" ">
<polygon fill="white" stroke="#bfbfbf" points="0,-56.5 0,-75.5 49,-75.5 49,-56.5 0,-56.5"/>
<text text-anchor="middle" x="24.5" y="-63.5" font-family="Helvetica,sans-Serif" font-size="10.00">string.h</text>
</a>
</g>
</g>
<!-- Node1&#45;&gt;Node2 -->
<g id="edge1" class="edge">
<title>Node1&#45;&gt;Node2</title>
<path fill="none" stroke="midnightblue" d="M162.51,-112.44C134.4,-103.19 89.45,-88.39 58.53,-78.21"/>
<polygon fill="midnightblue" stroke="midnightblue" points="59.62,-74.88 49.03,-75.08 57.43,-81.53 59.62,-74.88"/>
</g>
<!-- Node3 -->
<g id="node3" class="node">
<title>Node3</title>
<g id="a_node3"><a xlink:title=" ">
<polygon fill="white" stroke="#bfbfbf" points="173.5,-0.5 173.5,-19.5 221.5,-19.5 221.5,-0.5 173.5,-0.5"/>
<text text-anchor="middle" x="197.5" y="-7.5" font-family="Helvetica,sans-Serif" font-size="10.00">limits.h</text>
</a>
</g>
</g>
<!-- Node1&#45;&gt;Node3 -->
<g id="edge2" class="edge">
<title>Node1&#45;&gt;Node3</title>
<path fill="none" stroke="midnightblue" d="M157.9,-113.27C124.63,-103.28 78.45,-83.8 96.5,-56 111.25,-33.28 140.43,-21.93 163.65,-16.33"/>
<polygon fill="midnightblue" stroke="midnightblue" points="164.46,-19.73 173.5,-14.2 162.98,-12.89 164.46,-19.73"/>
</g>
<!-- Node4 -->
<g id="node4" class="node">
<title>Node4</title>
<g id="a_node4"><a xlink:title=" ">
<polygon fill="white" stroke="#bfbfbf" points="105.5,-56.5 105.5,-75.5 149.5,-75.5 149.5,-56.5 105.5,-56.5"/>
<text text-anchor="middle" x="127.5" y="-63.5" font-family="Helvetica,sans-Serif" font-size="10.00">float.h</text>
</a>
</g>
</g>
<!-- Node1&#45;&gt;Node4 -->
<g id="edge3" class="edge">
<title>Node1&#45;&gt;Node4</title>
<path fill="none" stroke="midnightblue" d="M178.7,-112.32C169.68,-104.34 156.09,-92.31 145.18,-82.65"/>
<polygon fill="midnightblue" stroke="midnightblue" points="147.29,-79.84 137.48,-75.83 142.65,-85.08 147.29,-79.84"/>
</g>
<!-- Node5 -->
<g id="node5" class="node">
<title>Node5</title>
<g id="a_node5"><a xlink:href="gslib_2src_2c99_8h.html" target="_top" xlink:title=" ">
<polygon fill="white" stroke="black" points="168,-56.5 168,-75.5 209,-75.5 209,-56.5 168,-56.5"/>
<text text-anchor="middle" x="188.5" y="-63.5" font-family="Helvetica,sans-Serif" font-size="10.00">c99.h</text>
</a>
</g>
</g>
<!-- Node1&#45;&gt;Node5 -->
<g id="edge4" class="edge">
<title>Node1&#45;&gt;Node5</title>
<path fill="none" stroke="midnightblue" d="M188.5,-112.08C188.5,-105.01 188.5,-94.86 188.5,-85.99"/>
<polygon fill="midnightblue" stroke="midnightblue" points="192,-85.75 188.5,-75.75 185,-85.75 192,-85.75"/>
</g>
<!-- Node6 -->
<g id="node6" class="node">
<title>Node6</title>
<g id="a_node6"><a xlink:href="3rd__party_2gslib_2gslib_2src_2name_8h.html" target="_top" xlink:title=" ">
<polygon fill="white" stroke="black" points="227,-56.5 227,-75.5 276,-75.5 276,-56.5 227,-56.5"/>
<text text-anchor="middle" x="251.5" y="-63.5" font-family="Helvetica,sans-Serif" font-size="10.00">name.h</text>
</a>
</g>
</g>
<!-- Node1&#45;&gt;Node6 -->
<g id="edge5" class="edge">
<title>Node1&#45;&gt;Node6</title>
<path fill="none" stroke="midnightblue" d="M198.62,-112.32C208.03,-104.26 222.24,-92.08 233.57,-82.37"/>
<polygon fill="midnightblue" stroke="midnightblue" points="235.88,-85 241.19,-75.83 231.32,-79.68 235.88,-85"/>
</g>
<!-- Node7 -->
<g id="node7" class="node">
<title>Node7</title>
<g id="a_node7"><a xlink:href="gslib_2src_2types_8h.html" target="_top" xlink:title=" ">
<polygon fill="white" stroke="black" points="294,-56.5 294,-75.5 343,-75.5 343,-56.5 294,-56.5"/>
<text text-anchor="middle" x="318.5" y="-63.5" font-family="Helvetica,sans-Serif" font-size="10.00">types.h</text>
</a>
</g>
</g>
<!-- Node1&#45;&gt;Node7 -->
<g id="edge6" class="edge">
<title>Node1&#45;&gt;Node7</title>
<path fill="none" stroke="midnightblue" d="M209.1,-112.44C230.49,-103.56 264.18,-89.56 288.52,-79.45"/>
<polygon fill="midnightblue" stroke="midnightblue" points="290.11,-82.58 298,-75.52 287.42,-76.12 290.11,-82.58"/>
</g>
<!-- Node8 -->
<g id="node8" class="node">
<title>Node8</title>
<g id="a_node8"><a xlink:href="gslib_2src_2gs__defs_8h.html" target="_top" xlink:title=" ">
<polygon fill="white" stroke="black" points="361,-56.5 361,-75.5 420,-75.5 420,-56.5 361,-56.5"/>
<text text-anchor="middle" x="390.5" y="-63.5" font-family="Helvetica,sans-Serif" font-size="10.00">gs_defs.h</text>
</a>
</g>
</g>
<!-- Node1&#45;&gt;Node8 -->
<g id="edge8" class="edge">
<title>Node1&#45;&gt;Node8</title>
<path fill="none" stroke="midnightblue" d="M219.18,-112.8C254.44,-103.37 312.39,-87.88 350.99,-77.56"/>
<polygon fill="midnightblue" stroke="midnightblue" points="352.09,-80.89 360.85,-74.93 350.29,-74.13 352.09,-80.89"/>
</g>
<!-- Node7&#45;&gt;Node3 -->
<g id="edge7" class="edge">
<title>Node7&#45;&gt;Node3</title>
<path fill="none" stroke="midnightblue" d="M299.33,-56.44C279.59,-47.64 248.61,-33.81 226.01,-23.72"/>
<polygon fill="midnightblue" stroke="midnightblue" points="227.14,-20.4 216.58,-19.52 224.29,-26.79 227.14,-20.4"/>
</g>
</g>
</svg>
