<?xml version="1.0" encoding="UTF-8" standalone="no"?>
<!DOCTYPE svg PUBLIC "-//W3C//DTD SVG 1.1//EN"
 "http://www.w3.org/Graphics/SVG/1.1/DTD/svg11.dtd">
<!-- Generated by graphviz version 2.46.0 (0)
 -->
<!-- Title: comm.h Pages: 1 -->
<svg width="560pt" height="84pt"
 viewBox="0.00 0.00 559.50 84.00" xmlns="http://www.w3.org/2000/svg" xmlns:xlink="http://www.w3.org/1999/xlink">
<g id="graph0" class="graph" transform="scale(1 1) rotate(0) translate(4 80)">
<title>comm.h</title>
<polygon fill="white" stroke="transparent" points="-4,4 -4,-80 555.5,-80 555.5,4 -4,4"/>
<!-- Node1 -->
<g id="node1" class="node">
<title>Node1</title>
<g id="a_node1"><a xlink:title=" ">
<polygon fill="#bfbfbf" stroke="black" points="238,-56.5 238,-75.5 290,-75.5 290,-56.5 238,-56.5"/>
<text text-anchor="middle" x="264" y="-63.5" font-family="Helvetica,sans-Serif" font-size="10.00">comm.h</text>
</a>
</g>
</g>
<!-- Node2 -->
<g id="node2" class="node">
<title>Node2</title>
<g id="a_node2"><a xlink:href="comm_8c.html" target="_top" xlink:title=" ">
<polygon fill="white" stroke="black" points="0,-0.5 0,-19.5 52,-19.5 52,-0.5 0,-0.5"/>
<text text-anchor="middle" x="26" y="-7.5" font-family="Helvetica,sans-Serif" font-size="10.00">comm.c</text>
</a>
</g>
</g>
<!-- Node1&#45;&gt;Node2 -->
<g id="edge1" class="edge">
<title>Node1&#45;&gt;Node2</title>
<path fill="none" stroke="midnightblue" d="M228.01,-57.4C187.37,-48.74 119.29,-33.95 61,-20 58.19,-19.33 55.27,-18.61 52.35,-17.88"/>
<polygon fill="midnightblue" stroke="midnightblue" points="227.47,-60.87 237.98,-59.52 228.93,-54.02 227.47,-60.87"/>
</g>
<!-- Node3 -->
<g id="node3" class="node">
<title>Node3</title>
<g id="a_node3"><a xlink:href="crystal_8c.html" target="_top" xlink:title=" ">
<polygon fill="white" stroke="black" points="70,-0.5 70,-19.5 124,-19.5 124,-0.5 70,-0.5"/>
<text text-anchor="middle" x="97" y="-7.5" font-family="Helvetica,sans-Serif" font-size="10.00">crystal.c</text>
</a>
</g>
</g>
<!-- Node1&#45;&gt;Node3 -->
<g id="edge2" class="edge">
<title>Node1&#45;&gt;Node3</title>
<path fill="none" stroke="midnightblue" d="M228.21,-53.43C196.77,-43.26 151.75,-28.7 123.46,-19.56"/>
<polygon fill="midnightblue" stroke="midnightblue" points="227.31,-56.82 237.91,-56.56 229.47,-50.16 227.31,-56.82"/>
</g>
<!-- Node4 -->
<g id="node4" class="node">
<title>Node4</title>
<g id="a_node4"><a xlink:href="fail_8c.html" target="_top" xlink:title=" ">
<polygon fill="white" stroke="black" points="142,-0.5 142,-19.5 180,-19.5 180,-0.5 142,-0.5"/>
<text text-anchor="middle" x="161" y="-7.5" font-family="Helvetica,sans-Serif" font-size="10.00">fail.c</text>
</a>
</g>
</g>
<!-- Node1&#45;&gt;Node4 -->
<g id="edge3" class="edge">
<title>Node1&#45;&gt;Node4</title>
<path fill="none" stroke="midnightblue" d="M238.42,-51.59C219.38,-41.61 193.94,-28.27 177.51,-19.65"/>
<polygon fill="midnightblue" stroke="midnightblue" points="236.97,-54.78 247.45,-56.32 240.22,-48.58 236.97,-54.78"/>
</g>
<!-- Node5 -->
<g id="node5" class="node">
<title>Node5</title>
<g id="a_node5"><a xlink:href="fcrystal_8c.html" target="_top" xlink:title=" ">
<polygon fill="white" stroke="black" points="198.5,-0.5 198.5,-19.5 255.5,-19.5 255.5,-0.5 198.5,-0.5"/>
<text text-anchor="middle" x="227" y="-7.5" font-family="Helvetica,sans-Serif" font-size="10.00">fcrystal.c</text>
</a>
</g>
</g>
<!-- Node1&#45;&gt;Node5 -->
<g id="edge4" class="edge">
<title>Node1&#45;&gt;Node5</title>
<path fill="none" stroke="midnightblue" d="M252.05,-47.57C245.69,-38.27 238.13,-27.25 233,-19.75"/>
<polygon fill="midnightblue" stroke="midnightblue" points="249.35,-49.81 257.89,-56.08 255.13,-45.86 249.35,-49.81"/>
</g>
<!-- Node6 -->
<g id="node6" class="node">
<title>Node6</title>
<g id="a_node6"><a xlink:href="findpts_8c.html" target="_top" xlink:title=" ">
<polygon fill="white" stroke="black" points="274,-0.5 274,-19.5 328,-19.5 328,-0.5 274,-0.5"/>
<text text-anchor="middle" x="301" y="-7.5" font-family="Helvetica,sans-Serif" font-size="10.00">findpts.c</text>
</a>
</g>
</g>
<!-- Node1&#45;&gt;Node6 -->
<g id="edge5" class="edge">
<title>Node1&#45;&gt;Node6</title>
<path fill="none" stroke="midnightblue" d="M275.95,-47.57C282.31,-38.27 289.87,-27.25 295,-19.75"/>
<polygon fill="midnightblue" stroke="midnightblue" points="272.87,-45.86 270.11,-56.08 278.65,-49.81 272.87,-45.86"/>
</g>
<!-- Node7 -->
<g id="node7" class="node">
<title>Node7</title>
<g id="a_node7"><a xlink:href="gs_8c.html" target="_top" xlink:title=" ">
<polygon fill="white" stroke="black" points="346.5,-0.5 346.5,-19.5 381.5,-19.5 381.5,-0.5 346.5,-0.5"/>
<text text-anchor="middle" x="364" y="-7.5" font-family="Helvetica,sans-Serif" font-size="10.00">gs.c</text>
</a>
</g>
</g>
<!-- Node1&#45;&gt;Node7 -->
<g id="edge6" class="edge">
<title>Node1&#45;&gt;Node7</title>
<path fill="none" stroke="midnightblue" d="M289.09,-51.45C307.55,-41.48 332.1,-28.23 347.97,-19.65"/>
<polygon fill="midnightblue" stroke="midnightblue" points="287.2,-48.49 280.07,-56.32 290.53,-54.65 287.2,-48.49"/>
</g>
<!-- Node8 -->
<g id="node8" class="node">
<title>Node8</title>
<g id="a_node8"><a xlink:href="gslib_2src_2gslib_8h.html" target="_top" xlink:title=" ">
<polygon fill="white" stroke="black" points="399.5,-0.5 399.5,-19.5 444.5,-19.5 444.5,-0.5 399.5,-0.5"/>
<text text-anchor="middle" x="422" y="-7.5" font-family="Helvetica,sans-Serif" font-size="10.00">gslib.h</text>
</a>
</g>
</g>
<!-- Node1&#45;&gt;Node8 -->
<g id="edge7" class="edge">
<title>Node1&#45;&gt;Node8</title>
<path fill="none" stroke="midnightblue" d="M298.88,-53.08C329.49,-42.62 373.12,-27.71 399.39,-18.73"/>
<polygon fill="midnightblue" stroke="midnightblue" points="297.37,-49.9 289.04,-56.44 299.63,-56.52 297.37,-49.9"/>
</g>
<!-- Node9 -->
<g id="node9" class="node">
<title>Node9</title>
<g id="a_node9"><a xlink:href="sarray__transfer_8c.html" target="_top" xlink:title=" ">
<polygon fill="white" stroke="black" points="462.5,-0.5 462.5,-19.5 551.5,-19.5 551.5,-0.5 462.5,-0.5"/>
<text text-anchor="middle" x="507" y="-7.5" font-family="Helvetica,sans-Serif" font-size="10.00">sarray_transfer.c</text>
</a>
</g>
</g>
<!-- Node1&#45;&gt;Node9 -->
<g id="edge8" class="edge">
<title>Node1&#45;&gt;Node9</title>
<path fill="none" stroke="midnightblue" d="M299.94,-57.01C345.05,-46.99 422.13,-29.86 468.45,-19.57"/>
<polygon fill="midnightblue" stroke="midnightblue" points="299.01,-53.64 290.01,-59.22 300.53,-60.47 299.01,-53.64"/>
</g>
</g>
</svg>
