<?xml version="1.0" encoding="UTF-8" standalone="no"?>
<!DOCTYPE svg PUBLIC "-//W3C//DTD SVG 1.1//EN"
 "http://www.w3.org/Graphics/SVG/1.1/DTD/svg11.dtd">
<!-- Generated by graphviz version 2.46.0 (0)
 -->
<!-- Title: gs_defs.h Pages: 1 -->
<svg width="328pt" height="84pt"
 viewBox="0.00 0.00 327.50 84.00" xmlns="http://www.w3.org/2000/svg" xmlns:xlink="http://www.w3.org/1999/xlink">
<g id="graph0" class="graph" transform="scale(1 1) rotate(0) translate(4 80)">
<title>gs_defs.h</title>
<polygon fill="white" stroke="transparent" points="-4,4 -4,-80 323.5,-80 323.5,4 -4,4"/>
<!-- Node1 -->
<g id="node1" class="node">
<title>Node1</title>
<g id="a_node1"><a xlink:title=" ">
<polygon fill="#bfbfbf" stroke="black" points="130.5,-56.5 130.5,-75.5 189.5,-75.5 189.5,-56.5 130.5,-56.5"/>
<text text-anchor="middle" x="160" y="-63.5" font-family="Helvetica,sans-Serif" font-size="10.00">gs_defs.h</text>
</a>
</g>
</g>
<!-- Node2 -->
<g id="node2" class="node">
<title>Node2</title>
<g id="a_node2"><a xlink:href="comm_8c.html" target="_top" xlink:title=" ">
<polygon fill="white" stroke="black" points="0,-0.5 0,-19.5 52,-19.5 52,-0.5 0,-0.5"/>
<text text-anchor="middle" x="26" y="-7.5" font-family="Helvetica,sans-Serif" font-size="10.00">comm.c</text>
</a>
</g>
</g>
<!-- Node1&#45;&gt;Node2 -->
<g id="edge1" class="edge">
<title>Node1&#45;&gt;Node2</title>
<path fill="none" stroke="midnightblue" d="M129.32,-52.64C104.18,-42.5 69.25,-28.43 47.13,-19.52"/>
<polygon fill="midnightblue" stroke="midnightblue" points="128.18,-55.95 138.77,-56.44 130.8,-49.46 128.18,-55.95"/>
</g>
<!-- Node3 -->
<g id="node3" class="node">
<title>Node3</title>
<g id="a_node3"><a xlink:href="findpts_8c.html" target="_top" xlink:title=" ">
<polygon fill="white" stroke="black" points="70,-0.5 70,-19.5 124,-19.5 124,-0.5 70,-0.5"/>
<text text-anchor="middle" x="97" y="-7.5" font-family="Helvetica,sans-Serif" font-size="10.00">findpts.c</text>
</a>
</g>
</g>
<!-- Node1&#45;&gt;Node3 -->
<g id="edge2" class="edge">
<title>Node1&#45;&gt;Node3</title>
<path fill="none" stroke="midnightblue" d="M141.96,-49.54C130.73,-39.91 116.68,-27.87 107.31,-19.83"/>
<polygon fill="midnightblue" stroke="midnightblue" points="140.01,-52.47 149.88,-56.32 144.56,-47.16 140.01,-52.47"/>
</g>
<!-- Node4 -->
<g id="node4" class="node">
<title>Node4</title>
<g id="a_node4"><a xlink:href="gs_8c.html" target="_top" xlink:title=" ">
<polygon fill="white" stroke="black" points="142.5,-0.5 142.5,-19.5 177.5,-19.5 177.5,-0.5 142.5,-0.5"/>
<text text-anchor="middle" x="160" y="-7.5" font-family="Helvetica,sans-Serif" font-size="10.00">gs.c</text>
</a>
</g>
</g>
<!-- Node1&#45;&gt;Node4 -->
<g id="edge3" class="edge">
<title>Node1&#45;&gt;Node4</title>
<path fill="none" stroke="midnightblue" d="M160,-45.8C160,-36.91 160,-26.78 160,-19.75"/>
<polygon fill="midnightblue" stroke="midnightblue" points="156.5,-46.08 160,-56.08 163.5,-46.08 156.5,-46.08"/>
</g>
<!-- Node5 -->
<g id="node5" class="node">
<title>Node5</title>
<g id="a_node5"><a xlink:href="gs__local_8c.html" target="_top" xlink:title=" ">
<polygon fill="white" stroke="black" points="195.5,-0.5 195.5,-19.5 256.5,-19.5 256.5,-0.5 195.5,-0.5"/>
<text text-anchor="middle" x="226" y="-7.5" font-family="Helvetica,sans-Serif" font-size="10.00">gs_local.c</text>
</a>
</g>
</g>
<!-- Node1&#45;&gt;Node5 -->
<g id="edge4" class="edge">
<title>Node1&#45;&gt;Node5</title>
<path fill="none" stroke="midnightblue" d="M178.55,-49.82C190.38,-40.15 205.29,-27.95 215.2,-19.83"/>
<polygon fill="midnightblue" stroke="midnightblue" points="176.13,-47.28 170.6,-56.32 180.56,-52.7 176.13,-47.28"/>
</g>
<!-- Node6 -->
<g id="node6" class="node">
<title>Node6</title>
<g id="a_node6"><a xlink:href="gslib_2src_2gslib_8h.html" target="_top" xlink:title=" ">
<polygon fill="white" stroke="black" points="274.5,-0.5 274.5,-19.5 319.5,-19.5 319.5,-0.5 274.5,-0.5"/>
<text text-anchor="middle" x="297" y="-7.5" font-family="Helvetica,sans-Serif" font-size="10.00">gslib.h</text>
</a>
</g>
</g>
<!-- Node1&#45;&gt;Node6 -->
<g id="edge5" class="edge">
<title>Node1&#45;&gt;Node6</title>
<path fill="none" stroke="midnightblue" d="M191.02,-52.77C216.76,-42.63 252.69,-28.47 275.39,-19.52"/>
<polygon fill="midnightblue" stroke="midnightblue" points="189.73,-49.52 181.71,-56.44 192.29,-56.03 189.73,-49.52"/>
</g>
</g>
</svg>
