<?xml version="1.0" encoding="UTF-8" standalone="no"?>
<!DOCTYPE svg PUBLIC "-//W3C//DTD SVG 1.1//EN"
 "http://www.w3.org/Graphics/SVG/1.1/DTD/svg11.dtd">
<!-- Generated by graphviz version 2.46.0 (0)
 -->
<!-- Title: vlsc32 Pages: 1 -->
<svg width="308pt" height="218pt"
 viewBox="0.00 0.00 308.00 218.00" xmlns="http://www.w3.org/2000/svg" xmlns:xlink="http://www.w3.org/1999/xlink">
<g id="graph0" class="graph" transform="scale(1 1) rotate(0) translate(4 214)">
<title>vlsc32</title>
<polygon fill="white" stroke="transparent" points="-4,4 -4,-214 304,-214 304,4 -4,4"/>
<!-- Node1 -->
<g id="node1" class="node">
<title>Node1</title>
<g id="a_node1"><a xlink:title=" ">
<polygon fill="#bfbfbf" stroke="black" points="255,-38.5 255,-57.5 300,-57.5 300,-38.5 255,-38.5"/>
<text text-anchor="middle" x="277.5" y="-45.5" font-family="Helvetica,sans-Serif" font-size="10.00">vlsc32</text>
</a>
</g>
</g>
<!-- Node2 -->
<g id="node2" class="node">
<title>Node2</title>
<g id="a_node2"><a xlink:href="hmholtz_8f.html#a8734f3cc2d37d6a2ccd1daa8db57513d" target="_top" xlink:title=" ">
<polygon fill="white" stroke="black" points="181,-38.5 181,-57.5 219,-57.5 219,-38.5 181,-38.5"/>
<text text-anchor="middle" x="200" y="-45.5" font-family="Helvetica,sans-Serif" font-size="10.00">cggo</text>
</a>
</g>
</g>
<!-- Node1&#45;&gt;Node2 -->
<g id="edge1" class="edge">
<title>Node1&#45;&gt;Node2</title>
<path fill="none" stroke="midnightblue" d="M244.55,-48C235.99,-48 227.03,-48 219.47,-48"/>
<polygon fill="midnightblue" stroke="midnightblue" points="244.66,-51.5 254.66,-48 244.66,-44.5 244.66,-51.5"/>
</g>
<!-- Node3 -->
<g id="node3" class="node">
<title>Node3</title>
<g id="a_node3"><a xlink:href="hmholtz_8f.html#a52dcac1fe733719d4987d36aac022e4d" target="_top" xlink:title=" ">
<polygon fill="white" stroke="red" points="94,-76.5 94,-95.5 145,-95.5 145,-76.5 94,-76.5"/>
<text text-anchor="middle" x="119.5" y="-83.5" font-family="Helvetica,sans-Serif" font-size="10.00">hmholtz</text>
</a>
</g>
</g>
<!-- Node2&#45;&gt;Node3 -->
<g id="edge2" class="edge">
<title>Node2&#45;&gt;Node3</title>
<path fill="none" stroke="midnightblue" d="M171.72,-61.2C161.37,-66.22 149.79,-71.82 140.26,-76.44"/>
<polygon fill="midnightblue" stroke="midnightblue" points="173.32,-64.32 180.79,-56.81 170.27,-58.02 173.32,-64.32"/>
</g>
<!-- Node65 -->
<g id="node10" class="node">
<title>Node65</title>
<g id="a_node10"><a xlink:href="navier4_8f.html#abff3f3a3a3b301fbd3e883cb30d2d967" target="_top" xlink:title=" ">
<polygon fill="white" stroke="red" points="95,-19.5 95,-38.5 144,-38.5 144,-19.5 95,-19.5"/>
<text text-anchor="middle" x="119.5" y="-26.5" font-family="Helvetica,sans-Serif" font-size="10.00">hmhzpf</text>
</a>
</g>
</g>
<!-- Node2&#45;&gt;Node65 -->
<g id="edge9" class="edge">
<title>Node2&#45;&gt;Node65</title>
<path fill="none" stroke="midnightblue" d="M171.01,-41.23C162.26,-39.11 152.7,-36.79 144.27,-34.75"/>
<polygon fill="midnightblue" stroke="midnightblue" points="170.25,-44.64 180.79,-43.59 171.9,-37.84 170.25,-44.64"/>
</g>
<!-- Node4 -->
<g id="node4" class="node">
<title>Node4</title>
<g id="a_node4"><a xlink:href="eigsolv_8f.html#a285ca4aa2354ca8584af31946d6761c2" target="_top" xlink:title=" ">
<polygon fill="white" stroke="red" points="2.5,-190.5 2.5,-209.5 55.5,-209.5 55.5,-190.5 2.5,-190.5"/>
<text text-anchor="middle" x="29" y="-197.5" font-family="Helvetica,sans-Serif" font-size="10.00">alpham1</text>
</a>
</g>
</g>
<!-- Node3&#45;&gt;Node4 -->
<g id="edge3" class="edge">
<title>Node3&#45;&gt;Node4</title>
<path fill="none" stroke="midnightblue" d="M109.54,-104.67C99.14,-125.04 80.49,-157.84 58,-181 54.64,-184.46 50.56,-187.65 46.57,-190.39"/>
<polygon fill="midnightblue" stroke="midnightblue" points="112.78,-106.02 114.09,-95.51 106.51,-102.91 112.78,-106.02"/>
</g>
<!-- Node15 -->
<g id="node5" class="node">
<title>Node15</title>
<g id="a_node5"><a xlink:href="perturb_8f.html#af07508f1eb200c9ae22de3620ae45d70" target="_top" xlink:title=" ">
<polygon fill="white" stroke="red" points="4,-152.5 4,-171.5 54,-171.5 54,-152.5 4,-152.5"/>
<text text-anchor="middle" x="29" y="-159.5" font-family="Helvetica,sans-Serif" font-size="10.00">cdscalp</text>
</a>
</g>
</g>
<!-- Node3&#45;&gt;Node15 -->
<g id="edge4" class="edge">
<title>Node3&#45;&gt;Node15</title>
<path fill="none" stroke="midnightblue" d="M101.72,-103.19C89.93,-114.92 73.55,-130.53 58,-143 53.97,-146.23 49.4,-149.49 45.14,-152.37"/>
<polygon fill="midnightblue" stroke="midnightblue" points="104.52,-105.34 109.08,-95.78 99.55,-100.41 104.52,-105.34"/>
</g>
<!-- Node17 -->
<g id="node6" class="node">
<title>Node17</title>
<g id="a_node6"><a xlink:href="navier1_8f.html#aec24385a47394ac281dc04124fff7618" target="_top" xlink:title=" ">
<polygon fill="white" stroke="red" points="8.5,-114.5 8.5,-133.5 49.5,-133.5 49.5,-114.5 8.5,-114.5"/>
<text text-anchor="middle" x="29" y="-121.5" font-family="Helvetica,sans-Serif" font-size="10.00">eprec</text>
</a>
</g>
</g>
<!-- Node3&#45;&gt;Node17 -->
<g id="edge5" class="edge">
<title>Node3&#45;&gt;Node17</title>
<path fill="none" stroke="midnightblue" d="M86.63,-99.68C74.26,-105 60.48,-110.91 49.61,-115.58"/>
<polygon fill="midnightblue" stroke="midnightblue" points="88.36,-102.75 96.17,-95.59 85.6,-96.32 88.36,-102.75"/>
</g>
<!-- Node42 -->
<g id="node7" class="node">
<title>Node42</title>
<g id="a_node7"><a xlink:href="navier4_8f.html#a2c8eef885087bb1ef49c29a936b96918" target="_top" xlink:title=" ">
<polygon fill="white" stroke="red" points="6.5,-0.5 6.5,-19.5 51.5,-19.5 51.5,-0.5 6.5,-0.5"/>
<text text-anchor="middle" x="29" y="-7.5" font-family="Helvetica,sans-Serif" font-size="10.00">hsolve</text>
</a>
</g>
</g>
<!-- Node3&#45;&gt;Node42 -->
<g id="edge6" class="edge">
<title>Node3&#45;&gt;Node42</title>
<path fill="none" stroke="midnightblue" d="M101.72,-68.81C89.93,-57.08 73.55,-41.47 58,-29 53.97,-25.77 49.4,-22.51 45.14,-19.63"/>
<polygon fill="midnightblue" stroke="midnightblue" points="99.55,-71.59 109.08,-76.22 104.52,-66.66 99.55,-71.59"/>
</g>
<!-- Node61 -->
<g id="node8" class="node">
<title>Node61</title>
<g id="a_node8"><a xlink:href="drive2_8f.html#ab51ca8fa0065dc484f18189df4727349" target="_top" xlink:title=" ">
<polygon fill="white" stroke="black" points="0,-76.5 0,-95.5 58,-95.5 58,-76.5 0,-76.5"/>
<text text-anchor="middle" x="29" y="-83.5" font-family="Helvetica,sans-Serif" font-size="10.00">plan2_vol</text>
</a>
</g>
</g>
<!-- Node3&#45;&gt;Node61 -->
<g id="edge7" class="edge">
<title>Node3&#45;&gt;Node61</title>
<path fill="none" stroke="midnightblue" d="M83.84,-86C75.37,-86 66.4,-86 58.27,-86"/>
<polygon fill="midnightblue" stroke="midnightblue" points="83.85,-89.5 93.85,-86 83.85,-82.5 83.85,-89.5"/>
</g>
<!-- Node63 -->
<g id="node9" class="node">
<title>Node63</title>
<g id="a_node9"><a xlink:href="drive2_8f.html#afe26dea455fd7088135bf58cb3df9f6d" target="_top" xlink:title=" ">
<polygon fill="white" stroke="red" points="0,-38.5 0,-57.5 58,-57.5 58,-38.5 0,-38.5"/>
<text text-anchor="middle" x="29" y="-45.5" font-family="Helvetica,sans-Serif" font-size="10.00">plan4_vol</text>
</a>
</g>
</g>
<!-- Node3&#45;&gt;Node63 -->
<g id="edge8" class="edge">
<title>Node3&#45;&gt;Node63</title>
<path fill="none" stroke="midnightblue" d="M86.92,-72.44C75.48,-67.53 62.81,-62.09 52.33,-57.59"/>
<polygon fill="midnightblue" stroke="midnightblue" points="85.6,-75.68 96.17,-76.41 88.36,-69.25 85.6,-75.68"/>
</g>
<!-- Node65&#45;&gt;Node42 -->
<g id="edge10" class="edge">
<title>Node65&#45;&gt;Node42</title>
<path fill="none" stroke="midnightblue" d="M84.91,-21.79C73.76,-19.4 61.66,-16.8 51.66,-14.65"/>
<polygon fill="midnightblue" stroke="midnightblue" points="84.27,-25.23 94.78,-23.91 85.74,-18.39 84.27,-25.23"/>
</g>
</g>
</svg>
