<?xml version="1.0" encoding="UTF-8" standalone="no"?>
<!DOCTYPE svg PUBLIC "-//W3C//DTD SVG 1.1//EN"
 "http://www.w3.org/Graphics/SVG/1.1/DTD/svg11.dtd">
<!-- Generated by graphviz version 2.46.0 (0)
 -->
<!-- Title: setprec_dg Pages: 1 -->
<svg width="443pt" height="142pt"
 viewBox="0.00 0.00 443.00 142.00" xmlns="http://www.w3.org/2000/svg" xmlns:xlink="http://www.w3.org/1999/xlink">
<g id="graph0" class="graph" transform="scale(1 1) rotate(0) translate(4 138)">
<title>setprec_dg</title>
<polygon fill="white" stroke="transparent" points="-4,4 -4,-138 439,-138 439,4 -4,4"/>
<!-- Node1 -->
<g id="node1" class="node">
<title>Node1</title>
<g id="a_node1"><a xlink:title=" ">
<polygon fill="#bfbfbf" stroke="black" points="370,-76.5 370,-95.5 435,-95.5 435,-76.5 370,-76.5"/>
<text text-anchor="middle" x="402.5" y="-83.5" font-family="Helvetica,sans-Serif" font-size="10.00">setprec_dg</text>
</a>
</g>
</g>
<!-- Node2 -->
<g id="node2" class="node">
<title>Node2</title>
<g id="a_node2"><a xlink:href="hmholtz_8f.html#aac309b94595d1abf629fb77f234557fc" target="_top" xlink:title=" ">
<polygon fill="white" stroke="black" points="281,-76.5 281,-95.5 334,-95.5 334,-76.5 281,-76.5"/>
<text text-anchor="middle" x="307.5" y="-83.5" font-family="Helvetica,sans-Serif" font-size="10.00">cggo_dg</text>
</a>
</g>
</g>
<!-- Node1&#45;&gt;Node2 -->
<g id="edge1" class="edge">
<title>Node1&#45;&gt;Node2</title>
<path fill="none" stroke="midnightblue" d="M359.74,-86C351.06,-86 342.15,-86 334.25,-86"/>
<polygon fill="midnightblue" stroke="midnightblue" points="359.75,-89.5 369.75,-86 359.75,-82.5 359.75,-89.5"/>
</g>
<!-- Node3 -->
<g id="node3" class="node">
<title>Node3</title>
<g id="a_node3"><a xlink:href="hmholtz_8f.html#ab52baffba790c148592c7b40c62861ca" target="_top" xlink:title=" ">
<polygon fill="white" stroke="black" points="178,-104.5 178,-123.5 245,-123.5 245,-104.5 178,-104.5"/>
<text text-anchor="middle" x="211.5" y="-111.5" font-family="Helvetica,sans-Serif" font-size="10.00">hmholtz_dg</text>
</a>
</g>
</g>
<!-- Node2&#45;&gt;Node3 -->
<g id="edge2" class="edge">
<title>Node2&#45;&gt;Node3</title>
<path fill="none" stroke="midnightblue" d="M270.96,-96.59C262.28,-99.17 253.04,-101.92 244.54,-104.46"/>
<polygon fill="midnightblue" stroke="midnightblue" points="272.23,-99.86 280.81,-93.65 270.23,-93.15 272.23,-99.86"/>
</g>
<!-- Node18 -->
<g id="node6" class="node">
<title>Node18</title>
<g id="a_node6"><a xlink:href="navier4_8f.html#abff3f3a3a3b301fbd3e883cb30d2d967" target="_top" xlink:title=" ">
<polygon fill="white" stroke="black" points="187,-57.5 187,-76.5 236,-76.5 236,-57.5 187,-57.5"/>
<text text-anchor="middle" x="211.5" y="-64.5" font-family="Helvetica,sans-Serif" font-size="10.00">hmhzpf</text>
</a>
</g>
</g>
<!-- Node2&#45;&gt;Node18 -->
<g id="edge5" class="edge">
<title>Node2&#45;&gt;Node18</title>
<path fill="none" stroke="midnightblue" d="M270.95,-78.81C259.34,-76.47 246.74,-73.92 236.22,-71.79"/>
<polygon fill="midnightblue" stroke="midnightblue" points="270.32,-82.26 280.81,-80.81 271.71,-75.4 270.32,-82.26"/>
</g>
<!-- Node4 -->
<g id="node4" class="node">
<title>Node4</title>
<g id="a_node4"><a xlink:href="conduct_8f.html#abc0953779481a8cff2666b1d0878c50c" target="_top" xlink:title=" ">
<polygon fill="white" stroke="black" points="81,-114.5 81,-133.5 142,-133.5 142,-114.5 81,-114.5"/>
<text text-anchor="middle" x="111.5" y="-121.5" font-family="Helvetica,sans-Serif" font-size="10.00">cdscal_dg</text>
</a>
</g>
</g>
<!-- Node3&#45;&gt;Node4 -->
<g id="edge3" class="edge">
<title>Node3&#45;&gt;Node4</title>
<path fill="none" stroke="midnightblue" d="M167.84,-118.35C159.13,-119.24 150.15,-120.16 142.02,-120.99"/>
<polygon fill="midnightblue" stroke="midnightblue" points="168.27,-121.83 177.87,-117.33 167.56,-114.86 168.27,-121.83"/>
</g>
<!-- Node5 -->
<g id="node5" class="node">
<title>Node5</title>
<g id="a_node5"><a xlink:href="conduct_8f.html#a74a7f053381975ed36df8ea959f3aa01" target="_top" xlink:title=" ">
<polygon fill="white" stroke="red" points="0,-114.5 0,-133.5 45,-133.5 45,-114.5 0,-114.5"/>
<text text-anchor="middle" x="22.5" y="-121.5" font-family="Helvetica,sans-Serif" font-size="10.00">cdscal</text>
</a>
</g>
</g>
<!-- Node4&#45;&gt;Node5 -->
<g id="edge4" class="edge">
<title>Node4&#45;&gt;Node5</title>
<path fill="none" stroke="midnightblue" d="M70.52,-124C61.82,-124 52.93,-124 45.25,-124"/>
<polygon fill="midnightblue" stroke="midnightblue" points="70.56,-127.5 80.56,-124 70.56,-120.5 70.56,-127.5"/>
</g>
<!-- Node19 -->
<g id="node7" class="node">
<title>Node19</title>
<g id="a_node7"><a xlink:href="navier4_8f.html#a2c8eef885087bb1ef49c29a936b96918" target="_top" xlink:title=" ">
<polygon fill="white" stroke="red" points="89,-76.5 89,-95.5 134,-95.5 134,-76.5 89,-76.5"/>
<text text-anchor="middle" x="111.5" y="-83.5" font-family="Helvetica,sans-Serif" font-size="10.00">hsolve</text>
</a>
</g>
</g>
<!-- Node18&#45;&gt;Node19 -->
<g id="edge6" class="edge">
<title>Node18&#45;&gt;Node19</title>
<path fill="none" stroke="midnightblue" d="M176.93,-73.51C162.84,-76.24 146.85,-79.34 134.33,-81.77"/>
<polygon fill="midnightblue" stroke="midnightblue" points="177.63,-76.94 186.78,-71.6 176.29,-70.07 177.63,-76.94"/>
</g>
<!-- Node62 -->
<g id="node9" class="node">
<title>Node62</title>
<g id="a_node9"><a xlink:href="meshsmoother_8f.html#a715c42ef301242c75f9ff6cbafe8b538" target="_top" xlink:title=" ">
<polygon fill="white" stroke="red" points="85,-38.5 85,-57.5 138,-57.5 138,-38.5 85,-38.5"/>
<text text-anchor="middle" x="111.5" y="-45.5" font-family="Helvetica,sans-Serif" font-size="10.00">laplaceh</text>
</a>
</g>
</g>
<!-- Node18&#45;&gt;Node62 -->
<g id="edge9" class="edge">
<title>Node18&#45;&gt;Node62</title>
<path fill="none" stroke="midnightblue" d="M176.59,-60.43C163.95,-57.98 149.83,-55.24 138.06,-52.96"/>
<polygon fill="midnightblue" stroke="midnightblue" points="176.29,-63.93 186.78,-62.4 177.63,-57.06 176.29,-63.93"/>
</g>
<!-- Node66 -->
<g id="node10" class="node">
<title>Node66</title>
<g id="a_node10"><a xlink:href="navier4_8f.html#a33e8c6704782f68ea31e02c93acbe495" target="_top" xlink:title=" ">
<polygon fill="white" stroke="black" points="85,-0.5 85,-19.5 138,-19.5 138,-0.5 85,-0.5"/>
<text text-anchor="middle" x="111.5" y="-7.5" font-family="Helvetica,sans-Serif" font-size="10.00">laplacep</text>
</a>
</g>
</g>
<!-- Node18&#45;&gt;Node66 -->
<g id="edge10" class="edge">
<title>Node18&#45;&gt;Node66</title>
<path fill="none" stroke="midnightblue" d="M185.16,-52.26C167.42,-41.95 144.23,-28.46 128.88,-19.53"/>
<polygon fill="midnightblue" stroke="midnightblue" points="183.47,-55.33 193.88,-57.33 186.99,-49.28 183.47,-55.33"/>
</g>
<!-- Node19&#45;&gt;Node5 -->
<g id="edge7" class="edge">
<title>Node19&#45;&gt;Node5</title>
<path fill="none" stroke="midnightblue" d="M79.75,-99.43C68.28,-104.44 55.52,-110.01 45.06,-114.58"/>
<polygon fill="midnightblue" stroke="midnightblue" points="81.23,-102.6 88.99,-95.39 78.43,-96.19 81.23,-102.6"/>
</g>
<!-- Node20 -->
<g id="node8" class="node">
<title>Node20</title>
<g id="a_node8"><a xlink:href="induct_8f.html#a1a8a16f24236d6e6f08fe4d60cb29d01" target="_top" xlink:title=" ">
<polygon fill="white" stroke="red" points="0,-76.5 0,-95.5 45,-95.5 45,-76.5 0,-76.5"/>
<text text-anchor="middle" x="22.5" y="-83.5" font-family="Helvetica,sans-Serif" font-size="10.00">ophinv</text>
</a>
</g>
</g>
<!-- Node19&#45;&gt;Node20 -->
<g id="edge8" class="edge">
<title>Node19&#45;&gt;Node20</title>
<path fill="none" stroke="midnightblue" d="M78.71,-86C67.52,-86 55.21,-86 45.06,-86"/>
<polygon fill="midnightblue" stroke="midnightblue" points="78.99,-89.5 88.99,-86 78.99,-82.5 78.99,-89.5"/>
</g>
</g>
</svg>
