<?xml version="1.0" encoding="UTF-8" standalone="no"?>
<!DOCTYPE svg PUBLIC "-//W3C//DTD SVG 1.1//EN"
 "http://www.w3.org/Graphics/SVG/1.1/DTD/svg11.dtd">
<!-- Generated by graphviz version 2.46.0 (0)
 -->
<!-- Title: setfast Pages: 1 -->
<svg width="310pt" height="273pt"
 viewBox="0.00 0.00 310.00 272.98" xmlns="http://www.w3.org/2000/svg" xmlns:xlink="http://www.w3.org/1999/xlink">
<g id="graph0" class="graph" transform="scale(1 1) rotate(0) translate(4 268.98)">
<title>setfast</title>
<polygon fill="white" stroke="transparent" points="-4,4 -4,-268.98 306,-268.98 306,4 -4,4"/>
<!-- Node1 -->
<g id="node1" class="node">
<title>Node1</title>
<g id="a_node1"><a xlink:title=" ">
<polygon fill="#bfbfbf" stroke="black" points="255,-94.5 255,-113.5 302,-113.5 302,-94.5 255,-94.5"/>
<text text-anchor="middle" x="278.5" y="-101.5" font-family="Helvetica,sans-Serif" font-size="10.00">setfast</text>
</a>
</g>
</g>
<!-- Node2 -->
<g id="node2" class="node">
<title>Node2</title>
<g id="a_node2"><a xlink:href="hmholtz_8f.html#aa576b5bd623cce50fd6323db12ba5376" target="_top" xlink:title=" ">
<polygon fill="white" stroke="red" points="171,-109.5 171,-128.5 219,-128.5 219,-109.5 171,-109.5"/>
<text text-anchor="middle" x="195" y="-116.5" font-family="Helvetica,sans-Serif" font-size="10.00">axhelm</text>
</a>
</g>
</g>
<!-- Node1&#45;&gt;Node2 -->
<g id="edge1" class="edge">
<title>Node1&#45;&gt;Node2</title>
<path fill="none" stroke="midnightblue" d="M244.7,-110.04C236.14,-111.61 227.09,-113.28 219.15,-114.74"/>
<polygon fill="midnightblue" stroke="midnightblue" points="245.6,-113.43 254.8,-108.18 244.33,-106.55 245.6,-113.43"/>
</g>
<!-- Node76 -->
<g id="node6" class="node">
<title>Node76</title>
<g id="a_node6"><a xlink:href="subs1_8f.html#a47a832cdc015115f79e23f5f6d33324c" target="_top" xlink:title=" ">
<polygon fill="white" stroke="red" points="84,-38.5 84,-57.5 133,-57.5 133,-38.5 84,-38.5"/>
<text text-anchor="middle" x="108.5" y="-45.5" font-family="Helvetica,sans-Serif" font-size="10.00">axhmsf</text>
</a>
</g>
</g>
<!-- Node1&#45;&gt;Node76 -->
<g id="edge10" class="edge">
<title>Node1&#45;&gt;Node76</title>
<path fill="none" stroke="midnightblue" d="M245.26,-93.25C212.47,-82.32 162.44,-65.65 133.15,-55.88"/>
<polygon fill="midnightblue" stroke="midnightblue" points="244.25,-96.61 254.84,-96.45 246.46,-89.96 244.25,-96.61"/>
</g>
<!-- Node81 -->
<g id="node7" class="node">
<title>Node81</title>
<g id="a_node7"><a xlink:href="subs1_8f.html#afbde33b8466b90206f1fa13b3800b7d5" target="_top" xlink:title=" ">
<polygon fill="white" stroke="red" points="0,-152.5 0,-171.5 46,-171.5 46,-152.5 0,-152.5"/>
<text text-anchor="middle" x="23" y="-159.5" font-family="Helvetica,sans-Serif" font-size="10.00">cggosf</text>
</a>
</g>
</g>
<!-- Node1&#45;&gt;Node81 -->
<g id="edge12" class="edge">
<title>Node1&#45;&gt;Node81</title>
<path fill="none" stroke="midnightblue" d="M267.23,-122.67C247.13,-157 198.92,-229.18 135,-257 113.4,-266.4 102.54,-268.53 82,-257 48.63,-238.28 32.18,-191.69 26.44,-171.54"/>
<polygon fill="midnightblue" stroke="midnightblue" points="270.44,-124.11 272.35,-113.69 264.36,-120.64 270.44,-124.11"/>
</g>
<!-- Node17 -->
<g id="node10" class="node">
<title>Node17</title>
<g id="a_node10"><a xlink:href="hmholtz_8f.html#a8734f3cc2d37d6a2ccd1daa8db57513d" target="_top" xlink:title=" ">
<polygon fill="white" stroke="red" points="89.5,-0.5 89.5,-19.5 127.5,-19.5 127.5,-0.5 89.5,-0.5"/>
<text text-anchor="middle" x="108.5" y="-7.5" font-family="Helvetica,sans-Serif" font-size="10.00">cggo</text>
</a>
</g>
</g>
<!-- Node1&#45;&gt;Node17 -->
<g id="edge11" class="edge">
<title>Node1&#45;&gt;Node17</title>
<path fill="none" stroke="midnightblue" d="M255.46,-88.38C244.67,-80.97 231.37,-72.19 219,-65 187.74,-46.82 149.71,-28.53 127.69,-18.3"/>
<polygon fill="midnightblue" stroke="midnightblue" points="253.65,-91.38 263.86,-94.21 257.64,-85.63 253.65,-91.38"/>
</g>
<!-- Node3 -->
<g id="node3" class="node">
<title>Node3</title>
<g id="a_node3"><a xlink:href="drive2_8f.html#afc5b69dac59659be9b32a5650649c3d2" target="_top" xlink:title=" ">
<polygon fill="white" stroke="black" points="85.5,-76.5 85.5,-95.5 131.5,-95.5 131.5,-76.5 85.5,-76.5"/>
<text text-anchor="middle" x="108.5" y="-83.5" font-family="Helvetica,sans-Serif" font-size="10.00">a_dmp</text>
</a>
</g>
</g>
<!-- Node2&#45;&gt;Node3 -->
<g id="edge2" class="edge">
<title>Node2&#45;&gt;Node3</title>
<path fill="none" stroke="midnightblue" d="M161.33,-106.24C151.41,-102.37 140.75,-98.2 131.69,-94.66"/>
<polygon fill="midnightblue" stroke="midnightblue" points="160.32,-109.6 170.91,-109.98 162.87,-103.08 160.32,-109.6"/>
</g>
<!-- Node4 -->
<g id="node4" class="node">
<title>Node4</title>
<g id="a_node4"><a xlink:href="eigsolv_8f.html#a285ca4aa2354ca8584af31946d6761c2" target="_top" xlink:title=" ">
<polygon fill="white" stroke="red" points="82,-228.5 82,-247.5 135,-247.5 135,-228.5 82,-228.5"/>
<text text-anchor="middle" x="108.5" y="-235.5" font-family="Helvetica,sans-Serif" font-size="10.00">alpham1</text>
</a>
</g>
</g>
<!-- Node2&#45;&gt;Node4 -->
<g id="edge3" class="edge">
<title>Node2&#45;&gt;Node4</title>
<path fill="none" stroke="midnightblue" d="M185.67,-137.88C175.69,-159.15 157.45,-194 135,-219 131.9,-222.45 128.09,-225.68 124.37,-228.47"/>
<polygon fill="midnightblue" stroke="midnightblue" points="188.92,-139.19 189.89,-128.64 182.55,-136.28 188.92,-139.19"/>
</g>
<!-- Node15 -->
<g id="node5" class="node">
<title>Node15</title>
<g id="a_node5"><a xlink:href="gmres_8f.html#abb09784e907975584f1a8f4dbf282a79" target="_top" xlink:title=" ">
<polygon fill="white" stroke="red" points="94,-190.5 94,-209.5 123,-209.5 123,-190.5 94,-190.5"/>
<text text-anchor="middle" x="108.5" y="-197.5" font-family="Helvetica,sans-Serif" font-size="10.00">ax</text>
</a>
</g>
</g>
<!-- Node2&#45;&gt;Node15 -->
<g id="edge4" class="edge">
<title>Node2&#45;&gt;Node15</title>
<path fill="none" stroke="midnightblue" d="M178.89,-136.41C167.39,-149.28 150.87,-166.93 135,-181 131.28,-184.3 127.03,-187.62 123.07,-190.55"/>
<polygon fill="midnightblue" stroke="midnightblue" points="181.68,-138.54 185.67,-128.73 176.43,-133.91 181.68,-138.54"/>
</g>
<!-- Node2&#45;&gt;Node76 -->
<g id="edge5" class="edge">
<title>Node2&#45;&gt;Node76</title>
<path fill="none" stroke="midnightblue" d="M175.73,-102.2C164.24,-91.82 148.99,-78.35 135,-67 131.14,-63.87 126.84,-60.59 122.89,-57.66"/>
<polygon fill="midnightblue" stroke="midnightblue" points="173.6,-105 183.36,-109.14 178.32,-99.82 173.6,-105"/>
</g>
<!-- Node47 -->
<g id="node8" class="node">
<title>Node47</title>
<g id="a_node8"><a xlink:href="conduct_8f.html#a74a7f053381975ed36df8ea959f3aa01" target="_top" xlink:title=" ">
<polygon fill="white" stroke="red" points="86,-152.5 86,-171.5 131,-171.5 131,-152.5 86,-152.5"/>
<text text-anchor="middle" x="108.5" y="-159.5" font-family="Helvetica,sans-Serif" font-size="10.00">cdscal</text>
</a>
</g>
</g>
<!-- Node2&#45;&gt;Node47 -->
<g id="edge7" class="edge">
<title>Node2&#45;&gt;Node47</title>
<path fill="none" stroke="midnightblue" d="M166.17,-133.16C153.71,-139.5 139.35,-146.81 128.2,-152.48"/>
<polygon fill="midnightblue" stroke="midnightblue" points="167.92,-136.2 175.25,-128.54 164.75,-129.96 167.92,-136.2"/>
</g>
<!-- Node19 -->
<g id="node9" class="node">
<title>Node19</title>
<g id="a_node9"><a xlink:href="perturb_8f.html#af07508f1eb200c9ae22de3620ae45d70" target="_top" xlink:title=" ">
<polygon fill="white" stroke="red" points="83.5,-114.5 83.5,-133.5 133.5,-133.5 133.5,-114.5 83.5,-114.5"/>
<text text-anchor="middle" x="108.5" y="-121.5" font-family="Helvetica,sans-Serif" font-size="10.00">cdscalp</text>
</a>
</g>
</g>
<!-- Node2&#45;&gt;Node19 -->
<g id="edge8" class="edge">
<title>Node2&#45;&gt;Node19</title>
<path fill="none" stroke="midnightblue" d="M160.71,-120.97C151.71,-121.5 142.14,-122.07 133.74,-122.57"/>
<polygon fill="midnightblue" stroke="midnightblue" points="161.13,-124.45 170.91,-120.37 160.72,-117.46 161.13,-124.45"/>
</g>
<!-- Node2&#45;&gt;Node17 -->
<g id="edge9" class="edge">
<title>Node2&#45;&gt;Node17</title>
<path fill="none" stroke="midnightblue" d="M184.33,-100.35C173.82,-81.15 155.72,-51.01 135,-29 131.82,-25.62 127.98,-22.42 124.26,-19.63"/>
<polygon fill="midnightblue" stroke="midnightblue" points="181.31,-102.12 189.11,-109.29 187.48,-98.82 181.31,-102.12"/>
</g>
<!-- Node76&#45;&gt;Node81 -->
<g id="edge6" class="edge">
<title>Node76&#45;&gt;Node81</title>
<path fill="none" stroke="midnightblue" d="M84.78,-64.16C83.81,-65.09 82.88,-66.04 82,-67 57,-94.42 36.88,-134.15 28.38,-152.3"/>
<polygon fill="midnightblue" stroke="midnightblue" points="87.24,-66.67 92.67,-57.56 82.75,-61.3 87.24,-66.67"/>
</g>
</g>
</svg>
