<?xml version="1.0" encoding="UTF-8" standalone="no"?>
<!DOCTYPE svg PUBLIC "-//W3C//DTD SVG 1.1//EN"
 "http://www.w3.org/Graphics/SVG/1.1/DTD/svg11.dtd">
<!-- Generated by graphviz version 2.46.0 (0)
 -->
<!-- Title: gradrta Pages: 1 -->
<svg width="302pt" height="256pt"
 viewBox="0.00 0.00 302.00 256.00" xmlns="http://www.w3.org/2000/svg" xmlns:xlink="http://www.w3.org/1999/xlink">
<g id="graph0" class="graph" transform="scale(1 1) rotate(0) translate(4 252)">
<title>gradrta</title>
<polygon fill="white" stroke="transparent" points="-4,4 -4,-252 298,-252 298,4 -4,4"/>
<!-- Node1 -->
<g id="node1" class="node">
<title>Node1</title>
<g id="a_node1"><a xlink:title=" ">
<polygon fill="#bfbfbf" stroke="black" points="0,-114.5 0,-133.5 47,-133.5 47,-114.5 0,-114.5"/>
<text text-anchor="middle" x="23.5" y="-121.5" font-family="Helvetica,sans-Serif" font-size="10.00">gradrta</text>
</a>
</g>
</g>
<!-- Node2 -->
<g id="node2" class="node">
<title>Node2</title>
<g id="a_node2"><a xlink:href="mxm__std_8f.html#ae33ac60f7ec020bf0ba6dc6bdf5238a2" target="_top" xlink:title=" ">
<polygon fill="white" stroke="black" points="83,-114.5 83,-133.5 127,-133.5 127,-114.5 83,-114.5"/>
<text text-anchor="middle" x="105" y="-121.5" font-family="Helvetica,sans-Serif" font-size="10.00">mxma</text>
</a>
</g>
</g>
<!-- Node1&#45;&gt;Node2 -->
<g id="edge1" class="edge">
<title>Node1&#45;&gt;Node2</title>
<path fill="none" stroke="midnightblue" d="M47.07,-124C55.03,-124 64.13,-124 72.69,-124"/>
<polygon fill="midnightblue" stroke="midnightblue" points="72.74,-127.5 82.74,-124 72.74,-120.5 72.74,-127.5"/>
</g>
<!-- Node3 -->
<g id="node3" class="node">
<title>Node3</title>
<g id="a_node3"><a xlink:href="mxm__std_8f.html#af267ddc935ab2d76d9e0efa327771000" target="_top" xlink:title=" ">
<polygon fill="white" stroke="red" points="163,-114.5 163,-133.5 212,-133.5 212,-114.5 163,-114.5"/>
<text text-anchor="middle" x="187.5" y="-121.5" font-family="Helvetica,sans-Serif" font-size="10.00">mxma2</text>
</a>
</g>
</g>
<!-- Node2&#45;&gt;Node3 -->
<g id="edge2" class="edge">
<title>Node2&#45;&gt;Node3</title>
<path fill="none" stroke="midnightblue" d="M127.15,-124C134.97,-124 144.03,-124 152.69,-124"/>
<polygon fill="midnightblue" stroke="midnightblue" points="152.94,-127.5 162.94,-124 152.94,-120.5 152.94,-127.5"/>
</g>
<!-- Node4 -->
<g id="node4" class="node">
<title>Node4</title>
<g id="a_node4"><a xlink:href="mxm__std_8f.html#a7d9ddd6590e8c57f255893e7c776788a" target="_top" xlink:title=" ">
<polygon fill="white" stroke="black" points="250.5,-228.5 250.5,-247.5 291.5,-247.5 291.5,-228.5 250.5,-228.5"/>
<text text-anchor="middle" x="271" y="-235.5" font-family="Helvetica,sans-Serif" font-size="10.00">mxa1</text>
</a>
</g>
</g>
<!-- Node3&#45;&gt;Node4 -->
<g id="edge3" class="edge">
<title>Node3&#45;&gt;Node4</title>
<path fill="none" stroke="midnightblue" d="M193.24,-133.53C202.37,-151.38 223.67,-190.64 248,-219 248.6,-219.7 249.23,-220.4 249.88,-221.1"/>
<polygon fill="midnightblue" stroke="midnightblue" points="247.63,-223.79 257.29,-228.15 252.46,-218.72 247.63,-223.79"/>
</g>
<!-- Node5 -->
<g id="node5" class="node">
<title>Node5</title>
<g id="a_node5"><a xlink:href="mxm__std_8f.html#a828acef1f513811503a9b095dbe0514e" target="_top" xlink:title=" ">
<polygon fill="white" stroke="black" points="248,-190.5 248,-209.5 294,-209.5 294,-190.5 248,-190.5"/>
<text text-anchor="middle" x="271" y="-197.5" font-family="Helvetica,sans-Serif" font-size="10.00">mxa10</text>
</a>
</g>
</g>
<!-- Node3&#45;&gt;Node5 -->
<g id="edge4" class="edge">
<title>Node3&#45;&gt;Node5</title>
<path fill="none" stroke="midnightblue" d="M198.46,-133.84C210.15,-145.33 230.22,-164.83 248,-181 248.97,-181.88 249.96,-182.77 250.97,-183.67"/>
<polygon fill="midnightblue" stroke="midnightblue" points="248.88,-186.49 258.71,-190.44 253.49,-181.23 248.88,-186.49"/>
</g>
<!-- Node6 -->
<g id="node6" class="node">
<title>Node6</title>
<g id="a_node6"><a xlink:href="mxm__std_8f.html#a271c03425756948a0eb6e50aca52a339" target="_top" xlink:title=" ">
<polygon fill="white" stroke="black" points="248,-152.5 248,-171.5 294,-171.5 294,-152.5 248,-152.5"/>
<text text-anchor="middle" x="271" y="-159.5" font-family="Helvetica,sans-Serif" font-size="10.00">mxa11</text>
</a>
</g>
</g>
<!-- Node3&#45;&gt;Node6 -->
<g id="edge5" class="edge">
<title>Node3&#45;&gt;Node6</title>
<path fill="none" stroke="midnightblue" d="M209.07,-133.59C218.53,-138 229.93,-143.31 240.29,-148.15"/>
<polygon fill="midnightblue" stroke="midnightblue" points="238.9,-151.36 249.44,-152.41 241.86,-145.02 238.9,-151.36"/>
</g>
<!-- Node7 -->
<g id="node7" class="node">
<title>Node7</title>
<g id="a_node7"><a xlink:href="mxm__std_8f.html#a25a2fc4d14e328b870459ab75cc3d3e0" target="_top" xlink:title=" ">
<polygon fill="white" stroke="black" points="248,-114.5 248,-133.5 294,-133.5 294,-114.5 248,-114.5"/>
<text text-anchor="middle" x="271" y="-121.5" font-family="Helvetica,sans-Serif" font-size="10.00">mxa12</text>
</a>
</g>
</g>
<!-- Node3&#45;&gt;Node7 -->
<g id="edge6" class="edge">
<title>Node3&#45;&gt;Node7</title>
<path fill="none" stroke="midnightblue" d="M212.07,-124C220.09,-124 229.2,-124 237.78,-124"/>
<polygon fill="midnightblue" stroke="midnightblue" points="237.88,-127.5 247.88,-124 237.88,-120.5 237.88,-127.5"/>
</g>
<!-- Node8 -->
<g id="node8" class="node">
<title>Node8</title>
<g id="a_node8"><a xlink:href="mxm__std_8f.html#af7ddc7e00c815cb7726a644426ff2a4b" target="_top" xlink:title=" ">
<polygon fill="white" stroke="black" points="248,-76.5 248,-95.5 294,-95.5 294,-76.5 248,-76.5"/>
<text text-anchor="middle" x="271" y="-83.5" font-family="Helvetica,sans-Serif" font-size="10.00">mxa13</text>
</a>
</g>
</g>
<!-- Node3&#45;&gt;Node8 -->
<g id="edge7" class="edge">
<title>Node3&#45;&gt;Node8</title>
<path fill="none" stroke="midnightblue" d="M209.07,-114.41C218.53,-110 229.93,-104.69 240.29,-99.85"/>
<polygon fill="midnightblue" stroke="midnightblue" points="241.86,-102.98 249.44,-95.59 238.9,-96.64 241.86,-102.98"/>
</g>
<!-- Node9 -->
<g id="node9" class="node">
<title>Node9</title>
<g id="a_node9"><a xlink:href="mxm__std_8f.html#a21cf6ac55a539933193683b91866cc45" target="_top" xlink:title=" ">
<polygon fill="white" stroke="black" points="248,-38.5 248,-57.5 294,-57.5 294,-38.5 248,-38.5"/>
<text text-anchor="middle" x="271" y="-45.5" font-family="Helvetica,sans-Serif" font-size="10.00">mxa14</text>
</a>
</g>
</g>
<!-- Node3&#45;&gt;Node9 -->
<g id="edge8" class="edge">
<title>Node3&#45;&gt;Node9</title>
<path fill="none" stroke="midnightblue" d="M198.46,-114.16C210.15,-102.67 230.22,-83.17 248,-67 248.97,-66.12 249.96,-65.23 250.97,-64.33"/>
<polygon fill="midnightblue" stroke="midnightblue" points="253.49,-66.77 258.71,-57.56 248.88,-61.51 253.49,-66.77"/>
</g>
<!-- Node10 -->
<g id="node10" class="node">
<title>Node10</title>
<g id="a_node10"><a xlink:href="mxm__std_8f.html#ade05da81266500a8ee485a1651f2a017" target="_top" xlink:title=" ">
<polygon fill="white" stroke="black" points="248,-0.5 248,-19.5 294,-19.5 294,-0.5 248,-0.5"/>
<text text-anchor="middle" x="271" y="-7.5" font-family="Helvetica,sans-Serif" font-size="10.00">mxa15</text>
</a>
</g>
</g>
<!-- Node3&#45;&gt;Node10 -->
<g id="edge9" class="edge">
<title>Node3&#45;&gt;Node10</title>
<path fill="none" stroke="midnightblue" d="M193.24,-114.47C202.37,-96.62 223.67,-57.36 248,-29 248.6,-28.3 249.23,-27.6 249.88,-26.9"/>
<polygon fill="midnightblue" stroke="midnightblue" points="252.46,-29.28 257.29,-19.85 247.63,-24.21 252.46,-29.28"/>
</g>
</g>
</svg>
