<?xml version="1.0" encoding="UTF-8" standalone="no"?>
<!DOCTYPE svg PUBLIC "-//W3C//DTD SVG 1.1//EN"
 "http://www.w3.org/Graphics/SVG/1.1/DTD/svg11.dtd">
<!-- Generated by graphviz version 2.46.0 (0)
 -->
<!-- Title: sfastax Pages: 1 -->
<svg width="357pt" height="294pt"
 viewBox="0.00 0.00 357.00 294.00" xmlns="http://www.w3.org/2000/svg" xmlns:xlink="http://www.w3.org/1999/xlink">
<g id="graph0" class="graph" transform="scale(1 1) rotate(0) translate(4 290)">
<title>sfastax</title>
<polygon fill="white" stroke="transparent" points="-4,4 -4,-290 353,-290 353,4 -4,4"/>
<!-- Node1 -->
<g id="node1" class="node">
<title>Node1</title>
<g id="a_node1"><a xlink:title=" ">
<polygon fill="#bfbfbf" stroke="black" points="300,-95.5 300,-114.5 349,-114.5 349,-95.5 300,-95.5"/>
<text text-anchor="middle" x="324.5" y="-102.5" font-family="Helvetica,sans-Serif" font-size="10.00">sfastax</text>
</a>
</g>
</g>
<!-- Node2 -->
<g id="node2" class="node">
<title>Node2</title>
<g id="a_node2"><a xlink:href="drive2_8f.html#aefc07385d7e7539fb57662470f694136" target="_top" xlink:title=" ">
<polygon fill="white" stroke="black" points="202,-171.5 202,-190.5 258,-190.5 258,-171.5 202,-171.5"/>
<text text-anchor="middle" x="230" y="-178.5" font-family="Helvetica,sans-Serif" font-size="10.00">gengeom</text>
</a>
</g>
</g>
<!-- Node1&#45;&gt;Node2 -->
<g id="edge1" class="edge">
<title>Node1&#45;&gt;Node2</title>
<path fill="none" stroke="midnightblue" d="M303.93,-121.08C285.34,-136.35 258,-158.82 242.62,-171.45"/>
<polygon fill="midnightblue" stroke="midnightblue" points="306.28,-123.68 311.78,-114.63 301.84,-118.27 306.28,-123.68"/>
</g>
<!-- Node16 -->
<g id="node8" class="node">
<title>Node16</title>
<g id="a_node8"><a xlink:href="ic_8f.html#aaf47b255d1cfac3451a8473ee6876b4f" target="_top" xlink:title=" ">
<polygon fill="white" stroke="red" points="196,-57.5 196,-76.5 264,-76.5 264,-57.5 196,-57.5"/>
<text text-anchor="middle" x="230" y="-64.5" font-family="Helvetica,sans-Serif" font-size="10.00">geom_reset</text>
</a>
</g>
</g>
<!-- Node1&#45;&gt;Node16 -->
<g id="edge7" class="edge">
<title>Node1&#45;&gt;Node16</title>
<path fill="none" stroke="midnightblue" d="M290.85,-91.59C278.8,-86.64 265.4,-81.13 254.33,-76.59"/>
<polygon fill="midnightblue" stroke="midnightblue" points="289.58,-94.85 300.16,-95.41 292.24,-88.37 289.58,-94.85"/>
</g>
<!-- Node3 -->
<g id="node3" class="node">
<title>Node3</title>
<g id="a_node3"><a xlink:href="plan5_8f.html#a1f0ec8c2c9023166a911daec72f90239" target="_top" xlink:title=" ">
<polygon fill="white" stroke="red" points="92,-266.5 92,-285.5 154,-285.5 154,-266.5 92,-266.5"/>
<text text-anchor="middle" x="123" y="-273.5" font-family="Helvetica,sans-Serif" font-size="10.00">adv_geom</text>
</a>
</g>
</g>
<!-- Node2&#45;&gt;Node3 -->
<g id="edge2" class="edge">
<title>Node2&#45;&gt;Node3</title>
<path fill="none" stroke="midnightblue" d="M215.51,-199.17C202.59,-215.7 181.86,-240.04 160,-257 155.53,-260.46 150.34,-263.62 145.32,-266.32"/>
<polygon fill="midnightblue" stroke="midnightblue" points="218.55,-200.95 221.85,-190.88 212.99,-196.7 218.55,-200.95"/>
</g>
<!-- Node7 -->
<g id="node4" class="node">
<title>Node7</title>
<g id="a_node4"><a xlink:href="ssolv_8f.html#a4bb42a5afabbba8c6518d83cbe481c17" target="_top" xlink:title=" ">
<polygon fill="white" stroke="black" points="97.5,-228.5 97.5,-247.5 148.5,-247.5 148.5,-228.5 97.5,-228.5"/>
<text text-anchor="middle" x="123" y="-235.5" font-family="Helvetica,sans-Serif" font-size="10.00">go1step</text>
</a>
</g>
</g>
<!-- Node2&#45;&gt;Node7 -->
<g id="edge3" class="edge">
<title>Node2&#45;&gt;Node7</title>
<path fill="none" stroke="midnightblue" d="M202.94,-195.49C190.05,-202.63 174.24,-211.32 160,-219 154.28,-222.09 148.02,-225.41 142.35,-228.4"/>
<polygon fill="midnightblue" stroke="midnightblue" points="204.7,-198.52 211.75,-190.61 201.31,-192.4 204.7,-198.52"/>
</g>
<!-- Node8 -->
<g id="node5" class="node">
<title>Node8</title>
<g id="a_node5"><a xlink:href="ssolv_8f.html#a2de8913c214fa083dcb088c57bd45272" target="_top" xlink:title=" ">
<polygon fill="white" stroke="red" points="100,-190.5 100,-209.5 146,-209.5 146,-190.5 100,-190.5"/>
<text text-anchor="middle" x="123" y="-197.5" font-family="Helvetica,sans-Serif" font-size="10.00">gostep</text>
</a>
</g>
</g>
<!-- Node2&#45;&gt;Node8 -->
<g id="edge4" class="edge">
<title>Node2&#45;&gt;Node8</title>
<path fill="none" stroke="midnightblue" d="M191.74,-187.74C176.43,-190.51 159.24,-193.62 146,-196.02"/>
<polygon fill="midnightblue" stroke="midnightblue" points="192.74,-191.12 201.96,-185.89 191.5,-184.23 192.74,-191.12"/>
</g>
<!-- Node10 -->
<g id="node6" class="node">
<title>Node10</title>
<g id="a_node6"><a xlink:href="drive1_8f.html#ae177ea7efac97f35241521b782a671c0" target="_top" xlink:title=" ">
<polygon fill="white" stroke="red" points="86,-152.5 86,-171.5 160,-171.5 160,-152.5 86,-152.5"/>
<text text-anchor="middle" x="123" y="-159.5" font-family="Helvetica,sans-Serif" font-size="10.00">nek_advance</text>
</a>
</g>
</g>
<!-- Node2&#45;&gt;Node10 -->
<g id="edge5" class="edge">
<title>Node2&#45;&gt;Node10</title>
<path fill="none" stroke="midnightblue" d="M191.96,-174.3C181.6,-172.42 170.36,-170.39 160.05,-168.52"/>
<polygon fill="midnightblue" stroke="midnightblue" points="191.5,-177.77 201.96,-176.11 192.74,-170.88 191.5,-177.77"/>
</g>
<!-- Node15 -->
<g id="node7" class="node">
<title>Node15</title>
<g id="a_node7"><a xlink:href="drive1_8f.html#a83f7c6d78ac4e68394f32533e847d0a3" target="_top" xlink:title=" ">
<polygon fill="white" stroke="red" points="0,-57.5 0,-76.5 50,-76.5 50,-57.5 0,-57.5"/>
<text text-anchor="middle" x="25" y="-64.5" font-family="Helvetica,sans-Serif" font-size="10.00">nek_init</text>
</a>
</g>
</g>
<!-- Node2&#45;&gt;Node15 -->
<g id="edge6" class="edge">
<title>Node2&#45;&gt;Node15</title>
<path fill="none" stroke="midnightblue" d="M203.21,-166.52C161.09,-142.87 78.66,-96.57 43.05,-76.58"/>
<polygon fill="midnightblue" stroke="midnightblue" points="201.61,-169.63 212.04,-171.48 205.04,-163.53 201.61,-169.63"/>
</g>
<!-- Node16&#45;&gt;Node15 -->
<g id="edge12" class="edge">
<title>Node16&#45;&gt;Node15</title>
<path fill="none" stroke="midnightblue" d="M185.87,-67C144.51,-67 83.57,-67 50.14,-67"/>
<polygon fill="midnightblue" stroke="midnightblue" points="185.93,-70.5 195.93,-67 185.93,-63.5 185.93,-70.5"/>
</g>
<!-- Node17 -->
<g id="node9" class="node">
<title>Node17</title>
<g id="a_node9"><a xlink:href="conduct_8f.html#a3b764ba6cf35187ac351c3072456c805" target="_top" xlink:title=" ">
<polygon fill="white" stroke="black" points="95,-38.5 95,-57.5 151,-57.5 151,-38.5 95,-38.5"/>
<text text-anchor="middle" x="123" y="-45.5" font-family="Helvetica,sans-Serif" font-size="10.00">dg_setup</text>
</a>
</g>
</g>
<!-- Node16&#45;&gt;Node17 -->
<g id="edge8" class="edge">
<title>Node16&#45;&gt;Node17</title>
<path fill="none" stroke="midnightblue" d="M185.69,-59.16C173.96,-57.04 161.59,-54.8 151.04,-52.89"/>
<polygon fill="midnightblue" stroke="midnightblue" points="185.31,-62.65 195.78,-60.99 186.56,-55.76 185.31,-62.65"/>
</g>
<!-- Node18 -->
<g id="node10" class="node">
<title>Node18</title>
<g id="a_node10"><a xlink:href="navier5_8f.html#ac7bf11bb142c7d01c82cc8b64e88bff2" target="_top" xlink:title=" ">
<polygon fill="white" stroke="red" points="95,-0.5 95,-19.5 151,-19.5 151,-0.5 95,-0.5"/>
<text text-anchor="middle" x="123" y="-7.5" font-family="Helvetica,sans-Serif" font-size="10.00">fix_geom</text>
</a>
</g>
</g>
<!-- Node16&#45;&gt;Node18 -->
<g id="edge10" class="edge">
<title>Node16&#45;&gt;Node18</title>
<path fill="none" stroke="midnightblue" d="M202.94,-52.51C190.05,-45.37 174.24,-36.68 160,-29 154.28,-25.91 148.02,-22.59 142.35,-19.6"/>
<polygon fill="midnightblue" stroke="midnightblue" points="201.31,-55.6 211.75,-57.39 204.7,-49.48 201.31,-55.6"/>
</g>
<!-- Node17&#45;&gt;Node15 -->
<g id="edge9" class="edge">
<title>Node17&#45;&gt;Node15</title>
<path fill="none" stroke="midnightblue" d="M84.8,-55.36C73.13,-57.67 60.56,-60.16 50.05,-62.24"/>
<polygon fill="midnightblue" stroke="midnightblue" points="85.62,-58.77 94.75,-53.39 84.26,-51.9 85.62,-58.77"/>
</g>
<!-- Node18&#45;&gt;Node15 -->
<g id="edge11" class="edge">
<title>Node18&#45;&gt;Node15</title>
<path fill="none" stroke="midnightblue" d="M94.28,-24.35C91.47,-25.89 88.67,-27.46 86,-29 70.21,-38.15 52.62,-49.42 40.6,-57.3"/>
<polygon fill="midnightblue" stroke="midnightblue" points="96,-27.39 103.16,-19.58 92.69,-21.22 96,-27.39"/>
</g>
</g>
</svg>
