<?xml version="1.0" encoding="UTF-8" standalone="no"?>
<!DOCTYPE svg PUBLIC "-//W3C//DTD SVG 1.1//EN"
 "http://www.w3.org/Graphics/SVG/1.1/DTD/svg11.dtd">
<!-- Generated by graphviz version 2.46.0 (0)
 -->
<!-- Title: setprec Pages: 1 -->
<svg width="315pt" height="180pt"
 viewBox="0.00 0.00 315.00 180.00" xmlns="http://www.w3.org/2000/svg" xmlns:xlink="http://www.w3.org/1999/xlink">
<g id="graph0" class="graph" transform="scale(1 1) rotate(0) translate(4 176)">
<title>setprec</title>
<polygon fill="white" stroke="transparent" points="-4,4 -4,-176 311,-176 311,4 -4,4"/>
<!-- Node1 -->
<g id="node1" class="node">
<title>Node1</title>
<g id="a_node1"><a xlink:title=" ">
<polygon fill="#bfbfbf" stroke="black" points="258,-19.5 258,-38.5 307,-38.5 307,-19.5 258,-19.5"/>
<text text-anchor="middle" x="282.5" y="-26.5" font-family="Helvetica,sans-Serif" font-size="10.00">setprec</text>
</a>
</g>
</g>
<!-- Node2 -->
<g id="node2" class="node">
<title>Node2</title>
<g id="a_node2"><a xlink:href="hmholtz_8f.html#a8734f3cc2d37d6a2ccd1daa8db57513d" target="_top" xlink:title=" ">
<polygon fill="white" stroke="black" points="180,-38.5 180,-57.5 218,-57.5 218,-38.5 180,-38.5"/>
<text text-anchor="middle" x="199" y="-45.5" font-family="Helvetica,sans-Serif" font-size="10.00">cggo</text>
</a>
</g>
</g>
<!-- Node1&#45;&gt;Node2 -->
<g id="edge1" class="edge">
<title>Node1&#45;&gt;Node2</title>
<path fill="none" stroke="midnightblue" d="M248,-36.81C237.76,-39.2 226.88,-41.73 218.08,-43.78"/>
<polygon fill="midnightblue" stroke="midnightblue" points="248.98,-40.17 257.93,-34.5 247.39,-33.36 248.98,-40.17"/>
</g>
<!-- Node71 -->
<g id="node9" class="node">
<title>Node71</title>
<g id="a_node9"><a xlink:href="subs1_8f.html#afbde33b8466b90206f1fa13b3800b7d5" target="_top" xlink:title=" ">
<polygon fill="white" stroke="black" points="176,-0.5 176,-19.5 222,-19.5 222,-0.5 176,-0.5"/>
<text text-anchor="middle" x="199" y="-7.5" font-family="Helvetica,sans-Serif" font-size="10.00">cggosf</text>
</a>
</g>
</g>
<!-- Node1&#45;&gt;Node71 -->
<g id="edge9" class="edge">
<title>Node1&#45;&gt;Node71</title>
<path fill="none" stroke="midnightblue" d="M248,-21.19C239.27,-19.16 230.09,-17.02 222.12,-15.16"/>
<polygon fill="midnightblue" stroke="midnightblue" points="247.39,-24.64 257.93,-23.5 248.98,-17.83 247.39,-24.64"/>
</g>
<!-- Node3 -->
<g id="node3" class="node">
<title>Node3</title>
<g id="a_node3"><a xlink:href="hmholtz_8f.html#a52dcac1fe733719d4987d36aac022e4d" target="_top" xlink:title=" ">
<polygon fill="white" stroke="red" points="89,-76.5 89,-95.5 140,-95.5 140,-76.5 89,-76.5"/>
<text text-anchor="middle" x="114.5" y="-83.5" font-family="Helvetica,sans-Serif" font-size="10.00">hmholtz</text>
</a>
</g>
</g>
<!-- Node2&#45;&gt;Node3 -->
<g id="edge2" class="edge">
<title>Node2&#45;&gt;Node3</title>
<path fill="none" stroke="midnightblue" d="M170.41,-60.71C159.3,-65.83 146.7,-71.63 136.37,-76.38"/>
<polygon fill="midnightblue" stroke="midnightblue" points="172.07,-63.8 179.69,-56.43 169.14,-57.44 172.07,-63.8"/>
</g>
<!-- Node65 -->
<g id="node8" class="node">
<title>Node65</title>
<g id="a_node8"><a xlink:href="navier4_8f.html#abff3f3a3a3b301fbd3e883cb30d2d967" target="_top" xlink:title=" ">
<polygon fill="white" stroke="red" points="90,-38.5 90,-57.5 139,-57.5 139,-38.5 90,-38.5"/>
<text text-anchor="middle" x="114.5" y="-45.5" font-family="Helvetica,sans-Serif" font-size="10.00">hmhzpf</text>
</a>
</g>
</g>
<!-- Node2&#45;&gt;Node65 -->
<g id="edge7" class="edge">
<title>Node2&#45;&gt;Node65</title>
<path fill="none" stroke="midnightblue" d="M169.48,-48C159.57,-48 148.56,-48 139.09,-48"/>
<polygon fill="midnightblue" stroke="midnightblue" points="169.69,-51.5 179.69,-48 169.69,-44.5 169.69,-51.5"/>
</g>
<!-- Node4 -->
<g id="node4" class="node">
<title>Node4</title>
<g id="a_node4"><a xlink:href="eigsolv_8f.html#a285ca4aa2354ca8584af31946d6761c2" target="_top" xlink:title=" ">
<polygon fill="white" stroke="red" points="0,-152.5 0,-171.5 53,-171.5 53,-152.5 0,-152.5"/>
<text text-anchor="middle" x="26.5" y="-159.5" font-family="Helvetica,sans-Serif" font-size="10.00">alpham1</text>
</a>
</g>
</g>
<!-- Node3&#45;&gt;Node4 -->
<g id="edge3" class="edge">
<title>Node3&#45;&gt;Node4</title>
<path fill="none" stroke="midnightblue" d="M96.54,-102.98C84.68,-114.61 68.27,-130.19 53,-143 49.19,-146.19 44.91,-149.49 40.96,-152.42"/>
<polygon fill="midnightblue" stroke="midnightblue" points="99.32,-105.16 103.97,-95.64 94.4,-100.18 99.32,-105.16"/>
</g>
<!-- Node15 -->
<g id="node5" class="node">
<title>Node15</title>
<g id="a_node5"><a xlink:href="perturb_8f.html#af07508f1eb200c9ae22de3620ae45d70" target="_top" xlink:title=" ">
<polygon fill="white" stroke="red" points="1.5,-114.5 1.5,-133.5 51.5,-133.5 51.5,-114.5 1.5,-114.5"/>
<text text-anchor="middle" x="26.5" y="-121.5" font-family="Helvetica,sans-Serif" font-size="10.00">cdscalp</text>
</a>
</g>
</g>
<!-- Node3&#45;&gt;Node15 -->
<g id="edge4" class="edge">
<title>Node3&#45;&gt;Node15</title>
<path fill="none" stroke="midnightblue" d="M82.48,-99.71C71.45,-104.58 59.28,-109.96 49.19,-114.41"/>
<polygon fill="midnightblue" stroke="midnightblue" points="84.07,-102.83 91.8,-95.59 81.24,-96.43 84.07,-102.83"/>
</g>
<!-- Node17 -->
<g id="node6" class="node">
<title>Node17</title>
<g id="a_node6"><a xlink:href="navier1_8f.html#aec24385a47394ac281dc04124fff7618" target="_top" xlink:title=" ">
<polygon fill="white" stroke="red" points="6,-76.5 6,-95.5 47,-95.5 47,-76.5 6,-76.5"/>
<text text-anchor="middle" x="26.5" y="-83.5" font-family="Helvetica,sans-Serif" font-size="10.00">eprec</text>
</a>
</g>
</g>
<!-- Node3&#45;&gt;Node17 -->
<g id="edge5" class="edge">
<title>Node3&#45;&gt;Node17</title>
<path fill="none" stroke="midnightblue" d="M78.31,-86C67.67,-86 56.37,-86 47.13,-86"/>
<polygon fill="midnightblue" stroke="midnightblue" points="78.63,-89.5 88.63,-86 78.63,-82.5 78.63,-89.5"/>
</g>
<!-- Node42 -->
<g id="node7" class="node">
<title>Node42</title>
<g id="a_node7"><a xlink:href="navier4_8f.html#a2c8eef885087bb1ef49c29a936b96918" target="_top" xlink:title=" ">
<polygon fill="white" stroke="red" points="4,-38.5 4,-57.5 49,-57.5 49,-38.5 4,-38.5"/>
<text text-anchor="middle" x="26.5" y="-45.5" font-family="Helvetica,sans-Serif" font-size="10.00">hsolve</text>
</a>
</g>
</g>
<!-- Node3&#45;&gt;Node42 -->
<g id="edge6" class="edge">
<title>Node3&#45;&gt;Node42</title>
<path fill="none" stroke="midnightblue" d="M82.48,-72.29C71.45,-67.42 59.28,-62.04 49.19,-57.59"/>
<polygon fill="midnightblue" stroke="midnightblue" points="81.24,-75.57 91.8,-76.41 84.07,-69.17 81.24,-75.57"/>
</g>
<!-- Node65&#45;&gt;Node42 -->
<g id="edge8" class="edge">
<title>Node65&#45;&gt;Node42</title>
<path fill="none" stroke="midnightblue" d="M79.33,-48C69.2,-48 58.39,-48 49.27,-48"/>
<polygon fill="midnightblue" stroke="midnightblue" points="79.54,-51.5 89.54,-48 79.54,-44.5 79.54,-51.5"/>
</g>
<!-- Node72 -->
<g id="node10" class="node">
<title>Node72</title>
<g id="a_node10"><a xlink:href="subs1_8f.html#aab6bde102bb9bd893cf1880c2d7746ad" target="_top" xlink:title=" ">
<polygon fill="white" stroke="red" points="90,-0.5 90,-19.5 139,-19.5 139,-0.5 90,-0.5"/>
<text text-anchor="middle" x="114.5" y="-7.5" font-family="Helvetica,sans-Serif" font-size="10.00">hmhzsf</text>
</a>
</g>
</g>
<!-- Node71&#45;&gt;Node72 -->
<g id="edge10" class="edge">
<title>Node71&#45;&gt;Node72</title>
<path fill="none" stroke="midnightblue" d="M165.82,-10C156.92,-10 147.43,-10 139.12,-10"/>
<polygon fill="midnightblue" stroke="midnightblue" points="165.89,-13.5 175.89,-10 165.89,-6.5 165.89,-13.5"/>
</g>
</g>
</svg>
