<?xml version="1.0" encoding="UTF-8" standalone="no"?>
<!DOCTYPE svg PUBLIC "-//W3C//DTD SVG 1.1//EN"
 "http://www.w3.org/Graphics/SVG/1.1/DTD/svg11.dtd">
<!-- Generated by graphviz version 2.46.0 (0)
 -->
<!-- Title: gradrta Pages: 1 -->
<!--zoomable 137 -->
<svg id="main" version="1.1" xmlns="http://www.w3.org/2000/svg" xmlns:xlink="http://www.w3.org/1999/xlink" xml:space="preserve" onload="init(evt)">
<style type="text/css"><![CDATA[
.edge:hover path { stroke: red; }
.edge:hover polygon { stroke: red; fill: red; }
]]></style>
<script type="text/javascript"><![CDATA[
var edges = document.getElementsByTagName('g');
if (edges && edges.length) {
  for (var i=0;i<edges.length;i++) {
    if (edges[i].id.substr(0,4)=='edge') {
      edges[i].setAttribute('class','edge');
    }
  }
}
]]></script>
        <defs>
                <circle id="rim" cx="0" cy="0" r="7"/>
                <circle id="rim2" cx="0" cy="0" r="3.5"/>
                <g id="zoomPlus">
                        <use xlink:href="#rim" fill="#404040">
                                <set attributeName="fill" to="#808080" begin="zoomplus.mouseover" end="zoomplus.mouseout"/>
                        </use>
                        <path d="M-4,0h8M0,-4v8" fill="none" stroke="white" stroke-width="1.5" pointer-events="none"/>
                </g>
                <g id="zoomMin">
                        <use xlink:href="#rim" fill="#404040">
                                <set attributeName="fill" to="#808080" begin="zoomminus.mouseover" end="zoomminus.mouseout"/>
                        </use>
                        <path d="M-4,0h8" fill="none" stroke="white" stroke-width="1.5" pointer-events="none"/>
                </g>
                <g id="dirArrow">
                        <path fill="none" stroke="white" stroke-width="1.5" d="M0,-3.0v7 M-2.5,-0.5L0,-3.0L2.5,-0.5"/>
                </g>
               <g id="resetDef">
                       <use xlink:href="#rim2" fill="#404040">
                               <set attributeName="fill" to="#808080" begin="reset.mouseover" end="reset.mouseout"/>
                       </use>
               </g>
        </defs>

<script type="text/javascript">
var viewWidth = 509;
var viewHeight = 137;
var sectionId = 'dynsection-12';
</script>
<script xlink:href="svgpan.js"/>
<svg id="graph" class="graph">
<g id="viewport">
<title>gradrta</title>
<polygon fill="white" stroke="transparent" points="-4,4 -4,-133 505,-133 505,4 -4,4"/>
<!-- Node1 -->
<g id="node1" class="node">
<title>Node1</title>
<g id="a_node1"><a xlink:title=" ">
<polygon fill="#bfbfbf" stroke="black" points="454,-66.5 454,-85.5 501,-85.5 501,-66.5 454,-66.5"/>
<text text-anchor="middle" x="477.5" y="-73.5" font-family="Helvetica,sans-Serif" font-size="10.00">gradrta</text>
</a>
</g>
</g>
<!-- Node2 -->
<g id="node2" class="node">
<title>Node2</title>
<g id="a_node2"><a xlink:href="convect_8f.html#ae6d180b7227de36418c704fc1f7a3206" target="_top" xlink:title=" ">
<polygon fill="white" stroke="black" points="347,-105.5 347,-124.5 418,-124.5 418,-105.5 347,-105.5"/>
<text text-anchor="middle" x="382.5" y="-112.5" font-family="Helvetica,sans-Serif" font-size="10.00">grad_rstd_ta</text>
</a>
</g>
</g>
<!-- Node1&#45;&gt;Node2 -->
<g id="edge1" class="edge">
<title>Node1&#45;&gt;Node2</title>
<path fill="none" stroke="midnightblue" d="M444.75,-89.31C432.18,-94.59 418,-100.53 406.45,-105.38"/>
<polygon fill="midnightblue" stroke="midnightblue" points="446.12,-92.54 453.99,-85.44 443.41,-86.08 446.12,-92.54"/>
</g>
<!-- Node52 -->
<g id="node5" class="node">
<title>Node52</title>
<g id="a_node5"><a xlink:href="hmholtz_8f.html#a7c09e0f1ba5bd2cb84d8f705152fa43f" target="_top" xlink:title=" ">
<polygon fill="white" stroke="black" points="363.5,-66.5 363.5,-85.5 401.5,-85.5 401.5,-66.5 363.5,-66.5"/>
<text text-anchor="middle" x="382.5" y="-73.5" font-family="Helvetica,sans-Serif" font-size="10.00">hxdg</text>
</a>
</g>
</g>
<!-- Node1&#45;&gt;Node52 -->
<g id="edge4" class="edge">
<title>Node1&#45;&gt;Node52</title>
<path fill="none" stroke="midnightblue" d="M443.67,-76C429.59,-76 413.68,-76 401.75,-76"/>
<polygon fill="midnightblue" stroke="midnightblue" points="443.99,-79.5 453.99,-76 443.99,-72.5 443.99,-79.5"/>
</g>
<!-- Node95 -->
<g id="node10" class="node">
<title>Node95</title>
<g id="a_node10"><a xlink:href="hmholtz_8f.html#a71481bfcbacc047e17326d32a19300ac" target="_top" xlink:title=" ">
<polygon fill="white" stroke="black" points="240,-0.5 240,-19.5 305,-19.5 305,-0.5 240,-0.5"/>
<text text-anchor="middle" x="272.5" y="-7.5" font-family="Helvetica,sans-Serif" font-size="10.00">hxdg_surfa</text>
</a>
</g>
</g>
<!-- Node1&#45;&gt;Node95 -->
<g id="edge9" class="edge">
<title>Node1&#45;&gt;Node95</title>
<path fill="none" stroke="midnightblue" d="M444.23,-65.51C405.35,-52.87 340.57,-31.81 302.98,-19.58"/>
<polygon fill="midnightblue" stroke="midnightblue" points="443.41,-68.92 454,-68.68 445.57,-62.26 443.41,-68.92"/>
</g>
<!-- Node3 -->
<g id="node3" class="node">
<title>Node3</title>
<g id="a_node3"><a xlink:href="convect_8f.html#ae77a896f076c052786cd0dbdbc7b7e95" target="_top" xlink:title=" ">
<polygon fill="white" stroke="black" points="234,-106.5 234,-125.5 311,-125.5 311,-106.5 234,-106.5"/>
<text text-anchor="middle" x="272.5" y="-113.5" font-family="Helvetica,sans-Serif" font-size="10.00">convop_weak</text>
</a>
</g>
</g>
<!-- Node2&#45;&gt;Node3 -->
<g id="edge2" class="edge">
<title>Node2&#45;&gt;Node3</title>
<path fill="none" stroke="midnightblue" d="M336.63,-115.42C328.17,-115.49 319.4,-115.58 311.19,-115.65"/>
<polygon fill="midnightblue" stroke="midnightblue" points="336.77,-118.91 346.73,-115.32 336.7,-111.91 336.77,-118.91"/>
</g>
<!-- Node4 -->
<g id="node4" class="node">
<title>Node4</title>
<g id="a_node4"><a xlink:href="convect_8f.html#a7975b977bdaf7637493e0beacb3a224b" target="_top" xlink:title=" ">
<polygon fill="white" stroke="red" points="97,-109.5 97,-128.5 198,-128.5 198,-109.5 97,-109.5"/>
<text text-anchor="middle" x="147.5" y="-116.5" font-family="Helvetica,sans-Serif" font-size="10.00">conv_rhs_dg_weak</text>
</a>
</g>
</g>
<!-- Node3&#45;&gt;Node4 -->
<g id="edge3" class="edge">
<title>Node3&#45;&gt;Node4</title>
<path fill="none" stroke="midnightblue" d="M223.85,-117.16C215.4,-117.37 206.59,-117.58 198.09,-117.79"/>
<polygon fill="midnightblue" stroke="midnightblue" points="224.02,-120.66 233.93,-116.92 223.85,-113.66 224.02,-120.66"/>
</g>
<!-- Node53 -->
<g id="node6" class="node">
<title>Node53</title>
<g id="a_node6"><a xlink:href="hmholtz_8f.html#aac309b94595d1abf629fb77f234557fc" target="_top" xlink:title=" ">
<polygon fill="white" stroke="black" points="246,-66.5 246,-85.5 299,-85.5 299,-66.5 246,-66.5"/>
<text text-anchor="middle" x="272.5" y="-73.5" font-family="Helvetica,sans-Serif" font-size="10.00">cggo_dg</text>
</a>
</g>
</g>
<!-- Node52&#45;&gt;Node53 -->
<g id="edge5" class="edge">
<title>Node52&#45;&gt;Node53</title>
<path fill="none" stroke="midnightblue" d="M352.92,-76C336.24,-76 315.37,-76 299.21,-76"/>
<polygon fill="midnightblue" stroke="midnightblue" points="353.18,-79.5 363.18,-76 353.18,-72.5 353.18,-79.5"/>
</g>
<!-- Node54 -->
<g id="node7" class="node">
<title>Node54</title>
<g id="a_node7"><a xlink:href="hmholtz_8f.html#ab52baffba790c148592c7b40c62861ca" target="_top" xlink:title=" ">
<polygon fill="white" stroke="black" points="114,-71.5 114,-90.5 181,-90.5 181,-71.5 114,-71.5"/>
<text text-anchor="middle" x="147.5" y="-78.5" font-family="Helvetica,sans-Serif" font-size="10.00">hmholtz_dg</text>
</a>
</g>
</g>
<!-- Node53&#45;&gt;Node54 -->
<g id="edge6" class="edge">
<title>Node53&#45;&gt;Node54</title>
<path fill="none" stroke="midnightblue" d="M235.51,-77.46C218.37,-78.16 198,-78.99 181.28,-79.67"/>
<polygon fill="midnightblue" stroke="midnightblue" points="235.87,-80.95 245.72,-77.05 235.58,-73.96 235.87,-80.95"/>
</g>
<!-- Node55 -->
<g id="node9" class="node">
<title>Node55</title>
<g id="a_node9"><a xlink:href="navier4_8f.html#abff3f3a3a3b301fbd3e883cb30d2d967" target="_top" xlink:title=" ">
<polygon fill="white" stroke="red" points="123,-33.5 123,-52.5 172,-52.5 172,-33.5 123,-33.5"/>
<text text-anchor="middle" x="147.5" y="-40.5" font-family="Helvetica,sans-Serif" font-size="10.00">hmhzpf</text>
</a>
</g>
</g>
<!-- Node53&#45;&gt;Node55 -->
<g id="edge8" class="edge">
<title>Node53&#45;&gt;Node55</title>
<path fill="none" stroke="midnightblue" d="M235.8,-66.42C215.33,-60.93 190.2,-54.19 172.17,-49.35"/>
<polygon fill="midnightblue" stroke="midnightblue" points="235.15,-69.87 245.72,-69.08 236.96,-63.11 235.15,-69.87"/>
</g>
<!-- Node31 -->
<g id="node8" class="node">
<title>Node31</title>
<g id="a_node8"><a xlink:href="conduct_8f.html#abc0953779481a8cff2666b1d0878c50c" target="_top" xlink:title=" ">
<polygon fill="white" stroke="red" points="0,-33.5 0,-52.5 61,-52.5 61,-33.5 0,-33.5"/>
<text text-anchor="middle" x="30.5" y="-40.5" font-family="Helvetica,sans-Serif" font-size="10.00">cdscal_dg</text>
</a>
</g>
</g>
<!-- Node54&#45;&gt;Node31 -->
<g id="edge7" class="edge">
<title>Node54&#45;&gt;Node31</title>
<path fill="none" stroke="midnightblue" d="M107.68,-68.17C92.25,-63.08 74.81,-57.31 60.51,-52.59"/>
<polygon fill="midnightblue" stroke="midnightblue" points="106.89,-71.6 117.48,-71.41 109.08,-64.95 106.89,-71.6"/>
</g>
<!-- Node95&#45;&gt;Node31 -->
<g id="edge10" class="edge">
<title>Node95&#45;&gt;Node31</title>
<path fill="none" stroke="midnightblue" d="M229.71,-10.98C194.17,-12.38 141.89,-15.78 97,-24 84.65,-26.26 71.3,-29.91 59.9,-33.4"/>
<polygon fill="midnightblue" stroke="midnightblue" points="229.86,-14.48 239.73,-10.62 229.61,-7.48 229.86,-14.48"/>
</g>
</g>
</svg>
        <g id="navigator" transform="translate(0 0)" fill="#404254">
                <rect fill="#f2f5e9" fill-opacity="0.5" stroke="#606060" stroke-width=".5" x="0" y="0" width="60" height="60"/>
                <use id="zoomplus" xlink:href="#zoomPlus" x="17" y="9" onmousedown="handleZoom(evt,'in')"/>
                <use id="zoomminus" xlink:href="#zoomMin" x="42" y="9" onmousedown="handleZoom(evt,'out')"/>
                <use id="reset" xlink:href="#resetDef" x="30" y="36" onmousedown="handleReset()"/>
                <g id="arrowUp" xlink:href="#dirArrow" transform="translate(30 24)" onmousedown="handlePan(0,-1)">
                  <use xlink:href="#rim" fill="#404040">
                        <set attributeName="fill" to="#808080" begin="arrowUp.mouseover" end="arrowUp.mouseout"/>
                  </use>
                  <path fill="none" stroke="white" stroke-width="1.5" d="M0,-3.0v7 M-2.5,-0.5L0,-3.0L2.5,-0.5"/>
                </g>
                <g id="arrowRight" xlink:href="#dirArrow" transform="rotate(90) translate(36 -43)" onmousedown="handlePan(1,0)">
                  <use xlink:href="#rim" fill="#404040">
                        <set attributeName="fill" to="#808080" begin="arrowRight.mouseover" end="arrowRight.mouseout"/>
                  </use>
                  <path fill="none" stroke="white" stroke-width="1.5" d="M0,-3.0v7 M-2.5,-0.5L0,-3.0L2.5,-0.5"/>
                </g>
                <g id="arrowDown" xlink:href="#dirArrow" transform="rotate(180) translate(-30 -48)" onmousedown="handlePan(0,1)">
                  <use xlink:href="#rim" fill="#404040">
                        <set attributeName="fill" to="#808080" begin="arrowDown.mouseover" end="arrowDown.mouseout"/>
                  </use>
                  <path fill="none" stroke="white" stroke-width="1.5" d="M0,-3.0v7 M-2.5,-0.5L0,-3.0L2.5,-0.5"/>
                </g>
                <g id="arrowLeft" xlink:href="#dirArrow" transform="rotate(270) translate(-36 17)" onmousedown="handlePan(-1,0)">
                  <use xlink:href="#rim" fill="#404040">
                        <set attributeName="fill" to="#808080" begin="arrowLeft.mouseover" end="arrowLeft.mouseout"/>
                  </use>
                  <path fill="none" stroke="white" stroke-width="1.5" d="M0,-3.0v7 M-2.5,-0.5L0,-3.0L2.5,-0.5"/>
                </g>
        </g>
        <svg viewBox="0 0 15 15" width="100%" height="30px" preserveAspectRatio="xMaxYMin meet">
         <g id="arrow_out" transform="scale(0.3 0.3)">
          <a xlink:href="hmholtz_8f_a7cdf3a9c9b3186632e8be8fd77756113_icgraph_org.svg" target="_base">
           <rect id="button" ry="5" rx="5" y="6" x="6" height="38" width="38"
                fill="#f2f5e9" fill-opacity="0.5" stroke="#606060" stroke-width="1.0"/>
           <path id="arrow"
             d="M 11.500037,31.436501 C 11.940474,20.09759 22.043105,11.32322 32.158766,21.979434 L 37.068811,17.246167 C 37.068811,17.246167 37.088388,32 37.088388,32 L 22.160133,31.978069 C 22.160133,31.978069 26.997745,27.140456 26.997745,27.140456 C 18.528582,18.264221 13.291696,25.230495 11.500037,31.436501 z"
             style="fill:#404040;"/>
          </a>
         </g>
        </svg>
</svg>
