<?xml version="1.0" encoding="UTF-8" standalone="no"?>
<!DOCTYPE svg PUBLIC "-//W3C//DTD SVG 1.1//EN"
 "http://www.w3.org/Graphics/SVG/1.1/DTD/svg11.dtd">
<!-- Generated by graphviz version 2.46.0 (0)
 -->
<!-- Title: fdm_h1 Pages: 1 -->
<svg width="416pt" height="180pt"
 viewBox="0.00 0.00 416.00 180.00" xmlns="http://www.w3.org/2000/svg" xmlns:xlink="http://www.w3.org/1999/xlink">
<g id="graph0" class="graph" transform="scale(1 1) rotate(0) translate(4 176)">
<title>fdm_h1</title>
<polygon fill="white" stroke="transparent" points="-4,4 -4,-176 412,-176 412,4 -4,4"/>
<!-- Node1 -->
<g id="node1" class="node">
<title>Node1</title>
<g id="a_node1"><a xlink:title=" ">
<polygon fill="#bfbfbf" stroke="black" points="359,-19.5 359,-38.5 408,-38.5 408,-19.5 359,-19.5"/>
<text text-anchor="middle" x="383.5" y="-26.5" font-family="Helvetica,sans-Serif" font-size="10.00">fdm_h1</text>
</a>
</g>
</g>
<!-- Node2 -->
<g id="node2" class="node">
<title>Node2</title>
<g id="a_node2"><a xlink:href="hmholtz_8f.html#a8734f3cc2d37d6a2ccd1daa8db57513d" target="_top" xlink:title=" ">
<polygon fill="white" stroke="black" points="181,-19.5 181,-38.5 219,-38.5 219,-19.5 181,-19.5"/>
<text text-anchor="middle" x="200" y="-26.5" font-family="Helvetica,sans-Serif" font-size="10.00">cggo</text>
</a>
</g>
</g>
<!-- Node1&#45;&gt;Node2 -->
<g id="edge1" class="edge">
<title>Node1&#45;&gt;Node2</title>
<path fill="none" stroke="midnightblue" d="M348.62,-29C310.35,-29 249.47,-29 219.25,-29"/>
<polygon fill="midnightblue" stroke="midnightblue" points="348.77,-32.5 358.77,-29 348.77,-25.5 348.77,-32.5"/>
</g>
<!-- Node71 -->
<g id="node10" class="node">
<title>Node71</title>
<g id="a_node10"><a xlink:href="gmres_8f.html#a377d8578c6ccd4fddffb699c7a18f603" target="_top" xlink:title=" ">
<polygon fill="white" stroke="black" points="255,-0.5 255,-19.5 323,-19.5 323,-0.5 255,-0.5"/>
<text text-anchor="middle" x="289" y="-7.5" font-family="Helvetica,sans-Serif" font-size="10.00">hmh_gmres</text>
</a>
</g>
</g>
<!-- Node1&#45;&gt;Node71 -->
<g id="edge10" class="edge">
<title>Node1&#45;&gt;Node71</title>
<path fill="none" stroke="midnightblue" d="M348.84,-22.09C340.47,-20.37 331.5,-18.52 323.15,-16.81"/>
<polygon fill="midnightblue" stroke="midnightblue" points="348.18,-25.52 358.68,-24.11 349.59,-18.67 348.18,-25.52"/>
</g>
<!-- Node3 -->
<g id="node3" class="node">
<title>Node3</title>
<g id="a_node3"><a xlink:href="hmholtz_8f.html#a52dcac1fe733719d4987d36aac022e4d" target="_top" xlink:title=" ">
<polygon fill="white" stroke="red" points="94,-57.5 94,-76.5 145,-76.5 145,-57.5 94,-57.5"/>
<text text-anchor="middle" x="119.5" y="-64.5" font-family="Helvetica,sans-Serif" font-size="10.00">hmholtz</text>
</a>
</g>
</g>
<!-- Node2&#45;&gt;Node3 -->
<g id="edge2" class="edge">
<title>Node2&#45;&gt;Node3</title>
<path fill="none" stroke="midnightblue" d="M171.72,-42.2C161.37,-47.22 149.79,-52.82 140.26,-57.44"/>
<polygon fill="midnightblue" stroke="midnightblue" points="173.32,-45.32 180.79,-37.81 170.27,-39.02 173.32,-45.32"/>
</g>
<!-- Node65 -->
<g id="node9" class="node">
<title>Node65</title>
<g id="a_node9"><a xlink:href="navier4_8f.html#abff3f3a3a3b301fbd3e883cb30d2d967" target="_top" xlink:title=" ">
<polygon fill="white" stroke="red" points="95,-0.5 95,-19.5 144,-19.5 144,-0.5 95,-0.5"/>
<text text-anchor="middle" x="119.5" y="-7.5" font-family="Helvetica,sans-Serif" font-size="10.00">hmhzpf</text>
</a>
</g>
</g>
<!-- Node2&#45;&gt;Node65 -->
<g id="edge8" class="edge">
<title>Node2&#45;&gt;Node65</title>
<path fill="none" stroke="midnightblue" d="M171.01,-22.23C162.26,-20.11 152.7,-17.79 144.27,-15.75"/>
<polygon fill="midnightblue" stroke="midnightblue" points="170.25,-25.64 180.79,-24.59 171.9,-18.84 170.25,-25.64"/>
</g>
<!-- Node4 -->
<g id="node4" class="node">
<title>Node4</title>
<g id="a_node4"><a xlink:href="eigsolv_8f.html#a285ca4aa2354ca8584af31946d6761c2" target="_top" xlink:title=" ">
<polygon fill="white" stroke="red" points="2.5,-152.5 2.5,-171.5 55.5,-171.5 55.5,-152.5 2.5,-152.5"/>
<text text-anchor="middle" x="29" y="-159.5" font-family="Helvetica,sans-Serif" font-size="10.00">alpham1</text>
</a>
</g>
</g>
<!-- Node3&#45;&gt;Node4 -->
<g id="edge3" class="edge">
<title>Node3&#45;&gt;Node4</title>
<path fill="none" stroke="midnightblue" d="M106.37,-85.23C95.03,-101.49 77.03,-125.37 58,-143 54.38,-146.35 50.12,-149.55 46.03,-152.34"/>
<polygon fill="midnightblue" stroke="midnightblue" points="109.49,-86.88 112.24,-76.65 103.71,-82.93 109.49,-86.88"/>
</g>
<!-- Node15 -->
<g id="node5" class="node">
<title>Node15</title>
<g id="a_node5"><a xlink:href="perturb_8f.html#af07508f1eb200c9ae22de3620ae45d70" target="_top" xlink:title=" ">
<polygon fill="white" stroke="red" points="4,-114.5 4,-133.5 54,-133.5 54,-114.5 4,-114.5"/>
<text text-anchor="middle" x="29" y="-121.5" font-family="Helvetica,sans-Serif" font-size="10.00">cdscalp</text>
</a>
</g>
</g>
<!-- Node3&#45;&gt;Node15 -->
<g id="edge4" class="edge">
<title>Node3&#45;&gt;Node15</title>
<path fill="none" stroke="midnightblue" d="M94.73,-82.31C78.83,-92.55 58.4,-105.71 44.79,-114.47"/>
<polygon fill="midnightblue" stroke="midnightblue" points="96.98,-85.03 103.49,-76.67 93.18,-79.14 96.98,-85.03"/>
</g>
<!-- Node17 -->
<g id="node6" class="node">
<title>Node17</title>
<g id="a_node6"><a xlink:href="navier1_8f.html#aec24385a47394ac281dc04124fff7618" target="_top" xlink:title=" ">
<polygon fill="white" stroke="red" points="8.5,-76.5 8.5,-95.5 49.5,-95.5 49.5,-76.5 8.5,-76.5"/>
<text text-anchor="middle" x="29" y="-83.5" font-family="Helvetica,sans-Serif" font-size="10.00">eprec</text>
</a>
</g>
</g>
<!-- Node3&#45;&gt;Node17 -->
<g id="edge5" class="edge">
<title>Node3&#45;&gt;Node17</title>
<path fill="none" stroke="midnightblue" d="M83.98,-74.41C72.38,-76.9 59.84,-79.59 49.76,-81.76"/>
<polygon fill="midnightblue" stroke="midnightblue" points="84.81,-77.81 93.85,-72.29 83.34,-70.97 84.81,-77.81"/>
</g>
<!-- Node42 -->
<g id="node7" class="node">
<title>Node42</title>
<g id="a_node7"><a xlink:href="navier4_8f.html#a2c8eef885087bb1ef49c29a936b96918" target="_top" xlink:title=" ">
<polygon fill="white" stroke="red" points="6.5,-0.5 6.5,-19.5 51.5,-19.5 51.5,-0.5 6.5,-0.5"/>
<text text-anchor="middle" x="29" y="-7.5" font-family="Helvetica,sans-Serif" font-size="10.00">hsolve</text>
</a>
</g>
</g>
<!-- Node3&#45;&gt;Node42 -->
<g id="edge6" class="edge">
<title>Node3&#45;&gt;Node42</title>
<path fill="none" stroke="midnightblue" d="M94.73,-51.69C78.83,-41.45 58.4,-28.29 44.79,-19.53"/>
<polygon fill="midnightblue" stroke="midnightblue" points="93.18,-54.86 103.49,-57.33 96.98,-48.97 93.18,-54.86"/>
</g>
<!-- Node61 -->
<g id="node8" class="node">
<title>Node61</title>
<g id="a_node8"><a xlink:href="drive2_8f.html#ab51ca8fa0065dc484f18189df4727349" target="_top" xlink:title=" ">
<polygon fill="white" stroke="black" points="0,-38.5 0,-57.5 58,-57.5 58,-38.5 0,-38.5"/>
<text text-anchor="middle" x="29" y="-45.5" font-family="Helvetica,sans-Serif" font-size="10.00">plan2_vol</text>
</a>
</g>
</g>
<!-- Node3&#45;&gt;Node61 -->
<g id="edge7" class="edge">
<title>Node3&#45;&gt;Node61</title>
<path fill="none" stroke="midnightblue" d="M83.84,-59.56C75.37,-57.74 66.4,-55.82 58.27,-54.07"/>
<polygon fill="midnightblue" stroke="midnightblue" points="83.34,-63.03 93.85,-61.71 84.81,-56.19 83.34,-63.03"/>
</g>
<!-- Node65&#45;&gt;Node42 -->
<g id="edge9" class="edge">
<title>Node65&#45;&gt;Node42</title>
<path fill="none" stroke="midnightblue" d="M84.56,-10C73.51,-10 61.56,-10 51.66,-10"/>
<polygon fill="midnightblue" stroke="midnightblue" points="84.78,-13.5 94.78,-10 84.78,-6.5 84.78,-13.5"/>
</g>
<!-- Node71&#45;&gt;Node2 -->
<g id="edge11" class="edge">
<title>Node71&#45;&gt;Node2</title>
<path fill="none" stroke="midnightblue" d="M244.83,-19.43C235.74,-21.41 226.63,-23.4 219.09,-25.05"/>
<polygon fill="midnightblue" stroke="midnightblue" points="245.59,-22.84 254.61,-17.29 244.1,-16.01 245.59,-22.84"/>
</g>
</g>
</svg>
