<?xml version="1.0" encoding="UTF-8" standalone="no"?>
<!DOCTYPE svg PUBLIC "-//W3C//DTD SVG 1.1//EN"
 "http://www.w3.org/Graphics/SVG/1.1/DTD/svg11.dtd">
<!-- Generated by graphviz version 2.46.0 (0)
 -->
<!-- Title: hxdg_surfa Pages: 1 -->
<svg width="407pt" height="104pt"
 viewBox="0.00 0.00 407.00 104.00" xmlns="http://www.w3.org/2000/svg" xmlns:xlink="http://www.w3.org/1999/xlink">
<g id="graph0" class="graph" transform="scale(1 1) rotate(0) translate(4 100)">
<title>hxdg_surfa</title>
<polygon fill="white" stroke="transparent" points="-4,4 -4,-100 403,-100 403,4 -4,4"/>
<!-- Node1 -->
<g id="node1" class="node">
<title>Node1</title>
<g id="a_node1"><a xlink:title=" ">
<polygon fill="#bfbfbf" stroke="black" points="0,-38.5 0,-57.5 65,-57.5 65,-38.5 0,-38.5"/>
<text text-anchor="middle" x="32.5" y="-45.5" font-family="Helvetica,sans-Serif" font-size="10.00">hxdg_surfa</text>
</a>
</g>
</g>
<!-- Node2 -->
<g id="node2" class="node">
<title>Node2</title>
<g id="a_node2"><a xlink:href="connect1_8f.html#aa6d2ebf2dfdfeae458d41ef4cb6d9fae" target="_top" xlink:title=" ">
<polygon fill="white" stroke="black" points="106,-76.5 106,-95.5 147,-95.5 147,-76.5 106,-76.5"/>
<text text-anchor="middle" x="126.5" y="-83.5" font-family="Helvetica,sans-Serif" font-size="10.00">dsset</text>
</a>
</g>
</g>
<!-- Node1&#45;&gt;Node2 -->
<g id="edge1" class="edge">
<title>Node1&#45;&gt;Node2</title>
<path fill="none" stroke="midnightblue" d="M56.72,-57.59C68.76,-62.56 83.6,-68.69 96.4,-73.98"/>
<polygon fill="midnightblue" stroke="midnightblue" points="95.14,-77.25 105.72,-77.83 97.81,-70.78 95.14,-77.25"/>
</g>
<!-- Node3 -->
<g id="node3" class="node">
<title>Node3</title>
<g id="a_node3"><a xlink:href="hmholtz_8f.html#a7cdf3a9c9b3186632e8be8fd77756113" target="_top" xlink:title=" ">
<polygon fill="white" stroke="black" points="103,-38.5 103,-57.5 150,-57.5 150,-38.5 103,-38.5"/>
<text text-anchor="middle" x="126.5" y="-45.5" font-family="Helvetica,sans-Serif" font-size="10.00">gradrta</text>
</a>
</g>
</g>
<!-- Node1&#45;&gt;Node3 -->
<g id="edge2" class="edge">
<title>Node1&#45;&gt;Node3</title>
<path fill="none" stroke="midnightblue" d="M65.16,-48C74.05,-48 83.74,-48 92.69,-48"/>
<polygon fill="midnightblue" stroke="midnightblue" points="92.78,-51.5 102.78,-48 92.78,-44.5 92.78,-51.5"/>
</g>
<!-- Node31 -->
<g id="node9" class="node">
<title>Node31</title>
<g id="a_node9"><a xlink:href="subs1_8f.html#a8a9da5a10943bfb2176353bd597f87ce" target="_top" xlink:title=" ">
<polygon fill="white" stroke="black" points="101,-0.5 101,-19.5 152,-19.5 152,-0.5 101,-0.5"/>
<text text-anchor="middle" x="126.5" y="-7.5" font-family="Helvetica,sans-Serif" font-size="10.00">setaxdy</text>
</a>
</g>
</g>
<!-- Node1&#45;&gt;Node31 -->
<g id="edge8" class="edge">
<title>Node1&#45;&gt;Node31</title>
<path fill="none" stroke="midnightblue" d="M56.72,-38.41C67.72,-33.87 81.05,-28.36 93.04,-23.41"/>
<polygon fill="midnightblue" stroke="midnightblue" points="94.39,-26.64 102.29,-19.59 91.71,-20.17 94.39,-26.64"/>
</g>
<!-- Node4 -->
<g id="node4" class="node">
<title>Node4</title>
<g id="a_node4"><a xlink:href="mxm__std_8f.html#ae33ac60f7ec020bf0ba6dc6bdf5238a2" target="_top" xlink:title=" ">
<polygon fill="white" stroke="black" points="188,-38.5 188,-57.5 232,-57.5 232,-38.5 188,-38.5"/>
<text text-anchor="middle" x="210" y="-45.5" font-family="Helvetica,sans-Serif" font-size="10.00">mxma</text>
</a>
</g>
</g>
<!-- Node3&#45;&gt;Node4 -->
<g id="edge3" class="edge">
<title>Node3&#45;&gt;Node4</title>
<path fill="none" stroke="midnightblue" d="M150.2,-48C158.67,-48 168.43,-48 177.54,-48"/>
<polygon fill="midnightblue" stroke="midnightblue" points="177.82,-51.5 187.82,-48 177.82,-44.5 177.82,-51.5"/>
</g>
<!-- Node5 -->
<g id="node5" class="node">
<title>Node5</title>
<g id="a_node5"><a xlink:href="mxm__std_8f.html#af267ddc935ab2d76d9e0efa327771000" target="_top" xlink:title=" ">
<polygon fill="white" stroke="red" points="268,-38.5 268,-57.5 317,-57.5 317,-38.5 268,-38.5"/>
<text text-anchor="middle" x="292.5" y="-45.5" font-family="Helvetica,sans-Serif" font-size="10.00">mxma2</text>
</a>
</g>
</g>
<!-- Node4&#45;&gt;Node5 -->
<g id="edge4" class="edge">
<title>Node4&#45;&gt;Node5</title>
<path fill="none" stroke="midnightblue" d="M232.15,-48C239.97,-48 249.03,-48 257.69,-48"/>
<polygon fill="midnightblue" stroke="midnightblue" points="257.94,-51.5 267.94,-48 257.94,-44.5 257.94,-51.5"/>
</g>
<!-- Node6 -->
<g id="node6" class="node">
<title>Node6</title>
<g id="a_node6"><a xlink:href="mxm__std_8f.html#a7d9ddd6590e8c57f255893e7c776788a" target="_top" xlink:title=" ">
<polygon fill="white" stroke="black" points="355.5,-76.5 355.5,-95.5 396.5,-95.5 396.5,-76.5 355.5,-76.5"/>
<text text-anchor="middle" x="376" y="-83.5" font-family="Helvetica,sans-Serif" font-size="10.00">mxa1</text>
</a>
</g>
</g>
<!-- Node5&#45;&gt;Node6 -->
<g id="edge5" class="edge">
<title>Node5&#45;&gt;Node6</title>
<path fill="none" stroke="midnightblue" d="M314.07,-57.59C323.74,-62.1 335.45,-67.56 346,-72.48"/>
<polygon fill="midnightblue" stroke="midnightblue" points="344.74,-75.75 355.28,-76.81 347.7,-69.41 344.74,-75.75"/>
</g>
<!-- Node7 -->
<g id="node7" class="node">
<title>Node7</title>
<g id="a_node7"><a xlink:href="mxm__std_8f.html#a828acef1f513811503a9b095dbe0514e" target="_top" xlink:title=" ">
<polygon fill="white" stroke="black" points="353,-38.5 353,-57.5 399,-57.5 399,-38.5 353,-38.5"/>
<text text-anchor="middle" x="376" y="-45.5" font-family="Helvetica,sans-Serif" font-size="10.00">mxa10</text>
</a>
</g>
</g>
<!-- Node5&#45;&gt;Node7 -->
<g id="edge6" class="edge">
<title>Node5&#45;&gt;Node7</title>
<path fill="none" stroke="midnightblue" d="M317.07,-48C325.09,-48 334.2,-48 342.78,-48"/>
<polygon fill="midnightblue" stroke="midnightblue" points="342.88,-51.5 352.88,-48 342.88,-44.5 342.88,-51.5"/>
</g>
<!-- Node8 -->
<g id="node8" class="node">
<title>Node8</title>
<g id="a_node8"><a xlink:href="mxm__std_8f.html#a271c03425756948a0eb6e50aca52a339" target="_top" xlink:title=" ">
<polygon fill="white" stroke="black" points="353,-0.5 353,-19.5 399,-19.5 399,-0.5 353,-0.5"/>
<text text-anchor="middle" x="376" y="-7.5" font-family="Helvetica,sans-Serif" font-size="10.00">mxa11</text>
</a>
</g>
</g>
<!-- Node5&#45;&gt;Node8 -->
<g id="edge7" class="edge">
<title>Node5&#45;&gt;Node8</title>
<path fill="none" stroke="midnightblue" d="M314.07,-38.41C323.53,-34 334.93,-28.69 345.29,-23.85"/>
<polygon fill="midnightblue" stroke="midnightblue" points="346.86,-26.98 354.44,-19.59 343.9,-20.64 346.86,-26.98"/>
</g>
<!-- Node32 -->
<g id="node10" class="node">
<title>Node32</title>
<g id="a_node10"><a xlink:href="math_8f.html#a3b43508554f14bdea8e14473d7d0803c" target="_top" xlink:title=" ">
<polygon fill="white" stroke="black" points="191,-0.5 191,-19.5 229,-19.5 229,-0.5 191,-0.5"/>
<text text-anchor="middle" x="210" y="-7.5" font-family="Helvetica,sans-Serif" font-size="10.00">copy</text>
</a>
</g>
</g>
<!-- Node31&#45;&gt;Node32 -->
<g id="edge9" class="edge">
<title>Node31&#45;&gt;Node32</title>
<path fill="none" stroke="midnightblue" d="M152.4,-10C161.35,-10 171.5,-10 180.72,-10"/>
<polygon fill="midnightblue" stroke="midnightblue" points="180.98,-13.5 190.98,-10 180.98,-6.5 180.98,-13.5"/>
</g>
</g>
</svg>
