<?xml version="1.0" encoding="UTF-8" standalone="no"?>
<!DOCTYPE svg PUBLIC "-//W3C//DTD SVG 1.1//EN"
 "http://www.w3.org/Graphics/SVG/1.1/DTD/svg11.dtd">
<!-- Generated by graphviz version 2.46.0 (0)
 -->
<!-- Title: hmholtz Pages: 1 -->
<svg width="253pt" height="256pt"
 viewBox="0.00 0.00 253.00 256.00" xmlns="http://www.w3.org/2000/svg" xmlns:xlink="http://www.w3.org/1999/xlink">
<g id="graph0" class="graph" transform="scale(1 1) rotate(0) translate(4 252)">
<title>hmholtz</title>
<polygon fill="white" stroke="transparent" points="-4,4 -4,-252 249,-252 249,4 -4,4"/>
<!-- Node1 -->
<g id="node1" class="node">
<title>Node1</title>
<g id="a_node1"><a xlink:title=" ">
<polygon fill="#bfbfbf" stroke="black" points="194,-114.5 194,-133.5 245,-133.5 245,-114.5 194,-114.5"/>
<text text-anchor="middle" x="219.5" y="-121.5" font-family="Helvetica,sans-Serif" font-size="10.00">hmholtz</text>
</a>
</g>
</g>
<!-- Node2 -->
<g id="node2" class="node">
<title>Node2</title>
<g id="a_node2"><a xlink:href="eigsolv_8f.html#a285ca4aa2354ca8584af31946d6761c2" target="_top" xlink:title=" ">
<polygon fill="white" stroke="black" points="93,-228.5 93,-247.5 146,-247.5 146,-228.5 93,-228.5"/>
<text text-anchor="middle" x="119.5" y="-235.5" font-family="Helvetica,sans-Serif" font-size="10.00">alpham1</text>
</a>
</g>
</g>
<!-- Node1&#45;&gt;Node2 -->
<g id="edge1" class="edge">
<title>Node1&#45;&gt;Node2</title>
<path fill="none" stroke="midnightblue" d="M210.24,-142.9C200.34,-163.74 182.04,-197.21 158,-219 154,-222.63 149.18,-225.74 144.34,-228.34"/>
<polygon fill="midnightblue" stroke="midnightblue" points="213.54,-144.08 214.52,-133.53 207.18,-141.17 213.54,-144.08"/>
</g>
<!-- Node13 -->
<g id="node4" class="node">
<title>Node13</title>
<g id="a_node4"><a xlink:href="perturb_8f.html#af07508f1eb200c9ae22de3620ae45d70" target="_top" xlink:title=" ">
<polygon fill="white" stroke="black" points="94.5,-190.5 94.5,-209.5 144.5,-209.5 144.5,-190.5 94.5,-190.5"/>
<text text-anchor="middle" x="119.5" y="-197.5" font-family="Helvetica,sans-Serif" font-size="10.00">cdscalp</text>
</a>
</g>
</g>
<!-- Node1&#45;&gt;Node13 -->
<g id="edge3" class="edge">
<title>Node1&#45;&gt;Node13</title>
<path fill="none" stroke="midnightblue" d="M202.95,-141.07C191.34,-153.18 174.66,-169.3 158,-181 153.1,-184.44 147.5,-187.63 142.13,-190.37"/>
<polygon fill="midnightblue" stroke="midnightblue" points="205.5,-143.46 209.79,-133.78 200.4,-138.67 205.5,-143.46"/>
</g>
<!-- Node15 -->
<g id="node6" class="node">
<title>Node15</title>
<g id="a_node6"><a xlink:href="navier1_8f.html#aec24385a47394ac281dc04124fff7618" target="_top" xlink:title=" ">
<polygon fill="white" stroke="red" points="99,-152.5 99,-171.5 140,-171.5 140,-152.5 99,-152.5"/>
<text text-anchor="middle" x="119.5" y="-159.5" font-family="Helvetica,sans-Serif" font-size="10.00">eprec</text>
</a>
</g>
</g>
<!-- Node1&#45;&gt;Node15 -->
<g id="edge5" class="edge">
<title>Node1&#45;&gt;Node15</title>
<path fill="none" stroke="midnightblue" d="M184.43,-137.21C169.68,-142.93 152.94,-149.42 140.29,-154.33"/>
<polygon fill="midnightblue" stroke="midnightblue" points="185.71,-140.47 193.77,-133.59 183.18,-133.94 185.71,-140.47"/>
</g>
<!-- Node40 -->
<g id="node7" class="node">
<title>Node40</title>
<g id="a_node7"><a xlink:href="navier4_8f.html#a2c8eef885087bb1ef49c29a936b96918" target="_top" xlink:title=" ">
<polygon fill="white" stroke="red" points="97,-114.5 97,-133.5 142,-133.5 142,-114.5 97,-114.5"/>
<text text-anchor="middle" x="119.5" y="-121.5" font-family="Helvetica,sans-Serif" font-size="10.00">hsolve</text>
</a>
</g>
</g>
<!-- Node1&#45;&gt;Node40 -->
<g id="edge6" class="edge">
<title>Node1&#45;&gt;Node40</title>
<path fill="none" stroke="midnightblue" d="M183.61,-124C169.81,-124 154.37,-124 142.22,-124"/>
<polygon fill="midnightblue" stroke="midnightblue" points="183.77,-127.5 193.77,-124 183.77,-120.5 183.77,-127.5"/>
</g>
<!-- Node59 -->
<g id="node8" class="node">
<title>Node59</title>
<g id="a_node8"><a xlink:href="drive2_8f.html#ab51ca8fa0065dc484f18189df4727349" target="_top" xlink:title=" ">
<polygon fill="white" stroke="black" points="90.5,-76.5 90.5,-95.5 148.5,-95.5 148.5,-76.5 90.5,-76.5"/>
<text text-anchor="middle" x="119.5" y="-83.5" font-family="Helvetica,sans-Serif" font-size="10.00">plan2_vol</text>
</a>
</g>
</g>
<!-- Node1&#45;&gt;Node59 -->
<g id="edge7" class="edge">
<title>Node1&#45;&gt;Node59</title>
<path fill="none" stroke="midnightblue" d="M184.29,-110.74C171.43,-105.75 157.06,-100.18 145.22,-95.59"/>
<polygon fill="midnightblue" stroke="midnightblue" points="183.18,-114.06 193.77,-114.41 185.71,-107.53 183.18,-114.06"/>
</g>
<!-- Node61 -->
<g id="node9" class="node">
<title>Node61</title>
<g id="a_node9"><a xlink:href="drive2_8f.html#afe26dea455fd7088135bf58cb3df9f6d" target="_top" xlink:title=" ">
<polygon fill="white" stroke="red" points="90.5,-38.5 90.5,-57.5 148.5,-57.5 148.5,-38.5 90.5,-38.5"/>
<text text-anchor="middle" x="119.5" y="-45.5" font-family="Helvetica,sans-Serif" font-size="10.00">plan4_vol</text>
</a>
</g>
</g>
<!-- Node1&#45;&gt;Node61 -->
<g id="edge8" class="edge">
<title>Node1&#45;&gt;Node61</title>
<path fill="none" stroke="midnightblue" d="M202.95,-106.93C191.34,-94.82 174.66,-78.7 158,-67 153.1,-63.56 147.5,-60.37 142.13,-57.63"/>
<polygon fill="midnightblue" stroke="midnightblue" points="200.4,-109.33 209.79,-114.22 205.5,-104.54 200.4,-109.33"/>
</g>
<!-- Node62 -->
<g id="node10" class="node">
<title>Node62</title>
<g id="a_node10"><a xlink:href="multimesh_8f.html#a1abe8f51886fce3a30fb4f68c8c132b9" target="_top" xlink:title=" ">
<polygon fill="white" stroke="red" points="81,-0.5 81,-19.5 158,-19.5 158,-0.5 81,-0.5"/>
<text text-anchor="middle" x="119.5" y="-7.5" font-family="Helvetica,sans-Serif" font-size="10.00">plan4_vol_ms</text>
</a>
</g>
</g>
<!-- Node1&#45;&gt;Node62 -->
<g id="edge9" class="edge">
<title>Node1&#45;&gt;Node62</title>
<path fill="none" stroke="midnightblue" d="M210.24,-105.1C200.34,-84.26 182.04,-50.79 158,-29 154,-25.37 149.18,-22.26 144.34,-19.66"/>
<polygon fill="midnightblue" stroke="midnightblue" points="207.18,-106.83 214.52,-114.47 213.54,-103.92 207.18,-106.83"/>
</g>
<!-- Node3 -->
<g id="node3" class="node">
<title>Node3</title>
<g id="a_node3"><a xlink:href="eigsolv_8f.html#a91ddf7cb5ca6b19d1c736da5bf7386b3" target="_top" xlink:title=" ">
<polygon fill="white" stroke="red" points="0,-228.5 0,-247.5 45,-247.5 45,-228.5 0,-228.5"/>
<text text-anchor="middle" x="22.5" y="-235.5" font-family="Helvetica,sans-Serif" font-size="10.00">eigenv</text>
</a>
</g>
</g>
<!-- Node2&#45;&gt;Node3 -->
<g id="edge2" class="edge">
<title>Node2&#45;&gt;Node3</title>
<path fill="none" stroke="midnightblue" d="M82.38,-238C69.87,-238 56.24,-238 45.25,-238"/>
<polygon fill="midnightblue" stroke="midnightblue" points="82.54,-241.5 92.54,-238 82.54,-234.5 82.54,-241.5"/>
</g>
<!-- Node14 -->
<g id="node5" class="node">
<title>Node14</title>
<g id="a_node5"><a xlink:href="perturb_8f.html#ac353eeb6dfd3fec540b933d9c701b0e7" target="_top" xlink:title=" ">
<polygon fill="white" stroke="red" points="2,-190.5 2,-209.5 43,-209.5 43,-190.5 2,-190.5"/>
<text text-anchor="middle" x="22.5" y="-197.5" font-family="Helvetica,sans-Serif" font-size="10.00">heatp</text>
</a>
</g>
</g>
<!-- Node13&#45;&gt;Node14 -->
<g id="edge4" class="edge">
<title>Node13&#45;&gt;Node14</title>
<path fill="none" stroke="midnightblue" d="M83.91,-200C70.17,-200 54.86,-200 43.1,-200"/>
<polygon fill="midnightblue" stroke="midnightblue" points="84.04,-203.5 94.04,-200 84.04,-196.5 84.04,-203.5"/>
</g>
</g>
</svg>
