<?xml version="1.0" encoding="UTF-8" standalone="no"?>
<!DOCTYPE svg PUBLIC "-//W3C//DTD SVG 1.1//EN"
 "http://www.w3.org/Graphics/SVG/1.1/DTD/svg11.dtd">
<!-- Generated by graphviz version 2.46.0 (0)
 -->
<!-- Title: set_fdm_prec_h1b Pages: 1 -->
<svg width="470pt" height="142pt"
 viewBox="0.00 0.00 470.00 142.00" xmlns="http://www.w3.org/2000/svg" xmlns:xlink="http://www.w3.org/1999/xlink">
<g id="graph0" class="graph" transform="scale(1 1) rotate(0) translate(4 138)">
<title>set_fdm_prec_h1b</title>
<polygon fill="white" stroke="transparent" points="-4,4 -4,-138 466,-138 466,4 -4,4"/>
<!-- Node1 -->
<g id="node1" class="node">
<title>Node1</title>
<g id="a_node1"><a xlink:title=" ">
<polygon fill="#bfbfbf" stroke="black" points="365,-38.5 365,-57.5 462,-57.5 462,-38.5 365,-38.5"/>
<text text-anchor="middle" x="413.5" y="-45.5" font-family="Helvetica,sans-Serif" font-size="10.00">set_fdm_prec_h1b</text>
</a>
</g>
</g>
<!-- Node2 -->
<g id="node2" class="node">
<title>Node2</title>
<g id="a_node2"><a xlink:href="hmholtz_8f.html#a8734f3cc2d37d6a2ccd1daa8db57513d" target="_top" xlink:title=" ">
<polygon fill="white" stroke="black" points="181.5,-57.5 181.5,-76.5 219.5,-76.5 219.5,-57.5 181.5,-57.5"/>
<text text-anchor="middle" x="200.5" y="-64.5" font-family="Helvetica,sans-Serif" font-size="10.00">cggo</text>
</a>
</g>
</g>
<!-- Node1&#45;&gt;Node2 -->
<g id="edge1" class="edge">
<title>Node1&#45;&gt;Node2</title>
<path fill="none" stroke="midnightblue" d="M368.78,-59.88C356.05,-62.81 342.06,-65.53 329,-67 290.29,-71.35 244.54,-69.72 219.73,-68.27"/>
<polygon fill="midnightblue" stroke="midnightblue" points="369.76,-63.25 378.67,-57.51 368.13,-56.44 369.76,-63.25"/>
</g>
<!-- Node71 -->
<g id="node8" class="node">
<title>Node71</title>
<g id="a_node8"><a xlink:href="subs1_8f.html#afbde33b8466b90206f1fa13b3800b7d5" target="_top" xlink:title=" ">
<polygon fill="white" stroke="black" points="272,-0.5 272,-19.5 318,-19.5 318,-0.5 272,-0.5"/>
<text text-anchor="middle" x="295" y="-7.5" font-family="Helvetica,sans-Serif" font-size="10.00">cggosf</text>
</a>
</g>
</g>
<!-- Node1&#45;&gt;Node71 -->
<g id="edge7" class="edge">
<title>Node1&#45;&gt;Node71</title>
<path fill="none" stroke="midnightblue" d="M373.48,-35.27C355.01,-29.25 333.65,-22.28 318.03,-17.19"/>
<polygon fill="midnightblue" stroke="midnightblue" points="372.51,-38.64 383.1,-38.41 374.68,-31.98 372.51,-38.64"/>
</g>
<!-- Node76 -->
<g id="node10" class="node">
<title>Node76</title>
<g id="a_node10"><a xlink:href="gmres_8f.html#a377d8578c6ccd4fddffb699c7a18f603" target="_top" xlink:title=" ">
<polygon fill="white" stroke="black" points="261,-38.5 261,-57.5 329,-57.5 329,-38.5 261,-38.5"/>
<text text-anchor="middle" x="295" y="-45.5" font-family="Helvetica,sans-Serif" font-size="10.00">hmh_gmres</text>
</a>
</g>
</g>
<!-- Node1&#45;&gt;Node76 -->
<g id="edge9" class="edge">
<title>Node1&#45;&gt;Node76</title>
<path fill="none" stroke="midnightblue" d="M354.61,-48C345.9,-48 337.18,-48 329.23,-48"/>
<polygon fill="midnightblue" stroke="midnightblue" points="354.78,-51.5 364.78,-48 354.78,-44.5 354.78,-51.5"/>
</g>
<!-- Node3 -->
<g id="node3" class="node">
<title>Node3</title>
<g id="a_node3"><a xlink:href="hmholtz_8f.html#a52dcac1fe733719d4987d36aac022e4d" target="_top" xlink:title=" ">
<polygon fill="white" stroke="red" points="89,-76.5 89,-95.5 140,-95.5 140,-76.5 89,-76.5"/>
<text text-anchor="middle" x="114.5" y="-83.5" font-family="Helvetica,sans-Serif" font-size="10.00">hmholtz</text>
</a>
</g>
</g>
<!-- Node2&#45;&gt;Node3 -->
<g id="edge2" class="edge">
<title>Node2&#45;&gt;Node3</title>
<path fill="none" stroke="midnightblue" d="M171.28,-73.38C161.16,-75.67 149.85,-78.23 140.07,-80.44"/>
<polygon fill="midnightblue" stroke="midnightblue" points="172.29,-76.74 181.27,-71.12 170.75,-69.92 172.29,-76.74"/>
</g>
<!-- Node65 -->
<g id="node7" class="node">
<title>Node65</title>
<g id="a_node7"><a xlink:href="navier4_8f.html#abff3f3a3a3b301fbd3e883cb30d2d967" target="_top" xlink:title=" ">
<polygon fill="white" stroke="red" points="90,-38.5 90,-57.5 139,-57.5 139,-38.5 90,-38.5"/>
<text text-anchor="middle" x="114.5" y="-45.5" font-family="Helvetica,sans-Serif" font-size="10.00">hmhzpf</text>
</a>
</g>
</g>
<!-- Node2&#45;&gt;Node65 -->
<g id="edge6" class="edge">
<title>Node2&#45;&gt;Node65</title>
<path fill="none" stroke="midnightblue" d="M171.35,-60.63C160.89,-58.27 149.14,-55.61 139.12,-53.34"/>
<polygon fill="midnightblue" stroke="midnightblue" points="170.75,-64.08 181.27,-62.88 172.29,-57.26 170.75,-64.08"/>
</g>
<!-- Node4 -->
<g id="node4" class="node">
<title>Node4</title>
<g id="a_node4"><a xlink:href="eigsolv_8f.html#a285ca4aa2354ca8584af31946d6761c2" target="_top" xlink:title=" ">
<polygon fill="white" stroke="red" points="0,-114.5 0,-133.5 53,-133.5 53,-114.5 0,-114.5"/>
<text text-anchor="middle" x="26.5" y="-121.5" font-family="Helvetica,sans-Serif" font-size="10.00">alpham1</text>
</a>
</g>
</g>
<!-- Node3&#45;&gt;Node4 -->
<g id="edge3" class="edge">
<title>Node3&#45;&gt;Node4</title>
<path fill="none" stroke="midnightblue" d="M82.48,-99.71C71.45,-104.58 59.28,-109.96 49.19,-114.41"/>
<polygon fill="midnightblue" stroke="midnightblue" points="84.07,-102.83 91.8,-95.59 81.24,-96.43 84.07,-102.83"/>
</g>
<!-- Node15 -->
<g id="node5" class="node">
<title>Node15</title>
<g id="a_node5"><a xlink:href="perturb_8f.html#af07508f1eb200c9ae22de3620ae45d70" target="_top" xlink:title=" ">
<polygon fill="white" stroke="red" points="1.5,-76.5 1.5,-95.5 51.5,-95.5 51.5,-76.5 1.5,-76.5"/>
<text text-anchor="middle" x="26.5" y="-83.5" font-family="Helvetica,sans-Serif" font-size="10.00">cdscalp</text>
</a>
</g>
</g>
<!-- Node3&#45;&gt;Node15 -->
<g id="edge4" class="edge">
<title>Node3&#45;&gt;Node15</title>
<path fill="none" stroke="midnightblue" d="M78.42,-86C69.45,-86 60.01,-86 51.73,-86"/>
<polygon fill="midnightblue" stroke="midnightblue" points="78.63,-89.5 88.63,-86 78.63,-82.5 78.63,-89.5"/>
</g>
<!-- Node17 -->
<g id="node6" class="node">
<title>Node17</title>
<g id="a_node6"><a xlink:href="navier1_8f.html#aec24385a47394ac281dc04124fff7618" target="_top" xlink:title=" ">
<polygon fill="white" stroke="red" points="6,-38.5 6,-57.5 47,-57.5 47,-38.5 6,-38.5"/>
<text text-anchor="middle" x="26.5" y="-45.5" font-family="Helvetica,sans-Serif" font-size="10.00">eprec</text>
</a>
</g>
</g>
<!-- Node3&#45;&gt;Node17 -->
<g id="edge5" class="edge">
<title>Node3&#45;&gt;Node17</title>
<path fill="none" stroke="midnightblue" d="M82.31,-72.22C70.57,-67.03 57.54,-61.27 47.14,-56.68"/>
<polygon fill="midnightblue" stroke="midnightblue" points="81.24,-75.57 91.8,-76.41 84.07,-69.17 81.24,-75.57"/>
</g>
<!-- Node72 -->
<g id="node9" class="node">
<title>Node72</title>
<g id="a_node9"><a xlink:href="subs1_8f.html#aab6bde102bb9bd893cf1880c2d7746ad" target="_top" xlink:title=" ">
<polygon fill="white" stroke="red" points="176,-0.5 176,-19.5 225,-19.5 225,-0.5 176,-0.5"/>
<text text-anchor="middle" x="200.5" y="-7.5" font-family="Helvetica,sans-Serif" font-size="10.00">hmhzsf</text>
</a>
</g>
</g>
<!-- Node71&#45;&gt;Node72 -->
<g id="edge8" class="edge">
<title>Node71&#45;&gt;Node72</title>
<path fill="none" stroke="midnightblue" d="M261.56,-10C249.62,-10 236.34,-10 225.3,-10"/>
<polygon fill="midnightblue" stroke="midnightblue" points="261.61,-13.5 271.61,-10 261.61,-6.5 261.61,-13.5"/>
</g>
<!-- Node76&#45;&gt;Node2 -->
<g id="edge10" class="edge">
<title>Node76&#45;&gt;Node2</title>
<path fill="none" stroke="midnightblue" d="M250.89,-56.86C239.87,-59.12 228.61,-61.43 219.63,-63.28"/>
<polygon fill="midnightblue" stroke="midnightblue" points="251.78,-60.25 260.87,-54.81 250.37,-53.39 251.78,-60.25"/>
</g>
</g>
</svg>
