<?xml version="1.0" encoding="UTF-8" standalone="no"?>
<!DOCTYPE svg PUBLIC "-//W3C//DTD SVG 1.1//EN"
 "http://www.w3.org/Graphics/SVG/1.1/DTD/svg11.dtd">
<!-- Generated by graphviz version 2.46.0 (0)
 -->
<!-- Title: rescale_abhalf Pages: 1 -->
<svg width="551pt" height="180pt"
 viewBox="0.00 0.00 551.00 180.00" xmlns="http://www.w3.org/2000/svg" xmlns:xlink="http://www.w3.org/1999/xlink">
<g id="graph0" class="graph" transform="scale(1 1) rotate(0) translate(4 176)">
<title>rescale_abhalf</title>
<polygon fill="white" stroke="transparent" points="-4,4 -4,-176 547,-176 547,4 -4,4"/>
<!-- Node1 -->
<g id="node1" class="node">
<title>Node1</title>
<g id="a_node1"><a xlink:title=" ">
<polygon fill="#bfbfbf" stroke="black" points="463,-95.5 463,-114.5 543,-114.5 543,-95.5 463,-95.5"/>
<text text-anchor="middle" x="503" y="-102.5" font-family="Helvetica,sans-Serif" font-size="10.00">rescale_abhalf</text>
</a>
</g>
</g>
<!-- Node2 -->
<g id="node2" class="node">
<title>Node2</title>
<g id="a_node2"><a xlink:href="hmholtz_8f.html#abd6f3614f9436265a22e0d5354f18926" target="_top" xlink:title=" ">
<polygon fill="white" stroke="black" points="309,-95.5 309,-114.5 427,-114.5 427,-95.5 309,-95.5"/>
<text text-anchor="middle" x="368" y="-102.5" font-family="Helvetica,sans-Serif" font-size="10.00">set_fdm_prec_h1a_gen</text>
</a>
</g>
</g>
<!-- Node1&#45;&gt;Node2 -->
<g id="edge1" class="edge">
<title>Node1&#45;&gt;Node2</title>
<path fill="none" stroke="midnightblue" d="M452.56,-105C444.28,-105 435.61,-105 427.13,-105"/>
<polygon fill="midnightblue" stroke="midnightblue" points="452.81,-108.5 462.81,-105 452.81,-101.5 452.81,-108.5"/>
</g>
<!-- Node3 -->
<g id="node3" class="node">
<title>Node3</title>
<g id="a_node3"><a xlink:href="hmholtz_8f.html#ac60fe35dd9bdf67147fe5cc0898a49bb" target="_top" xlink:title=" ">
<polygon fill="white" stroke="black" points="176,-95.5 176,-114.5 273,-114.5 273,-95.5 176,-95.5"/>
<text text-anchor="middle" x="224.5" y="-102.5" font-family="Helvetica,sans-Serif" font-size="10.00">set_fdm_prec_h1a</text>
</a>
</g>
</g>
<!-- Node2&#45;&gt;Node3 -->
<g id="edge2" class="edge">
<title>Node2&#45;&gt;Node3</title>
<path fill="none" stroke="midnightblue" d="M298.38,-105C289.93,-105 281.44,-105 273.4,-105"/>
<polygon fill="midnightblue" stroke="midnightblue" points="298.63,-108.5 308.63,-105 298.63,-101.5 298.63,-108.5"/>
</g>
<!-- Node4 -->
<g id="node4" class="node">
<title>Node4</title>
<g id="a_node4"><a xlink:href="subs1_8f.html#afbde33b8466b90206f1fa13b3800b7d5" target="_top" xlink:title=" ">
<polygon fill="white" stroke="black" points="91.5,-133.5 91.5,-152.5 137.5,-152.5 137.5,-133.5 91.5,-133.5"/>
<text text-anchor="middle" x="114.5" y="-140.5" font-family="Helvetica,sans-Serif" font-size="10.00">cggosf</text>
</a>
</g>
</g>
<!-- Node3&#45;&gt;Node4 -->
<g id="edge3" class="edge">
<title>Node3&#45;&gt;Node4</title>
<path fill="none" stroke="midnightblue" d="M186.49,-118.02C170.24,-123.74 151.71,-130.26 137.66,-135.2"/>
<polygon fill="midnightblue" stroke="midnightblue" points="187.98,-121.21 196.25,-114.59 185.65,-114.61 187.98,-121.21"/>
</g>
<!-- Node61 -->
<g id="node6" class="node">
<title>Node61</title>
<g id="a_node6"><a xlink:href="hmholtz_8f.html#a52dcac1fe733719d4987d36aac022e4d" target="_top" xlink:title=" ">
<polygon fill="white" stroke="red" points="89,-76.5 89,-95.5 140,-95.5 140,-76.5 89,-76.5"/>
<text text-anchor="middle" x="114.5" y="-83.5" font-family="Helvetica,sans-Serif" font-size="10.00">hmholtz</text>
</a>
</g>
</g>
<!-- Node3&#45;&gt;Node61 -->
<g id="edge5" class="edge">
<title>Node3&#45;&gt;Node61</title>
<path fill="none" stroke="midnightblue" d="M165.95,-94.88C156.87,-93.28 147.92,-91.7 140.14,-90.33"/>
<polygon fill="midnightblue" stroke="midnightblue" points="165.36,-98.33 175.82,-96.61 166.57,-91.43 165.36,-98.33"/>
</g>
<!-- Node5 -->
<g id="node5" class="node">
<title>Node5</title>
<g id="a_node5"><a xlink:href="subs1_8f.html#aab6bde102bb9bd893cf1880c2d7746ad" target="_top" xlink:title=" ">
<polygon fill="white" stroke="red" points="2,-152.5 2,-171.5 51,-171.5 51,-152.5 2,-152.5"/>
<text text-anchor="middle" x="26.5" y="-159.5" font-family="Helvetica,sans-Serif" font-size="10.00">hmhzsf</text>
</a>
</g>
</g>
<!-- Node4&#45;&gt;Node5 -->
<g id="edge4" class="edge">
<title>Node4&#45;&gt;Node5</title>
<path fill="none" stroke="midnightblue" d="M81.3,-150.11C71.27,-152.33 60.4,-154.73 51.08,-156.79"/>
<polygon fill="midnightblue" stroke="midnightblue" points="82.34,-153.47 91.35,-147.89 80.83,-146.63 82.34,-153.47"/>
</g>
<!-- Node62 -->
<g id="node7" class="node">
<title>Node62</title>
<g id="a_node7"><a xlink:href="eigsolv_8f.html#a285ca4aa2354ca8584af31946d6761c2" target="_top" xlink:title=" ">
<polygon fill="white" stroke="red" points="0,-114.5 0,-133.5 53,-133.5 53,-114.5 0,-114.5"/>
<text text-anchor="middle" x="26.5" y="-121.5" font-family="Helvetica,sans-Serif" font-size="10.00">alpham1</text>
</a>
</g>
</g>
<!-- Node61&#45;&gt;Node62 -->
<g id="edge6" class="edge">
<title>Node61&#45;&gt;Node62</title>
<path fill="none" stroke="midnightblue" d="M82.48,-99.71C71.45,-104.58 59.28,-109.96 49.19,-114.41"/>
<polygon fill="midnightblue" stroke="midnightblue" points="84.07,-102.83 91.8,-95.59 81.24,-96.43 84.07,-102.83"/>
</g>
<!-- Node63 -->
<g id="node8" class="node">
<title>Node63</title>
<g id="a_node8"><a xlink:href="perturb_8f.html#af07508f1eb200c9ae22de3620ae45d70" target="_top" xlink:title=" ">
<polygon fill="white" stroke="red" points="1.5,-76.5 1.5,-95.5 51.5,-95.5 51.5,-76.5 1.5,-76.5"/>
<text text-anchor="middle" x="26.5" y="-83.5" font-family="Helvetica,sans-Serif" font-size="10.00">cdscalp</text>
</a>
</g>
</g>
<!-- Node61&#45;&gt;Node63 -->
<g id="edge7" class="edge">
<title>Node61&#45;&gt;Node63</title>
<path fill="none" stroke="midnightblue" d="M78.42,-86C69.45,-86 60.01,-86 51.73,-86"/>
<polygon fill="midnightblue" stroke="midnightblue" points="78.63,-89.5 88.63,-86 78.63,-82.5 78.63,-89.5"/>
</g>
<!-- Node65 -->
<g id="node9" class="node">
<title>Node65</title>
<g id="a_node9"><a xlink:href="navier1_8f.html#aec24385a47394ac281dc04124fff7618" target="_top" xlink:title=" ">
<polygon fill="white" stroke="red" points="6,-38.5 6,-57.5 47,-57.5 47,-38.5 6,-38.5"/>
<text text-anchor="middle" x="26.5" y="-45.5" font-family="Helvetica,sans-Serif" font-size="10.00">eprec</text>
</a>
</g>
</g>
<!-- Node61&#45;&gt;Node65 -->
<g id="edge8" class="edge">
<title>Node61&#45;&gt;Node65</title>
<path fill="none" stroke="midnightblue" d="M82.31,-72.22C70.57,-67.03 57.54,-61.27 47.14,-56.68"/>
<polygon fill="midnightblue" stroke="midnightblue" points="81.24,-75.57 91.8,-76.41 84.07,-69.17 81.24,-75.57"/>
</g>
<!-- Node67 -->
<g id="node10" class="node">
<title>Node67</title>
<g id="a_node10"><a xlink:href="navier4_8f.html#a2c8eef885087bb1ef49c29a936b96918" target="_top" xlink:title=" ">
<polygon fill="white" stroke="red" points="4,-0.5 4,-19.5 49,-19.5 49,-0.5 4,-0.5"/>
<text text-anchor="middle" x="26.5" y="-7.5" font-family="Helvetica,sans-Serif" font-size="10.00">hsolve</text>
</a>
</g>
</g>
<!-- Node61&#45;&gt;Node67 -->
<g id="edge9" class="edge">
<title>Node61&#45;&gt;Node67</title>
<path fill="none" stroke="midnightblue" d="M96.54,-69.02C84.68,-57.39 68.27,-41.81 53,-29 49.19,-25.81 44.91,-22.51 40.96,-19.58"/>
<polygon fill="midnightblue" stroke="midnightblue" points="94.4,-71.82 103.97,-76.36 99.32,-66.84 94.4,-71.82"/>
</g>
</g>
</svg>
