<?xml version="1.0" encoding="UTF-8" standalone="no"?>
<!DOCTYPE svg PUBLIC "-//W3C//DTD SVG 1.1//EN"
 "http://www.w3.org/Graphics/SVG/1.1/DTD/svg11.dtd">
<!-- Generated by graphviz version 2.46.0 (0)
 -->
<!-- Title: setprec Pages: 1 -->
<svg width="241pt" height="218pt"
 viewBox="0.00 0.00 241.00 218.00" xmlns="http://www.w3.org/2000/svg" xmlns:xlink="http://www.w3.org/1999/xlink">
<g id="graph0" class="graph" transform="scale(1 1) rotate(0) translate(4 214)">
<title>setprec</title>
<polygon fill="white" stroke="transparent" points="-4,4 -4,-214 237,-214 237,4 -4,4"/>
<!-- Node1 -->
<g id="node1" class="node">
<title>Node1</title>
<g id="a_node1"><a xlink:title=" ">
<polygon fill="#bfbfbf" stroke="black" points="0,-95.5 0,-114.5 49,-114.5 49,-95.5 0,-95.5"/>
<text text-anchor="middle" x="24.5" y="-102.5" font-family="Helvetica,sans-Serif" font-size="10.00">setprec</text>
</a>
</g>
</g>
<!-- Node2 -->
<g id="node2" class="node">
<title>Node2</title>
<g id="a_node2"><a xlink:href="math_8f.html#a1f336314da3012286837ede20a0495c6" target="_top" xlink:title=" ">
<polygon fill="white" stroke="black" points="85.5,-190.5 85.5,-209.5 135.5,-209.5 135.5,-190.5 85.5,-190.5"/>
<text text-anchor="middle" x="110.5" y="-197.5" font-family="Helvetica,sans-Serif" font-size="10.00">addcol3</text>
</a>
</g>
</g>
<!-- Node1&#45;&gt;Node2 -->
<g id="edge1" class="edge">
<title>Node1&#45;&gt;Node2</title>
<path fill="none" stroke="midnightblue" d="M31.95,-114.74C42.2,-129.83 63.27,-159.37 85,-181 85.92,-181.92 86.89,-182.83 87.88,-183.74"/>
<polygon fill="midnightblue" stroke="midnightblue" points="85.85,-186.6 95.78,-190.31 90.34,-181.22 85.85,-186.6"/>
</g>
<!-- Node5 -->
<g id="node4" class="node">
<title>Node5</title>
<g id="a_node4"><a xlink:href="math_8f.html#a3470db04166d9ba91454a14cc17dbec2" target="_top" xlink:title=" ">
<polygon fill="white" stroke="black" points="93,-152.5 93,-171.5 128,-171.5 128,-152.5 93,-152.5"/>
<text text-anchor="middle" x="110.5" y="-159.5" font-family="Helvetica,sans-Serif" font-size="10.00">col2</text>
</a>
</g>
</g>
<!-- Node1&#45;&gt;Node5 -->
<g id="edge3" class="edge">
<title>Node1&#45;&gt;Node5</title>
<path fill="none" stroke="midnightblue" d="M39.75,-114.67C52.62,-123.4 71.78,-136.4 86.76,-146.57"/>
<polygon fill="midnightblue" stroke="midnightblue" points="85.22,-149.75 95.46,-152.47 89.15,-143.96 85.22,-149.75"/>
</g>
<!-- Node6 -->
<g id="node5" class="node">
<title>Node6</title>
<g id="a_node5"><a xlink:href="dssum_8f.html#ad67373714b1c3bafed536081167e2cd6" target="_top" xlink:title=" ">
<polygon fill="white" stroke="black" points="87.5,-114.5 87.5,-133.5 133.5,-133.5 133.5,-114.5 87.5,-114.5"/>
<text text-anchor="middle" x="110.5" y="-121.5" font-family="Helvetica,sans-Serif" font-size="10.00">dssum</text>
</a>
</g>
</g>
<!-- Node1&#45;&gt;Node6 -->
<g id="edge5" class="edge">
<title>Node1&#45;&gt;Node6</title>
<path fill="none" stroke="midnightblue" d="M49.35,-110.39C58.11,-112.38 68.18,-114.65 77.54,-116.77"/>
<polygon fill="midnightblue" stroke="midnightblue" points="76.8,-120.19 87.32,-118.98 78.34,-113.36 76.8,-120.19"/>
</g>
<!-- Node9 -->
<g id="node7" class="node">
<title>Node9</title>
<g id="a_node7"><a xlink:href="math_8f.html#ae73fec4554ac4d498b4de4e092fb32fa" target="_top" xlink:title=" ">
<polygon fill="white" stroke="black" points="87,-76.5 87,-95.5 134,-95.5 134,-76.5 87,-76.5"/>
<text text-anchor="middle" x="110.5" y="-83.5" font-family="Helvetica,sans-Serif" font-size="10.00">invcol1</text>
</a>
</g>
</g>
<!-- Node1&#45;&gt;Node9 -->
<g id="edge8" class="edge">
<title>Node1&#45;&gt;Node9</title>
<path fill="none" stroke="midnightblue" d="M49.35,-99.61C57.87,-97.68 67.64,-95.47 76.79,-93.4"/>
<polygon fill="midnightblue" stroke="midnightblue" points="77.77,-96.77 86.75,-91.15 76.23,-89.94 77.77,-96.77"/>
</g>
<!-- Node10 -->
<g id="node8" class="node">
<title>Node10</title>
<g id="a_node8"><a xlink:href="math_8f.html#af44de42b023a4a68cd98ea341204342d" target="_top" xlink:title=" ">
<polygon fill="white" stroke="black" points="91.5,-38.5 91.5,-57.5 129.5,-57.5 129.5,-38.5 91.5,-38.5"/>
<text text-anchor="middle" x="110.5" y="-45.5" font-family="Helvetica,sans-Serif" font-size="10.00">rzero</text>
</a>
</g>
</g>
<!-- Node1&#45;&gt;Node10 -->
<g id="edge9" class="edge">
<title>Node1&#45;&gt;Node10</title>
<path fill="none" stroke="midnightblue" d="M39.75,-95.33C52.62,-86.6 71.78,-73.6 86.76,-63.43"/>
<polygon fill="midnightblue" stroke="midnightblue" points="89.15,-66.04 95.46,-57.53 85.22,-60.25 89.15,-66.04"/>
</g>
<!-- Node11 -->
<g id="node9" class="node">
<title>Node11</title>
<g id="a_node9"><a xlink:href="subs1_8f.html#a8a9da5a10943bfb2176353bd597f87ce" target="_top" xlink:title=" ">
<polygon fill="white" stroke="black" points="85,-0.5 85,-19.5 136,-19.5 136,-0.5 85,-0.5"/>
<text text-anchor="middle" x="110.5" y="-7.5" font-family="Helvetica,sans-Serif" font-size="10.00">setaxdy</text>
</a>
</g>
</g>
<!-- Node1&#45;&gt;Node11 -->
<g id="edge10" class="edge">
<title>Node1&#45;&gt;Node11</title>
<path fill="none" stroke="midnightblue" d="M31.95,-95.26C42.2,-80.17 63.27,-50.63 85,-29 85.92,-28.08 86.89,-27.17 87.88,-26.26"/>
<polygon fill="midnightblue" stroke="midnightblue" points="90.34,-28.78 95.78,-19.69 85.85,-23.4 90.34,-28.78"/>
</g>
<!-- Node3 -->
<g id="node3" class="node">
<title>Node3</title>
<g id="a_node3"><a xlink:href="comm__mpi_8f.html#af06ec29f06aac3f8809e19de2a7e8946" target="_top" xlink:title=" ">
<polygon fill="white" stroke="red" points="172,-152.5 172,-171.5 233,-171.5 233,-152.5 172,-152.5"/>
<text text-anchor="middle" x="202.5" y="-159.5" font-family="Helvetica,sans-Serif" font-size="10.00">dnekclock</text>
</a>
</g>
</g>
<!-- Node2&#45;&gt;Node3 -->
<g id="edge2" class="edge">
<title>Node2&#45;&gt;Node3</title>
<path fill="none" stroke="midnightblue" d="M134.21,-190.41C144.87,-185.91 157.76,-180.47 169.4,-175.56"/>
<polygon fill="midnightblue" stroke="midnightblue" points="170.95,-178.7 178.8,-171.59 168.22,-172.25 170.95,-178.7"/>
</g>
<!-- Node5&#45;&gt;Node3 -->
<g id="edge4" class="edge">
<title>Node5&#45;&gt;Node3</title>
<path fill="none" stroke="midnightblue" d="M128.01,-162C137.51,-162 149.88,-162 161.76,-162"/>
<polygon fill="midnightblue" stroke="midnightblue" points="161.99,-165.5 171.99,-162 161.99,-158.5 161.99,-165.5"/>
</g>
<!-- Node6&#45;&gt;Node3 -->
<g id="edge6" class="edge">
<title>Node6&#45;&gt;Node3</title>
<path fill="none" stroke="midnightblue" d="M133.75,-133.39C144.48,-137.93 157.56,-143.45 169.36,-148.43"/>
<polygon fill="midnightblue" stroke="midnightblue" points="168.31,-151.79 178.88,-152.45 171.03,-145.34 168.31,-151.79"/>
</g>
<!-- Node7 -->
<g id="node6" class="node">
<title>Node7</title>
<g id="a_node6"><a xlink:href="comm__mpi_8f.html#a4acb4d8e379294232e9219bec063d8f3" target="_top" xlink:title=" ">
<polygon fill="white" stroke="red" points="173,-114.5 173,-133.5 232,-133.5 232,-114.5 173,-114.5"/>
<text text-anchor="middle" x="202.5" y="-121.5" font-family="Helvetica,sans-Serif" font-size="10.00">nekgsync</text>
</a>
</g>
</g>
<!-- Node6&#45;&gt;Node7 -->
<g id="edge7" class="edge">
<title>Node6&#45;&gt;Node7</title>
<path fill="none" stroke="midnightblue" d="M133.75,-124C142.48,-124 152.76,-124 162.64,-124"/>
<polygon fill="midnightblue" stroke="midnightblue" points="162.71,-127.5 172.71,-124 162.71,-120.5 162.71,-127.5"/>
</g>
<!-- Node12 -->
<g id="node10" class="node">
<title>Node12</title>
<g id="a_node10"><a xlink:href="math_8f.html#a3b43508554f14bdea8e14473d7d0803c" target="_top" xlink:title=" ">
<polygon fill="white" stroke="black" points="183.5,-0.5 183.5,-19.5 221.5,-19.5 221.5,-0.5 183.5,-0.5"/>
<text text-anchor="middle" x="202.5" y="-7.5" font-family="Helvetica,sans-Serif" font-size="10.00">copy</text>
</a>
</g>
</g>
<!-- Node11&#45;&gt;Node12 -->
<g id="edge11" class="edge">
<title>Node11&#45;&gt;Node12</title>
<path fill="none" stroke="midnightblue" d="M136.09,-10C147.49,-10 161.1,-10 172.95,-10"/>
<polygon fill="midnightblue" stroke="midnightblue" points="173.22,-13.5 183.22,-10 173.22,-6.5 173.22,-13.5"/>
</g>
</g>
</svg>
