<?xml version="1.0" encoding="UTF-8" standalone="no"?>
<!DOCTYPE svg PUBLIC "-//W3C//DTD SVG 1.1//EN"
 "http://www.w3.org/Graphics/SVG/1.1/DTD/svg11.dtd">
<!-- Generated by graphviz version 2.46.0 (0)
 -->
<!-- Title: make_hpf Pages: 1 -->
<svg width="277pt" height="218pt"
 viewBox="0.00 0.00 277.00 218.00" xmlns="http://www.w3.org/2000/svg" xmlns:xlink="http://www.w3.org/1999/xlink">
<g id="graph0" class="graph" transform="scale(1 1) rotate(0) translate(4 214)">
<title>make_hpf</title>
<polygon fill="white" stroke="transparent" points="-4,4 -4,-214 273,-214 273,4 -4,4"/>
<!-- Node1 -->
<g id="node1" class="node">
<title>Node1</title>
<g id="a_node1"><a xlink:title=" ">
<polygon fill="#bfbfbf" stroke="black" points="0,-95.5 0,-114.5 59,-114.5 59,-95.5 0,-95.5"/>
<text text-anchor="middle" x="29.5" y="-102.5" font-family="Helvetica,sans-Serif" font-size="10.00">make_hpf</text>
</a>
</g>
</g>
<!-- Node2 -->
<g id="node2" class="node">
<title>Node2</title>
<g id="a_node2"><a xlink:href="math_8f.html#a1f336314da3012286837ede20a0495c6" target="_top" xlink:title=" ">
<polygon fill="white" stroke="black" points="108.5,-190.5 108.5,-209.5 158.5,-209.5 158.5,-190.5 108.5,-190.5"/>
<text text-anchor="middle" x="133.5" y="-197.5" font-family="Helvetica,sans-Serif" font-size="10.00">addcol3</text>
</a>
</g>
</g>
<!-- Node1&#45;&gt;Node2 -->
<g id="edge1" class="edge">
<title>Node1&#45;&gt;Node2</title>
<path fill="none" stroke="midnightblue" d="M37,-114.97C47.62,-130.64 70,-161.28 95,-181 96.82,-182.43 98.76,-183.8 100.76,-185.1"/>
<polygon fill="midnightblue" stroke="midnightblue" points="99.4,-188.35 109.8,-190.33 102.9,-182.29 99.4,-188.35"/>
</g>
<!-- Node5 -->
<g id="node4" class="node">
<title>Node5</title>
<g id="a_node4"><a xlink:href="hpf_8f.html#a2ee674be05e81d2fbd9911ce3b2960ed" target="_top" xlink:title=" ">
<polygon fill="white" stroke="red" points="98,-114.5 98,-133.5 169,-133.5 169,-114.5 98,-114.5"/>
<text text-anchor="middle" x="133.5" y="-121.5" font-family="Helvetica,sans-Serif" font-size="10.00">build_hpf_fld</text>
</a>
</g>
</g>
<!-- Node1&#45;&gt;Node5 -->
<g id="edge3" class="edge">
<title>Node1&#45;&gt;Node5</title>
<path fill="none" stroke="midnightblue" d="M59.18,-110.34C68.11,-112 78.16,-113.88 87.9,-115.69"/>
<polygon fill="midnightblue" stroke="midnightblue" points="87.4,-119.16 97.88,-117.55 88.69,-112.28 87.4,-119.16"/>
</g>
<!-- Node9 -->
<g id="node7" class="node">
<title>Node9</title>
<g id="a_node7"><a xlink:href="hpf_8f.html#aa2c1f548d5b9a2cb69bae6085dda9d95" target="_top" xlink:title=" ">
<polygon fill="white" stroke="red" points="95,-152.5 95,-171.5 172,-171.5 172,-152.5 95,-152.5"/>
<text text-anchor="middle" x="133.5" y="-159.5" font-family="Helvetica,sans-Serif" font-size="10.00">build_hpf_mat</text>
</a>
</g>
</g>
<!-- Node1&#45;&gt;Node9 -->
<g id="edge6" class="edge">
<title>Node1&#45;&gt;Node9</title>
<path fill="none" stroke="midnightblue" d="M46.24,-114.65C59.2,-122.51 78.13,-133.77 95,-143 97.88,-144.58 100.91,-146.19 103.94,-147.77"/>
<polygon fill="midnightblue" stroke="midnightblue" points="102.42,-150.92 112.91,-152.37 105.61,-144.69 102.42,-150.92"/>
</g>
<!-- Node17 -->
<g id="node8" class="node">
<title>Node17</title>
<g id="a_node8"><a xlink:href="math_8f.html#ad2b51b68d370651f4f6d81952503e7be" target="_top" xlink:title=" ">
<polygon fill="white" stroke="black" points="113,-76.5 113,-95.5 154,-95.5 154,-76.5 113,-76.5"/>
<text text-anchor="middle" x="133.5" y="-83.5" font-family="Helvetica,sans-Serif" font-size="10.00">cmult</text>
</a>
</g>
</g>
<!-- Node1&#45;&gt;Node17 -->
<g id="edge8" class="edge">
<title>Node1&#45;&gt;Node17</title>
<path fill="none" stroke="midnightblue" d="M59.18,-99.66C72.8,-97.12 89.06,-94.09 102.81,-91.53"/>
<polygon fill="midnightblue" stroke="midnightblue" points="103.55,-94.95 112.74,-89.68 102.27,-88.07 103.55,-94.95"/>
</g>
<!-- Node18 -->
<g id="node9" class="node">
<title>Node18</title>
<g id="a_node9"><a xlink:href="hpf_8f.html#a79e59cf16751d7adf8bc162441fcbd87" target="_top" xlink:title=" ">
<polygon fill="white" stroke="red" points="98,-38.5 98,-57.5 169,-57.5 169,-38.5 98,-38.5"/>
<text text-anchor="middle" x="133.5" y="-45.5" font-family="Helvetica,sans-Serif" font-size="10.00">hpf_trns_fcn</text>
</a>
</g>
</g>
<!-- Node1&#45;&gt;Node18 -->
<g id="edge9" class="edge">
<title>Node1&#45;&gt;Node18</title>
<path fill="none" stroke="midnightblue" d="M46.24,-95.35C59.2,-87.49 78.13,-76.23 95,-67 97.88,-65.42 100.91,-63.81 103.94,-62.23"/>
<polygon fill="midnightblue" stroke="midnightblue" points="105.61,-65.31 112.91,-57.63 102.42,-59.08 105.61,-65.31"/>
</g>
<!-- Node21 -->
<g id="node10" class="node">
<title>Node21</title>
<g id="a_node10"><a xlink:href="navier1_8f.html#a4f3a0cef18550f5d31ec6c04915c7522" target="_top" xlink:title=" ">
<polygon fill="white" stroke="black" points="103,-0.5 103,-19.5 164,-19.5 164,-0.5 103,-0.5"/>
<text text-anchor="middle" x="133.5" y="-7.5" font-family="Helvetica,sans-Serif" font-size="10.00">opadd2col</text>
</a>
</g>
</g>
<!-- Node1&#45;&gt;Node21 -->
<g id="edge10" class="edge">
<title>Node1&#45;&gt;Node21</title>
<path fill="none" stroke="midnightblue" d="M37,-95.03C47.62,-79.36 70,-48.72 95,-29 96.82,-27.57 98.76,-26.2 100.76,-24.9"/>
<polygon fill="midnightblue" stroke="midnightblue" points="102.9,-27.71 109.8,-19.67 99.4,-21.65 102.9,-27.71"/>
</g>
<!-- Node3 -->
<g id="node3" class="node">
<title>Node3</title>
<g id="a_node3"><a xlink:href="comm__mpi_8f.html#af06ec29f06aac3f8809e19de2a7e8946" target="_top" xlink:title=" ">
<polygon fill="white" stroke="red" points="208,-190.5 208,-209.5 269,-209.5 269,-190.5 208,-190.5"/>
<text text-anchor="middle" x="238.5" y="-197.5" font-family="Helvetica,sans-Serif" font-size="10.00">dnekclock</text>
</a>
</g>
</g>
<!-- Node2&#45;&gt;Node3 -->
<g id="edge2" class="edge">
<title>Node2&#45;&gt;Node3</title>
<path fill="none" stroke="midnightblue" d="M158.65,-200C170.28,-200 184.54,-200 197.72,-200"/>
<polygon fill="midnightblue" stroke="midnightblue" points="197.99,-203.5 207.99,-200 197.99,-196.5 197.99,-203.5"/>
</g>
<!-- Node6 -->
<g id="node5" class="node">
<title>Node6</title>
<g id="a_node5"><a xlink:href="math_8f.html#a3b43508554f14bdea8e14473d7d0803c" target="_top" xlink:title=" ">
<polygon fill="white" stroke="black" points="219.5,-152.5 219.5,-171.5 257.5,-171.5 257.5,-152.5 219.5,-152.5"/>
<text text-anchor="middle" x="238.5" y="-159.5" font-family="Helvetica,sans-Serif" font-size="10.00">copy</text>
</a>
</g>
</g>
<!-- Node5&#45;&gt;Node6 -->
<g id="edge4" class="edge">
<title>Node5&#45;&gt;Node6</title>
<path fill="none" stroke="midnightblue" d="M160.49,-133.59C175.55,-139.14 194.5,-146.14 209.83,-151.79"/>
<polygon fill="midnightblue" stroke="midnightblue" points="208.71,-155.11 219.31,-155.29 211.14,-148.54 208.71,-155.11"/>
</g>
<!-- Node7 -->
<g id="node6" class="node">
<title>Node7</title>
<g id="a_node6"><a xlink:href="math_8f.html#acc66fa3dd9d846331bd95c9c8abe93ae" target="_top" xlink:title=" ">
<polygon fill="white" stroke="black" points="219.5,-114.5 219.5,-133.5 257.5,-133.5 257.5,-114.5 219.5,-114.5"/>
<text text-anchor="middle" x="238.5" y="-121.5" font-family="Helvetica,sans-Serif" font-size="10.00">sub3</text>
</a>
</g>
</g>
<!-- Node5&#45;&gt;Node7 -->
<g id="edge5" class="edge">
<title>Node5&#45;&gt;Node7</title>
<path fill="none" stroke="midnightblue" d="M169.08,-124C182.1,-124 196.74,-124 209.13,-124"/>
<polygon fill="midnightblue" stroke="midnightblue" points="209.34,-127.5 219.34,-124 209.34,-120.5 209.34,-127.5"/>
</g>
<!-- Node9&#45;&gt;Node6 -->
<g id="edge7" class="edge">
<title>Node9&#45;&gt;Node6</title>
<path fill="none" stroke="midnightblue" d="M172.27,-162C184.45,-162 197.74,-162 209.13,-162"/>
<polygon fill="midnightblue" stroke="midnightblue" points="209.36,-165.5 219.36,-162 209.36,-158.5 209.36,-165.5"/>
</g>
</g>
</svg>
