<?xml version="1.0" encoding="UTF-8" standalone="no"?>
<!DOCTYPE svg PUBLIC "-//W3C//DTD SVG 1.1//EN"
 "http://www.w3.org/Graphics/SVG/1.1/DTD/svg11.dtd">
<!-- Generated by graphviz version 2.46.0 (0)
 -->
<!-- Title: build_hpf_mat Pages: 1 -->
<svg width="507pt" height="142pt"
 viewBox="0.00 0.00 507.00 142.00" xmlns="http://www.w3.org/2000/svg" xmlns:xlink="http://www.w3.org/1999/xlink">
<g id="graph0" class="graph" transform="scale(1 1) rotate(0) translate(4 138)">
<title>build_hpf_mat</title>
<polygon fill="white" stroke="transparent" points="-4,4 -4,-138 503,-138 503,4 -4,4"/>
<!-- Node1 -->
<g id="node1" class="node">
<title>Node1</title>
<g id="a_node1"><a xlink:title=" ">
<polygon fill="#bfbfbf" stroke="black" points="0,-76.5 0,-95.5 77,-95.5 77,-76.5 0,-76.5"/>
<text text-anchor="middle" x="38.5" y="-83.5" font-family="Helvetica,sans-Serif" font-size="10.00">build_hpf_mat</text>
</a>
</g>
</g>
<!-- Node2 -->
<g id="node2" class="node">
<title>Node2</title>
<g id="a_node2"><a xlink:href="math_8f.html#a3b43508554f14bdea8e14473d7d0803c" target="_top" xlink:title=" ">
<polygon fill="white" stroke="black" points="135.5,-114.5 135.5,-133.5 173.5,-133.5 173.5,-114.5 135.5,-114.5"/>
<text text-anchor="middle" x="154.5" y="-121.5" font-family="Helvetica,sans-Serif" font-size="10.00">copy</text>
</a>
</g>
</g>
<!-- Node1&#45;&gt;Node2 -->
<g id="edge1" class="edge">
<title>Node1&#45;&gt;Node2</title>
<path fill="none" stroke="midnightblue" d="M68.27,-95.59C85.91,-101.47 108.38,-108.96 125.82,-114.77"/>
<polygon fill="midnightblue" stroke="midnightblue" points="124.84,-118.14 135.44,-117.98 127.06,-111.5 124.84,-118.14"/>
</g>
<!-- Node3 -->
<g id="node3" class="node">
<title>Node3</title>
<g id="a_node3"><a xlink:href="navier5_8f.html#a433d25d905b7a824887d47406928b47b" target="_top" xlink:title=" ">
<polygon fill="white" stroke="black" points="129,-76.5 129,-95.5 180,-95.5 180,-76.5 129,-76.5"/>
<text text-anchor="middle" x="154.5" y="-83.5" font-family="Helvetica,sans-Serif" font-size="10.00">gaujordf</text>
</a>
</g>
</g>
<!-- Node1&#45;&gt;Node3 -->
<g id="edge2" class="edge">
<title>Node1&#45;&gt;Node3</title>
<path fill="none" stroke="midnightblue" d="M77.14,-86C90.55,-86 105.58,-86 118.74,-86"/>
<polygon fill="midnightblue" stroke="midnightblue" points="118.82,-89.5 128.82,-86 118.82,-82.5 118.82,-89.5"/>
</g>
<!-- Node8 -->
<g id="node8" class="node">
<title>Node8</title>
<g id="a_node8"><a xlink:href="hpf_8f.html#ae427fdcae61cfa60e92be399a33df470" target="_top" xlink:title=" ">
<polygon fill="white" stroke="black" points="113,-38.5 113,-57.5 196,-57.5 196,-38.5 113,-38.5"/>
<text text-anchor="middle" x="154.5" y="-45.5" font-family="Helvetica,sans-Serif" font-size="10.00">spec_coeff_init</text>
</a>
</g>
</g>
<!-- Node1&#45;&gt;Node8 -->
<g id="edge7" class="edge">
<title>Node1&#45;&gt;Node8</title>
<path fill="none" stroke="midnightblue" d="M68.27,-76.41C82.44,-71.69 99.74,-65.92 115.03,-60.82"/>
<polygon fill="midnightblue" stroke="midnightblue" points="116.36,-64.07 124.74,-57.59 114.15,-57.43 116.36,-64.07"/>
</g>
<!-- Node4 -->
<g id="node4" class="node">
<title>Node4</title>
<g id="a_node4"><a xlink:href="byte_8c.html#a2da8eeb074dfd3ffbfb3e9a4d301cda4" target="_top" xlink:title=" ">
<polygon fill="white" stroke="black" points="253,-114.5 253,-133.5 288,-133.5 288,-114.5 253,-114.5"/>
<text text-anchor="middle" x="270.5" y="-121.5" font-family="Helvetica,sans-Serif" font-size="10.00">exitt</text>
</a>
</g>
</g>
<!-- Node3&#45;&gt;Node4 -->
<g id="edge3" class="edge">
<title>Node3&#45;&gt;Node4</title>
<path fill="none" stroke="midnightblue" d="M180.24,-94.25C198.89,-100.46 224.41,-108.97 243.39,-115.3"/>
<polygon fill="midnightblue" stroke="midnightblue" points="242.31,-118.63 252.91,-118.47 244.53,-111.99 242.31,-118.63"/>
</g>
<!-- Node7 -->
<g id="node7" class="node">
<title>Node7</title>
<g id="a_node7"><a xlink:href="math_8f.html#a943dc1fc319c98267fac3af1e8010e9a" target="_top" xlink:title=" ">
<polygon fill="white" stroke="black" points="251.5,-76.5 251.5,-95.5 289.5,-95.5 289.5,-76.5 251.5,-76.5"/>
<text text-anchor="middle" x="270.5" y="-83.5" font-family="Helvetica,sans-Serif" font-size="10.00">izero</text>
</a>
</g>
</g>
<!-- Node3&#45;&gt;Node7 -->
<g id="edge6" class="edge">
<title>Node3&#45;&gt;Node7</title>
<path fill="none" stroke="midnightblue" d="M180.24,-86C198.17,-86 222.44,-86 241.16,-86"/>
<polygon fill="midnightblue" stroke="midnightblue" points="241.17,-89.5 251.17,-86 241.17,-82.5 241.17,-89.5"/>
</g>
<!-- Node5 -->
<g id="node5" class="node">
<title>Node5</title>
<g id="a_node5"><a xlink:href="comm__mpi_8f.html#acc8803a3787828530843112e0c48941b" target="_top" xlink:title=" ">
<polygon fill="white" stroke="black" points="345,-114.5 345,-133.5 395,-133.5 395,-114.5 345,-114.5"/>
<text text-anchor="middle" x="370" y="-121.5" font-family="Helvetica,sans-Serif" font-size="10.00">nek_die</text>
</a>
</g>
</g>
<!-- Node4&#45;&gt;Node5 -->
<g id="edge4" class="edge">
<title>Node4&#45;&gt;Node5</title>
<path fill="none" stroke="midnightblue" d="M288.04,-124C300.79,-124 318.85,-124 334.68,-124"/>
<polygon fill="midnightblue" stroke="midnightblue" points="334.69,-127.5 344.69,-124 334.69,-120.5 334.69,-127.5"/>
</g>
<!-- Node6 -->
<g id="node6" class="node">
<title>Node6</title>
<g id="a_node6"><a xlink:href="mpi__dummy_8f.html#a55e9a1619aadb638b14211ce21d7d566" target="_top" xlink:title=" ">
<polygon fill="white" stroke="black" points="431,-114.5 431,-133.5 499,-133.5 499,-114.5 431,-114.5"/>
<text text-anchor="middle" x="465" y="-121.5" font-family="Helvetica,sans-Serif" font-size="10.00">mpi_finalize</text>
</a>
</g>
</g>
<!-- Node5&#45;&gt;Node6 -->
<g id="edge5" class="edge">
<title>Node5&#45;&gt;Node6</title>
<path fill="none" stroke="midnightblue" d="M395.43,-124C403.25,-124 412.14,-124 420.88,-124"/>
<polygon fill="midnightblue" stroke="midnightblue" points="420.99,-127.5 430.99,-124 420.99,-120.5 420.99,-127.5"/>
</g>
<!-- Node9 -->
<g id="node9" class="node">
<title>Node9</title>
<g id="a_node9"><a xlink:href="navier5_8f.html#aa70d5b68f8013509276e16ae90a92720" target="_top" xlink:title=" ">
<polygon fill="white" stroke="black" points="232,-38.5 232,-57.5 309,-57.5 309,-38.5 232,-38.5"/>
<text text-anchor="middle" x="270.5" y="-45.5" font-family="Helvetica,sans-Serif" font-size="10.00">legendre_poly</text>
</a>
</g>
</g>
<!-- Node8&#45;&gt;Node9 -->
<g id="edge8" class="edge">
<title>Node8&#45;&gt;Node9</title>
<path fill="none" stroke="midnightblue" d="M196.01,-48C204.29,-48 213.08,-48 221.59,-48"/>
<polygon fill="midnightblue" stroke="midnightblue" points="221.78,-51.5 231.78,-48 221.78,-44.5 221.78,-51.5"/>
</g>
<!-- Node10 -->
<g id="node10" class="node">
<title>Node10</title>
<g id="a_node10"><a xlink:href="math_8f.html#a17c0ecae12cc5c6096939885da90ad2b" target="_top" xlink:title=" ">
<polygon fill="white" stroke="black" points="241,-0.5 241,-19.5 300,-19.5 300,-0.5 241,-0.5"/>
<text text-anchor="middle" x="270.5" y="-7.5" font-family="Helvetica,sans-Serif" font-size="10.00">transpose</text>
</a>
</g>
</g>
<!-- Node8&#45;&gt;Node10 -->
<g id="edge9" class="edge">
<title>Node8&#45;&gt;Node10</title>
<path fill="none" stroke="midnightblue" d="M184.27,-38.41C198.44,-33.69 215.74,-27.92 231.03,-22.82"/>
<polygon fill="midnightblue" stroke="midnightblue" points="232.36,-26.07 240.74,-19.59 230.15,-19.43 232.36,-26.07"/>
</g>
</g>
</svg>
