<?xml version="1.0" encoding="UTF-8" standalone="no"?>
<!DOCTYPE svg PUBLIC "-//W3C//DTD SVG 1.1//EN"
 "http://www.w3.org/Graphics/SVG/1.1/DTD/svg11.dtd">
<!-- Generated by graphviz version 2.46.0 (0)
 -->
<!-- Title: hsmg_schwarz_toext2d Pages: 1 -->
<svg width="614pt" height="104pt"
 viewBox="0.00 0.00 614.00 104.00" xmlns="http://www.w3.org/2000/svg" xmlns:xlink="http://www.w3.org/1999/xlink">
<g id="graph0" class="graph" transform="scale(1 1) rotate(0) translate(4 100)">
<title>hsmg_schwarz_toext2d</title>
<polygon fill="white" stroke="transparent" points="-4,4 -4,-100 610,-100 610,4 -4,4"/>
<!-- Node1 -->
<g id="node1" class="node">
<title>Node1</title>
<g id="a_node1"><a xlink:title=" ">
<polygon fill="#bfbfbf" stroke="black" points="486,-19.5 486,-38.5 606,-38.5 606,-19.5 486,-19.5"/>
<text text-anchor="middle" x="546" y="-26.5" font-family="Helvetica,sans-Serif" font-size="10.00">hsmg_schwarz_toext2d</text>
</a>
</g>
</g>
<!-- Node2 -->
<g id="node2" class="node">
<title>Node2</title>
<g id="a_node2"><a xlink:href="hsmg_8f.html#a41ea2767327fa20d88571c3a13e7d5ac" target="_top" xlink:title=" ">
<polygon fill="white" stroke="black" points="340,-38.5 340,-57.5 450,-57.5 450,-38.5 340,-38.5"/>
<text text-anchor="middle" x="395" y="-45.5" font-family="Helvetica,sans-Serif" font-size="10.00">h1mg_schwarz_part1</text>
</a>
</g>
</g>
<!-- Node1&#45;&gt;Node2 -->
<g id="edge1" class="edge">
<title>Node1&#45;&gt;Node2</title>
<path fill="none" stroke="midnightblue" d="M475.73,-37.83C467.19,-38.92 458.55,-40.02 450.28,-41.08"/>
<polygon fill="midnightblue" stroke="midnightblue" points="476.21,-41.3 485.68,-36.56 475.32,-34.36 476.21,-41.3"/>
</g>
<!-- Node76 -->
<g id="node7" class="node">
<title>Node76</title>
<g id="a_node7"><a xlink:href="hsmg_8f.html#a66d72f30649dfb581129bf9adafe017f" target="_top" xlink:title=" ">
<polygon fill="white" stroke="black" points="353.5,-0.5 353.5,-19.5 436.5,-19.5 436.5,-0.5 353.5,-0.5"/>
<text text-anchor="middle" x="395" y="-7.5" font-family="Helvetica,sans-Serif" font-size="10.00">hsmg_schwarz</text>
</a>
</g>
</g>
<!-- Node1&#45;&gt;Node76 -->
<g id="edge6" class="edge">
<title>Node1&#45;&gt;Node76</title>
<path fill="none" stroke="midnightblue" d="M475.59,-20.15C462.31,-18.46 448.81,-16.73 436.79,-15.2"/>
<polygon fill="midnightblue" stroke="midnightblue" points="475.32,-23.64 485.68,-21.44 476.21,-16.7 475.32,-23.64"/>
</g>
<!-- Node3 -->
<g id="node3" class="node">
<title>Node3</title>
<g id="a_node3"><a xlink:href="hsmg_8f.html#aaef68aa25140b10d1a42123f7ccbd2d8" target="_top" xlink:title=" ">
<polygon fill="white" stroke="black" points="221,-38.5 221,-57.5 304,-57.5 304,-38.5 221,-38.5"/>
<text text-anchor="middle" x="262.5" y="-45.5" font-family="Helvetica,sans-Serif" font-size="10.00">h1mg_schwarz</text>
</a>
</g>
</g>
<!-- Node2&#45;&gt;Node3 -->
<g id="edge2" class="edge">
<title>Node2&#45;&gt;Node3</title>
<path fill="none" stroke="midnightblue" d="M329.66,-48C320.99,-48 312.31,-48 304.21,-48"/>
<polygon fill="midnightblue" stroke="midnightblue" points="329.79,-51.5 339.79,-48 329.79,-44.5 329.79,-51.5"/>
</g>
<!-- Node4 -->
<g id="node4" class="node">
<title>Node4</title>
<g id="a_node4"><a xlink:href="hsmg_8f.html#a80c3292949e823718ac035e38b894494" target="_top" xlink:title=" ">
<polygon fill="white" stroke="black" points="112,-38.5 112,-57.5 181,-57.5 181,-38.5 112,-38.5"/>
<text text-anchor="middle" x="146.5" y="-45.5" font-family="Helvetica,sans-Serif" font-size="10.00">h1mg_solve</text>
</a>
</g>
</g>
<!-- Node3&#45;&gt;Node4 -->
<g id="edge3" class="edge">
<title>Node3&#45;&gt;Node4</title>
<path fill="none" stroke="midnightblue" d="M210.69,-48C200.67,-48 190.39,-48 181.11,-48"/>
<polygon fill="midnightblue" stroke="midnightblue" points="210.99,-51.5 220.99,-48 210.99,-44.5 210.99,-51.5"/>
</g>
<!-- Node5 -->
<g id="node5" class="node">
<title>Node5</title>
<g id="a_node5"><a xlink:href="hmholtz_8f.html#a8a396e973763e576543b4ab90c072b6d" target="_top" xlink:title=" ">
<polygon fill="white" stroke="red" points="0,-76.5 0,-95.5 72,-95.5 72,-76.5 0,-76.5"/>
<text text-anchor="middle" x="36" y="-83.5" font-family="Helvetica,sans-Serif" font-size="10.00">hmh_flex_cg</text>
</a>
</g>
</g>
<!-- Node4&#45;&gt;Node5 -->
<g id="edge4" class="edge">
<title>Node4&#45;&gt;Node5</title>
<path fill="none" stroke="midnightblue" d="M108.46,-60.97C94.01,-66.03 77.73,-71.73 64.37,-76.41"/>
<polygon fill="midnightblue" stroke="midnightblue" points="109.84,-64.2 118.12,-57.59 107.53,-57.59 109.84,-64.2"/>
</g>
<!-- Node75 -->
<g id="node6" class="node">
<title>Node75</title>
<g id="a_node6"><a xlink:href="gmres_8f.html#a377d8578c6ccd4fddffb699c7a18f603" target="_top" xlink:title=" ">
<polygon fill="white" stroke="red" points="2,-38.5 2,-57.5 70,-57.5 70,-38.5 2,-38.5"/>
<text text-anchor="middle" x="36" y="-45.5" font-family="Helvetica,sans-Serif" font-size="10.00">hmh_gmres</text>
</a>
</g>
</g>
<!-- Node4&#45;&gt;Node75 -->
<g id="edge5" class="edge">
<title>Node4&#45;&gt;Node75</title>
<path fill="none" stroke="midnightblue" d="M101.58,-48C91.16,-48 80.2,-48 70.34,-48"/>
<polygon fill="midnightblue" stroke="midnightblue" points="101.76,-51.5 111.76,-48 101.76,-44.5 101.76,-51.5"/>
</g>
<!-- Node63 -->
<g id="node8" class="node">
<title>Node63</title>
<g id="a_node8"><a xlink:href="hsmg_8f.html#ab28b637ce952431f92c7210efdd23b52" target="_top" xlink:title=" ">
<polygon fill="white" stroke="black" points="228,-0.5 228,-19.5 297,-19.5 297,-0.5 228,-0.5"/>
<text text-anchor="middle" x="262.5" y="-7.5" font-family="Helvetica,sans-Serif" font-size="10.00">hsmg_solve</text>
</a>
</g>
</g>
<!-- Node76&#45;&gt;Node63 -->
<g id="edge7" class="edge">
<title>Node76&#45;&gt;Node63</title>
<path fill="none" stroke="midnightblue" d="M343.42,-10C327.87,-10 311.15,-10 297.04,-10"/>
<polygon fill="midnightblue" stroke="midnightblue" points="343.42,-13.5 353.42,-10 343.42,-6.5 343.42,-13.5"/>
</g>
<!-- Node45 -->
<g id="node9" class="node">
<title>Node45</title>
<g id="a_node9"><a xlink:href="gmres_8f.html#a7ddb9e8764ebf87db6b357ca39df2a08" target="_top" xlink:title=" ">
<polygon fill="white" stroke="black" points="108,-0.5 108,-19.5 185,-19.5 185,-0.5 108,-0.5"/>
<text text-anchor="middle" x="146.5" y="-7.5" font-family="Helvetica,sans-Serif" font-size="10.00">uzawa_gmres</text>
</a>
</g>
</g>
<!-- Node63&#45;&gt;Node45 -->
<g id="edge8" class="edge">
<title>Node63&#45;&gt;Node45</title>
<path fill="none" stroke="midnightblue" d="M217.86,-10C207.11,-10 195.69,-10 185.24,-10"/>
<polygon fill="midnightblue" stroke="midnightblue" points="217.91,-13.5 227.91,-10 217.91,-6.5 217.91,-13.5"/>
</g>
<!-- Node25 -->
<g id="node10" class="node">
<title>Node25</title>
<g id="a_node10"><a xlink:href="navier0_8f.html#aaba079db7e38db9800deef09526370ec" target="_top" xlink:title=" ">
<polygon fill="white" stroke="red" points="12,-0.5 12,-19.5 60,-19.5 60,-0.5 12,-0.5"/>
<text text-anchor="middle" x="36" y="-7.5" font-family="Helvetica,sans-Serif" font-size="10.00">esolver</text>
</a>
</g>
</g>
<!-- Node45&#45;&gt;Node25 -->
<g id="edge9" class="edge">
<title>Node45&#45;&gt;Node25</title>
<path fill="none" stroke="midnightblue" d="M97.56,-10C84.52,-10 70.99,-10 60.03,-10"/>
<polygon fill="midnightblue" stroke="midnightblue" points="97.86,-13.5 107.86,-10 97.86,-6.5 97.86,-13.5"/>
</g>
</g>
</svg>
