<?xml version="1.0" encoding="UTF-8" standalone="no"?>
<!DOCTYPE svg PUBLIC "-//W3C//DTD SVG 1.1//EN"
 "http://www.w3.org/Graphics/SVG/1.1/DTD/svg11.dtd">
<!-- Generated by graphviz version 2.46.0 (0)
 -->
<!-- Title: h1mg_axml Pages: 1 -->
<svg width="363pt" height="161pt"
 viewBox="0.00 0.00 363.00 161.00" xmlns="http://www.w3.org/2000/svg" xmlns:xlink="http://www.w3.org/1999/xlink">
<g id="graph0" class="graph" transform="scale(1 1) rotate(0) translate(4 157)">
<title>h1mg_axml</title>
<polygon fill="white" stroke="transparent" points="-4,4 -4,-157 359,-157 359,4 -4,4"/>
<!-- Node1 -->
<g id="node1" class="node">
<title>Node1</title>
<g id="a_node1"><a xlink:title=" ">
<polygon fill="#bfbfbf" stroke="black" points="0,-19.5 0,-38.5 67,-38.5 67,-19.5 0,-19.5"/>
<text text-anchor="middle" x="33.5" y="-26.5" font-family="Helvetica,sans-Serif" font-size="10.00">h1mg_axml</text>
</a>
</g>
</g>
<!-- Node2 -->
<g id="node2" class="node">
<title>Node2</title>
<g id="a_node2"><a xlink:href="hsmg_8f.html#a897c37f8f60cf3d487e62dff40dcbdb1" target="_top" xlink:title=" ">
<polygon fill="white" stroke="black" points="122,-38.5 122,-57.5 154,-57.5 154,-38.5 122,-38.5"/>
<text text-anchor="middle" x="138" y="-45.5" font-family="Helvetica,sans-Serif" font-size="10.00">axe</text>
</a>
</g>
</g>
<!-- Node1&#45;&gt;Node2 -->
<g id="edge1" class="edge">
<title>Node1&#45;&gt;Node2</title>
<path fill="none" stroke="midnightblue" d="M67.21,-35.06C81.64,-37.74 98.32,-40.83 111.76,-43.32"/>
<polygon fill="midnightblue" stroke="midnightblue" points="111.27,-46.79 121.74,-45.17 112.55,-39.91 111.27,-46.79"/>
</g>
<!-- Node35 -->
<g id="node10" class="node">
<title>Node35</title>
<g id="a_node10"><a xlink:href="hsmg_8f.html#a4cbc39be37a788a56838032312974cb4" target="_top" xlink:title=" ">
<polygon fill="white" stroke="black" points="103,-0.5 103,-19.5 173,-19.5 173,-0.5 103,-0.5"/>
<text text-anchor="middle" x="138" y="-7.5" font-family="Helvetica,sans-Serif" font-size="10.00">mg_mask_e</text>
</a>
</g>
</g>
<!-- Node1&#45;&gt;Node35 -->
<g id="edge9" class="edge">
<title>Node1&#45;&gt;Node35</title>
<path fill="none" stroke="midnightblue" d="M67.21,-22.94C75.38,-21.42 84.28,-19.77 92.9,-18.17"/>
<polygon fill="midnightblue" stroke="midnightblue" points="93.64,-21.6 102.83,-16.33 92.36,-14.71 93.64,-21.6"/>
</g>
<!-- Node3 -->
<g id="node3" class="node">
<title>Node3</title>
<g id="a_node3"><a xlink:href="comm__mpi_8f.html#a59fcf8a02fe54ab37f61050e3ca6b197" target="_top" xlink:title=" ">
<polygon fill="white" stroke="black" points="221,-76.5 221,-95.5 259,-95.5 259,-76.5 221,-76.5"/>
<text text-anchor="middle" x="240" y="-83.5" font-family="Helvetica,sans-Serif" font-size="10.00">exitti</text>
</a>
</g>
</g>
<!-- Node2&#45;&gt;Node3 -->
<g id="edge2" class="edge">
<title>Node2&#45;&gt;Node3</title>
<path fill="none" stroke="midnightblue" d="M154.19,-53.77C169.38,-59.54 193.08,-68.55 211.57,-75.58"/>
<polygon fill="midnightblue" stroke="midnightblue" points="210.36,-78.86 220.96,-79.14 212.85,-72.32 210.36,-78.86"/>
</g>
<!-- Node10 -->
<g id="node8" class="node">
<title>Node10</title>
<g id="a_node8"><a xlink:href="navier1_8f.html#a1147a11d5eb5389f0622e7c6d42ae62d" target="_top" xlink:title=" ">
<polygon fill="white" stroke="red" points="213,-38.5 213,-57.5 267,-57.5 267,-38.5 213,-38.5"/>
<text text-anchor="middle" x="240" y="-45.5" font-family="Helvetica,sans-Serif" font-size="10.00">gradl_rst</text>
</a>
</g>
</g>
<!-- Node2&#45;&gt;Node10 -->
<g id="edge7" class="edge">
<title>Node2&#45;&gt;Node10</title>
<path fill="none" stroke="midnightblue" d="M154.19,-48C167.04,-48 185.98,-48 202.7,-48"/>
<polygon fill="midnightblue" stroke="midnightblue" points="202.75,-51.5 212.75,-48 202.75,-44.5 202.75,-51.5"/>
</g>
<!-- Node29 -->
<g id="node9" class="node">
<title>Node29</title>
<g id="a_node9"><a xlink:href="navier1_8f.html#a568a9bc84b80e4f55791654b22bdbb8d" target="_top" xlink:title=" ">
<polygon fill="white" stroke="red" points="209,-0.5 209,-19.5 271,-19.5 271,-0.5 209,-0.5"/>
<text text-anchor="middle" x="240" y="-7.5" font-family="Helvetica,sans-Serif" font-size="10.00">gradl_rst_t</text>
</a>
</g>
</g>
<!-- Node2&#45;&gt;Node29 -->
<g id="edge8" class="edge">
<title>Node2&#45;&gt;Node29</title>
<path fill="none" stroke="midnightblue" d="M154.19,-42.23C167.43,-37.2 187.15,-29.7 204.24,-23.21"/>
<polygon fill="midnightblue" stroke="midnightblue" points="205.82,-26.35 213.93,-19.53 203.34,-19.81 205.82,-26.35"/>
</g>
<!-- Node4 -->
<g id="node4" class="node">
<title>Node4</title>
<g id="a_node4"><a xlink:href="math_8f.html#a692155d1d2ec380a9fdb2d81ef221625" target="_top" xlink:title=" ">
<polygon fill="white" stroke="black" points="311,-133.5 311,-152.5 351,-152.5 351,-133.5 311,-133.5"/>
<text text-anchor="middle" x="331" y="-140.5" font-family="Helvetica,sans-Serif" font-size="10.00">blank</text>
</a>
</g>
</g>
<!-- Node3&#45;&gt;Node4 -->
<g id="edge3" class="edge">
<title>Node3&#45;&gt;Node4</title>
<path fill="none" stroke="midnightblue" d="M256.1,-95.67C269.86,-104.48 290.42,-117.65 306.36,-127.86"/>
<polygon fill="midnightblue" stroke="midnightblue" points="304.82,-131.03 315.13,-133.47 308.59,-125.13 304.82,-131.03"/>
</g>
<!-- Node5 -->
<g id="node5" class="node">
<title>Node5</title>
<g id="a_node5"><a xlink:href="math_8f.html#ad7fb480cea001849621405f37167aab1" target="_top" xlink:title=" ">
<polygon fill="white" stroke="black" points="307,-95.5 307,-114.5 355,-114.5 355,-95.5 307,-95.5"/>
<text text-anchor="middle" x="331" y="-102.5" font-family="Helvetica,sans-Serif" font-size="10.00">chcopy</text>
</a>
</g>
</g>
<!-- Node3&#45;&gt;Node5 -->
<g id="edge4" class="edge">
<title>Node3&#45;&gt;Node5</title>
<path fill="none" stroke="midnightblue" d="M259.01,-89.84C269.91,-92.17 284.15,-95.21 297.01,-97.96"/>
<polygon fill="midnightblue" stroke="midnightblue" points="296.43,-101.41 306.94,-100.08 297.89,-94.57 296.43,-101.41"/>
</g>
<!-- Node6 -->
<g id="node6" class="node">
<title>Node6</title>
<g id="a_node6"><a xlink:href="byte_8c.html#a2da8eeb074dfd3ffbfb3e9a4d301cda4" target="_top" xlink:title=" ">
<polygon fill="white" stroke="red" points="313.5,-57.5 313.5,-76.5 348.5,-76.5 348.5,-57.5 313.5,-57.5"/>
<text text-anchor="middle" x="331" y="-64.5" font-family="Helvetica,sans-Serif" font-size="10.00">exitt</text>
</a>
</g>
</g>
<!-- Node3&#45;&gt;Node6 -->
<g id="edge5" class="edge">
<title>Node3&#45;&gt;Node6</title>
<path fill="none" stroke="midnightblue" d="M259.01,-82.16C271.76,-79.43 289.08,-75.74 303.42,-72.68"/>
<polygon fill="midnightblue" stroke="midnightblue" points="304.17,-76.09 313.22,-70.58 302.71,-69.25 304.17,-76.09"/>
</g>
<!-- Node9 -->
<g id="node7" class="node">
<title>Node9</title>
<g id="a_node7"><a xlink:href="ic_8f.html#ada3a2c3283a9052e1fe4b7a90375b09b" target="_top" xlink:title=" ">
<polygon fill="white" stroke="black" points="311,-19.5 311,-38.5 351,-38.5 351,-19.5 311,-19.5"/>
<text text-anchor="middle" x="331" y="-26.5" font-family="Helvetica,sans-Serif" font-size="10.00">indx1</text>
</a>
</g>
</g>
<!-- Node3&#45;&gt;Node9 -->
<g id="edge6" class="edge">
<title>Node3&#45;&gt;Node9</title>
<path fill="none" stroke="midnightblue" d="M256.28,-76.36C261,-73.37 266.22,-70.05 271,-67 282.71,-59.52 295.7,-51.16 306.5,-44.19"/>
<polygon fill="midnightblue" stroke="midnightblue" points="308.48,-47.08 314.99,-38.72 304.69,-41.2 308.48,-47.08"/>
</g>
</g>
</svg>
