<?xml version="1.0" encoding="UTF-8" standalone="no"?>
<!DOCTYPE svg PUBLIC "-//W3C//DTD SVG 1.1//EN"
 "http://www.w3.org/Graphics/SVG/1.1/DTD/svg11.dtd">
<!-- Generated by graphviz version 2.46.0 (0)
 -->
<!-- Title: hsmg_setup_mask Pages: 1 -->
<svg width="376pt" height="218pt"
 viewBox="0.00 0.00 376.00 218.00" xmlns="http://www.w3.org/2000/svg" xmlns:xlink="http://www.w3.org/1999/xlink">
<g id="graph0" class="graph" transform="scale(1 1) rotate(0) translate(4 214)">
<title>hsmg_setup_mask</title>
<polygon fill="white" stroke="transparent" points="-4,4 -4,-214 372,-214 372,4 -4,4"/>
<!-- Node1 -->
<g id="node1" class="node">
<title>Node1</title>
<g id="a_node1"><a xlink:title=" ">
<polygon fill="#bfbfbf" stroke="black" points="0,-76.5 0,-95.5 99,-95.5 99,-76.5 0,-76.5"/>
<text text-anchor="middle" x="49.5" y="-83.5" font-family="Helvetica,sans-Serif" font-size="10.00">hsmg_setup_mask</text>
</a>
</g>
</g>
<!-- Node2 -->
<g id="node2" class="node">
<title>Node2</title>
<g id="a_node2"><a xlink:href="comm__mpi_8f.html#a59fcf8a02fe54ab37f61050e3ca6b197" target="_top" xlink:title=" ">
<polygon fill="white" stroke="black" points="246,-133.5 246,-152.5 284,-152.5 284,-133.5 246,-133.5"/>
<text text-anchor="middle" x="265" y="-140.5" font-family="Helvetica,sans-Serif" font-size="10.00">exitti</text>
</a>
</g>
</g>
<!-- Node1&#45;&gt;Node2 -->
<g id="edge1" class="edge">
<title>Node1&#45;&gt;Node2</title>
<path fill="none" stroke="midnightblue" d="M60.37,-95.63C75.14,-109.29 104.54,-133.69 135,-143 168.51,-153.24 209.24,-150.97 235.85,-147.65"/>
<polygon fill="midnightblue" stroke="midnightblue" points="236.56,-151.08 245.99,-146.25 235.6,-144.15 236.56,-151.08"/>
</g>
<!-- Node9 -->
<g id="node7" class="node">
<title>Node9</title>
<g id="a_node7"><a xlink:href="fast3d_8f.html#ab60c76ed10c432bca639d052ca18f115" target="_top" xlink:title=" ">
<polygon fill="white" stroke="red" points="138.5,-114.5 138.5,-133.5 206.5,-133.5 206.5,-114.5 138.5,-114.5"/>
<text text-anchor="middle" x="172.5" y="-121.5" font-family="Helvetica,sans-Serif" font-size="10.00">get_fast_bc</text>
</a>
</g>
</g>
<!-- Node1&#45;&gt;Node9 -->
<g id="edge6" class="edge">
<title>Node1&#45;&gt;Node9</title>
<path fill="none" stroke="midnightblue" d="M81.03,-95.59C96.22,-100.36 114.79,-106.19 131.13,-111.32"/>
<polygon fill="midnightblue" stroke="midnightblue" points="130.39,-114.76 140.98,-114.41 132.48,-108.08 130.39,-114.76"/>
</g>
<!-- Node11 -->
<g id="node8" class="node">
<title>Node11</title>
<g id="a_node8"><a xlink:href="hsmg_8f.html#aee503fbae9c694bda5c5abb9e940bffa" target="_top" xlink:title=" ">
<polygon fill="white" stroke="red" points="135,-76.5 135,-95.5 210,-95.5 210,-76.5 135,-76.5"/>
<text text-anchor="middle" x="172.5" y="-83.5" font-family="Helvetica,sans-Serif" font-size="10.00">hsmg_dsprod</text>
</a>
</g>
</g>
<!-- Node1&#45;&gt;Node11 -->
<g id="edge8" class="edge">
<title>Node1&#45;&gt;Node11</title>
<path fill="none" stroke="midnightblue" d="M99.02,-86C107.53,-86 116.36,-86 124.82,-86"/>
<polygon fill="midnightblue" stroke="midnightblue" points="124.9,-89.5 134.9,-86 124.9,-82.5 124.9,-89.5"/>
</g>
<!-- Node14 -->
<g id="node9" class="node">
<title>Node14</title>
<g id="a_node9"><a xlink:href="math_8f.html#a8431e1799f5711943b2e061a602754ca" target="_top" xlink:title=" ">
<polygon fill="white" stroke="red" points="150,-38.5 150,-57.5 195,-57.5 195,-38.5 150,-38.5"/>
<text text-anchor="middle" x="172.5" y="-45.5" font-family="Helvetica,sans-Serif" font-size="10.00">iglmax</text>
</a>
</g>
</g>
<!-- Node1&#45;&gt;Node14 -->
<g id="edge9" class="edge">
<title>Node1&#45;&gt;Node14</title>
<path fill="none" stroke="midnightblue" d="M81.03,-76.41C99.11,-70.73 121.96,-63.56 140.17,-57.84"/>
<polygon fill="midnightblue" stroke="midnightblue" points="141.26,-61.16 149.75,-54.83 139.16,-54.49 141.26,-61.16"/>
</g>
<!-- Node17 -->
<g id="node10" class="node">
<title>Node17</title>
<g id="a_node10"><a xlink:href="math_8f.html#ae1294c8ac3b5b3c38bbcc250d252b9cb" target="_top" xlink:title=" ">
<polygon fill="white" stroke="black" points="155,-0.5 155,-19.5 190,-19.5 190,-0.5 155,-0.5"/>
<text text-anchor="middle" x="172.5" y="-7.5" font-family="Helvetica,sans-Serif" font-size="10.00">rone</text>
</a>
</g>
</g>
<!-- Node1&#45;&gt;Node17 -->
<g id="edge10" class="edge">
<title>Node1&#45;&gt;Node17</title>
<path fill="none" stroke="midnightblue" d="M63.66,-76.44C80.03,-64.71 108.99,-44.47 135,-29 138.49,-26.92 142.23,-24.83 145.94,-22.83"/>
<polygon fill="midnightblue" stroke="midnightblue" points="147.7,-25.86 154.93,-18.12 144.45,-19.66 147.7,-25.86"/>
</g>
<!-- Node3 -->
<g id="node3" class="node">
<title>Node3</title>
<g id="a_node3"><a xlink:href="math_8f.html#a692155d1d2ec380a9fdb2d81ef221625" target="_top" xlink:title=" ">
<polygon fill="white" stroke="black" points="324,-190.5 324,-209.5 364,-209.5 364,-190.5 324,-190.5"/>
<text text-anchor="middle" x="344" y="-197.5" font-family="Helvetica,sans-Serif" font-size="10.00">blank</text>
</a>
</g>
</g>
<!-- Node2&#45;&gt;Node3 -->
<g id="edge2" class="edge">
<title>Node2&#45;&gt;Node3</title>
<path fill="none" stroke="midnightblue" d="M279.06,-152.67C290.75,-161.32 308.09,-174.16 321.77,-184.28"/>
<polygon fill="midnightblue" stroke="midnightblue" points="320.01,-187.34 330.13,-190.47 324.18,-181.71 320.01,-187.34"/>
</g>
<!-- Node4 -->
<g id="node4" class="node">
<title>Node4</title>
<g id="a_node4"><a xlink:href="math_8f.html#ad7fb480cea001849621405f37167aab1" target="_top" xlink:title=" ">
<polygon fill="white" stroke="black" points="320,-152.5 320,-171.5 368,-171.5 368,-152.5 320,-152.5"/>
<text text-anchor="middle" x="344" y="-159.5" font-family="Helvetica,sans-Serif" font-size="10.00">chcopy</text>
</a>
</g>
</g>
<!-- Node2&#45;&gt;Node4 -->
<g id="edge3" class="edge">
<title>Node2&#45;&gt;Node4</title>
<path fill="none" stroke="midnightblue" d="M284.25,-147.5C292,-149.42 301.29,-151.71 310.17,-153.9"/>
<polygon fill="midnightblue" stroke="midnightblue" points="309.36,-157.3 319.91,-156.3 311.04,-150.51 309.36,-157.3"/>
</g>
<!-- Node5 -->
<g id="node5" class="node">
<title>Node5</title>
<g id="a_node5"><a xlink:href="byte_8c.html#a2da8eeb074dfd3ffbfb3e9a4d301cda4" target="_top" xlink:title=" ">
<polygon fill="white" stroke="red" points="326.5,-114.5 326.5,-133.5 361.5,-133.5 361.5,-114.5 326.5,-114.5"/>
<text text-anchor="middle" x="344" y="-121.5" font-family="Helvetica,sans-Serif" font-size="10.00">exitt</text>
</a>
</g>
</g>
<!-- Node2&#45;&gt;Node5 -->
<g id="edge4" class="edge">
<title>Node2&#45;&gt;Node5</title>
<path fill="none" stroke="midnightblue" d="M284.25,-138.5C293.85,-136.13 305.81,-133.18 316.43,-130.56"/>
<polygon fill="midnightblue" stroke="midnightblue" points="317.59,-133.88 326.46,-128.08 315.91,-127.08 317.59,-133.88"/>
</g>
<!-- Node8 -->
<g id="node6" class="node">
<title>Node8</title>
<g id="a_node6"><a xlink:href="ic_8f.html#ada3a2c3283a9052e1fe4b7a90375b09b" target="_top" xlink:title=" ">
<polygon fill="white" stroke="black" points="324,-76.5 324,-95.5 364,-95.5 364,-76.5 324,-76.5"/>
<text text-anchor="middle" x="344" y="-83.5" font-family="Helvetica,sans-Serif" font-size="10.00">indx1</text>
</a>
</g>
</g>
<!-- Node2&#45;&gt;Node8 -->
<g id="edge5" class="edge">
<title>Node2&#45;&gt;Node8</title>
<path fill="none" stroke="midnightblue" d="M279.06,-133.33C290.75,-124.68 308.09,-111.84 321.77,-101.72"/>
<polygon fill="midnightblue" stroke="midnightblue" points="324.18,-104.29 330.13,-95.53 320.01,-98.66 324.18,-104.29"/>
</g>
<!-- Node9&#45;&gt;Node2 -->
<g id="edge7" class="edge">
<title>Node9&#45;&gt;Node2</title>
<path fill="none" stroke="midnightblue" d="M206.68,-130.97C216.29,-132.98 226.67,-135.16 235.93,-137.11"/>
<polygon fill="midnightblue" stroke="midnightblue" points="235.3,-140.55 245.8,-139.18 236.74,-133.7 235.3,-140.55"/>
</g>
</g>
</svg>
