<?xml version="1.0" encoding="UTF-8" standalone="no"?>
<!DOCTYPE svg PUBLIC "-//W3C//DTD SVG 1.1//EN"
 "http://www.w3.org/Graphics/SVG/1.1/DTD/svg11.dtd">
<!-- Generated by graphviz version 2.46.0 (0)
 -->
<!-- Title: h1mg_axm Pages: 1 -->
<svg width="290pt" height="256pt"
 viewBox="0.00 0.00 290.00 256.00" xmlns="http://www.w3.org/2000/svg" xmlns:xlink="http://www.w3.org/1999/xlink">
<g id="graph0" class="graph" transform="scale(1 1) rotate(0) translate(4 252)">
<title>h1mg_axm</title>
<polygon fill="white" stroke="transparent" points="-4,4 -4,-252 286,-252 286,4 -4,4"/>
<!-- Node1 -->
<g id="node1" class="node">
<title>Node1</title>
<g id="a_node1"><a xlink:title=" ">
<polygon fill="#bfbfbf" stroke="black" points="0,-114.5 0,-133.5 65,-133.5 65,-114.5 0,-114.5"/>
<text text-anchor="middle" x="32.5" y="-121.5" font-family="Helvetica,sans-Serif" font-size="10.00">h1mg_axm</text>
</a>
</g>
</g>
<!-- Node2 -->
<g id="node2" class="node">
<title>Node2</title>
<g id="a_node2"><a xlink:href="math_8f.html#a4671df6a3bb4689a1bb6566729ce4a37" target="_top" xlink:title=" ">
<polygon fill="white" stroke="black" points="112,-228.5 112,-247.5 165,-247.5 165,-228.5 112,-228.5"/>
<text text-anchor="middle" x="138.5" y="-235.5" font-family="Helvetica,sans-Serif" font-size="10.00">add2sxy</text>
</a>
</g>
</g>
<!-- Node1&#45;&gt;Node2 -->
<g id="edge1" class="edge">
<title>Node1&#45;&gt;Node2</title>
<path fill="none" stroke="midnightblue" d="M38.4,-133.77C48.14,-152.38 71.55,-193.36 101,-219 102.54,-220.34 104.18,-221.61 105.89,-222.82"/>
<polygon fill="midnightblue" stroke="midnightblue" points="104.46,-226.05 114.81,-228.32 108.14,-220.09 104.46,-226.05"/>
</g>
<!-- Node3 -->
<g id="node3" class="node">
<title>Node3</title>
<g id="a_node3"><a xlink:href="hsmg_8f.html#aa8639c2a2c825e0c98ed2e4975ccef83" target="_top" xlink:title=" ">
<polygon fill="white" stroke="black" points="105,-190.5 105,-209.5 172,-209.5 172,-190.5 105,-190.5"/>
<text text-anchor="middle" x="138.5" y="-197.5" font-family="Helvetica,sans-Serif" font-size="10.00">h1mg_axml</text>
</a>
</g>
</g>
<!-- Node1&#45;&gt;Node3 -->
<g id="edge2" class="edge">
<title>Node1&#45;&gt;Node3</title>
<path fill="none" stroke="midnightblue" d="M43.46,-133.64C56.15,-145.63 79.09,-166.31 101,-181 103.26,-182.51 105.65,-184 108.09,-185.43"/>
<polygon fill="midnightblue" stroke="midnightblue" points="106.51,-188.55 116.96,-190.32 109.9,-182.43 106.51,-188.55"/>
</g>
<!-- Node38 -->
<g id="node6" class="node">
<title>Node38</title>
<g id="a_node6"><a xlink:href="hsmg_8f.html#a53462275516b6927e6922dca3e6c2ecf" target="_top" xlink:title=" ">
<polygon fill="white" stroke="red" points="101,-152.5 101,-171.5 176,-171.5 176,-152.5 101,-152.5"/>
<text text-anchor="middle" x="138.5" y="-159.5" font-family="Helvetica,sans-Serif" font-size="10.00">hsmg_dssum</text>
</a>
</g>
</g>
<!-- Node1&#45;&gt;Node38 -->
<g id="edge5" class="edge">
<title>Node1&#45;&gt;Node38</title>
<path fill="none" stroke="midnightblue" d="M59.74,-133.59C72.43,-138.22 87.85,-143.86 101.61,-148.89"/>
<polygon fill="midnightblue" stroke="midnightblue" points="100.67,-152.27 111.26,-152.41 103.07,-145.69 100.67,-152.27"/>
</g>
<!-- Node41 -->
<g id="node7" class="node">
<title>Node41</title>
<g id="a_node7"><a xlink:href="hsmg_8f.html#a162e1ef46e1d6636d8f87b4502215163" target="_top" xlink:title=" ">
<polygon fill="white" stroke="red" points="106,-114.5 106,-133.5 171,-133.5 171,-114.5 106,-114.5"/>
<text text-anchor="middle" x="138.5" y="-121.5" font-family="Helvetica,sans-Serif" font-size="10.00">mg_set_gb</text>
</a>
</g>
</g>
<!-- Node1&#45;&gt;Node41 -->
<g id="edge6" class="edge">
<title>Node1&#45;&gt;Node41</title>
<path fill="none" stroke="midnightblue" d="M65.27,-124C74.84,-124 85.51,-124 95.63,-124"/>
<polygon fill="midnightblue" stroke="midnightblue" points="95.93,-127.5 105.93,-124 95.93,-120.5 95.93,-127.5"/>
</g>
<!-- Node48 -->
<g id="node8" class="node">
<title>Node48</title>
<g id="a_node8"><a xlink:href="hsmg_8f.html#a701c47edd10a70df9f18fd456df1262f" target="_top" xlink:title=" ">
<polygon fill="white" stroke="red" points="106,-76.5 106,-95.5 171,-95.5 171,-76.5 106,-76.5"/>
<text text-anchor="middle" x="138.5" y="-83.5" font-family="Helvetica,sans-Serif" font-size="10.00">mg_set_h1</text>
</a>
</g>
</g>
<!-- Node1&#45;&gt;Node48 -->
<g id="edge7" class="edge">
<title>Node1&#45;&gt;Node48</title>
<path fill="none" stroke="midnightblue" d="M59.74,-114.41C72.43,-109.78 87.85,-104.14 101.61,-99.11"/>
<polygon fill="midnightblue" stroke="midnightblue" points="103.07,-102.31 111.26,-95.59 100.67,-95.73 103.07,-102.31"/>
</g>
<!-- Node53 -->
<g id="node9" class="node">
<title>Node53</title>
<g id="a_node9"><a xlink:href="hsmg_8f.html#aa2de64df7a863874d8b2d34cab19db2a" target="_top" xlink:title=" ">
<polygon fill="white" stroke="red" points="106,-38.5 106,-57.5 171,-57.5 171,-38.5 106,-38.5"/>
<text text-anchor="middle" x="138.5" y="-45.5" font-family="Helvetica,sans-Serif" font-size="10.00">mg_set_h2</text>
</a>
</g>
</g>
<!-- Node1&#45;&gt;Node53 -->
<g id="edge8" class="edge">
<title>Node1&#45;&gt;Node53</title>
<path fill="none" stroke="midnightblue" d="M43.46,-114.36C56.15,-102.37 79.09,-81.69 101,-67 103.26,-65.49 105.65,-64 108.09,-62.57"/>
<polygon fill="midnightblue" stroke="midnightblue" points="109.9,-65.57 116.96,-57.68 106.51,-59.45 109.9,-65.57"/>
</g>
<!-- Node54 -->
<g id="node10" class="node">
<title>Node54</title>
<g id="a_node10"><a xlink:href="hsmg_8f.html#a2437d1cd0b7af63f2969edc85fbe7713" target="_top" xlink:title=" ">
<polygon fill="white" stroke="red" points="102,-0.5 102,-19.5 175,-19.5 175,-0.5 102,-0.5"/>
<text text-anchor="middle" x="138.5" y="-7.5" font-family="Helvetica,sans-Serif" font-size="10.00">mg_set_msk</text>
</a>
</g>
</g>
<!-- Node1&#45;&gt;Node54 -->
<g id="edge9" class="edge">
<title>Node1&#45;&gt;Node54</title>
<path fill="none" stroke="midnightblue" d="M38.4,-114.23C48.14,-95.62 71.55,-54.64 101,-29 102.54,-27.66 104.18,-26.39 105.89,-25.18"/>
<polygon fill="midnightblue" stroke="midnightblue" points="108.14,-27.91 114.81,-19.68 104.46,-21.95 108.14,-27.91"/>
</g>
<!-- Node4 -->
<g id="node4" class="node">
<title>Node4</title>
<g id="a_node4"><a xlink:href="hsmg_8f.html#a897c37f8f60cf3d487e62dff40dcbdb1" target="_top" xlink:title=" ">
<polygon fill="white" stroke="red" points="231,-209.5 231,-228.5 263,-228.5 263,-209.5 231,-209.5"/>
<text text-anchor="middle" x="247" y="-216.5" font-family="Helvetica,sans-Serif" font-size="10.00">axe</text>
</a>
</g>
</g>
<!-- Node3&#45;&gt;Node4 -->
<g id="edge3" class="edge">
<title>Node3&#45;&gt;Node4</title>
<path fill="none" stroke="midnightblue" d="M172.03,-205.8C187.63,-208.59 206.04,-211.87 220.59,-214.47"/>
<polygon fill="midnightblue" stroke="midnightblue" points="220.39,-217.99 230.85,-216.3 221.62,-211.1 220.39,-217.99"/>
</g>
<!-- Node37 -->
<g id="node5" class="node">
<title>Node37</title>
<g id="a_node5"><a xlink:href="hsmg_8f.html#a4cbc39be37a788a56838032312974cb4" target="_top" xlink:title=" ">
<polygon fill="white" stroke="black" points="212,-171.5 212,-190.5 282,-190.5 282,-171.5 212,-171.5"/>
<text text-anchor="middle" x="247" y="-178.5" font-family="Helvetica,sans-Serif" font-size="10.00">mg_mask_e</text>
</a>
</g>
</g>
<!-- Node3&#45;&gt;Node37 -->
<g id="edge4" class="edge">
<title>Node3&#45;&gt;Node37</title>
<path fill="none" stroke="midnightblue" d="M172.03,-194.2C181.38,-192.53 191.75,-190.68 201.68,-188.91"/>
<polygon fill="midnightblue" stroke="midnightblue" points="202.59,-192.3 211.82,-187.1 201.36,-185.41 202.59,-192.3"/>
</g>
</g>
</svg>
