<?xml version="1.0" encoding="UTF-8" standalone="no"?>
<!DOCTYPE svg PUBLIC "-//W3C//DTD SVG 1.1//EN"
 "http://www.w3.org/Graphics/SVG/1.1/DTD/svg11.dtd">
<!-- Generated by graphviz version 2.46.0 (0)
 -->
<!-- Title: hsmg_setup_mask Pages: 1 -->
<svg width="704pt" height="66pt"
 viewBox="0.00 0.00 704.00 66.00" xmlns="http://www.w3.org/2000/svg" xmlns:xlink="http://www.w3.org/1999/xlink">
<g id="graph0" class="graph" transform="scale(1 1) rotate(0) translate(4 62)">
<title>hsmg_setup_mask</title>
<polygon fill="white" stroke="transparent" points="-4,4 -4,-62 700,-62 700,4 -4,4"/>
<!-- Node1 -->
<g id="node1" class="node">
<title>Node1</title>
<g id="a_node1"><a xlink:title=" ">
<polygon fill="#bfbfbf" stroke="black" points="597,-19.5 597,-38.5 696,-38.5 696,-19.5 597,-19.5"/>
<text text-anchor="middle" x="646.5" y="-26.5" font-family="Helvetica,sans-Serif" font-size="10.00">hsmg_setup_mask</text>
</a>
</g>
</g>
<!-- Node2 -->
<g id="node2" class="node">
<title>Node2</title>
<g id="a_node2"><a xlink:href="hsmg_8f.html#a16cbabb71921894f52a234087561e257" target="_top" xlink:title=" ">
<polygon fill="white" stroke="black" points="451,-38.5 451,-57.5 561,-57.5 561,-38.5 451,-38.5"/>
<text text-anchor="middle" x="506" y="-45.5" font-family="Helvetica,sans-Serif" font-size="10.00">h1mg_setup_wtmask</text>
</a>
</g>
</g>
<!-- Node1&#45;&gt;Node2 -->
<g id="edge1" class="edge">
<title>Node1&#45;&gt;Node2</title>
<path fill="none" stroke="midnightblue" d="M586.5,-37.09C578.05,-38.25 569.39,-39.44 561.05,-40.59"/>
<polygon fill="midnightblue" stroke="midnightblue" points="587.24,-40.53 596.67,-35.7 586.29,-33.59 587.24,-40.53"/>
</g>
<!-- Node8 -->
<g id="node8" class="node">
<title>Node8</title>
<g id="a_node8"><a xlink:href="hsmg_8f.html#ab5d49b7706eedd281e860525d9914773" target="_top" xlink:title=" ">
<polygon fill="white" stroke="black" points="451,-0.5 451,-19.5 561,-19.5 561,-0.5 451,-0.5"/>
<text text-anchor="middle" x="506" y="-7.5" font-family="Helvetica,sans-Serif" font-size="10.00">hsmg_setup_wtmask</text>
</a>
</g>
</g>
<!-- Node1&#45;&gt;Node8 -->
<g id="edge7" class="edge">
<title>Node1&#45;&gt;Node8</title>
<path fill="none" stroke="midnightblue" d="M586.5,-20.91C578.05,-19.75 569.39,-18.56 561.05,-17.41"/>
<polygon fill="midnightblue" stroke="midnightblue" points="586.29,-24.41 596.67,-22.3 587.24,-17.47 586.29,-24.41"/>
</g>
<!-- Node3 -->
<g id="node3" class="node">
<title>Node3</title>
<g id="a_node3"><a xlink:href="hsmg_8f.html#a6dff08ef961a6a5565642ab92a12b1e8" target="_top" xlink:title=" ">
<polygon fill="white" stroke="black" points="345,-38.5 345,-57.5 415,-57.5 415,-38.5 345,-38.5"/>
<text text-anchor="middle" x="380" y="-45.5" font-family="Helvetica,sans-Serif" font-size="10.00">h1mg_setup</text>
</a>
</g>
</g>
<!-- Node2&#45;&gt;Node3 -->
<g id="edge2" class="edge">
<title>Node2&#45;&gt;Node3</title>
<path fill="none" stroke="midnightblue" d="M440.96,-48C432.08,-48 423.25,-48 415.21,-48"/>
<polygon fill="midnightblue" stroke="midnightblue" points="440.97,-51.5 450.97,-48 440.97,-44.5 440.97,-51.5"/>
</g>
<!-- Node4 -->
<g id="node4" class="node">
<title>Node4</title>
<g id="a_node4"><a xlink:href="navier6_8f.html#a45317b1def173b8f1db2e5083595d095" target="_top" xlink:title=" ">
<polygon fill="white" stroke="black" points="242,-19.5 242,-38.5 309,-38.5 309,-19.5 242,-19.5"/>
<text text-anchor="middle" x="275.5" y="-26.5" font-family="Helvetica,sans-Serif" font-size="10.00">set_overlap</text>
</a>
</g>
</g>
<!-- Node3&#45;&gt;Node4 -->
<g id="edge3" class="edge">
<title>Node3&#45;&gt;Node4</title>
<path fill="none" stroke="midnightblue" d="M334.89,-39.82C326.23,-38.22 317.29,-36.56 309.09,-35.04"/>
<polygon fill="midnightblue" stroke="midnightblue" points="334.4,-43.29 344.87,-41.67 335.67,-36.41 334.4,-43.29"/>
</g>
<!-- Node5 -->
<g id="node5" class="node">
<title>Node5</title>
<g id="a_node5"><a xlink:href="drive2_8f.html#a7cb0ea7de68c5c3cbc3f7290f01a4d51" target="_top" xlink:title=" ">
<polygon fill="white" stroke="black" points="168,-19.5 168,-38.5 206,-38.5 206,-19.5 168,-19.5"/>
<text text-anchor="middle" x="187" y="-26.5" font-family="Helvetica,sans-Serif" font-size="10.00">prinit</text>
</a>
</g>
</g>
<!-- Node4&#45;&gt;Node5 -->
<g id="edge4" class="edge">
<title>Node4&#45;&gt;Node5</title>
<path fill="none" stroke="midnightblue" d="M231.73,-29C222.73,-29 213.7,-29 206.2,-29"/>
<polygon fill="midnightblue" stroke="midnightblue" points="231.8,-32.5 241.8,-29 231.8,-25.5 231.8,-32.5"/>
</g>
<!-- Node6 -->
<g id="node6" class="node">
<title>Node6</title>
<g id="a_node6"><a xlink:href="drive1_8f.html#a83f7c6d78ac4e68394f32533e847d0a3" target="_top" xlink:title=" ">
<polygon fill="white" stroke="black" points="82,-19.5 82,-38.5 132,-38.5 132,-19.5 82,-19.5"/>
<text text-anchor="middle" x="107" y="-26.5" font-family="Helvetica,sans-Serif" font-size="10.00">nek_init</text>
</a>
</g>
</g>
<!-- Node5&#45;&gt;Node6 -->
<g id="edge5" class="edge">
<title>Node5&#45;&gt;Node6</title>
<path fill="none" stroke="midnightblue" d="M157.8,-29C149.42,-29 140.31,-29 132.2,-29"/>
<polygon fill="midnightblue" stroke="midnightblue" points="157.91,-32.5 167.91,-29 157.91,-25.5 157.91,-32.5"/>
</g>
<!-- Node7 -->
<g id="node7" class="node">
<title>Node7</title>
<g id="a_node7"><a xlink:href="drive_8f.html#a13048bf28dd0734640412d69349e3857" target="_top" xlink:title=" ">
<polygon fill="white" stroke="black" points="0,-19.5 0,-38.5 46,-38.5 46,-19.5 0,-19.5"/>
<text text-anchor="middle" x="23" y="-26.5" font-family="Helvetica,sans-Serif" font-size="10.00">nekton</text>
</a>
</g>
</g>
<!-- Node6&#45;&gt;Node7 -->
<g id="edge6" class="edge">
<title>Node6&#45;&gt;Node7</title>
<path fill="none" stroke="midnightblue" d="M71.59,-29C62.94,-29 53.89,-29 46.03,-29"/>
<polygon fill="midnightblue" stroke="midnightblue" points="71.84,-32.5 81.84,-29 71.84,-25.5 71.84,-32.5"/>
</g>
<!-- Node9 -->
<g id="node9" class="node">
<title>Node9</title>
<g id="a_node9"><a xlink:href="hsmg_8f.html#a5b9a68644a0879d9edf2c00a48f74126" target="_top" xlink:title=" ">
<polygon fill="white" stroke="black" points="345,-0.5 345,-19.5 415,-19.5 415,-0.5 345,-0.5"/>
<text text-anchor="middle" x="380" y="-7.5" font-family="Helvetica,sans-Serif" font-size="10.00">hsmg_setup</text>
</a>
</g>
</g>
<!-- Node8&#45;&gt;Node9 -->
<g id="edge8" class="edge">
<title>Node8&#45;&gt;Node9</title>
<path fill="none" stroke="midnightblue" d="M440.96,-10C432.08,-10 423.25,-10 415.21,-10"/>
<polygon fill="midnightblue" stroke="midnightblue" points="440.97,-13.5 450.97,-10 440.97,-6.5 440.97,-13.5"/>
</g>
<!-- Node9&#45;&gt;Node4 -->
<g id="edge9" class="edge">
<title>Node9&#45;&gt;Node4</title>
<path fill="none" stroke="midnightblue" d="M334.89,-18.18C326.23,-19.78 317.29,-21.44 309.09,-22.96"/>
<polygon fill="midnightblue" stroke="midnightblue" points="335.67,-21.59 344.87,-16.33 334.4,-14.71 335.67,-21.59"/>
</g>
</g>
</svg>
