<?xml version="1.0" encoding="UTF-8" standalone="no"?>
<!DOCTYPE svg PUBLIC "-//W3C//DTD SVG 1.1//EN"
 "http://www.w3.org/Graphics/SVG/1.1/DTD/svg11.dtd">
<!-- Generated by graphviz version 2.46.0 (0)
 -->
<!-- Title: axe Pages: 1 -->
<svg width="241pt" height="218pt"
 viewBox="0.00 0.00 241.00 218.00" xmlns="http://www.w3.org/2000/svg" xmlns:xlink="http://www.w3.org/1999/xlink">
<g id="graph0" class="graph" transform="scale(1 1) rotate(0) translate(4 214)">
<title>axe</title>
<polygon fill="white" stroke="transparent" points="-4,4 -4,-214 237,-214 237,4 -4,4"/>
<!-- Node1 -->
<g id="node1" class="node">
<title>Node1</title>
<g id="a_node1"><a xlink:title=" ">
<polygon fill="#bfbfbf" stroke="black" points="0,-57.5 0,-76.5 32,-76.5 32,-57.5 0,-57.5"/>
<text text-anchor="middle" x="16" y="-64.5" font-family="Helvetica,sans-Serif" font-size="10.00">axe</text>
</a>
</g>
</g>
<!-- Node2 -->
<g id="node2" class="node">
<title>Node2</title>
<g id="a_node2"><a xlink:href="comm__mpi_8f.html#a59fcf8a02fe54ab37f61050e3ca6b197" target="_top" xlink:title=" ">
<polygon fill="white" stroke="black" points="80,-114.5 80,-133.5 118,-133.5 118,-114.5 80,-114.5"/>
<text text-anchor="middle" x="99" y="-121.5" font-family="Helvetica,sans-Serif" font-size="10.00">exitti</text>
</a>
</g>
</g>
<!-- Node1&#45;&gt;Node2 -->
<g id="edge1" class="edge">
<title>Node1&#45;&gt;Node2</title>
<path fill="none" stroke="midnightblue" d="M30.74,-76.67C43.15,-85.4 61.63,-98.4 76.08,-108.57"/>
<polygon fill="midnightblue" stroke="midnightblue" points="74.27,-111.58 84.46,-114.47 78.3,-105.86 74.27,-111.58"/>
</g>
<!-- Node9 -->
<g id="node7" class="node">
<title>Node9</title>
<g id="a_node7"><a xlink:href="navier1_8f.html#a1147a11d5eb5389f0622e7c6d42ae62d" target="_top" xlink:title=" ">
<polygon fill="white" stroke="red" points="72,-19.5 72,-38.5 126,-38.5 126,-19.5 72,-19.5"/>
<text text-anchor="middle" x="99" y="-26.5" font-family="Helvetica,sans-Serif" font-size="10.00">gradl_rst</text>
</a>
</g>
</g>
<!-- Node1&#45;&gt;Node9 -->
<g id="edge6" class="edge">
<title>Node1&#45;&gt;Node9</title>
<path fill="none" stroke="midnightblue" d="M32.24,-59.85C42.36,-55.1 55.99,-48.71 68.22,-42.97"/>
<polygon fill="midnightblue" stroke="midnightblue" points="70.07,-45.97 77.63,-38.56 67.09,-39.63 70.07,-45.97"/>
</g>
<!-- Node28 -->
<g id="node10" class="node">
<title>Node28</title>
<g id="a_node10"><a xlink:href="navier1_8f.html#a568a9bc84b80e4f55791654b22bdbb8d" target="_top" xlink:title=" ">
<polygon fill="white" stroke="red" points="68,-57.5 68,-76.5 130,-76.5 130,-57.5 68,-57.5"/>
<text text-anchor="middle" x="99" y="-64.5" font-family="Helvetica,sans-Serif" font-size="10.00">gradl_rst_t</text>
</a>
</g>
</g>
<!-- Node1&#45;&gt;Node28 -->
<g id="edge9" class="edge">
<title>Node1&#45;&gt;Node28</title>
<path fill="none" stroke="midnightblue" d="M32.24,-67C39.49,-67 48.56,-67 57.61,-67"/>
<polygon fill="midnightblue" stroke="midnightblue" points="57.73,-70.5 67.73,-67 57.73,-63.5 57.73,-70.5"/>
</g>
<!-- Node3 -->
<g id="node3" class="node">
<title>Node3</title>
<g id="a_node3"><a xlink:href="math_8f.html#a692155d1d2ec380a9fdb2d81ef221625" target="_top" xlink:title=" ">
<polygon fill="white" stroke="black" points="179.5,-190.5 179.5,-209.5 219.5,-209.5 219.5,-190.5 179.5,-190.5"/>
<text text-anchor="middle" x="199.5" y="-197.5" font-family="Helvetica,sans-Serif" font-size="10.00">blank</text>
</a>
</g>
</g>
<!-- Node2&#45;&gt;Node3 -->
<g id="edge2" class="edge">
<title>Node2&#45;&gt;Node3</title>
<path fill="none" stroke="midnightblue" d="M110.25,-133.91C122.83,-145.81 145.06,-166.03 166,-181 167.86,-182.33 169.81,-183.65 171.81,-184.94"/>
<polygon fill="midnightblue" stroke="midnightblue" points="170.23,-188.08 180.59,-190.32 173.89,-182.11 170.23,-188.08"/>
</g>
<!-- Node4 -->
<g id="node4" class="node">
<title>Node4</title>
<g id="a_node4"><a xlink:href="math_8f.html#ad7fb480cea001849621405f37167aab1" target="_top" xlink:title=" ">
<polygon fill="white" stroke="black" points="175.5,-152.5 175.5,-171.5 223.5,-171.5 223.5,-152.5 175.5,-152.5"/>
<text text-anchor="middle" x="199.5" y="-159.5" font-family="Helvetica,sans-Serif" font-size="10.00">chcopy</text>
</a>
</g>
</g>
<!-- Node2&#45;&gt;Node4 -->
<g id="edge3" class="edge">
<title>Node2&#45;&gt;Node4</title>
<path fill="none" stroke="midnightblue" d="M118.07,-130.97C131.4,-136.12 149.93,-143.26 165.83,-149.4"/>
<polygon fill="midnightblue" stroke="midnightblue" points="164.74,-152.73 175.33,-153.06 167.26,-146.2 164.74,-152.73"/>
</g>
<!-- Node5 -->
<g id="node5" class="node">
<title>Node5</title>
<g id="a_node5"><a xlink:href="byte_8c.html#a2da8eeb074dfd3ffbfb3e9a4d301cda4" target="_top" xlink:title=" ">
<polygon fill="white" stroke="red" points="182,-114.5 182,-133.5 217,-133.5 217,-114.5 182,-114.5"/>
<text text-anchor="middle" x="199.5" y="-121.5" font-family="Helvetica,sans-Serif" font-size="10.00">exitt</text>
</a>
</g>
</g>
<!-- Node2&#45;&gt;Node5 -->
<g id="edge4" class="edge">
<title>Node2&#45;&gt;Node5</title>
<path fill="none" stroke="midnightblue" d="M118.07,-124C133.01,-124 154.46,-124 171.45,-124"/>
<polygon fill="midnightblue" stroke="midnightblue" points="171.86,-127.5 181.86,-124 171.86,-120.5 171.86,-127.5"/>
</g>
<!-- Node8 -->
<g id="node6" class="node">
<title>Node8</title>
<g id="a_node6"><a xlink:href="ic_8f.html#ada3a2c3283a9052e1fe4b7a90375b09b" target="_top" xlink:title=" ">
<polygon fill="white" stroke="black" points="179.5,-76.5 179.5,-95.5 219.5,-95.5 219.5,-76.5 179.5,-76.5"/>
<text text-anchor="middle" x="199.5" y="-83.5" font-family="Helvetica,sans-Serif" font-size="10.00">indx1</text>
</a>
</g>
</g>
<!-- Node2&#45;&gt;Node8 -->
<g id="edge5" class="edge">
<title>Node2&#45;&gt;Node8</title>
<path fill="none" stroke="midnightblue" d="M118.07,-117.03C132.42,-111.49 152.77,-103.64 169.41,-97.22"/>
<polygon fill="midnightblue" stroke="midnightblue" points="171.13,-100.31 179.2,-93.45 168.61,-93.78 171.13,-100.31"/>
</g>
<!-- Node10 -->
<g id="node8" class="node">
<title>Node10</title>
<g id="a_node8"><a xlink:href="navier1_8f.html#a2149a2185d9fe9a7d8da1353550cb307" target="_top" xlink:title=" ">
<polygon fill="white" stroke="red" points="166,-38.5 166,-57.5 233,-57.5 233,-38.5 166,-38.5"/>
<text text-anchor="middle" x="199.5" y="-45.5" font-family="Helvetica,sans-Serif" font-size="10.00">get_dgll_ptr</text>
</a>
</g>
</g>
<!-- Node9&#45;&gt;Node10 -->
<g id="edge7" class="edge">
<title>Node9&#45;&gt;Node10</title>
<path fill="none" stroke="midnightblue" d="M126.14,-34.04C135.29,-35.81 145.81,-37.84 155.95,-39.79"/>
<polygon fill="midnightblue" stroke="midnightblue" points="155.41,-43.25 165.89,-41.71 156.73,-36.38 155.41,-43.25"/>
</g>
<!-- Node26 -->
<g id="node9" class="node">
<title>Node26</title>
<g id="a_node9"><a xlink:href="navier5_8f.html#a53feb767cebebba399ab3c5a50f53155" target="_top" xlink:title=" ">
<polygon fill="white" stroke="black" points="166.5,-0.5 166.5,-19.5 232.5,-19.5 232.5,-0.5 166.5,-0.5"/>
<text text-anchor="middle" x="199.5" y="-7.5" font-family="Helvetica,sans-Serif" font-size="10.00">local_grad2</text>
</a>
</g>
</g>
<!-- Node9&#45;&gt;Node26 -->
<g id="edge8" class="edge">
<title>Node9&#45;&gt;Node26</title>
<path fill="none" stroke="midnightblue" d="M126.14,-23.96C135.37,-22.18 146.01,-20.13 156.23,-18.15"/>
<polygon fill="midnightblue" stroke="midnightblue" points="157.1,-21.55 166.25,-16.22 155.77,-14.68 157.1,-21.55"/>
</g>
<!-- Node28&#45;&gt;Node10 -->
<g id="edge10" class="edge">
<title>Node28&#45;&gt;Node10</title>
<path fill="none" stroke="midnightblue" d="M130.09,-61.2C138.22,-59.63 147.18,-57.9 155.86,-56.23"/>
<polygon fill="midnightblue" stroke="midnightblue" points="156.7,-59.63 165.85,-54.3 155.37,-52.75 156.7,-59.63"/>
</g>
</g>
</svg>
