<?xml version="1.0" encoding="UTF-8" standalone="no"?>
<!DOCTYPE svg PUBLIC "-//W3C//DTD SVG 1.1//EN"
 "http://www.w3.org/Graphics/SVG/1.1/DTD/svg11.dtd">
<!-- Generated by graphviz version 2.46.0 (0)
 -->
<!-- Title: hsmg_do_wt Pages: 1 -->
<svg width="444pt" height="199pt"
 viewBox="0.00 0.00 444.00 199.00" xmlns="http://www.w3.org/2000/svg" xmlns:xlink="http://www.w3.org/1999/xlink">
<g id="graph0" class="graph" transform="scale(1 1) rotate(0) translate(4 195)">
<title>hsmg_do_wt</title>
<polygon fill="white" stroke="transparent" points="-4,4 -4,-195 440,-195 440,4 -4,4"/>
<!-- Node1 -->
<g id="node1" class="node">
<title>Node1</title>
<g id="a_node1"><a xlink:title=" ">
<polygon fill="#bfbfbf" stroke="black" points="364,-76.5 364,-95.5 436,-95.5 436,-76.5 364,-76.5"/>
<text text-anchor="middle" x="400" y="-83.5" font-family="Helvetica,sans-Serif" font-size="10.00">hsmg_do_wt</text>
</a>
</g>
</g>
<!-- Node2 -->
<g id="node2" class="node">
<title>Node2</title>
<g id="a_node2"><a xlink:href="hsmg_8f.html#a64c01748f81a2e5afc3666e28c483c6b" target="_top" xlink:title=" ">
<polygon fill="white" stroke="black" points="243,-152.5 243,-171.5 303,-171.5 303,-152.5 243,-152.5"/>
<text text-anchor="middle" x="273" y="-159.5" font-family="Helvetica,sans-Serif" font-size="10.00">h1mg_rstr</text>
</a>
</g>
</g>
<!-- Node1&#45;&gt;Node2 -->
<g id="edge1" class="edge">
<title>Node1&#45;&gt;Node2</title>
<path fill="none" stroke="midnightblue" d="M381.57,-102.81C367.9,-115.27 347.91,-131.93 328,-143 320.27,-147.3 311.39,-150.9 303.09,-153.78"/>
<polygon fill="midnightblue" stroke="midnightblue" points="384.29,-105.06 389.21,-95.68 379.51,-99.94 384.29,-105.06"/>
</g>
<!-- Node75 -->
<g id="node6" class="node">
<title>Node75</title>
<g id="a_node6"><a xlink:href="hsmg_8f.html#a1f5778e79f84d5dcf6094f8c5a894993" target="_top" xlink:title=" ">
<polygon fill="white" stroke="black" points="243,-114.5 243,-133.5 303,-133.5 303,-114.5 243,-114.5"/>
<text text-anchor="middle" x="273" y="-121.5" font-family="Helvetica,sans-Serif" font-size="10.00">hsmg_rstr</text>
</a>
</g>
</g>
<!-- Node1&#45;&gt;Node75 -->
<g id="edge5" class="edge">
<title>Node1&#45;&gt;Node75</title>
<path fill="none" stroke="midnightblue" d="M357.88,-98.5C340.07,-103.91 319.63,-110.13 303.39,-115.07"/>
<polygon fill="midnightblue" stroke="midnightblue" points="358.91,-101.85 367.46,-95.59 356.87,-95.15 358.91,-101.85"/>
</g>
<!-- Node62 -->
<g id="node7" class="node">
<title>Node62</title>
<g id="a_node7"><a xlink:href="hsmg_8f.html#ab28b637ce952431f92c7210efdd23b52" target="_top" xlink:title=" ">
<polygon fill="white" stroke="black" points="113,-57.5 113,-76.5 182,-76.5 182,-57.5 113,-57.5"/>
<text text-anchor="middle" x="147.5" y="-64.5" font-family="Helvetica,sans-Serif" font-size="10.00">hsmg_solve</text>
</a>
</g>
</g>
<!-- Node1&#45;&gt;Node62 -->
<g id="edge12" class="edge">
<title>Node1&#45;&gt;Node62</title>
<path fill="none" stroke="midnightblue" d="M353.82,-82.57C304.43,-78.83 226.44,-72.91 182.16,-69.55"/>
<polygon fill="midnightblue" stroke="midnightblue" points="353.67,-86.07 363.91,-83.34 354.2,-79.09 353.67,-86.07"/>
</g>
<!-- Node76 -->
<g id="node9" class="node">
<title>Node76</title>
<g id="a_node9"><a xlink:href="hsmg_8f.html#a0954711b1dddc9fd05814db2210a65d3" target="_top" xlink:title=" ">
<polygon fill="white" stroke="black" points="218,-38.5 218,-57.5 328,-57.5 328,-38.5 218,-38.5"/>
<text text-anchor="middle" x="273" y="-45.5" font-family="Helvetica,sans-Serif" font-size="10.00">hsmg_rstr_no_dssum</text>
</a>
</g>
</g>
<!-- Node1&#45;&gt;Node76 -->
<g id="edge8" class="edge">
<title>Node1&#45;&gt;Node76</title>
<path fill="none" stroke="midnightblue" d="M357.77,-73.46C340.76,-68.3 321.37,-62.4 305.53,-57.59"/>
<polygon fill="midnightblue" stroke="midnightblue" points="356.87,-76.85 367.46,-76.41 358.91,-70.15 356.87,-76.85"/>
</g>
<!-- Node77 -->
<g id="node10" class="node">
<title>Node77</title>
<g id="a_node10"><a xlink:href="hsmg_8f.html#a66d72f30649dfb581129bf9adafe017f" target="_top" xlink:title=" ">
<polygon fill="white" stroke="black" points="231.5,-0.5 231.5,-19.5 314.5,-19.5 314.5,-0.5 231.5,-0.5"/>
<text text-anchor="middle" x="273" y="-7.5" font-family="Helvetica,sans-Serif" font-size="10.00">hsmg_schwarz</text>
</a>
</g>
</g>
<!-- Node1&#45;&gt;Node77 -->
<g id="edge10" class="edge">
<title>Node1&#45;&gt;Node77</title>
<path fill="none" stroke="midnightblue" d="M381.57,-69.19C367.9,-56.73 347.91,-40.07 328,-29 321.4,-25.33 313.96,-22.16 306.76,-19.53"/>
<polygon fill="midnightblue" stroke="midnightblue" points="379.51,-72.06 389.21,-76.32 384.29,-66.94 379.51,-72.06"/>
</g>
<!-- Node3 -->
<g id="node3" class="node">
<title>Node3</title>
<g id="a_node3"><a xlink:href="hsmg_8f.html#a80c3292949e823718ac035e38b894494" target="_top" xlink:title=" ">
<polygon fill="white" stroke="black" points="113,-152.5 113,-171.5 182,-171.5 182,-152.5 113,-152.5"/>
<text text-anchor="middle" x="147.5" y="-159.5" font-family="Helvetica,sans-Serif" font-size="10.00">h1mg_solve</text>
</a>
</g>
</g>
<!-- Node2&#45;&gt;Node3 -->
<g id="edge2" class="edge">
<title>Node2&#45;&gt;Node3</title>
<path fill="none" stroke="midnightblue" d="M232.52,-162C216.37,-162 197.88,-162 182.37,-162"/>
<polygon fill="midnightblue" stroke="midnightblue" points="232.73,-165.5 242.73,-162 232.73,-158.5 232.73,-165.5"/>
</g>
<!-- Node4 -->
<g id="node4" class="node">
<title>Node4</title>
<g id="a_node4"><a xlink:href="hmholtz_8f.html#a8a396e973763e576543b4ab90c072b6d" target="_top" xlink:title=" ">
<polygon fill="white" stroke="red" points="2.5,-171.5 2.5,-190.5 74.5,-190.5 74.5,-171.5 2.5,-171.5"/>
<text text-anchor="middle" x="38.5" y="-178.5" font-family="Helvetica,sans-Serif" font-size="10.00">hmh_flex_cg</text>
</a>
</g>
</g>
<!-- Node3&#45;&gt;Node4 -->
<g id="edge3" class="edge">
<title>Node3&#45;&gt;Node4</title>
<path fill="none" stroke="midnightblue" d="M102.99,-169.73C93.61,-171.39 83.81,-173.13 74.79,-174.73"/>
<polygon fill="midnightblue" stroke="midnightblue" points="103.7,-173.15 112.94,-167.96 102.48,-166.26 103.7,-173.15"/>
</g>
<!-- Node74 -->
<g id="node5" class="node">
<title>Node74</title>
<g id="a_node5"><a xlink:href="gmres_8f.html#a377d8578c6ccd4fddffb699c7a18f603" target="_top" xlink:title=" ">
<polygon fill="white" stroke="red" points="4.5,-133.5 4.5,-152.5 72.5,-152.5 72.5,-133.5 4.5,-133.5"/>
<text text-anchor="middle" x="38.5" y="-140.5" font-family="Helvetica,sans-Serif" font-size="10.00">hmh_gmres</text>
</a>
</g>
</g>
<!-- Node3&#45;&gt;Node74 -->
<g id="edge4" class="edge">
<title>Node3&#45;&gt;Node74</title>
<path fill="none" stroke="midnightblue" d="M103.01,-154.28C92.85,-152.47 82.19,-150.58 72.58,-148.87"/>
<polygon fill="midnightblue" stroke="midnightblue" points="102.48,-157.74 112.94,-156.04 103.7,-150.85 102.48,-157.74"/>
</g>
<!-- Node75&#45;&gt;Node62 -->
<g id="edge6" class="edge">
<title>Node75&#45;&gt;Node62</title>
<path fill="none" stroke="midnightblue" d="M240.94,-110.36C233.42,-107.01 225.41,-103.4 218,-100 201.13,-92.25 182.09,-83.18 168.21,-76.52"/>
<polygon fill="midnightblue" stroke="midnightblue" points="239.58,-113.58 250.14,-114.43 242.41,-107.18 239.58,-113.58"/>
</g>
<!-- Node44 -->
<g id="node8" class="node">
<title>Node44</title>
<g id="a_node8"><a xlink:href="gmres_8f.html#a7ddb9e8764ebf87db6b357ca39df2a08" target="_top" xlink:title=" ">
<polygon fill="white" stroke="red" points="0,-57.5 0,-76.5 77,-76.5 77,-57.5 0,-57.5"/>
<text text-anchor="middle" x="38.5" y="-64.5" font-family="Helvetica,sans-Serif" font-size="10.00">uzawa_gmres</text>
</a>
</g>
</g>
<!-- Node62&#45;&gt;Node44 -->
<g id="edge7" class="edge">
<title>Node62&#45;&gt;Node44</title>
<path fill="none" stroke="midnightblue" d="M102.76,-67C94.23,-67 85.35,-67 77.04,-67"/>
<polygon fill="midnightblue" stroke="midnightblue" points="102.94,-70.5 112.94,-67 102.94,-63.5 102.94,-70.5"/>
</g>
<!-- Node76&#45;&gt;Node62 -->
<g id="edge9" class="edge">
<title>Node76&#45;&gt;Node62</title>
<path fill="none" stroke="midnightblue" d="M207.79,-57.88C198.88,-59.25 190.04,-60.61 182.02,-61.84"/>
<polygon fill="midnightblue" stroke="midnightblue" points="208.48,-61.31 217.83,-56.33 207.42,-54.4 208.48,-61.31"/>
</g>
<!-- Node77&#45;&gt;Node62 -->
<g id="edge11" class="edge">
<title>Node77&#45;&gt;Node62</title>
<path fill="none" stroke="midnightblue" d="M232.71,-22.98C227.71,-24.88 222.7,-26.9 218,-29 198.91,-37.51 177.99,-49.31 164.14,-57.49"/>
<polygon fill="midnightblue" stroke="midnightblue" points="234.04,-26.22 242.23,-19.5 231.64,-19.65 234.04,-26.22"/>
</g>
</g>
</svg>
