<?xml version="1.0" encoding="UTF-8" standalone="no"?>
<!DOCTYPE svg PUBLIC "-//W3C//DTD SVG 1.1//EN"
 "http://www.w3.org/Graphics/SVG/1.1/DTD/svg11.dtd">
<!-- Generated by graphviz version 2.46.0 (0)
 -->
<!-- Title: hsmg_schwarz Pages: 1 -->
<svg width="247pt" height="332pt"
 viewBox="0.00 0.00 247.00 332.00" xmlns="http://www.w3.org/2000/svg" xmlns:xlink="http://www.w3.org/1999/xlink">
<g id="graph0" class="graph" transform="scale(1 1) rotate(0) translate(4 328)">
<title>hsmg_schwarz</title>
<polygon fill="white" stroke="transparent" points="-4,4 -4,-328 243,-328 243,4 -4,4"/>
<!-- Node1 -->
<g id="node1" class="node">
<title>Node1</title>
<g id="a_node1"><a xlink:title=" ">
<polygon fill="#bfbfbf" stroke="black" points="0,-152.5 0,-171.5 83,-171.5 83,-152.5 0,-152.5"/>
<text text-anchor="middle" x="41.5" y="-159.5" font-family="Helvetica,sans-Serif" font-size="10.00">hsmg_schwarz</text>
</a>
</g>
</g>
<!-- Node2 -->
<g id="node2" class="node">
<title>Node2</title>
<g id="a_node2"><a xlink:href="hsmg_8f.html#aa1b03ec639e9f6db6957f7f0605e6a46" target="_top" xlink:title=" ">
<polygon fill="white" stroke="black" points="143,-304.5 143,-323.5 215,-323.5 215,-304.5 143,-304.5"/>
<text text-anchor="middle" x="179" y="-311.5" font-family="Helvetica,sans-Serif" font-size="10.00">hsmg_do_wt</text>
</a>
</g>
</g>
<!-- Node1&#45;&gt;Node2 -->
<g id="edge1" class="edge">
<title>Node1&#45;&gt;Node2</title>
<path fill="none" stroke="midnightblue" d="M45.34,-171.64C53.03,-196.03 76.55,-260.66 119,-295 123.29,-298.47 128.22,-301.31 133.38,-303.64"/>
<polygon fill="midnightblue" stroke="midnightblue" points="132.2,-306.93 142.79,-307.29 134.73,-300.41 132.2,-306.93"/>
</g>
<!-- Node3 -->
<g id="node3" class="node">
<title>Node3</title>
<g id="a_node3"><a xlink:href="hsmg_8f.html#a53462275516b6927e6922dca3e6c2ecf" target="_top" xlink:title=" ">
<polygon fill="white" stroke="red" points="141.5,-266.5 141.5,-285.5 216.5,-285.5 216.5,-266.5 141.5,-266.5"/>
<text text-anchor="middle" x="179" y="-273.5" font-family="Helvetica,sans-Serif" font-size="10.00">hsmg_dssum</text>
</a>
</g>
</g>
<!-- Node1&#45;&gt;Node3 -->
<g id="edge2" class="edge">
<title>Node1&#45;&gt;Node3</title>
<path fill="none" stroke="midnightblue" d="M47.66,-171.63C58.4,-190.73 84.97,-233.61 119,-257 122.95,-259.71 127.31,-262.06 131.82,-264.08"/>
<polygon fill="midnightblue" stroke="midnightblue" points="130.61,-267.37 141.2,-267.79 133.19,-260.86 130.61,-267.37"/>
</g>
<!-- Node8 -->
<g id="node4" class="node">
<title>Node8</title>
<g id="a_node4"><a xlink:href="hsmg_8f.html#a1f45ce630b724eacd4e8fe9e69a56008" target="_top" xlink:title=" ">
<polygon fill="white" stroke="black" points="140,-228.5 140,-247.5 218,-247.5 218,-228.5 140,-228.5"/>
<text text-anchor="middle" x="179" y="-235.5" font-family="Helvetica,sans-Serif" font-size="10.00">hsmg_extrude</text>
</a>
</g>
</g>
<!-- Node1&#45;&gt;Node8 -->
<g id="edge3" class="edge">
<title>Node1&#45;&gt;Node8</title>
<path fill="none" stroke="midnightblue" d="M53.13,-171.73C67.25,-184.21 93.38,-205.8 119,-219 123.26,-221.2 127.82,-223.2 132.45,-225.02"/>
<polygon fill="midnightblue" stroke="midnightblue" points="131.39,-228.36 141.98,-228.48 133.78,-221.78 131.39,-228.36"/>
</g>
<!-- Node9 -->
<g id="node5" class="node">
<title>Node9</title>
<g id="a_node5"><a xlink:href="hsmg_8f.html#a52546ae5a97db5ee9f5cb50c4bf87d0b" target="_top" xlink:title=" ">
<polygon fill="white" stroke="red" points="148,-190.5 148,-209.5 210,-209.5 210,-190.5 148,-190.5"/>
<text text-anchor="middle" x="179" y="-197.5" font-family="Helvetica,sans-Serif" font-size="10.00">hsmg_fdm</text>
</a>
</g>
</g>
<!-- Node1&#45;&gt;Node9 -->
<g id="edge4" class="edge">
<title>Node1&#45;&gt;Node9</title>
<path fill="none" stroke="midnightblue" d="M76.69,-171.59C95.39,-176.83 118.64,-183.35 138.15,-188.82"/>
<polygon fill="midnightblue" stroke="midnightblue" points="137.4,-192.25 147.97,-191.58 139.29,-185.51 137.4,-192.25"/>
</g>
<!-- Node13 -->
<g id="node6" class="node">
<title>Node13</title>
<g id="a_node6"><a xlink:href="hsmg_8f.html#a620f6003af8fe1c352f468e85d1016f4" target="_top" xlink:title=" ">
<polygon fill="white" stroke="red" points="120.5,-152.5 120.5,-171.5 237.5,-171.5 237.5,-152.5 120.5,-152.5"/>
<text text-anchor="middle" x="179" y="-159.5" font-family="Helvetica,sans-Serif" font-size="10.00">hsmg_schwarz_dssum</text>
</a>
</g>
</g>
<!-- Node1&#45;&gt;Node13 -->
<g id="edge5" class="edge">
<title>Node1&#45;&gt;Node13</title>
<path fill="none" stroke="midnightblue" d="M83.15,-162C91.74,-162 101.02,-162 110.31,-162"/>
<polygon fill="midnightblue" stroke="midnightblue" points="110.34,-165.5 120.34,-162 110.34,-158.5 110.34,-165.5"/>
</g>
<!-- Node14 -->
<g id="node7" class="node">
<title>Node14</title>
<g id="a_node7"><a xlink:href="hsmg_8f.html#ad86fa1ca9b0f7e3dda284c484c161e09" target="_top" xlink:title=" ">
<polygon fill="white" stroke="black" points="119,-114.5 119,-133.5 239,-133.5 239,-114.5 119,-114.5"/>
<text text-anchor="middle" x="179" y="-121.5" font-family="Helvetica,sans-Serif" font-size="10.00">hsmg_schwarz_toext2d</text>
</a>
</g>
</g>
<!-- Node1&#45;&gt;Node14 -->
<g id="edge6" class="edge">
<title>Node1&#45;&gt;Node14</title>
<path fill="none" stroke="midnightblue" d="M76.69,-152.41C94.1,-147.53 115.47,-141.54 134.09,-136.32"/>
<polygon fill="midnightblue" stroke="midnightblue" points="135.14,-139.66 143.82,-133.59 133.24,-132.92 135.14,-139.66"/>
</g>
<!-- Node15 -->
<g id="node8" class="node">
<title>Node15</title>
<g id="a_node8"><a xlink:href="hsmg_8f.html#af69dad0d5928e1840da574ed6ffd87aa" target="_top" xlink:title=" ">
<polygon fill="white" stroke="red" points="119,-76.5 119,-95.5 239,-95.5 239,-76.5 119,-76.5"/>
<text text-anchor="middle" x="179" y="-83.5" font-family="Helvetica,sans-Serif" font-size="10.00">hsmg_schwarz_toext3d</text>
</a>
</g>
</g>
<!-- Node1&#45;&gt;Node15 -->
<g id="edge7" class="edge">
<title>Node1&#45;&gt;Node15</title>
<path fill="none" stroke="midnightblue" d="M53.13,-152.27C67.25,-139.79 93.38,-118.2 119,-105 123.26,-102.8 127.82,-100.8 132.45,-98.98"/>
<polygon fill="midnightblue" stroke="midnightblue" points="133.78,-102.22 141.98,-95.52 131.39,-95.64 133.78,-102.22"/>
</g>
<!-- Node17 -->
<g id="node9" class="node">
<title>Node17</title>
<g id="a_node9"><a xlink:href="hsmg_8f.html#a5558f8accb5d431fd7a6aeeb49ac5538" target="_top" xlink:title=" ">
<polygon fill="white" stroke="black" points="119,-38.5 119,-57.5 239,-57.5 239,-38.5 119,-38.5"/>
<text text-anchor="middle" x="179" y="-45.5" font-family="Helvetica,sans-Serif" font-size="10.00">hsmg_schwarz_toreg2d</text>
</a>
</g>
</g>
<!-- Node1&#45;&gt;Node17 -->
<g id="edge8" class="edge">
<title>Node1&#45;&gt;Node17</title>
<path fill="none" stroke="midnightblue" d="M47.66,-152.37C58.4,-133.27 84.97,-90.39 119,-67 121.88,-65.02 124.98,-63.24 128.2,-61.63"/>
<polygon fill="midnightblue" stroke="midnightblue" points="129.73,-64.78 137.49,-57.57 126.92,-58.37 129.73,-64.78"/>
</g>
<!-- Node18 -->
<g id="node10" class="node">
<title>Node18</title>
<g id="a_node10"><a xlink:href="hsmg_8f.html#a2240ae4b2fe44f6b9255d3fbba9472da" target="_top" xlink:title=" ">
<polygon fill="white" stroke="black" points="119,-0.5 119,-19.5 239,-19.5 239,-0.5 119,-0.5"/>
<text text-anchor="middle" x="179" y="-7.5" font-family="Helvetica,sans-Serif" font-size="10.00">hsmg_schwarz_toreg3d</text>
</a>
</g>
</g>
<!-- Node1&#45;&gt;Node18 -->
<g id="edge9" class="edge">
<title>Node1&#45;&gt;Node18</title>
<path fill="none" stroke="midnightblue" d="M45.34,-152.36C53.03,-127.97 76.55,-63.34 119,-29 121.16,-27.25 123.49,-25.66 125.92,-24.22"/>
<polygon fill="midnightblue" stroke="midnightblue" points="127.75,-27.22 135.12,-19.6 124.61,-20.96 127.75,-27.22"/>
</g>
</g>
</svg>
