<?xml version="1.0" encoding="UTF-8" standalone="no"?>
<!DOCTYPE svg PUBLIC "-//W3C//DTD SVG 1.1//EN"
 "http://www.w3.org/Graphics/SVG/1.1/DTD/svg11.dtd">
<!-- Generated by graphviz version 2.46.0 (0)
 -->
<!-- Title: mg_intp_fc_e Pages: 1 -->
<svg width="577pt" height="104pt"
 viewBox="0.00 0.00 577.00 104.00" xmlns="http://www.w3.org/2000/svg" xmlns:xlink="http://www.w3.org/1999/xlink">
<g id="graph0" class="graph" transform="scale(1 1) rotate(0) translate(4 100)">
<title>mg_intp_fc_e</title>
<polygon fill="white" stroke="transparent" points="-4,4 -4,-100 573,-100 573,4 -4,4"/>
<!-- Node1 -->
<g id="node1" class="node">
<title>Node1</title>
<g id="a_node1"><a xlink:title=" ">
<polygon fill="#bfbfbf" stroke="black" points="494,-19.5 494,-38.5 569,-38.5 569,-19.5 494,-19.5"/>
<text text-anchor="middle" x="531.5" y="-26.5" font-family="Helvetica,sans-Serif" font-size="10.00">mg_intp_fc_e</text>
</a>
</g>
</g>
<!-- Node2 -->
<g id="node2" class="node">
<title>Node2</title>
<g id="a_node2"><a xlink:href="hsmg_8f.html#a162e1ef46e1d6636d8f87b4502215163" target="_top" xlink:title=" ">
<polygon fill="white" stroke="black" points="393,-19.5 393,-38.5 458,-38.5 458,-19.5 393,-19.5"/>
<text text-anchor="middle" x="425.5" y="-26.5" font-family="Helvetica,sans-Serif" font-size="10.00">mg_set_gb</text>
</a>
</g>
</g>
<!-- Node1&#45;&gt;Node2 -->
<g id="edge1" class="edge">
<title>Node1&#45;&gt;Node2</title>
<path fill="none" stroke="midnightblue" d="M483.75,-29C475.04,-29 466.13,-29 458.01,-29"/>
<polygon fill="midnightblue" stroke="midnightblue" points="483.83,-32.5 493.83,-29 483.83,-25.5 483.83,-32.5"/>
</g>
<!-- Node3 -->
<g id="node3" class="node">
<title>Node3</title>
<g id="a_node3"><a xlink:href="hsmg_8f.html#a69c832fdb8ddb920e673132a4f61db87" target="_top" xlink:title=" ">
<polygon fill="white" stroke="black" points="289.5,-38.5 289.5,-57.5 354.5,-57.5 354.5,-38.5 289.5,-38.5"/>
<text text-anchor="middle" x="322" y="-45.5" font-family="Helvetica,sans-Serif" font-size="10.00">h1mg_axm</text>
</a>
</g>
</g>
<!-- Node2&#45;&gt;Node3 -->
<g id="edge2" class="edge">
<title>Node2&#45;&gt;Node3</title>
<path fill="none" stroke="midnightblue" d="M382.9,-36.79C373.43,-38.56 363.51,-40.42 354.54,-42.1"/>
<polygon fill="midnightblue" stroke="midnightblue" points="383.76,-40.19 392.94,-34.91 382.47,-33.31 383.76,-40.19"/>
</g>
<!-- Node76 -->
<g id="node8" class="node">
<title>Node76</title>
<g id="a_node8"><a xlink:href="hsmg_8f.html#a6dff08ef961a6a5565642ab92a12b1e8" target="_top" xlink:title=" ">
<polygon fill="white" stroke="black" points="287,-0.5 287,-19.5 357,-19.5 357,-0.5 287,-0.5"/>
<text text-anchor="middle" x="322" y="-7.5" font-family="Helvetica,sans-Serif" font-size="10.00">h1mg_setup</text>
</a>
</g>
</g>
<!-- Node2&#45;&gt;Node76 -->
<g id="edge8" class="edge">
<title>Node2&#45;&gt;Node76</title>
<path fill="none" stroke="midnightblue" d="M383.02,-21.24C374.37,-19.62 365.35,-17.93 357.01,-16.37"/>
<polygon fill="midnightblue" stroke="midnightblue" points="382.47,-24.69 392.94,-23.09 383.76,-17.81 382.47,-24.69"/>
</g>
<!-- Node4 -->
<g id="node4" class="node">
<title>Node4</title>
<g id="a_node4"><a xlink:href="hsmg_8f.html#a80c3292949e823718ac035e38b894494" target="_top" xlink:title=" ">
<polygon fill="white" stroke="black" points="182,-38.5 182,-57.5 251,-57.5 251,-38.5 182,-38.5"/>
<text text-anchor="middle" x="216.5" y="-45.5" font-family="Helvetica,sans-Serif" font-size="10.00">h1mg_solve</text>
</a>
</g>
</g>
<!-- Node3&#45;&gt;Node4 -->
<g id="edge3" class="edge">
<title>Node3&#45;&gt;Node4</title>
<path fill="none" stroke="midnightblue" d="M279.11,-48C269.79,-48 260.02,-48 251.08,-48"/>
<polygon fill="midnightblue" stroke="midnightblue" points="279.38,-51.5 289.38,-48 279.38,-44.5 279.38,-51.5"/>
</g>
<!-- Node5 -->
<g id="node5" class="node">
<title>Node5</title>
<g id="a_node5"><a xlink:href="hmholtz_8f.html#a8a396e973763e576543b4ab90c072b6d" target="_top" xlink:title=" ">
<polygon fill="white" stroke="black" points="74,-76.5 74,-95.5 146,-95.5 146,-76.5 74,-76.5"/>
<text text-anchor="middle" x="110" y="-83.5" font-family="Helvetica,sans-Serif" font-size="10.00">hmh_flex_cg</text>
</a>
</g>
</g>
<!-- Node4&#45;&gt;Node5 -->
<g id="edge4" class="edge">
<title>Node4&#45;&gt;Node5</title>
<path fill="none" stroke="midnightblue" d="M179.43,-61.12C165.6,-66.14 150.11,-71.78 137.36,-76.41"/>
<polygon fill="midnightblue" stroke="midnightblue" points="180.93,-64.3 189.13,-57.59 178.54,-57.72 180.93,-64.3"/>
</g>
<!-- Node75 -->
<g id="node7" class="node">
<title>Node75</title>
<g id="a_node7"><a xlink:href="gmres_8f.html#a377d8578c6ccd4fddffb699c7a18f603" target="_top" xlink:title=" ">
<polygon fill="white" stroke="black" points="76,-38.5 76,-57.5 144,-57.5 144,-38.5 76,-38.5"/>
<text text-anchor="middle" x="110" y="-45.5" font-family="Helvetica,sans-Serif" font-size="10.00">hmh_gmres</text>
</a>
</g>
</g>
<!-- Node4&#45;&gt;Node75 -->
<g id="edge6" class="edge">
<title>Node4&#45;&gt;Node75</title>
<path fill="none" stroke="midnightblue" d="M171.7,-48C162.5,-48 152.95,-48 144.22,-48"/>
<polygon fill="midnightblue" stroke="midnightblue" points="171.86,-51.5 181.86,-48 171.86,-44.5 171.86,-51.5"/>
</g>
<!-- Node6 -->
<g id="node6" class="node">
<title>Node6</title>
<g id="a_node6"><a xlink:href="hmholtz_8f.html#a8734f3cc2d37d6a2ccd1daa8db57513d" target="_top" xlink:title=" ">
<polygon fill="white" stroke="red" points="0,-57.5 0,-76.5 38,-76.5 38,-57.5 0,-57.5"/>
<text text-anchor="middle" x="19" y="-64.5" font-family="Helvetica,sans-Serif" font-size="10.00">cggo</text>
</a>
</g>
</g>
<!-- Node5&#45;&gt;Node6 -->
<g id="edge5" class="edge">
<title>Node5&#45;&gt;Node6</title>
<path fill="none" stroke="midnightblue" d="M63.93,-76.38C54.76,-74.42 45.62,-72.47 38.07,-70.86"/>
<polygon fill="midnightblue" stroke="midnightblue" points="63.31,-79.83 73.82,-78.49 64.78,-72.98 63.31,-79.83"/>
</g>
<!-- Node75&#45;&gt;Node6 -->
<g id="edge7" class="edge">
<title>Node75&#45;&gt;Node6</title>
<path fill="none" stroke="midnightblue" d="M65.89,-57.2C56.22,-59.27 46.46,-61.35 38.44,-63.06"/>
<polygon fill="midnightblue" stroke="midnightblue" points="66.81,-60.59 75.86,-55.07 65.35,-53.74 66.81,-60.59"/>
</g>
<!-- Node77 -->
<g id="node9" class="node">
<title>Node77</title>
<g id="a_node9"><a xlink:href="navier6_8f.html#a45317b1def173b8f1db2e5083595d095" target="_top" xlink:title=" ">
<polygon fill="white" stroke="black" points="183,-0.5 183,-19.5 250,-19.5 250,-0.5 183,-0.5"/>
<text text-anchor="middle" x="216.5" y="-7.5" font-family="Helvetica,sans-Serif" font-size="10.00">set_overlap</text>
</a>
</g>
</g>
<!-- Node76&#45;&gt;Node77 -->
<g id="edge9" class="edge">
<title>Node76&#45;&gt;Node77</title>
<path fill="none" stroke="midnightblue" d="M276.62,-10C267.77,-10 258.61,-10 250.23,-10"/>
<polygon fill="midnightblue" stroke="midnightblue" points="276.82,-13.5 286.82,-10 276.82,-6.5 276.82,-13.5"/>
</g>
<!-- Node78 -->
<g id="node10" class="node">
<title>Node78</title>
<g id="a_node10"><a xlink:href="drive2_8f.html#a7cb0ea7de68c5c3cbc3f7290f01a4d51" target="_top" xlink:title=" ">
<polygon fill="white" stroke="red" points="91,-0.5 91,-19.5 129,-19.5 129,-0.5 91,-0.5"/>
<text text-anchor="middle" x="110" y="-7.5" font-family="Helvetica,sans-Serif" font-size="10.00">prinit</text>
</a>
</g>
</g>
<!-- Node77&#45;&gt;Node78 -->
<g id="edge10" class="edge">
<title>Node77&#45;&gt;Node78</title>
<path fill="none" stroke="midnightblue" d="M172.45,-10C157.28,-10 141.04,-10 129.06,-10"/>
<polygon fill="midnightblue" stroke="midnightblue" points="172.72,-13.5 182.72,-10 172.72,-6.5 172.72,-13.5"/>
</g>
</g>
</svg>
