<?xml version="1.0" encoding="UTF-8" standalone="no"?>
<!DOCTYPE svg PUBLIC "-//W3C//DTD SVG 1.1//EN"
 "http://www.w3.org/Graphics/SVG/1.1/DTD/svg11.dtd">
<!-- Generated by graphviz version 2.46.0 (0)
 -->
<!-- Title: hsmg_tnsr3d_el Pages: 1 -->
<!--zoomable 66 -->
<svg id="main" version="1.1" xmlns="http://www.w3.org/2000/svg" xmlns:xlink="http://www.w3.org/1999/xlink" xml:space="preserve" onload="init(evt)">
<style type="text/css"><![CDATA[
.edge:hover path { stroke: red; }
.edge:hover polygon { stroke: red; fill: red; }
]]></style>
<script type="text/javascript"><![CDATA[
var edges = document.getElementsByTagName('g');
if (edges && edges.length) {
  for (var i=0;i<edges.length;i++) {
    if (edges[i].id.substr(0,4)=='edge') {
      edges[i].setAttribute('class','edge');
    }
  }
}
]]></script>
        <defs>
                <circle id="rim" cx="0" cy="0" r="7"/>
                <circle id="rim2" cx="0" cy="0" r="3.5"/>
                <g id="zoomPlus">
                        <use xlink:href="#rim" fill="#404040">
                                <set attributeName="fill" to="#808080" begin="zoomplus.mouseover" end="zoomplus.mouseout"/>
                        </use>
                        <path d="M-4,0h8M0,-4v8" fill="none" stroke="white" stroke-width="1.5" pointer-events="none"/>
                </g>
                <g id="zoomMin">
                        <use xlink:href="#rim" fill="#404040">
                                <set attributeName="fill" to="#808080" begin="zoomminus.mouseover" end="zoomminus.mouseout"/>
                        </use>
                        <path d="M-4,0h8" fill="none" stroke="white" stroke-width="1.5" pointer-events="none"/>
                </g>
                <g id="dirArrow">
                        <path fill="none" stroke="white" stroke-width="1.5" d="M0,-3.0v7 M-2.5,-0.5L0,-3.0L2.5,-0.5"/>
                </g>
               <g id="resetDef">
                       <use xlink:href="#rim2" fill="#404040">
                               <set attributeName="fill" to="#808080" begin="reset.mouseover" end="reset.mouseout"/>
                       </use>
               </g>
        </defs>

<script type="text/javascript">
var viewWidth = 792;
var viewHeight = 66;
var sectionId = 'dynsection-113';
</script>
<script xlink:href="svgpan.js"/>
<svg id="graph" class="graph">
<g id="viewport">
<title>hsmg_tnsr3d_el</title>
<polygon fill="white" stroke="transparent" points="-4,4 -4,-62 788,-62 788,4 -4,4"/>
<!-- Node1 -->
<g id="node1" class="node">
<title>Node1</title>
<g id="a_node1"><a xlink:title=" ">
<polygon fill="#bfbfbf" stroke="black" points="698,-19.5 698,-38.5 784,-38.5 784,-19.5 698,-19.5"/>
<text text-anchor="middle" x="741" y="-26.5" font-family="Helvetica,sans-Serif" font-size="10.00">hsmg_tnsr3d_el</text>
</a>
</g>
</g>
<!-- Node2 -->
<g id="node2" class="node">
<title>Node2</title>
<g id="a_node2"><a xlink:href="hsmg_8f.html#acd0fd595d73abf0e912253ccef6d10c6" target="_top" xlink:title=" ">
<polygon fill="white" stroke="black" points="584,-19.5 584,-38.5 662,-38.5 662,-19.5 584,-19.5"/>
<text text-anchor="middle" x="623" y="-26.5" font-family="Helvetica,sans-Serif" font-size="10.00">hsmg_do_fast</text>
</a>
</g>
</g>
<!-- Node1&#45;&gt;Node2 -->
<g id="edge1" class="edge">
<title>Node1&#45;&gt;Node2</title>
<path fill="none" stroke="midnightblue" d="M687.78,-29C679.15,-29 670.34,-29 662.14,-29"/>
<polygon fill="midnightblue" stroke="midnightblue" points="687.79,-32.5 697.79,-29 687.79,-25.5 687.79,-32.5"/>
</g>
<!-- Node3 -->
<g id="node3" class="node">
<title>Node3</title>
<g id="a_node3"><a xlink:href="hsmg_8f.html#a52546ae5a97db5ee9f5cb50c4bf87d0b" target="_top" xlink:title=" ">
<polygon fill="white" stroke="black" points="486,-19.5 486,-38.5 548,-38.5 548,-19.5 486,-19.5"/>
<text text-anchor="middle" x="517" y="-26.5" font-family="Helvetica,sans-Serif" font-size="10.00">hsmg_fdm</text>
</a>
</g>
</g>
<!-- Node2&#45;&gt;Node3 -->
<g id="edge2" class="edge">
<title>Node2&#45;&gt;Node3</title>
<path fill="none" stroke="midnightblue" d="M573.8,-29C565.13,-29 556.31,-29 548.32,-29"/>
<polygon fill="midnightblue" stroke="midnightblue" points="573.86,-32.5 583.86,-29 573.86,-25.5 573.86,-32.5"/>
</g>
<!-- Node4 -->
<g id="node4" class="node">
<title>Node4</title>
<g id="a_node4"><a xlink:href="hsmg_8f.html#a41ea2767327fa20d88571c3a13e7d5ac" target="_top" xlink:title=" ">
<polygon fill="white" stroke="black" points="340,-38.5 340,-57.5 450,-57.5 450,-38.5 340,-38.5"/>
<text text-anchor="middle" x="395" y="-45.5" font-family="Helvetica,sans-Serif" font-size="10.00">h1mg_schwarz_part1</text>
</a>
</g>
</g>
<!-- Node3&#45;&gt;Node4 -->
<g id="edge3" class="edge">
<title>Node3&#45;&gt;Node4</title>
<path fill="none" stroke="midnightblue" d="M475.67,-35.39C467.46,-36.69 458.7,-38.07 450.1,-39.43"/>
<polygon fill="midnightblue" stroke="midnightblue" points="476.39,-38.82 485.72,-33.79 475.29,-31.9 476.39,-38.82"/>
</g>
<!-- Node78 -->
<g id="node8" class="node">
<title>Node78</title>
<g id="a_node8"><a xlink:href="hsmg_8f.html#a66d72f30649dfb581129bf9adafe017f" target="_top" xlink:title=" ">
<polygon fill="white" stroke="black" points="353.5,-0.5 353.5,-19.5 436.5,-19.5 436.5,-0.5 353.5,-0.5"/>
<text text-anchor="middle" x="395" y="-7.5" font-family="Helvetica,sans-Serif" font-size="10.00">hsmg_schwarz</text>
</a>
</g>
</g>
<!-- Node3&#45;&gt;Node78 -->
<g id="edge7" class="edge">
<title>Node3&#45;&gt;Node78</title>
<path fill="none" stroke="midnightblue" d="M475.56,-22.6C463.04,-20.61 449.24,-18.43 436.7,-16.44"/>
<polygon fill="midnightblue" stroke="midnightblue" points="475.29,-26.1 485.72,-24.21 476.39,-19.18 475.29,-26.1"/>
</g>
<!-- Node5 -->
<g id="node5" class="node">
<title>Node5</title>
<g id="a_node5"><a xlink:href="hsmg_8f.html#aaef68aa25140b10d1a42123f7ccbd2d8" target="_top" xlink:title=" ">
<polygon fill="white" stroke="black" points="221,-38.5 221,-57.5 304,-57.5 304,-38.5 221,-38.5"/>
<text text-anchor="middle" x="262.5" y="-45.5" font-family="Helvetica,sans-Serif" font-size="10.00">h1mg_schwarz</text>
</a>
</g>
</g>
<!-- Node4&#45;&gt;Node5 -->
<g id="edge4" class="edge">
<title>Node4&#45;&gt;Node5</title>
<path fill="none" stroke="midnightblue" d="M329.66,-48C320.99,-48 312.31,-48 304.21,-48"/>
<polygon fill="midnightblue" stroke="midnightblue" points="329.79,-51.5 339.79,-48 329.79,-44.5 329.79,-51.5"/>
</g>
<!-- Node6 -->
<g id="node6" class="node">
<title>Node6</title>
<g id="a_node6"><a xlink:href="hsmg_8f.html#a80c3292949e823718ac035e38b894494" target="_top" xlink:title=" ">
<polygon fill="white" stroke="red" points="112,-38.5 112,-57.5 181,-57.5 181,-38.5 112,-38.5"/>
<text text-anchor="middle" x="146.5" y="-45.5" font-family="Helvetica,sans-Serif" font-size="10.00">h1mg_solve</text>
</a>
</g>
</g>
<!-- Node5&#45;&gt;Node6 -->
<g id="edge5" class="edge">
<title>Node5&#45;&gt;Node6</title>
<path fill="none" stroke="midnightblue" d="M210.69,-48C200.67,-48 190.39,-48 181.11,-48"/>
<polygon fill="midnightblue" stroke="midnightblue" points="210.99,-51.5 220.99,-48 210.99,-44.5 210.99,-51.5"/>
</g>
<!-- Node7 -->
<g id="node7" class="node">
<title>Node7</title>
<g id="a_node7"><a xlink:href="hmholtz_8f.html#a8a396e973763e576543b4ab90c072b6d" target="_top" xlink:title=" ">
<polygon fill="white" stroke="red" points="0,-38.5 0,-57.5 72,-57.5 72,-38.5 0,-38.5"/>
<text text-anchor="middle" x="36" y="-45.5" font-family="Helvetica,sans-Serif" font-size="10.00">hmh_flex_cg</text>
</a>
</g>
</g>
<!-- Node6&#45;&gt;Node7 -->
<g id="edge6" class="edge">
<title>Node6&#45;&gt;Node7</title>
<path fill="none" stroke="midnightblue" d="M101.76,-48C91.94,-48 81.64,-48 72.22,-48"/>
<polygon fill="midnightblue" stroke="midnightblue" points="101.76,-51.5 111.76,-48 101.76,-44.5 101.76,-51.5"/>
</g>
<!-- Node65 -->
<g id="node9" class="node">
<title>Node65</title>
<g id="a_node9"><a xlink:href="hsmg_8f.html#ab28b637ce952431f92c7210efdd23b52" target="_top" xlink:title=" ">
<polygon fill="white" stroke="black" points="228,-0.5 228,-19.5 297,-19.5 297,-0.5 228,-0.5"/>
<text text-anchor="middle" x="262.5" y="-7.5" font-family="Helvetica,sans-Serif" font-size="10.00">hsmg_solve</text>
</a>
</g>
</g>
<!-- Node78&#45;&gt;Node65 -->
<g id="edge8" class="edge">
<title>Node78&#45;&gt;Node65</title>
<path fill="none" stroke="midnightblue" d="M343.42,-10C327.87,-10 311.15,-10 297.04,-10"/>
<polygon fill="midnightblue" stroke="midnightblue" points="343.42,-13.5 353.42,-10 343.42,-6.5 343.42,-13.5"/>
</g>
<!-- Node47 -->
<g id="node10" class="node">
<title>Node47</title>
<g id="a_node10"><a xlink:href="gmres_8f.html#a7ddb9e8764ebf87db6b357ca39df2a08" target="_top" xlink:title=" ">
<polygon fill="white" stroke="red" points="108,-0.5 108,-19.5 185,-19.5 185,-0.5 108,-0.5"/>
<text text-anchor="middle" x="146.5" y="-7.5" font-family="Helvetica,sans-Serif" font-size="10.00">uzawa_gmres</text>
</a>
</g>
</g>
<!-- Node65&#45;&gt;Node47 -->
<g id="edge9" class="edge">
<title>Node65&#45;&gt;Node47</title>
<path fill="none" stroke="midnightblue" d="M217.86,-10C207.11,-10 195.69,-10 185.24,-10"/>
<polygon fill="midnightblue" stroke="midnightblue" points="217.91,-13.5 227.91,-10 217.91,-6.5 217.91,-13.5"/>
</g>
</g>
</svg>
        <g id="navigator" transform="translate(0 0)" fill="#404254">
                <rect fill="#f2f5e9" fill-opacity="0.5" stroke="#606060" stroke-width=".5" x="0" y="0" width="60" height="60"/>
                <use id="zoomplus" xlink:href="#zoomPlus" x="17" y="9" onmousedown="handleZoom(evt,'in')"/>
                <use id="zoomminus" xlink:href="#zoomMin" x="42" y="9" onmousedown="handleZoom(evt,'out')"/>
                <use id="reset" xlink:href="#resetDef" x="30" y="36" onmousedown="handleReset()"/>
                <g id="arrowUp" xlink:href="#dirArrow" transform="translate(30 24)" onmousedown="handlePan(0,-1)">
                  <use xlink:href="#rim" fill="#404040">
                        <set attributeName="fill" to="#808080" begin="arrowUp.mouseover" end="arrowUp.mouseout"/>
                  </use>
                  <path fill="none" stroke="white" stroke-width="1.5" d="M0,-3.0v7 M-2.5,-0.5L0,-3.0L2.5,-0.5"/>
                </g>
                <g id="arrowRight" xlink:href="#dirArrow" transform="rotate(90) translate(36 -43)" onmousedown="handlePan(1,0)">
                  <use xlink:href="#rim" fill="#404040">
                        <set attributeName="fill" to="#808080" begin="arrowRight.mouseover" end="arrowRight.mouseout"/>
                  </use>
                  <path fill="none" stroke="white" stroke-width="1.5" d="M0,-3.0v7 M-2.5,-0.5L0,-3.0L2.5,-0.5"/>
                </g>
                <g id="arrowDown" xlink:href="#dirArrow" transform="rotate(180) translate(-30 -48)" onmousedown="handlePan(0,1)">
                  <use xlink:href="#rim" fill="#404040">
                        <set attributeName="fill" to="#808080" begin="arrowDown.mouseover" end="arrowDown.mouseout"/>
                  </use>
                  <path fill="none" stroke="white" stroke-width="1.5" d="M0,-3.0v7 M-2.5,-0.5L0,-3.0L2.5,-0.5"/>
                </g>
                <g id="arrowLeft" xlink:href="#dirArrow" transform="rotate(270) translate(-36 17)" onmousedown="handlePan(-1,0)">
                  <use xlink:href="#rim" fill="#404040">
                        <set attributeName="fill" to="#808080" begin="arrowLeft.mouseover" end="arrowLeft.mouseout"/>
                  </use>
                  <path fill="none" stroke="white" stroke-width="1.5" d="M0,-3.0v7 M-2.5,-0.5L0,-3.0L2.5,-0.5"/>
                </g>
        </g>
        <svg viewBox="0 0 15 15" width="100%" height="30px" preserveAspectRatio="xMaxYMin meet">
         <g id="arrow_out" transform="scale(0.3 0.3)">
          <a xlink:href="hsmg_8f_a34a2e5f476d9b703beeb143e1b71c9fa_icgraph_org.svg" target="_base">
           <rect id="button" ry="5" rx="5" y="6" x="6" height="38" width="38"
                fill="#f2f5e9" fill-opacity="0.5" stroke="#606060" stroke-width="1.0"/>
           <path id="arrow"
             d="M 11.500037,31.436501 C 11.940474,20.09759 22.043105,11.32322 32.158766,21.979434 L 37.068811,17.246167 C 37.068811,17.246167 37.088388,32 37.088388,32 L 22.160133,31.978069 C 22.160133,31.978069 26.997745,27.140456 26.997745,27.140456 C 18.528582,18.264221 13.291696,25.230495 11.500037,31.436501 z"
             style="fill:#404040;"/>
          </a>
         </g>
        </svg>
</svg>
