<?xml version="1.0" encoding="UTF-8" standalone="no"?>
<!DOCTYPE svg PUBLIC "-//W3C//DTD SVG 1.1//EN"
 "http://www.w3.org/Graphics/SVG/1.1/DTD/svg11.dtd">
<!-- Generated by graphviz version 2.46.0 (0)
 -->
<!-- Title: hsmg_schwarz_wt2d Pages: 1 -->
<svg width="665pt" height="104pt"
 viewBox="0.00 0.00 665.00 104.00" xmlns="http://www.w3.org/2000/svg" xmlns:xlink="http://www.w3.org/1999/xlink">
<g id="graph0" class="graph" transform="scale(1 1) rotate(0) translate(4 100)">
<title>hsmg_schwarz_wt2d</title>
<polygon fill="white" stroke="transparent" points="-4,4 -4,-100 661,-100 661,4 -4,4"/>
<!-- Node1 -->
<g id="node1" class="node">
<title>Node1</title>
<g id="a_node1"><a xlink:title=" ">
<polygon fill="#bfbfbf" stroke="black" points="548,-19.5 548,-38.5 657,-38.5 657,-19.5 548,-19.5"/>
<text text-anchor="middle" x="602.5" y="-26.5" font-family="Helvetica,sans-Serif" font-size="10.00">hsmg_schwarz_wt2d</text>
</a>
</g>
</g>
<!-- Node2 -->
<g id="node2" class="node">
<title>Node2</title>
<g id="a_node2"><a xlink:href="hsmg_8f.html#a9da0f409657b8e5ade1afa87174e1c82" target="_top" xlink:title=" ">
<polygon fill="white" stroke="black" points="414,-19.5 414,-38.5 512,-38.5 512,-19.5 414,-19.5"/>
<text text-anchor="middle" x="463" y="-26.5" font-family="Helvetica,sans-Serif" font-size="10.00">hsmg_schwarz_wt</text>
</a>
</g>
</g>
<!-- Node1&#45;&gt;Node2 -->
<g id="edge1" class="edge">
<title>Node1&#45;&gt;Node2</title>
<path fill="none" stroke="midnightblue" d="M537.9,-29C529.28,-29 520.55,-29 512.25,-29"/>
<polygon fill="midnightblue" stroke="midnightblue" points="537.95,-32.5 547.95,-29 537.95,-25.5 537.95,-32.5"/>
</g>
<!-- Node3 -->
<g id="node3" class="node">
<title>Node3</title>
<g id="a_node3"><a xlink:href="hsmg_8f.html#aaef68aa25140b10d1a42123f7ccbd2d8" target="_top" xlink:title=" ">
<polygon fill="white" stroke="black" points="295,-38.5 295,-57.5 378,-57.5 378,-38.5 295,-38.5"/>
<text text-anchor="middle" x="336.5" y="-45.5" font-family="Helvetica,sans-Serif" font-size="10.00">h1mg_schwarz</text>
</a>
</g>
</g>
<!-- Node2&#45;&gt;Node3 -->
<g id="edge2" class="edge">
<title>Node2&#45;&gt;Node3</title>
<path fill="none" stroke="midnightblue" d="M403.81,-37.88C395.16,-39.2 386.41,-40.54 378.23,-41.78"/>
<polygon fill="midnightblue" stroke="midnightblue" points="404.51,-41.31 413.87,-36.35 403.45,-34.39 404.51,-41.31"/>
</g>
<!-- Node63 -->
<g id="node8" class="node">
<title>Node63</title>
<g id="a_node8"><a xlink:href="hsmg_8f.html#ab28b637ce952431f92c7210efdd23b52" target="_top" xlink:title=" ">
<polygon fill="white" stroke="black" points="302,-0.5 302,-19.5 371,-19.5 371,-0.5 302,-0.5"/>
<text text-anchor="middle" x="336.5" y="-7.5" font-family="Helvetica,sans-Serif" font-size="10.00">hsmg_solve</text>
</a>
</g>
</g>
<!-- Node2&#45;&gt;Node63 -->
<g id="edge8" class="edge">
<title>Node2&#45;&gt;Node63</title>
<path fill="none" stroke="midnightblue" d="M403.73,-20.11C392.59,-18.41 381.29,-16.68 371.24,-15.15"/>
<polygon fill="midnightblue" stroke="midnightblue" points="403.45,-23.61 413.87,-21.65 404.51,-16.69 403.45,-23.61"/>
</g>
<!-- Node4 -->
<g id="node4" class="node">
<title>Node4</title>
<g id="a_node4"><a xlink:href="hsmg_8f.html#a80c3292949e823718ac035e38b894494" target="_top" xlink:title=" ">
<polygon fill="white" stroke="black" points="186,-38.5 186,-57.5 255,-57.5 255,-38.5 186,-38.5"/>
<text text-anchor="middle" x="220.5" y="-45.5" font-family="Helvetica,sans-Serif" font-size="10.00">h1mg_solve</text>
</a>
</g>
</g>
<!-- Node3&#45;&gt;Node4 -->
<g id="edge3" class="edge">
<title>Node3&#45;&gt;Node4</title>
<path fill="none" stroke="midnightblue" d="M284.69,-48C274.67,-48 264.39,-48 255.11,-48"/>
<polygon fill="midnightblue" stroke="midnightblue" points="284.99,-51.5 294.99,-48 284.99,-44.5 284.99,-51.5"/>
</g>
<!-- Node5 -->
<g id="node5" class="node">
<title>Node5</title>
<g id="a_node5"><a xlink:href="hmholtz_8f.html#a8a396e973763e576543b4ab90c072b6d" target="_top" xlink:title=" ">
<polygon fill="white" stroke="black" points="74,-76.5 74,-95.5 146,-95.5 146,-76.5 74,-76.5"/>
<text text-anchor="middle" x="110" y="-83.5" font-family="Helvetica,sans-Serif" font-size="10.00">hmh_flex_cg</text>
</a>
</g>
</g>
<!-- Node4&#45;&gt;Node5 -->
<g id="edge4" class="edge">
<title>Node4&#45;&gt;Node5</title>
<path fill="none" stroke="midnightblue" d="M182.46,-60.97C168.01,-66.03 151.73,-71.73 138.37,-76.41"/>
<polygon fill="midnightblue" stroke="midnightblue" points="183.84,-64.2 192.12,-57.59 181.53,-57.59 183.84,-64.2"/>
</g>
<!-- Node75 -->
<g id="node7" class="node">
<title>Node75</title>
<g id="a_node7"><a xlink:href="gmres_8f.html#a377d8578c6ccd4fddffb699c7a18f603" target="_top" xlink:title=" ">
<polygon fill="white" stroke="black" points="76,-38.5 76,-57.5 144,-57.5 144,-38.5 76,-38.5"/>
<text text-anchor="middle" x="110" y="-45.5" font-family="Helvetica,sans-Serif" font-size="10.00">hmh_gmres</text>
</a>
</g>
</g>
<!-- Node4&#45;&gt;Node75 -->
<g id="edge6" class="edge">
<title>Node4&#45;&gt;Node75</title>
<path fill="none" stroke="midnightblue" d="M175.58,-48C165.16,-48 154.2,-48 144.34,-48"/>
<polygon fill="midnightblue" stroke="midnightblue" points="175.76,-51.5 185.76,-48 175.76,-44.5 175.76,-51.5"/>
</g>
<!-- Node6 -->
<g id="node6" class="node">
<title>Node6</title>
<g id="a_node6"><a xlink:href="hmholtz_8f.html#a8734f3cc2d37d6a2ccd1daa8db57513d" target="_top" xlink:title=" ">
<polygon fill="white" stroke="red" points="0,-57.5 0,-76.5 38,-76.5 38,-57.5 0,-57.5"/>
<text text-anchor="middle" x="19" y="-64.5" font-family="Helvetica,sans-Serif" font-size="10.00">cggo</text>
</a>
</g>
</g>
<!-- Node5&#45;&gt;Node6 -->
<g id="edge5" class="edge">
<title>Node5&#45;&gt;Node6</title>
<path fill="none" stroke="midnightblue" d="M63.93,-76.38C54.76,-74.42 45.62,-72.47 38.07,-70.86"/>
<polygon fill="midnightblue" stroke="midnightblue" points="63.31,-79.83 73.82,-78.49 64.78,-72.98 63.31,-79.83"/>
</g>
<!-- Node75&#45;&gt;Node6 -->
<g id="edge7" class="edge">
<title>Node75&#45;&gt;Node6</title>
<path fill="none" stroke="midnightblue" d="M65.89,-57.2C56.22,-59.27 46.46,-61.35 38.44,-63.06"/>
<polygon fill="midnightblue" stroke="midnightblue" points="66.81,-60.59 75.86,-55.07 65.35,-53.74 66.81,-60.59"/>
</g>
<!-- Node45 -->
<g id="node9" class="node">
<title>Node45</title>
<g id="a_node9"><a xlink:href="gmres_8f.html#a7ddb9e8764ebf87db6b357ca39df2a08" target="_top" xlink:title=" ">
<polygon fill="white" stroke="black" points="182,-0.5 182,-19.5 259,-19.5 259,-0.5 182,-0.5"/>
<text text-anchor="middle" x="220.5" y="-7.5" font-family="Helvetica,sans-Serif" font-size="10.00">uzawa_gmres</text>
</a>
</g>
</g>
<!-- Node63&#45;&gt;Node45 -->
<g id="edge9" class="edge">
<title>Node63&#45;&gt;Node45</title>
<path fill="none" stroke="midnightblue" d="M291.86,-10C281.11,-10 269.69,-10 259.24,-10"/>
<polygon fill="midnightblue" stroke="midnightblue" points="291.91,-13.5 301.91,-10 291.91,-6.5 291.91,-13.5"/>
</g>
<!-- Node25 -->
<g id="node10" class="node">
<title>Node25</title>
<g id="a_node10"><a xlink:href="navier0_8f.html#aaba079db7e38db9800deef09526370ec" target="_top" xlink:title=" ">
<polygon fill="white" stroke="red" points="86,-0.5 86,-19.5 134,-19.5 134,-0.5 86,-0.5"/>
<text text-anchor="middle" x="110" y="-7.5" font-family="Helvetica,sans-Serif" font-size="10.00">esolver</text>
</a>
</g>
</g>
<!-- Node45&#45;&gt;Node25 -->
<g id="edge10" class="edge">
<title>Node45&#45;&gt;Node25</title>
<path fill="none" stroke="midnightblue" d="M171.56,-10C158.52,-10 144.99,-10 134.03,-10"/>
<polygon fill="midnightblue" stroke="midnightblue" points="171.86,-13.5 181.86,-10 171.86,-6.5 171.86,-13.5"/>
</g>
</g>
</svg>
