<?xml version="1.0" encoding="UTF-8" standalone="no"?>
<!DOCTYPE svg PUBLIC "-//W3C//DTD SVG 1.1//EN"
 "http://www.w3.org/Graphics/SVG/1.1/DTD/svg11.dtd">
<!-- Generated by graphviz version 2.46.0 (0)
 -->
<!-- Title: mg_set_h2 Pages: 1 -->
<svg width="478pt" height="104pt"
 viewBox="0.00 0.00 478.00 104.00" xmlns="http://www.w3.org/2000/svg" xmlns:xlink="http://www.w3.org/1999/xlink">
<g id="graph0" class="graph" transform="scale(1 1) rotate(0) translate(4 100)">
<title>mg_set_h2</title>
<polygon fill="white" stroke="transparent" points="-4,4 -4,-100 474,-100 474,4 -4,4"/>
<!-- Node1 -->
<g id="node1" class="node">
<title>Node1</title>
<g id="a_node1"><a xlink:title=" ">
<polygon fill="#bfbfbf" stroke="black" points="405,-19.5 405,-38.5 470,-38.5 470,-19.5 405,-19.5"/>
<text text-anchor="middle" x="437.5" y="-26.5" font-family="Helvetica,sans-Serif" font-size="10.00">mg_set_h2</text>
</a>
</g>
</g>
<!-- Node2 -->
<g id="node2" class="node">
<title>Node2</title>
<g id="a_node2"><a xlink:href="hsmg_8f.html#a69c832fdb8ddb920e673132a4f61db87" target="_top" xlink:title=" ">
<polygon fill="white" stroke="black" points="301.5,-38.5 301.5,-57.5 366.5,-57.5 366.5,-38.5 301.5,-38.5"/>
<text text-anchor="middle" x="334" y="-45.5" font-family="Helvetica,sans-Serif" font-size="10.00">h1mg_axm</text>
</a>
</g>
</g>
<!-- Node1&#45;&gt;Node2 -->
<g id="edge1" class="edge">
<title>Node1&#45;&gt;Node2</title>
<path fill="none" stroke="midnightblue" d="M394.9,-36.79C385.43,-38.56 375.51,-40.42 366.54,-42.1"/>
<polygon fill="midnightblue" stroke="midnightblue" points="395.76,-40.19 404.94,-34.91 394.47,-33.31 395.76,-40.19"/>
</g>
<!-- Node75 -->
<g id="node7" class="node">
<title>Node75</title>
<g id="a_node7"><a xlink:href="hsmg_8f.html#a6dff08ef961a6a5565642ab92a12b1e8" target="_top" xlink:title=" ">
<polygon fill="white" stroke="black" points="299,-0.5 299,-19.5 369,-19.5 369,-0.5 299,-0.5"/>
<text text-anchor="middle" x="334" y="-7.5" font-family="Helvetica,sans-Serif" font-size="10.00">h1mg_setup</text>
</a>
</g>
</g>
<!-- Node1&#45;&gt;Node75 -->
<g id="edge7" class="edge">
<title>Node1&#45;&gt;Node75</title>
<path fill="none" stroke="midnightblue" d="M395.02,-21.24C386.37,-19.62 377.35,-17.93 369.01,-16.37"/>
<polygon fill="midnightblue" stroke="midnightblue" points="394.47,-24.69 404.94,-23.09 395.76,-17.81 394.47,-24.69"/>
</g>
<!-- Node3 -->
<g id="node3" class="node">
<title>Node3</title>
<g id="a_node3"><a xlink:href="hsmg_8f.html#a80c3292949e823718ac035e38b894494" target="_top" xlink:title=" ">
<polygon fill="white" stroke="black" points="194,-38.5 194,-57.5 263,-57.5 263,-38.5 194,-38.5"/>
<text text-anchor="middle" x="228.5" y="-45.5" font-family="Helvetica,sans-Serif" font-size="10.00">h1mg_solve</text>
</a>
</g>
</g>
<!-- Node2&#45;&gt;Node3 -->
<g id="edge2" class="edge">
<title>Node2&#45;&gt;Node3</title>
<path fill="none" stroke="midnightblue" d="M291.11,-48C281.79,-48 272.02,-48 263.08,-48"/>
<polygon fill="midnightblue" stroke="midnightblue" points="291.38,-51.5 301.38,-48 291.38,-44.5 291.38,-51.5"/>
</g>
<!-- Node4 -->
<g id="node4" class="node">
<title>Node4</title>
<g id="a_node4"><a xlink:href="hmholtz_8f.html#a8a396e973763e576543b4ab90c072b6d" target="_top" xlink:title=" ">
<polygon fill="white" stroke="black" points="86,-76.5 86,-95.5 158,-95.5 158,-76.5 86,-76.5"/>
<text text-anchor="middle" x="122" y="-83.5" font-family="Helvetica,sans-Serif" font-size="10.00">hmh_flex_cg</text>
</a>
</g>
</g>
<!-- Node3&#45;&gt;Node4 -->
<g id="edge3" class="edge">
<title>Node3&#45;&gt;Node4</title>
<path fill="none" stroke="midnightblue" d="M191.43,-61.12C177.6,-66.14 162.11,-71.78 149.36,-76.41"/>
<polygon fill="midnightblue" stroke="midnightblue" points="192.93,-64.3 201.13,-57.59 190.54,-57.72 192.93,-64.3"/>
</g>
<!-- Node74 -->
<g id="node6" class="node">
<title>Node74</title>
<g id="a_node6"><a xlink:href="gmres_8f.html#a377d8578c6ccd4fddffb699c7a18f603" target="_top" xlink:title=" ">
<polygon fill="white" stroke="black" points="88,-38.5 88,-57.5 156,-57.5 156,-38.5 88,-38.5"/>
<text text-anchor="middle" x="122" y="-45.5" font-family="Helvetica,sans-Serif" font-size="10.00">hmh_gmres</text>
</a>
</g>
</g>
<!-- Node3&#45;&gt;Node74 -->
<g id="edge5" class="edge">
<title>Node3&#45;&gt;Node74</title>
<path fill="none" stroke="midnightblue" d="M183.7,-48C174.5,-48 164.95,-48 156.22,-48"/>
<polygon fill="midnightblue" stroke="midnightblue" points="183.86,-51.5 193.86,-48 183.86,-44.5 183.86,-51.5"/>
</g>
<!-- Node5 -->
<g id="node5" class="node">
<title>Node5</title>
<g id="a_node5"><a xlink:href="hmholtz_8f.html#a8734f3cc2d37d6a2ccd1daa8db57513d" target="_top" xlink:title=" ">
<polygon fill="white" stroke="red" points="6,-57.5 6,-76.5 44,-76.5 44,-57.5 6,-57.5"/>
<text text-anchor="middle" x="25" y="-64.5" font-family="Helvetica,sans-Serif" font-size="10.00">cggo</text>
</a>
</g>
</g>
<!-- Node4&#45;&gt;Node5 -->
<g id="edge4" class="edge">
<title>Node4&#45;&gt;Node5</title>
<path fill="none" stroke="midnightblue" d="M76.09,-77.02C64.8,-74.76 53.31,-72.46 44.19,-70.64"/>
<polygon fill="midnightblue" stroke="midnightblue" points="75.4,-80.45 85.9,-78.98 76.78,-73.59 75.4,-80.45"/>
</g>
<!-- Node74&#45;&gt;Node5 -->
<g id="edge6" class="edge">
<title>Node74&#45;&gt;Node5</title>
<path fill="none" stroke="midnightblue" d="M77.93,-56.61C66.03,-58.99 53.76,-61.45 44.13,-63.37"/>
<polygon fill="midnightblue" stroke="midnightblue" points="78.65,-60.04 87.77,-54.65 77.28,-53.17 78.65,-60.04"/>
</g>
<!-- Node76 -->
<g id="node8" class="node">
<title>Node76</title>
<g id="a_node8"><a xlink:href="navier6_8f.html#a45317b1def173b8f1db2e5083595d095" target="_top" xlink:title=" ">
<polygon fill="white" stroke="black" points="195,-0.5 195,-19.5 262,-19.5 262,-0.5 195,-0.5"/>
<text text-anchor="middle" x="228.5" y="-7.5" font-family="Helvetica,sans-Serif" font-size="10.00">set_overlap</text>
</a>
</g>
</g>
<!-- Node75&#45;&gt;Node76 -->
<g id="edge8" class="edge">
<title>Node75&#45;&gt;Node76</title>
<path fill="none" stroke="midnightblue" d="M288.62,-10C279.77,-10 270.61,-10 262.23,-10"/>
<polygon fill="midnightblue" stroke="midnightblue" points="288.82,-13.5 298.82,-10 288.82,-6.5 288.82,-13.5"/>
</g>
<!-- Node77 -->
<g id="node9" class="node">
<title>Node77</title>
<g id="a_node9"><a xlink:href="drive2_8f.html#a7cb0ea7de68c5c3cbc3f7290f01a4d51" target="_top" xlink:title=" ">
<polygon fill="white" stroke="black" points="103,-0.5 103,-19.5 141,-19.5 141,-0.5 103,-0.5"/>
<text text-anchor="middle" x="122" y="-7.5" font-family="Helvetica,sans-Serif" font-size="10.00">prinit</text>
</a>
</g>
</g>
<!-- Node76&#45;&gt;Node77 -->
<g id="edge9" class="edge">
<title>Node76&#45;&gt;Node77</title>
<path fill="none" stroke="midnightblue" d="M184.45,-10C169.28,-10 153.04,-10 141.06,-10"/>
<polygon fill="midnightblue" stroke="midnightblue" points="184.72,-13.5 194.72,-10 184.72,-6.5 184.72,-13.5"/>
</g>
<!-- Node17 -->
<g id="node10" class="node">
<title>Node17</title>
<g id="a_node10"><a xlink:href="drive1_8f.html#a83f7c6d78ac4e68394f32533e847d0a3" target="_top" xlink:title=" ">
<polygon fill="white" stroke="red" points="0,-0.5 0,-19.5 50,-19.5 50,-0.5 0,-0.5"/>
<text text-anchor="middle" x="25" y="-7.5" font-family="Helvetica,sans-Serif" font-size="10.00">nek_init</text>
</a>
</g>
</g>
<!-- Node77&#45;&gt;Node17 -->
<g id="edge10" class="edge">
<title>Node77&#45;&gt;Node17</title>
<path fill="none" stroke="midnightblue" d="M92.46,-10C78.92,-10 62.92,-10 50.02,-10"/>
<polygon fill="midnightblue" stroke="midnightblue" points="92.68,-13.5 102.68,-10 92.68,-6.5 92.68,-13.5"/>
</g>
</g>
</svg>
