<?xml version="1.0" encoding="UTF-8" standalone="no"?>
<!DOCTYPE svg PUBLIC "-//W3C//DTD SVG 1.1//EN"
 "http://www.w3.org/Graphics/SVG/1.1/DTD/svg11.dtd">
<!-- Generated by graphviz version 2.46.0 (0)
 -->
<!-- Title: outflda Pages: 1 -->
<svg width="296pt" height="104pt"
 viewBox="0.00 0.00 296.00 104.00" xmlns="http://www.w3.org/2000/svg" xmlns:xlink="http://www.w3.org/1999/xlink">
<g id="graph0" class="graph" transform="scale(1 1) rotate(0) translate(4 100)">
<title>outflda</title>
<polygon fill="white" stroke="transparent" points="-4,4 -4,-100 292,-100 292,4 -4,4"/>
<!-- Node1 -->
<g id="node1" class="node">
<title>Node1</title>
<g id="a_node1"><a xlink:title=" ">
<polygon fill="#bfbfbf" stroke="black" points="0,-38.5 0,-57.5 46,-57.5 46,-38.5 0,-38.5"/>
<text text-anchor="middle" x="23" y="-45.5" font-family="Helvetica,sans-Serif" font-size="10.00">outflda</text>
</a>
</g>
</g>
<!-- Node2 -->
<g id="node2" class="node">
<title>Node2</title>
<g id="a_node2"><a xlink:href="math_8f.html#af58b0d2ff8df811dc27c9e42460492b9" target="_top" xlink:title=" ">
<polygon fill="white" stroke="black" points="82,-76.5 82,-95.5 125,-95.5 125,-76.5 82,-76.5"/>
<text text-anchor="middle" x="103.5" y="-83.5" font-family="Helvetica,sans-Serif" font-size="10.00">glmax</text>
</a>
</g>
</g>
<!-- Node1&#45;&gt;Node2 -->
<g id="edge1" class="edge">
<title>Node1&#45;&gt;Node2</title>
<path fill="none" stroke="midnightblue" d="M43.81,-57.59C52.83,-61.95 63.68,-67.21 73.58,-72"/>
<polygon fill="midnightblue" stroke="midnightblue" points="72.17,-75.21 82.7,-76.41 75.22,-68.91 72.17,-75.21"/>
</g>
<!-- Node5 -->
<g id="node5" class="node">
<title>Node5</title>
<g id="a_node5"><a xlink:href="math_8f.html#a102af0dc870819a605ae55d60c59f84a" target="_top" xlink:title=" ">
<polygon fill="white" stroke="black" points="83.5,-38.5 83.5,-57.5 123.5,-57.5 123.5,-38.5 83.5,-38.5"/>
<text text-anchor="middle" x="103.5" y="-45.5" font-family="Helvetica,sans-Serif" font-size="10.00">glmin</text>
</a>
</g>
</g>
<!-- Node1&#45;&gt;Node5 -->
<g id="edge4" class="edge">
<title>Node1&#45;&gt;Node5</title>
<path fill="none" stroke="midnightblue" d="M46.28,-48C54.69,-48 64.38,-48 73.32,-48"/>
<polygon fill="midnightblue" stroke="midnightblue" points="73.36,-51.5 83.36,-48 73.36,-44.5 73.36,-51.5"/>
</g>
<!-- Node6 -->
<g id="node6" class="node">
<title>Node6</title>
<g id="a_node6"><a xlink:href="math_8f.html#ac231f0566c16504dadd6ba0f16a38bd9" target="_top" xlink:title=" ">
<polygon fill="white" stroke="black" points="82,-0.5 82,-19.5 125,-19.5 125,-0.5 82,-0.5"/>
<text text-anchor="middle" x="103.5" y="-7.5" font-family="Helvetica,sans-Serif" font-size="10.00">glsum</text>
</a>
</g>
</g>
<!-- Node1&#45;&gt;Node6 -->
<g id="edge6" class="edge">
<title>Node1&#45;&gt;Node6</title>
<path fill="none" stroke="midnightblue" d="M43.81,-38.41C52.83,-34.05 63.68,-28.79 73.58,-24"/>
<polygon fill="midnightblue" stroke="midnightblue" points="75.22,-27.09 82.7,-19.59 72.17,-20.79 75.22,-27.09"/>
</g>
<!-- Node3 -->
<g id="node3" class="node">
<title>Node3</title>
<g id="a_node3"><a xlink:href="gs__test__gop__blocking_8c.html#ab2e24f9857f6d1ded7e4d556c6bc5e49" target="_top" xlink:title=" ">
<polygon fill="white" stroke="black" points="161,-38.5 161,-57.5 193,-57.5 193,-38.5 161,-38.5"/>
<text text-anchor="middle" x="177" y="-45.5" font-family="Helvetica,sans-Serif" font-size="10.00">gop</text>
</a>
</g>
</g>
<!-- Node2&#45;&gt;Node3 -->
<g id="edge2" class="edge">
<title>Node2&#45;&gt;Node3</title>
<path fill="none" stroke="midnightblue" d="M122.54,-76.41C131.35,-71.73 142.09,-66.02 151.62,-60.96"/>
<polygon fill="midnightblue" stroke="midnightblue" points="153.44,-63.95 160.63,-56.17 150.16,-57.77 153.44,-63.95"/>
</g>
<!-- Node4 -->
<g id="node4" class="node">
<title>Node4</title>
<g id="a_node4"><a xlink:href="math_8f.html#a17c0ecae12cc5c6096939885da90ad2b" target="_top" xlink:title=" ">
<polygon fill="white" stroke="black" points="229,-38.5 229,-57.5 288,-57.5 288,-38.5 229,-38.5"/>
<text text-anchor="middle" x="258.5" y="-45.5" font-family="Helvetica,sans-Serif" font-size="10.00">transpose</text>
</a>
</g>
</g>
<!-- Node3&#45;&gt;Node4 -->
<g id="edge3" class="edge">
<title>Node3&#45;&gt;Node4</title>
<path fill="none" stroke="midnightblue" d="M193.33,-48C200.61,-48 209.67,-48 218.67,-48"/>
<polygon fill="midnightblue" stroke="midnightblue" points="218.7,-51.5 228.7,-48 218.7,-44.5 218.7,-51.5"/>
</g>
<!-- Node5&#45;&gt;Node3 -->
<g id="edge5" class="edge">
<title>Node5&#45;&gt;Node3</title>
<path fill="none" stroke="midnightblue" d="M123.66,-48C131.9,-48 141.64,-48 150.47,-48"/>
<polygon fill="midnightblue" stroke="midnightblue" points="150.63,-51.5 160.63,-48 150.63,-44.5 150.63,-51.5"/>
</g>
<!-- Node6&#45;&gt;Node3 -->
<g id="edge7" class="edge">
<title>Node6&#45;&gt;Node3</title>
<path fill="none" stroke="midnightblue" d="M122.54,-19.59C131.35,-24.27 142.09,-29.98 151.62,-35.04"/>
<polygon fill="midnightblue" stroke="midnightblue" points="150.16,-38.23 160.63,-39.83 153.44,-32.05 150.16,-38.23"/>
</g>
</g>
</svg>
