<?xml version="1.0" encoding="UTF-8" standalone="no"?>
<!DOCTYPE svg PUBLIC "-//W3C//DTD SVG 1.1//EN"
 "http://www.w3.org/Graphics/SVG/1.1/DTD/svg11.dtd">
<!-- Generated by graphviz version 2.46.0 (0)
 -->
<!-- Title: hsmg_rstr Pages: 1 -->
<svg width="389pt" height="142pt"
 viewBox="0.00 0.00 389.00 142.00" xmlns="http://www.w3.org/2000/svg" xmlns:xlink="http://www.w3.org/1999/xlink">
<g id="graph0" class="graph" transform="scale(1 1) rotate(0) translate(4 138)">
<title>hsmg_rstr</title>
<polygon fill="white" stroke="transparent" points="-4,4 -4,-138 385,-138 385,4 -4,4"/>
<!-- Node1 -->
<g id="node1" class="node">
<title>Node1</title>
<g id="a_node1"><a xlink:title=" ">
<polygon fill="#bfbfbf" stroke="black" points="0,-76.5 0,-95.5 60,-95.5 60,-76.5 0,-76.5"/>
<text text-anchor="middle" x="30" y="-83.5" font-family="Helvetica,sans-Serif" font-size="10.00">hsmg_rstr</text>
</a>
</g>
</g>
<!-- Node2 -->
<g id="node2" class="node">
<title>Node2</title>
<g id="a_node2"><a xlink:href="hsmg_8f.html#aa1b03ec639e9f6db6957f7f0605e6a46" target="_top" xlink:title=" ">
<polygon fill="white" stroke="black" points="97.5,-114.5 97.5,-133.5 169.5,-133.5 169.5,-114.5 97.5,-114.5"/>
<text text-anchor="middle" x="133.5" y="-121.5" font-family="Helvetica,sans-Serif" font-size="10.00">hsmg_do_wt</text>
</a>
</g>
</g>
<!-- Node1&#45;&gt;Node2 -->
<g id="edge1" class="edge">
<title>Node1&#45;&gt;Node2</title>
<path fill="none" stroke="midnightblue" d="M56.61,-95.59C68.99,-100.22 84.05,-105.86 97.47,-110.89"/>
<polygon fill="midnightblue" stroke="midnightblue" points="96.3,-114.19 106.9,-114.41 98.76,-107.63 96.3,-114.19"/>
</g>
<!-- Node3 -->
<g id="node3" class="node">
<title>Node3</title>
<g id="a_node3"><a xlink:href="hsmg_8f.html#a53462275516b6927e6922dca3e6c2ecf" target="_top" xlink:title=" ">
<polygon fill="white" stroke="black" points="96,-76.5 96,-95.5 171,-95.5 171,-76.5 96,-76.5"/>
<text text-anchor="middle" x="133.5" y="-83.5" font-family="Helvetica,sans-Serif" font-size="10.00">hsmg_dssum</text>
</a>
</g>
</g>
<!-- Node1&#45;&gt;Node3 -->
<g id="edge2" class="edge">
<title>Node1&#45;&gt;Node3</title>
<path fill="none" stroke="midnightblue" d="M60.09,-86C68.09,-86 76.97,-86 85.7,-86"/>
<polygon fill="midnightblue" stroke="midnightblue" points="85.81,-89.5 95.81,-86 85.81,-82.5 85.81,-89.5"/>
</g>
<!-- Node8 -->
<g id="node8" class="node">
<title>Node8</title>
<g id="a_node8"><a xlink:href="hsmg_8f.html#a2855463945f6617280d9d22b2420aa50" target="_top" xlink:title=" ">
<polygon fill="white" stroke="black" points="102.5,-38.5 102.5,-57.5 164.5,-57.5 164.5,-38.5 102.5,-38.5"/>
<text text-anchor="middle" x="133.5" y="-45.5" font-family="Helvetica,sans-Serif" font-size="10.00">hsmg_tnsr</text>
</a>
</g>
</g>
<!-- Node1&#45;&gt;Node8 -->
<g id="edge7" class="edge">
<title>Node1&#45;&gt;Node8</title>
<path fill="none" stroke="midnightblue" d="M56.61,-76.41C68.99,-71.78 84.05,-66.14 97.47,-61.11"/>
<polygon fill="midnightblue" stroke="midnightblue" points="98.76,-64.37 106.9,-57.59 96.3,-57.81 98.76,-64.37"/>
</g>
<!-- Node4 -->
<g id="node4" class="node">
<title>Node4</title>
<g id="a_node4"><a xlink:href="comm__mpi_8f.html#af06ec29f06aac3f8809e19de2a7e8946" target="_top" xlink:title=" ">
<polygon fill="white" stroke="black" points="213,-114.5 213,-133.5 274,-133.5 274,-114.5 213,-114.5"/>
<text text-anchor="middle" x="243.5" y="-121.5" font-family="Helvetica,sans-Serif" font-size="10.00">dnekclock</text>
</a>
</g>
</g>
<!-- Node3&#45;&gt;Node4 -->
<g id="edge3" class="edge">
<title>Node3&#45;&gt;Node4</title>
<path fill="none" stroke="midnightblue" d="M161.75,-95.59C175.06,-100.27 191.25,-105.97 205.64,-111.03"/>
<polygon fill="midnightblue" stroke="midnightblue" points="204.66,-114.4 215.26,-114.41 206.98,-107.79 204.66,-114.4"/>
</g>
<!-- Node6 -->
<g id="node6" class="node">
<title>Node6</title>
<g id="a_node6"><a xlink:href="comm__mpi_8f.html#a4acb4d8e379294232e9219bec063d8f3" target="_top" xlink:title=" ">
<polygon fill="white" stroke="black" points="214,-76.5 214,-95.5 273,-95.5 273,-76.5 214,-76.5"/>
<text text-anchor="middle" x="243.5" y="-83.5" font-family="Helvetica,sans-Serif" font-size="10.00">nekgsync</text>
</a>
</g>
</g>
<!-- Node3&#45;&gt;Node6 -->
<g id="edge5" class="edge">
<title>Node3&#45;&gt;Node6</title>
<path fill="none" stroke="midnightblue" d="M171.06,-86C181.53,-86 192.97,-86 203.57,-86"/>
<polygon fill="midnightblue" stroke="midnightblue" points="203.82,-89.5 213.82,-86 203.82,-82.5 203.82,-89.5"/>
</g>
<!-- Node5 -->
<g id="node5" class="node">
<title>Node5</title>
<g id="a_node5"><a xlink:href="mpi__dummy_8f.html#ae6a5ef945f87c2c27849696b70f3af2a" target="_top" xlink:title=" ">
<polygon fill="white" stroke="black" points="316.5,-114.5 316.5,-133.5 380.5,-133.5 380.5,-114.5 316.5,-114.5"/>
<text text-anchor="middle" x="348.5" y="-121.5" font-family="Helvetica,sans-Serif" font-size="10.00">mpi_wtime</text>
</a>
</g>
</g>
<!-- Node4&#45;&gt;Node5 -->
<g id="edge4" class="edge">
<title>Node4&#45;&gt;Node5</title>
<path fill="none" stroke="midnightblue" d="M274.02,-124C284.02,-124 295.38,-124 306.13,-124"/>
<polygon fill="midnightblue" stroke="midnightblue" points="306.18,-127.5 316.18,-124 306.18,-120.5 306.18,-127.5"/>
</g>
<!-- Node7 -->
<g id="node7" class="node">
<title>Node7</title>
<g id="a_node7"><a xlink:href="mpi__dummy_8f.html#a070afe564196eb48413dbf1a9fbc99aa" target="_top" xlink:title=" ">
<polygon fill="white" stroke="black" points="316,-76.5 316,-95.5 381,-95.5 381,-76.5 316,-76.5"/>
<text text-anchor="middle" x="348.5" y="-83.5" font-family="Helvetica,sans-Serif" font-size="10.00">mpi_barrier</text>
</a>
</g>
</g>
<!-- Node6&#45;&gt;Node7 -->
<g id="edge6" class="edge">
<title>Node6&#45;&gt;Node7</title>
<path fill="none" stroke="midnightblue" d="M273.19,-86C283.21,-86 294.66,-86 305.53,-86"/>
<polygon fill="midnightblue" stroke="midnightblue" points="305.71,-89.5 315.71,-86 305.71,-82.5 305.71,-89.5"/>
</g>
<!-- Node9 -->
<g id="node9" class="node">
<title>Node9</title>
<g id="a_node9"><a xlink:href="hsmg_8f.html#a0944018cd58848bc381fe4a29a4da868" target="_top" xlink:title=" ">
<polygon fill="white" stroke="black" points="207,-38.5 207,-57.5 280,-57.5 280,-38.5 207,-38.5"/>
<text text-anchor="middle" x="243.5" y="-45.5" font-family="Helvetica,sans-Serif" font-size="10.00">hsmg_tnsr2d</text>
</a>
</g>
</g>
<!-- Node8&#45;&gt;Node9 -->
<g id="edge8" class="edge">
<title>Node8&#45;&gt;Node9</title>
<path fill="none" stroke="midnightblue" d="M164.58,-48C174.52,-48 185.8,-48 196.64,-48"/>
<polygon fill="midnightblue" stroke="midnightblue" points="196.84,-51.5 206.84,-48 196.84,-44.5 196.84,-51.5"/>
</g>
<!-- Node10 -->
<g id="node10" class="node">
<title>Node10</title>
<g id="a_node10"><a xlink:href="hsmg_8f.html#a3cde12def6b61137c7c2d5b14dcce477" target="_top" xlink:title=" ">
<polygon fill="white" stroke="black" points="207,-0.5 207,-19.5 280,-19.5 280,-0.5 207,-0.5"/>
<text text-anchor="middle" x="243.5" y="-7.5" font-family="Helvetica,sans-Serif" font-size="10.00">hsmg_tnsr3d</text>
</a>
</g>
</g>
<!-- Node8&#45;&gt;Node10 -->
<g id="edge9" class="edge">
<title>Node8&#45;&gt;Node10</title>
<path fill="none" stroke="midnightblue" d="M161.75,-38.41C175.06,-33.73 191.25,-28.03 205.64,-22.97"/>
<polygon fill="midnightblue" stroke="midnightblue" points="206.98,-26.21 215.26,-19.59 204.66,-19.6 206.98,-26.21"/>
</g>
</g>
</svg>
