<?xml version="1.0" encoding="UTF-8" standalone="no"?>
<!DOCTYPE svg PUBLIC "-//W3C//DTD SVG 1.1//EN"
 "http://www.w3.org/Graphics/SVG/1.1/DTD/svg11.dtd">
<!-- Generated by graphviz version 2.46.0 (0)
 -->
<!-- Title: h1mg_solve Pages: 1 -->
<svg width="288pt" height="294pt"
 viewBox="0.00 0.00 288.00 294.00" xmlns="http://www.w3.org/2000/svg" xmlns:xlink="http://www.w3.org/1999/xlink">
<g id="graph0" class="graph" transform="scale(1 1) rotate(0) translate(4 290)">
<title>h1mg_solve</title>
<polygon fill="white" stroke="transparent" points="-4,4 -4,-290 284,-290 284,4 -4,4"/>
<!-- Node1 -->
<g id="node1" class="node">
<title>Node1</title>
<g id="a_node1"><a xlink:title=" ">
<polygon fill="#bfbfbf" stroke="black" points="0,-133.5 0,-152.5 69,-152.5 69,-133.5 0,-133.5"/>
<text text-anchor="middle" x="34.5" y="-140.5" font-family="Helvetica,sans-Serif" font-size="10.00">h1mg_solve</text>
</a>
</g>
</g>
<!-- Node2 -->
<g id="node2" class="node">
<title>Node2</title>
<g id="a_node2"><a xlink:href="math_8f.html#a3b43508554f14bdea8e14473d7d0803c" target="_top" xlink:title=" ">
<polygon fill="white" stroke="black" points="138,-266.5 138,-285.5 176,-285.5 176,-266.5 138,-266.5"/>
<text text-anchor="middle" x="157" y="-273.5" font-family="Helvetica,sans-Serif" font-size="10.00">copy</text>
</a>
</g>
</g>
<!-- Node1&#45;&gt;Node2 -->
<g id="edge1" class="edge">
<title>Node1&#45;&gt;Node2</title>
<path fill="none" stroke="midnightblue" d="M38.89,-152.74C46.94,-174.51 69.24,-227.49 105,-257 111.74,-262.56 120.25,-266.58 128.39,-269.45"/>
<polygon fill="midnightblue" stroke="midnightblue" points="127.4,-272.8 137.98,-272.4 129.46,-266.12 127.4,-272.8"/>
</g>
<!-- Node3 -->
<g id="node3" class="node">
<title>Node3</title>
<g id="a_node3"><a xlink:href="ic_8f.html#a12fbcc70f37b3490eeda7dfb002dcc7d" target="_top" xlink:title=" ">
<polygon fill="white" stroke="red" points="135.5,-228.5 135.5,-247.5 178.5,-247.5 178.5,-228.5 135.5,-228.5"/>
<text text-anchor="middle" x="157" y="-235.5" font-family="Helvetica,sans-Serif" font-size="10.00">dsavg</text>
</a>
</g>
</g>
<!-- Node1&#45;&gt;Node3 -->
<g id="edge2" class="edge">
<title>Node1&#45;&gt;Node3</title>
<path fill="none" stroke="midnightblue" d="M41.88,-152.51C52.97,-168.37 77.28,-200.31 105,-219 111.11,-223.12 118.22,-226.49 125.16,-229.19"/>
<polygon fill="midnightblue" stroke="midnightblue" points="124.48,-232.66 135.08,-232.67 126.8,-226.05 124.48,-232.66"/>
</g>
<!-- Node10 -->
<g id="node5" class="node">
<title>Node10</title>
<g id="a_node5"><a xlink:href="hsmg_8f.html#a69c832fdb8ddb920e673132a4f61db87" target="_top" xlink:title=" ">
<polygon fill="white" stroke="red" points="124.5,-190.5 124.5,-209.5 189.5,-209.5 189.5,-190.5 124.5,-190.5"/>
<text text-anchor="middle" x="157" y="-197.5" font-family="Helvetica,sans-Serif" font-size="10.00">h1mg_axm</text>
</a>
</g>
</g>
<!-- Node1&#45;&gt;Node10 -->
<g id="edge4" class="edge">
<title>Node1&#45;&gt;Node10</title>
<path fill="none" stroke="midnightblue" d="M51.45,-152.58C65.33,-160.7 86.11,-172.37 105,-181 109.39,-183 114.06,-184.97 118.72,-186.82"/>
<polygon fill="midnightblue" stroke="midnightblue" points="117.59,-190.14 128.18,-190.46 120.1,-183.6 117.59,-190.14"/>
</g>
<!-- Node68 -->
<g id="node6" class="node">
<title>Node68</title>
<g id="a_node6"><a xlink:href="hsmg_8f.html#a961b651cd2d06c733507941ab0b320a0" target="_top" xlink:title=" ">
<polygon fill="white" stroke="red" points="122,-152.5 122,-171.5 192,-171.5 192,-152.5 122,-152.5"/>
<text text-anchor="middle" x="157" y="-159.5" font-family="Helvetica,sans-Serif" font-size="10.00">h1mg_mask</text>
</a>
</g>
</g>
<!-- Node1&#45;&gt;Node68 -->
<g id="edge5" class="edge">
<title>Node1&#45;&gt;Node68</title>
<path fill="none" stroke="midnightblue" d="M69.07,-148.29C82.29,-150.38 97.67,-152.8 111.77,-155.03"/>
<polygon fill="midnightblue" stroke="midnightblue" points="111.35,-158.5 121.78,-156.6 112.44,-151.59 111.35,-158.5"/>
</g>
<!-- Node69 -->
<g id="node7" class="node">
<title>Node69</title>
<g id="a_node7"><a xlink:href="hsmg_8f.html#a64c01748f81a2e5afc3666e28c483c6b" target="_top" xlink:title=" ">
<polygon fill="white" stroke="red" points="127,-114.5 127,-133.5 187,-133.5 187,-114.5 127,-114.5"/>
<text text-anchor="middle" x="157" y="-121.5" font-family="Helvetica,sans-Serif" font-size="10.00">h1mg_rstr</text>
</a>
</g>
</g>
<!-- Node1&#45;&gt;Node69 -->
<g id="edge6" class="edge">
<title>Node1&#45;&gt;Node69</title>
<path fill="none" stroke="midnightblue" d="M69.07,-137.71C83.78,-135.39 101.15,-132.65 116.48,-130.23"/>
<polygon fill="midnightblue" stroke="midnightblue" points="117.38,-133.63 126.71,-128.62 116.29,-126.72 117.38,-133.63"/>
</g>
<!-- Node74 -->
<g id="node8" class="node">
<title>Node74</title>
<g id="a_node8"><a xlink:href="hsmg_8f.html#aaef68aa25140b10d1a42123f7ccbd2d8" target="_top" xlink:title=" ">
<polygon fill="white" stroke="red" points="115.5,-76.5 115.5,-95.5 198.5,-95.5 198.5,-76.5 115.5,-76.5"/>
<text text-anchor="middle" x="157" y="-83.5" font-family="Helvetica,sans-Serif" font-size="10.00">h1mg_schwarz</text>
</a>
</g>
</g>
<!-- Node1&#45;&gt;Node74 -->
<g id="edge7" class="edge">
<title>Node1&#45;&gt;Node74</title>
<path fill="none" stroke="midnightblue" d="M51.45,-133.42C65.33,-125.3 86.11,-113.63 105,-105 109.39,-103 114.06,-101.03 118.72,-99.18"/>
<polygon fill="midnightblue" stroke="midnightblue" points="120.1,-102.4 128.18,-95.54 117.59,-95.86 120.1,-102.4"/>
</g>
<!-- Node91 -->
<g id="node9" class="node">
<title>Node91</title>
<g id="a_node9"><a xlink:href="hsmg_8f.html#ab8797768ff9293e428208ae53237cd33" target="_top" xlink:title=" ">
<polygon fill="white" stroke="red" points="105,-38.5 105,-57.5 209,-57.5 209,-38.5 105,-38.5"/>
<text text-anchor="middle" x="157" y="-45.5" font-family="Helvetica,sans-Serif" font-size="10.00">hsmg_coarse_solve</text>
</a>
</g>
</g>
<!-- Node1&#45;&gt;Node91 -->
<g id="edge8" class="edge">
<title>Node1&#45;&gt;Node91</title>
<path fill="none" stroke="midnightblue" d="M41.88,-133.49C52.97,-117.63 77.28,-85.69 105,-67 107.87,-65.07 110.96,-63.3 114.15,-61.68"/>
<polygon fill="midnightblue" stroke="midnightblue" points="115.63,-64.85 123.31,-57.55 112.75,-58.47 115.63,-64.85"/>
</g>
<!-- Node92 -->
<g id="node10" class="node">
<title>Node92</title>
<g id="a_node10"><a xlink:href="hsmg_8f.html#a370d7882ad194e9532c0810806ba8288" target="_top" xlink:title=" ">
<polygon fill="white" stroke="red" points="126,-0.5 126,-19.5 188,-19.5 188,-0.5 126,-0.5"/>
<text text-anchor="middle" x="157" y="-7.5" font-family="Helvetica,sans-Serif" font-size="10.00">hsmg_intp</text>
</a>
</g>
</g>
<!-- Node1&#45;&gt;Node92 -->
<g id="edge9" class="edge">
<title>Node1&#45;&gt;Node92</title>
<path fill="none" stroke="midnightblue" d="M38.89,-133.26C46.94,-111.49 69.24,-58.51 105,-29 108.5,-26.11 112.47,-23.64 116.63,-21.53"/>
<polygon fill="midnightblue" stroke="midnightblue" points="118.14,-24.69 125.89,-17.46 115.33,-18.28 118.14,-24.69"/>
</g>
<!-- Node4 -->
<g id="node4" class="node">
<title>Node4</title>
<g id="a_node4"><a xlink:href="math_8f.html#a3470db04166d9ba91454a14cc17dbec2" target="_top" xlink:title=" ">
<polygon fill="white" stroke="red" points="245,-228.5 245,-247.5 280,-247.5 280,-228.5 245,-228.5"/>
<text text-anchor="middle" x="262.5" y="-235.5" font-family="Helvetica,sans-Serif" font-size="10.00">col2</text>
</a>
</g>
</g>
<!-- Node3&#45;&gt;Node4 -->
<g id="edge3" class="edge">
<title>Node3&#45;&gt;Node4</title>
<path fill="none" stroke="midnightblue" d="M178.94,-238C194.99,-238 217.25,-238 234.61,-238"/>
<polygon fill="midnightblue" stroke="midnightblue" points="234.68,-241.5 244.68,-238 234.68,-234.5 234.68,-241.5"/>
</g>
</g>
</svg>
