<?xml version="1.0" encoding="UTF-8" standalone="no"?>
<!DOCTYPE svg PUBLIC "-//W3C//DTD SVG 1.1//EN"
 "http://www.w3.org/Graphics/SVG/1.1/DTD/svg11.dtd">
<!-- Generated by graphviz version 2.46.0 (0)
 -->
<!-- Title: hsmg_intp_fc Pages: 1 -->
<svg width="503pt" height="104pt"
 viewBox="0.00 0.00 503.00 104.00" xmlns="http://www.w3.org/2000/svg" xmlns:xlink="http://www.w3.org/1999/xlink">
<g id="graph0" class="graph" transform="scale(1 1) rotate(0) translate(4 100)">
<title>hsmg_intp_fc</title>
<polygon fill="white" stroke="transparent" points="-4,4 -4,-100 499,-100 499,4 -4,4"/>
<!-- Node1 -->
<g id="node1" class="node">
<title>Node1</title>
<g id="a_node1"><a xlink:title=" ">
<polygon fill="#bfbfbf" stroke="black" points="420,-19.5 420,-38.5 495,-38.5 495,-19.5 420,-19.5"/>
<text text-anchor="middle" x="457.5" y="-26.5" font-family="Helvetica,sans-Serif" font-size="10.00">hsmg_intp_fc</text>
</a>
</g>
</g>
<!-- Node2 -->
<g id="node2" class="node">
<title>Node2</title>
<g id="a_node2"><a xlink:href="hsmg_8f.html#a701c47edd10a70df9f18fd456df1262f" target="_top" xlink:title=" ">
<polygon fill="white" stroke="black" points="319,-38.5 319,-57.5 384,-57.5 384,-38.5 319,-38.5"/>
<text text-anchor="middle" x="351.5" y="-45.5" font-family="Helvetica,sans-Serif" font-size="10.00">mg_set_h1</text>
</a>
</g>
</g>
<!-- Node1&#45;&gt;Node2 -->
<g id="edge1" class="edge">
<title>Node1&#45;&gt;Node2</title>
<path fill="none" stroke="midnightblue" d="M409.75,-37.54C401.04,-39.13 392.13,-40.76 384.01,-42.24"/>
<polygon fill="midnightblue" stroke="midnightblue" points="410.63,-40.94 419.83,-35.7 409.37,-34.05 410.63,-40.94"/>
</g>
<!-- Node79 -->
<g id="node10" class="node">
<title>Node79</title>
<g id="a_node10"><a xlink:href="hsmg_8f.html#aa2de64df7a863874d8b2d34cab19db2a" target="_top" xlink:title=" ">
<polygon fill="white" stroke="black" points="319,-0.5 319,-19.5 384,-19.5 384,-0.5 319,-0.5"/>
<text text-anchor="middle" x="351.5" y="-7.5" font-family="Helvetica,sans-Serif" font-size="10.00">mg_set_h2</text>
</a>
</g>
</g>
<!-- Node1&#45;&gt;Node79 -->
<g id="edge9" class="edge">
<title>Node1&#45;&gt;Node79</title>
<path fill="none" stroke="midnightblue" d="M409.75,-20.46C401.04,-18.87 392.13,-17.24 384.01,-15.76"/>
<polygon fill="midnightblue" stroke="midnightblue" points="409.37,-23.95 419.83,-22.3 410.63,-17.06 409.37,-23.95"/>
</g>
<!-- Node3 -->
<g id="node3" class="node">
<title>Node3</title>
<g id="a_node3"><a xlink:href="hsmg_8f.html#a69c832fdb8ddb920e673132a4f61db87" target="_top" xlink:title=" ">
<polygon fill="white" stroke="black" points="215.5,-38.5 215.5,-57.5 280.5,-57.5 280.5,-38.5 215.5,-38.5"/>
<text text-anchor="middle" x="248" y="-45.5" font-family="Helvetica,sans-Serif" font-size="10.00">h1mg_axm</text>
</a>
</g>
</g>
<!-- Node2&#45;&gt;Node3 -->
<g id="edge2" class="edge">
<title>Node2&#45;&gt;Node3</title>
<path fill="none" stroke="midnightblue" d="M308.9,-48C299.43,-48 289.51,-48 280.54,-48"/>
<polygon fill="midnightblue" stroke="midnightblue" points="308.94,-51.5 318.94,-48 308.94,-44.5 308.94,-51.5"/>
</g>
<!-- Node76 -->
<g id="node7" class="node">
<title>Node76</title>
<g id="a_node7"><a xlink:href="hsmg_8f.html#a6dff08ef961a6a5565642ab92a12b1e8" target="_top" xlink:title=" ">
<polygon fill="white" stroke="black" points="213,-0.5 213,-19.5 283,-19.5 283,-0.5 213,-0.5"/>
<text text-anchor="middle" x="248" y="-7.5" font-family="Helvetica,sans-Serif" font-size="10.00">h1mg_setup</text>
</a>
</g>
</g>
<!-- Node2&#45;&gt;Node76 -->
<g id="edge6" class="edge">
<title>Node2&#45;&gt;Node76</title>
<path fill="none" stroke="midnightblue" d="M315.46,-34.88C302.04,-29.86 286.98,-24.22 274.6,-19.59"/>
<polygon fill="midnightblue" stroke="midnightblue" points="314.29,-38.18 324.89,-38.41 316.75,-31.63 314.29,-38.18"/>
</g>
<!-- Node4 -->
<g id="node4" class="node">
<title>Node4</title>
<g id="a_node4"><a xlink:href="hsmg_8f.html#a80c3292949e823718ac035e38b894494" target="_top" xlink:title=" ">
<polygon fill="white" stroke="black" points="108,-38.5 108,-57.5 177,-57.5 177,-38.5 108,-38.5"/>
<text text-anchor="middle" x="142.5" y="-45.5" font-family="Helvetica,sans-Serif" font-size="10.00">h1mg_solve</text>
</a>
</g>
</g>
<!-- Node3&#45;&gt;Node4 -->
<g id="edge3" class="edge">
<title>Node3&#45;&gt;Node4</title>
<path fill="none" stroke="midnightblue" d="M205.11,-48C195.79,-48 186.02,-48 177.08,-48"/>
<polygon fill="midnightblue" stroke="midnightblue" points="205.38,-51.5 215.38,-48 205.38,-44.5 205.38,-51.5"/>
</g>
<!-- Node5 -->
<g id="node5" class="node">
<title>Node5</title>
<g id="a_node5"><a xlink:href="hmholtz_8f.html#a8a396e973763e576543b4ab90c072b6d" target="_top" xlink:title=" ">
<polygon fill="white" stroke="red" points="0,-38.5 0,-57.5 72,-57.5 72,-38.5 0,-38.5"/>
<text text-anchor="middle" x="36" y="-45.5" font-family="Helvetica,sans-Serif" font-size="10.00">hmh_flex_cg</text>
</a>
</g>
</g>
<!-- Node4&#45;&gt;Node5 -->
<g id="edge4" class="edge">
<title>Node4&#45;&gt;Node5</title>
<path fill="none" stroke="midnightblue" d="M97.65,-48C89.09,-48 80.23,-48 72.01,-48"/>
<polygon fill="midnightblue" stroke="midnightblue" points="97.86,-51.5 107.86,-48 97.86,-44.5 97.86,-51.5"/>
</g>
<!-- Node75 -->
<g id="node6" class="node">
<title>Node75</title>
<g id="a_node6"><a xlink:href="gmres_8f.html#a377d8578c6ccd4fddffb699c7a18f603" target="_top" xlink:title=" ">
<polygon fill="white" stroke="red" points="2,-76.5 2,-95.5 70,-95.5 70,-76.5 2,-76.5"/>
<text text-anchor="middle" x="36" y="-83.5" font-family="Helvetica,sans-Serif" font-size="10.00">hmh_gmres</text>
</a>
</g>
</g>
<!-- Node4&#45;&gt;Node75 -->
<g id="edge5" class="edge">
<title>Node4&#45;&gt;Node75</title>
<path fill="none" stroke="midnightblue" d="M105.43,-61.12C91.6,-66.14 76.11,-71.78 63.36,-76.41"/>
<polygon fill="midnightblue" stroke="midnightblue" points="106.93,-64.3 115.13,-57.59 104.54,-57.72 106.93,-64.3"/>
</g>
<!-- Node77 -->
<g id="node8" class="node">
<title>Node77</title>
<g id="a_node8"><a xlink:href="navier6_8f.html#a45317b1def173b8f1db2e5083595d095" target="_top" xlink:title=" ">
<polygon fill="white" stroke="black" points="109,-0.5 109,-19.5 176,-19.5 176,-0.5 109,-0.5"/>
<text text-anchor="middle" x="142.5" y="-7.5" font-family="Helvetica,sans-Serif" font-size="10.00">set_overlap</text>
</a>
</g>
</g>
<!-- Node76&#45;&gt;Node77 -->
<g id="edge7" class="edge">
<title>Node76&#45;&gt;Node77</title>
<path fill="none" stroke="midnightblue" d="M202.62,-10C193.77,-10 184.61,-10 176.23,-10"/>
<polygon fill="midnightblue" stroke="midnightblue" points="202.82,-13.5 212.82,-10 202.82,-6.5 202.82,-13.5"/>
</g>
<!-- Node78 -->
<g id="node9" class="node">
<title>Node78</title>
<g id="a_node9"><a xlink:href="drive2_8f.html#a7cb0ea7de68c5c3cbc3f7290f01a4d51" target="_top" xlink:title=" ">
<polygon fill="white" stroke="red" points="17,-0.5 17,-19.5 55,-19.5 55,-0.5 17,-0.5"/>
<text text-anchor="middle" x="36" y="-7.5" font-family="Helvetica,sans-Serif" font-size="10.00">prinit</text>
</a>
</g>
</g>
<!-- Node77&#45;&gt;Node78 -->
<g id="edge8" class="edge">
<title>Node77&#45;&gt;Node78</title>
<path fill="none" stroke="midnightblue" d="M98.45,-10C83.28,-10 67.04,-10 55.06,-10"/>
<polygon fill="midnightblue" stroke="midnightblue" points="98.72,-13.5 108.72,-10 98.72,-6.5 98.72,-13.5"/>
</g>
<!-- Node79&#45;&gt;Node3 -->
<g id="edge10" class="edge">
<title>Node79&#45;&gt;Node3</title>
<path fill="none" stroke="midnightblue" d="M315.46,-23.12C302.04,-28.14 286.98,-33.78 274.6,-38.41"/>
<polygon fill="midnightblue" stroke="midnightblue" points="316.75,-26.37 324.89,-19.59 314.29,-19.82 316.75,-26.37"/>
</g>
<!-- Node79&#45;&gt;Node76 -->
<g id="edge11" class="edge">
<title>Node79&#45;&gt;Node76</title>
<path fill="none" stroke="midnightblue" d="M308.74,-10C300.17,-10 291.26,-10 283.01,-10"/>
<polygon fill="midnightblue" stroke="midnightblue" points="308.94,-13.5 318.94,-10 308.94,-6.5 308.94,-13.5"/>
</g>
</g>
</svg>
