<?xml version="1.0" encoding="UTF-8" standalone="no"?>
<!DOCTYPE svg PUBLIC "-//W3C//DTD SVG 1.1//EN"
 "http://www.w3.org/Graphics/SVG/1.1/DTD/svg11.dtd">
<!-- Generated by graphviz version 2.46.0 (0)
 -->
<!-- Title: restart Pages: 1 -->
<svg width="334pt" height="123pt"
 viewBox="0.00 0.00 334.00 123.00" xmlns="http://www.w3.org/2000/svg" xmlns:xlink="http://www.w3.org/1999/xlink">
<g id="graph0" class="graph" transform="scale(1 1) rotate(0) translate(4 119)">
<title>restart</title>
<polygon fill="white" stroke="transparent" points="-4,4 -4,-119 330,-119 330,4 -4,4"/>
<!-- Node1 -->
<g id="node1" class="node">
<title>Node1</title>
<g id="a_node1"><a xlink:title=" ">
<polygon fill="#bfbfbf" stroke="black" points="282,-57.5 282,-76.5 326,-76.5 326,-57.5 282,-57.5"/>
<text text-anchor="middle" x="304" y="-64.5" font-family="Helvetica,sans-Serif" font-size="10.00">restart</text>
</a>
</g>
</g>
<!-- Node2 -->
<g id="node2" class="node">
<title>Node2</title>
<g id="a_node2"><a xlink:href="navier5_8f.html#a78b917d37cf85f367e5decac2f8155cd" target="_top" xlink:title=" ">
<polygon fill="white" stroke="black" points="168,-95.5 168,-114.5 246,-114.5 246,-95.5 168,-95.5"/>
<text text-anchor="middle" x="207" y="-102.5" font-family="Helvetica,sans-Serif" font-size="10.00">auto_averager</text>
</a>
</g>
</g>
<!-- Node1&#45;&gt;Node2 -->
<g id="edge1" class="edge">
<title>Node1&#45;&gt;Node2</title>
<path fill="none" stroke="midnightblue" d="M272.38,-79.25C259.32,-84.47 244.29,-90.49 232.04,-95.38"/>
<polygon fill="midnightblue" stroke="midnightblue" points="273.93,-82.4 281.92,-75.43 271.33,-75.9 273.93,-82.4"/>
</g>
<!-- Node3 -->
<g id="node3" class="node">
<title>Node3</title>
<g id="a_node3"><a xlink:href="ic_8f.html#a193e553524144116aae8bae3b93a7c11" target="_top" xlink:title=" ">
<polygon fill="white" stroke="black" points="176,-57.5 176,-76.5 238,-76.5 238,-57.5 176,-57.5"/>
<text text-anchor="middle" x="207" y="-64.5" font-family="Helvetica,sans-Serif" font-size="10.00">full_restart</text>
</a>
</g>
</g>
<!-- Node1&#45;&gt;Node3 -->
<g id="edge2" class="edge">
<title>Node1&#45;&gt;Node3</title>
<path fill="none" stroke="midnightblue" d="M271.62,-67C260.81,-67 248.74,-67 238.03,-67"/>
<polygon fill="midnightblue" stroke="midnightblue" points="271.92,-70.5 281.92,-67 271.92,-63.5 271.92,-70.5"/>
</g>
<!-- Node4 -->
<g id="node4" class="node">
<title>Node4</title>
<g id="a_node4"><a xlink:href="ic_8f.html#acaefa33e86633e4a7a4b28347d4620d1" target="_top" xlink:title=" ">
<polygon fill="white" stroke="black" points="185.5,-19.5 185.5,-38.5 228.5,-38.5 228.5,-19.5 185.5,-19.5"/>
<text text-anchor="middle" x="207" y="-26.5" font-family="Helvetica,sans-Serif" font-size="10.00">setics</text>
</a>
</g>
</g>
<!-- Node1&#45;&gt;Node4 -->
<g id="edge3" class="edge">
<title>Node1&#45;&gt;Node4</title>
<path fill="none" stroke="midnightblue" d="M272.47,-54.79C258.17,-49.07 241.5,-42.4 228.7,-37.28"/>
<polygon fill="midnightblue" stroke="midnightblue" points="271.33,-58.1 281.92,-58.57 273.93,-51.6 271.33,-58.1"/>
</g>
<!-- Node5 -->
<g id="node5" class="node">
<title>Node5</title>
<g id="a_node5"><a xlink:href="postpro_8f.html#ac11e1909dcf07a738bcba7e6cbb4295f" target="_top" xlink:title=" ">
<polygon fill="white" stroke="black" points="82,-38.5 82,-57.5 132,-57.5 132,-38.5 82,-38.5"/>
<text text-anchor="middle" x="107" y="-45.5" font-family="Helvetica,sans-Serif" font-size="10.00">load_fld</text>
</a>
</g>
</g>
<!-- Node4&#45;&gt;Node5 -->
<g id="edge4" class="edge">
<title>Node4&#45;&gt;Node5</title>
<path fill="none" stroke="midnightblue" d="M175.15,-34.98C161.29,-37.67 145.18,-40.79 132.21,-43.31"/>
<polygon fill="midnightblue" stroke="midnightblue" points="176.07,-38.37 185.22,-33.03 174.73,-31.5 176.07,-38.37"/>
</g>
<!-- Node6 -->
<g id="node6" class="node">
<title>Node6</title>
<g id="a_node6"><a xlink:href="drive1_8f.html#a83f7c6d78ac4e68394f32533e847d0a3" target="_top" xlink:title=" ">
<polygon fill="white" stroke="black" points="82,-0.5 82,-19.5 132,-19.5 132,-0.5 82,-0.5"/>
<text text-anchor="middle" x="107" y="-7.5" font-family="Helvetica,sans-Serif" font-size="10.00">nek_init</text>
</a>
</g>
</g>
<!-- Node4&#45;&gt;Node6 -->
<g id="edge5" class="edge">
<title>Node4&#45;&gt;Node6</title>
<path fill="none" stroke="midnightblue" d="M175.15,-23.02C161.29,-20.33 145.18,-17.21 132.21,-14.69"/>
<polygon fill="midnightblue" stroke="midnightblue" points="174.73,-26.5 185.22,-24.97 176.07,-19.63 174.73,-26.5"/>
</g>
<!-- Node7 -->
<g id="node7" class="node">
<title>Node7</title>
<g id="a_node7"><a xlink:href="drive_8f.html#a13048bf28dd0734640412d69349e3857" target="_top" xlink:title=" ">
<polygon fill="white" stroke="black" points="0,-0.5 0,-19.5 46,-19.5 46,-0.5 0,-0.5"/>
<text text-anchor="middle" x="23" y="-7.5" font-family="Helvetica,sans-Serif" font-size="10.00">nekton</text>
</a>
</g>
</g>
<!-- Node6&#45;&gt;Node7 -->
<g id="edge6" class="edge">
<title>Node6&#45;&gt;Node7</title>
<path fill="none" stroke="midnightblue" d="M71.59,-10C62.94,-10 53.89,-10 46.03,-10"/>
<polygon fill="midnightblue" stroke="midnightblue" points="71.84,-13.5 81.84,-10 71.84,-6.5 71.84,-13.5"/>
</g>
</g>
</svg>
