<?xml version="1.0" encoding="UTF-8" standalone="no"?>
<!DOCTYPE svg PUBLIC "-//W3C//DTD SVG 1.1//EN"
 "http://www.w3.org/Graphics/SVG/1.1/DTD/svg11.dtd">
<!-- Generated by graphviz version 2.46.0 (0)
 -->
<!-- Title: mapdmp Pages: 1 -->
<svg width="234pt" height="272pt"
 viewBox="0.00 0.00 234.00 271.63" xmlns="http://www.w3.org/2000/svg" xmlns:xlink="http://www.w3.org/1999/xlink">
<g id="graph0" class="graph" transform="scale(1 1) rotate(0) translate(4 267.63)">
<title>mapdmp</title>
<polygon fill="white" stroke="transparent" points="-4,4 -4,-267.63 230,-267.63 230,4 -4,4"/>
<!-- Node1 -->
<g id="node1" class="node">
<title>Node1</title>
<g id="a_node1"><a xlink:title=" ">
<polygon fill="#bfbfbf" stroke="black" points="0,-111.13 0,-130.13 54,-130.13 54,-111.13 0,-111.13"/>
<text text-anchor="middle" x="27" y="-118.13" font-family="Helvetica,sans-Serif" font-size="10.00">mapdmp</text>
</a>
</g>
</g>
<!-- Node2 -->
<g id="node2" class="node">
<title>Node2</title>
<g id="a_node2"><a xlink:href="prepost_8f.html#a5802584ce57124068d1ee183348e3275" target="_top" xlink:title=" ">
<polygon fill="white" stroke="black" points="180,-35.13 180,-54.13 226,-54.13 226,-35.13 180,-35.13"/>
<text text-anchor="middle" x="203" y="-42.13" font-family="Helvetica,sans-Serif" font-size="10.00">copy4r</text>
</a>
</g>
</g>
<!-- Node1&#45;&gt;Node2 -->
<g id="edge1" class="edge">
<title>Node1&#45;&gt;Node2</title>
<path fill="none" stroke="midnightblue" d="M29.82,-111C34.74,-87.99 50.69,-30 90,-6.63 120.05,11.24 159.67,-11.47 182.83,-28.68"/>
<polygon fill="midnightblue" stroke="midnightblue" points="180.81,-31.54 190.85,-34.91 185.11,-26.01 180.81,-31.54"/>
</g>
<!-- Node3 -->
<g id="node3" class="node">
<title>Node3</title>
<g id="a_node3"><a xlink:href="comm__mpi_8f.html#a0af9bbba11023702ef8c8dac4dd80677" target="_top" xlink:title=" ">
<polygon fill="white" stroke="red" points="94,-130.13 94,-149.13 140,-149.13 140,-130.13 94,-130.13"/>
<text text-anchor="middle" x="117" y="-137.13" font-family="Helvetica,sans-Serif" font-size="10.00">crecv2</text>
</a>
</g>
</g>
<!-- Node1&#45;&gt;Node3 -->
<g id="edge2" class="edge">
<title>Node1&#45;&gt;Node3</title>
<path fill="none" stroke="midnightblue" d="M54.4,-126.33C63.62,-128.32 74.08,-130.57 83.72,-132.66"/>
<polygon fill="midnightblue" stroke="midnightblue" points="83.26,-136.14 93.77,-134.83 84.74,-129.29 83.26,-136.14"/>
</g>
<!-- Node8 -->
<g id="node5" class="node">
<title>Node8</title>
<g id="a_node5"><a xlink:href="comm__mpi_8f.html#abd95004b45059acdcc13614c52e60eae" target="_top" xlink:title=" ">
<polygon fill="white" stroke="red" points="95.5,-168.13 95.5,-187.13 138.5,-187.13 138.5,-168.13 95.5,-168.13"/>
<text text-anchor="middle" x="117" y="-175.13" font-family="Helvetica,sans-Serif" font-size="10.00">csend</text>
</a>
</g>
</g>
<!-- Node1&#45;&gt;Node8 -->
<g id="edge4" class="edge">
<title>Node1&#45;&gt;Node8</title>
<path fill="none" stroke="midnightblue" d="M42.93,-130.29C56.54,-139.11 76.86,-152.28 92.62,-162.48"/>
<polygon fill="midnightblue" stroke="midnightblue" points="91,-165.6 101.29,-168.1 94.8,-159.72 91,-165.6"/>
</g>
<!-- Node10 -->
<g id="node6" class="node">
<title>Node10</title>
<g id="a_node6"><a xlink:href="comm__mpi_8f.html#ae6a06eb6f47a6153825afb25e6cc49c7" target="_top" xlink:title=" ">
<polygon fill="white" stroke="red" points="92.5,-244.13 92.5,-263.13 141.5,-263.13 141.5,-244.13 92.5,-244.13"/>
<text text-anchor="middle" x="117" y="-251.13" font-family="Helvetica,sans-Serif" font-size="10.00">err_chk</text>
</a>
</g>
</g>
<!-- Node1&#45;&gt;Node10 -->
<g id="edge5" class="edge">
<title>Node1&#45;&gt;Node10</title>
<path fill="none" stroke="midnightblue" d="M31.58,-130.36C39.6,-151.22 60.62,-201.06 90,-234.63 90.85,-235.6 91.76,-236.55 92.7,-237.47"/>
<polygon fill="midnightblue" stroke="midnightblue" points="90.57,-240.25 100.48,-244.01 95.08,-234.89 90.57,-240.25"/>
</g>
<!-- Node17 -->
<g id="node7" class="node">
<title>Node17</title>
<g id="a_node7"><a xlink:href="comm__mpi_8f.html#a59fcf8a02fe54ab37f61050e3ca6b197" target="_top" xlink:title=" ">
<polygon fill="white" stroke="red" points="98,-206.13 98,-225.13 136,-225.13 136,-206.13 98,-206.13"/>
<text text-anchor="middle" x="117" y="-213.13" font-family="Helvetica,sans-Serif" font-size="10.00">exitti</text>
</a>
</g>
</g>
<!-- Node1&#45;&gt;Node17 -->
<g id="edge7" class="edge">
<title>Node1&#45;&gt;Node17</title>
<path fill="none" stroke="midnightblue" d="M34.56,-130.16C45.18,-145.24 67.26,-175.07 90,-196.63 91.09,-197.66 92.24,-198.69 93.42,-199.69"/>
<polygon fill="midnightblue" stroke="midnightblue" points="91.42,-202.57 101.45,-205.99 95.74,-197.07 91.42,-202.57"/>
</g>
<!-- Node18 -->
<g id="node8" class="node">
<title>Node18</title>
<g id="a_node8"><a xlink:href="dprocmap_8f.html#a90fd349db1c16c4cb8108485b3c200e0" target="_top" xlink:title=" ">
<polygon fill="white" stroke="red" points="100,-54.13 100,-73.13 134,-73.13 134,-54.13 100,-54.13"/>
<text text-anchor="middle" x="117" y="-61.13" font-family="Helvetica,sans-Serif" font-size="10.00">gllel</text>
</a>
</g>
</g>
<!-- Node1&#45;&gt;Node18 -->
<g id="edge9" class="edge">
<title>Node1&#45;&gt;Node18</title>
<path fill="none" stroke="midnightblue" d="M42.93,-110.96C56.54,-102.14 76.86,-88.98 92.62,-78.77"/>
<polygon fill="midnightblue" stroke="midnightblue" points="94.8,-81.53 101.29,-73.15 91,-75.65 94.8,-81.53"/>
</g>
<!-- Node24 -->
<g id="node9" class="node">
<title>Node24</title>
<g id="a_node9"><a xlink:href="dprocmap_8f.html#aa8f8117aad966b2c1f877b334d9d407b" target="_top" xlink:title=" ">
<polygon fill="white" stroke="red" points="97.5,-16.13 97.5,-35.13 136.5,-35.13 136.5,-16.13 97.5,-16.13"/>
<text text-anchor="middle" x="117" y="-23.13" font-family="Helvetica,sans-Serif" font-size="10.00">gllnid</text>
</a>
</g>
</g>
<!-- Node1&#45;&gt;Node24 -->
<g id="edge10" class="edge">
<title>Node1&#45;&gt;Node24</title>
<path fill="none" stroke="midnightblue" d="M34.56,-111.09C45.18,-96.01 67.26,-66.18 90,-44.63 91.09,-43.59 92.24,-42.57 93.42,-41.56"/>
<polygon fill="midnightblue" stroke="midnightblue" points="95.74,-44.18 101.45,-35.26 91.42,-38.68 95.74,-44.18"/>
</g>
<!-- Node25 -->
<g id="node10" class="node">
<title>Node25</title>
<g id="a_node10"><a xlink:href="ic_8f.html#a170de261200bce1070ca719caaf56df0" target="_top" xlink:title=" ">
<polygon fill="white" stroke="red" points="90,-92.13 90,-111.13 144,-111.13 144,-92.13 90,-92.13"/>
<text text-anchor="middle" x="117" y="-99.13" font-family="Helvetica,sans-Serif" font-size="10.00">mapab4r</text>
</a>
</g>
</g>
<!-- Node1&#45;&gt;Node25 -->
<g id="edge11" class="edge">
<title>Node1&#45;&gt;Node25</title>
<path fill="none" stroke="midnightblue" d="M54.4,-114.92C62.48,-113.18 71.51,-111.23 80.1,-109.38"/>
<polygon fill="midnightblue" stroke="midnightblue" points="80.88,-112.79 89.92,-107.26 79.41,-105.95 80.88,-112.79"/>
</g>
<!-- Node4 -->
<g id="node4" class="node">
<title>Node4</title>
<g id="a_node4"><a xlink:href="byte_8c.html#a2da8eeb074dfd3ffbfb3e9a4d301cda4" target="_top" xlink:title=" ">
<polygon fill="white" stroke="red" points="185.5,-168.13 185.5,-187.13 220.5,-187.13 220.5,-168.13 185.5,-168.13"/>
<text text-anchor="middle" x="203" y="-175.13" font-family="Helvetica,sans-Serif" font-size="10.00">exitt</text>
</a>
</g>
</g>
<!-- Node3&#45;&gt;Node4 -->
<g id="edge3" class="edge">
<title>Node3&#45;&gt;Node4</title>
<path fill="none" stroke="midnightblue" d="M139.2,-149.21C150.36,-154.26 164.15,-160.5 175.96,-165.84"/>
<polygon fill="midnightblue" stroke="midnightblue" points="174.76,-169.14 185.31,-170.08 177.64,-162.76 174.76,-169.14"/>
</g>
<!-- Node10&#45;&gt;Node4 -->
<g id="edge6" class="edge">
<title>Node10&#45;&gt;Node4</title>
<path fill="none" stroke="midnightblue" d="M132.05,-243.93C136.01,-241.05 140.25,-237.81 144,-234.63 158.87,-222 174.57,-206.41 185.89,-194.72"/>
<polygon fill="midnightblue" stroke="midnightblue" points="188.57,-196.99 192.96,-187.34 183.51,-192.15 188.57,-196.99"/>
</g>
<!-- Node17&#45;&gt;Node4 -->
<g id="edge8" class="edge">
<title>Node17&#45;&gt;Node4</title>
<path fill="none" stroke="midnightblue" d="M136.23,-207.38C147.84,-202.13 163.07,-195.24 175.94,-189.41"/>
<polygon fill="midnightblue" stroke="midnightblue" points="177.57,-192.52 185.24,-185.21 174.68,-186.14 177.57,-192.52"/>
</g>
<!-- Node25&#45;&gt;Node2 -->
<g id="edge12" class="edge">
<title>Node25&#45;&gt;Node2</title>
<path fill="none" stroke="midnightblue" d="M132.25,-91.96C145.12,-83.22 164.28,-70.22 179.26,-60.05"/>
<polygon fill="midnightblue" stroke="midnightblue" points="181.65,-62.66 187.96,-54.15 177.72,-56.87 181.65,-62.66"/>
</g>
<!-- Node25&#45;&gt;Node4 -->
<g id="edge13" class="edge">
<title>Node25&#45;&gt;Node4</title>
<path fill="none" stroke="midnightblue" d="M132.05,-111.32C136.01,-114.2 140.25,-117.44 144,-120.63 158.87,-133.25 174.57,-148.84 185.89,-160.53"/>
<polygon fill="midnightblue" stroke="midnightblue" points="183.51,-163.11 192.96,-167.91 188.57,-158.26 183.51,-163.11"/>
</g>
</g>
</svg>
