<?xml version="1.0" encoding="UTF-8" standalone="no"?>
<!DOCTYPE svg PUBLIC "-//W3C//DTD SVG 1.1//EN"
 "http://www.w3.org/Graphics/SVG/1.1/DTD/svg11.dtd">
<!-- Generated by graphviz version 2.46.0 (0)
 -->
<!-- Title: parse_std_hdr_2006 Pages: 1 -->
<svg width="762pt" height="104pt"
 viewBox="0.00 0.00 762.00 104.00" xmlns="http://www.w3.org/2000/svg" xmlns:xlink="http://www.w3.org/1999/xlink">
<g id="graph0" class="graph" transform="scale(1 1) rotate(0) translate(4 100)">
<title>parse_std_hdr_2006</title>
<polygon fill="white" stroke="transparent" points="-4,4 -4,-100 758,-100 758,4 -4,4"/>
<!-- Node1 -->
<g id="node1" class="node">
<title>Node1</title>
<g id="a_node1"><a xlink:title=" ">
<polygon fill="#bfbfbf" stroke="black" points="650,-57.5 650,-76.5 754,-76.5 754,-57.5 650,-57.5"/>
<text text-anchor="middle" x="702" y="-64.5" font-family="Helvetica,sans-Serif" font-size="10.00">parse_std_hdr_2006</text>
</a>
</g>
</g>
<!-- Node2 -->
<g id="node2" class="node">
<title>Node2</title>
<g id="a_node2"><a xlink:href="ic_8f.html#a421efcec6bd92517573af80f75b58877" target="_top" xlink:title=" ">
<polygon fill="white" stroke="black" points="536,-57.5 536,-76.5 614,-76.5 614,-57.5 536,-57.5"/>
<text text-anchor="middle" x="575" y="-64.5" font-family="Helvetica,sans-Serif" font-size="10.00">parse_std_hdr</text>
</a>
</g>
</g>
<!-- Node1&#45;&gt;Node2 -->
<g id="edge1" class="edge">
<title>Node1&#45;&gt;Node2</title>
<path fill="none" stroke="midnightblue" d="M639.69,-67C631.04,-67 622.35,-67 614.3,-67"/>
<polygon fill="midnightblue" stroke="midnightblue" points="639.8,-70.5 649.8,-67 639.8,-63.5 639.8,-70.5"/>
</g>
<!-- Node3 -->
<g id="node3" class="node">
<title>Node3</title>
<g id="a_node3"><a xlink:href="ic_8f.html#a3befa4e5dbd2f1b21a1449d031b5ceac" target="_top" xlink:title=" ">
<polygon fill="white" stroke="black" points="422,-57.5 422,-76.5 500,-76.5 500,-57.5 422,-57.5"/>
<text text-anchor="middle" x="461" y="-64.5" font-family="Helvetica,sans-Serif" font-size="10.00">mfi_parse_hdr</text>
</a>
</g>
</g>
<!-- Node2&#45;&gt;Node3 -->
<g id="edge2" class="edge">
<title>Node2&#45;&gt;Node3</title>
<path fill="none" stroke="midnightblue" d="M525.54,-67C517.01,-67 508.25,-67 500.06,-67"/>
<polygon fill="midnightblue" stroke="midnightblue" points="525.77,-70.5 535.77,-67 525.77,-63.5 525.77,-70.5"/>
</g>
<!-- Node4 -->
<g id="node4" class="node">
<title>Node4</title>
<g id="a_node4"><a xlink:href="gfldr_8f.html#a8063d81abe16aa8f96b77bea36344fee" target="_top" xlink:title=" ">
<polygon fill="white" stroke="black" points="334.5,-76.5 334.5,-95.5 369.5,-95.5 369.5,-76.5 334.5,-76.5"/>
<text text-anchor="middle" x="352" y="-83.5" font-family="Helvetica,sans-Serif" font-size="10.00">gfldr</text>
</a>
</g>
</g>
<!-- Node3&#45;&gt;Node4 -->
<g id="edge3" class="edge">
<title>Node3&#45;&gt;Node4</title>
<path fill="none" stroke="midnightblue" d="M411.7,-75.58C396.64,-78.25 381.03,-81.02 369.69,-83.04"/>
<polygon fill="midnightblue" stroke="midnightblue" points="412.74,-78.95 421.97,-73.75 411.52,-72.05 412.74,-78.95"/>
</g>
<!-- Node5 -->
<g id="node5" class="node">
<title>Node5</title>
<g id="a_node5"><a xlink:href="ic_8f.html#afe51926a02c40e95936541ed859b1790" target="_top" xlink:title=" ">
<polygon fill="white" stroke="black" points="318,-38.5 318,-57.5 386,-57.5 386,-38.5 318,-38.5"/>
<text text-anchor="middle" x="352" y="-45.5" font-family="Helvetica,sans-Serif" font-size="10.00">mfi_prepare</text>
</a>
</g>
</g>
<!-- Node3&#45;&gt;Node5 -->
<g id="edge4" class="edge">
<title>Node3&#45;&gt;Node5</title>
<path fill="none" stroke="midnightblue" d="M411.94,-58.47C403.28,-56.93 394.42,-55.35 386.28,-53.91"/>
<polygon fill="midnightblue" stroke="midnightblue" points="411.52,-61.95 421.97,-60.25 412.74,-55.05 411.52,-61.95"/>
</g>
<!-- Node6 -->
<g id="node6" class="node">
<title>Node6</title>
<g id="a_node6"><a xlink:href="ic_8f.html#a05e0886b196049bac2d39b9d500a70d1" target="_top" xlink:title=" ">
<polygon fill="white" stroke="black" points="252,-38.5 252,-57.5 282,-57.5 282,-38.5 252,-38.5"/>
<text text-anchor="middle" x="267" y="-45.5" font-family="Helvetica,sans-Serif" font-size="10.00">mfi</text>
</a>
</g>
</g>
<!-- Node5&#45;&gt;Node6 -->
<g id="edge5" class="edge">
<title>Node5&#45;&gt;Node6</title>
<path fill="none" stroke="midnightblue" d="M307.67,-48C298.37,-48 289.2,-48 282.02,-48"/>
<polygon fill="midnightblue" stroke="midnightblue" points="307.72,-51.5 317.72,-48 307.72,-44.5 307.72,-51.5"/>
</g>
<!-- Node7 -->
<g id="node7" class="node">
<title>Node7</title>
<g id="a_node7"><a xlink:href="navier1_8f.html#a38ba376801cfa958294fae8c90db7680" target="_top" xlink:title=" ">
<polygon fill="white" stroke="red" points="79,-57.5 79,-76.5 127,-76.5 127,-57.5 79,-57.5"/>
<text text-anchor="middle" x="103" y="-64.5" font-family="Helvetica,sans-Serif" font-size="10.00">convop</text>
</a>
</g>
</g>
<!-- Node6&#45;&gt;Node7 -->
<g id="edge6" class="edge">
<title>Node6&#45;&gt;Node7</title>
<path fill="none" stroke="midnightblue" d="M242.63,-58.89C234.4,-62.18 224.96,-65.35 216,-67 185.78,-72.55 150.2,-71.25 127.39,-69.44"/>
<polygon fill="midnightblue" stroke="midnightblue" points="244.13,-62.05 251.96,-54.91 241.39,-55.61 244.13,-62.05"/>
</g>
<!-- Node47 -->
<g id="node9" class="node">
<title>Node47</title>
<g id="a_node9"><a xlink:href="navier1_8f.html#a89c10bd50bd97a18d935319a486720c1" target="_top" xlink:title=" ">
<polygon fill="white" stroke="black" points="163,-38.5 163,-57.5 216,-57.5 216,-38.5 163,-38.5"/>
<text text-anchor="middle" x="189.5" y="-45.5" font-family="Helvetica,sans-Serif" font-size="10.00">convopo</text>
</a>
</g>
</g>
<!-- Node6&#45;&gt;Node47 -->
<g id="edge8" class="edge">
<title>Node6&#45;&gt;Node47</title>
<path fill="none" stroke="midnightblue" d="M241.79,-48C233.64,-48 224.52,-48 216.25,-48"/>
<polygon fill="midnightblue" stroke="midnightblue" points="241.8,-51.5 251.8,-48 241.8,-44.5 241.8,-51.5"/>
</g>
<!-- Node48 -->
<g id="node10" class="node">
<title>Node48</title>
<g id="a_node10"><a xlink:href="ic_8f.html#a32489501c226ee8536f0fca3ac1b1b48" target="_top" xlink:title=" ">
<polygon fill="white" stroke="red" points="167.5,-0.5 167.5,-19.5 211.5,-19.5 211.5,-0.5 167.5,-0.5"/>
<text text-anchor="middle" x="189.5" y="-7.5" font-family="Helvetica,sans-Serif" font-size="10.00">restart</text>
</a>
</g>
</g>
<!-- Node6&#45;&gt;Node48 -->
<g id="edge10" class="edge">
<title>Node6&#45;&gt;Node48</title>
<path fill="none" stroke="midnightblue" d="M242.64,-36.24C231.99,-30.88 219.55,-24.62 209.48,-19.56"/>
<polygon fill="midnightblue" stroke="midnightblue" points="241.29,-39.48 251.8,-40.85 244.44,-33.23 241.29,-39.48"/>
</g>
<!-- Node8 -->
<g id="node8" class="node">
<title>Node8</title>
<g id="a_node8"><a xlink:href="navier1_8f.html#a344ec731e4a89d0f136c91bc1963e8d5" target="_top" xlink:title=" ">
<polygon fill="white" stroke="red" points="0,-57.5 0,-76.5 43,-76.5 43,-57.5 0,-57.5"/>
<text text-anchor="middle" x="21.5" y="-64.5" font-family="Helvetica,sans-Serif" font-size="10.00">advab</text>
</a>
</g>
</g>
<!-- Node7&#45;&gt;Node8 -->
<g id="edge7" class="edge">
<title>Node7&#45;&gt;Node8</title>
<path fill="none" stroke="midnightblue" d="M68.39,-67C59.78,-67 50.78,-67 43.06,-67"/>
<polygon fill="midnightblue" stroke="midnightblue" points="68.58,-70.5 78.58,-67 68.58,-63.5 68.58,-70.5"/>
</g>
<!-- Node47&#45;&gt;Node7 -->
<g id="edge9" class="edge">
<title>Node47&#45;&gt;Node7</title>
<path fill="none" stroke="midnightblue" d="M152.75,-56.04C144.06,-57.99 135,-60.03 127.07,-61.81"/>
<polygon fill="midnightblue" stroke="midnightblue" points="153.7,-59.41 162.69,-53.8 152.16,-52.58 153.7,-59.41"/>
</g>
</g>
</svg>
