<?xml version="1.0" encoding="UTF-8" standalone="no"?>
<!DOCTYPE svg PUBLIC "-//W3C//DTD SVG 1.1//EN"
 "http://www.w3.org/Graphics/SVG/1.1/DTD/svg11.dtd">
<!-- Generated by graphviz version 2.46.0 (0)
 -->
<!-- Title: mfi Pages: 1 -->
<svg width="329pt" height="218pt"
 viewBox="0.00 0.00 329.00 218.00" xmlns="http://www.w3.org/2000/svg" xmlns:xlink="http://www.w3.org/1999/xlink">
<g id="graph0" class="graph" transform="scale(1 1) rotate(0) translate(4 214)">
<title>mfi</title>
<polygon fill="white" stroke="transparent" points="-4,4 -4,-214 325,-214 325,4 -4,4"/>
<!-- Node1 -->
<g id="node1" class="node">
<title>Node1</title>
<g id="a_node1"><a xlink:title=" ">
<polygon fill="#bfbfbf" stroke="black" points="291,-76.5 291,-95.5 321,-95.5 321,-76.5 291,-76.5"/>
<text text-anchor="middle" x="306" y="-83.5" font-family="Helvetica,sans-Serif" font-size="10.00">mfi</text>
</a>
</g>
</g>
<!-- Node2 -->
<g id="node2" class="node">
<title>Node2</title>
<g id="a_node2"><a xlink:href="navier1_8f.html#a38ba376801cfa958294fae8c90db7680" target="_top" xlink:title=" ">
<polygon fill="white" stroke="red" points="118,-95.5 118,-114.5 166,-114.5 166,-95.5 118,-95.5"/>
<text text-anchor="middle" x="142" y="-102.5" font-family="Helvetica,sans-Serif" font-size="10.00">convop</text>
</a>
</g>
</g>
<!-- Node1&#45;&gt;Node2 -->
<g id="edge1" class="edge">
<title>Node1&#45;&gt;Node2</title>
<path fill="none" stroke="midnightblue" d="M281.63,-96.89C273.4,-100.18 263.96,-103.35 255,-105 224.78,-110.55 189.2,-109.25 166.39,-107.44"/>
<polygon fill="midnightblue" stroke="midnightblue" points="283.13,-100.05 290.96,-92.91 280.39,-93.61 283.13,-100.05"/>
</g>
<!-- Node42 -->
<g id="node9" class="node">
<title>Node42</title>
<g id="a_node9"><a xlink:href="navier1_8f.html#a89c10bd50bd97a18d935319a486720c1" target="_top" xlink:title=" ">
<polygon fill="white" stroke="black" points="202,-76.5 202,-95.5 255,-95.5 255,-76.5 202,-76.5"/>
<text text-anchor="middle" x="228.5" y="-83.5" font-family="Helvetica,sans-Serif" font-size="10.00">convopo</text>
</a>
</g>
</g>
<!-- Node1&#45;&gt;Node42 -->
<g id="edge8" class="edge">
<title>Node1&#45;&gt;Node42</title>
<path fill="none" stroke="midnightblue" d="M280.79,-86C272.64,-86 263.52,-86 255.25,-86"/>
<polygon fill="midnightblue" stroke="midnightblue" points="280.8,-89.5 290.8,-86 280.8,-82.5 280.8,-89.5"/>
</g>
<!-- Node43 -->
<g id="node10" class="node">
<title>Node43</title>
<g id="a_node10"><a xlink:href="ic_8f.html#a32489501c226ee8536f0fca3ac1b1b48" target="_top" xlink:title=" ">
<polygon fill="white" stroke="red" points="206.5,-38.5 206.5,-57.5 250.5,-57.5 250.5,-38.5 206.5,-38.5"/>
<text text-anchor="middle" x="228.5" y="-45.5" font-family="Helvetica,sans-Serif" font-size="10.00">restart</text>
</a>
</g>
</g>
<!-- Node1&#45;&gt;Node43 -->
<g id="edge10" class="edge">
<title>Node1&#45;&gt;Node43</title>
<path fill="none" stroke="midnightblue" d="M281.64,-74.24C270.99,-68.88 258.55,-62.62 248.48,-57.56"/>
<polygon fill="midnightblue" stroke="midnightblue" points="280.29,-77.48 290.8,-78.85 283.44,-71.23 280.29,-77.48"/>
</g>
<!-- Node3 -->
<g id="node3" class="node">
<title>Node3</title>
<g id="a_node3"><a xlink:href="navier1_8f.html#a344ec731e4a89d0f136c91bc1963e8d5" target="_top" xlink:title=" ">
<polygon fill="white" stroke="red" points="19.5,-190.5 19.5,-209.5 62.5,-209.5 62.5,-190.5 19.5,-190.5"/>
<text text-anchor="middle" x="41" y="-197.5" font-family="Helvetica,sans-Serif" font-size="10.00">advab</text>
</a>
</g>
</g>
<!-- Node2&#45;&gt;Node3 -->
<g id="edge2" class="edge">
<title>Node2&#45;&gt;Node3</title>
<path fill="none" stroke="midnightblue" d="M130.22,-123.42C119.66,-140.19 102.24,-164.73 82,-181 76.25,-185.62 69.18,-189.45 62.6,-192.43"/>
<polygon fill="midnightblue" stroke="midnightblue" points="133.4,-124.93 135.61,-114.57 127.42,-121.29 133.4,-124.93"/>
</g>
<!-- Node17 -->
<g id="node4" class="node">
<title>Node17</title>
<g id="a_node4"><a xlink:href="perturb_8f.html#a57aed02316492f3059b70c7a98e4e2f9" target="_top" xlink:title=" ">
<polygon fill="white" stroke="red" points="17,-152.5 17,-171.5 65,-171.5 65,-152.5 17,-152.5"/>
<text text-anchor="middle" x="41" y="-159.5" font-family="Helvetica,sans-Serif" font-size="10.00">advabp</text>
</a>
</g>
</g>
<!-- Node2&#45;&gt;Node17 -->
<g id="edge3" class="edge">
<title>Node2&#45;&gt;Node17</title>
<path fill="none" stroke="midnightblue" d="M118.78,-120.28C107.89,-127.51 94.48,-136.06 82,-143 76.09,-146.29 69.51,-149.56 63.43,-152.44"/>
<polygon fill="midnightblue" stroke="midnightblue" points="120.9,-123.07 127.24,-114.58 116.99,-117.26 120.9,-123.07"/>
</g>
<!-- Node21 -->
<g id="node5" class="node">
<title>Node21</title>
<g id="a_node5"><a xlink:href="perturb_8f.html#afb8592701ab3283a1c01ed23f1d0ff56" target="_top" xlink:title=" ">
<polygon fill="white" stroke="red" points="0,-114.5 0,-133.5 82,-133.5 82,-114.5 0,-114.5"/>
<text text-anchor="middle" x="41" y="-121.5" font-family="Helvetica,sans-Serif" font-size="10.00">advabp_adjoint</text>
</a>
</g>
</g>
<!-- Node2&#45;&gt;Node21 -->
<g id="edge4" class="edge">
<title>Node2&#45;&gt;Node21</title>
<path fill="none" stroke="midnightblue" d="M107.8,-111.37C99.56,-112.95 90.65,-114.66 82.12,-116.3"/>
<polygon fill="midnightblue" stroke="midnightblue" points="108.63,-114.78 117.79,-109.45 107.31,-107.9 108.63,-114.78"/>
</g>
<!-- Node22 -->
<g id="node6" class="node">
<title>Node22</title>
<g id="a_node6"><a xlink:href="avm_8f.html#a9e1209421d37bc600934cdb4974e3437" target="_top" xlink:title=" ">
<polygon fill="white" stroke="black" points="11.5,-76.5 11.5,-95.5 70.5,-95.5 70.5,-76.5 11.5,-76.5"/>
<text text-anchor="middle" x="41" y="-83.5" font-family="Helvetica,sans-Serif" font-size="10.00">avm_vdiff</text>
</a>
</g>
</g>
<!-- Node2&#45;&gt;Node22 -->
<g id="edge5" class="edge">
<title>Node2&#45;&gt;Node22</title>
<path fill="none" stroke="midnightblue" d="M107.7,-98.61C95.71,-96.31 82.3,-93.73 70.73,-91.51"/>
<polygon fill="midnightblue" stroke="midnightblue" points="107.31,-102.1 117.79,-100.55 108.63,-95.22 107.31,-102.1"/>
</g>
<!-- Node23 -->
<g id="node7" class="node">
<title>Node23</title>
<g id="a_node7"><a xlink:href="conduct_8f.html#a7510fbfdadf0b575693f3a78f424f63f" target="_top" xlink:title=" ">
<polygon fill="white" stroke="red" points="17,-38.5 17,-57.5 65,-57.5 65,-38.5 17,-38.5"/>
<text text-anchor="middle" x="41" y="-45.5" font-family="Helvetica,sans-Serif" font-size="10.00">convab</text>
</a>
</g>
</g>
<!-- Node2&#45;&gt;Node23 -->
<g id="edge6" class="edge">
<title>Node2&#45;&gt;Node23</title>
<path fill="none" stroke="midnightblue" d="M118.78,-89.72C107.89,-82.49 94.48,-73.94 82,-67 76.09,-63.71 69.51,-60.44 63.43,-57.56"/>
<polygon fill="midnightblue" stroke="midnightblue" points="116.99,-92.74 127.24,-95.42 120.9,-86.93 116.99,-92.74"/>
</g>
<!-- Node34 -->
<g id="node8" class="node">
<title>Node34</title>
<g id="a_node8"><a xlink:href="perturb_8f.html#af52a0c97e2b81a66c30b2a249b81d967" target="_top" xlink:title=" ">
<polygon fill="white" stroke="red" points="14.5,-0.5 14.5,-19.5 67.5,-19.5 67.5,-0.5 14.5,-0.5"/>
<text text-anchor="middle" x="41" y="-7.5" font-family="Helvetica,sans-Serif" font-size="10.00">convabp</text>
</a>
</g>
</g>
<!-- Node2&#45;&gt;Node34 -->
<g id="edge7" class="edge">
<title>Node2&#45;&gt;Node34</title>
<path fill="none" stroke="midnightblue" d="M130.22,-86.58C119.66,-69.81 102.24,-45.27 82,-29 77.45,-25.34 72.07,-22.18 66.76,-19.54"/>
<polygon fill="midnightblue" stroke="midnightblue" points="127.42,-88.71 135.61,-95.43 133.4,-85.07 127.42,-88.71"/>
</g>
<!-- Node42&#45;&gt;Node2 -->
<g id="edge9" class="edge">
<title>Node42&#45;&gt;Node2</title>
<path fill="none" stroke="midnightblue" d="M191.75,-94.04C183.06,-95.99 174,-98.03 166.07,-99.81"/>
<polygon fill="midnightblue" stroke="midnightblue" points="192.7,-97.41 201.69,-91.8 191.16,-90.58 192.7,-97.41"/>
</g>
</g>
</svg>
