<?xml version="1.0" encoding="UTF-8" standalone="no"?>
<!DOCTYPE svg PUBLIC "-//W3C//DTD SVG 1.1//EN"
 "http://www.w3.org/Graphics/SVG/1.1/DTD/svg11.dtd">
<!-- Generated by graphviz version 2.46.0 (0)
 -->
<!-- Title: geom_reset Pages: 1 -->
<svg width="381pt" height="294pt"
 viewBox="0.00 0.00 381.00 294.00" xmlns="http://www.w3.org/2000/svg" xmlns:xlink="http://www.w3.org/1999/xlink">
<g id="graph0" class="graph" transform="scale(1 1) rotate(0) translate(4 290)">
<title>geom_reset</title>
<polygon fill="white" stroke="transparent" points="-4,4 -4,-290 377,-290 377,4 -4,4"/>
<!-- Node1 -->
<g id="node1" class="node">
<title>Node1</title>
<g id="a_node1"><a xlink:title=" ">
<polygon fill="#bfbfbf" stroke="black" points="305,-133.5 305,-152.5 373,-152.5 373,-133.5 305,-133.5"/>
<text text-anchor="middle" x="339" y="-140.5" font-family="Helvetica,sans-Serif" font-size="10.00">geom_reset</text>
</a>
</g>
</g>
<!-- Node2 -->
<g id="node2" class="node">
<title>Node2</title>
<g id="a_node2"><a xlink:href="conduct_8f.html#a3b764ba6cf35187ac351c3072456c805" target="_top" xlink:title=" ">
<polygon fill="white" stroke="black" points="96.5,-228.5 96.5,-247.5 152.5,-247.5 152.5,-228.5 96.5,-228.5"/>
<text text-anchor="middle" x="124.5" y="-235.5" font-family="Helvetica,sans-Serif" font-size="10.00">dg_setup</text>
</a>
</g>
</g>
<!-- Node1&#45;&gt;Node2 -->
<g id="edge1" class="edge">
<title>Node1&#45;&gt;Node2</title>
<path fill="none" stroke="midnightblue" d="M325.73,-161.04C313.42,-177.63 292.89,-201.48 269,-214 231.97,-233.4 182.85,-237.75 152.74,-238.4"/>
<polygon fill="midnightblue" stroke="midnightblue" points="328.73,-162.87 331.7,-152.69 323.04,-158.8 328.73,-162.87"/>
</g>
<!-- Node3 -->
<g id="node3" class="node">
<title>Node3</title>
<g id="a_node3"><a xlink:href="drive1_8f.html#a83f7c6d78ac4e68394f32533e847d0a3" target="_top" xlink:title=" ">
<polygon fill="white" stroke="red" points="0,-190.5 0,-209.5 50,-209.5 50,-190.5 0,-190.5"/>
<text text-anchor="middle" x="25" y="-197.5" font-family="Helvetica,sans-Serif" font-size="10.00">nek_init</text>
</a>
</g>
</g>
<!-- Node1&#45;&gt;Node3 -->
<g id="edge10" class="edge">
<title>Node1&#45;&gt;Node3</title>
<path fill="none" stroke="midnightblue" d="M303.48,-155.87C292.57,-159.57 280.39,-163.32 269,-166 190.01,-184.59 94.02,-194.34 50.07,-198.11"/>
<polygon fill="midnightblue" stroke="midnightblue" points="304.79,-159.12 313.08,-152.52 302.49,-152.51 304.79,-159.12"/>
</g>
<!-- Node5 -->
<g id="node4" class="node">
<title>Node5</title>
<g id="a_node4"><a xlink:href="navier5_8f.html#ac7bf11bb142c7d01c82cc8b64e88bff2" target="_top" xlink:title=" ">
<polygon fill="white" stroke="black" points="206,-114.5 206,-133.5 262,-133.5 262,-114.5 206,-114.5"/>
<text text-anchor="middle" x="234" y="-121.5" font-family="Helvetica,sans-Serif" font-size="10.00">fix_geom</text>
</a>
</g>
</g>
<!-- Node1&#45;&gt;Node5 -->
<g id="edge3" class="edge">
<title>Node1&#45;&gt;Node5</title>
<path fill="none" stroke="midnightblue" d="M294.9,-135.05C283.84,-133.01 272.25,-130.87 262.24,-129.03"/>
<polygon fill="midnightblue" stroke="midnightblue" points="294.37,-138.51 304.84,-136.88 295.64,-131.63 294.37,-138.51"/>
</g>
<!-- Node6 -->
<g id="node5" class="node">
<title>Node6</title>
<g id="a_node5"><a xlink:href="multimesh_8f.html#ae456181cee68ca24e24244df7c9db9c6" target="_top" xlink:title=" ">
<polygon fill="white" stroke="red" points="86,-152.5 86,-171.5 163,-171.5 163,-152.5 86,-152.5"/>
<text text-anchor="middle" x="124.5" y="-159.5" font-family="Helvetica,sans-Serif" font-size="10.00">neknek_setup</text>
</a>
</g>
</g>
<!-- Node1&#45;&gt;Node6 -->
<g id="edge11" class="edge">
<title>Node1&#45;&gt;Node6</title>
<path fill="none" stroke="midnightblue" d="M294.38,-146.9C255.72,-150.36 199.86,-155.35 163.12,-158.64"/>
<polygon fill="midnightblue" stroke="midnightblue" points="295.15,-150.35 304.8,-145.97 294.52,-143.37 295.15,-150.35"/>
</g>
<!-- Node10 -->
<g id="node6" class="node">
<title>Node10</title>
<g id="a_node6"><a xlink:href="meshsmoother_8f.html#a381ecddf77fc5669d3a8e246b65d1960" target="_top" xlink:title=" ">
<polygon fill="white" stroke="red" points="88,-76.5 88,-95.5 161,-95.5 161,-76.5 88,-76.5"/>
<text text-anchor="middle" x="124.5" y="-83.5" font-family="Helvetica,sans-Serif" font-size="10.00">smoothmesh</text>
</a>
</g>
</g>
<!-- Node1&#45;&gt;Node10 -->
<g id="edge15" class="edge">
<title>Node1&#45;&gt;Node10</title>
<path fill="none" stroke="midnightblue" d="M315.46,-127.78C302.43,-119.72 285.41,-110.39 269,-105 233.43,-93.31 190.65,-88.79 161.11,-87.06"/>
<polygon fill="midnightblue" stroke="midnightblue" points="313.87,-130.92 324.18,-133.35 317.64,-125.02 313.87,-130.92"/>
</g>
<!-- Node12 -->
<g id="node7" class="node">
<title>Node12</title>
<g id="a_node7"><a xlink:href="hsmg_8f.html#a6dff08ef961a6a5565642ab92a12b1e8" target="_top" xlink:title=" ">
<polygon fill="white" stroke="black" points="199,-0.5 199,-19.5 269,-19.5 269,-0.5 199,-0.5"/>
<text text-anchor="middle" x="234" y="-7.5" font-family="Helvetica,sans-Serif" font-size="10.00">h1mg_setup</text>
</a>
</g>
</g>
<!-- Node1&#45;&gt;Node12 -->
<g id="edge8" class="edge">
<title>Node1&#45;&gt;Node12</title>
<path fill="none" stroke="midnightblue" d="M330.23,-124.06C319.46,-99.64 297.97,-56.99 269,-29 265.3,-25.43 260.81,-22.3 256.31,-19.68"/>
<polygon fill="midnightblue" stroke="midnightblue" points="327.04,-125.5 334.19,-133.32 333.48,-122.75 327.04,-125.5"/>
</g>
<!-- Node15 -->
<g id="node9" class="node">
<title>Node15</title>
<g id="a_node9"><a xlink:href="plan5_8f.html#ae6f47947bd1a89d608ae3b90ac8f433d" target="_top" xlink:title=" ">
<polygon fill="white" stroke="red" points="214,-38.5 214,-57.5 254,-57.5 254,-38.5 214,-38.5"/>
<text text-anchor="middle" x="234" y="-45.5" font-family="Helvetica,sans-Serif" font-size="10.00">plan5</text>
</a>
</g>
</g>
<!-- Node1&#45;&gt;Node15 -->
<g id="edge12" class="edge">
<title>Node1&#45;&gt;Node15</title>
<path fill="none" stroke="midnightblue" d="M322.89,-125.73C309.43,-110.79 288.84,-88.96 269,-72 263.07,-66.93 256.09,-61.87 250,-57.71"/>
<polygon fill="midnightblue" stroke="midnightblue" points="320.32,-128.11 329.59,-133.26 325.55,-123.46 320.32,-128.11"/>
</g>
<!-- Node21 -->
<g id="node10" class="node">
<title>Node21</title>
<g id="a_node10"><a xlink:href="ic_8f.html#acaefa33e86633e4a7a4b28347d4620d1" target="_top" xlink:title=" ">
<polygon fill="white" stroke="red" points="212.5,-266.5 212.5,-285.5 255.5,-285.5 255.5,-266.5 212.5,-266.5"/>
<text text-anchor="middle" x="234" y="-273.5" font-family="Helvetica,sans-Serif" font-size="10.00">setics</text>
</a>
</g>
</g>
<!-- Node1&#45;&gt;Node21 -->
<g id="edge13" class="edge">
<title>Node1&#45;&gt;Node21</title>
<path fill="none" stroke="midnightblue" d="M329.08,-161.65C317.47,-184.66 295.48,-224.15 269,-252 263.82,-257.45 257.24,-262.43 251.25,-266.42"/>
<polygon fill="midnightblue" stroke="midnightblue" points="332.26,-163.12 333.54,-152.61 325.98,-160.03 332.26,-163.12"/>
</g>
<!-- Node2&#45;&gt;Node3 -->
<g id="edge2" class="edge">
<title>Node2&#45;&gt;Node3</title>
<path fill="none" stroke="midnightblue" d="M89.39,-224.71C76.49,-219.68 62.08,-214.06 50.26,-209.45"/>
<polygon fill="midnightblue" stroke="midnightblue" points="88.31,-228.04 98.9,-228.41 90.85,-221.52 88.31,-228.04"/>
</g>
<!-- Node5&#45;&gt;Node3 -->
<g id="edge4" class="edge">
<title>Node5&#45;&gt;Node3</title>
<path fill="none" stroke="midnightblue" d="M195.53,-122.55C164.7,-122.79 120.61,-126.53 86,-143 62.91,-153.99 42.92,-177.25 32.88,-190.41"/>
<polygon fill="midnightblue" stroke="midnightblue" points="195.83,-126.05 205.85,-122.59 195.86,-119.05 195.83,-126.05"/>
</g>
<!-- Node5&#45;&gt;Node6 -->
<g id="edge5" class="edge">
<title>Node5&#45;&gt;Node6</title>
<path fill="none" stroke="midnightblue" d="M196.3,-136.97C181.98,-142.03 165.86,-147.73 152.62,-152.41"/>
<polygon fill="midnightblue" stroke="midnightblue" points="197.61,-140.22 205.87,-133.59 195.28,-133.62 197.61,-140.22"/>
</g>
<!-- Node5&#45;&gt;Node10 -->
<g id="edge7" class="edge">
<title>Node5&#45;&gt;Node10</title>
<path fill="none" stroke="midnightblue" d="M196.3,-111.03C181.98,-105.97 165.86,-100.27 152.62,-95.59"/>
<polygon fill="midnightblue" stroke="midnightblue" points="195.28,-114.38 205.87,-114.41 197.61,-107.78 195.28,-114.38"/>
</g>
<!-- Node6&#45;&gt;Node3 -->
<g id="edge6" class="edge">
<title>Node6&#45;&gt;Node3</title>
<path fill="none" stroke="midnightblue" d="M89.39,-175.29C76.49,-180.32 62.08,-185.94 50.26,-190.55"/>
<polygon fill="midnightblue" stroke="midnightblue" points="90.85,-178.48 98.9,-171.59 88.31,-171.96 90.85,-178.48"/>
</g>
<!-- Node13 -->
<g id="node8" class="node">
<title>Node13</title>
<g id="a_node8"><a xlink:href="navier6_8f.html#a45317b1def173b8f1db2e5083595d095" target="_top" xlink:title=" ">
<polygon fill="white" stroke="red" points="91,-0.5 91,-19.5 158,-19.5 158,-0.5 91,-0.5"/>
<text text-anchor="middle" x="124.5" y="-7.5" font-family="Helvetica,sans-Serif" font-size="10.00">set_overlap</text>
</a>
</g>
</g>
<!-- Node12&#45;&gt;Node13 -->
<g id="edge9" class="edge">
<title>Node12&#45;&gt;Node13</title>
<path fill="none" stroke="midnightblue" d="M188.93,-10C178.65,-10 167.88,-10 158.19,-10"/>
<polygon fill="midnightblue" stroke="midnightblue" points="188.99,-13.5 198.99,-10 188.99,-6.5 188.99,-13.5"/>
</g>
<!-- Node21&#45;&gt;Node3 -->
<g id="edge14" class="edge">
<title>Node21&#45;&gt;Node3</title>
<path fill="none" stroke="midnightblue" d="M202.24,-277.45C171.38,-277.7 123.21,-274.71 86,-257 62.91,-246.01 42.92,-222.75 32.88,-209.59"/>
<polygon fill="midnightblue" stroke="midnightblue" points="202.46,-280.95 212.39,-277.25 202.32,-273.95 202.46,-280.95"/>
</g>
</g>
</svg>
