<?xml version="1.0" encoding="UTF-8" standalone="no"?>
<!DOCTYPE svg PUBLIC "-//W3C//DTD SVG 1.1//EN"
 "http://www.w3.org/Graphics/SVG/1.1/DTD/svg11.dtd">
<!-- Generated by graphviz version 2.46.0 (0)
 -->
<!-- Title: prsolvt Pages: 1 -->
<svg width="392pt" height="218pt"
 viewBox="0.00 0.00 392.00 218.00" xmlns="http://www.w3.org/2000/svg" xmlns:xlink="http://www.w3.org/1999/xlink">
<g id="graph0" class="graph" transform="scale(1 1) rotate(0) translate(4 214)">
<title>prsolvt</title>
<polygon fill="white" stroke="transparent" points="-4,4 -4,-214 388,-214 388,4 -4,4"/>
<!-- Node1 -->
<g id="node1" class="node">
<title>Node1</title>
<g id="a_node1"><a xlink:title=" ">
<polygon fill="#bfbfbf" stroke="black" points="0,-38.5 0,-57.5 46,-57.5 46,-38.5 0,-38.5"/>
<text text-anchor="middle" x="23" y="-45.5" font-family="Helvetica,sans-Serif" font-size="10.00">prsolvt</text>
</a>
</g>
</g>
<!-- Node2 -->
<g id="node2" class="node">
<title>Node2</title>
<g id="a_node2"><a xlink:href="drive2_8f.html#acce80cd37f20e9b52729eb52d86a9c86" target="_top" xlink:title=" ">
<polygon fill="white" stroke="black" points="89,-114.5 89,-133.5 124,-133.5 124,-114.5 89,-114.5"/>
<text text-anchor="middle" x="106.5" y="-121.5" font-family="Helvetica,sans-Serif" font-size="10.00">heat</text>
</a>
</g>
</g>
<!-- Node1&#45;&gt;Node2 -->
<g id="edge1" class="edge">
<title>Node1&#45;&gt;Node2</title>
<path fill="none" stroke="midnightblue" d="M34.32,-57.63C47.79,-70.19 71.58,-92.37 87.92,-107.6"/>
<polygon fill="midnightblue" stroke="midnightblue" points="85.56,-110.19 95.26,-114.45 90.34,-105.07 85.56,-110.19"/>
</g>
<!-- Node405 -->
<g id="node8" class="node">
<title>Node405</title>
<g id="a_node8"><a xlink:href="subs1_8f.html#af114fff998975a6e77422a65106222ca" target="_top" xlink:title=" ">
<polygon fill="white" stroke="black" points="82,-38.5 82,-57.5 131,-57.5 131,-38.5 82,-38.5"/>
<text text-anchor="middle" x="106.5" y="-45.5" font-family="Helvetica,sans-Serif" font-size="10.00">setprop</text>
</a>
</g>
</g>
<!-- Node1&#45;&gt;Node405 -->
<g id="edge8" class="edge">
<title>Node1&#45;&gt;Node405</title>
<path fill="none" stroke="midnightblue" d="M46.27,-48C54.11,-48 63.11,-48 71.69,-48"/>
<polygon fill="midnightblue" stroke="midnightblue" points="71.83,-51.5 81.83,-48 71.83,-44.5 71.83,-51.5"/>
</g>
<!-- Node408 -->
<g id="node10" class="node">
<title>Node408</title>
<g id="a_node10"><a xlink:href="subs1_8f.html#aede23f2856c88d81d4315ea73f0177e8" target="_top" xlink:title=" ">
<polygon fill="white" stroke="black" points="82.5,-0.5 82.5,-19.5 130.5,-19.5 130.5,-0.5 82.5,-0.5"/>
<text text-anchor="middle" x="106.5" y="-7.5" font-family="Helvetica,sans-Serif" font-size="10.00">setsolv</text>
</a>
</g>
</g>
<!-- Node1&#45;&gt;Node408 -->
<g id="edge11" class="edge">
<title>Node1&#45;&gt;Node408</title>
<path fill="none" stroke="midnightblue" d="M44.57,-38.41C54.03,-34 65.43,-28.69 75.79,-23.85"/>
<polygon fill="midnightblue" stroke="midnightblue" points="77.36,-26.98 84.94,-19.59 74.4,-20.64 77.36,-26.98"/>
</g>
<!-- Node3 -->
<g id="node3" class="node">
<title>Node3</title>
<g id="a_node3"><a xlink:href="conduct_8f.html#a74a7f053381975ed36df8ea959f3aa01" target="_top" xlink:title=" ">
<polygon fill="white" stroke="red" points="167.5,-190.5 167.5,-209.5 212.5,-209.5 212.5,-190.5 167.5,-190.5"/>
<text text-anchor="middle" x="190" y="-197.5" font-family="Helvetica,sans-Serif" font-size="10.00">cdscal</text>
</a>
</g>
</g>
<!-- Node2&#45;&gt;Node3 -->
<g id="edge2" class="edge">
<title>Node2&#45;&gt;Node3</title>
<path fill="none" stroke="midnightblue" d="M117.82,-133.63C131.29,-146.19 155.08,-168.37 171.42,-183.6"/>
<polygon fill="midnightblue" stroke="midnightblue" points="169.06,-186.19 178.76,-190.45 173.84,-181.07 169.06,-186.19"/>
</g>
<!-- Node5 -->
<g id="node5" class="node">
<title>Node5</title>
<g id="a_node5"><a xlink:href="comm__mpi_8f.html#af06ec29f06aac3f8809e19de2a7e8946" target="_top" xlink:title=" ">
<polygon fill="white" stroke="red" points="323,-152.5 323,-171.5 384,-171.5 384,-152.5 323,-152.5"/>
<text text-anchor="middle" x="353.5" y="-159.5" font-family="Helvetica,sans-Serif" font-size="10.00">dnekclock</text>
</a>
</g>
</g>
<!-- Node2&#45;&gt;Node5 -->
<g id="edge5" class="edge">
<title>Node2&#45;&gt;Node5</title>
<path fill="none" stroke="midnightblue" d="M124.18,-130.35C135.97,-134.59 152.24,-139.92 167,-143 216.68,-153.36 275.07,-158.16 312.88,-160.32"/>
<polygon fill="midnightblue" stroke="midnightblue" points="312.8,-163.82 322.98,-160.86 313.18,-156.83 312.8,-163.82"/>
</g>
<!-- Node403 -->
<g id="node6" class="node">
<title>Node403</title>
<g id="a_node6"><a xlink:href="ssolv_8f.html#a46706a53a1b0d4e826ad1a0722616bed" target="_top" xlink:title=" ">
<polygon fill="white" stroke="red" points="168,-114.5 168,-133.5 212,-133.5 212,-114.5 168,-114.5"/>
<text text-anchor="middle" x="190" y="-121.5" font-family="Helvetica,sans-Serif" font-size="10.00">settolt</text>
</a>
</g>
</g>
<!-- Node2&#45;&gt;Node403 -->
<g id="edge6" class="edge">
<title>Node2&#45;&gt;Node403</title>
<path fill="none" stroke="midnightblue" d="M124.39,-124C134.03,-124 146.41,-124 157.76,-124"/>
<polygon fill="midnightblue" stroke="midnightblue" points="157.78,-127.5 167.78,-124 157.78,-120.5 157.78,-127.5"/>
</g>
<!-- Node235 -->
<g id="node7" class="node">
<title>Node235</title>
<g id="a_node7"><a xlink:href="subs1_8f.html#a8f2e17fa9df4e1df865aa17b294f867c" target="_top" xlink:title=" ">
<polygon fill="white" stroke="red" points="168,-76.5 168,-95.5 212,-95.5 212,-76.5 168,-76.5"/>
<text text-anchor="middle" x="190" y="-83.5" font-family="Helvetica,sans-Serif" font-size="10.00">unorm</text>
</a>
</g>
</g>
<!-- Node2&#45;&gt;Node235 -->
<g id="edge7" class="edge">
<title>Node2&#45;&gt;Node235</title>
<path fill="none" stroke="midnightblue" d="M124.39,-116.13C134.37,-111.47 147.3,-105.44 158.96,-100"/>
<polygon fill="midnightblue" stroke="midnightblue" points="160.79,-103.01 168.38,-95.62 157.83,-96.67 160.79,-103.01"/>
</g>
<!-- Node4 -->
<g id="node4" class="node">
<title>Node4</title>
<g id="a_node4"><a xlink:href="math_8f.html#a30b83d516b6ab162d3fafe73e03a3e92" target="_top" xlink:title=" ">
<polygon fill="white" stroke="black" points="249,-190.5 249,-209.5 287,-209.5 287,-190.5 249,-190.5"/>
<text text-anchor="middle" x="268" y="-197.5" font-family="Helvetica,sans-Serif" font-size="10.00">add2</text>
</a>
</g>
</g>
<!-- Node3&#45;&gt;Node4 -->
<g id="edge3" class="edge">
<title>Node3&#45;&gt;Node4</title>
<path fill="none" stroke="midnightblue" d="M212.58,-200C220.69,-200 230.04,-200 238.67,-200"/>
<polygon fill="midnightblue" stroke="midnightblue" points="238.72,-203.5 248.72,-200 238.72,-196.5 238.72,-203.5"/>
</g>
<!-- Node4&#45;&gt;Node5 -->
<g id="edge4" class="edge">
<title>Node4&#45;&gt;Node5</title>
<path fill="none" stroke="midnightblue" d="M287.12,-191.75C297.31,-187.12 310.31,-181.2 322.02,-175.87"/>
<polygon fill="midnightblue" stroke="midnightblue" points="323.82,-178.9 331.47,-171.57 320.92,-172.53 323.82,-178.9"/>
</g>
<!-- Node405&#45;&gt;Node5 -->
<g id="edge9" class="edge">
<title>Node405&#45;&gt;Node5</title>
<path fill="none" stroke="midnightblue" d="M131.34,-49.44C153.25,-51.42 186.3,-56.09 213,-67 260.76,-86.52 308.82,-124.14 334.17,-145.72"/>
<polygon fill="midnightblue" stroke="midnightblue" points="332.01,-148.48 341.86,-152.37 336.59,-143.18 332.01,-148.48"/>
</g>
<!-- Node406 -->
<g id="node9" class="node">
<title>Node406</title>
<g id="a_node9"><a xlink:href="vprops_8f.html#a895c417a4106672b662bf2fb96b26f06" target="_top" xlink:title=" ">
<polygon fill="white" stroke="red" points="167,-0.5 167,-19.5 213,-19.5 213,-0.5 167,-0.5"/>
<text text-anchor="middle" x="190" y="-7.5" font-family="Helvetica,sans-Serif" font-size="10.00">vprops</text>
</a>
</g>
</g>
<!-- Node405&#45;&gt;Node406 -->
<g id="edge10" class="edge">
<title>Node405&#45;&gt;Node406</title>
<path fill="none" stroke="midnightblue" d="M128.07,-38.41C137.53,-34 148.93,-28.69 159.29,-23.85"/>
<polygon fill="midnightblue" stroke="midnightblue" points="160.86,-26.98 168.44,-19.59 157.9,-20.64 160.86,-26.98"/>
</g>
</g>
</svg>
