<?xml version="1.0" encoding="UTF-8" standalone="no"?>
<!DOCTYPE svg PUBLIC "-//W3C//DTD SVG 1.1//EN"
 "http://www.w3.org/Graphics/SVG/1.1/DTD/svg11.dtd">
<!-- Generated by graphviz version 2.46.0 (0)
 -->
<!-- Title: indx2 Pages: 1 -->
<svg width="380pt" height="180pt"
 viewBox="0.00 0.00 380.00 180.00" xmlns="http://www.w3.org/2000/svg" xmlns:xlink="http://www.w3.org/1999/xlink">
<g id="graph0" class="graph" transform="scale(1 1) rotate(0) translate(4 176)">
<title>indx2</title>
<polygon fill="white" stroke="transparent" points="-4,4 -4,-176 376,-176 376,4 -4,4"/>
<!-- Node1 -->
<g id="node1" class="node">
<title>Node1</title>
<g id="a_node1"><a xlink:title=" ">
<polygon fill="#bfbfbf" stroke="black" points="332,-95.5 332,-114.5 372,-114.5 372,-95.5 332,-95.5"/>
<text text-anchor="middle" x="352" y="-102.5" font-family="Helvetica,sans-Serif" font-size="10.00">indx2</text>
</a>
</g>
</g>
<!-- Node2 -->
<g id="node2" class="node">
<title>Node2</title>
<g id="a_node2"><a xlink:href="ic_8f.html#a2e466e2afc420ec99d03d57cc7f5de8d" target="_top" xlink:title=" ">
<polygon fill="white" stroke="black" points="220.5,-142.5 220.5,-161.5 293.5,-161.5 293.5,-142.5 220.5,-142.5"/>
<text text-anchor="middle" x="257" y="-149.5" font-family="Helvetica,sans-Serif" font-size="10.00">i1_from_char</text>
</a>
</g>
</g>
<!-- Node1&#45;&gt;Node2 -->
<g id="edge1" class="edge">
<title>Node1&#45;&gt;Node2</title>
<path fill="none" stroke="midnightblue" d="M322.95,-119.18C308.13,-126.66 290.33,-135.66 277.11,-142.34"/>
<polygon fill="midnightblue" stroke="midnightblue" points="324.83,-122.15 332.18,-114.51 321.68,-115.9 324.83,-122.15"/>
</g>
<!-- Node10 -->
<g id="node5" class="node">
<title>Node10</title>
<g id="a_node5"><a xlink:href="ic_8f.html#a3befa4e5dbd2f1b21a1449d031b5ceac" target="_top" xlink:title=" ">
<polygon fill="white" stroke="black" points="218,-95.5 218,-114.5 296,-114.5 296,-95.5 218,-95.5"/>
<text text-anchor="middle" x="257" y="-102.5" font-family="Helvetica,sans-Serif" font-size="10.00">mfi_parse_hdr</text>
</a>
</g>
</g>
<!-- Node1&#45;&gt;Node10 -->
<g id="edge4" class="edge">
<title>Node1&#45;&gt;Node10</title>
<path fill="none" stroke="midnightblue" d="M321.63,-105C313.51,-105 304.58,-105 296.05,-105"/>
<polygon fill="midnightblue" stroke="midnightblue" points="321.73,-108.5 331.73,-105 321.73,-101.5 321.73,-108.5"/>
</g>
<!-- Node51 -->
<g id="node8" class="node">
<title>Node51</title>
<g id="a_node8"><a xlink:href="reader__re2_8f.html#a4678187e9d41811d377fe60a2eac5ee7" target="_top" xlink:title=" ">
<polygon fill="white" stroke="black" points="220.5,-38.5 220.5,-57.5 293.5,-57.5 293.5,-38.5 220.5,-38.5"/>
<text text-anchor="middle" x="257" y="-45.5" font-family="Helvetica,sans-Serif" font-size="10.00">read_re2_hdr</text>
</a>
</g>
</g>
<!-- Node1&#45;&gt;Node51 -->
<g id="edge7" class="edge">
<title>Node1&#45;&gt;Node51</title>
<path fill="none" stroke="midnightblue" d="M326.49,-89.98C309.72,-79.7 287.98,-66.38 273.54,-57.53"/>
<polygon fill="midnightblue" stroke="midnightblue" points="324.87,-93.09 335.22,-95.33 328.53,-87.12 324.87,-93.09"/>
</g>
<!-- Node3 -->
<g id="node3" class="node">
<title>Node3</title>
<g id="a_node3"><a xlink:href="ic_8f.html#a32489501c226ee8536f0fca3ac1b1b48" target="_top" xlink:title=" ">
<polygon fill="white" stroke="red" points="126,-152.5 126,-171.5 170,-171.5 170,-152.5 126,-152.5"/>
<text text-anchor="middle" x="148" y="-159.5" font-family="Helvetica,sans-Serif" font-size="10.00">restart</text>
</a>
</g>
</g>
<!-- Node2&#45;&gt;Node3 -->
<g id="edge2" class="edge">
<title>Node2&#45;&gt;Node3</title>
<path fill="none" stroke="midnightblue" d="M210.37,-156.26C196.38,-157.57 181.65,-158.95 170.13,-160.03"/>
<polygon fill="midnightblue" stroke="midnightblue" points="210.74,-159.75 220.37,-155.33 210.09,-152.78 210.74,-159.75"/>
</g>
<!-- Node4 -->
<g id="node4" class="node">
<title>Node4</title>
<g id="a_node4"><a xlink:href="navier5_8f.html#a78b917d37cf85f367e5decac2f8155cd" target="_top" xlink:title=" ">
<polygon fill="white" stroke="black" points="0,-152.5 0,-171.5 78,-171.5 78,-152.5 0,-152.5"/>
<text text-anchor="middle" x="39" y="-159.5" font-family="Helvetica,sans-Serif" font-size="10.00">auto_averager</text>
</a>
</g>
</g>
<!-- Node3&#45;&gt;Node4 -->
<g id="edge3" class="edge">
<title>Node3&#45;&gt;Node4</title>
<path fill="none" stroke="midnightblue" d="M115.71,-162C104.04,-162 90.66,-162 78.42,-162"/>
<polygon fill="midnightblue" stroke="midnightblue" points="115.86,-165.5 125.86,-162 115.86,-158.5 115.86,-165.5"/>
</g>
<!-- Node11 -->
<g id="node6" class="node">
<title>Node11</title>
<g id="a_node6"><a xlink:href="gfldr_8f.html#a8063d81abe16aa8f96b77bea36344fee" target="_top" xlink:title=" ">
<polygon fill="white" stroke="black" points="130.5,-114.5 130.5,-133.5 165.5,-133.5 165.5,-114.5 130.5,-114.5"/>
<text text-anchor="middle" x="148" y="-121.5" font-family="Helvetica,sans-Serif" font-size="10.00">gfldr</text>
</a>
</g>
</g>
<!-- Node10&#45;&gt;Node11 -->
<g id="edge5" class="edge">
<title>Node10&#45;&gt;Node11</title>
<path fill="none" stroke="midnightblue" d="M207.7,-113.58C192.64,-116.25 177.03,-119.02 165.69,-121.04"/>
<polygon fill="midnightblue" stroke="midnightblue" points="208.74,-116.95 217.97,-111.75 207.52,-110.05 208.74,-116.95"/>
</g>
<!-- Node12 -->
<g id="node7" class="node">
<title>Node12</title>
<g id="a_node7"><a xlink:href="ic_8f.html#afe51926a02c40e95936541ed859b1790" target="_top" xlink:title=" ">
<polygon fill="white" stroke="red" points="114,-76.5 114,-95.5 182,-95.5 182,-76.5 114,-76.5"/>
<text text-anchor="middle" x="148" y="-83.5" font-family="Helvetica,sans-Serif" font-size="10.00">mfi_prepare</text>
</a>
</g>
</g>
<!-- Node10&#45;&gt;Node12 -->
<g id="edge6" class="edge">
<title>Node10&#45;&gt;Node12</title>
<path fill="none" stroke="midnightblue" d="M207.94,-96.47C199.28,-94.93 190.42,-93.35 182.28,-91.91"/>
<polygon fill="midnightblue" stroke="midnightblue" points="207.52,-99.95 217.97,-98.25 208.74,-93.05 207.52,-99.95"/>
</g>
<!-- Node52 -->
<g id="node9" class="node">
<title>Node52</title>
<g id="a_node9"><a xlink:href="connect2_8f.html#a909eeac6dfc8f61a1c9d637c53cc970d" target="_top" xlink:title=" ">
<polygon fill="white" stroke="red" points="17,-19.5 17,-38.5 61,-38.5 61,-19.5 17,-19.5"/>
<text text-anchor="middle" x="39" y="-26.5" font-family="Helvetica,sans-Serif" font-size="10.00">readat</text>
</a>
</g>
</g>
<!-- Node51&#45;&gt;Node52 -->
<g id="edge8" class="edge">
<title>Node51&#45;&gt;Node52</title>
<path fill="none" stroke="midnightblue" d="M210.34,-43.98C164.45,-39.95 95.73,-33.9 61.28,-30.87"/>
<polygon fill="midnightblue" stroke="midnightblue" points="210.06,-47.47 220.33,-44.86 210.68,-40.5 210.06,-47.47"/>
</g>
<!-- Node53 -->
<g id="node10" class="node">
<title>Node53</title>
<g id="a_node10"><a xlink:href="reader__par_8f.html#a69b75d22fcf18a6c1038825b9f53bdb8" target="_top" xlink:title=" ">
<polygon fill="white" stroke="black" points="117,-0.5 117,-19.5 179,-19.5 179,-0.5 117,-0.5"/>
<text text-anchor="middle" x="148" y="-7.5" font-family="Helvetica,sans-Serif" font-size="10.00">readat_par</text>
</a>
</g>
</g>
<!-- Node51&#45;&gt;Node53 -->
<g id="edge9" class="edge">
<title>Node51&#45;&gt;Node53</title>
<path fill="none" stroke="midnightblue" d="M219.47,-35.03C205.22,-29.97 189.17,-24.27 175.99,-19.59"/>
<polygon fill="midnightblue" stroke="midnightblue" points="218.4,-38.36 229,-38.41 220.75,-31.77 218.4,-38.36"/>
</g>
<!-- Node53&#45;&gt;Node52 -->
<g id="edge10" class="edge">
<title>Node53&#45;&gt;Node52</title>
<path fill="none" stroke="midnightblue" d="M106.96,-17.11C91.36,-19.88 74.13,-22.94 61.06,-25.26"/>
<polygon fill="midnightblue" stroke="midnightblue" points="107.68,-20.54 116.91,-15.34 106.45,-13.65 107.68,-20.54"/>
</g>
</g>
</svg>
