<?xml version="1.0" encoding="UTF-8" standalone="no"?>
<!DOCTYPE svg PUBLIC "-//W3C//DTD SVG 1.1//EN"
 "http://www.w3.org/Graphics/SVG/1.1/DTD/svg11.dtd">
<!-- Generated by graphviz version 2.46.0 (0)
 -->
<!-- Title: mapab Pages: 1 -->
<svg width="501pt" height="123pt"
 viewBox="0.00 0.00 501.00 123.00" xmlns="http://www.w3.org/2000/svg" xmlns:xlink="http://www.w3.org/1999/xlink">
<g id="graph0" class="graph" transform="scale(1 1) rotate(0) translate(4 119)">
<title>mapab</title>
<polygon fill="white" stroke="transparent" points="-4,4 -4,-119 497,-119 497,4 -4,4"/>
<!-- Node1 -->
<g id="node1" class="node">
<title>Node1</title>
<g id="a_node1"><a xlink:title=" ">
<polygon fill="#bfbfbf" stroke="black" points="447,-38.5 447,-57.5 493,-57.5 493,-38.5 447,-38.5"/>
<text text-anchor="middle" x="470" y="-45.5" font-family="Helvetica,sans-Serif" font-size="10.00">mapab</text>
</a>
</g>
</g>
<!-- Node2 -->
<g id="node2" class="node">
<title>Node2</title>
<g id="a_node2"><a xlink:href="ic_8f.html#af9f00a786901a7600e636f294a42bd09" target="_top" xlink:title=" ">
<polygon fill="white" stroke="black" points="357,-57.5 357,-76.5 411,-76.5 411,-57.5 357,-57.5"/>
<text text-anchor="middle" x="384" y="-64.5" font-family="Helvetica,sans-Serif" font-size="10.00">mfi_gets</text>
</a>
</g>
</g>
<!-- Node1&#45;&gt;Node2 -->
<g id="edge1" class="edge">
<title>Node1&#45;&gt;Node2</title>
<path fill="none" stroke="midnightblue" d="M436.91,-55.26C428.38,-57.19 419.27,-59.25 411.1,-61.1"/>
<polygon fill="midnightblue" stroke="midnightblue" points="437.95,-58.61 446.93,-52.99 436.4,-51.78 437.95,-58.61"/>
</g>
<!-- Node48 -->
<g id="node10" class="node">
<title>Node48</title>
<g id="a_node10"><a xlink:href="ic_8f.html#af68df198916be2ecb6058327311ac3b6" target="_top" xlink:title=" ">
<polygon fill="white" stroke="black" points="357,-19.5 357,-38.5 411,-38.5 411,-19.5 357,-19.5"/>
<text text-anchor="middle" x="384" y="-26.5" font-family="Helvetica,sans-Serif" font-size="10.00">mfi_getv</text>
</a>
</g>
</g>
<!-- Node1&#45;&gt;Node48 -->
<g id="edge10" class="edge">
<title>Node1&#45;&gt;Node48</title>
<path fill="none" stroke="midnightblue" d="M436.91,-40.74C428.38,-38.81 419.27,-36.75 411.1,-34.9"/>
<polygon fill="midnightblue" stroke="midnightblue" points="436.4,-44.22 446.93,-43.01 437.95,-37.39 436.4,-44.22"/>
</g>
<!-- Node3 -->
<g id="node3" class="node">
<title>Node3</title>
<g id="a_node3"><a xlink:href="ic_8f.html#a05e0886b196049bac2d39b9d500a70d1" target="_top" xlink:title=" ">
<polygon fill="white" stroke="black" points="291,-38.5 291,-57.5 321,-57.5 321,-38.5 291,-38.5"/>
<text text-anchor="middle" x="306" y="-45.5" font-family="Helvetica,sans-Serif" font-size="10.00">mfi</text>
</a>
</g>
</g>
<!-- Node2&#45;&gt;Node3 -->
<g id="edge2" class="edge">
<title>Node2&#45;&gt;Node3</title>
<path fill="none" stroke="midnightblue" d="M347,-58C337.77,-55.69 328.38,-53.35 321.02,-51.51"/>
<polygon fill="midnightblue" stroke="midnightblue" points="346.29,-61.43 356.85,-60.46 347.99,-54.64 346.29,-61.43"/>
</g>
<!-- Node4 -->
<g id="node4" class="node">
<title>Node4</title>
<g id="a_node4"><a xlink:href="navier1_8f.html#a38ba376801cfa958294fae8c90db7680" target="_top" xlink:title=" ">
<polygon fill="white" stroke="red" points="118,-57.5 118,-76.5 166,-76.5 166,-57.5 118,-57.5"/>
<text text-anchor="middle" x="142" y="-64.5" font-family="Helvetica,sans-Serif" font-size="10.00">convop</text>
</a>
</g>
</g>
<!-- Node3&#45;&gt;Node4 -->
<g id="edge3" class="edge">
<title>Node3&#45;&gt;Node4</title>
<path fill="none" stroke="midnightblue" d="M281.63,-58.89C273.4,-62.18 263.96,-65.35 255,-67 224.78,-72.55 189.2,-71.25 166.39,-69.44"/>
<polygon fill="midnightblue" stroke="midnightblue" points="283.13,-62.05 290.96,-54.91 280.39,-55.61 283.13,-62.05"/>
</g>
<!-- Node44 -->
<g id="node8" class="node">
<title>Node44</title>
<g id="a_node8"><a xlink:href="navier1_8f.html#a89c10bd50bd97a18d935319a486720c1" target="_top" xlink:title=" ">
<polygon fill="white" stroke="black" points="202,-38.5 202,-57.5 255,-57.5 255,-38.5 202,-38.5"/>
<text text-anchor="middle" x="228.5" y="-45.5" font-family="Helvetica,sans-Serif" font-size="10.00">convopo</text>
</a>
</g>
</g>
<!-- Node3&#45;&gt;Node44 -->
<g id="edge7" class="edge">
<title>Node3&#45;&gt;Node44</title>
<path fill="none" stroke="midnightblue" d="M280.79,-48C272.64,-48 263.52,-48 255.25,-48"/>
<polygon fill="midnightblue" stroke="midnightblue" points="280.8,-51.5 290.8,-48 280.8,-44.5 280.8,-51.5"/>
</g>
<!-- Node45 -->
<g id="node9" class="node">
<title>Node45</title>
<g id="a_node9"><a xlink:href="ic_8f.html#a32489501c226ee8536f0fca3ac1b1b48" target="_top" xlink:title=" ">
<polygon fill="white" stroke="red" points="206.5,-0.5 206.5,-19.5 250.5,-19.5 250.5,-0.5 206.5,-0.5"/>
<text text-anchor="middle" x="228.5" y="-7.5" font-family="Helvetica,sans-Serif" font-size="10.00">restart</text>
</a>
</g>
</g>
<!-- Node3&#45;&gt;Node45 -->
<g id="edge9" class="edge">
<title>Node3&#45;&gt;Node45</title>
<path fill="none" stroke="midnightblue" d="M281.64,-36.24C270.99,-30.88 258.55,-24.62 248.48,-19.56"/>
<polygon fill="midnightblue" stroke="midnightblue" points="280.29,-39.48 290.8,-40.85 283.44,-33.23 280.29,-39.48"/>
</g>
<!-- Node5 -->
<g id="node5" class="node">
<title>Node5</title>
<g id="a_node5"><a xlink:href="navier1_8f.html#a344ec731e4a89d0f136c91bc1963e8d5" target="_top" xlink:title=" ">
<polygon fill="white" stroke="red" points="19.5,-95.5 19.5,-114.5 62.5,-114.5 62.5,-95.5 19.5,-95.5"/>
<text text-anchor="middle" x="41" y="-102.5" font-family="Helvetica,sans-Serif" font-size="10.00">advab</text>
</a>
</g>
</g>
<!-- Node4&#45;&gt;Node5 -->
<g id="edge4" class="edge">
<title>Node4&#45;&gt;Node5</title>
<path fill="none" stroke="midnightblue" d="M108.32,-79.54C93.29,-85.31 75.91,-91.99 62.71,-97.05"/>
<polygon fill="midnightblue" stroke="midnightblue" points="109.71,-82.76 117.79,-75.91 107.2,-76.23 109.71,-82.76"/>
</g>
<!-- Node19 -->
<g id="node6" class="node">
<title>Node19</title>
<g id="a_node6"><a xlink:href="perturb_8f.html#a57aed02316492f3059b70c7a98e4e2f9" target="_top" xlink:title=" ">
<polygon fill="white" stroke="red" points="17,-57.5 17,-76.5 65,-76.5 65,-57.5 17,-57.5"/>
<text text-anchor="middle" x="41" y="-64.5" font-family="Helvetica,sans-Serif" font-size="10.00">advabp</text>
</a>
</g>
</g>
<!-- Node4&#45;&gt;Node19 -->
<g id="edge5" class="edge">
<title>Node4&#45;&gt;Node19</title>
<path fill="none" stroke="midnightblue" d="M107.56,-67C93.59,-67 77.7,-67 65.07,-67"/>
<polygon fill="midnightblue" stroke="midnightblue" points="107.79,-70.5 117.79,-67 107.79,-63.5 107.79,-70.5"/>
</g>
<!-- Node23 -->
<g id="node7" class="node">
<title>Node23</title>
<g id="a_node7"><a xlink:href="perturb_8f.html#afb8592701ab3283a1c01ed23f1d0ff56" target="_top" xlink:title=" ">
<polygon fill="white" stroke="red" points="0,-19.5 0,-38.5 82,-38.5 82,-19.5 0,-19.5"/>
<text text-anchor="middle" x="41" y="-26.5" font-family="Helvetica,sans-Serif" font-size="10.00">advabp_adjoint</text>
</a>
</g>
</g>
<!-- Node4&#45;&gt;Node23 -->
<g id="edge6" class="edge">
<title>Node4&#45;&gt;Node23</title>
<path fill="none" stroke="midnightblue" d="M108.34,-54.46C94.81,-49.27 79.37,-43.35 66.8,-38.52"/>
<polygon fill="midnightblue" stroke="midnightblue" points="107.2,-57.77 117.79,-58.09 109.71,-51.24 107.2,-57.77"/>
</g>
<!-- Node44&#45;&gt;Node4 -->
<g id="edge8" class="edge">
<title>Node44&#45;&gt;Node4</title>
<path fill="none" stroke="midnightblue" d="M191.75,-56.04C183.06,-57.99 174,-60.03 166.07,-61.81"/>
<polygon fill="midnightblue" stroke="midnightblue" points="192.7,-59.41 201.69,-53.8 191.16,-52.58 192.7,-59.41"/>
</g>
<!-- Node48&#45;&gt;Node3 -->
<g id="edge11" class="edge">
<title>Node48&#45;&gt;Node3</title>
<path fill="none" stroke="midnightblue" d="M347,-38C337.77,-40.31 328.38,-42.65 321.02,-44.49"/>
<polygon fill="midnightblue" stroke="midnightblue" points="347.99,-41.36 356.85,-35.54 346.29,-34.57 347.99,-41.36"/>
</g>
</g>
</svg>
