<?xml version="1.0" encoding="UTF-8" standalone="no"?>
<!DOCTYPE svg PUBLIC "-//W3C//DTD SVG 1.1//EN"
 "http://www.w3.org/Graphics/SVG/1.1/DTD/svg11.dtd">
<!-- Generated by graphviz version 2.46.0 (0)
 -->
<!-- Title: addfid Pages: 1 -->
<!--zoomable 123 -->
<svg id="main" version="1.1" xmlns="http://www.w3.org/2000/svg" xmlns:xlink="http://www.w3.org/1999/xlink" xml:space="preserve" onload="init(evt)">
<style type="text/css"><![CDATA[
.edge:hover path { stroke: red; }
.edge:hover polygon { stroke: red; fill: red; }
]]></style>
<script type="text/javascript"><![CDATA[
var edges = document.getElementsByTagName('g');
if (edges && edges.length) {
  for (var i=0;i<edges.length;i++) {
    if (edges[i].id.substr(0,4)=='edge') {
      edges[i].setAttribute('class','edge');
    }
  }
}
]]></script>
        <defs>
                <circle id="rim" cx="0" cy="0" r="7"/>
                <circle id="rim2" cx="0" cy="0" r="3.5"/>
                <g id="zoomPlus">
                        <use xlink:href="#rim" fill="#404040">
                                <set attributeName="fill" to="#808080" begin="zoomplus.mouseover" end="zoomplus.mouseout"/>
                        </use>
                        <path d="M-4,0h8M0,-4v8" fill="none" stroke="white" stroke-width="1.5" pointer-events="none"/>
                </g>
                <g id="zoomMin">
                        <use xlink:href="#rim" fill="#404040">
                                <set attributeName="fill" to="#808080" begin="zoomminus.mouseover" end="zoomminus.mouseout"/>
                        </use>
                        <path d="M-4,0h8" fill="none" stroke="white" stroke-width="1.5" pointer-events="none"/>
                </g>
                <g id="dirArrow">
                        <path fill="none" stroke="white" stroke-width="1.5" d="M0,-3.0v7 M-2.5,-0.5L0,-3.0L2.5,-0.5"/>
                </g>
               <g id="resetDef">
                       <use xlink:href="#rim2" fill="#404040">
                               <set attributeName="fill" to="#808080" begin="reset.mouseover" end="reset.mouseout"/>
                       </use>
               </g>
        </defs>

<script type="text/javascript">
var viewWidth = 520;
var viewHeight = 123;
var sectionId = 'dynsection-1';
</script>
<script xlink:href="svgpan.js"/>
<svg id="graph" class="graph">
<g id="viewport">
<title>addfid</title>
<polygon fill="white" stroke="transparent" points="-4,4 -4,-119 516,-119 516,4 -4,4"/>
<!-- Node1 -->
<g id="node1" class="node">
<title>Node1</title>
<g id="a_node1"><a xlink:title=" ">
<polygon fill="#bfbfbf" stroke="black" points="469,-47.5 469,-66.5 512,-66.5 512,-47.5 469,-47.5"/>
<text text-anchor="middle" x="490.5" y="-54.5" font-family="Helvetica,sans-Serif" font-size="10.00">addfid</text>
</a>
</g>
</g>
<!-- Node2 -->
<g id="node2" class="node">
<title>Node2</title>
<g id="a_node2"><a xlink:href="ic_8f.html#afe51926a02c40e95936541ed859b1790" target="_top" xlink:title=" ">
<polygon fill="white" stroke="black" points="357.5,-71.5 357.5,-90.5 425.5,-90.5 425.5,-71.5 357.5,-71.5"/>
<text text-anchor="middle" x="391.5" y="-78.5" font-family="Helvetica,sans-Serif" font-size="10.00">mfi_prepare</text>
</a>
</g>
</g>
<!-- Node1&#45;&gt;Node2 -->
<g id="edge1" class="edge">
<title>Node1&#45;&gt;Node2</title>
<path fill="none" stroke="midnightblue" d="M459.21,-64.49C448.55,-67.13 436.52,-70.11 425.64,-72.8"/>
<polygon fill="midnightblue" stroke="midnightblue" points="460.06,-67.89 468.93,-62.09 458.38,-61.09 460.06,-67.89"/>
</g>
<!-- Node48 -->
<g id="node8" class="node">
<title>Node48</title>
<g id="a_node8"><a xlink:href="prepost_8f.html#a3faa39946b56ca71cbb123811e58160d" target="_top" xlink:title=" ">
<polygon fill="white" stroke="black" points="350,-28.5 350,-47.5 433,-47.5 433,-28.5 350,-28.5"/>
<text text-anchor="middle" x="391.5" y="-35.5" font-family="Helvetica,sans-Serif" font-size="10.00">mfo_open_files</text>
</a>
</g>
</g>
<!-- Node1&#45;&gt;Node48 -->
<g id="edge8" class="edge">
<title>Node1&#45;&gt;Node48</title>
<path fill="none" stroke="midnightblue" d="M459.01,-51.03C450.77,-49.41 441.72,-47.64 433.02,-45.94"/>
<polygon fill="midnightblue" stroke="midnightblue" points="458.44,-54.48 468.93,-52.97 459.79,-47.61 458.44,-54.48"/>
</g>
<!-- Node3 -->
<g id="node3" class="node">
<title>Node3</title>
<g id="a_node3"><a xlink:href="ic_8f.html#a05e0886b196049bac2d39b9d500a70d1" target="_top" xlink:title=" ">
<polygon fill="white" stroke="black" points="268,-73.5 268,-92.5 298,-92.5 298,-73.5 268,-73.5"/>
<text text-anchor="middle" x="283" y="-80.5" font-family="Helvetica,sans-Serif" font-size="10.00">mfi</text>
</a>
</g>
</g>
<!-- Node2&#45;&gt;Node3 -->
<g id="edge2" class="edge">
<title>Node2&#45;&gt;Node3</title>
<path fill="none" stroke="midnightblue" d="M347.29,-81.81C329.75,-82.14 310.71,-82.5 298.14,-82.73"/>
<polygon fill="midnightblue" stroke="midnightblue" points="347.45,-85.31 357.39,-81.62 347.32,-78.31 347.45,-85.31"/>
</g>
<!-- Node4 -->
<g id="node4" class="node">
<title>Node4</title>
<g id="a_node4"><a xlink:href="navier1_8f.html#a38ba376801cfa958294fae8c90db7680" target="_top" xlink:title=" ">
<polygon fill="white" stroke="red" points="79,-95.5 79,-114.5 127,-114.5 127,-95.5 79,-95.5"/>
<text text-anchor="middle" x="103" y="-102.5" font-family="Helvetica,sans-Serif" font-size="10.00">convop</text>
</a>
</g>
</g>
<!-- Node3&#45;&gt;Node4 -->
<g id="edge3" class="edge">
<title>Node3&#45;&gt;Node4</title>
<path fill="none" stroke="midnightblue" d="M258.36,-92.94C245.98,-97.61 230.44,-102.66 216,-105 185.67,-109.92 150.12,-108.77 127.34,-107.16"/>
<polygon fill="midnightblue" stroke="midnightblue" points="259.9,-96.09 267.92,-89.17 257.33,-89.58 259.9,-96.09"/>
</g>
<!-- Node44 -->
<g id="node6" class="node">
<title>Node44</title>
<g id="a_node6"><a xlink:href="navier1_8f.html#a89c10bd50bd97a18d935319a486720c1" target="_top" xlink:title=" ">
<polygon fill="white" stroke="black" points="163,-76.5 163,-95.5 216,-95.5 216,-76.5 163,-76.5"/>
<text text-anchor="middle" x="189.5" y="-83.5" font-family="Helvetica,sans-Serif" font-size="10.00">convopo</text>
</a>
</g>
</g>
<!-- Node3&#45;&gt;Node44 -->
<g id="edge5" class="edge">
<title>Node3&#45;&gt;Node44</title>
<path fill="none" stroke="midnightblue" d="M257.35,-83.81C244.58,-84.23 229.01,-84.74 216.11,-85.16"/>
<polygon fill="midnightblue" stroke="midnightblue" points="257.82,-87.29 267.7,-83.47 257.59,-80.3 257.82,-87.29"/>
</g>
<!-- Node45 -->
<g id="node7" class="node">
<title>Node45</title>
<g id="a_node7"><a xlink:href="ic_8f.html#a32489501c226ee8536f0fca3ac1b1b48" target="_top" xlink:title=" ">
<polygon fill="white" stroke="red" points="167.5,-38.5 167.5,-57.5 211.5,-57.5 211.5,-38.5 167.5,-38.5"/>
<text text-anchor="middle" x="189.5" y="-45.5" font-family="Helvetica,sans-Serif" font-size="10.00">restart</text>
</a>
</g>
</g>
<!-- Node3&#45;&gt;Node45 -->
<g id="edge7" class="edge">
<title>Node3&#45;&gt;Node45</title>
<path fill="none" stroke="midnightblue" d="M258.04,-73.84C243.72,-68.36 225.67,-61.45 211.84,-56.16"/>
<polygon fill="midnightblue" stroke="midnightblue" points="257.11,-77.23 267.7,-77.53 259.61,-70.69 257.11,-77.23"/>
</g>
<!-- Node5 -->
<g id="node5" class="node">
<title>Node5</title>
<g id="a_node5"><a xlink:href="navier1_8f.html#a344ec731e4a89d0f136c91bc1963e8d5" target="_top" xlink:title=" ">
<polygon fill="white" stroke="red" points="0,-95.5 0,-114.5 43,-114.5 43,-95.5 0,-95.5"/>
<text text-anchor="middle" x="21.5" y="-102.5" font-family="Helvetica,sans-Serif" font-size="10.00">advab</text>
</a>
</g>
</g>
<!-- Node4&#45;&gt;Node5 -->
<g id="edge4" class="edge">
<title>Node4&#45;&gt;Node5</title>
<path fill="none" stroke="midnightblue" d="M68.39,-105C59.78,-105 50.78,-105 43.06,-105"/>
<polygon fill="midnightblue" stroke="midnightblue" points="68.58,-108.5 78.58,-105 68.58,-101.5 68.58,-108.5"/>
</g>
<!-- Node44&#45;&gt;Node4 -->
<g id="edge6" class="edge">
<title>Node44&#45;&gt;Node4</title>
<path fill="none" stroke="midnightblue" d="M152.75,-94.04C144.06,-95.99 135,-98.03 127.07,-99.81"/>
<polygon fill="midnightblue" stroke="midnightblue" points="153.7,-97.41 162.69,-91.8 152.16,-90.58 153.7,-97.41"/>
</g>
<!-- Node49 -->
<g id="node9" class="node">
<title>Node49</title>
<g id="a_node9"><a xlink:href="prepost_8f.html#a2b0ed536ab0284c398d7f2ac35622d88" target="_top" xlink:title=" ">
<polygon fill="white" stroke="black" points="252,-19.5 252,-38.5 314,-38.5 314,-19.5 252,-19.5"/>
<text text-anchor="middle" x="283" y="-26.5" font-family="Helvetica,sans-Serif" font-size="10.00">mfo_outfld</text>
</a>
</g>
</g>
<!-- Node48&#45;&gt;Node49 -->
<g id="edge9" class="edge">
<title>Node48&#45;&gt;Node49</title>
<path fill="none" stroke="midnightblue" d="M339.76,-33.71C331.01,-32.97 322.17,-32.23 314.18,-31.55"/>
<polygon fill="midnightblue" stroke="midnightblue" points="339.67,-37.22 349.93,-34.57 340.26,-30.24 339.67,-37.22"/>
</g>
<!-- Node50 -->
<g id="node10" class="node">
<title>Node50</title>
<g id="a_node10"><a xlink:href="prepost_8f.html#a7e6b503691396e2ba24a32272da91f7a" target="_top" xlink:title=" ">
<polygon fill="white" stroke="red" points="169,-0.5 169,-19.5 210,-19.5 210,-0.5 169,-0.5"/>
<text text-anchor="middle" x="189.5" y="-7.5" font-family="Helvetica,sans-Serif" font-size="10.00">outfld</text>
</a>
</g>
</g>
<!-- Node49&#45;&gt;Node50 -->
<g id="edge10" class="edge">
<title>Node49&#45;&gt;Node50</title>
<path fill="none" stroke="midnightblue" d="M241.85,-20.66C230.81,-18.37 219.33,-15.99 210.03,-14.06"/>
<polygon fill="midnightblue" stroke="midnightblue" points="241.28,-24.12 251.79,-22.73 242.71,-17.27 241.28,-24.12"/>
</g>
</g>
</svg>
        <g id="navigator" transform="translate(0 0)" fill="#404254">
                <rect fill="#f2f5e9" fill-opacity="0.5" stroke="#606060" stroke-width=".5" x="0" y="0" width="60" height="60"/>
                <use id="zoomplus" xlink:href="#zoomPlus" x="17" y="9" onmousedown="handleZoom(evt,'in')"/>
                <use id="zoomminus" xlink:href="#zoomMin" x="42" y="9" onmousedown="handleZoom(evt,'out')"/>
                <use id="reset" xlink:href="#resetDef" x="30" y="36" onmousedown="handleReset()"/>
                <g id="arrowUp" xlink:href="#dirArrow" transform="translate(30 24)" onmousedown="handlePan(0,-1)">
                  <use xlink:href="#rim" fill="#404040">
                        <set attributeName="fill" to="#808080" begin="arrowUp.mouseover" end="arrowUp.mouseout"/>
                  </use>
                  <path fill="none" stroke="white" stroke-width="1.5" d="M0,-3.0v7 M-2.5,-0.5L0,-3.0L2.5,-0.5"/>
                </g>
                <g id="arrowRight" xlink:href="#dirArrow" transform="rotate(90) translate(36 -43)" onmousedown="handlePan(1,0)">
                  <use xlink:href="#rim" fill="#404040">
                        <set attributeName="fill" to="#808080" begin="arrowRight.mouseover" end="arrowRight.mouseout"/>
                  </use>
                  <path fill="none" stroke="white" stroke-width="1.5" d="M0,-3.0v7 M-2.5,-0.5L0,-3.0L2.5,-0.5"/>
                </g>
                <g id="arrowDown" xlink:href="#dirArrow" transform="rotate(180) translate(-30 -48)" onmousedown="handlePan(0,1)">
                  <use xlink:href="#rim" fill="#404040">
                        <set attributeName="fill" to="#808080" begin="arrowDown.mouseover" end="arrowDown.mouseout"/>
                  </use>
                  <path fill="none" stroke="white" stroke-width="1.5" d="M0,-3.0v7 M-2.5,-0.5L0,-3.0L2.5,-0.5"/>
                </g>
                <g id="arrowLeft" xlink:href="#dirArrow" transform="rotate(270) translate(-36 17)" onmousedown="handlePan(-1,0)">
                  <use xlink:href="#rim" fill="#404040">
                        <set attributeName="fill" to="#808080" begin="arrowLeft.mouseover" end="arrowLeft.mouseout"/>
                  </use>
                  <path fill="none" stroke="white" stroke-width="1.5" d="M0,-3.0v7 M-2.5,-0.5L0,-3.0L2.5,-0.5"/>
                </g>
        </g>
        <svg viewBox="0 0 15 15" width="100%" height="30px" preserveAspectRatio="xMaxYMin meet">
         <g id="arrow_out" transform="scale(0.3 0.3)">
          <a xlink:href="ic_8f_a6c038aadb593728de8050e552ea4acc6_icgraph_org.svg" target="_base">
           <rect id="button" ry="5" rx="5" y="6" x="6" height="38" width="38"
                fill="#f2f5e9" fill-opacity="0.5" stroke="#606060" stroke-width="1.0"/>
           <path id="arrow"
             d="M 11.500037,31.436501 C 11.940474,20.09759 22.043105,11.32322 32.158766,21.979434 L 37.068811,17.246167 C 37.068811,17.246167 37.088388,32 37.088388,32 L 22.160133,31.978069 C 22.160133,31.978069 26.997745,27.140456 26.997745,27.140456 C 18.528582,18.264221 13.291696,25.230495 11.500037,31.436501 z"
             style="fill:#404040;"/>
          </a>
         </g>
        </svg>
</svg>
