<?xml version="1.0" encoding="UTF-8" standalone="no"?>
<!DOCTYPE svg PUBLIC "-//W3C//DTD SVG 1.1//EN"
 "http://www.w3.org/Graphics/SVG/1.1/DTD/svg11.dtd">
<!-- Generated by graphviz version 2.46.0 (0)
 -->
<!-- Title: mapab4r Pages: 1 -->
<svg width="480pt" height="180pt"
 viewBox="0.00 0.00 480.00 180.00" xmlns="http://www.w3.org/2000/svg" xmlns:xlink="http://www.w3.org/1999/xlink">
<g id="graph0" class="graph" transform="scale(1 1) rotate(0) translate(4 176)">
<title>mapab4r</title>
<polygon fill="white" stroke="transparent" points="-4,4 -4,-176 476,-176 476,4 -4,4"/>
<!-- Node1 -->
<g id="node1" class="node">
<title>Node1</title>
<g id="a_node1"><a xlink:title=" ">
<polygon fill="#bfbfbf" stroke="black" points="0,-76.5 0,-95.5 54,-95.5 54,-76.5 0,-76.5"/>
<text text-anchor="middle" x="27" y="-83.5" font-family="Helvetica,sans-Serif" font-size="10.00">mapab4r</text>
</a>
</g>
</g>
<!-- Node2 -->
<g id="node2" class="node">
<title>Node2</title>
<g id="a_node2"><a xlink:href="math_8f.html#a3b43508554f14bdea8e14473d7d0803c" target="_top" xlink:title=" ">
<polygon fill="white" stroke="black" points="94,-152.5 94,-171.5 132,-171.5 132,-152.5 94,-152.5"/>
<text text-anchor="middle" x="113" y="-159.5" font-family="Helvetica,sans-Serif" font-size="10.00">copy</text>
</a>
</g>
</g>
<!-- Node1&#45;&gt;Node2 -->
<g id="edge1" class="edge">
<title>Node1&#45;&gt;Node2</title>
<path fill="none" stroke="midnightblue" d="M38.44,-95.78C50.69,-107.22 71.66,-126.66 90,-143 90.97,-143.87 91.98,-144.76 92.99,-145.65"/>
<polygon fill="midnightblue" stroke="midnightblue" points="90.91,-148.48 100.75,-152.4 95.5,-143.2 90.91,-148.48"/>
</g>
<!-- Node3 -->
<g id="node3" class="node">
<title>Node3</title>
<g id="a_node3"><a xlink:href="prepost_8f.html#a5802584ce57124068d1ee183348e3275" target="_top" xlink:title=" ">
<polygon fill="white" stroke="black" points="90,-114.5 90,-133.5 136,-133.5 136,-114.5 90,-114.5"/>
<text text-anchor="middle" x="113" y="-121.5" font-family="Helvetica,sans-Serif" font-size="10.00">copy4r</text>
</a>
</g>
</g>
<!-- Node1&#45;&gt;Node3 -->
<g id="edge2" class="edge">
<title>Node1&#45;&gt;Node3</title>
<path fill="none" stroke="midnightblue" d="M49.2,-95.59C58.95,-100 70.7,-105.31 81.38,-110.15"/>
<polygon fill="midnightblue" stroke="midnightblue" points="80.26,-113.48 90.81,-114.41 83.14,-107.1 80.26,-113.48"/>
</g>
<!-- Node4 -->
<g id="node4" class="node">
<title>Node4</title>
<g id="a_node4"><a xlink:href="byte_8c.html#a2da8eeb074dfd3ffbfb3e9a4d301cda4" target="_top" xlink:title=" ">
<polygon fill="white" stroke="black" points="247,-38.5 247,-57.5 282,-57.5 282,-38.5 247,-38.5"/>
<text text-anchor="middle" x="264.5" y="-45.5" font-family="Helvetica,sans-Serif" font-size="10.00">exitt</text>
</a>
</g>
</g>
<!-- Node1&#45;&gt;Node4 -->
<g id="edge3" class="edge">
<title>Node1&#45;&gt;Node4</title>
<path fill="none" stroke="midnightblue" d="M54.09,-85.29C89.88,-83.86 156.05,-79.6 211,-67 219.73,-65 229,-61.97 237.28,-58.91"/>
<polygon fill="midnightblue" stroke="midnightblue" points="238.73,-62.1 246.79,-55.23 236.2,-55.57 238.73,-62.1"/>
</g>
<!-- Node7 -->
<g id="node7" class="node">
<title>Node7</title>
<g id="a_node7"><a xlink:href="speclib_8f.html#ab14f01571bb13d5185f4a8b163c1958a" target="_top" xlink:title=" ">
<polygon fill="white" stroke="black" points="94.5,-38.5 94.5,-57.5 131.5,-57.5 131.5,-38.5 94.5,-38.5"/>
<text text-anchor="middle" x="113" y="-45.5" font-family="Helvetica,sans-Serif" font-size="10.00">igllm</text>
</a>
</g>
</g>
<!-- Node1&#45;&gt;Node7 -->
<g id="edge6" class="edge">
<title>Node1&#45;&gt;Node7</title>
<path fill="none" stroke="midnightblue" d="M49.2,-76.41C60.13,-71.46 73.58,-65.38 85.23,-60.11"/>
<polygon fill="midnightblue" stroke="midnightblue" points="86.82,-63.23 94.49,-55.92 83.94,-56.85 86.82,-63.23"/>
</g>
<!-- Node11 -->
<g id="node9" class="node">
<title>Node11</title>
<g id="a_node9"><a xlink:href="speclib_8f.html#a3788ff93193b0428aad51e76c6ed2e18" target="_top" xlink:title=" ">
<polygon fill="white" stroke="black" points="93.5,-0.5 93.5,-19.5 132.5,-19.5 132.5,-0.5 93.5,-0.5"/>
<text text-anchor="middle" x="113" y="-7.5" font-family="Helvetica,sans-Serif" font-size="10.00">zwgll</text>
</a>
</g>
</g>
<!-- Node1&#45;&gt;Node11 -->
<g id="edge8" class="edge">
<title>Node1&#45;&gt;Node11</title>
<path fill="none" stroke="midnightblue" d="M38.44,-76.22C50.69,-64.78 71.66,-45.34 90,-29 90.97,-28.13 91.98,-27.24 92.99,-26.35"/>
<polygon fill="midnightblue" stroke="midnightblue" points="95.5,-28.8 100.75,-19.6 90.91,-23.52 95.5,-28.8"/>
</g>
<!-- Node5 -->
<g id="node5" class="node">
<title>Node5</title>
<g id="a_node5"><a xlink:href="comm__mpi_8f.html#acc8803a3787828530843112e0c48941b" target="_top" xlink:title=" ">
<polygon fill="white" stroke="black" points="318,-38.5 318,-57.5 368,-57.5 368,-38.5 318,-38.5"/>
<text text-anchor="middle" x="343" y="-45.5" font-family="Helvetica,sans-Serif" font-size="10.00">nek_die</text>
</a>
</g>
</g>
<!-- Node4&#45;&gt;Node5 -->
<g id="edge4" class="edge">
<title>Node4&#45;&gt;Node5</title>
<path fill="none" stroke="midnightblue" d="M282.1,-48C289.62,-48 298.8,-48 307.69,-48"/>
<polygon fill="midnightblue" stroke="midnightblue" points="307.88,-51.5 317.88,-48 307.88,-44.5 307.88,-51.5"/>
</g>
<!-- Node6 -->
<g id="node6" class="node">
<title>Node6</title>
<g id="a_node6"><a xlink:href="mpi__dummy_8f.html#a55e9a1619aadb638b14211ce21d7d566" target="_top" xlink:title=" ">
<polygon fill="white" stroke="black" points="404,-38.5 404,-57.5 472,-57.5 472,-38.5 404,-38.5"/>
<text text-anchor="middle" x="438" y="-45.5" font-family="Helvetica,sans-Serif" font-size="10.00">mpi_finalize</text>
</a>
</g>
</g>
<!-- Node5&#45;&gt;Node6 -->
<g id="edge5" class="edge">
<title>Node5&#45;&gt;Node6</title>
<path fill="none" stroke="midnightblue" d="M368.43,-48C376.25,-48 385.14,-48 393.88,-48"/>
<polygon fill="midnightblue" stroke="midnightblue" points="393.99,-51.5 403.99,-48 393.99,-44.5 393.99,-51.5"/>
</g>
<!-- Node8 -->
<g id="node8" class="node">
<title>Node8</title>
<g id="a_node8"><a xlink:href="speclib_8f.html#ae5f9b93a0dc207fdd9614c38959e0a8f" target="_top" xlink:title=" ">
<polygon fill="white" stroke="red" points="175.5,-38.5 175.5,-57.5 207.5,-57.5 207.5,-38.5 175.5,-38.5"/>
<text text-anchor="middle" x="191.5" y="-45.5" font-family="Helvetica,sans-Serif" font-size="10.00">hgll</text>
</a>
</g>
</g>
<!-- Node7&#45;&gt;Node8 -->
<g id="edge7" class="edge">
<title>Node7&#45;&gt;Node8</title>
<path fill="none" stroke="midnightblue" d="M131.74,-48C141.67,-48 154.22,-48 165.17,-48"/>
<polygon fill="midnightblue" stroke="midnightblue" points="165.43,-51.5 175.43,-48 165.43,-44.5 165.43,-51.5"/>
</g>
<!-- Node12 -->
<g id="node10" class="node">
<title>Node12</title>
<g id="a_node10"><a xlink:href="speclib_8f.html#a0a1a17375323b7ab32d6ebe1c52ab1c3" target="_top" xlink:title=" ">
<polygon fill="white" stroke="red" points="172,-0.5 172,-19.5 211,-19.5 211,-0.5 172,-0.5"/>
<text text-anchor="middle" x="191.5" y="-7.5" font-family="Helvetica,sans-Serif" font-size="10.00">zwglj</text>
</a>
</g>
</g>
<!-- Node11&#45;&gt;Node12 -->
<g id="edge9" class="edge">
<title>Node11&#45;&gt;Node12</title>
<path fill="none" stroke="midnightblue" d="M132.52,-10C141.29,-10 151.96,-10 161.75,-10"/>
<polygon fill="midnightblue" stroke="midnightblue" points="161.89,-13.5 171.89,-10 161.89,-6.5 161.89,-13.5"/>
</g>
<!-- Node12&#45;&gt;Node4 -->
<g id="edge10" class="edge">
<title>Node12&#45;&gt;Node4</title>
<path fill="none" stroke="midnightblue" d="M210.42,-19.59C218.71,-24.03 228.72,-29.38 237.79,-34.24"/>
<polygon fill="midnightblue" stroke="midnightblue" points="236.34,-37.43 246.81,-39.07 239.64,-31.26 236.34,-37.43"/>
</g>
</g>
</svg>
