<?xml version="1.0" encoding="UTF-8" standalone="no"?>
<!DOCTYPE svg PUBLIC "-//W3C//DTD SVG 1.1//EN"
 "http://www.w3.org/Graphics/SVG/1.1/DTD/svg11.dtd">
<!-- Generated by graphviz version 2.46.0 (0)
 -->
<!-- Title: map13_all Pages: 1 -->
<svg width="478pt" height="275pt"
 viewBox="0.00 0.00 478.00 274.83" xmlns="http://www.w3.org/2000/svg" xmlns:xlink="http://www.w3.org/1999/xlink">
<g id="graph0" class="graph" transform="scale(1 1) rotate(0) translate(4 270.83)">
<title>map13_all</title>
<polygon fill="white" stroke="transparent" points="-4,4 -4,-270.83 474,-270.83 474,4 -4,4"/>
<!-- Node1 -->
<g id="node1" class="node">
<title>Node1</title>
<g id="a_node1"><a xlink:title=" ">
<polygon fill="#bfbfbf" stroke="black" points="409,-114.33 409,-133.33 470,-133.33 470,-114.33 409,-114.33"/>
<text text-anchor="middle" x="439.5" y="-121.33" font-family="Helvetica,sans-Serif" font-size="10.00">map13_all</text>
</a>
</g>
</g>
<!-- Node2 -->
<g id="node2" class="node">
<title>Node2</title>
<g id="a_node2"><a xlink:href="ic_8f.html#aaf47b255d1cfac3451a8473ee6876b4f" target="_top" xlink:title=" ">
<polygon fill="white" stroke="black" points="305,-114.33 305,-133.33 373,-133.33 373,-114.33 305,-114.33"/>
<text text-anchor="middle" x="339" y="-121.33" font-family="Helvetica,sans-Serif" font-size="10.00">geom_reset</text>
</a>
</g>
</g>
<!-- Node1&#45;&gt;Node2 -->
<g id="edge1" class="edge">
<title>Node1&#45;&gt;Node2</title>
<path fill="none" stroke="midnightblue" d="M398.88,-123.83C390.41,-123.83 381.54,-123.83 373.33,-123.83"/>
<polygon fill="midnightblue" stroke="midnightblue" points="398.95,-127.33 408.95,-123.83 398.95,-120.33 398.95,-127.33"/>
</g>
<!-- Node3 -->
<g id="node3" class="node">
<title>Node3</title>
<g id="a_node3"><a xlink:href="conduct_8f.html#a3b764ba6cf35187ac351c3072456c805" target="_top" xlink:title=" ">
<polygon fill="white" stroke="black" points="96.5,-209.33 96.5,-228.33 152.5,-228.33 152.5,-209.33 96.5,-209.33"/>
<text text-anchor="middle" x="124.5" y="-216.33" font-family="Helvetica,sans-Serif" font-size="10.00">dg_setup</text>
</a>
</g>
</g>
<!-- Node2&#45;&gt;Node3 -->
<g id="edge2" class="edge">
<title>Node2&#45;&gt;Node3</title>
<path fill="none" stroke="midnightblue" d="M325.73,-141.87C313.42,-158.46 292.89,-182.31 269,-194.83 231.97,-214.24 182.85,-218.58 152.74,-219.23"/>
<polygon fill="midnightblue" stroke="midnightblue" points="328.73,-143.7 331.7,-133.53 323.04,-139.63 328.73,-143.7"/>
</g>
<!-- Node4 -->
<g id="node4" class="node">
<title>Node4</title>
<g id="a_node4"><a xlink:href="drive1_8f.html#a83f7c6d78ac4e68394f32533e847d0a3" target="_top" xlink:title=" ">
<polygon fill="white" stroke="red" points="0,-171.33 0,-190.33 50,-190.33 50,-171.33 0,-171.33"/>
<text text-anchor="middle" x="25" y="-178.33" font-family="Helvetica,sans-Serif" font-size="10.00">nek_init</text>
</a>
</g>
</g>
<!-- Node2&#45;&gt;Node4 -->
<g id="edge10" class="edge">
<title>Node2&#45;&gt;Node4</title>
<path fill="none" stroke="midnightblue" d="M303.48,-136.7C292.57,-140.4 280.39,-144.15 269,-146.83 190.01,-165.42 94.02,-175.17 50.07,-178.95"/>
<polygon fill="midnightblue" stroke="midnightblue" points="304.79,-139.95 313.08,-133.35 302.49,-133.34 304.79,-139.95"/>
</g>
<!-- Node6 -->
<g id="node5" class="node">
<title>Node6</title>
<g id="a_node5"><a xlink:href="navier5_8f.html#ac7bf11bb142c7d01c82cc8b64e88bff2" target="_top" xlink:title=" ">
<polygon fill="white" stroke="black" points="206,-95.33 206,-114.33 262,-114.33 262,-95.33 206,-95.33"/>
<text text-anchor="middle" x="234" y="-102.33" font-family="Helvetica,sans-Serif" font-size="10.00">fix_geom</text>
</a>
</g>
</g>
<!-- Node2&#45;&gt;Node6 -->
<g id="edge4" class="edge">
<title>Node2&#45;&gt;Node6</title>
<path fill="none" stroke="midnightblue" d="M294.9,-115.88C283.84,-113.84 272.25,-111.7 262.24,-109.86"/>
<polygon fill="midnightblue" stroke="midnightblue" points="294.37,-119.34 304.84,-117.72 295.64,-112.46 294.37,-119.34"/>
</g>
<!-- Node7 -->
<g id="node6" class="node">
<title>Node7</title>
<g id="a_node6"><a xlink:href="multimesh_8f.html#ae456181cee68ca24e24244df7c9db9c6" target="_top" xlink:title=" ">
<polygon fill="white" stroke="red" points="86,-57.33 86,-76.33 163,-76.33 163,-57.33 86,-57.33"/>
<text text-anchor="middle" x="124.5" y="-64.33" font-family="Helvetica,sans-Serif" font-size="10.00">neknek_setup</text>
</a>
</g>
</g>
<!-- Node2&#45;&gt;Node7 -->
<g id="edge11" class="edge">
<title>Node2&#45;&gt;Node7</title>
<path fill="none" stroke="midnightblue" d="M332.74,-104.35C324.31,-77.49 304.96,-30.1 269,-9.83 241.9,5.44 228.43,0.24 199,-9.83 171.5,-19.25 146.33,-43.6 133.82,-57.23"/>
<polygon fill="midnightblue" stroke="midnightblue" points="329.44,-105.55 335.61,-114.16 336.16,-103.58 329.44,-105.55"/>
</g>
<!-- Node11 -->
<g id="node7" class="node">
<title>Node11</title>
<g id="a_node7"><a xlink:href="meshsmoother_8f.html#a381ecddf77fc5669d3a8e246b65d1960" target="_top" xlink:title=" ">
<polygon fill="white" stroke="red" points="88,-133.33 88,-152.33 161,-152.33 161,-133.33 88,-133.33"/>
<text text-anchor="middle" x="124.5" y="-140.33" font-family="Helvetica,sans-Serif" font-size="10.00">smoothmesh</text>
</a>
</g>
</g>
<!-- Node2&#45;&gt;Node11 -->
<g id="edge15" class="edge">
<title>Node2&#45;&gt;Node11</title>
<path fill="none" stroke="midnightblue" d="M294.72,-127.7C255.4,-131.22 198.1,-136.34 161.31,-139.63"/>
<polygon fill="midnightblue" stroke="midnightblue" points="295.15,-131.18 304.8,-126.8 294.52,-124.21 295.15,-131.18"/>
</g>
<!-- Node13 -->
<g id="node8" class="node">
<title>Node13</title>
<g id="a_node8"><a xlink:href="hsmg_8f.html#a6dff08ef961a6a5565642ab92a12b1e8" target="_top" xlink:title=" ">
<polygon fill="white" stroke="red" points="199,-57.33 199,-76.33 269,-76.33 269,-57.33 199,-57.33"/>
<text text-anchor="middle" x="234" y="-64.33" font-family="Helvetica,sans-Serif" font-size="10.00">h1mg_setup</text>
</a>
</g>
</g>
<!-- Node2&#45;&gt;Node13 -->
<g id="edge9" class="edge">
<title>Node2&#45;&gt;Node13</title>
<path fill="none" stroke="midnightblue" d="M311.63,-109.24C292.95,-98.9 268.43,-85.33 252.21,-76.36"/>
<polygon fill="midnightblue" stroke="midnightblue" points="310.08,-112.38 320.53,-114.16 313.47,-106.26 310.08,-112.38"/>
</g>
<!-- Node16 -->
<g id="node9" class="node">
<title>Node16</title>
<g id="a_node9"><a xlink:href="plan5_8f.html#ae6f47947bd1a89d608ae3b90ac8f433d" target="_top" xlink:title=" ">
<polygon fill="white" stroke="red" points="214,-19.33 214,-38.33 254,-38.33 254,-19.33 214,-19.33"/>
<text text-anchor="middle" x="234" y="-26.33" font-family="Helvetica,sans-Serif" font-size="10.00">plan5</text>
</a>
</g>
</g>
<!-- Node2&#45;&gt;Node16 -->
<g id="edge12" class="edge">
<title>Node2&#45;&gt;Node16</title>
<path fill="none" stroke="midnightblue" d="M324.41,-105.78C311.42,-89.33 290.66,-65.05 269,-47.83 264.45,-44.21 259.12,-40.88 254.04,-38.05"/>
<polygon fill="midnightblue" stroke="midnightblue" points="321.9,-108.25 330.79,-114.02 327.44,-103.97 321.9,-108.25"/>
</g>
<!-- Node22 -->
<g id="node10" class="node">
<title>Node22</title>
<g id="a_node10"><a xlink:href="ic_8f.html#acaefa33e86633e4a7a4b28347d4620d1" target="_top" xlink:title=" ">
<polygon fill="white" stroke="red" points="103,-247.33 103,-266.33 146,-266.33 146,-247.33 103,-247.33"/>
<text text-anchor="middle" x="124.5" y="-254.33" font-family="Helvetica,sans-Serif" font-size="10.00">setics</text>
</a>
</g>
</g>
<!-- Node2&#45;&gt;Node22 -->
<g id="edge13" class="edge">
<title>Node2&#45;&gt;Node22</title>
<path fill="none" stroke="midnightblue" d="M329.23,-142.8C318.22,-164.47 297.31,-199.44 269,-218.83 230.95,-244.91 175.95,-253.1 146.31,-255.66"/>
<polygon fill="midnightblue" stroke="midnightblue" points="332.47,-144.14 333.7,-133.62 326.17,-141.07 332.47,-144.14"/>
</g>
<!-- Node3&#45;&gt;Node4 -->
<g id="edge3" class="edge">
<title>Node3&#45;&gt;Node4</title>
<path fill="none" stroke="midnightblue" d="M89.39,-205.54C76.49,-200.51 62.08,-194.89 50.26,-190.29"/>
<polygon fill="midnightblue" stroke="midnightblue" points="88.31,-208.87 98.9,-209.24 90.85,-202.35 88.31,-208.87"/>
</g>
<!-- Node6&#45;&gt;Node4 -->
<g id="edge5" class="edge">
<title>Node6&#45;&gt;Node4</title>
<path fill="none" stroke="midnightblue" d="M195.53,-103.38C164.7,-103.63 120.61,-107.36 86,-123.83 62.91,-134.82 42.92,-158.09 32.88,-171.24"/>
<polygon fill="midnightblue" stroke="midnightblue" points="195.83,-106.88 205.85,-103.42 195.86,-99.88 195.83,-106.88"/>
</g>
<!-- Node6&#45;&gt;Node7 -->
<g id="edge6" class="edge">
<title>Node6&#45;&gt;Node7</title>
<path fill="none" stroke="midnightblue" d="M196.3,-91.86C181.98,-86.8 165.86,-81.1 152.62,-76.42"/>
<polygon fill="midnightblue" stroke="midnightblue" points="195.28,-95.21 205.87,-95.24 197.61,-88.61 195.28,-95.21"/>
</g>
<!-- Node6&#45;&gt;Node11 -->
<g id="edge8" class="edge">
<title>Node6&#45;&gt;Node11</title>
<path fill="none" stroke="midnightblue" d="M196.3,-117.8C181.98,-122.87 165.86,-128.57 152.62,-133.25"/>
<polygon fill="midnightblue" stroke="midnightblue" points="197.61,-121.05 205.87,-114.42 195.28,-114.45 197.61,-121.05"/>
</g>
<!-- Node7&#45;&gt;Node4 -->
<g id="edge7" class="edge">
<title>Node7&#45;&gt;Node4</title>
<path fill="none" stroke="midnightblue" d="M96.83,-81.92C93,-84.64 89.25,-87.64 86,-90.83 60.4,-115.96 39.6,-153.69 30.69,-171.23"/>
<polygon fill="midnightblue" stroke="midnightblue" points="98.77,-84.84 105.22,-76.44 94.94,-78.98 98.77,-84.84"/>
</g>
<!-- Node22&#45;&gt;Node4 -->
<g id="edge14" class="edge">
<title>Node22&#45;&gt;Node4</title>
<path fill="none" stroke="midnightblue" d="M93.62,-242.71C90.98,-241.16 88.4,-239.53 86,-237.83 65.81,-223.59 45.66,-202.75 34.62,-190.61"/>
<polygon fill="midnightblue" stroke="midnightblue" points="92.18,-245.91 102.64,-247.61 95.52,-239.76 92.18,-245.91"/>
</g>
</g>
</svg>
