<?xml version="1.0" encoding="UTF-8" standalone="no"?>
<!DOCTYPE svg PUBLIC "-//W3C//DTD SVG 1.1//EN"
 "http://www.w3.org/Graphics/SVG/1.1/DTD/svg11.dtd">
<!-- Generated by graphviz version 2.46.0 (0)
 -->
<!-- Title: makextb Pages: 1 -->
<svg width="146pt" height="104pt"
 viewBox="0.00 0.00 146.00 104.00" xmlns="http://www.w3.org/2000/svg" xmlns:xlink="http://www.w3.org/1999/xlink">
<g id="graph0" class="graph" transform="scale(1 1) rotate(0) translate(4 100)">
<title>makextb</title>
<polygon fill="white" stroke="transparent" points="-4,4 -4,-100 142,-100 142,4 -4,4"/>
<!-- Node1 -->
<g id="node1" class="node">
<title>Node1</title>
<g id="a_node1"><a xlink:title=" ">
<polygon fill="#bfbfbf" stroke="black" points="0,-38.5 0,-57.5 54,-57.5 54,-38.5 0,-38.5"/>
<text text-anchor="middle" x="27" y="-45.5" font-family="Helvetica,sans-Serif" font-size="10.00">makextb</text>
</a>
</g>
</g>
<!-- Node2 -->
<g id="node2" class="node">
<title>Node2</title>
<g id="a_node2"><a xlink:href="math_8f.html#aeeb6d3ca3e70266452bcf92e16cb317d" target="_top" xlink:title=" ">
<polygon fill="white" stroke="black" points="90,-76.5 90,-95.5 138,-95.5 138,-76.5 90,-76.5"/>
<text text-anchor="middle" x="114" y="-83.5" font-family="Helvetica,sans-Serif" font-size="10.00">add2s1</text>
</a>
</g>
</g>
<!-- Node1&#45;&gt;Node2 -->
<g id="edge1" class="edge">
<title>Node1&#45;&gt;Node2</title>
<path fill="none" stroke="midnightblue" d="M49.45,-57.59C59.42,-62.04 71.45,-67.42 82.35,-72.3"/>
<polygon fill="midnightblue" stroke="midnightblue" points="81,-75.53 91.56,-76.41 83.86,-69.14 81,-75.53"/>
</g>
<!-- Node3 -->
<g id="node3" class="node">
<title>Node3</title>
<g id="a_node3"><a xlink:href="math_8f.html#ac62ce88420771d0183fa4e9182f250dc" target="_top" xlink:title=" ">
<polygon fill="white" stroke="black" points="90,-38.5 90,-57.5 138,-57.5 138,-38.5 90,-38.5"/>
<text text-anchor="middle" x="114" y="-45.5" font-family="Helvetica,sans-Serif" font-size="10.00">add3s2</text>
</a>
</g>
</g>
<!-- Node1&#45;&gt;Node3 -->
<g id="edge2" class="edge">
<title>Node1&#45;&gt;Node3</title>
<path fill="none" stroke="midnightblue" d="M54.43,-48C62.38,-48 71.21,-48 79.55,-48"/>
<polygon fill="midnightblue" stroke="midnightblue" points="79.75,-51.5 89.75,-48 79.75,-44.5 79.75,-51.5"/>
</g>
<!-- Node4 -->
<g id="node4" class="node">
<title>Node4</title>
<g id="a_node4"><a xlink:href="math_8f.html#a3b43508554f14bdea8e14473d7d0803c" target="_top" xlink:title=" ">
<polygon fill="white" stroke="black" points="95,-0.5 95,-19.5 133,-19.5 133,-0.5 95,-0.5"/>
<text text-anchor="middle" x="114" y="-7.5" font-family="Helvetica,sans-Serif" font-size="10.00">copy</text>
</a>
</g>
</g>
<!-- Node1&#45;&gt;Node4 -->
<g id="edge3" class="edge">
<title>Node1&#45;&gt;Node4</title>
<path fill="none" stroke="midnightblue" d="M49.45,-38.41C60.36,-33.53 73.75,-27.55 85.42,-22.33"/>
<polygon fill="midnightblue" stroke="midnightblue" points="87.03,-25.45 94.73,-18.17 84.17,-19.06 87.03,-25.45"/>
</g>
</g>
</svg>
