<?xml version="1.0" encoding="UTF-8" standalone="no"?>
<!DOCTYPE svg PUBLIC "-//W3C//DTD SVG 1.1//EN"
 "http://www.w3.org/Graphics/SVG/1.1/DTD/svg11.dtd">
<!-- Generated by graphviz version 2.46.0 (0)
 -->
<!-- Title: lorentz_force Pages: 1 -->
<svg width="425pt" height="156pt"
 viewBox="0.00 0.00 425.00 156.48" xmlns="http://www.w3.org/2000/svg" xmlns:xlink="http://www.w3.org/1999/xlink">
<g id="graph0" class="graph" transform="scale(1 1) rotate(0) translate(4 152.48)">
<title>lorentz_force</title>
<polygon fill="white" stroke="transparent" points="-4,4 -4,-152.48 421,-152.48 421,4 -4,4"/>
<!-- Node1 -->
<g id="node1" class="node">
<title>Node1</title>
<g id="a_node1"><a xlink:title=" ">
<polygon fill="#bfbfbf" stroke="black" points="0,-57.5 0,-76.5 73,-76.5 73,-57.5 0,-57.5"/>
<text text-anchor="middle" x="36.5" y="-64.5" font-family="Helvetica,sans-Serif" font-size="10.00">lorentz_force</text>
</a>
</g>
</g>
<!-- Node2 -->
<g id="node2" class="node">
<title>Node2</title>
<g id="a_node2"><a xlink:href="induct_8f.html#ae4aad436730b0ff07bdad407671e6fae" target="_top" xlink:title=" ">
<polygon fill="white" stroke="black" points="109,-57.5 109,-76.5 141,-76.5 141,-57.5 109,-57.5"/>
<text text-anchor="middle" x="125" y="-64.5" font-family="Helvetica,sans-Serif" font-size="10.00">curl</text>
</a>
</g>
</g>
<!-- Node1&#45;&gt;Node2 -->
<g id="edge1" class="edge">
<title>Node1&#45;&gt;Node2</title>
<path fill="none" stroke="midnightblue" d="M73.18,-67C81.76,-67 90.74,-67 98.73,-67"/>
<polygon fill="midnightblue" stroke="midnightblue" points="98.87,-70.5 108.87,-67 98.87,-63.5 98.87,-70.5"/>
</g>
<!-- Node3 -->
<g id="node3" class="node">
<title>Node3</title>
<g id="a_node3"><a xlink:href="math_8f.html#a3470db04166d9ba91454a14cc17dbec2" target="_top" xlink:title=" ">
<polygon fill="white" stroke="black" points="273,-76.5 273,-95.5 308,-95.5 308,-76.5 273,-76.5"/>
<text text-anchor="middle" x="290.5" y="-83.5" font-family="Helvetica,sans-Serif" font-size="10.00">col2</text>
</a>
</g>
</g>
<!-- Node2&#45;&gt;Node3 -->
<g id="edge2" class="edge">
<title>Node2&#45;&gt;Node3</title>
<path fill="none" stroke="midnightblue" d="M141.09,-68.75C168.77,-71.97 227.99,-78.85 262.67,-82.88"/>
<polygon fill="midnightblue" stroke="midnightblue" points="262.66,-86.4 273,-84.08 263.47,-79.45 262.66,-86.4"/>
</g>
<!-- Node6 -->
<g id="node5" class="node">
<title>Node6</title>
<g id="a_node5"><a xlink:href="dssum_8f.html#ad67373714b1c3bafed536081167e2cd6" target="_top" xlink:title=" ">
<polygon fill="white" stroke="black" points="178,-114.5 178,-133.5 224,-133.5 224,-114.5 178,-114.5"/>
<text text-anchor="middle" x="201" y="-121.5" font-family="Helvetica,sans-Serif" font-size="10.00">dssum</text>
</a>
</g>
</g>
<!-- Node2&#45;&gt;Node6 -->
<g id="edge4" class="edge">
<title>Node2&#45;&gt;Node6</title>
<path fill="none" stroke="midnightblue" d="M138.55,-76.67C149.78,-85.32 166.45,-98.16 179.6,-108.28"/>
<polygon fill="midnightblue" stroke="midnightblue" points="177.57,-111.14 187.63,-114.47 181.85,-105.6 177.57,-111.14"/>
</g>
<!-- Node9 -->
<g id="node7" class="node">
<title>Node9</title>
<g id="a_node7"><a xlink:href="navier1_8f.html#aee3ef7096c2b505346f996daf6cf6cd3" target="_top" xlink:title=" ">
<polygon fill="white" stroke="black" points="177,-38.5 177,-57.5 225,-57.5 225,-38.5 177,-38.5"/>
<text text-anchor="middle" x="201" y="-45.5" font-family="Helvetica,sans-Serif" font-size="10.00">dudxyz</text>
</a>
</g>
</g>
<!-- Node2&#45;&gt;Node9 -->
<g id="edge7" class="edge">
<title>Node2&#45;&gt;Node9</title>
<path fill="none" stroke="midnightblue" d="M141.33,-63.06C148.78,-61.15 158.03,-58.78 166.96,-56.48"/>
<polygon fill="midnightblue" stroke="midnightblue" points="167.99,-59.83 176.81,-53.95 166.25,-53.05 167.99,-59.83"/>
</g>
<!-- Node13 -->
<g id="node10" class="node">
<title>Node13</title>
<g id="a_node10"><a xlink:href="math_8f.html#acc66fa3dd9d846331bd95c9c8abe93ae" target="_top" xlink:title=" ">
<polygon fill="white" stroke="black" points="182,-0.5 182,-19.5 220,-19.5 220,-0.5 182,-0.5"/>
<text text-anchor="middle" x="201" y="-7.5" font-family="Helvetica,sans-Serif" font-size="10.00">sub3</text>
</a>
</g>
</g>
<!-- Node2&#45;&gt;Node13 -->
<g id="edge12" class="edge">
<title>Node2&#45;&gt;Node13</title>
<path fill="none" stroke="midnightblue" d="M138.55,-57.33C149.78,-48.68 166.45,-35.84 179.6,-25.72"/>
<polygon fill="midnightblue" stroke="midnightblue" points="181.85,-28.4 187.63,-19.53 177.57,-22.86 181.85,-28.4"/>
</g>
<!-- Node4 -->
<g id="node4" class="node">
<title>Node4</title>
<g id="a_node4"><a xlink:href="comm__mpi_8f.html#af06ec29f06aac3f8809e19de2a7e8946" target="_top" xlink:title=" ">
<polygon fill="white" stroke="red" points="356,-76.5 356,-95.5 417,-95.5 417,-76.5 356,-76.5"/>
<text text-anchor="middle" x="386.5" y="-83.5" font-family="Helvetica,sans-Serif" font-size="10.00">dnekclock</text>
</a>
</g>
</g>
<!-- Node3&#45;&gt;Node4 -->
<g id="edge3" class="edge">
<title>Node3&#45;&gt;Node4</title>
<path fill="none" stroke="midnightblue" d="M308.31,-86C318.72,-86 332.57,-86 345.66,-86"/>
<polygon fill="midnightblue" stroke="midnightblue" points="345.92,-89.5 355.92,-86 345.92,-82.5 345.92,-89.5"/>
</g>
<!-- Node6&#45;&gt;Node4 -->
<g id="edge5" class="edge">
<title>Node6&#45;&gt;Node4</title>
<path fill="none" stroke="midnightblue" d="M222.67,-133.52C246.74,-143.22 287.35,-155.22 320,-143 341.05,-135.13 359.79,-117.1 371.78,-103.41"/>
<polygon fill="midnightblue" stroke="midnightblue" points="374.6,-105.49 378.33,-95.57 369.23,-101 374.6,-105.49"/>
</g>
<!-- Node7 -->
<g id="node6" class="node">
<title>Node7</title>
<g id="a_node6"><a xlink:href="comm__mpi_8f.html#a4acb4d8e379294232e9219bec063d8f3" target="_top" xlink:title=" ">
<polygon fill="white" stroke="red" points="261,-114.5 261,-133.5 320,-133.5 320,-114.5 261,-114.5"/>
<text text-anchor="middle" x="290.5" y="-121.5" font-family="Helvetica,sans-Serif" font-size="10.00">nekgsync</text>
</a>
</g>
</g>
<!-- Node6&#45;&gt;Node7 -->
<g id="edge6" class="edge">
<title>Node6&#45;&gt;Node7</title>
<path fill="none" stroke="midnightblue" d="M224.08,-124C232.17,-124 241.59,-124 250.71,-124"/>
<polygon fill="midnightblue" stroke="midnightblue" points="250.8,-127.5 260.8,-124 250.8,-120.5 250.8,-127.5"/>
</g>
<!-- Node9&#45;&gt;Node3 -->
<g id="edge10" class="edge">
<title>Node9&#45;&gt;Node3</title>
<path fill="none" stroke="midnightblue" d="M224.08,-57.59C236.06,-62.79 250.95,-69.26 263.49,-74.71"/>
<polygon fill="midnightblue" stroke="midnightblue" points="262.39,-78.04 272.95,-78.81 265.17,-71.62 262.39,-78.04"/>
</g>
<!-- Node10 -->
<g id="node8" class="node">
<title>Node10</title>
<g id="a_node8"><a xlink:href="math_8f.html#a1f336314da3012286837ede20a0495c6" target="_top" xlink:title=" ">
<polygon fill="white" stroke="black" points="265.5,-0.5 265.5,-19.5 315.5,-19.5 315.5,-0.5 265.5,-0.5"/>
<text text-anchor="middle" x="290.5" y="-7.5" font-family="Helvetica,sans-Serif" font-size="10.00">addcol3</text>
</a>
</g>
</g>
<!-- Node9&#45;&gt;Node10 -->
<g id="edge8" class="edge">
<title>Node9&#45;&gt;Node10</title>
<path fill="none" stroke="midnightblue" d="M224.08,-38.41C234.34,-33.96 246.73,-28.58 257.95,-23.7"/>
<polygon fill="midnightblue" stroke="midnightblue" points="259.65,-26.78 267.43,-19.59 256.86,-20.36 259.65,-26.78"/>
</g>
<!-- Node11 -->
<g id="node9" class="node">
<title>Node11</title>
<g id="a_node9"><a xlink:href="subs1_8f.html#a8a9da5a10943bfb2176353bd597f87ce" target="_top" xlink:title=" ">
<polygon fill="white" stroke="red" points="265,-38.5 265,-57.5 316,-57.5 316,-38.5 265,-38.5"/>
<text text-anchor="middle" x="290.5" y="-45.5" font-family="Helvetica,sans-Serif" font-size="10.00">setaxdy</text>
</a>
</g>
</g>
<!-- Node9&#45;&gt;Node11 -->
<g id="edge11" class="edge">
<title>Node9&#45;&gt;Node11</title>
<path fill="none" stroke="midnightblue" d="M225.45,-48C234.37,-48 244.74,-48 254.5,-48"/>
<polygon fill="midnightblue" stroke="midnightblue" points="254.76,-51.5 264.76,-48 254.76,-44.5 254.76,-51.5"/>
</g>
<!-- Node10&#45;&gt;Node4 -->
<g id="edge9" class="edge">
<title>Node10&#45;&gt;Node4</title>
<path fill="none" stroke="midnightblue" d="M306.54,-19.51C310.96,-22.44 315.75,-25.75 320,-29 336.71,-41.76 354.65,-57.53 367.52,-69.25"/>
<polygon fill="midnightblue" stroke="midnightblue" points="365.46,-72.1 375.19,-76.29 370.19,-66.95 365.46,-72.1"/>
</g>
</g>
</svg>
