<?xml version="1.0" encoding="UTF-8" standalone="no"?>
<!DOCTYPE svg PUBLIC "-//W3C//DTD SVG 1.1//EN"
 "http://www.w3.org/Graphics/SVG/1.1/DTD/svg11.dtd">
<!-- Generated by graphviz version 2.46.0 (0)
 -->
<!-- Title: induct Pages: 1 -->
<svg width="362pt" height="237pt"
 viewBox="0.00 0.00 362.00 237.00" xmlns="http://www.w3.org/2000/svg" xmlns:xlink="http://www.w3.org/1999/xlink">
<g id="graph0" class="graph" transform="scale(1 1) rotate(0) translate(4 233)">
<title>induct</title>
<polygon fill="white" stroke="transparent" points="-4,4 -4,-233 358,-233 358,4 -4,4"/>
<!-- Node1 -->
<g id="node1" class="node">
<title>Node1</title>
<g id="a_node1"><a xlink:title=" ">
<polygon fill="#bfbfbf" stroke="black" points="0,-76.5 0,-95.5 43,-95.5 43,-76.5 0,-76.5"/>
<text text-anchor="middle" x="21.5" y="-83.5" font-family="Helvetica,sans-Serif" font-size="10.00">induct</text>
</a>
</g>
</g>
<!-- Node2 -->
<g id="node2" class="node">
<title>Node2</title>
<g id="a_node2"><a xlink:href="induct_8f.html#adef470718d07d8b4c7f6bf32b2a9ecb9" target="_top" xlink:title=" ">
<polygon fill="white" stroke="red" points="99,-152.5 99,-171.5 158,-171.5 158,-152.5 99,-152.5"/>
<text text-anchor="middle" x="128.5" y="-159.5" font-family="Helvetica,sans-Serif" font-size="10.00">elsasserh</text>
</a>
</g>
</g>
<!-- Node1&#45;&gt;Node2 -->
<g id="edge1" class="edge">
<title>Node1&#45;&gt;Node2</title>
<path fill="none" stroke="midnightblue" d="M29.94,-95.7C39.92,-108.14 58.74,-129.68 79,-143 82.31,-145.17 85.9,-147.16 89.58,-148.96"/>
<polygon fill="midnightblue" stroke="midnightblue" points="88.26,-152.2 98.82,-153.04 91.09,-145.8 88.26,-152.2"/>
</g>
<!-- Node458 -->
<g id="node7" class="node">
<title>Node458</title>
<g id="a_node7"><a xlink:href="induct_8f.html#a0eb8620f98f751cdd40938adc7670a46" target="_top" xlink:title=" ">
<polygon fill="white" stroke="red" points="102,-114.5 102,-133.5 155,-133.5 155,-114.5 102,-114.5"/>
<text text-anchor="middle" x="128.5" y="-121.5" font-family="Helvetica,sans-Serif" font-size="10.00">lagbfield</text>
</a>
</g>
</g>
<!-- Node1&#45;&gt;Node458 -->
<g id="edge8" class="edge">
<title>Node1&#45;&gt;Node458</title>
<path fill="none" stroke="midnightblue" d="M43.24,-93.51C57.2,-98.56 75.96,-105.35 92.23,-111.23"/>
<polygon fill="midnightblue" stroke="midnightblue" points="91.38,-114.65 101.97,-114.76 93.76,-108.07 91.38,-114.65"/>
</g>
<!-- Node459 -->
<g id="node8" class="node">
<title>Node459</title>
<g id="a_node8"><a xlink:href="navier1_8f.html#a83d718e9b1893670bcd6f299a7751366" target="_top" xlink:title=" ">
<polygon fill="white" stroke="red" points="107.5,-76.5 107.5,-95.5 149.5,-95.5 149.5,-76.5 107.5,-76.5"/>
<text text-anchor="middle" x="128.5" y="-83.5" font-family="Helvetica,sans-Serif" font-size="10.00">lagvel</text>
</a>
</g>
</g>
<!-- Node1&#45;&gt;Node459 -->
<g id="edge9" class="edge">
<title>Node1&#45;&gt;Node459</title>
<path fill="none" stroke="midnightblue" d="M43.24,-86C58.59,-86 79.73,-86 96.99,-86"/>
<polygon fill="midnightblue" stroke="midnightblue" points="97.16,-89.5 107.16,-86 97.16,-82.5 97.16,-89.5"/>
</g>
<!-- Node460 -->
<g id="node9" class="node">
<title>Node460</title>
<g id="a_node9"><a xlink:href="induct_8f.html#a0f0eb9c29e64571293f094020bee8033" target="_top" xlink:title=" ">
<polygon fill="white" stroke="red" points="79,-38.5 79,-57.5 178,-57.5 178,-38.5 79,-38.5"/>
<text text-anchor="middle" x="128.5" y="-45.5" font-family="Helvetica,sans-Serif" font-size="10.00">makebsource_mhd</text>
</a>
</g>
</g>
<!-- Node1&#45;&gt;Node460 -->
<g id="edge10" class="edge">
<title>Node1&#45;&gt;Node460</title>
<path fill="none" stroke="midnightblue" d="M43.24,-78.49C57,-73.51 75.42,-66.85 91.53,-61.02"/>
<polygon fill="midnightblue" stroke="midnightblue" points="92.99,-64.21 101.2,-57.52 90.61,-57.63 92.99,-64.21"/>
</g>
<!-- Node486 -->
<g id="node10" class="node">
<title>Node486</title>
<g id="a_node10"><a xlink:href="drive2_8f.html#ae46d95459d293cfb4656cbeb0e086f2a" target="_top" xlink:title=" ">
<polygon fill="white" stroke="red" points="102,-0.5 102,-19.5 155,-19.5 155,-0.5 102,-0.5"/>
<text text-anchor="middle" x="128.5" y="-7.5" font-family="Helvetica,sans-Serif" font-size="10.00">vol_flow</text>
</a>
</g>
</g>
<!-- Node1&#45;&gt;Node486 -->
<g id="edge11" class="edge">
<title>Node1&#45;&gt;Node486</title>
<path fill="none" stroke="midnightblue" d="M29.94,-76.3C39.92,-63.86 58.74,-42.32 79,-29 83.13,-26.29 87.7,-23.87 92.34,-21.74"/>
<polygon fill="midnightblue" stroke="midnightblue" points="93.96,-24.85 101.85,-17.77 91.27,-18.39 93.96,-24.85"/>
</g>
<!-- Node3 -->
<g id="node3" class="node">
<title>Node3</title>
<g id="a_node3"><a xlink:href="induct_8f.html#ad20db92578e3e1c33995173b73b254d0" target="_top" xlink:title=" ">
<polygon fill="white" stroke="red" points="218,-209.5 218,-228.5 266,-228.5 266,-209.5 218,-209.5"/>
<text text-anchor="middle" x="242" y="-216.5" font-family="Helvetica,sans-Serif" font-size="10.00">cresvib</text>
</a>
</g>
</g>
<!-- Node2&#45;&gt;Node3 -->
<g id="edge2" class="edge">
<title>Node2&#45;&gt;Node3</title>
<path fill="none" stroke="midnightblue" d="M148.16,-171.54C165.93,-180.62 192.9,-194.41 213.2,-204.79"/>
<polygon fill="midnightblue" stroke="midnightblue" points="211.78,-207.99 222.28,-209.43 214.97,-201.76 211.78,-207.99"/>
</g>
<!-- Node46 -->
<g id="node4" class="node">
<title>Node46</title>
<g id="a_node4"><a xlink:href="navier1_8f.html#ad1bbe02eb4b6eb1d16f7612e1947dac5" target="_top" xlink:title=" ">
<polygon fill="white" stroke="red" points="306,-171.5 306,-190.5 354,-190.5 354,-171.5 306,-171.5"/>
<text text-anchor="middle" x="330" y="-178.5" font-family="Helvetica,sans-Serif" font-size="10.00">opadd2</text>
</a>
</g>
</g>
<!-- Node2&#45;&gt;Node46 -->
<g id="edge7" class="edge">
<title>Node2&#45;&gt;Node46</title>
<path fill="none" stroke="midnightblue" d="M158.08,-164.72C194.42,-168.18 257.06,-174.15 295.57,-177.82"/>
<polygon fill="midnightblue" stroke="midnightblue" points="295.47,-181.32 305.75,-178.79 296.13,-174.35 295.47,-181.32"/>
</g>
<!-- Node88 -->
<g id="node5" class="node">
<title>Node88</title>
<g id="a_node5"><a xlink:href="induct_8f.html#abbae0312df5e89b7a6fe3f7f1dc8447b" target="_top" xlink:title=" ">
<polygon fill="white" stroke="red" points="215.5,-133.5 215.5,-152.5 268.5,-152.5 268.5,-133.5 215.5,-133.5"/>
<text text-anchor="middle" x="242" y="-140.5" font-family="Helvetica,sans-Serif" font-size="10.00">cresvibp</text>
</a>
</g>
</g>
<!-- Node2&#45;&gt;Node88 -->
<g id="edge4" class="edge">
<title>Node2&#45;&gt;Node88</title>
<path fill="none" stroke="midnightblue" d="M158.21,-157.11C172.58,-154.66 190.1,-151.67 205.32,-149.08"/>
<polygon fill="midnightblue" stroke="midnightblue" points="206.16,-152.49 215.43,-147.36 204.98,-145.59 206.16,-152.49"/>
</g>
<!-- Node105 -->
<g id="node6" class="node">
<title>Node105</title>
<g id="a_node6"><a xlink:href="induct_8f.html#aeb2c6d4ae2c98143118acce2419c034d" target="_top" xlink:title=" ">
<polygon fill="white" stroke="red" points="214,-95.5 214,-114.5 270,-114.5 270,-95.5 214,-95.5"/>
<text text-anchor="middle" x="242" y="-102.5" font-family="Helvetica,sans-Serif" font-size="10.00">incomprn</text>
</a>
</g>
</g>
<!-- Node2&#45;&gt;Node105 -->
<g id="edge6" class="edge">
<title>Node2&#45;&gt;Node105</title>
<path fill="none" stroke="midnightblue" d="M156.28,-152.44C163.44,-149.64 171.11,-146.4 178,-143 191.65,-136.27 206.24,-127.57 217.94,-120.2"/>
<polygon fill="midnightblue" stroke="midnightblue" points="220.1,-122.97 226.63,-114.63 216.32,-117.08 220.1,-122.97"/>
</g>
<!-- Node3&#45;&gt;Node46 -->
<g id="edge3" class="edge">
<title>Node3&#45;&gt;Node46</title>
<path fill="none" stroke="midnightblue" d="M264.7,-209.41C274.78,-204.96 286.96,-199.58 297.99,-194.7"/>
<polygon fill="midnightblue" stroke="midnightblue" points="299.57,-197.83 307.31,-190.59 296.74,-191.43 299.57,-197.83"/>
</g>
<!-- Node88&#45;&gt;Node46 -->
<g id="edge5" class="edge">
<title>Node88&#45;&gt;Node46</title>
<path fill="none" stroke="midnightblue" d="M264.7,-152.59C274.78,-157.04 286.96,-162.42 297.99,-167.3"/>
<polygon fill="midnightblue" stroke="midnightblue" points="296.74,-170.57 307.31,-171.41 299.57,-164.17 296.74,-170.57"/>
</g>
</g>
</svg>
