<?xml version="1.0" encoding="UTF-8" standalone="no"?>
<!DOCTYPE svg PUBLIC "-//W3C//DTD SVG 1.1//EN"
 "http://www.w3.org/Graphics/SVG/1.1/DTD/svg11.dtd">
<!-- Generated by graphviz version 2.46.0 (0)
 -->
<!-- Title: compute_cfl Pages: 1 -->
<svg width="687pt" height="104pt"
 viewBox="0.00 0.00 687.00 104.00" xmlns="http://www.w3.org/2000/svg" xmlns:xlink="http://www.w3.org/1999/xlink">
<g id="graph0" class="graph" transform="scale(1 1) rotate(0) translate(4 100)">
<title>compute_cfl</title>
<polygon fill="white" stroke="transparent" points="-4,4 -4,-100 683,-100 683,4 -4,4"/>
<!-- Node1 -->
<g id="node1" class="node">
<title>Node1</title>
<g id="a_node1"><a xlink:title=" ">
<polygon fill="#bfbfbf" stroke="black" points="609,-38.5 609,-57.5 679,-57.5 679,-38.5 609,-38.5"/>
<text text-anchor="middle" x="644" y="-45.5" font-family="Helvetica,sans-Serif" font-size="10.00">compute_cfl</text>
</a>
</g>
</g>
<!-- Node2 -->
<g id="node2" class="node">
<title>Node2</title>
<g id="a_node2"><a xlink:href="induct_8f.html#a75294e71da0c68adb56f3804f5dad60f" target="_top" xlink:title=" ">
<polygon fill="white" stroke="black" points="434,-76.5 434,-95.5 493,-95.5 493,-76.5 434,-76.5"/>
<text text-anchor="middle" x="463.5" y="-83.5" font-family="Helvetica,sans-Serif" font-size="10.00">cfl_check</text>
</a>
</g>
</g>
<!-- Node1&#45;&gt;Node2 -->
<g id="edge1" class="edge">
<title>Node1&#45;&gt;Node2</title>
<path fill="none" stroke="midnightblue" d="M598.74,-57.42C565.77,-64.44 521.71,-73.82 493.22,-79.89"/>
<polygon fill="midnightblue" stroke="midnightblue" points="599.53,-60.83 608.58,-55.33 598.07,-53.99 599.53,-60.83"/>
</g>
<!-- Node7 -->
<g id="node6" class="node">
<title>Node7</title>
<g id="a_node6"><a xlink:href="subs1_8f.html#a156860172f4c95a65ff7fb5b447d472e" target="_top" xlink:title=" ">
<polygon fill="white" stroke="black" points="444.5,-38.5 444.5,-57.5 482.5,-57.5 482.5,-38.5 444.5,-38.5"/>
<text text-anchor="middle" x="463.5" y="-45.5" font-family="Helvetica,sans-Serif" font-size="10.00">setdt</text>
</a>
</g>
</g>
<!-- Node1&#45;&gt;Node7 -->
<g id="edge5" class="edge">
<title>Node1&#45;&gt;Node7</title>
<path fill="none" stroke="midnightblue" d="M598.48,-48C561.25,-48 510,-48 482.95,-48"/>
<polygon fill="midnightblue" stroke="midnightblue" points="598.58,-51.5 608.58,-48 598.58,-44.5 598.58,-51.5"/>
</g>
<!-- Node12 -->
<g id="node10" class="node">
<title>Node12</title>
<g id="a_node10"><a xlink:href="subs1_8f.html#ae35573fd308e18ae23972c1b804f5b2d" target="_top" xlink:title=" ">
<polygon fill="white" stroke="black" points="529,-0.5 529,-19.5 573,-19.5 573,-0.5 529,-0.5"/>
<text text-anchor="middle" x="551" y="-7.5" font-family="Helvetica,sans-Serif" font-size="10.00">setdtc</text>
</a>
</g>
</g>
<!-- Node1&#45;&gt;Node12 -->
<g id="edge10" class="edge">
<title>Node1&#45;&gt;Node12</title>
<path fill="none" stroke="midnightblue" d="M610.45,-34.41C598.01,-29.21 584.17,-23.44 573.08,-18.8"/>
<polygon fill="midnightblue" stroke="midnightblue" points="609.46,-37.79 620.04,-38.41 612.16,-31.33 609.46,-37.79"/>
</g>
<!-- Node3 -->
<g id="node3" class="node">
<title>Node3</title>
<g id="a_node3"><a xlink:href="drive1_8f.html#ae177ea7efac97f35241521b782a671c0" target="_top" xlink:title=" ">
<polygon fill="white" stroke="black" points="239,-76.5 239,-95.5 313,-95.5 313,-76.5 239,-76.5"/>
<text text-anchor="middle" x="276" y="-83.5" font-family="Helvetica,sans-Serif" font-size="10.00">nek_advance</text>
</a>
</g>
</g>
<!-- Node2&#45;&gt;Node3 -->
<g id="edge2" class="edge">
<title>Node2&#45;&gt;Node3</title>
<path fill="none" stroke="midnightblue" d="M423.87,-86C391.33,-86 345.12,-86 313.26,-86"/>
<polygon fill="midnightblue" stroke="midnightblue" points="423.92,-89.5 433.92,-86 423.92,-82.5 423.92,-89.5"/>
</g>
<!-- Node4 -->
<g id="node4" class="node">
<title>Node4</title>
<g id="a_node4"><a xlink:href="drive1_8f.html#a18d3e839786263fc4cf91f7eeb714371" target="_top" xlink:title=" ">
<polygon fill="white" stroke="black" points="97,-76.5 97,-95.5 203,-95.5 203,-76.5 97,-76.5"/>
<text text-anchor="middle" x="150" y="-83.5" font-family="Helvetica,sans-Serif" font-size="10.00">nek__multi_advance</text>
</a>
</g>
</g>
<!-- Node3&#45;&gt;Node4 -->
<g id="edge3" class="edge">
<title>Node3&#45;&gt;Node4</title>
<path fill="none" stroke="midnightblue" d="M228.56,-86C220.27,-86 211.58,-86 203.14,-86"/>
<polygon fill="midnightblue" stroke="midnightblue" points="228.8,-89.5 238.8,-86 228.8,-82.5 228.8,-89.5"/>
</g>
<!-- Node5 -->
<g id="node5" class="node">
<title>Node5</title>
<g id="a_node5"><a xlink:href="drive1_8f.html#a6ad57e0cf728f343e371ef8c9a02cd8a" target="_top" xlink:title=" ">
<polygon fill="white" stroke="red" points="0,-76.5 0,-95.5 61,-95.5 61,-76.5 0,-76.5"/>
<text text-anchor="middle" x="30.5" y="-83.5" font-family="Helvetica,sans-Serif" font-size="10.00">nek_solve</text>
</a>
</g>
</g>
<!-- Node4&#45;&gt;Node5 -->
<g id="edge4" class="edge">
<title>Node4&#45;&gt;Node5</title>
<path fill="none" stroke="midnightblue" d="M86.68,-86C77.74,-86 68.91,-86 61.02,-86"/>
<polygon fill="midnightblue" stroke="midnightblue" points="86.78,-89.5 96.78,-86 86.78,-82.5 86.78,-89.5"/>
</g>
<!-- Node8 -->
<g id="node7" class="node">
<title>Node8</title>
<g id="a_node7"><a xlink:href="drive2_8f.html#a6f905c80a0a2b0d5ed7f0449eda3e127" target="_top" xlink:title=" ">
<polygon fill="white" stroke="black" points="349,-38.5 349,-57.5 398,-57.5 398,-38.5 349,-38.5"/>
<text text-anchor="middle" x="373.5" y="-45.5" font-family="Helvetica,sans-Serif" font-size="10.00">settime</text>
</a>
</g>
</g>
<!-- Node7&#45;&gt;Node8 -->
<g id="edge6" class="edge">
<title>Node7&#45;&gt;Node8</title>
<path fill="none" stroke="midnightblue" d="M434.15,-48C422.5,-48 409.17,-48 398.07,-48"/>
<polygon fill="midnightblue" stroke="midnightblue" points="434.27,-51.5 444.27,-48 434.27,-44.5 434.27,-51.5"/>
</g>
<!-- Node8&#45;&gt;Node3 -->
<g id="edge9" class="edge">
<title>Node8&#45;&gt;Node3</title>
<path fill="none" stroke="midnightblue" d="M339.57,-61.1C326.9,-66.15 312.68,-71.8 301,-76.45"/>
<polygon fill="midnightblue" stroke="midnightblue" points="340.9,-64.34 348.89,-57.39 338.31,-57.84 340.9,-64.34"/>
</g>
<!-- Node9 -->
<g id="node8" class="node">
<title>Node9</title>
<g id="a_node8"><a xlink:href="ssolv_8f.html#a4bb42a5afabbba8c6518d83cbe481c17" target="_top" xlink:title=" ">
<polygon fill="white" stroke="black" points="250.5,-38.5 250.5,-57.5 301.5,-57.5 301.5,-38.5 250.5,-38.5"/>
<text text-anchor="middle" x="276" y="-45.5" font-family="Helvetica,sans-Serif" font-size="10.00">go1step</text>
</a>
</g>
</g>
<!-- Node8&#45;&gt;Node9 -->
<g id="edge7" class="edge">
<title>Node8&#45;&gt;Node9</title>
<path fill="none" stroke="midnightblue" d="M338.61,-48C326.43,-48 312.92,-48 301.67,-48"/>
<polygon fill="midnightblue" stroke="midnightblue" points="338.89,-51.5 348.89,-48 338.89,-44.5 338.89,-51.5"/>
</g>
<!-- Node10 -->
<g id="node9" class="node">
<title>Node10</title>
<g id="a_node9"><a xlink:href="ssolv_8f.html#a2de8913c214fa083dcb088c57bd45272" target="_top" xlink:title=" ">
<polygon fill="white" stroke="red" points="253,-0.5 253,-19.5 299,-19.5 299,-0.5 253,-0.5"/>
<text text-anchor="middle" x="276" y="-7.5" font-family="Helvetica,sans-Serif" font-size="10.00">gostep</text>
</a>
</g>
</g>
<!-- Node8&#45;&gt;Node10 -->
<g id="edge8" class="edge">
<title>Node8&#45;&gt;Node10</title>
<path fill="none" stroke="midnightblue" d="M339.52,-34.88C326.14,-29.55 311.03,-23.54 299.03,-18.76"/>
<polygon fill="midnightblue" stroke="midnightblue" points="338.31,-38.16 348.89,-38.61 340.9,-31.66 338.31,-38.16"/>
</g>
<!-- Node12&#45;&gt;Node7 -->
<g id="edge11" class="edge">
<title>Node12&#45;&gt;Node7</title>
<path fill="none" stroke="midnightblue" d="M519.36,-23.62C507.01,-29.11 493.18,-35.25 482.5,-40"/>
<polygon fill="midnightblue" stroke="midnightblue" points="521.15,-26.65 528.87,-19.39 518.31,-20.26 521.15,-26.65"/>
</g>
</g>
</svg>
