<?xml version="1.0" encoding="UTF-8" standalone="no"?>
<!DOCTYPE svg PUBLIC "-//W3C//DTD SVG 1.1//EN"
 "http://www.w3.org/Graphics/SVG/1.1/DTD/svg11.dtd">
<!-- Generated by graphviz version 2.46.0 (0)
 -->
<!-- Title: getdr Pages: 1 -->
<svg width="664pt" height="104pt"
 viewBox="0.00 0.00 664.00 104.00" xmlns="http://www.w3.org/2000/svg" xmlns:xlink="http://www.w3.org/1999/xlink">
<g id="graph0" class="graph" transform="scale(1 1) rotate(0) translate(4 100)">
<title>getdr</title>
<polygon fill="white" stroke="transparent" points="-4,4 -4,-100 660,-100 660,4 -4,4"/>
<!-- Node1 -->
<g id="node1" class="node">
<title>Node1</title>
<g id="a_node1"><a xlink:title=" ">
<polygon fill="#bfbfbf" stroke="black" points="618,-38.5 618,-57.5 656,-57.5 656,-38.5 618,-38.5"/>
<text text-anchor="middle" x="637" y="-45.5" font-family="Helvetica,sans-Serif" font-size="10.00">getdr</text>
</a>
</g>
</g>
<!-- Node2 -->
<g id="node2" class="node">
<title>Node2</title>
<g id="a_node2"><a xlink:href="induct_8f.html#ad9f4f0bccae8f16bc99748c359b489db" target="_top" xlink:title=" ">
<polygon fill="white" stroke="black" points="512,-38.5 512,-57.5 582,-57.5 582,-38.5 512,-38.5"/>
<text text-anchor="middle" x="547" y="-45.5" font-family="Helvetica,sans-Serif" font-size="10.00">compute_cfl</text>
</a>
</g>
</g>
<!-- Node1&#45;&gt;Node2 -->
<g id="edge1" class="edge">
<title>Node1&#45;&gt;Node2</title>
<path fill="none" stroke="midnightblue" d="M607.68,-48C599.57,-48 590.64,-48 582.22,-48"/>
<polygon fill="midnightblue" stroke="midnightblue" points="607.77,-51.5 617.77,-48 607.77,-44.5 607.77,-51.5"/>
</g>
<!-- Node3 -->
<g id="node3" class="node">
<title>Node3</title>
<g id="a_node3"><a xlink:href="induct_8f.html#a75294e71da0c68adb56f3804f5dad60f" target="_top" xlink:title=" ">
<polygon fill="white" stroke="black" points="337,-76.5 337,-95.5 396,-95.5 396,-76.5 337,-76.5"/>
<text text-anchor="middle" x="366.5" y="-83.5" font-family="Helvetica,sans-Serif" font-size="10.00">cfl_check</text>
</a>
</g>
</g>
<!-- Node2&#45;&gt;Node3 -->
<g id="edge2" class="edge">
<title>Node2&#45;&gt;Node3</title>
<path fill="none" stroke="midnightblue" d="M501.74,-57.42C468.77,-64.44 424.71,-73.82 396.22,-79.89"/>
<polygon fill="midnightblue" stroke="midnightblue" points="502.53,-60.83 511.58,-55.33 501.07,-53.99 502.53,-60.83"/>
</g>
<!-- Node8 -->
<g id="node6" class="node">
<title>Node8</title>
<g id="a_node6"><a xlink:href="subs1_8f.html#a156860172f4c95a65ff7fb5b447d472e" target="_top" xlink:title=" ">
<polygon fill="white" stroke="black" points="347.5,-38.5 347.5,-57.5 385.5,-57.5 385.5,-38.5 347.5,-38.5"/>
<text text-anchor="middle" x="366.5" y="-45.5" font-family="Helvetica,sans-Serif" font-size="10.00">setdt</text>
</a>
</g>
</g>
<!-- Node2&#45;&gt;Node8 -->
<g id="edge5" class="edge">
<title>Node2&#45;&gt;Node8</title>
<path fill="none" stroke="midnightblue" d="M501.48,-48C464.25,-48 413,-48 385.95,-48"/>
<polygon fill="midnightblue" stroke="midnightblue" points="501.58,-51.5 511.58,-48 501.58,-44.5 501.58,-51.5"/>
</g>
<!-- Node13 -->
<g id="node10" class="node">
<title>Node13</title>
<g id="a_node10"><a xlink:href="subs1_8f.html#ae35573fd308e18ae23972c1b804f5b2d" target="_top" xlink:title=" ">
<polygon fill="white" stroke="black" points="432,-0.5 432,-19.5 476,-19.5 476,-0.5 432,-0.5"/>
<text text-anchor="middle" x="454" y="-7.5" font-family="Helvetica,sans-Serif" font-size="10.00">setdtc</text>
</a>
</g>
</g>
<!-- Node2&#45;&gt;Node13 -->
<g id="edge10" class="edge">
<title>Node2&#45;&gt;Node13</title>
<path fill="none" stroke="midnightblue" d="M513.45,-34.41C501.01,-29.21 487.17,-23.44 476.08,-18.8"/>
<polygon fill="midnightblue" stroke="midnightblue" points="512.46,-37.79 523.04,-38.41 515.16,-31.33 512.46,-37.79"/>
</g>
<!-- Node4 -->
<g id="node4" class="node">
<title>Node4</title>
<g id="a_node4"><a xlink:href="drive1_8f.html#ae177ea7efac97f35241521b782a671c0" target="_top" xlink:title=" ">
<polygon fill="white" stroke="black" points="142,-76.5 142,-95.5 216,-95.5 216,-76.5 142,-76.5"/>
<text text-anchor="middle" x="179" y="-83.5" font-family="Helvetica,sans-Serif" font-size="10.00">nek_advance</text>
</a>
</g>
</g>
<!-- Node3&#45;&gt;Node4 -->
<g id="edge3" class="edge">
<title>Node3&#45;&gt;Node4</title>
<path fill="none" stroke="midnightblue" d="M326.87,-86C294.33,-86 248.12,-86 216.26,-86"/>
<polygon fill="midnightblue" stroke="midnightblue" points="326.92,-89.5 336.92,-86 326.92,-82.5 326.92,-89.5"/>
</g>
<!-- Node5 -->
<g id="node5" class="node">
<title>Node5</title>
<g id="a_node5"><a xlink:href="drive1_8f.html#a18d3e839786263fc4cf91f7eeb714371" target="_top" xlink:title=" ">
<polygon fill="white" stroke="red" points="0,-76.5 0,-95.5 106,-95.5 106,-76.5 0,-76.5"/>
<text text-anchor="middle" x="53" y="-83.5" font-family="Helvetica,sans-Serif" font-size="10.00">nek__multi_advance</text>
</a>
</g>
</g>
<!-- Node4&#45;&gt;Node5 -->
<g id="edge4" class="edge">
<title>Node4&#45;&gt;Node5</title>
<path fill="none" stroke="midnightblue" d="M131.56,-86C123.27,-86 114.58,-86 106.14,-86"/>
<polygon fill="midnightblue" stroke="midnightblue" points="131.8,-89.5 141.8,-86 131.8,-82.5 131.8,-89.5"/>
</g>
<!-- Node9 -->
<g id="node7" class="node">
<title>Node9</title>
<g id="a_node7"><a xlink:href="drive2_8f.html#a6f905c80a0a2b0d5ed7f0449eda3e127" target="_top" xlink:title=" ">
<polygon fill="white" stroke="black" points="252,-38.5 252,-57.5 301,-57.5 301,-38.5 252,-38.5"/>
<text text-anchor="middle" x="276.5" y="-45.5" font-family="Helvetica,sans-Serif" font-size="10.00">settime</text>
</a>
</g>
</g>
<!-- Node8&#45;&gt;Node9 -->
<g id="edge6" class="edge">
<title>Node8&#45;&gt;Node9</title>
<path fill="none" stroke="midnightblue" d="M337.15,-48C325.5,-48 312.17,-48 301.07,-48"/>
<polygon fill="midnightblue" stroke="midnightblue" points="337.27,-51.5 347.27,-48 337.27,-44.5 337.27,-51.5"/>
</g>
<!-- Node9&#45;&gt;Node4 -->
<g id="edge9" class="edge">
<title>Node9&#45;&gt;Node4</title>
<path fill="none" stroke="midnightblue" d="M242.57,-61.1C229.9,-66.15 215.68,-71.8 204,-76.45"/>
<polygon fill="midnightblue" stroke="midnightblue" points="243.9,-64.34 251.89,-57.39 241.31,-57.84 243.9,-64.34"/>
</g>
<!-- Node10 -->
<g id="node8" class="node">
<title>Node10</title>
<g id="a_node8"><a xlink:href="ssolv_8f.html#a4bb42a5afabbba8c6518d83cbe481c17" target="_top" xlink:title=" ">
<polygon fill="white" stroke="black" points="153.5,-38.5 153.5,-57.5 204.5,-57.5 204.5,-38.5 153.5,-38.5"/>
<text text-anchor="middle" x="179" y="-45.5" font-family="Helvetica,sans-Serif" font-size="10.00">go1step</text>
</a>
</g>
</g>
<!-- Node9&#45;&gt;Node10 -->
<g id="edge7" class="edge">
<title>Node9&#45;&gt;Node10</title>
<path fill="none" stroke="midnightblue" d="M241.61,-48C229.43,-48 215.92,-48 204.67,-48"/>
<polygon fill="midnightblue" stroke="midnightblue" points="241.89,-51.5 251.89,-48 241.89,-44.5 241.89,-51.5"/>
</g>
<!-- Node11 -->
<g id="node9" class="node">
<title>Node11</title>
<g id="a_node9"><a xlink:href="ssolv_8f.html#a2de8913c214fa083dcb088c57bd45272" target="_top" xlink:title=" ">
<polygon fill="white" stroke="red" points="156,-0.5 156,-19.5 202,-19.5 202,-0.5 156,-0.5"/>
<text text-anchor="middle" x="179" y="-7.5" font-family="Helvetica,sans-Serif" font-size="10.00">gostep</text>
</a>
</g>
</g>
<!-- Node9&#45;&gt;Node11 -->
<g id="edge8" class="edge">
<title>Node9&#45;&gt;Node11</title>
<path fill="none" stroke="midnightblue" d="M242.52,-34.88C229.14,-29.55 214.03,-23.54 202.03,-18.76"/>
<polygon fill="midnightblue" stroke="midnightblue" points="241.31,-38.16 251.89,-38.61 243.9,-31.66 241.31,-38.16"/>
</g>
<!-- Node13&#45;&gt;Node8 -->
<g id="edge11" class="edge">
<title>Node13&#45;&gt;Node8</title>
<path fill="none" stroke="midnightblue" d="M422.36,-23.62C410.01,-29.11 396.18,-35.25 385.5,-40"/>
<polygon fill="midnightblue" stroke="midnightblue" points="424.15,-26.65 431.87,-19.39 421.31,-20.26 424.15,-26.65"/>
</g>
</g>
</svg>
