<?xml version="1.0" encoding="UTF-8" standalone="no"?>
<!DOCTYPE svg PUBLIC "-//W3C//DTD SVG 1.1//EN"
 "http://www.w3.org/Graphics/SVG/1.1/DTD/svg11.dtd">
<!-- Generated by graphviz version 2.46.0 (0)
 -->
<!-- Title: opzero Pages: 1 -->
<svg width="562pt" height="210pt"
 viewBox="0.00 0.00 562.00 209.91" xmlns="http://www.w3.org/2000/svg" xmlns:xlink="http://www.w3.org/1999/xlink">
<g id="graph0" class="graph" transform="scale(1 1) rotate(0) translate(4 205.91)">
<title>opzero</title>
<polygon fill="white" stroke="transparent" points="-4,4 -4,-205.91 558,-205.91 558,4 -4,4"/>
<!-- Node1 -->
<g id="node1" class="node">
<title>Node1</title>
<g id="a_node1"><a xlink:title=" ">
<polygon fill="#bfbfbf" stroke="black" points="508,-89.98 508,-108.98 554,-108.98 554,-89.98 508,-89.98"/>
<text text-anchor="middle" x="531" y="-96.98" font-family="Helvetica,sans-Serif" font-size="10.00">opzero</text>
</a>
</g>
</g>
<!-- Node2 -->
<g id="node2" class="node">
<title>Node2</title>
<g id="a_node2"><a xlink:href="subs1_8f.html#afbde33b8466b90206f1fa13b3800b7d5" target="_top" xlink:title=" ">
<polygon fill="white" stroke="black" points="101,-146.98 101,-165.98 147,-165.98 147,-146.98 101,-146.98"/>
<text text-anchor="middle" x="124" y="-153.98" font-family="Helvetica,sans-Serif" font-size="10.00">cggosf</text>
</a>
</g>
</g>
<!-- Node1&#45;&gt;Node2 -->
<g id="edge1" class="edge">
<title>Node1&#45;&gt;Node2</title>
<path fill="none" stroke="midnightblue" d="M521.74,-118.45C512.57,-136.85 495.85,-163.68 472,-175.48 360.87,-230.46 204.56,-184.93 147.21,-164.82"/>
<polygon fill="midnightblue" stroke="midnightblue" points="524.99,-119.78 526.06,-109.24 518.65,-116.81 524.99,-119.78"/>
</g>
<!-- Node59 -->
<g id="node4" class="node">
<title>Node59</title>
<g id="a_node4"><a xlink:href="subs1_8f.html#abeb3fbefdc0288bbebf73974c87c2433" target="_top" xlink:title=" ">
<polygon fill="white" stroke="black" points="337,-146.98 337,-165.98 472,-165.98 472,-146.98 337,-146.98"/>
<text text-anchor="middle" x="404.5" y="-153.98" font-family="Helvetica,sans-Serif" font-size="10.00">get_local_crs_galerkin_strs</text>
</a>
</g>
</g>
<!-- Node1&#45;&gt;Node59 -->
<g id="edge3" class="edge">
<title>Node1&#45;&gt;Node59</title>
<path fill="none" stroke="midnightblue" d="M509.49,-115.11C498.77,-122.7 485.17,-131.45 472,-137.48 463.92,-141.18 454.96,-144.32 446.29,-146.93"/>
<polygon fill="midnightblue" stroke="midnightblue" points="511.72,-117.81 517.74,-109.1 507.6,-112.16 511.72,-117.81"/>
</g>
<!-- Node61 -->
<g id="node6" class="node">
<title>Node61</title>
<g id="a_node6"><a xlink:href="pertsupport_8f.html#ab717a09e0eef53b83cb0020ed80d14eb" target="_top" xlink:title=" ">
<polygon fill="white" stroke="black" points="376,-108.98 376,-127.98 433,-127.98 433,-108.98 376,-108.98"/>
<text text-anchor="middle" x="404.5" y="-115.98" font-family="Helvetica,sans-Serif" font-size="10.00">initialize1</text>
</a>
</g>
</g>
<!-- Node1&#45;&gt;Node61 -->
<g id="edge6" class="edge">
<title>Node1&#45;&gt;Node61</title>
<path fill="none" stroke="midnightblue" d="M497.84,-104.39C477.82,-107.44 452.35,-111.33 433.23,-114.25"/>
<polygon fill="midnightblue" stroke="midnightblue" points="498.38,-107.84 507.74,-102.88 497.33,-100.92 498.38,-107.84"/>
</g>
<!-- Node48 -->
<g id="node8" class="node">
<title>Node48</title>
<g id="a_node8"><a xlink:href="multimesh_8f.html#a496bf595bdb0c099877ab39e6236c027" target="_top" xlink:title=" ">
<polygon fill="white" stroke="red" points="366,-70.98 366,-89.98 443,-89.98 443,-70.98 366,-70.98"/>
<text text-anchor="middle" x="404.5" y="-77.98" font-family="Helvetica,sans-Serif" font-size="10.00">plan3_vol_ms</text>
</a>
</g>
</g>
<!-- Node1&#45;&gt;Node48 -->
<g id="edge8" class="edge">
<title>Node1&#45;&gt;Node48</title>
<path fill="none" stroke="midnightblue" d="M497.42,-94.51C480.8,-91.97 460.49,-88.87 443.19,-86.23"/>
<polygon fill="midnightblue" stroke="midnightblue" points="497.33,-98.03 507.74,-96.08 498.38,-91.11 497.33,-98.03"/>
</g>
<!-- Node58 -->
<g id="node9" class="node">
<title>Node58</title>
<g id="a_node9"><a xlink:href="multimesh_8f.html#a1abe8f51886fce3a30fb4f68c8c132b9" target="_top" xlink:title=" ">
<polygon fill="white" stroke="red" points="366,-32.98 366,-51.98 443,-51.98 443,-32.98 366,-32.98"/>
<text text-anchor="middle" x="404.5" y="-39.98" font-family="Helvetica,sans-Serif" font-size="10.00">plan4_vol_ms</text>
</a>
</g>
</g>
<!-- Node1&#45;&gt;Node58 -->
<g id="edge9" class="edge">
<title>Node1&#45;&gt;Node58</title>
<path fill="none" stroke="midnightblue" d="M509.49,-83.85C498.77,-76.26 485.17,-67.5 472,-61.48 462.94,-57.33 452.76,-53.88 443.15,-51.1"/>
<polygon fill="midnightblue" stroke="midnightblue" points="507.6,-86.8 517.74,-89.86 511.72,-81.14 507.6,-86.8"/>
</g>
<!-- Node63 -->
<g id="node10" class="node">
<title>Node63</title>
<g id="a_node10"><a xlink:href="subs1_8f.html#a36c4563e34db1fdc4cb050df0abd21e3" target="_top" xlink:title=" ">
<polygon fill="white" stroke="black" points="85,-51.98 85,-70.98 163,-70.98 163,-51.98 85,-51.98"/>
<text text-anchor="middle" x="124" y="-58.98" font-family="Helvetica,sans-Serif" font-size="10.00">strs_project_a</text>
</a>
</g>
</g>
<!-- Node1&#45;&gt;Node63 -->
<g id="edge10" class="edge">
<title>Node1&#45;&gt;Node63</title>
<path fill="none" stroke="midnightblue" d="M521.74,-80.51C512.57,-62.1 495.85,-35.28 472,-23.48 359.29,32.29 201.32,-27.31 145.51,-51.9"/>
<polygon fill="midnightblue" stroke="midnightblue" points="518.65,-82.15 526.06,-89.72 524.99,-79.18 518.65,-82.15"/>
</g>
<!-- Node3 -->
<g id="node3" class="node">
<title>Node3</title>
<g id="a_node3"><a xlink:href="subs1_8f.html#aab6bde102bb9bd893cf1880c2d7746ad" target="_top" xlink:title=" ">
<polygon fill="white" stroke="red" points="0,-70.98 0,-89.98 49,-89.98 49,-70.98 0,-70.98"/>
<text text-anchor="middle" x="24.5" y="-77.98" font-family="Helvetica,sans-Serif" font-size="10.00">hmhzsf</text>
</a>
</g>
</g>
<!-- Node2&#45;&gt;Node3 -->
<g id="edge2" class="edge">
<title>Node2&#45;&gt;Node3</title>
<path fill="none" stroke="midnightblue" d="M102.64,-140.61C83.04,-125.33 54.03,-102.72 37.75,-90.03"/>
<polygon fill="midnightblue" stroke="midnightblue" points="100.61,-143.47 110.65,-146.85 104.92,-137.94 100.61,-143.47"/>
</g>
<!-- Node60 -->
<g id="node5" class="node">
<title>Node60</title>
<g id="a_node5"><a xlink:href="subs1_8f.html#a4a41bf250a5f224d28fa0e8ac216b40f" target="_top" xlink:title=" ">
<polygon fill="white" stroke="black" points="199,-146.98 199,-165.98 301,-165.98 301,-146.98 199,-146.98"/>
<text text-anchor="middle" x="250" y="-153.98" font-family="Helvetica,sans-Serif" font-size="10.00">set_up_h1_crs_strs</text>
</a>
</g>
</g>
<!-- Node59&#45;&gt;Node60 -->
<g id="edge4" class="edge">
<title>Node59&#45;&gt;Node60</title>
<path fill="none" stroke="midnightblue" d="M326.57,-156.48C318,-156.48 309.44,-156.48 301.33,-156.48"/>
<polygon fill="midnightblue" stroke="midnightblue" points="326.61,-159.98 336.61,-156.48 326.61,-152.98 326.61,-159.98"/>
</g>
<!-- Node60&#45;&gt;Node2 -->
<g id="edge5" class="edge">
<title>Node60&#45;&gt;Node2</title>
<path fill="none" stroke="midnightblue" d="M188.68,-156.48C173.81,-156.48 158.8,-156.48 147.09,-156.48"/>
<polygon fill="midnightblue" stroke="midnightblue" points="188.92,-159.98 198.92,-156.48 188.92,-152.98 188.92,-159.98"/>
</g>
<!-- Node62 -->
<g id="node7" class="node">
<title>Node62</title>
<g id="a_node7"><a xlink:href="pertsupport_8f.html#a4cbf48313172557ba247bf8505a7de2b" target="_top" xlink:title=" ">
<polygon fill="white" stroke="black" points="224,-108.98 224,-127.98 276,-127.98 276,-108.98 224,-108.98"/>
<text text-anchor="middle" x="250" y="-115.98" font-family="Helvetica,sans-Serif" font-size="10.00">initialize</text>
</a>
</g>
</g>
<!-- Node61&#45;&gt;Node62 -->
<g id="edge7" class="edge">
<title>Node61&#45;&gt;Node62</title>
<path fill="none" stroke="midnightblue" d="M365.71,-118.48C337.87,-118.48 300.75,-118.48 276.38,-118.48"/>
<polygon fill="midnightblue" stroke="midnightblue" points="365.88,-121.98 375.88,-118.48 365.88,-114.98 365.88,-121.98"/>
</g>
<!-- Node63&#45;&gt;Node3 -->
<g id="edge11" class="edge">
<title>Node63&#45;&gt;Node3</title>
<path fill="none" stroke="midnightblue" d="M74.72,-70.89C65.77,-72.63 56.8,-74.38 49.02,-75.9"/>
<polygon fill="midnightblue" stroke="midnightblue" points="75.6,-74.28 84.75,-68.93 74.26,-67.41 75.6,-74.28"/>
</g>
</g>
</svg>
