<?xml version="1.0" encoding="UTF-8" standalone="no"?>
<!DOCTYPE svg PUBLIC "-//W3C//DTD SVG 1.1//EN"
 "http://www.w3.org/Graphics/SVG/1.1/DTD/svg11.dtd">
<!-- Generated by graphviz version 2.46.0 (0)
 -->
<!-- Title: setrhsp Pages: 1 -->
<svg width="241pt" height="294pt"
 viewBox="0.00 0.00 241.00 294.00" xmlns="http://www.w3.org/2000/svg" xmlns:xlink="http://www.w3.org/1999/xlink">
<g id="graph0" class="graph" transform="scale(1 1) rotate(0) translate(4 290)">
<title>setrhsp</title>
<polygon fill="white" stroke="transparent" points="-4,4 -4,-290 237,-290 237,4 -4,4"/>
<!-- Node1 -->
<g id="node1" class="node">
<title>Node1</title>
<g id="a_node1"><a xlink:title=" ">
<polygon fill="#bfbfbf" stroke="black" points="0,-133.5 0,-152.5 49,-152.5 49,-133.5 0,-133.5"/>
<text text-anchor="middle" x="24.5" y="-140.5" font-family="Helvetica,sans-Serif" font-size="10.00">setrhsp</text>
</a>
</g>
</g>
<!-- Node2 -->
<g id="node2" class="node">
<title>Node2</title>
<g id="a_node2"><a xlink:href="math_8f.html#a34a2c89ac31311482e2ec34fbb7c5a7a" target="_top" xlink:title=" ">
<polygon fill="white" stroke="black" points="86.5,-266.5 86.5,-285.5 134.5,-285.5 134.5,-266.5 86.5,-266.5"/>
<text text-anchor="middle" x="110.5" y="-273.5" font-family="Helvetica,sans-Serif" font-size="10.00">add2s2</text>
</a>
</g>
</g>
<!-- Node1&#45;&gt;Node2 -->
<g id="edge1" class="edge">
<title>Node1&#45;&gt;Node2</title>
<path fill="none" stroke="midnightblue" d="M28.91,-152.68C36.56,-173.43 56.66,-223.08 85,-257 85.82,-257.98 86.69,-258.93 87.6,-259.87"/>
<polygon fill="midnightblue" stroke="midnightblue" points="85.3,-262.5 95.11,-266.49 89.93,-257.25 85.3,-262.5"/>
</g>
<!-- Node5 -->
<g id="node4" class="node">
<title>Node5</title>
<g id="a_node4"><a xlink:href="navier1_8f.html#a65f34d5a85fb540d8cb0fd1fbf1d2e6b" target="_top" xlink:title=" ">
<polygon fill="white" stroke="red" points="85,-228.5 85,-247.5 136,-247.5 136,-228.5 85,-228.5"/>
<text text-anchor="middle" x="110.5" y="-235.5" font-family="Helvetica,sans-Serif" font-size="10.00">cdabdtp</text>
</a>
</g>
</g>
<!-- Node1&#45;&gt;Node5 -->
<g id="edge3" class="edge">
<title>Node1&#45;&gt;Node5</title>
<path fill="none" stroke="midnightblue" d="M31.95,-152.74C42.2,-167.83 63.27,-197.37 85,-219 85.92,-219.92 86.89,-220.83 87.88,-221.74"/>
<polygon fill="midnightblue" stroke="midnightblue" points="85.85,-224.6 95.78,-228.31 90.34,-219.22 85.85,-224.6"/>
</g>
<!-- Node84 -->
<g id="node5" class="node">
<title>Node84</title>
<g id="a_node5"><a xlink:href="math_8f.html#a2e1d409e78d80b2a41ac715c2d5f607b" target="_top" xlink:title=" ">
<polygon fill="white" stroke="black" points="90.5,-190.5 90.5,-209.5 130.5,-209.5 130.5,-190.5 90.5,-190.5"/>
<text text-anchor="middle" x="110.5" y="-197.5" font-family="Helvetica,sans-Serif" font-size="10.00">glsc3</text>
</a>
</g>
</g>
<!-- Node1&#45;&gt;Node84 -->
<g id="edge4" class="edge">
<title>Node1&#45;&gt;Node84</title>
<path fill="none" stroke="midnightblue" d="M39.75,-152.67C52.62,-161.4 71.78,-174.4 86.76,-184.57"/>
<polygon fill="midnightblue" stroke="midnightblue" points="85.22,-187.75 95.46,-190.47 89.15,-181.96 85.22,-187.75"/>
</g>
<!-- Node30 -->
<g id="node6" class="node">
<title>Node30</title>
<g id="a_node6"><a xlink:href="gs__test__gop__blocking_8c.html#ab2e24f9857f6d1ded7e4d556c6bc5e49" target="_top" xlink:title=" ">
<polygon fill="white" stroke="red" points="186.5,-171.5 186.5,-190.5 218.5,-190.5 218.5,-171.5 186.5,-171.5"/>
<text text-anchor="middle" x="202.5" y="-178.5" font-family="Helvetica,sans-Serif" font-size="10.00">gop</text>
</a>
</g>
</g>
<!-- Node1&#45;&gt;Node30 -->
<g id="edge6" class="edge">
<title>Node1&#45;&gt;Node30</title>
<path fill="none" stroke="midnightblue" d="M49.24,-148.12C82.43,-155.29 142.43,-168.25 176.36,-175.57"/>
<polygon fill="midnightblue" stroke="midnightblue" points="175.88,-179.05 186.39,-177.74 177.35,-172.21 175.88,-179.05"/>
</g>
<!-- Node33 -->
<g id="node7" class="node">
<title>Node33</title>
<g id="a_node7"><a xlink:href="math_8f.html#af44de42b023a4a68cd98ea341204342d" target="_top" xlink:title=" ">
<polygon fill="white" stroke="black" points="91.5,-114.5 91.5,-133.5 129.5,-133.5 129.5,-114.5 91.5,-114.5"/>
<text text-anchor="middle" x="110.5" y="-121.5" font-family="Helvetica,sans-Serif" font-size="10.00">rzero</text>
</a>
</g>
</g>
<!-- Node1&#45;&gt;Node33 -->
<g id="edge7" class="edge">
<title>Node1&#45;&gt;Node33</title>
<path fill="none" stroke="midnightblue" d="M49.35,-137.61C59.39,-135.34 71.14,-132.68 81.58,-130.31"/>
<polygon fill="midnightblue" stroke="midnightblue" points="82.49,-133.7 91.47,-128.08 80.95,-126.87 82.49,-133.7"/>
</g>
<!-- Node321 -->
<g id="node8" class="node">
<title>Node321</title>
<g id="a_node8"><a xlink:href="math_8f.html#a0f22065d62634acdc3883ba95bfcc18a" target="_top" xlink:title=" ">
<polygon fill="white" stroke="black" points="91.5,-76.5 91.5,-95.5 129.5,-95.5 129.5,-76.5 91.5,-76.5"/>
<text text-anchor="middle" x="110.5" y="-83.5" font-family="Helvetica,sans-Serif" font-size="10.00">sub2</text>
</a>
</g>
</g>
<!-- Node1&#45;&gt;Node321 -->
<g id="edge8" class="edge">
<title>Node1&#45;&gt;Node321</title>
<path fill="none" stroke="midnightblue" d="M39.75,-133.33C52.62,-124.6 71.78,-111.6 86.76,-101.43"/>
<polygon fill="midnightblue" stroke="midnightblue" points="89.15,-104.04 95.46,-95.53 85.22,-98.25 89.15,-104.04"/>
</g>
<!-- Node371 -->
<g id="node9" class="node">
<title>Node371</title>
<g id="a_node9"><a xlink:href="navier4_8f.html#ac7850f94786af7a09038a0ccaccadd07" target="_top" xlink:title=" ">
<polygon fill="white" stroke="red" points="85,-38.5 85,-57.5 136,-57.5 136,-38.5 85,-38.5"/>
<text text-anchor="middle" x="110.5" y="-45.5" font-family="Helvetica,sans-Serif" font-size="10.00">updrhse</text>
</a>
</g>
</g>
<!-- Node1&#45;&gt;Node371 -->
<g id="edge9" class="edge">
<title>Node1&#45;&gt;Node371</title>
<path fill="none" stroke="midnightblue" d="M31.95,-133.26C42.2,-118.17 63.27,-88.63 85,-67 85.92,-66.08 86.89,-65.17 87.88,-64.26"/>
<polygon fill="midnightblue" stroke="midnightblue" points="90.34,-66.78 95.78,-57.69 85.85,-61.4 90.34,-66.78"/>
</g>
<!-- Node150 -->
<g id="node10" class="node">
<title>Node150</title>
<g id="a_node10"><a xlink:href="math_8f.html#ab07e2f3ed4f12e1651e80df2497ffaa2" target="_top" xlink:title=" ">
<polygon fill="white" stroke="black" points="90.5,-0.5 90.5,-19.5 130.5,-19.5 130.5,-0.5 90.5,-0.5"/>
<text text-anchor="middle" x="110.5" y="-7.5" font-family="Helvetica,sans-Serif" font-size="10.00">vlsc2</text>
</a>
</g>
</g>
<!-- Node1&#45;&gt;Node150 -->
<g id="edge10" class="edge">
<title>Node1&#45;&gt;Node150</title>
<path fill="none" stroke="midnightblue" d="M28.91,-133.32C36.56,-112.57 56.66,-62.92 85,-29 85.82,-28.02 86.69,-27.07 87.6,-26.13"/>
<polygon fill="midnightblue" stroke="midnightblue" points="89.93,-28.75 95.11,-19.51 85.3,-23.5 89.93,-28.75"/>
</g>
<!-- Node3 -->
<g id="node3" class="node">
<title>Node3</title>
<g id="a_node3"><a xlink:href="comm__mpi_8f.html#af06ec29f06aac3f8809e19de2a7e8946" target="_top" xlink:title=" ">
<polygon fill="white" stroke="red" points="172,-266.5 172,-285.5 233,-285.5 233,-266.5 172,-266.5"/>
<text text-anchor="middle" x="202.5" y="-273.5" font-family="Helvetica,sans-Serif" font-size="10.00">dnekclock</text>
</a>
</g>
</g>
<!-- Node2&#45;&gt;Node3 -->
<g id="edge2" class="edge">
<title>Node2&#45;&gt;Node3</title>
<path fill="none" stroke="midnightblue" d="M134.68,-276C142.93,-276 152.47,-276 161.71,-276"/>
<polygon fill="midnightblue" stroke="midnightblue" points="161.94,-279.5 171.94,-276 161.94,-272.5 161.94,-279.5"/>
</g>
<!-- Node84&#45;&gt;Node30 -->
<g id="edge5" class="edge">
<title>Node84&#45;&gt;Node30</title>
<path fill="none" stroke="midnightblue" d="M130.59,-195.97C143.96,-193.15 161.96,-189.35 176.47,-186.28"/>
<polygon fill="midnightblue" stroke="midnightblue" points="177.25,-189.7 186.32,-184.21 175.81,-182.85 177.25,-189.7"/>
</g>
</g>
</svg>
