<?xml version="1.0" encoding="UTF-8" standalone="no"?>
<!DOCTYPE svg PUBLIC "-//W3C//DTD SVG 1.1//EN"
 "http://www.w3.org/Graphics/SVG/1.1/DTD/svg11.dtd">
<!-- Generated by graphviz version 2.46.0 (0)
 -->
<!-- Title: makebdfb Pages: 1 -->
<svg width="435pt" height="142pt"
 viewBox="0.00 0.00 435.00 142.00" xmlns="http://www.w3.org/2000/svg" xmlns:xlink="http://www.w3.org/1999/xlink">
<g id="graph0" class="graph" transform="scale(1 1) rotate(0) translate(4 138)">
<title>makebdfb</title>
<polygon fill="white" stroke="transparent" points="-4,4 -4,-138 431,-138 431,4 -4,4"/>
<!-- Node1 -->
<g id="node1" class="node">
<title>Node1</title>
<g id="a_node1"><a xlink:title=" ">
<polygon fill="#bfbfbf" stroke="black" points="0,-57.5 0,-76.5 59,-76.5 59,-57.5 0,-57.5"/>
<text text-anchor="middle" x="29.5" y="-64.5" font-family="Helvetica,sans-Serif" font-size="10.00">makebdfb</text>
</a>
</g>
</g>
<!-- Node2 -->
<g id="node2" class="node">
<title>Node2</title>
<g id="a_node2"><a xlink:href="subs2_8f.html#a3c61e9653d5734accc15712a2f1b9c11" target="_top" xlink:title=" ">
<polygon fill="white" stroke="black" points="102.5,-114.5 102.5,-133.5 148.5,-133.5 148.5,-114.5 102.5,-114.5"/>
<text text-anchor="middle" x="125.5" y="-121.5" font-family="Helvetica,sans-Serif" font-size="10.00">cmult2</text>
</a>
</g>
</g>
<!-- Node1&#45;&gt;Node2 -->
<g id="edge1" class="edge">
<title>Node1&#45;&gt;Node2</title>
<path fill="none" stroke="midnightblue" d="M46.45,-76.67C61.12,-85.57 83.1,-98.9 100,-109.14"/>
<polygon fill="midnightblue" stroke="midnightblue" points="98.42,-112.28 108.79,-114.47 102.05,-106.3 98.42,-112.28"/>
</g>
<!-- Node3 -->
<g id="node3" class="node">
<title>Node3</title>
<g id="a_node3"><a xlink:href="navier1_8f.html#ad1bbe02eb4b6eb1d16f7612e1947dac5" target="_top" xlink:title=" ">
<polygon fill="white" stroke="black" points="101.5,-76.5 101.5,-95.5 149.5,-95.5 149.5,-76.5 101.5,-76.5"/>
<text text-anchor="middle" x="125.5" y="-83.5" font-family="Helvetica,sans-Serif" font-size="10.00">opadd2</text>
</a>
</g>
</g>
<!-- Node1&#45;&gt;Node3 -->
<g id="edge2" class="edge">
<title>Node1&#45;&gt;Node3</title>
<path fill="none" stroke="midnightblue" d="M59.21,-72.8C69.34,-74.85 80.8,-77.17 91.27,-79.28"/>
<polygon fill="midnightblue" stroke="midnightblue" points="90.82,-82.76 101.31,-81.31 92.2,-75.9 90.82,-82.76"/>
</g>
<!-- Node7 -->
<g id="node7" class="node">
<title>Node7</title>
<g id="a_node7"><a xlink:href="navier1_8f.html#a4f3a0cef18550f5d31ec6c04915c7522" target="_top" xlink:title=" ">
<polygon fill="white" stroke="black" points="95,-38.5 95,-57.5 156,-57.5 156,-38.5 95,-38.5"/>
<text text-anchor="middle" x="125.5" y="-45.5" font-family="Helvetica,sans-Serif" font-size="10.00">opadd2col</text>
</a>
</g>
</g>
<!-- Node1&#45;&gt;Node7 -->
<g id="edge6" class="edge">
<title>Node1&#45;&gt;Node7</title>
<path fill="none" stroke="midnightblue" d="M59.21,-61.2C67.36,-59.55 76.38,-57.73 85.05,-55.97"/>
<polygon fill="midnightblue" stroke="midnightblue" points="85.88,-59.38 94.99,-53.97 84.49,-52.52 85.88,-59.38"/>
</g>
<!-- Node8 -->
<g id="node8" class="node">
<title>Node8</title>
<g id="a_node8"><a xlink:href="navier1_8f.html#a31876422b7fbc9dc67e62241b1aafed3" target="_top" xlink:title=" ">
<polygon fill="white" stroke="black" points="97.5,-0.5 97.5,-19.5 153.5,-19.5 153.5,-0.5 97.5,-0.5"/>
<text text-anchor="middle" x="125.5" y="-7.5" font-family="Helvetica,sans-Serif" font-size="10.00">opcolv3c</text>
</a>
</g>
</g>
<!-- Node1&#45;&gt;Node8 -->
<g id="edge7" class="edge">
<title>Node1&#45;&gt;Node8</title>
<path fill="none" stroke="midnightblue" d="M46.45,-57.33C61.12,-48.43 83.1,-35.1 100,-24.86"/>
<polygon fill="midnightblue" stroke="midnightblue" points="102.05,-27.7 108.79,-19.53 98.42,-21.72 102.05,-27.7"/>
</g>
<!-- Node4 -->
<g id="node4" class="node">
<title>Node4</title>
<g id="a_node4"><a xlink:href="math_8f.html#a30b83d516b6ab162d3fafe73e03a3e92" target="_top" xlink:title=" ">
<polygon fill="white" stroke="black" points="192,-76.5 192,-95.5 230,-95.5 230,-76.5 192,-76.5"/>
<text text-anchor="middle" x="211" y="-83.5" font-family="Helvetica,sans-Serif" font-size="10.00">add2</text>
</a>
</g>
</g>
<!-- Node3&#45;&gt;Node4 -->
<g id="edge3" class="edge">
<title>Node3&#45;&gt;Node4</title>
<path fill="none" stroke="midnightblue" d="M149.76,-86C159.64,-86 171.26,-86 181.64,-86"/>
<polygon fill="midnightblue" stroke="midnightblue" points="181.89,-89.5 191.89,-86 181.89,-82.5 181.89,-89.5"/>
</g>
<!-- Node5 -->
<g id="node5" class="node">
<title>Node5</title>
<g id="a_node5"><a xlink:href="comm__mpi_8f.html#af06ec29f06aac3f8809e19de2a7e8946" target="_top" xlink:title=" ">
<polygon fill="white" stroke="black" points="266,-76.5 266,-95.5 327,-95.5 327,-76.5 266,-76.5"/>
<text text-anchor="middle" x="296.5" y="-83.5" font-family="Helvetica,sans-Serif" font-size="10.00">dnekclock</text>
</a>
</g>
</g>
<!-- Node4&#45;&gt;Node5 -->
<g id="edge4" class="edge">
<title>Node4&#45;&gt;Node5</title>
<path fill="none" stroke="midnightblue" d="M230.12,-86C237.72,-86 246.87,-86 255.89,-86"/>
<polygon fill="midnightblue" stroke="midnightblue" points="255.93,-89.5 265.93,-86 255.93,-82.5 255.93,-89.5"/>
</g>
<!-- Node6 -->
<g id="node6" class="node">
<title>Node6</title>
<g id="a_node6"><a xlink:href="mpi__dummy_8f.html#ae6a5ef945f87c2c27849696b70f3af2a" target="_top" xlink:title=" ">
<polygon fill="white" stroke="black" points="363,-76.5 363,-95.5 427,-95.5 427,-76.5 363,-76.5"/>
<text text-anchor="middle" x="395" y="-83.5" font-family="Helvetica,sans-Serif" font-size="10.00">mpi_wtime</text>
</a>
</g>
</g>
<!-- Node5&#45;&gt;Node6 -->
<g id="edge5" class="edge">
<title>Node5&#45;&gt;Node6</title>
<path fill="none" stroke="midnightblue" d="M327.24,-86C335.27,-86 344.11,-86 352.65,-86"/>
<polygon fill="midnightblue" stroke="midnightblue" points="352.85,-89.5 362.85,-86 352.85,-82.5 352.85,-89.5"/>
</g>
</g>
</svg>
