<?xml version="1.0" encoding="UTF-8" standalone="no"?>
<!DOCTYPE svg PUBLIC "-//W3C//DTD SVG 1.1//EN"
 "http://www.w3.org/Graphics/SVG/1.1/DTD/svg11.dtd">
<!-- Generated by graphviz version 2.46.0 (0)
 -->
<!-- Title: iniparser.c Pages: 1 -->
<svg width="257pt" height="196pt"
 viewBox="0.00 0.00 256.50 196.00" xmlns="http://www.w3.org/2000/svg" xmlns:xlink="http://www.w3.org/1999/xlink">
<g id="graph0" class="graph" transform="scale(1 1) rotate(0) translate(4 192)">
<title>iniparser.c</title>
<polygon fill="white" stroke="transparent" points="-4,4 -4,-192 252.5,-192 252.5,4 -4,4"/>
<!-- Node1 -->
<g id="node1" class="node">
<title>Node1</title>
<g id="a_node1"><a xlink:title="Parser for ini files.">
<polygon fill="#bfbfbf" stroke="black" points="50.5,-168.5 50.5,-187.5 111.5,-187.5 111.5,-168.5 50.5,-168.5"/>
<text text-anchor="middle" x="81" y="-175.5" font-family="Helvetica,sans-Serif" font-size="10.00">iniparser.c</text>
</a>
</g>
</g>
<!-- Node2 -->
<g id="node2" class="node">
<title>Node2</title>
<g id="a_node2"><a xlink:title=" ">
<polygon fill="white" stroke="#bfbfbf" points="20.5,-112.5 20.5,-131.5 69.5,-131.5 69.5,-112.5 20.5,-112.5"/>
<text text-anchor="middle" x="45" y="-119.5" font-family="Helvetica,sans-Serif" font-size="10.00">ctype.h</text>
</a>
</g>
</g>
<!-- Node1&#45;&gt;Node2 -->
<g id="edge1" class="edge">
<title>Node1&#45;&gt;Node2</title>
<path fill="none" stroke="midnightblue" d="M75.06,-168.08C70.02,-160.53 62.66,-149.49 56.49,-140.23"/>
<polygon fill="midnightblue" stroke="midnightblue" points="59.29,-138.13 50.83,-131.75 53.47,-142.01 59.29,-138.13"/>
</g>
<!-- Node3 -->
<g id="node3" class="node">
<title>Node3</title>
<g id="a_node3"><a xlink:href="iniparser_8h.html" target="_top" xlink:title="Parser for ini files.">
<polygon fill="white" stroke="black" points="87.5,-112.5 87.5,-131.5 148.5,-131.5 148.5,-112.5 87.5,-112.5"/>
<text text-anchor="middle" x="118" y="-119.5" font-family="Helvetica,sans-Serif" font-size="10.00">iniparser.h</text>
</a>
</g>
</g>
<!-- Node1&#45;&gt;Node3 -->
<g id="edge2" class="edge">
<title>Node1&#45;&gt;Node3</title>
<path fill="none" stroke="midnightblue" d="M87.11,-168.08C92.28,-160.53 99.85,-149.49 106.19,-140.23"/>
<polygon fill="midnightblue" stroke="midnightblue" points="109.24,-141.98 112,-131.75 103.46,-138.02 109.24,-141.98"/>
</g>
<!-- Node4 -->
<g id="node4" class="node">
<title>Node4</title>
<g id="a_node4"><a xlink:title=" ">
<polygon fill="white" stroke="#bfbfbf" points="0,-0.5 0,-19.5 46,-19.5 46,-0.5 0,-0.5"/>
<text text-anchor="middle" x="23" y="-7.5" font-family="Helvetica,sans-Serif" font-size="10.00">stdio.h</text>
</a>
</g>
</g>
<!-- Node3&#45;&gt;Node4 -->
<g id="edge3" class="edge">
<title>Node3&#45;&gt;Node4</title>
<path fill="none" stroke="midnightblue" d="M110.55,-112.37C94.73,-94.05 57.59,-51.05 37.13,-27.36"/>
<polygon fill="midnightblue" stroke="midnightblue" points="39.6,-24.87 30.42,-19.59 34.31,-29.45 39.6,-24.87"/>
</g>
<!-- Node5 -->
<g id="node5" class="node">
<title>Node5</title>
<g id="a_node5"><a xlink:title=" ">
<polygon fill="white" stroke="#bfbfbf" points="64,-0.5 64,-19.5 112,-19.5 112,-0.5 64,-0.5"/>
<text text-anchor="middle" x="88" y="-7.5" font-family="Helvetica,sans-Serif" font-size="10.00">stdlib.h</text>
</a>
</g>
</g>
<!-- Node3&#45;&gt;Node5 -->
<g id="edge4" class="edge">
<title>Node3&#45;&gt;Node5</title>
<path fill="none" stroke="midnightblue" d="M115.65,-112.37C110.78,-94.54 99.54,-53.3 92.98,-29.27"/>
<polygon fill="midnightblue" stroke="midnightblue" points="96.35,-28.32 90.34,-19.59 89.6,-30.16 96.35,-28.32"/>
</g>
<!-- Node6 -->
<g id="node6" class="node">
<title>Node6</title>
<g id="a_node6"><a xlink:title=" ">
<polygon fill="white" stroke="#bfbfbf" points="199.5,-0.5 199.5,-19.5 248.5,-19.5 248.5,-0.5 199.5,-0.5"/>
<text text-anchor="middle" x="224" y="-7.5" font-family="Helvetica,sans-Serif" font-size="10.00">string.h</text>
</a>
</g>
</g>
<!-- Node3&#45;&gt;Node6 -->
<g id="edge5" class="edge">
<title>Node3&#45;&gt;Node6</title>
<path fill="none" stroke="midnightblue" d="M138.05,-112.39C154.01,-104.72 176.08,-92.21 191,-76 203.43,-62.5 212.37,-43.43 217.78,-29.44"/>
<polygon fill="midnightblue" stroke="midnightblue" points="221.12,-30.5 221.23,-19.91 214.54,-28.12 221.12,-30.5"/>
</g>
<!-- Node7 -->
<g id="node7" class="node">
<title>Node7</title>
<g id="a_node7"><a xlink:href="dictionary_8h.html" target="_top" xlink:title="Implements a dictionary for string variables.">
<polygon fill="white" stroke="black" points="116.5,-56.5 116.5,-75.5 181.5,-75.5 181.5,-56.5 116.5,-56.5"/>
<text text-anchor="middle" x="149" y="-63.5" font-family="Helvetica,sans-Serif" font-size="10.00">dictionary.h</text>
</a>
</g>
</g>
<!-- Node3&#45;&gt;Node7 -->
<g id="edge6" class="edge">
<title>Node3&#45;&gt;Node7</title>
<path fill="none" stroke="midnightblue" d="M123.12,-112.08C127.41,-104.61 133.66,-93.72 138.94,-84.52"/>
<polygon fill="midnightblue" stroke="midnightblue" points="142.03,-86.17 143.98,-75.75 135.96,-82.68 142.03,-86.17"/>
</g>
<!-- Node7&#45;&gt;Node4 -->
<g id="edge7" class="edge">
<title>Node7&#45;&gt;Node4</title>
<path fill="none" stroke="midnightblue" d="M129.03,-56.44C108.39,-47.6 75.94,-33.69 52.37,-23.59"/>
<polygon fill="midnightblue" stroke="midnightblue" points="53.44,-20.24 42.87,-19.52 50.68,-26.67 53.44,-20.24"/>
</g>
<!-- Node7&#45;&gt;Node5 -->
<g id="edge8" class="edge">
<title>Node7&#45;&gt;Node5</title>
<path fill="none" stroke="midnightblue" d="M139.2,-56.32C130.18,-48.34 116.59,-36.31 105.68,-26.65"/>
<polygon fill="midnightblue" stroke="midnightblue" points="107.79,-23.84 97.98,-19.83 103.15,-29.08 107.79,-23.84"/>
</g>
<!-- Node7&#45;&gt;Node6 -->
<g id="edge9" class="edge">
<title>Node7&#45;&gt;Node6</title>
<path fill="none" stroke="midnightblue" d="M161.05,-56.32C172.46,-48.11 189.83,-35.6 203.43,-25.81"/>
<polygon fill="midnightblue" stroke="midnightblue" points="205.66,-28.52 211.73,-19.83 201.57,-22.84 205.66,-28.52"/>
</g>
<!-- Node8 -->
<g id="node8" class="node">
<title>Node8</title>
<g id="a_node8"><a xlink:title=" ">
<polygon fill="white" stroke="#bfbfbf" points="130.5,-0.5 130.5,-19.5 181.5,-19.5 181.5,-0.5 130.5,-0.5"/>
<text text-anchor="middle" x="156" y="-7.5" font-family="Helvetica,sans-Serif" font-size="10.00">unistd.h</text>
</a>
</g>
</g>
<!-- Node7&#45;&gt;Node8 -->
<g id="edge10" class="edge">
<title>Node7&#45;&gt;Node8</title>
<path fill="none" stroke="midnightblue" d="M150.16,-56.08C151.08,-48.93 152.42,-38.64 153.58,-29.69"/>
<polygon fill="midnightblue" stroke="midnightblue" points="157.05,-30.12 154.87,-19.75 150.11,-29.22 157.05,-30.12"/>
</g>
</g>
</svg>
