<?xml version="1.0" encoding="UTF-8" standalone="no"?>
<!DOCTYPE svg PUBLIC "-//W3C//DTD SVG 1.1//EN"
 "http://www.w3.org/Graphics/SVG/1.1/DTD/svg11.dtd">
<!-- Generated by graphviz version 2.46.0 (0)
 -->
<!-- Title: strlwc Pages: 1 -->
<svg width="328pt" height="218pt"
 viewBox="0.00 0.00 328.00 218.00" xmlns="http://www.w3.org/2000/svg" xmlns:xlink="http://www.w3.org/1999/xlink">
<g id="graph0" class="graph" transform="scale(1 1) rotate(0) translate(4 214)">
<title>strlwc</title>
<polygon fill="white" stroke="transparent" points="-4,4 -4,-214 324,-214 324,4 -4,4"/>
<!-- Node1 -->
<g id="node1" class="node">
<title>Node1</title>
<g id="a_node1"><a xlink:title="Convert a string to lowercase.">
<polygon fill="#bfbfbf" stroke="black" points="277,-57.5 277,-76.5 320,-76.5 320,-57.5 277,-57.5"/>
<text text-anchor="middle" x="298.5" y="-64.5" font-family="Helvetica,sans-Serif" font-size="10.00">strlwc</text>
</a>
</g>
</g>
<!-- Node2 -->
<g id="node2" class="node">
<title>Node2</title>
<g id="a_node2"><a xlink:href="iniparser_8c.html#afa02a2ab6d21e751472f6a330ab7b815" target="_top" xlink:title="Get the string associated to a key.">
<polygon fill="white" stroke="red" points="145,-95.5 145,-114.5 241,-114.5 241,-95.5 145,-95.5"/>
<text text-anchor="middle" x="193" y="-102.5" font-family="Helvetica,sans-Serif" font-size="10.00">iniparser_getstring</text>
</a>
</g>
</g>
<!-- Node1&#45;&gt;Node2 -->
<g id="edge1" class="edge">
<title>Node1&#45;&gt;Node2</title>
<path fill="none" stroke="midnightblue" d="M266.79,-78.28C251.92,-83.74 234.26,-90.22 220.06,-95.43"/>
<polygon fill="midnightblue" stroke="midnightblue" points="268.37,-81.42 276.56,-74.69 265.96,-74.85 268.37,-81.42"/>
</g>
<!-- Node16 -->
<g id="node9" class="node">
<title>Node16</title>
<g id="a_node9"><a xlink:href="iniparser_8c.html#ad526324b54dbfe04d636360883f4f874" target="_top" xlink:title="Set an entry in a dictionary.">
<polygon fill="white" stroke="black" points="157,-57.5 157,-76.5 229,-76.5 229,-57.5 157,-57.5"/>
<text text-anchor="middle" x="193" y="-64.5" font-family="Helvetica,sans-Serif" font-size="10.00">iniparser_set</text>
</a>
</g>
</g>
<!-- Node1&#45;&gt;Node16 -->
<g id="edge8" class="edge">
<title>Node1&#45;&gt;Node16</title>
<path fill="none" stroke="midnightblue" d="M266.36,-67C254.64,-67 241.24,-67 229.18,-67"/>
<polygon fill="midnightblue" stroke="midnightblue" points="266.56,-70.5 276.56,-67 266.56,-63.5 266.56,-70.5"/>
</g>
<!-- Node17 -->
<g id="node10" class="node">
<title>Node17</title>
<g id="a_node10"><a xlink:href="iniparser_8c.html#a2ecced40f104f8d629748bb12c1f6b6b" target="_top" xlink:title="Delete an entry in a dictionary.">
<polygon fill="white" stroke="black" points="151.5,-19.5 151.5,-38.5 234.5,-38.5 234.5,-19.5 151.5,-19.5"/>
<text text-anchor="middle" x="193" y="-26.5" font-family="Helvetica,sans-Serif" font-size="10.00">iniparser_unset</text>
</a>
</g>
</g>
<!-- Node1&#45;&gt;Node17 -->
<g id="edge9" class="edge">
<title>Node1&#45;&gt;Node17</title>
<path fill="none" stroke="midnightblue" d="M266.79,-55.72C251.92,-50.26 234.26,-43.78 220.06,-38.57"/>
<polygon fill="midnightblue" stroke="midnightblue" points="265.96,-59.15 276.56,-59.31 268.37,-52.58 265.96,-59.15"/>
</g>
<!-- Node3 -->
<g id="node3" class="node">
<title>Node3</title>
<g id="a_node3"><a xlink:href="finiparser_8c.html#a01f307219b181cbb452a59d547b74e54" target="_top" xlink:title=" ">
<polygon fill="white" stroke="black" points="0,-190.5 0,-209.5 109,-209.5 109,-190.5 0,-190.5"/>
<text text-anchor="middle" x="54.5" y="-197.5" font-family="Helvetica,sans-Serif" font-size="10.00">finiparser_findTokens</text>
</a>
</g>
</g>
<!-- Node2&#45;&gt;Node3 -->
<g id="edge2" class="edge">
<title>Node2&#45;&gt;Node3</title>
<path fill="none" stroke="midnightblue" d="M177,-122.3C161.47,-139.28 135.77,-164.91 109,-181 102.83,-184.71 95.83,-187.85 88.98,-190.44"/>
<polygon fill="midnightblue" stroke="midnightblue" points="179.7,-124.53 183.76,-114.74 174.49,-119.86 179.7,-124.53"/>
</g>
<!-- Node4 -->
<g id="node4" class="node">
<title>Node4</title>
<g id="a_node4"><a xlink:href="finiparser_8c.html#ad08f4425404638785a73b66059419d71" target="_top" xlink:title=" ">
<polygon fill="white" stroke="black" points="9.5,-152.5 9.5,-171.5 99.5,-171.5 99.5,-152.5 9.5,-152.5"/>
<text text-anchor="middle" x="54.5" y="-159.5" font-family="Helvetica,sans-Serif" font-size="10.00">finiparser_getDbl</text>
</a>
</g>
</g>
<!-- Node2&#45;&gt;Node4 -->
<g id="edge3" class="edge">
<title>Node2&#45;&gt;Node4</title>
<path fill="none" stroke="midnightblue" d="M163.16,-118.96C147.32,-126.44 127.24,-135.6 109,-143 100.96,-146.26 92.13,-149.52 84,-152.4"/>
<polygon fill="midnightblue" stroke="midnightblue" points="164.9,-122.01 172.42,-114.55 161.89,-115.69 164.9,-122.01"/>
</g>
<!-- Node5 -->
<g id="node5" class="node">
<title>Node5</title>
<g id="a_node5"><a xlink:href="finiparser_8c.html#aaef85ca18e5713c1fe95602d287523f7" target="_top" xlink:title=" ">
<polygon fill="white" stroke="black" points="4,-114.5 4,-133.5 105,-133.5 105,-114.5 4,-114.5"/>
<text text-anchor="middle" x="54.5" y="-121.5" font-family="Helvetica,sans-Serif" font-size="10.00">finiparser_getString</text>
</a>
</g>
</g>
<!-- Node2&#45;&gt;Node5 -->
<g id="edge4" class="edge">
<title>Node2&#45;&gt;Node5</title>
<path fill="none" stroke="midnightblue" d="M134.58,-112.99C124.78,-114.36 114.67,-115.76 105.09,-117.1"/>
<polygon fill="midnightblue" stroke="midnightblue" points="135.22,-116.44 144.64,-111.59 134.25,-109.5 135.22,-116.44"/>
</g>
<!-- Node6 -->
<g id="node6" class="node">
<title>Node6</title>
<g id="a_node6"><a xlink:href="iniparser_8c.html#acd872a1e8c56f23a79ab2f2f7a26a7ac" target="_top" xlink:title="Finds out if a given entry exists in a dictionary.">
<polygon fill="white" stroke="red" points="4,-76.5 4,-95.5 105,-95.5 105,-76.5 4,-76.5"/>
<text text-anchor="middle" x="54.5" y="-83.5" font-family="Helvetica,sans-Serif" font-size="10.00">iniparser_find_entry</text>
</a>
</g>
</g>
<!-- Node2&#45;&gt;Node6 -->
<g id="edge5" class="edge">
<title>Node2&#45;&gt;Node6</title>
<path fill="none" stroke="midnightblue" d="M134.58,-97.01C124.78,-95.64 114.67,-94.24 105.09,-92.9"/>
<polygon fill="midnightblue" stroke="midnightblue" points="134.25,-100.5 144.64,-98.41 135.22,-93.56 134.25,-100.5"/>
</g>
<!-- Node12 -->
<g id="node7" class="node">
<title>Node12</title>
<g id="a_node7"><a xlink:href="iniparser_8c.html#afa30800883e2853074c038467f5fde2b" target="_top" xlink:title="Get the string associated to a key, convert to a boolean.">
<polygon fill="white" stroke="red" points="1.5,-38.5 1.5,-57.5 107.5,-57.5 107.5,-38.5 1.5,-38.5"/>
<text text-anchor="middle" x="54.5" y="-45.5" font-family="Helvetica,sans-Serif" font-size="10.00">iniparser_getboolean</text>
</a>
</g>
</g>
<!-- Node2&#45;&gt;Node12 -->
<g id="edge6" class="edge">
<title>Node2&#45;&gt;Node12</title>
<path fill="none" stroke="midnightblue" d="M157.65,-91.59C153.36,-89.77 149.06,-87.89 145,-86 128.59,-78.38 125.57,-74.27 109,-67 101.24,-63.59 92.65,-60.33 84.67,-57.5"/>
<polygon fill="midnightblue" stroke="midnightblue" points="156.34,-94.83 166.92,-95.41 159.01,-88.36 156.34,-94.83"/>
</g>
<!-- Node14 -->
<g id="node8" class="node">
<title>Node14</title>
<g id="a_node8"><a xlink:href="iniparser_8c.html#a18d3a09e99a0ac212010edc3f0365379" target="_top" xlink:title="Get the string associated to a key, convert to a double.">
<polygon fill="white" stroke="black" points="4,-0.5 4,-19.5 105,-19.5 105,-0.5 4,-0.5"/>
<text text-anchor="middle" x="54.5" y="-7.5" font-family="Helvetica,sans-Serif" font-size="10.00">iniparser_getdouble</text>
</a>
</g>
</g>
<!-- Node2&#45;&gt;Node14 -->
<g id="edge7" class="edge">
<title>Node2&#45;&gt;Node14</title>
<path fill="none" stroke="midnightblue" d="M151.27,-90.52C149.06,-89.13 146.95,-87.63 145,-86 122,-66.79 132.4,-47.71 109,-29 104.15,-25.12 98.45,-22 92.6,-19.5"/>
<polygon fill="midnightblue" stroke="midnightblue" points="149.66,-93.63 160.13,-95.29 152.98,-87.47 149.66,-93.63"/>
</g>
</g>
</svg>
