<?xml version="1.0" encoding="UTF-8" standalone="no"?>
<!DOCTYPE svg PUBLIC "-//W3C//DTD SVG 1.1//EN"
 "http://www.w3.org/Graphics/SVG/1.1/DTD/svg11.dtd">
<!-- Generated by graphviz version 2.46.0 (0)
 -->
<!-- Title: iniparser_getstring Pages: 1 -->
<svg width="414pt" height="256pt"
 viewBox="0.00 0.00 414.00 256.00" xmlns="http://www.w3.org/2000/svg" xmlns:xlink="http://www.w3.org/1999/xlink">
<g id="graph0" class="graph" transform="scale(1 1) rotate(0) translate(4 252)">
<title>iniparser_getstring</title>
<polygon fill="white" stroke="transparent" points="-4,4 -4,-252 410,-252 410,4 -4,4"/>
<!-- Node1 -->
<g id="node1" class="node">
<title>Node1</title>
<g id="a_node1"><a xlink:title="Get the string associated to a key.">
<polygon fill="#bfbfbf" stroke="black" points="310,-114.5 310,-133.5 406,-133.5 406,-114.5 310,-114.5"/>
<text text-anchor="middle" x="358" y="-121.5" font-family="Helvetica,sans-Serif" font-size="10.00">iniparser_getstring</text>
</a>
</g>
</g>
<!-- Node2 -->
<g id="node2" class="node">
<title>Node2</title>
<g id="a_node2"><a xlink:href="finiparser_8c.html#a01f307219b181cbb452a59d547b74e54" target="_top" xlink:title=" ">
<polygon fill="white" stroke="black" points="165,-228.5 165,-247.5 274,-247.5 274,-228.5 165,-228.5"/>
<text text-anchor="middle" x="219.5" y="-235.5" font-family="Helvetica,sans-Serif" font-size="10.00">finiparser_findTokens</text>
</a>
</g>
</g>
<!-- Node1&#45;&gt;Node2 -->
<g id="edge1" class="edge">
<title>Node1&#45;&gt;Node2</title>
<path fill="none" stroke="midnightblue" d="M345.58,-141.93C331.25,-163.1 304.77,-198.09 274,-219 268.46,-222.77 262.08,-225.87 255.71,-228.41"/>
<polygon fill="midnightblue" stroke="midnightblue" points="348.54,-143.8 351.12,-133.52 342.7,-139.94 348.54,-143.8"/>
</g>
<!-- Node3 -->
<g id="node3" class="node">
<title>Node3</title>
<g id="a_node3"><a xlink:href="finiparser_8c.html#ad08f4425404638785a73b66059419d71" target="_top" xlink:title=" ">
<polygon fill="white" stroke="black" points="174.5,-190.5 174.5,-209.5 264.5,-209.5 264.5,-190.5 174.5,-190.5"/>
<text text-anchor="middle" x="219.5" y="-197.5" font-family="Helvetica,sans-Serif" font-size="10.00">finiparser_getDbl</text>
</a>
</g>
</g>
<!-- Node1&#45;&gt;Node3 -->
<g id="edge2" class="edge">
<title>Node1&#45;&gt;Node3</title>
<path fill="none" stroke="midnightblue" d="M337.06,-139.9C320.8,-152.31 296.86,-169.34 274,-181 266.98,-184.58 259.12,-187.78 251.63,-190.49"/>
<polygon fill="midnightblue" stroke="midnightblue" points="339.49,-142.44 345.25,-133.55 335.2,-136.91 339.49,-142.44"/>
</g>
<!-- Node4 -->
<g id="node4" class="node">
<title>Node4</title>
<g id="a_node4"><a xlink:href="finiparser_8c.html#aaef85ca18e5713c1fe95602d287523f7" target="_top" xlink:title=" ">
<polygon fill="white" stroke="black" points="169,-152.5 169,-171.5 270,-171.5 270,-152.5 169,-152.5"/>
<text text-anchor="middle" x="219.5" y="-159.5" font-family="Helvetica,sans-Serif" font-size="10.00">finiparser_getString</text>
</a>
</g>
</g>
<!-- Node1&#45;&gt;Node4 -->
<g id="edge3" class="edge">
<title>Node1&#45;&gt;Node4</title>
<path fill="none" stroke="midnightblue" d="M312.75,-136.32C294,-141.54 272.47,-147.53 254.93,-152.41"/>
<polygon fill="midnightblue" stroke="midnightblue" points="313.86,-139.64 322.56,-133.59 311.98,-132.9 313.86,-139.64"/>
</g>
<!-- Node5 -->
<g id="node5" class="node">
<title>Node5</title>
<g id="a_node5"><a xlink:href="iniparser_8c.html#acd872a1e8c56f23a79ab2f2f7a26a7ac" target="_top" xlink:title="Finds out if a given entry exists in a dictionary.">
<polygon fill="white" stroke="red" points="169,-114.5 169,-133.5 270,-133.5 270,-114.5 169,-114.5"/>
<text text-anchor="middle" x="219.5" y="-121.5" font-family="Helvetica,sans-Serif" font-size="10.00">iniparser_find_entry</text>
</a>
</g>
</g>
<!-- Node1&#45;&gt;Node5 -->
<g id="edge4" class="edge">
<title>Node1&#45;&gt;Node5</title>
<path fill="none" stroke="midnightblue" d="M299.58,-124C289.78,-124 279.67,-124 270.09,-124"/>
<polygon fill="midnightblue" stroke="midnightblue" points="299.64,-127.5 309.64,-124 299.64,-120.5 299.64,-127.5"/>
</g>
<!-- Node11 -->
<g id="node8" class="node">
<title>Node11</title>
<g id="a_node8"><a xlink:href="iniparser_8c.html#afa30800883e2853074c038467f5fde2b" target="_top" xlink:title="Get the string associated to a key, convert to a boolean.">
<polygon fill="white" stroke="red" points="166.5,-76.5 166.5,-95.5 272.5,-95.5 272.5,-76.5 166.5,-76.5"/>
<text text-anchor="middle" x="219.5" y="-83.5" font-family="Helvetica,sans-Serif" font-size="10.00">iniparser_getboolean</text>
</a>
</g>
</g>
<!-- Node1&#45;&gt;Node11 -->
<g id="edge7" class="edge">
<title>Node1&#45;&gt;Node11</title>
<path fill="none" stroke="midnightblue" d="M312.75,-111.68C294,-106.46 272.47,-100.47 254.93,-95.59"/>
<polygon fill="midnightblue" stroke="midnightblue" points="311.98,-115.1 322.56,-114.41 313.86,-108.36 311.98,-115.1"/>
</g>
<!-- Node13 -->
<g id="node9" class="node">
<title>Node13</title>
<g id="a_node9"><a xlink:href="iniparser_8c.html#a18d3a09e99a0ac212010edc3f0365379" target="_top" xlink:title="Get the string associated to a key, convert to a double.">
<polygon fill="white" stroke="black" points="169,-38.5 169,-57.5 270,-57.5 270,-38.5 169,-38.5"/>
<text text-anchor="middle" x="219.5" y="-45.5" font-family="Helvetica,sans-Serif" font-size="10.00">iniparser_getdouble</text>
</a>
</g>
</g>
<!-- Node1&#45;&gt;Node13 -->
<g id="edge8" class="edge">
<title>Node1&#45;&gt;Node13</title>
<path fill="none" stroke="midnightblue" d="M337.06,-108.1C320.8,-95.69 296.86,-78.66 274,-67 266.98,-63.42 259.12,-60.22 251.63,-57.51"/>
<polygon fill="midnightblue" stroke="midnightblue" points="335.2,-111.09 345.25,-114.45 339.49,-105.56 335.2,-111.09"/>
</g>
<!-- Node14 -->
<g id="node10" class="node">
<title>Node14</title>
<g id="a_node10"><a xlink:href="iniparser_8c.html#a97f70bc64c6e32b8f4df50f884400fd8" target="_top" xlink:title="Get the string associated to a key, convert to an int.">
<polygon fill="white" stroke="black" points="178,-0.5 178,-19.5 261,-19.5 261,-0.5 178,-0.5"/>
<text text-anchor="middle" x="219.5" y="-7.5" font-family="Helvetica,sans-Serif" font-size="10.00">iniparser_getint</text>
</a>
</g>
</g>
<!-- Node1&#45;&gt;Node14 -->
<g id="edge9" class="edge">
<title>Node1&#45;&gt;Node14</title>
<path fill="none" stroke="midnightblue" d="M345.58,-106.07C331.25,-84.9 304.77,-49.91 274,-29 268.46,-25.23 262.08,-22.13 255.71,-19.59"/>
<polygon fill="midnightblue" stroke="midnightblue" points="342.7,-108.06 351.12,-114.48 348.54,-104.2 342.7,-108.06"/>
</g>
<!-- Node6 -->
<g id="node6" class="node">
<title>Node6</title>
<g id="a_node6"><a xlink:href="finiparser_8c.html#abd2fb32ad54775a69dfa8c9a1e0d28a6" target="_top" xlink:title=" ">
<polygon fill="white" stroke="black" points="26,-133.5 26,-152.5 103,-152.5 103,-133.5 26,-133.5"/>
<text text-anchor="middle" x="64.5" y="-140.5" font-family="Helvetica,sans-Serif" font-size="10.00">finiparser_find</text>
</a>
</g>
</g>
<!-- Node5&#45;&gt;Node6 -->
<g id="edge5" class="edge">
<title>Node5&#45;&gt;Node6</title>
<path fill="none" stroke="midnightblue" d="M158.64,-131.43C140,-133.75 119.98,-136.23 103.29,-138.31"/>
<polygon fill="midnightblue" stroke="midnightblue" points="159.33,-134.87 168.83,-130.17 158.47,-127.93 159.33,-134.87"/>
</g>
<!-- Node7 -->
<g id="node7" class="node">
<title>Node7</title>
<g id="a_node7"><a xlink:href="iniparser_8c.html#a790111c03777a5377712b5ea78431637" target="_top" xlink:title="Save a dictionary section to a loadable ini file.">
<polygon fill="white" stroke="red" points="0,-95.5 0,-114.5 129,-114.5 129,-95.5 0,-95.5"/>
<text text-anchor="middle" x="64.5" y="-102.5" font-family="Helvetica,sans-Serif" font-size="10.00">iniparser_dumpsection_ini</text>
</a>
</g>
</g>
<!-- Node5&#45;&gt;Node7 -->
<g id="edge6" class="edge">
<title>Node5&#45;&gt;Node7</title>
<path fill="none" stroke="midnightblue" d="M158.84,-116.59C149.11,-115.38 138.99,-114.13 129.16,-112.9"/>
<polygon fill="midnightblue" stroke="midnightblue" points="158.47,-120.07 168.83,-117.83 159.33,-113.13 158.47,-120.07"/>
</g>
</g>
</svg>
