<?xml version="1.0" encoding="UTF-8" standalone="no"?>
<!DOCTYPE svg PUBLIC "-//W3C//DTD SVG 1.1//EN"
 "http://www.w3.org/Graphics/SVG/1.1/DTD/svg11.dtd">
<!-- Generated by graphviz version 2.46.0 (0)
 -->
<!-- Title: iniparser_set Pages: 1 -->
<svg width="314pt" height="66pt"
 viewBox="0.00 0.00 314.00 66.00" xmlns="http://www.w3.org/2000/svg" xmlns:xlink="http://www.w3.org/1999/xlink">
<g id="graph0" class="graph" transform="scale(1 1) rotate(0) translate(4 62)">
<title>iniparser_set</title>
<polygon fill="white" stroke="transparent" points="-4,4 -4,-62 310,-62 310,4 -4,4"/>
<!-- Node1 -->
<g id="node1" class="node">
<title>Node1</title>
<g id="a_node1"><a xlink:title="Set an entry in a dictionary.">
<polygon fill="#bfbfbf" stroke="black" points="0,-19.5 0,-38.5 72,-38.5 72,-19.5 0,-19.5"/>
<text text-anchor="middle" x="36" y="-26.5" font-family="Helvetica,sans-Serif" font-size="10.00">iniparser_set</text>
</a>
</g>
</g>
<!-- Node2 -->
<g id="node2" class="node">
<title>Node2</title>
<g id="a_node2"><a xlink:href="dictionary_8c.html#aca582586180a1cd058017e337250848d" target="_top" xlink:title="Set a value in a dictionary.">
<polygon fill="white" stroke="black" points="108,-38.5 108,-57.5 185,-57.5 185,-38.5 108,-38.5"/>
<text text-anchor="middle" x="146.5" y="-45.5" font-family="Helvetica,sans-Serif" font-size="10.00">dictionary_set</text>
</a>
</g>
</g>
<!-- Node1&#45;&gt;Node2 -->
<g id="edge1" class="edge">
<title>Node1&#45;&gt;Node2</title>
<path fill="none" stroke="midnightblue" d="M72.23,-35.17C80.41,-36.6 89.25,-38.15 97.87,-39.66"/>
<polygon fill="midnightblue" stroke="midnightblue" points="97.38,-43.13 107.83,-41.4 98.59,-36.23 97.38,-43.13"/>
</g>
<!-- Node4 -->
<g id="node4" class="node">
<title>Node4</title>
<g id="a_node4"><a xlink:href="iniparser_8c.html#a427d5fbf1dca7f817ee5f4af7f9bc6e3" target="_top" xlink:title="Convert a string to lowercase.">
<polygon fill="white" stroke="black" points="125,-0.5 125,-19.5 168,-19.5 168,-0.5 125,-0.5"/>
<text text-anchor="middle" x="146.5" y="-7.5" font-family="Helvetica,sans-Serif" font-size="10.00">strlwc</text>
</a>
</g>
</g>
<!-- Node1&#45;&gt;Node4 -->
<g id="edge3" class="edge">
<title>Node1&#45;&gt;Node4</title>
<path fill="none" stroke="midnightblue" d="M72.23,-22.83C86,-20.42 101.64,-17.68 114.92,-15.35"/>
<polygon fill="midnightblue" stroke="midnightblue" points="115.74,-18.76 124.99,-13.59 114.54,-11.87 115.74,-18.76"/>
</g>
<!-- Node3 -->
<g id="node3" class="node">
<title>Node3</title>
<g id="a_node3"><a xlink:href="dictionary_8c.html#a7c1ef0a729e668d1e8d6a7e774feaf2e" target="_top" xlink:title="Compute the hash key for a string.">
<polygon fill="white" stroke="black" points="221,-38.5 221,-57.5 306,-57.5 306,-38.5 221,-38.5"/>
<text text-anchor="middle" x="263.5" y="-45.5" font-family="Helvetica,sans-Serif" font-size="10.00">dictionary_hash</text>
</a>
</g>
</g>
<!-- Node2&#45;&gt;Node3 -->
<g id="edge2" class="edge">
<title>Node2&#45;&gt;Node3</title>
<path fill="none" stroke="midnightblue" d="M185.16,-48C193.35,-48 202.15,-48 210.78,-48"/>
<polygon fill="midnightblue" stroke="midnightblue" points="210.78,-51.5 220.78,-48 210.78,-44.5 210.78,-51.5"/>
</g>
</g>
</svg>
