<?xml version="1.0" encoding="UTF-8" standalone="no"?>
<!DOCTYPE svg PUBLIC "-//W3C//DTD SVG 1.1//EN"
 "http://www.w3.org/Graphics/SVG/1.1/DTD/svg11.dtd">
<!-- Generated by graphviz version 2.46.0 (0)
 -->
<!-- Title: interp_setup Pages: 1 -->
<svg width="350pt" height="294pt"
 viewBox="0.00 0.00 350.00 294.00" xmlns="http://www.w3.org/2000/svg" xmlns:xlink="http://www.w3.org/1999/xlink">
<g id="graph0" class="graph" transform="scale(1 1) rotate(0) translate(4 290)">
<title>interp_setup</title>
<polygon fill="white" stroke="transparent" points="-4,4 -4,-290 346,-290 346,4 -4,4"/>
<!-- Node1 -->
<g id="node1" class="node">
<title>Node1</title>
<g id="a_node1"><a xlink:title=" ">
<polygon fill="#bfbfbf" stroke="black" points="0,-133.5 0,-152.5 70,-152.5 70,-133.5 0,-133.5"/>
<text text-anchor="middle" x="35" y="-140.5" font-family="Helvetica,sans-Serif" font-size="10.00">interp_setup</text>
</a>
</g>
</g>
<!-- Node2 -->
<g id="node2" class="node">
<title>Node2</title>
<g id="a_node2"><a xlink:href="comm__mpi_8f.html#a59fcf8a02fe54ab37f61050e3ca6b197" target="_top" xlink:title=" ">
<polygon fill="white" stroke="black" points="123.5,-190.5 123.5,-209.5 161.5,-209.5 161.5,-190.5 123.5,-190.5"/>
<text text-anchor="middle" x="142.5" y="-197.5" font-family="Helvetica,sans-Serif" font-size="10.00">exitti</text>
</a>
</g>
</g>
<!-- Node1&#45;&gt;Node2 -->
<g id="edge1" class="edge">
<title>Node1&#45;&gt;Node2</title>
<path fill="none" stroke="midnightblue" d="M53.9,-152.67C70.67,-161.73 95.95,-175.39 115.05,-185.71"/>
<polygon fill="midnightblue" stroke="midnightblue" points="113.41,-188.8 123.87,-190.47 116.73,-182.64 113.41,-188.8"/>
</g>
<!-- Node9 -->
<g id="node7" class="node">
<title>Node9</title>
<g id="a_node7"><a xlink:href="navier8_8f.html#a8b6e50cdeb42b0751c582c0e11893f99" target="_top" xlink:title=" ">
<polygon fill="white" stroke="black" points="106,-76.5 106,-95.5 179,-95.5 179,-76.5 106,-76.5"/>
<text text-anchor="middle" x="142.5" y="-83.5" font-family="Helvetica,sans-Serif" font-size="10.00">map_m_to_n</text>
</a>
</g>
</g>
<!-- Node1&#45;&gt;Node9 -->
<g id="edge6" class="edge">
<title>Node1&#45;&gt;Node9</title>
<path fill="none" stroke="midnightblue" d="M53.9,-133.33C70.67,-124.27 95.95,-110.61 115.05,-100.29"/>
<polygon fill="midnightblue" stroke="midnightblue" points="116.73,-103.36 123.87,-95.53 113.41,-97.2 116.73,-103.36"/>
</g>
<!-- Node3 -->
<g id="node3" class="node">
<title>Node3</title>
<g id="a_node3"><a xlink:href="math_8f.html#a692155d1d2ec380a9fdb2d81ef221625" target="_top" xlink:title=" ">
<polygon fill="white" stroke="black" points="223,-266.5 223,-285.5 263,-285.5 263,-266.5 223,-266.5"/>
<text text-anchor="middle" x="243" y="-273.5" font-family="Helvetica,sans-Serif" font-size="10.00">blank</text>
</a>
</g>
</g>
<!-- Node2&#45;&gt;Node3 -->
<g id="edge2" class="edge">
<title>Node2&#45;&gt;Node3</title>
<path fill="none" stroke="midnightblue" d="M155.47,-209.91C169.53,-221.46 193.66,-241.01 215,-257 216.58,-258.19 218.23,-259.4 219.89,-260.61"/>
<polygon fill="midnightblue" stroke="midnightblue" points="217.98,-263.54 228.15,-266.49 222.04,-257.84 217.98,-263.54"/>
</g>
<!-- Node4 -->
<g id="node4" class="node">
<title>Node4</title>
<g id="a_node4"><a xlink:href="math_8f.html#ad7fb480cea001849621405f37167aab1" target="_top" xlink:title=" ">
<polygon fill="white" stroke="black" points="219,-228.5 219,-247.5 267,-247.5 267,-228.5 219,-228.5"/>
<text text-anchor="middle" x="243" y="-235.5" font-family="Helvetica,sans-Serif" font-size="10.00">chcopy</text>
</a>
</g>
</g>
<!-- Node2&#45;&gt;Node4 -->
<g id="edge3" class="edge">
<title>Node2&#45;&gt;Node4</title>
<path fill="none" stroke="midnightblue" d="M161.57,-206.97C174.9,-212.12 193.43,-219.26 209.33,-225.4"/>
<polygon fill="midnightblue" stroke="midnightblue" points="208.24,-228.73 218.83,-229.06 210.76,-222.2 208.24,-228.73"/>
</g>
<!-- Node5 -->
<g id="node5" class="node">
<title>Node5</title>
<g id="a_node5"><a xlink:href="byte_8c.html#a2da8eeb074dfd3ffbfb3e9a4d301cda4" target="_top" xlink:title=" ">
<polygon fill="white" stroke="red" points="307,-114.5 307,-133.5 342,-133.5 342,-114.5 307,-114.5"/>
<text text-anchor="middle" x="324.5" y="-121.5" font-family="Helvetica,sans-Serif" font-size="10.00">exitt</text>
</a>
</g>
</g>
<!-- Node2&#45;&gt;Node5 -->
<g id="edge4" class="edge">
<title>Node2&#45;&gt;Node5</title>
<path fill="none" stroke="midnightblue" d="M161.56,-200.97C187.37,-201.57 235.6,-199.75 271,-181 288.19,-171.89 302.72,-154.88 312.1,-141.81"/>
<polygon fill="midnightblue" stroke="midnightblue" points="315,-143.76 317.74,-133.53 309.22,-139.82 315,-143.76"/>
</g>
<!-- Node8 -->
<g id="node6" class="node">
<title>Node8</title>
<g id="a_node6"><a xlink:href="ic_8f.html#ada3a2c3283a9052e1fe4b7a90375b09b" target="_top" xlink:title=" ">
<polygon fill="white" stroke="black" points="223,-152.5 223,-171.5 263,-171.5 263,-152.5 223,-152.5"/>
<text text-anchor="middle" x="243" y="-159.5" font-family="Helvetica,sans-Serif" font-size="10.00">indx1</text>
</a>
</g>
</g>
<!-- Node2&#45;&gt;Node8 -->
<g id="edge5" class="edge">
<title>Node2&#45;&gt;Node8</title>
<path fill="none" stroke="midnightblue" d="M161.57,-193.03C175.92,-187.49 196.27,-179.64 212.91,-173.22"/>
<polygon fill="midnightblue" stroke="midnightblue" points="214.63,-176.31 222.7,-169.45 212.11,-169.78 214.63,-176.31"/>
</g>
<!-- Node9&#45;&gt;Node5 -->
<g id="edge7" class="edge">
<title>Node9&#45;&gt;Node5</title>
<path fill="none" stroke="midnightblue" d="M177.18,-95.59C189.07,-98.81 202.58,-102.27 215,-105 242.77,-111.11 274.88,-116.53 296.92,-120"/>
<polygon fill="midnightblue" stroke="midnightblue" points="296.45,-123.47 306.87,-121.54 297.52,-116.55 296.45,-123.47"/>
</g>
<!-- Node10 -->
<g id="node8" class="node">
<title>Node10</title>
<g id="a_node8"><a xlink:href="speclib_8f.html#ab14f01571bb13d5185f4a8b163c1958a" target="_top" xlink:title=" ">
<polygon fill="white" stroke="red" points="224.5,-76.5 224.5,-95.5 261.5,-95.5 261.5,-76.5 224.5,-76.5"/>
<text text-anchor="middle" x="243" y="-83.5" font-family="Helvetica,sans-Serif" font-size="10.00">igllm</text>
</a>
</g>
</g>
<!-- Node9&#45;&gt;Node10 -->
<g id="edge8" class="edge">
<title>Node9&#45;&gt;Node10</title>
<path fill="none" stroke="midnightblue" d="M179.06,-86C190.63,-86 203.3,-86 214.22,-86"/>
<polygon fill="midnightblue" stroke="midnightblue" points="214.45,-89.5 224.45,-86 214.45,-82.5 214.45,-89.5"/>
</g>
<!-- Node14 -->
<g id="node9" class="node">
<title>Node14</title>
<g id="a_node9"><a xlink:href="navier8_8f.html#a5c307bcd1af1a0036e75f65db3d06e39" target="_top" xlink:title=" ">
<polygon fill="white" stroke="black" points="215,-38.5 215,-57.5 271,-57.5 271,-38.5 215,-38.5"/>
<text text-anchor="middle" x="243" y="-45.5" font-family="Helvetica,sans-Serif" font-size="10.00">specmpn</text>
</a>
</g>
</g>
<!-- Node9&#45;&gt;Node14 -->
<g id="edge9" class="edge">
<title>Node9&#45;&gt;Node14</title>
<path fill="none" stroke="midnightblue" d="M168.36,-76.41C180.25,-71.82 194.69,-66.25 207.63,-61.26"/>
<polygon fill="midnightblue" stroke="midnightblue" points="209.08,-64.45 217.15,-57.59 206.56,-57.92 209.08,-64.45"/>
</g>
<!-- Node15 -->
<g id="node10" class="node">
<title>Node15</title>
<g id="a_node10"><a xlink:href="speclib_8f.html#a3788ff93193b0428aad51e76c6ed2e18" target="_top" xlink:title=" ">
<polygon fill="white" stroke="red" points="223.5,-0.5 223.5,-19.5 262.5,-19.5 262.5,-0.5 223.5,-0.5"/>
<text text-anchor="middle" x="243" y="-7.5" font-family="Helvetica,sans-Serif" font-size="10.00">zwgll</text>
</a>
</g>
</g>
<!-- Node9&#45;&gt;Node15 -->
<g id="edge11" class="edge">
<title>Node9&#45;&gt;Node15</title>
<path fill="none" stroke="midnightblue" d="M155.47,-76.09C169.53,-64.54 193.66,-44.99 215,-29 216.58,-27.81 218.23,-26.6 219.89,-25.39"/>
<polygon fill="midnightblue" stroke="midnightblue" points="222.04,-28.16 228.15,-19.51 217.98,-22.46 222.04,-28.16"/>
</g>
<!-- Node14&#45;&gt;Node5 -->
<g id="edge10" class="edge">
<title>Node14&#45;&gt;Node5</title>
<path fill="none" stroke="midnightblue" d="M258.72,-57.51C262.83,-60.39 267.21,-63.67 271,-67 284.84,-79.13 298.88,-94.58 308.95,-106.33"/>
<polygon fill="midnightblue" stroke="midnightblue" points="306.41,-108.74 315.53,-114.13 311.76,-104.23 306.41,-108.74"/>
</g>
</g>
</svg>
