<?xml version="1.0" encoding="UTF-8" standalone="no"?>
<!DOCTYPE svg PUBLIC "-//W3C//DTD SVG 1.1//EN"
 "http://www.w3.org/Graphics/SVG/1.1/DTD/svg11.dtd">
<!-- Generated by graphviz version 2.46.0 (0)
 -->
<!-- Title: lb_setqvol Pages: 1 -->
<svg width="421pt" height="218pt"
 viewBox="0.00 0.00 421.00 218.00" xmlns="http://www.w3.org/2000/svg" xmlns:xlink="http://www.w3.org/1999/xlink">
<g id="graph0" class="graph" transform="scale(1 1) rotate(0) translate(4 214)">
<title>lb_setqvol</title>
<polygon fill="white" stroke="transparent" points="-4,4 -4,-214 417,-214 417,4 -4,4"/>
<!-- Node1 -->
<g id="node1" class="node">
<title>Node1</title>
<g id="a_node1"><a xlink:title=" ">
<polygon fill="#bfbfbf" stroke="black" points="0,-76.5 0,-95.5 61,-95.5 61,-76.5 0,-76.5"/>
<text text-anchor="middle" x="30.5" y="-83.5" font-family="Helvetica,sans-Serif" font-size="10.00">lb_setqvol</text>
</a>
</g>
</g>
<!-- Node2 -->
<g id="node2" class="node">
<title>Node2</title>
<g id="a_node2"><a xlink:href="lb__setqvol_8f.html#aeb2fee7160f5d8a7246d5814ac1ac517" target="_top" xlink:title=" ">
<polygon fill="white" stroke="black" points="97,-76.5 97,-95.5 190,-95.5 190,-76.5 97,-76.5"/>
<text text-anchor="middle" x="143.5" y="-83.5" font-family="Helvetica,sans-Serif" font-size="10.00">lb_process_items</text>
</a>
</g>
</g>
<!-- Node1&#45;&gt;Node2 -->
<g id="edge1" class="edge">
<title>Node1&#45;&gt;Node2</title>
<path fill="none" stroke="midnightblue" d="M61.25,-86C69.09,-86 77.82,-86 86.57,-86"/>
<polygon fill="midnightblue" stroke="midnightblue" points="86.78,-89.5 96.78,-86 86.78,-82.5 86.78,-89.5"/>
</g>
<!-- Node3 -->
<g id="node3" class="node">
<title>Node3</title>
<g id="a_node3"><a xlink:href="comm__mpi_8f.html#af434902df36175d2afdc00fbabc84b2c" target="_top" xlink:title=" ">
<polygon fill="white" stroke="black" points="226,-152.5 226,-171.5 313,-171.5 313,-152.5 226,-152.5"/>
<text text-anchor="middle" x="269.5" y="-159.5" font-family="Helvetica,sans-Serif" font-size="10.00">dnekclock_sync</text>
</a>
</g>
</g>
<!-- Node2&#45;&gt;Node3 -->
<g id="edge2" class="edge">
<title>Node2&#45;&gt;Node3</title>
<path fill="none" stroke="midnightblue" d="M156.72,-95.66C172.25,-107.66 200.16,-128.36 226,-143 229.05,-144.73 232.28,-146.41 235.55,-148.02"/>
<polygon fill="midnightblue" stroke="midnightblue" points="234.18,-151.25 244.72,-152.33 237.16,-144.91 234.18,-151.25"/>
</g>
<!-- Node7 -->
<g id="node6" class="node">
<title>Node7</title>
<g id="a_node6"><a xlink:href="comm__mpi_8f.html#a59fcf8a02fe54ab37f61050e3ca6b197" target="_top" xlink:title=" ">
<polygon fill="white" stroke="red" points="250.5,-114.5 250.5,-133.5 288.5,-133.5 288.5,-114.5 250.5,-114.5"/>
<text text-anchor="middle" x="269.5" y="-121.5" font-family="Helvetica,sans-Serif" font-size="10.00">exitti</text>
</a>
</g>
</g>
<!-- Node2&#45;&gt;Node7 -->
<g id="edge5" class="edge">
<title>Node2&#45;&gt;Node7</title>
<path fill="none" stroke="midnightblue" d="M175.79,-95.59C195.74,-101.7 221.36,-109.55 240.61,-115.45"/>
<polygon fill="midnightblue" stroke="midnightblue" points="239.72,-118.84 250.3,-118.42 241.77,-112.15 239.72,-118.84"/>
</g>
<!-- Node14 -->
<g id="node8" class="node">
<title>Node14</title>
<g id="a_node8"><a xlink:href="math_8f.html#a8cd712001d12f5f4a00ef98937109e47" target="_top" xlink:title=" ">
<polygon fill="white" stroke="red" points="244.5,-76.5 244.5,-95.5 294.5,-95.5 294.5,-76.5 244.5,-76.5"/>
<text text-anchor="middle" x="269.5" y="-83.5" font-family="Helvetica,sans-Serif" font-size="10.00">i8glsum</text>
</a>
</g>
</g>
<!-- Node2&#45;&gt;Node14 -->
<g id="edge7" class="edge">
<title>Node2&#45;&gt;Node14</title>
<path fill="none" stroke="midnightblue" d="M190.32,-86C204.8,-86 220.55,-86 234.09,-86"/>
<polygon fill="midnightblue" stroke="midnightblue" points="234.41,-89.5 244.41,-86 234.41,-82.5 234.41,-89.5"/>
</g>
<!-- Node22 -->
<g id="node9" class="node">
<title>Node22</title>
<g id="a_node9"><a xlink:href="math_8f.html#a8431e1799f5711943b2e061a602754ca" target="_top" xlink:title=" ">
<polygon fill="white" stroke="red" points="247,-38.5 247,-57.5 292,-57.5 292,-38.5 247,-38.5"/>
<text text-anchor="middle" x="269.5" y="-45.5" font-family="Helvetica,sans-Serif" font-size="10.00">iglmax</text>
</a>
</g>
</g>
<!-- Node2&#45;&gt;Node22 -->
<g id="edge8" class="edge">
<title>Node2&#45;&gt;Node22</title>
<path fill="none" stroke="midnightblue" d="M175.79,-76.41C194.64,-70.63 218.56,-63.3 237.39,-57.53"/>
<polygon fill="midnightblue" stroke="midnightblue" points="238.44,-60.87 246.98,-54.59 236.39,-54.18 238.44,-60.87"/>
</g>
<!-- Node25 -->
<g id="node10" class="node">
<title>Node25</title>
<g id="a_node10"><a xlink:href="math_8f.html#abddb480a4c33726fd422e964eff2a033" target="_top" xlink:title=" ">
<polygon fill="white" stroke="red" points="248.5,-0.5 248.5,-19.5 290.5,-19.5 290.5,-0.5 248.5,-0.5"/>
<text text-anchor="middle" x="269.5" y="-7.5" font-family="Helvetica,sans-Serif" font-size="10.00">iglmin</text>
</a>
</g>
</g>
<!-- Node2&#45;&gt;Node25 -->
<g id="edge9" class="edge">
<title>Node2&#45;&gt;Node25</title>
<path fill="none" stroke="midnightblue" d="M156.72,-76.34C172.25,-64.34 200.16,-43.64 226,-29 230.07,-26.7 234.46,-24.47 238.83,-22.39"/>
<polygon fill="midnightblue" stroke="midnightblue" points="240.56,-25.45 248.22,-18.13 237.67,-19.07 240.56,-25.45"/>
</g>
<!-- Node4 -->
<g id="node4" class="node">
<title>Node4</title>
<g id="a_node4"><a xlink:href="mpi__dummy_8f.html#ae6a5ef945f87c2c27849696b70f3af2a" target="_top" xlink:title=" ">
<polygon fill="white" stroke="black" points="349,-190.5 349,-209.5 413,-209.5 413,-190.5 349,-190.5"/>
<text text-anchor="middle" x="381" y="-197.5" font-family="Helvetica,sans-Serif" font-size="10.00">mpi_wtime</text>
</a>
</g>
</g>
<!-- Node3&#45;&gt;Node4 -->
<g id="edge3" class="edge">
<title>Node3&#45;&gt;Node4</title>
<path fill="none" stroke="midnightblue" d="M298.13,-171.59C311.62,-176.27 328.04,-181.97 342.63,-187.03"/>
<polygon fill="midnightblue" stroke="midnightblue" points="341.78,-190.44 352.38,-190.41 344.08,-183.83 341.78,-190.44"/>
</g>
<!-- Node5 -->
<g id="node5" class="node">
<title>Node5</title>
<g id="a_node5"><a xlink:href="comm__mpi_8f.html#a4acb4d8e379294232e9219bec063d8f3" target="_top" xlink:title=" ">
<polygon fill="white" stroke="red" points="351.5,-152.5 351.5,-171.5 410.5,-171.5 410.5,-152.5 351.5,-152.5"/>
<text text-anchor="middle" x="381" y="-159.5" font-family="Helvetica,sans-Serif" font-size="10.00">nekgsync</text>
</a>
</g>
</g>
<!-- Node3&#45;&gt;Node5 -->
<g id="edge4" class="edge">
<title>Node3&#45;&gt;Node5</title>
<path fill="none" stroke="midnightblue" d="M313.15,-162C322.49,-162 332.32,-162 341.48,-162"/>
<polygon fill="midnightblue" stroke="midnightblue" points="341.48,-165.5 351.48,-162 341.48,-158.5 341.48,-165.5"/>
</g>
<!-- Node8 -->
<g id="node7" class="node">
<title>Node8</title>
<g id="a_node7"><a xlink:href="math_8f.html#a692155d1d2ec380a9fdb2d81ef221625" target="_top" xlink:title=" ">
<polygon fill="white" stroke="black" points="361,-114.5 361,-133.5 401,-133.5 401,-114.5 361,-114.5"/>
<text text-anchor="middle" x="381" y="-121.5" font-family="Helvetica,sans-Serif" font-size="10.00">blank</text>
</a>
</g>
</g>
<!-- Node7&#45;&gt;Node8 -->
<g id="edge6" class="edge">
<title>Node7&#45;&gt;Node8</title>
<path fill="none" stroke="midnightblue" d="M288.58,-124C305.47,-124 330.97,-124 350.76,-124"/>
<polygon fill="midnightblue" stroke="midnightblue" points="350.79,-127.5 360.79,-124 350.79,-120.5 350.79,-127.5"/>
</g>
</g>
</svg>
