<?xml version="1.0" encoding="UTF-8" standalone="no"?>
<!DOCTYPE svg PUBLIC "-//W3C//DTD SVG 1.1//EN"
 "http://www.w3.org/Graphics/SVG/1.1/DTD/svg11.dtd">
<!-- Generated by graphviz version 2.46.0 (0)
 -->
<!-- Title: lb_process_items Pages: 1 -->
<svg width="324pt" height="218pt"
 viewBox="0.00 0.00 324.00 218.00" xmlns="http://www.w3.org/2000/svg" xmlns:xlink="http://www.w3.org/1999/xlink">
<g id="graph0" class="graph" transform="scale(1 1) rotate(0) translate(4 214)">
<title>lb_process_items</title>
<polygon fill="white" stroke="transparent" points="-4,4 -4,-214 320,-214 320,4 -4,4"/>
<!-- Node1 -->
<g id="node1" class="node">
<title>Node1</title>
<g id="a_node1"><a xlink:title=" ">
<polygon fill="#bfbfbf" stroke="black" points="0,-76.5 0,-95.5 93,-95.5 93,-76.5 0,-76.5"/>
<text text-anchor="middle" x="46.5" y="-83.5" font-family="Helvetica,sans-Serif" font-size="10.00">lb_process_items</text>
</a>
</g>
</g>
<!-- Node2 -->
<g id="node2" class="node">
<title>Node2</title>
<g id="a_node2"><a xlink:href="comm__mpi_8f.html#af434902df36175d2afdc00fbabc84b2c" target="_top" xlink:title=" ">
<polygon fill="white" stroke="black" points="129,-152.5 129,-171.5 216,-171.5 216,-152.5 129,-152.5"/>
<text text-anchor="middle" x="172.5" y="-159.5" font-family="Helvetica,sans-Serif" font-size="10.00">dnekclock_sync</text>
</a>
</g>
</g>
<!-- Node1&#45;&gt;Node2 -->
<g id="edge1" class="edge">
<title>Node1&#45;&gt;Node2</title>
<path fill="none" stroke="midnightblue" d="M59.72,-95.66C75.25,-107.66 103.16,-128.36 129,-143 132.05,-144.73 135.28,-146.41 138.55,-148.02"/>
<polygon fill="midnightblue" stroke="midnightblue" points="137.18,-151.25 147.72,-152.33 140.16,-144.91 137.18,-151.25"/>
</g>
<!-- Node6 -->
<g id="node5" class="node">
<title>Node6</title>
<g id="a_node5"><a xlink:href="comm__mpi_8f.html#a59fcf8a02fe54ab37f61050e3ca6b197" target="_top" xlink:title=" ">
<polygon fill="white" stroke="red" points="153.5,-114.5 153.5,-133.5 191.5,-133.5 191.5,-114.5 153.5,-114.5"/>
<text text-anchor="middle" x="172.5" y="-121.5" font-family="Helvetica,sans-Serif" font-size="10.00">exitti</text>
</a>
</g>
</g>
<!-- Node1&#45;&gt;Node6 -->
<g id="edge4" class="edge">
<title>Node1&#45;&gt;Node6</title>
<path fill="none" stroke="midnightblue" d="M78.79,-95.59C98.74,-101.7 124.36,-109.55 143.61,-115.45"/>
<polygon fill="midnightblue" stroke="midnightblue" points="142.72,-118.84 153.3,-118.42 144.77,-112.15 142.72,-118.84"/>
</g>
<!-- Node13 -->
<g id="node8" class="node">
<title>Node13</title>
<g id="a_node8"><a xlink:href="math_8f.html#a8cd712001d12f5f4a00ef98937109e47" target="_top" xlink:title=" ">
<polygon fill="white" stroke="red" points="147.5,-76.5 147.5,-95.5 197.5,-95.5 197.5,-76.5 147.5,-76.5"/>
<text text-anchor="middle" x="172.5" y="-83.5" font-family="Helvetica,sans-Serif" font-size="10.00">i8glsum</text>
</a>
</g>
</g>
<!-- Node1&#45;&gt;Node13 -->
<g id="edge7" class="edge">
<title>Node1&#45;&gt;Node13</title>
<path fill="none" stroke="midnightblue" d="M93.32,-86C107.8,-86 123.55,-86 137.09,-86"/>
<polygon fill="midnightblue" stroke="midnightblue" points="137.41,-89.5 147.41,-86 137.41,-82.5 137.41,-89.5"/>
</g>
<!-- Node21 -->
<g id="node9" class="node">
<title>Node21</title>
<g id="a_node9"><a xlink:href="math_8f.html#a8431e1799f5711943b2e061a602754ca" target="_top" xlink:title=" ">
<polygon fill="white" stroke="red" points="150,-38.5 150,-57.5 195,-57.5 195,-38.5 150,-38.5"/>
<text text-anchor="middle" x="172.5" y="-45.5" font-family="Helvetica,sans-Serif" font-size="10.00">iglmax</text>
</a>
</g>
</g>
<!-- Node1&#45;&gt;Node21 -->
<g id="edge8" class="edge">
<title>Node1&#45;&gt;Node21</title>
<path fill="none" stroke="midnightblue" d="M78.79,-76.41C97.64,-70.63 121.56,-63.3 140.39,-57.53"/>
<polygon fill="midnightblue" stroke="midnightblue" points="141.44,-60.87 149.98,-54.59 139.39,-54.18 141.44,-60.87"/>
</g>
<!-- Node24 -->
<g id="node10" class="node">
<title>Node24</title>
<g id="a_node10"><a xlink:href="math_8f.html#abddb480a4c33726fd422e964eff2a033" target="_top" xlink:title=" ">
<polygon fill="white" stroke="red" points="151.5,-0.5 151.5,-19.5 193.5,-19.5 193.5,-0.5 151.5,-0.5"/>
<text text-anchor="middle" x="172.5" y="-7.5" font-family="Helvetica,sans-Serif" font-size="10.00">iglmin</text>
</a>
</g>
</g>
<!-- Node1&#45;&gt;Node24 -->
<g id="edge9" class="edge">
<title>Node1&#45;&gt;Node24</title>
<path fill="none" stroke="midnightblue" d="M59.72,-76.34C75.25,-64.34 103.16,-43.64 129,-29 133.07,-26.7 137.46,-24.47 141.83,-22.39"/>
<polygon fill="midnightblue" stroke="midnightblue" points="143.56,-25.45 151.22,-18.13 140.67,-19.07 143.56,-25.45"/>
</g>
<!-- Node3 -->
<g id="node3" class="node">
<title>Node3</title>
<g id="a_node3"><a xlink:href="mpi__dummy_8f.html#ae6a5ef945f87c2c27849696b70f3af2a" target="_top" xlink:title=" ">
<polygon fill="white" stroke="black" points="252,-190.5 252,-209.5 316,-209.5 316,-190.5 252,-190.5"/>
<text text-anchor="middle" x="284" y="-197.5" font-family="Helvetica,sans-Serif" font-size="10.00">mpi_wtime</text>
</a>
</g>
</g>
<!-- Node2&#45;&gt;Node3 -->
<g id="edge2" class="edge">
<title>Node2&#45;&gt;Node3</title>
<path fill="none" stroke="midnightblue" d="M201.13,-171.59C214.62,-176.27 231.04,-181.97 245.63,-187.03"/>
<polygon fill="midnightblue" stroke="midnightblue" points="244.78,-190.44 255.38,-190.41 247.08,-183.83 244.78,-190.44"/>
</g>
<!-- Node4 -->
<g id="node4" class="node">
<title>Node4</title>
<g id="a_node4"><a xlink:href="comm__mpi_8f.html#a4acb4d8e379294232e9219bec063d8f3" target="_top" xlink:title=" ">
<polygon fill="white" stroke="red" points="254.5,-152.5 254.5,-171.5 313.5,-171.5 313.5,-152.5 254.5,-152.5"/>
<text text-anchor="middle" x="284" y="-159.5" font-family="Helvetica,sans-Serif" font-size="10.00">nekgsync</text>
</a>
</g>
</g>
<!-- Node2&#45;&gt;Node4 -->
<g id="edge3" class="edge">
<title>Node2&#45;&gt;Node4</title>
<path fill="none" stroke="midnightblue" d="M216.15,-162C225.49,-162 235.32,-162 244.48,-162"/>
<polygon fill="midnightblue" stroke="midnightblue" points="244.48,-165.5 254.48,-162 244.48,-158.5 244.48,-165.5"/>
</g>
<!-- Node7 -->
<g id="node6" class="node">
<title>Node7</title>
<g id="a_node6"><a xlink:href="math_8f.html#a692155d1d2ec380a9fdb2d81ef221625" target="_top" xlink:title=" ">
<polygon fill="white" stroke="black" points="264,-114.5 264,-133.5 304,-133.5 304,-114.5 264,-114.5"/>
<text text-anchor="middle" x="284" y="-121.5" font-family="Helvetica,sans-Serif" font-size="10.00">blank</text>
</a>
</g>
</g>
<!-- Node6&#45;&gt;Node7 -->
<g id="edge5" class="edge">
<title>Node6&#45;&gt;Node7</title>
<path fill="none" stroke="midnightblue" d="M191.58,-124C208.47,-124 233.97,-124 253.76,-124"/>
<polygon fill="midnightblue" stroke="midnightblue" points="253.79,-127.5 263.79,-124 253.79,-120.5 253.79,-127.5"/>
</g>
<!-- Node8 -->
<g id="node7" class="node">
<title>Node8</title>
<g id="a_node7"><a xlink:href="math_8f.html#ad7fb480cea001849621405f37167aab1" target="_top" xlink:title=" ">
<polygon fill="white" stroke="black" points="260,-76.5 260,-95.5 308,-95.5 308,-76.5 260,-76.5"/>
<text text-anchor="middle" x="284" y="-83.5" font-family="Helvetica,sans-Serif" font-size="10.00">chcopy</text>
</a>
</g>
</g>
<!-- Node6&#45;&gt;Node8 -->
<g id="edge6" class="edge">
<title>Node6&#45;&gt;Node8</title>
<path fill="none" stroke="midnightblue" d="M191.58,-117.73C207.51,-112.2 231.11,-104.01 250.34,-97.33"/>
<polygon fill="midnightblue" stroke="midnightblue" points="251.64,-100.59 259.94,-94 249.34,-93.98 251.64,-100.59"/>
</g>
</g>
</svg>
