<?xml version="1.0" encoding="UTF-8" standalone="no"?>
<!DOCTYPE svg PUBLIC "-//W3C//DTD SVG 1.1//EN"
 "http://www.w3.org/Graphics/SVG/1.1/DTD/svg11.dtd">
<!-- Generated by graphviz version 2.46.0 (0)
 -->
<!-- Title: lpm_project Pages: 1 -->
<svg width="424pt" height="123pt"
 viewBox="0.00 0.00 424.00 123.00" xmlns="http://www.w3.org/2000/svg" xmlns:xlink="http://www.w3.org/1999/xlink">
<g id="graph0" class="graph" transform="scale(1 1) rotate(0) translate(4 119)">
<title>lpm_project</title>
<polygon fill="white" stroke="transparent" points="-4,4 -4,-119 420,-119 420,4 -4,4"/>
<!-- Node1 -->
<g id="node1" class="node">
<title>Node1</title>
<g id="a_node1"><a xlink:title=" ">
<polygon fill="#bfbfbf" stroke="black" points="0,-57.5 0,-76.5 67,-76.5 67,-57.5 0,-57.5"/>
<text text-anchor="middle" x="33.5" y="-64.5" font-family="Helvetica,sans-Serif" font-size="10.00">lpm_project</text>
</a>
</g>
</g>
<!-- Node2 -->
<g id="node2" class="node">
<title>Node2</title>
<g id="a_node2"><a xlink:href="lpm__comm_8f.html#a372d0ba39ada4643251959d7bc9a43c2" target="_top" xlink:title=" ">
<polygon fill="white" stroke="black" points="103,-95.5 103,-114.5 229,-114.5 229,-95.5 103,-95.5"/>
<text text-anchor="middle" x="166" y="-102.5" font-family="Helvetica,sans-Serif" font-size="10.00">lpm_comm_ghost_create</text>
</a>
</g>
</g>
<!-- Node1&#45;&gt;Node2 -->
<g id="edge1" class="edge">
<title>Node1&#45;&gt;Node2</title>
<path fill="none" stroke="midnightblue" d="M67.09,-76.49C83.91,-81.39 104.63,-87.42 122.66,-92.67"/>
<polygon fill="midnightblue" stroke="midnightblue" points="121.79,-96.06 132.37,-95.5 123.75,-89.34 121.79,-96.06"/>
</g>
<!-- Node4 -->
<g id="node4" class="node">
<title>Node4</title>
<g id="a_node4"><a xlink:href="lpm__comm_8f.html#a5d4210fcb50432f52c406893823a0864" target="_top" xlink:title=" ">
<polygon fill="white" stroke="black" points="106,-57.5 106,-76.5 226,-76.5 226,-57.5 106,-57.5"/>
<text text-anchor="middle" x="166" y="-64.5" font-family="Helvetica,sans-Serif" font-size="10.00">lpm_comm_ghost_send</text>
</a>
</g>
</g>
<!-- Node1&#45;&gt;Node4 -->
<g id="edge3" class="edge">
<title>Node1&#45;&gt;Node4</title>
<path fill="none" stroke="midnightblue" d="M67.09,-67C75.93,-67 85.84,-67 95.87,-67"/>
<polygon fill="midnightblue" stroke="midnightblue" points="95.9,-70.5 105.9,-67 95.9,-63.5 95.9,-70.5"/>
</g>
<!-- Node5 -->
<g id="node5" class="node">
<title>Node5</title>
<g id="a_node5"><a xlink:href="lpm__solve_8f.html#a1bd1500de17729ab91368c3433f53045" target="_top" xlink:title=" ">
<polygon fill="white" stroke="black" points="118.5,-19.5 118.5,-38.5 213.5,-38.5 213.5,-19.5 118.5,-19.5"/>
<text text-anchor="middle" x="166" y="-26.5" font-family="Helvetica,sans-Serif" font-size="10.00">lpm_solve_project</text>
</a>
</g>
</g>
<!-- Node1&#45;&gt;Node5 -->
<g id="edge4" class="edge">
<title>Node1&#45;&gt;Node5</title>
<path fill="none" stroke="midnightblue" d="M67.09,-57.51C83.91,-52.61 104.63,-46.58 122.66,-41.33"/>
<polygon fill="midnightblue" stroke="midnightblue" points="123.75,-44.66 132.37,-38.5 121.79,-37.94 123.75,-44.66"/>
</g>
<!-- Node3 -->
<g id="node3" class="node">
<title>Node3</title>
<g id="a_node3"><a xlink:href="lpm__comm_8f.html#ac1970873d7fbebcd298ddbee6fc869f0" target="_top" xlink:title=" ">
<polygon fill="white" stroke="black" points="265,-95.5 265,-114.5 416,-114.5 416,-95.5 265,-95.5"/>
<text text-anchor="middle" x="340.5" y="-102.5" font-family="Helvetica,sans-Serif" font-size="10.00">lpm_comm_check_periodic_gp</text>
</a>
</g>
</g>
<!-- Node2&#45;&gt;Node3 -->
<g id="edge2" class="edge">
<title>Node2&#45;&gt;Node3</title>
<path fill="none" stroke="midnightblue" d="M229.28,-105C237.6,-105 246.25,-105 254.87,-105"/>
<polygon fill="midnightblue" stroke="midnightblue" points="254.97,-108.5 264.97,-105 254.97,-101.5 254.97,-108.5"/>
</g>
<!-- Node6 -->
<g id="node6" class="node">
<title>Node6</title>
<g id="a_node6"><a xlink:href="math_8f.html#a1e85d2406444243269f0d85c61a02dce" target="_top" xlink:title=" ">
<polygon fill="white" stroke="black" points="320.5,-38.5 320.5,-57.5 360.5,-57.5 360.5,-38.5 320.5,-38.5"/>
<text text-anchor="middle" x="340.5" y="-45.5" font-family="Helvetica,sans-Serif" font-size="10.00">icopy</text>
</a>
</g>
</g>
<!-- Node5&#45;&gt;Node6 -->
<g id="edge5" class="edge">
<title>Node5&#45;&gt;Node6</title>
<path fill="none" stroke="midnightblue" d="M213.68,-34.14C244.37,-37.52 283.6,-41.84 310.03,-44.75"/>
<polygon fill="midnightblue" stroke="midnightblue" points="309.85,-48.26 320.17,-45.87 310.61,-41.3 309.85,-48.26"/>
</g>
<!-- Node7 -->
<g id="node7" class="node">
<title>Node7</title>
<g id="a_node7"><a xlink:href="math_8f.html#af44de42b023a4a68cd98ea341204342d" target="_top" xlink:title=" ">
<polygon fill="white" stroke="black" points="321.5,-0.5 321.5,-19.5 359.5,-19.5 359.5,-0.5 321.5,-0.5"/>
<text text-anchor="middle" x="340.5" y="-7.5" font-family="Helvetica,sans-Serif" font-size="10.00">rzero</text>
</a>
</g>
</g>
<!-- Node5&#45;&gt;Node7 -->
<g id="edge6" class="edge">
<title>Node5&#45;&gt;Node7</title>
<path fill="none" stroke="midnightblue" d="M213.68,-23.86C244.9,-20.42 284.95,-16.01 311.38,-13.1"/>
<polygon fill="midnightblue" stroke="midnightblue" points="311.91,-16.56 321.47,-11.99 311.15,-9.6 311.91,-16.56"/>
</g>
</g>
</svg>
