<?xml version="1.0" encoding="UTF-8" standalone="no"?>
<!DOCTYPE svg PUBLIC "-//W3C//DTD SVG 1.1//EN"
 "http://www.w3.org/Graphics/SVG/1.1/DTD/svg11.dtd">
<!-- Generated by graphviz version 2.46.0 (0)
 -->
<!-- Title: lpm_comm_bin_setup Pages: 1 -->
<svg width="285pt" height="256pt"
 viewBox="0.00 0.00 285.00 256.00" xmlns="http://www.w3.org/2000/svg" xmlns:xlink="http://www.w3.org/1999/xlink">
<g id="graph0" class="graph" transform="scale(1 1) rotate(0) translate(4 252)">
<title>lpm_comm_bin_setup</title>
<polygon fill="white" stroke="transparent" points="-4,4 -4,-252 281,-252 281,4 -4,4"/>
<!-- Node1 -->
<g id="node1" class="node">
<title>Node1</title>
<g id="a_node1"><a xlink:title=" ">
<polygon fill="#bfbfbf" stroke="black" points="0,-114.5 0,-133.5 112,-133.5 112,-114.5 0,-114.5"/>
<text text-anchor="middle" x="56" y="-121.5" font-family="Helvetica,sans-Serif" font-size="10.00">lpm_comm_bin_setup</text>
</a>
</g>
</g>
<!-- Node2 -->
<g id="node2" class="node">
<title>Node2</title>
<g id="a_node2"><a xlink:href="math_8f.html#a3b43508554f14bdea8e14473d7d0803c" target="_top" xlink:title=" ">
<polygon fill="white" stroke="black" points="150.5,-228.5 150.5,-247.5 188.5,-247.5 188.5,-228.5 150.5,-228.5"/>
<text text-anchor="middle" x="169.5" y="-235.5" font-family="Helvetica,sans-Serif" font-size="10.00">copy</text>
</a>
</g>
</g>
<!-- Node1&#45;&gt;Node2 -->
<g id="edge1" class="edge">
<title>Node1&#45;&gt;Node2</title>
<path fill="none" stroke="midnightblue" d="M65.86,-133.62C81.92,-150.98 117.06,-188.57 148,-219 148.8,-219.78 149.61,-220.58 150.44,-221.38"/>
<polygon fill="midnightblue" stroke="midnightblue" points="148.28,-224.15 157.96,-228.45 153.08,-219.05 148.28,-224.15"/>
</g>
<!-- Node3 -->
<g id="node3" class="node">
<title>Node3</title>
<g id="a_node3"><a xlink:href="byte_8c.html#a2da8eeb074dfd3ffbfb3e9a4d301cda4" target="_top" xlink:title=" ">
<polygon fill="white" stroke="black" points="152,-190.5 152,-209.5 187,-209.5 187,-190.5 152,-190.5"/>
<text text-anchor="middle" x="169.5" y="-197.5" font-family="Helvetica,sans-Serif" font-size="10.00">exitt</text>
</a>
</g>
</g>
<!-- Node1&#45;&gt;Node3 -->
<g id="edge2" class="edge">
<title>Node1&#45;&gt;Node3</title>
<path fill="none" stroke="midnightblue" d="M71.12,-133.63C89.97,-146.47 123.57,-169.38 145.95,-184.63"/>
<polygon fill="midnightblue" stroke="midnightblue" points="144.26,-187.71 154.49,-190.45 148.2,-181.93 144.26,-187.71"/>
</g>
<!-- Node6 -->
<g id="node5" class="node">
<title>Node6</title>
<g id="a_node5"><a xlink:href="math_8f.html#af58b0d2ff8df811dc27c9e42460492b9" target="_top" xlink:title=" ">
<polygon fill="white" stroke="black" points="148,-152.5 148,-171.5 191,-171.5 191,-152.5 148,-152.5"/>
<text text-anchor="middle" x="169.5" y="-159.5" font-family="Helvetica,sans-Serif" font-size="10.00">glmax</text>
</a>
</g>
</g>
<!-- Node1&#45;&gt;Node6 -->
<g id="edge4" class="edge">
<title>Node1&#45;&gt;Node6</title>
<path fill="none" stroke="midnightblue" d="M85.14,-133.59C101.27,-139.09 121.53,-145.99 138.04,-151.62"/>
<polygon fill="midnightblue" stroke="midnightblue" points="137.17,-155.02 147.76,-154.93 139.43,-148.39 137.17,-155.02"/>
</g>
<!-- Node9 -->
<g id="node7" class="node">
<title>Node9</title>
<g id="a_node7"><a xlink:href="math_8f.html#a102af0dc870819a605ae55d60c59f84a" target="_top" xlink:title=" ">
<polygon fill="white" stroke="black" points="149.5,-114.5 149.5,-133.5 189.5,-133.5 189.5,-114.5 149.5,-114.5"/>
<text text-anchor="middle" x="169.5" y="-121.5" font-family="Helvetica,sans-Serif" font-size="10.00">glmin</text>
</a>
</g>
</g>
<!-- Node1&#45;&gt;Node9 -->
<g id="edge6" class="edge">
<title>Node1&#45;&gt;Node9</title>
<path fill="none" stroke="midnightblue" d="M112.1,-124C121.4,-124 130.74,-124 139.06,-124"/>
<polygon fill="midnightblue" stroke="midnightblue" points="139.32,-127.5 149.32,-124 139.32,-120.5 139.32,-127.5"/>
</g>
<!-- Node10 -->
<g id="node8" class="node">
<title>Node10</title>
<g id="a_node8"><a xlink:href="math_8f.html#a1e85d2406444243269f0d85c61a02dce" target="_top" xlink:title=" ">
<polygon fill="white" stroke="black" points="149.5,-76.5 149.5,-95.5 189.5,-95.5 189.5,-76.5 149.5,-76.5"/>
<text text-anchor="middle" x="169.5" y="-83.5" font-family="Helvetica,sans-Serif" font-size="10.00">icopy</text>
</a>
</g>
</g>
<!-- Node1&#45;&gt;Node10 -->
<g id="edge8" class="edge">
<title>Node1&#45;&gt;Node10</title>
<path fill="none" stroke="midnightblue" d="M85.14,-114.41C101.8,-108.73 122.88,-101.55 139.67,-95.83"/>
<polygon fill="midnightblue" stroke="midnightblue" points="141.15,-99.02 149.49,-92.48 138.9,-92.39 141.15,-99.02"/>
</g>
<!-- Node11 -->
<g id="node9" class="node">
<title>Node11</title>
<g id="a_node9"><a xlink:href="math_8f.html#a3a4077924e14ce175a0d9991f9006d16" target="_top" xlink:title=" ">
<polygon fill="white" stroke="black" points="148,-38.5 148,-57.5 191,-57.5 191,-38.5 148,-38.5"/>
<text text-anchor="middle" x="169.5" y="-45.5" font-family="Helvetica,sans-Serif" font-size="10.00">vlmax</text>
</a>
</g>
</g>
<!-- Node1&#45;&gt;Node11 -->
<g id="edge9" class="edge">
<title>Node1&#45;&gt;Node11</title>
<path fill="none" stroke="midnightblue" d="M71.12,-114.37C89.97,-101.53 123.57,-78.62 145.95,-63.37"/>
<polygon fill="midnightblue" stroke="midnightblue" points="148.2,-66.07 154.49,-57.55 144.26,-60.29 148.2,-66.07"/>
</g>
<!-- Node12 -->
<g id="node10" class="node">
<title>Node12</title>
<g id="a_node10"><a xlink:href="math_8f.html#aefe89276b8a8ae8a9f1ea1ede71b142f" target="_top" xlink:title=" ">
<polygon fill="white" stroke="black" points="149.5,-0.5 149.5,-19.5 189.5,-19.5 189.5,-0.5 149.5,-0.5"/>
<text text-anchor="middle" x="169.5" y="-7.5" font-family="Helvetica,sans-Serif" font-size="10.00">vlmin</text>
</a>
</g>
</g>
<!-- Node1&#45;&gt;Node12 -->
<g id="edge10" class="edge">
<title>Node1&#45;&gt;Node12</title>
<path fill="none" stroke="midnightblue" d="M65.86,-114.38C81.92,-97.02 117.06,-59.43 148,-29 148.8,-28.22 149.61,-27.42 150.44,-26.62"/>
<polygon fill="midnightblue" stroke="midnightblue" points="153.08,-28.95 157.96,-19.55 148.28,-23.85 153.08,-28.95"/>
</g>
<!-- Node4 -->
<g id="node4" class="node">
<title>Node4</title>
<g id="a_node4"><a xlink:href="comm__mpi_8f.html#acc8803a3787828530843112e0c48941b" target="_top" xlink:title=" ">
<polygon fill="white" stroke="red" points="227,-190.5 227,-209.5 277,-209.5 277,-190.5 227,-190.5"/>
<text text-anchor="middle" x="252" y="-197.5" font-family="Helvetica,sans-Serif" font-size="10.00">nek_die</text>
</a>
</g>
</g>
<!-- Node3&#45;&gt;Node4 -->
<g id="edge3" class="edge">
<title>Node3&#45;&gt;Node4</title>
<path fill="none" stroke="midnightblue" d="M187.18,-200C195.66,-200 206.29,-200 216.43,-200"/>
<polygon fill="midnightblue" stroke="midnightblue" points="216.7,-203.5 226.7,-200 216.7,-196.5 216.7,-203.5"/>
</g>
<!-- Node7 -->
<g id="node6" class="node">
<title>Node7</title>
<g id="a_node6"><a xlink:href="gs__test__gop__blocking_8c.html#ab2e24f9857f6d1ded7e4d556c6bc5e49" target="_top" xlink:title=" ">
<polygon fill="white" stroke="red" points="236,-133.5 236,-152.5 268,-152.5 268,-133.5 236,-133.5"/>
<text text-anchor="middle" x="252" y="-140.5" font-family="Helvetica,sans-Serif" font-size="10.00">gop</text>
</a>
</g>
</g>
<!-- Node6&#45;&gt;Node7 -->
<g id="edge5" class="edge">
<title>Node6&#45;&gt;Node7</title>
<path fill="none" stroke="midnightblue" d="M191.23,-157.11C201.82,-154.61 214.79,-151.55 225.94,-148.91"/>
<polygon fill="midnightblue" stroke="midnightblue" points="227,-152.26 235.93,-146.56 225.4,-145.45 227,-152.26"/>
</g>
<!-- Node9&#45;&gt;Node7 -->
<g id="edge7" class="edge">
<title>Node9&#45;&gt;Node7</title>
<path fill="none" stroke="midnightblue" d="M189.58,-128.5C200.4,-131.06 214.07,-134.28 225.77,-137.05"/>
<polygon fill="midnightblue" stroke="midnightblue" points="225.29,-140.53 235.82,-139.42 226.89,-133.71 225.29,-140.53"/>
</g>
</g>
</svg>
