<?xml version="1.0" encoding="UTF-8" standalone="no"?>
<!DOCTYPE svg PUBLIC "-//W3C//DTD SVG 1.1//EN"
 "http://www.w3.org/Graphics/SVG/1.1/DTD/svg11.dtd">
<!-- Generated by graphviz version 2.46.0 (0)
 -->
<!-- Title: lpm_solve Pages: 1 -->
<svg width="285pt" height="180pt"
 viewBox="0.00 0.00 285.00 180.00" xmlns="http://www.w3.org/2000/svg" xmlns:xlink="http://www.w3.org/1999/xlink">
<g id="graph0" class="graph" transform="scale(1 1) rotate(0) translate(4 176)">
<title>lpm_solve</title>
<polygon fill="white" stroke="transparent" points="-4,4 -4,-176 281,-176 281,4 -4,4"/>
<!-- Node1 -->
<g id="node1" class="node">
<title>Node1</title>
<g id="a_node1"><a xlink:title=" ">
<polygon fill="#bfbfbf" stroke="black" points="0,-95.5 0,-114.5 61,-114.5 61,-95.5 0,-95.5"/>
<text text-anchor="middle" x="30.5" y="-102.5" font-family="Helvetica,sans-Serif" font-size="10.00">lpm_solve</text>
</a>
</g>
</g>
<!-- Node2 -->
<g id="node2" class="node">
<title>Node2</title>
<g id="a_node2"><a xlink:href="math_8f.html#a3b43508554f14bdea8e14473d7d0803c" target="_top" xlink:title=" ">
<polygon fill="white" stroke="black" points="118,-152.5 118,-171.5 156,-171.5 156,-152.5 118,-152.5"/>
<text text-anchor="middle" x="137" y="-159.5" font-family="Helvetica,sans-Serif" font-size="10.00">copy</text>
</a>
</g>
</g>
<!-- Node1&#45;&gt;Node2 -->
<g id="edge1" class="edge">
<title>Node1&#45;&gt;Node2</title>
<path fill="none" stroke="midnightblue" d="M47.2,-114.54C60.36,-122.43 79.71,-133.79 97,-143 100.64,-144.94 104.5,-146.91 108.32,-148.82"/>
<polygon fill="midnightblue" stroke="midnightblue" points="107.09,-152.12 117.61,-153.38 110.17,-145.83 107.09,-152.12"/>
</g>
<!-- Node3 -->
<g id="node3" class="node">
<title>Node3</title>
<g id="a_node3"><a xlink:href="comm__mpi_8f.html#af06ec29f06aac3f8809e19de2a7e8946" target="_top" xlink:title=" ">
<polygon fill="white" stroke="black" points="106.5,-114.5 106.5,-133.5 167.5,-133.5 167.5,-114.5 106.5,-114.5"/>
<text text-anchor="middle" x="137" y="-121.5" font-family="Helvetica,sans-Serif" font-size="10.00">dnekclock</text>
</a>
</g>
</g>
<!-- Node1&#45;&gt;Node3 -->
<g id="edge2" class="edge">
<title>Node1&#45;&gt;Node3</title>
<path fill="none" stroke="midnightblue" d="M61.17,-110.39C72.09,-112.38 84.64,-114.66 96.3,-116.78"/>
<polygon fill="midnightblue" stroke="midnightblue" points="95.8,-120.25 106.26,-118.59 97.05,-113.36 95.8,-120.25"/>
</g>
<!-- Node5 -->
<g id="node5" class="node">
<title>Node5</title>
<g id="a_node5"><a xlink:href="comm__mpi_8f.html#a59fcf8a02fe54ab37f61050e3ca6b197" target="_top" xlink:title=" ">
<polygon fill="white" stroke="black" points="118,-76.5 118,-95.5 156,-95.5 156,-76.5 118,-76.5"/>
<text text-anchor="middle" x="137" y="-83.5" font-family="Helvetica,sans-Serif" font-size="10.00">exitti</text>
</a>
</g>
</g>
<!-- Node1&#45;&gt;Node5 -->
<g id="edge4" class="edge">
<title>Node1&#45;&gt;Node5</title>
<path fill="none" stroke="midnightblue" d="M61.17,-99.61C75.83,-96.94 93.43,-93.74 107.88,-91.11"/>
<polygon fill="midnightblue" stroke="midnightblue" points="108.54,-94.55 117.76,-89.32 107.29,-87.66 108.54,-94.55"/>
</g>
<!-- Node12 -->
<g id="node10" class="node">
<title>Node12</title>
<g id="a_node10"><a xlink:href="lpm__solve_8f.html#a3a01e12fbb97025f9158db0669a817db" target="_top" xlink:title=" ">
<polygon fill="white" stroke="red" points="97,-38.5 97,-57.5 177,-57.5 177,-38.5 97,-38.5"/>
<text text-anchor="middle" x="137" y="-45.5" font-family="Helvetica,sans-Serif" font-size="10.00">lpm_rk3_driver</text>
</a>
</g>
</g>
<!-- Node1&#45;&gt;Node12 -->
<g id="edge9" class="edge">
<title>Node1&#45;&gt;Node12</title>
<path fill="none" stroke="midnightblue" d="M47.2,-95.46C60.36,-87.57 79.71,-76.21 97,-67 100.08,-65.36 103.33,-63.68 106.58,-62.05"/>
<polygon fill="midnightblue" stroke="midnightblue" points="108.2,-65.15 115.62,-57.59 105.1,-58.88 108.2,-65.15"/>
</g>
<!-- Node4 -->
<g id="node4" class="node">
<title>Node4</title>
<g id="a_node4"><a xlink:href="mpi__dummy_8f.html#ae6a5ef945f87c2c27849696b70f3af2a" target="_top" xlink:title=" ">
<polygon fill="white" stroke="black" points="213,-152.5 213,-171.5 277,-171.5 277,-152.5 213,-152.5"/>
<text text-anchor="middle" x="245" y="-159.5" font-family="Helvetica,sans-Serif" font-size="10.00">mpi_wtime</text>
</a>
</g>
</g>
<!-- Node3&#45;&gt;Node4 -->
<g id="edge3" class="edge">
<title>Node3&#45;&gt;Node4</title>
<path fill="none" stroke="midnightblue" d="M164.75,-133.59C177.8,-138.27 193.7,-143.97 207.82,-149.03"/>
<polygon fill="midnightblue" stroke="midnightblue" points="206.67,-152.33 217.26,-152.41 209.03,-145.74 206.67,-152.33"/>
</g>
<!-- Node6 -->
<g id="node6" class="node">
<title>Node6</title>
<g id="a_node6"><a xlink:href="math_8f.html#a692155d1d2ec380a9fdb2d81ef221625" target="_top" xlink:title=" ">
<polygon fill="white" stroke="black" points="225,-114.5 225,-133.5 265,-133.5 265,-114.5 225,-114.5"/>
<text text-anchor="middle" x="245" y="-121.5" font-family="Helvetica,sans-Serif" font-size="10.00">blank</text>
</a>
</g>
</g>
<!-- Node5&#45;&gt;Node6 -->
<g id="edge5" class="edge">
<title>Node5&#45;&gt;Node6</title>
<path fill="none" stroke="midnightblue" d="M156.46,-92.62C172.65,-98.42 196.46,-106.96 215.16,-113.66"/>
<polygon fill="midnightblue" stroke="midnightblue" points="214.08,-116.99 224.67,-117.07 216.44,-110.4 214.08,-116.99"/>
</g>
<!-- Node7 -->
<g id="node7" class="node">
<title>Node7</title>
<g id="a_node7"><a xlink:href="math_8f.html#ad7fb480cea001849621405f37167aab1" target="_top" xlink:title=" ">
<polygon fill="white" stroke="black" points="221,-76.5 221,-95.5 269,-95.5 269,-76.5 221,-76.5"/>
<text text-anchor="middle" x="245" y="-83.5" font-family="Helvetica,sans-Serif" font-size="10.00">chcopy</text>
</a>
</g>
</g>
<!-- Node5&#45;&gt;Node7 -->
<g id="edge6" class="edge">
<title>Node5&#45;&gt;Node7</title>
<path fill="none" stroke="midnightblue" d="M156.46,-86C171.44,-86 192.93,-86 210.87,-86"/>
<polygon fill="midnightblue" stroke="midnightblue" points="210.94,-89.5 220.94,-86 210.94,-82.5 210.94,-89.5"/>
</g>
<!-- Node8 -->
<g id="node8" class="node">
<title>Node8</title>
<g id="a_node8"><a xlink:href="byte_8c.html#a2da8eeb074dfd3ffbfb3e9a4d301cda4" target="_top" xlink:title=" ">
<polygon fill="white" stroke="red" points="227.5,-38.5 227.5,-57.5 262.5,-57.5 262.5,-38.5 227.5,-38.5"/>
<text text-anchor="middle" x="245" y="-45.5" font-family="Helvetica,sans-Serif" font-size="10.00">exitt</text>
</a>
</g>
</g>
<!-- Node5&#45;&gt;Node8 -->
<g id="edge7" class="edge">
<title>Node5&#45;&gt;Node8</title>
<path fill="none" stroke="midnightblue" d="M156.46,-79.38C173.46,-73.29 198.84,-64.19 217.91,-57.35"/>
<polygon fill="midnightblue" stroke="midnightblue" points="219.26,-60.59 227.49,-53.92 216.89,-54 219.26,-60.59"/>
</g>
<!-- Node11 -->
<g id="node9" class="node">
<title>Node11</title>
<g id="a_node9"><a xlink:href="ic_8f.html#ada3a2c3283a9052e1fe4b7a90375b09b" target="_top" xlink:title=" ">
<polygon fill="white" stroke="black" points="225,-0.5 225,-19.5 265,-19.5 265,-0.5 225,-0.5"/>
<text text-anchor="middle" x="245" y="-7.5" font-family="Helvetica,sans-Serif" font-size="10.00">indx1</text>
</a>
</g>
</g>
<!-- Node5&#45;&gt;Node11 -->
<g id="edge8" class="edge">
<title>Node5&#45;&gt;Node11</title>
<path fill="none" stroke="midnightblue" d="M156.24,-78.76C163.06,-75.64 170.68,-71.63 177,-67 195.76,-53.24 194.93,-43.65 213,-29 214.54,-27.75 216.18,-26.52 217.86,-25.32"/>
<polygon fill="midnightblue" stroke="midnightblue" points="219.98,-28.11 226.4,-19.68 216.13,-22.27 219.98,-28.11"/>
</g>
</g>
</svg>
