<?xml version="1.0" encoding="UTF-8" standalone="no"?>
<!DOCTYPE svg PUBLIC "-//W3C//DTD SVG 1.1//EN"
 "http://www.w3.org/Graphics/SVG/1.1/DTD/svg11.dtd">
<!-- Generated by graphviz version 2.46.0 (0)
 -->
<!-- Title: lpm_solve_project Pages: 1 -->
<svg width="292pt" height="28pt"
 viewBox="0.00 0.00 292.00 28.00" xmlns="http://www.w3.org/2000/svg" xmlns:xlink="http://www.w3.org/1999/xlink">
<g id="graph0" class="graph" transform="scale(1 1) rotate(0) translate(4 24)">
<title>lpm_solve_project</title>
<polygon fill="white" stroke="transparent" points="-4,4 -4,-24 288,-24 288,4 -4,4"/>
<!-- Node1 -->
<g id="node1" class="node">
<title>Node1</title>
<g id="a_node1"><a xlink:title=" ">
<polygon fill="#bfbfbf" stroke="black" points="189,-0.5 189,-19.5 284,-19.5 284,-0.5 189,-0.5"/>
<text text-anchor="middle" x="236.5" y="-7.5" font-family="Helvetica,sans-Serif" font-size="10.00">lpm_solve_project</text>
</a>
</g>
</g>
<!-- Node2 -->
<g id="node2" class="node">
<title>Node2</title>
<g id="a_node2"><a xlink:href="lpm__solve_8f.html#a5245534677fd72d6cd0abdbd1e731108" target="_top" xlink:title=" ">
<polygon fill="white" stroke="black" points="86,-0.5 86,-19.5 153,-19.5 153,-0.5 86,-0.5"/>
<text text-anchor="middle" x="119.5" y="-7.5" font-family="Helvetica,sans-Serif" font-size="10.00">lpm_project</text>
</a>
</g>
</g>
<!-- Node1&#45;&gt;Node2 -->
<g id="edge1" class="edge">
<title>Node1&#45;&gt;Node2</title>
<path fill="none" stroke="midnightblue" d="M178.55,-10C169.83,-10 161.1,-10 153.15,-10"/>
<polygon fill="midnightblue" stroke="midnightblue" points="178.73,-13.5 188.73,-10 178.73,-6.5 178.73,-13.5"/>
</g>
<!-- Node3 -->
<g id="node3" class="node">
<title>Node3</title>
<g id="a_node3"><a xlink:href="lpm__solve_8f.html#a246d139830696737f4d971928b577f0c" target="_top" xlink:title=" ">
<polygon fill="white" stroke="black" points="0,-0.5 0,-19.5 50,-19.5 50,-0.5 0,-0.5"/>
<text text-anchor="middle" x="25" y="-7.5" font-family="Helvetica,sans-Serif" font-size="10.00">lpm_init</text>
</a>
</g>
</g>
<!-- Node2&#45;&gt;Node3 -->
<g id="edge2" class="edge">
<title>Node2&#45;&gt;Node3</title>
<path fill="none" stroke="midnightblue" d="M75.74,-10C66.96,-10 58.02,-10 50.18,-10"/>
<polygon fill="midnightblue" stroke="midnightblue" points="75.89,-13.5 85.89,-10 75.89,-6.5 75.89,-13.5"/>
</g>
</g>
</svg>
