<?xml version="1.0" encoding="UTF-8" standalone="no"?>
<!DOCTYPE svg PUBLIC "-//W3C//DTD SVG 1.1//EN"
 "http://www.w3.org/Graphics/SVG/1.1/DTD/svg11.dtd">
<!-- Generated by graphviz version 2.46.0 (0)
 -->
<!-- Title: assign_gllnid Pages: 1 -->
<!--zoomable 180 -->
<svg id="main" version="1.1" xmlns="http://www.w3.org/2000/svg" xmlns:xlink="http://www.w3.org/1999/xlink" xml:space="preserve" onload="init(evt)">
<style type="text/css"><![CDATA[
.edge:hover path { stroke: red; }
.edge:hover polygon { stroke: red; fill: red; }
]]></style>
<script type="text/javascript"><![CDATA[
var edges = document.getElementsByTagName('g');
if (edges && edges.length) {
  for (var i=0;i<edges.length;i++) {
    if (edges[i].id.substr(0,4)=='edge') {
      edges[i].setAttribute('class','edge');
    }
  }
}
]]></script>
        <defs>
                <circle id="rim" cx="0" cy="0" r="7"/>
                <circle id="rim2" cx="0" cy="0" r="3.5"/>
                <g id="zoomPlus">
                        <use xlink:href="#rim" fill="#404040">
                                <set attributeName="fill" to="#808080" begin="zoomplus.mouseover" end="zoomplus.mouseout"/>
                        </use>
                        <path d="M-4,0h8M0,-4v8" fill="none" stroke="white" stroke-width="1.5" pointer-events="none"/>
                </g>
                <g id="zoomMin">
                        <use xlink:href="#rim" fill="#404040">
                                <set attributeName="fill" to="#808080" begin="zoomminus.mouseover" end="zoomminus.mouseout"/>
                        </use>
                        <path d="M-4,0h8" fill="none" stroke="white" stroke-width="1.5" pointer-events="none"/>
                </g>
                <g id="dirArrow">
                        <path fill="none" stroke="white" stroke-width="1.5" d="M0,-3.0v7 M-2.5,-0.5L0,-3.0L2.5,-0.5"/>
                </g>
               <g id="resetDef">
                       <use xlink:href="#rim2" fill="#404040">
                               <set attributeName="fill" to="#808080" begin="reset.mouseover" end="reset.mouseout"/>
                       </use>
               </g>
        </defs>

<script type="text/javascript">
var viewWidth = 630;
var viewHeight = 180;
var sectionId = 'dynsection-1';
</script>
<script xlink:href="svgpan.js"/>
<svg id="graph" class="graph">
<g id="viewport">
<title>assign_gllnid</title>
<polygon fill="white" stroke="transparent" points="-4,4 -4,-176 626,-176 626,4 -4,4"/>
<!-- Node1 -->
<g id="node1" class="node">
<title>Node1</title>
<g id="a_node1"><a xlink:title=" ">
<polygon fill="#bfbfbf" stroke="black" points="549,-24.5 549,-43.5 622,-43.5 622,-24.5 549,-24.5"/>
<text text-anchor="middle" x="585.5" y="-31.5" font-family="Helvetica,sans-Serif" font-size="10.00">assign_gllnid</text>
</a>
</g>
</g>
<!-- Node2 -->
<g id="node2" class="node">
<title>Node2</title>
<g id="a_node2"><a xlink:href="map2_8f.html#aae64b5fb12bc50321e1e4bdc3a2e978f" target="_top" xlink:title=" ">
<polygon fill="white" stroke="black" points="454,-62.5 454,-81.5 513,-81.5 513,-62.5 454,-62.5"/>
<text text-anchor="middle" x="483.5" y="-69.5" font-family="Helvetica,sans-Serif" font-size="10.00">read_map</text>
</a>
</g>
</g>
<!-- Node1&#45;&gt;Node2 -->
<g id="edge1" class="edge">
<title>Node1&#45;&gt;Node2</title>
<path fill="none" stroke="midnightblue" d="M549.59,-47.26C536.47,-52.25 521.81,-57.82 509.73,-62.41"/>
<polygon fill="midnightblue" stroke="midnightblue" points="551.16,-50.41 559.27,-43.59 548.67,-43.87 551.16,-50.41"/>
</g>
<!-- Node3 -->
<g id="node3" class="node">
<title>Node3</title>
<g id="a_node3"><a xlink:href="map2_8f.html#ad7e6baf5b27258e1eaa5451ff2265b18" target="_top" xlink:title=" ">
<polygon fill="white" stroke="black" points="342,-71.5 342,-90.5 418,-90.5 418,-71.5 342,-71.5"/>
<text text-anchor="middle" x="380" y="-78.5" font-family="Helvetica,sans-Serif" font-size="10.00">get_vert_map</text>
</a>
</g>
</g>
<!-- Node2&#45;&gt;Node3 -->
<g id="edge2" class="edge">
<title>Node2&#45;&gt;Node3</title>
<path fill="none" stroke="midnightblue" d="M443.92,-75.42C435.44,-76.17 426.47,-76.97 418.05,-77.71"/>
<polygon fill="midnightblue" stroke="midnightblue" points="444.3,-78.9 453.96,-74.53 443.69,-71.93 444.3,-78.9"/>
</g>
<!-- Node4 -->
<g id="node4" class="node">
<title>Node4</title>
<g id="a_node4"><a xlink:href="map2_8f.html#a3126acd6d2b7a3e63f6f0329d5bae424" target="_top" xlink:title=" ">
<polygon fill="white" stroke="black" points="254,-73.5 254,-92.5 306,-92.5 306,-73.5 254,-73.5"/>
<text text-anchor="middle" x="280" y="-80.5" font-family="Helvetica,sans-Serif" font-size="10.00">get_vert</text>
</a>
</g>
</g>
<!-- Node3&#45;&gt;Node4 -->
<g id="edge3" class="edge">
<title>Node3&#45;&gt;Node4</title>
<path fill="none" stroke="midnightblue" d="M331.72,-81.96C322.92,-82.14 314.04,-82.33 306.23,-82.49"/>
<polygon fill="midnightblue" stroke="midnightblue" points="332.02,-85.46 341.95,-81.76 331.88,-78.46 332.02,-85.46"/>
</g>
<!-- Node5 -->
<g id="node5" class="node">
<title>Node5</title>
<g id="a_node5"><a xlink:href="map2_8f.html#a13d7dde54ee02508285dda66f7def6bf" target="_top" xlink:title=" ">
<polygon fill="white" stroke="black" points="139,-0.5 139,-19.5 193,-19.5 193,-0.5 139,-0.5"/>
<text text-anchor="middle" x="166" y="-7.5" font-family="Helvetica,sans-Serif" font-size="10.00">get_map</text>
</a>
</g>
</g>
<!-- Node4&#45;&gt;Node5 -->
<g id="edge4" class="edge">
<title>Node4&#45;&gt;Node5</title>
<path fill="none" stroke="midnightblue" d="M263.17,-66C251.57,-54.33 234.95,-39.17 218,-29 210.3,-24.38 201.3,-20.57 193.01,-17.61"/>
<polygon fill="midnightblue" stroke="midnightblue" points="260.88,-68.66 270.34,-73.42 265.91,-63.8 260.88,-68.66"/>
</g>
<!-- Node12 -->
<g id="node7" class="node">
<title>Node12</title>
<g id="a_node7"><a xlink:href="navier8_8f.html#a3c68a6cfc47f9c2602ab5029cae20ac8" target="_top" xlink:title=" ">
<polygon fill="white" stroke="red" points="135,-114.5 135,-133.5 197,-133.5 197,-114.5 135,-114.5"/>
<text text-anchor="middle" x="166" y="-121.5" font-family="Helvetica,sans-Serif" font-size="10.00">get_vertex</text>
</a>
</g>
</g>
<!-- Node4&#45;&gt;Node12 -->
<g id="edge7" class="edge">
<title>Node4&#45;&gt;Node12</title>
<path fill="none" stroke="midnightblue" d="M244.06,-95.79C227.63,-101.8 208.38,-108.85 193.22,-114.4"/>
<polygon fill="midnightblue" stroke="midnightblue" points="245.68,-98.93 253.87,-92.2 243.27,-92.35 245.68,-98.93"/>
</g>
<!-- Node72 -->
<g id="node8" class="node">
<title>Node72</title>
<g id="a_node8"><a xlink:href="hsmg_8f.html#af4bdfbdcb8eeccc615c574ca02e629a9" target="_top" xlink:title=" ">
<polygon fill="white" stroke="red" points="114,-76.5 114,-95.5 218,-95.5 218,-76.5 114,-76.5"/>
<text text-anchor="middle" x="166" y="-83.5" font-family="Helvetica,sans-Serif" font-size="10.00">h1mg_setup_dssum</text>
</a>
</g>
</g>
<!-- Node4&#45;&gt;Node72 -->
<g id="edge8" class="edge">
<title>Node4&#45;&gt;Node72</title>
<path fill="none" stroke="midnightblue" d="M243.67,-83.95C235.57,-84.16 226.8,-84.4 218.18,-84.63"/>
<polygon fill="midnightblue" stroke="midnightblue" points="243.96,-87.44 253.87,-83.67 243.77,-80.44 243.96,-87.44"/>
</g>
<!-- Node74 -->
<g id="node9" class="node">
<title>Node74</title>
<g id="a_node9"><a xlink:href="hsmg_8f.html#ae0fd4b116048f3b3c3efe9116ae63a58" target="_top" xlink:title=" ">
<polygon fill="white" stroke="red" points="114,-38.5 114,-57.5 218,-57.5 218,-38.5 114,-38.5"/>
<text text-anchor="middle" x="166" y="-45.5" font-family="Helvetica,sans-Serif" font-size="10.00">hsmg_setup_dssum</text>
</a>
</g>
</g>
<!-- Node4&#45;&gt;Node74 -->
<g id="edge9" class="edge">
<title>Node4&#45;&gt;Node74</title>
<path fill="none" stroke="midnightblue" d="M244.01,-72.07C229.15,-67.42 211.99,-62.06 197.64,-57.57"/>
<polygon fill="midnightblue" stroke="midnightblue" points="243.28,-75.5 253.87,-75.15 245.36,-68.82 243.28,-75.5"/>
</g>
<!-- Node76 -->
<g id="node10" class="node">
<title>Node76</title>
<g id="a_node10"><a xlink:href="connect1_8f.html#a555c5112d24b342a7e0c9d0990c53ae2" target="_top" xlink:title=" ">
<polygon fill="white" stroke="red" points="133.5,-152.5 133.5,-171.5 198.5,-171.5 198.5,-152.5 133.5,-152.5"/>
<text text-anchor="middle" x="166" y="-159.5" font-family="Helvetica,sans-Serif" font-size="10.00">setup_topo</text>
</a>
</g>
</g>
<!-- Node4&#45;&gt;Node76 -->
<g id="edge10" class="edge">
<title>Node4&#45;&gt;Node76</title>
<path fill="none" stroke="midnightblue" d="M264.64,-100.71C253.18,-113.87 236.09,-131.48 218,-143 212.1,-146.75 205.35,-149.93 198.74,-152.54"/>
<polygon fill="midnightblue" stroke="midnightblue" points="267.54,-102.7 271.31,-92.8 262.19,-98.19 267.54,-102.7"/>
</g>
<!-- Node5&#45;&gt;Node1 -->
<g id="edge5" class="edge">
<title>Node5&#45;&gt;Node1</title>
<path fill="none" stroke="midnightblue" d="M203.54,-12.1C282.93,-16.66 470.37,-27.44 548.9,-31.95"/>
<polygon fill="midnightblue" stroke="midnightblue" points="203.26,-8.58 193.07,-11.5 202.85,-15.57 203.26,-8.58"/>
</g>
<!-- Node6 -->
<g id="node6" class="node">
<title>Node6</title>
<g id="a_node6"><a xlink:href="map2_8f.html#a7d36efc1d668447eee63563983385f7a" target="_top" xlink:title=" ">
<polygon fill="white" stroke="red" points="0,-0.5 0,-19.5 78,-19.5 78,-0.5 0,-0.5"/>
<text text-anchor="middle" x="39" y="-7.5" font-family="Helvetica,sans-Serif" font-size="10.00">set_proc_map</text>
</a>
</g>
</g>
<!-- Node5&#45;&gt;Node6 -->
<g id="edge6" class="edge">
<title>Node5&#45;&gt;Node6</title>
<path fill="none" stroke="midnightblue" d="M128.79,-10C112.87,-10 94.16,-10 78.03,-10"/>
<polygon fill="midnightblue" stroke="midnightblue" points="128.8,-13.5 138.8,-10 128.8,-6.5 128.8,-13.5"/>
</g>
</g>
</svg>
        <g id="navigator" transform="translate(0 0)" fill="#404254">
                <rect fill="#f2f5e9" fill-opacity="0.5" stroke="#606060" stroke-width=".5" x="0" y="0" width="60" height="60"/>
                <use id="zoomplus" xlink:href="#zoomPlus" x="17" y="9" onmousedown="handleZoom(evt,'in')"/>
                <use id="zoomminus" xlink:href="#zoomMin" x="42" y="9" onmousedown="handleZoom(evt,'out')"/>
                <use id="reset" xlink:href="#resetDef" x="30" y="36" onmousedown="handleReset()"/>
                <g id="arrowUp" xlink:href="#dirArrow" transform="translate(30 24)" onmousedown="handlePan(0,-1)">
                  <use xlink:href="#rim" fill="#404040">
                        <set attributeName="fill" to="#808080" begin="arrowUp.mouseover" end="arrowUp.mouseout"/>
                  </use>
                  <path fill="none" stroke="white" stroke-width="1.5" d="M0,-3.0v7 M-2.5,-0.5L0,-3.0L2.5,-0.5"/>
                </g>
                <g id="arrowRight" xlink:href="#dirArrow" transform="rotate(90) translate(36 -43)" onmousedown="handlePan(1,0)">
                  <use xlink:href="#rim" fill="#404040">
                        <set attributeName="fill" to="#808080" begin="arrowRight.mouseover" end="arrowRight.mouseout"/>
                  </use>
                  <path fill="none" stroke="white" stroke-width="1.5" d="M0,-3.0v7 M-2.5,-0.5L0,-3.0L2.5,-0.5"/>
                </g>
                <g id="arrowDown" xlink:href="#dirArrow" transform="rotate(180) translate(-30 -48)" onmousedown="handlePan(0,1)">
                  <use xlink:href="#rim" fill="#404040">
                        <set attributeName="fill" to="#808080" begin="arrowDown.mouseover" end="arrowDown.mouseout"/>
                  </use>
                  <path fill="none" stroke="white" stroke-width="1.5" d="M0,-3.0v7 M-2.5,-0.5L0,-3.0L2.5,-0.5"/>
                </g>
                <g id="arrowLeft" xlink:href="#dirArrow" transform="rotate(270) translate(-36 17)" onmousedown="handlePan(-1,0)">
                  <use xlink:href="#rim" fill="#404040">
                        <set attributeName="fill" to="#808080" begin="arrowLeft.mouseover" end="arrowLeft.mouseout"/>
                  </use>
                  <path fill="none" stroke="white" stroke-width="1.5" d="M0,-3.0v7 M-2.5,-0.5L0,-3.0L2.5,-0.5"/>
                </g>
        </g>
        <svg viewBox="0 0 15 15" width="100%" height="30px" preserveAspectRatio="xMaxYMin meet">
         <g id="arrow_out" transform="scale(0.3 0.3)">
          <a xlink:href="map2_8f_a8beadce5e829399452ec13a7ac6b4633_icgraph_org.svg" target="_base">
           <rect id="button" ry="5" rx="5" y="6" x="6" height="38" width="38"
                fill="#f2f5e9" fill-opacity="0.5" stroke="#606060" stroke-width="1.0"/>
           <path id="arrow"
             d="M 11.500037,31.436501 C 11.940474,20.09759 22.043105,11.32322 32.158766,21.979434 L 37.068811,17.246167 C 37.068811,17.246167 37.088388,32 37.088388,32 L 22.160133,31.978069 C 22.160133,31.978069 26.997745,27.140456 26.997745,27.140456 C 18.528582,18.264221 13.291696,25.230495 11.500037,31.436501 z"
             style="fill:#404040;"/>
          </a>
         </g>
        </svg>
</svg>
