<?xml version="1.0" encoding="UTF-8" standalone="no"?>
<!DOCTYPE svg PUBLIC "-//W3C//DTD SVG 1.1//EN"
 "http://www.w3.org/Graphics/SVG/1.1/DTD/svg11.dtd">
<!-- Generated by graphviz version 2.46.0 (0)
 -->
<!-- Title: ifill Pages: 1 -->
<svg width="337pt" height="218pt"
 viewBox="0.00 0.00 337.00 218.00" xmlns="http://www.w3.org/2000/svg" xmlns:xlink="http://www.w3.org/1999/xlink">
<g id="graph0" class="graph" transform="scale(1 1) rotate(0) translate(4 214)">
<title>ifill</title>
<polygon fill="white" stroke="transparent" points="-4,4 -4,-214 333,-214 333,4 -4,4"/>
<!-- Node1 -->
<g id="node1" class="node">
<title>Node1</title>
<g id="a_node1"><a xlink:title=" ">
<polygon fill="#bfbfbf" stroke="black" points="300,-114.5 300,-133.5 329,-133.5 329,-114.5 300,-114.5"/>
<text text-anchor="middle" x="314.5" y="-121.5" font-family="Helvetica,sans-Serif" font-size="10.00">ifill</text>
</a>
</g>
</g>
<!-- Node2 -->
<g id="node2" class="node">
<title>Node2</title>
<g id="a_node2"><a xlink:href="dprocmap_8f.html#a311a5a8d89b7f42b1f539390ad6b2fb0" target="_top" xlink:title=" ">
<polygon fill="white" stroke="black" points="191,-114.5 191,-133.5 264,-133.5 264,-114.5 191,-114.5"/>
<text text-anchor="middle" x="227.5" y="-121.5" font-family="Helvetica,sans-Serif" font-size="10.00">dprocmapget</text>
</a>
</g>
</g>
<!-- Node1&#45;&gt;Node2 -->
<g id="edge1" class="edge">
<title>Node1&#45;&gt;Node2</title>
<path fill="none" stroke="midnightblue" d="M289.82,-124C281.86,-124 272.8,-124 264.13,-124"/>
<polygon fill="midnightblue" stroke="midnightblue" points="289.84,-127.5 299.84,-124 289.84,-120.5 289.84,-127.5"/>
</g>
<!-- Node3 -->
<g id="node3" class="node">
<title>Node3</title>
<g id="a_node3"><a xlink:href="dprocmap_8f.html#a90fd349db1c16c4cb8108485b3c200e0" target="_top" xlink:title=" ">
<polygon fill="white" stroke="red" points="118.5,-95.5 118.5,-114.5 152.5,-114.5 152.5,-95.5 118.5,-95.5"/>
<text text-anchor="middle" x="135.5" y="-102.5" font-family="Helvetica,sans-Serif" font-size="10.00">gllel</text>
</a>
</g>
</g>
<!-- Node2&#45;&gt;Node3 -->
<g id="edge2" class="edge">
<title>Node2&#45;&gt;Node3</title>
<path fill="none" stroke="midnightblue" d="M180.92,-114.38C170.84,-112.25 160.81,-110.13 152.83,-108.45"/>
<polygon fill="midnightblue" stroke="midnightblue" points="180.42,-117.85 190.93,-116.49 181.87,-111 180.42,-117.85"/>
</g>
<!-- Node167 -->
<g id="node10" class="node">
<title>Node167</title>
<g id="a_node10"><a xlink:href="dprocmap_8f.html#aa8f8117aad966b2c1f877b334d9d407b" target="_top" xlink:title=" ">
<polygon fill="white" stroke="red" points="116,-133.5 116,-152.5 155,-152.5 155,-133.5 116,-133.5"/>
<text text-anchor="middle" x="135.5" y="-140.5" font-family="Helvetica,sans-Serif" font-size="10.00">gllnid</text>
</a>
</g>
</g>
<!-- Node2&#45;&gt;Node167 -->
<g id="edge9" class="edge">
<title>Node2&#45;&gt;Node167</title>
<path fill="none" stroke="midnightblue" d="M181.09,-133.59C171.96,-135.51 162.85,-137.44 155.27,-139.04"/>
<polygon fill="midnightblue" stroke="midnightblue" points="181.87,-137 190.93,-131.51 180.42,-130.15 181.87,-137"/>
</g>
<!-- Node4 -->
<g id="node4" class="node">
<title>Node4</title>
<g id="a_node4"><a xlink:href="reader__re2_8f.html#a14cdc9443ed9567e04fab4f74b6f8494" target="_top" xlink:title=" ">
<polygon fill="white" stroke="red" points="1.5,-190.5 1.5,-209.5 78.5,-209.5 78.5,-190.5 1.5,-190.5"/>
<text text-anchor="middle" x="40" y="-197.5" font-family="Helvetica,sans-Serif" font-size="10.00">bin_rd1_mesh</text>
</a>
</g>
</g>
<!-- Node3&#45;&gt;Node4 -->
<g id="edge3" class="edge">
<title>Node3&#45;&gt;Node4</title>
<path fill="none" stroke="midnightblue" d="M117.46,-122.21C116.96,-122.8 116.47,-123.4 116,-124 97.45,-147.53 102.32,-161.01 80,-181 75.85,-184.72 70.84,-187.87 65.81,-190.48"/>
<polygon fill="midnightblue" stroke="midnightblue" points="120.15,-124.45 124.3,-114.7 114.97,-119.73 120.15,-124.45"/>
</g>
<!-- Node10 -->
<g id="node5" class="node">
<title>Node10</title>
<g id="a_node5"><a xlink:href="reader__re2_8f.html#a189e9cbe1eb8f139fb4274fc08ee13ee" target="_top" xlink:title=" ">
<polygon fill="white" stroke="red" points="10.5,-38.5 10.5,-57.5 69.5,-57.5 69.5,-38.5 10.5,-38.5"/>
<text text-anchor="middle" x="40" y="-45.5" font-family="Helvetica,sans-Serif" font-size="10.00">buf_to_bc</text>
</a>
</g>
</g>
<!-- Node3&#45;&gt;Node10 -->
<g id="edge4" class="edge">
<title>Node3&#45;&gt;Node10</title>
<path fill="none" stroke="midnightblue" d="M113.78,-89.42C103.81,-82.22 91.54,-73.78 80,-67 74.42,-63.72 68.18,-60.5 62.36,-57.67"/>
<polygon fill="midnightblue" stroke="midnightblue" points="111.75,-92.26 121.88,-95.36 115.89,-86.62 111.75,-92.26"/>
</g>
<!-- Node13 -->
<g id="node6" class="node">
<title>Node13</title>
<g id="a_node6"><a xlink:href="reader__re2_8f.html#a637876278ed588a2f4d0c595ec4ea32c" target="_top" xlink:title=" ">
<polygon fill="white" stroke="red" points="3.5,-0.5 3.5,-19.5 76.5,-19.5 76.5,-0.5 3.5,-0.5"/>
<text text-anchor="middle" x="40" y="-7.5" font-family="Helvetica,sans-Serif" font-size="10.00">buf_to_curve</text>
</a>
</g>
</g>
<!-- Node3&#45;&gt;Node13 -->
<g id="edge5" class="edge">
<title>Node3&#45;&gt;Node13</title>
<path fill="none" stroke="midnightblue" d="M124.81,-86.58C115.25,-69.82 99.29,-45.28 80,-29 75.74,-25.41 70.69,-22.3 65.65,-19.7"/>
<polygon fill="midnightblue" stroke="midnightblue" points="121.79,-88.35 129.68,-95.43 127.93,-84.98 121.79,-88.35"/>
</g>
<!-- Node16 -->
<g id="node7" class="node">
<title>Node16</title>
<g id="a_node7"><a xlink:href="postpro_8f.html#a939497202a2bde542ad2190aace1b0d9" target="_top" xlink:title=" ">
<polygon fill="white" stroke="red" points="6.5,-152.5 6.5,-171.5 73.5,-171.5 73.5,-152.5 6.5,-152.5"/>
<text text-anchor="middle" x="40" y="-159.5" font-family="Helvetica,sans-Serif" font-size="10.00">gen_re2_bc</text>
</a>
</g>
</g>
<!-- Node3&#45;&gt;Node16 -->
<g id="edge6" class="edge">
<title>Node3&#45;&gt;Node16</title>
<path fill="none" stroke="midnightblue" d="M113.78,-120.58C103.81,-127.78 91.54,-136.22 80,-143 74.42,-146.28 68.18,-149.5 62.36,-152.33"/>
<polygon fill="midnightblue" stroke="midnightblue" points="115.89,-123.38 121.88,-114.64 111.75,-117.74 115.89,-123.38"/>
</g>
<!-- Node18 -->
<g id="node8" class="node">
<title>Node18</title>
<g id="a_node8"><a xlink:href="postpro_8f.html#ad8bc1f902134949368ef44cd1e832e83" target="_top" xlink:title=" ">
<polygon fill="white" stroke="red" points="0,-114.5 0,-133.5 80,-133.5 80,-114.5 0,-114.5"/>
<text text-anchor="middle" x="40" y="-121.5" font-family="Helvetica,sans-Serif" font-size="10.00">gen_re2_curve</text>
</a>
</g>
</g>
<!-- Node3&#45;&gt;Node18 -->
<g id="edge7" class="edge">
<title>Node3&#45;&gt;Node18</title>
<path fill="none" stroke="midnightblue" d="M108.24,-110.34C99.48,-112.12 89.53,-114.14 80.02,-116.07"/>
<polygon fill="midnightblue" stroke="midnightblue" points="109.11,-113.73 118.21,-108.31 107.72,-106.87 109.11,-113.73"/>
</g>
<!-- Node19 -->
<g id="node9" class="node">
<title>Node19</title>
<g id="a_node9"><a xlink:href="postpro_8f.html#a8bd1b39a9bcbe1b9c3931cf7471fba42" target="_top" xlink:title=" ">
<polygon fill="white" stroke="red" points="4,-76.5 4,-95.5 76,-95.5 76,-76.5 4,-76.5"/>
<text text-anchor="middle" x="40" y="-83.5" font-family="Helvetica,sans-Serif" font-size="10.00">gen_re2_xyz</text>
</a>
</g>
</g>
<!-- Node3&#45;&gt;Node19 -->
<g id="edge8" class="edge">
<title>Node3&#45;&gt;Node19</title>
<path fill="none" stroke="midnightblue" d="M108.13,-99.64C98.18,-97.62 86.7,-95.29 76.07,-93.13"/>
<polygon fill="midnightblue" stroke="midnightblue" points="107.72,-103.13 118.21,-101.69 109.11,-96.27 107.72,-103.13"/>
</g>
<!-- Node167&#45;&gt;Node4 -->
<g id="edge10" class="edge">
<title>Node167&#45;&gt;Node4</title>
<path fill="none" stroke="midnightblue" d="M113.78,-158.58C103.81,-165.78 91.54,-174.22 80,-181 74.42,-184.28 68.18,-187.5 62.36,-190.33"/>
<polygon fill="midnightblue" stroke="midnightblue" points="115.89,-161.38 121.88,-152.64 111.75,-155.74 115.89,-161.38"/>
</g>
<!-- Node167&#45;&gt;Node16 -->
<g id="edge11" class="edge">
<title>Node167&#45;&gt;Node16</title>
<path fill="none" stroke="midnightblue" d="M105.58,-148.88C95.42,-150.94 83.95,-153.27 73.53,-155.39"/>
<polygon fill="midnightblue" stroke="midnightblue" points="106.48,-152.27 115.58,-146.84 105.08,-145.41 106.48,-152.27"/>
</g>
<!-- Node167&#45;&gt;Node18 -->
<g id="edge12" class="edge">
<title>Node167&#45;&gt;Node18</title>
<path fill="none" stroke="midnightblue" d="M105.64,-137.14C97.65,-135.51 88.84,-133.72 80.36,-132"/>
<polygon fill="midnightblue" stroke="midnightblue" points="105.08,-140.59 115.58,-139.16 106.48,-133.73 105.08,-140.59"/>
</g>
<!-- Node167&#45;&gt;Node19 -->
<g id="edge13" class="edge">
<title>Node167&#45;&gt;Node19</title>
<path fill="none" stroke="midnightblue" d="M113.78,-127.42C103.81,-120.22 91.54,-111.78 80,-105 74.42,-101.72 68.18,-98.5 62.36,-95.67"/>
<polygon fill="midnightblue" stroke="midnightblue" points="111.75,-130.26 121.88,-133.36 115.89,-124.62 111.75,-130.26"/>
</g>
</g>
</svg>
