<?xml version="1.0" encoding="UTF-8" standalone="no"?>
<!DOCTYPE svg PUBLIC "-//W3C//DTD SVG 1.1//EN"
 "http://www.w3.org/Graphics/SVG/1.1/DTD/svg11.dtd">
<!-- Generated by graphviz version 2.46.0 (0)
 -->
<!-- Title: iglmax_ms Pages: 1 -->
<!--zoomable 104 -->
<svg id="main" version="1.1" xmlns="http://www.w3.org/2000/svg" xmlns:xlink="http://www.w3.org/1999/xlink" xml:space="preserve" onload="init(evt)">
<style type="text/css"><![CDATA[
.edge:hover path { stroke: red; }
.edge:hover polygon { stroke: red; fill: red; }
]]></style>
<script type="text/javascript"><![CDATA[
var edges = document.getElementsByTagName('g');
if (edges && edges.length) {
  for (var i=0;i<edges.length;i++) {
    if (edges[i].id.substr(0,4)=='edge') {
      edges[i].setAttribute('class','edge');
    }
  }
}
]]></script>
        <defs>
                <circle id="rim" cx="0" cy="0" r="7"/>
                <circle id="rim2" cx="0" cy="0" r="3.5"/>
                <g id="zoomPlus">
                        <use xlink:href="#rim" fill="#404040">
                                <set attributeName="fill" to="#808080" begin="zoomplus.mouseover" end="zoomplus.mouseout"/>
                        </use>
                        <path d="M-4,0h8M0,-4v8" fill="none" stroke="white" stroke-width="1.5" pointer-events="none"/>
                </g>
                <g id="zoomMin">
                        <use xlink:href="#rim" fill="#404040">
                                <set attributeName="fill" to="#808080" begin="zoomminus.mouseover" end="zoomminus.mouseout"/>
                        </use>
                        <path d="M-4,0h8" fill="none" stroke="white" stroke-width="1.5" pointer-events="none"/>
                </g>
                <g id="dirArrow">
                        <path fill="none" stroke="white" stroke-width="1.5" d="M0,-3.0v7 M-2.5,-0.5L0,-3.0L2.5,-0.5"/>
                </g>
               <g id="resetDef">
                       <use xlink:href="#rim2" fill="#404040">
                               <set attributeName="fill" to="#808080" begin="reset.mouseover" end="reset.mouseout"/>
                       </use>
               </g>
        </defs>

<script type="text/javascript">
var viewWidth = 645;
var viewHeight = 104;
var sectionId = 'dynsection-61';
</script>
<script xlink:href="svgpan.js"/>
<svg id="graph" class="graph">
<g id="viewport">
<title>iglmax_ms</title>
<polygon fill="white" stroke="transparent" points="-4,4 -4,-100 641,-100 641,4 -4,4"/>
<!-- Node1 -->
<g id="node1" class="node">
<title>Node1</title>
<g id="a_node1"><a xlink:title=" ">
<polygon fill="#bfbfbf" stroke="black" points="573,-38.5 573,-57.5 637,-57.5 637,-38.5 573,-38.5"/>
<text text-anchor="middle" x="605" y="-45.5" font-family="Helvetica,sans-Serif" font-size="10.00">iglmax_ms</text>
</a>
</g>
</g>
<!-- Node2 -->
<g id="node2" class="node">
<title>Node2</title>
<g id="a_node2"><a xlink:href="multimesh_8f.html#a4150b3c742dd41e62ef12ae16149a930" target="_top" xlink:title=" ">
<polygon fill="white" stroke="black" points="447,-76.5 447,-95.5 537,-95.5 537,-76.5 447,-76.5"/>
<text text-anchor="middle" x="492" y="-83.5" font-family="Helvetica,sans-Serif" font-size="10.00">exchange_points</text>
</a>
</g>
</g>
<!-- Node1&#45;&gt;Node2 -->
<g id="edge1" class="edge">
<title>Node1&#45;&gt;Node2</title>
<path fill="none" stroke="midnightblue" d="M566.11,-60.97C551.32,-66.03 534.67,-71.73 521,-76.41"/>
<polygon fill="midnightblue" stroke="midnightblue" points="567.66,-64.14 575.99,-57.59 565.4,-57.52 567.66,-64.14"/>
</g>
<!-- Node3 -->
<g id="node3" class="node">
<title>Node3</title>
<g id="a_node3"><a xlink:href="multimesh_8f.html#ae456181cee68ca24e24244df7c9db9c6" target="_top" xlink:title=" ">
<polygon fill="white" stroke="black" points="334,-57.5 334,-76.5 411,-76.5 411,-57.5 334,-57.5"/>
<text text-anchor="middle" x="372.5" y="-64.5" font-family="Helvetica,sans-Serif" font-size="10.00">neknek_setup</text>
</a>
</g>
</g>
<!-- Node1&#45;&gt;Node3 -->
<g id="edge7" class="edge">
<title>Node1&#45;&gt;Node3</title>
<path fill="none" stroke="midnightblue" d="M562.8,-51.4C519.82,-54.94 453.03,-60.44 411.35,-63.88"/>
<polygon fill="midnightblue" stroke="midnightblue" points="563.24,-54.87 572.91,-50.56 562.66,-47.9 563.24,-54.87"/>
</g>
<!-- Node9 -->
<g id="node8" class="node">
<title>Node9</title>
<g id="a_node8"><a xlink:href="navier8_8f.html#a809b9aa647f2046d09131be2f6074ff6" target="_top" xlink:title=" ">
<polygon fill="white" stroke="black" points="452,-0.5 452,-19.5 532,-19.5 532,-0.5 452,-0.5"/>
<text text-anchor="middle" x="492" y="-7.5" font-family="Helvetica,sans-Serif" font-size="10.00">set_up_h1_crs</text>
</a>
</g>
</g>
<!-- Node1&#45;&gt;Node9 -->
<g id="edge8" class="edge">
<title>Node1&#45;&gt;Node9</title>
<path fill="none" stroke="midnightblue" d="M566.11,-35.03C551.32,-29.97 534.67,-24.27 521,-19.59"/>
<polygon fill="midnightblue" stroke="midnightblue" points="565.4,-38.48 575.99,-38.41 567.66,-31.86 565.4,-38.48"/>
</g>
<!-- Node2&#45;&gt;Node3 -->
<g id="edge2" class="edge">
<title>Node2&#45;&gt;Node3</title>
<path fill="none" stroke="midnightblue" d="M436.87,-77.25C428.23,-75.85 419.45,-74.43 411.29,-73.11"/>
<polygon fill="midnightblue" stroke="midnightblue" points="436.48,-80.73 446.91,-78.87 437.6,-73.82 436.48,-80.73"/>
</g>
<!-- Node4 -->
<g id="node4" class="node">
<title>Node4</title>
<g id="a_node4"><a xlink:href="drive1_8f.html#ae177ea7efac97f35241521b782a671c0" target="_top" xlink:title=" ">
<polygon fill="white" stroke="black" points="224,-76.5 224,-95.5 298,-95.5 298,-76.5 224,-76.5"/>
<text text-anchor="middle" x="261" y="-83.5" font-family="Helvetica,sans-Serif" font-size="10.00">nek_advance</text>
</a>
</g>
</g>
<!-- Node3&#45;&gt;Node4 -->
<g id="edge3" class="edge">
<title>Node3&#45;&gt;Node4</title>
<path fill="none" stroke="midnightblue" d="M323.89,-75.26C315.3,-76.75 306.48,-78.28 298.27,-79.71"/>
<polygon fill="midnightblue" stroke="midnightblue" points="324.56,-78.7 333.82,-73.54 323.37,-71.8 324.56,-78.7"/>
</g>
<!-- Node8 -->
<g id="node6" class="node">
<title>Node8</title>
<g id="a_node6"><a xlink:href="drive1_8f.html#a83f7c6d78ac4e68394f32533e847d0a3" target="_top" xlink:title=" ">
<polygon fill="white" stroke="black" points="110,-19.5 110,-38.5 160,-38.5 160,-19.5 110,-19.5"/>
<text text-anchor="middle" x="135" y="-26.5" font-family="Helvetica,sans-Serif" font-size="10.00">nek_init</text>
</a>
</g>
</g>
<!-- Node3&#45;&gt;Node8 -->
<g id="edge5" class="edge">
<title>Node3&#45;&gt;Node8</title>
<path fill="none" stroke="midnightblue" d="M323.76,-59.3C274.15,-51.29 198.51,-39.09 160.14,-32.9"/>
<polygon fill="midnightblue" stroke="midnightblue" points="323.49,-62.8 333.92,-60.94 324.61,-55.89 323.49,-62.8"/>
</g>
<!-- Node5 -->
<g id="node5" class="node">
<title>Node5</title>
<g id="a_node5"><a xlink:href="drive1_8f.html#a18d3e839786263fc4cf91f7eeb714371" target="_top" xlink:title=" ">
<polygon fill="white" stroke="red" points="82,-76.5 82,-95.5 188,-95.5 188,-76.5 82,-76.5"/>
<text text-anchor="middle" x="135" y="-83.5" font-family="Helvetica,sans-Serif" font-size="10.00">nek__multi_advance</text>
</a>
</g>
</g>
<!-- Node4&#45;&gt;Node5 -->
<g id="edge4" class="edge">
<title>Node4&#45;&gt;Node5</title>
<path fill="none" stroke="midnightblue" d="M213.56,-86C205.27,-86 196.58,-86 188.14,-86"/>
<polygon fill="midnightblue" stroke="midnightblue" points="213.8,-89.5 223.8,-86 213.8,-82.5 213.8,-89.5"/>
</g>
<!-- Node7 -->
<g id="node7" class="node">
<title>Node7</title>
<g id="a_node7"><a xlink:href="drive_8f.html#a13048bf28dd0734640412d69349e3857" target="_top" xlink:title=" ">
<polygon fill="white" stroke="black" points="0,-19.5 0,-38.5 46,-38.5 46,-19.5 0,-19.5"/>
<text text-anchor="middle" x="23" y="-26.5" font-family="Helvetica,sans-Serif" font-size="10.00">nekton</text>
</a>
</g>
</g>
<!-- Node8&#45;&gt;Node7 -->
<g id="edge6" class="edge">
<title>Node8&#45;&gt;Node7</title>
<path fill="none" stroke="midnightblue" d="M99.51,-29C82.1,-29 61.5,-29 46.21,-29"/>
<polygon fill="midnightblue" stroke="midnightblue" points="99.86,-32.5 109.86,-29 99.86,-25.5 99.86,-32.5"/>
</g>
<!-- Node10 -->
<g id="node9" class="node">
<title>Node10</title>
<g id="a_node9"><a xlink:href="navier6_8f.html#a45317b1def173b8f1db2e5083595d095" target="_top" xlink:title=" ">
<polygon fill="white" stroke="black" points="339,-0.5 339,-19.5 406,-19.5 406,-0.5 339,-0.5"/>
<text text-anchor="middle" x="372.5" y="-7.5" font-family="Helvetica,sans-Serif" font-size="10.00">set_overlap</text>
</a>
</g>
</g>
<!-- Node9&#45;&gt;Node10 -->
<g id="edge9" class="edge">
<title>Node9&#45;&gt;Node10</title>
<path fill="none" stroke="midnightblue" d="M441.56,-10C429.62,-10 417.14,-10 406.18,-10"/>
<polygon fill="midnightblue" stroke="midnightblue" points="441.87,-13.5 451.87,-10 441.87,-6.5 441.87,-13.5"/>
</g>
<!-- Node11 -->
<g id="node10" class="node">
<title>Node11</title>
<g id="a_node10"><a xlink:href="drive2_8f.html#a7cb0ea7de68c5c3cbc3f7290f01a4d51" target="_top" xlink:title=" ">
<polygon fill="white" stroke="black" points="242,-0.5 242,-19.5 280,-19.5 280,-0.5 242,-0.5"/>
<text text-anchor="middle" x="261" y="-7.5" font-family="Helvetica,sans-Serif" font-size="10.00">prinit</text>
</a>
</g>
</g>
<!-- Node10&#45;&gt;Node11 -->
<g id="edge10" class="edge">
<title>Node10&#45;&gt;Node11</title>
<path fill="none" stroke="midnightblue" d="M328.73,-10C311.91,-10 293.5,-10 280.29,-10"/>
<polygon fill="midnightblue" stroke="midnightblue" points="328.94,-13.5 338.94,-10 328.94,-6.5 328.94,-13.5"/>
</g>
<!-- Node11&#45;&gt;Node8 -->
<g id="edge11" class="edge">
<title>Node11&#45;&gt;Node8</title>
<path fill="none" stroke="midnightblue" d="M232.05,-14.28C210.36,-17.61 180.63,-22.16 160.01,-25.32"/>
<polygon fill="midnightblue" stroke="midnightblue" points="232.61,-17.74 241.97,-12.76 231.55,-10.82 232.61,-17.74"/>
</g>
</g>
</svg>
        <g id="navigator" transform="translate(0 0)" fill="#404254">
                <rect fill="#f2f5e9" fill-opacity="0.5" stroke="#606060" stroke-width=".5" x="0" y="0" width="60" height="60"/>
                <use id="zoomplus" xlink:href="#zoomPlus" x="17" y="9" onmousedown="handleZoom(evt,'in')"/>
                <use id="zoomminus" xlink:href="#zoomMin" x="42" y="9" onmousedown="handleZoom(evt,'out')"/>
                <use id="reset" xlink:href="#resetDef" x="30" y="36" onmousedown="handleReset()"/>
                <g id="arrowUp" xlink:href="#dirArrow" transform="translate(30 24)" onmousedown="handlePan(0,-1)">
                  <use xlink:href="#rim" fill="#404040">
                        <set attributeName="fill" to="#808080" begin="arrowUp.mouseover" end="arrowUp.mouseout"/>
                  </use>
                  <path fill="none" stroke="white" stroke-width="1.5" d="M0,-3.0v7 M-2.5,-0.5L0,-3.0L2.5,-0.5"/>
                </g>
                <g id="arrowRight" xlink:href="#dirArrow" transform="rotate(90) translate(36 -43)" onmousedown="handlePan(1,0)">
                  <use xlink:href="#rim" fill="#404040">
                        <set attributeName="fill" to="#808080" begin="arrowRight.mouseover" end="arrowRight.mouseout"/>
                  </use>
                  <path fill="none" stroke="white" stroke-width="1.5" d="M0,-3.0v7 M-2.5,-0.5L0,-3.0L2.5,-0.5"/>
                </g>
                <g id="arrowDown" xlink:href="#dirArrow" transform="rotate(180) translate(-30 -48)" onmousedown="handlePan(0,1)">
                  <use xlink:href="#rim" fill="#404040">
                        <set attributeName="fill" to="#808080" begin="arrowDown.mouseover" end="arrowDown.mouseout"/>
                  </use>
                  <path fill="none" stroke="white" stroke-width="1.5" d="M0,-3.0v7 M-2.5,-0.5L0,-3.0L2.5,-0.5"/>
                </g>
                <g id="arrowLeft" xlink:href="#dirArrow" transform="rotate(270) translate(-36 17)" onmousedown="handlePan(-1,0)">
                  <use xlink:href="#rim" fill="#404040">
                        <set attributeName="fill" to="#808080" begin="arrowLeft.mouseover" end="arrowLeft.mouseout"/>
                  </use>
                  <path fill="none" stroke="white" stroke-width="1.5" d="M0,-3.0v7 M-2.5,-0.5L0,-3.0L2.5,-0.5"/>
                </g>
        </g>
        <svg viewBox="0 0 15 15" width="100%" height="30px" preserveAspectRatio="xMaxYMin meet">
         <g id="arrow_out" transform="scale(0.3 0.3)">
          <a xlink:href="math_8f_ad912dbb5862661eec163a8c3767583b5_icgraph_org.svg" target="_base">
           <rect id="button" ry="5" rx="5" y="6" x="6" height="38" width="38"
                fill="#f2f5e9" fill-opacity="0.5" stroke="#606060" stroke-width="1.0"/>
           <path id="arrow"
             d="M 11.500037,31.436501 C 11.940474,20.09759 22.043105,11.32322 32.158766,21.979434 L 37.068811,17.246167 C 37.068811,17.246167 37.088388,32 37.088388,32 L 22.160133,31.978069 C 22.160133,31.978069 26.997745,27.140456 26.997745,27.140456 C 18.528582,18.264221 13.291696,25.230495 11.500037,31.436501 z"
             style="fill:#404040;"/>
          </a>
         </g>
        </svg>
</svg>
