<?xml version="1.0" encoding="UTF-8" standalone="no"?>
<!DOCTYPE svg PUBLIC "-//W3C//DTD SVG 1.1//EN"
 "http://www.w3.org/Graphics/SVG/1.1/DTD/svg11.dtd">
<!-- Generated by graphviz version 2.46.0 (0)
 -->
<!-- Title: add2col2 Pages: 1 -->
<svg width="327pt" height="180pt"
 viewBox="0.00 0.00 327.00 180.00" xmlns="http://www.w3.org/2000/svg" xmlns:xlink="http://www.w3.org/1999/xlink">
<g id="graph0" class="graph" transform="scale(1 1) rotate(0) translate(4 176)">
<title>add2col2</title>
<polygon fill="white" stroke="transparent" points="-4,4 -4,-176 323,-176 323,4 -4,4"/>
<!-- Node1 -->
<g id="node1" class="node">
<title>Node1</title>
<g id="a_node1"><a xlink:title=" ">
<polygon fill="#bfbfbf" stroke="black" points="263,-57.5 263,-76.5 319,-76.5 319,-57.5 263,-57.5"/>
<text text-anchor="middle" x="291" y="-64.5" font-family="Helvetica,sans-Serif" font-size="10.00">add2col2</text>
</a>
</g>
</g>
<!-- Node2 -->
<g id="node2" class="node">
<title>Node2</title>
<g id="a_node2"><a xlink:href="induct_8f.html#aeb2c6d4ae2c98143118acce2419c034d" target="_top" xlink:title=" ">
<polygon fill="white" stroke="black" points="160.5,-114.5 160.5,-133.5 216.5,-133.5 216.5,-114.5 160.5,-114.5"/>
<text text-anchor="middle" x="188.5" y="-121.5" font-family="Helvetica,sans-Serif" font-size="10.00">incomprn</text>
</a>
</g>
</g>
<!-- Node1&#45;&gt;Node2 -->
<g id="edge1" class="edge">
<title>Node1&#45;&gt;Node2</title>
<path fill="none" stroke="midnightblue" d="M266.18,-81.93C254.49,-89.12 240.14,-97.72 227,-105 221.25,-108.18 214.91,-111.48 209.11,-114.41"/>
<polygon fill="midnightblue" stroke="midnightblue" points="268.25,-84.77 274.91,-76.53 264.56,-78.82 268.25,-84.77"/>
</g>
<!-- Node17 -->
<g id="node6" class="node">
<title>Node17</title>
<g id="a_node6"><a xlink:href="drive2_8f.html#ab51ca8fa0065dc484f18189df4727349" target="_top" xlink:title=" ">
<polygon fill="white" stroke="black" points="159.5,-76.5 159.5,-95.5 217.5,-95.5 217.5,-76.5 159.5,-76.5"/>
<text text-anchor="middle" x="188.5" y="-83.5" font-family="Helvetica,sans-Serif" font-size="10.00">plan2_vol</text>
</a>
</g>
</g>
<!-- Node1&#45;&gt;Node17 -->
<g id="edge5" class="edge">
<title>Node1&#45;&gt;Node17</title>
<path fill="none" stroke="midnightblue" d="M252.92,-74.01C241.31,-76.21 228.68,-78.59 217.77,-80.66"/>
<polygon fill="midnightblue" stroke="midnightblue" points="253.63,-77.44 262.8,-72.14 252.33,-70.56 253.63,-77.44"/>
</g>
<!-- Node18 -->
<g id="node7" class="node">
<title>Node18</title>
<g id="a_node7"><a xlink:href="drive2_8f.html#afe26dea455fd7088135bf58cb3df9f6d" target="_top" xlink:title=" ">
<polygon fill="white" stroke="black" points="159.5,-38.5 159.5,-57.5 217.5,-57.5 217.5,-38.5 159.5,-38.5"/>
<text text-anchor="middle" x="188.5" y="-45.5" font-family="Helvetica,sans-Serif" font-size="10.00">plan4_vol</text>
</a>
</g>
</g>
<!-- Node1&#45;&gt;Node18 -->
<g id="edge6" class="edge">
<title>Node1&#45;&gt;Node18</title>
<path fill="none" stroke="midnightblue" d="M252.92,-59.99C241.31,-57.79 228.68,-55.41 217.77,-53.34"/>
<polygon fill="midnightblue" stroke="midnightblue" points="252.33,-63.44 262.8,-61.86 253.63,-56.56 252.33,-63.44"/>
</g>
<!-- Node21 -->
<g id="node9" class="node">
<title>Node21</title>
<g id="a_node9"><a xlink:href="multimesh_8f.html#a1abe8f51886fce3a30fb4f68c8c132b9" target="_top" xlink:title=" ">
<polygon fill="white" stroke="black" points="150,-0.5 150,-19.5 227,-19.5 227,-0.5 150,-0.5"/>
<text text-anchor="middle" x="188.5" y="-7.5" font-family="Helvetica,sans-Serif" font-size="10.00">plan4_vol_ms</text>
</a>
</g>
</g>
<!-- Node1&#45;&gt;Node21 -->
<g id="edge8" class="edge">
<title>Node1&#45;&gt;Node21</title>
<path fill="none" stroke="midnightblue" d="M266.18,-52.07C254.49,-44.88 240.14,-36.28 227,-29 221.25,-25.82 214.91,-22.52 209.11,-19.59"/>
<polygon fill="midnightblue" stroke="midnightblue" points="264.56,-55.18 274.91,-57.47 268.25,-49.23 264.56,-55.18"/>
</g>
<!-- Node3 -->
<g id="node3" class="node">
<title>Node3</title>
<g id="a_node3"><a xlink:href="induct_8f.html#adef470718d07d8b4c7f6bf32b2a9ecb9" target="_top" xlink:title=" ">
<polygon fill="white" stroke="red" points="27.5,-152.5 27.5,-171.5 86.5,-171.5 86.5,-152.5 27.5,-152.5"/>
<text text-anchor="middle" x="57" y="-159.5" font-family="Helvetica,sans-Serif" font-size="10.00">elsasserh</text>
</a>
</g>
</g>
<!-- Node2&#45;&gt;Node3 -->
<g id="edge2" class="edge">
<title>Node2&#45;&gt;Node3</title>
<path fill="none" stroke="midnightblue" d="M150.55,-134.84C130.35,-140.77 105.69,-148.01 86.91,-153.52"/>
<polygon fill="midnightblue" stroke="midnightblue" points="151.74,-138.14 160.35,-131.97 149.77,-131.42 151.74,-138.14"/>
</g>
<!-- Node9 -->
<g id="node4" class="node">
<title>Node9</title>
<g id="a_node4"><a xlink:href="plan5_8f.html#a1c77871dc9883719557071c0006dc66e" target="_top" xlink:title=" ">
<polygon fill="white" stroke="red" points="31.5,-114.5 31.5,-133.5 82.5,-133.5 82.5,-114.5 31.5,-114.5"/>
<text text-anchor="middle" x="57" y="-121.5" font-family="Helvetica,sans-Serif" font-size="10.00">midstep</text>
</a>
</g>
</g>
<!-- Node2&#45;&gt;Node9 -->
<g id="edge3" class="edge">
<title>Node2&#45;&gt;Node9</title>
<path fill="none" stroke="midnightblue" d="M150.2,-124C128.6,-124 101.99,-124 82.92,-124"/>
<polygon fill="midnightblue" stroke="midnightblue" points="150.35,-127.5 160.35,-124 150.35,-120.5 150.35,-127.5"/>
</g>
<!-- Node16 -->
<g id="node5" class="node">
<title>Node16</title>
<g id="a_node5"><a xlink:href="planx_8f.html#a142f9186a662d3de60f09bb0ee26782d" target="_top" xlink:title=" ">
<polygon fill="white" stroke="red" points="37,-76.5 37,-95.5 77,-95.5 77,-76.5 37,-76.5"/>
<text text-anchor="middle" x="57" y="-83.5" font-family="Helvetica,sans-Serif" font-size="10.00">plan3</text>
</a>
</g>
</g>
<!-- Node2&#45;&gt;Node16 -->
<g id="edge4" class="edge">
<title>Node2&#45;&gt;Node16</title>
<path fill="none" stroke="midnightblue" d="M150.52,-113.15C126.58,-106.12 96.39,-97.26 77.13,-91.61"/>
<polygon fill="midnightblue" stroke="midnightblue" points="149.77,-116.58 160.35,-116.03 151.74,-109.86 149.77,-116.58"/>
</g>
<!-- Node19 -->
<g id="node8" class="node">
<title>Node19</title>
<g id="a_node8"><a xlink:href="drive2_8f.html#a578958d7bb6d5bbeaecd91ae64d88dd3" target="_top" xlink:title=" ">
<polygon fill="white" stroke="red" points="9.5,-38.5 9.5,-57.5 104.5,-57.5 104.5,-38.5 9.5,-38.5"/>
<text text-anchor="middle" x="57" y="-45.5" font-family="Helvetica,sans-Serif" font-size="10.00">compute_vol_soln</text>
</a>
</g>
</g>
<!-- Node18&#45;&gt;Node19 -->
<g id="edge7" class="edge">
<title>Node18&#45;&gt;Node19</title>
<path fill="none" stroke="midnightblue" d="M149.16,-48C135.19,-48 119.24,-48 104.63,-48"/>
<polygon fill="midnightblue" stroke="midnightblue" points="149.4,-51.5 159.4,-48 149.4,-44.5 149.4,-51.5"/>
</g>
<!-- Node22 -->
<g id="node10" class="node">
<title>Node22</title>
<g id="a_node10"><a xlink:href="multimesh_8f.html#a03b8c4940c36f3c0396f6e537d142cd2" target="_top" xlink:title=" ">
<polygon fill="white" stroke="red" points="0,-0.5 0,-19.5 114,-19.5 114,-0.5 0,-0.5"/>
<text text-anchor="middle" x="57" y="-7.5" font-family="Helvetica,sans-Serif" font-size="10.00">compute_vol_soln_ms</text>
</a>
</g>
</g>
<!-- Node21&#45;&gt;Node22 -->
<g id="edge9" class="edge">
<title>Node21&#45;&gt;Node22</title>
<path fill="none" stroke="midnightblue" d="M139.56,-10C131.36,-10 122.78,-10 114.39,-10"/>
<polygon fill="midnightblue" stroke="midnightblue" points="139.7,-13.5 149.7,-10 139.7,-6.5 139.7,-13.5"/>
</g>
</g>
</svg>
