<?xml version="1.0" encoding="UTF-8" standalone="no"?>
<!DOCTYPE svg PUBLIC "-//W3C//DTD SVG 1.1//EN"
 "http://www.w3.org/Graphics/SVG/1.1/DTD/svg11.dtd">
<!-- Generated by graphviz version 2.46.0 (0)
 -->
<!-- Title: add3s2 Pages: 1 -->
<svg width="296pt" height="256pt"
 viewBox="0.00 0.00 296.00 256.00" xmlns="http://www.w3.org/2000/svg" xmlns:xlink="http://www.w3.org/1999/xlink">
<g id="graph0" class="graph" transform="scale(1 1) rotate(0) translate(4 252)">
<title>add3s2</title>
<polygon fill="white" stroke="transparent" points="-4,4 -4,-252 292,-252 292,4 -4,4"/>
<!-- Node1 -->
<g id="node1" class="node">
<title>Node1</title>
<g id="a_node1"><a xlink:title=" ">
<polygon fill="#bfbfbf" stroke="black" points="240,-114.5 240,-133.5 288,-133.5 288,-114.5 240,-114.5"/>
<text text-anchor="middle" x="264" y="-121.5" font-family="Helvetica,sans-Serif" font-size="10.00">add3s2</text>
</a>
</g>
</g>
<!-- Node2 -->
<g id="node2" class="node">
<title>Node2</title>
<g id="a_node2"><a xlink:href="navier1_8f.html#ab907b0b4f57c160c86799b03de3cef19" target="_top" xlink:title=" ">
<polygon fill="white" stroke="black" points="142.5,-228.5 142.5,-247.5 196.5,-247.5 196.5,-228.5 142.5,-228.5"/>
<text text-anchor="middle" x="169.5" y="-235.5" font-family="Helvetica,sans-Serif" font-size="10.00">makeabf</text>
</a>
</g>
</g>
<!-- Node1&#45;&gt;Node2 -->
<g id="edge1" class="edge">
<title>Node1&#45;&gt;Node2</title>
<path fill="none" stroke="midnightblue" d="M254.71,-143.02C244.95,-163.71 227.11,-196.79 204,-219 200.24,-222.61 195.66,-225.79 191.11,-228.46"/>
<polygon fill="midnightblue" stroke="midnightblue" points="257.99,-144.26 258.95,-133.71 251.62,-141.36 257.99,-144.26"/>
</g>
<!-- Node18 -->
<g id="node5" class="node">
<title>Node18</title>
<g id="a_node5"><a xlink:href="perturb_8f.html#a47c2fd6da3517bac53aeed0845dfa06e" target="_top" xlink:title=" ">
<polygon fill="white" stroke="red" points="138.5,-190.5 138.5,-209.5 200.5,-209.5 200.5,-190.5 138.5,-190.5"/>
<text text-anchor="middle" x="169.5" y="-197.5" font-family="Helvetica,sans-Serif" font-size="10.00">makeabqp</text>
</a>
</g>
</g>
<!-- Node1&#45;&gt;Node18 -->
<g id="edge4" class="edge">
<title>Node1&#45;&gt;Node18</title>
<path fill="none" stroke="midnightblue" d="M247.41,-141.21C236.06,-153.19 219.94,-169.08 204,-181 199.5,-184.36 194.35,-187.57 189.46,-190.35"/>
<polygon fill="midnightblue" stroke="midnightblue" points="250.2,-143.35 254.45,-133.65 245.08,-138.59 250.2,-143.35"/>
</g>
<!-- Node22 -->
<g id="node6" class="node">
<title>Node22</title>
<g id="a_node6"><a xlink:href="induct_8f.html#aa4655ac6671d4d082ed8a9222e93793f" target="_top" xlink:title=" ">
<polygon fill="white" stroke="black" points="142.5,-152.5 142.5,-171.5 196.5,-171.5 196.5,-152.5 142.5,-152.5"/>
<text text-anchor="middle" x="169.5" y="-159.5" font-family="Helvetica,sans-Serif" font-size="10.00">makextb</text>
</a>
</g>
</g>
<!-- Node1&#45;&gt;Node22 -->
<g id="edge5" class="edge">
<title>Node1&#45;&gt;Node22</title>
<path fill="none" stroke="midnightblue" d="M230.35,-137.41C218.3,-142.36 204.9,-147.87 193.83,-152.41"/>
<polygon fill="midnightblue" stroke="midnightblue" points="231.74,-140.63 239.66,-133.59 229.08,-134.15 231.74,-140.63"/>
</g>
<!-- Node23 -->
<g id="node7" class="node">
<title>Node23</title>
<g id="a_node7"><a xlink:href="perturb_8f.html#ac9f1bc02182c26749596efb4bfc87c5f" target="_top" xlink:title=" ">
<polygon fill="white" stroke="red" points="142.5,-114.5 142.5,-133.5 196.5,-133.5 196.5,-114.5 142.5,-114.5"/>
<text text-anchor="middle" x="169.5" y="-121.5" font-family="Helvetica,sans-Serif" font-size="10.00">makextp</text>
</a>
</g>
</g>
<!-- Node1&#45;&gt;Node23 -->
<g id="edge7" class="edge">
<title>Node1&#45;&gt;Node23</title>
<path fill="none" stroke="midnightblue" d="M229.35,-124C218.62,-124 206.9,-124 196.77,-124"/>
<polygon fill="midnightblue" stroke="midnightblue" points="229.66,-127.5 239.66,-124 229.66,-120.5 229.66,-127.5"/>
</g>
<!-- Node27 -->
<g id="node8" class="node">
<title>Node27</title>
<g id="a_node8"><a xlink:href="plan4_8f.html#a8b108456b0f09d13fd66b6eda4c97ac6" target="_top" xlink:title=" ">
<polygon fill="white" stroke="red" points="146.5,-76.5 146.5,-95.5 192.5,-95.5 192.5,-76.5 146.5,-76.5"/>
<text text-anchor="middle" x="169.5" y="-83.5" font-family="Helvetica,sans-Serif" font-size="10.00">sumab</text>
</a>
</g>
</g>
<!-- Node1&#45;&gt;Node27 -->
<g id="edge8" class="edge">
<title>Node1&#45;&gt;Node27</title>
<path fill="none" stroke="midnightblue" d="M230.06,-110.47C217.62,-105.36 203.77,-99.67 192.56,-95.06"/>
<polygon fill="midnightblue" stroke="midnightblue" points="229.08,-113.85 239.66,-114.41 231.74,-107.37 229.08,-113.85"/>
</g>
<!-- Node32 -->
<g id="node9" class="node">
<title>Node32</title>
<g id="a_node9"><a xlink:href="plan4_8f.html#a2a58ef58c4513d56903b075defcf0314" target="_top" xlink:title=" ">
<polygon fill="white" stroke="black" points="135,-38.5 135,-57.5 204,-57.5 204,-38.5 135,-38.5"/>
<text text-anchor="middle" x="169.5" y="-45.5" font-family="Helvetica,sans-Serif" font-size="10.00">userqtl_scig</text>
</a>
</g>
</g>
<!-- Node1&#45;&gt;Node32 -->
<g id="edge9" class="edge">
<title>Node1&#45;&gt;Node32</title>
<path fill="none" stroke="midnightblue" d="M247.41,-106.79C236.06,-94.81 219.94,-78.92 204,-67 199.5,-63.64 194.35,-60.43 189.46,-57.65"/>
<polygon fill="midnightblue" stroke="midnightblue" points="245.08,-109.41 254.45,-114.35 250.2,-104.65 245.08,-109.41"/>
</g>
<!-- Node33 -->
<g id="node10" class="node">
<title>Node33</title>
<g id="a_node10"><a xlink:href="navier1_8f.html#a575a4b8ab8623a21a46a9c0d2e795d72" target="_top" xlink:title=" ">
<polygon fill="white" stroke="red" points="145.5,-0.5 145.5,-19.5 193.5,-19.5 193.5,-0.5 145.5,-0.5"/>
<text text-anchor="middle" x="169.5" y="-7.5" font-family="Helvetica,sans-Serif" font-size="10.00">velchar</text>
</a>
</g>
</g>
<!-- Node1&#45;&gt;Node33 -->
<g id="edge10" class="edge">
<title>Node1&#45;&gt;Node33</title>
<path fill="none" stroke="midnightblue" d="M254.71,-104.98C244.95,-84.29 227.11,-51.21 204,-29 200.24,-25.39 195.66,-22.21 191.11,-19.54"/>
<polygon fill="midnightblue" stroke="midnightblue" points="251.62,-106.64 258.95,-114.29 257.99,-103.74 251.62,-106.64"/>
</g>
<!-- Node3 -->
<g id="node3" class="node">
<title>Node3</title>
<g id="a_node3"><a xlink:href="induct_8f.html#a0f0eb9c29e64571293f094020bee8033" target="_top" xlink:title=" ">
<polygon fill="white" stroke="red" points="0,-171.5 0,-190.5 99,-190.5 99,-171.5 0,-171.5"/>
<text text-anchor="middle" x="49.5" y="-178.5" font-family="Helvetica,sans-Serif" font-size="10.00">makebsource_mhd</text>
</a>
</g>
</g>
<!-- Node2&#45;&gt;Node3 -->
<g id="edge2" class="edge">
<title>Node2&#45;&gt;Node3</title>
<path fill="none" stroke="midnightblue" d="M139.73,-224.1C118.2,-213.7 89.31,-199.75 70.31,-190.57"/>
<polygon fill="midnightblue" stroke="midnightblue" points="138.22,-227.26 148.75,-228.46 141.27,-220.96 138.22,-227.26"/>
</g>
<!-- Node9 -->
<g id="node4" class="node">
<title>Node9</title>
<g id="a_node4"><a xlink:href="navier1_8f.html#a83189b3d1938d87f00ace2e7e05d9e4c" target="_top" xlink:title=" ">
<polygon fill="white" stroke="red" points="27.5,-228.5 27.5,-247.5 71.5,-247.5 71.5,-228.5 27.5,-228.5"/>
<text text-anchor="middle" x="49.5" y="-235.5" font-family="Helvetica,sans-Serif" font-size="10.00">makef</text>
</a>
</g>
</g>
<!-- Node2&#45;&gt;Node9 -->
<g id="edge3" class="edge">
<title>Node2&#45;&gt;Node9</title>
<path fill="none" stroke="midnightblue" d="M132.05,-238C112.17,-238 88.28,-238 71.51,-238"/>
<polygon fill="midnightblue" stroke="midnightblue" points="132.31,-241.5 142.31,-238 132.31,-234.5 132.31,-241.5"/>
</g>
<!-- Node22&#45;&gt;Node3 -->
<g id="edge6" class="edge">
<title>Node22&#45;&gt;Node3</title>
<path fill="none" stroke="midnightblue" d="M132.35,-167.82C121.95,-169.5 110.44,-171.35 99.41,-173.13"/>
<polygon fill="midnightblue" stroke="midnightblue" points="133,-171.26 142.31,-166.22 131.88,-164.35 133,-171.26"/>
</g>
</g>
</svg>
