<?xml version="1.0" encoding="UTF-8" standalone="no"?>
<!DOCTYPE svg PUBLIC "-//W3C//DTD SVG 1.1//EN"
 "http://www.w3.org/Graphics/SVG/1.1/DTD/svg11.dtd">
<!-- Generated by graphviz version 2.46.0 (0)
 -->
<!-- Title: gllog Pages: 1 -->
<svg width="316pt" height="180pt"
 viewBox="0.00 0.00 316.00 180.00" xmlns="http://www.w3.org/2000/svg" xmlns:xlink="http://www.w3.org/1999/xlink">
<g id="graph0" class="graph" transform="scale(1 1) rotate(0) translate(4 176)">
<title>gllog</title>
<polygon fill="white" stroke="transparent" points="-4,4 -4,-176 312,-176 312,4 -4,4"/>
<!-- Node1 -->
<g id="node1" class="node">
<title>Node1</title>
<g id="a_node1"><a xlink:title=" ">
<polygon fill="#bfbfbf" stroke="black" points="271,-76.5 271,-95.5 308,-95.5 308,-76.5 271,-76.5"/>
<text text-anchor="middle" x="289.5" y="-83.5" font-family="Helvetica,sans-Serif" font-size="10.00">gllog</text>
</a>
</g>
</g>
<!-- Node2 -->
<g id="node2" class="node">
<title>Node2</title>
<g id="a_node2"><a xlink:href="induct_8f.html#a8ab9011a7d77fe8fe5f3d6acc6835aaa" target="_top" xlink:title=" ">
<polygon fill="white" stroke="black" points="176,-152.5 176,-171.5 235,-171.5 235,-152.5 176,-152.5"/>
<text text-anchor="middle" x="205.5" y="-159.5" font-family="Helvetica,sans-Serif" font-size="10.00">set_ifbcor</text>
</a>
</g>
</g>
<!-- Node1&#45;&gt;Node2 -->
<g id="edge1" class="edge">
<title>Node1&#45;&gt;Node2</title>
<path fill="none" stroke="midnightblue" d="M271.61,-103.02C261.23,-113.33 247.55,-126.64 235,-138 229.63,-142.86 223.5,-148.06 218.31,-152.38"/>
<polygon fill="midnightblue" stroke="midnightblue" points="274.24,-105.34 278.84,-95.8 269.29,-100.39 274.24,-105.34"/>
</g>
<!-- Node3 -->
<g id="node3" class="node">
<title>Node3</title>
<g id="a_node3"><a xlink:href="bdry_8f.html#a98065c380f39e2213ad6e88dcc1c88c7" target="_top" xlink:title=" ">
<polygon fill="white" stroke="black" points="91.5,-133.5 91.5,-152.5 134.5,-152.5 134.5,-133.5 91.5,-133.5"/>
<text text-anchor="middle" x="113" y="-140.5" font-family="Helvetica,sans-Serif" font-size="10.00">setlog</text>
</a>
</g>
</g>
<!-- Node1&#45;&gt;Node3 -->
<g id="edge4" class="edge">
<title>Node1&#45;&gt;Node3</title>
<path fill="none" stroke="midnightblue" d="M261.08,-95.96C252.73,-98.93 243.51,-102.15 235,-105 199.92,-116.73 158.77,-129.43 134.63,-136.78"/>
<polygon fill="midnightblue" stroke="midnightblue" points="262.49,-99.17 270.72,-92.5 260.13,-92.58 262.49,-99.17"/>
</g>
<!-- Node6 -->
<g id="node5" class="node">
<title>Node6</title>
<g id="a_node5"><a xlink:href="subs2_8f.html#a595d0b81bd538a641fb2021d141bb1bd" target="_top" xlink:title=" ">
<polygon fill="white" stroke="black" points="180,-76.5 180,-95.5 231,-95.5 231,-76.5 180,-76.5"/>
<text text-anchor="middle" x="205.5" y="-83.5" font-family="Helvetica,sans-Serif" font-size="10.00">setmlog</text>
</a>
</g>
</g>
<!-- Node1&#45;&gt;Node6 -->
<g id="edge5" class="edge">
<title>Node1&#45;&gt;Node6</title>
<path fill="none" stroke="midnightblue" d="M260.5,-86C250.96,-86 240.36,-86 231.1,-86"/>
<polygon fill="midnightblue" stroke="midnightblue" points="260.71,-89.5 270.71,-86 260.71,-82.5 260.71,-89.5"/>
</g>
<!-- Node9 -->
<g id="node7" class="node">
<title>Node9</title>
<g id="a_node7"><a xlink:href="connect1_8f.html#ab641b774823d34f2ffdc9965944d1c38" target="_top" xlink:title=" ">
<polygon fill="white" stroke="black" points="183.5,-38.5 183.5,-57.5 227.5,-57.5 227.5,-38.5 183.5,-38.5"/>
<text text-anchor="middle" x="205.5" y="-45.5" font-family="Helvetica,sans-Serif" font-size="10.00">verrhe</text>
</a>
</g>
</g>
<!-- Node1&#45;&gt;Node9 -->
<g id="edge7" class="edge">
<title>Node1&#45;&gt;Node9</title>
<path fill="none" stroke="midnightblue" d="M261.4,-73.44C250.25,-68.27 237.53,-62.38 227.15,-57.57"/>
<polygon fill="midnightblue" stroke="midnightblue" points="260.16,-76.73 270.71,-77.75 263.11,-70.37 260.16,-76.73"/>
</g>
<!-- Node13 -->
<g id="node9" class="node">
<title>Node13</title>
<g id="a_node9"><a xlink:href="drive2_8f.html#ae46d95459d293cfb4656cbeb0e086f2a" target="_top" xlink:title=" ">
<polygon fill="white" stroke="red" points="179,-0.5 179,-19.5 232,-19.5 232,-0.5 179,-0.5"/>
<text text-anchor="middle" x="205.5" y="-7.5" font-family="Helvetica,sans-Serif" font-size="10.00">vol_flow</text>
</a>
</g>
</g>
<!-- Node1&#45;&gt;Node13 -->
<g id="edge9" class="edge">
<title>Node1&#45;&gt;Node13</title>
<path fill="none" stroke="midnightblue" d="M274.08,-68.65C263.81,-56.81 249.34,-41.14 235,-29 231.1,-25.7 226.6,-22.47 222.35,-19.64"/>
<polygon fill="midnightblue" stroke="midnightblue" points="271.61,-71.14 280.75,-76.49 276.94,-66.61 271.61,-71.14"/>
</g>
<!-- Node2&#45;&gt;Node3 -->
<g id="edge2" class="edge">
<title>Node2&#45;&gt;Node3</title>
<path fill="none" stroke="midnightblue" d="M165.84,-153.88C155.15,-151.64 143.95,-149.29 134.71,-147.35"/>
<polygon fill="midnightblue" stroke="midnightblue" points="165.36,-157.36 175.87,-155.99 166.8,-150.51 165.36,-157.36"/>
</g>
<!-- Node4 -->
<g id="node4" class="node">
<title>Node4</title>
<g id="a_node4"><a xlink:href="drive1_8f.html#a83f7c6d78ac4e68394f32533e847d0a3" target="_top" xlink:title=" ">
<polygon fill="white" stroke="red" points="0,-133.5 0,-152.5 50,-152.5 50,-133.5 0,-133.5"/>
<text text-anchor="middle" x="25" y="-140.5" font-family="Helvetica,sans-Serif" font-size="10.00">nek_init</text>
</a>
</g>
</g>
<!-- Node3&#45;&gt;Node4 -->
<g id="edge3" class="edge">
<title>Node3&#45;&gt;Node4</title>
<path fill="none" stroke="midnightblue" d="M81.08,-143C70.95,-143 59.85,-143 50.28,-143"/>
<polygon fill="midnightblue" stroke="midnightblue" points="81.18,-146.5 91.18,-143 81.18,-139.5 81.18,-146.5"/>
</g>
<!-- Node7 -->
<g id="node6" class="node">
<title>Node7</title>
<g id="a_node6"><a xlink:href="subs2_8f.html#a85491a75f21053030871913510734987" target="_top" xlink:title=" ">
<polygon fill="white" stroke="red" points="86,-76.5 86,-95.5 140,-95.5 140,-76.5 86,-76.5"/>
<text text-anchor="middle" x="113" y="-83.5" font-family="Helvetica,sans-Serif" font-size="10.00">stsmask</text>
</a>
</g>
</g>
<!-- Node6&#45;&gt;Node7 -->
<g id="edge6" class="edge">
<title>Node6&#45;&gt;Node7</title>
<path fill="none" stroke="midnightblue" d="M169.56,-86C159.83,-86 149.43,-86 140.28,-86"/>
<polygon fill="midnightblue" stroke="midnightblue" points="169.77,-89.5 179.77,-86 169.77,-82.5 169.77,-89.5"/>
</g>
<!-- Node10 -->
<g id="node8" class="node">
<title>Node10</title>
<g id="a_node8"><a xlink:href="connect1_8f.html#ad2fa64ec84d1358545061390d925ff77" target="_top" xlink:title=" ">
<polygon fill="white" stroke="red" points="92.5,-38.5 92.5,-57.5 133.5,-57.5 133.5,-38.5 92.5,-38.5"/>
<text text-anchor="middle" x="113" y="-45.5" font-family="Helvetica,sans-Serif" font-size="10.00">verify</text>
</a>
</g>
</g>
<!-- Node9&#45;&gt;Node10 -->
<g id="edge8" class="edge">
<title>Node9&#45;&gt;Node10</title>
<path fill="none" stroke="midnightblue" d="M173.04,-48C159.99,-48 145.24,-48 133.75,-48"/>
<polygon fill="midnightblue" stroke="midnightblue" points="173.05,-51.5 183.05,-48 173.05,-44.5 173.05,-51.5"/>
</g>
<!-- Node14 -->
<g id="node10" class="node">
<title>Node14</title>
<g id="a_node10"><a xlink:href="drive2_8f.html#ab0aeca9ad3db8be87a01ba29d069d71e" target="_top" xlink:title=" ">
<polygon fill="white" stroke="red" points="95.5,-0.5 95.5,-19.5 130.5,-19.5 130.5,-0.5 95.5,-0.5"/>
<text text-anchor="middle" x="113" y="-7.5" font-family="Helvetica,sans-Serif" font-size="10.00">fluid</text>
</a>
</g>
</g>
<!-- Node13&#45;&gt;Node14 -->
<g id="edge10" class="edge">
<title>Node13&#45;&gt;Node14</title>
<path fill="none" stroke="midnightblue" d="M168.61,-10C155.48,-10 141.25,-10 130.61,-10"/>
<polygon fill="midnightblue" stroke="midnightblue" points="168.81,-13.5 178.81,-10 168.81,-6.5 168.81,-13.5"/>
</g>
</g>
</svg>
