<?xml version="1.0" encoding="UTF-8" standalone="no"?>
<!DOCTYPE svg PUBLIC "-//W3C//DTD SVG 1.1//EN"
 "http://www.w3.org/Graphics/SVG/1.1/DTD/svg11.dtd">
<!-- Generated by graphviz version 2.46.0 (0)
 -->
<!-- Title: cadd Pages: 1 -->
<svg width="351pt" height="256pt"
 viewBox="0.00 0.00 351.00 256.00" xmlns="http://www.w3.org/2000/svg" xmlns:xlink="http://www.w3.org/1999/xlink">
<g id="graph0" class="graph" transform="scale(1 1) rotate(0) translate(4 252)">
<title>cadd</title>
<polygon fill="white" stroke="transparent" points="-4,4 -4,-252 347,-252 347,4 -4,4"/>
<!-- Node1 -->
<g id="node1" class="node">
<title>Node1</title>
<g id="a_node1"><a xlink:title=" ">
<polygon fill="#bfbfbf" stroke="black" points="305,-114.5 305,-133.5 343,-133.5 343,-114.5 305,-114.5"/>
<text text-anchor="middle" x="324" y="-121.5" font-family="Helvetica,sans-Serif" font-size="10.00">cadd</text>
</a>
</g>
</g>
<!-- Node2 -->
<g id="node2" class="node">
<title>Node2</title>
<g id="a_node2"><a xlink:href="hmholtz_8f.html#a8734f3cc2d37d6a2ccd1daa8db57513d" target="_top" xlink:title=" ">
<polygon fill="white" stroke="black" points="94.5,-190.5 94.5,-209.5 132.5,-209.5 132.5,-190.5 94.5,-190.5"/>
<text text-anchor="middle" x="113.5" y="-197.5" font-family="Helvetica,sans-Serif" font-size="10.00">cggo</text>
</a>
</g>
</g>
<!-- Node1&#45;&gt;Node2 -->
<g id="edge1" class="edge">
<title>Node1&#45;&gt;Node2</title>
<path fill="none" stroke="midnightblue" d="M311.22,-141.93C301.55,-155.08 286.6,-172.12 269,-181 224.12,-203.65 162.9,-203.42 132.77,-201.6"/>
<polygon fill="midnightblue" stroke="midnightblue" points="314.19,-143.81 317.05,-133.61 308.45,-139.8 314.19,-143.81"/>
</g>
<!-- Node71 -->
<g id="node5" class="node">
<title>Node71</title>
<g id="a_node5"><a xlink:href="hmholtz_8f.html#aac309b94595d1abf629fb77f234557fc" target="_top" xlink:title=" ">
<polygon fill="white" stroke="red" points="87,-228.5 87,-247.5 140,-247.5 140,-228.5 87,-228.5"/>
<text text-anchor="middle" x="113.5" y="-235.5" font-family="Helvetica,sans-Serif" font-size="10.00">cggo_dg</text>
</a>
</g>
</g>
<!-- Node1&#45;&gt;Node71 -->
<g id="edge4" class="edge">
<title>Node1&#45;&gt;Node71</title>
<path fill="none" stroke="midnightblue" d="M315.53,-142.81C307.09,-161.56 291.53,-189.7 269,-205 229.63,-231.74 172.66,-237.39 140.03,-238.26"/>
<polygon fill="midnightblue" stroke="midnightblue" points="318.8,-144.08 319.49,-133.51 312.36,-141.34 318.8,-144.08"/>
</g>
<!-- Node74 -->
<g id="node6" class="node">
<title>Node74</title>
<g id="a_node6"><a xlink:href="multimesh_8f.html#a4150b3c742dd41e62ef12ae16149a930" target="_top" xlink:title=" ">
<polygon fill="white" stroke="red" points="177.5,-152.5 177.5,-171.5 267.5,-171.5 267.5,-152.5 177.5,-152.5"/>
<text text-anchor="middle" x="222.5" y="-159.5" font-family="Helvetica,sans-Serif" font-size="10.00">exchange_points</text>
</a>
</g>
</g>
<!-- Node1&#45;&gt;Node74 -->
<g id="edge6" class="edge">
<title>Node1&#45;&gt;Node74</title>
<path fill="none" stroke="midnightblue" d="M295.17,-134.63C280.48,-140.24 262.61,-147.07 248.38,-152.5"/>
<polygon fill="midnightblue" stroke="midnightblue" points="296.66,-137.81 304.75,-130.97 294.16,-131.27 296.66,-137.81"/>
</g>
<!-- Node67 -->
<g id="node7" class="node">
<title>Node67</title>
<g id="a_node7"><a xlink:href="meshsmoother_8f.html#a4c051a876df87615e1dca365b41f4aa3" target="_top" xlink:title=" ">
<polygon fill="white" stroke="red" points="183.5,-114.5 183.5,-133.5 261.5,-133.5 261.5,-114.5 183.5,-114.5"/>
<text text-anchor="middle" x="222.5" y="-121.5" font-family="Helvetica,sans-Serif" font-size="10.00">my_mv_mesh</text>
</a>
</g>
</g>
<!-- Node1&#45;&gt;Node67 -->
<g id="edge7" class="edge">
<title>Node1&#45;&gt;Node67</title>
<path fill="none" stroke="midnightblue" d="M294.73,-124C284.5,-124 272.78,-124 261.83,-124"/>
<polygon fill="midnightblue" stroke="midnightblue" points="294.75,-127.5 304.75,-124 294.75,-120.5 294.75,-127.5"/>
</g>
<!-- Node76 -->
<g id="node8" class="node">
<title>Node76</title>
<g id="a_node8"><a xlink:href="navier1_8f.html#a4905d51f51b57bfec184a6b44f858bdb" target="_top" xlink:title=" ">
<polygon fill="white" stroke="red" points="203.5,-76.5 203.5,-95.5 241.5,-95.5 241.5,-76.5 203.5,-76.5"/>
<text text-anchor="middle" x="222.5" y="-83.5" font-family="Helvetica,sans-Serif" font-size="10.00">ortho</text>
</a>
</g>
</g>
<!-- Node1&#45;&gt;Node76 -->
<g id="edge8" class="edge">
<title>Node1&#45;&gt;Node76</title>
<path fill="none" stroke="midnightblue" d="M295.25,-113.4C278.11,-106.85 256.61,-98.64 241.63,-92.93"/>
<polygon fill="midnightblue" stroke="midnightblue" points="294.16,-116.73 304.75,-117.03 296.66,-110.19 294.16,-116.73"/>
</g>
<!-- Node82 -->
<g id="node9" class="node">
<title>Node82</title>
<g id="a_node9"><a xlink:href="multimesh_8f.html#ad814bd0d7b1b5bc7d00ad4cea7fbc81f" target="_top" xlink:title=" ">
<polygon fill="white" stroke="red" points="176,-38.5 176,-57.5 269,-57.5 269,-38.5 176,-38.5"/>
<text text-anchor="middle" x="222.5" y="-45.5" font-family="Helvetica,sans-Serif" font-size="10.00">setup_int_neknek</text>
</a>
</g>
</g>
<!-- Node1&#45;&gt;Node82 -->
<g id="edge10" class="edge">
<title>Node1&#45;&gt;Node82</title>
<path fill="none" stroke="midnightblue" d="M309.46,-106.18C299.39,-93.87 284.71,-77.84 269,-67 263.79,-63.4 257.78,-60.3 251.89,-57.7"/>
<polygon fill="midnightblue" stroke="midnightblue" points="306.98,-108.68 315.94,-114.35 312.47,-104.34 306.98,-108.68"/>
</g>
<!-- Node83 -->
<g id="node10" class="node">
<title>Node83</title>
<g id="a_node10"><a xlink:href="plan4_8f.html#a2a58ef58c4513d56903b075defcf0314" target="_top" xlink:title=" ">
<polygon fill="white" stroke="black" points="188,-0.5 188,-19.5 257,-19.5 257,-0.5 188,-0.5"/>
<text text-anchor="middle" x="222.5" y="-7.5" font-family="Helvetica,sans-Serif" font-size="10.00">userqtl_scig</text>
</a>
</g>
</g>
<!-- Node1&#45;&gt;Node83 -->
<g id="edge11" class="edge">
<title>Node1&#45;&gt;Node83</title>
<path fill="none" stroke="midnightblue" d="M316.41,-104.76C308.28,-83.61 292.57,-49.87 269,-29 264.77,-25.25 259.7,-22.18 254.5,-19.67"/>
<polygon fill="midnightblue" stroke="midnightblue" points="313.16,-106.08 319.88,-114.28 319.74,-103.68 313.16,-106.08"/>
</g>
<!-- Node3 -->
<g id="node3" class="node">
<title>Node3</title>
<g id="a_node3"><a xlink:href="hmholtz_8f.html#a52dcac1fe733719d4987d36aac022e4d" target="_top" xlink:title=" ">
<polygon fill="white" stroke="red" points="0,-190.5 0,-209.5 51,-209.5 51,-190.5 0,-190.5"/>
<text text-anchor="middle" x="25.5" y="-197.5" font-family="Helvetica,sans-Serif" font-size="10.00">hmholtz</text>
</a>
</g>
</g>
<!-- Node2&#45;&gt;Node3 -->
<g id="edge2" class="edge">
<title>Node2&#45;&gt;Node3</title>
<path fill="none" stroke="midnightblue" d="M84.19,-200C73.54,-200 61.53,-200 51.24,-200"/>
<polygon fill="midnightblue" stroke="midnightblue" points="84.26,-203.5 94.26,-200 84.26,-196.5 84.26,-203.5"/>
</g>
<!-- Node65 -->
<g id="node4" class="node">
<title>Node65</title>
<g id="a_node4"><a xlink:href="navier4_8f.html#abff3f3a3a3b301fbd3e883cb30d2d967" target="_top" xlink:title=" ">
<polygon fill="white" stroke="red" points="1,-228.5 1,-247.5 50,-247.5 50,-228.5 1,-228.5"/>
<text text-anchor="middle" x="25.5" y="-235.5" font-family="Helvetica,sans-Serif" font-size="10.00">hmhzpf</text>
</a>
</g>
</g>
<!-- Node2&#45;&gt;Node65 -->
<g id="edge3" class="edge">
<title>Node2&#45;&gt;Node65</title>
<path fill="none" stroke="midnightblue" d="M84.78,-212.25C72.88,-217.51 59.18,-223.56 48.06,-228.48"/>
<polygon fill="midnightblue" stroke="midnightblue" points="86.53,-215.3 94.26,-208.06 83.7,-208.9 86.53,-215.3"/>
</g>
<!-- Node71&#45;&gt;Node65 -->
<g id="edge5" class="edge">
<title>Node71&#45;&gt;Node65</title>
<path fill="none" stroke="midnightblue" d="M76.55,-238C67.67,-238 58.37,-238 50.23,-238"/>
<polygon fill="midnightblue" stroke="midnightblue" points="76.7,-241.5 86.7,-238 76.7,-234.5 76.7,-241.5"/>
</g>
<!-- Node76&#45;&gt;Node2 -->
<g id="edge9" class="edge">
<title>Node76&#45;&gt;Node2</title>
<path fill="none" stroke="midnightblue" d="M193.71,-94.5C187.47,-97.22 181.17,-100.68 176,-105 146.75,-129.44 126.51,-171.39 118.43,-190.28"/>
<polygon fill="midnightblue" stroke="midnightblue" points="195.22,-97.67 203.29,-90.81 192.7,-91.13 195.22,-97.67"/>
</g>
</g>
</svg>
