<?xml version="1.0" encoding="UTF-8" standalone="no"?>
<!DOCTYPE svg PUBLIC "-//W3C//DTD SVG 1.1//EN"
 "http://www.w3.org/Graphics/SVG/1.1/DTD/svg11.dtd">
<!-- Generated by graphviz version 2.46.0 (0)
 -->
<!-- Title: vsqrt Pages: 1 -->
<svg width="509pt" height="142pt"
 viewBox="0.00 0.00 509.00 142.00" xmlns="http://www.w3.org/2000/svg" xmlns:xlink="http://www.w3.org/1999/xlink">
<g id="graph0" class="graph" transform="scale(1 1) rotate(0) translate(4 138)">
<title>vsqrt</title>
<polygon fill="white" stroke="transparent" points="-4,4 -4,-138 505,-138 505,4 -4,4"/>
<!-- Node1 -->
<g id="node1" class="node">
<title>Node1</title>
<g id="a_node1"><a xlink:title=" ">
<polygon fill="#bfbfbf" stroke="black" points="463,-95.5 463,-114.5 501,-114.5 501,-95.5 463,-95.5"/>
<text text-anchor="middle" x="482" y="-102.5" font-family="Helvetica,sans-Serif" font-size="10.00">vsqrt</text>
</a>
</g>
</g>
<!-- Node2 -->
<g id="node2" class="node">
<title>Node2</title>
<g id="a_node2"><a xlink:href="postpro_8f.html#af9d2aff92c48c37b10261e543b5f18fb" target="_top" xlink:title=" ">
<polygon fill="white" stroke="black" points="329,-114.5 329,-133.5 407,-133.5 407,-114.5 329,-114.5"/>
<text text-anchor="middle" x="368" y="-121.5" font-family="Helvetica,sans-Serif" font-size="10.00">mag_tensor_e</text>
</a>
</g>
</g>
<!-- Node1&#45;&gt;Node2 -->
<g id="edge1" class="edge">
<title>Node1&#45;&gt;Node2</title>
<path fill="none" stroke="midnightblue" d="M452.6,-109.82C438.77,-112.16 421.96,-115.02 407.04,-117.55"/>
<polygon fill="midnightblue" stroke="midnightblue" points="453.23,-113.26 462.51,-108.14 452.06,-106.36 453.23,-113.26"/>
</g>
<!-- Node3 -->
<g id="node3" class="node">
<title>Node3</title>
<g id="a_node3"><a xlink:href="hmholtz_8f.html#abd6f3614f9436265a22e0d5354f18926" target="_top" xlink:title=" ">
<polygon fill="white" stroke="black" points="309,-76.5 309,-95.5 427,-95.5 427,-76.5 309,-76.5"/>
<text text-anchor="middle" x="368" y="-83.5" font-family="Helvetica,sans-Serif" font-size="10.00">set_fdm_prec_h1a_gen</text>
</a>
</g>
</g>
<!-- Node1&#45;&gt;Node3 -->
<g id="edge2" class="edge">
<title>Node1&#45;&gt;Node3</title>
<path fill="none" stroke="midnightblue" d="M452.57,-100.18C444.2,-98.76 434.74,-97.15 425.26,-95.54"/>
<polygon fill="midnightblue" stroke="midnightblue" points="452.06,-103.64 462.51,-101.86 453.23,-96.74 452.06,-103.64"/>
</g>
<!-- Node4 -->
<g id="node4" class="node">
<title>Node4</title>
<g id="a_node4"><a xlink:href="hmholtz_8f.html#ac60fe35dd9bdf67147fe5cc0898a49bb" target="_top" xlink:title=" ">
<polygon fill="white" stroke="black" points="176,-76.5 176,-95.5 273,-95.5 273,-76.5 176,-76.5"/>
<text text-anchor="middle" x="224.5" y="-83.5" font-family="Helvetica,sans-Serif" font-size="10.00">set_fdm_prec_h1a</text>
</a>
</g>
</g>
<!-- Node3&#45;&gt;Node4 -->
<g id="edge3" class="edge">
<title>Node3&#45;&gt;Node4</title>
<path fill="none" stroke="midnightblue" d="M298.38,-86C289.93,-86 281.44,-86 273.4,-86"/>
<polygon fill="midnightblue" stroke="midnightblue" points="298.63,-89.5 308.63,-86 298.63,-82.5 298.63,-89.5"/>
</g>
<!-- Node5 -->
<g id="node5" class="node">
<title>Node5</title>
<g id="a_node5"><a xlink:href="subs1_8f.html#afbde33b8466b90206f1fa13b3800b7d5" target="_top" xlink:title=" ">
<polygon fill="white" stroke="black" points="91.5,-104.5 91.5,-123.5 137.5,-123.5 137.5,-104.5 91.5,-104.5"/>
<text text-anchor="middle" x="114.5" y="-111.5" font-family="Helvetica,sans-Serif" font-size="10.00">cggosf</text>
</a>
</g>
</g>
<!-- Node4&#45;&gt;Node5 -->
<g id="edge4" class="edge">
<title>Node4&#45;&gt;Node5</title>
<path fill="none" stroke="midnightblue" d="M176.9,-98.08C163.3,-101.61 149.06,-105.3 137.73,-108.24"/>
<polygon fill="midnightblue" stroke="midnightblue" points="177.83,-101.46 186.63,-95.56 176.08,-94.68 177.83,-101.46"/>
</g>
<!-- Node62 -->
<g id="node7" class="node">
<title>Node62</title>
<g id="a_node7"><a xlink:href="hmholtz_8f.html#a52dcac1fe733719d4987d36aac022e4d" target="_top" xlink:title=" ">
<polygon fill="white" stroke="red" points="89,-57.5 89,-76.5 140,-76.5 140,-57.5 89,-57.5"/>
<text text-anchor="middle" x="114.5" y="-64.5" font-family="Helvetica,sans-Serif" font-size="10.00">hmholtz</text>
</a>
</g>
</g>
<!-- Node4&#45;&gt;Node62 -->
<g id="edge6" class="edge">
<title>Node4&#45;&gt;Node62</title>
<path fill="none" stroke="midnightblue" d="M165.95,-75.88C156.87,-74.28 147.92,-72.7 140.14,-71.33"/>
<polygon fill="midnightblue" stroke="midnightblue" points="165.36,-79.33 175.82,-77.61 166.57,-72.43 165.36,-79.33"/>
</g>
<!-- Node6 -->
<g id="node6" class="node">
<title>Node6</title>
<g id="a_node6"><a xlink:href="subs1_8f.html#aab6bde102bb9bd893cf1880c2d7746ad" target="_top" xlink:title=" ">
<polygon fill="white" stroke="red" points="2,-114.5 2,-133.5 51,-133.5 51,-114.5 2,-114.5"/>
<text text-anchor="middle" x="26.5" y="-121.5" font-family="Helvetica,sans-Serif" font-size="10.00">hmhzsf</text>
</a>
</g>
</g>
<!-- Node5&#45;&gt;Node6 -->
<g id="edge5" class="edge">
<title>Node5&#45;&gt;Node6</title>
<path fill="none" stroke="midnightblue" d="M81.3,-117.74C71.27,-118.91 60.4,-120.17 51.08,-121.26"/>
<polygon fill="midnightblue" stroke="midnightblue" points="81.82,-121.21 91.35,-116.58 81.02,-114.25 81.82,-121.21"/>
</g>
<!-- Node63 -->
<g id="node8" class="node">
<title>Node63</title>
<g id="a_node8"><a xlink:href="eigsolv_8f.html#a285ca4aa2354ca8584af31946d6761c2" target="_top" xlink:title=" ">
<polygon fill="white" stroke="red" points="0,-76.5 0,-95.5 53,-95.5 53,-76.5 0,-76.5"/>
<text text-anchor="middle" x="26.5" y="-83.5" font-family="Helvetica,sans-Serif" font-size="10.00">alpham1</text>
</a>
</g>
</g>
<!-- Node62&#45;&gt;Node63 -->
<g id="edge7" class="edge">
<title>Node62&#45;&gt;Node63</title>
<path fill="none" stroke="midnightblue" d="M78.59,-74.71C70.1,-76.59 61.18,-78.56 53.22,-80.32"/>
<polygon fill="midnightblue" stroke="midnightblue" points="79.62,-78.07 88.63,-72.5 78.11,-71.24 79.62,-78.07"/>
</g>
<!-- Node64 -->
<g id="node9" class="node">
<title>Node64</title>
<g id="a_node9"><a xlink:href="perturb_8f.html#af07508f1eb200c9ae22de3620ae45d70" target="_top" xlink:title=" ">
<polygon fill="white" stroke="red" points="1.5,-38.5 1.5,-57.5 51.5,-57.5 51.5,-38.5 1.5,-38.5"/>
<text text-anchor="middle" x="26.5" y="-45.5" font-family="Helvetica,sans-Serif" font-size="10.00">cdscalp</text>
</a>
</g>
</g>
<!-- Node62&#45;&gt;Node64 -->
<g id="edge8" class="edge">
<title>Node62&#45;&gt;Node64</title>
<path fill="none" stroke="midnightblue" d="M78.71,-59.31C69.66,-57.31 60.1,-55.2 51.73,-53.35"/>
<polygon fill="midnightblue" stroke="midnightblue" points="78.11,-62.76 88.63,-61.5 79.62,-55.93 78.11,-62.76"/>
</g>
<!-- Node66 -->
<g id="node10" class="node">
<title>Node66</title>
<g id="a_node10"><a xlink:href="navier1_8f.html#aec24385a47394ac281dc04124fff7618" target="_top" xlink:title=" ">
<polygon fill="white" stroke="red" points="6,-0.5 6,-19.5 47,-19.5 47,-0.5 6,-0.5"/>
<text text-anchor="middle" x="26.5" y="-7.5" font-family="Helvetica,sans-Serif" font-size="10.00">eprec</text>
</a>
</g>
</g>
<!-- Node62&#45;&gt;Node66 -->
<g id="edge9" class="edge">
<title>Node62&#45;&gt;Node66</title>
<path fill="none" stroke="midnightblue" d="M90.41,-51.69C74.95,-41.45 55.1,-28.29 41.87,-19.53"/>
<polygon fill="midnightblue" stroke="midnightblue" points="88.64,-54.72 98.91,-57.33 92.51,-48.89 88.64,-54.72"/>
</g>
</g>
</svg>
