<?xml version="1.0" encoding="UTF-8" standalone="no"?>
<!DOCTYPE svg PUBLIC "-//W3C//DTD SVG 1.1//EN"
 "http://www.w3.org/Graphics/SVG/1.1/DTD/svg11.dtd">
<!-- Generated by graphviz version 2.46.0 (0)
 -->
<!-- Title: cadd2 Pages: 1 -->
<svg width="545pt" height="104pt"
 viewBox="0.00 0.00 545.00 104.00" xmlns="http://www.w3.org/2000/svg" xmlns:xlink="http://www.w3.org/1999/xlink">
<g id="graph0" class="graph" transform="scale(1 1) rotate(0) translate(4 100)">
<title>cadd2</title>
<polygon fill="white" stroke="transparent" points="-4,4 -4,-100 541,-100 541,4 -4,4"/>
<!-- Node1 -->
<g id="node1" class="node">
<title>Node1</title>
<g id="a_node1"><a xlink:title=" ">
<polygon fill="#bfbfbf" stroke="black" points="494,-38.5 494,-57.5 537,-57.5 537,-38.5 494,-38.5"/>
<text text-anchor="middle" x="515.5" y="-45.5" font-family="Helvetica,sans-Serif" font-size="10.00">cadd2</text>
</a>
</g>
</g>
<!-- Node2 -->
<g id="node2" class="node">
<title>Node2</title>
<g id="a_node2"><a xlink:href="navier5_8f.html#a452fc6ce45aa3c40dbc48fa0353cb965" target="_top" xlink:title=" ">
<polygon fill="white" stroke="black" points="370,-76.5 370,-95.5 458,-95.5 458,-76.5 370,-76.5"/>
<text text-anchor="middle" x="414" y="-83.5" font-family="Helvetica,sans-Serif" font-size="10.00">shear_calc_max</text>
</a>
</g>
</g>
<!-- Node1&#45;&gt;Node2 -->
<g id="edge1" class="edge">
<title>Node1&#45;&gt;Node2</title>
<path fill="none" stroke="midnightblue" d="M484.15,-59.59C470.08,-64.97 453.55,-71.28 440.18,-76.38"/>
<polygon fill="midnightblue" stroke="midnightblue" points="485.79,-62.71 493.88,-55.87 483.29,-56.17 485.79,-62.71"/>
</g>
<!-- Node3 -->
<g id="node3" class="node">
<title>Node3</title>
<g id="a_node3"><a xlink:href="plan4_8f.html#a4d432c4c1b60f78da6eba32f424b701d" target="_top" xlink:title=" ">
<polygon fill="white" stroke="black" points="387.5,-38.5 387.5,-57.5 440.5,-57.5 440.5,-38.5 387.5,-38.5"/>
<text text-anchor="middle" x="414" y="-45.5" font-family="Helvetica,sans-Serif" font-size="10.00">split_vis</text>
</a>
</g>
</g>
<!-- Node1&#45;&gt;Node3 -->
<g id="edge2" class="edge">
<title>Node1&#45;&gt;Node3</title>
<path fill="none" stroke="midnightblue" d="M483.82,-48C469.94,-48 453.74,-48 440.54,-48"/>
<polygon fill="midnightblue" stroke="midnightblue" points="483.88,-51.5 493.88,-48 483.88,-44.5 483.88,-51.5"/>
</g>
<!-- Node20 -->
<g id="node10" class="node">
<title>Node20</title>
<g id="a_node10"><a xlink:href="navier5_8f.html#ae07d390b2886c4cf09b559441f55dd3f" target="_top" xlink:title=" ">
<polygon fill="white" stroke="black" points="380.5,-0.5 380.5,-19.5 447.5,-19.5 447.5,-0.5 380.5,-0.5"/>
<text text-anchor="middle" x="414" y="-7.5" font-family="Helvetica,sans-Serif" font-size="10.00">torque_calc</text>
</a>
</g>
</g>
<!-- Node1&#45;&gt;Node20 -->
<g id="edge9" class="edge">
<title>Node1&#45;&gt;Node20</title>
<path fill="none" stroke="midnightblue" d="M484.15,-36.41C470.08,-31.03 453.55,-24.72 440.18,-19.62"/>
<polygon fill="midnightblue" stroke="midnightblue" points="483.29,-39.83 493.88,-40.13 485.79,-33.29 483.29,-39.83"/>
</g>
<!-- Node4 -->
<g id="node4" class="node">
<title>Node4</title>
<g id="a_node4"><a xlink:href="drive2_8f.html#afe26dea455fd7088135bf58cb3df9f6d" target="_top" xlink:title=" ">
<polygon fill="white" stroke="black" points="266.5,-57.5 266.5,-76.5 324.5,-76.5 324.5,-57.5 266.5,-57.5"/>
<text text-anchor="middle" x="295.5" y="-64.5" font-family="Helvetica,sans-Serif" font-size="10.00">plan4_vol</text>
</a>
</g>
</g>
<!-- Node3&#45;&gt;Node4 -->
<g id="edge3" class="edge">
<title>Node3&#45;&gt;Node4</title>
<path fill="none" stroke="midnightblue" d="M377.39,-53.81C360.53,-56.56 340.68,-59.79 324.87,-62.37"/>
<polygon fill="midnightblue" stroke="midnightblue" points="378.13,-57.23 387.43,-52.17 377,-50.32 378.13,-57.23"/>
</g>
<!-- Node17 -->
<g id="node7" class="node">
<title>Node17</title>
<g id="a_node7"><a xlink:href="multimesh_8f.html#a1abe8f51886fce3a30fb4f68c8c132b9" target="_top" xlink:title=" ">
<polygon fill="white" stroke="black" points="257,-19.5 257,-38.5 334,-38.5 334,-19.5 257,-19.5"/>
<text text-anchor="middle" x="295.5" y="-26.5" font-family="Helvetica,sans-Serif" font-size="10.00">plan4_vol_ms</text>
</a>
</g>
</g>
<!-- Node3&#45;&gt;Node17 -->
<g id="edge6" class="edge">
<title>Node3&#45;&gt;Node17</title>
<path fill="none" stroke="midnightblue" d="M377.46,-42.2C363.83,-39.98 348.24,-37.44 334.4,-35.18"/>
<polygon fill="midnightblue" stroke="midnightblue" points="377,-45.68 387.43,-43.83 378.13,-38.77 377,-45.68"/>
</g>
<!-- Node5 -->
<g id="node5" class="node">
<title>Node5</title>
<g id="a_node5"><a xlink:href="drive2_8f.html#a578958d7bb6d5bbeaecd91ae64d88dd3" target="_top" xlink:title=" ">
<polygon fill="white" stroke="black" points="116.5,-57.5 116.5,-76.5 211.5,-76.5 211.5,-57.5 116.5,-57.5"/>
<text text-anchor="middle" x="164" y="-64.5" font-family="Helvetica,sans-Serif" font-size="10.00">compute_vol_soln</text>
</a>
</g>
</g>
<!-- Node4&#45;&gt;Node5 -->
<g id="edge4" class="edge">
<title>Node4&#45;&gt;Node5</title>
<path fill="none" stroke="midnightblue" d="M256.16,-67C242.19,-67 226.24,-67 211.63,-67"/>
<polygon fill="midnightblue" stroke="midnightblue" points="256.4,-70.5 266.4,-67 256.4,-63.5 256.4,-70.5"/>
</g>
<!-- Node6 -->
<g id="node6" class="node">
<title>Node6</title>
<g id="a_node6"><a xlink:href="drive2_8f.html#ae46d95459d293cfb4656cbeb0e086f2a" target="_top" xlink:title=" ">
<polygon fill="white" stroke="red" points="9,-57.5 9,-76.5 62,-76.5 62,-57.5 9,-57.5"/>
<text text-anchor="middle" x="35.5" y="-64.5" font-family="Helvetica,sans-Serif" font-size="10.00">vol_flow</text>
</a>
</g>
</g>
<!-- Node5&#45;&gt;Node6 -->
<g id="edge5" class="edge">
<title>Node5&#45;&gt;Node6</title>
<path fill="none" stroke="midnightblue" d="M106.24,-67C90.82,-67 74.88,-67 62.14,-67"/>
<polygon fill="midnightblue" stroke="midnightblue" points="106.26,-70.5 116.26,-67 106.26,-63.5 106.26,-70.5"/>
</g>
<!-- Node18 -->
<g id="node8" class="node">
<title>Node18</title>
<g id="a_node8"><a xlink:href="multimesh_8f.html#a03b8c4940c36f3c0396f6e537d142cd2" target="_top" xlink:title=" ">
<polygon fill="white" stroke="black" points="107,-19.5 107,-38.5 221,-38.5 221,-19.5 107,-19.5"/>
<text text-anchor="middle" x="164" y="-26.5" font-family="Helvetica,sans-Serif" font-size="10.00">compute_vol_soln_ms</text>
</a>
</g>
</g>
<!-- Node17&#45;&gt;Node18 -->
<g id="edge7" class="edge">
<title>Node17&#45;&gt;Node18</title>
<path fill="none" stroke="midnightblue" d="M246.56,-29C238.36,-29 229.78,-29 221.39,-29"/>
<polygon fill="midnightblue" stroke="midnightblue" points="246.7,-32.5 256.7,-29 246.7,-25.5 246.7,-32.5"/>
</g>
<!-- Node19 -->
<g id="node9" class="node">
<title>Node19</title>
<g id="a_node9"><a xlink:href="multimesh_8f.html#a282d987d75bd8a426ecf0d9e752cd2df" target="_top" xlink:title=" ">
<polygon fill="white" stroke="red" points="0,-19.5 0,-38.5 71,-38.5 71,-19.5 0,-19.5"/>
<text text-anchor="middle" x="35.5" y="-26.5" font-family="Helvetica,sans-Serif" font-size="10.00">vol_flow_ms</text>
</a>
</g>
</g>
<!-- Node18&#45;&gt;Node19 -->
<g id="edge8" class="edge">
<title>Node18&#45;&gt;Node19</title>
<path fill="none" stroke="midnightblue" d="M96.78,-29C87.92,-29 79.13,-29 71.12,-29"/>
<polygon fill="midnightblue" stroke="midnightblue" points="96.78,-32.5 106.78,-29 96.78,-25.5 96.78,-32.5"/>
</g>
</g>
</svg>
