<?xml version="1.0" encoding="UTF-8" standalone="no"?>
<!DOCTYPE svg PUBLIC "-//W3C//DTD SVG 1.1//EN"
 "http://www.w3.org/Graphics/SVG/1.1/DTD/svg11.dtd">
<!-- Generated by graphviz version 2.46.0 (0)
 -->
<!-- Title: vdot2 Pages: 1 -->
<svg width="264pt" height="218pt"
 viewBox="0.00 0.00 264.00 218.00" xmlns="http://www.w3.org/2000/svg" xmlns:xlink="http://www.w3.org/1999/xlink">
<g id="graph0" class="graph" transform="scale(1 1) rotate(0) translate(4 214)">
<title>vdot2</title>
<polygon fill="white" stroke="transparent" points="-4,4 -4,-214 260,-214 260,4 -4,4"/>
<!-- Node1 -->
<g id="node1" class="node">
<title>Node1</title>
<g id="a_node1"><a xlink:title=" ">
<polygon fill="#bfbfbf" stroke="black" points="215,-123.5 215,-142.5 256,-142.5 256,-123.5 215,-123.5"/>
<text text-anchor="middle" x="235.5" y="-130.5" font-family="Helvetica,sans-Serif" font-size="10.00">vdot2</text>
</a>
</g>
</g>
<!-- Node2 -->
<g id="node2" class="node">
<title>Node2</title>
<g id="a_node2"><a xlink:href="plan4_8f.html#ae69deb230f08be3fd7f4b30adced56de" target="_top" xlink:title=" ">
<polygon fill="white" stroke="black" points="116,-175.5 116,-194.5 179,-194.5 179,-175.5 116,-175.5"/>
<text text-anchor="middle" x="147.5" y="-182.5" font-family="Helvetica,sans-Serif" font-size="10.00">col_mu_sij</text>
</a>
</g>
</g>
<!-- Node1&#45;&gt;Node2 -->
<g id="edge1" class="edge">
<title>Node1&#45;&gt;Node2</title>
<path fill="none" stroke="midnightblue" d="M210.15,-147.72C195.51,-156.58 177.29,-167.59 164.46,-175.35"/>
<polygon fill="midnightblue" stroke="midnightblue" points="211.98,-150.71 218.73,-142.54 208.36,-144.72 211.98,-150.71"/>
</g>
<!-- Node14 -->
<g id="node4" class="node">
<title>Node14</title>
<g id="a_node4"><a xlink:href="coef_8f.html#aea7fbfba708ba55609135adf3064f1c3" target="_top" xlink:title=" ">
<polygon fill="white" stroke="black" points="122,-123.5 122,-142.5 173,-142.5 173,-123.5 122,-123.5"/>
<text text-anchor="middle" x="147.5" y="-130.5" font-family="Helvetica,sans-Serif" font-size="10.00">geodat1</text>
</a>
</g>
</g>
<!-- Node1&#45;&gt;Node14 -->
<g id="edge3" class="edge">
<title>Node1&#45;&gt;Node14</title>
<path fill="none" stroke="midnightblue" d="M204.77,-133C194.46,-133 183.03,-133 173.18,-133"/>
<polygon fill="midnightblue" stroke="midnightblue" points="204.99,-136.5 214.99,-133 204.99,-129.5 204.99,-136.5"/>
</g>
<!-- Node37 -->
<g id="node7" class="node">
<title>Node37</title>
<g id="a_node7"><a xlink:href="subs2_8f.html#a75759e2c31e86fa99b44c9dc00071102" target="_top" xlink:title=" ">
<polygon fill="white" stroke="black" points="127,-66.5 127,-85.5 168,-85.5 168,-66.5 127,-66.5"/>
<text text-anchor="middle" x="147.5" y="-73.5" font-family="Helvetica,sans-Serif" font-size="10.00">opdot</text>
</a>
</g>
</g>
<!-- Node1&#45;&gt;Node37 -->
<g id="edge6" class="edge">
<title>Node1&#45;&gt;Node37</title>
<path fill="none" stroke="midnightblue" d="M211.41,-117.69C195.95,-107.45 176.1,-94.29 162.87,-85.53"/>
<polygon fill="midnightblue" stroke="midnightblue" points="209.64,-120.72 219.91,-123.33 213.51,-114.89 209.64,-120.72"/>
</g>
<!-- Node3 -->
<g id="node3" class="node">
<title>Node3</title>
<g id="a_node3"><a xlink:href="plan4_8f.html#a0afe6a03f628b5d52eeb491f7baff5b6" target="_top" xlink:title=" ">
<polygon fill="white" stroke="red" points="14.5,-190.5 14.5,-209.5 65.5,-209.5 65.5,-190.5 14.5,-190.5"/>
<text text-anchor="middle" x="40" y="-197.5" font-family="Helvetica,sans-Serif" font-size="10.00">crespsp</text>
</a>
</g>
</g>
<!-- Node2&#45;&gt;Node3 -->
<g id="edge2" class="edge">
<title>Node2&#45;&gt;Node3</title>
<path fill="none" stroke="midnightblue" d="M105.92,-190.77C92.39,-192.69 77.73,-194.78 65.77,-196.48"/>
<polygon fill="midnightblue" stroke="midnightblue" points="106.58,-194.21 115.99,-189.34 105.59,-187.28 106.58,-194.21"/>
</g>
<!-- Node15 -->
<g id="node5" class="node">
<title>Node15</title>
<g id="a_node5"><a xlink:href="cvode__driver_8f.html#a365f4a5b0accedd6fda56ba6be129643" target="_top" xlink:title=" ">
<polygon fill="white" stroke="red" points="0,-152.5 0,-171.5 80,-171.5 80,-152.5 0,-152.5"/>
<text text-anchor="middle" x="40" y="-159.5" font-family="Helvetica,sans-Serif" font-size="10.00">cv_eval_geom</text>
</a>
</g>
</g>
<!-- Node14&#45;&gt;Node15 -->
<g id="edge4" class="edge">
<title>Node14&#45;&gt;Node15</title>
<path fill="none" stroke="midnightblue" d="M111.93,-142.5C100.26,-145.71 87.23,-149.29 75.56,-152.5"/>
<polygon fill="midnightblue" stroke="midnightblue" points="113.05,-145.82 121.76,-139.8 111.19,-139.07 113.05,-145.82"/>
</g>
<!-- Node19 -->
<g id="node6" class="node">
<title>Node19</title>
<g id="a_node6"><a xlink:href="coef_8f.html#a8cbb48eee5edaf128d65bb31ac49c3ff" target="_top" xlink:title=" ">
<polygon fill="white" stroke="red" points="17,-114.5 17,-133.5 63,-133.5 63,-114.5 17,-114.5"/>
<text text-anchor="middle" x="40" y="-121.5" font-family="Helvetica,sans-Serif" font-size="10.00">geom1</text>
</a>
</g>
</g>
<!-- Node14&#45;&gt;Node19 -->
<g id="edge5" class="edge">
<title>Node14&#45;&gt;Node19</title>
<path fill="none" stroke="midnightblue" d="M111.67,-130.03C95.65,-128.66 77.13,-127.08 63.07,-125.88"/>
<polygon fill="midnightblue" stroke="midnightblue" points="111.5,-133.53 121.76,-130.89 112.1,-126.55 111.5,-133.53"/>
</g>
<!-- Node38 -->
<g id="node8" class="node">
<title>Node38</title>
<g id="a_node8"><a xlink:href="subs1_8f.html#afbde33b8466b90206f1fa13b3800b7d5" target="_top" xlink:title=" ">
<polygon fill="white" stroke="red" points="17,-76.5 17,-95.5 63,-95.5 63,-76.5 17,-76.5"/>
<text text-anchor="middle" x="40" y="-83.5" font-family="Helvetica,sans-Serif" font-size="10.00">cggosf</text>
</a>
</g>
</g>
<!-- Node37&#45;&gt;Node38 -->
<g id="edge7" class="edge">
<title>Node37&#45;&gt;Node38</title>
<path fill="none" stroke="midnightblue" d="M116.69,-78.83C99.73,-80.43 78.84,-82.41 63.31,-83.89"/>
<polygon fill="midnightblue" stroke="midnightblue" points="117.03,-82.31 126.66,-77.88 116.37,-75.34 117.03,-82.31"/>
</g>
<!-- Node79 -->
<g id="node9" class="node">
<title>Node79</title>
<g id="a_node9"><a xlink:href="subs1_8f.html#a29d1fc90e6cddfc6443f71e8bb7c44ff" target="_top" xlink:title=" ">
<polygon fill="white" stroke="red" points="14.5,-38.5 14.5,-57.5 65.5,-57.5 65.5,-38.5 14.5,-38.5"/>
<text text-anchor="middle" x="40" y="-45.5" font-family="Helvetica,sans-Serif" font-size="10.00">chktcgs</text>
</a>
</g>
</g>
<!-- Node37&#45;&gt;Node79 -->
<g id="edge8" class="edge">
<title>Node37&#45;&gt;Node79</title>
<path fill="none" stroke="midnightblue" d="M116.65,-68.08C100.51,-63.79 80.83,-58.57 65.58,-54.52"/>
<polygon fill="midnightblue" stroke="midnightblue" points="116.09,-71.55 126.66,-70.73 117.89,-64.79 116.09,-71.55"/>
</g>
<!-- Node80 -->
<g id="node10" class="node">
<title>Node80</title>
<g id="a_node10"><a xlink:href="mvmesh_8f.html#a7171f79e9411104dc2f71f9555954b82" target="_top" xlink:title=" ">
<polygon fill="white" stroke="red" points="14.5,-0.5 14.5,-19.5 65.5,-19.5 65.5,-0.5 14.5,-0.5"/>
<text text-anchor="middle" x="40" y="-7.5" font-family="Helvetica,sans-Serif" font-size="10.00">meshtol</text>
</a>
</g>
</g>
<!-- Node37&#45;&gt;Node80 -->
<g id="edge9" class="edge">
<title>Node37&#45;&gt;Node80</title>
<path fill="none" stroke="midnightblue" d="M126,-60.21C113.14,-50.63 96.02,-38.48 80,-29 74.43,-25.7 68.2,-22.48 62.38,-19.64"/>
<polygon fill="midnightblue" stroke="midnightblue" points="124.07,-63.13 134.16,-66.36 128.28,-57.54 124.07,-63.13"/>
</g>
</g>
</svg>
