<?xml version="1.0" encoding="UTF-8" standalone="no"?>
<!DOCTYPE svg PUBLIC "-//W3C//DTD SVG 1.1//EN"
 "http://www.w3.org/Graphics/SVG/1.1/DTD/svg11.dtd">
<!-- Generated by graphviz version 2.46.0 (0)
 -->
<!-- Title: ltrue Pages: 1 -->
<svg width="479pt" height="66pt"
 viewBox="0.00 0.00 479.00 66.00" xmlns="http://www.w3.org/2000/svg" xmlns:xlink="http://www.w3.org/1999/xlink">
<g id="graph0" class="graph" transform="scale(1 1) rotate(0) translate(4 62)">
<title>ltrue</title>
<polygon fill="white" stroke="transparent" points="-4,4 -4,-62 475,-62 475,4 -4,4"/>
<!-- Node1 -->
<g id="node1" class="node">
<title>Node1</title>
<g id="a_node1"><a xlink:title=" ">
<polygon fill="#bfbfbf" stroke="black" points="436,-19.5 436,-38.5 471,-38.5 471,-19.5 436,-19.5"/>
<text text-anchor="middle" x="453.5" y="-26.5" font-family="Helvetica,sans-Serif" font-size="10.00">ltrue</text>
</a>
</g>
</g>
<!-- Node2 -->
<g id="node2" class="node">
<title>Node2</title>
<g id="a_node2"><a xlink:href="reader__par_8f.html#a3a086a396f7cef752962e23c1b6e97c3" target="_top" xlink:title=" ">
<polygon fill="white" stroke="black" points="346,-38.5 346,-57.5 400,-57.5 400,-38.5 346,-38.5"/>
<text text-anchor="middle" x="373" y="-45.5" font-family="Helvetica,sans-Serif" font-size="10.00">par_read</text>
</a>
</g>
</g>
<!-- Node1&#45;&gt;Node2 -->
<g id="edge1" class="edge">
<title>Node1&#45;&gt;Node2</title>
<path fill="none" stroke="midnightblue" d="M425.92,-35.43C417.62,-37.44 408.47,-39.66 400.2,-41.66"/>
<polygon fill="midnightblue" stroke="midnightblue" points="426.96,-38.78 435.85,-33.03 425.31,-31.98 426.96,-38.78"/>
</g>
<!-- Node7 -->
<g id="node7" class="node">
<title>Node7</title>
<g id="a_node7"><a xlink:href="reader__rea_8f.html#a530a74e674f77e40a6fe452da105572f" target="_top" xlink:title=" ">
<polygon fill="white" stroke="black" points="253,-0.5 253,-19.5 305,-19.5 305,-0.5 253,-0.5"/>
<text text-anchor="middle" x="279" y="-7.5" font-family="Helvetica,sans-Serif" font-size="10.00">rdparam</text>
</a>
</g>
</g>
<!-- Node1&#45;&gt;Node7 -->
<g id="edge6" class="edge">
<title>Node1&#45;&gt;Node7</title>
<path fill="none" stroke="midnightblue" d="M425.71,-26.05C392.74,-22.42 337.2,-16.3 305.05,-12.76"/>
<polygon fill="midnightblue" stroke="midnightblue" points="425.64,-29.56 435.96,-27.18 426.4,-22.6 425.64,-29.56"/>
</g>
<!-- Node3 -->
<g id="node3" class="node">
<title>Node3</title>
<g id="a_node3"><a xlink:href="reader__par_8f.html#a69b75d22fcf18a6c1038825b9f53bdb8" target="_top" xlink:title=" ">
<polygon fill="white" stroke="black" points="248,-38.5 248,-57.5 310,-57.5 310,-38.5 248,-38.5"/>
<text text-anchor="middle" x="279" y="-45.5" font-family="Helvetica,sans-Serif" font-size="10.00">readat_par</text>
</a>
</g>
</g>
<!-- Node2&#45;&gt;Node3 -->
<g id="edge2" class="edge">
<title>Node2&#45;&gt;Node3</title>
<path fill="none" stroke="midnightblue" d="M335.81,-48C327.29,-48 318.3,-48 310.08,-48"/>
<polygon fill="midnightblue" stroke="midnightblue" points="335.88,-51.5 345.88,-48 335.88,-44.5 335.88,-51.5"/>
</g>
<!-- Node4 -->
<g id="node4" class="node">
<title>Node4</title>
<g id="a_node4"><a xlink:href="connect2_8f.html#a909eeac6dfc8f61a1c9d637c53cc970d" target="_top" xlink:title=" ">
<polygon fill="white" stroke="black" points="168,-19.5 168,-38.5 212,-38.5 212,-19.5 168,-19.5"/>
<text text-anchor="middle" x="190" y="-26.5" font-family="Helvetica,sans-Serif" font-size="10.00">readat</text>
</a>
</g>
</g>
<!-- Node3&#45;&gt;Node4 -->
<g id="edge3" class="edge">
<title>Node3&#45;&gt;Node4</title>
<path fill="none" stroke="midnightblue" d="M237.77,-39.21C228.96,-37.29 219.96,-35.32 212.24,-33.64"/>
<polygon fill="midnightblue" stroke="midnightblue" points="237.06,-42.64 247.57,-41.35 238.55,-35.8 237.06,-42.64"/>
</g>
<!-- Node5 -->
<g id="node5" class="node">
<title>Node5</title>
<g id="a_node5"><a xlink:href="drive1_8f.html#a83f7c6d78ac4e68394f32533e847d0a3" target="_top" xlink:title=" ">
<polygon fill="white" stroke="black" points="82,-19.5 82,-38.5 132,-38.5 132,-19.5 82,-19.5"/>
<text text-anchor="middle" x="107" y="-26.5" font-family="Helvetica,sans-Serif" font-size="10.00">nek_init</text>
</a>
</g>
</g>
<!-- Node4&#45;&gt;Node5 -->
<g id="edge4" class="edge">
<title>Node4&#45;&gt;Node5</title>
<path fill="none" stroke="midnightblue" d="M157.51,-29C149.14,-29 140.22,-29 132.29,-29"/>
<polygon fill="midnightblue" stroke="midnightblue" points="157.72,-32.5 167.72,-29 157.72,-25.5 157.72,-32.5"/>
</g>
<!-- Node6 -->
<g id="node6" class="node">
<title>Node6</title>
<g id="a_node6"><a xlink:href="drive_8f.html#a13048bf28dd0734640412d69349e3857" target="_top" xlink:title=" ">
<polygon fill="white" stroke="black" points="0,-19.5 0,-38.5 46,-38.5 46,-19.5 0,-19.5"/>
<text text-anchor="middle" x="23" y="-26.5" font-family="Helvetica,sans-Serif" font-size="10.00">nekton</text>
</a>
</g>
</g>
<!-- Node5&#45;&gt;Node6 -->
<g id="edge5" class="edge">
<title>Node5&#45;&gt;Node6</title>
<path fill="none" stroke="midnightblue" d="M71.59,-29C62.94,-29 53.89,-29 46.03,-29"/>
<polygon fill="midnightblue" stroke="midnightblue" points="71.84,-32.5 81.84,-29 71.84,-25.5 71.84,-32.5"/>
</g>
<!-- Node7&#45;&gt;Node4 -->
<g id="edge7" class="edge">
<title>Node7&#45;&gt;Node4</title>
<path fill="none" stroke="midnightblue" d="M242.8,-17.69C232.46,-19.95 221.47,-22.35 212.28,-24.35"/>
<polygon fill="midnightblue" stroke="midnightblue" points="243.81,-21.05 252.84,-15.5 242.32,-14.21 243.81,-21.05"/>
</g>
</g>
</svg>
