<?xml version="1.0" encoding="UTF-8" standalone="no"?>
<!DOCTYPE svg PUBLIC "-//W3C//DTD SVG 1.1//EN"
 "http://www.w3.org/Graphics/SVG/1.1/DTD/svg11.dtd">
<!-- Generated by graphviz version 2.46.0 (0)
 -->
<!-- Title: copyi4 Pages: 1 -->
<svg width="401pt" height="239pt"
 viewBox="0.00 0.00 401.00 238.81" xmlns="http://www.w3.org/2000/svg" xmlns:xlink="http://www.w3.org/1999/xlink">
<g id="graph0" class="graph" transform="scale(1 1) rotate(0) translate(4 234.81)">
<title>copyi4</title>
<polygon fill="white" stroke="transparent" points="-4,4 -4,-234.81 397,-234.81 397,4 -4,4"/>
<!-- Node1 -->
<g id="node1" class="node">
<title>Node1</title>
<g id="a_node1"><a xlink:title=" ">
<polygon fill="#bfbfbf" stroke="black" points="348,-114.5 348,-133.5 393,-133.5 393,-114.5 348,-114.5"/>
<text text-anchor="middle" x="370.5" y="-121.5" font-family="Helvetica,sans-Serif" font-size="10.00">copyi4</text>
</a>
</g>
</g>
<!-- Node2 -->
<g id="node2" class="node">
<title>Node2</title>
<g id="a_node2"><a xlink:href="reader__re2_8f.html#ae148b6a074a40d9a6959f82d066d1927" target="_top" xlink:title=" ">
<polygon fill="white" stroke="black" points="126.5,-190.5 126.5,-209.5 190.5,-209.5 190.5,-190.5 126.5,-190.5"/>
<text text-anchor="middle" x="158.5" y="-197.5" font-family="Helvetica,sans-Serif" font-size="10.00">bin_rd1_bc</text>
</a>
</g>
</g>
<!-- Node1&#45;&gt;Node2 -->
<g id="edge1" class="edge">
<title>Node1&#45;&gt;Node2</title>
<path fill="none" stroke="midnightblue" d="M364.18,-143.14C356.71,-165.89 340.71,-202.82 312,-219 269.47,-242.97 209.81,-222.96 179.25,-209.6"/>
<polygon fill="midnightblue" stroke="midnightblue" points="367.54,-144.12 367.1,-133.53 360.84,-142.08 367.54,-144.12"/>
</g>
<!-- Node8 -->
<g id="node4" class="node">
<title>Node8</title>
<g id="a_node4"><a xlink:href="reader__re2_8f.html#a02a2663bd073292a0684da670c1bb250" target="_top" xlink:title=" ">
<polygon fill="white" stroke="black" points="120,-114.5 120,-133.5 197,-133.5 197,-114.5 120,-114.5"/>
<text text-anchor="middle" x="158.5" y="-121.5" font-family="Helvetica,sans-Serif" font-size="10.00">bin_rd1_curve</text>
</a>
</g>
</g>
<!-- Node1&#45;&gt;Node8 -->
<g id="edge3" class="edge">
<title>Node1&#45;&gt;Node8</title>
<path fill="none" stroke="midnightblue" d="M337.43,-124C299.75,-124 237.31,-124 197.3,-124"/>
<polygon fill="midnightblue" stroke="midnightblue" points="337.82,-127.5 347.82,-124 337.82,-120.5 337.82,-127.5"/>
</g>
<!-- Node9 -->
<g id="node5" class="node">
<title>Node9</title>
<g id="a_node5"><a xlink:href="reader__re2_8f.html#a189e9cbe1eb8f139fb4274fc08ee13ee" target="_top" xlink:title=" ">
<polygon fill="white" stroke="black" points="246,-190.5 246,-209.5 305,-209.5 305,-190.5 246,-190.5"/>
<text text-anchor="middle" x="275.5" y="-197.5" font-family="Helvetica,sans-Serif" font-size="10.00">buf_to_bc</text>
</a>
</g>
</g>
<!-- Node1&#45;&gt;Node9 -->
<g id="edge5" class="edge">
<title>Node1&#45;&gt;Node9</title>
<path fill="none" stroke="midnightblue" d="M352.34,-140.69C341.19,-151.23 326.15,-164.91 312,-176 305.56,-181.05 298.1,-186.19 291.69,-190.41"/>
<polygon fill="midnightblue" stroke="midnightblue" points="354.89,-143.09 359.7,-133.65 350.05,-138.03 354.89,-143.09"/>
</g>
<!-- Node10 -->
<g id="node6" class="node">
<title>Node10</title>
<g id="a_node6"><a xlink:href="reader__re2_8f.html#ad228b1fac7ff420bfe70b262d5a0e194" target="_top" xlink:title=" ">
<polygon fill="white" stroke="black" points="121,-152.5 121,-171.5 196,-171.5 196,-152.5 121,-152.5"/>
<text text-anchor="middle" x="158.5" y="-159.5" font-family="Helvetica,sans-Serif" font-size="10.00">readp_re2_bc</text>
</a>
</g>
</g>
<!-- Node1&#45;&gt;Node10 -->
<g id="edge16" class="edge">
<title>Node1&#45;&gt;Node10</title>
<path fill="none" stroke="midnightblue" d="M337.94,-132.18C329.54,-134.22 320.45,-136.31 312,-138 272.58,-145.89 227,-152.77 196.01,-157.12"/>
<polygon fill="midnightblue" stroke="midnightblue" points="338.89,-135.55 347.75,-129.75 337.2,-128.76 338.89,-135.55"/>
</g>
<!-- Node11 -->
<g id="node7" class="node">
<title>Node11</title>
<g id="a_node7"><a xlink:href="reader__re2_8f.html#a637876278ed588a2f4d0c595ec4ea32c" target="_top" xlink:title=" ">
<polygon fill="white" stroke="black" points="239,-76.5 239,-95.5 312,-95.5 312,-76.5 239,-76.5"/>
<text text-anchor="middle" x="275.5" y="-83.5" font-family="Helvetica,sans-Serif" font-size="10.00">buf_to_curve</text>
</a>
</g>
</g>
<!-- Node1&#45;&gt;Node11 -->
<g id="edge9" class="edge">
<title>Node1&#45;&gt;Node11</title>
<path fill="none" stroke="midnightblue" d="M338.31,-111.26C325.76,-106.13 311.54,-100.32 299.91,-95.56"/>
<polygon fill="midnightblue" stroke="midnightblue" points="337.35,-114.64 347.93,-115.19 340,-108.16 337.35,-114.64"/>
</g>
<!-- Node12 -->
<g id="node8" class="node">
<title>Node12</title>
<g id="a_node8"><a xlink:href="reader__re2_8f.html#af82be0a4640478fb71830438aa8ec541" target="_top" xlink:title=" ">
<polygon fill="white" stroke="black" points="114,-76.5 114,-95.5 203,-95.5 203,-76.5 114,-76.5"/>
<text text-anchor="middle" x="158.5" y="-83.5" font-family="Helvetica,sans-Serif" font-size="10.00">readp_re2_curve</text>
</a>
</g>
</g>
<!-- Node1&#45;&gt;Node12 -->
<g id="edge17" class="edge">
<title>Node1&#45;&gt;Node12</title>
<path fill="none" stroke="midnightblue" d="M357.63,-106.26C347.37,-92.65 331.19,-74.9 312,-67 268.45,-49.07 212.46,-64.9 181.89,-76.45"/>
<polygon fill="midnightblue" stroke="midnightblue" points="354.83,-108.36 363.49,-114.46 360.53,-104.29 354.83,-108.36"/>
</g>
<!-- Node13 -->
<g id="node9" class="node">
<title>Node13</title>
<g id="a_node9"><a xlink:href="reader__re2_8f.html#a328e6df4b7c218ce4b3b46b72ac3711f" target="_top" xlink:title=" ">
<polygon fill="white" stroke="red" points="243,-0.5 243,-19.5 308,-19.5 308,-0.5 243,-0.5"/>
<text text-anchor="middle" x="275.5" y="-7.5" font-family="Helvetica,sans-Serif" font-size="10.00">buf_to_xyz</text>
</a>
</g>
</g>
<!-- Node1&#45;&gt;Node13 -->
<g id="edge13" class="edge">
<title>Node1&#45;&gt;Node13</title>
<path fill="none" stroke="midnightblue" d="M360.53,-105.44C350.56,-86.08 333.05,-55.6 312,-34 306.7,-28.57 299.99,-23.65 293.83,-19.71"/>
<polygon fill="midnightblue" stroke="midnightblue" points="357.44,-107.07 365.04,-114.45 363.69,-103.94 357.44,-107.07"/>
</g>
<!-- Node3 -->
<g id="node3" class="node">
<title>Node3</title>
<g id="a_node3"><a xlink:href="reader__re2_8f.html#afebb243824e6845e99b2f86817b84a71" target="_top" xlink:title=" ">
<polygon fill="white" stroke="red" points="0,-114.5 0,-133.5 78,-133.5 78,-114.5 0,-114.5"/>
<text text-anchor="middle" x="39" y="-121.5" font-family="Helvetica,sans-Serif" font-size="10.00">read_re2_data</text>
</a>
</g>
</g>
<!-- Node2&#45;&gt;Node3 -->
<g id="edge2" class="edge">
<title>Node2&#45;&gt;Node3</title>
<path fill="none" stroke="midnightblue" d="M123.44,-186.09C120.19,-184.48 117,-182.77 114,-181 89.99,-166.8 64.84,-145.95 50.92,-133.8"/>
<polygon fill="midnightblue" stroke="midnightblue" points="122.05,-189.31 132.59,-190.37 125.01,-182.96 122.05,-189.31"/>
</g>
<!-- Node8&#45;&gt;Node3 -->
<g id="edge4" class="edge">
<title>Node8&#45;&gt;Node3</title>
<path fill="none" stroke="midnightblue" d="M109.76,-124C99.31,-124 88.38,-124 78.36,-124"/>
<polygon fill="midnightblue" stroke="midnightblue" points="110,-127.5 120,-124 110,-120.5 110,-127.5"/>
</g>
<!-- Node9&#45;&gt;Node2 -->
<g id="edge6" class="edge">
<title>Node9&#45;&gt;Node2</title>
<path fill="none" stroke="midnightblue" d="M235.51,-200C220.9,-200 204.5,-200 190.68,-200"/>
<polygon fill="midnightblue" stroke="midnightblue" points="235.78,-203.5 245.78,-200 235.78,-196.5 235.78,-203.5"/>
</g>
<!-- Node9&#45;&gt;Node10 -->
<g id="edge7" class="edge">
<title>Node9&#45;&gt;Node10</title>
<path fill="none" stroke="midnightblue" d="M235.9,-187.24C220.32,-182.1 202.67,-176.26 188.26,-171.5"/>
<polygon fill="midnightblue" stroke="midnightblue" points="235.18,-190.69 245.78,-190.51 237.38,-184.05 235.18,-190.69"/>
</g>
<!-- Node10&#45;&gt;Node3 -->
<g id="edge8" class="edge">
<title>Node10&#45;&gt;Node3</title>
<path fill="none" stroke="midnightblue" d="M118.29,-149.32C102.41,-144.19 84.39,-138.36 69.64,-133.59"/>
<polygon fill="midnightblue" stroke="midnightblue" points="117.26,-152.66 127.85,-152.41 119.41,-146 117.26,-152.66"/>
</g>
<!-- Node11&#45;&gt;Node8 -->
<g id="edge10" class="edge">
<title>Node11&#45;&gt;Node8</title>
<path fill="none" stroke="midnightblue" d="M235.68,-98.83C220.25,-103.92 202.81,-109.69 188.51,-114.41"/>
<polygon fill="midnightblue" stroke="midnightblue" points="237.08,-102.05 245.48,-95.59 234.89,-95.4 237.08,-102.05"/>
</g>
<!-- Node11&#45;&gt;Node12 -->
<g id="edge11" class="edge">
<title>Node11&#45;&gt;Node12</title>
<path fill="none" stroke="midnightblue" d="M228.47,-86C220.18,-86 211.56,-86 203.33,-86"/>
<polygon fill="midnightblue" stroke="midnightblue" points="228.74,-89.5 238.74,-86 228.74,-82.5 228.74,-89.5"/>
</g>
<!-- Node12&#45;&gt;Node3 -->
<g id="edge12" class="edge">
<title>Node12&#45;&gt;Node3</title>
<path fill="none" stroke="midnightblue" d="M118.29,-98.68C102.41,-103.81 84.39,-109.64 69.64,-114.41"/>
<polygon fill="midnightblue" stroke="midnightblue" points="119.41,-102 127.85,-95.59 117.26,-95.34 119.41,-102"/>
</g>
<!-- Node14 -->
<g id="node10" class="node">
<title>Node14</title>
<g id="a_node10"><a xlink:href="reader__re2_8f.html#a14cdc9443ed9567e04fab4f74b6f8494" target="_top" xlink:title=" ">
<polygon fill="white" stroke="black" points="120,-19.5 120,-38.5 197,-38.5 197,-19.5 120,-19.5"/>
<text text-anchor="middle" x="158.5" y="-26.5" font-family="Helvetica,sans-Serif" font-size="10.00">bin_rd1_mesh</text>
</a>
</g>
</g>
<!-- Node13&#45;&gt;Node14 -->
<g id="edge14" class="edge">
<title>Node13&#45;&gt;Node14</title>
<path fill="none" stroke="midnightblue" d="M232.84,-16.88C221.21,-18.8 208.64,-20.88 197.25,-22.76"/>
<polygon fill="midnightblue" stroke="midnightblue" points="233.48,-20.33 242.77,-15.24 232.33,-13.42 233.48,-20.33"/>
</g>
<!-- Node14&#45;&gt;Node3 -->
<g id="edge15" class="edge">
<title>Node14&#45;&gt;Node3</title>
<path fill="none" stroke="midnightblue" d="M137.41,-45.24C112.82,-65.13 71.97,-98.15 51.89,-114.39"/>
<polygon fill="midnightblue" stroke="midnightblue" points="139.79,-47.82 145.37,-38.81 135.39,-42.37 139.79,-47.82"/>
</g>
</g>
</svg>
