<?xml version="1.0" encoding="UTF-8" standalone="no"?>
<!DOCTYPE svg PUBLIC "-//W3C//DTD SVG 1.1//EN"
 "http://www.w3.org/Graphics/SVG/1.1/DTD/svg11.dtd">
<!-- Generated by graphviz version 2.46.0 (0)
 -->
<!-- Title: iglmin Pages: 1 -->
<svg width="642pt" height="142pt"
 viewBox="0.00 0.00 642.00 142.00" xmlns="http://www.w3.org/2000/svg" xmlns:xlink="http://www.w3.org/1999/xlink">
<g id="graph0" class="graph" transform="scale(1 1) rotate(0) translate(4 138)">
<title>iglmin</title>
<polygon fill="white" stroke="transparent" points="-4,4 -4,-138 638,-138 638,4 -4,4"/>
<!-- Node1 -->
<g id="node1" class="node">
<title>Node1</title>
<g id="a_node1"><a xlink:title=" ">
<polygon fill="#bfbfbf" stroke="black" points="592,-38.5 592,-57.5 634,-57.5 634,-38.5 592,-38.5"/>
<text text-anchor="middle" x="613" y="-45.5" font-family="Helvetica,sans-Serif" font-size="10.00">iglmin</text>
</a>
</g>
</g>
<!-- Node2 -->
<g id="node2" class="node">
<title>Node2</title>
<g id="a_node2"><a xlink:href="math_8f.html#a98ffbd893d5c371e6dc746079c507400" target="_top" xlink:title=" ">
<polygon fill="white" stroke="black" points="479,-76.5 479,-95.5 540,-95.5 540,-76.5 479,-76.5"/>
<text text-anchor="middle" x="509.5" y="-83.5" font-family="Helvetica,sans-Serif" font-size="10.00">iglmin_ms</text>
</a>
</g>
</g>
<!-- Node1&#45;&gt;Node2 -->
<g id="edge1" class="edge">
<title>Node1&#45;&gt;Node2</title>
<path fill="none" stroke="midnightblue" d="M582.3,-59.12C567.59,-64.63 550,-71.21 535.92,-76.48"/>
<polygon fill="midnightblue" stroke="midnightblue" points="583.81,-62.29 591.95,-55.51 581.35,-55.74 583.81,-62.29"/>
</g>
<!-- Node10 -->
<g id="node8" class="node">
<title>Node10</title>
<g id="a_node8"><a xlink:href="lb__setqvol_8f.html#aeb2fee7160f5d8a7246d5814ac1ac517" target="_top" xlink:title=" ">
<polygon fill="white" stroke="black" points="463,-38.5 463,-57.5 556,-57.5 556,-38.5 463,-38.5"/>
<text text-anchor="middle" x="509.5" y="-45.5" font-family="Helvetica,sans-Serif" font-size="10.00">lb_process_items</text>
</a>
</g>
</g>
<!-- Node1&#45;&gt;Node10 -->
<g id="edge8" class="edge">
<title>Node1&#45;&gt;Node10</title>
<path fill="none" stroke="midnightblue" d="M581.88,-48C573.79,-48 564.86,-48 556.13,-48"/>
<polygon fill="midnightblue" stroke="midnightblue" points="581.95,-51.5 591.95,-48 581.95,-44.5 581.95,-51.5"/>
</g>
<!-- Node12 -->
<g id="node10" class="node">
<title>Node12</title>
<g id="a_node10"><a xlink:href="gmres_8f.html#af757d1e832eb74fc9ed84d298a6751a8" target="_top" xlink:title=" ">
<polygon fill="white" stroke="black" points="483,-0.5 483,-19.5 536,-19.5 536,-0.5 483,-0.5"/>
<text text-anchor="middle" x="509.5" y="-7.5" font-family="Helvetica,sans-Serif" font-size="10.00">outfldi_g</text>
</a>
</g>
</g>
<!-- Node1&#45;&gt;Node12 -->
<g id="edge10" class="edge">
<title>Node1&#45;&gt;Node12</title>
<path fill="none" stroke="midnightblue" d="M582.3,-36.88C567.59,-31.37 550,-24.79 535.92,-19.52"/>
<polygon fill="midnightblue" stroke="midnightblue" points="581.35,-40.26 591.95,-40.49 583.81,-33.71 581.35,-40.26"/>
</g>
<!-- Node3 -->
<g id="node3" class="node">
<title>Node3</title>
<g id="a_node3"><a xlink:href="multimesh_8f.html#ae456181cee68ca24e24244df7c9db9c6" target="_top" xlink:title=" ">
<polygon fill="white" stroke="black" points="252,-95.5 252,-114.5 329,-114.5 329,-95.5 252,-95.5"/>
<text text-anchor="middle" x="290.5" y="-102.5" font-family="Helvetica,sans-Serif" font-size="10.00">neknek_setup</text>
</a>
</g>
</g>
<!-- Node2&#45;&gt;Node3 -->
<g id="edge2" class="edge">
<title>Node2&#45;&gt;Node3</title>
<path fill="none" stroke="midnightblue" d="M469.2,-97.08C455.91,-100.31 440.92,-103.4 427,-105 394.05,-108.79 356.29,-108.41 329.02,-107.29"/>
<polygon fill="midnightblue" stroke="midnightblue" points="470.15,-100.45 478.98,-94.6 468.43,-93.66 470.15,-100.45"/>
</g>
<!-- Node9 -->
<g id="node7" class="node">
<title>Node9</title>
<g id="a_node7"><a xlink:href="multimesh_8f.html#a34cfd2b842070d5b66addc1bd03d0390" target="_top" xlink:title=" ">
<polygon fill="white" stroke="black" points="365,-76.5 365,-95.5 427,-95.5 427,-76.5 365,-76.5"/>
<text text-anchor="middle" x="396" y="-83.5" font-family="Helvetica,sans-Serif" font-size="10.00">neknekmv</text>
</a>
</g>
</g>
<!-- Node2&#45;&gt;Node9 -->
<g id="edge6" class="edge">
<title>Node2&#45;&gt;Node9</title>
<path fill="none" stroke="midnightblue" d="M468.76,-86C455.05,-86 439.93,-86 427.11,-86"/>
<polygon fill="midnightblue" stroke="midnightblue" points="468.91,-89.5 478.91,-86 468.91,-82.5 468.91,-89.5"/>
</g>
<!-- Node4 -->
<g id="node4" class="node">
<title>Node4</title>
<g id="a_node4"><a xlink:href="drive1_8f.html#ae177ea7efac97f35241521b782a671c0" target="_top" xlink:title=" ">
<polygon fill="white" stroke="black" points="142,-114.5 142,-133.5 216,-133.5 216,-114.5 142,-114.5"/>
<text text-anchor="middle" x="179" y="-121.5" font-family="Helvetica,sans-Serif" font-size="10.00">nek_advance</text>
</a>
</g>
</g>
<!-- Node3&#45;&gt;Node4 -->
<g id="edge3" class="edge">
<title>Node3&#45;&gt;Node4</title>
<path fill="none" stroke="midnightblue" d="M241.89,-113.26C233.3,-114.75 224.48,-116.28 216.27,-117.71"/>
<polygon fill="midnightblue" stroke="midnightblue" points="242.56,-116.7 251.82,-111.54 241.37,-109.8 242.56,-116.7"/>
</g>
<!-- Node8 -->
<g id="node6" class="node">
<title>Node8</title>
<g id="a_node6"><a xlink:href="drive1_8f.html#a83f7c6d78ac4e68394f32533e847d0a3" target="_top" xlink:title=" ">
<polygon fill="white" stroke="red" points="154,-76.5 154,-95.5 204,-95.5 204,-76.5 154,-76.5"/>
<text text-anchor="middle" x="179" y="-83.5" font-family="Helvetica,sans-Serif" font-size="10.00">nek_init</text>
</a>
</g>
</g>
<!-- Node3&#45;&gt;Node8 -->
<g id="edge5" class="edge">
<title>Node3&#45;&gt;Node8</title>
<path fill="none" stroke="midnightblue" d="M241.95,-96.75C228.85,-94.48 215.18,-92.1 204.03,-90.17"/>
<polygon fill="midnightblue" stroke="midnightblue" points="241.37,-100.2 251.82,-98.46 242.56,-93.3 241.37,-100.2"/>
</g>
<!-- Node5 -->
<g id="node5" class="node">
<title>Node5</title>
<g id="a_node5"><a xlink:href="drive1_8f.html#a18d3e839786263fc4cf91f7eeb714371" target="_top" xlink:title=" ">
<polygon fill="white" stroke="red" points="0,-114.5 0,-133.5 106,-133.5 106,-114.5 0,-114.5"/>
<text text-anchor="middle" x="53" y="-121.5" font-family="Helvetica,sans-Serif" font-size="10.00">nek__multi_advance</text>
</a>
</g>
</g>
<!-- Node4&#45;&gt;Node5 -->
<g id="edge4" class="edge">
<title>Node4&#45;&gt;Node5</title>
<path fill="none" stroke="midnightblue" d="M131.56,-124C123.27,-124 114.58,-124 106.14,-124"/>
<polygon fill="midnightblue" stroke="midnightblue" points="131.8,-127.5 141.8,-124 131.8,-120.5 131.8,-127.5"/>
</g>
<!-- Node9&#45;&gt;Node3 -->
<g id="edge7" class="edge">
<title>Node9&#45;&gt;Node3</title>
<path fill="none" stroke="midnightblue" d="M354.82,-93.38C346.43,-94.92 337.6,-96.54 329.3,-98.06"/>
<polygon fill="midnightblue" stroke="midnightblue" points="355.58,-96.79 364.79,-91.55 354.32,-89.91 355.58,-96.79"/>
</g>
<!-- Node11 -->
<g id="node9" class="node">
<title>Node11</title>
<g id="a_node9"><a xlink:href="lb__setqvol_8f.html#a5be0f52dcf9859b59596b28731a03032" target="_top" xlink:title=" ">
<polygon fill="white" stroke="black" points="365.5,-38.5 365.5,-57.5 426.5,-57.5 426.5,-38.5 365.5,-38.5"/>
<text text-anchor="middle" x="396" y="-45.5" font-family="Helvetica,sans-Serif" font-size="10.00">lb_setqvol</text>
</a>
</g>
</g>
<!-- Node10&#45;&gt;Node11 -->
<g id="edge9" class="edge">
<title>Node10&#45;&gt;Node11</title>
<path fill="none" stroke="midnightblue" d="M452.76,-48C443.8,-48 434.85,-48 426.81,-48"/>
<polygon fill="midnightblue" stroke="midnightblue" points="452.83,-51.5 462.83,-48 452.83,-44.5 452.83,-51.5"/>
</g>
</g>
</svg>
