<?xml version="1.0" encoding="UTF-8" standalone="no"?>
<!DOCTYPE svg PUBLIC "-//W3C//DTD SVG 1.1//EN"
 "http://www.w3.org/Graphics/SVG/1.1/DTD/svg11.dtd">
<!-- Generated by graphviz version 2.46.0 (0)
 -->
<!-- Title: subcol4 Pages: 1 -->
<svg width="310pt" height="180pt"
 viewBox="0.00 0.00 310.00 180.00" xmlns="http://www.w3.org/2000/svg" xmlns:xlink="http://www.w3.org/1999/xlink">
<g id="graph0" class="graph" transform="scale(1 1) rotate(0) translate(4 176)">
<title>subcol4</title>
<polygon fill="white" stroke="transparent" points="-4,4 -4,-176 306,-176 306,4 -4,4"/>
<!-- Node1 -->
<g id="node1" class="node">
<title>Node1</title>
<g id="a_node1"><a xlink:title=" ">
<polygon fill="#bfbfbf" stroke="black" points="252,-76.5 252,-95.5 302,-95.5 302,-76.5 252,-76.5"/>
<text text-anchor="middle" x="277" y="-83.5" font-family="Helvetica,sans-Serif" font-size="10.00">subcol4</text>
</a>
</g>
</g>
<!-- Node2 -->
<g id="node2" class="node">
<title>Node2</title>
<g id="a_node2"><a xlink:href="rans__komg_8f.html#a996556b03edfee7694824705e831cb09" target="_top" xlink:title=" ">
<polygon fill="white" stroke="black" points="116,-152.5 116,-171.5 216,-171.5 216,-152.5 116,-152.5"/>
<text text-anchor="middle" x="166" y="-159.5" font-family="Helvetica,sans-Serif" font-size="10.00">comp_sij_oij_mag2</text>
</a>
</g>
</g>
<!-- Node1&#45;&gt;Node2 -->
<g id="edge1" class="edge">
<title>Node1&#45;&gt;Node2</title>
<path fill="none" stroke="midnightblue" d="M261.33,-103.15C249.98,-115.57 233.32,-132.02 216,-143 210.22,-146.66 203.62,-149.81 197.18,-152.43"/>
<polygon fill="midnightblue" stroke="midnightblue" points="263.95,-105.48 267.98,-95.68 258.72,-100.83 263.95,-105.48"/>
</g>
<!-- Node14 -->
<g id="node4" class="node">
<title>Node14</title>
<g id="a_node4"><a xlink:href="coef_8f.html#a4fc3ef4a22d50b8bccc5554aeb64007e" target="_top" xlink:title=" ">
<polygon fill="white" stroke="black" points="138,-114.5 138,-133.5 194,-133.5 194,-114.5 138,-114.5"/>
<text text-anchor="middle" x="166" y="-121.5" font-family="Helvetica,sans-Serif" font-size="10.00">glmapm1</text>
</a>
</g>
</g>
<!-- Node1&#45;&gt;Node14 -->
<g id="edge3" class="edge">
<title>Node1&#45;&gt;Node14</title>
<path fill="none" stroke="midnightblue" d="M242.11,-97.81C226.7,-103.19 208.7,-109.46 194.19,-114.52"/>
<polygon fill="midnightblue" stroke="midnightblue" points="243.52,-101.03 251.81,-94.43 241.21,-94.42 243.52,-101.03"/>
</g>
<!-- Node46 -->
<g id="node7" class="node">
<title>Node46</title>
<g id="a_node7"><a xlink:href="meshsmoother_8f.html#ad38247a7eed8745aee02048be5c3a42e" target="_top" xlink:title=" ">
<polygon fill="white" stroke="red" points="123.5,-38.5 123.5,-57.5 208.5,-57.5 208.5,-38.5 123.5,-38.5"/>
<text text-anchor="middle" x="166" y="-45.5" font-family="Helvetica,sans-Serif" font-size="10.00">glmapm1chkinv</text>
</a>
</g>
</g>
<!-- Node1&#45;&gt;Node46 -->
<g id="edge6" class="edge">
<title>Node1&#45;&gt;Node46</title>
<path fill="none" stroke="midnightblue" d="M242.19,-74.21C226.89,-68.88 209.05,-62.66 194.58,-57.62"/>
<polygon fill="midnightblue" stroke="midnightblue" points="241.21,-77.58 251.81,-77.57 243.52,-70.97 241.21,-77.58"/>
</g>
<!-- Node50 -->
<g id="node9" class="node">
<title>Node50</title>
<g id="a_node9"><a xlink:href="coef_8f.html#a804b631f33dccd942344eec1069ad5ce" target="_top" xlink:title=" ">
<polygon fill="white" stroke="black" points="138,-76.5 138,-95.5 194,-95.5 194,-76.5 138,-76.5"/>
<text text-anchor="middle" x="166" y="-83.5" font-family="Helvetica,sans-Serif" font-size="10.00">glmapm3</text>
</a>
</g>
</g>
<!-- Node1&#45;&gt;Node50 -->
<g id="edge8" class="edge">
<title>Node1&#45;&gt;Node50</title>
<path fill="none" stroke="midnightblue" d="M241.67,-86C226.36,-86 208.56,-86 194.19,-86"/>
<polygon fill="midnightblue" stroke="midnightblue" points="241.81,-89.5 251.81,-86 241.81,-82.5 241.81,-89.5"/>
</g>
<!-- Node51 -->
<g id="node10" class="node">
<title>Node51</title>
<g id="a_node10"><a xlink:href="subs2_8f.html#a49d6eb4872b96c188a73d2a2fb7af340" target="_top" xlink:title=" ">
<polygon fill="white" stroke="black" points="143,-0.5 143,-19.5 189,-19.5 189,-0.5 143,-0.5"/>
<text text-anchor="middle" x="166" y="-7.5" font-family="Helvetica,sans-Serif" font-size="10.00">stnrinv</text>
</a>
</g>
</g>
<!-- Node1&#45;&gt;Node51 -->
<g id="edge10" class="edge">
<title>Node1&#45;&gt;Node51</title>
<path fill="none" stroke="midnightblue" d="M261.33,-68.85C249.98,-56.43 233.32,-39.98 216,-29 207.83,-23.82 198.03,-19.68 189.34,-16.59"/>
<polygon fill="midnightblue" stroke="midnightblue" points="258.72,-71.17 267.98,-76.32 263.95,-66.52 258.72,-71.17"/>
</g>
<!-- Node3 -->
<g id="node3" class="node">
<title>Node3</title>
<g id="a_node3"><a xlink:href="rans__komg_8f.html#ac6e313118e7733ea603446276c221243" target="_top" xlink:title=" ">
<polygon fill="white" stroke="red" points="6,-152.5 6,-171.5 74,-171.5 74,-152.5 6,-152.5"/>
<text text-anchor="middle" x="40" y="-159.5" font-family="Helvetica,sans-Serif" font-size="10.00">comp_stom</text>
</a>
</g>
</g>
<!-- Node2&#45;&gt;Node3 -->
<g id="edge2" class="edge">
<title>Node2&#45;&gt;Node3</title>
<path fill="none" stroke="midnightblue" d="M105.98,-162C94.99,-162 83.88,-162 74.03,-162"/>
<polygon fill="midnightblue" stroke="midnightblue" points="105.99,-165.5 115.99,-162 105.99,-158.5 105.99,-165.5"/>
</g>
<!-- Node15 -->
<g id="node5" class="node">
<title>Node15</title>
<g id="a_node5"><a xlink:href="cvode__driver_8f.html#a365f4a5b0accedd6fda56ba6be129643" target="_top" xlink:title=" ">
<polygon fill="white" stroke="red" points="0,-114.5 0,-133.5 80,-133.5 80,-114.5 0,-114.5"/>
<text text-anchor="middle" x="40" y="-121.5" font-family="Helvetica,sans-Serif" font-size="10.00">cv_eval_geom</text>
</a>
</g>
</g>
<!-- Node14&#45;&gt;Node15 -->
<g id="edge4" class="edge">
<title>Node14&#45;&gt;Node15</title>
<path fill="none" stroke="midnightblue" d="M127.41,-124C112.54,-124 95.43,-124 80.39,-124"/>
<polygon fill="midnightblue" stroke="midnightblue" points="127.79,-127.5 137.79,-124 127.79,-120.5 127.79,-127.5"/>
</g>
<!-- Node23 -->
<g id="node6" class="node">
<title>Node23</title>
<g id="a_node6"><a xlink:href="coef_8f.html#a8cbb48eee5edaf128d65bb31ac49c3ff" target="_top" xlink:title=" ">
<polygon fill="white" stroke="red" points="17,-76.5 17,-95.5 63,-95.5 63,-76.5 17,-76.5"/>
<text text-anchor="middle" x="40" y="-83.5" font-family="Helvetica,sans-Serif" font-size="10.00">geom1</text>
</a>
</g>
</g>
<!-- Node14&#45;&gt;Node23 -->
<g id="edge5" class="edge">
<title>Node14&#45;&gt;Node23</title>
<path fill="none" stroke="midnightblue" d="M128.15,-112.71C107.03,-106.24 81.22,-98.32 63.19,-92.8"/>
<polygon fill="midnightblue" stroke="midnightblue" points="127.2,-116.08 137.79,-115.66 129.25,-109.38 127.2,-116.08"/>
</g>
<!-- Node47 -->
<g id="node8" class="node">
<title>Node47</title>
<g id="a_node8"><a xlink:href="meshsmoother_8f.html#ac430b79a7376d40ab4466ee86fbed223" target="_top" xlink:title=" ">
<polygon fill="white" stroke="red" points="11,-38.5 11,-57.5 69,-57.5 69,-38.5 11,-38.5"/>
<text text-anchor="middle" x="40" y="-45.5" font-family="Helvetica,sans-Serif" font-size="10.00">dolsalpha</text>
</a>
</g>
</g>
<!-- Node46&#45;&gt;Node47 -->
<g id="edge7" class="edge">
<title>Node46&#45;&gt;Node47</title>
<path fill="none" stroke="midnightblue" d="M113.09,-48C97.99,-48 82.08,-48 69.05,-48"/>
<polygon fill="midnightblue" stroke="midnightblue" points="113.36,-51.5 123.36,-48 113.36,-44.5 113.36,-51.5"/>
</g>
<!-- Node50&#45;&gt;Node23 -->
<g id="edge9" class="edge">
<title>Node50&#45;&gt;Node23</title>
<path fill="none" stroke="midnightblue" d="M127.58,-86C106.56,-86 81.05,-86 63.19,-86"/>
<polygon fill="midnightblue" stroke="midnightblue" points="127.79,-89.5 137.79,-86 127.79,-82.5 127.79,-89.5"/>
</g>
</g>
</svg>
