<?xml version="1.0" encoding="UTF-8" standalone="no"?>
<!DOCTYPE svg PUBLIC "-//W3C//DTD SVG 1.1//EN"
 "http://www.w3.org/Graphics/SVG/1.1/DTD/svg11.dtd">
<!-- Generated by graphviz version 2.46.0 (0)
 -->
<!-- Title: getglobsum Pages: 1 -->
<svg width="254pt" height="218pt"
 viewBox="0.00 0.00 254.00 218.00" xmlns="http://www.w3.org/2000/svg" xmlns:xlink="http://www.w3.org/1999/xlink">
<g id="graph0" class="graph" transform="scale(1 1) rotate(0) translate(4 214)">
<title>getglobsum</title>
<polygon fill="white" stroke="transparent" points="-4,4 -4,-214 250,-214 250,4 -4,4"/>
<!-- Node1 -->
<g id="node1" class="node">
<title>Node1</title>
<g id="a_node1"><a xlink:title=" ">
<polygon fill="#bfbfbf" stroke="black" points="0,-38.5 0,-57.5 67,-57.5 67,-38.5 0,-38.5"/>
<text text-anchor="middle" x="33.5" y="-45.5" font-family="Helvetica,sans-Serif" font-size="10.00">getglobsum</text>
</a>
</g>
</g>
<!-- Node2 -->
<g id="node2" class="node">
<title>Node2</title>
<g id="a_node2"><a xlink:href="meshsmoother_8f.html#aec5d9fa3191067bb8bd6e1452ddf4858" target="_top" xlink:title=" ">
<polygon fill="white" stroke="black" points="103,-95.5 103,-114.5 151,-114.5 151,-95.5 103,-95.5"/>
<text text-anchor="middle" x="127" y="-102.5" font-family="Helvetica,sans-Serif" font-size="10.00">get_jac</text>
</a>
</g>
</g>
<!-- Node1&#45;&gt;Node2 -->
<g id="edge1" class="edge">
<title>Node1&#45;&gt;Node2</title>
<path fill="none" stroke="midnightblue" d="M50.02,-57.67C64.3,-66.57 85.7,-79.9 102.15,-90.14"/>
<polygon fill="midnightblue" stroke="midnightblue" points="100.37,-93.16 110.71,-95.47 104.07,-87.22 100.37,-93.16"/>
</g>
<!-- Node12 -->
<g id="node8" class="node">
<title>Node12</title>
<g id="a_node8"><a xlink:href="meshsmoother_8f.html#a820227f243af4f8ab08e4a6a23fb8e34" target="_top" xlink:title=" ">
<polygon fill="white" stroke="black" points="103,-38.5 103,-57.5 151,-57.5 151,-38.5 103,-38.5"/>
<text text-anchor="middle" x="127" y="-45.5" font-family="Helvetica,sans-Serif" font-size="10.00">get_len</text>
</a>
</g>
</g>
<!-- Node1&#45;&gt;Node12 -->
<g id="edge7" class="edge">
<title>Node1&#45;&gt;Node12</title>
<path fill="none" stroke="midnightblue" d="M67.02,-48C75.32,-48 84.27,-48 92.62,-48"/>
<polygon fill="midnightblue" stroke="midnightblue" points="92.78,-51.5 102.78,-48 92.78,-44.5 92.78,-51.5"/>
</g>
<!-- Node13 -->
<g id="node9" class="node">
<title>Node13</title>
<g id="a_node9"><a xlink:href="gs__test__gop__blocking_8c.html#ab2e24f9857f6d1ded7e4d556c6bc5e49" target="_top" xlink:title=" ">
<polygon fill="white" stroke="black" points="111,-0.5 111,-19.5 143,-19.5 143,-0.5 111,-0.5"/>
<text text-anchor="middle" x="127" y="-7.5" font-family="Helvetica,sans-Serif" font-size="10.00">gop</text>
</a>
</g>
</g>
<!-- Node1&#45;&gt;Node13 -->
<g id="edge9" class="edge">
<title>Node1&#45;&gt;Node13</title>
<path fill="none" stroke="midnightblue" d="M57.59,-38.41C71.05,-32.82 88.02,-25.77 101.68,-20.1"/>
<polygon fill="midnightblue" stroke="midnightblue" points="103.06,-23.32 110.95,-16.25 100.38,-16.85 103.06,-23.32"/>
</g>
<!-- Node3 -->
<g id="node3" class="node">
<title>Node3</title>
<g id="a_node3"><a xlink:href="math_8f.html#ad2b51b68d370651f4f6d81952503e7be" target="_top" xlink:title=" ">
<polygon fill="white" stroke="black" points="196,-190.5 196,-209.5 237,-209.5 237,-190.5 196,-190.5"/>
<text text-anchor="middle" x="216.5" y="-197.5" font-family="Helvetica,sans-Serif" font-size="10.00">cmult</text>
</a>
</g>
</g>
<!-- Node2&#45;&gt;Node3 -->
<g id="edge2" class="edge">
<title>Node2&#45;&gt;Node3</title>
<path fill="none" stroke="midnightblue" d="M134.04,-114.69C143.86,-129.96 164.5,-160.06 187,-181 188.26,-182.17 189.59,-183.32 190.97,-184.43"/>
<polygon fill="midnightblue" stroke="midnightblue" points="189.01,-187.33 199.14,-190.4 193.14,-181.68 189.01,-187.33"/>
</g>
<!-- Node4 -->
<g id="node4" class="node">
<title>Node4</title>
<g id="a_node4"><a xlink:href="math_8f.html#a0d9af374781723c272547a185cb3da5e" target="_top" xlink:title=" ">
<polygon fill="white" stroke="red" points="199,-152.5 199,-171.5 234,-171.5 234,-152.5 199,-152.5"/>
<text text-anchor="middle" x="216.5" y="-159.5" font-family="Helvetica,sans-Serif" font-size="10.00">col3</text>
</a>
</g>
</g>
<!-- Node2&#45;&gt;Node4 -->
<g id="edge3" class="edge">
<title>Node2&#45;&gt;Node4</title>
<path fill="none" stroke="midnightblue" d="M142.84,-114.67C156.38,-123.48 176.59,-136.65 192.26,-146.86"/>
<polygon fill="midnightblue" stroke="midnightblue" points="190.59,-149.95 200.88,-152.47 194.41,-144.08 190.59,-149.95"/>
</g>
<!-- Node7 -->
<g id="node5" class="node">
<title>Node7</title>
<g id="a_node5"><a xlink:href="byte_8c.html#a2da8eeb074dfd3ffbfb3e9a4d301cda4" target="_top" xlink:title=" ">
<polygon fill="white" stroke="red" points="199,-114.5 199,-133.5 234,-133.5 234,-114.5 199,-114.5"/>
<text text-anchor="middle" x="216.5" y="-121.5" font-family="Helvetica,sans-Serif" font-size="10.00">exitt</text>
</a>
</g>
</g>
<!-- Node2&#45;&gt;Node7 -->
<g id="edge4" class="edge">
<title>Node2&#45;&gt;Node7</title>
<path fill="none" stroke="midnightblue" d="M151.45,-110.09C163.04,-112.61 177.07,-115.66 189.04,-118.25"/>
<polygon fill="midnightblue" stroke="midnightblue" points="188.4,-121.7 198.92,-120.4 189.89,-114.86 188.4,-121.7"/>
</g>
<!-- Node10 -->
<g id="node6" class="node">
<title>Node10</title>
<g id="a_node6"><a xlink:href="math_8f.html#af44de42b023a4a68cd98ea341204342d" target="_top" xlink:title=" ">
<polygon fill="white" stroke="black" points="197.5,-76.5 197.5,-95.5 235.5,-95.5 235.5,-76.5 197.5,-76.5"/>
<text text-anchor="middle" x="216.5" y="-83.5" font-family="Helvetica,sans-Serif" font-size="10.00">rzero</text>
</a>
</g>
</g>
<!-- Node2&#45;&gt;Node10 -->
<g id="edge5" class="edge">
<title>Node2&#45;&gt;Node10</title>
<path fill="none" stroke="midnightblue" d="M151.45,-99.91C162.46,-97.52 175.67,-94.65 187.22,-92.14"/>
<polygon fill="midnightblue" stroke="midnightblue" points="188.23,-95.5 197.26,-89.96 186.75,-88.66 188.23,-95.5"/>
</g>
<!-- Node11 -->
<g id="node7" class="node">
<title>Node11</title>
<g id="a_node7"><a xlink:href="math_8f.html#a77c801497edba9cfca69fc6f8fe6f5b1" target="_top" xlink:title=" ">
<polygon fill="white" stroke="black" points="195,-38.5 195,-57.5 238,-57.5 238,-38.5 195,-38.5"/>
<text text-anchor="middle" x="216.5" y="-45.5" font-family="Helvetica,sans-Serif" font-size="10.00">vlsum</text>
</a>
</g>
</g>
<!-- Node2&#45;&gt;Node11 -->
<g id="edge6" class="edge">
<title>Node2&#45;&gt;Node11</title>
<path fill="none" stroke="midnightblue" d="M142.84,-95.33C156.38,-86.52 176.59,-73.35 192.26,-63.14"/>
<polygon fill="midnightblue" stroke="midnightblue" points="194.41,-65.92 200.88,-57.53 190.59,-60.05 194.41,-65.92"/>
</g>
<!-- Node12&#45;&gt;Node11 -->
<g id="edge8" class="edge">
<title>Node12&#45;&gt;Node11</title>
<path fill="none" stroke="midnightblue" d="M151.45,-48C161.73,-48 173.93,-48 184.91,-48"/>
<polygon fill="midnightblue" stroke="midnightblue" points="184.97,-51.5 194.97,-48 184.97,-44.5 184.97,-51.5"/>
</g>
<!-- Node14 -->
<g id="node10" class="node">
<title>Node14</title>
<g id="a_node10"><a xlink:href="math_8f.html#a17c0ecae12cc5c6096939885da90ad2b" target="_top" xlink:title=" ">
<polygon fill="white" stroke="black" points="187,-0.5 187,-19.5 246,-19.5 246,-0.5 187,-0.5"/>
<text text-anchor="middle" x="216.5" y="-7.5" font-family="Helvetica,sans-Serif" font-size="10.00">transpose</text>
</a>
</g>
</g>
<!-- Node13&#45;&gt;Node14 -->
<g id="edge10" class="edge">
<title>Node13&#45;&gt;Node14</title>
<path fill="none" stroke="midnightblue" d="M143.24,-10C152.48,-10 164.73,-10 176.51,-10"/>
<polygon fill="midnightblue" stroke="midnightblue" points="176.65,-13.5 186.65,-10 176.65,-6.5 176.65,-13.5"/>
</g>
</g>
</svg>
