<?xml version="1.0" encoding="UTF-8" standalone="no"?>
<!DOCTYPE svg PUBLIC "-//W3C//DTD SVG 1.1//EN"
 "http://www.w3.org/Graphics/SVG/1.1/DTD/svg11.dtd">
<!-- Generated by graphviz version 2.46.0 (0)
 -->
<!-- Title: meshsmoother Pages: 1 -->
<svg width="502pt" height="277pt"
 viewBox="0.00 0.00 502.00 277.31" xmlns="http://www.w3.org/2000/svg" xmlns:xlink="http://www.w3.org/1999/xlink">
<g id="graph0" class="graph" transform="scale(1 1) rotate(0) translate(4 273.31)">
<title>meshsmoother</title>
<polygon fill="white" stroke="transparent" points="-4,4 -4,-273.31 498,-273.31 498,4 -4,4"/>
<!-- Node1 -->
<g id="node1" class="node">
<title>Node1</title>
<g id="a_node1"><a xlink:title=" ">
<polygon fill="#bfbfbf" stroke="black" points="0,-133.5 0,-152.5 81,-152.5 81,-133.5 0,-133.5"/>
<text text-anchor="middle" x="40.5" y="-140.5" font-family="Helvetica,sans-Serif" font-size="10.00">meshsmoother</text>
</a>
</g>
</g>
<!-- Node2 -->
<g id="node2" class="node">
<title>Node2</title>
<g id="a_node2"><a xlink:href="meshsmoother_8f.html#a381ecddf77fc5669d3a8e246b65d1960" target="_top" xlink:title=" ">
<polygon fill="white" stroke="red" points="117,-133.5 117,-152.5 190,-152.5 190,-133.5 117,-133.5"/>
<text text-anchor="middle" x="153.5" y="-140.5" font-family="Helvetica,sans-Serif" font-size="10.00">smoothmesh</text>
</a>
</g>
</g>
<!-- Node1&#45;&gt;Node2 -->
<g id="edge1" class="edge">
<title>Node1&#45;&gt;Node2</title>
<path fill="none" stroke="midnightblue" d="M81.26,-143C89.49,-143 98.21,-143 106.64,-143"/>
<polygon fill="midnightblue" stroke="midnightblue" points="106.71,-146.5 116.71,-143 106.71,-139.5 106.71,-146.5"/>
</g>
<!-- Node3 -->
<g id="node3" class="node">
<title>Node3</title>
<g id="a_node3"><a xlink:href="math_8f.html#a3b43508554f14bdea8e14473d7d0803c" target="_top" xlink:title=" ">
<polygon fill="white" stroke="black" points="456,-133.5 456,-152.5 494,-152.5 494,-133.5 456,-133.5"/>
<text text-anchor="middle" x="475" y="-140.5" font-family="Helvetica,sans-Serif" font-size="10.00">copy</text>
</a>
</g>
</g>
<!-- Node2&#45;&gt;Node3 -->
<g id="edge2" class="edge">
<title>Node2&#45;&gt;Node3</title>
<path fill="none" stroke="midnightblue" d="M157.09,-152.68C163.86,-175.81 184.5,-234.04 226,-257 261,-276.36 277.94,-269.3 316,-257 375.51,-237.77 431.47,-186.86 457.97,-160.06"/>
<polygon fill="midnightblue" stroke="midnightblue" points="460.77,-162.19 465.22,-152.57 455.75,-157.32 460.77,-162.19"/>
</g>
<!-- Node4 -->
<g id="node4" class="node">
<title>Node4</title>
<g id="a_node4"><a xlink:href="meshsmoother_8f.html#a5b748148b82033f97b563a7f71daf707" target="_top" xlink:title=" ">
<polygon fill="white" stroke="red" points="249.5,-228.5 249.5,-247.5 292.5,-247.5 292.5,-228.5 249.5,-228.5"/>
<text text-anchor="middle" x="271" y="-235.5" font-family="Helvetica,sans-Serif" font-size="10.00">disfun</text>
</a>
</g>
</g>
<!-- Node2&#45;&gt;Node4 -->
<g id="edge3" class="edge">
<title>Node2&#45;&gt;Node4</title>
<path fill="none" stroke="midnightblue" d="M161.43,-152.6C173.17,-168.3 198.42,-199.65 226,-219 230.32,-222.03 235.19,-224.72 240.09,-227.06"/>
<polygon fill="midnightblue" stroke="midnightblue" points="238.81,-230.32 249.38,-231.12 241.61,-223.91 238.81,-230.32"/>
</g>
<!-- Node31 -->
<g id="node5" class="node">
<title>Node31</title>
<g id="a_node5"><a xlink:href="comm__mpi_8f.html#af06ec29f06aac3f8809e19de2a7e8946" target="_top" xlink:title=" ">
<polygon fill="white" stroke="red" points="240.5,-190.5 240.5,-209.5 301.5,-209.5 301.5,-190.5 240.5,-190.5"/>
<text text-anchor="middle" x="271" y="-197.5" font-family="Helvetica,sans-Serif" font-size="10.00">dnekclock</text>
</a>
</g>
</g>
<!-- Node2&#45;&gt;Node31 -->
<g id="edge4" class="edge">
<title>Node2&#45;&gt;Node31</title>
<path fill="none" stroke="midnightblue" d="M171.64,-152.61C186,-160.54 207.12,-171.93 226,-181 229.8,-182.82 233.81,-184.67 237.81,-186.46"/>
<polygon fill="midnightblue" stroke="midnightblue" points="236.44,-189.68 247,-190.49 239.25,-183.27 236.44,-189.68"/>
</g>
<!-- Node33 -->
<g id="node6" class="node">
<title>Node33</title>
<g id="a_node6"><a xlink:href="meshsmoother_8f.html#ac387c6815e901c8c74390aebec7395b8" target="_top" xlink:title=" ">
<polygon fill="white" stroke="red" points="248,-152.5 248,-171.5 294,-171.5 294,-152.5 248,-152.5"/>
<text text-anchor="middle" x="271" y="-159.5" font-family="Helvetica,sans-Serif" font-size="10.00">fastlap</text>
</a>
</g>
</g>
<!-- Node2&#45;&gt;Node33 -->
<g id="edge5" class="edge">
<title>Node2&#45;&gt;Node33</title>
<path fill="none" stroke="midnightblue" d="M190.1,-148.86C205.24,-151.35 222.79,-154.23 237.57,-156.67"/>
<polygon fill="midnightblue" stroke="midnightblue" points="237.34,-160.17 247.78,-158.34 238.48,-153.27 237.34,-160.17"/>
</g>
<!-- Node60 -->
<g id="node7" class="node">
<title>Node60</title>
<g id="a_node7"><a xlink:href="navier5_8f.html#ac7bf11bb142c7d01c82cc8b64e88bff2" target="_top" xlink:title=" ">
<polygon fill="white" stroke="red" points="243,-114.5 243,-133.5 299,-133.5 299,-114.5 243,-114.5"/>
<text text-anchor="middle" x="271" y="-121.5" font-family="Helvetica,sans-Serif" font-size="10.00">fix_geom</text>
</a>
</g>
</g>
<!-- Node2&#45;&gt;Node60 -->
<g id="edge6" class="edge">
<title>Node2&#45;&gt;Node60</title>
<path fill="none" stroke="midnightblue" d="M190.1,-137.14C203.62,-134.92 219.05,-132.38 232.72,-130.13"/>
<polygon fill="midnightblue" stroke="midnightblue" points="233.48,-133.56 242.77,-128.48 232.34,-126.65 233.48,-133.56"/>
</g>
<!-- Node65 -->
<g id="node8" class="node">
<title>Node65</title>
<g id="a_node8"><a xlink:href="ic_8f.html#aaf47b255d1cfac3451a8473ee6876b4f" target="_top" xlink:title=" ">
<polygon fill="white" stroke="red" points="352,-95.5 352,-114.5 420,-114.5 420,-95.5 352,-95.5"/>
<text text-anchor="middle" x="386" y="-102.5" font-family="Helvetica,sans-Serif" font-size="10.00">geom_reset</text>
</a>
</g>
</g>
<!-- Node2&#45;&gt;Node65 -->
<g id="edge12" class="edge">
<title>Node2&#45;&gt;Node65</title>
<path fill="none" stroke="midnightblue" d="M167.66,-133.45C181.42,-124.09 204.04,-110.47 226,-105 264.31,-95.45 309.44,-96.57 341.81,-99.42"/>
<polygon fill="midnightblue" stroke="midnightblue" points="341.56,-102.91 351.85,-100.4 342.24,-95.95 341.56,-102.91"/>
</g>
<!-- Node178 -->
<g id="node9" class="node">
<title>Node178</title>
<g id="a_node9"><a xlink:href="meshsmoother_8f.html#a562ccb36f6b8840947b686dc5f8eca22" target="_top" xlink:title=" ">
<polygon fill="white" stroke="red" points="226,-38.5 226,-57.5 316,-57.5 316,-38.5 226,-38.5"/>
<text text-anchor="middle" x="271" y="-45.5" font-family="Helvetica,sans-Serif" font-size="10.00">gen_int_lx1_to_3</text>
</a>
</g>
</g>
<!-- Node2&#45;&gt;Node178 -->
<g id="edge10" class="edge">
<title>Node2&#45;&gt;Node178</title>
<path fill="none" stroke="midnightblue" d="M162.57,-133.4C175.1,-118.89 200.47,-91.03 226,-72 230.53,-68.62 235.6,-65.41 240.64,-62.5"/>
<polygon fill="midnightblue" stroke="midnightblue" points="242.47,-65.49 249.56,-57.62 239.11,-59.35 242.47,-65.49"/>
</g>
<!-- Node185 -->
<g id="node10" class="node">
<title>Node185</title>
<g id="a_node10"><a xlink:href="meshsmoother_8f.html#ad082822d970b0e3fd8012485ae6b973d" target="_top" xlink:title=" ">
<polygon fill="white" stroke="red" points="243,-0.5 243,-19.5 299,-19.5 299,-0.5 243,-0.5"/>
<text text-anchor="middle" x="271" y="-7.5" font-family="Helvetica,sans-Serif" font-size="10.00">genmask</text>
</a>
</g>
</g>
<!-- Node2&#45;&gt;Node185 -->
<g id="edge11" class="edge">
<title>Node2&#45;&gt;Node185</title>
<path fill="none" stroke="midnightblue" d="M158.18,-133.39C166.85,-111.89 190.54,-59.43 226,-29 228.39,-26.95 231.03,-25.1 233.79,-23.42"/>
<polygon fill="midnightblue" stroke="midnightblue" points="235.67,-26.39 242.91,-18.65 232.43,-20.18 235.67,-26.39"/>
</g>
<!-- Node60&#45;&gt;Node3 -->
<g id="edge7" class="edge">
<title>Node60&#45;&gt;Node3</title>
<path fill="none" stroke="midnightblue" d="M299.24,-126.56C337.53,-130.16 406.93,-136.69 445.75,-140.34"/>
<polygon fill="midnightblue" stroke="midnightblue" points="445.56,-143.84 455.84,-141.29 446.21,-136.87 445.56,-143.84"/>
</g>
<!-- Node60&#45;&gt;Node65 -->
<g id="edge8" class="edge">
<title>Node60&#45;&gt;Node65</title>
<path fill="none" stroke="midnightblue" d="M299.07,-119.45C311.78,-117.31 327.26,-114.71 341.55,-112.31"/>
<polygon fill="midnightblue" stroke="midnightblue" points="342.41,-115.71 351.69,-110.6 341.25,-108.81 342.41,-115.71"/>
</g>
<!-- Node65&#45;&gt;Node3 -->
<g id="edge9" class="edge">
<title>Node65&#45;&gt;Node3</title>
<path fill="none" stroke="midnightblue" d="M408.95,-114.59C420.39,-119.59 434.49,-125.74 446.64,-131.05"/>
<polygon fill="midnightblue" stroke="midnightblue" points="445.3,-134.28 455.87,-135.08 448.1,-127.87 445.3,-134.28"/>
</g>
</g>
</svg>
