<?xml version="1.0" encoding="UTF-8" standalone="no"?>
<!DOCTYPE svg PUBLIC "-//W3C//DTD SVG 1.1//EN"
 "http://www.w3.org/Graphics/SVG/1.1/DTD/svg11.dtd">
<!-- Generated by graphviz version 2.46.0 (0)
 -->
<!-- Title: int_fine_to_coarse_3d Pages: 1 -->
<svg width="570pt" height="66pt"
 viewBox="0.00 0.00 570.00 66.00" xmlns="http://www.w3.org/2000/svg" xmlns:xlink="http://www.w3.org/1999/xlink">
<g id="graph0" class="graph" transform="scale(1 1) rotate(0) translate(4 62)">
<title>int_fine_to_coarse_3d</title>
<polygon fill="white" stroke="transparent" points="-4,4 -4,-62 566,-62 566,4 -4,4"/>
<!-- Node1 -->
<g id="node1" class="node">
<title>Node1</title>
<g id="a_node1"><a xlink:title=" ">
<polygon fill="#bfbfbf" stroke="black" points="450,-19.5 450,-38.5 562,-38.5 562,-19.5 450,-19.5"/>
<text text-anchor="middle" x="506" y="-26.5" font-family="Helvetica,sans-Serif" font-size="10.00">int_fine_to_coarse_3d</text>
</a>
</g>
</g>
<!-- Node2 -->
<g id="node2" class="node">
<title>Node2</title>
<g id="a_node2"><a xlink:href="meshsmoother_8f.html#a5b748148b82033f97b563a7f71daf707" target="_top" xlink:title=" ">
<polygon fill="white" stroke="black" points="249.5,-38.5 249.5,-57.5 292.5,-57.5 292.5,-38.5 249.5,-38.5"/>
<text text-anchor="middle" x="271" y="-45.5" font-family="Helvetica,sans-Serif" font-size="10.00">disfun</text>
</a>
</g>
</g>
<!-- Node1&#45;&gt;Node2 -->
<g id="edge1" class="edge">
<title>Node1&#45;&gt;Node2</title>
<path fill="none" stroke="midnightblue" d="M439.77,-34.32C390.2,-38.36 325.16,-43.67 292.54,-46.33"/>
<polygon fill="midnightblue" stroke="midnightblue" points="440.1,-37.8 449.78,-33.5 439.53,-30.83 440.1,-37.8"/>
</g>
<!-- Node5 -->
<g id="node5" class="node">
<title>Node5</title>
<g id="a_node5"><a xlink:href="meshsmoother_8f.html#ae29221483c794344c304f6d213e9bc23" target="_top" xlink:title=" ">
<polygon fill="white" stroke="black" points="352,-0.5 352,-19.5 414,-19.5 414,-0.5 352,-0.5"/>
<text text-anchor="middle" x="383" y="-7.5" font-family="Helvetica,sans-Serif" font-size="10.00">xm1toxmc</text>
</a>
</g>
</g>
<!-- Node1&#45;&gt;Node5 -->
<g id="edge4" class="edge">
<title>Node1&#45;&gt;Node5</title>
<path fill="none" stroke="midnightblue" d="M439.77,-18.76C430.88,-17.36 422.14,-15.99 414.3,-14.76"/>
<polygon fill="midnightblue" stroke="midnightblue" points="439.39,-22.24 449.81,-20.33 440.48,-15.33 439.39,-22.24"/>
</g>
<!-- Node3 -->
<g id="node3" class="node">
<title>Node3</title>
<g id="a_node3"><a xlink:href="meshsmoother_8f.html#a381ecddf77fc5669d3a8e246b65d1960" target="_top" xlink:title=" ">
<polygon fill="white" stroke="black" points="117,-19.5 117,-38.5 190,-38.5 190,-19.5 117,-19.5"/>
<text text-anchor="middle" x="153.5" y="-26.5" font-family="Helvetica,sans-Serif" font-size="10.00">smoothmesh</text>
</a>
</g>
</g>
<!-- Node2&#45;&gt;Node3 -->
<g id="edge2" class="edge">
<title>Node2&#45;&gt;Node3</title>
<path fill="none" stroke="midnightblue" d="M239.06,-42.91C224.07,-40.44 205.98,-37.47 190.39,-34.9"/>
<polygon fill="midnightblue" stroke="midnightblue" points="238.92,-46.43 249.35,-44.6 240.05,-39.53 238.92,-46.43"/>
</g>
<!-- Node4 -->
<g id="node4" class="node">
<title>Node4</title>
<g id="a_node4"><a xlink:href="meshsmoother_8f.html#a2362d6f321c0da65f64a0702ecf98b10" target="_top" xlink:title=" ">
<polygon fill="white" stroke="black" points="0,-19.5 0,-38.5 81,-38.5 81,-19.5 0,-19.5"/>
<text text-anchor="middle" x="40.5" y="-26.5" font-family="Helvetica,sans-Serif" font-size="10.00">meshsmoother</text>
</a>
</g>
</g>
<!-- Node3&#45;&gt;Node4 -->
<g id="edge3" class="edge">
<title>Node3&#45;&gt;Node4</title>
<path fill="none" stroke="midnightblue" d="M106.61,-29C98.11,-29 89.3,-29 81.01,-29"/>
<polygon fill="midnightblue" stroke="midnightblue" points="106.77,-32.5 116.77,-29 106.77,-25.5 106.77,-32.5"/>
</g>
<!-- Node6 -->
<g id="node6" class="node">
<title>Node6</title>
<g id="a_node6"><a xlink:href="meshsmoother_8f.html#a562ccb36f6b8840947b686dc5f8eca22" target="_top" xlink:title=" ">
<polygon fill="white" stroke="black" points="226,-0.5 226,-19.5 316,-19.5 316,-0.5 226,-0.5"/>
<text text-anchor="middle" x="271" y="-7.5" font-family="Helvetica,sans-Serif" font-size="10.00">gen_int_lx1_to_3</text>
</a>
</g>
</g>
<!-- Node5&#45;&gt;Node6 -->
<g id="edge5" class="edge">
<title>Node5&#45;&gt;Node6</title>
<path fill="none" stroke="midnightblue" d="M341.7,-10C333.35,-10 324.52,-10 316.05,-10"/>
<polygon fill="midnightblue" stroke="midnightblue" points="341.94,-13.5 351.94,-10 341.94,-6.5 341.94,-13.5"/>
</g>
<!-- Node6&#45;&gt;Node3 -->
<g id="edge6" class="edge">
<title>Node6&#45;&gt;Node3</title>
<path fill="none" stroke="midnightblue" d="M215.66,-18.94C207.05,-20.36 198.34,-21.79 190.29,-23.11"/>
<polygon fill="midnightblue" stroke="midnightblue" points="216.38,-22.37 225.68,-17.29 215.24,-15.46 216.38,-22.37"/>
</g>
</g>
</svg>
