<?xml version="1.0" encoding="UTF-8" standalone="no"?>
<!DOCTYPE svg PUBLIC "-//W3C//DTD SVG 1.1//EN"
 "http://www.w3.org/Graphics/SVG/1.1/DTD/svg11.dtd">
<!-- Generated by graphviz version 2.46.0 (0)
 -->
<!-- Title: glmapm1chkinv Pages: 1 -->
<svg width="495pt" height="104pt"
 viewBox="0.00 0.00 495.00 104.00" xmlns="http://www.w3.org/2000/svg" xmlns:xlink="http://www.w3.org/1999/xlink">
<g id="graph0" class="graph" transform="scale(1 1) rotate(0) translate(4 100)">
<title>glmapm1chkinv</title>
<polygon fill="white" stroke="transparent" points="-4,4 -4,-100 491,-100 491,4 -4,4"/>
<!-- Node1 -->
<g id="node1" class="node">
<title>Node1</title>
<g id="a_node1"><a xlink:title=" ">
<polygon fill="#bfbfbf" stroke="black" points="402,-38.5 402,-57.5 487,-57.5 487,-38.5 402,-38.5"/>
<text text-anchor="middle" x="444.5" y="-45.5" font-family="Helvetica,sans-Serif" font-size="10.00">glmapm1chkinv</text>
</a>
</g>
</g>
<!-- Node2 -->
<g id="node2" class="node">
<title>Node2</title>
<g id="a_node2"><a xlink:href="meshsmoother_8f.html#ac430b79a7376d40ab4466ee86fbed223" target="_top" xlink:title=" ">
<polygon fill="white" stroke="black" points="308,-76.5 308,-95.5 366,-95.5 366,-76.5 308,-76.5"/>
<text text-anchor="middle" x="337" y="-83.5" font-family="Helvetica,sans-Serif" font-size="10.00">dolsalpha</text>
</a>
</g>
</g>
<!-- Node1&#45;&gt;Node2 -->
<g id="edge1" class="edge">
<title>Node1&#45;&gt;Node2</title>
<path fill="none" stroke="midnightblue" d="M407.08,-61.12C393.13,-66.14 377.48,-71.78 364.61,-76.41"/>
<polygon fill="midnightblue" stroke="midnightblue" points="408.66,-64.27 416.88,-57.59 406.28,-57.68 408.66,-64.27"/>
</g>
<!-- Node3 -->
<g id="node3" class="node">
<title>Node3</title>
<g id="a_node3"><a xlink:href="meshsmoother_8f.html#aad9a124690a3cf5b34ac933e6399f2e0" target="_top" xlink:title=" ">
<polygon fill="white" stroke="black" points="228.5,-38.5 228.5,-57.5 269.5,-57.5 269.5,-38.5 228.5,-38.5"/>
<text text-anchor="middle" x="249" y="-45.5" font-family="Helvetica,sans-Serif" font-size="10.00">optcg</text>
</a>
</g>
</g>
<!-- Node1&#45;&gt;Node3 -->
<g id="edge7" class="edge">
<title>Node1&#45;&gt;Node3</title>
<path fill="none" stroke="midnightblue" d="M391.82,-48C351.6,-48 298.01,-48 269.61,-48"/>
<polygon fill="midnightblue" stroke="midnightblue" points="391.99,-51.5 401.99,-48 391.99,-44.5 391.99,-51.5"/>
</g>
<!-- Node6 -->
<g id="node6" class="node">
<title>Node6</title>
<g id="a_node6"><a xlink:href="meshsmoother_8f.html#ac387c6815e901c8c74390aebec7395b8" target="_top" xlink:title=" ">
<polygon fill="white" stroke="black" points="226,-0.5 226,-19.5 272,-19.5 272,-0.5 226,-0.5"/>
<text text-anchor="middle" x="249" y="-7.5" font-family="Helvetica,sans-Serif" font-size="10.00">fastlap</text>
</a>
</g>
</g>
<!-- Node1&#45;&gt;Node6 -->
<g id="edge5" class="edge">
<title>Node1&#45;&gt;Node6</title>
<path fill="none" stroke="midnightblue" d="M391.85,-37.86C352.82,-30.19 301.18,-20.05 272.19,-14.36"/>
<polygon fill="midnightblue" stroke="midnightblue" points="391.5,-41.36 401.99,-39.85 392.85,-34.49 391.5,-41.36"/>
</g>
<!-- Node2&#45;&gt;Node3 -->
<g id="edge2" class="edge">
<title>Node2&#45;&gt;Node3</title>
<path fill="none" stroke="midnightblue" d="M304.81,-72.22C293.07,-67.03 280.04,-61.27 269.64,-56.68"/>
<polygon fill="midnightblue" stroke="midnightblue" points="303.74,-75.57 314.3,-76.41 306.57,-69.17 303.74,-75.57"/>
</g>
<!-- Node4 -->
<g id="node4" class="node">
<title>Node4</title>
<g id="a_node4"><a xlink:href="meshsmoother_8f.html#a381ecddf77fc5669d3a8e246b65d1960" target="_top" xlink:title=" ">
<polygon fill="white" stroke="black" points="117,-19.5 117,-38.5 190,-38.5 190,-19.5 117,-19.5"/>
<text text-anchor="middle" x="153.5" y="-26.5" font-family="Helvetica,sans-Serif" font-size="10.00">smoothmesh</text>
</a>
</g>
</g>
<!-- Node3&#45;&gt;Node4 -->
<g id="edge3" class="edge">
<title>Node3&#45;&gt;Node4</title>
<path fill="none" stroke="midnightblue" d="M218.23,-41.95C209.3,-40.14 199.42,-38.13 190.16,-36.25"/>
<polygon fill="midnightblue" stroke="midnightblue" points="217.67,-45.41 228.17,-43.97 219.07,-38.55 217.67,-45.41"/>
</g>
<!-- Node5 -->
<g id="node5" class="node">
<title>Node5</title>
<g id="a_node5"><a xlink:href="meshsmoother_8f.html#a2362d6f321c0da65f64a0702ecf98b10" target="_top" xlink:title=" ">
<polygon fill="white" stroke="black" points="0,-19.5 0,-38.5 81,-38.5 81,-19.5 0,-19.5"/>
<text text-anchor="middle" x="40.5" y="-26.5" font-family="Helvetica,sans-Serif" font-size="10.00">meshsmoother</text>
</a>
</g>
</g>
<!-- Node4&#45;&gt;Node5 -->
<g id="edge4" class="edge">
<title>Node4&#45;&gt;Node5</title>
<path fill="none" stroke="midnightblue" d="M106.61,-29C98.11,-29 89.3,-29 81.01,-29"/>
<polygon fill="midnightblue" stroke="midnightblue" points="106.77,-32.5 116.77,-29 106.77,-25.5 106.77,-32.5"/>
</g>
<!-- Node6&#45;&gt;Node4 -->
<g id="edge6" class="edge">
<title>Node6&#45;&gt;Node4</title>
<path fill="none" stroke="midnightblue" d="M215.77,-16.55C207.47,-18.24 198.48,-20.06 190.02,-21.78"/>
<polygon fill="midnightblue" stroke="midnightblue" points="216.74,-19.92 225.84,-14.5 215.35,-13.06 216.74,-19.92"/>
</g>
</g>
</svg>
