<?xml version="1.0" encoding="UTF-8" standalone="no"?>
<!DOCTYPE svg PUBLIC "-//W3C//DTD SVG 1.1//EN"
 "http://www.w3.org/Graphics/SVG/1.1/DTD/svg11.dtd">
<!-- Generated by graphviz version 2.46.0 (0)
 -->
<!-- Title: int_coarse_to_fine_3d Pages: 1 -->
<svg width="553pt" height="47pt"
 viewBox="0.00 0.00 553.00 47.00" xmlns="http://www.w3.org/2000/svg" xmlns:xlink="http://www.w3.org/1999/xlink">
<g id="graph0" class="graph" transform="scale(1 1) rotate(0) translate(4 43)">
<title>int_coarse_to_fine_3d</title>
<polygon fill="white" stroke="transparent" points="-4,4 -4,-43 549,-43 549,4 -4,4"/>
<!-- Node1 -->
<g id="node1" class="node">
<title>Node1</title>
<g id="a_node1"><a xlink:title=" ">
<polygon fill="#bfbfbf" stroke="black" points="433,-0.5 433,-19.5 545,-19.5 545,-0.5 433,-0.5"/>
<text text-anchor="middle" x="489" y="-7.5" font-family="Helvetica,sans-Serif" font-size="10.00">int_coarse_to_fine_3d</text>
</a>
</g>
</g>
<!-- Node2 -->
<g id="node2" class="node">
<title>Node2</title>
<g id="a_node2"><a xlink:href="meshsmoother_8f.html#a91ae54dbd00c38653b2a5f27da6a33f7" target="_top" xlink:title=" ">
<polygon fill="white" stroke="black" points="335,-0.5 335,-19.5 397,-19.5 397,-0.5 335,-0.5"/>
<text text-anchor="middle" x="366" y="-7.5" font-family="Helvetica,sans-Serif" font-size="10.00">xmctoxm1</text>
</a>
</g>
</g>
<!-- Node1&#45;&gt;Node2 -->
<g id="edge1" class="edge">
<title>Node1&#45;&gt;Node2</title>
<path fill="none" stroke="midnightblue" d="M422.77,-10C413.88,-10 405.14,-10 397.3,-10"/>
<polygon fill="midnightblue" stroke="midnightblue" points="422.81,-13.5 432.81,-10 422.81,-6.5 422.81,-13.5"/>
</g>
<!-- Node3 -->
<g id="node3" class="node">
<title>Node3</title>
<g id="a_node3"><a xlink:href="meshsmoother_8f.html#a9d91471816f5f087718775391e8d2311" target="_top" xlink:title=" ">
<polygon fill="white" stroke="black" points="226,-19.5 226,-38.5 299,-38.5 299,-19.5 226,-19.5"/>
<text text-anchor="middle" x="262.5" y="-26.5" font-family="Helvetica,sans-Serif" font-size="10.00">restbndrlayer</text>
</a>
</g>
</g>
<!-- Node2&#45;&gt;Node3 -->
<g id="edge2" class="edge">
<title>Node2&#45;&gt;Node3</title>
<path fill="none" stroke="midnightblue" d="M324.75,-17.53C316.28,-19.12 307.4,-20.78 299.11,-22.33"/>
<polygon fill="midnightblue" stroke="midnightblue" points="325.64,-20.93 334.82,-15.65 324.35,-14.05 325.64,-20.93"/>
</g>
<!-- Node4 -->
<g id="node4" class="node">
<title>Node4</title>
<g id="a_node4"><a xlink:href="meshsmoother_8f.html#a381ecddf77fc5669d3a8e246b65d1960" target="_top" xlink:title=" ">
<polygon fill="white" stroke="black" points="117,-0.5 117,-19.5 190,-19.5 190,-0.5 117,-0.5"/>
<text text-anchor="middle" x="153.5" y="-7.5" font-family="Helvetica,sans-Serif" font-size="10.00">smoothmesh</text>
</a>
</g>
</g>
<!-- Node2&#45;&gt;Node4 -->
<g id="edge5" class="edge">
<title>Node2&#45;&gt;Node4</title>
<path fill="none" stroke="midnightblue" d="M324.42,-10C285.53,-10 227.42,-10 190.24,-10"/>
<polygon fill="midnightblue" stroke="midnightblue" points="324.84,-13.5 334.84,-10 324.84,-6.5 324.84,-13.5"/>
</g>
<!-- Node3&#45;&gt;Node4 -->
<g id="edge3" class="edge">
<title>Node3&#45;&gt;Node4</title>
<path fill="none" stroke="midnightblue" d="M215.99,-20.92C207.42,-19.4 198.56,-17.82 190.34,-16.36"/>
<polygon fill="midnightblue" stroke="midnightblue" points="215.41,-24.37 225.87,-22.67 216.64,-17.48 215.41,-24.37"/>
</g>
<!-- Node5 -->
<g id="node5" class="node">
<title>Node5</title>
<g id="a_node5"><a xlink:href="meshsmoother_8f.html#a2362d6f321c0da65f64a0702ecf98b10" target="_top" xlink:title=" ">
<polygon fill="white" stroke="black" points="0,-0.5 0,-19.5 81,-19.5 81,-0.5 0,-0.5"/>
<text text-anchor="middle" x="40.5" y="-7.5" font-family="Helvetica,sans-Serif" font-size="10.00">meshsmoother</text>
</a>
</g>
</g>
<!-- Node4&#45;&gt;Node5 -->
<g id="edge4" class="edge">
<title>Node4&#45;&gt;Node5</title>
<path fill="none" stroke="midnightblue" d="M106.61,-10C98.11,-10 89.3,-10 81.01,-10"/>
<polygon fill="midnightblue" stroke="midnightblue" points="106.77,-13.5 116.77,-10 106.77,-6.5 106.77,-13.5"/>
</g>
</g>
</svg>
