<?xml version="1.0" encoding="UTF-8" standalone="no"?>
<!DOCTYPE svg PUBLIC "-//W3C//DTD SVG 1.1//EN"
 "http://www.w3.org/Graphics/SVG/1.1/DTD/svg11.dtd">
<!-- Generated by graphviz version 2.46.0 (0)
 -->
<!-- Title: int_fine_to_coarse_2d Pages: 1 -->
<!--zoomable 94 -->
<svg id="main" version="1.1" xmlns="http://www.w3.org/2000/svg" xmlns:xlink="http://www.w3.org/1999/xlink" xml:space="preserve" onload="init(evt)">
<style type="text/css"><![CDATA[
.edge:hover path { stroke: red; }
.edge:hover polygon { stroke: red; fill: red; }
]]></style>
<script type="text/javascript"><![CDATA[
var edges = document.getElementsByTagName('g');
if (edges && edges.length) {
  for (var i=0;i<edges.length;i++) {
    if (edges[i].id.substr(0,4)=='edge') {
      edges[i].setAttribute('class','edge');
    }
  }
}
]]></script>
        <defs>
                <circle id="rim" cx="0" cy="0" r="7"/>
                <circle id="rim2" cx="0" cy="0" r="3.5"/>
                <g id="zoomPlus">
                        <use xlink:href="#rim" fill="#404040">
                                <set attributeName="fill" to="#808080" begin="zoomplus.mouseover" end="zoomplus.mouseout"/>
                        </use>
                        <path d="M-4,0h8M0,-4v8" fill="none" stroke="white" stroke-width="1.5" pointer-events="none"/>
                </g>
                <g id="zoomMin">
                        <use xlink:href="#rim" fill="#404040">
                                <set attributeName="fill" to="#808080" begin="zoomminus.mouseover" end="zoomminus.mouseout"/>
                        </use>
                        <path d="M-4,0h8" fill="none" stroke="white" stroke-width="1.5" pointer-events="none"/>
                </g>
                <g id="dirArrow">
                        <path fill="none" stroke="white" stroke-width="1.5" d="M0,-3.0v7 M-2.5,-0.5L0,-3.0L2.5,-0.5"/>
                </g>
               <g id="resetDef">
                       <use xlink:href="#rim2" fill="#404040">
                               <set attributeName="fill" to="#808080" begin="reset.mouseover" end="reset.mouseout"/>
                       </use>
               </g>
        </defs>

<script type="text/javascript">
var viewWidth = 575;
var viewHeight = 94;
var sectionId = 'dynsection-35';
</script>
<script xlink:href="svgpan.js"/>
<svg id="graph" class="graph">
<g id="viewport">
<title>int_fine_to_coarse_2d</title>
<polygon fill="white" stroke="transparent" points="-4,4 -4,-90 571,-90 571,4 -4,4"/>
<!-- Node1 -->
<g id="node1" class="node">
<title>Node1</title>
<g id="a_node1"><a xlink:title=" ">
<polygon fill="#bfbfbf" stroke="black" points="455,-38.5 455,-57.5 567,-57.5 567,-38.5 455,-38.5"/>
<text text-anchor="middle" x="511" y="-45.5" font-family="Helvetica,sans-Serif" font-size="10.00">int_fine_to_coarse_2d</text>
</a>
</g>
</g>
<!-- Node2 -->
<g id="node2" class="node">
<title>Node2</title>
<g id="a_node2"><a xlink:href="meshsmoother_8f.html#a5b748148b82033f97b563a7f71daf707" target="_top" xlink:title=" ">
<polygon fill="white" stroke="black" points="249.5,-66.5 249.5,-85.5 292.5,-85.5 292.5,-66.5 249.5,-66.5"/>
<text text-anchor="middle" x="271" y="-73.5" font-family="Helvetica,sans-Serif" font-size="10.00">disfun</text>
</a>
</g>
</g>
<!-- Node1&#45;&gt;Node2 -->
<g id="edge1" class="edge">
<title>Node1&#45;&gt;Node2</title>
<path fill="none" stroke="midnightblue" d="M460.38,-59.72C447.01,-62.5 432.51,-65.19 419,-67 374.15,-73.02 321.04,-75.02 292.54,-75.68"/>
<polygon fill="midnightblue" stroke="midnightblue" points="461.3,-63.1 470.35,-57.58 459.84,-56.25 461.3,-63.1"/>
</g>
<!-- Node5 -->
<g id="node5" class="node">
<title>Node5</title>
<g id="a_node5"><a xlink:href="meshsmoother_8f.html#a91e45b9d06a0083a4a55ba5451d2910b" target="_top" xlink:title=" ">
<polygon fill="white" stroke="black" points="352,-38.5 352,-57.5 419,-57.5 419,-38.5 352,-38.5"/>
<text text-anchor="middle" x="385.5" y="-45.5" font-family="Helvetica,sans-Serif" font-size="10.00">masklayers</text>
</a>
</g>
</g>
<!-- Node1&#45;&gt;Node5 -->
<g id="edge4" class="edge">
<title>Node1&#45;&gt;Node5</title>
<path fill="none" stroke="midnightblue" d="M444.7,-48C435.81,-48 427.01,-48 419.05,-48"/>
<polygon fill="midnightblue" stroke="midnightblue" points="444.75,-51.5 454.75,-48 444.75,-44.5 444.75,-51.5"/>
</g>
<!-- Node6 -->
<g id="node6" class="node">
<title>Node6</title>
<g id="a_node6"><a xlink:href="meshsmoother_8f.html#ae29221483c794344c304f6d213e9bc23" target="_top" xlink:title=" ">
<polygon fill="white" stroke="black" points="354.5,-0.5 354.5,-19.5 416.5,-19.5 416.5,-0.5 354.5,-0.5"/>
<text text-anchor="middle" x="385.5" y="-7.5" font-family="Helvetica,sans-Serif" font-size="10.00">xm1toxmc</text>
</a>
</g>
</g>
<!-- Node1&#45;&gt;Node6 -->
<g id="edge5" class="edge">
<title>Node1&#45;&gt;Node6</title>
<path fill="none" stroke="midnightblue" d="M469.11,-35.42C452.04,-30.17 432.56,-24.17 416.8,-19.32"/>
<polygon fill="midnightblue" stroke="midnightblue" points="468.25,-38.82 478.84,-38.41 470.31,-32.12 468.25,-38.82"/>
</g>
<!-- Node3 -->
<g id="node3" class="node">
<title>Node3</title>
<g id="a_node3"><a xlink:href="meshsmoother_8f.html#a381ecddf77fc5669d3a8e246b65d1960" target="_top" xlink:title=" ">
<polygon fill="white" stroke="black" points="117,-38.5 117,-57.5 190,-57.5 190,-38.5 117,-38.5"/>
<text text-anchor="middle" x="153.5" y="-45.5" font-family="Helvetica,sans-Serif" font-size="10.00">smoothmesh</text>
</a>
</g>
</g>
<!-- Node2&#45;&gt;Node3 -->
<g id="edge2" class="edge">
<title>Node2&#45;&gt;Node3</title>
<path fill="none" stroke="midnightblue" d="M239.5,-68.61C224.42,-64.95 206.13,-60.52 190.39,-56.7"/>
<polygon fill="midnightblue" stroke="midnightblue" points="238.81,-72.04 249.35,-70.99 240.46,-65.24 238.81,-72.04"/>
</g>
<!-- Node4 -->
<g id="node4" class="node">
<title>Node4</title>
<g id="a_node4"><a xlink:href="meshsmoother_8f.html#a2362d6f321c0da65f64a0702ecf98b10" target="_top" xlink:title=" ">
<polygon fill="white" stroke="black" points="0,-38.5 0,-57.5 81,-57.5 81,-38.5 0,-38.5"/>
<text text-anchor="middle" x="40.5" y="-45.5" font-family="Helvetica,sans-Serif" font-size="10.00">meshsmoother</text>
</a>
</g>
</g>
<!-- Node3&#45;&gt;Node4 -->
<g id="edge3" class="edge">
<title>Node3&#45;&gt;Node4</title>
<path fill="none" stroke="midnightblue" d="M106.61,-48C98.11,-48 89.3,-48 81.01,-48"/>
<polygon fill="midnightblue" stroke="midnightblue" points="106.77,-51.5 116.77,-48 106.77,-44.5 106.77,-51.5"/>
</g>
<!-- Node7 -->
<g id="node7" class="node">
<title>Node7</title>
<g id="a_node7"><a xlink:href="meshsmoother_8f.html#a562ccb36f6b8840947b686dc5f8eca22" target="_top" xlink:title=" ">
<polygon fill="white" stroke="black" points="226,-19.5 226,-38.5 316,-38.5 316,-19.5 226,-19.5"/>
<text text-anchor="middle" x="271" y="-26.5" font-family="Helvetica,sans-Serif" font-size="10.00">gen_int_lx1_to_3</text>
</a>
</g>
</g>
<!-- Node6&#45;&gt;Node7 -->
<g id="edge6" class="edge">
<title>Node6&#45;&gt;Node7</title>
<path fill="none" stroke="midnightblue" d="M344.36,-16.78C335.23,-18.32 325.48,-19.97 316.2,-21.54"/>
<polygon fill="midnightblue" stroke="midnightblue" points="345.07,-20.21 354.35,-15.09 343.91,-13.31 345.07,-20.21"/>
</g>
<!-- Node7&#45;&gt;Node3 -->
<g id="edge7" class="edge">
<title>Node7&#45;&gt;Node3</title>
<path fill="none" stroke="midnightblue" d="M215.66,-37.94C207.05,-39.36 198.34,-40.79 190.29,-42.11"/>
<polygon fill="midnightblue" stroke="midnightblue" points="216.38,-41.37 225.68,-36.29 215.24,-34.46 216.38,-41.37"/>
</g>
</g>
</svg>
        <g id="navigator" transform="translate(0 0)" fill="#404254">
                <rect fill="#f2f5e9" fill-opacity="0.5" stroke="#606060" stroke-width=".5" x="0" y="0" width="60" height="60"/>
                <use id="zoomplus" xlink:href="#zoomPlus" x="17" y="9" onmousedown="handleZoom(evt,'in')"/>
                <use id="zoomminus" xlink:href="#zoomMin" x="42" y="9" onmousedown="handleZoom(evt,'out')"/>
                <use id="reset" xlink:href="#resetDef" x="30" y="36" onmousedown="handleReset()"/>
                <g id="arrowUp" xlink:href="#dirArrow" transform="translate(30 24)" onmousedown="handlePan(0,-1)">
                  <use xlink:href="#rim" fill="#404040">
                        <set attributeName="fill" to="#808080" begin="arrowUp.mouseover" end="arrowUp.mouseout"/>
                  </use>
                  <path fill="none" stroke="white" stroke-width="1.5" d="M0,-3.0v7 M-2.5,-0.5L0,-3.0L2.5,-0.5"/>
                </g>
                <g id="arrowRight" xlink:href="#dirArrow" transform="rotate(90) translate(36 -43)" onmousedown="handlePan(1,0)">
                  <use xlink:href="#rim" fill="#404040">
                        <set attributeName="fill" to="#808080" begin="arrowRight.mouseover" end="arrowRight.mouseout"/>
                  </use>
                  <path fill="none" stroke="white" stroke-width="1.5" d="M0,-3.0v7 M-2.5,-0.5L0,-3.0L2.5,-0.5"/>
                </g>
                <g id="arrowDown" xlink:href="#dirArrow" transform="rotate(180) translate(-30 -48)" onmousedown="handlePan(0,1)">
                  <use xlink:href="#rim" fill="#404040">
                        <set attributeName="fill" to="#808080" begin="arrowDown.mouseover" end="arrowDown.mouseout"/>
                  </use>
                  <path fill="none" stroke="white" stroke-width="1.5" d="M0,-3.0v7 M-2.5,-0.5L0,-3.0L2.5,-0.5"/>
                </g>
                <g id="arrowLeft" xlink:href="#dirArrow" transform="rotate(270) translate(-36 17)" onmousedown="handlePan(-1,0)">
                  <use xlink:href="#rim" fill="#404040">
                        <set attributeName="fill" to="#808080" begin="arrowLeft.mouseover" end="arrowLeft.mouseout"/>
                  </use>
                  <path fill="none" stroke="white" stroke-width="1.5" d="M0,-3.0v7 M-2.5,-0.5L0,-3.0L2.5,-0.5"/>
                </g>
        </g>
        <svg viewBox="0 0 15 15" width="100%" height="30px" preserveAspectRatio="xMaxYMin meet">
         <g id="arrow_out" transform="scale(0.3 0.3)">
          <a xlink:href="meshsmoother_8f_aacad4c52dfd8706a216e7863b661b309_icgraph_org.svg" target="_base">
           <rect id="button" ry="5" rx="5" y="6" x="6" height="38" width="38"
                fill="#f2f5e9" fill-opacity="0.5" stroke="#606060" stroke-width="1.0"/>
           <path id="arrow"
             d="M 11.500037,31.436501 C 11.940474,20.09759 22.043105,11.32322 32.158766,21.979434 L 37.068811,17.246167 C 37.068811,17.246167 37.088388,32 37.088388,32 L 22.160133,31.978069 C 22.160133,31.978069 26.997745,27.140456 26.997745,27.140456 C 18.528582,18.264221 13.291696,25.230495 11.500037,31.436501 z"
             style="fill:#404040;"/>
          </a>
         </g>
        </svg>
</svg>
