<?xml version="1.0" encoding="UTF-8" standalone="no"?>
<!DOCTYPE svg PUBLIC "-//W3C//DTD SVG 1.1//EN"
 "http://www.w3.org/Graphics/SVG/1.1/DTD/svg11.dtd">
<!-- Generated by graphviz version 2.46.0 (0)
 -->
<!-- Title: disfun Pages: 1 -->
<svg width="275pt" height="294pt"
 viewBox="0.00 0.00 275.00 294.00" xmlns="http://www.w3.org/2000/svg" xmlns:xlink="http://www.w3.org/1999/xlink">
<g id="graph0" class="graph" transform="scale(1 1) rotate(0) translate(4 290)">
<title>disfun</title>
<polygon fill="white" stroke="transparent" points="-4,4 -4,-290 271,-290 271,4 -4,4"/>
<!-- Node1 -->
<g id="node1" class="node">
<title>Node1</title>
<g id="a_node1"><a xlink:title=" ">
<polygon fill="#bfbfbf" stroke="black" points="0,-133.5 0,-152.5 43,-152.5 43,-133.5 0,-133.5"/>
<text text-anchor="middle" x="21.5" y="-140.5" font-family="Helvetica,sans-Serif" font-size="10.00">disfun</text>
</a>
</g>
</g>
<!-- Node2 -->
<g id="node2" class="node">
<title>Node2</title>
<g id="a_node2"><a xlink:href="math_8f.html#ad2b51b68d370651f4f6d81952503e7be" target="_top" xlink:title=" ">
<polygon fill="white" stroke="black" points="114.5,-266.5 114.5,-285.5 155.5,-285.5 155.5,-266.5 114.5,-266.5"/>
<text text-anchor="middle" x="135" y="-273.5" font-family="Helvetica,sans-Serif" font-size="10.00">cmult</text>
</a>
</g>
</g>
<!-- Node1&#45;&gt;Node2 -->
<g id="edge1" class="edge">
<title>Node1&#45;&gt;Node2</title>
<path fill="none" stroke="midnightblue" d="M24.67,-152.79C30.01,-174.65 45.83,-227.82 79,-257 86.16,-263.3 95.53,-267.54 104.49,-270.38"/>
<polygon fill="midnightblue" stroke="midnightblue" points="103.74,-273.8 114.31,-273.03 105.57,-267.05 103.74,-273.8"/>
</g>
<!-- Node3 -->
<g id="node3" class="node">
<title>Node3</title>
<g id="a_node3"><a xlink:href="comm__mpi_8f.html#a59fcf8a02fe54ab37f61050e3ca6b197" target="_top" xlink:title=" ">
<polygon fill="white" stroke="red" points="116,-228.5 116,-247.5 154,-247.5 154,-228.5 116,-228.5"/>
<text text-anchor="middle" x="135" y="-235.5" font-family="Helvetica,sans-Serif" font-size="10.00">exitti</text>
</a>
</g>
</g>
<!-- Node1&#45;&gt;Node3 -->
<g id="edge2" class="edge">
<title>Node1&#45;&gt;Node3</title>
<path fill="none" stroke="midnightblue" d="M27.19,-152.63C35.48,-168.66 54.19,-200.84 79,-219 86.94,-224.81 96.79,-228.95 105.96,-231.85"/>
<polygon fill="midnightblue" stroke="midnightblue" points="105.3,-235.3 115.87,-234.62 107.18,-228.56 105.3,-235.3"/>
</g>
<!-- Node10 -->
<g id="node5" class="node">
<title>Node10</title>
<g id="a_node5"><a xlink:href="math_8f.html#ad52d460588be4ef01891806b14c0ecda" target="_top" xlink:title=" ">
<polygon fill="white" stroke="red" points="111,-190.5 111,-209.5 159,-209.5 159,-190.5 111,-190.5"/>
<text text-anchor="middle" x="135" y="-197.5" font-family="Helvetica,sans-Serif" font-size="10.00">glamax</text>
</a>
</g>
</g>
<!-- Node1&#45;&gt;Node10 -->
<g id="edge4" class="edge">
<title>Node1&#45;&gt;Node10</title>
<path fill="none" stroke="midnightblue" d="M34.94,-152.75C46.02,-161.09 62.92,-172.99 79,-181 86.04,-184.51 93.89,-187.64 101.4,-190.3"/>
<polygon fill="midnightblue" stroke="midnightblue" points="100.39,-193.65 110.98,-193.52 102.62,-187.02 100.39,-193.65"/>
</g>
<!-- Node13 -->
<g id="node6" class="node">
<title>Node13</title>
<g id="a_node6"><a xlink:href="meshsmoother_8f.html#aacad4c52dfd8706a216e7863b661b309" target="_top" xlink:title=" ">
<polygon fill="white" stroke="red" points="79,-152.5 79,-171.5 191,-171.5 191,-152.5 79,-152.5"/>
<text text-anchor="middle" x="135" y="-159.5" font-family="Helvetica,sans-Serif" font-size="10.00">int_fine_to_coarse_2d</text>
</a>
</g>
</g>
<!-- Node1&#45;&gt;Node13 -->
<g id="edge5" class="edge">
<title>Node1&#45;&gt;Node13</title>
<path fill="none" stroke="midnightblue" d="M43.21,-146.53C50.61,-147.79 59.4,-149.29 68.54,-150.85"/>
<polygon fill="midnightblue" stroke="midnightblue" points="68.11,-154.32 78.56,-152.55 69.29,-147.42 68.11,-154.32"/>
</g>
<!-- Node14 -->
<g id="node7" class="node">
<title>Node14</title>
<g id="a_node7"><a xlink:href="meshsmoother_8f.html#a2c91fb7cc3c5f6fc443a91bd040001c0" target="_top" xlink:title=" ">
<polygon fill="white" stroke="red" points="79,-114.5 79,-133.5 191,-133.5 191,-114.5 79,-114.5"/>
<text text-anchor="middle" x="135" y="-121.5" font-family="Helvetica,sans-Serif" font-size="10.00">int_fine_to_coarse_3d</text>
</a>
</g>
</g>
<!-- Node1&#45;&gt;Node14 -->
<g id="edge6" class="edge">
<title>Node1&#45;&gt;Node14</title>
<path fill="none" stroke="midnightblue" d="M43.21,-139.47C50.61,-138.21 59.4,-136.71 68.54,-135.15"/>
<polygon fill="midnightblue" stroke="midnightblue" points="69.29,-138.58 78.56,-133.45 68.11,-131.68 69.29,-138.58"/>
</g>
<!-- Node15 -->
<g id="node8" class="node">
<title>Node15</title>
<g id="a_node8"><a xlink:href="math_8f.html#ae1294c8ac3b5b3c38bbcc250d252b9cb" target="_top" xlink:title=" ">
<polygon fill="white" stroke="black" points="117.5,-76.5 117.5,-95.5 152.5,-95.5 152.5,-76.5 117.5,-76.5"/>
<text text-anchor="middle" x="135" y="-83.5" font-family="Helvetica,sans-Serif" font-size="10.00">rone</text>
</a>
</g>
</g>
<!-- Node1&#45;&gt;Node15 -->
<g id="edge7" class="edge">
<title>Node1&#45;&gt;Node15</title>
<path fill="none" stroke="midnightblue" d="M34.94,-133.25C46.02,-124.91 62.92,-113.01 79,-105 87.93,-100.55 98.17,-96.7 107.36,-93.66"/>
<polygon fill="midnightblue" stroke="midnightblue" points="108.69,-96.91 117.18,-90.57 106.59,-90.23 108.69,-96.91"/>
</g>
<!-- Node16 -->
<g id="node9" class="node">
<title>Node16</title>
<g id="a_node9"><a xlink:href="meshsmoother_8f.html#a5c2e67caa66847e3ddafe8a9884c5653" target="_top" xlink:title=" ">
<polygon fill="white" stroke="red" points="93.5,-38.5 93.5,-57.5 176.5,-57.5 176.5,-38.5 93.5,-38.5"/>
<text text-anchor="middle" x="135" y="-45.5" font-family="Helvetica,sans-Serif" font-size="10.00">sm_cheap_dist</text>
</a>
</g>
</g>
<!-- Node1&#45;&gt;Node16 -->
<g id="edge8" class="edge">
<title>Node1&#45;&gt;Node16</title>
<path fill="none" stroke="midnightblue" d="M27.19,-133.37C35.48,-117.34 54.19,-85.16 79,-67 81.53,-65.15 84.25,-63.47 87.08,-61.94"/>
<polygon fill="midnightblue" stroke="midnightblue" points="88.82,-64.99 96.4,-57.59 85.86,-58.65 88.82,-64.99"/>
</g>
<!-- Node27 -->
<g id="node10" class="node">
<title>Node27</title>
<g id="a_node10"><a xlink:href="meshsmoother_8f.html#abeb47ac89a09712fdc1ccb615be69336" target="_top" xlink:title=" ">
<polygon fill="white" stroke="black" points="110.5,-0.5 110.5,-19.5 159.5,-19.5 159.5,-0.5 110.5,-0.5"/>
<text text-anchor="middle" x="135" y="-7.5" font-family="Helvetica,sans-Serif" font-size="10.00">xmtox8</text>
</a>
</g>
</g>
<!-- Node1&#45;&gt;Node27 -->
<g id="edge9" class="edge">
<title>Node1&#45;&gt;Node27</title>
<path fill="none" stroke="midnightblue" d="M24.67,-133.21C30.01,-111.35 45.83,-58.18 79,-29 85.13,-23.6 92.88,-19.72 100.61,-16.93"/>
<polygon fill="midnightblue" stroke="midnightblue" points="101.74,-20.25 110.26,-13.96 99.68,-13.56 101.74,-20.25"/>
</g>
<!-- Node4 -->
<g id="node4" class="node">
<title>Node4</title>
<g id="a_node4"><a xlink:href="math_8f.html#a692155d1d2ec380a9fdb2d81ef221625" target="_top" xlink:title=" ">
<polygon fill="white" stroke="black" points="227,-228.5 227,-247.5 267,-247.5 267,-228.5 227,-228.5"/>
<text text-anchor="middle" x="247" y="-235.5" font-family="Helvetica,sans-Serif" font-size="10.00">blank</text>
</a>
</g>
</g>
<!-- Node3&#45;&gt;Node4 -->
<g id="edge3" class="edge">
<title>Node3&#45;&gt;Node4</title>
<path fill="none" stroke="midnightblue" d="M154.16,-238C171.13,-238 196.75,-238 216.62,-238"/>
<polygon fill="midnightblue" stroke="midnightblue" points="216.7,-241.5 226.7,-238 216.7,-234.5 216.7,-241.5"/>
</g>
</g>
</svg>
