<?xml version="1.0" encoding="UTF-8" standalone="no"?>
<!DOCTYPE svg PUBLIC "-//W3C//DTD SVG 1.1//EN"
 "http://www.w3.org/Graphics/SVG/1.1/DTD/svg11.dtd">
<!-- Generated by graphviz version 2.46.0 (0)
 -->
<!-- Title: fixcurs Pages: 1 -->
<svg width="389pt" height="104pt"
 viewBox="0.00 0.00 389.00 104.00" xmlns="http://www.w3.org/2000/svg" xmlns:xlink="http://www.w3.org/1999/xlink">
<g id="graph0" class="graph" transform="scale(1 1) rotate(0) translate(4 100)">
<title>fixcurs</title>
<polygon fill="white" stroke="transparent" points="-4,4 -4,-100 385,-100 385,4 -4,4"/>
<!-- Node1 -->
<g id="node1" class="node">
<title>Node1</title>
<g id="a_node1"><a xlink:title=" ">
<polygon fill="#bfbfbf" stroke="black" points="335,-38.5 335,-57.5 381,-57.5 381,-38.5 335,-38.5"/>
<text text-anchor="middle" x="358" y="-45.5" font-family="Helvetica,sans-Serif" font-size="10.00">fixcurs</text>
</a>
</g>
</g>
<!-- Node2 -->
<g id="node2" class="node">
<title>Node2</title>
<g id="a_node2"><a xlink:href="meshsmoother_8f.html#ac387c6815e901c8c74390aebec7395b8" target="_top" xlink:title=" ">
<polygon fill="white" stroke="black" points="239.5,-76.5 239.5,-95.5 285.5,-95.5 285.5,-76.5 239.5,-76.5"/>
<text text-anchor="middle" x="262.5" y="-83.5" font-family="Helvetica,sans-Serif" font-size="10.00">fastlap</text>
</a>
</g>
</g>
<!-- Node1&#45;&gt;Node2 -->
<g id="edge1" class="edge">
<title>Node1&#45;&gt;Node2</title>
<path fill="none" stroke="midnightblue" d="M325.33,-60.87C312.36,-66.14 297.64,-72.12 285.82,-76.93"/>
<polygon fill="midnightblue" stroke="midnightblue" points="326.9,-64.01 334.84,-57.01 324.26,-57.53 326.9,-64.01"/>
</g>
<!-- Node5 -->
<g id="node5" class="node">
<title>Node5</title>
<g id="a_node5"><a xlink:href="meshsmoother_8f.html#aad9a124690a3cf5b34ac933e6399f2e0" target="_top" xlink:title=" ">
<polygon fill="white" stroke="black" points="242,-38.5 242,-57.5 283,-57.5 283,-38.5 242,-38.5"/>
<text text-anchor="middle" x="262.5" y="-45.5" font-family="Helvetica,sans-Serif" font-size="10.00">optcg</text>
</a>
</g>
</g>
<!-- Node1&#45;&gt;Node5 -->
<g id="edge4" class="edge">
<title>Node1&#45;&gt;Node5</title>
<path fill="none" stroke="midnightblue" d="M324.75,-48C310.96,-48 295.31,-48 283.27,-48"/>
<polygon fill="midnightblue" stroke="midnightblue" points="324.84,-51.5 334.84,-48 324.84,-44.5 324.84,-51.5"/>
</g>
<!-- Node6 -->
<g id="node6" class="node">
<title>Node6</title>
<g id="a_node6"><a xlink:href="meshsmoother_8f.html#a9d91471816f5f087718775391e8d2311" target="_top" xlink:title=" ">
<polygon fill="white" stroke="black" points="226,-0.5 226,-19.5 299,-19.5 299,-0.5 226,-0.5"/>
<text text-anchor="middle" x="262.5" y="-7.5" font-family="Helvetica,sans-Serif" font-size="10.00">restbndrlayer</text>
</a>
</g>
</g>
<!-- Node1&#45;&gt;Node6 -->
<g id="edge6" class="edge">
<title>Node1&#45;&gt;Node6</title>
<path fill="none" stroke="midnightblue" d="M325.25,-35.1C312.77,-30.02 298.69,-24.3 287.13,-19.61"/>
<polygon fill="midnightblue" stroke="midnightblue" points="324.26,-38.47 334.84,-38.99 326.9,-31.99 324.26,-38.47"/>
</g>
<!-- Node3 -->
<g id="node3" class="node">
<title>Node3</title>
<g id="a_node3"><a xlink:href="meshsmoother_8f.html#a381ecddf77fc5669d3a8e246b65d1960" target="_top" xlink:title=" ">
<polygon fill="white" stroke="black" points="117,-38.5 117,-57.5 190,-57.5 190,-38.5 117,-38.5"/>
<text text-anchor="middle" x="153.5" y="-45.5" font-family="Helvetica,sans-Serif" font-size="10.00">smoothmesh</text>
</a>
</g>
</g>
<!-- Node2&#45;&gt;Node3 -->
<g id="edge2" class="edge">
<title>Node2&#45;&gt;Node3</title>
<path fill="none" stroke="midnightblue" d="M229.74,-74.72C214.42,-69.28 196.23,-62.82 181.58,-57.62"/>
<polygon fill="midnightblue" stroke="midnightblue" points="228.73,-78.08 239.33,-78.13 231.08,-71.48 228.73,-78.08"/>
</g>
<!-- Node4 -->
<g id="node4" class="node">
<title>Node4</title>
<g id="a_node4"><a xlink:href="meshsmoother_8f.html#a2362d6f321c0da65f64a0702ecf98b10" target="_top" xlink:title=" ">
<polygon fill="white" stroke="black" points="0,-38.5 0,-57.5 81,-57.5 81,-38.5 0,-38.5"/>
<text text-anchor="middle" x="40.5" y="-45.5" font-family="Helvetica,sans-Serif" font-size="10.00">meshsmoother</text>
</a>
</g>
</g>
<!-- Node3&#45;&gt;Node4 -->
<g id="edge3" class="edge">
<title>Node3&#45;&gt;Node4</title>
<path fill="none" stroke="midnightblue" d="M106.61,-48C98.11,-48 89.3,-48 81.01,-48"/>
<polygon fill="midnightblue" stroke="midnightblue" points="106.77,-51.5 116.77,-48 106.77,-44.5 106.77,-51.5"/>
</g>
<!-- Node5&#45;&gt;Node3 -->
<g id="edge5" class="edge">
<title>Node5&#45;&gt;Node3</title>
<path fill="none" stroke="midnightblue" d="M231.65,-48C218.74,-48 203.51,-48 190.02,-48"/>
<polygon fill="midnightblue" stroke="midnightblue" points="231.87,-51.5 241.87,-48 231.87,-44.5 231.87,-51.5"/>
</g>
<!-- Node6&#45;&gt;Node3 -->
<g id="edge7" class="edge">
<title>Node6&#45;&gt;Node3</title>
<path fill="none" stroke="midnightblue" d="M224.97,-22.97C210.72,-28.03 194.67,-33.73 181.49,-38.41"/>
<polygon fill="midnightblue" stroke="midnightblue" points="226.25,-26.23 234.5,-19.59 223.9,-19.64 226.25,-26.23"/>
</g>
</g>
</svg>
