<?xml version="1.0" encoding="UTF-8" standalone="no"?>
<!DOCTYPE svg PUBLIC "-//W3C//DTD SVG 1.1//EN"
 "http://www.w3.org/Graphics/SVG/1.1/DTD/svg11.dtd">
<!-- Generated by graphviz version 2.46.0 (0)
 -->
<!-- Title: genmask Pages: 1 -->
<svg width="271pt" height="218pt"
 viewBox="0.00 0.00 271.00 218.00" xmlns="http://www.w3.org/2000/svg" xmlns:xlink="http://www.w3.org/1999/xlink">
<g id="graph0" class="graph" transform="scale(1 1) rotate(0) translate(4 214)">
<title>genmask</title>
<polygon fill="white" stroke="transparent" points="-4,4 -4,-214 267,-214 267,4 -4,4"/>
<!-- Node1 -->
<g id="node1" class="node">
<title>Node1</title>
<g id="a_node1"><a xlink:title=" ">
<polygon fill="#bfbfbf" stroke="black" points="0,-95.5 0,-114.5 56,-114.5 56,-95.5 0,-95.5"/>
<text text-anchor="middle" x="28" y="-102.5" font-family="Helvetica,sans-Serif" font-size="10.00">genmask</text>
</a>
</g>
</g>
<!-- Node2 -->
<g id="node2" class="node">
<title>Node2</title>
<g id="a_node2"><a xlink:href="connect1_8f.html#a1c96db1fac78d436aaab41482ed01aca" target="_top" xlink:title=" ">
<polygon fill="white" stroke="black" points="113,-190.5 113,-209.5 154,-209.5 154,-190.5 113,-190.5"/>
<text text-anchor="middle" x="133.5" y="-197.5" font-family="Helvetica,sans-Serif" font-size="10.00">facev</text>
</a>
</g>
</g>
<!-- Node1&#45;&gt;Node2 -->
<g id="edge1" class="edge">
<title>Node1&#45;&gt;Node2</title>
<path fill="none" stroke="midnightblue" d="M34.9,-114.56C44.96,-130.21 66.79,-161.49 92,-181 95.62,-183.8 99.72,-186.32 103.89,-188.54"/>
<polygon fill="midnightblue" stroke="midnightblue" points="102.44,-191.73 112.97,-192.91 105.47,-185.42 102.44,-191.73"/>
</g>
<!-- Node4 -->
<g id="node4" class="node">
<title>Node4</title>
<g id="a_node4"><a xlink:href="math_8f.html#af58b0d2ff8df811dc27c9e42460492b9" target="_top" xlink:title=" ">
<polygon fill="white" stroke="black" points="112,-152.5 112,-171.5 155,-171.5 155,-152.5 112,-152.5"/>
<text text-anchor="middle" x="133.5" y="-159.5" font-family="Helvetica,sans-Serif" font-size="10.00">glmax</text>
</a>
</g>
</g>
<!-- Node1&#45;&gt;Node4 -->
<g id="edge3" class="edge">
<title>Node1&#45;&gt;Node4</title>
<path fill="none" stroke="midnightblue" d="M43.77,-114.51C56.38,-122.48 75.1,-133.97 92,-143 95.35,-144.79 98.89,-146.59 102.44,-148.33"/>
<polygon fill="midnightblue" stroke="midnightblue" points="101.16,-151.59 111.69,-152.74 104.18,-145.28 101.16,-151.59"/>
</g>
<!-- Node7 -->
<g id="node6" class="node">
<title>Node7</title>
<g id="a_node6"><a xlink:href="math_8f.html#ae73fec4554ac4d498b4de4e092fb32fa" target="_top" xlink:title=" ">
<polygon fill="white" stroke="black" points="110,-114.5 110,-133.5 157,-133.5 157,-114.5 110,-114.5"/>
<text text-anchor="middle" x="133.5" y="-121.5" font-family="Helvetica,sans-Serif" font-size="10.00">invcol1</text>
</a>
</g>
</g>
<!-- Node1&#45;&gt;Node7 -->
<g id="edge5" class="edge">
<title>Node1&#45;&gt;Node7</title>
<path fill="none" stroke="midnightblue" d="M56.19,-109.99C69.46,-112.43 85.53,-115.38 99.5,-117.94"/>
<polygon fill="midnightblue" stroke="midnightblue" points="99.22,-121.45 109.69,-119.81 100.48,-114.56 99.22,-121.45"/>
</g>
<!-- Node8 -->
<g id="node7" class="node">
<title>Node8</title>
<g id="a_node7"><a xlink:href="math_8f.html#ae1294c8ac3b5b3c38bbcc250d252b9cb" target="_top" xlink:title=" ">
<polygon fill="white" stroke="black" points="116,-76.5 116,-95.5 151,-95.5 151,-76.5 116,-76.5"/>
<text text-anchor="middle" x="133.5" y="-83.5" font-family="Helvetica,sans-Serif" font-size="10.00">rone</text>
</a>
</g>
</g>
<!-- Node1&#45;&gt;Node8 -->
<g id="edge6" class="edge">
<title>Node1&#45;&gt;Node8</title>
<path fill="none" stroke="midnightblue" d="M56.19,-100.01C71.57,-97.19 90.71,-93.67 105.98,-90.87"/>
<polygon fill="midnightblue" stroke="midnightblue" points="106.63,-94.31 115.84,-89.06 105.37,-87.42 106.63,-94.31"/>
</g>
<!-- Node9 -->
<g id="node8" class="node">
<title>Node9</title>
<g id="a_node8"><a xlink:href="meshsmoother_8f.html#a0462602389036e142b4376691560cac7" target="_top" xlink:title=" ">
<polygon fill="white" stroke="black" points="92,-38.5 92,-57.5 175,-57.5 175,-38.5 92,-38.5"/>
<text text-anchor="middle" x="133.5" y="-45.5" font-family="Helvetica,sans-Serif" font-size="10.00">setupds_center</text>
</a>
</g>
</g>
<!-- Node1&#45;&gt;Node9 -->
<g id="edge7" class="edge">
<title>Node1&#45;&gt;Node9</title>
<path fill="none" stroke="midnightblue" d="M43.77,-95.49C56.38,-87.52 75.1,-76.03 92,-67 95.11,-65.34 98.39,-63.67 101.68,-62.05"/>
<polygon fill="midnightblue" stroke="midnightblue" points="103.35,-65.13 110.86,-57.65 100.32,-58.82 103.35,-65.13"/>
</g>
<!-- Node31 -->
<g id="node10" class="node">
<title>Node31</title>
<g id="a_node10"><a xlink:href="meshsmoother_8f.html#abeb47ac89a09712fdc1ccb615be69336" target="_top" xlink:title=" ">
<polygon fill="white" stroke="black" points="109,-0.5 109,-19.5 158,-19.5 158,-0.5 109,-0.5"/>
<text text-anchor="middle" x="133.5" y="-7.5" font-family="Helvetica,sans-Serif" font-size="10.00">xmtox8</text>
</a>
</g>
</g>
<!-- Node1&#45;&gt;Node31 -->
<g id="edge9" class="edge">
<title>Node1&#45;&gt;Node31</title>
<path fill="none" stroke="midnightblue" d="M34.9,-95.44C44.96,-79.79 66.79,-48.51 92,-29 94.44,-27.11 97.1,-25.35 99.85,-23.73"/>
<polygon fill="midnightblue" stroke="midnightblue" points="101.58,-26.77 108.78,-19 98.31,-20.58 101.58,-26.77"/>
</g>
<!-- Node3 -->
<g id="node3" class="node">
<title>Node3</title>
<g id="a_node3"><a xlink:href="connect1_8f.html#aa1c9016b4c28e8a8512be6f6d67eefce" target="_top" xlink:title=" ">
<polygon fill="white" stroke="black" points="215.5,-190.5 215.5,-209.5 258.5,-209.5 258.5,-190.5 215.5,-190.5"/>
<text text-anchor="middle" x="237" y="-197.5" font-family="Helvetica,sans-Serif" font-size="10.00">facind</text>
</a>
</g>
</g>
<!-- Node2&#45;&gt;Node3 -->
<g id="edge2" class="edge">
<title>Node2&#45;&gt;Node3</title>
<path fill="none" stroke="midnightblue" d="M154.07,-200C168.53,-200 188.5,-200 205.11,-200"/>
<polygon fill="midnightblue" stroke="midnightblue" points="205.44,-203.5 215.44,-200 205.44,-196.5 205.44,-203.5"/>
</g>
<!-- Node5 -->
<g id="node5" class="node">
<title>Node5</title>
<g id="a_node5"><a xlink:href="gs__test__gop__blocking_8c.html#ab2e24f9857f6d1ded7e4d556c6bc5e49" target="_top" xlink:title=" ">
<polygon fill="white" stroke="red" points="221,-152.5 221,-171.5 253,-171.5 253,-152.5 221,-152.5"/>
<text text-anchor="middle" x="237" y="-159.5" font-family="Helvetica,sans-Serif" font-size="10.00">gop</text>
</a>
</g>
</g>
<!-- Node4&#45;&gt;Node5 -->
<g id="edge4" class="edge">
<title>Node4&#45;&gt;Node5</title>
<path fill="none" stroke="midnightblue" d="M155.04,-162C171.01,-162 193.24,-162 210.37,-162"/>
<polygon fill="midnightblue" stroke="midnightblue" points="210.78,-165.5 220.78,-162 210.78,-158.5 210.78,-165.5"/>
</g>
<!-- Node10 -->
<g id="node9" class="node">
<title>Node10</title>
<g id="a_node9"><a xlink:href="navier8_8f.html#a51b2c2d951e069b7ffa9a395b2def117" target="_top" xlink:title=" ">
<polygon fill="white" stroke="red" points="211,-38.5 211,-57.5 263,-57.5 263,-38.5 211,-38.5"/>
<text text-anchor="middle" x="237" y="-45.5" font-family="Helvetica,sans-Serif" font-size="10.00">set_vert</text>
</a>
</g>
</g>
<!-- Node9&#45;&gt;Node10 -->
<g id="edge8" class="edge">
<title>Node9&#45;&gt;Node10</title>
<path fill="none" stroke="midnightblue" d="M175.2,-48C183.65,-48 192.49,-48 200.73,-48"/>
<polygon fill="midnightblue" stroke="midnightblue" points="200.77,-51.5 210.77,-48 200.77,-44.5 200.77,-51.5"/>
</g>
</g>
</svg>
