<?xml version="1.0" encoding="UTF-8" standalone="no"?>
<!DOCTYPE svg PUBLIC "-//W3C//DTD SVG 1.1//EN"
 "http://www.w3.org/Graphics/SVG/1.1/DTD/svg11.dtd">
<!-- Generated by graphviz version 2.46.0 (0)
 -->
<!-- Title: fixcurs Pages: 1 -->
<svg width="258pt" height="218pt"
 viewBox="0.00 0.00 258.00 218.00" xmlns="http://www.w3.org/2000/svg" xmlns:xlink="http://www.w3.org/1999/xlink">
<g id="graph0" class="graph" transform="scale(1 1) rotate(0) translate(4 214)">
<title>fixcurs</title>
<polygon fill="white" stroke="transparent" points="-4,4 -4,-214 254,-214 254,4 -4,4"/>
<!-- Node1 -->
<g id="node1" class="node">
<title>Node1</title>
<g id="a_node1"><a xlink:title=" ">
<polygon fill="#bfbfbf" stroke="black" points="0,-95.5 0,-114.5 46,-114.5 46,-95.5 0,-95.5"/>
<text text-anchor="middle" x="23" y="-102.5" font-family="Helvetica,sans-Serif" font-size="10.00">fixcurs</text>
</a>
</g>
</g>
<!-- Node2 -->
<g id="node2" class="node">
<title>Node2</title>
<g id="a_node2"><a xlink:href="math_8f.html#a3b43508554f14bdea8e14473d7d0803c" target="_top" xlink:title=" ">
<polygon fill="white" stroke="black" points="208,-152.5 208,-171.5 246,-171.5 246,-152.5 208,-152.5"/>
<text text-anchor="middle" x="227" y="-159.5" font-family="Helvetica,sans-Serif" font-size="10.00">copy</text>
</a>
</g>
</g>
<!-- Node1&#45;&gt;Node2 -->
<g id="edge1" class="edge">
<title>Node1&#45;&gt;Node2</title>
<path fill="none" stroke="midnightblue" d="M35.15,-114.53C46.26,-123.46 64.17,-136.38 82,-143 120.32,-157.23 167.84,-161.06 197.55,-161.95"/>
<polygon fill="midnightblue" stroke="midnightblue" points="197.57,-165.45 207.64,-162.16 197.72,-158.45 197.57,-165.45"/>
</g>
<!-- Node3 -->
<g id="node3" class="node">
<title>Node3</title>
<g id="a_node3"><a xlink:href="connect1_8f.html#a1c96db1fac78d436aaab41482ed01aca" target="_top" xlink:title=" ">
<polygon fill="white" stroke="black" points="104.5,-190.5 104.5,-209.5 145.5,-209.5 145.5,-190.5 104.5,-190.5"/>
<text text-anchor="middle" x="125" y="-197.5" font-family="Helvetica,sans-Serif" font-size="10.00">facev</text>
</a>
</g>
</g>
<!-- Node1&#45;&gt;Node3 -->
<g id="edge2" class="edge">
<title>Node1&#45;&gt;Node3</title>
<path fill="none" stroke="midnightblue" d="M30.19,-114.68C39.9,-129.29 59.89,-157.28 82,-176 86.06,-179.44 90.69,-182.65 95.35,-185.53"/>
<polygon fill="midnightblue" stroke="midnightblue" points="93.8,-188.67 104.21,-190.63 97.3,-182.61 93.8,-188.67"/>
</g>
<!-- Node5 -->
<g id="node5" class="node">
<title>Node5</title>
<g id="a_node5"><a xlink:href="meshsmoother_8f.html#a7918e1a2fceee0c52c60acecbdd5858b" target="_top" xlink:title=" ">
<polygon fill="white" stroke="red" points="101,-114.5 101,-133.5 149,-133.5 149,-114.5 101,-114.5"/>
<text text-anchor="middle" x="125" y="-121.5" font-family="Helvetica,sans-Serif" font-size="10.00">fixedgs</text>
</a>
</g>
</g>
<!-- Node1&#45;&gt;Node5 -->
<g id="edge4" class="edge">
<title>Node1&#45;&gt;Node5</title>
<path fill="none" stroke="midnightblue" d="M46.19,-109.22C59.25,-111.7 76.02,-114.88 90.64,-117.66"/>
<polygon fill="midnightblue" stroke="midnightblue" points="90.35,-121.17 100.83,-119.6 91.66,-114.29 90.35,-121.17"/>
</g>
<!-- Node10 -->
<g id="node8" class="node">
<title>Node10</title>
<g id="a_node8"><a xlink:href="navier5_8f.html#af2ef7089f186c5f1d1cde2552169d2e8" target="_top" xlink:title=" ">
<polygon fill="white" stroke="red" points="82,-76.5 82,-95.5 168,-95.5 168,-76.5 82,-76.5"/>
<text text-anchor="middle" x="125" y="-83.5" font-family="Helvetica,sans-Serif" font-size="10.00">gh_face_extend</text>
</a>
</g>
</g>
<!-- Node1&#45;&gt;Node10 -->
<g id="edge8" class="edge">
<title>Node1&#45;&gt;Node10</title>
<path fill="none" stroke="midnightblue" d="M46.19,-100.78C53.8,-99.34 62.67,-97.65 71.64,-95.95"/>
<polygon fill="midnightblue" stroke="midnightblue" points="72.58,-99.33 81.75,-94.03 71.27,-92.46 72.58,-99.33"/>
</g>
<!-- Node18 -->
<g id="node9" class="node">
<title>Node18</title>
<g id="a_node9"><a xlink:href="math_8f.html#ae1294c8ac3b5b3c38bbcc250d252b9cb" target="_top" xlink:title=" ">
<polygon fill="white" stroke="black" points="107.5,-38.5 107.5,-57.5 142.5,-57.5 142.5,-38.5 107.5,-38.5"/>
<text text-anchor="middle" x="125" y="-45.5" font-family="Helvetica,sans-Serif" font-size="10.00">rone</text>
</a>
</g>
</g>
<!-- Node1&#45;&gt;Node18 -->
<g id="edge9" class="edge">
<title>Node1&#45;&gt;Node18</title>
<path fill="none" stroke="midnightblue" d="M37.46,-95.32C48.98,-87.25 66.17,-75.7 82,-67 87.09,-64.21 92.66,-61.47 98.04,-58.98"/>
<polygon fill="midnightblue" stroke="midnightblue" points="99.65,-62.1 107.36,-54.82 96.8,-55.7 99.65,-62.1"/>
</g>
<!-- Node13 -->
<g id="node10" class="node">
<title>Node13</title>
<g id="a_node10"><a xlink:href="math_8f.html#af44de42b023a4a68cd98ea341204342d" target="_top" xlink:title=" ">
<polygon fill="white" stroke="black" points="106,-0.5 106,-19.5 144,-19.5 144,-0.5 106,-0.5"/>
<text text-anchor="middle" x="125" y="-7.5" font-family="Helvetica,sans-Serif" font-size="10.00">rzero</text>
</a>
</g>
</g>
<!-- Node1&#45;&gt;Node13 -->
<g id="edge10" class="edge">
<title>Node1&#45;&gt;Node13</title>
<path fill="none" stroke="midnightblue" d="M29.22,-95.37C38.17,-79.63 57.84,-48.22 82,-29 86.27,-25.6 91.26,-22.66 96.26,-20.18"/>
<polygon fill="midnightblue" stroke="midnightblue" points="98.02,-23.23 105.74,-15.98 95.18,-16.83 98.02,-23.23"/>
</g>
<!-- Node4 -->
<g id="node4" class="node">
<title>Node4</title>
<g id="a_node4"><a xlink:href="connect1_8f.html#aa1c9016b4c28e8a8512be6f6d67eefce" target="_top" xlink:title=" ">
<polygon fill="white" stroke="black" points="205.5,-190.5 205.5,-209.5 248.5,-209.5 248.5,-190.5 205.5,-190.5"/>
<text text-anchor="middle" x="227" y="-197.5" font-family="Helvetica,sans-Serif" font-size="10.00">facind</text>
</a>
</g>
</g>
<!-- Node3&#45;&gt;Node4 -->
<g id="edge3" class="edge">
<title>Node3&#45;&gt;Node4</title>
<path fill="none" stroke="midnightblue" d="M145.76,-200C159.86,-200 179.1,-200 195.21,-200"/>
<polygon fill="midnightblue" stroke="midnightblue" points="195.25,-203.5 205.25,-200 195.25,-196.5 195.25,-203.5"/>
</g>
<!-- Node5&#45;&gt;Node2 -->
<g id="edge6" class="edge">
<title>Node5&#45;&gt;Node2</title>
<path fill="none" stroke="midnightblue" d="M149.19,-132.81C163.87,-138.39 182.91,-145.63 198.36,-151.5"/>
<polygon fill="midnightblue" stroke="midnightblue" points="197.33,-154.85 207.92,-155.13 199.82,-148.31 197.33,-154.85"/>
</g>
<!-- Node6 -->
<g id="node6" class="node">
<title>Node6</title>
<g id="a_node6"><a xlink:href="subs2_8f.html#a3c61e9653d5734accc15712a2f1b9c11" target="_top" xlink:title=" ">
<polygon fill="white" stroke="black" points="204,-114.5 204,-133.5 250,-133.5 250,-114.5 204,-114.5"/>
<text text-anchor="middle" x="227" y="-121.5" font-family="Helvetica,sans-Serif" font-size="10.00">cmult2</text>
</a>
</g>
</g>
<!-- Node5&#45;&gt;Node6 -->
<g id="edge5" class="edge">
<title>Node5&#45;&gt;Node6</title>
<path fill="none" stroke="midnightblue" d="M149.19,-124C162.47,-124 179.33,-124 193.87,-124"/>
<polygon fill="midnightblue" stroke="midnightblue" points="193.96,-127.5 203.96,-124 193.96,-120.5 193.96,-127.5"/>
</g>
<!-- Node7 -->
<g id="node7" class="node">
<title>Node7</title>
<g id="a_node7"><a xlink:href="genxyz_8f.html#a0a3061a8ab3b46ffa65ada9ddefa78b8" target="_top" xlink:title=" ">
<polygon fill="white" stroke="black" points="212,-76.5 212,-95.5 242,-95.5 242,-76.5 212,-76.5"/>
<text text-anchor="middle" x="227" y="-83.5" font-family="Helvetica,sans-Serif" font-size="10.00">dot</text>
</a>
</g>
</g>
<!-- Node5&#45;&gt;Node7 -->
<g id="edge7" class="edge">
<title>Node5&#45;&gt;Node7</title>
<path fill="none" stroke="midnightblue" d="M149.19,-115.19C165.1,-109.14 186.14,-101.15 202.17,-95.05"/>
<polygon fill="midnightblue" stroke="midnightblue" points="203.78,-98.19 211.88,-91.36 201.29,-91.64 203.78,-98.19"/>
</g>
</g>
</svg>
