<?xml version="1.0" encoding="UTF-8" standalone="no"?>
<!DOCTYPE svg PUBLIC "-//W3C//DTD SVG 1.1//EN"
 "http://www.w3.org/Graphics/SVG/1.1/DTD/svg11.dtd">
<!-- Generated by graphviz version 2.46.0 (0)
 -->
<!-- Title: x8toxm Pages: 1 -->
<svg width="495pt" height="162pt"
 viewBox="0.00 0.00 495.00 161.68" xmlns="http://www.w3.org/2000/svg" xmlns:xlink="http://www.w3.org/1999/xlink">
<g id="graph0" class="graph" transform="scale(1 1) rotate(0) translate(4 157.68)">
<title>x8toxm</title>
<polygon fill="white" stroke="transparent" points="-4,4 -4,-157.68 491,-157.68 491,4 -4,4"/>
<!-- Node1 -->
<g id="node1" class="node">
<title>Node1</title>
<g id="a_node1"><a xlink:title=" ">
<polygon fill="#bfbfbf" stroke="black" points="438,-58.18 438,-77.18 487,-77.18 487,-58.18 438,-58.18"/>
<text text-anchor="middle" x="462.5" y="-65.18" font-family="Helvetica,sans-Serif" font-size="10.00">x8toxm</text>
</a>
</g>
</g>
<!-- Node2 -->
<g id="node2" class="node">
<title>Node2</title>
<g id="a_node2"><a xlink:href="meshsmoother_8f.html#ac430b79a7376d40ab4466ee86fbed223" target="_top" xlink:title=" ">
<polygon fill="white" stroke="black" points="339.5,-134.18 339.5,-153.18 397.5,-153.18 397.5,-134.18 339.5,-134.18"/>
<text text-anchor="middle" x="368.5" y="-141.18" font-family="Helvetica,sans-Serif" font-size="10.00">dolsalpha</text>
</a>
</g>
</g>
<!-- Node1&#45;&gt;Node2 -->
<g id="edge1" class="edge">
<title>Node1&#45;&gt;Node2</title>
<path fill="none" stroke="midnightblue" d="M443.07,-84.49C431.48,-94.87 416.11,-108.34 402,-119.68 395.88,-124.61 388.89,-129.81 382.97,-134.12"/>
<polygon fill="midnightblue" stroke="midnightblue" points="445.69,-86.84 450.76,-77.54 441,-81.64 445.69,-86.84"/>
</g>
<!-- Node3 -->
<g id="node3" class="node">
<title>Node3</title>
<g id="a_node3"><a xlink:href="meshsmoother_8f.html#aad9a124690a3cf5b34ac933e6399f2e0" target="_top" xlink:title=" ">
<polygon fill="white" stroke="black" points="242,-96.18 242,-115.18 283,-115.18 283,-96.18 242,-96.18"/>
<text text-anchor="middle" x="262.5" y="-103.18" font-family="Helvetica,sans-Serif" font-size="10.00">optcg</text>
</a>
</g>
</g>
<!-- Node1&#45;&gt;Node3 -->
<g id="edge8" class="edge">
<title>Node1&#45;&gt;Node3</title>
<path fill="none" stroke="midnightblue" d="M427.92,-75.95C419.48,-77.93 410.43,-79.96 402,-81.68 359.92,-90.27 310.24,-98.4 283.29,-102.63"/>
<polygon fill="midnightblue" stroke="midnightblue" points="428.91,-79.31 437.83,-73.59 427.29,-72.5 428.91,-79.31"/>
</g>
<!-- Node6 -->
<g id="node6" class="node">
<title>Node6</title>
<g id="a_node6"><a xlink:href="meshsmoother_8f.html#ac387c6815e901c8c74390aebec7395b8" target="_top" xlink:title=" ">
<polygon fill="white" stroke="black" points="239.5,-58.18 239.5,-77.18 285.5,-77.18 285.5,-58.18 239.5,-58.18"/>
<text text-anchor="middle" x="262.5" y="-65.18" font-family="Helvetica,sans-Serif" font-size="10.00">fastlap</text>
</a>
</g>
</g>
<!-- Node1&#45;&gt;Node6 -->
<g id="edge5" class="edge">
<title>Node1&#45;&gt;Node6</title>
<path fill="none" stroke="midnightblue" d="M427.39,-67.68C386.77,-67.68 320.09,-67.68 285.64,-67.68"/>
<polygon fill="midnightblue" stroke="midnightblue" points="427.62,-71.18 437.62,-67.68 427.62,-64.18 427.62,-71.18"/>
</g>
<!-- Node7 -->
<g id="node7" class="node">
<title>Node7</title>
<g id="a_node7"><a xlink:href="meshsmoother_8f.html#a91e45b9d06a0083a4a55ba5451d2910b" target="_top" xlink:title=" ">
<polygon fill="white" stroke="black" points="335,-20.18 335,-39.18 402,-39.18 402,-20.18 335,-20.18"/>
<text text-anchor="middle" x="368.5" y="-27.18" font-family="Helvetica,sans-Serif" font-size="10.00">masklayers</text>
</a>
</g>
</g>
<!-- Node1&#45;&gt;Node7 -->
<g id="edge7" class="edge">
<title>Node1&#45;&gt;Node7</title>
<path fill="none" stroke="midnightblue" d="M429.03,-54.27C417.04,-49.32 403.71,-43.81 392.71,-39.27"/>
<polygon fill="midnightblue" stroke="midnightblue" points="427.71,-57.51 438.28,-58.09 430.38,-51.04 427.71,-57.51"/>
</g>
<!-- Node8 -->
<g id="node8" class="node">
<title>Node8</title>
<g id="a_node8"><a xlink:href="meshsmoother_8f.html#a9d91471816f5f087718775391e8d2311" target="_top" xlink:title=" ">
<polygon fill="white" stroke="black" points="226,-1.18 226,-20.18 299,-20.18 299,-1.18 226,-1.18"/>
<text text-anchor="middle" x="262.5" y="-8.18" font-family="Helvetica,sans-Serif" font-size="10.00">restbndrlayer</text>
</a>
</g>
</g>
<!-- Node1&#45;&gt;Node8 -->
<g id="edge9" class="edge">
<title>Node1&#45;&gt;Node8</title>
<path fill="none" stroke="midnightblue" d="M449.08,-49.93C438.38,-36.31 421.6,-18.56 402,-10.68 368.98,2.58 327.85,0.51 299.02,-3.6"/>
<polygon fill="midnightblue" stroke="midnightblue" points="446.42,-52.21 455.2,-58.13 452.03,-48.02 446.42,-52.21"/>
</g>
<!-- Node2&#45;&gt;Node3 -->
<g id="edge2" class="edge">
<title>Node2&#45;&gt;Node3</title>
<path fill="none" stroke="midnightblue" d="M331.52,-130.54C315.31,-124.61 296.79,-117.84 283.17,-112.87"/>
<polygon fill="midnightblue" stroke="midnightblue" points="330.66,-133.95 341.26,-134.09 333.06,-127.37 330.66,-133.95"/>
</g>
<!-- Node4 -->
<g id="node4" class="node">
<title>Node4</title>
<g id="a_node4"><a xlink:href="meshsmoother_8f.html#a381ecddf77fc5669d3a8e246b65d1960" target="_top" xlink:title=" ">
<polygon fill="white" stroke="black" points="117,-58.18 117,-77.18 190,-77.18 190,-58.18 117,-58.18"/>
<text text-anchor="middle" x="153.5" y="-65.18" font-family="Helvetica,sans-Serif" font-size="10.00">smoothmesh</text>
</a>
</g>
</g>
<!-- Node3&#45;&gt;Node4 -->
<g id="edge3" class="edge">
<title>Node3&#45;&gt;Node4</title>
<path fill="none" stroke="midnightblue" d="M232.03,-95.22C216.15,-89.58 196.7,-82.67 181.25,-77.18"/>
<polygon fill="midnightblue" stroke="midnightblue" points="231.28,-98.66 241.87,-98.71 233.62,-92.07 231.28,-98.66"/>
</g>
<!-- Node5 -->
<g id="node5" class="node">
<title>Node5</title>
<g id="a_node5"><a xlink:href="meshsmoother_8f.html#a2362d6f321c0da65f64a0702ecf98b10" target="_top" xlink:title=" ">
<polygon fill="white" stroke="black" points="0,-58.18 0,-77.18 81,-77.18 81,-58.18 0,-58.18"/>
<text text-anchor="middle" x="40.5" y="-65.18" font-family="Helvetica,sans-Serif" font-size="10.00">meshsmoother</text>
</a>
</g>
</g>
<!-- Node4&#45;&gt;Node5 -->
<g id="edge4" class="edge">
<title>Node4&#45;&gt;Node5</title>
<path fill="none" stroke="midnightblue" d="M106.61,-67.68C98.11,-67.68 89.3,-67.68 81.01,-67.68"/>
<polygon fill="midnightblue" stroke="midnightblue" points="106.77,-71.18 116.77,-67.68 106.77,-64.18 106.77,-71.18"/>
</g>
<!-- Node6&#45;&gt;Node4 -->
<g id="edge6" class="edge">
<title>Node6&#45;&gt;Node4</title>
<path fill="none" stroke="midnightblue" d="M229.06,-67.68C216.76,-67.68 202.7,-67.68 190.12,-67.68"/>
<polygon fill="midnightblue" stroke="midnightblue" points="229.33,-71.18 239.33,-67.68 229.33,-64.18 229.33,-71.18"/>
</g>
<!-- Node8&#45;&gt;Node4 -->
<g id="edge10" class="edge">
<title>Node8&#45;&gt;Node4</title>
<path fill="none" stroke="midnightblue" d="M234.37,-25.14C214.93,-35.49 189.3,-49.14 172.38,-58.16"/>
<polygon fill="midnightblue" stroke="midnightblue" points="236.17,-28.14 243.35,-20.35 232.88,-21.96 236.17,-28.14"/>
</g>
</g>
</svg>
