<?xml version="1.0" encoding="UTF-8" standalone="no"?>
<!DOCTYPE svg PUBLIC "-//W3C//DTD SVG 1.1//EN"
 "http://www.w3.org/Graphics/SVG/1.1/DTD/svg11.dtd">
<!-- Generated by graphviz version 2.46.0 (0)
 -->
<!-- Title: restbndrlayer Pages: 1 -->
<svg width="276pt" height="294pt"
 viewBox="0.00 0.00 276.00 294.00" xmlns="http://www.w3.org/2000/svg" xmlns:xlink="http://www.w3.org/1999/xlink">
<g id="graph0" class="graph" transform="scale(1 1) rotate(0) translate(4 290)">
<title>restbndrlayer</title>
<polygon fill="white" stroke="transparent" points="-4,4 -4,-290 272,-290 272,4 -4,4"/>
<!-- Node1 -->
<g id="node1" class="node">
<title>Node1</title>
<g id="a_node1"><a xlink:title=" ">
<polygon fill="#bfbfbf" stroke="black" points="0,-133.5 0,-152.5 73,-152.5 73,-133.5 0,-133.5"/>
<text text-anchor="middle" x="36.5" y="-140.5" font-family="Helvetica,sans-Serif" font-size="10.00">restbndrlayer</text>
</a>
</g>
</g>
<!-- Node2 -->
<g id="node2" class="node">
<title>Node2</title>
<g id="a_node2"><a xlink:href="math_8f.html#a30b83d516b6ab162d3fafe73e03a3e92" target="_top" xlink:title=" ">
<polygon fill="white" stroke="black" points="121,-266.5 121,-285.5 159,-285.5 159,-266.5 121,-266.5"/>
<text text-anchor="middle" x="140" y="-273.5" font-family="Helvetica,sans-Serif" font-size="10.00">add2</text>
</a>
</g>
</g>
<!-- Node1&#45;&gt;Node2 -->
<g id="edge1" class="edge">
<title>Node1&#45;&gt;Node2</title>
<path fill="none" stroke="midnightblue" d="M41.68,-152.54C51.19,-173.44 76.2,-224.05 109,-257 110.09,-258.09 111.25,-259.15 112.46,-260.18"/>
<polygon fill="midnightblue" stroke="midnightblue" points="110.76,-263.27 120.89,-266.36 114.9,-257.63 110.76,-263.27"/>
</g>
<!-- Node5 -->
<g id="node4" class="node">
<title>Node5</title>
<g id="a_node4"><a xlink:href="math_8f.html#ad2b51b68d370651f4f6d81952503e7be" target="_top" xlink:title=" ">
<polygon fill="white" stroke="black" points="119.5,-228.5 119.5,-247.5 160.5,-247.5 160.5,-228.5 119.5,-228.5"/>
<text text-anchor="middle" x="140" y="-235.5" font-family="Helvetica,sans-Serif" font-size="10.00">cmult</text>
</a>
</g>
</g>
<!-- Node1&#45;&gt;Node5 -->
<g id="edge3" class="edge">
<title>Node1&#45;&gt;Node5</title>
<path fill="none" stroke="midnightblue" d="M45.19,-152.62C57.61,-167.8 83.3,-197.78 109,-219 110.53,-220.27 112.16,-221.51 113.82,-222.73"/>
<polygon fill="midnightblue" stroke="midnightblue" points="112.05,-225.75 122.29,-228.46 115.97,-219.96 112.05,-225.75"/>
</g>
<!-- Node6 -->
<g id="node5" class="node">
<title>Node6</title>
<g id="a_node5"><a xlink:href="math_8f.html#a3470db04166d9ba91454a14cc17dbec2" target="_top" xlink:title=" ">
<polygon fill="white" stroke="black" points="122.5,-190.5 122.5,-209.5 157.5,-209.5 157.5,-190.5 122.5,-190.5"/>
<text text-anchor="middle" x="140" y="-197.5" font-family="Helvetica,sans-Serif" font-size="10.00">col2</text>
</a>
</g>
</g>
<!-- Node1&#45;&gt;Node6 -->
<g id="edge4" class="edge">
<title>Node1&#45;&gt;Node6</title>
<path fill="none" stroke="midnightblue" d="M54.72,-152.67C70.88,-161.74 95.25,-175.43 113.64,-185.76"/>
<polygon fill="midnightblue" stroke="midnightblue" points="111.94,-188.82 122.37,-190.66 115.37,-182.71 111.94,-188.82"/>
</g>
<!-- Node7 -->
<g id="node6" class="node">
<title>Node7</title>
<g id="a_node6"><a xlink:href="meshsmoother_8f.html#aeeba354f477e4b8bc6e76121264ff621" target="_top" xlink:title=" ">
<polygon fill="white" stroke="red" points="117,-152.5 117,-171.5 163,-171.5 163,-152.5 117,-152.5"/>
<text text-anchor="middle" x="140" y="-159.5" font-family="Helvetica,sans-Serif" font-size="10.00">fixcurs</text>
</a>
</g>
</g>
<!-- Node1&#45;&gt;Node7 -->
<g id="edge6" class="edge">
<title>Node1&#45;&gt;Node7</title>
<path fill="none" stroke="midnightblue" d="M73.29,-149.7C84.16,-151.73 96.04,-153.96 106.67,-155.95"/>
<polygon fill="midnightblue" stroke="midnightblue" points="106.33,-159.44 116.8,-157.84 107.62,-152.56 106.33,-159.44"/>
</g>
<!-- Node22 -->
<g id="node7" class="node">
<title>Node22</title>
<g id="a_node7"><a xlink:href="math_8f.html#ad52d460588be4ef01891806b14c0ecda" target="_top" xlink:title=" ">
<polygon fill="white" stroke="red" points="116,-114.5 116,-133.5 164,-133.5 164,-114.5 116,-114.5"/>
<text text-anchor="middle" x="140" y="-121.5" font-family="Helvetica,sans-Serif" font-size="10.00">glamax</text>
</a>
</g>
</g>
<!-- Node1&#45;&gt;Node22 -->
<g id="edge7" class="edge">
<title>Node1&#45;&gt;Node22</title>
<path fill="none" stroke="midnightblue" d="M73.29,-136.3C83.9,-134.31 95.48,-132.15 105.91,-130.19"/>
<polygon fill="midnightblue" stroke="midnightblue" points="106.71,-133.61 115.89,-128.33 105.42,-126.73 106.71,-133.61"/>
</g>
<!-- Node25 -->
<g id="node8" class="node">
<title>Node25</title>
<g id="a_node8"><a xlink:href="math_8f.html#a0f22065d62634acdc3883ba95bfcc18a" target="_top" xlink:title=" ">
<polygon fill="white" stroke="black" points="121,-76.5 121,-95.5 159,-95.5 159,-76.5 121,-76.5"/>
<text text-anchor="middle" x="140" y="-83.5" font-family="Helvetica,sans-Serif" font-size="10.00">sub2</text>
</a>
</g>
</g>
<!-- Node1&#45;&gt;Node25 -->
<g id="edge8" class="edge">
<title>Node1&#45;&gt;Node25</title>
<path fill="none" stroke="midnightblue" d="M54.72,-133.33C70.78,-124.31 94.96,-110.73 113.3,-100.43"/>
<polygon fill="midnightblue" stroke="midnightblue" points="115.03,-103.47 122.04,-95.53 111.6,-97.37 115.03,-103.47"/>
</g>
<!-- Node26 -->
<g id="node9" class="node">
<title>Node26</title>
<g id="a_node9"><a xlink:href="meshsmoother_8f.html#aa48c53bb4556b1a81cb8b716404f9a77" target="_top" xlink:title=" ">
<polygon fill="white" stroke="black" points="115.5,-38.5 115.5,-57.5 164.5,-57.5 164.5,-38.5 115.5,-38.5"/>
<text text-anchor="middle" x="140" y="-45.5" font-family="Helvetica,sans-Serif" font-size="10.00">x8toxm</text>
</a>
</g>
</g>
<!-- Node1&#45;&gt;Node26 -->
<g id="edge9" class="edge">
<title>Node1&#45;&gt;Node26</title>
<path fill="none" stroke="midnightblue" d="M45.19,-133.38C57.61,-118.2 83.3,-88.22 109,-67 110.53,-65.73 112.16,-64.49 113.82,-63.27"/>
<polygon fill="midnightblue" stroke="midnightblue" points="115.97,-66.04 122.29,-57.54 112.05,-60.25 115.97,-66.04"/>
</g>
<!-- Node27 -->
<g id="node10" class="node">
<title>Node27</title>
<g id="a_node10"><a xlink:href="meshsmoother_8f.html#a91ae54dbd00c38653b2a5f27da6a33f7" target="_top" xlink:title=" ">
<polygon fill="white" stroke="red" points="109,-0.5 109,-19.5 171,-19.5 171,-0.5 109,-0.5"/>
<text text-anchor="middle" x="140" y="-7.5" font-family="Helvetica,sans-Serif" font-size="10.00">xmctoxm1</text>
</a>
</g>
</g>
<!-- Node1&#45;&gt;Node27 -->
<g id="edge10" class="edge">
<title>Node1&#45;&gt;Node27</title>
<path fill="none" stroke="midnightblue" d="M41.68,-133.46C51.19,-112.56 76.2,-61.95 109,-29 110.09,-27.91 111.25,-26.85 112.46,-25.82"/>
<polygon fill="midnightblue" stroke="midnightblue" points="114.9,-28.37 120.89,-19.64 110.76,-22.73 114.9,-28.37"/>
</g>
<!-- Node3 -->
<g id="node3" class="node">
<title>Node3</title>
<g id="a_node3"><a xlink:href="comm__mpi_8f.html#af06ec29f06aac3f8809e19de2a7e8946" target="_top" xlink:title=" ">
<polygon fill="white" stroke="red" points="207,-228.5 207,-247.5 268,-247.5 268,-228.5 207,-228.5"/>
<text text-anchor="middle" x="237.5" y="-235.5" font-family="Helvetica,sans-Serif" font-size="10.00">dnekclock</text>
</a>
</g>
</g>
<!-- Node2&#45;&gt;Node3 -->
<g id="edge2" class="edge">
<title>Node2&#45;&gt;Node3</title>
<path fill="none" stroke="midnightblue" d="M159.41,-268.67C171.66,-263.8 188.1,-257.26 202.65,-251.47"/>
<polygon fill="midnightblue" stroke="midnightblue" points="204.36,-254.56 212.36,-247.61 201.77,-248.05 204.36,-254.56"/>
</g>
<!-- Node6&#45;&gt;Node3 -->
<g id="edge5" class="edge">
<title>Node6&#45;&gt;Node3</title>
<path fill="none" stroke="midnightblue" d="M157.63,-206.62C170.08,-211.57 187.53,-218.52 202.85,-224.61"/>
<polygon fill="midnightblue" stroke="midnightblue" points="201.95,-228.02 212.54,-228.47 204.54,-221.52 201.95,-228.02"/>
</g>
</g>
</svg>
