<?xml version="1.0" encoding="UTF-8" standalone="no"?>
<!DOCTYPE svg PUBLIC "-//W3C//DTD SVG 1.1//EN"
 "http://www.w3.org/Graphics/SVG/1.1/DTD/svg11.dtd">
<!-- Generated by graphviz version 2.46.0 (0)
 -->
<!-- Title: xmtox8 Pages: 1 -->
<svg width="397pt" height="256pt"
 viewBox="0.00 0.00 397.00 256.00" xmlns="http://www.w3.org/2000/svg" xmlns:xlink="http://www.w3.org/1999/xlink">
<g id="graph0" class="graph" transform="scale(1 1) rotate(0) translate(4 252)">
<title>xmtox8</title>
<polygon fill="white" stroke="transparent" points="-4,4 -4,-252 393,-252 393,4 -4,4"/>
<!-- Node1 -->
<g id="node1" class="node">
<title>Node1</title>
<g id="a_node1"><a xlink:title=" ">
<polygon fill="#bfbfbf" stroke="black" points="340,-114.5 340,-133.5 389,-133.5 389,-114.5 340,-114.5"/>
<text text-anchor="middle" x="364.5" y="-121.5" font-family="Helvetica,sans-Serif" font-size="10.00">xmtox8</text>
</a>
</g>
</g>
<!-- Node2 -->
<g id="node2" class="node">
<title>Node2</title>
<g id="a_node2"><a xlink:href="meshsmoother_8f.html#a5b748148b82033f97b563a7f71daf707" target="_top" xlink:title=" ">
<polygon fill="white" stroke="black" points="243.5,-228.5 243.5,-247.5 286.5,-247.5 286.5,-228.5 243.5,-228.5"/>
<text text-anchor="middle" x="265" y="-235.5" font-family="Helvetica,sans-Serif" font-size="10.00">disfun</text>
</a>
</g>
</g>
<!-- Node1&#45;&gt;Node2 -->
<g id="edge1" class="edge">
<title>Node1&#45;&gt;Node2</title>
<path fill="none" stroke="midnightblue" d="M354.22,-142.67C343.89,-162.12 325.77,-192.68 304,-214 298.31,-219.57 291.13,-224.51 284.54,-228.44"/>
<polygon fill="midnightblue" stroke="midnightblue" points="357.41,-144.11 358.88,-133.62 351.19,-140.9 357.41,-144.11"/>
</g>
<!-- Node3 -->
<g id="node3" class="node">
<title>Node3</title>
<g id="a_node3"><a xlink:href="meshsmoother_8f.html#a381ecddf77fc5669d3a8e246b65d1960" target="_top" xlink:title=" ">
<polygon fill="white" stroke="black" points="117,-133.5 117,-152.5 190,-152.5 190,-133.5 117,-133.5"/>
<text text-anchor="middle" x="153.5" y="-140.5" font-family="Helvetica,sans-Serif" font-size="10.00">smoothmesh</text>
</a>
</g>
</g>
<!-- Node1&#45;&gt;Node3 -->
<g id="edge13" class="edge">
<title>Node1&#45;&gt;Node3</title>
<path fill="none" stroke="midnightblue" d="M351.08,-141.76C340.38,-155.37 323.6,-173.13 304,-181 271.83,-193.92 259.64,-189.38 226,-181 204.04,-175.53 181.42,-161.91 167.66,-152.55"/>
<polygon fill="midnightblue" stroke="midnightblue" points="354.03,-143.66 357.2,-133.55 348.42,-139.48 354.03,-143.66"/>
</g>
<!-- Node5 -->
<g id="node5" class="node">
<title>Node5</title>
<g id="a_node5"><a xlink:href="meshsmoother_8f.html#ac387c6815e901c8c74390aebec7395b8" target="_top" xlink:title=" ">
<polygon fill="white" stroke="black" points="242,-152.5 242,-171.5 288,-171.5 288,-152.5 242,-152.5"/>
<text text-anchor="middle" x="265" y="-159.5" font-family="Helvetica,sans-Serif" font-size="10.00">fastlap</text>
</a>
</g>
</g>
<!-- Node1&#45;&gt;Node5 -->
<g id="edge4" class="edge">
<title>Node1&#45;&gt;Node5</title>
<path fill="none" stroke="midnightblue" d="M330.58,-136.83C316.57,-142.29 300.6,-148.51 288.05,-153.41"/>
<polygon fill="midnightblue" stroke="midnightblue" points="331.85,-140.09 339.9,-133.2 329.31,-133.57 331.85,-140.09"/>
</g>
<!-- Node6 -->
<g id="node6" class="node">
<title>Node6</title>
<g id="a_node6"><a xlink:href="meshsmoother_8f.html#ad082822d970b0e3fd8012485ae6b973d" target="_top" xlink:title=" ">
<polygon fill="white" stroke="black" points="237,-114.5 237,-133.5 293,-133.5 293,-114.5 237,-114.5"/>
<text text-anchor="middle" x="265" y="-121.5" font-family="Helvetica,sans-Serif" font-size="10.00">genmask</text>
</a>
</g>
</g>
<!-- Node1&#45;&gt;Node6 -->
<g id="edge6" class="edge">
<title>Node1&#45;&gt;Node6</title>
<path fill="none" stroke="midnightblue" d="M329.81,-124C317.84,-124 304.53,-124 293.18,-124"/>
<polygon fill="midnightblue" stroke="midnightblue" points="329.9,-127.5 339.9,-124 329.9,-120.5 329.9,-127.5"/>
</g>
<!-- Node7 -->
<g id="node7" class="node">
<title>Node7</title>
<g id="a_node7"><a xlink:href="meshsmoother_8f.html#a91e45b9d06a0083a4a55ba5451d2910b" target="_top" xlink:title=" ">
<polygon fill="white" stroke="black" points="231.5,-76.5 231.5,-95.5 298.5,-95.5 298.5,-76.5 231.5,-76.5"/>
<text text-anchor="middle" x="265" y="-83.5" font-family="Helvetica,sans-Serif" font-size="10.00">masklayers</text>
</a>
</g>
</g>
<!-- Node1&#45;&gt;Node7 -->
<g id="edge8" class="edge">
<title>Node1&#45;&gt;Node7</title>
<path fill="none" stroke="midnightblue" d="M330.29,-111.06C317.22,-105.96 302.47,-100.21 290.4,-95.51"/>
<polygon fill="midnightblue" stroke="midnightblue" points="329.31,-114.43 339.9,-114.8 331.85,-107.91 329.31,-114.43"/>
</g>
<!-- Node8 -->
<g id="node8" class="node">
<title>Node8</title>
<g id="a_node8"><a xlink:href="meshsmoother_8f.html#aad9a124690a3cf5b34ac933e6399f2e0" target="_top" xlink:title=" ">
<polygon fill="white" stroke="black" points="244.5,-38.5 244.5,-57.5 285.5,-57.5 285.5,-38.5 244.5,-38.5"/>
<text text-anchor="middle" x="265" y="-45.5" font-family="Helvetica,sans-Serif" font-size="10.00">optcg</text>
</a>
</g>
</g>
<!-- Node1&#45;&gt;Node8 -->
<g id="edge9" class="edge">
<title>Node1&#45;&gt;Node8</title>
<path fill="none" stroke="midnightblue" d="M347.94,-106.54C336.57,-94.44 320.34,-78.51 304,-67 298.33,-63.01 291.7,-59.38 285.58,-56.4"/>
<polygon fill="midnightblue" stroke="midnightblue" points="345.64,-109.2 354.98,-114.19 350.79,-104.46 345.64,-109.2"/>
</g>
<!-- Node9 -->
<g id="node9" class="node">
<title>Node9</title>
<g id="a_node9"><a xlink:href="meshsmoother_8f.html#a4d85ae30339e92a8bcdb27b2735dc063" target="_top" xlink:title=" ">
<polygon fill="white" stroke="black" points="226,-0.5 226,-19.5 304,-19.5 304,-0.5 226,-0.5"/>
<text text-anchor="middle" x="265" y="-7.5" font-family="Helvetica,sans-Serif" font-size="10.00">restbackmesh</text>
</a>
</g>
</g>
<!-- Node1&#45;&gt;Node9 -->
<g id="edge11" class="edge">
<title>Node1&#45;&gt;Node9</title>
<path fill="none" stroke="midnightblue" d="M355.47,-105.07C345.82,-84.2 327.91,-50.72 304,-29 299.96,-25.33 295.08,-22.19 290.18,-19.59"/>
<polygon fill="midnightblue" stroke="midnightblue" points="352.38,-106.73 359.64,-114.45 358.77,-103.89 352.38,-106.73"/>
</g>
<!-- Node2&#45;&gt;Node3 -->
<g id="edge2" class="edge">
<title>Node2&#45;&gt;Node3</title>
<path fill="none" stroke="midnightblue" d="M238.55,-223.02C234.25,-220.18 229.91,-217.12 226,-214 201.37,-194.38 176.03,-167.25 163.15,-152.87"/>
<polygon fill="midnightblue" stroke="midnightblue" points="236.87,-226.09 247.19,-228.47 240.61,-220.17 236.87,-226.09"/>
</g>
<!-- Node4 -->
<g id="node4" class="node">
<title>Node4</title>
<g id="a_node4"><a xlink:href="meshsmoother_8f.html#a2362d6f321c0da65f64a0702ecf98b10" target="_top" xlink:title=" ">
<polygon fill="white" stroke="black" points="0,-133.5 0,-152.5 81,-152.5 81,-133.5 0,-133.5"/>
<text text-anchor="middle" x="40.5" y="-140.5" font-family="Helvetica,sans-Serif" font-size="10.00">meshsmoother</text>
</a>
</g>
</g>
<!-- Node3&#45;&gt;Node4 -->
<g id="edge3" class="edge">
<title>Node3&#45;&gt;Node4</title>
<path fill="none" stroke="midnightblue" d="M106.61,-143C98.11,-143 89.3,-143 81.01,-143"/>
<polygon fill="midnightblue" stroke="midnightblue" points="106.77,-146.5 116.77,-143 106.77,-139.5 106.77,-146.5"/>
</g>
<!-- Node5&#45;&gt;Node3 -->
<g id="edge5" class="edge">
<title>Node5&#45;&gt;Node3</title>
<path fill="none" stroke="midnightblue" d="M231.92,-156.43C218.9,-154.17 203.81,-151.56 190.42,-149.23"/>
<polygon fill="midnightblue" stroke="midnightblue" points="231.39,-159.89 241.84,-158.16 232.59,-153 231.39,-159.89"/>
</g>
<!-- Node6&#45;&gt;Node3 -->
<g id="edge7" class="edge">
<title>Node6&#45;&gt;Node3</title>
<path fill="none" stroke="midnightblue" d="M226.93,-130.43C215.12,-132.48 202.07,-134.75 190.35,-136.78"/>
<polygon fill="midnightblue" stroke="midnightblue" points="227.68,-133.85 236.93,-128.7 226.48,-126.96 227.68,-133.85"/>
</g>
<!-- Node8&#45;&gt;Node3 -->
<g id="edge10" class="edge">
<title>Node8&#45;&gt;Node3</title>
<path fill="none" stroke="midnightblue" d="M235.23,-61.01C232.01,-62.86 228.87,-64.87 226,-67 199.26,-86.9 174.02,-117.46 161.94,-133.07"/>
<polygon fill="midnightblue" stroke="midnightblue" points="237.08,-63.99 244.29,-56.22 233.81,-57.79 237.08,-63.99"/>
</g>
<!-- Node9&#45;&gt;Node3 -->
<g id="edge12" class="edge">
<title>Node9&#45;&gt;Node3</title>
<path fill="none" stroke="midnightblue" d="M230.86,-25.1C229.15,-26.32 227.52,-27.62 226,-29 191.58,-60.25 167.47,-111.8 158.44,-133.21"/>
<polygon fill="midnightblue" stroke="midnightblue" points="233.13,-27.81 239.82,-19.59 229.47,-21.84 233.13,-27.81"/>
</g>
</g>
</svg>
