<?xml version="1.0" encoding="UTF-8" standalone="no"?>
<!DOCTYPE svg PUBLIC "-//W3C//DTD SVG 1.1//EN"
 "http://www.w3.org/Graphics/SVG/1.1/DTD/svg11.dtd">
<!-- Generated by graphviz version 2.46.0 (0)
 -->
<!-- Title: mpi_bcast Pages: 1 -->
<svg width="356pt" height="256pt"
 viewBox="0.00 0.00 356.00 256.00" xmlns="http://www.w3.org/2000/svg" xmlns:xlink="http://www.w3.org/1999/xlink">
<g id="graph0" class="graph" transform="scale(1 1) rotate(0) translate(4 252)">
<title>mpi_bcast</title>
<polygon fill="white" stroke="transparent" points="-4,4 -4,-252 352,-252 352,4 -4,4"/>
<!-- Node1 -->
<g id="node1" class="node">
<title>Node1</title>
<g id="a_node1"><a xlink:title=" ">
<polygon fill="#bfbfbf" stroke="black" points="286,-95.5 286,-114.5 348,-114.5 348,-95.5 286,-95.5"/>
<text text-anchor="middle" x="317" y="-102.5" font-family="Helvetica,sans-Serif" font-size="10.00">mpi_bcast</text>
</a>
</g>
</g>
<!-- Node2 -->
<g id="node2" class="node">
<title>Node2</title>
<g id="a_node2"><a xlink:href="comm__mpi_8f.html#ae425c1deb2e82d2007c97e1c4be990c8" target="_top" xlink:title=" ">
<polygon fill="white" stroke="red" points="161.5,-190.5 161.5,-209.5 202.5,-209.5 202.5,-190.5 161.5,-190.5"/>
<text text-anchor="middle" x="182" y="-197.5" font-family="Helvetica,sans-Serif" font-size="10.00">bcast</text>
</a>
</g>
</g>
<!-- Node1&#45;&gt;Node2 -->
<g id="edge1" class="edge">
<title>Node1&#45;&gt;Node2</title>
<path fill="none" stroke="midnightblue" d="M304.77,-123.17C293.14,-140.51 273.4,-166.13 250,-181 235.61,-190.14 216.75,-194.98 202.7,-197.48"/>
<polygon fill="midnightblue" stroke="midnightblue" points="307.88,-124.81 310.37,-114.51 302,-121.01 307.88,-124.81"/>
</g>
<!-- Node156 -->
<g id="node6" class="node">
<title>Node156</title>
<g id="a_node6"><a xlink:href="visit_8f.html#a59f72e7996632499a1ab4c82e04cc9cf" target="_top" xlink:title=" ">
<polygon fill="white" stroke="black" points="126,-152.5 126,-171.5 238,-171.5 238,-152.5 126,-152.5"/>
<text text-anchor="middle" x="182" y="-159.5" font-family="Helvetica,sans-Serif" font-size="10.00">processvisitcommand</text>
</a>
</g>
</g>
<!-- Node1&#45;&gt;Node156 -->
<g id="edge5" class="edge">
<title>Node1&#45;&gt;Node156</title>
<path fill="none" stroke="midnightblue" d="M293.11,-120.04C280.73,-127.7 264.95,-136.69 250,-143 241.42,-146.62 231.94,-149.78 222.88,-152.43"/>
<polygon fill="midnightblue" stroke="midnightblue" points="295.27,-122.82 301.85,-114.52 291.53,-116.91 295.27,-122.82"/>
</g>
<!-- Node157 -->
<g id="node7" class="node">
<title>Node157</title>
<g id="a_node7"><a xlink:href="visit_8f.html#a16c8f91a6006506964171a70d3a1f08e" target="_top" xlink:title=" ">
<polygon fill="white" stroke="red" points="149,-114.5 149,-133.5 215,-133.5 215,-114.5 149,-114.5"/>
<text text-anchor="middle" x="182" y="-121.5" font-family="Helvetica,sans-Serif" font-size="10.00">visit_check</text>
</a>
</g>
</g>
<!-- Node1&#45;&gt;Node157 -->
<g id="edge6" class="edge">
<title>Node1&#45;&gt;Node157</title>
<path fill="none" stroke="midnightblue" d="M275.78,-110.75C256.45,-113.51 233.58,-116.77 215.38,-119.37"/>
<polygon fill="midnightblue" stroke="midnightblue" points="276.42,-114.19 285.82,-109.31 275.43,-107.26 276.42,-114.19"/>
</g>
<!-- Node162 -->
<g id="node8" class="node">
<title>Node162</title>
<g id="a_node8"><a xlink:href="visit_8f.html#af89acfdc1b609fcc0f1ad13bb2fe908b" target="_top" xlink:title=" ">
<polygon fill="white" stroke="black" points="121,-76.5 121,-95.5 243,-95.5 243,-76.5 121,-76.5"/>
<text text-anchor="middle" x="182" y="-83.5" font-family="Helvetica,sans-Serif" font-size="10.00">visitbroadcastintfunction</text>
</a>
</g>
</g>
<!-- Node1&#45;&gt;Node162 -->
<g id="edge7" class="edge">
<title>Node1&#45;&gt;Node162</title>
<path fill="none" stroke="midnightblue" d="M275.91,-99.27C265.61,-97.8 254.31,-96.19 243.24,-94.61"/>
<polygon fill="midnightblue" stroke="midnightblue" points="275.43,-102.74 285.82,-100.69 276.42,-95.81 275.43,-102.74"/>
</g>
<!-- Node163 -->
<g id="node9" class="node">
<title>Node163</title>
<g id="a_node9"><a xlink:href="visit_8f.html#aec3b84dfdc5ea42db3c7546f55bee3e5" target="_top" xlink:title=" ">
<polygon fill="white" stroke="black" points="114,-38.5 114,-57.5 250,-57.5 250,-38.5 114,-38.5"/>
<text text-anchor="middle" x="182" y="-45.5" font-family="Helvetica,sans-Serif" font-size="10.00">visitbroadcaststringfunction</text>
</a>
</g>
</g>
<!-- Node1&#45;&gt;Node163 -->
<g id="edge8" class="edge">
<title>Node1&#45;&gt;Node163</title>
<path fill="none" stroke="midnightblue" d="M293.11,-89.96C280.73,-82.3 264.95,-73.31 250,-67 241.42,-63.38 231.94,-60.22 222.88,-57.57"/>
<polygon fill="midnightblue" stroke="midnightblue" points="291.53,-93.09 301.85,-95.48 295.27,-87.18 291.53,-93.09"/>
</g>
<!-- Node164 -->
<g id="node10" class="node">
<title>Node164</title>
<g id="a_node10"><a xlink:href="visit_8f.html#aec9339b38155cc9fe23d5db49baa3521" target="_top" xlink:title=" ">
<polygon fill="white" stroke="black" points="118,-0.5 118,-19.5 246,-19.5 246,-0.5 118,-0.5"/>
<text text-anchor="middle" x="182" y="-7.5" font-family="Helvetica,sans-Serif" font-size="10.00">visitslaveprocesscallback</text>
</a>
</g>
</g>
<!-- Node1&#45;&gt;Node164 -->
<g id="edge9" class="edge">
<title>Node1&#45;&gt;Node164</title>
<path fill="none" stroke="midnightblue" d="M304.77,-86.83C293.14,-69.49 273.4,-43.87 250,-29 243.88,-25.11 236.94,-22 229.92,-19.52"/>
<polygon fill="midnightblue" stroke="midnightblue" points="302,-88.99 310.37,-95.49 307.88,-85.19 302,-88.99"/>
</g>
<!-- Node3 -->
<g id="node3" class="node">
<title>Node3</title>
<g id="a_node3"><a xlink:href="navier5_8f.html#a78b917d37cf85f367e5decac2f8155cd" target="_top" xlink:title=" ">
<polygon fill="white" stroke="black" points="0,-228.5 0,-247.5 78,-247.5 78,-228.5 0,-228.5"/>
<text text-anchor="middle" x="39" y="-235.5" font-family="Helvetica,sans-Serif" font-size="10.00">auto_averager</text>
</a>
</g>
</g>
<!-- Node2&#45;&gt;Node3 -->
<g id="edge2" class="edge">
<title>Node2&#45;&gt;Node3</title>
<path fill="none" stroke="midnightblue" d="M151.56,-207.94C129.4,-213.91 98.95,-222.11 75.46,-228.44"/>
<polygon fill="midnightblue" stroke="midnightblue" points="152.65,-211.27 161.39,-205.28 150.83,-204.51 152.65,-211.27"/>
</g>
<!-- Node4 -->
<g id="node4" class="node">
<title>Node4</title>
<g id="a_node4"><a xlink:href="reader__par_8f.html#a07c1cfa20f720b6b7aef61ba5bd2c781" target="_top" xlink:title=" ">
<polygon fill="white" stroke="red" points="5,-190.5 5,-209.5 73,-209.5 73,-190.5 5,-190.5"/>
<text text-anchor="middle" x="39" y="-197.5" font-family="Helvetica,sans-Serif" font-size="10.00">bcastparam</text>
</a>
</g>
</g>
<!-- Node2&#45;&gt;Node4 -->
<g id="edge3" class="edge">
<title>Node2&#45;&gt;Node4</title>
<path fill="none" stroke="midnightblue" d="M151.27,-200C128.44,-200 96.92,-200 73.25,-200"/>
<polygon fill="midnightblue" stroke="midnightblue" points="151.39,-203.5 161.39,-200 151.39,-196.5 151.39,-203.5"/>
</g>
<!-- Node9 -->
<g id="node5" class="node">
<title>Node9</title>
<g id="a_node5"><a xlink:href="postpro_8f.html#a2f6c2d9733e0eb8ffc45f8b1d9499d76" target="_top" xlink:title=" ">
<polygon fill="white" stroke="red" points="12,-152.5 12,-171.5 66,-171.5 66,-152.5 12,-152.5"/>
<text text-anchor="middle" x="39" y="-159.5" font-family="Helvetica,sans-Serif" font-size="10.00">buffer_in</text>
</a>
</g>
</g>
<!-- Node2&#45;&gt;Node9 -->
<g id="edge4" class="edge">
<title>Node2&#45;&gt;Node9</title>
<path fill="none" stroke="midnightblue" d="M151.64,-192.09C126.42,-185.29 90.39,-175.58 66.15,-169.05"/>
<polygon fill="midnightblue" stroke="midnightblue" points="150.83,-195.49 161.39,-194.72 152.65,-188.73 150.83,-195.49"/>
</g>
</g>
</svg>
