<?xml version="1.0" encoding="UTF-8" standalone="no"?>
<!DOCTYPE svg PUBLIC "-//W3C//DTD SVG 1.1//EN"
 "http://www.w3.org/Graphics/SVG/1.1/DTD/svg11.dtd">
<!-- Generated by graphviz version 2.46.0 (0)
 -->
<!-- Title: mpi_finalize Pages: 1 -->
<svg width="352pt" height="180pt"
 viewBox="0.00 0.00 352.00 180.00" xmlns="http://www.w3.org/2000/svg" xmlns:xlink="http://www.w3.org/1999/xlink">
<g id="graph0" class="graph" transform="scale(1 1) rotate(0) translate(4 176)">
<title>mpi_finalize</title>
<polygon fill="white" stroke="transparent" points="-4,4 -4,-176 348,-176 348,4 -4,4"/>
<!-- Node1 -->
<g id="node1" class="node">
<title>Node1</title>
<g id="a_node1"><a xlink:title=" ">
<polygon fill="#bfbfbf" stroke="black" points="276,-76.5 276,-95.5 344,-95.5 344,-76.5 276,-76.5"/>
<text text-anchor="middle" x="310" y="-83.5" font-family="Helvetica,sans-Serif" font-size="10.00">mpi_finalize</text>
</a>
</g>
</g>
<!-- Node2 -->
<g id="node2" class="node">
<title>Node2</title>
<g id="a_node2"><a xlink:href="f-igs_8f.html#a9b8c2a3c8530b1d88f3be7a85ae50f80" target="_top" xlink:title=" ">
<polygon fill="white" stroke="black" points="199,-95.5 199,-114.5 231,-114.5 231,-95.5 199,-95.5"/>
<text text-anchor="middle" x="215" y="-102.5" font-family="Helvetica,sans-Serif" font-size="10.00">figs</text>
</a>
</g>
</g>
<!-- Node1&#45;&gt;Node2 -->
<g id="edge1" class="edge">
<title>Node1&#45;&gt;Node2</title>
<path fill="none" stroke="midnightblue" d="M266.09,-94.77C253.62,-97.31 240.8,-99.93 231.25,-101.88"/>
<polygon fill="midnightblue" stroke="midnightblue" points="266.85,-98.18 275.95,-92.75 265.45,-91.32 266.85,-98.18"/>
</g>
<!-- Node3 -->
<g id="node3" class="node">
<title>Node3</title>
<g id="a_node3"><a xlink:href="comm__mpi_8f.html#acc8803a3787828530843112e0c48941b" target="_top" xlink:title=" ">
<polygon fill="white" stroke="black" points="190,-57.5 190,-76.5 240,-76.5 240,-57.5 190,-57.5"/>
<text text-anchor="middle" x="215" y="-64.5" font-family="Helvetica,sans-Serif" font-size="10.00">nek_die</text>
</a>
</g>
</g>
<!-- Node1&#45;&gt;Node3 -->
<g id="edge2" class="edge">
<title>Node1&#45;&gt;Node3</title>
<path fill="none" stroke="midnightblue" d="M266.06,-77.23C257.17,-75.41 248.1,-73.56 240.17,-71.94"/>
<polygon fill="midnightblue" stroke="midnightblue" points="265.45,-80.68 275.95,-79.25 266.85,-73.82 265.45,-80.68"/>
</g>
<!-- Node4 -->
<g id="node4" class="node">
<title>Node4</title>
<g id="a_node4"><a xlink:href="byte_8c.html#a2da8eeb074dfd3ffbfb3e9a4d301cda4" target="_top" xlink:title=" ">
<polygon fill="white" stroke="red" points="116,-76.5 116,-95.5 151,-95.5 151,-76.5 116,-76.5"/>
<text text-anchor="middle" x="133.5" y="-83.5" font-family="Helvetica,sans-Serif" font-size="10.00">exitt</text>
</a>
</g>
</g>
<!-- Node3&#45;&gt;Node4 -->
<g id="edge3" class="edge">
<title>Node3&#45;&gt;Node4</title>
<path fill="none" stroke="midnightblue" d="M179.74,-75.19C169.9,-77.54 159.61,-80 151.34,-81.98"/>
<polygon fill="midnightblue" stroke="midnightblue" points="180.8,-78.53 189.72,-72.8 179.18,-71.72 180.8,-78.53"/>
</g>
<!-- Node513 -->
<g id="node10" class="node">
<title>Node513</title>
<g id="a_node10"><a xlink:href="comm__mpi_8f.html#a7c71e890279f4933a841a2d97c7de4bd" target="_top" xlink:title=" ">
<polygon fill="white" stroke="red" points="113,-38.5 113,-57.5 154,-57.5 154,-38.5 113,-38.5"/>
<text text-anchor="middle" x="133.5" y="-45.5" font-family="Helvetica,sans-Serif" font-size="10.00">exitt0</text>
</a>
</g>
</g>
<!-- Node3&#45;&gt;Node513 -->
<g id="edge9" class="edge">
<title>Node3&#45;&gt;Node513</title>
<path fill="none" stroke="midnightblue" d="M179.71,-58.8C170.96,-56.71 161.84,-54.53 154.11,-52.69"/>
<polygon fill="midnightblue" stroke="midnightblue" points="179.18,-62.28 189.72,-61.2 180.8,-55.47 179.18,-62.28"/>
</g>
<!-- Node5 -->
<g id="node5" class="node">
<title>Node5</title>
<g id="a_node5"><a xlink:href="genxyz_8f.html#a3e5af3cbd83d806231beb3b9d7190e75" target="_top" xlink:title=" ">
<polygon fill="white" stroke="red" points="18,-152.5 18,-171.5 59,-171.5 59,-152.5 18,-152.5"/>
<text text-anchor="middle" x="38.5" y="-159.5" font-family="Helvetica,sans-Serif" font-size="10.00">arcsrf</text>
</a>
</g>
</g>
<!-- Node4&#45;&gt;Node5 -->
<g id="edge4" class="edge">
<title>Node4&#45;&gt;Node5</title>
<path fill="none" stroke="midnightblue" d="M118.18,-103.51C107.66,-115.63 92.55,-131.57 77,-143 71.59,-146.98 65.22,-150.55 59.29,-153.49"/>
<polygon fill="midnightblue" stroke="midnightblue" points="120.89,-105.73 124.68,-95.84 115.55,-101.21 120.89,-105.73"/>
</g>
<!-- Node22 -->
<g id="node6" class="node">
<title>Node22</title>
<g id="a_node6"><a xlink:href="navier5_8f.html#a709e553d5ae6d0ef58b983805f0be486" target="_top" xlink:title=" ">
<polygon fill="white" stroke="black" points="15,-114.5 15,-133.5 62,-133.5 62,-114.5 15,-114.5"/>
<text text-anchor="middle" x="38.5" y="-121.5" font-family="Helvetica,sans-Serif" font-size="10.00">avg_all</text>
</a>
</g>
</g>
<!-- Node4&#45;&gt;Node22 -->
<g id="edge5" class="edge">
<title>Node4&#45;&gt;Node22</title>
<path fill="none" stroke="midnightblue" d="M106.4,-96.67C92.52,-102.34 75.61,-109.24 62.27,-114.7"/>
<polygon fill="midnightblue" stroke="midnightblue" points="107.94,-99.82 115.87,-92.79 105.29,-93.34 107.94,-99.82"/>
</g>
<!-- Node23 -->
<g id="node7" class="node">
<title>Node23</title>
<g id="a_node7"><a xlink:href="avm_8f.html#a9e1209421d37bc600934cdb4974e3437" target="_top" xlink:title=" ">
<polygon fill="white" stroke="black" points="9,-76.5 9,-95.5 68,-95.5 68,-76.5 9,-76.5"/>
<text text-anchor="middle" x="38.5" y="-83.5" font-family="Helvetica,sans-Serif" font-size="10.00">avm_vdiff</text>
</a>
</g>
</g>
<!-- Node4&#45;&gt;Node23 -->
<g id="edge6" class="edge">
<title>Node4&#45;&gt;Node23</title>
<path fill="none" stroke="midnightblue" d="M105.73,-86C93.92,-86 80.03,-86 68.03,-86"/>
<polygon fill="midnightblue" stroke="midnightblue" points="105.87,-89.5 115.87,-86 105.87,-82.5 105.87,-89.5"/>
</g>
<!-- Node24 -->
<g id="node8" class="node">
<title>Node24</title>
<g id="a_node8"><a xlink:href="reader__re2_8f.html#ae148b6a074a40d9a6959f82d066d1927" target="_top" xlink:title=" ">
<polygon fill="white" stroke="red" points="6.5,-38.5 6.5,-57.5 70.5,-57.5 70.5,-38.5 6.5,-38.5"/>
<text text-anchor="middle" x="38.5" y="-45.5" font-family="Helvetica,sans-Serif" font-size="10.00">bin_rd1_bc</text>
</a>
</g>
</g>
<!-- Node4&#45;&gt;Node24 -->
<g id="edge7" class="edge">
<title>Node4&#45;&gt;Node24</title>
<path fill="none" stroke="midnightblue" d="M106.54,-75.39C92.87,-69.81 76.25,-63.01 62.97,-57.59"/>
<polygon fill="midnightblue" stroke="midnightblue" points="105.29,-78.66 115.87,-79.21 107.94,-72.18 105.29,-78.66"/>
</g>
<!-- Node28 -->
<g id="node9" class="node">
<title>Node28</title>
<g id="a_node9"><a xlink:href="reader__re2_8f.html#a02a2663bd073292a0684da670c1bb250" target="_top" xlink:title=" ">
<polygon fill="white" stroke="red" points="0,-0.5 0,-19.5 77,-19.5 77,-0.5 0,-0.5"/>
<text text-anchor="middle" x="38.5" y="-7.5" font-family="Helvetica,sans-Serif" font-size="10.00">bin_rd1_curve</text>
</a>
</g>
</g>
<!-- Node4&#45;&gt;Node28 -->
<g id="edge8" class="edge">
<title>Node4&#45;&gt;Node28</title>
<path fill="none" stroke="midnightblue" d="M115.34,-69.36C114.55,-68.56 113.76,-67.77 113,-67 96.67,-50.43 95.65,-42.91 77,-29 72.32,-25.51 66.9,-22.35 61.67,-19.64"/>
<polygon fill="midnightblue" stroke="midnightblue" points="112.92,-71.89 122.5,-76.41 117.83,-66.9 112.92,-71.89"/>
</g>
</g>
</svg>
