<?xml version="1.0" encoding="UTF-8" standalone="no"?>
<!DOCTYPE svg PUBLIC "-//W3C//DTD SVG 1.1//EN"
 "http://www.w3.org/Graphics/SVG/1.1/DTD/svg11.dtd">
<!-- Generated by graphviz version 2.46.0 (0)
 -->
<!-- Title: mpi_reduce_integer8 Pages: 1 -->
<!--zoomable 104 -->
<svg id="main" version="1.1" xmlns="http://www.w3.org/2000/svg" xmlns:xlink="http://www.w3.org/1999/xlink" xml:space="preserve" onload="init(evt)">
<style type="text/css"><![CDATA[
.edge:hover path { stroke: red; }
.edge:hover polygon { stroke: red; fill: red; }
]]></style>
<script type="text/javascript"><![CDATA[
var edges = document.getElementsByTagName('g');
if (edges && edges.length) {
  for (var i=0;i<edges.length;i++) {
    if (edges[i].id.substr(0,4)=='edge') {
      edges[i].setAttribute('class','edge');
    }
  }
}
]]></script>
        <defs>
                <circle id="rim" cx="0" cy="0" r="7"/>
                <circle id="rim2" cx="0" cy="0" r="3.5"/>
                <g id="zoomPlus">
                        <use xlink:href="#rim" fill="#404040">
                                <set attributeName="fill" to="#808080" begin="zoomplus.mouseover" end="zoomplus.mouseout"/>
                        </use>
                        <path d="M-4,0h8M0,-4v8" fill="none" stroke="white" stroke-width="1.5" pointer-events="none"/>
                </g>
                <g id="zoomMin">
                        <use xlink:href="#rim" fill="#404040">
                                <set attributeName="fill" to="#808080" begin="zoomminus.mouseover" end="zoomminus.mouseout"/>
                        </use>
                        <path d="M-4,0h8" fill="none" stroke="white" stroke-width="1.5" pointer-events="none"/>
                </g>
                <g id="dirArrow">
                        <path fill="none" stroke="white" stroke-width="1.5" d="M0,-3.0v7 M-2.5,-0.5L0,-3.0L2.5,-0.5"/>
                </g>
               <g id="resetDef">
                       <use xlink:href="#rim2" fill="#404040">
                               <set attributeName="fill" to="#808080" begin="reset.mouseover" end="reset.mouseout"/>
                       </use>
               </g>
        </defs>

<script type="text/javascript">
var viewWidth = 605;
var viewHeight = 104;
var sectionId = 'dynsection-26';
</script>
<script xlink:href="svgpan.js"/>
<svg id="graph" class="graph">
<g id="viewport">
<title>mpi_reduce_integer8</title>
<polygon fill="white" stroke="transparent" points="-4,4 -4,-100 601,-100 601,4 -4,4"/>
<!-- Node1 -->
<g id="node1" class="node">
<title>Node1</title>
<g id="a_node1"><a xlink:title=" ">
<polygon fill="#bfbfbf" stroke="black" points="490,-38.5 490,-57.5 597,-57.5 597,-38.5 490,-38.5"/>
<text text-anchor="middle" x="543.5" y="-45.5" font-family="Helvetica,sans-Serif" font-size="10.00">mpi_reduce_integer8</text>
</a>
</g>
</g>
<!-- Node2 -->
<g id="node2" class="node">
<title>Node2</title>
<g id="a_node2"><a xlink:href="mpi__dummy_8f.html#acd9229b5fb6a4d16f9917a5b5c2f0909" target="_top" xlink:title=" ">
<polygon fill="white" stroke="black" points="377,-38.5 377,-57.5 454,-57.5 454,-38.5 377,-38.5"/>
<text text-anchor="middle" x="415.5" y="-45.5" font-family="Helvetica,sans-Serif" font-size="10.00">mpi_allreduce</text>
</a>
</g>
</g>
<!-- Node1&#45;&gt;Node2 -->
<g id="edge1" class="edge">
<title>Node1&#45;&gt;Node2</title>
<path fill="none" stroke="midnightblue" d="M479.59,-48C470.85,-48 462.12,-48 454.05,-48"/>
<polygon fill="midnightblue" stroke="midnightblue" points="479.79,-51.5 489.79,-48 479.79,-44.5 479.79,-51.5"/>
</g>
<!-- Node3 -->
<g id="node3" class="node">
<title>Node3</title>
<g id="a_node3"><a xlink:href="comm__mpi_8f.html#a3f652605d55796462e959d17b5a9612b" target="_top" xlink:title=" ">
<polygon fill="white" stroke="black" points="305,-76.5 305,-95.5 337,-95.5 337,-76.5 305,-76.5"/>
<text text-anchor="middle" x="321" y="-83.5" font-family="Helvetica,sans-Serif" font-size="10.00">gop</text>
</a>
</g>
</g>
<!-- Node2&#45;&gt;Node3 -->
<g id="edge2" class="edge">
<title>Node2&#45;&gt;Node3</title>
<path fill="none" stroke="midnightblue" d="M381.59,-61.52C366.45,-67.74 349.23,-74.81 337.21,-79.75"/>
<polygon fill="midnightblue" stroke="midnightblue" points="383.24,-64.63 391.16,-57.59 380.58,-58.15 383.24,-64.63"/>
</g>
<!-- Node4 -->
<g id="node4" class="node">
<title>Node4</title>
<g id="a_node4"><a xlink:href="comm__mpi_8f.html#af260c1a2fb7cc8a919bbf5d01e83b74c" target="_top" xlink:title=" ">
<polygon fill="white" stroke="black" points="301,-38.5 301,-57.5 341,-57.5 341,-38.5 301,-38.5"/>
<text text-anchor="middle" x="321" y="-45.5" font-family="Helvetica,sans-Serif" font-size="10.00">i8gop</text>
</a>
</g>
</g>
<!-- Node2&#45;&gt;Node4 -->
<g id="edge3" class="edge">
<title>Node2&#45;&gt;Node4</title>
<path fill="none" stroke="midnightblue" d="M366.67,-48C357.59,-48 348.6,-48 341.08,-48"/>
<polygon fill="midnightblue" stroke="midnightblue" points="366.88,-51.5 376.88,-48 366.88,-44.5 366.88,-51.5"/>
</g>
<!-- Node12 -->
<g id="node10" class="node">
<title>Node12</title>
<g id="a_node10"><a xlink:href="comm__mpi_8f.html#a2e339eee45a784b56cbc42c452263761" target="_top" xlink:title=" ">
<polygon fill="white" stroke="black" points="303.5,-0.5 303.5,-19.5 338.5,-19.5 338.5,-0.5 303.5,-0.5"/>
<text text-anchor="middle" x="321" y="-7.5" font-family="Helvetica,sans-Serif" font-size="10.00">igop</text>
</a>
</g>
</g>
<!-- Node2&#45;&gt;Node12 -->
<g id="edge9" class="edge">
<title>Node2&#45;&gt;Node12</title>
<path fill="none" stroke="midnightblue" d="M381.9,-34.61C367.27,-28.6 350.64,-21.77 338.62,-16.83"/>
<polygon fill="midnightblue" stroke="midnightblue" points="380.58,-37.85 391.16,-38.41 383.24,-31.37 380.58,-37.85"/>
</g>
<!-- Node5 -->
<g id="node5" class="node">
<title>Node5</title>
<g id="a_node5"><a xlink:href="math_8f.html#a929bc29b7ccee08da42a14cb00ccab1f" target="_top" xlink:title=" ">
<polygon fill="white" stroke="black" points="215,-57.5 215,-76.5 265,-76.5 265,-57.5 215,-57.5"/>
<text text-anchor="middle" x="240" y="-64.5" font-family="Helvetica,sans-Serif" font-size="10.00">i8glmax</text>
</a>
</g>
</g>
<!-- Node4&#45;&gt;Node5 -->
<g id="edge4" class="edge">
<title>Node4&#45;&gt;Node5</title>
<path fill="none" stroke="midnightblue" d="M290.95,-54.99C282.43,-57.04 273.21,-59.25 265.04,-61.22"/>
<polygon fill="midnightblue" stroke="midnightblue" points="291.97,-58.34 300.88,-52.6 290.34,-51.53 291.97,-58.34"/>
</g>
<!-- Node6 -->
<g id="node6" class="node">
<title>Node6</title>
<g id="a_node6"><a xlink:href="math_8f.html#a8cd712001d12f5f4a00ef98937109e47" target="_top" xlink:title=" ">
<polygon fill="white" stroke="black" points="215,-19.5 215,-38.5 265,-38.5 265,-19.5 215,-19.5"/>
<text text-anchor="middle" x="240" y="-26.5" font-family="Helvetica,sans-Serif" font-size="10.00">i8glsum</text>
</a>
</g>
</g>
<!-- Node4&#45;&gt;Node6 -->
<g id="edge5" class="edge">
<title>Node4&#45;&gt;Node6</title>
<path fill="none" stroke="midnightblue" d="M290.95,-41.01C282.43,-38.96 273.21,-36.75 265.04,-34.78"/>
<polygon fill="midnightblue" stroke="midnightblue" points="290.34,-44.47 300.88,-43.4 291.97,-37.66 290.34,-44.47"/>
</g>
<!-- Node7 -->
<g id="node7" class="node">
<title>Node7</title>
<g id="a_node7"><a xlink:href="drive2_8f.html#ad7dcf95029f223c6def3ab96e6285330" target="_top" xlink:title=" ">
<polygon fill="white" stroke="black" points="110.5,-38.5 110.5,-57.5 154.5,-57.5 154.5,-38.5 110.5,-38.5"/>
<text text-anchor="middle" x="132.5" y="-45.5" font-family="Helvetica,sans-Serif" font-size="10.00">dofcnt</text>
</a>
</g>
</g>
<!-- Node6&#45;&gt;Node7 -->
<g id="edge6" class="edge">
<title>Node6&#45;&gt;Node7</title>
<path fill="none" stroke="midnightblue" d="M204.95,-35.13C188.44,-38.11 169.12,-41.59 154.73,-44.18"/>
<polygon fill="midnightblue" stroke="midnightblue" points="205.57,-38.58 214.8,-33.36 204.33,-31.69 205.57,-38.58"/>
</g>
<!-- Node10 -->
<g id="node9" class="node">
<title>Node10</title>
<g id="a_node9"><a xlink:href="lb__setqvol_8f.html#aeb2fee7160f5d8a7246d5814ac1ac517" target="_top" xlink:title=" ">
<polygon fill="white" stroke="red" points="86,-0.5 86,-19.5 179,-19.5 179,-0.5 86,-0.5"/>
<text text-anchor="middle" x="132.5" y="-7.5" font-family="Helvetica,sans-Serif" font-size="10.00">lb_process_items</text>
</a>
</g>
</g>
<!-- Node6&#45;&gt;Node10 -->
<g id="edge8" class="edge">
<title>Node6&#45;&gt;Node10</title>
<path fill="none" stroke="midnightblue" d="M204.86,-22.85C196.67,-21.38 187.79,-19.78 179.17,-18.23"/>
<polygon fill="midnightblue" stroke="midnightblue" points="204.33,-26.31 214.8,-24.64 205.57,-19.42 204.33,-26.31"/>
</g>
<!-- Node8 -->
<g id="node8" class="node">
<title>Node8</title>
<g id="a_node8"><a xlink:href="drive1_8f.html#a83f7c6d78ac4e68394f32533e847d0a3" target="_top" xlink:title=" ">
<polygon fill="white" stroke="red" points="0,-38.5 0,-57.5 50,-57.5 50,-38.5 0,-38.5"/>
<text text-anchor="middle" x="25" y="-45.5" font-family="Helvetica,sans-Serif" font-size="10.00">nek_init</text>
</a>
</g>
</g>
<!-- Node7&#45;&gt;Node8 -->
<g id="edge7" class="edge">
<title>Node7&#45;&gt;Node8</title>
<path fill="none" stroke="midnightblue" d="M100.37,-48C84.28,-48 64.93,-48 50.01,-48"/>
<polygon fill="midnightblue" stroke="midnightblue" points="100.4,-51.5 110.4,-48 100.4,-44.5 100.4,-51.5"/>
</g>
</g>
</svg>
        <g id="navigator" transform="translate(0 0)" fill="#404254">
                <rect fill="#f2f5e9" fill-opacity="0.5" stroke="#606060" stroke-width=".5" x="0" y="0" width="60" height="60"/>
                <use id="zoomplus" xlink:href="#zoomPlus" x="17" y="9" onmousedown="handleZoom(evt,'in')"/>
                <use id="zoomminus" xlink:href="#zoomMin" x="42" y="9" onmousedown="handleZoom(evt,'out')"/>
                <use id="reset" xlink:href="#resetDef" x="30" y="36" onmousedown="handleReset()"/>
                <g id="arrowUp" xlink:href="#dirArrow" transform="translate(30 24)" onmousedown="handlePan(0,-1)">
                  <use xlink:href="#rim" fill="#404040">
                        <set attributeName="fill" to="#808080" begin="arrowUp.mouseover" end="arrowUp.mouseout"/>
                  </use>
                  <path fill="none" stroke="white" stroke-width="1.5" d="M0,-3.0v7 M-2.5,-0.5L0,-3.0L2.5,-0.5"/>
                </g>
                <g id="arrowRight" xlink:href="#dirArrow" transform="rotate(90) translate(36 -43)" onmousedown="handlePan(1,0)">
                  <use xlink:href="#rim" fill="#404040">
                        <set attributeName="fill" to="#808080" begin="arrowRight.mouseover" end="arrowRight.mouseout"/>
                  </use>
                  <path fill="none" stroke="white" stroke-width="1.5" d="M0,-3.0v7 M-2.5,-0.5L0,-3.0L2.5,-0.5"/>
                </g>
                <g id="arrowDown" xlink:href="#dirArrow" transform="rotate(180) translate(-30 -48)" onmousedown="handlePan(0,1)">
                  <use xlink:href="#rim" fill="#404040">
                        <set attributeName="fill" to="#808080" begin="arrowDown.mouseover" end="arrowDown.mouseout"/>
                  </use>
                  <path fill="none" stroke="white" stroke-width="1.5" d="M0,-3.0v7 M-2.5,-0.5L0,-3.0L2.5,-0.5"/>
                </g>
                <g id="arrowLeft" xlink:href="#dirArrow" transform="rotate(270) translate(-36 17)" onmousedown="handlePan(-1,0)">
                  <use xlink:href="#rim" fill="#404040">
                        <set attributeName="fill" to="#808080" begin="arrowLeft.mouseover" end="arrowLeft.mouseout"/>
                  </use>
                  <path fill="none" stroke="white" stroke-width="1.5" d="M0,-3.0v7 M-2.5,-0.5L0,-3.0L2.5,-0.5"/>
                </g>
        </g>
        <svg viewBox="0 0 15 15" width="100%" height="30px" preserveAspectRatio="xMaxYMin meet">
         <g id="arrow_out" transform="scale(0.3 0.3)">
          <a xlink:href="mpi__dummy_8f_abbddc050d7faafb34959984f69652e0a_icgraph_org.svg" target="_base">
           <rect id="button" ry="5" rx="5" y="6" x="6" height="38" width="38"
                fill="#f2f5e9" fill-opacity="0.5" stroke="#606060" stroke-width="1.0"/>
           <path id="arrow"
             d="M 11.500037,31.436501 C 11.940474,20.09759 22.043105,11.32322 32.158766,21.979434 L 37.068811,17.246167 C 37.068811,17.246167 37.088388,32 37.088388,32 L 22.160133,31.978069 C 22.160133,31.978069 26.997745,27.140456 26.997745,27.140456 C 18.528582,18.264221 13.291696,25.230495 11.500037,31.436501 z"
             style="fill:#404040;"/>
          </a>
         </g>
        </svg>
</svg>
