<?xml version="1.0" encoding="UTF-8" standalone="no"?>
<!DOCTYPE svg PUBLIC "-//W3C//DTD SVG 1.1//EN"
 "http://www.w3.org/Graphics/SVG/1.1/DTD/svg11.dtd">
<!-- Generated by graphviz version 2.46.0 (0)
 -->
<!-- Title: mpi_wait Pages: 1 -->
<svg width="363pt" height="303pt"
 viewBox="0.00 0.00 363.00 302.61" xmlns="http://www.w3.org/2000/svg" xmlns:xlink="http://www.w3.org/1999/xlink">
<g id="graph0" class="graph" transform="scale(1 1) rotate(0) translate(4 298.61)">
<title>mpi_wait</title>
<polygon fill="white" stroke="transparent" points="-4,4 -4,-298.61 359,-298.61 359,4 -4,4"/>
<!-- Node1 -->
<g id="node1" class="node">
<title>Node1</title>
<g id="a_node1"><a xlink:title=" ">
<polygon fill="#bfbfbf" stroke="black" points="299,-76.5 299,-95.5 355,-95.5 355,-76.5 299,-76.5"/>
<text text-anchor="middle" x="327" y="-83.5" font-family="Helvetica,sans-Serif" font-size="10.00">mpi_wait</text>
</a>
</g>
</g>
<!-- Node2 -->
<g id="node2" class="node">
<title>Node2</title>
<g id="a_node2"><a xlink:href="comm__mpi_8f.html#a3b0be5279d427588484102fe8bac8ef0" target="_top" xlink:title=" ">
<polygon fill="white" stroke="red" points="207.5,-123.5 207.5,-142.5 260.5,-142.5 260.5,-123.5 207.5,-123.5"/>
<text text-anchor="middle" x="234" y="-130.5" font-family="Helvetica,sans-Serif" font-size="10.00">msgwait</text>
</a>
</g>
</g>
<!-- Node1&#45;&gt;Node2 -->
<g id="edge1" class="edge">
<title>Node1&#45;&gt;Node2</title>
<path fill="none" stroke="midnightblue" d="M298.55,-100.18C284.05,-107.66 266.63,-116.66 253.7,-123.34"/>
<polygon fill="midnightblue" stroke="midnightblue" points="300.31,-103.21 307.58,-95.51 297.09,-96.99 300.31,-103.21"/>
</g>
<!-- Node10 -->
<g id="node5" class="node">
<title>Node10</title>
<g id="a_node5"><a xlink:href="comm__mpi_8f.html#a557724d36fed5680ba696aae60ae5992" target="_top" xlink:title=" ">
<polygon fill="white" stroke="red" points="0,-218.5 0,-237.5 61,-237.5 61,-218.5 0,-218.5"/>
<text text-anchor="middle" x="30.5" y="-225.5" font-family="Helvetica,sans-Serif" font-size="10.00">pingpongo</text>
</a>
</g>
</g>
<!-- Node1&#45;&gt;Node10 -->
<g id="edge13" class="edge">
<title>Node1&#45;&gt;Node10</title>
<path fill="none" stroke="midnightblue" d="M318.13,-104.86C299.5,-146.7 248.21,-246.6 169,-285 140.21,-298.96 126.97,-296.21 97,-285 71.59,-275.49 49.53,-251.17 38.67,-237.57"/>
<polygon fill="midnightblue" stroke="midnightblue" points="321.4,-106.12 322.16,-95.55 314.98,-103.33 321.4,-106.12"/>
</g>
<!-- Node58 -->
<g id="node8" class="node">
<title>Node58</title>
<g id="a_node8"><a xlink:href="comm__mpi_8f.html#af348945adab9e6683c509187f6e4e2fc" target="_top" xlink:title=" ">
<polygon fill="white" stroke="red" points="101.5,-66.5 101.5,-85.5 164.5,-85.5 164.5,-66.5 101.5,-66.5"/>
<text text-anchor="middle" x="133" y="-73.5" font-family="Helvetica,sans-Serif" font-size="10.00">ping_loop1</text>
</a>
</g>
</g>
<!-- Node1&#45;&gt;Node58 -->
<g id="edge11" class="edge">
<title>Node1&#45;&gt;Node58</title>
<path fill="none" stroke="midnightblue" d="M288.77,-84.06C252.66,-82.18 198.52,-79.36 164.77,-77.6"/>
<polygon fill="midnightblue" stroke="midnightblue" points="288.73,-87.56 298.9,-84.59 289.09,-80.57 288.73,-87.56"/>
</g>
<!-- Node59 -->
<g id="node9" class="node">
<title>Node59</title>
<g id="a_node9"><a xlink:href="comm__mpi_8f.html#ae95dc0de6852549c6cab7465978b3570" target="_top" xlink:title=" ">
<polygon fill="white" stroke="red" points="101.5,-28.5 101.5,-47.5 164.5,-47.5 164.5,-28.5 101.5,-28.5"/>
<text text-anchor="middle" x="133" y="-35.5" font-family="Helvetica,sans-Serif" font-size="10.00">ping_loop2</text>
</a>
</g>
</g>
<!-- Node1&#45;&gt;Node59 -->
<g id="edge12" class="edge">
<title>Node1&#45;&gt;Node59</title>
<path fill="none" stroke="midnightblue" d="M288.77,-76.69C252.66,-67.66 198.52,-54.13 164.77,-45.69"/>
<polygon fill="midnightblue" stroke="midnightblue" points="288.35,-80.19 298.9,-79.22 290.05,-73.4 288.35,-80.19"/>
</g>
<!-- Node118 -->
<g id="node10" class="node">
<title>Node118</title>
<g id="a_node10"><a xlink:href="comm__mpi_8f.html#a8493e0f05af0ea25b69053ada11d808a" target="_top" xlink:title=" ">
<polygon fill="white" stroke="red" points="205,-0.5 205,-19.5 263,-19.5 263,-0.5 205,-0.5"/>
<text text-anchor="middle" x="234" y="-7.5" font-family="Helvetica,sans-Serif" font-size="10.00">ping_loop</text>
</a>
</g>
</g>
<!-- Node1&#45;&gt;Node118 -->
<g id="edge10" class="edge">
<title>Node1&#45;&gt;Node118</title>
<path fill="none" stroke="midnightblue" d="M306.75,-69.92C288.46,-54.65 261.56,-32.18 246.43,-19.55"/>
<polygon fill="midnightblue" stroke="midnightblue" points="304.56,-72.65 314.47,-76.37 309.04,-67.28 304.56,-72.65"/>
</g>
<!-- Node3 -->
<g id="node3" class="node">
<title>Node3</title>
<g id="a_node3"><a xlink:href="postpro_8f.html#a2f6c2d9733e0eb8ffc45f8b1d9499d76" target="_top" xlink:title=" ">
<polygon fill="white" stroke="red" points="106,-256.5 106,-275.5 160,-275.5 160,-256.5 106,-256.5"/>
<text text-anchor="middle" x="133" y="-263.5" font-family="Helvetica,sans-Serif" font-size="10.00">buffer_in</text>
</a>
</g>
</g>
<!-- Node2&#45;&gt;Node3 -->
<g id="edge2" class="edge">
<title>Node2&#45;&gt;Node3</title>
<path fill="none" stroke="midnightblue" d="M224.95,-152.06C214.51,-175.21 194.56,-214.58 169,-242 163.88,-247.5 157.28,-252.42 151.2,-256.36"/>
<polygon fill="midnightblue" stroke="midnightblue" points="228.26,-153.23 229.07,-142.66 221.85,-150.42 228.26,-153.23"/>
</g>
<!-- Node6 -->
<g id="node4" class="node">
<title>Node6</title>
<g id="a_node4"><a xlink:href="comm__mpi_8f.html#a4ae0ceb703bba6170a61c696ee3871d3" target="_top" xlink:title=" ">
<polygon fill="white" stroke="red" points="97,-104.5 97,-123.5 169,-123.5 169,-104.5 97,-104.5"/>
<text text-anchor="middle" x="133" y="-111.5" font-family="Helvetica,sans-Serif" font-size="10.00">get_msg_vol</text>
</a>
</g>
</g>
<!-- Node2&#45;&gt;Node6 -->
<g id="edge3" class="edge">
<title>Node2&#45;&gt;Node6</title>
<path fill="none" stroke="midnightblue" d="M197.32,-126.15C188.2,-124.4 178.41,-122.52 169.31,-120.78"/>
<polygon fill="midnightblue" stroke="midnightblue" points="196.77,-129.61 207.25,-128.06 198.09,-122.74 196.77,-129.61"/>
</g>
<!-- Node2&#45;&gt;Node10 -->
<g id="edge9" class="edge">
<title>Node2&#45;&gt;Node10</title>
<path fill="none" stroke="midnightblue" d="M222.84,-151.6C212,-169.49 193.09,-195.71 169,-209 135.34,-227.57 90.25,-230.37 61.04,-229.85"/>
<polygon fill="midnightblue" stroke="midnightblue" points="226.03,-153.07 228.01,-142.66 219.97,-149.56 226.03,-153.07"/>
</g>
<!-- Node11 -->
<g id="node6" class="node">
<title>Node11</title>
<g id="a_node6"><a xlink:href="ic_8f.html#af9f00a786901a7600e636f294a42bd09" target="_top" xlink:title=" ">
<polygon fill="white" stroke="red" points="106,-180.5 106,-199.5 160,-199.5 160,-180.5 106,-180.5"/>
<text text-anchor="middle" x="133" y="-187.5" font-family="Helvetica,sans-Serif" font-size="10.00">mfi_gets</text>
</a>
</g>
</g>
<!-- Node2&#45;&gt;Node11 -->
<g id="edge5" class="edge">
<title>Node2&#45;&gt;Node11</title>
<path fill="none" stroke="midnightblue" d="M208.45,-147.88C196.59,-154.99 182.12,-163.55 169,-171 163.47,-174.14 157.39,-177.48 151.88,-180.47"/>
<polygon fill="midnightblue" stroke="midnightblue" points="210.55,-150.69 217.32,-142.54 206.94,-144.7 210.55,-150.69"/>
</g>
<!-- Node57 -->
<g id="node7" class="node">
<title>Node57</title>
<g id="a_node7"><a xlink:href="ic_8f.html#af68df198916be2ecb6058327311ac3b6" target="_top" xlink:title=" ">
<polygon fill="white" stroke="red" points="106,-142.5 106,-161.5 160,-161.5 160,-142.5 106,-142.5"/>
<text text-anchor="middle" x="133" y="-149.5" font-family="Helvetica,sans-Serif" font-size="10.00">mfi_getv</text>
</a>
</g>
</g>
<!-- Node2&#45;&gt;Node57 -->
<g id="edge6" class="edge">
<title>Node2&#45;&gt;Node57</title>
<path fill="none" stroke="midnightblue" d="M197.34,-139.84C185.11,-142.19 171.66,-144.77 160.31,-146.95"/>
<polygon fill="midnightblue" stroke="midnightblue" points="198.09,-143.26 207.25,-137.94 196.77,-136.39 198.09,-143.26"/>
</g>
<!-- Node2&#45;&gt;Node58 -->
<g id="edge7" class="edge">
<title>Node2&#45;&gt;Node58</title>
<path fill="none" stroke="midnightblue" d="M208.45,-118.12C196.59,-111.01 182.12,-102.45 169,-95 163.47,-91.86 157.39,-88.52 151.88,-85.53"/>
<polygon fill="midnightblue" stroke="midnightblue" points="206.94,-121.3 217.32,-123.46 210.55,-115.31 206.94,-121.3"/>
</g>
<!-- Node2&#45;&gt;Node59 -->
<g id="edge8" class="edge">
<title>Node2&#45;&gt;Node59</title>
<path fill="none" stroke="midnightblue" d="M220.71,-114.82C208.87,-98.27 189.75,-73.92 169,-57 164.71,-53.5 159.69,-50.34 154.8,-47.64"/>
<polygon fill="midnightblue" stroke="midnightblue" points="217.9,-116.91 226.5,-123.11 223.64,-112.9 217.9,-116.91"/>
</g>
<!-- Node6&#45;&gt;Node10 -->
<g id="edge4" class="edge">
<title>Node6&#45;&gt;Node10</title>
<path fill="none" stroke="midnightblue" d="M101.81,-129.13C100.12,-130.36 98.5,-131.65 97,-133 68.25,-158.85 45.62,-199.72 36.22,-218.27"/>
<polygon fill="midnightblue" stroke="midnightblue" points="104.02,-131.87 110.58,-123.55 100.27,-125.96 104.02,-131.87"/>
</g>
</g>
</svg>
