<?xml version="1.0" encoding="UTF-8" standalone="no"?>
<!DOCTYPE svg PUBLIC "-//W3C//DTD SVG 1.1//EN"
 "http://www.w3.org/Graphics/SVG/1.1/DTD/svg11.dtd">
<!-- Generated by graphviz version 2.46.0 (0)
 -->
<!-- Title: mpi_copy_integer Pages: 1 -->
<svg width="239pt" height="104pt"
 viewBox="0.00 0.00 239.00 104.00" xmlns="http://www.w3.org/2000/svg" xmlns:xlink="http://www.w3.org/1999/xlink">
<g id="graph0" class="graph" transform="scale(1 1) rotate(0) translate(4 100)">
<title>mpi_copy_integer</title>
<polygon fill="white" stroke="transparent" points="-4,4 -4,-100 235,-100 235,4 -4,4"/>
<!-- Node1 -->
<g id="node1" class="node">
<title>Node1</title>
<g id="a_node1"><a xlink:title=" ">
<polygon fill="#bfbfbf" stroke="black" points="138,-38.5 138,-57.5 231,-57.5 231,-38.5 138,-38.5"/>
<text text-anchor="middle" x="184.5" y="-45.5" font-family="Helvetica,sans-Serif" font-size="10.00">mpi_copy_integer</text>
</a>
</g>
</g>
<!-- Node2 -->
<g id="node2" class="node">
<title>Node2</title>
<g id="a_node2"><a xlink:href="mpi__dummy_8f.html#aa89db9f54dbfa8e4285aa8e1c5e59f06" target="_top" xlink:title=" ">
<polygon fill="white" stroke="black" points="14,-76.5 14,-95.5 88,-95.5 88,-76.5 14,-76.5"/>
<text text-anchor="middle" x="51" y="-83.5" font-family="Helvetica,sans-Serif" font-size="10.00">mpi_allgather</text>
</a>
</g>
</g>
<!-- Node1&#45;&gt;Node2 -->
<g id="edge1" class="edge">
<title>Node1&#45;&gt;Node2</title>
<path fill="none" stroke="midnightblue" d="M140.62,-60.39C122.61,-65.59 101.99,-71.55 85.17,-76.41"/>
<polygon fill="midnightblue" stroke="midnightblue" points="141.68,-63.73 150.32,-57.59 139.74,-57 141.68,-63.73"/>
</g>
<!-- Node3 -->
<g id="node3" class="node">
<title>Node3</title>
<g id="a_node3"><a xlink:href="mpi__dummy_8f.html#ae5ff2c55af7d141f1b29ee76c006891f" target="_top" xlink:title=" ">
<polygon fill="white" stroke="black" points="11,-38.5 11,-57.5 91,-57.5 91,-38.5 11,-38.5"/>
<text text-anchor="middle" x="51" y="-45.5" font-family="Helvetica,sans-Serif" font-size="10.00">mpi_allgatherv</text>
</a>
</g>
</g>
<!-- Node1&#45;&gt;Node3 -->
<g id="edge2" class="edge">
<title>Node1&#45;&gt;Node3</title>
<path fill="none" stroke="midnightblue" d="M127.76,-48C115.53,-48 102.84,-48 91.41,-48"/>
<polygon fill="midnightblue" stroke="midnightblue" points="127.88,-51.5 137.88,-48 127.88,-44.5 127.88,-51.5"/>
</g>
<!-- Node4 -->
<g id="node4" class="node">
<title>Node4</title>
<g id="a_node4"><a xlink:href="mpi__dummy_8f.html#a9d1824de3185c07c230ac4a46f318fd1" target="_top" xlink:title=" ">
<polygon fill="white" stroke="black" points="0,-0.5 0,-19.5 102,-19.5 102,-0.5 0,-0.5"/>
<text text-anchor="middle" x="51" y="-7.5" font-family="Helvetica,sans-Serif" font-size="10.00">mpi_reduce_scatter</text>
</a>
</g>
</g>
<!-- Node1&#45;&gt;Node4 -->
<g id="edge3" class="edge">
<title>Node1&#45;&gt;Node4</title>
<path fill="none" stroke="midnightblue" d="M140.62,-35.61C122.61,-30.41 101.99,-24.45 85.17,-19.59"/>
<polygon fill="midnightblue" stroke="midnightblue" points="139.74,-39 150.32,-38.41 141.68,-32.27 139.74,-39"/>
</g>
</g>
</svg>
