<?xml version="1.0" encoding="UTF-8" standalone="no"?>
<!DOCTYPE svg PUBLIC "-//W3C//DTD SVG 1.1//EN"
 "http://www.w3.org/Graphics/SVG/1.1/DTD/svg11.dtd">
<!-- Generated by graphviz version 2.46.0 (0)
 -->
<!-- Title: mpi_reduce Pages: 1 -->
<svg width="256pt" height="104pt"
 viewBox="0.00 0.00 256.00 104.00" xmlns="http://www.w3.org/2000/svg" xmlns:xlink="http://www.w3.org/1999/xlink">
<g id="graph0" class="graph" transform="scale(1 1) rotate(0) translate(4 100)">
<title>mpi_reduce</title>
<polygon fill="white" stroke="transparent" points="-4,4 -4,-100 252,-100 252,4 -4,4"/>
<!-- Node1 -->
<g id="node1" class="node">
<title>Node1</title>
<g id="a_node1"><a xlink:title=" ">
<polygon fill="#bfbfbf" stroke="black" points="0,-38.5 0,-57.5 67,-57.5 67,-38.5 0,-38.5"/>
<text text-anchor="middle" x="33.5" y="-45.5" font-family="Helvetica,sans-Serif" font-size="10.00">mpi_reduce</text>
</a>
</g>
</g>
<!-- Node2 -->
<g id="node2" class="node">
<title>Node2</title>
<g id="a_node2"><a xlink:href="mpi__dummy_8f.html#a64285f5ce9bed08bfd13bc27264db185" target="_top" xlink:title=" ">
<polygon fill="white" stroke="black" points="103,-76.5 103,-95.5 248,-95.5 248,-76.5 103,-76.5"/>
<text text-anchor="middle" x="175.5" y="-83.5" font-family="Helvetica,sans-Serif" font-size="10.00">mpi_reduce_double_precision</text>
</a>
</g>
</g>
<!-- Node1&#45;&gt;Node2 -->
<g id="edge1" class="edge">
<title>Node1&#45;&gt;Node2</title>
<path fill="none" stroke="midnightblue" d="M67.23,-57.16C78.55,-60.3 91.33,-63.83 103,-67 111.2,-69.23 119.93,-71.57 128.37,-73.82"/>
<polygon fill="midnightblue" stroke="midnightblue" points="127.54,-77.22 138.11,-76.41 129.34,-70.46 127.54,-77.22"/>
</g>
<!-- Node3 -->
<g id="node3" class="node">
<title>Node3</title>
<g id="a_node3"><a xlink:href="mpi__dummy_8f.html#aa549a352c5ab9ce53b8dfd222da38fa6" target="_top" xlink:title=" ">
<polygon fill="white" stroke="black" points="125,-38.5 125,-57.5 226,-57.5 226,-38.5 125,-38.5"/>
<text text-anchor="middle" x="175.5" y="-45.5" font-family="Helvetica,sans-Serif" font-size="10.00">mpi_reduce_integer</text>
</a>
</g>
</g>
<!-- Node1&#45;&gt;Node3 -->
<g id="edge2" class="edge">
<title>Node1&#45;&gt;Node3</title>
<path fill="none" stroke="midnightblue" d="M67.32,-48C81.51,-48 98.57,-48 114.87,-48"/>
<polygon fill="midnightblue" stroke="midnightblue" points="114.88,-51.5 124.88,-48 114.88,-44.5 114.88,-51.5"/>
</g>
<!-- Node4 -->
<g id="node4" class="node">
<title>Node4</title>
<g id="a_node4"><a xlink:href="mpi__dummy_8f.html#a47f146895b36dc21100a1c42d343762c" target="_top" xlink:title=" ">
<polygon fill="white" stroke="black" points="131.5,-0.5 131.5,-19.5 219.5,-19.5 219.5,-0.5 131.5,-0.5"/>
<text text-anchor="middle" x="175.5" y="-7.5" font-family="Helvetica,sans-Serif" font-size="10.00">mpi_reduce_real</text>
</a>
</g>
</g>
<!-- Node1&#45;&gt;Node4 -->
<g id="edge3" class="edge">
<title>Node1&#45;&gt;Node4</title>
<path fill="none" stroke="midnightblue" d="M67.23,-38.84C78.55,-35.7 91.33,-32.17 103,-29 111.2,-26.77 119.93,-24.43 128.37,-22.18"/>
<polygon fill="midnightblue" stroke="midnightblue" points="129.34,-25.54 138.11,-19.59 127.54,-18.78 129.34,-25.54"/>
</g>
</g>
</svg>
