<?xml version="1.0" encoding="UTF-8" standalone="no"?>
<!DOCTYPE svg PUBLIC "-//W3C//DTD SVG 1.1//EN"
 "http://www.w3.org/Graphics/SVG/1.1/DTD/svg11.dtd">
<!-- Generated by graphviz version 2.46.0 (0)
 -->
<!-- Title: surface_flux_area Pages: 1 -->
<svg width="397pt" height="256pt"
 viewBox="0.00 0.00 397.00 256.00" xmlns="http://www.w3.org/2000/svg" xmlns:xlink="http://www.w3.org/1999/xlink">
<g id="graph0" class="graph" transform="scale(1 1) rotate(0) translate(4 252)">
<title>surface_flux_area</title>
<polygon fill="white" stroke="transparent" points="-4,4 -4,-252 393,-252 393,4 -4,4"/>
<!-- Node1 -->
<g id="node1" class="node">
<title>Node1</title>
<g id="a_node1"><a xlink:title=" ">
<polygon fill="#bfbfbf" stroke="black" points="295,-114.5 295,-133.5 389,-133.5 389,-114.5 295,-114.5"/>
<text text-anchor="middle" x="342" y="-121.5" font-family="Helvetica,sans-Serif" font-size="10.00">surface_flux_area</text>
</a>
</g>
</g>
<!-- Node2 -->
<g id="node2" class="node">
<title>Node2</title>
<g id="a_node2"><a xlink:href="multimesh_8f.html#a7e0a20f11f4dacdf3a9a729e6b9feef0" target="_top" xlink:title=" ">
<polygon fill="white" stroke="black" points="173,-114.5 173,-133.5 259,-133.5 259,-114.5 173,-114.5"/>
<text text-anchor="middle" x="216" y="-121.5" font-family="Helvetica,sans-Serif" font-size="10.00">fix_surface_flux</text>
</a>
</g>
</g>
<!-- Node1&#45;&gt;Node2 -->
<g id="edge1" class="edge">
<title>Node1&#45;&gt;Node2</title>
<path fill="none" stroke="midnightblue" d="M284.8,-124C276.16,-124 267.38,-124 259.12,-124"/>
<polygon fill="midnightblue" stroke="midnightblue" points="284.83,-127.5 294.83,-124 284.83,-120.5 284.83,-127.5"/>
</g>
<!-- Node3 -->
<g id="node3" class="node">
<title>Node3</title>
<g id="a_node3"><a xlink:href="bdry_8f.html#aaa0d4258b1292dd19b9fc931df83bd68" target="_top" xlink:title=" ">
<polygon fill="white" stroke="red" points="89,-114.5 89,-133.5 137,-133.5 137,-114.5 89,-114.5"/>
<text text-anchor="middle" x="113" y="-121.5" font-family="Helvetica,sans-Serif" font-size="10.00">bcdirvc</text>
</a>
</g>
</g>
<!-- Node2&#45;&gt;Node3 -->
<g id="edge2" class="edge">
<title>Node2&#45;&gt;Node3</title>
<path fill="none" stroke="midnightblue" d="M162.64,-124C153.66,-124 144.76,-124 137.08,-124"/>
<polygon fill="midnightblue" stroke="midnightblue" points="162.75,-127.5 172.75,-124 162.75,-120.5 162.75,-127.5"/>
</g>
<!-- Node4 -->
<g id="node4" class="node">
<title>Node4</title>
<g id="a_node4"><a xlink:href="induct_8f.html#ad20db92578e3e1c33995173b73b254d0" target="_top" xlink:title=" ">
<polygon fill="white" stroke="red" points="2.5,-228.5 2.5,-247.5 50.5,-247.5 50.5,-228.5 2.5,-228.5"/>
<text text-anchor="middle" x="26.5" y="-235.5" font-family="Helvetica,sans-Serif" font-size="10.00">cresvib</text>
</a>
</g>
</g>
<!-- Node3&#45;&gt;Node4 -->
<g id="edge3" class="edge">
<title>Node3&#45;&gt;Node4</title>
<path fill="none" stroke="midnightblue" d="M103.01,-142.81C92.75,-163.06 74.58,-195.52 53,-219 49.86,-222.41 46.04,-225.63 42.32,-228.42"/>
<polygon fill="midnightblue" stroke="midnightblue" points="106.22,-144.21 107.51,-133.7 99.95,-141.11 106.22,-144.21"/>
</g>
<!-- Node11 -->
<g id="node5" class="node">
<title>Node11</title>
<g id="a_node5"><a xlink:href="induct_8f.html#abbae0312df5e89b7a6fe3f7f1dc8447b" target="_top" xlink:title=" ">
<polygon fill="white" stroke="red" points="0,-190.5 0,-209.5 53,-209.5 53,-190.5 0,-190.5"/>
<text text-anchor="middle" x="26.5" y="-197.5" font-family="Helvetica,sans-Serif" font-size="10.00">cresvibp</text>
</a>
</g>
</g>
<!-- Node3&#45;&gt;Node11 -->
<g id="edge4" class="edge">
<title>Node3&#45;&gt;Node11</title>
<path fill="none" stroke="midnightblue" d="M95.53,-141.02C83.98,-152.68 67.99,-168.26 53,-181 49.21,-184.22 44.94,-187.52 40.98,-190.45"/>
<polygon fill="midnightblue" stroke="midnightblue" points="98.24,-143.26 102.75,-133.67 93.24,-138.36 98.24,-143.26"/>
</g>
<!-- Node12 -->
<g id="node6" class="node">
<title>Node12</title>
<g id="a_node6"><a xlink:href="planx_8f.html#a02873cc7b2b98973667aa8cb9f2cbadb" target="_top" xlink:title=" ">
<polygon fill="white" stroke="red" points="3.5,-152.5 3.5,-171.5 49.5,-171.5 49.5,-152.5 3.5,-152.5"/>
<text text-anchor="middle" x="26.5" y="-159.5" font-family="Helvetica,sans-Serif" font-size="10.00">cresvif</text>
</a>
</g>
</g>
<!-- Node3&#45;&gt;Node12 -->
<g id="edge5" class="edge">
<title>Node3&#45;&gt;Node12</title>
<path fill="none" stroke="midnightblue" d="M81.52,-137.71C70.68,-142.58 58.72,-147.96 48.82,-152.41"/>
<polygon fill="midnightblue" stroke="midnightblue" points="82.99,-140.88 90.68,-133.59 80.12,-134.5 82.99,-140.88"/>
</g>
<!-- Node19 -->
<g id="node7" class="node">
<title>Node19</title>
<g id="a_node7"><a xlink:href="perturb_8f.html#a0ff8d84404f82cc6fb34af2de5d68b80" target="_top" xlink:title=" ">
<polygon fill="white" stroke="red" points="0,-114.5 0,-133.5 53,-133.5 53,-114.5 0,-114.5"/>
<text text-anchor="middle" x="26.5" y="-121.5" font-family="Helvetica,sans-Serif" font-size="10.00">cresvipp</text>
</a>
</g>
</g>
<!-- Node3&#45;&gt;Node19 -->
<g id="edge6" class="edge">
<title>Node3&#45;&gt;Node19</title>
<path fill="none" stroke="midnightblue" d="M78.88,-124C70.36,-124 61.32,-124 53.24,-124"/>
<polygon fill="midnightblue" stroke="midnightblue" points="78.91,-127.5 88.91,-124 78.91,-120.5 78.91,-127.5"/>
</g>
<!-- Node22 -->
<g id="node8" class="node">
<title>Node22</title>
<g id="a_node8"><a xlink:href="plan5_8f.html#a1c77871dc9883719557071c0006dc66e" target="_top" xlink:title=" ">
<polygon fill="white" stroke="red" points="1,-76.5 1,-95.5 52,-95.5 52,-76.5 1,-76.5"/>
<text text-anchor="middle" x="26.5" y="-83.5" font-family="Helvetica,sans-Serif" font-size="10.00">midstep</text>
</a>
</g>
</g>
<!-- Node3&#45;&gt;Node22 -->
<g id="edge7" class="edge">
<title>Node3&#45;&gt;Node22</title>
<path fill="none" stroke="midnightblue" d="M81.52,-110.29C70.68,-105.42 58.72,-100.04 48.82,-95.59"/>
<polygon fill="midnightblue" stroke="midnightblue" points="80.12,-113.5 90.68,-114.41 82.99,-107.12 80.12,-113.5"/>
</g>
<!-- Node24 -->
<g id="node9" class="node">
<title>Node24</title>
<g id="a_node9"><a xlink:href="navier1_8f.html#a23e6343990072aa1a6b17109ccc7ba2b" target="_top" xlink:title=" ">
<polygon fill="white" stroke="red" points="6.5,-38.5 6.5,-57.5 46.5,-57.5 46.5,-38.5 6.5,-38.5"/>
<text text-anchor="middle" x="26.5" y="-45.5" font-family="Helvetica,sans-Serif" font-size="10.00">plan1</text>
</a>
</g>
</g>
<!-- Node3&#45;&gt;Node24 -->
<g id="edge8" class="edge">
<title>Node3&#45;&gt;Node24</title>
<path fill="none" stroke="midnightblue" d="M95.53,-106.98C83.98,-95.32 67.99,-79.74 53,-67 49.21,-63.78 44.94,-60.48 40.98,-57.55"/>
<polygon fill="midnightblue" stroke="midnightblue" points="93.24,-109.64 102.75,-114.33 98.24,-104.74 93.24,-109.64"/>
</g>
<!-- Node25 -->
<g id="node10" class="node">
<title>Node25</title>
<g id="a_node10"><a xlink:href="plan4_8f.html#a247fc105464de543a464773054eb509e" target="_top" xlink:title=" ">
<polygon fill="white" stroke="red" points="6.5,-0.5 6.5,-19.5 46.5,-19.5 46.5,-0.5 6.5,-0.5"/>
<text text-anchor="middle" x="26.5" y="-7.5" font-family="Helvetica,sans-Serif" font-size="10.00">plan4</text>
</a>
</g>
</g>
<!-- Node3&#45;&gt;Node25 -->
<g id="edge9" class="edge">
<title>Node3&#45;&gt;Node25</title>
<path fill="none" stroke="midnightblue" d="M103.01,-105.19C92.75,-84.94 74.58,-52.48 53,-29 49.86,-25.59 46.04,-22.37 42.32,-19.58"/>
<polygon fill="midnightblue" stroke="midnightblue" points="99.95,-106.89 107.51,-114.3 106.22,-103.79 99.95,-106.89"/>
</g>
</g>
</svg>
