<?xml version="1.0" encoding="UTF-8" standalone="no"?>
<!DOCTYPE svg PUBLIC "-//W3C//DTD SVG 1.1//EN"
 "http://www.w3.org/Graphics/SVG/1.1/DTD/svg11.dtd">
<!-- Generated by graphviz version 2.46.0 (0)
 -->
<!-- Title: setup_int_neknek Pages: 1 -->
<svg width="527pt" height="123pt"
 viewBox="0.00 0.00 527.00 123.00" xmlns="http://www.w3.org/2000/svg" xmlns:xlink="http://www.w3.org/1999/xlink">
<g id="graph0" class="graph" transform="scale(1 1) rotate(0) translate(4 119)">
<title>setup_int_neknek</title>
<polygon fill="white" stroke="transparent" points="-4,4 -4,-119 523,-119 523,4 -4,4"/>
<!-- Node1 -->
<g id="node1" class="node">
<title>Node1</title>
<g id="a_node1"><a xlink:title=" ">
<polygon fill="#bfbfbf" stroke="black" points="0,-57.5 0,-76.5 93,-76.5 93,-57.5 0,-57.5"/>
<text text-anchor="middle" x="46.5" y="-64.5" font-family="Helvetica,sans-Serif" font-size="10.00">setup_int_neknek</text>
</a>
</g>
</g>
<!-- Node2 -->
<g id="node2" class="node">
<title>Node2</title>
<g id="a_node2"><a xlink:href="math_8f.html#a0c68692ff686bdf254efd74deff61b72" target="_top" xlink:title=" ">
<polygon fill="white" stroke="black" points="141,-95.5 141,-114.5 179,-114.5 179,-95.5 141,-95.5"/>
<text text-anchor="middle" x="160" y="-102.5" font-family="Helvetica,sans-Serif" font-size="10.00">cadd</text>
</a>
</g>
</g>
<!-- Node1&#45;&gt;Node2 -->
<g id="edge1" class="edge">
<title>Node1&#45;&gt;Node2</title>
<path fill="none" stroke="midnightblue" d="M75.64,-76.59C92.52,-82.34 113.92,-89.64 130.81,-95.39"/>
<polygon fill="midnightblue" stroke="midnightblue" points="130.07,-98.84 140.67,-98.75 132.33,-92.21 130.07,-98.84"/>
</g>
<!-- Node3 -->
<g id="node3" class="node">
<title>Node3</title>
<g id="a_node3"><a xlink:href="math_8f.html#a9c25c595b182826a6a6915c1bdc3f903" target="_top" xlink:title=" ">
<polygon fill="white" stroke="black" points="129,-57.5 129,-76.5 191,-76.5 191,-57.5 129,-57.5"/>
<text text-anchor="middle" x="160" y="-64.5" font-family="Helvetica,sans-Serif" font-size="10.00">glmax_ms</text>
</a>
</g>
</g>
<!-- Node1&#45;&gt;Node3 -->
<g id="edge2" class="edge">
<title>Node1&#45;&gt;Node3</title>
<path fill="none" stroke="midnightblue" d="M93.17,-67C101.63,-67 110.41,-67 118.69,-67"/>
<polygon fill="midnightblue" stroke="midnightblue" points="118.86,-70.5 128.86,-67 118.86,-63.5 118.86,-70.5"/>
</g>
<!-- Node9 -->
<g id="node9" class="node">
<title>Node9</title>
<g id="a_node9"><a xlink:href="math_8f.html#a220ba0fa7c42176f0a75a7ccc4543ea0" target="_top" xlink:title=" ">
<polygon fill="white" stroke="black" points="130.5,-19.5 130.5,-38.5 189.5,-38.5 189.5,-19.5 130.5,-19.5"/>
<text text-anchor="middle" x="160" y="-26.5" font-family="Helvetica,sans-Serif" font-size="10.00">glmin_ms</text>
</a>
</g>
</g>
<!-- Node1&#45;&gt;Node9 -->
<g id="edge8" class="edge">
<title>Node1&#45;&gt;Node9</title>
<path fill="none" stroke="midnightblue" d="M75.64,-57.41C89.5,-52.69 106.42,-46.92 121.38,-41.82"/>
<polygon fill="midnightblue" stroke="midnightblue" points="122.54,-45.12 130.87,-38.59 120.28,-38.5 122.54,-45.12"/>
</g>
<!-- Node4 -->
<g id="node4" class="node">
<title>Node4</title>
<g id="a_node4"><a xlink:href="math_8f.html#af58b0d2ff8df811dc27c9e42460492b9" target="_top" xlink:title=" ">
<polygon fill="white" stroke="black" points="242,-76.5 242,-95.5 285,-95.5 285,-76.5 242,-76.5"/>
<text text-anchor="middle" x="263.5" y="-83.5" font-family="Helvetica,sans-Serif" font-size="10.00">glmax</text>
</a>
</g>
</g>
<!-- Node3&#45;&gt;Node4 -->
<g id="edge3" class="edge">
<title>Node3&#45;&gt;Node4</title>
<path fill="none" stroke="midnightblue" d="M191.18,-72.65C204.09,-75.07 219.14,-77.88 232.08,-80.3"/>
<polygon fill="midnightblue" stroke="midnightblue" points="231.44,-83.75 241.92,-82.15 232.73,-76.87 231.44,-83.75"/>
</g>
<!-- Node7 -->
<g id="node7" class="node">
<title>Node7</title>
<g id="a_node7"><a xlink:href="comm__mpi_8f.html#a225dcecff33da92ad29468c4e1bab406" target="_top" xlink:title=" ">
<polygon fill="white" stroke="black" points="227,-38.5 227,-57.5 300,-57.5 300,-38.5 227,-38.5"/>
<text text-anchor="middle" x="263.5" y="-45.5" font-family="Helvetica,sans-Serif" font-size="10.00">setnekcomm</text>
</a>
</g>
</g>
<!-- Node3&#45;&gt;Node7 -->
<g id="edge6" class="edge">
<title>Node3&#45;&gt;Node7</title>
<path fill="none" stroke="midnightblue" d="M191.18,-61.35C199.24,-59.84 208.14,-58.18 216.84,-56.55"/>
<polygon fill="midnightblue" stroke="midnightblue" points="217.71,-59.95 226.89,-54.67 216.42,-53.07 217.71,-59.95"/>
</g>
<!-- Node5 -->
<g id="node5" class="node">
<title>Node5</title>
<g id="a_node5"><a xlink:href="gs__test__gop__blocking_8c.html#ab2e24f9857f6d1ded7e4d556c6bc5e49" target="_top" xlink:title=" ">
<polygon fill="white" stroke="black" points="364,-0.5 364,-19.5 396,-19.5 396,-0.5 364,-0.5"/>
<text text-anchor="middle" x="380" y="-7.5" font-family="Helvetica,sans-Serif" font-size="10.00">gop</text>
</a>
</g>
</g>
<!-- Node4&#45;&gt;Node5 -->
<g id="edge4" class="edge">
<title>Node4&#45;&gt;Node5</title>
<path fill="none" stroke="midnightblue" d="M285.09,-76.42C290.16,-73.68 295.44,-70.48 300,-67 318.49,-52.89 316.99,-42.41 336,-29 341.6,-25.05 348.16,-21.64 354.44,-18.85"/>
<polygon fill="midnightblue" stroke="midnightblue" points="355.97,-22.01 363.9,-14.98 353.32,-15.53 355.97,-22.01"/>
</g>
<!-- Node6 -->
<g id="node6" class="node">
<title>Node6</title>
<g id="a_node6"><a xlink:href="math_8f.html#a17c0ecae12cc5c6096939885da90ad2b" target="_top" xlink:title=" ">
<polygon fill="white" stroke="black" points="460,-0.5 460,-19.5 519,-19.5 519,-0.5 460,-0.5"/>
<text text-anchor="middle" x="489.5" y="-7.5" font-family="Helvetica,sans-Serif" font-size="10.00">transpose</text>
</a>
</g>
</g>
<!-- Node5&#45;&gt;Node6 -->
<g id="edge5" class="edge">
<title>Node5&#45;&gt;Node6</title>
<path fill="none" stroke="midnightblue" d="M396.4,-10C410.25,-10 431.18,-10 449.59,-10"/>
<polygon fill="midnightblue" stroke="midnightblue" points="449.78,-13.5 459.78,-10 449.78,-6.5 449.78,-13.5"/>
</g>
<!-- Node8 -->
<g id="node8" class="node">
<title>Node8</title>
<g id="a_node8"><a xlink:href="mpi__dummy_8f.html#ac160db4315dd0998ac7f60dd94f35c0e" target="_top" xlink:title=" ">
<polygon fill="white" stroke="black" points="336,-38.5 336,-57.5 424,-57.5 424,-38.5 336,-38.5"/>
<text text-anchor="middle" x="380" y="-45.5" font-family="Helvetica,sans-Serif" font-size="10.00">mpi_comm_size</text>
</a>
</g>
</g>
<!-- Node7&#45;&gt;Node8 -->
<g id="edge7" class="edge">
<title>Node7&#45;&gt;Node8</title>
<path fill="none" stroke="midnightblue" d="M300.1,-48C308.22,-48 317.01,-48 325.69,-48"/>
<polygon fill="midnightblue" stroke="midnightblue" points="325.77,-51.5 335.77,-48 325.77,-44.5 325.77,-51.5"/>
</g>
<!-- Node9&#45;&gt;Node7 -->
<g id="edge11" class="edge">
<title>Node9&#45;&gt;Node7</title>
<path fill="none" stroke="midnightblue" d="M189.54,-34.34C198.07,-35.94 207.64,-37.73 216.97,-39.48"/>
<polygon fill="midnightblue" stroke="midnightblue" points="216.46,-42.94 226.94,-41.34 217.75,-36.06 216.46,-42.94"/>
</g>
<!-- Node10 -->
<g id="node10" class="node">
<title>Node10</title>
<g id="a_node10"><a xlink:href="math_8f.html#a102af0dc870819a605ae55d60c59f84a" target="_top" xlink:title=" ">
<polygon fill="white" stroke="black" points="243.5,-0.5 243.5,-19.5 283.5,-19.5 283.5,-0.5 243.5,-0.5"/>
<text text-anchor="middle" x="263.5" y="-7.5" font-family="Helvetica,sans-Serif" font-size="10.00">glmin</text>
</a>
</g>
</g>
<!-- Node9&#45;&gt;Node10 -->
<g id="edge9" class="edge">
<title>Node9&#45;&gt;Node10</title>
<path fill="none" stroke="midnightblue" d="M189.54,-23.66C203.28,-21.09 219.72,-18.01 233.52,-15.43"/>
<polygon fill="midnightblue" stroke="midnightblue" points="234.27,-18.84 243.46,-13.56 232.99,-11.96 234.27,-18.84"/>
</g>
<!-- Node10&#45;&gt;Node5 -->
<g id="edge10" class="edge">
<title>Node10&#45;&gt;Node5</title>
<path fill="none" stroke="midnightblue" d="M283.66,-10C302.86,-10 332.5,-10 353.63,-10"/>
<polygon fill="midnightblue" stroke="midnightblue" points="353.81,-13.5 363.81,-10 353.81,-6.5 353.81,-13.5"/>
</g>
</g>
</svg>
