<?xml version="1.0" encoding="UTF-8" standalone="no"?>
<!DOCTYPE svg PUBLIC "-//W3C//DTD SVG 1.1//EN"
 "http://www.w3.org/Graphics/SVG/1.1/DTD/svg11.dtd">
<!-- Generated by graphviz version 2.46.0 (0)
 -->
<!-- Title: meshtol Pages: 1 -->
<svg width="310pt" height="104pt"
 viewBox="0.00 0.00 310.00 104.00" xmlns="http://www.w3.org/2000/svg" xmlns:xlink="http://www.w3.org/1999/xlink">
<g id="graph0" class="graph" transform="scale(1 1) rotate(0) translate(4 100)">
<title>meshtol</title>
<polygon fill="white" stroke="transparent" points="-4,4 -4,-100 306,-100 306,4 -4,4"/>
<!-- Node1 -->
<g id="node1" class="node">
<title>Node1</title>
<g id="a_node1"><a xlink:title=" ">
<polygon fill="#bfbfbf" stroke="black" points="0,-57.5 0,-76.5 51,-76.5 51,-57.5 0,-57.5"/>
<text text-anchor="middle" x="25.5" y="-64.5" font-family="Helvetica,sans-Serif" font-size="10.00">meshtol</text>
</a>
</g>
</g>
<!-- Node2 -->
<g id="node2" class="node">
<title>Node2</title>
<g id="a_node2"><a xlink:href="math_8f.html#af58b0d2ff8df811dc27c9e42460492b9" target="_top" xlink:title=" ">
<polygon fill="white" stroke="black" points="87,-76.5 87,-95.5 130,-95.5 130,-76.5 87,-76.5"/>
<text text-anchor="middle" x="108.5" y="-83.5" font-family="Helvetica,sans-Serif" font-size="10.00">glmax</text>
</a>
</g>
</g>
<!-- Node1&#45;&gt;Node2 -->
<g id="edge1" class="edge">
<title>Node1&#45;&gt;Node2</title>
<path fill="none" stroke="midnightblue" d="M51.24,-72.8C59.38,-74.71 68.52,-76.86 77.03,-78.85"/>
<polygon fill="midnightblue" stroke="midnightblue" points="76.46,-82.31 86.99,-81.19 78.06,-75.5 76.46,-82.31"/>
</g>
<!-- Node5 -->
<g id="node5" class="node">
<title>Node5</title>
<g id="a_node5"><a xlink:href="subs2_8f.html#a75759e2c31e86fa99b44c9dc00071102" target="_top" xlink:title=" ">
<polygon fill="white" stroke="black" points="88,-38.5 88,-57.5 129,-57.5 129,-38.5 88,-38.5"/>
<text text-anchor="middle" x="108.5" y="-45.5" font-family="Helvetica,sans-Serif" font-size="10.00">opdot</text>
</a>
</g>
</g>
<!-- Node1&#45;&gt;Node5 -->
<g id="edge4" class="edge">
<title>Node1&#45;&gt;Node5</title>
<path fill="none" stroke="midnightblue" d="M51.24,-61.2C59.67,-59.22 69.17,-56.99 77.94,-54.93"/>
<polygon fill="midnightblue" stroke="midnightblue" points="78.85,-58.32 87.78,-52.63 77.25,-51.5 78.85,-58.32"/>
</g>
<!-- Node3 -->
<g id="node3" class="node">
<title>Node3</title>
<g id="a_node3"><a xlink:href="gs__test__gop__blocking_8c.html#ab2e24f9857f6d1ded7e4d556c6bc5e49" target="_top" xlink:title=" ">
<polygon fill="white" stroke="black" points="170.5,-76.5 170.5,-95.5 202.5,-95.5 202.5,-76.5 170.5,-76.5"/>
<text text-anchor="middle" x="186.5" y="-83.5" font-family="Helvetica,sans-Serif" font-size="10.00">gop</text>
</a>
</g>
</g>
<!-- Node2&#45;&gt;Node3 -->
<g id="edge2" class="edge">
<title>Node2&#45;&gt;Node3</title>
<path fill="none" stroke="midnightblue" d="M130.27,-86C139.46,-86 150.37,-86 160.05,-86"/>
<polygon fill="midnightblue" stroke="midnightblue" points="160.3,-89.5 170.3,-86 160.3,-82.5 160.3,-89.5"/>
</g>
<!-- Node4 -->
<g id="node4" class="node">
<title>Node4</title>
<g id="a_node4"><a xlink:href="math_8f.html#a17c0ecae12cc5c6096939885da90ad2b" target="_top" xlink:title=" ">
<polygon fill="white" stroke="black" points="243,-76.5 243,-95.5 302,-95.5 302,-76.5 243,-76.5"/>
<text text-anchor="middle" x="272.5" y="-83.5" font-family="Helvetica,sans-Serif" font-size="10.00">transpose</text>
</a>
</g>
</g>
<!-- Node3&#45;&gt;Node4 -->
<g id="edge3" class="edge">
<title>Node3&#45;&gt;Node4</title>
<path fill="none" stroke="midnightblue" d="M202.52,-86C210.96,-86 221.92,-86 232.61,-86"/>
<polygon fill="midnightblue" stroke="midnightblue" points="232.68,-89.5 242.68,-86 232.68,-82.5 232.68,-89.5"/>
</g>
<!-- Node6 -->
<g id="node6" class="node">
<title>Node6</title>
<g id="a_node6"><a xlink:href="math_8f.html#a64ef70b7a7c5c88813f82b60527b7485" target="_top" xlink:title=" ">
<polygon fill="white" stroke="black" points="166,-38.5 166,-57.5 207,-57.5 207,-38.5 166,-38.5"/>
<text text-anchor="middle" x="186.5" y="-45.5" font-family="Helvetica,sans-Serif" font-size="10.00">vdot2</text>
</a>
</g>
</g>
<!-- Node5&#45;&gt;Node6 -->
<g id="edge5" class="edge">
<title>Node5&#45;&gt;Node6</title>
<path fill="none" stroke="midnightblue" d="M129.07,-48C137.23,-48 146.88,-48 155.87,-48"/>
<polygon fill="midnightblue" stroke="midnightblue" points="155.99,-51.5 165.99,-48 155.99,-44.5 155.99,-51.5"/>
</g>
<!-- Node8 -->
<g id="node8" class="node">
<title>Node8</title>
<g id="a_node8"><a xlink:href="math_8f.html#af1b95db3cc8ee10635deec9d7c241e82" target="_top" xlink:title=" ">
<polygon fill="white" stroke="black" points="166,-0.5 166,-19.5 207,-19.5 207,-0.5 166,-0.5"/>
<text text-anchor="middle" x="186.5" y="-7.5" font-family="Helvetica,sans-Serif" font-size="10.00">vdot3</text>
</a>
</g>
</g>
<!-- Node5&#45;&gt;Node8 -->
<g id="edge7" class="edge">
<title>Node5&#45;&gt;Node8</title>
<path fill="none" stroke="midnightblue" d="M128.68,-38.41C137.32,-34.09 147.7,-28.9 157.21,-24.15"/>
<polygon fill="midnightblue" stroke="midnightblue" points="158.95,-27.19 166.33,-19.59 155.82,-20.93 158.95,-27.19"/>
</g>
<!-- Node7 -->
<g id="node7" class="node">
<title>Node7</title>
<g id="a_node7"><a xlink:href="genxyz_8f.html#a0a3061a8ab3b46ffa65ada9ddefa78b8" target="_top" xlink:title=" ">
<polygon fill="white" stroke="black" points="257.5,-19.5 257.5,-38.5 287.5,-38.5 287.5,-19.5 257.5,-19.5"/>
<text text-anchor="middle" x="272.5" y="-26.5" font-family="Helvetica,sans-Serif" font-size="10.00">dot</text>
</a>
</g>
</g>
<!-- Node6&#45;&gt;Node7 -->
<g id="edge6" class="edge">
<title>Node6&#45;&gt;Node7</title>
<path fill="none" stroke="midnightblue" d="M207.41,-43.5C219.38,-40.79 234.71,-37.32 247.38,-34.46"/>
<polygon fill="midnightblue" stroke="midnightblue" points="248.27,-37.84 257.25,-32.22 246.73,-31.01 248.27,-37.84"/>
</g>
<!-- Node8&#45;&gt;Node7 -->
<g id="edge8" class="edge">
<title>Node8&#45;&gt;Node7</title>
<path fill="none" stroke="midnightblue" d="M207.41,-14.5C219.38,-17.21 234.71,-20.68 247.38,-23.54"/>
<polygon fill="midnightblue" stroke="midnightblue" points="246.73,-26.99 257.25,-25.78 248.27,-20.16 246.73,-26.99"/>
</g>
</g>
</svg>
