<?xml version="1.0" encoding="UTF-8" standalone="no"?>
<!DOCTYPE svg PUBLIC "-//W3C//DTD SVG 1.1//EN"
 "http://www.w3.org/Graphics/SVG/1.1/DTD/svg11.dtd">
<!-- Generated by graphviz version 2.46.0 (0)
 -->
<!-- Title: divws Pages: 1 -->
<svg width="316pt" height="218pt"
 viewBox="0.00 0.00 316.00 218.00" xmlns="http://www.w3.org/2000/svg" xmlns:xlink="http://www.w3.org/1999/xlink">
<g id="graph0" class="graph" transform="scale(1 1) rotate(0) translate(4 214)">
<title>divws</title>
<polygon fill="white" stroke="transparent" points="-4,4 -4,-214 312,-214 312,4 -4,4"/>
<!-- Node1 -->
<g id="node1" class="node">
<title>Node1</title>
<g id="a_node1"><a xlink:title=" ">
<polygon fill="#bfbfbf" stroke="black" points="0,-95.5 0,-114.5 42,-114.5 42,-95.5 0,-95.5"/>
<text text-anchor="middle" x="21" y="-102.5" font-family="Helvetica,sans-Serif" font-size="10.00">divws</text>
</a>
</g>
</g>
<!-- Node2 -->
<g id="node2" class="node">
<title>Node2</title>
<g id="a_node2"><a xlink:href="math_8f.html#a1f336314da3012286837ede20a0495c6" target="_top" xlink:title=" ">
<polygon fill="white" stroke="black" points="161,-190.5 161,-209.5 211,-209.5 211,-190.5 161,-190.5"/>
<text text-anchor="middle" x="186" y="-197.5" font-family="Helvetica,sans-Serif" font-size="10.00">addcol3</text>
</a>
</g>
</g>
<!-- Node1&#45;&gt;Node2 -->
<g id="edge1" class="edge">
<title>Node1&#45;&gt;Node2</title>
<path fill="none" stroke="midnightblue" d="M26.09,-114.53C33.7,-131.02 51.69,-164.66 78,-181 99.72,-194.49 128.44,-199.02 150.65,-200.3"/>
<polygon fill="midnightblue" stroke="midnightblue" points="150.53,-203.8 160.66,-200.68 150.8,-196.8 150.53,-203.8"/>
</g>
<!-- Node5 -->
<g id="node4" class="node">
<title>Node5</title>
<g id="a_node4"><a xlink:href="mvmesh_8f.html#a8a2f0be07ac7b71ff3662a0412f09208" target="_top" xlink:title=" ">
<polygon fill="white" stroke="black" points="78.5,-152.5 78.5,-171.5 124.5,-171.5 124.5,-152.5 78.5,-152.5"/>
<text text-anchor="middle" x="101.5" y="-159.5" font-family="Helvetica,sans-Serif" font-size="10.00">axifms</text>
</a>
</g>
</g>
<!-- Node1&#45;&gt;Node5 -->
<g id="edge3" class="edge">
<title>Node1&#45;&gt;Node5</title>
<path fill="none" stroke="midnightblue" d="M35.32,-114.67C47.34,-123.4 65.25,-136.4 79.25,-146.57"/>
<polygon fill="midnightblue" stroke="midnightblue" points="77.23,-149.43 87.38,-152.47 81.34,-143.77 77.23,-149.43"/>
</g>
<!-- Node7 -->
<g id="node6" class="node">
<title>Node7</title>
<g id="a_node6"><a xlink:href="math_8f.html#a0d9af374781723c272547a185cb3da5e" target="_top" xlink:title=" ">
<polygon fill="white" stroke="black" points="168.5,-114.5 168.5,-133.5 203.5,-133.5 203.5,-114.5 168.5,-114.5"/>
<text text-anchor="middle" x="186" y="-121.5" font-family="Helvetica,sans-Serif" font-size="10.00">col3</text>
</a>
</g>
</g>
<!-- Node1&#45;&gt;Node7 -->
<g id="edge9" class="edge">
<title>Node1&#45;&gt;Node7</title>
<path fill="none" stroke="midnightblue" d="M42.31,-107.37C71.6,-110.78 125.74,-117.09 158.25,-120.88"/>
<polygon fill="midnightblue" stroke="midnightblue" points="158.04,-124.38 168.38,-122.06 158.85,-117.43 158.04,-124.38"/>
</g>
<!-- Node8 -->
<g id="node7" class="node">
<title>Node8</title>
<g id="a_node7"><a xlink:href="math_8f.html#a3470db04166d9ba91454a14cc17dbec2" target="_top" xlink:title=" ">
<polygon fill="white" stroke="black" points="84,-76.5 84,-95.5 119,-95.5 119,-76.5 84,-76.5"/>
<text text-anchor="middle" x="101.5" y="-83.5" font-family="Helvetica,sans-Serif" font-size="10.00">col2</text>
</a>
</g>
</g>
<!-- Node1&#45;&gt;Node8 -->
<g id="edge7" class="edge">
<title>Node1&#45;&gt;Node8</title>
<path fill="none" stroke="midnightblue" d="M42.22,-100.11C51.89,-97.77 63.6,-94.93 73.98,-92.42"/>
<polygon fill="midnightblue" stroke="midnightblue" points="74.9,-95.8 83.8,-90.04 73.25,-88.99 74.9,-95.8"/>
</g>
<!-- Node9 -->
<g id="node8" class="node">
<title>Node9</title>
<g id="a_node8"><a xlink:href="math_8f.html#a12a3f9854732798780dfe93ecd4e38bf" target="_top" xlink:title=" ">
<polygon fill="white" stroke="black" points="78,-38.5 78,-57.5 125,-57.5 125,-38.5 78,-38.5"/>
<text text-anchor="middle" x="101.5" y="-45.5" font-family="Helvetica,sans-Serif" font-size="10.00">invcol2</text>
</a>
</g>
</g>
<!-- Node1&#45;&gt;Node9 -->
<g id="edge10" class="edge">
<title>Node1&#45;&gt;Node9</title>
<path fill="none" stroke="midnightblue" d="M35.32,-95.33C47.34,-86.6 65.25,-73.6 79.25,-63.43"/>
<polygon fill="midnightblue" stroke="midnightblue" points="81.34,-66.23 87.38,-57.53 77.23,-60.57 81.34,-66.23"/>
</g>
<!-- Node10 -->
<g id="node9" class="node">
<title>Node10</title>
<g id="a_node9"><a xlink:href="subs1_8f.html#afc60c4d0a0e2a2a65de26a48a2bdb5f1" target="_top" xlink:title=" ">
<polygon fill="white" stroke="red" points="85,-0.5 85,-19.5 118,-19.5 118,-0.5 85,-0.5"/>
<text text-anchor="middle" x="101.5" y="-7.5" font-family="Helvetica,sans-Serif" font-size="10.00">urst</text>
</a>
</g>
</g>
<!-- Node1&#45;&gt;Node10 -->
<g id="edge12" class="edge">
<title>Node1&#45;&gt;Node10</title>
<path fill="none" stroke="midnightblue" d="M28.06,-95.33C37.7,-80.33 57.51,-50.9 78,-29 78.77,-28.18 79.57,-27.36 80.4,-26.54"/>
<polygon fill="midnightblue" stroke="midnightblue" points="83.05,-28.87 88.12,-19.56 78.35,-23.67 83.05,-28.87"/>
</g>
<!-- Node3 -->
<g id="node3" class="node">
<title>Node3</title>
<g id="a_node3"><a xlink:href="comm__mpi_8f.html#af06ec29f06aac3f8809e19de2a7e8946" target="_top" xlink:title=" ">
<polygon fill="white" stroke="red" points="247,-95.5 247,-114.5 308,-114.5 308,-95.5 247,-95.5"/>
<text text-anchor="middle" x="277.5" y="-102.5" font-family="Helvetica,sans-Serif" font-size="10.00">dnekclock</text>
</a>
</g>
</g>
<!-- Node2&#45;&gt;Node3 -->
<g id="edge2" class="edge">
<title>Node2&#45;&gt;Node3</title>
<path fill="none" stroke="midnightblue" d="M200.08,-190.37C203.73,-187.49 207.62,-184.24 211,-181 230.41,-162.38 250.23,-138.58 262.91,-122.61"/>
<polygon fill="midnightblue" stroke="midnightblue" points="265.75,-124.66 269.17,-114.63 260.24,-120.34 265.75,-124.66"/>
</g>
<!-- Node6 -->
<g id="node5" class="node">
<title>Node6</title>
<g id="a_node5"><a xlink:href="math_8f.html#a40268d720140e9b00647213189f3144a" target="_top" xlink:title=" ">
<polygon fill="white" stroke="black" points="161,-152.5 161,-171.5 211,-171.5 211,-152.5 161,-152.5"/>
<text text-anchor="middle" x="186" y="-159.5" font-family="Helvetica,sans-Serif" font-size="10.00">addcol4</text>
</a>
</g>
</g>
<!-- Node5&#45;&gt;Node6 -->
<g id="edge4" class="edge">
<title>Node5&#45;&gt;Node6</title>
<path fill="none" stroke="midnightblue" d="M124.61,-162C132.64,-162 141.91,-162 150.74,-162"/>
<polygon fill="midnightblue" stroke="midnightblue" points="150.8,-165.5 160.8,-162 150.8,-158.5 150.8,-165.5"/>
</g>
<!-- Node5&#45;&gt;Node7 -->
<g id="edge5" class="edge">
<title>Node5&#45;&gt;Node7</title>
<path fill="none" stroke="midnightblue" d="M123.32,-152.41C134.21,-147.4 147.64,-141.21 159.18,-135.89"/>
<polygon fill="midnightblue" stroke="midnightblue" points="160.72,-139.04 168.34,-131.67 157.8,-132.68 160.72,-139.04"/>
</g>
<!-- Node7&#45;&gt;Node3 -->
<g id="edge6" class="edge">
<title>Node7&#45;&gt;Node3</title>
<path fill="none" stroke="midnightblue" d="M203.83,-120.43C213.16,-118.45 225.17,-115.9 236.73,-113.44"/>
<polygon fill="midnightblue" stroke="midnightblue" points="237.64,-116.83 246.7,-111.33 236.19,-109.98 237.64,-116.83"/>
</g>
<!-- Node8&#45;&gt;Node3 -->
<g id="edge8" class="edge">
<title>Node8&#45;&gt;Node3</title>
<path fill="none" stroke="midnightblue" d="M119.18,-87.82C146.09,-90.76 199.78,-96.62 236.9,-100.68"/>
<polygon fill="midnightblue" stroke="midnightblue" points="236.57,-104.16 246.89,-101.77 237.33,-97.2 236.57,-104.16"/>
</g>
<!-- Node9&#45;&gt;Node3 -->
<g id="edge11" class="edge">
<title>Node9&#45;&gt;Node3</title>
<path fill="none" stroke="midnightblue" d="M125.25,-55.45C153.75,-64.79 203.05,-80.94 237.6,-92.26"/>
<polygon fill="midnightblue" stroke="midnightblue" points="236.77,-95.67 247.36,-95.46 238.95,-89.02 236.77,-95.67"/>
</g>
<!-- Node11 -->
<g id="node10" class="node">
<title>Node11</title>
<g id="a_node10"><a xlink:href="subs1_8f.html#a1c24564c4bf687782fa02b817446f8fc" target="_top" xlink:title=" ">
<polygon fill="white" stroke="black" points="167,-0.5 167,-19.5 205,-19.5 205,-0.5 167,-0.5"/>
<text text-anchor="middle" x="186" y="-7.5" font-family="Helvetica,sans-Serif" font-size="10.00">ddrst</text>
</a>
</g>
</g>
<!-- Node10&#45;&gt;Node11 -->
<g id="edge13" class="edge">
<title>Node10&#45;&gt;Node11</title>
<path fill="none" stroke="midnightblue" d="M118.02,-10C128.88,-10 143.72,-10 156.66,-10"/>
<polygon fill="midnightblue" stroke="midnightblue" points="156.97,-13.5 166.97,-10 156.97,-6.5 156.97,-13.5"/>
</g>
</g>
</svg>
