<?xml version="1.0" encoding="UTF-8" standalone="no"?>
<!DOCTYPE svg PUBLIC "-//W3C//DTD SVG 1.1//EN"
 "http://www.w3.org/Graphics/SVG/1.1/DTD/svg11.dtd">
<!-- Generated by graphviz version 2.46.0 (0)
 -->
<!-- Title: faczqn Pages: 1 -->
<svg width="473pt" height="142pt"
 viewBox="0.00 0.00 473.00 142.00" xmlns="http://www.w3.org/2000/svg" xmlns:xlink="http://www.w3.org/1999/xlink">
<g id="graph0" class="graph" transform="scale(1 1) rotate(0) translate(4 138)">
<title>faczqn</title>
<polygon fill="white" stroke="transparent" points="-4,4 -4,-138 469,-138 469,4 -4,4"/>
<!-- Node1 -->
<g id="node1" class="node">
<title>Node1</title>
<g id="a_node1"><a xlink:title=" ">
<polygon fill="#bfbfbf" stroke="black" points="419,-57.5 419,-76.5 465,-76.5 465,-57.5 419,-57.5"/>
<text text-anchor="middle" x="442" y="-64.5" font-family="Helvetica,sans-Serif" font-size="10.00">faczqn</text>
</a>
</g>
</g>
<!-- Node2 -->
<g id="node2" class="node">
<title>Node2</title>
<g id="a_node2"><a xlink:href="mvmesh_8f.html#a845012ae3c072f327c08bf2d1a43bf3f" target="_top" xlink:title=" ">
<polygon fill="white" stroke="black" points="334,-57.5 334,-76.5 383,-76.5 383,-57.5 334,-57.5"/>
<text text-anchor="middle" x="358.5" y="-64.5" font-family="Helvetica,sans-Serif" font-size="10.00">mvbdry</text>
</a>
</g>
</g>
<!-- Node1&#45;&gt;Node2 -->
<g id="edge1" class="edge">
<title>Node1&#45;&gt;Node2</title>
<path fill="none" stroke="midnightblue" d="M408.7,-67C400.18,-67 391.14,-67 383.17,-67"/>
<polygon fill="midnightblue" stroke="midnightblue" points="408.73,-70.5 418.73,-67 408.73,-63.5 408.73,-70.5"/>
</g>
<!-- Node3 -->
<g id="node3" class="node">
<title>Node3</title>
<g id="a_node3"><a xlink:href="drive2_8f.html#aa4f676fe0a57e3cbdce8c8fe353edeb0" target="_top" xlink:title=" ">
<polygon fill="white" stroke="black" points="252,-57.5 252,-76.5 298,-76.5 298,-57.5 252,-57.5"/>
<text text-anchor="middle" x="275" y="-64.5" font-family="Helvetica,sans-Serif" font-size="10.00">meshv</text>
</a>
</g>
</g>
<!-- Node2&#45;&gt;Node3 -->
<g id="edge2" class="edge">
<title>Node2&#45;&gt;Node3</title>
<path fill="none" stroke="midnightblue" d="M323.71,-67C315.07,-67 306.01,-67 298.12,-67"/>
<polygon fill="midnightblue" stroke="midnightblue" points="323.93,-70.5 333.93,-67 323.93,-63.5 323.93,-70.5"/>
</g>
<!-- Node4 -->
<g id="node4" class="node">
<title>Node4</title>
<g id="a_node4"><a xlink:href="ssolv_8f.html#a4bb42a5afabbba8c6518d83cbe481c17" target="_top" xlink:title=" ">
<polygon fill="white" stroke="black" points="153.5,-114.5 153.5,-133.5 204.5,-133.5 204.5,-114.5 153.5,-114.5"/>
<text text-anchor="middle" x="179" y="-121.5" font-family="Helvetica,sans-Serif" font-size="10.00">go1step</text>
</a>
</g>
</g>
<!-- Node3&#45;&gt;Node4 -->
<g id="edge3" class="edge">
<title>Node3&#45;&gt;Node4</title>
<path fill="none" stroke="midnightblue" d="M251.62,-82.37C240.98,-89.49 227.99,-97.93 216,-105 210.52,-108.23 204.45,-111.54 198.87,-114.47"/>
<polygon fill="midnightblue" stroke="midnightblue" points="253.61,-85.25 259.94,-76.75 249.69,-79.45 253.61,-85.25"/>
</g>
<!-- Node5 -->
<g id="node5" class="node">
<title>Node5</title>
<g id="a_node5"><a xlink:href="ssolv_8f.html#a2de8913c214fa083dcb088c57bd45272" target="_top" xlink:title=" ">
<polygon fill="white" stroke="black" points="156,-76.5 156,-95.5 202,-95.5 202,-76.5 156,-76.5"/>
<text text-anchor="middle" x="179" y="-83.5" font-family="Helvetica,sans-Serif" font-size="10.00">gostep</text>
</a>
</g>
</g>
<!-- Node3&#45;&gt;Node5 -->
<g id="edge4" class="edge">
<title>Node3&#45;&gt;Node5</title>
<path fill="none" stroke="midnightblue" d="M241.7,-73.53C228.65,-76.17 213.91,-79.15 202.12,-81.53"/>
<polygon fill="midnightblue" stroke="midnightblue" points="242.61,-76.91 251.72,-71.5 241.23,-70.05 242.61,-76.91"/>
</g>
<!-- Node7 -->
<g id="node7" class="node">
<title>Node7</title>
<g id="a_node7"><a xlink:href="drive1_8f.html#ae177ea7efac97f35241521b782a671c0" target="_top" xlink:title=" ">
<polygon fill="white" stroke="black" points="142,-38.5 142,-57.5 216,-57.5 216,-38.5 142,-38.5"/>
<text text-anchor="middle" x="179" y="-45.5" font-family="Helvetica,sans-Serif" font-size="10.00">nek_advance</text>
</a>
</g>
</g>
<!-- Node3&#45;&gt;Node7 -->
<g id="edge6" class="edge">
<title>Node3&#45;&gt;Node7</title>
<path fill="none" stroke="midnightblue" d="M241.71,-60.47C233.45,-58.8 224.52,-57 216.08,-55.29"/>
<polygon fill="midnightblue" stroke="midnightblue" points="241.23,-63.95 251.72,-62.5 242.61,-57.09 241.23,-63.95"/>
</g>
<!-- Node11 -->
<g id="node9" class="node">
<title>Node11</title>
<g id="a_node9"><a xlink:href="ic_8f.html#acaefa33e86633e4a7a4b28347d4620d1" target="_top" xlink:title=" ">
<polygon fill="white" stroke="red" points="157.5,-0.5 157.5,-19.5 200.5,-19.5 200.5,-0.5 157.5,-0.5"/>
<text text-anchor="middle" x="179" y="-7.5" font-family="Helvetica,sans-Serif" font-size="10.00">setics</text>
</a>
</g>
</g>
<!-- Node3&#45;&gt;Node11 -->
<g id="edge8" class="edge">
<title>Node3&#45;&gt;Node11</title>
<path fill="none" stroke="midnightblue" d="M251.62,-51.63C240.98,-44.51 227.99,-36.07 216,-29 210.52,-25.77 204.45,-22.46 198.87,-19.53"/>
<polygon fill="midnightblue" stroke="midnightblue" points="249.69,-54.55 259.94,-57.25 253.61,-48.75 249.69,-54.55"/>
</g>
<!-- Node6 -->
<g id="node6" class="node">
<title>Node6</title>
<g id="a_node6"><a xlink:href="ssolv_8f.html#a4c61f5b12a3bb1945a465966ba14ff9b" target="_top" xlink:title=" ">
<polygon fill="white" stroke="black" points="27.5,-76.5 27.5,-95.5 78.5,-95.5 78.5,-76.5 27.5,-76.5"/>
<text text-anchor="middle" x="53" y="-83.5" font-family="Helvetica,sans-Serif" font-size="10.00">gonstep</text>
</a>
</g>
</g>
<!-- Node5&#45;&gt;Node6 -->
<g id="edge5" class="edge">
<title>Node5&#45;&gt;Node6</title>
<path fill="none" stroke="midnightblue" d="M145.76,-86C124.76,-86 97.78,-86 78.53,-86"/>
<polygon fill="midnightblue" stroke="midnightblue" points="145.83,-89.5 155.83,-86 145.83,-82.5 145.83,-89.5"/>
</g>
<!-- Node8 -->
<g id="node8" class="node">
<title>Node8</title>
<g id="a_node8"><a xlink:href="drive1_8f.html#a18d3e839786263fc4cf91f7eeb714371" target="_top" xlink:title=" ">
<polygon fill="white" stroke="red" points="0,-38.5 0,-57.5 106,-57.5 106,-38.5 0,-38.5"/>
<text text-anchor="middle" x="53" y="-45.5" font-family="Helvetica,sans-Serif" font-size="10.00">nek__multi_advance</text>
</a>
</g>
</g>
<!-- Node7&#45;&gt;Node8 -->
<g id="edge7" class="edge">
<title>Node7&#45;&gt;Node8</title>
<path fill="none" stroke="midnightblue" d="M131.56,-48C123.27,-48 114.58,-48 106.14,-48"/>
<polygon fill="midnightblue" stroke="midnightblue" points="131.8,-51.5 141.8,-48 131.8,-44.5 131.8,-51.5"/>
</g>
<!-- Node12 -->
<g id="node10" class="node">
<title>Node12</title>
<g id="a_node10"><a xlink:href="postpro_8f.html#ac11e1909dcf07a738bcba7e6cbb4295f" target="_top" xlink:title=" ">
<polygon fill="white" stroke="black" points="28,-0.5 28,-19.5 78,-19.5 78,-0.5 28,-0.5"/>
<text text-anchor="middle" x="53" y="-7.5" font-family="Helvetica,sans-Serif" font-size="10.00">load_fld</text>
</a>
</g>
</g>
<!-- Node11&#45;&gt;Node12 -->
<g id="edge9" class="edge">
<title>Node11&#45;&gt;Node12</title>
<path fill="none" stroke="midnightblue" d="M147.09,-10C125.8,-10 97.91,-10 78.23,-10"/>
<polygon fill="midnightblue" stroke="midnightblue" points="147.25,-13.5 157.25,-10 147.25,-6.5 147.25,-13.5"/>
</g>
</g>
</svg>
