<?xml version="1.0" encoding="UTF-8" standalone="no"?>
<!DOCTYPE svg PUBLIC "-//W3C//DTD SVG 1.1//EN"
 "http://www.w3.org/Graphics/SVG/1.1/DTD/svg11.dtd">
<!-- Generated by graphviz version 2.46.0 (0)
 -->
<!-- Title: norcmp2 Pages: 1 -->
<svg width="393pt" height="180pt"
 viewBox="0.00 0.00 393.00 180.00" xmlns="http://www.w3.org/2000/svg" xmlns:xlink="http://www.w3.org/1999/xlink">
<g id="graph0" class="graph" transform="scale(1 1) rotate(0) translate(4 176)">
<title>norcmp2</title>
<polygon fill="white" stroke="transparent" points="-4,4 -4,-176 389,-176 389,4 -4,4"/>
<!-- Node1 -->
<g id="node1" class="node">
<title>Node1</title>
<g id="a_node1"><a xlink:title=" ">
<polygon fill="#bfbfbf" stroke="black" points="0,-95.5 0,-114.5 54,-114.5 54,-95.5 0,-95.5"/>
<text text-anchor="middle" x="27" y="-102.5" font-family="Helvetica,sans-Serif" font-size="10.00">norcmp2</text>
</a>
</g>
</g>
<!-- Node2 -->
<g id="node2" class="node">
<title>Node2</title>
<g id="a_node2"><a xlink:href="connect1_8f.html#aa1c9016b4c28e8a8512be6f6d67eefce" target="_top" xlink:title=" ">
<polygon fill="white" stroke="black" points="90,-114.5 90,-133.5 133,-133.5 133,-114.5 90,-114.5"/>
<text text-anchor="middle" x="111.5" y="-121.5" font-family="Helvetica,sans-Serif" font-size="10.00">facind</text>
</a>
</g>
</g>
<!-- Node1&#45;&gt;Node2 -->
<g id="edge1" class="edge">
<title>Node1&#45;&gt;Node2</title>
<path fill="none" stroke="midnightblue" d="M54.1,-111.01C62.29,-112.9 71.41,-115 79.88,-116.95"/>
<polygon fill="midnightblue" stroke="midnightblue" points="79.26,-120.4 89.79,-119.23 80.83,-113.57 79.26,-120.4"/>
</g>
<!-- Node3 -->
<g id="node3" class="node">
<title>Node3</title>
<g id="a_node3"><a xlink:href="connect2_8f.html#a6e862f603b59c81091476a690c5e94ee" target="_top" xlink:title=" ">
<polygon fill="white" stroke="black" points="91.5,-76.5 91.5,-95.5 131.5,-95.5 131.5,-76.5 91.5,-76.5"/>
<text text-anchor="middle" x="111.5" y="-83.5" font-family="Helvetica,sans-Serif" font-size="10.00">scale</text>
</a>
</g>
</g>
<!-- Node1&#45;&gt;Node3 -->
<g id="edge2" class="edge">
<title>Node1&#45;&gt;Node3</title>
<path fill="none" stroke="midnightblue" d="M54.1,-98.99C62.79,-96.99 72.52,-94.75 81.41,-92.7"/>
<polygon fill="midnightblue" stroke="midnightblue" points="82.41,-96.06 91.37,-90.41 80.84,-89.24 82.41,-96.06"/>
</g>
<!-- Node4 -->
<g id="node4" class="node">
<title>Node4</title>
<g id="a_node4"><a xlink:href="math_8f.html#ac231f0566c16504dadd6ba0f16a38bd9" target="_top" xlink:title=" ">
<polygon fill="white" stroke="black" points="174,-152.5 174,-171.5 217,-171.5 217,-152.5 174,-152.5"/>
<text text-anchor="middle" x="195.5" y="-159.5" font-family="Helvetica,sans-Serif" font-size="10.00">glsum</text>
</a>
</g>
</g>
<!-- Node3&#45;&gt;Node4 -->
<g id="edge3" class="edge">
<title>Node3&#45;&gt;Node4</title>
<path fill="none" stroke="midnightblue" d="M122.89,-95.63C136.44,-108.19 160.37,-130.37 176.81,-145.6"/>
<polygon fill="midnightblue" stroke="midnightblue" points="174.49,-148.22 184.2,-152.45 179.24,-143.09 174.49,-148.22"/>
</g>
<!-- Node5 -->
<g id="node5" class="node">
<title>Node5</title>
<g id="a_node5"><a xlink:href="gs__test__gop__blocking_8c.html#ab2e24f9857f6d1ded7e4d556c6bc5e49" target="_top" xlink:title=" ">
<polygon fill="white" stroke="black" points="258,-114.5 258,-133.5 290,-133.5 290,-114.5 258,-114.5"/>
<text text-anchor="middle" x="274" y="-121.5" font-family="Helvetica,sans-Serif" font-size="10.00">gop</text>
</a>
</g>
</g>
<!-- Node3&#45;&gt;Node5 -->
<g id="edge6" class="edge">
<title>Node3&#45;&gt;Node5</title>
<path fill="none" stroke="midnightblue" d="M131.64,-93.2C142.49,-97.09 156.37,-101.74 169,-105 195.48,-111.83 226.38,-117.15 247.57,-120.4"/>
<polygon fill="midnightblue" stroke="midnightblue" points="247.29,-123.9 257.69,-121.91 248.32,-116.97 247.29,-123.9"/>
</g>
<!-- Node7 -->
<g id="node7" class="node">
<title>Node7</title>
<g id="a_node7"><a xlink:href="connect2_8f.html#a15434c453b53c83ba2cb2a768d35085e" target="_top" xlink:title=" ">
<polygon fill="white" stroke="black" points="176.5,-76.5 176.5,-95.5 214.5,-95.5 214.5,-76.5 176.5,-76.5"/>
<text text-anchor="middle" x="195.5" y="-83.5" font-family="Helvetica,sans-Serif" font-size="10.00">inrtia</text>
</a>
</g>
</g>
<!-- Node3&#45;&gt;Node7 -->
<g id="edge7" class="edge">
<title>Node3&#45;&gt;Node7</title>
<path fill="none" stroke="midnightblue" d="M131.52,-86C141.88,-86 154.9,-86 166.4,-86"/>
<polygon fill="midnightblue" stroke="midnightblue" points="166.43,-89.5 176.43,-86 166.43,-82.5 166.43,-89.5"/>
</g>
<!-- Node8 -->
<g id="node8" class="node">
<title>Node8</title>
<g id="a_node8"><a xlink:href="math_8f.html#af44de42b023a4a68cd98ea341204342d" target="_top" xlink:title=" ">
<polygon fill="white" stroke="black" points="176.5,-38.5 176.5,-57.5 214.5,-57.5 214.5,-38.5 176.5,-38.5"/>
<text text-anchor="middle" x="195.5" y="-45.5" font-family="Helvetica,sans-Serif" font-size="10.00">rzero</text>
</a>
</g>
</g>
<!-- Node3&#45;&gt;Node8 -->
<g id="edge9" class="edge">
<title>Node3&#45;&gt;Node8</title>
<path fill="none" stroke="midnightblue" d="M131.52,-77.19C142.09,-72.29 155.43,-66.11 167.11,-60.69"/>
<polygon fill="midnightblue" stroke="midnightblue" points="168.83,-63.75 176.43,-56.37 165.88,-57.4 168.83,-63.75"/>
</g>
<!-- Node9 -->
<g id="node9" class="node">
<title>Node9</title>
<g id="a_node9"><a xlink:href="connect2_8f.html#a87e4cf77e2fcb243172fa8da88d5dfae" target="_top" xlink:title=" ">
<polygon fill="white" stroke="black" points="169,-0.5 169,-19.5 222,-19.5 222,-0.5 169,-0.5"/>
<text text-anchor="middle" x="195.5" y="-7.5" font-family="Helvetica,sans-Serif" font-size="10.00">volume2</text>
</a>
</g>
</g>
<!-- Node3&#45;&gt;Node9 -->
<g id="edge10" class="edge">
<title>Node3&#45;&gt;Node9</title>
<path fill="none" stroke="midnightblue" d="M121.29,-76.28C132.07,-64.57 151.12,-44.53 169,-29 170.15,-28 171.34,-27 172.56,-26.01"/>
<polygon fill="midnightblue" stroke="midnightblue" points="174.95,-28.59 180.71,-19.69 170.66,-23.05 174.95,-28.59"/>
</g>
<!-- Node4&#45;&gt;Node5 -->
<g id="edge4" class="edge">
<title>Node4&#45;&gt;Node5</title>
<path fill="none" stroke="midnightblue" d="M215.8,-152.41C225.7,-147.5 237.86,-141.46 248.42,-136.21"/>
<polygon fill="midnightblue" stroke="midnightblue" points="250.15,-139.26 257.55,-131.67 247.04,-132.99 250.15,-139.26"/>
</g>
<!-- Node6 -->
<g id="node6" class="node">
<title>Node6</title>
<g id="a_node6"><a xlink:href="math_8f.html#a17c0ecae12cc5c6096939885da90ad2b" target="_top" xlink:title=" ">
<polygon fill="white" stroke="black" points="326,-114.5 326,-133.5 385,-133.5 385,-114.5 326,-114.5"/>
<text text-anchor="middle" x="355.5" y="-121.5" font-family="Helvetica,sans-Serif" font-size="10.00">transpose</text>
</a>
</g>
</g>
<!-- Node5&#45;&gt;Node6 -->
<g id="edge5" class="edge">
<title>Node5&#45;&gt;Node6</title>
<path fill="none" stroke="midnightblue" d="M290.33,-124C297.61,-124 306.67,-124 315.67,-124"/>
<polygon fill="midnightblue" stroke="midnightblue" points="315.7,-127.5 325.7,-124 315.7,-120.5 315.7,-127.5"/>
</g>
<!-- Node7&#45;&gt;Node5 -->
<g id="edge8" class="edge">
<title>Node7&#45;&gt;Node5</title>
<path fill="none" stroke="midnightblue" d="M214.63,-95.01C224.81,-100.06 237.66,-106.44 248.7,-111.93"/>
<polygon fill="midnightblue" stroke="midnightblue" points="247.32,-115.15 257.83,-116.47 250.43,-108.88 247.32,-115.15"/>
</g>
</g>
</svg>
