<?xml version="1.0" encoding="UTF-8" standalone="no"?>
<!DOCTYPE svg PUBLIC "-//W3C//DTD SVG 1.1//EN"
 "http://www.w3.org/Graphics/SVG/1.1/DTD/svg11.dtd">
<!-- Generated by graphviz version 2.46.0 (0)
 -->
<!-- Title: quickmv2d Pages: 1 -->
<svg width="260pt" height="237pt"
 viewBox="0.00 0.00 260.00 237.00" xmlns="http://www.w3.org/2000/svg" xmlns:xlink="http://www.w3.org/1999/xlink">
<g id="graph0" class="graph" transform="scale(1 1) rotate(0) translate(4 233)">
<title>quickmv2d</title>
<polygon fill="white" stroke="transparent" points="-4,4 -4,-233 256,-233 256,4 -4,4"/>
<!-- Node1 -->
<g id="node1" class="node">
<title>Node1</title>
<g id="a_node1"><a xlink:title=" ">
<polygon fill="#bfbfbf" stroke="black" points="0,-95.5 0,-114.5 64,-114.5 64,-95.5 0,-95.5"/>
<text text-anchor="middle" x="32" y="-102.5" font-family="Helvetica,sans-Serif" font-size="10.00">quickmv2d</text>
</a>
</g>
</g>
<!-- Node2 -->
<g id="node2" class="node">
<title>Node2</title>
<g id="a_node2"><a xlink:href="ic_8f.html#a12fbcc70f37b3490eeda7dfb002dcc7d" target="_top" xlink:title=" ">
<polygon fill="white" stroke="black" points="100,-190.5 100,-209.5 143,-209.5 143,-190.5 100,-190.5"/>
<text text-anchor="middle" x="121.5" y="-197.5" font-family="Helvetica,sans-Serif" font-size="10.00">dsavg</text>
</a>
</g>
</g>
<!-- Node1&#45;&gt;Node2 -->
<g id="edge1" class="edge">
<title>Node1&#45;&gt;Node2</title>
<path fill="none" stroke="midnightblue" d="M40.96,-114.64C53.21,-129.34 77.65,-158.08 100,-181 100.65,-181.67 101.32,-182.34 102,-183.02"/>
<polygon fill="midnightblue" stroke="midnightblue" points="99.81,-185.76 109.45,-190.14 104.64,-180.7 99.81,-185.76"/>
</g>
<!-- Node9 -->
<g id="node5" class="node">
<title>Node9</title>
<g id="a_node5"><a xlink:href="dprocmap_8f.html#a90fd349db1c16c4cb8108485b3c200e0" target="_top" xlink:title=" ">
<polygon fill="white" stroke="black" points="104.5,-152.5 104.5,-171.5 138.5,-171.5 138.5,-152.5 104.5,-152.5"/>
<text text-anchor="middle" x="121.5" y="-159.5" font-family="Helvetica,sans-Serif" font-size="10.00">gllel</text>
</a>
</g>
</g>
<!-- Node1&#45;&gt;Node9 -->
<g id="edge4" class="edge">
<title>Node1&#45;&gt;Node9</title>
<path fill="none" stroke="midnightblue" d="M47.84,-114.67C61.38,-123.48 81.59,-136.65 97.26,-146.86"/>
<polygon fill="midnightblue" stroke="midnightblue" points="95.59,-149.95 105.88,-152.47 99.41,-144.08 95.59,-149.95"/>
</g>
<!-- Node22 -->
<g id="node7" class="node">
<title>Node22</title>
<g id="a_node7"><a xlink:href="dprocmap_8f.html#aa8f8117aad966b2c1f877b334d9d407b" target="_top" xlink:title=" ">
<polygon fill="white" stroke="black" points="102,-114.5 102,-133.5 141,-133.5 141,-114.5 102,-114.5"/>
<text text-anchor="middle" x="121.5" y="-121.5" font-family="Helvetica,sans-Serif" font-size="10.00">gllnid</text>
</a>
</g>
</g>
<!-- Node1&#45;&gt;Node22 -->
<g id="edge6" class="edge">
<title>Node1&#45;&gt;Node22</title>
<path fill="none" stroke="midnightblue" d="M64.1,-111.75C73.2,-113.73 83.11,-115.88 92.05,-117.82"/>
<polygon fill="midnightblue" stroke="midnightblue" points="91.47,-121.28 101.99,-119.98 92.96,-114.44 91.47,-121.28"/>
</g>
<!-- Node23 -->
<g id="node8" class="node">
<title>Node23</title>
<g id="a_node8"><a xlink:href="math_8f.html#af58b0d2ff8df811dc27c9e42460492b9" target="_top" xlink:title=" ">
<polygon fill="white" stroke="red" points="100,-76.5 100,-95.5 143,-95.5 143,-76.5 100,-76.5"/>
<text text-anchor="middle" x="121.5" y="-83.5" font-family="Helvetica,sans-Serif" font-size="10.00">glmax</text>
</a>
</g>
</g>
<!-- Node1&#45;&gt;Node23 -->
<g id="edge8" class="edge">
<title>Node1&#45;&gt;Node23</title>
<path fill="none" stroke="midnightblue" d="M64.1,-98.25C72.55,-96.41 81.69,-94.43 90.1,-92.6"/>
<polygon fill="midnightblue" stroke="midnightblue" points="90.87,-96.01 99.9,-90.47 89.39,-89.17 90.87,-96.01"/>
</g>
<!-- Node26 -->
<g id="node9" class="node">
<title>Node26</title>
<g id="a_node9"><a xlink:href="math_8f.html#a102af0dc870819a605ae55d60c59f84a" target="_top" xlink:title=" ">
<polygon fill="white" stroke="red" points="101.5,-38.5 101.5,-57.5 141.5,-57.5 141.5,-38.5 101.5,-38.5"/>
<text text-anchor="middle" x="121.5" y="-45.5" font-family="Helvetica,sans-Serif" font-size="10.00">glmin</text>
</a>
</g>
</g>
<!-- Node1&#45;&gt;Node26 -->
<g id="edge9" class="edge">
<title>Node1&#45;&gt;Node26</title>
<path fill="none" stroke="midnightblue" d="M47.84,-95.33C61.38,-86.52 81.59,-73.35 97.26,-63.14"/>
<polygon fill="midnightblue" stroke="midnightblue" points="99.41,-65.92 105.88,-57.53 95.59,-60.05 99.41,-65.92"/>
</g>
<!-- Node27 -->
<g id="node10" class="node">
<title>Node27</title>
<g id="a_node10"><a xlink:href="math_8f.html#af44de42b023a4a68cd98ea341204342d" target="_top" xlink:title=" ">
<polygon fill="white" stroke="black" points="102.5,-0.5 102.5,-19.5 140.5,-19.5 140.5,-0.5 102.5,-0.5"/>
<text text-anchor="middle" x="121.5" y="-7.5" font-family="Helvetica,sans-Serif" font-size="10.00">rzero</text>
</a>
</g>
</g>
<!-- Node1&#45;&gt;Node27 -->
<g id="edge10" class="edge">
<title>Node1&#45;&gt;Node27</title>
<path fill="none" stroke="midnightblue" d="M40.96,-95.36C53.21,-80.66 77.65,-51.92 100,-29 100.65,-28.33 101.32,-27.66 102,-26.98"/>
<polygon fill="midnightblue" stroke="midnightblue" points="104.64,-29.3 109.45,-19.86 99.81,-24.24 104.64,-29.3"/>
</g>
<!-- Node3 -->
<g id="node3" class="node">
<title>Node3</title>
<g id="a_node3"><a xlink:href="math_8f.html#a3470db04166d9ba91454a14cc17dbec2" target="_top" xlink:title=" ">
<polygon fill="white" stroke="red" points="198,-209.5 198,-228.5 233,-228.5 233,-209.5 198,-209.5"/>
<text text-anchor="middle" x="215.5" y="-216.5" font-family="Helvetica,sans-Serif" font-size="10.00">col2</text>
</a>
</g>
</g>
<!-- Node2&#45;&gt;Node3 -->
<g id="edge2" class="edge">
<title>Node2&#45;&gt;Node3</title>
<path fill="none" stroke="midnightblue" d="M143.38,-204.31C156.56,-207.03 173.71,-210.58 187.87,-213.5"/>
<polygon fill="midnightblue" stroke="midnightblue" points="187.49,-217 197.99,-215.59 188.91,-210.14 187.49,-217"/>
</g>
<!-- Node6 -->
<g id="node4" class="node">
<title>Node6</title>
<g id="a_node4"><a xlink:href="dssum_8f.html#ad67373714b1c3bafed536081167e2cd6" target="_top" xlink:title=" ">
<polygon fill="white" stroke="red" points="192.5,-171.5 192.5,-190.5 238.5,-190.5 238.5,-171.5 192.5,-171.5"/>
<text text-anchor="middle" x="215.5" y="-178.5" font-family="Helvetica,sans-Serif" font-size="10.00">dssum</text>
</a>
</g>
</g>
<!-- Node2&#45;&gt;Node6 -->
<g id="edge3" class="edge">
<title>Node2&#45;&gt;Node6</title>
<path fill="none" stroke="midnightblue" d="M143.38,-195.69C154.92,-193.3 169.51,-190.29 182.47,-187.61"/>
<polygon fill="midnightblue" stroke="midnightblue" points="183.34,-191.01 192.42,-185.56 181.92,-184.15 183.34,-191.01"/>
</g>
<!-- Node10 -->
<g id="node6" class="node">
<title>Node10</title>
<g id="a_node6"><a xlink:href="dprocmap_8f.html#a311a5a8d89b7f42b1f539390ad6b2fb0" target="_top" xlink:title=" ">
<polygon fill="white" stroke="red" points="179,-133.5 179,-152.5 252,-152.5 252,-133.5 179,-133.5"/>
<text text-anchor="middle" x="215.5" y="-140.5" font-family="Helvetica,sans-Serif" font-size="10.00">dprocmapget</text>
</a>
</g>
</g>
<!-- Node9&#45;&gt;Node10 -->
<g id="edge5" class="edge">
<title>Node9&#45;&gt;Node10</title>
<path fill="none" stroke="midnightblue" d="M138.53,-158.69C147.04,-156.93 157.98,-154.67 168.89,-152.42"/>
<polygon fill="midnightblue" stroke="midnightblue" points="169.75,-155.82 178.83,-150.37 168.33,-148.96 169.75,-155.82"/>
</g>
<!-- Node22&#45;&gt;Node10 -->
<g id="edge7" class="edge">
<title>Node22&#45;&gt;Node10</title>
<path fill="none" stroke="midnightblue" d="M141.12,-127.84C149.15,-129.5 158.92,-131.52 168.69,-133.54"/>
<polygon fill="midnightblue" stroke="midnightblue" points="168.29,-137.03 178.79,-135.62 169.7,-130.17 168.29,-137.03"/>
</g>
</g>
</svg>
