<?xml version="1.0" encoding="UTF-8" standalone="no"?>
<!DOCTYPE svg PUBLIC "-//W3C//DTD SVG 1.1//EN"
 "http://www.w3.org/Graphics/SVG/1.1/DTD/svg11.dtd">
<!-- Generated by graphviz version 2.46.0 (0)
 -->
<!-- Title: admeshv Pages: 1 -->
<svg width="385pt" height="142pt"
 viewBox="0.00 0.00 385.00 142.00" xmlns="http://www.w3.org/2000/svg" xmlns:xlink="http://www.w3.org/1999/xlink">
<g id="graph0" class="graph" transform="scale(1 1) rotate(0) translate(4 138)">
<title>admeshv</title>
<polygon fill="white" stroke="transparent" points="-4,4 -4,-138 381,-138 381,4 -4,4"/>
<!-- Node1 -->
<g id="node1" class="node">
<title>Node1</title>
<g id="a_node1"><a xlink:title=" ">
<polygon fill="#bfbfbf" stroke="black" points="321,-38.5 321,-57.5 377,-57.5 377,-38.5 321,-38.5"/>
<text text-anchor="middle" x="349" y="-45.5" font-family="Helvetica,sans-Serif" font-size="10.00">admeshv</text>
</a>
</g>
</g>
<!-- Node2 -->
<g id="node2" class="node">
<title>Node2</title>
<g id="a_node2"><a xlink:href="navier1_8f.html#a83189b3d1938d87f00ace2e7e05d9e4c" target="_top" xlink:title=" ">
<polygon fill="white" stroke="black" points="237.5,-66.5 237.5,-85.5 281.5,-85.5 281.5,-66.5 237.5,-66.5"/>
<text text-anchor="middle" x="259.5" y="-73.5" font-family="Helvetica,sans-Serif" font-size="10.00">makef</text>
</a>
</g>
</g>
<!-- Node1&#45;&gt;Node2 -->
<g id="edge1" class="edge">
<title>Node1&#45;&gt;Node2</title>
<path fill="none" stroke="midnightblue" d="M310.99,-59.84C300.94,-63.06 290.4,-66.43 281.57,-69.26"/>
<polygon fill="midnightblue" stroke="midnightblue" points="312.34,-63.09 320.79,-56.71 310.2,-56.42 312.34,-63.09"/>
</g>
<!-- Node15 -->
<g id="node9" class="node">
<title>Node15</title>
<g id="a_node9"><a xlink:href="plan5_8f.html#a1c77871dc9883719557071c0006dc66e" target="_top" xlink:title=" ">
<polygon fill="white" stroke="black" points="234,-19.5 234,-38.5 285,-38.5 285,-19.5 234,-19.5"/>
<text text-anchor="middle" x="259.5" y="-26.5" font-family="Helvetica,sans-Serif" font-size="10.00">midstep</text>
</a>
</g>
</g>
<!-- Node1&#45;&gt;Node15 -->
<g id="edge10" class="edge">
<title>Node1&#45;&gt;Node15</title>
<path fill="none" stroke="midnightblue" d="M310.81,-39.92C302.09,-38.03 293.02,-36.06 285.02,-34.32"/>
<polygon fill="midnightblue" stroke="midnightblue" points="310.28,-43.39 320.79,-42.09 311.76,-36.55 310.28,-43.39"/>
</g>
<!-- Node3 -->
<g id="node3" class="node">
<title>Node3</title>
<g id="a_node3"><a xlink:href="navier1_8f.html#a23e6343990072aa1a6b17109ccc7ba2b" target="_top" xlink:title=" ">
<polygon fill="white" stroke="black" points="158,-114.5 158,-133.5 198,-133.5 198,-114.5 158,-114.5"/>
<text text-anchor="middle" x="178" y="-121.5" font-family="Helvetica,sans-Serif" font-size="10.00">plan1</text>
</a>
</g>
</g>
<!-- Node2&#45;&gt;Node3 -->
<g id="edge2" class="edge">
<title>Node2&#45;&gt;Node3</title>
<path fill="none" stroke="midnightblue" d="M233.67,-90.99C220.97,-98.66 205.89,-107.76 194.79,-114.46"/>
<polygon fill="midnightblue" stroke="midnightblue" points="235.66,-93.88 242.41,-85.71 232.04,-87.89 235.66,-93.88"/>
</g>
<!-- Node13 -->
<g id="node7" class="node">
<title>Node13</title>
<g id="a_node7"><a xlink:href="planx_8f.html#a142f9186a662d3de60f09bb0ee26782d" target="_top" xlink:title=" ">
<polygon fill="white" stroke="black" points="158,-76.5 158,-95.5 198,-95.5 198,-76.5 158,-76.5"/>
<text text-anchor="middle" x="178" y="-83.5" font-family="Helvetica,sans-Serif" font-size="10.00">plan3</text>
</a>
</g>
</g>
<!-- Node2&#45;&gt;Node13 -->
<g id="edge6" class="edge">
<title>Node2&#45;&gt;Node13</title>
<path fill="none" stroke="midnightblue" d="M227.01,-79.96C217.27,-81.19 206.83,-82.5 198.19,-83.59"/>
<polygon fill="midnightblue" stroke="midnightblue" points="227.71,-83.4 237.2,-78.68 226.84,-76.46 227.71,-83.4"/>
</g>
<!-- Node14 -->
<g id="node8" class="node">
<title>Node14</title>
<g id="a_node8"><a xlink:href="plan4_8f.html#a247fc105464de543a464773054eb509e" target="_top" xlink:title=" ">
<polygon fill="white" stroke="black" points="158,-38.5 158,-57.5 198,-57.5 198,-38.5 158,-38.5"/>
<text text-anchor="middle" x="178" y="-45.5" font-family="Helvetica,sans-Serif" font-size="10.00">plan4</text>
</a>
</g>
</g>
<!-- Node2&#45;&gt;Node14 -->
<g id="edge8" class="edge">
<title>Node2&#45;&gt;Node14</title>
<path fill="none" stroke="midnightblue" d="M227.63,-65.13C217.71,-61.64 207.02,-57.87 198.19,-54.76"/>
<polygon fill="midnightblue" stroke="midnightblue" points="226.6,-68.48 237.2,-68.5 228.93,-61.87 226.6,-68.48"/>
</g>
<!-- Node4 -->
<g id="node4" class="node">
<title>Node4</title>
<g id="a_node4"><a xlink:href="drive2_8f.html#ab0aeca9ad3db8be87a01ba29d069d71e" target="_top" xlink:title=" ">
<polygon fill="white" stroke="red" points="87,-57.5 87,-76.5 122,-76.5 122,-57.5 87,-57.5"/>
<text text-anchor="middle" x="104.5" y="-64.5" font-family="Helvetica,sans-Serif" font-size="10.00">fluid</text>
</a>
</g>
</g>
<!-- Node3&#45;&gt;Node4 -->
<g id="edge3" class="edge">
<title>Node3&#45;&gt;Node4</title>
<path fill="none" stroke="midnightblue" d="M156.71,-107.82C144.03,-97.72 128.14,-85.05 117.45,-76.53"/>
<polygon fill="midnightblue" stroke="midnightblue" points="154.87,-110.83 164.87,-114.33 159.23,-105.36 154.87,-110.83"/>
</g>
<!-- Node5 -->
<g id="node5" class="node">
<title>Node5</title>
<g id="a_node5"><a xlink:href="ssolv_8f.html#a4bb42a5afabbba8c6518d83cbe481c17" target="_top" xlink:title=" ">
<polygon fill="white" stroke="black" points="0,-76.5 0,-95.5 51,-95.5 51,-76.5 0,-76.5"/>
<text text-anchor="middle" x="25.5" y="-83.5" font-family="Helvetica,sans-Serif" font-size="10.00">go1step</text>
</a>
</g>
</g>
<!-- Node4&#45;&gt;Node5 -->
<g id="edge4" class="edge">
<title>Node4&#45;&gt;Node5</title>
<path fill="none" stroke="midnightblue" d="M77.07,-73.52C68.64,-75.6 59.36,-77.89 51.07,-79.94"/>
<polygon fill="midnightblue" stroke="midnightblue" points="77.92,-76.92 86.79,-71.12 76.24,-70.12 77.92,-76.92"/>
</g>
<!-- Node6 -->
<g id="node6" class="node">
<title>Node6</title>
<g id="a_node6"><a xlink:href="ssolv_8f.html#a2de8913c214fa083dcb088c57bd45272" target="_top" xlink:title=" ">
<polygon fill="white" stroke="red" points="2.5,-38.5 2.5,-57.5 48.5,-57.5 48.5,-38.5 2.5,-38.5"/>
<text text-anchor="middle" x="25.5" y="-45.5" font-family="Helvetica,sans-Serif" font-size="10.00">gostep</text>
</a>
</g>
</g>
<!-- Node4&#45;&gt;Node6 -->
<g id="edge5" class="edge">
<title>Node4&#45;&gt;Node6</title>
<path fill="none" stroke="midnightblue" d="M76.96,-60.45C67.76,-58.18 57.55,-55.66 48.73,-53.49"/>
<polygon fill="midnightblue" stroke="midnightblue" points="76.24,-63.88 86.79,-62.88 77.92,-57.08 76.24,-63.88"/>
</g>
<!-- Node13&#45;&gt;Node4 -->
<g id="edge7" class="edge">
<title>Node13&#45;&gt;Node4</title>
<path fill="none" stroke="midnightblue" d="M147.97,-78.29C139.23,-75.96 129.94,-73.49 122.28,-71.46"/>
<polygon fill="midnightblue" stroke="midnightblue" points="147.28,-81.72 157.84,-80.91 149.07,-74.96 147.28,-81.72"/>
</g>
<!-- Node14&#45;&gt;Node4 -->
<g id="edge9" class="edge">
<title>Node14&#45;&gt;Node4</title>
<path fill="none" stroke="midnightblue" d="M147.97,-55.71C139.23,-58.04 129.94,-60.51 122.28,-62.54"/>
<polygon fill="midnightblue" stroke="midnightblue" points="149.07,-59.04 157.84,-53.09 147.28,-52.28 149.07,-59.04"/>
</g>
<!-- Node16 -->
<g id="node10" class="node">
<title>Node16</title>
<g id="a_node10"><a xlink:href="plan5_8f.html#ae6f47947bd1a89d608ae3b90ac8f433d" target="_top" xlink:title=" ">
<polygon fill="white" stroke="black" points="158,-0.5 158,-19.5 198,-19.5 198,-0.5 158,-0.5"/>
<text text-anchor="middle" x="178" y="-7.5" font-family="Helvetica,sans-Serif" font-size="10.00">plan5</text>
</a>
</g>
</g>
<!-- Node15&#45;&gt;Node16 -->
<g id="edge11" class="edge">
<title>Node15&#45;&gt;Node16</title>
<path fill="none" stroke="midnightblue" d="M224.01,-20.76C215.15,-18.64 205.92,-16.43 198.15,-14.58"/>
<polygon fill="midnightblue" stroke="midnightblue" points="223.24,-24.17 233.78,-23.09 224.87,-17.36 223.24,-24.17"/>
</g>
<!-- Node16&#45;&gt;Node4 -->
<g id="edge12" class="edge">
<title>Node16&#45;&gt;Node4</title>
<path fill="none" stroke="midnightblue" d="M156.71,-26.18C144.03,-36.28 128.14,-48.95 117.45,-57.47"/>
<polygon fill="midnightblue" stroke="midnightblue" points="159.23,-28.64 164.87,-19.67 154.87,-23.17 159.23,-28.64"/>
</g>
</g>
</svg>
