<?xml version="1.0" encoding="UTF-8" standalone="no"?>
<!DOCTYPE svg PUBLIC "-//W3C//DTD SVG 1.1//EN"
 "http://www.w3.org/Graphics/SVG/1.1/DTD/svg11.dtd">
<!-- Generated by graphviz version 2.46.0 (0)
 -->
<!-- Title: ibdgeom Pages: 1 -->
<svg width="343pt" height="142pt"
 viewBox="0.00 0.00 343.00 142.00" xmlns="http://www.w3.org/2000/svg" xmlns:xlink="http://www.w3.org/1999/xlink">
<g id="graph0" class="graph" transform="scale(1 1) rotate(0) translate(4 138)">
<title>ibdgeom</title>
<polygon fill="white" stroke="transparent" points="-4,4 -4,-138 339,-138 339,4 -4,4"/>
<!-- Node1 -->
<g id="node1" class="node">
<title>Node1</title>
<g id="a_node1"><a xlink:title=" ">
<polygon fill="#bfbfbf" stroke="black" points="0,-57.5 0,-76.5 53,-76.5 53,-57.5 0,-57.5"/>
<text text-anchor="middle" x="26.5" y="-64.5" font-family="Helvetica,sans-Serif" font-size="10.00">ibdgeom</text>
</a>
</g>
</g>
<!-- Node2 -->
<g id="node2" class="node">
<title>Node2</title>
<g id="a_node2"><a xlink:href="dssum_8f.html#ab0865b005738b43cd2bcc73e7bac86f7" target="_top" xlink:title=" ">
<polygon fill="white" stroke="black" points="95,-114.5 95,-133.5 133,-133.5 133,-114.5 95,-114.5"/>
<text text-anchor="middle" x="114" y="-121.5" font-family="Helvetica,sans-Serif" font-size="10.00">dsop</text>
</a>
</g>
</g>
<!-- Node1&#45;&gt;Node2 -->
<g id="edge1" class="edge">
<title>Node1&#45;&gt;Node2</title>
<path fill="none" stroke="midnightblue" d="M42,-76.67C55.23,-85.48 74.97,-98.65 90.29,-108.86"/>
<polygon fill="midnightblue" stroke="midnightblue" points="88.45,-111.84 98.71,-114.47 92.33,-106.01 88.45,-111.84"/>
</g>
<!-- Node5 -->
<g id="node5" class="node">
<title>Node5</title>
<g id="a_node5"><a xlink:href="connect1_8f.html#aa1c9016b4c28e8a8512be6f6d67eefce" target="_top" xlink:title=" ">
<polygon fill="white" stroke="black" points="92.5,-76.5 92.5,-95.5 135.5,-95.5 135.5,-76.5 92.5,-76.5"/>
<text text-anchor="middle" x="114" y="-83.5" font-family="Helvetica,sans-Serif" font-size="10.00">facind</text>
</a>
</g>
</g>
<!-- Node1&#45;&gt;Node5 -->
<g id="edge4" class="edge">
<title>Node1&#45;&gt;Node5</title>
<path fill="none" stroke="midnightblue" d="M53.15,-72.7C62.33,-74.74 72.76,-77.06 82.32,-79.18"/>
<polygon fill="midnightblue" stroke="midnightblue" points="81.72,-82.63 92.24,-81.39 83.24,-75.8 81.72,-82.63"/>
</g>
<!-- Node6 -->
<g id="node6" class="node">
<title>Node6</title>
<g id="a_node6"><a xlink:href="mvmesh_8f.html#ab2e777b461498ed25817c76db1188cda" target="_top" xlink:title=" ">
<polygon fill="white" stroke="black" points="89,-38.5 89,-57.5 139,-57.5 139,-38.5 89,-38.5"/>
<text text-anchor="middle" x="114" y="-45.5" font-family="Helvetica,sans-Serif" font-size="10.00">inigeom</text>
</a>
</g>
</g>
<!-- Node1&#45;&gt;Node6 -->
<g id="edge5" class="edge">
<title>Node1&#45;&gt;Node6</title>
<path fill="none" stroke="midnightblue" d="M53.15,-61.3C61.28,-59.49 70.4,-57.47 79.03,-55.55"/>
<polygon fill="midnightblue" stroke="midnightblue" points="79.83,-58.96 88.83,-53.37 78.31,-52.12 79.83,-58.96"/>
</g>
<!-- Node7 -->
<g id="node7" class="node">
<title>Node7</title>
<g id="a_node7"><a xlink:href="math_8f.html#af44de42b023a4a68cd98ea341204342d" target="_top" xlink:title=" ">
<polygon fill="white" stroke="black" points="95,-0.5 95,-19.5 133,-19.5 133,-0.5 95,-0.5"/>
<text text-anchor="middle" x="114" y="-7.5" font-family="Helvetica,sans-Serif" font-size="10.00">rzero</text>
</a>
</g>
</g>
<!-- Node1&#45;&gt;Node7 -->
<g id="edge6" class="edge">
<title>Node1&#45;&gt;Node7</title>
<path fill="none" stroke="midnightblue" d="M42,-57.33C55.23,-48.52 74.97,-35.35 90.29,-25.14"/>
<polygon fill="midnightblue" stroke="midnightblue" points="92.33,-27.99 98.71,-19.53 88.45,-22.16 92.33,-27.99"/>
</g>
<!-- Node3 -->
<g id="node3" class="node">
<title>Node3</title>
<g id="a_node3"><a xlink:href="comm__mpi_8f.html#a4acb4d8e379294232e9219bec063d8f3" target="_top" xlink:title=" ">
<polygon fill="white" stroke="black" points="175,-114.5 175,-133.5 234,-133.5 234,-114.5 175,-114.5"/>
<text text-anchor="middle" x="204.5" y="-121.5" font-family="Helvetica,sans-Serif" font-size="10.00">nekgsync</text>
</a>
</g>
</g>
<!-- Node2&#45;&gt;Node3 -->
<g id="edge2" class="edge">
<title>Node2&#45;&gt;Node3</title>
<path fill="none" stroke="midnightblue" d="M133.34,-124C142.39,-124 153.68,-124 164.54,-124"/>
<polygon fill="midnightblue" stroke="midnightblue" points="164.73,-127.5 174.73,-124 164.73,-120.5 164.73,-127.5"/>
</g>
<!-- Node4 -->
<g id="node4" class="node">
<title>Node4</title>
<g id="a_node4"><a xlink:href="mpi__dummy_8f.html#a070afe564196eb48413dbf1a9fbc99aa" target="_top" xlink:title=" ">
<polygon fill="white" stroke="black" points="270,-114.5 270,-133.5 335,-133.5 335,-114.5 270,-114.5"/>
<text text-anchor="middle" x="302.5" y="-121.5" font-family="Helvetica,sans-Serif" font-size="10.00">mpi_barrier</text>
</a>
</g>
</g>
<!-- Node3&#45;&gt;Node4 -->
<g id="edge3" class="edge">
<title>Node3&#45;&gt;Node4</title>
<path fill="none" stroke="midnightblue" d="M234.04,-124C242.15,-124 251.14,-124 259.85,-124"/>
<polygon fill="midnightblue" stroke="midnightblue" points="259.88,-127.5 269.88,-124 259.88,-120.5 259.88,-127.5"/>
</g>
</g>
</svg>
