<?xml version="1.0" encoding="UTF-8" standalone="no"?>
<!DOCTYPE svg PUBLIC "-//W3C//DTD SVG 1.1//EN"
 "http://www.w3.org/Graphics/SVG/1.1/DTD/svg11.dtd">
<!-- Generated by graphviz version 2.46.0 (0)
 -->
<!-- Title: admesht Pages: 1 -->
<svg width="406pt" height="218pt"
 viewBox="0.00 0.00 406.00 218.00" xmlns="http://www.w3.org/2000/svg" xmlns:xlink="http://www.w3.org/1999/xlink">
<g id="graph0" class="graph" transform="scale(1 1) rotate(0) translate(4 214)">
<title>admesht</title>
<polygon fill="white" stroke="transparent" points="-4,4 -4,-214 402,-214 402,4 -4,4"/>
<!-- Node1 -->
<g id="node1" class="node">
<title>Node1</title>
<g id="a_node1"><a xlink:title=" ">
<polygon fill="#bfbfbf" stroke="black" points="0,-114.5 0,-133.5 54,-133.5 54,-114.5 0,-114.5"/>
<text text-anchor="middle" x="27" y="-121.5" font-family="Helvetica,sans-Serif" font-size="10.00">admesht</text>
</a>
</g>
</g>
<!-- Node2 -->
<g id="node2" class="node">
<title>Node2</title>
<g id="a_node2"><a xlink:href="math_8f.html#a1f336314da3012286837ede20a0495c6" target="_top" xlink:title=" ">
<polygon fill="white" stroke="black" points="168,-190.5 168,-209.5 218,-209.5 218,-190.5 168,-190.5"/>
<text text-anchor="middle" x="193" y="-197.5" font-family="Helvetica,sans-Serif" font-size="10.00">addcol3</text>
</a>
</g>
</g>
<!-- Node1&#45;&gt;Node2 -->
<g id="edge1" class="edge">
<title>Node1&#45;&gt;Node2</title>
<path fill="none" stroke="midnightblue" d="M48.77,-133.63C77.48,-146.93 129.46,-171.02 162.28,-186.23"/>
<polygon fill="midnightblue" stroke="midnightblue" points="160.85,-189.42 171.4,-190.45 163.8,-183.07 160.85,-189.42"/>
</g>
<!-- Node5 -->
<g id="node4" class="node">
<title>Node5</title>
<g id="a_node4"><a xlink:href="mvmesh_8f.html#a7633bdf322411dfbab8b8dbfd4cd5075" target="_top" xlink:title=" ">
<polygon fill="white" stroke="black" points="90,-114.5 90,-133.5 132,-133.5 132,-114.5 90,-114.5"/>
<text text-anchor="middle" x="111" y="-121.5" font-family="Helvetica,sans-Serif" font-size="10.00">divws</text>
</a>
</g>
</g>
<!-- Node1&#45;&gt;Node5 -->
<g id="edge3" class="edge">
<title>Node1&#45;&gt;Node5</title>
<path fill="none" stroke="midnightblue" d="M54.4,-124C62.49,-124 71.47,-124 79.8,-124"/>
<polygon fill="midnightblue" stroke="midnightblue" points="79.9,-127.5 89.9,-124 79.9,-120.5 79.9,-127.5"/>
</g>
<!-- Node15 -->
<g id="node10" class="node">
<title>Node15</title>
<g id="a_node10"><a xlink:href="math_8f.html#af44de42b023a4a68cd98ea341204342d" target="_top" xlink:title=" ">
<polygon fill="white" stroke="black" points="92,-76.5 92,-95.5 130,-95.5 130,-76.5 92,-76.5"/>
<text text-anchor="middle" x="111" y="-83.5" font-family="Helvetica,sans-Serif" font-size="10.00">rzero</text>
</a>
</g>
</g>
<!-- Node1&#45;&gt;Node15 -->
<g id="edge14" class="edge">
<title>Node1&#45;&gt;Node15</title>
<path fill="none" stroke="midnightblue" d="M48.69,-114.41C58.97,-109.65 71.52,-103.83 82.58,-98.71"/>
<polygon fill="midnightblue" stroke="midnightblue" points="84.23,-101.8 91.83,-94.42 81.28,-95.45 84.23,-101.8"/>
</g>
<!-- Node3 -->
<g id="node3" class="node">
<title>Node3</title>
<g id="a_node3"><a xlink:href="comm__mpi_8f.html#af06ec29f06aac3f8809e19de2a7e8946" target="_top" xlink:title=" ">
<polygon fill="white" stroke="red" points="337,-95.5 337,-114.5 398,-114.5 398,-95.5 337,-95.5"/>
<text text-anchor="middle" x="367.5" y="-102.5" font-family="Helvetica,sans-Serif" font-size="10.00">dnekclock</text>
</a>
</g>
</g>
<!-- Node2&#45;&gt;Node3 -->
<g id="edge2" class="edge">
<title>Node2&#45;&gt;Node3</title>
<path fill="none" stroke="midnightblue" d="M212.67,-190.32C234.11,-179.14 270.28,-160.09 301,-143 314.55,-135.46 329.52,-126.81 341.72,-119.66"/>
<polygon fill="midnightblue" stroke="midnightblue" points="343.59,-122.62 350.44,-114.53 340.05,-116.58 343.59,-122.62"/>
</g>
<!-- Node5&#45;&gt;Node2 -->
<g id="edge4" class="edge">
<title>Node5&#45;&gt;Node2</title>
<path fill="none" stroke="midnightblue" d="M120.77,-133.64C131.52,-145.27 150.46,-165.24 168,-181 168.98,-181.88 169.99,-182.77 171.02,-183.65"/>
<polygon fill="midnightblue" stroke="midnightblue" points="169.1,-186.6 179.05,-190.23 173.54,-181.18 169.1,-186.6"/>
</g>
<!-- Node6 -->
<g id="node5" class="node">
<title>Node6</title>
<g id="a_node5"><a xlink:href="mvmesh_8f.html#a8a2f0be07ac7b71ff3662a0412f09208" target="_top" xlink:title=" ">
<polygon fill="white" stroke="red" points="170,-152.5 170,-171.5 216,-171.5 216,-152.5 170,-152.5"/>
<text text-anchor="middle" x="193" y="-159.5" font-family="Helvetica,sans-Serif" font-size="10.00">axifms</text>
</a>
</g>
</g>
<!-- Node5&#45;&gt;Node6 -->
<g id="edge5" class="edge">
<title>Node5&#45;&gt;Node6</title>
<path fill="none" stroke="midnightblue" d="M132.19,-133.59C141.38,-137.95 152.43,-143.21 162.53,-148"/>
<polygon fill="midnightblue" stroke="midnightblue" points="161.28,-151.28 171.82,-152.41 164.29,-144.96 161.28,-151.28"/>
</g>
<!-- Node8 -->
<g id="node6" class="node">
<title>Node8</title>
<g id="a_node6"><a xlink:href="math_8f.html#a0d9af374781723c272547a185cb3da5e" target="_top" xlink:title=" ">
<polygon fill="white" stroke="black" points="260,-114.5 260,-133.5 295,-133.5 295,-114.5 260,-114.5"/>
<text text-anchor="middle" x="277.5" y="-121.5" font-family="Helvetica,sans-Serif" font-size="10.00">col3</text>
</a>
</g>
</g>
<!-- Node5&#45;&gt;Node8 -->
<g id="edge10" class="edge">
<title>Node5&#45;&gt;Node8</title>
<path fill="none" stroke="midnightblue" d="M132.17,-124C161.62,-124 216.44,-124 249.38,-124"/>
<polygon fill="midnightblue" stroke="midnightblue" points="249.65,-127.5 259.65,-124 249.65,-120.5 249.65,-127.5"/>
</g>
<!-- Node9 -->
<g id="node7" class="node">
<title>Node9</title>
<g id="a_node7"><a xlink:href="math_8f.html#a3470db04166d9ba91454a14cc17dbec2" target="_top" xlink:title=" ">
<polygon fill="white" stroke="black" points="260,-76.5 260,-95.5 295,-95.5 295,-76.5 260,-76.5"/>
<text text-anchor="middle" x="277.5" y="-83.5" font-family="Helvetica,sans-Serif" font-size="10.00">col2</text>
</a>
</g>
</g>
<!-- Node5&#45;&gt;Node9 -->
<g id="edge8" class="edge">
<title>Node5&#45;&gt;Node9</title>
<path fill="none" stroke="midnightblue" d="M132.17,-119.34C161.74,-112.51 216.91,-99.76 249.81,-92.17"/>
<polygon fill="midnightblue" stroke="midnightblue" points="250.69,-95.55 259.65,-89.89 249.12,-88.73 250.69,-95.55"/>
</g>
<!-- Node10 -->
<g id="node8" class="node">
<title>Node10</title>
<g id="a_node8"><a xlink:href="math_8f.html#a12a3f9854732798780dfe93ecd4e38bf" target="_top" xlink:title=" ">
<polygon fill="white" stroke="black" points="254,-38.5 254,-57.5 301,-57.5 301,-38.5 254,-38.5"/>
<text text-anchor="middle" x="277.5" y="-45.5" font-family="Helvetica,sans-Serif" font-size="10.00">invcol2</text>
</a>
</g>
</g>
<!-- Node5&#45;&gt;Node10 -->
<g id="edge11" class="edge">
<title>Node5&#45;&gt;Node10</title>
<path fill="none" stroke="midnightblue" d="M130.56,-114.45C141.41,-108.93 155.41,-101.93 168,-96 193.53,-83.98 222.82,-71.07 244.52,-61.68"/>
<polygon fill="midnightblue" stroke="midnightblue" points="246.12,-64.8 253.92,-57.62 243.35,-58.37 246.12,-64.8"/>
</g>
<!-- Node11 -->
<g id="node9" class="node">
<title>Node11</title>
<g id="a_node9"><a xlink:href="subs1_8f.html#afc60c4d0a0e2a2a65de26a48a2bdb5f1" target="_top" xlink:title=" ">
<polygon fill="white" stroke="red" points="176.5,-0.5 176.5,-19.5 209.5,-19.5 209.5,-0.5 176.5,-0.5"/>
<text text-anchor="middle" x="193" y="-7.5" font-family="Helvetica,sans-Serif" font-size="10.00">urst</text>
</a>
</g>
</g>
<!-- Node5&#45;&gt;Node11 -->
<g id="edge13" class="edge">
<title>Node5&#45;&gt;Node11</title>
<path fill="none" stroke="midnightblue" d="M123.7,-114.16C126.62,-111.38 129.6,-108.23 132,-105 153.13,-76.62 147.23,-62.64 168,-34 169.75,-31.58 171.75,-29.19 173.83,-26.89"/>
<polygon fill="midnightblue" stroke="midnightblue" points="176.45,-29.21 180.96,-19.62 171.45,-24.31 176.45,-29.21"/>
</g>
<!-- Node6&#45;&gt;Node8 -->
<g id="edge6" class="edge">
<title>Node6&#45;&gt;Node8</title>
<path fill="none" stroke="midnightblue" d="M214.82,-152.41C225.71,-147.4 239.14,-141.21 250.68,-135.89"/>
<polygon fill="midnightblue" stroke="midnightblue" points="252.22,-139.04 259.84,-131.67 249.3,-132.68 252.22,-139.04"/>
</g>
<!-- Node8&#45;&gt;Node3 -->
<g id="edge7" class="edge">
<title>Node8&#45;&gt;Node3</title>
<path fill="none" stroke="midnightblue" d="M295.05,-120.43C304.05,-118.48 315.59,-115.99 326.77,-113.58"/>
<polygon fill="midnightblue" stroke="midnightblue" points="327.81,-116.94 336.84,-111.4 326.33,-110.09 327.81,-116.94"/>
</g>
<!-- Node9&#45;&gt;Node3 -->
<g id="edge9" class="edge">
<title>Node9&#45;&gt;Node3</title>
<path fill="none" stroke="midnightblue" d="M295.05,-89.57C304.05,-91.52 315.59,-94.01 326.77,-96.42"/>
<polygon fill="midnightblue" stroke="midnightblue" points="326.33,-99.91 336.84,-98.6 327.81,-93.06 326.33,-99.91"/>
</g>
<!-- Node10&#45;&gt;Node3 -->
<g id="edge12" class="edge">
<title>Node10&#45;&gt;Node3</title>
<path fill="none" stroke="midnightblue" d="M293.43,-57.67C307.04,-66.48 327.36,-79.65 343.12,-89.86"/>
<polygon fill="midnightblue" stroke="midnightblue" points="341.5,-92.97 351.79,-95.47 345.3,-87.1 341.5,-92.97"/>
</g>
</g>
</svg>
