<?xml version="1.0" encoding="UTF-8" standalone="no"?>
<!DOCTYPE svg PUBLIC "-//W3C//DTD SVG 1.1//EN"
 "http://www.w3.org/Graphics/SVG/1.1/DTD/svg11.dtd">
<!-- Generated by graphviz version 2.46.0 (0)
 -->
<!-- Title: updxyz Pages: 1 -->
<svg width="337pt" height="142pt"
 viewBox="0.00 0.00 337.00 142.00" xmlns="http://www.w3.org/2000/svg" xmlns:xlink="http://www.w3.org/1999/xlink">
<g id="graph0" class="graph" transform="scale(1 1) rotate(0) translate(4 138)">
<title>updxyz</title>
<polygon fill="white" stroke="transparent" points="-4,4 -4,-138 333,-138 333,4 -4,4"/>
<!-- Node1 -->
<g id="node1" class="node">
<title>Node1</title>
<g id="a_node1"><a xlink:title=" ">
<polygon fill="#bfbfbf" stroke="black" points="0,-57.5 0,-76.5 48,-76.5 48,-57.5 0,-57.5"/>
<text text-anchor="middle" x="24" y="-64.5" font-family="Helvetica,sans-Serif" font-size="10.00">updxyz</text>
</a>
</g>
</g>
<!-- Node2 -->
<g id="node2" class="node">
<title>Node2</title>
<g id="a_node2"><a xlink:href="math_8f.html#a30b83d516b6ab162d3fafe73e03a3e92" target="_top" xlink:title=" ">
<polygon fill="white" stroke="black" points="89,-114.5 89,-133.5 127,-133.5 127,-114.5 89,-114.5"/>
<text text-anchor="middle" x="108" y="-121.5" font-family="Helvetica,sans-Serif" font-size="10.00">add2</text>
</a>
</g>
</g>
<!-- Node1&#45;&gt;Node2 -->
<g id="edge1" class="edge">
<title>Node1&#45;&gt;Node2</title>
<path fill="none" stroke="midnightblue" d="M38.91,-76.67C51.47,-85.4 70.18,-98.4 84.81,-108.57"/>
<polygon fill="midnightblue" stroke="midnightblue" points="83.09,-111.64 93.3,-114.47 87.08,-105.89 83.09,-111.64"/>
</g>
<!-- Node5 -->
<g id="node5" class="node">
<title>Node5</title>
<g id="a_node5"><a xlink:href="math_8f.html#a34a2c89ac31311482e2ec34fbb7c5a7a" target="_top" xlink:title=" ">
<polygon fill="white" stroke="black" points="84,-76.5 84,-95.5 132,-95.5 132,-76.5 84,-76.5"/>
<text text-anchor="middle" x="108" y="-83.5" font-family="Helvetica,sans-Serif" font-size="10.00">add2s2</text>
</a>
</g>
</g>
<!-- Node1&#45;&gt;Node5 -->
<g id="edge4" class="edge">
<title>Node1&#45;&gt;Node5</title>
<path fill="none" stroke="midnightblue" d="M48.28,-72.39C56.31,-74.25 65.47,-76.38 74.12,-78.38"/>
<polygon fill="midnightblue" stroke="midnightblue" points="73.42,-81.81 83.95,-80.66 75,-74.99 73.42,-81.81"/>
</g>
<!-- Node6 -->
<g id="node6" class="node">
<title>Node6</title>
<g id="a_node6"><a xlink:href="subs2_8f.html#a3c61e9653d5734accc15712a2f1b9c11" target="_top" xlink:title=" ">
<polygon fill="white" stroke="black" points="85,-38.5 85,-57.5 131,-57.5 131,-38.5 85,-38.5"/>
<text text-anchor="middle" x="108" y="-45.5" font-family="Helvetica,sans-Serif" font-size="10.00">cmult2</text>
</a>
</g>
</g>
<!-- Node1&#45;&gt;Node6 -->
<g id="edge6" class="edge">
<title>Node1&#45;&gt;Node6</title>
<path fill="none" stroke="midnightblue" d="M48.28,-61.61C56.51,-59.7 65.93,-57.52 74.78,-55.47"/>
<polygon fill="midnightblue" stroke="midnightblue" points="75.84,-58.81 84.79,-53.15 74.26,-51.99 75.84,-58.81"/>
</g>
<!-- Node7 -->
<g id="node7" class="node">
<title>Node7</title>
<g id="a_node7"><a xlink:href="math_8f.html#a3b43508554f14bdea8e14473d7d0803c" target="_top" xlink:title=" ">
<polygon fill="white" stroke="black" points="89,-0.5 89,-19.5 127,-19.5 127,-0.5 89,-0.5"/>
<text text-anchor="middle" x="108" y="-7.5" font-family="Helvetica,sans-Serif" font-size="10.00">copy</text>
</a>
</g>
</g>
<!-- Node1&#45;&gt;Node7 -->
<g id="edge7" class="edge">
<title>Node1&#45;&gt;Node7</title>
<path fill="none" stroke="midnightblue" d="M38.91,-57.33C51.47,-48.6 70.18,-35.6 84.81,-25.43"/>
<polygon fill="midnightblue" stroke="midnightblue" points="87.08,-28.11 93.3,-19.53 83.09,-22.36 87.08,-28.11"/>
</g>
<!-- Node3 -->
<g id="node3" class="node">
<title>Node3</title>
<g id="a_node3"><a xlink:href="comm__mpi_8f.html#af06ec29f06aac3f8809e19de2a7e8946" target="_top" xlink:title=" ">
<polygon fill="white" stroke="black" points="168,-95.5 168,-114.5 229,-114.5 229,-95.5 168,-95.5"/>
<text text-anchor="middle" x="198.5" y="-102.5" font-family="Helvetica,sans-Serif" font-size="10.00">dnekclock</text>
</a>
</g>
</g>
<!-- Node2&#45;&gt;Node3 -->
<g id="edge2" class="edge">
<title>Node2&#45;&gt;Node3</title>
<path fill="none" stroke="midnightblue" d="M127.34,-120.06C136.16,-118.17 147.11,-115.82 157.71,-113.54"/>
<polygon fill="midnightblue" stroke="midnightblue" points="158.65,-116.92 167.69,-111.4 157.18,-110.08 158.65,-116.92"/>
</g>
<!-- Node4 -->
<g id="node4" class="node">
<title>Node4</title>
<g id="a_node4"><a xlink:href="mpi__dummy_8f.html#ae6a5ef945f87c2c27849696b70f3af2a" target="_top" xlink:title=" ">
<polygon fill="white" stroke="black" points="265,-95.5 265,-114.5 329,-114.5 329,-95.5 265,-95.5"/>
<text text-anchor="middle" x="297" y="-102.5" font-family="Helvetica,sans-Serif" font-size="10.00">mpi_wtime</text>
</a>
</g>
</g>
<!-- Node3&#45;&gt;Node4 -->
<g id="edge3" class="edge">
<title>Node3&#45;&gt;Node4</title>
<path fill="none" stroke="midnightblue" d="M229.24,-105C237.27,-105 246.11,-105 254.65,-105"/>
<polygon fill="midnightblue" stroke="midnightblue" points="254.85,-108.5 264.85,-105 254.85,-101.5 254.85,-108.5"/>
</g>
<!-- Node5&#45;&gt;Node3 -->
<g id="edge5" class="edge">
<title>Node5&#45;&gt;Node3</title>
<path fill="none" stroke="midnightblue" d="M132.25,-90.99C140.06,-92.67 148.99,-94.59 157.7,-96.46"/>
<polygon fill="midnightblue" stroke="midnightblue" points="157.22,-99.93 167.73,-98.61 158.69,-93.09 157.22,-99.93"/>
</g>
</g>
</svg>
