<?xml version="1.0" encoding="UTF-8" standalone="no"?>
<!DOCTYPE svg PUBLIC "-//W3C//DTD SVG 1.1//EN"
 "http://www.w3.org/Graphics/SVG/1.1/DTD/svg11.dtd">
<!-- Generated by graphviz version 2.46.0 (0)
 -->
<!-- Title: mxma Pages: 1 -->
<svg width="589pt" height="104pt"
 viewBox="0.00 0.00 589.00 104.00" xmlns="http://www.w3.org/2000/svg" xmlns:xlink="http://www.w3.org/1999/xlink">
<g id="graph0" class="graph" transform="scale(1 1) rotate(0) translate(4 100)">
<title>mxma</title>
<polygon fill="white" stroke="transparent" points="-4,4 -4,-100 585,-100 585,4 -4,4"/>
<!-- Node1 -->
<g id="node1" class="node">
<title>Node1</title>
<g id="a_node1"><a xlink:title=" ">
<polygon fill="#bfbfbf" stroke="black" points="537,-38.5 537,-57.5 581,-57.5 581,-38.5 537,-38.5"/>
<text text-anchor="middle" x="559" y="-45.5" font-family="Helvetica,sans-Serif" font-size="10.00">mxma</text>
</a>
</g>
</g>
<!-- Node2 -->
<g id="node2" class="node">
<title>Node2</title>
<g id="a_node2"><a xlink:href="hmholtz_8f.html#a7cdf3a9c9b3186632e8be8fd77756113" target="_top" xlink:title=" ">
<polygon fill="white" stroke="black" points="454,-38.5 454,-57.5 501,-57.5 501,-38.5 454,-38.5"/>
<text text-anchor="middle" x="477.5" y="-45.5" font-family="Helvetica,sans-Serif" font-size="10.00">gradrta</text>
</a>
</g>
</g>
<!-- Node1&#45;&gt;Node2 -->
<g id="edge1" class="edge">
<title>Node1&#45;&gt;Node2</title>
<path fill="none" stroke="midnightblue" d="M526.43,-48C518.02,-48 509.09,-48 501.26,-48"/>
<polygon fill="midnightblue" stroke="midnightblue" points="526.7,-51.5 536.7,-48 526.7,-44.5 526.7,-51.5"/>
</g>
<!-- Node3 -->
<g id="node3" class="node">
<title>Node3</title>
<g id="a_node3"><a xlink:href="convect_8f.html#ae6d180b7227de36418c704fc1f7a3206" target="_top" xlink:title=" ">
<polygon fill="white" stroke="black" points="347,-76.5 347,-95.5 418,-95.5 418,-76.5 347,-76.5"/>
<text text-anchor="middle" x="382.5" y="-83.5" font-family="Helvetica,sans-Serif" font-size="10.00">grad_rstd_ta</text>
</a>
</g>
</g>
<!-- Node2&#45;&gt;Node3 -->
<g id="edge2" class="edge">
<title>Node2&#45;&gt;Node3</title>
<path fill="none" stroke="midnightblue" d="M444.46,-61.09C432.08,-66.15 418.17,-71.83 406.78,-76.49"/>
<polygon fill="midnightblue" stroke="midnightblue" points="446.05,-64.22 453.99,-57.2 443.41,-57.74 446.05,-64.22"/>
</g>
<!-- Node53 -->
<g id="node6" class="node">
<title>Node53</title>
<g id="a_node6"><a xlink:href="hmholtz_8f.html#a7c09e0f1ba5bd2cb84d8f705152fa43f" target="_top" xlink:title=" ">
<polygon fill="white" stroke="black" points="363.5,-38.5 363.5,-57.5 401.5,-57.5 401.5,-38.5 363.5,-38.5"/>
<text text-anchor="middle" x="382.5" y="-45.5" font-family="Helvetica,sans-Serif" font-size="10.00">hxdg</text>
</a>
</g>
</g>
<!-- Node2&#45;&gt;Node53 -->
<g id="edge5" class="edge">
<title>Node2&#45;&gt;Node53</title>
<path fill="none" stroke="midnightblue" d="M443.67,-48C429.59,-48 413.68,-48 401.75,-48"/>
<polygon fill="midnightblue" stroke="midnightblue" points="443.99,-51.5 453.99,-48 443.99,-44.5 443.99,-51.5"/>
</g>
<!-- Node96 -->
<g id="node10" class="node">
<title>Node96</title>
<g id="a_node10"><a xlink:href="hmholtz_8f.html#a71481bfcbacc047e17326d32a19300ac" target="_top" xlink:title=" ">
<polygon fill="white" stroke="black" points="240,-0.5 240,-19.5 305,-19.5 305,-0.5 240,-0.5"/>
<text text-anchor="middle" x="272.5" y="-7.5" font-family="Helvetica,sans-Serif" font-size="10.00">hxdg_surfa</text>
</a>
</g>
</g>
<!-- Node2&#45;&gt;Node96 -->
<g id="edge9" class="edge">
<title>Node2&#45;&gt;Node96</title>
<path fill="none" stroke="midnightblue" d="M444.42,-36.41C435.92,-33.66 426.68,-30.96 418,-29 379.62,-20.32 334.55,-15.18 305.08,-12.47"/>
<polygon fill="midnightblue" stroke="midnightblue" points="443.4,-39.76 453.99,-39.62 445.62,-33.12 443.4,-39.76"/>
</g>
<!-- Node4 -->
<g id="node4" class="node">
<title>Node4</title>
<g id="a_node4"><a xlink:href="convect_8f.html#ae77a896f076c052786cd0dbdbc7b7e95" target="_top" xlink:title=" ">
<polygon fill="white" stroke="black" points="234,-76.5 234,-95.5 311,-95.5 311,-76.5 234,-76.5"/>
<text text-anchor="middle" x="272.5" y="-83.5" font-family="Helvetica,sans-Serif" font-size="10.00">convop_weak</text>
</a>
</g>
</g>
<!-- Node3&#45;&gt;Node4 -->
<g id="edge3" class="edge">
<title>Node3&#45;&gt;Node4</title>
<path fill="none" stroke="midnightblue" d="M336.63,-86C328.17,-86 319.4,-86 311.19,-86"/>
<polygon fill="midnightblue" stroke="midnightblue" points="336.73,-89.5 346.73,-86 336.73,-82.5 336.73,-89.5"/>
</g>
<!-- Node5 -->
<g id="node5" class="node">
<title>Node5</title>
<g id="a_node5"><a xlink:href="convect_8f.html#a7975b977bdaf7637493e0beacb3a224b" target="_top" xlink:title=" ">
<polygon fill="white" stroke="red" points="97,-76.5 97,-95.5 198,-95.5 198,-76.5 97,-76.5"/>
<text text-anchor="middle" x="147.5" y="-83.5" font-family="Helvetica,sans-Serif" font-size="10.00">conv_rhs_dg_weak</text>
</a>
</g>
</g>
<!-- Node4&#45;&gt;Node5 -->
<g id="edge4" class="edge">
<title>Node4&#45;&gt;Node5</title>
<path fill="none" stroke="midnightblue" d="M223.85,-86C215.4,-86 206.59,-86 198.09,-86"/>
<polygon fill="midnightblue" stroke="midnightblue" points="223.93,-89.5 233.93,-86 223.93,-82.5 223.93,-89.5"/>
</g>
<!-- Node54 -->
<g id="node7" class="node">
<title>Node54</title>
<g id="a_node7"><a xlink:href="hmholtz_8f.html#aac309b94595d1abf629fb77f234557fc" target="_top" xlink:title=" ">
<polygon fill="white" stroke="red" points="246,-38.5 246,-57.5 299,-57.5 299,-38.5 246,-38.5"/>
<text text-anchor="middle" x="272.5" y="-45.5" font-family="Helvetica,sans-Serif" font-size="10.00">cggo_dg</text>
</a>
</g>
</g>
<!-- Node53&#45;&gt;Node54 -->
<g id="edge6" class="edge">
<title>Node53&#45;&gt;Node54</title>
<path fill="none" stroke="midnightblue" d="M352.92,-48C336.24,-48 315.37,-48 299.21,-48"/>
<polygon fill="midnightblue" stroke="midnightblue" points="353.18,-51.5 363.18,-48 353.18,-44.5 353.18,-51.5"/>
</g>
<!-- Node55 -->
<g id="node8" class="node">
<title>Node55</title>
<g id="a_node8"><a xlink:href="hmholtz_8f.html#ab52baffba790c148592c7b40c62861ca" target="_top" xlink:title=" ">
<polygon fill="white" stroke="black" points="114,-38.5 114,-57.5 181,-57.5 181,-38.5 114,-38.5"/>
<text text-anchor="middle" x="147.5" y="-45.5" font-family="Helvetica,sans-Serif" font-size="10.00">hmholtz_dg</text>
</a>
</g>
</g>
<!-- Node54&#45;&gt;Node55 -->
<g id="edge7" class="edge">
<title>Node54&#45;&gt;Node55</title>
<path fill="none" stroke="midnightblue" d="M235.51,-48C218.37,-48 198,-48 181.28,-48"/>
<polygon fill="midnightblue" stroke="midnightblue" points="235.72,-51.5 245.72,-48 235.72,-44.5 235.72,-51.5"/>
</g>
<!-- Node32 -->
<g id="node9" class="node">
<title>Node32</title>
<g id="a_node9"><a xlink:href="conduct_8f.html#abc0953779481a8cff2666b1d0878c50c" target="_top" xlink:title=" ">
<polygon fill="white" stroke="red" points="0,-19.5 0,-38.5 61,-38.5 61,-19.5 0,-19.5"/>
<text text-anchor="middle" x="30.5" y="-26.5" font-family="Helvetica,sans-Serif" font-size="10.00">cdscal_dg</text>
</a>
</g>
</g>
<!-- Node55&#45;&gt;Node32 -->
<g id="edge8" class="edge">
<title>Node55&#45;&gt;Node32</title>
<path fill="none" stroke="midnightblue" d="M103.79,-40.94C89.58,-38.6 74.08,-36.03 61.08,-33.89"/>
<polygon fill="midnightblue" stroke="midnightblue" points="103.42,-44.43 113.85,-42.61 104.56,-37.52 103.42,-44.43"/>
</g>
<!-- Node96&#45;&gt;Node32 -->
<g id="edge10" class="edge">
<title>Node96&#45;&gt;Node32</title>
<path fill="none" stroke="midnightblue" d="M229.53,-13.32C181.35,-17.14 103.55,-23.3 61.24,-26.65"/>
<polygon fill="midnightblue" stroke="midnightblue" points="229.94,-16.8 239.63,-12.52 229.38,-9.82 229.94,-16.8"/>
</g>
</g>
</svg>
