<?xml version="1.0" encoding="UTF-8" standalone="no"?>
<!DOCTYPE svg PUBLIC "-//W3C//DTD SVG 1.1//EN"
 "http://www.w3.org/Graphics/SVG/1.1/DTD/svg11.dtd">
<!-- Generated by graphviz version 2.46.0 (0)
 -->
<!-- Title: mxma Pages: 1 -->
<svg width="219pt" height="294pt"
 viewBox="0.00 0.00 219.00 294.00" xmlns="http://www.w3.org/2000/svg" xmlns:xlink="http://www.w3.org/1999/xlink">
<g id="graph0" class="graph" transform="scale(1 1) rotate(0) translate(4 290)">
<title>mxma</title>
<polygon fill="white" stroke="transparent" points="-4,4 -4,-290 215,-290 215,4 -4,4"/>
<!-- Node1 -->
<g id="node1" class="node">
<title>Node1</title>
<g id="a_node1"><a xlink:title=" ">
<polygon fill="#bfbfbf" stroke="black" points="0,-133.5 0,-152.5 44,-152.5 44,-133.5 0,-133.5"/>
<text text-anchor="middle" x="22" y="-140.5" font-family="Helvetica,sans-Serif" font-size="10.00">mxma</text>
</a>
</g>
</g>
<!-- Node2 -->
<g id="node2" class="node">
<title>Node2</title>
<g id="a_node2"><a xlink:href="mxm__std_8f.html#af267ddc935ab2d76d9e0efa327771000" target="_top" xlink:title=" ">
<polygon fill="white" stroke="red" points="80,-133.5 80,-152.5 129,-152.5 129,-133.5 80,-133.5"/>
<text text-anchor="middle" x="104.5" y="-140.5" font-family="Helvetica,sans-Serif" font-size="10.00">mxma2</text>
</a>
</g>
</g>
<!-- Node1&#45;&gt;Node2 -->
<g id="edge1" class="edge">
<title>Node1&#45;&gt;Node2</title>
<path fill="none" stroke="midnightblue" d="M44.15,-143C51.97,-143 61.03,-143 69.69,-143"/>
<polygon fill="midnightblue" stroke="midnightblue" points="69.94,-146.5 79.94,-143 69.94,-139.5 69.94,-146.5"/>
</g>
<!-- Node3 -->
<g id="node3" class="node">
<title>Node3</title>
<g id="a_node3"><a xlink:href="mxm__std_8f.html#a7d9ddd6590e8c57f255893e7c776788a" target="_top" xlink:title=" ">
<polygon fill="white" stroke="black" points="167.5,-266.5 167.5,-285.5 208.5,-285.5 208.5,-266.5 167.5,-266.5"/>
<text text-anchor="middle" x="188" y="-273.5" font-family="Helvetica,sans-Serif" font-size="10.00">mxa1</text>
</a>
</g>
</g>
<!-- Node2&#45;&gt;Node3 -->
<g id="edge2" class="edge">
<title>Node2&#45;&gt;Node3</title>
<path fill="none" stroke="midnightblue" d="M109.05,-152.57C116.97,-173.1 137.56,-222.34 165,-257 165.58,-257.73 166.18,-258.45 166.81,-259.16"/>
<polygon fill="midnightblue" stroke="midnightblue" points="164.52,-261.81 174.12,-266.3 169.41,-256.8 164.52,-261.81"/>
</g>
<!-- Node4 -->
<g id="node4" class="node">
<title>Node4</title>
<g id="a_node4"><a xlink:href="mxm__std_8f.html#a828acef1f513811503a9b095dbe0514e" target="_top" xlink:title=" ">
<polygon fill="white" stroke="black" points="165,-228.5 165,-247.5 211,-247.5 211,-228.5 165,-228.5"/>
<text text-anchor="middle" x="188" y="-235.5" font-family="Helvetica,sans-Serif" font-size="10.00">mxa10</text>
</a>
</g>
</g>
<!-- Node2&#45;&gt;Node4 -->
<g id="edge3" class="edge">
<title>Node2&#45;&gt;Node4</title>
<path fill="none" stroke="midnightblue" d="M112.27,-152.85C122.76,-167.82 143.96,-196.92 165,-219 165.77,-219.8 166.56,-220.61 167.38,-221.41"/>
<polygon fill="midnightblue" stroke="midnightblue" points="165.23,-224.19 174.97,-228.35 169.95,-219.02 165.23,-224.19"/>
</g>
<!-- Node5 -->
<g id="node5" class="node">
<title>Node5</title>
<g id="a_node5"><a xlink:href="mxm__std_8f.html#a271c03425756948a0eb6e50aca52a339" target="_top" xlink:title=" ">
<polygon fill="white" stroke="black" points="165,-190.5 165,-209.5 211,-209.5 211,-190.5 165,-190.5"/>
<text text-anchor="middle" x="188" y="-197.5" font-family="Helvetica,sans-Serif" font-size="10.00">mxa11</text>
</a>
</g>
</g>
<!-- Node2&#45;&gt;Node5 -->
<g id="edge4" class="edge">
<title>Node2&#45;&gt;Node5</title>
<path fill="none" stroke="midnightblue" d="M119.33,-152.67C131.81,-161.4 150.4,-174.4 164.94,-184.57"/>
<polygon fill="midnightblue" stroke="midnightblue" points="163.18,-187.61 173.38,-190.47 167.19,-181.87 163.18,-187.61"/>
</g>
<!-- Node6 -->
<g id="node6" class="node">
<title>Node6</title>
<g id="a_node6"><a xlink:href="mxm__std_8f.html#a25a2fc4d14e328b870459ab75cc3d3e0" target="_top" xlink:title=" ">
<polygon fill="white" stroke="black" points="165,-152.5 165,-171.5 211,-171.5 211,-152.5 165,-152.5"/>
<text text-anchor="middle" x="188" y="-159.5" font-family="Helvetica,sans-Serif" font-size="10.00">mxa12</text>
</a>
</g>
</g>
<!-- Node2&#45;&gt;Node6 -->
<g id="edge5" class="edge">
<title>Node2&#45;&gt;Node6</title>
<path fill="none" stroke="midnightblue" d="M129.07,-148.5C137.18,-150.39 146.4,-152.54 155.07,-154.56"/>
<polygon fill="midnightblue" stroke="midnightblue" points="154.34,-157.98 164.88,-156.84 155.93,-151.16 154.34,-157.98"/>
</g>
<!-- Node7 -->
<g id="node7" class="node">
<title>Node7</title>
<g id="a_node7"><a xlink:href="mxm__std_8f.html#af7ddc7e00c815cb7726a644426ff2a4b" target="_top" xlink:title=" ">
<polygon fill="white" stroke="black" points="165,-114.5 165,-133.5 211,-133.5 211,-114.5 165,-114.5"/>
<text text-anchor="middle" x="188" y="-121.5" font-family="Helvetica,sans-Serif" font-size="10.00">mxa13</text>
</a>
</g>
</g>
<!-- Node2&#45;&gt;Node7 -->
<g id="edge6" class="edge">
<title>Node2&#45;&gt;Node7</title>
<path fill="none" stroke="midnightblue" d="M129.07,-137.5C137.18,-135.61 146.4,-133.46 155.07,-131.44"/>
<polygon fill="midnightblue" stroke="midnightblue" points="155.93,-134.84 164.88,-129.16 154.34,-128.02 155.93,-134.84"/>
</g>
<!-- Node8 -->
<g id="node8" class="node">
<title>Node8</title>
<g id="a_node8"><a xlink:href="mxm__std_8f.html#a21cf6ac55a539933193683b91866cc45" target="_top" xlink:title=" ">
<polygon fill="white" stroke="black" points="165,-76.5 165,-95.5 211,-95.5 211,-76.5 165,-76.5"/>
<text text-anchor="middle" x="188" y="-83.5" font-family="Helvetica,sans-Serif" font-size="10.00">mxa14</text>
</a>
</g>
</g>
<!-- Node2&#45;&gt;Node8 -->
<g id="edge7" class="edge">
<title>Node2&#45;&gt;Node8</title>
<path fill="none" stroke="midnightblue" d="M119.33,-133.33C131.81,-124.6 150.4,-111.6 164.94,-101.43"/>
<polygon fill="midnightblue" stroke="midnightblue" points="167.19,-104.13 173.38,-95.53 163.18,-98.39 167.19,-104.13"/>
</g>
<!-- Node9 -->
<g id="node9" class="node">
<title>Node9</title>
<g id="a_node9"><a xlink:href="mxm__std_8f.html#ade05da81266500a8ee485a1651f2a017" target="_top" xlink:title=" ">
<polygon fill="white" stroke="black" points="165,-38.5 165,-57.5 211,-57.5 211,-38.5 165,-38.5"/>
<text text-anchor="middle" x="188" y="-45.5" font-family="Helvetica,sans-Serif" font-size="10.00">mxa15</text>
</a>
</g>
</g>
<!-- Node2&#45;&gt;Node9 -->
<g id="edge8" class="edge">
<title>Node2&#45;&gt;Node9</title>
<path fill="none" stroke="midnightblue" d="M112.27,-133.15C122.76,-118.18 143.96,-89.08 165,-67 165.77,-66.2 166.56,-65.39 167.38,-64.59"/>
<polygon fill="midnightblue" stroke="midnightblue" points="169.95,-66.98 174.97,-57.65 165.23,-61.81 169.95,-66.98"/>
</g>
<!-- Node10 -->
<g id="node10" class="node">
<title>Node10</title>
<g id="a_node10"><a xlink:href="mxm__std_8f.html#a745f2fc87e328a07f6a1ec77d6f3d0d9" target="_top" xlink:title=" ">
<polygon fill="white" stroke="black" points="165,-0.5 165,-19.5 211,-19.5 211,-0.5 165,-0.5"/>
<text text-anchor="middle" x="188" y="-7.5" font-family="Helvetica,sans-Serif" font-size="10.00">mxa16</text>
</a>
</g>
</g>
<!-- Node2&#45;&gt;Node10 -->
<g id="edge9" class="edge">
<title>Node2&#45;&gt;Node10</title>
<path fill="none" stroke="midnightblue" d="M109.05,-133.43C116.97,-112.9 137.56,-63.66 165,-29 165.58,-28.27 166.18,-27.55 166.81,-26.84"/>
<polygon fill="midnightblue" stroke="midnightblue" points="169.41,-29.2 174.12,-19.7 164.52,-24.19 169.41,-29.2"/>
</g>
</g>
</svg>
