<?xml version="1.0" encoding="UTF-8" standalone="no"?>
<!DOCTYPE svg PUBLIC "-//W3C//DTD SVG 1.1//EN"
 "http://www.w3.org/Graphics/SVG/1.1/DTD/svg11.dtd">
<!-- Generated by graphviz version 2.46.0 (0)
 -->
<!-- Title: mxm Pages: 1 -->
<svg width="257pt" height="256pt"
 viewBox="0.00 0.00 257.00 256.00" xmlns="http://www.w3.org/2000/svg" xmlns:xlink="http://www.w3.org/1999/xlink">
<g id="graph0" class="graph" transform="scale(1 1) rotate(0) translate(4 252)">
<title>mxm</title>
<polygon fill="white" stroke="transparent" points="-4,4 -4,-252 253,-252 253,4 -4,4"/>
<!-- Node1 -->
<g id="node1" class="node">
<title>Node1</title>
<g id="a_node1"><a xlink:title=" ">
<polygon fill="#bfbfbf" stroke="black" points="0,-114.5 0,-133.5 38,-133.5 38,-114.5 0,-114.5"/>
<text text-anchor="middle" x="19" y="-121.5" font-family="Helvetica,sans-Serif" font-size="10.00">mxm</text>
</a>
</g>
</g>
<!-- Node2 -->
<g id="node2" class="node">
<title>Node2</title>
<g id="a_node2"><a xlink:href="dgemm_8f.html#aeda3cbd99c8fb834a60a6412878226e1" target="_top" xlink:title=" ">
<polygon fill="white" stroke="black" points="87,-228.5 87,-247.5 136,-247.5 136,-228.5 87,-228.5"/>
<text text-anchor="middle" x="111.5" y="-235.5" font-family="Helvetica,sans-Serif" font-size="10.00">dgemm</text>
</a>
</g>
</g>
<!-- Node1&#45;&gt;Node2 -->
<g id="edge1" class="edge">
<title>Node1&#45;&gt;Node2</title>
<path fill="none" stroke="midnightblue" d="M23.3,-133.52C30.15,-152.07 47.5,-193.46 74,-219 75.43,-220.38 76.97,-221.68 78.6,-222.9"/>
<polygon fill="midnightblue" stroke="midnightblue" points="76.85,-225.94 87.16,-228.41 80.64,-220.05 76.85,-225.94"/>
</g>
<!-- Node4 -->
<g id="node4" class="node">
<title>Node4</title>
<g id="a_node4"><a xlink:href="comm__mpi_8f.html#af06ec29f06aac3f8809e19de2a7e8946" target="_top" xlink:title=" ">
<polygon fill="white" stroke="black" points="81,-190.5 81,-209.5 142,-209.5 142,-190.5 81,-190.5"/>
<text text-anchor="middle" x="111.5" y="-197.5" font-family="Helvetica,sans-Serif" font-size="10.00">dnekclock</text>
</a>
</g>
</g>
<!-- Node1&#45;&gt;Node4 -->
<g id="edge3" class="edge">
<title>Node1&#45;&gt;Node4</title>
<path fill="none" stroke="midnightblue" d="M27.58,-133.82C37.34,-146 55.28,-166.88 74,-181 76.05,-182.54 78.24,-184.03 80.49,-185.44"/>
<polygon fill="midnightblue" stroke="midnightblue" points="78.9,-188.56 89.32,-190.49 82.37,-182.48 78.9,-188.56"/>
</g>
<!-- Node6 -->
<g id="node6" class="node">
<title>Node6</title>
<g id="a_node6"><a xlink:href="mxm__bgq_8f.html#a8a70163b4dbfdbfcce7bff170597fcad" target="_top" xlink:title=" ">
<polygon fill="white" stroke="black" points="74,-152.5 74,-171.5 149,-171.5 149,-152.5 74,-152.5"/>
<text text-anchor="middle" x="111.5" y="-159.5" font-family="Helvetica,sans-Serif" font-size="10.00">mxm_bgq_10</text>
</a>
</g>
</g>
<!-- Node1&#45;&gt;Node6 -->
<g id="edge5" class="edge">
<title>Node1&#45;&gt;Node6</title>
<path fill="none" stroke="midnightblue" d="M38.31,-131.69C49.78,-136.51 64.89,-142.85 78.31,-148.48"/>
<polygon fill="midnightblue" stroke="midnightblue" points="77.14,-151.79 87.71,-152.43 79.85,-145.33 77.14,-151.79"/>
</g>
<!-- Node7 -->
<g id="node7" class="node">
<title>Node7</title>
<g id="a_node7"><a xlink:href="mxm__bgq_8f.html#a3fda9ea4bc7a5713a19d6939fa2b541f" target="_top" xlink:title=" ">
<polygon fill="white" stroke="black" points="74,-114.5 74,-133.5 149,-133.5 149,-114.5 74,-114.5"/>
<text text-anchor="middle" x="111.5" y="-121.5" font-family="Helvetica,sans-Serif" font-size="10.00">mxm_bgq_16</text>
</a>
</g>
</g>
<!-- Node1&#45;&gt;Node7 -->
<g id="edge6" class="edge">
<title>Node1&#45;&gt;Node7</title>
<path fill="none" stroke="midnightblue" d="M38.31,-124C45.74,-124 54.7,-124 63.73,-124"/>
<polygon fill="midnightblue" stroke="midnightblue" points="63.89,-127.5 73.89,-124 63.89,-120.5 63.89,-127.5"/>
</g>
<!-- Node8 -->
<g id="node8" class="node">
<title>Node8</title>
<g id="a_node8"><a xlink:href="mxm__bgq_8f.html#af192c3c8b982aa5bbc2a757156718a91" target="_top" xlink:title=" ">
<polygon fill="white" stroke="black" points="76.5,-76.5 76.5,-95.5 146.5,-95.5 146.5,-76.5 76.5,-76.5"/>
<text text-anchor="middle" x="111.5" y="-83.5" font-family="Helvetica,sans-Serif" font-size="10.00">mxm_bgq_6</text>
</a>
</g>
</g>
<!-- Node1&#45;&gt;Node8 -->
<g id="edge7" class="edge">
<title>Node1&#45;&gt;Node8</title>
<path fill="none" stroke="midnightblue" d="M38.31,-116.31C49.78,-111.49 64.89,-105.15 78.31,-99.52"/>
<polygon fill="midnightblue" stroke="midnightblue" points="79.85,-102.67 87.71,-95.57 77.14,-96.21 79.85,-102.67"/>
</g>
<!-- Node9 -->
<g id="node9" class="node">
<title>Node9</title>
<g id="a_node9"><a xlink:href="mxm__bgq_8f.html#a8faaef428336095704ece51624bbfe92" target="_top" xlink:title=" ">
<polygon fill="white" stroke="black" points="76.5,-38.5 76.5,-57.5 146.5,-57.5 146.5,-38.5 76.5,-38.5"/>
<text text-anchor="middle" x="111.5" y="-45.5" font-family="Helvetica,sans-Serif" font-size="10.00">mxm_bgq_8</text>
</a>
</g>
</g>
<!-- Node1&#45;&gt;Node9 -->
<g id="edge8" class="edge">
<title>Node1&#45;&gt;Node9</title>
<path fill="none" stroke="midnightblue" d="M27.58,-114.18C37.34,-102 55.28,-81.12 74,-67 76.05,-65.46 78.24,-63.97 80.49,-62.56"/>
<polygon fill="midnightblue" stroke="midnightblue" points="82.37,-65.52 89.32,-57.51 78.9,-59.44 82.37,-65.52"/>
</g>
<!-- Node10 -->
<g id="node10" class="node">
<title>Node10</title>
<g id="a_node10"><a xlink:href="mxm__std_8f.html#aa9e8685c4a72f18fb5d1ee88ed17a3d6" target="_top" xlink:title=" ">
<polygon fill="white" stroke="red" points="88,-0.5 88,-19.5 135,-19.5 135,-0.5 88,-0.5"/>
<text text-anchor="middle" x="111.5" y="-7.5" font-family="Helvetica,sans-Serif" font-size="10.00">mxmf2</text>
</a>
</g>
</g>
<!-- Node1&#45;&gt;Node10 -->
<g id="edge9" class="edge">
<title>Node1&#45;&gt;Node10</title>
<path fill="none" stroke="midnightblue" d="M23.3,-114.48C30.15,-95.93 47.5,-54.54 74,-29 75.63,-27.43 77.42,-25.96 79.29,-24.58"/>
<polygon fill="midnightblue" stroke="midnightblue" points="81.3,-27.45 87.92,-19.17 77.59,-21.52 81.3,-27.45"/>
</g>
<!-- Node3 -->
<g id="node3" class="node">
<title>Node3</title>
<g id="a_node3"><a xlink:href="xerbla_8f.html#a377ee61015baf8dea7770b3a404b1c07" target="_top" xlink:title=" ">
<polygon fill="white" stroke="black" points="195.5,-228.5 195.5,-247.5 238.5,-247.5 238.5,-228.5 195.5,-228.5"/>
<text text-anchor="middle" x="217" y="-235.5" font-family="Helvetica,sans-Serif" font-size="10.00">xerbla</text>
</a>
</g>
</g>
<!-- Node2&#45;&gt;Node3 -->
<g id="edge2" class="edge">
<title>Node2&#45;&gt;Node3</title>
<path fill="none" stroke="midnightblue" d="M136.24,-238C150.7,-238 169.31,-238 184.93,-238"/>
<polygon fill="midnightblue" stroke="midnightblue" points="185.17,-241.5 195.17,-238 185.17,-234.5 185.17,-241.5"/>
</g>
<!-- Node5 -->
<g id="node5" class="node">
<title>Node5</title>
<g id="a_node5"><a xlink:href="mpi__dummy_8f.html#ae6a5ef945f87c2c27849696b70f3af2a" target="_top" xlink:title=" ">
<polygon fill="white" stroke="black" points="185,-190.5 185,-209.5 249,-209.5 249,-190.5 185,-190.5"/>
<text text-anchor="middle" x="217" y="-197.5" font-family="Helvetica,sans-Serif" font-size="10.00">mpi_wtime</text>
</a>
</g>
</g>
<!-- Node4&#45;&gt;Node5 -->
<g id="edge4" class="edge">
<title>Node4&#45;&gt;Node5</title>
<path fill="none" stroke="midnightblue" d="M142.16,-200C152.3,-200 163.83,-200 174.72,-200"/>
<polygon fill="midnightblue" stroke="midnightblue" points="174.89,-203.5 184.89,-200 174.89,-196.5 174.89,-203.5"/>
</g>
</g>
</svg>
