<?xml version="1.0" encoding="UTF-8" standalone="no"?>
<!DOCTYPE svg PUBLIC "-//W3C//DTD SVG 1.1//EN"
 "http://www.w3.org/Graphics/SVG/1.1/DTD/svg11.dtd">
<!-- Generated by graphviz version 2.46.0 (0)
 -->
<!-- Title: irank Pages: 1 -->
<svg width="351pt" height="218pt"
 viewBox="0.00 0.00 351.00 218.00" xmlns="http://www.w3.org/2000/svg" xmlns:xlink="http://www.w3.org/1999/xlink">
<g id="graph0" class="graph" transform="scale(1 1) rotate(0) translate(4 214)">
<title>irank</title>
<polygon fill="white" stroke="transparent" points="-4,4 -4,-214 347,-214 347,4 -4,4"/>
<!-- Node1 -->
<g id="node1" class="node">
<title>Node1</title>
<g id="a_node1"><a xlink:title=" ">
<polygon fill="#bfbfbf" stroke="black" points="305,-114.5 305,-133.5 343,-133.5 343,-114.5 305,-114.5"/>
<text text-anchor="middle" x="324" y="-121.5" font-family="Helvetica,sans-Serif" font-size="10.00">irank</text>
</a>
</g>
</g>
<!-- Node2 -->
<g id="node2" class="node">
<title>Node2</title>
<g id="a_node2"><a xlink:href="navier8_8f.html#ae736fabe1f3b79f4f460d680b5864979" target="_top" xlink:title=" ">
<polygon fill="white" stroke="black" points="210,-133.5 210,-152.5 269,-152.5 269,-133.5 210,-133.5"/>
<text text-anchor="middle" x="239.5" y="-140.5" font-family="Helvetica,sans-Serif" font-size="10.00">irank_vec</text>
</a>
</g>
</g>
<!-- Node1&#45;&gt;Node2 -->
<g id="edge1" class="edge">
<title>Node1&#45;&gt;Node2</title>
<path fill="none" stroke="midnightblue" d="M294.74,-130.51C286.47,-132.41 277.42,-134.5 269.13,-136.41"/>
<polygon fill="midnightblue" stroke="midnightblue" points="295.73,-133.87 304.69,-128.22 294.16,-127.05 295.73,-133.87"/>
</g>
<!-- Node3 -->
<g id="node3" class="node">
<title>Node3</title>
<g id="a_node3"><a xlink:href="navier8_8f.html#a928aff746415692c89ffdfbaf08fd98d" target="_top" xlink:title=" ">
<polygon fill="white" stroke="black" points="211,-95.5 211,-114.5 268,-114.5 268,-95.5 211,-95.5"/>
<text text-anchor="middle" x="239.5" y="-102.5" font-family="Helvetica,sans-Serif" font-size="10.00">setvert3d</text>
</a>
</g>
</g>
<!-- Node1&#45;&gt;Node3 -->
<g id="edge2" class="edge">
<title>Node1&#45;&gt;Node3</title>
<path fill="none" stroke="midnightblue" d="M294.74,-117.49C286.15,-115.51 276.72,-113.34 268.17,-111.37"/>
<polygon fill="midnightblue" stroke="midnightblue" points="294.16,-120.95 304.69,-119.78 295.73,-114.13 294.16,-120.95"/>
</g>
<!-- Node4 -->
<g id="node4" class="node">
<title>Node4</title>
<g id="a_node4"><a xlink:href="navier8_8f.html#a51b2c2d951e069b7ffa9a395b2def117" target="_top" xlink:title=" ">
<polygon fill="white" stroke="black" points="122,-95.5 122,-114.5 174,-114.5 174,-95.5 122,-95.5"/>
<text text-anchor="middle" x="148" y="-102.5" font-family="Helvetica,sans-Serif" font-size="10.00">set_vert</text>
</a>
</g>
</g>
<!-- Node3&#45;&gt;Node4 -->
<g id="edge3" class="edge">
<title>Node3&#45;&gt;Node4</title>
<path fill="none" stroke="midnightblue" d="M200.46,-105C191.54,-105 182.26,-105 174.08,-105"/>
<polygon fill="midnightblue" stroke="midnightblue" points="200.67,-108.5 210.67,-105 200.67,-101.5 200.67,-108.5"/>
</g>
<!-- Node5 -->
<g id="node5" class="node">
<title>Node5</title>
<g id="a_node5"><a xlink:href="navier8_8f.html#a809b9aa647f2046d09131be2f6074ff6" target="_top" xlink:title=" ">
<polygon fill="white" stroke="red" points="3,-190.5 3,-209.5 83,-209.5 83,-190.5 3,-190.5"/>
<text text-anchor="middle" x="43" y="-197.5" font-family="Helvetica,sans-Serif" font-size="10.00">set_up_h1_crs</text>
</a>
</g>
</g>
<!-- Node4&#45;&gt;Node5 -->
<g id="edge4" class="edge">
<title>Node4&#45;&gt;Node5</title>
<path fill="none" stroke="midnightblue" d="M135.79,-123.49C124.83,-140.3 106.79,-164.88 86,-181 81.32,-184.63 75.84,-187.75 70.4,-190.35"/>
<polygon fill="midnightblue" stroke="midnightblue" points="139.01,-124.94 141.39,-114.61 133.09,-121.2 139.01,-124.94"/>
</g>
<!-- Node10 -->
<g id="node6" class="node">
<title>Node10</title>
<g id="a_node6"><a xlink:href="subs1_8f.html#ad7ba016312892cc812c3bd71457cd7d0" target="_top" xlink:title=" ">
<polygon fill="white" stroke="red" points="6,-152.5 6,-171.5 80,-171.5 80,-152.5 6,-152.5"/>
<text text-anchor="middle" x="43" y="-159.5" font-family="Helvetica,sans-Serif" font-size="10.00">set_vert_strs</text>
</a>
</g>
</g>
<!-- Node4&#45;&gt;Node10 -->
<g id="edge5" class="edge">
<title>Node4&#45;&gt;Node10</title>
<path fill="none" stroke="midnightblue" d="M124.35,-120.1C113.04,-127.39 99.02,-136.04 86,-143 79.79,-146.32 72.89,-149.6 66.5,-152.48"/>
<polygon fill="midnightblue" stroke="midnightblue" points="126.31,-123.01 132.77,-114.61 122.49,-117.14 126.31,-123.01"/>
</g>
<!-- Node67 -->
<g id="node7" class="node">
<title>Node67</title>
<g id="a_node7"><a xlink:href="convect_8f.html#ae036baf441f94f93768933971b22ca5e" target="_top" xlink:title=" ">
<polygon fill="white" stroke="red" points="7,-114.5 7,-133.5 79,-133.5 79,-114.5 7,-114.5"/>
<text text-anchor="middle" x="43" y="-121.5" font-family="Helvetica,sans-Serif" font-size="10.00">setup_dg_gs</text>
</a>
</g>
</g>
<!-- Node4&#45;&gt;Node67 -->
<g id="edge6" class="edge">
<title>Node4&#45;&gt;Node67</title>
<path fill="none" stroke="midnightblue" d="M111.67,-111.52C101.12,-113.46 89.57,-115.59 79.05,-117.54"/>
<polygon fill="midnightblue" stroke="midnightblue" points="112.6,-114.9 121.8,-109.65 111.33,-108.02 112.6,-114.9"/>
</g>
<!-- Node69 -->
<g id="node8" class="node">
<title>Node69</title>
<g id="a_node8"><a xlink:href="dssum_8f.html#ac67af3a4cc3a2c90a8d596c8ab69e395" target="_top" xlink:title=" ">
<polygon fill="white" stroke="red" points="17.5,-76.5 17.5,-95.5 68.5,-95.5 68.5,-76.5 17.5,-76.5"/>
<text text-anchor="middle" x="43" y="-83.5" font-family="Helvetica,sans-Serif" font-size="10.00">setupds</text>
</a>
</g>
</g>
<!-- Node4&#45;&gt;Node69 -->
<g id="edge7" class="edge">
<title>Node4&#45;&gt;Node69</title>
<path fill="none" stroke="midnightblue" d="M111.84,-98.51C97.61,-95.89 81.52,-92.92 68.58,-90.53"/>
<polygon fill="midnightblue" stroke="midnightblue" points="111.33,-101.98 121.8,-100.35 112.6,-95.1 111.33,-101.98"/>
</g>
<!-- Node77 -->
<g id="node9" class="node">
<title>Node77</title>
<g id="a_node9"><a xlink:href="meshsmoother_8f.html#a0462602389036e142b4376691560cac7" target="_top" xlink:title=" ">
<polygon fill="white" stroke="red" points="1.5,-38.5 1.5,-57.5 84.5,-57.5 84.5,-38.5 1.5,-38.5"/>
<text text-anchor="middle" x="43" y="-45.5" font-family="Helvetica,sans-Serif" font-size="10.00">setupds_center</text>
</a>
</g>
</g>
<!-- Node4&#45;&gt;Node77 -->
<g id="edge8" class="edge">
<title>Node4&#45;&gt;Node77</title>
<path fill="none" stroke="midnightblue" d="M124.35,-89.9C113.04,-82.61 99.02,-73.96 86,-67 79.79,-63.68 72.89,-60.4 66.5,-57.52"/>
<polygon fill="midnightblue" stroke="midnightblue" points="122.49,-92.86 132.77,-95.39 126.31,-86.99 122.49,-92.86"/>
</g>
<!-- Node81 -->
<g id="node10" class="node">
<title>Node81</title>
<g id="a_node10"><a xlink:href="gmres_8f.html#a850278932a69c1656496f16b8d327281" target="_top" xlink:title=" ">
<polygon fill="white" stroke="red" points="0,-0.5 0,-19.5 86,-19.5 86,-0.5 0,-0.5"/>
<text text-anchor="middle" x="43" y="-7.5" font-family="Helvetica,sans-Serif" font-size="10.00">setupds_no_crn</text>
</a>
</g>
</g>
<!-- Node4&#45;&gt;Node81 -->
<g id="edge9" class="edge">
<title>Node4&#45;&gt;Node81</title>
<path fill="none" stroke="midnightblue" d="M135.79,-86.51C124.83,-69.7 106.79,-45.12 86,-29 81.32,-25.37 75.84,-22.25 70.4,-19.65"/>
<polygon fill="midnightblue" stroke="midnightblue" points="133.09,-88.8 141.39,-95.39 139.01,-85.06 133.09,-88.8"/>
</g>
</g>
</svg>
