<?xml version="1.0" encoding="UTF-8" standalone="no"?>
<!DOCTYPE svg PUBLIC "-//W3C//DTD SVG 1.1//EN"
 "http://www.w3.org/Graphics/SVG/1.1/DTD/svg11.dtd">
<!-- Generated by graphviz version 2.46.0 (0)
 -->
<!-- Title: hsolve Pages: 1 -->
<svg width="229pt" height="256pt"
 viewBox="0.00 0.00 229.00 256.00" xmlns="http://www.w3.org/2000/svg" xmlns:xlink="http://www.w3.org/1999/xlink">
<g id="graph0" class="graph" transform="scale(1 1) rotate(0) translate(4 252)">
<title>hsolve</title>
<polygon fill="white" stroke="transparent" points="-4,4 -4,-252 225,-252 225,4 -4,4"/>
<!-- Node1 -->
<g id="node1" class="node">
<title>Node1</title>
<g id="a_node1"><a xlink:title=" ">
<polygon fill="#bfbfbf" stroke="black" points="176,-95.5 176,-114.5 221,-114.5 221,-95.5 176,-95.5"/>
<text text-anchor="middle" x="198.5" y="-102.5" font-family="Helvetica,sans-Serif" font-size="10.00">hsolve</text>
</a>
</g>
</g>
<!-- Node2 -->
<g id="node2" class="node">
<title>Node2</title>
<g id="a_node2"><a xlink:href="conduct_8f.html#a74a7f053381975ed36df8ea959f3aa01" target="_top" xlink:title=" ">
<polygon fill="white" stroke="black" points="95,-180.5 95,-199.5 140,-199.5 140,-180.5 95,-180.5"/>
<text text-anchor="middle" x="117.5" y="-187.5" font-family="Helvetica,sans-Serif" font-size="10.00">cdscal</text>
</a>
</g>
</g>
<!-- Node1&#45;&gt;Node2 -->
<g id="edge1" class="edge">
<title>Node1&#45;&gt;Node2</title>
<path fill="none" stroke="midnightblue" d="M181.63,-122.08C165.35,-139.59 140.61,-166.21 127.46,-180.36"/>
<polygon fill="midnightblue" stroke="midnightblue" points="184.19,-124.46 188.44,-114.75 179.07,-119.69 184.19,-124.46"/>
</g>
<!-- Node15 -->
<g id="node4" class="node">
<title>Node15</title>
<g id="a_node4"><a xlink:href="induct_8f.html#a1a8a16f24236d6e6f08fe4d60cb29d01" target="_top" xlink:title=" ">
<polygon fill="white" stroke="red" points="95,-95.5 95,-114.5 140,-114.5 140,-95.5 95,-95.5"/>
<text text-anchor="middle" x="117.5" y="-102.5" font-family="Helvetica,sans-Serif" font-size="10.00">ophinv</text>
</a>
</g>
</g>
<!-- Node1&#45;&gt;Node15 -->
<g id="edge3" class="edge">
<title>Node1&#45;&gt;Node15</title>
<path fill="none" stroke="midnightblue" d="M165.76,-105C157.13,-105 147.98,-105 140.06,-105"/>
<polygon fill="midnightblue" stroke="midnightblue" points="165.91,-108.5 175.91,-105 165.91,-101.5 165.91,-108.5"/>
</g>
<!-- Node54 -->
<g id="node10" class="node">
<title>Node54</title>
<g id="a_node10"><a xlink:href="plan4_8f.html#a247fc105464de543a464773054eb509e" target="_top" xlink:title=" ">
<polygon fill="white" stroke="red" points="9.5,-0.5 9.5,-19.5 49.5,-19.5 49.5,-0.5 9.5,-0.5"/>
<text text-anchor="middle" x="29.5" y="-7.5" font-family="Helvetica,sans-Serif" font-size="10.00">plan4</text>
</a>
</g>
</g>
<!-- Node1&#45;&gt;Node54 -->
<g id="edge10" class="edge">
<title>Node1&#45;&gt;Node54</title>
<path fill="none" stroke="midnightblue" d="M171.54,-90.23C136.97,-70.57 76.77,-36.32 47.48,-19.66"/>
<polygon fill="midnightblue" stroke="midnightblue" points="170.15,-93.47 180.57,-95.37 173.61,-87.38 170.15,-93.47"/>
</g>
<!-- Node3 -->
<g id="node3" class="node">
<title>Node3</title>
<g id="a_node3"><a xlink:href="drive2_8f.html#acce80cd37f20e9b52729eb52d86a9c86" target="_top" xlink:title=" ">
<polygon fill="white" stroke="red" points="12,-228.5 12,-247.5 47,-247.5 47,-228.5 12,-228.5"/>
<text text-anchor="middle" x="29.5" y="-235.5" font-family="Helvetica,sans-Serif" font-size="10.00">heat</text>
</a>
</g>
</g>
<!-- Node2&#45;&gt;Node3 -->
<g id="edge2" class="edge">
<title>Node2&#45;&gt;Node3</title>
<path fill="none" stroke="midnightblue" d="M90.32,-204.61C76.22,-212.48 59.26,-221.95 47,-228.79"/>
<polygon fill="midnightblue" stroke="midnightblue" points="92.07,-207.64 99.1,-199.71 88.66,-201.53 92.07,-207.64"/>
</g>
<!-- Node16 -->
<g id="node5" class="node">
<title>Node16</title>
<g id="a_node5"><a xlink:href="navier1_8f.html#a65f34d5a85fb540d8cb0fd1fbf1d2e6b" target="_top" xlink:title=" ">
<polygon fill="white" stroke="red" points="4,-190.5 4,-209.5 55,-209.5 55,-190.5 4,-190.5"/>
<text text-anchor="middle" x="29.5" y="-197.5" font-family="Helvetica,sans-Serif" font-size="10.00">cdabdtp</text>
</a>
</g>
</g>
<!-- Node15&#45;&gt;Node16 -->
<g id="edge4" class="edge">
<title>Node15&#45;&gt;Node16</title>
<path fill="none" stroke="midnightblue" d="M105.18,-123.32C94.55,-139.63 77.52,-163.55 59,-181 55.36,-184.43 51.05,-187.65 46.88,-190.43"/>
<polygon fill="midnightblue" stroke="midnightblue" points="108.25,-125.01 110.67,-114.7 102.35,-121.26 108.25,-125.01"/>
</g>
<!-- Node52 -->
<g id="node6" class="node">
<title>Node52</title>
<g id="a_node6"><a xlink:href="navier1_8f.html#a9a81e8c08ce04d9d86d24c396518e583" target="_top" xlink:title=" ">
<polygon fill="white" stroke="red" points="4,-152.5 4,-171.5 55,-171.5 55,-152.5 4,-152.5"/>
<text text-anchor="middle" x="29.5" y="-159.5" font-family="Helvetica,sans-Serif" font-size="10.00">crespuz</text>
</a>
</g>
</g>
<!-- Node15&#45;&gt;Node52 -->
<g id="edge5" class="edge">
<title>Node15&#45;&gt;Node52</title>
<path fill="none" stroke="midnightblue" d="M93.41,-120.31C77.95,-130.55 58.1,-143.71 44.87,-152.47"/>
<polygon fill="midnightblue" stroke="midnightblue" points="95.51,-123.11 101.91,-114.67 91.64,-117.28 95.51,-123.11"/>
</g>
<!-- Node25 -->
<g id="node7" class="node">
<title>Node25</title>
<g id="a_node7"><a xlink:href="induct_8f.html#adef470718d07d8b4c7f6bf32b2a9ecb9" target="_top" xlink:title=" ">
<polygon fill="white" stroke="red" points="0,-114.5 0,-133.5 59,-133.5 59,-114.5 0,-114.5"/>
<text text-anchor="middle" x="29.5" y="-121.5" font-family="Helvetica,sans-Serif" font-size="10.00">elsasserh</text>
</a>
</g>
</g>
<!-- Node15&#45;&gt;Node25 -->
<g id="edge6" class="edge">
<title>Node15&#45;&gt;Node25</title>
<path fill="none" stroke="midnightblue" d="M84.88,-111.99C76.42,-113.86 67.31,-115.87 59.02,-117.7"/>
<polygon fill="midnightblue" stroke="midnightblue" points="85.79,-115.37 94.8,-109.79 84.28,-108.53 85.79,-115.37"/>
</g>
<!-- Node27 -->
<g id="node8" class="node">
<title>Node27</title>
<g id="a_node8"><a xlink:href="plan5_8f.html#a1c77871dc9883719557071c0006dc66e" target="_top" xlink:title=" ">
<polygon fill="white" stroke="red" points="4,-76.5 4,-95.5 55,-95.5 55,-76.5 4,-76.5"/>
<text text-anchor="middle" x="29.5" y="-83.5" font-family="Helvetica,sans-Serif" font-size="10.00">midstep</text>
</a>
</g>
</g>
<!-- Node15&#45;&gt;Node27 -->
<g id="edge7" class="edge">
<title>Node15&#45;&gt;Node27</title>
<path fill="none" stroke="midnightblue" d="M84.98,-98.04C75.18,-95.87 64.51,-93.51 55.24,-91.47"/>
<polygon fill="midnightblue" stroke="midnightblue" points="84.28,-101.47 94.8,-100.21 85.79,-94.63 84.28,-101.47"/>
</g>
<!-- Node41 -->
<g id="node9" class="node">
<title>Node41</title>
<g id="a_node9"><a xlink:href="perturb_8f.html#a4b77d7db844b723bd5ed857e918bc83f" target="_top" xlink:title=" ">
<polygon fill="white" stroke="red" points="3.5,-38.5 3.5,-57.5 55.5,-57.5 55.5,-38.5 3.5,-38.5"/>
<text text-anchor="middle" x="29.5" y="-45.5" font-family="Helvetica,sans-Serif" font-size="10.00">perturbv</text>
</a>
</g>
</g>
<!-- Node15&#45;&gt;Node41 -->
<g id="edge8" class="edge">
<title>Node15&#45;&gt;Node41</title>
<path fill="none" stroke="midnightblue" d="M93.41,-89.69C77.95,-79.45 58.1,-66.29 44.87,-57.53"/>
<polygon fill="midnightblue" stroke="midnightblue" points="91.64,-92.72 101.91,-95.33 95.51,-86.89 91.64,-92.72"/>
</g>
<!-- Node15&#45;&gt;Node54 -->
<g id="edge9" class="edge">
<title>Node15&#45;&gt;Node54</title>
<path fill="none" stroke="midnightblue" d="M105.18,-86.68C94.55,-70.37 77.52,-46.45 59,-29 55.36,-25.57 51.05,-22.35 46.88,-19.57"/>
<polygon fill="midnightblue" stroke="midnightblue" points="102.35,-88.74 110.67,-95.3 108.25,-84.99 102.35,-88.74"/>
</g>
</g>
</svg>
