<?xml version="1.0" encoding="UTF-8" standalone="no"?>
<!DOCTYPE svg PUBLIC "-//W3C//DTD SVG 1.1//EN"
 "http://www.w3.org/Graphics/SVG/1.1/DTD/svg11.dtd">
<!-- Generated by graphviz version 2.46.0 (0)
 -->
<!-- Title: surface_flux Pages: 1 -->
<svg width="239pt" height="77pt"
 viewBox="0.00 0.00 239.00 77.46" xmlns="http://www.w3.org/2000/svg" xmlns:xlink="http://www.w3.org/1999/xlink">
<g id="graph0" class="graph" transform="scale(1 1) rotate(0) translate(4 73.46)">
<title>surface_flux</title>
<polygon fill="white" stroke="transparent" points="-4,4 -4,-73.46 235,-73.46 235,4 -4,4"/>
<!-- Node1 -->
<g id="node1" class="node">
<title>Node1</title>
<g id="a_node1"><a xlink:title=" ">
<polygon fill="#bfbfbf" stroke="black" points="0,-38.5 0,-57.5 70,-57.5 70,-38.5 0,-38.5"/>
<text text-anchor="middle" x="35" y="-45.5" font-family="Helvetica,sans-Serif" font-size="10.00">surface_flux</text>
</a>
</g>
</g>
<!-- Node2 -->
<g id="node2" class="node">
<title>Node2</title>
<g id="a_node2"><a xlink:href="connect1_8f.html#aa6d2ebf2dfdfeae458d41ef4cb6d9fae" target="_top" xlink:title=" ">
<polygon fill="white" stroke="black" points="190,-38.5 190,-57.5 231,-57.5 231,-38.5 190,-38.5"/>
<text text-anchor="middle" x="210.5" y="-45.5" font-family="Helvetica,sans-Serif" font-size="10.00">dsset</text>
</a>
</g>
</g>
<!-- Node1&#45;&gt;Node2 -->
<g id="edge1" class="edge">
<title>Node1&#45;&gt;Node2</title>
<path fill="none" stroke="midnightblue" d="M64.26,-57.5C76.87,-61.27 92.02,-65.14 106,-67 127.15,-69.82 132.96,-70.5 154,-67 162.71,-65.55 171.89,-62.9 180.22,-60.03"/>
<polygon fill="midnightblue" stroke="midnightblue" points="181.69,-63.22 189.87,-56.49 179.28,-56.65 181.69,-63.22"/>
</g>
<!-- Node3 -->
<g id="node3" class="node">
<title>Node3</title>
<g id="a_node3"><a xlink:href="subs1_8f.html#ac031cc2389be2401847bfda335f228fd" target="_top" xlink:title=" ">
<polygon fill="white" stroke="black" points="108.5,-38.5 108.5,-57.5 151.5,-57.5 151.5,-38.5 108.5,-38.5"/>
<text text-anchor="middle" x="130" y="-45.5" font-family="Helvetica,sans-Serif" font-size="10.00">faccl3</text>
</a>
</g>
</g>
<!-- Node1&#45;&gt;Node3 -->
<g id="edge2" class="edge">
<title>Node1&#45;&gt;Node3</title>
<path fill="none" stroke="midnightblue" d="M70.1,-48C79.34,-48 89.29,-48 98.33,-48"/>
<polygon fill="midnightblue" stroke="midnightblue" points="98.43,-51.5 108.43,-48 98.43,-44.5 98.43,-51.5"/>
</g>
<!-- Node4 -->
<g id="node4" class="node">
<title>Node4</title>
<g id="a_node4"><a xlink:href="subs1_8f.html#a300a6ec376ec9db6364ed826c08800f8" target="_top" xlink:title=" ">
<polygon fill="white" stroke="black" points="106,-0.5 106,-19.5 154,-19.5 154,-0.5 106,-0.5"/>
<text text-anchor="middle" x="130" y="-7.5" font-family="Helvetica,sans-Serif" font-size="10.00">faddcl3</text>
</a>
</g>
</g>
<!-- Node1&#45;&gt;Node4 -->
<g id="edge4" class="edge">
<title>Node1&#45;&gt;Node4</title>
<path fill="none" stroke="midnightblue" d="M59.47,-38.41C70.68,-33.83 84.28,-28.27 96.46,-23.29"/>
<polygon fill="midnightblue" stroke="midnightblue" points="97.93,-26.48 105.86,-19.45 95.28,-20 97.93,-26.48"/>
</g>
<!-- Node3&#45;&gt;Node2 -->
<g id="edge3" class="edge">
<title>Node3&#45;&gt;Node2</title>
<path fill="none" stroke="midnightblue" d="M151.62,-48C160.21,-48 170.33,-48 179.7,-48"/>
<polygon fill="midnightblue" stroke="midnightblue" points="179.82,-51.5 189.82,-48 179.82,-44.5 179.82,-51.5"/>
</g>
<!-- Node4&#45;&gt;Node2 -->
<g id="edge5" class="edge">
<title>Node4&#45;&gt;Node2</title>
<path fill="none" stroke="midnightblue" d="M150.81,-19.59C159.9,-23.99 170.84,-29.29 180.81,-34.11"/>
<polygon fill="midnightblue" stroke="midnightblue" points="179.44,-37.34 189.97,-38.55 182.49,-31.04 179.44,-37.34"/>
</g>
</g>
</svg>
