<?xml version="1.0" encoding="UTF-8" standalone="no"?>
<!DOCTYPE svg PUBLIC "-//W3C//DTD SVG 1.1//EN"
 "http://www.w3.org/Graphics/SVG/1.1/DTD/svg11.dtd">
<!-- Generated by graphviz version 2.46.0 (0)
 -->
<!-- Title: gbtuple_rank Pages: 1 -->
<svg width="377pt" height="180pt"
 viewBox="0.00 0.00 377.00 180.00" xmlns="http://www.w3.org/2000/svg" xmlns:xlink="http://www.w3.org/1999/xlink">
<g id="graph0" class="graph" transform="scale(1 1) rotate(0) translate(4 176)">
<title>gbtuple_rank</title>
<polygon fill="white" stroke="transparent" points="-4,4 -4,-176 373,-176 373,4 -4,4"/>
<!-- Node1 -->
<g id="node1" class="node">
<title>Node1</title>
<g id="a_node1"><a xlink:title=" ">
<polygon fill="#bfbfbf" stroke="black" points="0,-76.5 0,-95.5 72,-95.5 72,-76.5 0,-76.5"/>
<text text-anchor="middle" x="36" y="-83.5" font-family="Helvetica,sans-Serif" font-size="10.00">gbtuple_rank</text>
</a>
</g>
</g>
<!-- Node2 -->
<g id="node2" class="node">
<title>Node2</title>
<g id="a_node2"><a xlink:href="byte_8c.html#a2da8eeb074dfd3ffbfb3e9a4d301cda4" target="_top" xlink:title=" ">
<polygon fill="white" stroke="black" points="134,-152.5 134,-171.5 169,-171.5 169,-152.5 134,-152.5"/>
<text text-anchor="middle" x="151.5" y="-159.5" font-family="Helvetica,sans-Serif" font-size="10.00">exitt</text>
</a>
</g>
</g>
<!-- Node1&#45;&gt;Node2 -->
<g id="edge1" class="edge">
<title>Node1&#45;&gt;Node2</title>
<path fill="none" stroke="midnightblue" d="M47.42,-95.81C60.72,-107.97 84.8,-128.83 108,-143 113.09,-146.11 118.77,-149 124.28,-151.55"/>
<polygon fill="midnightblue" stroke="midnightblue" points="123.29,-154.93 133.86,-155.72 126.09,-148.52 123.29,-154.93"/>
</g>
<!-- Node5 -->
<g id="node4" class="node">
<title>Node5</title>
<g id="a_node4"><a xlink:href="comm__mpi_8f.html#a1dc8c1bc7e3a04d6080d70922c6ad5be" target="_top" xlink:title=" ">
<polygon fill="white" stroke="black" points="108,-114.5 108,-133.5 195,-133.5 195,-114.5 108,-114.5"/>
<text text-anchor="middle" x="151.5" y="-121.5" font-family="Helvetica,sans-Serif" font-size="10.00">igl_running_sum</text>
</a>
</g>
</g>
<!-- Node1&#45;&gt;Node5 -->
<g id="edge3" class="edge">
<title>Node1&#45;&gt;Node5</title>
<path fill="none" stroke="midnightblue" d="M65.64,-95.59C79.75,-100.31 96.97,-106.08 112.2,-111.18"/>
<polygon fill="midnightblue" stroke="midnightblue" points="111.27,-114.56 121.87,-114.41 113.5,-107.92 111.27,-114.56"/>
</g>
<!-- Node11 -->
<g id="node7" class="node">
<title>Node11</title>
<g id="a_node7"><a xlink:href="math_8f.html#a8431e1799f5711943b2e061a602754ca" target="_top" xlink:title=" ">
<polygon fill="white" stroke="black" points="129,-76.5 129,-95.5 174,-95.5 174,-76.5 129,-76.5"/>
<text text-anchor="middle" x="151.5" y="-83.5" font-family="Helvetica,sans-Serif" font-size="10.00">iglmax</text>
</a>
</g>
</g>
<!-- Node1&#45;&gt;Node11 -->
<g id="edge6" class="edge">
<title>Node1&#45;&gt;Node11</title>
<path fill="none" stroke="midnightblue" d="M72.29,-86C87.02,-86 104.01,-86 118.38,-86"/>
<polygon fill="midnightblue" stroke="midnightblue" points="118.78,-89.5 128.78,-86 118.78,-82.5 118.78,-89.5"/>
</g>
<!-- Node14 -->
<g id="node9" class="node">
<title>Node14</title>
<g id="a_node9"><a xlink:href="navier8_8f.html#ab45afa33532528c978fbfcf44355bb28" target="_top" xlink:title=" ">
<polygon fill="white" stroke="black" points="119.5,-38.5 119.5,-57.5 183.5,-57.5 183.5,-38.5 119.5,-38.5"/>
<text text-anchor="middle" x="151.5" y="-45.5" font-family="Helvetica,sans-Serif" font-size="10.00">irank_vecn</text>
</a>
</g>
</g>
<!-- Node1&#45;&gt;Node14 -->
<g id="edge8" class="edge">
<title>Node1&#45;&gt;Node14</title>
<path fill="none" stroke="midnightblue" d="M65.64,-76.41C79.75,-71.69 96.97,-65.92 112.2,-60.82"/>
<polygon fill="midnightblue" stroke="midnightblue" points="113.5,-64.08 121.87,-57.59 111.27,-57.44 113.5,-64.08"/>
</g>
<!-- Node15 -->
<g id="node10" class="node">
<title>Node15</title>
<g id="a_node10"><a xlink:href="navier8_8f.html#adcc31cd78dd8ff5e821a590c916e4506" target="_top" xlink:title=" ">
<polygon fill="white" stroke="black" points="231,-0.5 231,-19.5 293,-19.5 293,-0.5 231,-0.5"/>
<text text-anchor="middle" x="262" y="-7.5" font-family="Helvetica,sans-Serif" font-size="10.00">ituple_sort</text>
</a>
</g>
</g>
<!-- Node1&#45;&gt;Node15 -->
<g id="edge12" class="edge">
<title>Node1&#45;&gt;Node15</title>
<path fill="none" stroke="midnightblue" d="M45.54,-76.4C57.88,-63.23 82.08,-39.96 108,-29 143.99,-13.78 188.69,-9.74 220.46,-9.08"/>
<polygon fill="midnightblue" stroke="midnightblue" points="220.75,-12.58 230.71,-8.97 220.68,-5.58 220.75,-12.58"/>
</g>
<!-- Node3 -->
<g id="node3" class="node">
<title>Node3</title>
<g id="a_node3"><a xlink:href="comm__mpi_8f.html#acc8803a3787828530843112e0c48941b" target="_top" xlink:title=" ">
<polygon fill="white" stroke="red" points="237,-152.5 237,-171.5 287,-171.5 287,-152.5 237,-152.5"/>
<text text-anchor="middle" x="262" y="-159.5" font-family="Helvetica,sans-Serif" font-size="10.00">nek_die</text>
</a>
</g>
</g>
<!-- Node2&#45;&gt;Node3 -->
<g id="edge2" class="edge">
<title>Node2&#45;&gt;Node3</title>
<path fill="none" stroke="midnightblue" d="M169.45,-162C184.74,-162 207.69,-162 226.78,-162"/>
<polygon fill="midnightblue" stroke="midnightblue" points="226.92,-165.5 236.92,-162 226.92,-158.5 226.92,-165.5"/>
</g>
<!-- Node6 -->
<g id="node5" class="node">
<title>Node6</title>
<g id="a_node5"><a xlink:href="mpi__dummy_8f.html#a360ea2d5368e0651d29945de0f055d09" target="_top" xlink:title=" ">
<polygon fill="white" stroke="red" points="232.5,-114.5 232.5,-133.5 291.5,-133.5 291.5,-114.5 232.5,-114.5"/>
<text text-anchor="middle" x="262" y="-121.5" font-family="Helvetica,sans-Serif" font-size="10.00">mpi_scan</text>
</a>
</g>
</g>
<!-- Node5&#45;&gt;Node6 -->
<g id="edge4" class="edge">
<title>Node5&#45;&gt;Node6</title>
<path fill="none" stroke="midnightblue" d="M195.07,-124C204.03,-124 213.44,-124 222.25,-124"/>
<polygon fill="midnightblue" stroke="midnightblue" points="222.26,-127.5 232.26,-124 222.26,-120.5 222.26,-127.5"/>
</g>
<!-- Node9 -->
<g id="node6" class="node">
<title>Node9</title>
<g id="a_node6"><a xlink:href="math_8f.html#a1e85d2406444243269f0d85c61a02dce" target="_top" xlink:title=" ">
<polygon fill="white" stroke="black" points="329,-38.5 329,-57.5 369,-57.5 369,-38.5 329,-38.5"/>
<text text-anchor="middle" x="349" y="-45.5" font-family="Helvetica,sans-Serif" font-size="10.00">icopy</text>
</a>
</g>
</g>
<!-- Node6&#45;&gt;Node9 -->
<g id="edge5" class="edge">
<title>Node6&#45;&gt;Node9</title>
<path fill="none" stroke="midnightblue" d="M279.68,-114.42C284.16,-111.59 288.89,-108.35 293,-105 307.75,-92.97 322.63,-77.29 333.18,-65.42"/>
<polygon fill="midnightblue" stroke="midnightblue" points="336.11,-67.39 340.04,-57.56 330.83,-62.79 336.11,-67.39"/>
</g>
<!-- Node12 -->
<g id="node8" class="node">
<title>Node12</title>
<g id="a_node8"><a xlink:href="gs__test__gop__nonblocking_8c.html#a9a5cca78c6f0fc8b3c6845a29e9113ce" target="_top" xlink:title=" ">
<polygon fill="white" stroke="red" points="244.5,-76.5 244.5,-95.5 279.5,-95.5 279.5,-76.5 244.5,-76.5"/>
<text text-anchor="middle" x="262" y="-83.5" font-family="Helvetica,sans-Serif" font-size="10.00">igop</text>
</a>
</g>
</g>
<!-- Node11&#45;&gt;Node12 -->
<g id="edge7" class="edge">
<title>Node11&#45;&gt;Node12</title>
<path fill="none" stroke="midnightblue" d="M174.2,-86C191.46,-86 215.71,-86 234.19,-86"/>
<polygon fill="midnightblue" stroke="midnightblue" points="234.31,-89.5 244.31,-86 234.31,-82.5 234.31,-89.5"/>
</g>
<!-- Node14&#45;&gt;Node9 -->
<g id="edge9" class="edge">
<title>Node14&#45;&gt;Node9</title>
<path fill="none" stroke="midnightblue" d="M183.91,-48C220.98,-48 282.16,-48 318.42,-48"/>
<polygon fill="midnightblue" stroke="midnightblue" points="318.82,-51.5 328.82,-48 318.82,-44.5 318.82,-51.5"/>
</g>
<!-- Node14&#45;&gt;Node15 -->
<g id="edge10" class="edge">
<title>Node14&#45;&gt;Node15</title>
<path fill="none" stroke="midnightblue" d="M179.88,-38.41C193.24,-33.73 209.52,-28.03 223.97,-22.97"/>
<polygon fill="midnightblue" stroke="midnightblue" points="225.35,-26.19 233.63,-19.59 223.03,-19.59 225.35,-26.19"/>
</g>
<!-- Node15&#45;&gt;Node9 -->
<g id="edge11" class="edge">
<title>Node15&#45;&gt;Node9</title>
<path fill="none" stroke="midnightblue" d="M284.45,-19.59C295.13,-24.36 308.19,-30.2 319.68,-35.34"/>
<polygon fill="midnightblue" stroke="midnightblue" points="318.32,-38.57 328.88,-39.45 321.18,-32.17 318.32,-38.57"/>
</g>
</g>
</svg>
