<?xml version="1.0" encoding="UTF-8" standalone="no"?>
<!DOCTYPE svg PUBLIC "-//W3C//DTD SVG 1.1//EN"
 "http://www.w3.org/Graphics/SVG/1.1/DTD/svg11.dtd">
<!-- Generated by graphviz version 2.46.0 (0)
 -->
<!-- Title: scsr_permute Pages: 1 -->
<svg width="366pt" height="218pt"
 viewBox="0.00 0.00 366.00 218.00" xmlns="http://www.w3.org/2000/svg" xmlns:xlink="http://www.w3.org/1999/xlink">
<g id="graph0" class="graph" transform="scale(1 1) rotate(0) translate(4 214)">
<title>scsr_permute</title>
<polygon fill="white" stroke="transparent" points="-4,4 -4,-214 362,-214 362,4 -4,4"/>
<!-- Node1 -->
<g id="node1" class="node">
<title>Node1</title>
<g id="a_node1"><a xlink:title=" ">
<polygon fill="#bfbfbf" stroke="black" points="0,-95.5 0,-114.5 76,-114.5 76,-95.5 0,-95.5"/>
<text text-anchor="middle" x="38" y="-102.5" font-family="Helvetica,sans-Serif" font-size="10.00">scsr_permute</text>
</a>
</g>
</g>
<!-- Node2 -->
<g id="node2" class="node">
<title>Node2</title>
<g id="a_node2"><a xlink:href="byte_8c.html#a2da8eeb074dfd3ffbfb3e9a4d301cda4" target="_top" xlink:title=" ">
<polygon fill="white" stroke="black" points="122.5,-190.5 122.5,-209.5 157.5,-209.5 157.5,-190.5 122.5,-190.5"/>
<text text-anchor="middle" x="140" y="-197.5" font-family="Helvetica,sans-Serif" font-size="10.00">exitt</text>
</a>
</g>
</g>
<!-- Node1&#45;&gt;Node2 -->
<g id="edge1" class="edge">
<title>Node1&#45;&gt;Node2</title>
<path fill="none" stroke="midnightblue" d="M47.23,-114.7C60.21,-129.73 86.6,-159.19 112,-181 113.32,-182.13 114.7,-183.26 116.11,-184.37"/>
<polygon fill="midnightblue" stroke="midnightblue" points="114.2,-187.31 124.32,-190.44 118.36,-181.68 114.2,-187.31"/>
</g>
<!-- Node5 -->
<g id="node5" class="node">
<title>Node5</title>
<g id="a_node5"><a xlink:href="math_8f.html#a1e85d2406444243269f0d85c61a02dce" target="_top" xlink:title=" ">
<polygon fill="white" stroke="black" points="120,-152.5 120,-171.5 160,-171.5 160,-152.5 120,-152.5"/>
<text text-anchor="middle" x="140" y="-159.5" font-family="Helvetica,sans-Serif" font-size="10.00">icopy</text>
</a>
</g>
</g>
<!-- Node1&#45;&gt;Node5 -->
<g id="edge4" class="edge">
<title>Node1&#45;&gt;Node5</title>
<path fill="none" stroke="midnightblue" d="M55.96,-114.67C71.72,-123.65 95.39,-137.14 113.44,-147.43"/>
<polygon fill="midnightblue" stroke="midnightblue" points="111.87,-150.56 122.29,-152.47 115.33,-144.48 111.87,-150.56"/>
</g>
<!-- Node6 -->
<g id="node6" class="node">
<title>Node6</title>
<g id="a_node6"><a xlink:href="math_8f.html#a2add00098b77e54191b10eb6711193f6" target="_top" xlink:title=" ">
<polygon fill="white" stroke="black" points="122.5,-114.5 122.5,-133.5 157.5,-133.5 157.5,-114.5 122.5,-114.5"/>
<text text-anchor="middle" x="140" y="-121.5" font-family="Helvetica,sans-Serif" font-size="10.00">isort</text>
</a>
</g>
</g>
<!-- Node1&#45;&gt;Node6 -->
<g id="edge5" class="edge">
<title>Node1&#45;&gt;Node6</title>
<path fill="none" stroke="midnightblue" d="M76.24,-112.07C88.27,-114.36 101.36,-116.85 112.46,-118.96"/>
<polygon fill="midnightblue" stroke="midnightblue" points="111.91,-122.42 122.39,-120.84 113.22,-115.54 111.91,-122.42"/>
</g>
<!-- Node7 -->
<g id="node7" class="node">
<title>Node7</title>
<g id="a_node7"><a xlink:href="math_8f.html#a943dc1fc319c98267fac3af1e8010e9a" target="_top" xlink:title=" ">
<polygon fill="white" stroke="black" points="121,-76.5 121,-95.5 159,-95.5 159,-76.5 121,-76.5"/>
<text text-anchor="middle" x="140" y="-83.5" font-family="Helvetica,sans-Serif" font-size="10.00">izero</text>
</a>
</g>
</g>
<!-- Node1&#45;&gt;Node7 -->
<g id="edge6" class="edge">
<title>Node1&#45;&gt;Node7</title>
<path fill="none" stroke="midnightblue" d="M76.24,-97.93C87.65,-95.76 100.01,-93.41 110.72,-91.37"/>
<polygon fill="midnightblue" stroke="midnightblue" points="111.61,-94.77 120.79,-89.46 110.31,-87.89 111.61,-94.77"/>
</g>
<!-- Node8 -->
<g id="node8" class="node">
<title>Node8</title>
<g id="a_node8"><a xlink:href="navier7_8f.html#aa9d5cfdec7571438bbdc0ee794956de2" target="_top" xlink:title=" ">
<polygon fill="white" stroke="black" points="112,-38.5 112,-57.5 168,-57.5 168,-38.5 112,-38.5"/>
<text text-anchor="middle" x="140" y="-45.5" font-family="Helvetica,sans-Serif" font-size="10.00">mbw_csr</text>
</a>
</g>
</g>
<!-- Node1&#45;&gt;Node8 -->
<g id="edge7" class="edge">
<title>Node1&#45;&gt;Node8</title>
<path fill="none" stroke="midnightblue" d="M55.96,-95.33C71.72,-86.35 95.39,-72.86 113.44,-62.57"/>
<polygon fill="midnightblue" stroke="midnightblue" points="115.33,-65.52 122.29,-57.53 111.87,-59.44 115.33,-65.52"/>
</g>
<!-- Node9 -->
<g id="node9" class="node">
<title>Node9</title>
<g id="a_node9"><a xlink:href="navier7_8f.html#ae5853d8199b3ec1ff454795153efde35" target="_top" xlink:title=" ">
<polygon fill="white" stroke="black" points="120,-0.5 120,-19.5 160,-19.5 160,-0.5 120,-0.5"/>
<text text-anchor="middle" x="140" y="-7.5" font-family="Helvetica,sans-Serif" font-size="10.00">swap</text>
</a>
</g>
</g>
<!-- Node1&#45;&gt;Node9 -->
<g id="edge8" class="edge">
<title>Node1&#45;&gt;Node9</title>
<path fill="none" stroke="midnightblue" d="M47.23,-95.3C60.21,-80.27 86.6,-50.81 112,-29 113.32,-27.87 114.7,-26.74 116.11,-25.63"/>
<polygon fill="midnightblue" stroke="midnightblue" points="118.36,-28.32 124.32,-19.56 114.2,-22.69 118.36,-28.32"/>
</g>
<!-- Node3 -->
<g id="node3" class="node">
<title>Node3</title>
<g id="a_node3"><a xlink:href="comm__mpi_8f.html#acc8803a3787828530843112e0c48941b" target="_top" xlink:title=" ">
<polygon fill="white" stroke="black" points="204,-190.5 204,-209.5 254,-209.5 254,-190.5 204,-190.5"/>
<text text-anchor="middle" x="229" y="-197.5" font-family="Helvetica,sans-Serif" font-size="10.00">nek_die</text>
</a>
</g>
</g>
<!-- Node2&#45;&gt;Node3 -->
<g id="edge2" class="edge">
<title>Node2&#45;&gt;Node3</title>
<path fill="none" stroke="midnightblue" d="M157.77,-200C167.96,-200 181.33,-200 193.68,-200"/>
<polygon fill="midnightblue" stroke="midnightblue" points="193.71,-203.5 203.71,-200 193.71,-196.5 193.71,-203.5"/>
</g>
<!-- Node4 -->
<g id="node4" class="node">
<title>Node4</title>
<g id="a_node4"><a xlink:href="mpi__dummy_8f.html#a55e9a1619aadb638b14211ce21d7d566" target="_top" xlink:title=" ">
<polygon fill="white" stroke="black" points="290,-190.5 290,-209.5 358,-209.5 358,-190.5 290,-190.5"/>
<text text-anchor="middle" x="324" y="-197.5" font-family="Helvetica,sans-Serif" font-size="10.00">mpi_finalize</text>
</a>
</g>
</g>
<!-- Node3&#45;&gt;Node4 -->
<g id="edge3" class="edge">
<title>Node3&#45;&gt;Node4</title>
<path fill="none" stroke="midnightblue" d="M254.43,-200C262.25,-200 271.14,-200 279.88,-200"/>
<polygon fill="midnightblue" stroke="midnightblue" points="279.99,-203.5 289.99,-200 279.99,-196.5 279.99,-203.5"/>
</g>
</g>
</svg>
