<?xml version="1.0" encoding="UTF-8" standalone="no"?>
<!DOCTYPE svg PUBLIC "-//W3C//DTD SVG 1.1//EN"
 "http://www.w3.org/Graphics/SVG/1.1/DTD/svg11.dtd">
<!-- Generated by graphviz version 2.46.0 (0)
 -->
<!-- Title: crespuz Pages: 1 -->
<svg width="238pt" height="256pt"
 viewBox="0.00 0.00 238.00 256.00" xmlns="http://www.w3.org/2000/svg" xmlns:xlink="http://www.w3.org/1999/xlink">
<g id="graph0" class="graph" transform="scale(1 1) rotate(0) translate(4 252)">
<title>crespuz</title>
<polygon fill="white" stroke="transparent" points="-4,4 -4,-252 234,-252 234,4 -4,4"/>
<!-- Node1 -->
<g id="node1" class="node">
<title>Node1</title>
<g id="a_node1"><a xlink:title=" ">
<polygon fill="#bfbfbf" stroke="black" points="0,-95.5 0,-114.5 51,-114.5 51,-95.5 0,-95.5"/>
<text text-anchor="middle" x="25.5" y="-102.5" font-family="Helvetica,sans-Serif" font-size="10.00">crespuz</text>
</a>
</g>
</g>
<!-- Node2 -->
<g id="node2" class="node">
<title>Node2</title>
<g id="a_node2"><a xlink:href="navier1_8f.html#a26bf4c04b3185d32f4eadedbc8a10043" target="_top" xlink:title=" ">
<polygon fill="white" stroke="black" points="87,-190.5 87,-209.5 143,-209.5 143,-190.5 87,-190.5"/>
<text text-anchor="middle" x="115" y="-197.5" font-family="Helvetica,sans-Serif" font-size="10.00">opamask</text>
</a>
</g>
</g>
<!-- Node1&#45;&gt;Node2 -->
<g id="edge1" class="edge">
<title>Node1&#45;&gt;Node2</title>
<path fill="none" stroke="midnightblue" d="M32.81,-114.6C43.04,-129.77 64.42,-159.72 87,-181 88.12,-182.06 89.3,-183.1 90.52,-184.12"/>
<polygon fill="midnightblue" stroke="midnightblue" points="88.77,-187.18 98.84,-190.46 93.01,-181.62 88.77,-187.18"/>
</g>
<!-- Node20 -->
<g id="node5" class="node">
<title>Node20</title>
<g id="a_node5"><a xlink:href="navier1_8f.html#a4d7a006ce8ef086e842bc09f74169951" target="_top" xlink:title=" ">
<polygon fill="white" stroke="red" points="92.5,-152.5 92.5,-171.5 137.5,-171.5 137.5,-152.5 92.5,-152.5"/>
<text text-anchor="middle" x="115" y="-159.5" font-family="Helvetica,sans-Serif" font-size="10.00">opbinv</text>
</a>
</g>
</g>
<!-- Node1&#45;&gt;Node20 -->
<g id="edge4" class="edge">
<title>Node1&#45;&gt;Node20</title>
<path fill="none" stroke="midnightblue" d="M41.34,-114.67C54.88,-123.48 75.09,-136.65 90.76,-146.86"/>
<polygon fill="midnightblue" stroke="midnightblue" points="89.09,-149.95 99.38,-152.47 92.91,-144.08 89.09,-149.95"/>
</g>
<!-- Node30 -->
<g id="node7" class="node">
<title>Node30</title>
<g id="a_node7"><a xlink:href="navier1_8f.html#a58af49abaf1ee0cc07be356ad2721d90" target="_top" xlink:title=" ">
<polygon fill="white" stroke="red" points="95,-114.5 95,-133.5 135,-133.5 135,-114.5 95,-114.5"/>
<text text-anchor="middle" x="115" y="-121.5" font-family="Helvetica,sans-Serif" font-size="10.00">opdiv</text>
</a>
</g>
</g>
<!-- Node1&#45;&gt;Node30 -->
<g id="edge6" class="edge">
<title>Node1&#45;&gt;Node30</title>
<path fill="none" stroke="midnightblue" d="M51.34,-110.39C61.83,-112.67 74.12,-115.34 85.02,-117.71"/>
<polygon fill="midnightblue" stroke="midnightblue" points="84.43,-121.16 94.94,-119.86 85.91,-114.32 84.43,-121.16"/>
</g>
<!-- Node37 -->
<g id="node8" class="node">
<title>Node37</title>
<g id="a_node8"><a xlink:href="induct_8f.html#a1a8a16f24236d6e6f08fe4d60cb29d01" target="_top" xlink:title=" ">
<polygon fill="white" stroke="red" points="92.5,-76.5 92.5,-95.5 137.5,-95.5 137.5,-76.5 92.5,-76.5"/>
<text text-anchor="middle" x="115" y="-83.5" font-family="Helvetica,sans-Serif" font-size="10.00">ophinv</text>
</a>
</g>
</g>
<!-- Node1&#45;&gt;Node37 -->
<g id="edge7" class="edge">
<title>Node1&#45;&gt;Node37</title>
<path fill="none" stroke="midnightblue" d="M51.34,-99.61C61.04,-97.5 72.28,-95.06 82.53,-92.83"/>
<polygon fill="midnightblue" stroke="midnightblue" points="83.34,-96.24 92.37,-90.7 81.86,-89.4 83.34,-96.24"/>
</g>
<!-- Node371 -->
<g id="node9" class="node">
<title>Node371</title>
<g id="a_node9"><a xlink:href="navier1_8f.html#aef701b732efb20e0f339a59118652b86" target="_top" xlink:title=" ">
<polygon fill="white" stroke="red" points="91,-38.5 91,-57.5 139,-57.5 139,-38.5 91,-38.5"/>
<text text-anchor="middle" x="115" y="-45.5" font-family="Helvetica,sans-Serif" font-size="10.00">opsub2</text>
</a>
</g>
</g>
<!-- Node1&#45;&gt;Node371 -->
<g id="edge8" class="edge">
<title>Node1&#45;&gt;Node371</title>
<path fill="none" stroke="midnightblue" d="M41.34,-95.33C54.88,-86.52 75.09,-73.35 90.76,-63.14"/>
<polygon fill="midnightblue" stroke="midnightblue" points="92.91,-65.92 99.38,-57.53 89.09,-60.05 92.91,-65.92"/>
</g>
<!-- Node320 -->
<g id="node10" class="node">
<title>Node320</title>
<g id="a_node10"><a xlink:href="navier1_8f.html#a4905d51f51b57bfec184a6b44f858bdb" target="_top" xlink:title=" ">
<polygon fill="white" stroke="red" points="96,-0.5 96,-19.5 134,-19.5 134,-0.5 96,-0.5"/>
<text text-anchor="middle" x="115" y="-7.5" font-family="Helvetica,sans-Serif" font-size="10.00">ortho</text>
</a>
</g>
</g>
<!-- Node1&#45;&gt;Node320 -->
<g id="edge9" class="edge">
<title>Node1&#45;&gt;Node320</title>
<path fill="none" stroke="midnightblue" d="M32.81,-95.4C43.04,-80.23 64.42,-50.28 87,-29 88.12,-27.94 89.3,-26.9 90.52,-25.88"/>
<polygon fill="midnightblue" stroke="midnightblue" points="93.01,-28.38 98.84,-19.54 88.77,-22.82 93.01,-28.38"/>
</g>
<!-- Node3 -->
<g id="node3" class="node">
<title>Node3</title>
<g id="a_node3"><a xlink:href="subs2_8f.html#a02fee4f93841d69fae613b4ca25be81b" target="_top" xlink:title=" ">
<polygon fill="white" stroke="red" points="181.5,-228.5 181.5,-247.5 227.5,-247.5 227.5,-228.5 181.5,-228.5"/>
<text text-anchor="middle" x="204.5" y="-235.5" font-family="Helvetica,sans-Serif" font-size="10.00">amask</text>
</a>
</g>
</g>
<!-- Node2&#45;&gt;Node3 -->
<g id="edge2" class="edge">
<title>Node2&#45;&gt;Node3</title>
<path fill="none" stroke="midnightblue" d="M138.08,-209.59C148.34,-214.04 160.73,-219.42 171.95,-224.3"/>
<polygon fill="midnightblue" stroke="midnightblue" points="170.86,-227.64 181.43,-228.41 173.65,-221.22 170.86,-227.64"/>
</g>
<!-- Node19 -->
<g id="node4" class="node">
<title>Node19</title>
<g id="a_node4"><a xlink:href="navier1_8f.html#aa747da92305aebf6cb087f473bce2ba0" target="_top" xlink:title=" ">
<polygon fill="white" stroke="black" points="179,-190.5 179,-209.5 230,-209.5 230,-190.5 179,-190.5"/>
<text text-anchor="middle" x="204.5" y="-197.5" font-family="Helvetica,sans-Serif" font-size="10.00">antimsk</text>
</a>
</g>
</g>
<!-- Node2&#45;&gt;Node19 -->
<g id="edge3" class="edge">
<title>Node2&#45;&gt;Node19</title>
<path fill="none" stroke="midnightblue" d="M143.21,-200C151.34,-200 160.36,-200 168.9,-200"/>
<polygon fill="midnightblue" stroke="midnightblue" points="168.98,-203.5 178.98,-200 168.98,-196.5 168.98,-203.5"/>
</g>
<!-- Node21 -->
<g id="node6" class="node">
<title>Node21</title>
<g id="a_node6"><a xlink:href="dssum_8f.html#ad67373714b1c3bafed536081167e2cd6" target="_top" xlink:title=" ">
<polygon fill="white" stroke="red" points="181.5,-152.5 181.5,-171.5 227.5,-171.5 227.5,-152.5 181.5,-152.5"/>
<text text-anchor="middle" x="204.5" y="-159.5" font-family="Helvetica,sans-Serif" font-size="10.00">dssum</text>
</a>
</g>
</g>
<!-- Node20&#45;&gt;Node21 -->
<g id="edge5" class="edge">
<title>Node20&#45;&gt;Node21</title>
<path fill="none" stroke="midnightblue" d="M137.63,-162C147.68,-162 159.84,-162 170.96,-162"/>
<polygon fill="midnightblue" stroke="midnightblue" points="171.21,-165.5 181.21,-162 171.21,-158.5 171.21,-165.5"/>
</g>
</g>
</svg>
