<?xml version="1.0" encoding="UTF-8" standalone="no"?>
<!DOCTYPE svg PUBLIC "-//W3C//DTD SVG 1.1//EN"
 "http://www.w3.org/Graphics/SVG/1.1/DTD/svg11.dtd">
<!-- Generated by graphviz version 2.46.0 (0)
 -->
<!-- Title: hypot Pages: 1 -->
<svg width="618pt" height="123pt"
 viewBox="0.00 0.00 618.00 123.00" xmlns="http://www.w3.org/2000/svg" xmlns:xlink="http://www.w3.org/1999/xlink">
<g id="graph0" class="graph" transform="scale(1 1) rotate(0) translate(4 119)">
<title>hypot</title>
<polygon fill="white" stroke="transparent" points="-4,4 -4,-119 614,-119 614,4 -4,4"/>
<!-- Node1 -->
<g id="node1" class="node">
<title>Node1</title>
<g id="a_node1"><a xlink:title=" ">
<polygon fill="#bfbfbf" stroke="black" points="569,-38.5 569,-57.5 610,-57.5 610,-38.5 569,-38.5"/>
<text text-anchor="middle" x="589.5" y="-45.5" font-family="Helvetica,sans-Serif" font-size="10.00">hypot</text>
</a>
</g>
</g>
<!-- Node2 -->
<g id="node2" class="node">
<title>Node2</title>
<g id="a_node2"><a xlink:href="navier4_8f.html#a175a74fde36ad061edc2ea92146a9ed3" target="_top" xlink:title=" ">
<polygon fill="white" stroke="black" points="450,-38.5 450,-57.5 533,-57.5 533,-38.5 450,-38.5"/>
<text text-anchor="middle" x="491.5" y="-45.5" font-family="Helvetica,sans-Serif" font-size="10.00">givens_rotation</text>
</a>
</g>
</g>
<!-- Node1&#45;&gt;Node2 -->
<g id="edge1" class="edge">
<title>Node1&#45;&gt;Node2</title>
<path fill="none" stroke="midnightblue" d="M558.36,-48C550.43,-48 541.74,-48 533.35,-48"/>
<polygon fill="midnightblue" stroke="midnightblue" points="558.61,-51.5 568.61,-48 558.61,-44.5 558.61,-51.5"/>
</g>
<!-- Node3 -->
<g id="node3" class="node">
<title>Node3</title>
<g id="a_node3"><a xlink:href="navier4_8f.html#a699a84f6ca5347a86adf5f41889d1d82" target="_top" xlink:title=" ">
<polygon fill="white" stroke="black" points="355,-38.5 355,-57.5 414,-57.5 414,-38.5 355,-38.5"/>
<text text-anchor="middle" x="384.5" y="-45.5" font-family="Helvetica,sans-Serif" font-size="10.00">proj_ortho</text>
</a>
</g>
</g>
<!-- Node2&#45;&gt;Node3 -->
<g id="edge2" class="edge">
<title>Node2&#45;&gt;Node3</title>
<path fill="none" stroke="midnightblue" d="M439.73,-48C430.98,-48 422.18,-48 414.28,-48"/>
<polygon fill="midnightblue" stroke="midnightblue" points="439.9,-51.5 449.9,-48 439.9,-44.5 439.9,-51.5"/>
</g>
<!-- Node4 -->
<g id="node4" class="node">
<title>Node4</title>
<g id="a_node4"><a xlink:href="navier4_8f.html#ab39fd511a29c7e9726338ba7d82d72d8" target="_top" xlink:title=" ">
<polygon fill="white" stroke="black" points="257,-38.5 257,-57.5 319,-57.5 319,-38.5 257,-38.5"/>
<text text-anchor="middle" x="288" y="-45.5" font-family="Helvetica,sans-Serif" font-size="10.00">project2_a</text>
</a>
</g>
</g>
<!-- Node3&#45;&gt;Node4 -->
<g id="edge3" class="edge">
<title>Node3&#45;&gt;Node4</title>
<path fill="none" stroke="midnightblue" d="M344.75,-48C336.21,-48 327.29,-48 319.15,-48"/>
<polygon fill="midnightblue" stroke="midnightblue" points="344.89,-51.5 354.89,-48 344.89,-44.5 344.89,-51.5"/>
</g>
<!-- Node5 -->
<g id="node5" class="node">
<title>Node5</title>
<g id="a_node5"><a xlink:href="navier4_8f.html#ac1700cca28238294c52879cb29424911" target="_top" xlink:title=" ">
<polygon fill="white" stroke="black" points="170,-38.5 170,-57.5 221,-57.5 221,-38.5 170,-38.5"/>
<text text-anchor="middle" x="195.5" y="-45.5" font-family="Helvetica,sans-Serif" font-size="10.00">project2</text>
</a>
</g>
</g>
<!-- Node4&#45;&gt;Node5 -->
<g id="edge4" class="edge">
<title>Node4&#45;&gt;Node5</title>
<path fill="none" stroke="midnightblue" d="M246.78,-48C238.03,-48 229.02,-48 221.09,-48"/>
<polygon fill="midnightblue" stroke="midnightblue" points="246.86,-51.5 256.86,-48 246.86,-44.5 246.86,-51.5"/>
</g>
<!-- Node6 -->
<g id="node6" class="node">
<title>Node6</title>
<g id="a_node6"><a xlink:href="navier4_8f.html#a2c8eef885087bb1ef49c29a936b96918" target="_top" xlink:title=" ">
<polygon fill="white" stroke="red" points="85,-76.5 85,-95.5 130,-95.5 130,-76.5 85,-76.5"/>
<text text-anchor="middle" x="107.5" y="-83.5" font-family="Helvetica,sans-Serif" font-size="10.00">hsolve</text>
</a>
</g>
</g>
<!-- Node5&#45;&gt;Node6 -->
<g id="edge5" class="edge">
<title>Node5&#45;&gt;Node6</title>
<path fill="none" stroke="midnightblue" d="M163.48,-61.71C152.45,-66.58 140.28,-71.96 130.19,-76.41"/>
<polygon fill="midnightblue" stroke="midnightblue" points="165.07,-64.83 172.8,-57.59 162.24,-58.43 165.07,-64.83"/>
</g>
<!-- Node62 -->
<g id="node9" class="node">
<title>Node62</title>
<g id="a_node9"><a xlink:href="meshsmoother_8f.html#a715c42ef301242c75f9ff6cbafe8b538" target="_top" xlink:title=" ">
<polygon fill="white" stroke="red" points="81,-38.5 81,-57.5 134,-57.5 134,-38.5 81,-38.5"/>
<text text-anchor="middle" x="107.5" y="-45.5" font-family="Helvetica,sans-Serif" font-size="10.00">laplaceh</text>
</a>
</g>
</g>
<!-- Node5&#45;&gt;Node62 -->
<g id="edge8" class="edge">
<title>Node5&#45;&gt;Node62</title>
<path fill="none" stroke="midnightblue" d="M159.59,-48C151.1,-48 142.18,-48 134.22,-48"/>
<polygon fill="midnightblue" stroke="midnightblue" points="159.63,-51.5 169.63,-48 159.63,-44.5 159.63,-51.5"/>
</g>
<!-- Node66 -->
<g id="node10" class="node">
<title>Node66</title>
<g id="a_node10"><a xlink:href="navier4_8f.html#a33e8c6704782f68ea31e02c93acbe495" target="_top" xlink:title=" ">
<polygon fill="white" stroke="black" points="81,-0.5 81,-19.5 134,-19.5 134,-0.5 81,-0.5"/>
<text text-anchor="middle" x="107.5" y="-7.5" font-family="Helvetica,sans-Serif" font-size="10.00">laplacep</text>
</a>
</g>
</g>
<!-- Node5&#45;&gt;Node66 -->
<g id="edge9" class="edge">
<title>Node5&#45;&gt;Node66</title>
<path fill="none" stroke="midnightblue" d="M163.48,-34.29C152.45,-29.42 140.28,-24.04 130.19,-19.59"/>
<polygon fill="midnightblue" stroke="midnightblue" points="162.24,-37.57 172.8,-38.41 165.07,-31.17 162.24,-37.57"/>
</g>
<!-- Node7 -->
<g id="node7" class="node">
<title>Node7</title>
<g id="a_node7"><a xlink:href="conduct_8f.html#a74a7f053381975ed36df8ea959f3aa01" target="_top" xlink:title=" ">
<polygon fill="white" stroke="red" points="0,-95.5 0,-114.5 45,-114.5 45,-95.5 0,-95.5"/>
<text text-anchor="middle" x="22.5" y="-102.5" font-family="Helvetica,sans-Serif" font-size="10.00">cdscal</text>
</a>
</g>
</g>
<!-- Node6&#45;&gt;Node7 -->
<g id="edge6" class="edge">
<title>Node6&#45;&gt;Node7</title>
<path fill="none" stroke="midnightblue" d="M74.77,-93.26C64.88,-95.53 54.2,-97.97 45.16,-100.04"/>
<polygon fill="midnightblue" stroke="midnightblue" points="75.73,-96.64 84.69,-90.99 74.16,-89.81 75.73,-96.64"/>
</g>
<!-- Node20 -->
<g id="node8" class="node">
<title>Node20</title>
<g id="a_node8"><a xlink:href="induct_8f.html#a1a8a16f24236d6e6f08fe4d60cb29d01" target="_top" xlink:title=" ">
<polygon fill="white" stroke="red" points="0,-57.5 0,-76.5 45,-76.5 45,-57.5 0,-57.5"/>
<text text-anchor="middle" x="22.5" y="-64.5" font-family="Helvetica,sans-Serif" font-size="10.00">ophinv</text>
</a>
</g>
</g>
<!-- Node6&#45;&gt;Node20 -->
<g id="edge7" class="edge">
<title>Node6&#45;&gt;Node20</title>
<path fill="none" stroke="midnightblue" d="M74.77,-78.74C64.88,-76.47 54.2,-74.03 45.16,-71.96"/>
<polygon fill="midnightblue" stroke="midnightblue" points="74.16,-82.19 84.69,-81.01 75.73,-75.36 74.16,-82.19"/>
</g>
</g>
</svg>
