<?xml version="1.0" encoding="UTF-8" standalone="no"?>
<!DOCTYPE svg PUBLIC "-//W3C//DTD SVG 1.1//EN"
 "http://www.w3.org/Graphics/SVG/1.1/DTD/svg11.dtd">
<!-- Generated by graphviz version 2.46.0 (0)
 -->
<!-- Title: chkptol Pages: 1 -->
<svg width="480pt" height="180pt"
 viewBox="0.00 0.00 480.00 180.00" xmlns="http://www.w3.org/2000/svg" xmlns:xlink="http://www.w3.org/1999/xlink">
<g id="graph0" class="graph" transform="scale(1 1) rotate(0) translate(4 176)">
<title>chkptol</title>
<polygon fill="white" stroke="transparent" points="-4,4 -4,-176 476,-176 476,4 -4,4"/>
<!-- Node1 -->
<g id="node1" class="node">
<title>Node1</title>
<g id="a_node1"><a xlink:title=" ">
<polygon fill="#bfbfbf" stroke="black" points="0,-76.5 0,-95.5 48,-95.5 48,-76.5 0,-76.5"/>
<text text-anchor="middle" x="24" y="-83.5" font-family="Helvetica,sans-Serif" font-size="10.00">chkptol</text>
</a>
</g>
</g>
<!-- Node2 -->
<g id="node2" class="node">
<title>Node2</title>
<g id="a_node2"><a xlink:href="math_8f.html#a0d9af374781723c272547a185cb3da5e" target="_top" xlink:title=" ">
<polygon fill="white" stroke="black" points="238.5,-152.5 238.5,-171.5 273.5,-171.5 273.5,-152.5 238.5,-152.5"/>
<text text-anchor="middle" x="256" y="-159.5" font-family="Helvetica,sans-Serif" font-size="10.00">col3</text>
</a>
</g>
</g>
<!-- Node1&#45;&gt;Node2 -->
<g id="edge1" class="edge">
<title>Node1&#45;&gt;Node2</title>
<path fill="none" stroke="midnightblue" d="M48.32,-93.71C91.44,-107.95 183.37,-138.33 228.66,-153.3"/>
<polygon fill="midnightblue" stroke="midnightblue" points="227.76,-156.68 238.35,-156.5 229.96,-150.04 227.76,-156.68"/>
</g>
<!-- Node5 -->
<g id="node5" class="node">
<title>Node5</title>
<g id="a_node5"><a xlink:href="math_8f.html#a255eb2b5e6ee8be11915d2c3b5b5bf74" target="_top" xlink:title=" ">
<polygon fill="white" stroke="black" points="84,-19.5 84,-38.5 124,-38.5 124,-19.5 84,-19.5"/>
<text text-anchor="middle" x="104" y="-26.5" font-family="Helvetica,sans-Serif" font-size="10.00">glsc2</text>
</a>
</g>
</g>
<!-- Node1&#45;&gt;Node5 -->
<g id="edge4" class="edge">
<title>Node1&#45;&gt;Node5</title>
<path fill="none" stroke="midnightblue" d="M38.23,-76.33C50.18,-67.6 67.97,-54.6 81.89,-44.43"/>
<polygon fill="midnightblue" stroke="midnightblue" points="83.95,-47.25 89.96,-38.53 79.82,-41.6 83.95,-47.25"/>
</g>
<!-- Node8 -->
<g id="node7" class="node">
<title>Node8</title>
<g id="a_node7"><a xlink:href="navier1_8f.html#a58af49abaf1ee0cc07be356ad2721d90" target="_top" xlink:title=" ">
<polygon fill="white" stroke="black" points="84,-76.5 84,-95.5 124,-95.5 124,-76.5 84,-76.5"/>
<text text-anchor="middle" x="104" y="-83.5" font-family="Helvetica,sans-Serif" font-size="10.00">opdiv</text>
</a>
</g>
</g>
<!-- Node1&#45;&gt;Node8 -->
<g id="edge6" class="edge">
<title>Node1&#45;&gt;Node8</title>
<path fill="none" stroke="midnightblue" d="M48.4,-86C56.35,-86 65.34,-86 73.69,-86"/>
<polygon fill="midnightblue" stroke="midnightblue" points="73.81,-89.5 83.81,-86 73.81,-82.5 73.81,-89.5"/>
</g>
<!-- Node3 -->
<g id="node3" class="node">
<title>Node3</title>
<g id="a_node3"><a xlink:href="comm__mpi_8f.html#af06ec29f06aac3f8809e19de2a7e8946" target="_top" xlink:title=" ">
<polygon fill="white" stroke="black" points="311,-114.5 311,-133.5 372,-133.5 372,-114.5 311,-114.5"/>
<text text-anchor="middle" x="341.5" y="-121.5" font-family="Helvetica,sans-Serif" font-size="10.00">dnekclock</text>
</a>
</g>
</g>
<!-- Node2&#45;&gt;Node3 -->
<g id="edge2" class="edge">
<title>Node2&#45;&gt;Node3</title>
<path fill="none" stroke="midnightblue" d="M273.9,-154.31C284.28,-149.59 297.88,-143.4 310.08,-137.84"/>
<polygon fill="midnightblue" stroke="midnightblue" points="311.82,-140.9 319.48,-133.57 308.93,-134.52 311.82,-140.9"/>
</g>
<!-- Node4 -->
<g id="node4" class="node">
<title>Node4</title>
<g id="a_node4"><a xlink:href="mpi__dummy_8f.html#ae6a5ef945f87c2c27849696b70f3af2a" target="_top" xlink:title=" ">
<polygon fill="white" stroke="black" points="408,-114.5 408,-133.5 472,-133.5 472,-114.5 408,-114.5"/>
<text text-anchor="middle" x="440" y="-121.5" font-family="Helvetica,sans-Serif" font-size="10.00">mpi_wtime</text>
</a>
</g>
</g>
<!-- Node3&#45;&gt;Node4 -->
<g id="edge3" class="edge">
<title>Node3&#45;&gt;Node4</title>
<path fill="none" stroke="midnightblue" d="M372.24,-124C380.27,-124 389.11,-124 397.65,-124"/>
<polygon fill="midnightblue" stroke="midnightblue" points="397.85,-127.5 407.85,-124 397.85,-120.5 397.85,-127.5"/>
</g>
<!-- Node6 -->
<g id="node6" class="node">
<title>Node6</title>
<g id="a_node6"><a xlink:href="gs__test__gop__blocking_8c.html#ab2e24f9857f6d1ded7e4d556c6bc5e49" target="_top" xlink:title=" ">
<polygon fill="white" stroke="red" points="164.5,-0.5 164.5,-19.5 196.5,-19.5 196.5,-0.5 164.5,-0.5"/>
<text text-anchor="middle" x="180.5" y="-7.5" font-family="Helvetica,sans-Serif" font-size="10.00">gop</text>
</a>
</g>
</g>
<!-- Node5&#45;&gt;Node6 -->
<g id="edge5" class="edge">
<title>Node5&#45;&gt;Node6</title>
<path fill="none" stroke="midnightblue" d="M124.19,-24.11C133.4,-21.76 144.56,-18.91 154.44,-16.39"/>
<polygon fill="midnightblue" stroke="midnightblue" points="155.31,-19.78 164.13,-13.92 153.58,-13 155.31,-19.78"/>
</g>
<!-- Node9 -->
<g id="node8" class="node">
<title>Node9</title>
<g id="a_node8"><a xlink:href="math_8f.html#a30b83d516b6ab162d3fafe73e03a3e92" target="_top" xlink:title=" ">
<polygon fill="white" stroke="black" points="237,-114.5 237,-133.5 275,-133.5 275,-114.5 237,-114.5"/>
<text text-anchor="middle" x="256" y="-121.5" font-family="Helvetica,sans-Serif" font-size="10.00">add2</text>
</a>
</g>
</g>
<!-- Node8&#45;&gt;Node9 -->
<g id="edge7" class="edge">
<title>Node8&#45;&gt;Node9</title>
<path fill="none" stroke="midnightblue" d="M124.15,-93.33C134.63,-97.16 147.91,-101.72 160,-105 182.22,-111.03 207.84,-116.04 226.87,-119.4"/>
<polygon fill="midnightblue" stroke="midnightblue" points="226.52,-122.9 236.97,-121.14 227.71,-116 226.52,-122.9"/>
</g>
<!-- Node10 -->
<g id="node9" class="node">
<title>Node10</title>
<g id="a_node9"><a xlink:href="math_8f.html#a3b43508554f14bdea8e14473d7d0803c" target="_top" xlink:title=" ">
<polygon fill="white" stroke="black" points="237,-38.5 237,-57.5 275,-57.5 275,-38.5 237,-38.5"/>
<text text-anchor="middle" x="256" y="-45.5" font-family="Helvetica,sans-Serif" font-size="10.00">copy</text>
</a>
</g>
</g>
<!-- Node8&#45;&gt;Node10 -->
<g id="edge9" class="edge">
<title>Node8&#45;&gt;Node10</title>
<path fill="none" stroke="midnightblue" d="M124.15,-78.67C134.63,-74.84 147.91,-70.28 160,-67 182.22,-60.97 207.84,-55.96 226.87,-52.6"/>
<polygon fill="midnightblue" stroke="midnightblue" points="227.71,-56 236.97,-50.86 226.52,-49.1 227.71,-56"/>
</g>
<!-- Node11 -->
<g id="node10" class="node">
<title>Node11</title>
<g id="a_node10"><a xlink:href="navier1_8f.html#ae2a342d8b6189bd500acbcc1cac1c757" target="_top" xlink:title=" ">
<polygon fill="white" stroke="red" points="160,-76.5 160,-95.5 201,-95.5 201,-76.5 160,-76.5"/>
<text text-anchor="middle" x="180.5" y="-83.5" font-family="Helvetica,sans-Serif" font-size="10.00">multd</text>
</a>
</g>
</g>
<!-- Node8&#45;&gt;Node11 -->
<g id="edge10" class="edge">
<title>Node8&#45;&gt;Node11</title>
<path fill="none" stroke="midnightblue" d="M124.19,-86C131.97,-86 141.15,-86 149.76,-86"/>
<polygon fill="midnightblue" stroke="midnightblue" points="149.86,-89.5 159.86,-86 149.86,-82.5 149.86,-89.5"/>
</g>
<!-- Node9&#45;&gt;Node3 -->
<g id="edge8" class="edge">
<title>Node9&#45;&gt;Node3</title>
<path fill="none" stroke="midnightblue" d="M275.12,-124C282.72,-124 291.87,-124 300.89,-124"/>
<polygon fill="midnightblue" stroke="midnightblue" points="300.93,-127.5 310.93,-124 300.93,-120.5 300.93,-127.5"/>
</g>
<!-- Node11&#45;&gt;Node2 -->
<g id="edge12" class="edge">
<title>Node11&#45;&gt;Node2</title>
<path fill="none" stroke="midnightblue" d="M190.81,-95.63C202.78,-108.01 223.79,-129.72 238.5,-144.94"/>
<polygon fill="midnightblue" stroke="midnightblue" points="236.07,-147.46 245.53,-152.21 241.1,-142.59 236.07,-147.46"/>
</g>
<!-- Node11&#45;&gt;Node3 -->
<g id="edge14" class="edge">
<title>Node11&#45;&gt;Node3</title>
<path fill="none" stroke="midnightblue" d="M201.3,-89.54C220.3,-93.05 249.75,-98.78 275,-105 283.51,-107.1 292.58,-109.57 301.17,-112.02"/>
<polygon fill="midnightblue" stroke="midnightblue" points="300.39,-115.44 310.97,-114.88 302.34,-108.72 300.39,-115.44"/>
</g>
<!-- Node11&#45;&gt;Node9 -->
<g id="edge11" class="edge">
<title>Node11&#45;&gt;Node9</title>
<path fill="none" stroke="midnightblue" d="M200.05,-95.59C208.53,-99.98 218.75,-105.26 228.06,-110.07"/>
<polygon fill="midnightblue" stroke="midnightblue" points="226.48,-113.19 236.97,-114.68 229.69,-106.98 226.48,-113.19"/>
</g>
<!-- Node11&#45;&gt;Node10 -->
<g id="edge13" class="edge">
<title>Node11&#45;&gt;Node10</title>
<path fill="none" stroke="midnightblue" d="M200.05,-76.41C208.53,-72.02 218.75,-66.74 228.06,-61.93"/>
<polygon fill="midnightblue" stroke="midnightblue" points="229.69,-65.02 236.97,-57.32 226.48,-58.81 229.69,-65.02"/>
</g>
</g>
</svg>
