<?xml version="1.0" encoding="UTF-8" standalone="no"?>
<!DOCTYPE svg PUBLIC "-//W3C//DTD SVG 1.1//EN"
 "http://www.w3.org/Graphics/SVG/1.1/DTD/svg11.dtd">
<!-- Generated by graphviz version 2.46.0 (0)
 -->
<!-- Title: expl_strs_e Pages: 1 -->
<svg width="402pt" height="180pt"
 viewBox="0.00 0.00 402.00 180.00" xmlns="http://www.w3.org/2000/svg" xmlns:xlink="http://www.w3.org/1999/xlink">
<g id="graph0" class="graph" transform="scale(1 1) rotate(0) translate(4 176)">
<title>expl_strs_e</title>
<polygon fill="white" stroke="transparent" points="-4,4 -4,-176 398,-176 398,4 -4,4"/>
<!-- Node1 -->
<g id="node1" class="node">
<title>Node1</title>
<g id="a_node1"><a xlink:title=" ">
<polygon fill="#bfbfbf" stroke="black" points="0,-76.5 0,-95.5 67,-95.5 67,-76.5 0,-76.5"/>
<text text-anchor="middle" x="33.5" y="-83.5" font-family="Helvetica,sans-Serif" font-size="10.00">expl_strs_e</text>
</a>
</g>
</g>
<!-- Node2 -->
<g id="node2" class="node">
<title>Node2</title>
<g id="a_node2"><a xlink:href="navier1_8f.html#aacfe29cc810b300b4d17287893d32bdd" target="_top" xlink:title=" ">
<polygon fill="white" stroke="black" points="103,-95.5 103,-114.5 186,-114.5 186,-95.5 103,-95.5"/>
<text text-anchor="middle" x="144.5" y="-102.5" font-family="Helvetica,sans-Serif" font-size="10.00">expl_strs_e_2d</text>
</a>
</g>
</g>
<!-- Node1&#45;&gt;Node2 -->
<g id="edge1" class="edge">
<title>Node1&#45;&gt;Node2</title>
<path fill="none" stroke="midnightblue" d="M67.2,-91.7C75.23,-93.1 84,-94.63 92.66,-96.14"/>
<polygon fill="midnightblue" stroke="midnightblue" points="92.25,-99.62 102.71,-97.89 93.46,-92.72 92.25,-99.62"/>
</g>
<!-- Node35 -->
<g id="node10" class="node">
<title>Node35</title>
<g id="a_node10"><a xlink:href="navier1_8f.html#aac43166944d00ed18c90907aec3422b4" target="_top" xlink:title=" ">
<polygon fill="white" stroke="black" points="103,-57.5 103,-76.5 186,-76.5 186,-57.5 103,-57.5"/>
<text text-anchor="middle" x="144.5" y="-64.5" font-family="Helvetica,sans-Serif" font-size="10.00">expl_strs_e_3d</text>
</a>
</g>
</g>
<!-- Node1&#45;&gt;Node35 -->
<g id="edge10" class="edge">
<title>Node1&#45;&gt;Node35</title>
<path fill="none" stroke="midnightblue" d="M67.2,-80.3C75.23,-78.9 84,-77.37 92.66,-75.86"/>
<polygon fill="midnightblue" stroke="midnightblue" points="93.46,-79.28 102.71,-74.11 92.25,-72.38 93.46,-79.28"/>
</g>
<!-- Node3 -->
<g id="node3" class="node">
<title>Node3</title>
<g id="a_node3"><a xlink:href="navier1_8f.html#a1147a11d5eb5389f0622e7c6d42ae62d" target="_top" xlink:title=" ">
<polygon fill="white" stroke="black" points="226,-57.5 226,-76.5 280,-76.5 280,-57.5 226,-57.5"/>
<text text-anchor="middle" x="253" y="-64.5" font-family="Helvetica,sans-Serif" font-size="10.00">gradl_rst</text>
</a>
</g>
</g>
<!-- Node2&#45;&gt;Node3 -->
<g id="edge2" class="edge">
<title>Node2&#45;&gt;Node3</title>
<path fill="none" stroke="midnightblue" d="M172.37,-95.41C185.69,-90.66 201.95,-84.86 216.3,-79.74"/>
<polygon fill="midnightblue" stroke="midnightblue" points="217.63,-82.98 225.87,-76.32 215.28,-76.39 217.63,-82.98"/>
</g>
<!-- Node29 -->
<g id="node7" class="node">
<title>Node29</title>
<g id="a_node7"><a xlink:href="navier1_8f.html#a568a9bc84b80e4f55791654b22bdbb8d" target="_top" xlink:title=" ">
<polygon fill="white" stroke="black" points="222,-95.5 222,-114.5 284,-114.5 284,-95.5 222,-95.5"/>
<text text-anchor="middle" x="253" y="-102.5" font-family="Helvetica,sans-Serif" font-size="10.00">gradl_rst_t</text>
</a>
</g>
</g>
<!-- Node2&#45;&gt;Node29 -->
<g id="edge6" class="edge">
<title>Node2&#45;&gt;Node29</title>
<path fill="none" stroke="midnightblue" d="M186.07,-105C194.42,-105 203.21,-105 211.55,-105"/>
<polygon fill="midnightblue" stroke="midnightblue" points="211.82,-108.5 221.82,-105 211.82,-101.5 211.82,-108.5"/>
</g>
<!-- Node4 -->
<g id="node4" class="node">
<title>Node4</title>
<g id="a_node4"><a xlink:href="navier1_8f.html#a2149a2185d9fe9a7d8da1353550cb307" target="_top" xlink:title=" ">
<polygon fill="white" stroke="red" points="323.5,-76.5 323.5,-95.5 390.5,-95.5 390.5,-76.5 323.5,-76.5"/>
<text text-anchor="middle" x="357" y="-83.5" font-family="Helvetica,sans-Serif" font-size="10.00">get_dgll_ptr</text>
</a>
</g>
</g>
<!-- Node3&#45;&gt;Node4 -->
<g id="edge3" class="edge">
<title>Node3&#45;&gt;Node4</title>
<path fill="none" stroke="midnightblue" d="M280,-71.84C290.13,-73.73 301.99,-75.94 313.3,-78.05"/>
<polygon fill="midnightblue" stroke="midnightblue" points="312.99,-81.55 323.46,-79.94 314.27,-74.67 312.99,-81.55"/>
</g>
<!-- Node27 -->
<g id="node5" class="node">
<title>Node27</title>
<g id="a_node5"><a xlink:href="navier5_8f.html#a53feb767cebebba399ab3c5a50f53155" target="_top" xlink:title=" ">
<polygon fill="white" stroke="black" points="324,-0.5 324,-19.5 390,-19.5 390,-0.5 324,-0.5"/>
<text text-anchor="middle" x="357" y="-7.5" font-family="Helvetica,sans-Serif" font-size="10.00">local_grad2</text>
</a>
</g>
</g>
<!-- Node3&#45;&gt;Node27 -->
<g id="edge4" class="edge">
<title>Node3&#45;&gt;Node27</title>
<path fill="none" stroke="midnightblue" d="M270.18,-57.46C283.48,-49.67 302.86,-38.45 320,-29 322.76,-27.48 325.65,-25.91 328.54,-24.36"/>
<polygon fill="midnightblue" stroke="midnightblue" points="330.43,-27.32 337.62,-19.54 327.14,-21.14 330.43,-27.32"/>
</g>
<!-- Node28 -->
<g id="node6" class="node">
<title>Node28</title>
<g id="a_node6"><a xlink:href="navier5_8f.html#ad24367e4a843f60b63a2205aef1ba551" target="_top" xlink:title=" ">
<polygon fill="white" stroke="black" points="324,-38.5 324,-57.5 390,-57.5 390,-38.5 324,-38.5"/>
<text text-anchor="middle" x="357" y="-45.5" font-family="Helvetica,sans-Serif" font-size="10.00">local_grad3</text>
</a>
</g>
</g>
<!-- Node3&#45;&gt;Node28 -->
<g id="edge5" class="edge">
<title>Node3&#45;&gt;Node28</title>
<path fill="none" stroke="midnightblue" d="M280,-62.16C290.32,-60.23 302.45,-57.97 313.95,-55.83"/>
<polygon fill="midnightblue" stroke="midnightblue" points="314.65,-59.26 323.84,-53.99 313.37,-52.38 314.65,-59.26"/>
</g>
<!-- Node29&#45;&gt;Node4 -->
<g id="edge7" class="edge">
<title>Node29&#45;&gt;Node4</title>
<path fill="none" stroke="midnightblue" d="M284.05,-99.4C293.21,-97.7 303.46,-95.79 313.29,-93.96"/>
<polygon fill="midnightblue" stroke="midnightblue" points="314.12,-97.36 323.31,-92.09 312.84,-90.48 314.12,-97.36"/>
</g>
<!-- Node30 -->
<g id="node8" class="node">
<title>Node30</title>
<g id="a_node8"><a xlink:href="navier1_8f.html#ae908e5bde6b07e75595edf098842ff9d" target="_top" xlink:title=" ">
<polygon fill="white" stroke="red" points="320,-114.5 320,-133.5 394,-133.5 394,-114.5 320,-114.5"/>
<text text-anchor="middle" x="357" y="-121.5" font-family="Helvetica,sans-Serif" font-size="10.00">local_grad2_t</text>
</a>
</g>
</g>
<!-- Node29&#45;&gt;Node30 -->
<g id="edge8" class="edge">
<title>Node29&#45;&gt;Node30</title>
<path fill="none" stroke="midnightblue" d="M284.05,-110.6C292.08,-112.09 300.94,-113.74 309.62,-115.36"/>
<polygon fill="midnightblue" stroke="midnightblue" points="309.2,-118.84 319.67,-117.23 310.48,-111.96 309.2,-118.84"/>
</g>
<!-- Node34 -->
<g id="node9" class="node">
<title>Node34</title>
<g id="a_node9"><a xlink:href="navier1_8f.html#a4da1f2ddd2e05506f058713df8079138" target="_top" xlink:title=" ">
<polygon fill="white" stroke="red" points="320,-152.5 320,-171.5 394,-171.5 394,-152.5 320,-152.5"/>
<text text-anchor="middle" x="357" y="-159.5" font-family="Helvetica,sans-Serif" font-size="10.00">local_grad3_t</text>
</a>
</g>
</g>
<!-- Node29&#45;&gt;Node34 -->
<g id="edge9" class="edge">
<title>Node29&#45;&gt;Node34</title>
<path fill="none" stroke="midnightblue" d="M270.18,-114.54C283.48,-122.33 302.86,-133.55 320,-143 322.76,-144.52 325.65,-146.09 328.54,-147.64"/>
<polygon fill="midnightblue" stroke="midnightblue" points="327.14,-150.86 337.62,-152.46 330.43,-144.68 327.14,-150.86"/>
</g>
<!-- Node35&#45;&gt;Node3 -->
<g id="edge11" class="edge">
<title>Node35&#45;&gt;Node3</title>
<path fill="none" stroke="midnightblue" d="M186.07,-67C195.72,-67 205.96,-67 215.42,-67"/>
<polygon fill="midnightblue" stroke="midnightblue" points="215.7,-70.5 225.7,-67 215.7,-63.5 215.7,-70.5"/>
</g>
<!-- Node35&#45;&gt;Node29 -->
<g id="edge12" class="edge">
<title>Node35&#45;&gt;Node29</title>
<path fill="none" stroke="midnightblue" d="M172.37,-76.59C185.49,-81.27 201.47,-86.97 215.65,-92.03"/>
<polygon fill="midnightblue" stroke="midnightblue" points="214.54,-95.35 225.13,-95.41 216.89,-88.76 214.54,-95.35"/>
</g>
</g>
</svg>
