<?xml version="1.0" encoding="UTF-8" standalone="no"?>
<!DOCTYPE svg PUBLIC "-//W3C//DTD SVG 1.1//EN"
 "http://www.w3.org/Graphics/SVG/1.1/DTD/svg11.dtd">
<!-- Generated by graphviz version 2.46.0 (0)
 -->
<!-- Title: makeuf Pages: 1 -->
<svg width="271pt" height="180pt"
 viewBox="0.00 0.00 271.00 180.00" xmlns="http://www.w3.org/2000/svg" xmlns:xlink="http://www.w3.org/1999/xlink">
<g id="graph0" class="graph" transform="scale(1 1) rotate(0) translate(4 176)">
<title>makeuf</title>
<polygon fill="white" stroke="transparent" points="-4,4 -4,-176 267,-176 267,4 -4,4"/>
<!-- Node1 -->
<g id="node1" class="node">
<title>Node1</title>
<g id="a_node1"><a xlink:title=" ">
<polygon fill="#bfbfbf" stroke="black" points="214,-57.5 214,-76.5 263,-76.5 263,-57.5 214,-57.5"/>
<text text-anchor="middle" x="238.5" y="-64.5" font-family="Helvetica,sans-Serif" font-size="10.00">makeuf</text>
</a>
</g>
</g>
<!-- Node2 -->
<g id="node2" class="node">
<title>Node2</title>
<g id="a_node2"><a xlink:href="induct_8f.html#a0f0eb9c29e64571293f094020bee8033" target="_top" xlink:title=" ">
<polygon fill="white" stroke="black" points="79,-133.5 79,-152.5 178,-152.5 178,-133.5 79,-133.5"/>
<text text-anchor="middle" x="128.5" y="-140.5" font-family="Helvetica,sans-Serif" font-size="10.00">makebsource_mhd</text>
</a>
</g>
</g>
<!-- Node1&#45;&gt;Node2 -->
<g id="edge1" class="edge">
<title>Node1&#45;&gt;Node2</title>
<path fill="none" stroke="midnightblue" d="M215.53,-82.46C193.81,-97.75 161.27,-120.64 143.07,-133.45"/>
<polygon fill="midnightblue" stroke="midnightblue" points="217.66,-85.24 223.82,-76.63 213.63,-79.52 217.66,-85.24"/>
</g>
<!-- Node8 -->
<g id="node4" class="node">
<title>Node8</title>
<g id="a_node4"><a xlink:href="navier1_8f.html#a83189b3d1938d87f00ace2e7e05d9e4c" target="_top" xlink:title=" ">
<polygon fill="white" stroke="black" points="106.5,-76.5 106.5,-95.5 150.5,-95.5 150.5,-76.5 106.5,-76.5"/>
<text text-anchor="middle" x="128.5" y="-83.5" font-family="Helvetica,sans-Serif" font-size="10.00">makef</text>
</a>
</g>
</g>
<!-- Node1&#45;&gt;Node8 -->
<g id="edge3" class="edge">
<title>Node1&#45;&gt;Node8</title>
<path fill="none" stroke="midnightblue" d="M203.5,-72.98C186.16,-76.03 165.62,-79.65 150.59,-82.29"/>
<polygon fill="midnightblue" stroke="midnightblue" points="204.56,-76.35 213.8,-71.17 203.34,-69.46 204.56,-76.35"/>
</g>
<!-- Node17 -->
<g id="node8" class="node">
<title>Node17</title>
<g id="a_node8"><a xlink:href="plan5_8f.html#a1c77871dc9883719557071c0006dc66e" target="_top" xlink:title=" ">
<polygon fill="white" stroke="black" points="103,-38.5 103,-57.5 154,-57.5 154,-38.5 103,-38.5"/>
<text text-anchor="middle" x="128.5" y="-45.5" font-family="Helvetica,sans-Serif" font-size="10.00">midstep</text>
</a>
</g>
</g>
<!-- Node1&#45;&gt;Node17 -->
<g id="edge7" class="edge">
<title>Node1&#45;&gt;Node17</title>
<path fill="none" stroke="midnightblue" d="M203.75,-61.06C187.73,-58.24 168.94,-54.94 154.27,-52.36"/>
<polygon fill="midnightblue" stroke="midnightblue" points="203.34,-64.54 213.8,-62.83 204.56,-57.65 203.34,-64.54"/>
</g>
<!-- Node19 -->
<g id="node10" class="node">
<title>Node19</title>
<g id="a_node10"><a xlink:href="subs1_8f.html#ae35573fd308e18ae23972c1b804f5b2d" target="_top" xlink:title=" ">
<polygon fill="white" stroke="red" points="106.5,-0.5 106.5,-19.5 150.5,-19.5 150.5,-0.5 106.5,-0.5"/>
<text text-anchor="middle" x="128.5" y="-7.5" font-family="Helvetica,sans-Serif" font-size="10.00">setdtc</text>
</a>
</g>
</g>
<!-- Node1&#45;&gt;Node19 -->
<g id="edge9" class="edge">
<title>Node1&#45;&gt;Node19</title>
<path fill="none" stroke="midnightblue" d="M215.72,-51.64C204.71,-44.26 190.97,-35.6 178,-29 169.3,-24.57 159.3,-20.5 150.66,-17.27"/>
<polygon fill="midnightblue" stroke="midnightblue" points="214.01,-54.71 224.24,-57.47 217.96,-48.93 214.01,-54.71"/>
</g>
<!-- Node3 -->
<g id="node3" class="node">
<title>Node3</title>
<g id="a_node3"><a xlink:href="induct_8f.html#aa44a44eb5a5e3f510211f8fd8e6b12b7" target="_top" xlink:title=" ">
<polygon fill="white" stroke="red" points="0,-152.5 0,-171.5 43,-171.5 43,-152.5 0,-152.5"/>
<text text-anchor="middle" x="21.5" y="-159.5" font-family="Helvetica,sans-Serif" font-size="10.00">induct</text>
</a>
</g>
</g>
<!-- Node2&#45;&gt;Node3 -->
<g id="edge2" class="edge">
<title>Node2&#45;&gt;Node3</title>
<path fill="none" stroke="midnightblue" d="M68.97,-153.59C59.76,-155.26 50.81,-156.88 43.26,-158.24"/>
<polygon fill="midnightblue" stroke="midnightblue" points="69.78,-157 79,-151.78 68.53,-150.11 69.78,-157"/>
</g>
<!-- Node9 -->
<g id="node5" class="node">
<title>Node9</title>
<g id="a_node5"><a xlink:href="navier1_8f.html#a23e6343990072aa1a6b17109ccc7ba2b" target="_top" xlink:title=" ">
<polygon fill="white" stroke="red" points="1.5,-114.5 1.5,-133.5 41.5,-133.5 41.5,-114.5 1.5,-114.5"/>
<text text-anchor="middle" x="21.5" y="-121.5" font-family="Helvetica,sans-Serif" font-size="10.00">plan1</text>
</a>
</g>
</g>
<!-- Node8&#45;&gt;Node9 -->
<g id="edge4" class="edge">
<title>Node8&#45;&gt;Node9</title>
<path fill="none" stroke="midnightblue" d="M96.82,-97.1C78.96,-103.57 57,-111.51 41.6,-117.09"/>
<polygon fill="midnightblue" stroke="midnightblue" points="98.04,-100.38 106.25,-93.69 95.66,-93.8 98.04,-100.38"/>
</g>
<!-- Node15 -->
<g id="node6" class="node">
<title>Node15</title>
<g id="a_node6"><a xlink:href="planx_8f.html#a142f9186a662d3de60f09bb0ee26782d" target="_top" xlink:title=" ">
<polygon fill="white" stroke="red" points="1.5,-76.5 1.5,-95.5 41.5,-95.5 41.5,-76.5 1.5,-76.5"/>
<text text-anchor="middle" x="21.5" y="-83.5" font-family="Helvetica,sans-Serif" font-size="10.00">plan3</text>
</a>
</g>
</g>
<!-- Node8&#45;&gt;Node15 -->
<g id="edge5" class="edge">
<title>Node8&#45;&gt;Node15</title>
<path fill="none" stroke="midnightblue" d="M95.82,-86C78.15,-86 56.71,-86 41.6,-86"/>
<polygon fill="midnightblue" stroke="midnightblue" points="96.25,-89.5 106.25,-86 96.25,-82.5 96.25,-89.5"/>
</g>
<!-- Node16 -->
<g id="node7" class="node">
<title>Node16</title>
<g id="a_node7"><a xlink:href="plan4_8f.html#a247fc105464de543a464773054eb509e" target="_top" xlink:title=" ">
<polygon fill="white" stroke="red" points="1.5,-38.5 1.5,-57.5 41.5,-57.5 41.5,-38.5 1.5,-38.5"/>
<text text-anchor="middle" x="21.5" y="-45.5" font-family="Helvetica,sans-Serif" font-size="10.00">plan4</text>
</a>
</g>
</g>
<!-- Node8&#45;&gt;Node16 -->
<g id="edge6" class="edge">
<title>Node8&#45;&gt;Node16</title>
<path fill="none" stroke="midnightblue" d="M96.82,-74.9C78.96,-68.43 57,-60.49 41.6,-54.91"/>
<polygon fill="midnightblue" stroke="midnightblue" points="95.66,-78.2 106.25,-78.31 98.04,-71.62 95.66,-78.2"/>
</g>
<!-- Node18 -->
<g id="node9" class="node">
<title>Node18</title>
<g id="a_node9"><a xlink:href="plan5_8f.html#ae6f47947bd1a89d608ae3b90ac8f433d" target="_top" xlink:title=" ">
<polygon fill="white" stroke="red" points="1.5,-0.5 1.5,-19.5 41.5,-19.5 41.5,-0.5 1.5,-0.5"/>
<text text-anchor="middle" x="21.5" y="-7.5" font-family="Helvetica,sans-Serif" font-size="10.00">plan5</text>
</a>
</g>
</g>
<!-- Node17&#45;&gt;Node18 -->
<g id="edge8" class="edge">
<title>Node17&#45;&gt;Node18</title>
<path fill="none" stroke="midnightblue" d="M93.22,-35.6C76.13,-29.41 56.1,-22.16 41.72,-16.96"/>
<polygon fill="midnightblue" stroke="midnightblue" points="92.29,-38.98 102.88,-39.09 94.67,-32.4 92.29,-38.98"/>
</g>
</g>
</svg>
