<?xml version="1.0" encoding="UTF-8" standalone="no"?>
<!DOCTYPE svg PUBLIC "-//W3C//DTD SVG 1.1//EN"
 "http://www.w3.org/Graphics/SVG/1.1/DTD/svg11.dtd">
<!-- Generated by graphviz version 2.46.0 (0)
 -->
<!-- Title: cresvuz Pages: 1 -->
<svg width="302pt" height="218pt"
 viewBox="0.00 0.00 302.00 218.00" xmlns="http://www.w3.org/2000/svg" xmlns:xlink="http://www.w3.org/1999/xlink">
<g id="graph0" class="graph" transform="scale(1 1) rotate(0) translate(4 214)">
<title>cresvuz</title>
<polygon fill="white" stroke="transparent" points="-4,4 -4,-214 298,-214 298,4 -4,4"/>
<!-- Node1 -->
<g id="node1" class="node">
<title>Node1</title>
<g id="a_node1"><a xlink:title=" ">
<polygon fill="#bfbfbf" stroke="black" points="0,-95.5 0,-114.5 51,-114.5 51,-95.5 0,-95.5"/>
<text text-anchor="middle" x="25.5" y="-102.5" font-family="Helvetica,sans-Serif" font-size="10.00">cresvuz</text>
</a>
</g>
</g>
<!-- Node2 -->
<g id="node2" class="node">
<title>Node2</title>
<g id="a_node2"><a xlink:href="navier1_8f.html#ad1bbe02eb4b6eb1d16f7612e1947dac5" target="_top" xlink:title=" ">
<polygon fill="white" stroke="black" points="172,-190.5 172,-209.5 220,-209.5 220,-190.5 172,-190.5"/>
<text text-anchor="middle" x="196" y="-197.5" font-family="Helvetica,sans-Serif" font-size="10.00">opadd2</text>
</a>
</g>
</g>
<!-- Node1&#45;&gt;Node2 -->
<g id="edge1" class="edge">
<title>Node1&#45;&gt;Node2</title>
<path fill="none" stroke="midnightblue" d="M31.13,-114.55C39.68,-131.05 59.6,-164.71 87,-181 109.6,-194.44 139.26,-198.9 161.77,-200.17"/>
<polygon fill="midnightblue" stroke="midnightblue" points="161.75,-203.67 171.87,-200.55 162.01,-196.68 161.75,-203.67"/>
</g>
<!-- Node6 -->
<g id="node4" class="node">
<title>Node6</title>
<g id="a_node4"><a xlink:href="navier1_8f.html#a0319e77dcb754cfe343f5e1e0a54f8dd" target="_top" xlink:title=" ">
<polygon fill="white" stroke="black" points="87,-152.5 87,-171.5 136,-171.5 136,-152.5 87,-152.5"/>
<text text-anchor="middle" x="111.5" y="-159.5" font-family="Helvetica,sans-Serif" font-size="10.00">opgradt</text>
</a>
</g>
</g>
<!-- Node1&#45;&gt;Node6 -->
<g id="edge3" class="edge">
<title>Node1&#45;&gt;Node6</title>
<path fill="none" stroke="midnightblue" d="M40.75,-114.67C53.62,-123.4 72.78,-136.4 87.76,-146.57"/>
<polygon fill="midnightblue" stroke="midnightblue" points="86.22,-149.75 96.46,-152.47 90.15,-143.96 86.22,-149.75"/>
</g>
<!-- Node13 -->
<g id="node6" class="node">
<title>Node13</title>
<g id="a_node6"><a xlink:href="navier1_8f.html#aaf82c7bf142ad5f9c363e3dc3c39fa3c" target="_top" xlink:title=" ">
<polygon fill="white" stroke="red" points="92.5,-114.5 92.5,-133.5 130.5,-133.5 130.5,-114.5 92.5,-114.5"/>
<text text-anchor="middle" x="111.5" y="-121.5" font-family="Helvetica,sans-Serif" font-size="10.00">ophx</text>
</a>
</g>
</g>
<!-- Node1&#45;&gt;Node13 -->
<g id="edge6" class="edge">
<title>Node1&#45;&gt;Node13</title>
<path fill="none" stroke="midnightblue" d="M51.25,-110.6C61.02,-112.81 72.29,-115.36 82.37,-117.64"/>
<polygon fill="midnightblue" stroke="midnightblue" points="81.8,-121.1 92.32,-119.89 83.34,-114.27 81.8,-121.1"/>
</g>
<!-- Node48 -->
<g id="node8" class="node">
<title>Node48</title>
<g id="a_node8"><a xlink:href="navier1_8f.html#af6a98f46c53619f885acfdb9ad705de9" target="_top" xlink:title=" ">
<polygon fill="white" stroke="red" points="87,-76.5 87,-95.5 136,-95.5 136,-76.5 87,-76.5"/>
<text text-anchor="middle" x="111.5" y="-83.5" font-family="Helvetica,sans-Serif" font-size="10.00">oprzero</text>
</a>
</g>
</g>
<!-- Node1&#45;&gt;Node48 -->
<g id="edge9" class="edge">
<title>Node1&#45;&gt;Node48</title>
<path fill="none" stroke="midnightblue" d="M51.25,-99.4C59.32,-97.58 68.42,-95.52 77.02,-93.57"/>
<polygon fill="midnightblue" stroke="midnightblue" points="77.81,-96.98 86.79,-91.36 76.27,-90.15 77.81,-96.98"/>
</g>
<!-- Node49 -->
<g id="node9" class="node">
<title>Node49</title>
<g id="a_node9"><a xlink:href="navier1_8f.html#aef701b732efb20e0f339a59118652b86" target="_top" xlink:title=" ">
<polygon fill="white" stroke="red" points="87.5,-38.5 87.5,-57.5 135.5,-57.5 135.5,-38.5 87.5,-38.5"/>
<text text-anchor="middle" x="111.5" y="-45.5" font-family="Helvetica,sans-Serif" font-size="10.00">opsub2</text>
</a>
</g>
</g>
<!-- Node1&#45;&gt;Node49 -->
<g id="edge10" class="edge">
<title>Node1&#45;&gt;Node49</title>
<path fill="none" stroke="midnightblue" d="M40.75,-95.33C53.62,-86.6 72.78,-73.6 87.76,-63.43"/>
<polygon fill="midnightblue" stroke="midnightblue" points="90.15,-66.04 96.46,-57.53 86.22,-60.25 90.15,-66.04"/>
</g>
<!-- Node51 -->
<g id="node10" class="node">
<title>Node51</title>
<g id="a_node10"><a xlink:href="subs1_8f.html#ae2376b70f309c6118b4e43df9cbe66b1" target="_top" xlink:title=" ">
<polygon fill="white" stroke="red" points="88.5,-0.5 88.5,-19.5 134.5,-19.5 134.5,-0.5 88.5,-0.5"/>
<text text-anchor="middle" x="111.5" y="-7.5" font-family="Helvetica,sans-Serif" font-size="10.00">sethlm</text>
</a>
</g>
</g>
<!-- Node1&#45;&gt;Node51 -->
<g id="edge11" class="edge">
<title>Node1&#45;&gt;Node51</title>
<path fill="none" stroke="midnightblue" d="M33.15,-95.33C43.69,-80.33 65.26,-50.91 87,-29 87.91,-28.08 88.87,-27.16 89.86,-26.25"/>
<polygon fill="midnightblue" stroke="midnightblue" points="92.32,-28.74 97.62,-19.57 87.76,-23.43 92.32,-28.74"/>
</g>
<!-- Node3 -->
<g id="node3" class="node">
<title>Node3</title>
<g id="a_node3"><a xlink:href="math_8f.html#a30b83d516b6ab162d3fafe73e03a3e92" target="_top" xlink:title=" ">
<polygon fill="white" stroke="red" points="256,-152.5 256,-171.5 294,-171.5 294,-152.5 256,-152.5"/>
<text text-anchor="middle" x="275" y="-159.5" font-family="Helvetica,sans-Serif" font-size="10.00">add2</text>
</a>
</g>
</g>
<!-- Node2&#45;&gt;Node3 -->
<g id="edge2" class="edge">
<title>Node2&#45;&gt;Node3</title>
<path fill="none" stroke="midnightblue" d="M216.43,-190.41C225.61,-185.88 236.73,-180.39 246.74,-175.45"/>
<polygon fill="midnightblue" stroke="midnightblue" points="248.48,-178.5 255.9,-170.93 245.38,-172.22 248.48,-178.5"/>
</g>
<!-- Node7 -->
<g id="node5" class="node">
<title>Node7</title>
<g id="a_node5"><a xlink:href="navier1_8f.html#a0411bdb65f6b5cb057603cea2b6b963e" target="_top" xlink:title=" ">
<polygon fill="white" stroke="red" points="178.5,-152.5 178.5,-171.5 213.5,-171.5 213.5,-152.5 178.5,-152.5"/>
<text text-anchor="middle" x="196" y="-159.5" font-family="Helvetica,sans-Serif" font-size="10.00">cdtp</text>
</a>
</g>
</g>
<!-- Node6&#45;&gt;Node7 -->
<g id="edge4" class="edge">
<title>Node6&#45;&gt;Node7</title>
<path fill="none" stroke="midnightblue" d="M136.36,-162C146.32,-162 157.94,-162 168.19,-162"/>
<polygon fill="midnightblue" stroke="midnightblue" points="168.26,-165.5 178.26,-162 168.26,-158.5 168.26,-165.5"/>
</g>
<!-- Node7&#45;&gt;Node3 -->
<g id="edge5" class="edge">
<title>Node7&#45;&gt;Node3</title>
<path fill="none" stroke="midnightblue" d="M213.71,-162C223.06,-162 234.98,-162 245.74,-162"/>
<polygon fill="midnightblue" stroke="midnightblue" points="245.98,-165.5 255.98,-162 245.98,-158.5 245.98,-165.5"/>
</g>
<!-- Node14 -->
<g id="node7" class="node">
<title>Node14</title>
<g id="a_node7"><a xlink:href="hmholtz_8f.html#aa576b5bd623cce50fd6323db12ba5376" target="_top" xlink:title=" ">
<polygon fill="white" stroke="red" points="172,-114.5 172,-133.5 220,-133.5 220,-114.5 172,-114.5"/>
<text text-anchor="middle" x="196" y="-121.5" font-family="Helvetica,sans-Serif" font-size="10.00">axhelm</text>
</a>
</g>
</g>
<!-- Node13&#45;&gt;Node14 -->
<g id="edge7" class="edge">
<title>Node13&#45;&gt;Node14</title>
<path fill="none" stroke="midnightblue" d="M130.81,-124C139.85,-124 151.05,-124 161.55,-124"/>
<polygon fill="midnightblue" stroke="midnightblue" points="161.71,-127.5 171.71,-124 161.71,-120.5 161.71,-127.5"/>
</g>
<!-- Node14&#45;&gt;Node3 -->
<g id="edge8" class="edge">
<title>Node14&#45;&gt;Node3</title>
<path fill="none" stroke="midnightblue" d="M216.43,-133.59C225.61,-138.12 236.73,-143.61 246.74,-148.55"/>
<polygon fill="midnightblue" stroke="midnightblue" points="245.38,-151.78 255.9,-153.07 248.48,-145.5 245.38,-151.78"/>
</g>
</g>
</svg>
