<?xml version="1.0" encoding="UTF-8" standalone="no"?>
<!DOCTYPE svg PUBLIC "-//W3C//DTD SVG 1.1//EN"
 "http://www.w3.org/Graphics/SVG/1.1/DTD/svg11.dtd">
<!-- Generated by graphviz version 2.46.0 (0)
 -->
<!-- Title: domain_size Pages: 1 -->
<svg width="426pt" height="161pt"
 viewBox="0.00 0.00 426.00 161.00" xmlns="http://www.w3.org/2000/svg" xmlns:xlink="http://www.w3.org/1999/xlink">
<g id="graph0" class="graph" transform="scale(1 1) rotate(0) translate(4 157)">
<title>domain_size</title>
<polygon fill="white" stroke="transparent" points="-4,4 -4,-157 422,-157 422,4 -4,4"/>
<!-- Node1 -->
<g id="node1" class="node">
<title>Node1</title>
<g id="a_node1"><a xlink:title=" ">
<polygon fill="#bfbfbf" stroke="black" points="347,-76.5 347,-95.5 418,-95.5 418,-76.5 347,-76.5"/>
<text text-anchor="middle" x="382.5" y="-83.5" font-family="Helvetica,sans-Serif" font-size="10.00">domain_size</text>
</a>
</g>
</g>
<!-- Node2 -->
<g id="node2" class="node">
<title>Node2</title>
<g id="a_node2"><a xlink:href="navier5_8f.html#a12de3df5d543b571f4f98be06fa4a9f7" target="_top" xlink:title=" ">
<polygon fill="white" stroke="black" points="237.5,-95.5 237.5,-114.5 301.5,-114.5 301.5,-95.5 237.5,-95.5"/>
<text text-anchor="middle" x="269.5" y="-102.5" font-family="Helvetica,sans-Serif" font-size="10.00">cheap_dist</text>
</a>
</g>
</g>
<!-- Node1&#45;&gt;Node2 -->
<g id="edge1" class="edge">
<title>Node1&#45;&gt;Node2</title>
<path fill="none" stroke="midnightblue" d="M336.84,-93.65C325.02,-95.67 312.52,-97.81 301.6,-99.68"/>
<polygon fill="midnightblue" stroke="midnightblue" points="337.72,-97.04 346.99,-91.91 336.54,-90.14 337.72,-97.04"/>
</g>
<!-- Node5 -->
<g id="node5" class="node">
<title>Node5</title>
<g id="a_node5"><a xlink:href="navier5_8f.html#ae48a76075d2717a6c7fbb8d46d688fd5" target="_top" xlink:title=" ">
<polygon fill="white" stroke="black" points="252,-133.5 252,-152.5 287,-152.5 287,-133.5 252,-133.5"/>
<text text-anchor="middle" x="269.5" y="-140.5" font-family="Helvetica,sans-Serif" font-size="10.00">distf</text>
</a>
</g>
</g>
<!-- Node1&#45;&gt;Node5 -->
<g id="edge4" class="edge">
<title>Node1&#45;&gt;Node5</title>
<path fill="none" stroke="midnightblue" d="M355.27,-100.59C342.08,-107.81 325.79,-116.55 311,-124 303.23,-127.91 294.51,-132.04 287.15,-135.44"/>
<polygon fill="midnightblue" stroke="midnightblue" points="357.18,-103.53 364.26,-95.64 353.81,-97.4 357.18,-103.53"/>
</g>
<!-- Node6 -->
<g id="node6" class="node">
<title>Node6</title>
<g id="a_node6"><a xlink:href="lpm__solve_8f.html#a246d139830696737f4d971928b577f0c" target="_top" xlink:title=" ">
<polygon fill="white" stroke="black" points="244.5,-57.5 244.5,-76.5 294.5,-76.5 294.5,-57.5 244.5,-57.5"/>
<text text-anchor="middle" x="269.5" y="-64.5" font-family="Helvetica,sans-Serif" font-size="10.00">lpm_init</text>
</a>
</g>
</g>
<!-- Node1&#45;&gt;Node6 -->
<g id="edge6" class="edge">
<title>Node1&#45;&gt;Node6</title>
<path fill="none" stroke="midnightblue" d="M336.78,-78.34C322.43,-75.89 307.09,-73.26 294.78,-71.16"/>
<polygon fill="midnightblue" stroke="midnightblue" points="336.54,-81.86 346.99,-80.09 337.72,-74.96 336.54,-81.86"/>
</g>
<!-- Node7 -->
<g id="node7" class="node">
<title>Node7</title>
<g id="a_node7"><a xlink:href="meshsmoother_8f.html#a5c2e67caa66847e3ddafe8a9884c5653" target="_top" xlink:title=" ">
<polygon fill="white" stroke="black" points="228,-19.5 228,-38.5 311,-38.5 311,-19.5 228,-19.5"/>
<text text-anchor="middle" x="269.5" y="-26.5" font-family="Helvetica,sans-Serif" font-size="10.00">sm_cheap_dist</text>
</a>
</g>
</g>
<!-- Node1&#45;&gt;Node7 -->
<g id="edge7" class="edge">
<title>Node1&#45;&gt;Node7</title>
<path fill="none" stroke="midnightblue" d="M355.27,-71.41C342.08,-64.19 325.79,-55.45 311,-48 304.76,-44.86 297.9,-41.57 291.63,-38.64"/>
<polygon fill="midnightblue" stroke="midnightblue" points="353.81,-74.6 364.26,-76.36 357.18,-68.47 353.81,-74.6"/>
</g>
<!-- Node3 -->
<g id="node3" class="node">
<title>Node3</title>
<g id="a_node3"><a xlink:href="rans__komg_8f.html#a2bfdda713d380be913d2d03e85b02762" target="_top" xlink:title=" ">
<polygon fill="white" stroke="black" points="109,-133.5 109,-152.5 192,-152.5 192,-133.5 109,-133.5"/>
<text text-anchor="middle" x="150.5" y="-140.5" font-family="Helvetica,sans-Serif" font-size="10.00">rans_komg_init</text>
</a>
</g>
</g>
<!-- Node2&#45;&gt;Node3 -->
<g id="edge2" class="edge">
<title>Node2&#45;&gt;Node3</title>
<path fill="none" stroke="midnightblue" d="M229.46,-117.68C213.65,-122.81 195.7,-128.64 181.01,-133.41"/>
<polygon fill="midnightblue" stroke="midnightblue" points="230.55,-121.01 238.98,-114.59 228.38,-114.35 230.55,-121.01"/>
</g>
<!-- Node4 -->
<g id="node4" class="node">
<title>Node4</title>
<g id="a_node4"><a xlink:href="navier5_8f.html#a3b8385196a4d5a61eac8ecf6a5ea47f8" target="_top" xlink:title=" ">
<polygon fill="white" stroke="black" points="115.5,-95.5 115.5,-114.5 185.5,-114.5 185.5,-95.5 115.5,-95.5"/>
<text text-anchor="middle" x="150.5" y="-102.5" font-family="Helvetica,sans-Serif" font-size="10.00">turb_outflow</text>
</a>
</g>
</g>
<!-- Node2&#45;&gt;Node4 -->
<g id="edge3" class="edge">
<title>Node2&#45;&gt;Node4</title>
<path fill="none" stroke="midnightblue" d="M227.34,-105C213.68,-105 198.64,-105 185.57,-105"/>
<polygon fill="midnightblue" stroke="midnightblue" points="227.45,-108.5 237.45,-105 227.45,-101.5 227.45,-108.5"/>
</g>
<!-- Node5&#45;&gt;Node3 -->
<g id="edge5" class="edge">
<title>Node5&#45;&gt;Node3</title>
<path fill="none" stroke="midnightblue" d="M241.61,-143C226.95,-143 208.51,-143 192.14,-143"/>
<polygon fill="midnightblue" stroke="midnightblue" points="241.98,-146.5 251.98,-143 241.98,-139.5 241.98,-146.5"/>
</g>
<!-- Node8 -->
<g id="node8" class="node">
<title>Node8</title>
<g id="a_node8"><a xlink:href="meshsmoother_8f.html#a5b748148b82033f97b563a7f71daf707" target="_top" xlink:title=" ">
<polygon fill="white" stroke="black" points="129,-38.5 129,-57.5 172,-57.5 172,-38.5 129,-38.5"/>
<text text-anchor="middle" x="150.5" y="-45.5" font-family="Helvetica,sans-Serif" font-size="10.00">disfun</text>
</a>
</g>
</g>
<!-- Node7&#45;&gt;Node8 -->
<g id="edge8" class="edge">
<title>Node7&#45;&gt;Node8</title>
<path fill="none" stroke="midnightblue" d="M217.59,-37.27C201.65,-39.86 184.94,-42.57 172.31,-44.62"/>
<polygon fill="midnightblue" stroke="midnightblue" points="218.6,-40.65 227.91,-35.59 217.48,-33.74 218.6,-40.65"/>
</g>
<!-- Node11 -->
<g id="node10" class="node">
<title>Node11</title>
<g id="a_node10"><a xlink:href="meshsmoother_8f.html#a4c051a876df87615e1dca365b41f4aa3" target="_top" xlink:title=" ">
<polygon fill="white" stroke="black" points="111.5,-0.5 111.5,-19.5 189.5,-19.5 189.5,-0.5 111.5,-0.5"/>
<text text-anchor="middle" x="150.5" y="-7.5" font-family="Helvetica,sans-Serif" font-size="10.00">my_mv_mesh</text>
</a>
</g>
</g>
<!-- Node7&#45;&gt;Node11 -->
<g id="edge10" class="edge">
<title>Node7&#45;&gt;Node11</title>
<path fill="none" stroke="midnightblue" d="M217.82,-20.77C208.37,-19.24 198.65,-17.66 189.66,-16.2"/>
<polygon fill="midnightblue" stroke="midnightblue" points="217.48,-24.26 227.91,-22.41 218.6,-17.35 217.48,-24.26"/>
</g>
<!-- Node9 -->
<g id="node9" class="node">
<title>Node9</title>
<g id="a_node9"><a xlink:href="meshsmoother_8f.html#a381ecddf77fc5669d3a8e246b65d1960" target="_top" xlink:title=" ">
<polygon fill="white" stroke="red" points="0,-19.5 0,-38.5 73,-38.5 73,-19.5 0,-19.5"/>
<text text-anchor="middle" x="36.5" y="-26.5" font-family="Helvetica,sans-Serif" font-size="10.00">smoothmesh</text>
</a>
</g>
</g>
<!-- Node8&#45;&gt;Node9 -->
<g id="edge9" class="edge">
<title>Node8&#45;&gt;Node9</title>
<path fill="none" stroke="midnightblue" d="M118.81,-42.79C104.74,-40.41 87.97,-37.56 73.33,-35.08"/>
<polygon fill="midnightblue" stroke="midnightblue" points="118.51,-46.29 128.96,-44.52 119.68,-39.39 118.51,-46.29"/>
</g>
<!-- Node11&#45;&gt;Node9 -->
<g id="edge11" class="edge">
<title>Node11&#45;&gt;Node9</title>
<path fill="none" stroke="midnightblue" d="M101.25,-18.18C91.87,-19.78 82.19,-21.42 73.29,-22.93"/>
<polygon fill="midnightblue" stroke="midnightblue" points="102,-21.61 111.27,-16.49 100.82,-14.71 102,-21.61"/>
</g>
</g>
</svg>
