<?xml version="1.0" encoding="UTF-8" standalone="no"?>
<!DOCTYPE svg PUBLIC "-//W3C//DTD SVG 1.1//EN"
 "http://www.w3.org/Graphics/SVG/1.1/DTD/svg11.dtd">
<!-- Generated by graphviz version 2.46.0 (0)
 -->
<!-- Title: opdiv Pages: 1 -->
<svg width="308pt" height="294pt"
 viewBox="0.00 0.00 308.00 294.00" xmlns="http://www.w3.org/2000/svg" xmlns:xlink="http://www.w3.org/1999/xlink">
<g id="graph0" class="graph" transform="scale(1 1) rotate(0) translate(4 290)">
<title>opdiv</title>
<polygon fill="white" stroke="transparent" points="-4,4 -4,-290 304,-290 304,4 -4,4"/>
<!-- Node1 -->
<g id="node1" class="node">
<title>Node1</title>
<g id="a_node1"><a xlink:title=" ">
<polygon fill="#bfbfbf" stroke="black" points="0,-133.5 0,-152.5 40,-152.5 40,-133.5 0,-133.5"/>
<text text-anchor="middle" x="20" y="-140.5" font-family="Helvetica,sans-Serif" font-size="10.00">opdiv</text>
</a>
</g>
</g>
<!-- Node2 -->
<g id="node2" class="node">
<title>Node2</title>
<g id="a_node2"><a xlink:href="math_8f.html#a30b83d516b6ab162d3fafe73e03a3e92" target="_top" xlink:title=" ">
<polygon fill="white" stroke="black" points="159,-0.5 159,-19.5 197,-19.5 197,-0.5 159,-0.5"/>
<text text-anchor="middle" x="178" y="-7.5" font-family="Helvetica,sans-Serif" font-size="10.00">add2</text>
</a>
</g>
</g>
<!-- Node1&#45;&gt;Node2 -->
<g id="edge1" class="edge">
<title>Node1&#45;&gt;Node2</title>
<path fill="none" stroke="midnightblue" d="M31.82,-133.38C54.19,-113.55 107.27,-66.82 153,-29 154.18,-28.03 155.39,-27.03 156.62,-26.03"/>
<polygon fill="midnightblue" stroke="midnightblue" points="159.09,-28.55 164.71,-19.57 154.71,-23.08 159.09,-28.55"/>
</g>
<!-- Node5 -->
<g id="node4" class="node">
<title>Node5</title>
<g id="a_node4"><a xlink:href="math_8f.html#a3b43508554f14bdea8e14473d7d0803c" target="_top" xlink:title=" ">
<polygon fill="white" stroke="black" points="159,-266.5 159,-285.5 197,-285.5 197,-266.5 159,-266.5"/>
<text text-anchor="middle" x="178" y="-273.5" font-family="Helvetica,sans-Serif" font-size="10.00">copy</text>
</a>
</g>
</g>
<!-- Node1&#45;&gt;Node5 -->
<g id="edge3" class="edge">
<title>Node1&#45;&gt;Node5</title>
<path fill="none" stroke="midnightblue" d="M31.82,-152.62C54.19,-172.45 107.27,-219.18 153,-257 154.18,-257.97 155.39,-258.97 156.62,-259.97"/>
<polygon fill="midnightblue" stroke="midnightblue" points="154.71,-262.92 164.71,-266.43 159.09,-257.45 154.71,-262.92"/>
</g>
<!-- Node6 -->
<g id="node5" class="node">
<title>Node6</title>
<g id="a_node5"><a xlink:href="navier1_8f.html#ae2a342d8b6189bd500acbcc1cac1c757" target="_top" xlink:title=" ">
<polygon fill="white" stroke="black" points="76,-133.5 76,-152.5 117,-152.5 117,-133.5 76,-133.5"/>
<text text-anchor="middle" x="96.5" y="-140.5" font-family="Helvetica,sans-Serif" font-size="10.00">multd</text>
</a>
</g>
</g>
<!-- Node1&#45;&gt;Node6 -->
<g id="edge4" class="edge">
<title>Node1&#45;&gt;Node6</title>
<path fill="none" stroke="midnightblue" d="M40.19,-143C47.97,-143 57.15,-143 65.76,-143"/>
<polygon fill="midnightblue" stroke="midnightblue" points="65.86,-146.5 75.86,-143 65.86,-139.5 65.86,-146.5"/>
</g>
<!-- Node3 -->
<g id="node3" class="node">
<title>Node3</title>
<g id="a_node3"><a xlink:href="comm__mpi_8f.html#af06ec29f06aac3f8809e19de2a7e8946" target="_top" xlink:title=" ">
<polygon fill="white" stroke="red" points="239,-95.5 239,-114.5 300,-114.5 300,-95.5 239,-95.5"/>
<text text-anchor="middle" x="269.5" y="-102.5" font-family="Helvetica,sans-Serif" font-size="10.00">dnekclock</text>
</a>
</g>
</g>
<!-- Node2&#45;&gt;Node3 -->
<g id="edge2" class="edge">
<title>Node2&#45;&gt;Node3</title>
<path fill="none" stroke="midnightblue" d="M192.08,-19.63C195.73,-22.51 199.62,-25.76 203,-29 222.41,-47.62 242.23,-71.42 254.91,-87.39"/>
<polygon fill="midnightblue" stroke="midnightblue" points="252.24,-89.66 261.17,-95.37 257.75,-85.34 252.24,-89.66"/>
</g>
<!-- Node6&#45;&gt;Node2 -->
<g id="edge5" class="edge">
<title>Node6&#45;&gt;Node2</title>
<path fill="none" stroke="midnightblue" d="M100.55,-133.33C107.43,-112.59 125.69,-62.97 153,-29 153.58,-28.28 154.2,-27.56 154.84,-26.86"/>
<polygon fill="midnightblue" stroke="midnightblue" points="157.39,-29.26 162.34,-19.89 152.63,-24.13 157.39,-29.26"/>
</g>
<!-- Node6&#45;&gt;Node3 -->
<g id="edge13" class="edge">
<title>Node6&#45;&gt;Node3</title>
<path fill="none" stroke="midnightblue" d="M107.53,-133.31C117.93,-123.99 135.15,-110.52 153,-105 177.42,-97.44 206.16,-97.41 228.86,-99.28"/>
<polygon fill="midnightblue" stroke="midnightblue" points="228.54,-102.77 238.83,-100.26 229.22,-95.8 228.54,-102.77"/>
</g>
<!-- Node6&#45;&gt;Node5 -->
<g id="edge12" class="edge">
<title>Node6&#45;&gt;Node5</title>
<path fill="none" stroke="midnightblue" d="M100.55,-152.67C107.43,-173.41 125.69,-223.03 153,-257 153.58,-257.72 154.2,-258.44 154.84,-259.14"/>
<polygon fill="midnightblue" stroke="midnightblue" points="152.63,-261.87 162.34,-266.11 157.39,-256.74 152.63,-261.87"/>
</g>
<!-- Node7 -->
<g id="node6" class="node">
<title>Node7</title>
<g id="a_node6"><a xlink:href="math_8f.html#a1f336314da3012286837ede20a0495c6" target="_top" xlink:title=" ">
<polygon fill="white" stroke="black" points="153,-38.5 153,-57.5 203,-57.5 203,-38.5 153,-38.5"/>
<text text-anchor="middle" x="178" y="-45.5" font-family="Helvetica,sans-Serif" font-size="10.00">addcol3</text>
</a>
</g>
</g>
<!-- Node6&#45;&gt;Node7 -->
<g id="edge6" class="edge">
<title>Node6&#45;&gt;Node7</title>
<path fill="none" stroke="midnightblue" d="M104.68,-133.05C114.92,-119.03 134.54,-92.86 153,-72 155.05,-69.68 157.27,-67.31 159.5,-64.99"/>
<polygon fill="midnightblue" stroke="midnightblue" points="162.34,-67.1 166.91,-57.55 157.38,-62.17 162.34,-67.1"/>
</g>
<!-- Node8 -->
<g id="node7" class="node">
<title>Node8</title>
<g id="a_node7"><a xlink:href="math_8f.html#a3470db04166d9ba91454a14cc17dbec2" target="_top" xlink:title=" ">
<polygon fill="white" stroke="black" points="160.5,-228.5 160.5,-247.5 195.5,-247.5 195.5,-228.5 160.5,-228.5"/>
<text text-anchor="middle" x="178" y="-235.5" font-family="Helvetica,sans-Serif" font-size="10.00">col2</text>
</a>
</g>
</g>
<!-- Node6&#45;&gt;Node8 -->
<g id="edge8" class="edge">
<title>Node6&#45;&gt;Node8</title>
<path fill="none" stroke="midnightblue" d="M103.26,-152.51C112.61,-167.55 132.16,-197.33 153,-219 153.77,-219.8 154.58,-220.6 155.41,-221.4"/>
<polygon fill="midnightblue" stroke="midnightblue" points="153.39,-224.27 163.25,-228.15 157.96,-218.97 153.39,-224.27"/>
</g>
<!-- Node9 -->
<g id="node8" class="node">
<title>Node9</title>
<g id="a_node8"><a xlink:href="math_8f.html#a0d9af374781723c272547a185cb3da5e" target="_top" xlink:title=" ">
<polygon fill="white" stroke="black" points="160.5,-190.5 160.5,-209.5 195.5,-209.5 195.5,-190.5 160.5,-190.5"/>
<text text-anchor="middle" x="178" y="-197.5" font-family="Helvetica,sans-Serif" font-size="10.00">col3</text>
</a>
</g>
</g>
<!-- Node6&#45;&gt;Node9 -->
<g id="edge10" class="edge">
<title>Node6&#45;&gt;Node9</title>
<path fill="none" stroke="midnightblue" d="M110.99,-152.67C123.17,-161.4 141.3,-174.4 155.48,-184.57"/>
<polygon fill="midnightblue" stroke="midnightblue" points="153.55,-187.49 163.71,-190.47 157.63,-181.8 153.55,-187.49"/>
</g>
<!-- Node10 -->
<g id="node9" class="node">
<title>Node10</title>
<g id="a_node9"><a xlink:href="math_8f.html#a12a3f9854732798780dfe93ecd4e38bf" target="_top" xlink:title=" ">
<polygon fill="white" stroke="black" points="154.5,-114.5 154.5,-133.5 201.5,-133.5 201.5,-114.5 154.5,-114.5"/>
<text text-anchor="middle" x="178" y="-121.5" font-family="Helvetica,sans-Serif" font-size="10.00">invcol2</text>
</a>
</g>
</g>
<!-- Node6&#45;&gt;Node10 -->
<g id="edge14" class="edge">
<title>Node6&#45;&gt;Node10</title>
<path fill="none" stroke="midnightblue" d="M117.15,-138.3C125.46,-136.32 135.35,-133.95 144.68,-131.72"/>
<polygon fill="midnightblue" stroke="midnightblue" points="145.57,-135.11 154.48,-129.38 143.94,-128.3 145.57,-135.11"/>
</g>
<!-- Node11 -->
<g id="node10" class="node">
<title>Node11</title>
<g id="a_node10"><a xlink:href="math_8f.html#af44de42b023a4a68cd98ea341204342d" target="_top" xlink:title=" ">
<polygon fill="white" stroke="black" points="159,-152.5 159,-171.5 197,-171.5 197,-152.5 159,-152.5"/>
<text text-anchor="middle" x="178" y="-159.5" font-family="Helvetica,sans-Serif" font-size="10.00">rzero</text>
</a>
</g>
</g>
<!-- Node6&#45;&gt;Node11 -->
<g id="edge16" class="edge">
<title>Node6&#45;&gt;Node11</title>
<path fill="none" stroke="midnightblue" d="M117.15,-147.7C126.74,-149.99 138.44,-152.78 148.95,-155.3"/>
<polygon fill="midnightblue" stroke="midnightblue" points="148.39,-158.76 158.93,-157.68 150.02,-151.95 148.39,-158.76"/>
</g>
<!-- Node7&#45;&gt;Node3 -->
<g id="edge7" class="edge">
<title>Node7&#45;&gt;Node3</title>
<path fill="none" stroke="midnightblue" d="M194.18,-57.67C208.02,-66.48 228.7,-79.65 244.73,-89.86"/>
<polygon fill="midnightblue" stroke="midnightblue" points="243.23,-93.05 253.54,-95.47 246.99,-87.15 243.23,-93.05"/>
</g>
<!-- Node8&#45;&gt;Node3 -->
<g id="edge9" class="edge">
<title>Node8&#45;&gt;Node3</title>
<path fill="none" stroke="midnightblue" d="M193,-228.37C196.5,-225.59 200.09,-222.38 203,-219 228.7,-189.18 249.5,-147.79 260.34,-123.96"/>
<polygon fill="midnightblue" stroke="midnightblue" points="263.62,-125.19 264.48,-114.63 257.23,-122.35 263.62,-125.19"/>
</g>
<!-- Node9&#45;&gt;Node3 -->
<g id="edge11" class="edge">
<title>Node9&#45;&gt;Node3</title>
<path fill="none" stroke="midnightblue" d="M192.08,-190.37C195.73,-187.49 199.62,-184.24 203,-181 222.41,-162.38 242.23,-138.58 254.91,-122.61"/>
<polygon fill="midnightblue" stroke="midnightblue" points="257.75,-124.66 261.17,-114.63 252.24,-120.34 257.75,-124.66"/>
</g>
<!-- Node10&#45;&gt;Node3 -->
<g id="edge15" class="edge">
<title>Node10&#45;&gt;Node3</title>
<path fill="none" stroke="midnightblue" d="M201.58,-119.21C209.87,-117.45 219.52,-115.4 228.87,-113.41"/>
<polygon fill="midnightblue" stroke="midnightblue" points="229.76,-116.8 238.81,-111.3 228.31,-109.95 229.76,-116.8"/>
</g>
</g>
</svg>
