<?xml version="1.0" encoding="UTF-8" standalone="no"?>
<!DOCTYPE svg PUBLIC "-//W3C//DTD SVG 1.1//EN"
 "http://www.w3.org/Graphics/SVG/1.1/DTD/svg11.dtd">
<!-- Generated by graphviz version 2.46.0 (0)
 -->
<!-- Title: set_h1_basis_bilin Pages: 1 -->
<svg width="622pt" height="142pt"
 viewBox="0.00 0.00 622.00 142.00" xmlns="http://www.w3.org/2000/svg" xmlns:xlink="http://www.w3.org/1999/xlink">
<g id="graph0" class="graph" transform="scale(1 1) rotate(0) translate(4 138)">
<title>set_h1_basis_bilin</title>
<polygon fill="white" stroke="transparent" points="-4,4 -4,-138 618,-138 618,4 -4,4"/>
<!-- Node1 -->
<g id="node1" class="node">
<title>Node1</title>
<g id="a_node1"><a xlink:title=" ">
<polygon fill="#bfbfbf" stroke="black" points="517,-57.5 517,-76.5 614,-76.5 614,-57.5 517,-57.5"/>
<text text-anchor="middle" x="565.5" y="-64.5" font-family="Helvetica,sans-Serif" font-size="10.00">set_h1_basis_bilin</text>
</a>
</g>
</g>
<!-- Node2 -->
<g id="node2" class="node">
<title>Node2</title>
<g id="a_node2"><a xlink:href="navier8_8f.html#a2f57fd69e715a39ef0476d0b4a55a35a" target="_top" xlink:title=" ">
<polygon fill="white" stroke="black" points="375,-76.5 375,-95.5 481,-95.5 481,-76.5 375,-76.5"/>
<text text-anchor="middle" x="428" y="-83.5" font-family="Helvetica,sans-Serif" font-size="10.00">map_c_to_f_h1_bilin</text>
</a>
</g>
</g>
<!-- Node1&#45;&gt;Node2 -->
<g id="edge1" class="edge">
<title>Node1&#45;&gt;Node2</title>
<path fill="none" stroke="midnightblue" d="M506.64,-75.11C498.26,-76.29 489.68,-77.49 481.41,-78.65"/>
<polygon fill="midnightblue" stroke="midnightblue" points="507.31,-78.55 516.73,-73.7 506.34,-71.62 507.31,-78.55"/>
</g>
<!-- Node81 -->
<g id="node10" class="node">
<title>Node81</title>
<g id="a_node10"><a xlink:href="navier8_8f.html#aa85ccf7fab58ee7647cd9f8817eb7d8d" target="_top" xlink:title=" ">
<polygon fill="white" stroke="black" points="375,-38.5 375,-57.5 481,-57.5 481,-38.5 375,-38.5"/>
<text text-anchor="middle" x="428" y="-45.5" font-family="Helvetica,sans-Serif" font-size="10.00">map_f_to_c_h1_bilin</text>
</a>
</g>
</g>
<!-- Node1&#45;&gt;Node81 -->
<g id="edge10" class="edge">
<title>Node1&#45;&gt;Node81</title>
<path fill="none" stroke="midnightblue" d="M506.64,-58.89C498.26,-57.71 489.68,-56.51 481.41,-55.35"/>
<polygon fill="midnightblue" stroke="midnightblue" points="506.34,-62.38 516.73,-60.3 507.31,-55.45 506.34,-62.38"/>
</g>
<!-- Node3 -->
<g id="node3" class="node">
<title>Node3</title>
<g id="a_node3"><a xlink:href="avm_8f.html#a9e1209421d37bc600934cdb4974e3437" target="_top" xlink:title=" ">
<polygon fill="white" stroke="black" points="272.5,-114.5 272.5,-133.5 331.5,-133.5 331.5,-114.5 272.5,-114.5"/>
<text text-anchor="middle" x="302" y="-121.5" font-family="Helvetica,sans-Serif" font-size="10.00">avm_vdiff</text>
</a>
</g>
</g>
<!-- Node2&#45;&gt;Node3 -->
<g id="edge2" class="edge">
<title>Node2&#45;&gt;Node3</title>
<path fill="none" stroke="midnightblue" d="M386.14,-98.52C368.33,-103.98 347.89,-110.24 331.73,-115.2"/>
<polygon fill="midnightblue" stroke="midnightblue" points="387.17,-101.87 395.71,-95.59 385.12,-95.17 387.17,-101.87"/>
</g>
<!-- Node4 -->
<g id="node4" class="node">
<title>Node4</title>
<g id="a_node4"><a xlink:href="navier8_8f.html#a27cfa4bb425c4ed421e59ebc3ec94311" target="_top" xlink:title=" ">
<polygon fill="white" stroke="black" points="265,-38.5 265,-57.5 339,-57.5 339,-38.5 265,-38.5"/>
<text text-anchor="middle" x="302" y="-45.5" font-family="Helvetica,sans-Serif" font-size="10.00">crs_solve_h1</text>
</a>
</g>
</g>
<!-- Node2&#45;&gt;Node4 -->
<g id="edge3" class="edge">
<title>Node2&#45;&gt;Node4</title>
<path fill="none" stroke="midnightblue" d="M386.1,-73.46C369.23,-68.3 349.99,-62.4 334.28,-57.59"/>
<polygon fill="midnightblue" stroke="midnightblue" points="385.12,-76.83 395.71,-76.41 387.17,-70.13 385.12,-76.83"/>
</g>
<!-- Node75 -->
<g id="node8" class="node">
<title>Node75</title>
<g id="a_node8"><a xlink:href="subs1_8f.html#a67e502b31617d5ff9be230f1ce239133" target="_top" xlink:title=" ">
<polygon fill="white" stroke="black" points="276,-76.5 276,-95.5 328,-95.5 328,-76.5 276,-76.5"/>
<text text-anchor="middle" x="302" y="-83.5" font-family="Helvetica,sans-Serif" font-size="10.00">crs_strs</text>
</a>
</g>
</g>
<!-- Node2&#45;&gt;Node75 -->
<g id="edge8" class="edge">
<title>Node2&#45;&gt;Node75</title>
<path fill="none" stroke="midnightblue" d="M364.47,-86C351.59,-86 338.73,-86 328.13,-86"/>
<polygon fill="midnightblue" stroke="midnightblue" points="364.77,-89.5 374.77,-86 364.77,-82.5 364.77,-89.5"/>
</g>
<!-- Node5 -->
<g id="node5" class="node">
<title>Node5</title>
<g id="a_node5"><a xlink:href="hmholtz_8f.html#a8734f3cc2d37d6a2ccd1daa8db57513d" target="_top" xlink:title=" ">
<polygon fill="white" stroke="red" points="87,-19.5 87,-38.5 125,-38.5 125,-19.5 87,-19.5"/>
<text text-anchor="middle" x="106" y="-26.5" font-family="Helvetica,sans-Serif" font-size="10.00">cggo</text>
</a>
</g>
</g>
<!-- Node4&#45;&gt;Node5 -->
<g id="edge4" class="edge">
<title>Node4&#45;&gt;Node5</title>
<path fill="none" stroke="midnightblue" d="M254.8,-43.48C213.24,-39.41 154.35,-33.64 125.03,-30.77"/>
<polygon fill="midnightblue" stroke="midnightblue" points="254.67,-46.98 264.96,-44.47 255.35,-40.01 254.67,-46.98"/>
</g>
<!-- Node74 -->
<g id="node7" class="node">
<title>Node74</title>
<g id="a_node7"><a xlink:href="gmres_8f.html#a377d8578c6ccd4fddffb699c7a18f603" target="_top" xlink:title=" ">
<polygon fill="white" stroke="black" points="161,-0.5 161,-19.5 229,-19.5 229,-0.5 161,-0.5"/>
<text text-anchor="middle" x="195" y="-7.5" font-family="Helvetica,sans-Serif" font-size="10.00">hmh_gmres</text>
</a>
</g>
</g>
<!-- Node4&#45;&gt;Node74 -->
<g id="edge6" class="edge">
<title>Node4&#45;&gt;Node74</title>
<path fill="none" stroke="midnightblue" d="M264.75,-34.88C250.87,-29.86 235.29,-24.22 222.49,-19.59"/>
<polygon fill="midnightblue" stroke="midnightblue" points="263.91,-38.3 274.5,-38.41 266.29,-31.72 263.91,-38.3"/>
</g>
<!-- Node6 -->
<g id="node6" class="node">
<title>Node6</title>
<g id="a_node6"><a xlink:href="hmholtz_8f.html#a52dcac1fe733719d4987d36aac022e4d" target="_top" xlink:title=" ">
<polygon fill="white" stroke="red" points="0,-19.5 0,-38.5 51,-38.5 51,-19.5 0,-19.5"/>
<text text-anchor="middle" x="25.5" y="-26.5" font-family="Helvetica,sans-Serif" font-size="10.00">hmholtz</text>
</a>
</g>
</g>
<!-- Node5&#45;&gt;Node6 -->
<g id="edge5" class="edge">
<title>Node5&#45;&gt;Node6</title>
<path fill="none" stroke="midnightblue" d="M76.71,-29C68.35,-29 59.26,-29 51.15,-29"/>
<polygon fill="midnightblue" stroke="midnightblue" points="76.79,-32.5 86.79,-29 76.79,-25.5 76.79,-32.5"/>
</g>
<!-- Node74&#45;&gt;Node5 -->
<g id="edge7" class="edge">
<title>Node74&#45;&gt;Node5</title>
<path fill="none" stroke="midnightblue" d="M150.83,-19.43C141.74,-21.41 132.63,-23.4 125.09,-25.05"/>
<polygon fill="midnightblue" stroke="midnightblue" points="151.59,-22.84 160.61,-17.29 150.1,-16.01 151.59,-22.84"/>
</g>
<!-- Node76 -->
<g id="node9" class="node">
<title>Node76</title>
<g id="a_node9"><a xlink:href="subs1_8f.html#afbde33b8466b90206f1fa13b3800b7d5" target="_top" xlink:title=" ">
<polygon fill="white" stroke="red" points="172,-76.5 172,-95.5 218,-95.5 218,-76.5 172,-76.5"/>
<text text-anchor="middle" x="195" y="-83.5" font-family="Helvetica,sans-Serif" font-size="10.00">cggosf</text>
</a>
</g>
</g>
<!-- Node75&#45;&gt;Node76 -->
<g id="edge9" class="edge">
<title>Node75&#45;&gt;Node76</title>
<path fill="none" stroke="midnightblue" d="M265.43,-86C249.75,-86 231.81,-86 218.09,-86"/>
<polygon fill="midnightblue" stroke="midnightblue" points="265.85,-89.5 275.85,-86 265.85,-82.5 265.85,-89.5"/>
</g>
<!-- Node81&#45;&gt;Node4 -->
<g id="edge11" class="edge">
<title>Node81&#45;&gt;Node4</title>
<path fill="none" stroke="midnightblue" d="M364.64,-48C355.98,-48 347.33,-48 339.37,-48"/>
<polygon fill="midnightblue" stroke="midnightblue" points="364.77,-51.5 374.77,-48 364.77,-44.5 364.77,-51.5"/>
</g>
<!-- Node81&#45;&gt;Node75 -->
<g id="edge12" class="edge">
<title>Node81&#45;&gt;Node75</title>
<path fill="none" stroke="midnightblue" d="M386.01,-60.56C366.85,-66.43 344.65,-73.23 328.04,-78.33"/>
<polygon fill="midnightblue" stroke="midnightblue" points="387.17,-63.87 395.71,-57.59 385.12,-57.17 387.17,-63.87"/>
</g>
</g>
</svg>
