<?xml version="1.0" encoding="UTF-8" standalone="no"?>
<!DOCTYPE svg PUBLIC "-//W3C//DTD SVG 1.1//EN"
 "http://www.w3.org/Graphics/SVG/1.1/DTD/svg11.dtd">
<!-- Generated by graphviz version 2.46.0 (0)
 -->
<!-- Title: local_err_est Pages: 1 -->
<svg width="421pt" height="104pt"
 viewBox="0.00 0.00 421.00 104.00" xmlns="http://www.w3.org/2000/svg" xmlns:xlink="http://www.w3.org/1999/xlink">
<g id="graph0" class="graph" transform="scale(1 1) rotate(0) translate(4 100)">
<title>local_err_est</title>
<polygon fill="white" stroke="transparent" points="-4,4 -4,-100 417,-100 417,4 -4,4"/>
<!-- Node1 -->
<g id="node1" class="node">
<title>Node1</title>
<g id="a_node1"><a xlink:title=" ">
<polygon fill="#bfbfbf" stroke="black" points="0,-38.5 0,-57.5 72,-57.5 72,-38.5 0,-38.5"/>
<text text-anchor="middle" x="36" y="-45.5" font-family="Helvetica,sans-Serif" font-size="10.00">local_err_est</text>
</a>
</g>
</g>
<!-- Node2 -->
<g id="node2" class="node">
<title>Node2</title>
<g id="a_node2"><a xlink:href="math_8f.html#af44de42b023a4a68cd98ea341204342d" target="_top" xlink:title=" ">
<polygon fill="white" stroke="black" points="111,-76.5 111,-95.5 149,-95.5 149,-76.5 111,-76.5"/>
<text text-anchor="middle" x="130" y="-83.5" font-family="Helvetica,sans-Serif" font-size="10.00">rzero</text>
</a>
</g>
</g>
<!-- Node1&#45;&gt;Node2 -->
<g id="edge1" class="edge">
<title>Node1&#45;&gt;Node2</title>
<path fill="none" stroke="midnightblue" d="M60.22,-57.59C72.69,-62.74 88.15,-69.13 101.25,-74.54"/>
<polygon fill="midnightblue" stroke="midnightblue" points="100.14,-77.87 110.72,-78.45 102.81,-71.4 100.14,-77.87"/>
</g>
<!-- Node3 -->
<g id="node3" class="node">
<title>Node3</title>
<g id="a_node3"><a xlink:href="fasts_8f.html#a1dc2171702fabe2e09c87421de1f0e5d" target="_top" xlink:title=" ">
<polygon fill="white" stroke="black" points="108,-38.5 108,-57.5 152,-57.5 152,-38.5 108,-38.5"/>
<text text-anchor="middle" x="130" y="-45.5" font-family="Helvetica,sans-Serif" font-size="10.00">tensr3</text>
</a>
</g>
</g>
<!-- Node1&#45;&gt;Node3 -->
<g id="edge2" class="edge">
<title>Node1&#45;&gt;Node3</title>
<path fill="none" stroke="midnightblue" d="M72.04,-48C80.54,-48 89.57,-48 97.87,-48"/>
<polygon fill="midnightblue" stroke="midnightblue" points="97.91,-51.5 107.91,-48 97.91,-44.5 97.91,-51.5"/>
</g>
<!-- Node7 -->
<g id="node7" class="node">
<title>Node7</title>
<g id="a_node7"><a xlink:href="math_8f.html#ab07e2f3ed4f12e1651e80df2497ffaa2" target="_top" xlink:title=" ">
<polygon fill="white" stroke="black" points="110,-0.5 110,-19.5 150,-19.5 150,-0.5 110,-0.5"/>
<text text-anchor="middle" x="130" y="-7.5" font-family="Helvetica,sans-Serif" font-size="10.00">vlsc2</text>
</a>
</g>
</g>
<!-- Node1&#45;&gt;Node7 -->
<g id="edge6" class="edge">
<title>Node1&#45;&gt;Node7</title>
<path fill="none" stroke="midnightblue" d="M60.22,-38.41C72.43,-33.37 87.52,-27.13 100.44,-21.79"/>
<polygon fill="midnightblue" stroke="midnightblue" points="101.92,-24.97 109.83,-17.92 99.25,-18.5 101.92,-24.97"/>
</g>
<!-- Node4 -->
<g id="node4" class="node">
<title>Node4</title>
<g id="a_node4"><a xlink:href="byte_8c.html#a2da8eeb074dfd3ffbfb3e9a4d301cda4" target="_top" xlink:title=" ">
<polygon fill="white" stroke="black" points="188,-38.5 188,-57.5 223,-57.5 223,-38.5 188,-38.5"/>
<text text-anchor="middle" x="205.5" y="-45.5" font-family="Helvetica,sans-Serif" font-size="10.00">exitt</text>
</a>
</g>
</g>
<!-- Node3&#45;&gt;Node4 -->
<g id="edge3" class="edge">
<title>Node3&#45;&gt;Node4</title>
<path fill="none" stroke="midnightblue" d="M152.26,-48C160.25,-48 169.43,-48 177.85,-48"/>
<polygon fill="midnightblue" stroke="midnightblue" points="177.96,-51.5 187.96,-48 177.96,-44.5 177.96,-51.5"/>
</g>
<!-- Node5 -->
<g id="node5" class="node">
<title>Node5</title>
<g id="a_node5"><a xlink:href="comm__mpi_8f.html#acc8803a3787828530843112e0c48941b" target="_top" xlink:title=" ">
<polygon fill="white" stroke="black" points="259,-38.5 259,-57.5 309,-57.5 309,-38.5 259,-38.5"/>
<text text-anchor="middle" x="284" y="-45.5" font-family="Helvetica,sans-Serif" font-size="10.00">nek_die</text>
</a>
</g>
</g>
<!-- Node4&#45;&gt;Node5 -->
<g id="edge4" class="edge">
<title>Node4&#45;&gt;Node5</title>
<path fill="none" stroke="midnightblue" d="M223.1,-48C230.62,-48 239.8,-48 248.69,-48"/>
<polygon fill="midnightblue" stroke="midnightblue" points="248.88,-51.5 258.88,-48 248.88,-44.5 248.88,-51.5"/>
</g>
<!-- Node6 -->
<g id="node6" class="node">
<title>Node6</title>
<g id="a_node6"><a xlink:href="mpi__dummy_8f.html#a55e9a1619aadb638b14211ce21d7d566" target="_top" xlink:title=" ">
<polygon fill="white" stroke="black" points="345,-38.5 345,-57.5 413,-57.5 413,-38.5 345,-38.5"/>
<text text-anchor="middle" x="379" y="-45.5" font-family="Helvetica,sans-Serif" font-size="10.00">mpi_finalize</text>
</a>
</g>
</g>
<!-- Node5&#45;&gt;Node6 -->
<g id="edge5" class="edge">
<title>Node5&#45;&gt;Node6</title>
<path fill="none" stroke="midnightblue" d="M309.43,-48C317.25,-48 326.14,-48 334.88,-48"/>
<polygon fill="midnightblue" stroke="midnightblue" points="334.99,-51.5 344.99,-48 334.99,-44.5 334.99,-51.5"/>
</g>
</g>
</svg>
