<?xml version="1.0" encoding="UTF-8" standalone="no"?>
<!DOCTYPE svg PUBLIC "-//W3C//DTD SVG 1.1//EN"
 "http://www.w3.org/Graphics/SVG/1.1/DTD/svg11.dtd">
<!-- Generated by graphviz version 2.46.0 (0)
 -->
<!-- Title: irank_vecn Pages: 1 -->
<svg width="246pt" height="47pt"
 viewBox="0.00 0.00 246.00 47.00" xmlns="http://www.w3.org/2000/svg" xmlns:xlink="http://www.w3.org/1999/xlink">
<g id="graph0" class="graph" transform="scale(1 1) rotate(0) translate(4 43)">
<title>irank_vecn</title>
<polygon fill="white" stroke="transparent" points="-4,4 -4,-43 242,-43 242,4 -4,4"/>
<!-- Node1 -->
<g id="node1" class="node">
<title>Node1</title>
<g id="a_node1"><a xlink:title=" ">
<polygon fill="#bfbfbf" stroke="black" points="0,-19.5 0,-38.5 64,-38.5 64,-19.5 0,-19.5"/>
<text text-anchor="middle" x="32" y="-26.5" font-family="Helvetica,sans-Serif" font-size="10.00">irank_vecn</text>
</a>
</g>
</g>
<!-- Node2 -->
<g id="node2" class="node">
<title>Node2</title>
<g id="a_node2"><a xlink:href="math_8f.html#a1e85d2406444243269f0d85c61a02dce" target="_top" xlink:title=" ">
<polygon fill="white" stroke="black" points="198,-19.5 198,-38.5 238,-38.5 238,-19.5 198,-19.5"/>
<text text-anchor="middle" x="218" y="-26.5" font-family="Helvetica,sans-Serif" font-size="10.00">icopy</text>
</a>
</g>
</g>
<!-- Node1&#45;&gt;Node2 -->
<g id="edge1" class="edge">
<title>Node1&#45;&gt;Node2</title>
<path fill="none" stroke="midnightblue" d="M64.21,-29C98.72,-29 153.89,-29 187.64,-29"/>
<polygon fill="midnightblue" stroke="midnightblue" points="187.79,-32.5 197.79,-29 187.79,-25.5 187.79,-32.5"/>
</g>
<!-- Node3 -->
<g id="node3" class="node">
<title>Node3</title>
<g id="a_node3"><a xlink:href="navier8_8f.html#adcc31cd78dd8ff5e821a590c916e4506" target="_top" xlink:title=" ">
<polygon fill="white" stroke="black" points="100,-0.5 100,-19.5 162,-19.5 162,-0.5 100,-0.5"/>
<text text-anchor="middle" x="131" y="-7.5" font-family="Helvetica,sans-Serif" font-size="10.00">ituple_sort</text>
</a>
</g>
</g>
<!-- Node1&#45;&gt;Node3 -->
<g id="edge2" class="edge">
<title>Node1&#45;&gt;Node3</title>
<path fill="none" stroke="midnightblue" d="M64.23,-22.88C72.43,-21.28 81.38,-19.52 89.98,-17.84"/>
<polygon fill="midnightblue" stroke="midnightblue" points="90.69,-21.27 99.83,-15.91 89.34,-14.4 90.69,-21.27"/>
</g>
<!-- Node3&#45;&gt;Node2 -->
<g id="edge3" class="edge">
<title>Node3&#45;&gt;Node2</title>
<path fill="none" stroke="midnightblue" d="M162.21,-16.75C170.53,-18.61 179.54,-20.63 187.8,-22.47"/>
<polygon fill="midnightblue" stroke="midnightblue" points="187.24,-25.93 197.76,-24.7 188.76,-19.1 187.24,-25.93"/>
</g>
</g>
</svg>
