<?xml version="1.0" encoding="UTF-8" standalone="no"?>
<!DOCTYPE svg PUBLIC "-//W3C//DTD SVG 1.1//EN"
 "http://www.w3.org/Graphics/SVG/1.1/DTD/svg11.dtd">
<!-- Generated by graphviz version 2.46.0 (0)
 -->
<!-- Title: conv1d Pages: 1 -->
<svg width="324pt" height="180pt"
 viewBox="0.00 0.00 324.00 180.00" xmlns="http://www.w3.org/2000/svg" xmlns:xlink="http://www.w3.org/1999/xlink">
<g id="graph0" class="graph" transform="scale(1 1) rotate(0) translate(4 176)">
<title>conv1d</title>
<polygon fill="white" stroke="transparent" points="-4,4 -4,-176 320,-176 320,4 -4,4"/>
<!-- Node1 -->
<g id="node1" class="node">
<title>Node1</title>
<g id="a_node1"><a xlink:title=" ">
<polygon fill="#bfbfbf" stroke="black" points="0,-76.5 0,-95.5 48,-95.5 48,-76.5 0,-76.5"/>
<text text-anchor="middle" x="24" y="-83.5" font-family="Helvetica,sans-Serif" font-size="10.00">conv1d</text>
</a>
</g>
</g>
<!-- Node2 -->
<g id="node2" class="node">
<title>Node2</title>
<g id="a_node2"><a xlink:href="math_8f.html#a1f336314da3012286837ede20a0495c6" target="_top" xlink:title=" ">
<polygon fill="white" stroke="black" points="168.5,-114.5 168.5,-133.5 218.5,-133.5 218.5,-114.5 168.5,-114.5"/>
<text text-anchor="middle" x="193.5" y="-121.5" font-family="Helvetica,sans-Serif" font-size="10.00">addcol3</text>
</a>
</g>
</g>
<!-- Node1&#45;&gt;Node2 -->
<g id="edge1" class="edge">
<title>Node1&#45;&gt;Node2</title>
<path fill="none" stroke="midnightblue" d="M48.05,-94.24C58.86,-97.89 71.99,-102.03 84,-105 108.57,-111.08 136.73,-115.95 158.21,-119.24"/>
<polygon fill="midnightblue" stroke="midnightblue" points="157.76,-122.71 168.17,-120.72 158.79,-115.79 157.76,-122.71"/>
</g>
<!-- Node5 -->
<g id="node4" class="node">
<title>Node5</title>
<g id="a_node4"><a xlink:href="math_8f.html#a0d9af374781723c272547a185cb3da5e" target="_top" xlink:title=" ">
<polygon fill="white" stroke="black" points="90.5,-152.5 90.5,-171.5 125.5,-171.5 125.5,-152.5 90.5,-152.5"/>
<text text-anchor="middle" x="108" y="-159.5" font-family="Helvetica,sans-Serif" font-size="10.00">col3</text>
</a>
</g>
</g>
<!-- Node1&#45;&gt;Node5 -->
<g id="edge3" class="edge">
<title>Node1&#45;&gt;Node5</title>
<path fill="none" stroke="midnightblue" d="M35.39,-95.63C48.94,-108.19 72.87,-130.37 89.31,-145.6"/>
<polygon fill="midnightblue" stroke="midnightblue" points="86.99,-148.22 96.7,-152.45 91.74,-143.09 86.99,-148.22"/>
</g>
<!-- Node6 -->
<g id="node5" class="node">
<title>Node6</title>
<g id="a_node5"><a xlink:href="navier1_8f.html#aee3ef7096c2b505346f996daf6cf6cd3" target="_top" xlink:title=" ">
<polygon fill="white" stroke="black" points="84,-76.5 84,-95.5 132,-95.5 132,-76.5 84,-76.5"/>
<text text-anchor="middle" x="108" y="-83.5" font-family="Helvetica,sans-Serif" font-size="10.00">dudxyz</text>
</a>
</g>
</g>
<!-- Node1&#45;&gt;Node6 -->
<g id="edge5" class="edge">
<title>Node1&#45;&gt;Node6</title>
<path fill="none" stroke="midnightblue" d="M48.28,-86C56.22,-86 65.27,-86 73.84,-86"/>
<polygon fill="midnightblue" stroke="midnightblue" points="73.95,-89.5 83.95,-86 73.95,-82.5 73.95,-89.5"/>
</g>
<!-- Node10 -->
<g id="node8" class="node">
<title>Node10</title>
<g id="a_node8"><a xlink:href="navier1_8f.html#aa1359ec8216b3e1a34ae938d074e8a1b" target="_top" xlink:title=" ">
<polygon fill="white" stroke="red" points="86.5,-38.5 86.5,-57.5 129.5,-57.5 129.5,-38.5 86.5,-38.5"/>
<text text-anchor="middle" x="108" y="-45.5" font-family="Helvetica,sans-Serif" font-size="10.00">mapw</text>
</a>
</g>
</g>
<!-- Node1&#45;&gt;Node10 -->
<g id="edge10" class="edge">
<title>Node1&#45;&gt;Node10</title>
<path fill="none" stroke="midnightblue" d="M45.69,-76.41C55.21,-72 66.68,-66.69 77.11,-61.85"/>
<polygon fill="midnightblue" stroke="midnightblue" points="78.71,-64.97 86.31,-57.59 75.77,-58.62 78.71,-64.97"/>
</g>
<!-- Node31 -->
<g id="node10" class="node">
<title>Node31</title>
<g id="a_node10"><a xlink:href="navier1_8f.html#af66b0da5eb394cfc625e8099738e70a7" target="_top" xlink:title=" ">
<polygon fill="white" stroke="red" points="84,-0.5 84,-19.5 132,-19.5 132,-0.5 84,-0.5"/>
<text text-anchor="middle" x="108" y="-7.5" font-family="Helvetica,sans-Serif" font-size="10.00">mapwp</text>
</a>
</g>
</g>
<!-- Node1&#45;&gt;Node31 -->
<g id="edge12" class="edge">
<title>Node1&#45;&gt;Node31</title>
<path fill="none" stroke="midnightblue" d="M34.39,-76.49C45.85,-64.98 65.95,-45.13 84,-29 84.96,-28.15 85.94,-27.28 86.94,-26.41"/>
<polygon fill="midnightblue" stroke="midnightblue" points="89.29,-29.01 94.68,-19.88 84.78,-23.66 89.29,-29.01"/>
</g>
<!-- Node3 -->
<g id="node3" class="node">
<title>Node3</title>
<g id="a_node3"><a xlink:href="comm__mpi_8f.html#af06ec29f06aac3f8809e19de2a7e8946" target="_top" xlink:title=" ">
<polygon fill="white" stroke="red" points="255,-114.5 255,-133.5 316,-133.5 316,-114.5 255,-114.5"/>
<text text-anchor="middle" x="285.5" y="-121.5" font-family="Helvetica,sans-Serif" font-size="10.00">dnekclock</text>
</a>
</g>
</g>
<!-- Node2&#45;&gt;Node3 -->
<g id="edge2" class="edge">
<title>Node2&#45;&gt;Node3</title>
<path fill="none" stroke="midnightblue" d="M218.62,-124C226.63,-124 235.77,-124 244.64,-124"/>
<polygon fill="midnightblue" stroke="midnightblue" points="244.85,-127.5 254.85,-124 244.85,-120.5 244.85,-127.5"/>
</g>
<!-- Node5&#45;&gt;Node3 -->
<g id="edge4" class="edge">
<title>Node5&#45;&gt;Node3</title>
<path fill="none" stroke="midnightblue" d="M125.51,-159.73C147.13,-156.63 186.14,-150.58 219,-143 227.46,-141.05 236.44,-138.66 244.96,-136.24"/>
<polygon fill="midnightblue" stroke="midnightblue" points="246.06,-139.56 254.68,-133.41 244.1,-132.84 246.06,-139.56"/>
</g>
<!-- Node6&#45;&gt;Node2 -->
<g id="edge6" class="edge">
<title>Node6&#45;&gt;Node2</title>
<path fill="none" stroke="midnightblue" d="M130.07,-95.59C139.76,-100 151.44,-105.31 162.06,-110.15"/>
<polygon fill="midnightblue" stroke="midnightblue" points="160.88,-113.46 171.44,-114.41 163.78,-107.09 160.88,-113.46"/>
</g>
<!-- Node7 -->
<g id="node6" class="node">
<title>Node7</title>
<g id="a_node6"><a xlink:href="math_8f.html#a3470db04166d9ba91454a14cc17dbec2" target="_top" xlink:title=" ">
<polygon fill="white" stroke="black" points="176,-38.5 176,-57.5 211,-57.5 211,-38.5 176,-38.5"/>
<text text-anchor="middle" x="193.5" y="-45.5" font-family="Helvetica,sans-Serif" font-size="10.00">col2</text>
</a>
</g>
</g>
<!-- Node6&#45;&gt;Node7 -->
<g id="edge7" class="edge">
<title>Node6&#45;&gt;Node7</title>
<path fill="none" stroke="midnightblue" d="M130.07,-76.41C141.17,-71.36 154.87,-65.12 166.61,-59.78"/>
<polygon fill="midnightblue" stroke="midnightblue" points="168.26,-62.88 175.91,-55.55 165.36,-56.51 168.26,-62.88"/>
</g>
<!-- Node8 -->
<g id="node7" class="node">
<title>Node8</title>
<g id="a_node7"><a xlink:href="subs1_8f.html#a8a9da5a10943bfb2176353bd597f87ce" target="_top" xlink:title=" ">
<polygon fill="white" stroke="red" points="168,-76.5 168,-95.5 219,-95.5 219,-76.5 168,-76.5"/>
<text text-anchor="middle" x="193.5" y="-83.5" font-family="Helvetica,sans-Serif" font-size="10.00">setaxdy</text>
</a>
</g>
</g>
<!-- Node6&#45;&gt;Node8 -->
<g id="edge9" class="edge">
<title>Node6&#45;&gt;Node8</title>
<path fill="none" stroke="midnightblue" d="M132.26,-86C140.15,-86 149.14,-86 157.73,-86"/>
<polygon fill="midnightblue" stroke="midnightblue" points="157.91,-89.5 167.91,-86 157.91,-82.5 157.91,-89.5"/>
</g>
<!-- Node7&#45;&gt;Node3 -->
<g id="edge8" class="edge">
<title>Node7&#45;&gt;Node3</title>
<path fill="none" stroke="midnightblue" d="M207.07,-57.53C210.93,-60.52 215.17,-63.86 219,-67 235.05,-80.19 252.8,-95.7 265.77,-107.2"/>
<polygon fill="midnightblue" stroke="midnightblue" points="263.74,-110.09 273.54,-114.12 268.4,-104.86 263.74,-110.09"/>
</g>
<!-- Node11 -->
<g id="node9" class="node">
<title>Node11</title>
<g id="a_node9"><a xlink:href="navier1_8f.html#a9cf22f4fc159530c6bf3a970b2443ab6" target="_top" xlink:title=" ">
<polygon fill="white" stroke="red" points="169,-0.5 169,-19.5 218,-19.5 218,-0.5 169,-0.5"/>
<text text-anchor="middle" x="193.5" y="-7.5" font-family="Helvetica,sans-Serif" font-size="10.00">setmap</text>
</a>
</g>
</g>
<!-- Node10&#45;&gt;Node11 -->
<g id="edge11" class="edge">
<title>Node10&#45;&gt;Node11</title>
<path fill="none" stroke="midnightblue" d="M129.64,-38.61C139.5,-34.12 151.49,-28.66 162.35,-23.72"/>
<polygon fill="midnightblue" stroke="midnightblue" points="163.86,-26.88 171.52,-19.55 160.97,-20.51 163.86,-26.88"/>
</g>
</g>
</svg>
