<?xml version="1.0" encoding="UTF-8" standalone="no"?>
<!DOCTYPE svg PUBLIC "-//W3C//DTD SVG 1.1//EN"
 "http://www.w3.org/Graphics/SVG/1.1/DTD/svg11.dtd">
<!-- Generated by graphviz version 2.46.0 (0)
 -->
<!-- Title: explstrs Pages: 1 -->
<svg width="489pt" height="142pt"
 viewBox="0.00 0.00 489.00 142.00" xmlns="http://www.w3.org/2000/svg" xmlns:xlink="http://www.w3.org/1999/xlink">
<g id="graph0" class="graph" transform="scale(1 1) rotate(0) translate(4 138)">
<title>explstrs</title>
<polygon fill="white" stroke="transparent" points="-4,4 -4,-138 485,-138 485,4 -4,4"/>
<!-- Node1 -->
<g id="node1" class="node">
<title>Node1</title>
<g id="a_node1"><a xlink:title=" ">
<polygon fill="#bfbfbf" stroke="black" points="0,-57.5 0,-76.5 51,-76.5 51,-57.5 0,-57.5"/>
<text text-anchor="middle" x="25.5" y="-64.5" font-family="Helvetica,sans-Serif" font-size="10.00">explstrs</text>
</a>
</g>
</g>
<!-- Node2 -->
<g id="node2" class="node">
<title>Node2</title>
<g id="a_node2"><a xlink:href="navier1_8f.html#a4a8bc3b0fab2bbadf9a1099eb148c74d" target="_top" xlink:title=" ">
<polygon fill="white" stroke="black" points="87,-57.5 87,-76.5 154,-76.5 154,-57.5 87,-57.5"/>
<text text-anchor="middle" x="120.5" y="-64.5" font-family="Helvetica,sans-Serif" font-size="10.00">expl_strs_e</text>
</a>
</g>
</g>
<!-- Node1&#45;&gt;Node2 -->
<g id="edge1" class="edge">
<title>Node1&#45;&gt;Node2</title>
<path fill="none" stroke="midnightblue" d="M51.42,-67C59.23,-67 68.09,-67 76.77,-67"/>
<polygon fill="midnightblue" stroke="midnightblue" points="76.8,-70.5 86.8,-67 76.8,-63.5 76.8,-70.5"/>
</g>
<!-- Node3 -->
<g id="node3" class="node">
<title>Node3</title>
<g id="a_node3"><a xlink:href="navier1_8f.html#aacfe29cc810b300b4d17287893d32bdd" target="_top" xlink:title=" ">
<polygon fill="white" stroke="black" points="190,-76.5 190,-95.5 273,-95.5 273,-76.5 190,-76.5"/>
<text text-anchor="middle" x="231.5" y="-83.5" font-family="Helvetica,sans-Serif" font-size="10.00">expl_strs_e_2d</text>
</a>
</g>
</g>
<!-- Node2&#45;&gt;Node3 -->
<g id="edge2" class="edge">
<title>Node2&#45;&gt;Node3</title>
<path fill="none" stroke="midnightblue" d="M154.2,-72.7C162.23,-74.1 171,-75.63 179.66,-77.14"/>
<polygon fill="midnightblue" stroke="midnightblue" points="179.25,-80.62 189.71,-78.89 180.46,-73.72 179.25,-80.62"/>
</g>
<!-- Node36 -->
<g id="node10" class="node">
<title>Node36</title>
<g id="a_node10"><a xlink:href="navier1_8f.html#aac43166944d00ed18c90907aec3422b4" target="_top" xlink:title=" ">
<polygon fill="white" stroke="black" points="190,-38.5 190,-57.5 273,-57.5 273,-38.5 190,-38.5"/>
<text text-anchor="middle" x="231.5" y="-45.5" font-family="Helvetica,sans-Serif" font-size="10.00">expl_strs_e_3d</text>
</a>
</g>
</g>
<!-- Node2&#45;&gt;Node36 -->
<g id="edge10" class="edge">
<title>Node2&#45;&gt;Node36</title>
<path fill="none" stroke="midnightblue" d="M154.2,-61.3C162.23,-59.9 171,-58.37 179.66,-56.86"/>
<polygon fill="midnightblue" stroke="midnightblue" points="180.46,-60.28 189.71,-55.11 179.25,-53.38 180.46,-60.28"/>
</g>
<!-- Node4 -->
<g id="node4" class="node">
<title>Node4</title>
<g id="a_node4"><a xlink:href="navier1_8f.html#a1147a11d5eb5389f0622e7c6d42ae62d" target="_top" xlink:title=" ">
<polygon fill="white" stroke="black" points="313,-38.5 313,-57.5 367,-57.5 367,-38.5 313,-38.5"/>
<text text-anchor="middle" x="340" y="-45.5" font-family="Helvetica,sans-Serif" font-size="10.00">gradl_rst</text>
</a>
</g>
</g>
<!-- Node3&#45;&gt;Node4 -->
<g id="edge3" class="edge">
<title>Node3&#45;&gt;Node4</title>
<path fill="none" stroke="midnightblue" d="M259.37,-76.41C272.69,-71.66 288.95,-65.86 303.3,-60.74"/>
<polygon fill="midnightblue" stroke="midnightblue" points="304.63,-63.98 312.87,-57.32 302.28,-57.39 304.63,-63.98"/>
</g>
<!-- Node30 -->
<g id="node8" class="node">
<title>Node30</title>
<g id="a_node8"><a xlink:href="navier1_8f.html#a568a9bc84b80e4f55791654b22bdbb8d" target="_top" xlink:title=" ">
<polygon fill="white" stroke="red" points="309,-76.5 309,-95.5 371,-95.5 371,-76.5 309,-76.5"/>
<text text-anchor="middle" x="340" y="-83.5" font-family="Helvetica,sans-Serif" font-size="10.00">gradl_rst_t</text>
</a>
</g>
</g>
<!-- Node3&#45;&gt;Node30 -->
<g id="edge7" class="edge">
<title>Node3&#45;&gt;Node30</title>
<path fill="none" stroke="midnightblue" d="M273.07,-86C281.42,-86 290.21,-86 298.55,-86"/>
<polygon fill="midnightblue" stroke="midnightblue" points="298.82,-89.5 308.82,-86 298.82,-82.5 298.82,-89.5"/>
</g>
<!-- Node5 -->
<g id="node5" class="node">
<title>Node5</title>
<g id="a_node5"><a xlink:href="navier1_8f.html#a2149a2185d9fe9a7d8da1353550cb307" target="_top" xlink:title=" ">
<polygon fill="white" stroke="red" points="410.5,-76.5 410.5,-95.5 477.5,-95.5 477.5,-76.5 410.5,-76.5"/>
<text text-anchor="middle" x="444" y="-83.5" font-family="Helvetica,sans-Serif" font-size="10.00">get_dgll_ptr</text>
</a>
</g>
</g>
<!-- Node4&#45;&gt;Node5 -->
<g id="edge4" class="edge">
<title>Node4&#45;&gt;Node5</title>
<path fill="none" stroke="midnightblue" d="M366.74,-57.59C379.18,-62.22 394.31,-67.86 407.8,-72.89"/>
<polygon fill="midnightblue" stroke="midnightblue" points="406.68,-76.2 417.27,-76.41 409.12,-69.64 406.68,-76.2"/>
</g>
<!-- Node28 -->
<g id="node6" class="node">
<title>Node28</title>
<g id="a_node6"><a xlink:href="navier5_8f.html#a53feb767cebebba399ab3c5a50f53155" target="_top" xlink:title=" ">
<polygon fill="white" stroke="black" points="411,-38.5 411,-57.5 477,-57.5 477,-38.5 411,-38.5"/>
<text text-anchor="middle" x="444" y="-45.5" font-family="Helvetica,sans-Serif" font-size="10.00">local_grad2</text>
</a>
</g>
</g>
<!-- Node4&#45;&gt;Node28 -->
<g id="edge5" class="edge">
<title>Node4&#45;&gt;Node28</title>
<path fill="none" stroke="midnightblue" d="M367,-48C377.22,-48 389.21,-48 400.6,-48"/>
<polygon fill="midnightblue" stroke="midnightblue" points="400.84,-51.5 410.84,-48 400.84,-44.5 400.84,-51.5"/>
</g>
<!-- Node29 -->
<g id="node7" class="node">
<title>Node29</title>
<g id="a_node7"><a xlink:href="navier5_8f.html#ad24367e4a843f60b63a2205aef1ba551" target="_top" xlink:title=" ">
<polygon fill="white" stroke="black" points="411,-0.5 411,-19.5 477,-19.5 477,-0.5 411,-0.5"/>
<text text-anchor="middle" x="444" y="-7.5" font-family="Helvetica,sans-Serif" font-size="10.00">local_grad3</text>
</a>
</g>
</g>
<!-- Node4&#45;&gt;Node29 -->
<g id="edge6" class="edge">
<title>Node4&#45;&gt;Node29</title>
<path fill="none" stroke="midnightblue" d="M366.74,-38.41C379.18,-33.78 394.31,-28.14 407.8,-23.11"/>
<polygon fill="midnightblue" stroke="midnightblue" points="409.12,-26.36 417.27,-19.59 406.68,-19.8 409.12,-26.36"/>
</g>
<!-- Node30&#45;&gt;Node5 -->
<g id="edge8" class="edge">
<title>Node30&#45;&gt;Node5</title>
<path fill="none" stroke="midnightblue" d="M371.05,-86C380.21,-86 390.46,-86 400.29,-86"/>
<polygon fill="midnightblue" stroke="midnightblue" points="400.31,-89.5 410.31,-86 400.31,-82.5 400.31,-89.5"/>
</g>
<!-- Node31 -->
<g id="node9" class="node">
<title>Node31</title>
<g id="a_node9"><a xlink:href="navier1_8f.html#ae908e5bde6b07e75595edf098842ff9d" target="_top" xlink:title=" ">
<polygon fill="white" stroke="red" points="407,-114.5 407,-133.5 481,-133.5 481,-114.5 407,-114.5"/>
<text text-anchor="middle" x="444" y="-121.5" font-family="Helvetica,sans-Serif" font-size="10.00">local_grad2_t</text>
</a>
</g>
</g>
<!-- Node30&#45;&gt;Node31 -->
<g id="edge9" class="edge">
<title>Node30&#45;&gt;Node31</title>
<path fill="none" stroke="midnightblue" d="M366.74,-95.59C379.18,-100.22 394.31,-105.86 407.8,-110.89"/>
<polygon fill="midnightblue" stroke="midnightblue" points="406.68,-114.2 417.27,-114.41 409.12,-107.64 406.68,-114.2"/>
</g>
<!-- Node36&#45;&gt;Node4 -->
<g id="edge11" class="edge">
<title>Node36&#45;&gt;Node4</title>
<path fill="none" stroke="midnightblue" d="M273.07,-48C282.72,-48 292.96,-48 302.42,-48"/>
<polygon fill="midnightblue" stroke="midnightblue" points="302.7,-51.5 312.7,-48 302.7,-44.5 302.7,-51.5"/>
</g>
<!-- Node36&#45;&gt;Node30 -->
<g id="edge12" class="edge">
<title>Node36&#45;&gt;Node30</title>
<path fill="none" stroke="midnightblue" d="M259.37,-57.59C272.49,-62.27 288.47,-67.97 302.65,-73.03"/>
<polygon fill="midnightblue" stroke="midnightblue" points="301.54,-76.35 312.13,-76.41 303.89,-69.76 301.54,-76.35"/>
</g>
</g>
</svg>
