<?xml version="1.0" encoding="UTF-8" standalone="no"?>
<!DOCTYPE svg PUBLIC "-//W3C//DTD SVG 1.1//EN"
 "http://www.w3.org/Graphics/SVG/1.1/DTD/svg11.dtd">
<!-- Generated by graphviz version 2.46.0 (0)
 -->
<!-- Title: setproj Pages: 1 -->
<svg width="339pt" height="142pt"
 viewBox="0.00 0.00 339.00 142.00" xmlns="http://www.w3.org/2000/svg" xmlns:xlink="http://www.w3.org/1999/xlink">
<g id="graph0" class="graph" transform="scale(1 1) rotate(0) translate(4 138)">
<title>setproj</title>
<polygon fill="white" stroke="transparent" points="-4,4 -4,-138 335,-138 335,4 -4,4"/>
<!-- Node1 -->
<g id="node1" class="node">
<title>Node1</title>
<g id="a_node1"><a xlink:title=" ">
<polygon fill="#bfbfbf" stroke="black" points="0,-57.5 0,-76.5 46,-76.5 46,-57.5 0,-57.5"/>
<text text-anchor="middle" x="23" y="-64.5" font-family="Helvetica,sans-Serif" font-size="10.00">setproj</text>
</a>
</g>
</g>
<!-- Node2 -->
<g id="node2" class="node">
<title>Node2</title>
<g id="a_node2"><a xlink:href="byte_8c.html#a2da8eeb074dfd3ffbfb3e9a4d301cda4" target="_top" xlink:title=" ">
<polygon fill="white" stroke="black" points="94,-114.5 94,-133.5 129,-133.5 129,-114.5 94,-114.5"/>
<text text-anchor="middle" x="111.5" y="-121.5" font-family="Helvetica,sans-Serif" font-size="10.00">exitt</text>
</a>
</g>
</g>
<!-- Node1&#45;&gt;Node2 -->
<g id="edge1" class="edge">
<title>Node1&#45;&gt;Node2</title>
<path fill="none" stroke="midnightblue" d="M38.67,-76.67C52.05,-85.48 72.03,-98.65 87.52,-108.86"/>
<polygon fill="midnightblue" stroke="midnightblue" points="85.77,-111.89 96.04,-114.47 89.62,-106.05 85.77,-111.89"/>
</g>
<!-- Node5 -->
<g id="node5" class="node">
<title>Node5</title>
<g id="a_node5"><a xlink:href="navier1_8f.html#a986bf6b3df40e2507bf713a641fa535f" target="_top" xlink:title=" ">
<polygon fill="white" stroke="black" points="86,-76.5 86,-95.5 137,-95.5 137,-76.5 86,-76.5"/>
<text text-anchor="middle" x="111.5" y="-83.5" font-family="Helvetica,sans-Serif" font-size="10.00">set_pnd</text>
</a>
</g>
</g>
<!-- Node1&#45;&gt;Node5 -->
<g id="edge4" class="edge">
<title>Node1&#45;&gt;Node5</title>
<path fill="none" stroke="midnightblue" d="M46.28,-71.89C55.27,-73.87 65.85,-76.19 75.81,-78.38"/>
<polygon fill="midnightblue" stroke="midnightblue" points="75.34,-81.86 85.86,-80.59 76.85,-75.02 75.34,-81.86"/>
</g>
<!-- Node18 -->
<g id="node8" class="node">
<title>Node18</title>
<g id="a_node8"><a xlink:href="navier1_8f.html#a953b93104eb4b5c889883705199275de" target="_top" xlink:title=" ">
<polygon fill="white" stroke="black" points="82,-38.5 82,-57.5 141,-57.5 141,-38.5 82,-38.5"/>
<text text-anchor="middle" x="111.5" y="-45.5" font-family="Helvetica,sans-Serif" font-size="10.00">set_pndoi</text>
</a>
</g>
</g>
<!-- Node1&#45;&gt;Node18 -->
<g id="edge7" class="edge">
<title>Node1&#45;&gt;Node18</title>
<path fill="none" stroke="midnightblue" d="M46.28,-62.11C54.05,-60.4 63.01,-58.43 71.73,-56.52"/>
<polygon fill="midnightblue" stroke="midnightblue" points="72.75,-59.88 81.76,-54.31 71.25,-53.04 72.75,-59.88"/>
</g>
<!-- Node22 -->
<g id="node10" class="node">
<title>Node22</title>
<g id="a_node10"><a xlink:href="math_8f.html#a17c0ecae12cc5c6096939885da90ad2b" target="_top" xlink:title=" ">
<polygon fill="white" stroke="black" points="82,-0.5 82,-19.5 141,-19.5 141,-0.5 82,-0.5"/>
<text text-anchor="middle" x="111.5" y="-7.5" font-family="Helvetica,sans-Serif" font-size="10.00">transpose</text>
</a>
</g>
</g>
<!-- Node1&#45;&gt;Node22 -->
<g id="edge10" class="edge">
<title>Node1&#45;&gt;Node22</title>
<path fill="none" stroke="midnightblue" d="M38.67,-57.33C52.05,-48.52 72.03,-35.35 87.52,-25.14"/>
<polygon fill="midnightblue" stroke="midnightblue" points="89.62,-27.95 96.04,-19.53 85.77,-22.11 89.62,-27.95"/>
</g>
<!-- Node3 -->
<g id="node3" class="node">
<title>Node3</title>
<g id="a_node3"><a xlink:href="comm__mpi_8f.html#acc8803a3787828530843112e0c48941b" target="_top" xlink:title=" ">
<polygon fill="white" stroke="black" points="177,-114.5 177,-133.5 227,-133.5 227,-114.5 177,-114.5"/>
<text text-anchor="middle" x="202" y="-121.5" font-family="Helvetica,sans-Serif" font-size="10.00">nek_die</text>
</a>
</g>
</g>
<!-- Node2&#45;&gt;Node3 -->
<g id="edge2" class="edge">
<title>Node2&#45;&gt;Node3</title>
<path fill="none" stroke="midnightblue" d="M129.15,-124C139.73,-124 153.83,-124 166.74,-124"/>
<polygon fill="midnightblue" stroke="midnightblue" points="166.74,-127.5 176.74,-124 166.74,-120.5 166.74,-127.5"/>
</g>
<!-- Node4 -->
<g id="node4" class="node">
<title>Node4</title>
<g id="a_node4"><a xlink:href="mpi__dummy_8f.html#a55e9a1619aadb638b14211ce21d7d566" target="_top" xlink:title=" ">
<polygon fill="white" stroke="black" points="263,-114.5 263,-133.5 331,-133.5 331,-114.5 263,-114.5"/>
<text text-anchor="middle" x="297" y="-121.5" font-family="Helvetica,sans-Serif" font-size="10.00">mpi_finalize</text>
</a>
</g>
</g>
<!-- Node3&#45;&gt;Node4 -->
<g id="edge3" class="edge">
<title>Node3&#45;&gt;Node4</title>
<path fill="none" stroke="midnightblue" d="M227.43,-124C235.25,-124 244.14,-124 252.88,-124"/>
<polygon fill="midnightblue" stroke="midnightblue" points="252.99,-127.5 262.99,-124 252.99,-120.5 252.99,-127.5"/>
</g>
<!-- Node6 -->
<g id="node6" class="node">
<title>Node6</title>
<g id="a_node6"><a xlink:href="speclib_8f.html#aa1aef699466ae5e2ced9cbdd09a4f198" target="_top" xlink:title=" ">
<polygon fill="white" stroke="black" points="182,-76.5 182,-95.5 222,-95.5 222,-76.5 182,-76.5"/>
<text text-anchor="middle" x="202" y="-83.5" font-family="Helvetica,sans-Serif" font-size="10.00">pnleg</text>
</a>
</g>
</g>
<!-- Node5&#45;&gt;Node6 -->
<g id="edge5" class="edge">
<title>Node5&#45;&gt;Node6</title>
<path fill="none" stroke="midnightblue" d="M137.15,-86C147.85,-86 160.46,-86 171.64,-86"/>
<polygon fill="midnightblue" stroke="midnightblue" points="171.81,-89.5 181.81,-86 171.81,-82.5 171.81,-89.5"/>
</g>
<!-- Node7 -->
<g id="node7" class="node">
<title>Node7</title>
<g id="a_node7"><a xlink:href="speclib_8f.html#a3788ff93193b0428aad51e76c6ed2e18" target="_top" xlink:title=" ">
<polygon fill="white" stroke="red" points="182.5,-38.5 182.5,-57.5 221.5,-57.5 221.5,-38.5 182.5,-38.5"/>
<text text-anchor="middle" x="202" y="-45.5" font-family="Helvetica,sans-Serif" font-size="10.00">zwgll</text>
</a>
</g>
</g>
<!-- Node5&#45;&gt;Node7 -->
<g id="edge6" class="edge">
<title>Node5&#45;&gt;Node7</title>
<path fill="none" stroke="midnightblue" d="M134.83,-76.41C146.39,-71.45 160.61,-65.34 172.91,-60.06"/>
<polygon fill="midnightblue" stroke="midnightblue" points="174.46,-63.21 182.27,-56.04 171.7,-56.77 174.46,-63.21"/>
</g>
<!-- Node18&#45;&gt;Node7 -->
<g id="edge9" class="edge">
<title>Node18&#45;&gt;Node7</title>
<path fill="none" stroke="midnightblue" d="M141.48,-48C151.33,-48 162.32,-48 172.16,-48"/>
<polygon fill="midnightblue" stroke="midnightblue" points="172.27,-51.5 182.27,-48 172.27,-44.5 172.27,-51.5"/>
</g>
<!-- Node19 -->
<g id="node9" class="node">
<title>Node19</title>
<g id="a_node9"><a xlink:href="speclib_8f.html#ab14f01571bb13d5185f4a8b163c1958a" target="_top" xlink:title=" ">
<polygon fill="white" stroke="red" points="183.5,-0.5 183.5,-19.5 220.5,-19.5 220.5,-0.5 183.5,-0.5"/>
<text text-anchor="middle" x="202" y="-7.5" font-family="Helvetica,sans-Serif" font-size="10.00">igllm</text>
</a>
</g>
</g>
<!-- Node18&#45;&gt;Node19 -->
<g id="edge8" class="edge">
<title>Node18&#45;&gt;Node19</title>
<path fill="none" stroke="midnightblue" d="M134.83,-38.41C146.71,-33.31 161.41,-27 173.93,-21.62"/>
<polygon fill="midnightblue" stroke="midnightblue" points="175.61,-24.71 183.42,-17.55 172.85,-18.28 175.61,-24.71"/>
</g>
</g>
</svg>
