<?xml version="1.0" encoding="UTF-8" standalone="no"?>
<!DOCTYPE svg PUBLIC "-//W3C//DTD SVG 1.1//EN"
 "http://www.w3.org/Graphics/SVG/1.1/DTD/svg11.dtd">
<!-- Generated by graphviz version 2.46.0 (0)
 -->
<!-- Title: opamask Pages: 1 -->
<svg width="495pt" height="142pt"
 viewBox="0.00 0.00 495.00 142.00" xmlns="http://www.w3.org/2000/svg" xmlns:xlink="http://www.w3.org/1999/xlink">
<g id="graph0" class="graph" transform="scale(1 1) rotate(0) translate(4 138)">
<title>opamask</title>
<polygon fill="white" stroke="transparent" points="-4,4 -4,-138 491,-138 491,4 -4,4"/>
<!-- Node1 -->
<g id="node1" class="node">
<title>Node1</title>
<g id="a_node1"><a xlink:title=" ">
<polygon fill="#bfbfbf" stroke="black" points="431,-57.5 431,-76.5 487,-76.5 487,-57.5 431,-57.5"/>
<text text-anchor="middle" x="459" y="-64.5" font-family="Helvetica,sans-Serif" font-size="10.00">opamask</text>
</a>
</g>
</g>
<!-- Node2 -->
<g id="node2" class="node">
<title>Node2</title>
<g id="a_node2"><a xlink:href="navier1_8f.html#a9a81e8c08ce04d9d86d24c396518e583" target="_top" xlink:title=" ">
<polygon fill="white" stroke="black" points="344,-76.5 344,-95.5 395,-95.5 395,-76.5 344,-76.5"/>
<text text-anchor="middle" x="369.5" y="-83.5" font-family="Helvetica,sans-Serif" font-size="10.00">crespuz</text>
</a>
</g>
</g>
<!-- Node1&#45;&gt;Node2 -->
<g id="edge1" class="edge">
<title>Node1&#45;&gt;Node2</title>
<path fill="none" stroke="midnightblue" d="M420.81,-75.08C412.09,-76.97 403.02,-78.94 395.02,-80.68"/>
<polygon fill="midnightblue" stroke="midnightblue" points="421.76,-78.45 430.79,-72.91 420.28,-71.61 421.76,-78.45"/>
</g>
<!-- Node13 -->
<g id="node10" class="node">
<title>Node13</title>
<g id="a_node10"><a xlink:href="navier1_8f.html#aad7333d62628c651dc3056ad2806cb69" target="_top" xlink:title=" ">
<polygon fill="white" stroke="black" points="346.5,-38.5 346.5,-57.5 392.5,-57.5 392.5,-38.5 346.5,-38.5"/>
<text text-anchor="middle" x="369.5" y="-45.5" font-family="Helvetica,sans-Serif" font-size="10.00">makeg</text>
</a>
</g>
</g>
<!-- Node1&#45;&gt;Node13 -->
<g id="edge9" class="edge">
<title>Node1&#45;&gt;Node13</title>
<path fill="none" stroke="midnightblue" d="M421,-58.97C411.38,-56.88 401.3,-54.69 392.7,-52.82"/>
<polygon fill="midnightblue" stroke="midnightblue" points="420.28,-62.39 430.79,-61.09 421.76,-55.55 420.28,-62.39"/>
</g>
<!-- Node3 -->
<g id="node3" class="node">
<title>Node3</title>
<g id="a_node3"><a xlink:href="navier1_8f.html#a23e6343990072aa1a6b17109ccc7ba2b" target="_top" xlink:title=" ">
<polygon fill="white" stroke="black" points="268,-57.5 268,-76.5 308,-76.5 308,-57.5 268,-57.5"/>
<text text-anchor="middle" x="288" y="-64.5" font-family="Helvetica,sans-Serif" font-size="10.00">plan1</text>
</a>
</g>
</g>
<!-- Node2&#45;&gt;Node3 -->
<g id="edge2" class="edge">
<title>Node2&#45;&gt;Node3</title>
<path fill="none" stroke="midnightblue" d="M334.01,-77.76C325.15,-75.64 315.92,-73.43 308.15,-71.58"/>
<polygon fill="midnightblue" stroke="midnightblue" points="333.24,-81.17 343.78,-80.09 334.87,-74.36 333.24,-81.17"/>
</g>
<!-- Node4 -->
<g id="node4" class="node">
<title>Node4</title>
<g id="a_node4"><a xlink:href="drive2_8f.html#ab0aeca9ad3db8be87a01ba29d069d71e" target="_top" xlink:title=" ">
<polygon fill="white" stroke="black" points="197,-57.5 197,-76.5 232,-76.5 232,-57.5 197,-57.5"/>
<text text-anchor="middle" x="214.5" y="-64.5" font-family="Helvetica,sans-Serif" font-size="10.00">fluid</text>
</a>
</g>
</g>
<!-- Node3&#45;&gt;Node4 -->
<g id="edge3" class="edge">
<title>Node3&#45;&gt;Node4</title>
<path fill="none" stroke="midnightblue" d="M257.68,-67C249.03,-67 239.85,-67 232.28,-67"/>
<polygon fill="midnightblue" stroke="midnightblue" points="257.84,-70.5 267.84,-67 257.84,-63.5 257.84,-70.5"/>
</g>
<!-- Node5 -->
<g id="node5" class="node">
<title>Node5</title>
<g id="a_node5"><a xlink:href="ssolv_8f.html#a4bb42a5afabbba8c6518d83cbe481c17" target="_top" xlink:title=" ">
<polygon fill="white" stroke="black" points="98.5,-114.5 98.5,-133.5 149.5,-133.5 149.5,-114.5 98.5,-114.5"/>
<text text-anchor="middle" x="124" y="-121.5" font-family="Helvetica,sans-Serif" font-size="10.00">go1step</text>
</a>
</g>
</g>
<!-- Node4&#45;&gt;Node5 -->
<g id="edge4" class="edge">
<title>Node4&#45;&gt;Node5</title>
<path fill="none" stroke="midnightblue" d="M193.23,-82.7C183.67,-89.83 171.97,-98.18 161,-105 155.72,-108.28 149.81,-111.55 144.34,-114.43"/>
<polygon fill="midnightblue" stroke="midnightblue" points="195.46,-85.39 201.32,-76.57 191.24,-79.81 195.46,-85.39"/>
</g>
<!-- Node6 -->
<g id="node6" class="node">
<title>Node6</title>
<g id="a_node6"><a xlink:href="ssolv_8f.html#a2de8913c214fa083dcb088c57bd45272" target="_top" xlink:title=" ">
<polygon fill="white" stroke="black" points="101,-76.5 101,-95.5 147,-95.5 147,-76.5 101,-76.5"/>
<text text-anchor="middle" x="124" y="-83.5" font-family="Helvetica,sans-Serif" font-size="10.00">gostep</text>
</a>
</g>
</g>
<!-- Node4&#45;&gt;Node6 -->
<g id="edge5" class="edge">
<title>Node4&#45;&gt;Node6</title>
<path fill="none" stroke="midnightblue" d="M186.88,-72.71C174.24,-75.43 159.29,-78.64 147.25,-81.22"/>
<polygon fill="midnightblue" stroke="midnightblue" points="187.81,-76.09 196.85,-70.57 186.34,-69.25 187.81,-76.09"/>
</g>
<!-- Node8 -->
<g id="node8" class="node">
<title>Node8</title>
<g id="a_node8"><a xlink:href="drive1_8f.html#ae177ea7efac97f35241521b782a671c0" target="_top" xlink:title=" ">
<polygon fill="white" stroke="red" points="87,-38.5 87,-57.5 161,-57.5 161,-38.5 87,-38.5"/>
<text text-anchor="middle" x="124" y="-45.5" font-family="Helvetica,sans-Serif" font-size="10.00">nek_advance</text>
</a>
</g>
</g>
<!-- Node4&#45;&gt;Node8 -->
<g id="edge7" class="edge">
<title>Node4&#45;&gt;Node8</title>
<path fill="none" stroke="midnightblue" d="M186.83,-61.27C178.71,-59.53 169.64,-57.58 161,-55.73"/>
<polygon fill="midnightblue" stroke="midnightblue" points="186.34,-64.75 196.85,-63.43 187.81,-57.91 186.34,-64.75"/>
</g>
<!-- Node12 -->
<g id="node9" class="node">
<title>Node12</title>
<g id="a_node9"><a xlink:href="ic_8f.html#ade71f6cf65c87da7fabee5c1fcfc4a36" target="_top" xlink:title=" ">
<polygon fill="white" stroke="black" points="100,-0.5 100,-19.5 148,-19.5 148,-0.5 100,-0.5"/>
<text text-anchor="middle" x="124" y="-7.5" font-family="Helvetica,sans-Serif" font-size="10.00">prsolvv</text>
</a>
</g>
</g>
<!-- Node4&#45;&gt;Node12 -->
<g id="edge8" class="edge">
<title>Node4&#45;&gt;Node12</title>
<path fill="none" stroke="midnightblue" d="M193.23,-51.3C183.67,-44.17 171.97,-35.82 161,-29 155.72,-25.72 149.81,-22.45 144.34,-19.57"/>
<polygon fill="midnightblue" stroke="midnightblue" points="191.24,-54.19 201.32,-57.43 195.46,-48.61 191.24,-54.19"/>
</g>
<!-- Node7 -->
<g id="node7" class="node">
<title>Node7</title>
<g id="a_node7"><a xlink:href="ssolv_8f.html#a4c61f5b12a3bb1945a465966ba14ff9b" target="_top" xlink:title=" ">
<polygon fill="white" stroke="black" points="0,-76.5 0,-95.5 51,-95.5 51,-76.5 0,-76.5"/>
<text text-anchor="middle" x="25.5" y="-83.5" font-family="Helvetica,sans-Serif" font-size="10.00">gonstep</text>
</a>
</g>
</g>
<!-- Node6&#45;&gt;Node7 -->
<g id="edge6" class="edge">
<title>Node6&#45;&gt;Node7</title>
<path fill="none" stroke="midnightblue" d="M90.33,-86C77.51,-86 63.05,-86 51.13,-86"/>
<polygon fill="midnightblue" stroke="midnightblue" points="90.62,-89.5 100.62,-86 90.62,-82.5 90.62,-89.5"/>
</g>
<!-- Node13&#45;&gt;Node3 -->
<g id="edge10" class="edge">
<title>Node13&#45;&gt;Node3</title>
<path fill="none" stroke="midnightblue" d="M336.61,-55.62C326.93,-57.93 316.61,-60.4 308.06,-62.44"/>
<polygon fill="midnightblue" stroke="midnightblue" points="337.44,-59.02 346.35,-53.29 335.82,-52.21 337.44,-59.02"/>
</g>
</g>
</svg>
