<?xml version="1.0" encoding="UTF-8" standalone="no"?>
<!DOCTYPE svg PUBLIC "-//W3C//DTD SVG 1.1//EN"
 "http://www.w3.org/Graphics/SVG/1.1/DTD/svg11.dtd">
<!-- Generated by graphviz version 2.46.0 (0)
 -->
<!-- Title: build_filter Pages: 1 -->
<svg width="176pt" height="66pt"
 viewBox="0.00 0.00 176.00 66.00" xmlns="http://www.w3.org/2000/svg" xmlns:xlink="http://www.w3.org/1999/xlink">
<g id="graph0" class="graph" transform="scale(1 1) rotate(0) translate(4 62)">
<title>build_filter</title>
<polygon fill="white" stroke="transparent" points="-4,4 -4,-62 172,-62 172,4 -4,4"/>
<!-- Node1 -->
<g id="node1" class="node">
<title>Node1</title>
<g id="a_node1"><a xlink:title=" ">
<polygon fill="#bfbfbf" stroke="black" points="107,-19.5 107,-38.5 168,-38.5 168,-19.5 107,-19.5"/>
<text text-anchor="middle" x="137.5" y="-26.5" font-family="Helvetica,sans-Serif" font-size="10.00">build_filter</text>
</a>
</g>
</g>
<!-- Node2 -->
<g id="node2" class="node">
<title>Node2</title>
<g id="a_node2"><a xlink:href="navier5_8f.html#a6b4c6843ef6f89b75e503161e208b451" target="_top" xlink:title=" ">
<polygon fill="white" stroke="black" points="0,-38.5 0,-57.5 71,-57.5 71,-38.5 0,-38.5"/>
<text text-anchor="middle" x="35.5" y="-45.5" font-family="Helvetica,sans-Serif" font-size="10.00">cut_off_filter</text>
</a>
</g>
</g>
<!-- Node1&#45;&gt;Node2 -->
<g id="edge1" class="edge">
<title>Node1&#45;&gt;Node2</title>
<path fill="none" stroke="midnightblue" d="M96.74,-36.55C88.3,-38.16 79.46,-39.84 71.22,-41.4"/>
<polygon fill="midnightblue" stroke="midnightblue" points="97.6,-39.95 106.77,-34.65 96.29,-33.08 97.6,-39.95"/>
</g>
<!-- Node3 -->
<g id="node3" class="node">
<title>Node3</title>
<g id="a_node3"><a xlink:href="navier5_8f.html#a784eab7bf866cfb39223c7c5304d0719" target="_top" xlink:title=" ">
<polygon fill="white" stroke="black" points="12.5,-0.5 12.5,-19.5 58.5,-19.5 58.5,-0.5 12.5,-0.5"/>
<text text-anchor="middle" x="35.5" y="-7.5" font-family="Helvetica,sans-Serif" font-size="10.00">g_filter</text>
</a>
</g>
</g>
<!-- Node1&#45;&gt;Node3 -->
<g id="edge2" class="edge">
<title>Node1&#45;&gt;Node3</title>
<path fill="none" stroke="midnightblue" d="M96.66,-21.43C83.72,-18.97 69.82,-16.33 58.65,-14.21"/>
<polygon fill="midnightblue" stroke="midnightblue" points="96.29,-24.92 106.77,-23.35 97.6,-18.05 96.29,-24.92"/>
</g>
</g>
</svg>
