<?xml version="1.0" encoding="UTF-8" standalone="no"?>
<!DOCTYPE svg PUBLIC "-//W3C//DTD SVG 1.1//EN"
 "http://www.w3.org/Graphics/SVG/1.1/DTD/svg11.dtd">
<!-- Generated by graphviz version 2.46.0 (0)
 -->
<!-- Title: comp_sij Pages: 1 -->
<svg width="445pt" height="161pt"
 viewBox="0.00 0.00 445.00 161.00" xmlns="http://www.w3.org/2000/svg" xmlns:xlink="http://www.w3.org/1999/xlink">
<g id="graph0" class="graph" transform="scale(1 1) rotate(0) translate(4 157)">
<title>comp_sij</title>
<polygon fill="white" stroke="transparent" points="-4,4 -4,-157 441,-157 441,4 -4,4"/>
<!-- Node1 -->
<g id="node1" class="node">
<title>Node1</title>
<g id="a_node1"><a xlink:title=" ">
<polygon fill="#bfbfbf" stroke="black" points="381,-38.5 381,-57.5 437,-57.5 437,-38.5 381,-38.5"/>
<text text-anchor="middle" x="409" y="-45.5" font-family="Helvetica,sans-Serif" font-size="10.00">comp_sij</text>
</a>
</g>
</g>
<!-- Node2 -->
<g id="node2" class="node">
<title>Node2</title>
<g id="a_node2"><a xlink:href="plan4_8f.html#a0afe6a03f628b5d52eeb491f7baff5b6" target="_top" xlink:title=" ">
<polygon fill="white" stroke="black" points="275.5,-76.5 275.5,-95.5 326.5,-95.5 326.5,-76.5 275.5,-76.5"/>
<text text-anchor="middle" x="301" y="-83.5" font-family="Helvetica,sans-Serif" font-size="10.00">crespsp</text>
</a>
</g>
</g>
<!-- Node1&#45;&gt;Node2 -->
<g id="edge1" class="edge">
<title>Node1&#45;&gt;Node2</title>
<path fill="none" stroke="midnightblue" d="M371.79,-60.98C356.88,-66.33 339.99,-72.38 326.56,-77.2"/>
<polygon fill="midnightblue" stroke="midnightblue" points="373.02,-64.26 381.25,-57.59 370.66,-57.67 373.02,-64.26"/>
</g>
<!-- Node13 -->
<g id="node9" class="node">
<title>Node13</title>
<g id="a_node9"><a xlink:href="navier5_8f.html#a452fc6ce45aa3c40dbc48fa0353cb965" target="_top" xlink:title=" ">
<polygon fill="white" stroke="black" points="257,-38.5 257,-57.5 345,-57.5 345,-38.5 257,-38.5"/>
<text text-anchor="middle" x="301" y="-45.5" font-family="Helvetica,sans-Serif" font-size="10.00">shear_calc_max</text>
</a>
</g>
</g>
<!-- Node1&#45;&gt;Node13 -->
<g id="edge8" class="edge">
<title>Node1&#45;&gt;Node13</title>
<path fill="none" stroke="midnightblue" d="M370.81,-48C362.48,-48 353.58,-48 345.04,-48"/>
<polygon fill="midnightblue" stroke="midnightblue" points="370.98,-51.5 380.98,-48 370.98,-44.5 370.98,-51.5"/>
</g>
<!-- Node14 -->
<g id="node10" class="node">
<title>Node14</title>
<g id="a_node10"><a xlink:href="navier5_8f.html#ae07d390b2886c4cf09b559441f55dd3f" target="_top" xlink:title=" ">
<polygon fill="white" stroke="black" points="267.5,-0.5 267.5,-19.5 334.5,-19.5 334.5,-0.5 267.5,-0.5"/>
<text text-anchor="middle" x="301" y="-7.5" font-family="Helvetica,sans-Serif" font-size="10.00">torque_calc</text>
</a>
</g>
</g>
<!-- Node1&#45;&gt;Node14 -->
<g id="edge9" class="edge">
<title>Node1&#45;&gt;Node14</title>
<path fill="none" stroke="midnightblue" d="M371.82,-35.03C357.69,-29.97 341.79,-24.27 328.74,-19.59"/>
<polygon fill="midnightblue" stroke="midnightblue" points="370.66,-38.33 381.25,-38.41 373.02,-31.74 370.66,-38.33"/>
</g>
<!-- Node3 -->
<g id="node3" class="node">
<title>Node3</title>
<g id="a_node3"><a xlink:href="plan4_8f.html#a247fc105464de543a464773054eb509e" target="_top" xlink:title=" ">
<polygon fill="white" stroke="black" points="181,-76.5 181,-95.5 221,-95.5 221,-76.5 181,-76.5"/>
<text text-anchor="middle" x="201" y="-83.5" font-family="Helvetica,sans-Serif" font-size="10.00">plan4</text>
</a>
</g>
</g>
<!-- Node2&#45;&gt;Node3 -->
<g id="edge2" class="edge">
<title>Node2&#45;&gt;Node3</title>
<path fill="none" stroke="midnightblue" d="M264.94,-86C250.19,-86 233.6,-86 221.16,-86"/>
<polygon fill="midnightblue" stroke="midnightblue" points="265.27,-89.5 275.27,-86 265.27,-82.5 265.27,-89.5"/>
</g>
<!-- Node4 -->
<g id="node4" class="node">
<title>Node4</title>
<g id="a_node4"><a xlink:href="drive2_8f.html#ab0aeca9ad3db8be87a01ba29d069d71e" target="_top" xlink:title=" ">
<polygon fill="white" stroke="black" points="110,-76.5 110,-95.5 145,-95.5 145,-76.5 110,-76.5"/>
<text text-anchor="middle" x="127.5" y="-83.5" font-family="Helvetica,sans-Serif" font-size="10.00">fluid</text>
</a>
</g>
</g>
<!-- Node3&#45;&gt;Node4 -->
<g id="edge3" class="edge">
<title>Node3&#45;&gt;Node4</title>
<path fill="none" stroke="midnightblue" d="M170.68,-86C162.03,-86 152.85,-86 145.28,-86"/>
<polygon fill="midnightblue" stroke="midnightblue" points="170.84,-89.5 180.84,-86 170.84,-82.5 170.84,-89.5"/>
</g>
<!-- Node5 -->
<g id="node5" class="node">
<title>Node5</title>
<g id="a_node5"><a xlink:href="ssolv_8f.html#a4bb42a5afabbba8c6518d83cbe481c17" target="_top" xlink:title=" ">
<polygon fill="white" stroke="black" points="11.5,-133.5 11.5,-152.5 62.5,-152.5 62.5,-133.5 11.5,-133.5"/>
<text text-anchor="middle" x="37" y="-140.5" font-family="Helvetica,sans-Serif" font-size="10.00">go1step</text>
</a>
</g>
</g>
<!-- Node4&#45;&gt;Node5 -->
<g id="edge4" class="edge">
<title>Node4&#45;&gt;Node5</title>
<path fill="none" stroke="midnightblue" d="M106.23,-101.7C96.67,-108.83 84.97,-117.18 74,-124 68.72,-127.28 62.81,-130.55 57.34,-133.43"/>
<polygon fill="midnightblue" stroke="midnightblue" points="108.46,-104.39 114.32,-95.57 104.24,-98.81 108.46,-104.39"/>
</g>
<!-- Node6 -->
<g id="node6" class="node">
<title>Node6</title>
<g id="a_node6"><a xlink:href="ssolv_8f.html#a2de8913c214fa083dcb088c57bd45272" target="_top" xlink:title=" ">
<polygon fill="white" stroke="red" points="14,-95.5 14,-114.5 60,-114.5 60,-95.5 14,-95.5"/>
<text text-anchor="middle" x="37" y="-102.5" font-family="Helvetica,sans-Serif" font-size="10.00">gostep</text>
</a>
</g>
</g>
<!-- Node4&#45;&gt;Node6 -->
<g id="edge5" class="edge">
<title>Node4&#45;&gt;Node6</title>
<path fill="none" stroke="midnightblue" d="M99.88,-91.71C87.24,-94.43 72.29,-97.64 60.25,-100.22"/>
<polygon fill="midnightblue" stroke="midnightblue" points="100.81,-95.09 109.85,-89.57 99.34,-88.25 100.81,-95.09"/>
</g>
<!-- Node8 -->
<g id="node7" class="node">
<title>Node8</title>
<g id="a_node7"><a xlink:href="drive1_8f.html#ae177ea7efac97f35241521b782a671c0" target="_top" xlink:title=" ">
<polygon fill="white" stroke="red" points="0,-57.5 0,-76.5 74,-76.5 74,-57.5 0,-57.5"/>
<text text-anchor="middle" x="37" y="-64.5" font-family="Helvetica,sans-Serif" font-size="10.00">nek_advance</text>
</a>
</g>
</g>
<!-- Node4&#45;&gt;Node8 -->
<g id="edge6" class="edge">
<title>Node4&#45;&gt;Node8</title>
<path fill="none" stroke="midnightblue" d="M99.83,-80.27C91.71,-78.53 82.64,-76.58 74,-74.73"/>
<polygon fill="midnightblue" stroke="midnightblue" points="99.34,-83.75 109.85,-82.43 100.81,-76.91 99.34,-83.75"/>
</g>
<!-- Node12 -->
<g id="node8" class="node">
<title>Node12</title>
<g id="a_node8"><a xlink:href="ic_8f.html#ade71f6cf65c87da7fabee5c1fcfc4a36" target="_top" xlink:title=" ">
<polygon fill="white" stroke="black" points="13,-19.5 13,-38.5 61,-38.5 61,-19.5 13,-19.5"/>
<text text-anchor="middle" x="37" y="-26.5" font-family="Helvetica,sans-Serif" font-size="10.00">prsolvv</text>
</a>
</g>
</g>
<!-- Node4&#45;&gt;Node12 -->
<g id="edge7" class="edge">
<title>Node4&#45;&gt;Node12</title>
<path fill="none" stroke="midnightblue" d="M106.23,-70.3C96.67,-63.17 84.97,-54.82 74,-48 68.72,-44.72 62.81,-41.45 57.34,-38.57"/>
<polygon fill="midnightblue" stroke="midnightblue" points="104.24,-73.19 114.32,-76.43 108.46,-67.61 104.24,-73.19"/>
</g>
</g>
</svg>
