<?xml version="1.0" encoding="UTF-8" standalone="no"?>
<!DOCTYPE svg PUBLIC "-//W3C//DTD SVG 1.1//EN"
 "http://www.w3.org/Graphics/SVG/1.1/DTD/svg11.dtd">
<!-- Generated by graphviz version 2.46.0 (0)
 -->
<!-- Title: gh_face_extend_2d Pages: 1 -->
<svg width="545pt" height="157pt"
 viewBox="0.00 0.00 545.00 157.19" xmlns="http://www.w3.org/2000/svg" xmlns:xlink="http://www.w3.org/1999/xlink">
<g id="graph0" class="graph" transform="scale(1 1) rotate(0) translate(4 153.19)">
<title>gh_face_extend_2d</title>
<polygon fill="white" stroke="transparent" points="-4,4 -4,-153.19 541,-153.19 541,4 -4,4"/>
<!-- Node1 -->
<g id="node1" class="node">
<title>Node1</title>
<g id="a_node1"><a xlink:title=" ">
<polygon fill="#bfbfbf" stroke="black" points="436,-19.5 436,-38.5 537,-38.5 537,-19.5 436,-19.5"/>
<text text-anchor="middle" x="486.5" y="-26.5" font-family="Helvetica,sans-Serif" font-size="10.00">gh_face_extend_2d</text>
</a>
</g>
</g>
<!-- Node2 -->
<g id="node2" class="node">
<title>Node2</title>
<g id="a_node2"><a xlink:href="navier5_8f.html#af2ef7089f186c5f1d1cde2552169d2e8" target="_top" xlink:title=" ">
<polygon fill="white" stroke="black" points="314,-38.5 314,-57.5 400,-57.5 400,-38.5 314,-38.5"/>
<text text-anchor="middle" x="357" y="-45.5" font-family="Helvetica,sans-Serif" font-size="10.00">gh_face_extend</text>
</a>
</g>
</g>
<!-- Node1&#45;&gt;Node2 -->
<g id="edge1" class="edge">
<title>Node1&#45;&gt;Node2</title>
<path fill="none" stroke="midnightblue" d="M425.81,-37.9C417.19,-39.18 408.47,-40.48 400.29,-41.7"/>
<polygon fill="midnightblue" stroke="midnightblue" points="426.47,-41.34 435.84,-36.4 425.43,-34.41 426.47,-41.34"/>
</g>
<!-- Node16 -->
<g id="node9" class="node">
<title>Node16</title>
<g id="a_node9"><a xlink:href="genxyz_8f.html#a7c0d9ad72ade85a885511477626382a9" target="_top" xlink:title=" ">
<polygon fill="white" stroke="black" points="223.5,-0.5 223.5,-19.5 276.5,-19.5 276.5,-0.5 223.5,-0.5"/>
<text text-anchor="middle" x="250" y="-7.5" font-family="Helvetica,sans-Serif" font-size="10.00">xyzquad</text>
</a>
</g>
</g>
<!-- Node1&#45;&gt;Node16 -->
<g id="edge12" class="edge">
<title>Node1&#45;&gt;Node16</title>
<path fill="none" stroke="midnightblue" d="M425.78,-24.16C377.66,-20.26 312.35,-14.97 276.75,-12.09"/>
<polygon fill="midnightblue" stroke="midnightblue" points="425.52,-27.65 435.77,-24.97 426.08,-20.67 425.52,-27.65"/>
</g>
<!-- Node3 -->
<g id="node3" class="node">
<title>Node3</title>
<g id="a_node3"><a xlink:href="navier5_8f.html#ac7bf11bb142c7d01c82cc8b64e88bff2" target="_top" xlink:title=" ">
<polygon fill="white" stroke="black" points="222,-95.5 222,-114.5 278,-114.5 278,-95.5 222,-95.5"/>
<text text-anchor="middle" x="250" y="-102.5" font-family="Helvetica,sans-Serif" font-size="10.00">fix_geom</text>
</a>
</g>
</g>
<!-- Node2&#45;&gt;Node3 -->
<g id="edge2" class="edge">
<title>Node2&#45;&gt;Node3</title>
<path fill="none" stroke="midnightblue" d="M329.38,-62.45C310.3,-72.81 285.15,-86.46 268.55,-95.47"/>
<polygon fill="midnightblue" stroke="midnightblue" points="331.07,-65.52 338.19,-57.67 327.73,-59.36 331.07,-65.52"/>
</g>
<!-- Node12 -->
<g id="node7" class="node">
<title>Node12</title>
<g id="a_node7"><a xlink:href="meshsmoother_8f.html#aeeba354f477e4b8bc6e76121264ff621" target="_top" xlink:title=" ">
<polygon fill="white" stroke="red" points="227,-38.5 227,-57.5 273,-57.5 273,-38.5 227,-38.5"/>
<text text-anchor="middle" x="250" y="-45.5" font-family="Helvetica,sans-Serif" font-size="10.00">fixcurs</text>
</a>
</g>
</g>
<!-- Node2&#45;&gt;Node12 -->
<g id="edge7" class="edge">
<title>Node2&#45;&gt;Node12</title>
<path fill="none" stroke="midnightblue" d="M303.66,-48C292.92,-48 282.18,-48 273.22,-48"/>
<polygon fill="midnightblue" stroke="midnightblue" points="303.9,-51.5 313.9,-48 303.9,-44.5 303.9,-51.5"/>
</g>
<!-- Node2&#45;&gt;Node16 -->
<g id="edge10" class="edge">
<title>Node2&#45;&gt;Node16</title>
<path fill="none" stroke="midnightblue" d="M320.01,-34.97C305.79,-29.83 289.78,-24.04 276.76,-19.32"/>
<polygon fill="midnightblue" stroke="midnightblue" points="318.91,-38.3 329.5,-38.41 321.29,-31.72 318.91,-38.3"/>
</g>
<!-- Node4 -->
<g id="node4" class="node">
<title>Node4</title>
<g id="a_node4"><a xlink:href="drive1_8f.html#a83f7c6d78ac4e68394f32533e847d0a3" target="_top" xlink:title=" ">
<polygon fill="white" stroke="red" points="11.5,-123.5 11.5,-142.5 61.5,-142.5 61.5,-123.5 11.5,-123.5"/>
<text text-anchor="middle" x="36.5" y="-130.5" font-family="Helvetica,sans-Serif" font-size="10.00">nek_init</text>
</a>
</g>
</g>
<!-- Node3&#45;&gt;Node4 -->
<g id="edge3" class="edge">
<title>Node3&#45;&gt;Node4</title>
<path fill="none" stroke="midnightblue" d="M229.17,-120.81C217.38,-129.19 201.69,-138.63 186,-143 143.43,-154.84 91.47,-146.4 61.66,-139.49"/>
<polygon fill="midnightblue" stroke="midnightblue" points="231.44,-123.49 237.37,-114.71 227.26,-117.87 231.44,-123.49"/>
</g>
<!-- Node6 -->
<g id="node5" class="node">
<title>Node6</title>
<g id="a_node5"><a xlink:href="multimesh_8f.html#ae456181cee68ca24e24244df7c9db9c6" target="_top" xlink:title=" ">
<polygon fill="white" stroke="red" points="109,-114.5 109,-133.5 186,-133.5 186,-114.5 109,-114.5"/>
<text text-anchor="middle" x="147.5" y="-121.5" font-family="Helvetica,sans-Serif" font-size="10.00">neknek_setup</text>
</a>
</g>
</g>
<!-- Node3&#45;&gt;Node6 -->
<g id="edge4" class="edge">
<title>Node3&#45;&gt;Node6</title>
<path fill="none" stroke="midnightblue" d="M211.93,-112.01C203.56,-113.59 194.68,-115.27 186.28,-116.86"/>
<polygon fill="midnightblue" stroke="midnightblue" points="212.63,-115.44 221.8,-110.14 211.33,-108.56 212.63,-115.44"/>
</g>
<!-- Node10 -->
<g id="node6" class="node">
<title>Node10</title>
<g id="a_node6"><a xlink:href="meshsmoother_8f.html#a381ecddf77fc5669d3a8e246b65d1960" target="_top" xlink:title=" ">
<polygon fill="white" stroke="red" points="0,-66.5 0,-85.5 73,-85.5 73,-66.5 0,-66.5"/>
<text text-anchor="middle" x="36.5" y="-73.5" font-family="Helvetica,sans-Serif" font-size="10.00">smoothmesh</text>
</a>
</g>
</g>
<!-- Node3&#45;&gt;Node10 -->
<g id="edge6" class="edge">
<title>Node3&#45;&gt;Node10</title>
<path fill="none" stroke="midnightblue" d="M211.86,-99.91C172.74,-94.54 111.59,-86.16 73.08,-80.88"/>
<polygon fill="midnightblue" stroke="midnightblue" points="211.4,-103.38 221.78,-101.27 212.35,-96.44 211.4,-103.38"/>
</g>
<!-- Node6&#45;&gt;Node4 -->
<g id="edge5" class="edge">
<title>Node6&#45;&gt;Node4</title>
<path fill="none" stroke="midnightblue" d="M98.87,-127.93C86.04,-128.99 72.7,-130.09 61.75,-131"/>
<polygon fill="midnightblue" stroke="midnightblue" points="99.31,-131.41 108.99,-127.1 98.73,-124.43 99.31,-131.41"/>
</g>
<!-- Node13 -->
<g id="node8" class="node">
<title>Node13</title>
<g id="a_node8"><a xlink:href="meshsmoother_8f.html#ac387c6815e901c8c74390aebec7395b8" target="_top" xlink:title=" ">
<polygon fill="white" stroke="black" points="124.5,-38.5 124.5,-57.5 170.5,-57.5 170.5,-38.5 124.5,-38.5"/>
<text text-anchor="middle" x="147.5" y="-45.5" font-family="Helvetica,sans-Serif" font-size="10.00">fastlap</text>
</a>
</g>
</g>
<!-- Node12&#45;&gt;Node13 -->
<g id="edge8" class="edge">
<title>Node12&#45;&gt;Node13</title>
<path fill="none" stroke="midnightblue" d="M216.34,-48C201.42,-48 184.13,-48 170.74,-48"/>
<polygon fill="midnightblue" stroke="midnightblue" points="216.7,-51.5 226.7,-48 216.7,-44.5 216.7,-51.5"/>
</g>
<!-- Node13&#45;&gt;Node10 -->
<g id="edge9" class="edge">
<title>Node13&#45;&gt;Node10</title>
<path fill="none" stroke="midnightblue" d="M114.56,-56.2C101.61,-59.53 86.58,-63.39 73.26,-66.81"/>
<polygon fill="midnightblue" stroke="midnightblue" points="115.63,-59.54 124.44,-53.67 113.89,-52.76 115.63,-59.54"/>
</g>
<!-- Node17 -->
<g id="node10" class="node">
<title>Node17</title>
<g id="a_node10"><a xlink:href="genxyz_8f.html#a68c86aab3d5439b8cdc8368eed562f9c" target="_top" xlink:title=" ">
<polygon fill="white" stroke="red" points="124,-0.5 124,-19.5 171,-19.5 171,-0.5 124,-0.5"/>
<text text-anchor="middle" x="147.5" y="-7.5" font-family="Helvetica,sans-Serif" font-size="10.00">linquad</text>
</a>
</g>
</g>
<!-- Node16&#45;&gt;Node17 -->
<g id="edge11" class="edge">
<title>Node16&#45;&gt;Node17</title>
<path fill="none" stroke="midnightblue" d="M213.13,-10C199.21,-10 183.68,-10 171.33,-10"/>
<polygon fill="midnightblue" stroke="midnightblue" points="213.38,-13.5 223.38,-10 213.38,-6.5 213.38,-13.5"/>
</g>
</g>
</svg>
