<?xml version="1.0" encoding="UTF-8" standalone="no"?>
<!DOCTYPE svg PUBLIC "-//W3C//DTD SVG 1.1//EN"
 "http://www.w3.org/Graphics/SVG/1.1/DTD/svg11.dtd">
<!-- Generated by graphviz version 2.46.0 (0)
 -->
<!-- Title: convopo Pages: 1 -->
<svg width="324pt" height="284pt"
 viewBox="0.00 0.00 324.00 284.00" xmlns="http://www.w3.org/2000/svg" xmlns:xlink="http://www.w3.org/1999/xlink">
<g id="graph0" class="graph" transform="scale(1 1) rotate(0) translate(4 280)">
<title>convopo</title>
<polygon fill="white" stroke="transparent" points="-4,4 -4,-280 320,-280 320,4 -4,4"/>
<!-- Node1 -->
<g id="node1" class="node">
<title>Node1</title>
<g id="a_node1"><a xlink:title=" ">
<polygon fill="#bfbfbf" stroke="black" points="0,-123.5 0,-142.5 53,-142.5 53,-123.5 0,-123.5"/>
<text text-anchor="middle" x="26.5" y="-130.5" font-family="Helvetica,sans-Serif" font-size="10.00">convopo</text>
</a>
</g>
</g>
<!-- Node2 -->
<g id="node2" class="node">
<title>Node2</title>
<g id="a_node2"><a xlink:href="math_8f.html#a30b83d516b6ab162d3fafe73e03a3e92" target="_top" xlink:title=" ">
<polygon fill="white" stroke="black" points="176,-142.5 176,-161.5 214,-161.5 214,-142.5 176,-142.5"/>
<text text-anchor="middle" x="195" y="-149.5" font-family="Helvetica,sans-Serif" font-size="10.00">add2</text>
</a>
</g>
</g>
<!-- Node1&#45;&gt;Node2 -->
<g id="edge1" class="edge">
<title>Node1&#45;&gt;Node2</title>
<path fill="none" stroke="midnightblue" d="M53.15,-135.93C83.51,-139.39 133.9,-145.14 165.46,-148.74"/>
<polygon fill="midnightblue" stroke="midnightblue" points="165.45,-152.26 175.78,-149.92 166.24,-145.31 165.45,-152.26"/>
</g>
<!-- Node5 -->
<g id="node4" class="node">
<title>Node5</title>
<g id="a_node4"><a xlink:href="math_8f.html#a34a2c89ac31311482e2ec34fbb7c5a7a" target="_top" xlink:title=" ">
<polygon fill="white" stroke="black" points="171,-199.5 171,-218.5 219,-218.5 219,-199.5 171,-199.5"/>
<text text-anchor="middle" x="195" y="-206.5" font-family="Helvetica,sans-Serif" font-size="10.00">add2s2</text>
</a>
</g>
</g>
<!-- Node1&#45;&gt;Node5 -->
<g id="edge3" class="edge">
<title>Node1&#45;&gt;Node5</title>
<path fill="none" stroke="midnightblue" d="M31.72,-142.51C39.91,-159.6 59.74,-195.04 89,-209 111.2,-219.59 139.16,-219.02 160.65,-216.11"/>
<polygon fill="midnightblue" stroke="midnightblue" points="161.3,-219.55 170.63,-214.53 160.2,-212.64 161.3,-219.55"/>
</g>
<!-- Node6 -->
<g id="node5" class="node">
<title>Node6</title>
<g id="a_node5"><a xlink:href="navier1_8f.html#a864f1ea701ea1cf4adc4bb861826f9f8" target="_top" xlink:title=" ">
<polygon fill="white" stroke="red" points="89,-180.5 89,-199.5 135,-199.5 135,-180.5 89,-180.5"/>
<text text-anchor="middle" x="112" y="-187.5" font-family="Helvetica,sans-Serif" font-size="10.00">cmask</text>
</a>
</g>
</g>
<!-- Node1&#45;&gt;Node6 -->
<g id="edge5" class="edge">
<title>Node1&#45;&gt;Node6</title>
<path fill="none" stroke="midnightblue" d="M41.66,-142.67C54.46,-151.4 73.5,-164.4 88.4,-174.57"/>
<polygon fill="midnightblue" stroke="midnightblue" points="86.81,-177.73 97.04,-180.47 90.76,-171.94 86.81,-177.73"/>
</g>
<!-- Node10 -->
<g id="node6" class="node">
<title>Node10</title>
<g id="a_node6"><a xlink:href="math_8f.html#a0d9af374781723c272547a185cb3da5e" target="_top" xlink:title=" ">
<polygon fill="white" stroke="black" points="177.5,-0.5 177.5,-19.5 212.5,-19.5 212.5,-0.5 177.5,-0.5"/>
<text text-anchor="middle" x="195" y="-7.5" font-family="Helvetica,sans-Serif" font-size="10.00">col3</text>
</a>
</g>
</g>
<!-- Node1&#45;&gt;Node10 -->
<g id="edge6" class="edge">
<title>Node1&#45;&gt;Node10</title>
<path fill="none" stroke="midnightblue" d="M31.56,-123.41C39.73,-105.23 59.92,-65.64 89,-44 112.22,-26.72 144.61,-18 167.25,-13.74"/>
<polygon fill="midnightblue" stroke="midnightblue" points="167.93,-17.18 177.2,-12.05 166.75,-10.28 167.93,-17.18"/>
</g>
<!-- Node11 -->
<g id="node7" class="node">
<title>Node11</title>
<g id="a_node7"><a xlink:href="navier1_8f.html#a864b5c84d724970ce769577d3a7d19c3" target="_top" xlink:title=" ">
<polygon fill="white" stroke="black" points="90.5,-104.5 90.5,-123.5 133.5,-123.5 133.5,-104.5 90.5,-104.5"/>
<text text-anchor="middle" x="112" y="-111.5" font-family="Helvetica,sans-Serif" font-size="10.00">conv1</text>
</a>
</g>
</g>
<!-- Node1&#45;&gt;Node11 -->
<g id="edge8" class="edge">
<title>Node1&#45;&gt;Node11</title>
<path fill="none" stroke="midnightblue" d="M53.01,-127.2C61.72,-125.21 71.55,-122.98 80.61,-120.92"/>
<polygon fill="midnightblue" stroke="midnightblue" points="81.43,-124.32 90.4,-118.69 79.88,-117.49 81.43,-124.32"/>
</g>
<!-- Node12 -->
<g id="node8" class="node">
<title>Node12</title>
<g id="a_node8"><a xlink:href="navier1_8f.html#afac29822c946dfa3ce2a87194f9259e1" target="_top" xlink:title=" ">
<polygon fill="white" stroke="red" points="90.5,-66.5 90.5,-85.5 133.5,-85.5 133.5,-66.5 90.5,-66.5"/>
<text text-anchor="middle" x="112" y="-73.5" font-family="Helvetica,sans-Serif" font-size="10.00">conv2</text>
</a>
</g>
</g>
<!-- Node1&#45;&gt;Node12 -->
<g id="edge9" class="edge">
<title>Node1&#45;&gt;Node12</title>
<path fill="none" stroke="midnightblue" d="M41.66,-123.33C54.46,-114.6 73.5,-101.6 88.4,-91.43"/>
<polygon fill="midnightblue" stroke="midnightblue" points="90.76,-94.06 97.04,-85.53 86.81,-88.27 90.76,-94.06"/>
</g>
<!-- Node17 -->
<g id="node9" class="node">
<title>Node17</title>
<g id="a_node9"><a xlink:href="math_8f.html#af44de42b023a4a68cd98ea341204342d" target="_top" xlink:title=" ">
<polygon fill="white" stroke="black" points="176,-47.5 176,-66.5 214,-66.5 214,-47.5 176,-47.5"/>
<text text-anchor="middle" x="195" y="-54.5" font-family="Helvetica,sans-Serif" font-size="10.00">rzero</text>
</a>
</g>
</g>
<!-- Node1&#45;&gt;Node17 -->
<g id="edge14" class="edge">
<title>Node1&#45;&gt;Node17</title>
<path fill="none" stroke="midnightblue" d="M31.72,-123.49C39.91,-106.4 59.74,-70.96 89,-57 113.04,-45.53 143.83,-47.15 165.85,-50.66"/>
<polygon fill="midnightblue" stroke="midnightblue" points="165.42,-54.14 175.88,-52.48 166.67,-47.25 165.42,-54.14"/>
</g>
<!-- Node18 -->
<g id="node10" class="node">
<title>Node18</title>
<g id="a_node10"><a xlink:href="ic_8f.html#a05e0886b196049bac2d39b9d500a70d1" target="_top" xlink:title=" ">
<polygon fill="white" stroke="red" points="97,-256.5 97,-275.5 127,-275.5 127,-256.5 97,-256.5"/>
<text text-anchor="middle" x="112" y="-263.5" font-family="Helvetica,sans-Serif" font-size="10.00">mfi</text>
</a>
</g>
</g>
<!-- Node1&#45;&gt;Node18 -->
<g id="edge12" class="edge">
<title>Node1&#45;&gt;Node18</title>
<path fill="none" stroke="midnightblue" d="M32.07,-142.78C41.46,-162.42 64.11,-207.71 89,-242 90.57,-244.16 92.31,-246.34 94.1,-248.46"/>
<polygon fill="midnightblue" stroke="midnightblue" points="91.74,-251.08 101.04,-256.16 96.95,-246.39 91.74,-251.08"/>
</g>
<!-- Node3 -->
<g id="node3" class="node">
<title>Node3</title>
<g id="a_node3"><a xlink:href="comm__mpi_8f.html#af06ec29f06aac3f8809e19de2a7e8946" target="_top" xlink:title=" ">
<polygon fill="white" stroke="red" points="255,-161.5 255,-180.5 316,-180.5 316,-161.5 255,-161.5"/>
<text text-anchor="middle" x="285.5" y="-168.5" font-family="Helvetica,sans-Serif" font-size="10.00">dnekclock</text>
</a>
</g>
</g>
<!-- Node2&#45;&gt;Node3 -->
<g id="edge2" class="edge">
<title>Node2&#45;&gt;Node3</title>
<path fill="none" stroke="midnightblue" d="M214.34,-155.94C223.16,-157.83 234.11,-160.18 244.71,-162.46"/>
<polygon fill="midnightblue" stroke="midnightblue" points="244.18,-165.92 254.69,-164.6 245.65,-159.08 244.18,-165.92"/>
</g>
<!-- Node5&#45;&gt;Node3 -->
<g id="edge4" class="edge">
<title>Node5&#45;&gt;Node3</title>
<path fill="none" stroke="midnightblue" d="M218.33,-199.41C228.81,-194.91 241.49,-189.47 252.93,-184.56"/>
<polygon fill="midnightblue" stroke="midnightblue" points="254.37,-187.75 262.17,-180.59 251.61,-181.32 254.37,-187.75"/>
</g>
<!-- Node10&#45;&gt;Node3 -->
<g id="edge7" class="edge">
<title>Node10&#45;&gt;Node3</title>
<path fill="none" stroke="midnightblue" d="M204.89,-19.68C209.42,-24.89 214.84,-31.55 219,-38 243.75,-76.39 265.66,-125.46 276.77,-151.96"/>
<polygon fill="midnightblue" stroke="midnightblue" points="273.56,-153.34 280.61,-161.24 280.02,-150.66 273.56,-153.34"/>
</g>
<!-- Node12&#45;&gt;Node2 -->
<g id="edge10" class="edge">
<title>Node12&#45;&gt;Node2</title>
<path fill="none" stroke="midnightblue" d="M124.3,-85.55C127.77,-88.53 131.57,-91.87 135,-95 149.35,-108.11 165.17,-123.45 176.82,-134.91"/>
<polygon fill="midnightblue" stroke="midnightblue" points="174.57,-137.6 184.14,-142.15 179.49,-132.63 174.57,-137.6"/>
</g>
<!-- Node12&#45;&gt;Node17 -->
<g id="edge11" class="edge">
<title>Node12&#45;&gt;Node17</title>
<path fill="none" stroke="midnightblue" d="M133.86,-71.11C143.63,-68.81 155.42,-66.05 165.96,-63.58"/>
<polygon fill="midnightblue" stroke="midnightblue" points="167.03,-66.92 175.96,-61.23 165.43,-60.11 167.03,-66.92"/>
</g>
<!-- Node18&#45;&gt;Node3 -->
<g id="edge13" class="edge">
<title>Node18&#45;&gt;Node3</title>
<path fill="none" stroke="midnightblue" d="M127.1,-262.73C148.12,-257.48 188.47,-245.89 219,-228 237.56,-217.12 255.79,-200.65 268.28,-188.21"/>
<polygon fill="midnightblue" stroke="midnightblue" points="271.12,-190.31 275.61,-180.72 266.12,-185.42 271.12,-190.31"/>
</g>
</g>
</svg>
