<?xml version="1.0" encoding="UTF-8" standalone="no"?>
<!DOCTYPE svg PUBLIC "-//W3C//DTD SVG 1.1//EN"
 "http://www.w3.org/Graphics/SVG/1.1/DTD/svg11.dtd">
<!-- Generated by graphviz version 2.46.0 (0)
 -->
<!-- Title: local_grad3_t Pages: 1 -->
<svg width="353pt" height="28pt"
 viewBox="0.00 0.00 353.00 28.00" xmlns="http://www.w3.org/2000/svg" xmlns:xlink="http://www.w3.org/1999/xlink">
<g id="graph0" class="graph" transform="scale(1 1) rotate(0) translate(4 24)">
<title>local_grad3_t</title>
<polygon fill="white" stroke="transparent" points="-4,4 -4,-24 349,-24 349,4 -4,4"/>
<!-- Node1 -->
<g id="node1" class="node">
<title>Node1</title>
<g id="a_node1"><a xlink:title=" ">
<polygon fill="#bfbfbf" stroke="black" points="0,-0.5 0,-19.5 74,-19.5 74,-0.5 0,-0.5"/>
<text text-anchor="middle" x="37" y="-7.5" font-family="Helvetica,sans-Serif" font-size="10.00">local_grad3_t</text>
</a>
</g>
</g>
<!-- Node2 -->
<g id="node2" class="node">
<title>Node2</title>
<g id="a_node2"><a xlink:href="math_8f.html#a30b83d516b6ab162d3fafe73e03a3e92" target="_top" xlink:title=" ">
<polygon fill="white" stroke="black" points="110,-0.5 110,-19.5 148,-19.5 148,-0.5 110,-0.5"/>
<text text-anchor="middle" x="129" y="-7.5" font-family="Helvetica,sans-Serif" font-size="10.00">add2</text>
</a>
</g>
</g>
<!-- Node1&#45;&gt;Node2 -->
<g id="edge1" class="edge">
<title>Node1&#45;&gt;Node2</title>
<path fill="none" stroke="midnightblue" d="M74.09,-10C82.66,-10 91.67,-10 99.83,-10"/>
<polygon fill="midnightblue" stroke="midnightblue" points="99.95,-13.5 109.95,-10 99.95,-6.5 99.95,-13.5"/>
</g>
<!-- Node3 -->
<g id="node3" class="node">
<title>Node3</title>
<g id="a_node3"><a xlink:href="comm__mpi_8f.html#af06ec29f06aac3f8809e19de2a7e8946" target="_top" xlink:title=" ">
<polygon fill="white" stroke="black" points="184,-0.5 184,-19.5 245,-19.5 245,-0.5 184,-0.5"/>
<text text-anchor="middle" x="214.5" y="-7.5" font-family="Helvetica,sans-Serif" font-size="10.00">dnekclock</text>
</a>
</g>
</g>
<!-- Node2&#45;&gt;Node3 -->
<g id="edge2" class="edge">
<title>Node2&#45;&gt;Node3</title>
<path fill="none" stroke="midnightblue" d="M148.12,-10C155.72,-10 164.87,-10 173.89,-10"/>
<polygon fill="midnightblue" stroke="midnightblue" points="173.93,-13.5 183.93,-10 173.93,-6.5 173.93,-13.5"/>
</g>
<!-- Node4 -->
<g id="node4" class="node">
<title>Node4</title>
<g id="a_node4"><a xlink:href="mpi__dummy_8f.html#ae6a5ef945f87c2c27849696b70f3af2a" target="_top" xlink:title=" ">
<polygon fill="white" stroke="black" points="281,-0.5 281,-19.5 345,-19.5 345,-0.5 281,-0.5"/>
<text text-anchor="middle" x="313" y="-7.5" font-family="Helvetica,sans-Serif" font-size="10.00">mpi_wtime</text>
</a>
</g>
</g>
<!-- Node3&#45;&gt;Node4 -->
<g id="edge3" class="edge">
<title>Node3&#45;&gt;Node4</title>
<path fill="none" stroke="midnightblue" d="M245.24,-10C253.27,-10 262.11,-10 270.65,-10"/>
<polygon fill="midnightblue" stroke="midnightblue" points="270.85,-13.5 280.85,-10 270.85,-6.5 270.85,-13.5"/>
</g>
</g>
</svg>
