<?xml version="1.0" encoding="UTF-8" standalone="no"?>
<!DOCTYPE svg PUBLIC "-//W3C//DTD SVG 1.1//EN"
 "http://www.w3.org/Graphics/SVG/1.1/DTD/svg11.dtd">
<!-- Generated by graphviz version 2.46.0 (0)
 -->
<!-- Title: advab Pages: 1 -->
<svg width="329pt" height="317pt"
 viewBox="0.00 0.00 329.00 316.83" xmlns="http://www.w3.org/2000/svg" xmlns:xlink="http://www.w3.org/1999/xlink">
<g id="graph0" class="graph" transform="scale(1 1) rotate(0) translate(4 312.83)">
<title>advab</title>
<polygon fill="white" stroke="transparent" points="-4,4 -4,-312.83 325,-312.83 325,4 -4,4"/>
<!-- Node1 -->
<g id="node1" class="node">
<title>Node1</title>
<g id="a_node1"><a xlink:title=" ">
<polygon fill="#bfbfbf" stroke="black" points="0,-38.5 0,-57.5 43,-57.5 43,-38.5 0,-38.5"/>
<text text-anchor="middle" x="21.5" y="-45.5" font-family="Helvetica,sans-Serif" font-size="10.00">advab</text>
</a>
</g>
</g>
<!-- Node2 -->
<g id="node2" class="node">
<title>Node2</title>
<g id="a_node2"><a xlink:href="navier1_8f.html#a38ba376801cfa958294fae8c90db7680" target="_top" xlink:title=" ">
<polygon fill="white" stroke="red" points="80,-171.5 80,-190.5 128,-190.5 128,-171.5 80,-171.5"/>
<text text-anchor="middle" x="104" y="-178.5" font-family="Helvetica,sans-Serif" font-size="10.00">convop</text>
</a>
</g>
</g>
<!-- Node1&#45;&gt;Node2 -->
<g id="edge1" class="edge">
<title>Node1&#45;&gt;Node2</title>
<path fill="none" stroke="midnightblue" d="M28.29,-57.57C41.57,-79.51 74.41,-133.77 91.79,-162.49"/>
<polygon fill="midnightblue" stroke="midnightblue" points="88.87,-164.42 97.05,-171.16 94.86,-160.8 88.87,-164.42"/>
</g>
<!-- Node57 -->
<g id="node6" class="node">
<title>Node57</title>
<g id="a_node6"><a xlink:href="math_8f.html#af44de42b023a4a68cd98ea341204342d" target="_top" xlink:title=" ">
<polygon fill="white" stroke="black" points="280.5,-171.5 280.5,-190.5 318.5,-190.5 318.5,-171.5 280.5,-171.5"/>
<text text-anchor="middle" x="299.5" y="-178.5" font-family="Helvetica,sans-Serif" font-size="10.00">rzero</text>
</a>
</g>
</g>
<!-- Node1&#45;&gt;Node57 -->
<g id="edge12" class="edge">
<title>Node1&#45;&gt;Node57</title>
<path fill="none" stroke="midnightblue" d="M43.13,-43.62C84.79,-36.01 180.22,-24.87 242,-67 274.26,-89 288.9,-134.96 294.88,-161.31"/>
<polygon fill="midnightblue" stroke="midnightblue" points="291.49,-162.19 296.94,-171.28 298.35,-160.78 291.49,-162.19"/>
</g>
<!-- Node151 -->
<g id="node10" class="node">
<title>Node151</title>
<g id="a_node10"><a xlink:href="math_8f.html#ab775b4418a8ea415b19f2a0861af2636" target="_top" xlink:title=" ">
<polygon fill="white" stroke="black" points="79,-0.5 79,-19.5 129,-19.5 129,-0.5 79,-0.5"/>
<text text-anchor="middle" x="104" y="-7.5" font-family="Helvetica,sans-Serif" font-size="10.00">subcol3</text>
</a>
</g>
</g>
<!-- Node1&#45;&gt;Node151 -->
<g id="edge13" class="edge">
<title>Node1&#45;&gt;Node151</title>
<path fill="none" stroke="midnightblue" d="M42.81,-38.41C52.06,-34.05 63.19,-28.79 73.34,-24"/>
<polygon fill="midnightblue" stroke="midnightblue" points="75.14,-27.02 82.69,-19.59 72.16,-20.69 75.14,-27.02"/>
</g>
<!-- Node3 -->
<g id="node3" class="node">
<title>Node3</title>
<g id="a_node3"><a xlink:href="navier1_8f.html#a864b5c84d724970ce769577d3a7d19c3" target="_top" xlink:title=" ">
<polygon fill="white" stroke="black" points="278,-285.5 278,-304.5 321,-304.5 321,-285.5 278,-285.5"/>
<text text-anchor="middle" x="299.5" y="-292.5" font-family="Helvetica,sans-Serif" font-size="10.00">conv1</text>
</a>
</g>
</g>
<!-- Node2&#45;&gt;Node3 -->
<g id="edge2" class="edge">
<title>Node2&#45;&gt;Node3</title>
<path fill="none" stroke="midnightblue" d="M106.65,-190.62C111.18,-213.6 126.13,-271.53 165,-295 196.1,-313.78 239.17,-309.56 267.89,-303.47"/>
<polygon fill="midnightblue" stroke="midnightblue" points="268.82,-306.84 277.77,-301.18 267.24,-300.02 268.82,-306.84"/>
</g>
<!-- Node4 -->
<g id="node4" class="node">
<title>Node4</title>
<g id="a_node4"><a xlink:href="navier1_8f.html#a1b70ccf853606db85f73ee320f561274" target="_top" xlink:title=" ">
<polygon fill="white" stroke="red" points="179.5,-228.5 179.5,-247.5 227.5,-247.5 227.5,-228.5 179.5,-228.5"/>
<text text-anchor="middle" x="203.5" y="-235.5" font-family="Helvetica,sans-Serif" font-size="10.00">conv1d</text>
</a>
</g>
</g>
<!-- Node2&#45;&gt;Node4 -->
<g id="edge3" class="edge">
<title>Node2&#45;&gt;Node4</title>
<path fill="none" stroke="midnightblue" d="M119.55,-190.77C131.56,-198.69 149.13,-209.98 165,-219 167.86,-220.62 170.87,-222.26 173.89,-223.86"/>
<polygon fill="midnightblue" stroke="midnightblue" points="172.36,-227.01 182.85,-228.49 175.57,-220.79 172.36,-227.01"/>
</g>
<!-- Node39 -->
<g id="node5" class="node">
<title>Node39</title>
<g id="a_node5"><a xlink:href="convect_8f.html#ac5955ce05d0725ed90a8fd09bb96ac81" target="_top" xlink:title=" ">
<polygon fill="white" stroke="red" points="165,-190.5 165,-209.5 242,-209.5 242,-190.5 165,-190.5"/>
<text text-anchor="middle" x="203.5" y="-197.5" font-family="Helvetica,sans-Serif" font-size="10.00">convect_cons</text>
</a>
</g>
</g>
<!-- Node2&#45;&gt;Node39 -->
<g id="edge4" class="edge">
<title>Node2&#45;&gt;Node39</title>
<path fill="none" stroke="midnightblue" d="M128.11,-185.5C136.13,-187.07 145.45,-188.88 154.72,-190.69"/>
<polygon fill="midnightblue" stroke="midnightblue" points="154.21,-194.16 164.7,-192.63 155.55,-187.29 154.21,-194.16"/>
</g>
<!-- Node2&#45;&gt;Node57 -->
<g id="edge11" class="edge">
<title>Node2&#45;&gt;Node57</title>
<path fill="none" stroke="midnightblue" d="M128.34,-181C163.84,-181 231.32,-181 269.77,-181"/>
<polygon fill="midnightblue" stroke="midnightblue" points="270.26,-184.5 280.26,-181 270.26,-177.5 270.26,-184.5"/>
</g>
<!-- Node59 -->
<g id="node7" class="node">
<title>Node59</title>
<g id="a_node7"><a xlink:href="convect_8f.html#ac116aa7e82985c8c7851da63aef07c6c" target="_top" xlink:title=" ">
<polygon fill="white" stroke="red" points="170,-114.5 170,-133.5 237,-133.5 237,-114.5 170,-114.5"/>
<text text-anchor="middle" x="203.5" y="-121.5" font-family="Helvetica,sans-Serif" font-size="10.00">convect_dg</text>
</a>
</g>
</g>
<!-- Node2&#45;&gt;Node59 -->
<g id="edge6" class="edge">
<title>Node2&#45;&gt;Node59</title>
<path fill="none" stroke="midnightblue" d="M121.54,-171.33C136.76,-162.43 159.56,-149.1 177.09,-138.86"/>
<polygon fill="midnightblue" stroke="midnightblue" points="179.34,-141.6 186.2,-133.53 175.81,-135.55 179.34,-141.6"/>
</g>
<!-- Node93 -->
<g id="node8" class="node">
<title>Node93</title>
<g id="a_node8"><a xlink:href="convect_8f.html#aef829efeef773567be893471f50529b1" target="_top" xlink:title=" ">
<polygon fill="white" stroke="red" points="166.5,-76.5 166.5,-95.5 240.5,-95.5 240.5,-76.5 166.5,-76.5"/>
<text text-anchor="middle" x="203.5" y="-83.5" font-family="Helvetica,sans-Serif" font-size="10.00">convect_new</text>
</a>
</g>
</g>
<!-- Node2&#45;&gt;Node93 -->
<g id="edge7" class="edge">
<title>Node2&#45;&gt;Node93</title>
<path fill="none" stroke="midnightblue" d="M110.89,-170.99C120.54,-155.28 141.06,-124.59 165,-105 166.79,-103.54 168.71,-102.14 170.7,-100.83"/>
<polygon fill="midnightblue" stroke="midnightblue" points="172.85,-103.63 179.71,-95.55 169.31,-97.58 172.85,-103.63"/>
</g>
<!-- Node94 -->
<g id="node9" class="node">
<title>Node94</title>
<g id="a_node9"><a xlink:href="navier1_8f.html#a89c10bd50bd97a18d935319a486720c1" target="_top" xlink:title=" ">
<polygon fill="white" stroke="red" points="177,-266.5 177,-285.5 230,-285.5 230,-266.5 177,-266.5"/>
<text text-anchor="middle" x="203.5" y="-273.5" font-family="Helvetica,sans-Serif" font-size="10.00">convopo</text>
</a>
</g>
</g>
<!-- Node2&#45;&gt;Node94 -->
<g id="edge8" class="edge">
<title>Node2&#45;&gt;Node94</title>
<path fill="none" stroke="midnightblue" d="M110.89,-191.01C120.54,-206.72 141.06,-237.41 165,-257 166.79,-258.46 168.71,-259.86 170.7,-261.17"/>
<polygon fill="midnightblue" stroke="midnightblue" points="169.31,-264.42 179.71,-266.45 172.85,-258.37 169.31,-264.42"/>
</g>
<!-- Node39&#45;&gt;Node57 -->
<g id="edge5" class="edge">
<title>Node39&#45;&gt;Node57</title>
<path fill="none" stroke="midnightblue" d="M242.19,-192.38C251.49,-190.5 261.29,-188.52 270.06,-186.75"/>
<polygon fill="midnightblue" stroke="midnightblue" points="271.04,-190.12 280.15,-184.71 269.66,-183.26 271.04,-190.12"/>
</g>
<!-- Node94&#45;&gt;Node3 -->
<g id="edge9" class="edge">
<title>Node94&#45;&gt;Node3</title>
<path fill="none" stroke="midnightblue" d="M230.19,-281.19C241.79,-283.54 255.59,-286.33 267.74,-288.78"/>
<polygon fill="midnightblue" stroke="midnightblue" points="267.41,-292.29 277.9,-290.84 268.79,-285.42 267.41,-292.29"/>
</g>
<!-- Node94&#45;&gt;Node57 -->
<g id="edge10" class="edge">
<title>Node94&#45;&gt;Node57</title>
<path fill="none" stroke="midnightblue" d="M227.76,-266.33C232.73,-263.7 237.76,-260.57 242,-257 261.55,-240.53 278.19,-216.03 288.25,-199.33"/>
<polygon fill="midnightblue" stroke="midnightblue" points="291.37,-200.92 293.38,-190.52 285.32,-197.4 291.37,-200.92"/>
</g>
</g>
</svg>
