<?xml version="1.0" encoding="UTF-8" standalone="no"?>
<!DOCTYPE svg PUBLIC "-//W3C//DTD SVG 1.1//EN"
 "http://www.w3.org/Graphics/SVG/1.1/DTD/svg11.dtd">
<!-- Generated by graphviz version 2.46.0 (0)
 -->
<!-- Title: proj_matvec Pages: 1 -->
<svg width="509pt" height="142pt"
 viewBox="0.00 0.00 509.00 142.00" xmlns="http://www.w3.org/2000/svg" xmlns:xlink="http://www.w3.org/1999/xlink">
<g id="graph0" class="graph" transform="scale(1 1) rotate(0) translate(4 138)">
<title>proj_matvec</title>
<polygon fill="white" stroke="transparent" points="-4,4 -4,-138 505,-138 505,4 -4,4"/>
<!-- Node1 -->
<g id="node1" class="node">
<title>Node1</title>
<g id="a_node1"><a xlink:title=" ">
<polygon fill="#bfbfbf" stroke="black" points="431,-38.5 431,-57.5 501,-57.5 501,-38.5 431,-38.5"/>
<text text-anchor="middle" x="466" y="-45.5" font-family="Helvetica,sans-Serif" font-size="10.00">proj_matvec</text>
</a>
</g>
</g>
<!-- Node2 -->
<g id="node2" class="node">
<title>Node2</title>
<g id="a_node2"><a xlink:href="navier4_8f.html#a142a136172575274b25ce7f923c429fc" target="_top" xlink:title=" ">
<polygon fill="white" stroke="black" points="246,-57.5 246,-76.5 297,-76.5 297,-57.5 246,-57.5"/>
<text text-anchor="middle" x="271.5" y="-64.5" font-family="Helvetica,sans-Serif" font-size="10.00">project1</text>
</a>
</g>
</g>
<!-- Node1&#45;&gt;Node2 -->
<g id="edge1" class="edge">
<title>Node1&#45;&gt;Node2</title>
<path fill="none" stroke="midnightblue" d="M420.21,-52.42C381.88,-56.2 328.13,-61.51 297.15,-64.57"/>
<polygon fill="midnightblue" stroke="midnightblue" points="420.98,-55.86 430.58,-51.4 420.29,-48.9 420.98,-55.86"/>
</g>
<!-- Node64 -->
<g id="node9" class="node">
<title>Node64</title>
<g id="a_node9"><a xlink:href="navier4_8f.html#ab39fd511a29c7e9726338ba7d82d72d8" target="_top" xlink:title=" ">
<polygon fill="white" stroke="black" points="333,-19.5 333,-38.5 395,-38.5 395,-19.5 333,-19.5"/>
<text text-anchor="middle" x="364" y="-26.5" font-family="Helvetica,sans-Serif" font-size="10.00">project2_a</text>
</a>
</g>
</g>
<!-- Node1&#45;&gt;Node64 -->
<g id="edge9" class="edge">
<title>Node1&#45;&gt;Node64</title>
<path fill="none" stroke="midnightblue" d="M420.89,-39.62C412.25,-37.98 403.37,-36.29 395.3,-34.76"/>
<polygon fill="midnightblue" stroke="midnightblue" points="420.39,-43.09 430.87,-41.51 421.69,-36.21 420.39,-43.09"/>
</g>
<!-- Node3 -->
<g id="node3" class="node">
<title>Node3</title>
<g id="a_node3"><a xlink:href="navier4_8f.html#a2c8eef885087bb1ef49c29a936b96918" target="_top" xlink:title=" ">
<polygon fill="white" stroke="black" points="161,-76.5 161,-95.5 206,-95.5 206,-76.5 161,-76.5"/>
<text text-anchor="middle" x="183.5" y="-83.5" font-family="Helvetica,sans-Serif" font-size="10.00">hsolve</text>
</a>
</g>
</g>
<!-- Node2&#45;&gt;Node3 -->
<g id="edge2" class="edge">
<title>Node2&#45;&gt;Node3</title>
<path fill="none" stroke="midnightblue" d="M235.55,-74.72C225.59,-76.92 215.02,-79.26 206.11,-81.23"/>
<polygon fill="midnightblue" stroke="midnightblue" points="236.62,-78.07 245.63,-72.5 235.11,-71.24 236.62,-78.07"/>
</g>
<!-- Node59 -->
<g id="node7" class="node">
<title>Node59</title>
<g id="a_node7"><a xlink:href="meshsmoother_8f.html#a715c42ef301242c75f9ff6cbafe8b538" target="_top" xlink:title=" ">
<polygon fill="white" stroke="red" points="157,-38.5 157,-57.5 210,-57.5 210,-38.5 157,-38.5"/>
<text text-anchor="middle" x="183.5" y="-45.5" font-family="Helvetica,sans-Serif" font-size="10.00">laplaceh</text>
</a>
</g>
</g>
<!-- Node2&#45;&gt;Node59 -->
<g id="edge7" class="edge">
<title>Node2&#45;&gt;Node59</title>
<path fill="none" stroke="midnightblue" d="M235.59,-59.29C227.1,-57.41 218.18,-55.44 210.22,-53.68"/>
<polygon fill="midnightblue" stroke="midnightblue" points="235.11,-62.76 245.63,-61.5 236.62,-55.93 235.11,-62.76"/>
</g>
<!-- Node63 -->
<g id="node8" class="node">
<title>Node63</title>
<g id="a_node8"><a xlink:href="navier4_8f.html#a33e8c6704782f68ea31e02c93acbe495" target="_top" xlink:title=" ">
<polygon fill="white" stroke="black" points="157,-0.5 157,-19.5 210,-19.5 210,-0.5 157,-0.5"/>
<text text-anchor="middle" x="183.5" y="-7.5" font-family="Helvetica,sans-Serif" font-size="10.00">laplacep</text>
</a>
</g>
</g>
<!-- Node2&#45;&gt;Node63 -->
<g id="edge8" class="edge">
<title>Node2&#45;&gt;Node63</title>
<path fill="none" stroke="midnightblue" d="M247.41,-51.69C231.95,-41.45 212.1,-28.29 198.87,-19.53"/>
<polygon fill="midnightblue" stroke="midnightblue" points="245.64,-54.72 255.91,-57.33 249.51,-48.89 245.64,-54.72"/>
</g>
<!-- Node4 -->
<g id="node4" class="node">
<title>Node4</title>
<g id="a_node4"><a xlink:href="conduct_8f.html#a74a7f053381975ed36df8ea959f3aa01" target="_top" xlink:title=" ">
<polygon fill="white" stroke="red" points="76,-114.5 76,-133.5 121,-133.5 121,-114.5 76,-114.5"/>
<text text-anchor="middle" x="98.5" y="-121.5" font-family="Helvetica,sans-Serif" font-size="10.00">cdscal</text>
</a>
</g>
</g>
<!-- Node3&#45;&gt;Node4 -->
<g id="edge3" class="edge">
<title>Node3&#45;&gt;Node4</title>
<path fill="none" stroke="midnightblue" d="M152.24,-99.85C141.68,-104.69 130.07,-110 120.44,-114.41"/>
<polygon fill="midnightblue" stroke="midnightblue" points="153.92,-102.93 161.56,-95.59 151.01,-96.57 153.92,-102.93"/>
</g>
<!-- Node17 -->
<g id="node5" class="node">
<title>Node17</title>
<g id="a_node5"><a xlink:href="induct_8f.html#a1a8a16f24236d6e6f08fe4d60cb29d01" target="_top" xlink:title=" ">
<polygon fill="white" stroke="red" points="76,-76.5 76,-95.5 121,-95.5 121,-76.5 76,-76.5"/>
<text text-anchor="middle" x="98.5" y="-83.5" font-family="Helvetica,sans-Serif" font-size="10.00">ophinv</text>
</a>
</g>
</g>
<!-- Node3&#45;&gt;Node17 -->
<g id="edge4" class="edge">
<title>Node3&#45;&gt;Node17</title>
<path fill="none" stroke="midnightblue" d="M150.46,-86C140.65,-86 130.1,-86 121.16,-86"/>
<polygon fill="midnightblue" stroke="midnightblue" points="150.69,-89.5 160.69,-86 150.69,-82.5 150.69,-89.5"/>
</g>
<!-- Node56 -->
<g id="node6" class="node">
<title>Node56</title>
<g id="a_node6"><a xlink:href="plan4_8f.html#a247fc105464de543a464773054eb509e" target="_top" xlink:title=" ">
<polygon fill="white" stroke="red" points="0,-57.5 0,-76.5 40,-76.5 40,-57.5 0,-57.5"/>
<text text-anchor="middle" x="20" y="-64.5" font-family="Helvetica,sans-Serif" font-size="10.00">plan4</text>
</a>
</g>
</g>
<!-- Node3&#45;&gt;Node56 -->
<g id="edge6" class="edge">
<title>Node3&#45;&gt;Node56</title>
<path fill="none" stroke="midnightblue" d="M151.41,-74.42C141.8,-71.38 131.09,-68.52 121,-67 93.19,-62.8 60.53,-63.92 40.3,-65.3"/>
<polygon fill="midnightblue" stroke="midnightblue" points="150.36,-77.76 160.95,-77.6 152.58,-71.12 150.36,-77.76"/>
</g>
<!-- Node17&#45;&gt;Node56 -->
<g id="edge5" class="edge">
<title>Node17&#45;&gt;Node56</title>
<path fill="none" stroke="midnightblue" d="M65.87,-78.14C57.15,-75.98 47.95,-73.69 40.17,-71.76"/>
<polygon fill="midnightblue" stroke="midnightblue" points="65.23,-81.59 75.78,-80.61 66.92,-74.8 65.23,-81.59"/>
</g>
<!-- Node65 -->
<g id="node10" class="node">
<title>Node65</title>
<g id="a_node10"><a xlink:href="navier4_8f.html#ac1700cca28238294c52879cb29424911" target="_top" xlink:title=" ">
<polygon fill="white" stroke="black" points="246,-19.5 246,-38.5 297,-38.5 297,-19.5 246,-19.5"/>
<text text-anchor="middle" x="271.5" y="-26.5" font-family="Helvetica,sans-Serif" font-size="10.00">project2</text>
</a>
</g>
</g>
<!-- Node64&#45;&gt;Node65 -->
<g id="edge10" class="edge">
<title>Node64&#45;&gt;Node65</title>
<path fill="none" stroke="midnightblue" d="M322.78,-29C314.03,-29 305.02,-29 297.09,-29"/>
<polygon fill="midnightblue" stroke="midnightblue" points="322.86,-32.5 332.86,-29 322.86,-25.5 322.86,-32.5"/>
</g>
<!-- Node65&#45;&gt;Node3 -->
<g id="edge11" class="edge">
<title>Node65&#45;&gt;Node3</title>
<path fill="none" stroke="midnightblue" d="M247.41,-44.31C231.95,-54.55 212.1,-67.71 198.87,-76.47"/>
<polygon fill="midnightblue" stroke="midnightblue" points="249.51,-47.11 255.91,-38.67 245.64,-41.28 249.51,-47.11"/>
</g>
<!-- Node65&#45;&gt;Node59 -->
<g id="edge12" class="edge">
<title>Node65&#45;&gt;Node59</title>
<path fill="none" stroke="midnightblue" d="M235.59,-36.71C227.1,-38.59 218.18,-40.56 210.22,-42.32"/>
<polygon fill="midnightblue" stroke="midnightblue" points="236.62,-40.07 245.63,-34.5 235.11,-33.24 236.62,-40.07"/>
</g>
<!-- Node65&#45;&gt;Node63 -->
<g id="edge13" class="edge">
<title>Node65&#45;&gt;Node63</title>
<path fill="none" stroke="midnightblue" d="M235.59,-21.29C227.1,-19.41 218.18,-17.44 210.22,-15.68"/>
<polygon fill="midnightblue" stroke="midnightblue" points="235.11,-24.76 245.63,-23.5 236.62,-17.93 235.11,-24.76"/>
</g>
</g>
</svg>
