<?xml version="1.0" encoding="UTF-8" standalone="no"?>
<!DOCTYPE svg PUBLIC "-//W3C//DTD SVG 1.1//EN"
 "http://www.w3.org/Graphics/SVG/1.1/DTD/svg11.dtd">
<!-- Generated by graphviz version 2.46.0 (0)
 -->
<!-- Title: ran1 Pages: 1 -->
<svg width="599pt" height="104pt"
 viewBox="0.00 0.00 599.00 104.00" xmlns="http://www.w3.org/2000/svg" xmlns:xlink="http://www.w3.org/1999/xlink">
<g id="graph0" class="graph" transform="scale(1 1) rotate(0) translate(4 100)">
<title>ran1</title>
<polygon fill="white" stroke="transparent" points="-4,4 -4,-100 595,-100 595,4 -4,4"/>
<!-- Node1 -->
<g id="node1" class="node">
<title>Node1</title>
<g id="a_node1"><a xlink:title=" ">
<polygon fill="#bfbfbf" stroke="black" points="556,-38.5 556,-57.5 591,-57.5 591,-38.5 556,-38.5"/>
<text text-anchor="middle" x="573.5" y="-45.5" font-family="Helvetica,sans-Serif" font-size="10.00">ran1</text>
</a>
</g>
</g>
<!-- Node2 -->
<g id="node2" class="node">
<title>Node2</title>
<g id="a_node2"><a xlink:href="navier5_8f.html#a0a5183b7f1b1b44e49ac619b15930223" target="_top" xlink:title=" ">
<polygon fill="white" stroke="black" points="453,-38.5 453,-57.5 520,-57.5 520,-38.5 453,-38.5"/>
<text text-anchor="middle" x="486.5" y="-45.5" font-family="Helvetica,sans-Serif" font-size="10.00">rand_fld_h1</text>
</a>
</g>
</g>
<!-- Node1&#45;&gt;Node2 -->
<g id="edge1" class="edge">
<title>Node1&#45;&gt;Node2</title>
<path fill="none" stroke="midnightblue" d="M545.67,-48C537.55,-48 528.54,-48 520.09,-48"/>
<polygon fill="midnightblue" stroke="midnightblue" points="545.71,-51.5 555.71,-48 545.71,-44.5 545.71,-51.5"/>
</g>
<!-- Node3 -->
<g id="node3" class="node">
<title>Node3</title>
<g id="a_node3"><a xlink:href="eigsolv_8f.html#a641903cf1502c362e017e07dcb6cae02" target="_top" xlink:title=" ">
<polygon fill="white" stroke="black" points="370,-38.5 370,-57.5 417,-57.5 417,-38.5 370,-38.5"/>
<text text-anchor="middle" x="393.5" y="-45.5" font-family="Helvetica,sans-Serif" font-size="10.00">startx1</text>
</a>
</g>
</g>
<!-- Node2&#45;&gt;Node3 -->
<g id="edge2" class="edge">
<title>Node2&#45;&gt;Node3</title>
<path fill="none" stroke="midnightblue" d="M442.7,-48C433.89,-48 424.94,-48 417.18,-48"/>
<polygon fill="midnightblue" stroke="midnightblue" points="442.9,-51.5 452.9,-48 442.9,-44.5 442.9,-51.5"/>
</g>
<!-- Node4 -->
<g id="node4" class="node">
<title>Node4</title>
<g id="a_node4"><a xlink:href="eigsolv_8f.html#a285ca4aa2354ca8584af31946d6761c2" target="_top" xlink:title=" ">
<polygon fill="white" stroke="black" points="276.5,-57.5 276.5,-76.5 329.5,-76.5 329.5,-57.5 276.5,-57.5"/>
<text text-anchor="middle" x="303" y="-64.5" font-family="Helvetica,sans-Serif" font-size="10.00">alpham1</text>
</a>
</g>
</g>
<!-- Node3&#45;&gt;Node4 -->
<g id="edge3" class="edge">
<title>Node3&#45;&gt;Node4</title>
<path fill="none" stroke="midnightblue" d="M359.71,-55.04C349.74,-57.18 338.94,-59.5 329.52,-61.52"/>
<polygon fill="midnightblue" stroke="midnightblue" points="360.67,-58.41 369.71,-52.89 359.2,-51.57 360.67,-58.41"/>
</g>
<!-- Node15 -->
<g id="node10" class="node">
<title>Node15</title>
<g id="a_node10"><a xlink:href="eigsolv_8f.html#a40aa959fb07551b7b3fe2e5bd7ed6fda" target="_top" xlink:title=" ">
<polygon fill="white" stroke="black" points="272,-19.5 272,-38.5 334,-38.5 334,-19.5 272,-19.5"/>
<text text-anchor="middle" x="303" y="-26.5" font-family="Helvetica,sans-Serif" font-size="10.00">gammam1</text>
</a>
</g>
</g>
<!-- Node3&#45;&gt;Node15 -->
<g id="edge9" class="edge">
<title>Node3&#45;&gt;Node15</title>
<path fill="none" stroke="midnightblue" d="M359.81,-40.98C351.38,-39.17 342.35,-37.23 334.06,-35.45"/>
<polygon fill="midnightblue" stroke="midnightblue" points="359.2,-44.43 369.71,-43.11 360.67,-37.59 359.2,-44.43"/>
</g>
<!-- Node5 -->
<g id="node5" class="node">
<title>Node5</title>
<g id="a_node5"><a xlink:href="eigsolv_8f.html#a91ddf7cb5ca6b19d1c736da5bf7386b3" target="_top" xlink:title=" ">
<polygon fill="white" stroke="black" points="191,-38.5 191,-57.5 236,-57.5 236,-38.5 191,-38.5"/>
<text text-anchor="middle" x="213.5" y="-45.5" font-family="Helvetica,sans-Serif" font-size="10.00">eigenv</text>
</a>
</g>
</g>
<!-- Node4&#45;&gt;Node5 -->
<g id="edge4" class="edge">
<title>Node4&#45;&gt;Node5</title>
<path fill="none" stroke="midnightblue" d="M266.32,-59.25C256.13,-57.04 245.34,-54.7 236.26,-52.72"/>
<polygon fill="midnightblue" stroke="midnightblue" points="265.71,-62.7 276.22,-61.4 267.19,-55.86 265.71,-62.7"/>
</g>
<!-- Node6 -->
<g id="node6" class="node">
<title>Node6</title>
<g id="a_node6"><a xlink:href="drive2_8f.html#a7f0d055bb47546a4859ac7d63339197e" target="_top" xlink:title=" ">
<polygon fill="white" stroke="red" points="110,-38.5 110,-57.5 155,-57.5 155,-38.5 110,-38.5"/>
<text text-anchor="middle" x="132.5" y="-45.5" font-family="Helvetica,sans-Serif" font-size="10.00">geneig</text>
</a>
</g>
</g>
<!-- Node5&#45;&gt;Node6 -->
<g id="edge5" class="edge">
<title>Node5&#45;&gt;Node6</title>
<path fill="none" stroke="midnightblue" d="M180.76,-48C172.13,-48 162.98,-48 155.06,-48"/>
<polygon fill="midnightblue" stroke="midnightblue" points="180.91,-51.5 190.91,-48 180.91,-44.5 180.91,-51.5"/>
</g>
<!-- Node7 -->
<g id="node7" class="node">
<title>Node7</title>
<g id="a_node7"><a xlink:href="ssolv_8f.html#a4bb42a5afabbba8c6518d83cbe481c17" target="_top" xlink:title=" ">
<polygon fill="white" stroke="black" points="11.5,-76.5 11.5,-95.5 62.5,-95.5 62.5,-76.5 11.5,-76.5"/>
<text text-anchor="middle" x="37" y="-83.5" font-family="Helvetica,sans-Serif" font-size="10.00">go1step</text>
</a>
</g>
</g>
<!-- Node6&#45;&gt;Node7 -->
<g id="edge6" class="edge">
<title>Node6&#45;&gt;Node7</title>
<path fill="none" stroke="midnightblue" d="M100.51,-60.59C87.81,-65.76 73.35,-71.63 61.53,-76.44"/>
<polygon fill="midnightblue" stroke="midnightblue" points="101.87,-63.82 109.81,-56.81 99.23,-57.34 101.87,-63.82"/>
</g>
<!-- Node8 -->
<g id="node8" class="node">
<title>Node8</title>
<g id="a_node8"><a xlink:href="ssolv_8f.html#a2de8913c214fa083dcb088c57bd45272" target="_top" xlink:title=" ">
<polygon fill="white" stroke="red" points="14,-38.5 14,-57.5 60,-57.5 60,-38.5 14,-38.5"/>
<text text-anchor="middle" x="37" y="-45.5" font-family="Helvetica,sans-Serif" font-size="10.00">gostep</text>
</a>
</g>
</g>
<!-- Node6&#45;&gt;Node8 -->
<g id="edge7" class="edge">
<title>Node6&#45;&gt;Node8</title>
<path fill="none" stroke="midnightblue" d="M99.45,-48C86.53,-48 71.94,-48 60.22,-48"/>
<polygon fill="midnightblue" stroke="midnightblue" points="99.81,-51.5 109.81,-48 99.81,-44.5 99.81,-51.5"/>
</g>
<!-- Node10 -->
<g id="node9" class="node">
<title>Node10</title>
<g id="a_node9"><a xlink:href="drive1_8f.html#ae177ea7efac97f35241521b782a671c0" target="_top" xlink:title=" ">
<polygon fill="white" stroke="red" points="0,-0.5 0,-19.5 74,-19.5 74,-0.5 0,-0.5"/>
<text text-anchor="middle" x="37" y="-7.5" font-family="Helvetica,sans-Serif" font-size="10.00">nek_advance</text>
</a>
</g>
</g>
<!-- Node6&#45;&gt;Node10 -->
<g id="edge8" class="edge">
<title>Node6&#45;&gt;Node10</title>
<path fill="none" stroke="midnightblue" d="M100.51,-35.41C87.81,-30.24 73.35,-24.37 61.53,-19.56"/>
<polygon fill="midnightblue" stroke="midnightblue" points="99.23,-38.66 109.81,-39.19 101.87,-32.18 99.23,-38.66"/>
</g>
<!-- Node15&#45;&gt;Node5 -->
<g id="edge10" class="edge">
<title>Node15&#45;&gt;Node5</title>
<path fill="none" stroke="midnightblue" d="M261.99,-37.69C253.07,-39.62 243.94,-41.61 236.11,-43.31"/>
<polygon fill="midnightblue" stroke="midnightblue" points="262.86,-41.08 271.89,-35.54 261.37,-34.24 262.86,-41.08"/>
</g>
</g>
</svg>
