<?xml version="1.0" encoding="UTF-8" standalone="no"?>
<!DOCTYPE svg PUBLIC "-//W3C//DTD SVG 1.1//EN"
 "http://www.w3.org/Graphics/SVG/1.1/DTD/svg11.dtd">
<!-- Generated by graphviz version 2.46.0 (0)
 -->
<!-- Title: opbinv1 Pages: 1 -->
<svg width="339pt" height="277pt"
 viewBox="0.00 0.00 339.00 276.83" xmlns="http://www.w3.org/2000/svg" xmlns:xlink="http://www.w3.org/1999/xlink">
<g id="graph0" class="graph" transform="scale(1 1) rotate(0) translate(4 272.83)">
<title>opbinv1</title>
<polygon fill="white" stroke="transparent" points="-4,4 -4,-272.83 335,-272.83 335,4 -4,4"/>
<!-- Node1 -->
<g id="node1" class="node">
<title>Node1</title>
<g id="a_node1"><a xlink:title=" ">
<polygon fill="#bfbfbf" stroke="black" points="281,-133.5 281,-152.5 331,-152.5 331,-133.5 281,-133.5"/>
<text text-anchor="middle" x="306" y="-140.5" font-family="Helvetica,sans-Serif" font-size="10.00">opbinv1</text>
</a>
</g>
</g>
<!-- Node2 -->
<g id="node2" class="node">
<title>Node2</title>
<g id="a_node2"><a xlink:href="navier1_8f.html#a65f34d5a85fb540d8cb0fd1fbf1d2e6b" target="_top" xlink:title=" ">
<polygon fill="white" stroke="red" points="194,-133.5 194,-152.5 245,-152.5 245,-133.5 194,-133.5"/>
<text text-anchor="middle" x="219.5" y="-140.5" font-family="Helvetica,sans-Serif" font-size="10.00">cdabdtp</text>
</a>
</g>
</g>
<!-- Node1&#45;&gt;Node2 -->
<g id="edge1" class="edge">
<title>Node1&#45;&gt;Node2</title>
<path fill="none" stroke="midnightblue" d="M270.51,-143C262.02,-143 253.1,-143 245.18,-143"/>
<polygon fill="midnightblue" stroke="midnightblue" points="270.56,-146.5 280.56,-143 270.56,-139.5 270.56,-146.5"/>
</g>
<!-- Node3 -->
<g id="node3" class="node">
<title>Node3</title>
<g id="a_node3"><a xlink:href="eigsolv_8f.html#ae85b67491410da26b954f7e1257a7938" target="_top" xlink:title=" ">
<polygon fill="white" stroke="red" points="0,-133.5 0,-152.5 53,-152.5 53,-133.5 0,-133.5"/>
<text text-anchor="middle" x="26.5" y="-140.5" font-family="Helvetica,sans-Serif" font-size="10.00">alpham2</text>
</a>
</g>
</g>
<!-- Node2&#45;&gt;Node3 -->
<g id="edge2" class="edge">
<title>Node2&#45;&gt;Node3</title>
<path fill="none" stroke="midnightblue" d="M214.64,-162.39C208.15,-189.14 192.26,-236.4 158,-257 131.72,-272.8 115.33,-272.72 89,-257 49.8,-233.61 34.1,-175.63 29.28,-152.63"/>
<polygon fill="midnightblue" stroke="midnightblue" points="218.06,-163.14 216.81,-152.62 211.22,-161.62 218.06,-163.14"/>
</g>
<!-- Node14 -->
<g id="node4" class="node">
<title>Node14</title>
<g id="a_node4"><a xlink:href="navier4_8f.html#a06054dac336f2f8055223e0e77ae4c96" target="_top" xlink:title=" ">
<polygon fill="white" stroke="red" points="103.5,-228.5 103.5,-247.5 143.5,-247.5 143.5,-228.5 103.5,-228.5"/>
<text text-anchor="middle" x="123.5" y="-235.5" font-family="Helvetica,sans-Serif" font-size="10.00">econj</text>
</a>
</g>
</g>
<!-- Node2&#45;&gt;Node14 -->
<g id="edge3" class="edge">
<title>Node2&#45;&gt;Node14</title>
<path fill="none" stroke="midnightblue" d="M206.7,-161.61C195.58,-178.11 177.72,-202.15 158,-219 153.73,-222.65 148.66,-225.95 143.76,-228.74"/>
<polygon fill="midnightblue" stroke="midnightblue" points="209.87,-163.15 212.43,-152.87 204.02,-159.31 209.87,-163.15"/>
</g>
<!-- Node28 -->
<g id="node5" class="node">
<title>Node28</title>
<g id="a_node5"><a xlink:href="induct_8f.html#a96c838aa6e55891919a329dc50e1ae0e" target="_top" xlink:title=" ">
<polygon fill="white" stroke="red" points="101,-190.5 101,-209.5 146,-209.5 146,-190.5 101,-190.5"/>
<text text-anchor="middle" x="123.5" y="-197.5" font-family="Helvetica,sans-Serif" font-size="10.00">econjp</text>
</a>
</g>
</g>
<!-- Node2&#45;&gt;Node28 -->
<g id="edge4" class="edge">
<title>Node2&#45;&gt;Node28</title>
<path fill="none" stroke="midnightblue" d="M194.98,-158.11C183.85,-165.18 170.31,-173.65 158,-181 152.72,-184.15 146.91,-187.5 141.63,-190.48"/>
<polygon fill="midnightblue" stroke="midnightblue" points="197.15,-160.89 203.7,-152.56 193.38,-154.98 197.15,-160.89"/>
</g>
<!-- Node30 -->
<g id="node6" class="node">
<title>Node30</title>
<g id="a_node6"><a xlink:href="eigsolv_8f.html#aca8bd4d1702a986c85fad671139a5527" target="_top" xlink:title=" ">
<polygon fill="white" stroke="red" points="92.5,-152.5 92.5,-171.5 154.5,-171.5 154.5,-152.5 92.5,-152.5"/>
<text text-anchor="middle" x="123.5" y="-159.5" font-family="Helvetica,sans-Serif" font-size="10.00">gammam2</text>
</a>
</g>
</g>
<!-- Node2&#45;&gt;Node30 -->
<g id="edge5" class="edge">
<title>Node2&#45;&gt;Node30</title>
<path fill="none" stroke="midnightblue" d="M183.82,-150.01C174.27,-151.94 164,-154.02 154.74,-155.89"/>
<polygon fill="midnightblue" stroke="midnightblue" points="184.69,-153.4 193.8,-147.99 183.31,-146.54 184.69,-153.4"/>
</g>
<!-- Node31 -->
<g id="node7" class="node">
<title>Node31</title>
<g id="a_node7"><a xlink:href="hsmg_8f.html#ab28b637ce952431f92c7210efdd23b52" target="_top" xlink:title=" ">
<polygon fill="white" stroke="red" points="89,-114.5 89,-133.5 158,-133.5 158,-114.5 89,-114.5"/>
<text text-anchor="middle" x="123.5" y="-121.5" font-family="Helvetica,sans-Serif" font-size="10.00">hsmg_solve</text>
</a>
</g>
</g>
<!-- Node2&#45;&gt;Node31 -->
<g id="edge6" class="edge">
<title>Node2&#45;&gt;Node31</title>
<path fill="none" stroke="midnightblue" d="M183.93,-136.01C175.53,-134.32 166.57,-132.5 158.22,-130.82"/>
<polygon fill="midnightblue" stroke="midnightblue" points="183.31,-139.46 193.8,-138.01 184.69,-132.6 183.31,-139.46"/>
</g>
<!-- Node16 -->
<g id="node8" class="node">
<title>Node16</title>
<g id="a_node8"><a xlink:href="navier4_8f.html#ab45b3f95f3d48e640cd1d7bee5f21fc6" target="_top" xlink:title=" ">
<polygon fill="white" stroke="black" points="101.5,-76.5 101.5,-95.5 145.5,-95.5 145.5,-76.5 101.5,-76.5"/>
<text text-anchor="middle" x="123.5" y="-83.5" font-family="Helvetica,sans-Serif" font-size="10.00">setrhs</text>
</a>
</g>
</g>
<!-- Node2&#45;&gt;Node16 -->
<g id="edge7" class="edge">
<title>Node2&#45;&gt;Node16</title>
<path fill="none" stroke="midnightblue" d="M194.98,-127.89C183.85,-120.82 170.31,-112.35 158,-105 152.72,-101.85 146.91,-98.5 141.63,-95.52"/>
<polygon fill="midnightblue" stroke="midnightblue" points="193.38,-131.02 203.7,-133.44 197.15,-125.11 193.38,-131.02"/>
</g>
<!-- Node17 -->
<g id="node9" class="node">
<title>Node17</title>
<g id="a_node9"><a xlink:href="induct_8f.html#a85f2bbdd91096e0df0353ebd6968b71d" target="_top" xlink:title=" ">
<polygon fill="white" stroke="red" points="99,-38.5 99,-57.5 148,-57.5 148,-38.5 99,-38.5"/>
<text text-anchor="middle" x="123.5" y="-45.5" font-family="Helvetica,sans-Serif" font-size="10.00">setrhsp</text>
</a>
</g>
</g>
<!-- Node2&#45;&gt;Node17 -->
<g id="edge8" class="edge">
<title>Node2&#45;&gt;Node17</title>
<path fill="none" stroke="midnightblue" d="M206.7,-124.39C195.58,-107.89 177.72,-83.85 158,-67 153.93,-63.52 149.14,-60.37 144.46,-57.67"/>
<polygon fill="midnightblue" stroke="midnightblue" points="204.02,-126.69 212.43,-133.13 209.87,-122.85 204.02,-126.69"/>
</g>
<!-- Node43 -->
<g id="node10" class="node">
<title>Node43</title>
<g id="a_node10"><a xlink:href="navier1_8f.html#a159801e9971330a0281ce3a6f984b7de" target="_top" xlink:title=" ">
<polygon fill="white" stroke="red" points="101,-0.5 101,-19.5 146,-19.5 146,-0.5 101,-0.5"/>
<text text-anchor="middle" x="123.5" y="-7.5" font-family="Helvetica,sans-Serif" font-size="10.00">uzawa</text>
</a>
</g>
</g>
<!-- Node2&#45;&gt;Node43 -->
<g id="edge9" class="edge">
<title>Node2&#45;&gt;Node43</title>
<path fill="none" stroke="midnightblue" d="M212.12,-123.73C203.22,-99.25 185.08,-56.85 158,-29 154.46,-25.36 150.07,-22.2 145.64,-19.57"/>
<polygon fill="midnightblue" stroke="midnightblue" points="208.86,-125.03 215.46,-133.32 215.47,-122.72 208.86,-125.03"/>
</g>
<!-- Node43&#45;&gt;Node3 -->
<g id="edge10" class="edge">
<title>Node43&#45;&gt;Node3</title>
<path fill="none" stroke="midnightblue" d="M92.93,-25.43C91.54,-26.56 90.22,-27.75 89,-29 57.69,-60.98 37.9,-112.13 30.63,-133.32"/>
<polygon fill="midnightblue" stroke="midnightblue" points="95.14,-28.15 101.38,-19.59 91.16,-22.4 95.14,-28.15"/>
</g>
</g>
</svg>
