<?xml version="1.0" encoding="UTF-8" standalone="no"?>
<!DOCTYPE svg PUBLIC "-//W3C//DTD SVG 1.1//EN"
 "http://www.w3.org/Graphics/SVG/1.1/DTD/svg11.dtd">
<!-- Generated by graphviz version 2.46.0 (0)
 -->
<!-- Title: mapwp Pages: 1 -->
<svg width="342pt" height="256pt"
 viewBox="0.00 0.00 342.00 256.00" xmlns="http://www.w3.org/2000/svg" xmlns:xlink="http://www.w3.org/1999/xlink">
<g id="graph0" class="graph" transform="scale(1 1) rotate(0) translate(4 252)">
<title>mapwp</title>
<polygon fill="white" stroke="transparent" points="-4,4 -4,-252 338,-252 338,4 -4,4"/>
<!-- Node1 -->
<g id="node1" class="node">
<title>Node1</title>
<g id="a_node1"><a xlink:title=" ">
<polygon fill="#bfbfbf" stroke="black" points="286,-114.5 286,-133.5 334,-133.5 334,-114.5 286,-114.5"/>
<text text-anchor="middle" x="310" y="-121.5" font-family="Helvetica,sans-Serif" font-size="10.00">mapwp</text>
</a>
</g>
</g>
<!-- Node2 -->
<g id="node2" class="node">
<title>Node2</title>
<g id="a_node2"><a xlink:href="navier1_8f.html#a1b70ccf853606db85f73ee320f561274" target="_top" xlink:title=" ">
<polygon fill="white" stroke="black" points="202,-114.5 202,-133.5 250,-133.5 250,-114.5 202,-114.5"/>
<text text-anchor="middle" x="226" y="-121.5" font-family="Helvetica,sans-Serif" font-size="10.00">conv1d</text>
</a>
</g>
</g>
<!-- Node1&#45;&gt;Node2 -->
<g id="edge1" class="edge">
<title>Node1&#45;&gt;Node2</title>
<path fill="none" stroke="midnightblue" d="M275.59,-124C267.01,-124 257.98,-124 250.05,-124"/>
<polygon fill="midnightblue" stroke="midnightblue" points="275.72,-127.5 285.72,-124 275.72,-120.5 275.72,-127.5"/>
</g>
<!-- Node3 -->
<g id="node3" class="node">
<title>Node3</title>
<g id="a_node3"><a xlink:href="navier1_8f.html#a38ba376801cfa958294fae8c90db7680" target="_top" xlink:title=" ">
<polygon fill="white" stroke="red" points="118,-114.5 118,-133.5 166,-133.5 166,-114.5 118,-114.5"/>
<text text-anchor="middle" x="142" y="-121.5" font-family="Helvetica,sans-Serif" font-size="10.00">convop</text>
</a>
</g>
</g>
<!-- Node2&#45;&gt;Node3 -->
<g id="edge2" class="edge">
<title>Node2&#45;&gt;Node3</title>
<path fill="none" stroke="midnightblue" d="M191.59,-124C183.01,-124 173.98,-124 166.05,-124"/>
<polygon fill="midnightblue" stroke="midnightblue" points="191.72,-127.5 201.72,-124 191.72,-120.5 191.72,-127.5"/>
</g>
<!-- Node4 -->
<g id="node4" class="node">
<title>Node4</title>
<g id="a_node4"><a xlink:href="navier1_8f.html#a344ec731e4a89d0f136c91bc1963e8d5" target="_top" xlink:title=" ">
<polygon fill="white" stroke="red" points="19.5,-228.5 19.5,-247.5 62.5,-247.5 62.5,-228.5 19.5,-228.5"/>
<text text-anchor="middle" x="41" y="-235.5" font-family="Helvetica,sans-Serif" font-size="10.00">advab</text>
</a>
</g>
</g>
<!-- Node3&#45;&gt;Node4 -->
<g id="edge3" class="edge">
<title>Node3&#45;&gt;Node4</title>
<path fill="none" stroke="midnightblue" d="M133.16,-143.02C123.7,-163.97 106.03,-197.53 82,-219 76.5,-223.92 69.5,-227.82 62.89,-230.77"/>
<polygon fill="midnightblue" stroke="midnightblue" points="136.47,-144.17 137.24,-133.6 130.05,-141.39 136.47,-144.17"/>
</g>
<!-- Node18 -->
<g id="node5" class="node">
<title>Node18</title>
<g id="a_node5"><a xlink:href="perturb_8f.html#a57aed02316492f3059b70c7a98e4e2f9" target="_top" xlink:title=" ">
<polygon fill="white" stroke="red" points="17,-190.5 17,-209.5 65,-209.5 65,-190.5 17,-190.5"/>
<text text-anchor="middle" x="41" y="-197.5" font-family="Helvetica,sans-Serif" font-size="10.00">advabp</text>
</a>
</g>
</g>
<!-- Node3&#45;&gt;Node18 -->
<g id="edge4" class="edge">
<title>Node3&#45;&gt;Node18</title>
<path fill="none" stroke="midnightblue" d="M125.67,-141.58C114.44,-153.72 98.36,-169.67 82,-181 76.82,-184.59 70.85,-187.83 65.13,-190.57"/>
<polygon fill="midnightblue" stroke="midnightblue" points="128.52,-143.65 132.62,-133.88 123.32,-138.96 128.52,-143.65"/>
</g>
<!-- Node22 -->
<g id="node6" class="node">
<title>Node22</title>
<g id="a_node6"><a xlink:href="perturb_8f.html#afb8592701ab3283a1c01ed23f1d0ff56" target="_top" xlink:title=" ">
<polygon fill="white" stroke="red" points="0,-152.5 0,-171.5 82,-171.5 82,-152.5 0,-152.5"/>
<text text-anchor="middle" x="41" y="-159.5" font-family="Helvetica,sans-Serif" font-size="10.00">advabp_adjoint</text>
</a>
</g>
</g>
<!-- Node3&#45;&gt;Node22 -->
<g id="edge5" class="edge">
<title>Node3&#45;&gt;Node22</title>
<path fill="none" stroke="midnightblue" d="M108.34,-136.54C94.81,-141.73 79.37,-147.65 66.8,-152.48"/>
<polygon fill="midnightblue" stroke="midnightblue" points="109.71,-139.76 117.79,-132.91 107.2,-133.23 109.71,-139.76"/>
</g>
<!-- Node23 -->
<g id="node7" class="node">
<title>Node23</title>
<g id="a_node7"><a xlink:href="avm_8f.html#a9e1209421d37bc600934cdb4974e3437" target="_top" xlink:title=" ">
<polygon fill="white" stroke="black" points="11.5,-114.5 11.5,-133.5 70.5,-133.5 70.5,-114.5 11.5,-114.5"/>
<text text-anchor="middle" x="41" y="-121.5" font-family="Helvetica,sans-Serif" font-size="10.00">avm_vdiff</text>
</a>
</g>
</g>
<!-- Node3&#45;&gt;Node23 -->
<g id="edge6" class="edge">
<title>Node3&#45;&gt;Node23</title>
<path fill="none" stroke="midnightblue" d="M107.7,-124C95.71,-124 82.3,-124 70.73,-124"/>
<polygon fill="midnightblue" stroke="midnightblue" points="107.79,-127.5 117.79,-124 107.79,-120.5 107.79,-127.5"/>
</g>
<!-- Node24 -->
<g id="node8" class="node">
<title>Node24</title>
<g id="a_node8"><a xlink:href="conduct_8f.html#a7510fbfdadf0b575693f3a78f424f63f" target="_top" xlink:title=" ">
<polygon fill="white" stroke="red" points="17,-76.5 17,-95.5 65,-95.5 65,-76.5 17,-76.5"/>
<text text-anchor="middle" x="41" y="-83.5" font-family="Helvetica,sans-Serif" font-size="10.00">convab</text>
</a>
</g>
</g>
<!-- Node3&#45;&gt;Node24 -->
<g id="edge7" class="edge">
<title>Node3&#45;&gt;Node24</title>
<path fill="none" stroke="midnightblue" d="M108.38,-111.48C94.21,-106.04 77.95,-99.8 65.07,-94.85"/>
<polygon fill="midnightblue" stroke="midnightblue" points="107.2,-114.77 117.79,-115.09 109.71,-108.24 107.2,-114.77"/>
</g>
<!-- Node35 -->
<g id="node9" class="node">
<title>Node35</title>
<g id="a_node9"><a xlink:href="perturb_8f.html#af52a0c97e2b81a66c30b2a249b81d967" target="_top" xlink:title=" ">
<polygon fill="white" stroke="red" points="14.5,-38.5 14.5,-57.5 67.5,-57.5 67.5,-38.5 14.5,-38.5"/>
<text text-anchor="middle" x="41" y="-45.5" font-family="Helvetica,sans-Serif" font-size="10.00">convabp</text>
</a>
</g>
</g>
<!-- Node3&#45;&gt;Node35 -->
<g id="edge8" class="edge">
<title>Node3&#45;&gt;Node35</title>
<path fill="none" stroke="midnightblue" d="M125.67,-106.42C114.44,-94.28 98.36,-78.33 82,-67 76.94,-63.5 71.14,-60.33 65.55,-57.63"/>
<polygon fill="midnightblue" stroke="midnightblue" points="123.32,-109.04 132.62,-114.12 128.52,-104.35 123.32,-109.04"/>
</g>
<!-- Node39 -->
<g id="node10" class="node">
<title>Node39</title>
<g id="a_node10"><a xlink:href="navier1_8f.html#a01b8e6d77ce5475413e1503d2d3c4317" target="_top" xlink:title=" ">
<polygon fill="white" stroke="red" points="16.5,-0.5 16.5,-19.5 65.5,-19.5 65.5,-0.5 16.5,-0.5"/>
<text text-anchor="middle" x="41" y="-7.5" font-family="Helvetica,sans-Serif" font-size="10.00">frkconv</text>
</a>
</g>
</g>
<!-- Node3&#45;&gt;Node39 -->
<g id="edge9" class="edge">
<title>Node3&#45;&gt;Node39</title>
<path fill="none" stroke="midnightblue" d="M133.16,-104.98C123.7,-84.03 106.03,-50.47 82,-29 77.3,-24.8 71.51,-21.34 65.8,-18.58"/>
<polygon fill="midnightblue" stroke="midnightblue" points="130.05,-106.61 137.24,-114.4 136.47,-103.83 130.05,-106.61"/>
</g>
</g>
</svg>
