<?xml version="1.0" encoding="UTF-8" standalone="no"?>
<!DOCTYPE svg PUBLIC "-//W3C//DTD SVG 1.1//EN"
 "http://www.w3.org/Graphics/SVG/1.1/DTD/svg11.dtd">
<!-- Generated by graphviz version 2.46.0 (0)
 -->
<!-- Title: uzprec Pages: 1 -->
<svg width="292pt" height="332pt"
 viewBox="0.00 0.00 292.00 332.00" xmlns="http://www.w3.org/2000/svg" xmlns:xlink="http://www.w3.org/1999/xlink">
<g id="graph0" class="graph" transform="scale(1 1) rotate(0) translate(4 328)">
<title>uzprec</title>
<polygon fill="white" stroke="transparent" points="-4,4 -4,-328 288,-328 288,4 -4,4"/>
<!-- Node1 -->
<g id="node1" class="node">
<title>Node1</title>
<g id="a_node1"><a xlink:title=" ">
<polygon fill="#bfbfbf" stroke="black" points="0,-152.5 0,-171.5 46,-171.5 46,-152.5 0,-152.5"/>
<text text-anchor="middle" x="23" y="-159.5" font-family="Helvetica,sans-Serif" font-size="10.00">uzprec</text>
</a>
</g>
</g>
<!-- Node2 -->
<g id="node2" class="node">
<title>Node2</title>
<g id="a_node2"><a xlink:href="math_8f.html#a30b83d516b6ab162d3fafe73e03a3e92" target="_top" xlink:title=" ">
<polygon fill="white" stroke="red" points="86,-304.5 86,-323.5 124,-323.5 124,-304.5 86,-304.5"/>
<text text-anchor="middle" x="105" y="-311.5" font-family="Helvetica,sans-Serif" font-size="10.00">add2</text>
</a>
</g>
</g>
<!-- Node1&#45;&gt;Node2 -->
<g id="edge1" class="edge">
<title>Node1&#45;&gt;Node2</title>
<path fill="none" stroke="midnightblue" d="M26.63,-171.79C33.16,-194.91 51.82,-254.03 82,-295 82.55,-295.75 83.13,-296.48 83.75,-297.21"/>
<polygon fill="midnightblue" stroke="midnightblue" points="81.41,-299.82 90.96,-304.42 86.36,-294.87 81.41,-299.82"/>
</g>
<!-- Node5 -->
<g id="node3" class="node">
<title>Node5</title>
<g id="a_node3"><a xlink:href="math_8f.html#ad2b51b68d370651f4f6d81952503e7be" target="_top" xlink:title=" ">
<polygon fill="white" stroke="black" points="84.5,-266.5 84.5,-285.5 125.5,-285.5 125.5,-266.5 84.5,-266.5"/>
<text text-anchor="middle" x="105" y="-273.5" font-family="Helvetica,sans-Serif" font-size="10.00">cmult</text>
</a>
</g>
</g>
<!-- Node1&#45;&gt;Node5 -->
<g id="edge2" class="edge">
<title>Node1&#45;&gt;Node5</title>
<path fill="none" stroke="midnightblue" d="M28.56,-171.54C37.38,-189.41 58.01,-228.7 82,-257 82.6,-257.71 83.23,-258.41 83.87,-259.11"/>
<polygon fill="midnightblue" stroke="midnightblue" points="81.62,-261.79 91.26,-266.17 86.45,-256.73 81.62,-261.79"/>
</g>
<!-- Node6 -->
<g id="node4" class="node">
<title>Node6</title>
<g id="a_node4"><a xlink:href="math_8f.html#a3470db04166d9ba91454a14cc17dbec2" target="_top" xlink:title=" ">
<polygon fill="white" stroke="red" points="87.5,-228.5 87.5,-247.5 122.5,-247.5 122.5,-228.5 87.5,-228.5"/>
<text text-anchor="middle" x="105" y="-235.5" font-family="Helvetica,sans-Serif" font-size="10.00">col2</text>
</a>
</g>
</g>
<!-- Node1&#45;&gt;Node6 -->
<g id="edge3" class="edge">
<title>Node1&#45;&gt;Node6</title>
<path fill="none" stroke="midnightblue" d="M34.13,-171.63C47.24,-184.07 70.28,-205.96 86.3,-221.19"/>
<polygon fill="midnightblue" stroke="midnightblue" points="84.29,-224.1 93.95,-228.45 89.11,-219.03 84.29,-224.1"/>
</g>
<!-- Node7 -->
<g id="node5" class="node">
<title>Node7</title>
<g id="a_node5"><a xlink:href="math_8f.html#a0d9af374781723c272547a185cb3da5e" target="_top" xlink:title=" ">
<polygon fill="white" stroke="red" points="169.5,-152.5 169.5,-171.5 204.5,-171.5 204.5,-152.5 169.5,-152.5"/>
<text text-anchor="middle" x="187" y="-159.5" font-family="Helvetica,sans-Serif" font-size="10.00">col3</text>
</a>
</g>
</g>
<!-- Node1&#45;&gt;Node7 -->
<g id="edge4" class="edge">
<title>Node1&#45;&gt;Node7</title>
<path fill="none" stroke="midnightblue" d="M46.19,-162C75.64,-162 127.61,-162 159.22,-162"/>
<polygon fill="midnightblue" stroke="midnightblue" points="159.48,-165.5 169.48,-162 159.48,-158.5 159.48,-165.5"/>
</g>
<!-- Node8 -->
<g id="node6" class="node">
<title>Node8</title>
<g id="a_node6"><a xlink:href="math_8f.html#a3b43508554f14bdea8e14473d7d0803c" target="_top" xlink:title=" ">
<polygon fill="white" stroke="black" points="246,-152.5 246,-171.5 284,-171.5 284,-152.5 246,-152.5"/>
<text text-anchor="middle" x="265" y="-159.5" font-family="Helvetica,sans-Serif" font-size="10.00">copy</text>
</a>
</g>
</g>
<!-- Node1&#45;&gt;Node8 -->
<g id="edge5" class="edge">
<title>Node1&#45;&gt;Node8</title>
<path fill="none" stroke="midnightblue" d="M46.13,-168.31C56.87,-171.12 70.01,-174.2 82,-176 138.3,-184.44 153.88,-190.58 210,-181 218.78,-179.5 228.02,-176.72 236.33,-173.75"/>
<polygon fill="midnightblue" stroke="midnightblue" points="237.82,-176.93 245.92,-170.09 235.33,-170.39 237.82,-176.93"/>
</g>
<!-- Node9 -->
<g id="node7" class="node">
<title>Node9</title>
<g id="a_node7"><a xlink:href="navier1_8f.html#aec24385a47394ac281dc04124fff7618" target="_top" xlink:title=" ">
<polygon fill="white" stroke="red" points="84.5,-114.5 84.5,-133.5 125.5,-133.5 125.5,-114.5 84.5,-114.5"/>
<text text-anchor="middle" x="105" y="-121.5" font-family="Helvetica,sans-Serif" font-size="10.00">eprec</text>
</a>
</g>
</g>
<!-- Node1&#45;&gt;Node9 -->
<g id="edge6" class="edge">
<title>Node1&#45;&gt;Node9</title>
<path fill="none" stroke="midnightblue" d="M44.19,-152.41C53.61,-147.93 65.01,-142.52 75.31,-137.63"/>
<polygon fill="midnightblue" stroke="midnightblue" points="76.84,-140.78 84.37,-133.32 73.84,-134.45 76.84,-140.78"/>
</g>
<!-- Node198 -->
<g id="node8" class="node">
<title>Node198</title>
<g id="a_node8"><a xlink:href="coef_8f.html#ad6bb05a6f870732734bb41b977f865f9" target="_top" xlink:title=" ">
<polygon fill="white" stroke="black" points="164,-114.5 164,-133.5 210,-133.5 210,-114.5 164,-114.5"/>
<text text-anchor="middle" x="187" y="-121.5" font-family="Helvetica,sans-Serif" font-size="10.00">map12</text>
</a>
</g>
</g>
<!-- Node1&#45;&gt;Node198 -->
<g id="edge11" class="edge">
<title>Node1&#45;&gt;Node198</title>
<path fill="none" stroke="midnightblue" d="M30.08,-152.46C39.36,-138.89 58.48,-114.62 82,-105 106.49,-94.98 136.38,-102.27 157.82,-110.55"/>
<polygon fill="midnightblue" stroke="midnightblue" points="156.74,-113.89 167.32,-114.5 159.42,-107.43 156.74,-113.89"/>
</g>
<!-- Node200 -->
<g id="node9" class="node">
<title>Node200</title>
<g id="a_node9"><a xlink:href="navier3_8f.html#a7b3bc6faab84d98556026751dbf434ef" target="_top" xlink:title=" ">
<polygon fill="white" stroke="red" points="82,-38.5 82,-57.5 128,-57.5 128,-38.5 82,-38.5"/>
<text text-anchor="middle" x="105" y="-45.5" font-family="Helvetica,sans-Serif" font-size="10.00">eprec2</text>
</a>
</g>
</g>
<!-- Node1&#45;&gt;Node200 -->
<g id="edge10" class="edge">
<title>Node1&#45;&gt;Node200</title>
<path fill="none" stroke="midnightblue" d="M29.43,-152.45C39.15,-135.61 60.54,-99.81 82,-72 83.63,-69.89 85.41,-67.73 87.23,-65.63"/>
<polygon fill="midnightblue" stroke="midnightblue" points="90.07,-67.71 94.18,-57.94 84.88,-63.01 90.07,-67.71"/>
</g>
<!-- Node134 -->
<g id="node10" class="node">
<title>Node134</title>
<g id="a_node10"><a xlink:href="navier1_8f.html#a4905d51f51b57bfec184a6b44f858bdb" target="_top" xlink:title=" ">
<polygon fill="white" stroke="red" points="86,-0.5 86,-19.5 124,-19.5 124,-0.5 86,-0.5"/>
<text text-anchor="middle" x="105" y="-7.5" font-family="Helvetica,sans-Serif" font-size="10.00">ortho</text>
</a>
</g>
</g>
<!-- Node1&#45;&gt;Node134 -->
<g id="edge12" class="edge">
<title>Node1&#45;&gt;Node134</title>
<path fill="none" stroke="midnightblue" d="M26.63,-152.21C33.16,-129.09 51.82,-69.97 82,-29 82.55,-28.25 83.13,-27.52 83.75,-26.79"/>
<polygon fill="midnightblue" stroke="midnightblue" points="86.36,-29.13 90.96,-19.58 81.41,-24.18 86.36,-29.13"/>
</g>
<!-- Node9&#45;&gt;Node7 -->
<g id="edge7" class="edge">
<title>Node9&#45;&gt;Node7</title>
<path fill="none" stroke="midnightblue" d="M125.78,-133.39C136.15,-138.32 149,-144.42 160.15,-149.72"/>
<polygon fill="midnightblue" stroke="midnightblue" points="158.88,-153 169.42,-154.12 161.89,-146.67 158.88,-153"/>
</g>
<!-- Node9&#45;&gt;Node198 -->
<g id="edge8" class="edge">
<title>Node9&#45;&gt;Node198</title>
<path fill="none" stroke="midnightblue" d="M125.78,-124C134.18,-124 144.2,-124 153.63,-124"/>
<polygon fill="midnightblue" stroke="midnightblue" points="153.92,-127.5 163.92,-124 153.92,-120.5 153.92,-127.5"/>
</g>
<!-- Node198&#45;&gt;Node8 -->
<g id="edge9" class="edge">
<title>Node198&#45;&gt;Node8</title>
<path fill="none" stroke="midnightblue" d="M207.18,-133.59C216.18,-138.09 227.06,-143.53 236.88,-148.44"/>
<polygon fill="midnightblue" stroke="midnightblue" points="235.37,-151.6 245.87,-152.94 238.5,-145.33 235.37,-151.6"/>
</g>
</g>
</svg>
