<?xml version="1.0" encoding="UTF-8" standalone="no"?>
<!DOCTYPE svg PUBLIC "-//W3C//DTD SVG 1.1//EN"
 "http://www.w3.org/Graphics/SVG/1.1/DTD/svg11.dtd">
<!-- Generated by graphviz version 2.46.0 (0)
 -->
<!-- Title: gradm11 Pages: 1 -->
<svg width="405pt" height="256pt"
 viewBox="0.00 0.00 405.00 256.00" xmlns="http://www.w3.org/2000/svg" xmlns:xlink="http://www.w3.org/1999/xlink">
<g id="graph0" class="graph" transform="scale(1 1) rotate(0) translate(4 252)">
<title>gradm11</title>
<polygon fill="white" stroke="transparent" points="-4,4 -4,-252 401,-252 401,4 -4,4"/>
<!-- Node1 -->
<g id="node1" class="node">
<title>Node1</title>
<g id="a_node1"><a xlink:title=" ">
<polygon fill="#bfbfbf" stroke="black" points="343,-114.5 343,-133.5 397,-133.5 397,-114.5 343,-114.5"/>
<text text-anchor="middle" x="370" y="-121.5" font-family="Helvetica,sans-Serif" font-size="10.00">gradm11</text>
</a>
</g>
</g>
<!-- Node2 -->
<g id="node2" class="node">
<title>Node2</title>
<g id="a_node2"><a xlink:href="rans__komg_8f.html#a2ad48a2cd4d8236adc833eaa0d1be4c3" target="_top" xlink:title=" ">
<polygon fill="white" stroke="black" points="154.5,-152.5 154.5,-171.5 290.5,-171.5 290.5,-152.5 154.5,-152.5"/>
<text text-anchor="middle" x="222.5" y="-159.5" font-family="Helvetica,sans-Serif" font-size="10.00">rans_komg_lowre_compute</text>
</a>
</g>
</g>
<!-- Node1&#45;&gt;Node2 -->
<g id="edge1" class="edge">
<title>Node1&#45;&gt;Node2</title>
<path fill="none" stroke="midnightblue" d="M333.18,-135.47C324.63,-138.07 315.52,-140.73 307,-143 294.5,-146.33 280.86,-149.59 268.28,-152.45"/>
<polygon fill="midnightblue" stroke="midnightblue" points="334.36,-138.77 342.88,-132.47 332.29,-132.08 334.36,-138.77"/>
</g>
<!-- Node5 -->
<g id="node5" class="node">
<title>Node5</title>
<g id="a_node5"><a xlink:href="rans__komg_8f.html#a2f223b898a3b516b4ebd6c3f4163ee30" target="_top" xlink:title=" ">
<polygon fill="white" stroke="black" points="152.5,-114.5 152.5,-133.5 292.5,-133.5 292.5,-114.5 152.5,-114.5"/>
<text text-anchor="middle" x="222.5" y="-121.5" font-family="Helvetica,sans-Serif" font-size="10.00">rans_komg_stndrd_compute</text>
</a>
</g>
</g>
<!-- Node1&#45;&gt;Node5 -->
<g id="edge4" class="edge">
<title>Node1&#45;&gt;Node5</title>
<path fill="none" stroke="midnightblue" d="M332.8,-124C320.6,-124 306.56,-124 292.68,-124"/>
<polygon fill="midnightblue" stroke="midnightblue" points="332.99,-127.5 342.99,-124 332.99,-120.5 332.99,-127.5"/>
</g>
<!-- Node6 -->
<g id="node6" class="node">
<title>Node6</title>
<g id="a_node6"><a xlink:href="rans__komg_8f.html#ae9c79c0e2e3dc98994fdb02ab15b5308" target="_top" xlink:title=" ">
<polygon fill="white" stroke="black" points="138,-76.5 138,-95.5 307,-95.5 307,-76.5 138,-76.5"/>
<text text-anchor="middle" x="222.5" y="-83.5" font-family="Helvetica,sans-Serif" font-size="10.00">rans_komg_stndrd_compute_noreg</text>
</a>
</g>
</g>
<!-- Node1&#45;&gt;Node6 -->
<g id="edge7" class="edge">
<title>Node1&#45;&gt;Node6</title>
<path fill="none" stroke="midnightblue" d="M333.18,-112.53C324.63,-109.93 315.52,-107.27 307,-105 294.5,-101.67 280.86,-98.41 268.28,-95.55"/>
<polygon fill="midnightblue" stroke="midnightblue" points="332.29,-115.92 342.88,-115.53 334.36,-109.23 332.29,-115.92"/>
</g>
<!-- Node7 -->
<g id="node7" class="node">
<title>Node7</title>
<g id="a_node7"><a xlink:href="rans__komg_8f.html#a0aa5d176406deaf47aeda50858fcdbc5" target="_top" xlink:title=" ">
<polygon fill="white" stroke="black" points="148,-228.5 148,-247.5 297,-247.5 297,-228.5 148,-228.5"/>
<text text-anchor="middle" x="222.5" y="-235.5" font-family="Helvetica,sans-Serif" font-size="10.00">rans_komgsst_lowre_compute</text>
</a>
</g>
</g>
<!-- Node1&#45;&gt;Node7 -->
<g id="edge10" class="edge">
<title>Node1&#45;&gt;Node7</title>
<path fill="none" stroke="midnightblue" d="M361.76,-143.09C352.46,-164.91 334.23,-200.05 307,-219 301.51,-222.82 295.37,-225.89 288.98,-228.35"/>
<polygon fill="midnightblue" stroke="midnightblue" points="365.1,-144.16 365.6,-133.57 358.61,-141.54 365.1,-144.16"/>
</g>
<!-- Node8 -->
<g id="node8" class="node">
<title>Node8</title>
<g id="a_node8"><a xlink:href="rans__komg_8f.html#a5f6555d892688a054c753b78eac6539a" target="_top" xlink:title=" ">
<polygon fill="white" stroke="red" points="156,-38.5 156,-57.5 289,-57.5 289,-38.5 156,-38.5"/>
<text text-anchor="middle" x="222.5" y="-45.5" font-family="Helvetica,sans-Serif" font-size="10.00">rans_komgsst_lowre_eddy</text>
</a>
</g>
</g>
<!-- Node1&#45;&gt;Node8 -->
<g id="edge13" class="edge">
<title>Node1&#45;&gt;Node8</title>
<path fill="none" stroke="midnightblue" d="M354.58,-106.54C343.02,-93.69 325.69,-76.81 307,-67 299.63,-63.13 291.49,-60.04 283.26,-57.58"/>
<polygon fill="midnightblue" stroke="midnightblue" points="352.1,-109.02 361.29,-114.29 357.39,-104.44 352.1,-109.02"/>
</g>
<!-- Node10 -->
<g id="node9" class="node">
<title>Node10</title>
<g id="a_node9"><a xlink:href="rans__komg_8f.html#a7735e93f0afa55c070144176869c04f2" target="_top" xlink:title=" ">
<polygon fill="white" stroke="black" points="146,-190.5 146,-209.5 299,-209.5 299,-190.5 146,-190.5"/>
<text text-anchor="middle" x="222.5" y="-197.5" font-family="Helvetica,sans-Serif" font-size="10.00">rans_komgsst_stndrd_compute</text>
</a>
</g>
</g>
<!-- Node1&#45;&gt;Node10 -->
<g id="edge14" class="edge">
<title>Node1&#45;&gt;Node10</title>
<path fill="none" stroke="midnightblue" d="M354.58,-141.46C343.02,-154.31 325.69,-171.19 307,-181 299.63,-184.87 291.49,-187.96 283.26,-190.42"/>
<polygon fill="midnightblue" stroke="midnightblue" points="357.39,-143.56 361.29,-133.71 352.1,-138.98 357.39,-143.56"/>
</g>
<!-- Node11 -->
<g id="node10" class="node">
<title>Node11</title>
<g id="a_node10"><a xlink:href="rans__komg_8f.html#ab81da29b4cbaa276af8dd9d963ac9fec" target="_top" xlink:title=" ">
<polygon fill="white" stroke="red" points="154,-0.5 154,-19.5 291,-19.5 291,-0.5 154,-0.5"/>
<text text-anchor="middle" x="222.5" y="-7.5" font-family="Helvetica,sans-Serif" font-size="10.00">rans_komgsst_stndrd_eddy</text>
</a>
</g>
</g>
<!-- Node1&#45;&gt;Node11 -->
<g id="edge17" class="edge">
<title>Node1&#45;&gt;Node11</title>
<path fill="none" stroke="midnightblue" d="M361.76,-104.91C352.46,-83.09 334.23,-47.95 307,-29 301.51,-25.18 295.37,-22.11 288.98,-19.65"/>
<polygon fill="midnightblue" stroke="midnightblue" points="358.61,-106.46 365.6,-114.43 365.1,-103.84 358.61,-106.46"/>
</g>
<!-- Node3 -->
<g id="node3" class="node">
<title>Node3</title>
<g id="a_node3"><a xlink:href="rans__komg_8f.html#a15219ac5ee8d0ac16321c4195973ecea" target="_top" xlink:title=" ">
<polygon fill="white" stroke="black" points="6.5,-171.5 6.5,-190.5 95.5,-190.5 95.5,-171.5 6.5,-171.5"/>
<text text-anchor="middle" x="51" y="-178.5" font-family="Helvetica,sans-Serif" font-size="10.00">rans_komg_ksrc</text>
</a>
</g>
</g>
<!-- Node2&#45;&gt;Node3 -->
<g id="edge2" class="edge">
<title>Node2&#45;&gt;Node3</title>
<path fill="none" stroke="midnightblue" d="M143.79,-170.71C127.25,-172.57 110.34,-174.46 95.62,-176.11"/>
<polygon fill="midnightblue" stroke="midnightblue" points="144.47,-174.16 154.02,-169.56 143.69,-167.2 144.47,-174.16"/>
</g>
<!-- Node4 -->
<g id="node4" class="node">
<title>Node4</title>
<g id="a_node4"><a xlink:href="rans__komg_8f.html#a7ba7f638d2b317b33acfcafd64c32ea0" target="_top" xlink:title=" ">
<polygon fill="white" stroke="black" points="0,-133.5 0,-152.5 102,-152.5 102,-133.5 0,-133.5"/>
<text text-anchor="middle" x="51" y="-140.5" font-family="Helvetica,sans-Serif" font-size="10.00">rans_komg_omgsrc</text>
</a>
</g>
</g>
<!-- Node2&#45;&gt;Node4 -->
<g id="edge3" class="edge">
<title>Node2&#45;&gt;Node4</title>
<path fill="none" stroke="midnightblue" d="M143.76,-153.29C129.57,-151.7 115.12,-150.08 102.01,-148.61"/>
<polygon fill="midnightblue" stroke="midnightblue" points="143.69,-156.8 154.02,-154.44 144.47,-149.84 143.69,-156.8"/>
</g>
<!-- Node5&#45;&gt;Node3 -->
<g id="edge5" class="edge">
<title>Node5&#45;&gt;Node3</title>
<path fill="none" stroke="midnightblue" d="M159.88,-136.09C152.42,-138.11 144.98,-140.42 138,-143 121.03,-149.28 118.49,-154.55 102,-162 94.64,-165.33 86.5,-168.59 78.98,-171.44"/>
<polygon fill="midnightblue" stroke="midnightblue" points="160.84,-139.45 169.66,-133.58 159.1,-132.67 160.84,-139.45"/>
</g>
<!-- Node5&#45;&gt;Node4 -->
<g id="edge6" class="edge">
<title>Node5&#45;&gt;Node4</title>
<path fill="none" stroke="midnightblue" d="M141.79,-132.93C128.28,-134.45 114.6,-135.98 102.13,-137.38"/>
<polygon fill="midnightblue" stroke="midnightblue" points="142.52,-136.38 152.07,-131.78 141.74,-129.42 142.52,-136.38"/>
</g>
<!-- Node6&#45;&gt;Node3 -->
<g id="edge8" class="edge">
<title>Node6&#45;&gt;Node3</title>
<path fill="none" stroke="midnightblue" d="M146.64,-99.76C143.63,-101.33 140.73,-103.07 138,-105 113.54,-122.3 125.2,-143.04 102,-162 97.33,-165.82 91.8,-168.93 86.16,-171.43"/>
<polygon fill="midnightblue" stroke="midnightblue" points="148.28,-102.86 155.96,-95.57 145.41,-96.48 148.28,-102.86"/>
</g>
<!-- Node6&#45;&gt;Node4 -->
<g id="edge9" class="edge">
<title>Node6&#45;&gt;Node4</title>
<path fill="none" stroke="midnightblue" d="M162.15,-98.02C153.97,-100.11 145.73,-102.44 138,-105 114.14,-112.91 87.86,-125.05 70.71,-133.47"/>
<polygon fill="midnightblue" stroke="midnightblue" points="163.17,-101.37 172.06,-95.6 161.51,-94.57 163.17,-101.37"/>
</g>
<!-- Node7&#45;&gt;Node3 -->
<g id="edge11" class="edge">
<title>Node7&#45;&gt;Node3</title>
<path fill="none" stroke="midnightblue" d="M162.15,-225.98C153.97,-223.89 145.73,-221.56 138,-219 114.14,-211.09 87.86,-198.95 70.71,-190.53"/>
<polygon fill="midnightblue" stroke="midnightblue" points="161.51,-229.43 172.06,-228.4 163.17,-222.63 161.51,-229.43"/>
</g>
<!-- Node7&#45;&gt;Node4 -->
<g id="edge12" class="edge">
<title>Node7&#45;&gt;Node4</title>
<path fill="none" stroke="midnightblue" d="M146.64,-224.24C143.63,-222.67 140.73,-220.93 138,-219 113.54,-201.7 125.2,-180.96 102,-162 97.33,-158.18 91.8,-155.07 86.16,-152.57"/>
<polygon fill="midnightblue" stroke="midnightblue" points="145.41,-227.52 155.96,-228.43 148.28,-221.14 145.41,-227.52"/>
</g>
<!-- Node10&#45;&gt;Node3 -->
<g id="edge15" class="edge">
<title>Node10&#45;&gt;Node3</title>
<path fill="none" stroke="midnightblue" d="M135.62,-190.37C121.79,-188.82 108,-187.28 95.73,-185.9"/>
<polygon fill="midnightblue" stroke="midnightblue" points="135.35,-193.86 145.67,-191.5 136.13,-186.91 135.35,-193.86"/>
</g>
<!-- Node10&#45;&gt;Node4 -->
<g id="edge16" class="edge">
<title>Node10&#45;&gt;Node4</title>
<path fill="none" stroke="midnightblue" d="M159.88,-187.91C152.42,-185.89 144.98,-183.58 138,-181 121.03,-174.72 118.49,-169.45 102,-162 94.64,-158.67 86.5,-155.41 78.98,-152.56"/>
<polygon fill="midnightblue" stroke="midnightblue" points="159.1,-191.33 169.66,-190.42 160.84,-184.55 159.1,-191.33"/>
</g>
</g>
</svg>
