<?xml version="1.0" encoding="UTF-8" standalone="no"?>
<!DOCTYPE svg PUBLIC "-//W3C//DTD SVG 1.1//EN"
 "http://www.w3.org/Graphics/SVG/1.1/DTD/svg11.dtd">
<!-- Generated by graphviz version 2.46.0 (0)
 -->
<!-- Title: rotate_cyc Pages: 1 -->
<svg width="272pt" height="256pt"
 viewBox="0.00 0.00 272.00 256.00" xmlns="http://www.w3.org/2000/svg" xmlns:xlink="http://www.w3.org/1999/xlink">
<g id="graph0" class="graph" transform="scale(1 1) rotate(0) translate(4 252)">
<title>rotate_cyc</title>
<polygon fill="white" stroke="transparent" points="-4,4 -4,-252 268,-252 268,4 -4,4"/>
<!-- Node1 -->
<g id="node1" class="node">
<title>Node1</title>
<g id="a_node1"><a xlink:title=" ">
<polygon fill="#bfbfbf" stroke="black" points="202,-133.5 202,-152.5 264,-152.5 264,-133.5 202,-133.5"/>
<text text-anchor="middle" x="233" y="-140.5" font-family="Helvetica,sans-Serif" font-size="10.00">rotate_cyc</text>
</a>
</g>
</g>
<!-- Node2 -->
<g id="node2" class="node">
<title>Node2</title>
<g id="a_node2"><a xlink:href="navier1_8f.html#ac796a0447b86c61f9851e9abd09f9e4b" target="_top" xlink:title=" ">
<polygon fill="white" stroke="black" points="114,-190.5 114,-209.5 162,-209.5 162,-190.5 114,-190.5"/>
<text text-anchor="middle" x="138" y="-197.5" font-family="Helvetica,sans-Serif" font-size="10.00">opdsop</text>
</a>
</g>
</g>
<!-- Node1&#45;&gt;Node2 -->
<g id="edge1" class="edge">
<title>Node1&#45;&gt;Node2</title>
<path fill="none" stroke="midnightblue" d="M207.49,-158.02C190.72,-168.3 168.98,-181.62 154.54,-190.47"/>
<polygon fill="midnightblue" stroke="midnightblue" points="209.53,-160.88 216.22,-152.67 205.87,-154.91 209.53,-160.88"/>
</g>
<!-- Node31 -->
<g id="node5" class="node">
<title>Node31</title>
<g id="a_node5"><a xlink:href="navier1_8f.html#a2f89b54d1ceda6fb201432d7a61bc907" target="_top" xlink:title=" ">
<polygon fill="white" stroke="red" points="110,-95.5 110,-114.5 166,-114.5 166,-95.5 110,-95.5"/>
<text text-anchor="middle" x="138" y="-102.5" font-family="Helvetica,sans-Serif" font-size="10.00">opdssum</text>
</a>
</g>
</g>
<!-- Node1&#45;&gt;Node31 -->
<g id="edge4" class="edge">
<title>Node1&#45;&gt;Node31</title>
<path fill="none" stroke="midnightblue" d="M199.18,-129.59C187.06,-124.64 173.58,-119.13 162.46,-114.59"/>
<polygon fill="midnightblue" stroke="midnightblue" points="197.95,-132.87 208.53,-133.41 200.6,-126.39 197.95,-132.87"/>
</g>
<!-- Node3 -->
<g id="node3" class="node">
<title>Node3</title>
<g id="a_node3"><a xlink:href="bdry_8f.html#aaa0d4258b1292dd19b9fc931df83bd68" target="_top" xlink:title=" ">
<polygon fill="white" stroke="red" points="13,-228.5 13,-247.5 61,-247.5 61,-228.5 13,-228.5"/>
<text text-anchor="middle" x="37" y="-235.5" font-family="Helvetica,sans-Serif" font-size="10.00">bcdirvc</text>
</a>
</g>
</g>
<!-- Node2&#45;&gt;Node3 -->
<g id="edge2" class="edge">
<title>Node2&#45;&gt;Node3</title>
<path fill="none" stroke="midnightblue" d="M104.38,-212.52C90.21,-217.96 73.95,-224.2 61.07,-229.15"/>
<polygon fill="midnightblue" stroke="midnightblue" points="105.71,-215.76 113.79,-208.91 103.2,-209.23 105.71,-215.76"/>
</g>
<!-- Node29 -->
<g id="node4" class="node">
<title>Node29</title>
<g id="a_node4"><a xlink:href="bdry_8f.html#aff6088943a1cc02fb036375d9008b4c7" target="_top" xlink:title=" ">
<polygon fill="white" stroke="red" points="11.5,-190.5 11.5,-209.5 62.5,-209.5 62.5,-190.5 11.5,-190.5"/>
<text text-anchor="middle" x="37" y="-197.5" font-family="Helvetica,sans-Serif" font-size="10.00">bcmask</text>
</a>
</g>
</g>
<!-- Node2&#45;&gt;Node29 -->
<g id="edge3" class="edge">
<title>Node2&#45;&gt;Node29</title>
<path fill="none" stroke="midnightblue" d="M103.55,-200C90.21,-200 75.13,-200 62.8,-200"/>
<polygon fill="midnightblue" stroke="midnightblue" points="103.79,-203.5 113.79,-200 103.79,-196.5 103.79,-203.5"/>
</g>
<!-- Node32 -->
<g id="node6" class="node">
<title>Node32</title>
<g id="a_node6"><a xlink:href="subs1_8f.html#a93fcd12aed7544b1e1515e46699248a5" target="_top" xlink:title=" ">
<polygon fill="white" stroke="black" points="15,-152.5 15,-171.5 59,-171.5 59,-152.5 15,-152.5"/>
<text text-anchor="middle" x="37" y="-159.5" font-family="Helvetica,sans-Serif" font-size="10.00">axstrs</text>
</a>
</g>
</g>
<!-- Node31&#45;&gt;Node32 -->
<g id="edge5" class="edge">
<title>Node31&#45;&gt;Node32</title>
<path fill="none" stroke="midnightblue" d="M112.89,-119.98C101.24,-127.11 86.99,-135.66 74,-143 68.46,-146.13 62.37,-149.41 56.79,-152.34"/>
<polygon fill="midnightblue" stroke="midnightblue" points="114.93,-122.84 121.61,-114.62 111.26,-116.88 114.93,-122.84"/>
</g>
<!-- Node33 -->
<g id="node7" class="node">
<title>Node33</title>
<g id="a_node7"><a xlink:href="subs1_8f.html#afbde33b8466b90206f1fa13b3800b7d5" target="_top" xlink:title=" ">
<polygon fill="white" stroke="red" points="14,-114.5 14,-133.5 60,-133.5 60,-114.5 14,-114.5"/>
<text text-anchor="middle" x="37" y="-121.5" font-family="Helvetica,sans-Serif" font-size="10.00">cggosf</text>
</a>
</g>
</g>
<!-- Node31&#45;&gt;Node33 -->
<g id="edge6" class="edge">
<title>Node31&#45;&gt;Node33</title>
<path fill="none" stroke="midnightblue" d="M99.99,-112.1C86.53,-114.69 71.76,-117.52 60.02,-119.77"/>
<polygon fill="midnightblue" stroke="midnightblue" points="100.79,-115.51 109.95,-110.19 99.47,-108.64 100.79,-115.51"/>
</g>
<!-- Node71 -->
<g id="node8" class="node">
<title>Node71</title>
<g id="a_node8"><a xlink:href="bdry_8f.html#a5e0903491e201a238899a0151cffe273" target="_top" xlink:title=" ">
<polygon fill="white" stroke="black" points="0,-76.5 0,-95.5 74,-95.5 74,-76.5 0,-76.5"/>
<text text-anchor="middle" x="37" y="-83.5" font-family="Helvetica,sans-Serif" font-size="10.00">check_cyclic</text>
</a>
</g>
</g>
<!-- Node31&#45;&gt;Node71 -->
<g id="edge7" class="edge">
<title>Node31&#45;&gt;Node71</title>
<path fill="none" stroke="midnightblue" d="M100.02,-97.9C91.61,-96.29 82.68,-94.58 74.3,-92.97"/>
<polygon fill="midnightblue" stroke="midnightblue" points="99.47,-101.36 109.95,-99.81 100.79,-94.49 99.47,-101.36"/>
</g>
<!-- Node72 -->
<g id="node9" class="node">
<title>Node72</title>
<g id="a_node9"><a xlink:href="ssolv_8f.html#a8b37c01e0bc4d591edd93e01f68f6ba9" target="_top" xlink:title=" ">
<polygon fill="white" stroke="red" points="13,-38.5 13,-57.5 61,-57.5 61,-38.5 13,-38.5"/>
<text text-anchor="middle" x="37" y="-45.5" font-family="Helvetica,sans-Serif" font-size="10.00">chkssv</text>
</a>
</g>
</g>
<!-- Node31&#45;&gt;Node72 -->
<g id="edge8" class="edge">
<title>Node31&#45;&gt;Node72</title>
<path fill="none" stroke="midnightblue" d="M112.89,-90.02C101.24,-82.89 86.99,-74.34 74,-67 68.46,-63.87 62.37,-60.59 56.79,-57.66"/>
<polygon fill="midnightblue" stroke="midnightblue" points="111.26,-93.12 121.61,-95.38 114.93,-87.16 111.26,-93.12"/>
</g>
<!-- Node74 -->
<g id="node10" class="node">
<title>Node74</title>
<g id="a_node10"><a xlink:href="navier1_8f.html#a3541733d6d302fdc632d504bb47a653b" target="_top" xlink:title=" ">
<polygon fill="white" stroke="red" points="13,-0.5 13,-19.5 61,-19.5 61,-0.5 13,-0.5"/>
<text text-anchor="middle" x="37" y="-7.5" font-family="Helvetica,sans-Serif" font-size="10.00">convuz</text>
</a>
</g>
</g>
<!-- Node31&#45;&gt;Node74 -->
<g id="edge9" class="edge">
<title>Node31&#45;&gt;Node74</title>
<path fill="none" stroke="midnightblue" d="M125,-86.75C113.43,-70.15 94.65,-45.77 74,-29 69.61,-25.44 64.45,-22.24 59.43,-19.54"/>
<polygon fill="midnightblue" stroke="midnightblue" points="122.14,-88.76 130.66,-95.06 127.93,-84.83 122.14,-88.76"/>
</g>
</g>
</svg>
