<?xml version="1.0" encoding="UTF-8" standalone="no"?>
<!DOCTYPE svg PUBLIC "-//W3C//DTD SVG 1.1//EN"
 "http://www.w3.org/Graphics/SVG/1.1/DTD/svg11.dtd">
<!-- Generated by graphviz version 2.46.0 (0)
 -->
<!-- Title: makebdf Pages: 1 -->
<!--zoomable 132 -->
<svg id="main" version="1.1" xmlns="http://www.w3.org/2000/svg" xmlns:xlink="http://www.w3.org/1999/xlink" xml:space="preserve" onload="init(evt)">
<style type="text/css"><![CDATA[
.edge:hover path { stroke: red; }
.edge:hover polygon { stroke: red; fill: red; }
]]></style>
<script type="text/javascript"><![CDATA[
var edges = document.getElementsByTagName('g');
if (edges && edges.length) {
  for (var i=0;i<edges.length;i++) {
    if (edges[i].id.substr(0,4)=='edge') {
      edges[i].setAttribute('class','edge');
    }
  }
}
]]></script>
        <defs>
                <circle id="rim" cx="0" cy="0" r="7"/>
                <circle id="rim2" cx="0" cy="0" r="3.5"/>
                <g id="zoomPlus">
                        <use xlink:href="#rim" fill="#404040">
                                <set attributeName="fill" to="#808080" begin="zoomplus.mouseover" end="zoomplus.mouseout"/>
                        </use>
                        <path d="M-4,0h8M0,-4v8" fill="none" stroke="white" stroke-width="1.5" pointer-events="none"/>
                </g>
                <g id="zoomMin">
                        <use xlink:href="#rim" fill="#404040">
                                <set attributeName="fill" to="#808080" begin="zoomminus.mouseover" end="zoomminus.mouseout"/>
                        </use>
                        <path d="M-4,0h8" fill="none" stroke="white" stroke-width="1.5" pointer-events="none"/>
                </g>
                <g id="dirArrow">
                        <path fill="none" stroke="white" stroke-width="1.5" d="M0,-3.0v7 M-2.5,-0.5L0,-3.0L2.5,-0.5"/>
                </g>
               <g id="resetDef">
                       <use xlink:href="#rim2" fill="#404040">
                               <set attributeName="fill" to="#808080" begin="reset.mouseover" end="reset.mouseout"/>
                       </use>
               </g>
        </defs>

<script type="text/javascript">
var viewWidth = 604;
var viewHeight = 132;
var sectionId = 'dynsection-72';
</script>
<script xlink:href="svgpan.js"/>
<svg id="graph" class="graph">
<g id="viewport">
<title>makebdf</title>
<polygon fill="white" stroke="transparent" points="-4,4 -4,-128 600,-128 600,4 -4,4"/>
<!-- Node1 -->
<g id="node1" class="node">
<title>Node1</title>
<g id="a_node1"><a xlink:title=" ">
<polygon fill="#bfbfbf" stroke="black" points="542,-76.5 542,-95.5 596,-95.5 596,-76.5 542,-76.5"/>
<text text-anchor="middle" x="569" y="-83.5" font-family="Helvetica,sans-Serif" font-size="10.00">makebdf</text>
</a>
</g>
</g>
<!-- Node2 -->
<g id="node2" class="node">
<title>Node2</title>
<g id="a_node2"><a xlink:href="induct_8f.html#a0f0eb9c29e64571293f094020bee8033" target="_top" xlink:title=" ">
<polygon fill="white" stroke="black" points="407,-104.5 407,-123.5 506,-123.5 506,-104.5 407,-104.5"/>
<text text-anchor="middle" x="456.5" y="-111.5" font-family="Helvetica,sans-Serif" font-size="10.00">makebsource_mhd</text>
</a>
</g>
</g>
<!-- Node1&#45;&gt;Node2 -->
<g id="edge1" class="edge">
<title>Node1&#45;&gt;Node2</title>
<path fill="none" stroke="midnightblue" d="M531.89,-95.15C520.14,-98.13 507.07,-101.44 495.21,-104.44"/>
<polygon fill="midnightblue" stroke="midnightblue" points="532.98,-98.48 541.81,-92.64 531.26,-91.7 532.98,-98.48"/>
</g>
<!-- Node8 -->
<g id="node6" class="node">
<title>Node8</title>
<g id="a_node6"><a xlink:href="navier1_8f.html#a83189b3d1938d87f00ace2e7e05d9e4c" target="_top" xlink:title=" ">
<polygon fill="white" stroke="black" points="434.5,-57.5 434.5,-76.5 478.5,-76.5 478.5,-57.5 434.5,-57.5"/>
<text text-anchor="middle" x="456.5" y="-64.5" font-family="Helvetica,sans-Serif" font-size="10.00">makef</text>
</a>
</g>
</g>
<!-- Node1&#45;&gt;Node8 -->
<g id="edge5" class="edge">
<title>Node1&#45;&gt;Node8</title>
<path fill="none" stroke="midnightblue" d="M531.86,-79.79C514.26,-76.76 493.72,-73.23 478.69,-70.64"/>
<polygon fill="midnightblue" stroke="midnightblue" points="531.36,-83.25 541.81,-81.5 532.55,-76.35 531.36,-83.25"/>
</g>
<!-- Node3 -->
<g id="node3" class="node">
<title>Node3</title>
<g id="a_node3"><a xlink:href="induct_8f.html#aa44a44eb5a5e3f510211f8fd8e6b12b7" target="_top" xlink:title=" ">
<polygon fill="white" stroke="black" points="252,-104.5 252,-123.5 295,-123.5 295,-104.5 252,-104.5"/>
<text text-anchor="middle" x="273.5" y="-111.5" font-family="Helvetica,sans-Serif" font-size="10.00">induct</text>
</a>
</g>
</g>
<!-- Node2&#45;&gt;Node3 -->
<g id="edge2" class="edge">
<title>Node2&#45;&gt;Node3</title>
<path fill="none" stroke="midnightblue" d="M396.91,-114C362.08,-114 320.01,-114 295.36,-114"/>
<polygon fill="midnightblue" stroke="midnightblue" points="397,-117.5 407,-114 397,-110.5 397,-117.5"/>
</g>
<!-- Node4 -->
<g id="node4" class="node">
<title>Node4</title>
<g id="a_node4"><a xlink:href="drive1_8f.html#ae177ea7efac97f35241521b782a671c0" target="_top" xlink:title=" ">
<polygon fill="white" stroke="black" points="142,-76.5 142,-95.5 216,-95.5 216,-76.5 142,-76.5"/>
<text text-anchor="middle" x="179" y="-83.5" font-family="Helvetica,sans-Serif" font-size="10.00">nek_advance</text>
</a>
</g>
</g>
<!-- Node3&#45;&gt;Node4 -->
<g id="edge3" class="edge">
<title>Node3&#45;&gt;Node4</title>
<path fill="none" stroke="midnightblue" d="M242.26,-104.85C232.49,-101.89 221.62,-98.6 211.74,-95.61"/>
<polygon fill="midnightblue" stroke="midnightblue" points="241.39,-108.24 251.97,-107.79 243.41,-101.54 241.39,-108.24"/>
</g>
<!-- Node5 -->
<g id="node5" class="node">
<title>Node5</title>
<g id="a_node5"><a xlink:href="drive1_8f.html#a18d3e839786263fc4cf91f7eeb714371" target="_top" xlink:title=" ">
<polygon fill="white" stroke="red" points="0,-76.5 0,-95.5 106,-95.5 106,-76.5 0,-76.5"/>
<text text-anchor="middle" x="53" y="-83.5" font-family="Helvetica,sans-Serif" font-size="10.00">nek__multi_advance</text>
</a>
</g>
</g>
<!-- Node4&#45;&gt;Node5 -->
<g id="edge4" class="edge">
<title>Node4&#45;&gt;Node5</title>
<path fill="none" stroke="midnightblue" d="M131.56,-86C123.27,-86 114.58,-86 106.14,-86"/>
<polygon fill="midnightblue" stroke="midnightblue" points="131.8,-89.5 141.8,-86 131.8,-82.5 131.8,-89.5"/>
</g>
<!-- Node9 -->
<g id="node7" class="node">
<title>Node9</title>
<g id="a_node7"><a xlink:href="navier1_8f.html#a23e6343990072aa1a6b17109ccc7ba2b" target="_top" xlink:title=" ">
<polygon fill="white" stroke="black" points="331,-76.5 331,-95.5 371,-95.5 371,-76.5 331,-76.5"/>
<text text-anchor="middle" x="351" y="-83.5" font-family="Helvetica,sans-Serif" font-size="10.00">plan1</text>
</a>
</g>
</g>
<!-- Node8&#45;&gt;Node9 -->
<g id="edge6" class="edge">
<title>Node8&#45;&gt;Node9</title>
<path fill="none" stroke="midnightblue" d="M424.09,-72.77C406.8,-75.94 385.91,-79.78 371.07,-82.5"/>
<polygon fill="midnightblue" stroke="midnightblue" points="425.1,-76.14 434.31,-70.89 423.84,-69.25 425.1,-76.14"/>
</g>
<!-- Node15 -->
<g id="node9" class="node">
<title>Node15</title>
<g id="a_node9"><a xlink:href="planx_8f.html#a142f9186a662d3de60f09bb0ee26782d" target="_top" xlink:title=" ">
<polygon fill="white" stroke="black" points="331,-38.5 331,-57.5 371,-57.5 371,-38.5 331,-38.5"/>
<text text-anchor="middle" x="351" y="-45.5" font-family="Helvetica,sans-Serif" font-size="10.00">plan3</text>
</a>
</g>
</g>
<!-- Node8&#45;&gt;Node15 -->
<g id="edge9" class="edge">
<title>Node8&#45;&gt;Node15</title>
<path fill="none" stroke="midnightblue" d="M424.09,-61.23C406.8,-58.06 385.91,-54.22 371.07,-51.5"/>
<polygon fill="midnightblue" stroke="midnightblue" points="423.84,-64.75 434.31,-63.11 425.1,-57.86 423.84,-64.75"/>
</g>
<!-- Node16 -->
<g id="node10" class="node">
<title>Node16</title>
<g id="a_node10"><a xlink:href="plan4_8f.html#a247fc105464de543a464773054eb509e" target="_top" xlink:title=" ">
<polygon fill="white" stroke="black" points="331,-0.5 331,-19.5 371,-19.5 371,-0.5 331,-0.5"/>
<text text-anchor="middle" x="351" y="-7.5" font-family="Helvetica,sans-Serif" font-size="10.00">plan4</text>
</a>
</g>
</g>
<!-- Node8&#45;&gt;Node16 -->
<g id="edge11" class="edge">
<title>Node8&#45;&gt;Node16</title>
<path fill="none" stroke="midnightblue" d="M429,-52.41C410.23,-42.07 385.59,-28.5 369.3,-19.53"/>
<polygon fill="midnightblue" stroke="midnightblue" points="427.49,-55.57 437.94,-57.33 430.87,-49.44 427.49,-55.57"/>
</g>
<!-- Node10 -->
<g id="node8" class="node">
<title>Node10</title>
<g id="a_node8"><a xlink:href="drive2_8f.html#ab0aeca9ad3db8be87a01ba29d069d71e" target="_top" xlink:title=" ">
<polygon fill="white" stroke="red" points="256,-57.5 256,-76.5 291,-76.5 291,-57.5 256,-57.5"/>
<text text-anchor="middle" x="273.5" y="-64.5" font-family="Helvetica,sans-Serif" font-size="10.00">fluid</text>
</a>
</g>
</g>
<!-- Node9&#45;&gt;Node10 -->
<g id="edge7" class="edge">
<title>Node9&#45;&gt;Node10</title>
<path fill="none" stroke="midnightblue" d="M321.23,-78.76C311.1,-76.21 300.04,-73.43 291.23,-71.21"/>
<polygon fill="midnightblue" stroke="midnightblue" points="320.4,-82.16 330.95,-81.21 322.1,-75.37 320.4,-82.16"/>
</g>
<!-- Node10&#45;&gt;Node4 -->
<g id="edge8" class="edge">
<title>Node10&#45;&gt;Node4</title>
<path fill="none" stroke="midnightblue" d="M246.16,-72.41C236.88,-74.32 226.28,-76.49 216.33,-78.54"/>
<polygon fill="midnightblue" stroke="midnightblue" points="246.87,-75.84 255.96,-70.4 245.46,-68.98 246.87,-75.84"/>
</g>
<!-- Node15&#45;&gt;Node10 -->
<g id="edge10" class="edge">
<title>Node15&#45;&gt;Node10</title>
<path fill="none" stroke="midnightblue" d="M321.23,-55.24C311.1,-57.79 300.04,-60.57 291.23,-62.79"/>
<polygon fill="midnightblue" stroke="midnightblue" points="322.1,-58.63 330.95,-52.79 320.4,-51.84 322.1,-58.63"/>
</g>
<!-- Node16&#45;&gt;Node10 -->
<g id="edge12" class="edge">
<title>Node16&#45;&gt;Node10</title>
<path fill="none" stroke="midnightblue" d="M328.96,-25.88C315.51,-36.04 298.51,-48.87 287.12,-57.47"/>
<polygon fill="midnightblue" stroke="midnightblue" points="331.32,-28.49 337.19,-19.67 327.1,-22.9 331.32,-28.49"/>
</g>
</g>
</svg>
        <g id="navigator" transform="translate(0 0)" fill="#404254">
                <rect fill="#f2f5e9" fill-opacity="0.5" stroke="#606060" stroke-width=".5" x="0" y="0" width="60" height="60"/>
                <use id="zoomplus" xlink:href="#zoomPlus" x="17" y="9" onmousedown="handleZoom(evt,'in')"/>
                <use id="zoomminus" xlink:href="#zoomMin" x="42" y="9" onmousedown="handleZoom(evt,'out')"/>
                <use id="reset" xlink:href="#resetDef" x="30" y="36" onmousedown="handleReset()"/>
                <g id="arrowUp" xlink:href="#dirArrow" transform="translate(30 24)" onmousedown="handlePan(0,-1)">
                  <use xlink:href="#rim" fill="#404040">
                        <set attributeName="fill" to="#808080" begin="arrowUp.mouseover" end="arrowUp.mouseout"/>
                  </use>
                  <path fill="none" stroke="white" stroke-width="1.5" d="M0,-3.0v7 M-2.5,-0.5L0,-3.0L2.5,-0.5"/>
                </g>
                <g id="arrowRight" xlink:href="#dirArrow" transform="rotate(90) translate(36 -43)" onmousedown="handlePan(1,0)">
                  <use xlink:href="#rim" fill="#404040">
                        <set attributeName="fill" to="#808080" begin="arrowRight.mouseover" end="arrowRight.mouseout"/>
                  </use>
                  <path fill="none" stroke="white" stroke-width="1.5" d="M0,-3.0v7 M-2.5,-0.5L0,-3.0L2.5,-0.5"/>
                </g>
                <g id="arrowDown" xlink:href="#dirArrow" transform="rotate(180) translate(-30 -48)" onmousedown="handlePan(0,1)">
                  <use xlink:href="#rim" fill="#404040">
                        <set attributeName="fill" to="#808080" begin="arrowDown.mouseover" end="arrowDown.mouseout"/>
                  </use>
                  <path fill="none" stroke="white" stroke-width="1.5" d="M0,-3.0v7 M-2.5,-0.5L0,-3.0L2.5,-0.5"/>
                </g>
                <g id="arrowLeft" xlink:href="#dirArrow" transform="rotate(270) translate(-36 17)" onmousedown="handlePan(-1,0)">
                  <use xlink:href="#rim" fill="#404040">
                        <set attributeName="fill" to="#808080" begin="arrowLeft.mouseover" end="arrowLeft.mouseout"/>
                  </use>
                  <path fill="none" stroke="white" stroke-width="1.5" d="M0,-3.0v7 M-2.5,-0.5L0,-3.0L2.5,-0.5"/>
                </g>
        </g>
        <svg viewBox="0 0 15 15" width="100%" height="30px" preserveAspectRatio="xMaxYMin meet">
         <g id="arrow_out" transform="scale(0.3 0.3)">
          <a xlink:href="navier1_8f_a0510a60155ebc71a3acda4b1e7e507e5_icgraph_org.svg" target="_base">
           <rect id="button" ry="5" rx="5" y="6" x="6" height="38" width="38"
                fill="#f2f5e9" fill-opacity="0.5" stroke="#606060" stroke-width="1.0"/>
           <path id="arrow"
             d="M 11.500037,31.436501 C 11.940474,20.09759 22.043105,11.32322 32.158766,21.979434 L 37.068811,17.246167 C 37.068811,17.246167 37.088388,32 37.088388,32 L 22.160133,31.978069 C 22.160133,31.978069 26.997745,27.140456 26.997745,27.140456 C 18.528582,18.264221 13.291696,25.230495 11.500037,31.436501 z"
             style="fill:#404040;"/>
          </a>
         </g>
        </svg>
</svg>
