<?xml version="1.0" encoding="UTF-8" standalone="no"?>
<!DOCTYPE svg PUBLIC "-//W3C//DTD SVG 1.1//EN"
 "http://www.w3.org/Graphics/SVG/1.1/DTD/svg11.dtd">
<!-- Generated by graphviz version 2.46.0 (0)
 -->
<!-- Title: lagvel Pages: 1 -->
<svg width="242pt" height="218pt"
 viewBox="0.00 0.00 242.00 218.00" xmlns="http://www.w3.org/2000/svg" xmlns:xlink="http://www.w3.org/1999/xlink">
<g id="graph0" class="graph" transform="scale(1 1) rotate(0) translate(4 214)">
<title>lagvel</title>
<polygon fill="white" stroke="transparent" points="-4,4 -4,-214 238,-214 238,4 -4,4"/>
<!-- Node1 -->
<g id="node1" class="node">
<title>Node1</title>
<g id="a_node1"><a xlink:title=" ">
<polygon fill="#bfbfbf" stroke="black" points="192,-95.5 192,-114.5 234,-114.5 234,-95.5 192,-95.5"/>
<text text-anchor="middle" x="213" y="-102.5" font-family="Helvetica,sans-Serif" font-size="10.00">lagvel</text>
</a>
</g>
</g>
<!-- Node2 -->
<g id="node2" class="node">
<title>Node2</title>
<g id="a_node2"><a xlink:href="planx_8f.html#a02873cc7b2b98973667aa8cb9f2cbadb" target="_top" xlink:title=" ">
<polygon fill="white" stroke="black" points="110,-190.5 110,-209.5 156,-209.5 156,-190.5 110,-190.5"/>
<text text-anchor="middle" x="133" y="-197.5" font-family="Helvetica,sans-Serif" font-size="10.00">cresvif</text>
</a>
</g>
</g>
<!-- Node1&#45;&gt;Node2 -->
<g id="edge1" class="edge">
<title>Node1&#45;&gt;Node2</title>
<path fill="none" stroke="midnightblue" d="M200.37,-123.08C189.7,-139.05 173.03,-162.6 156,-181 152.98,-184.26 149.44,-187.52 146.09,-190.4"/>
<polygon fill="midnightblue" stroke="midnightblue" points="203.34,-124.93 205.91,-114.65 197.49,-121.08 203.34,-124.93"/>
</g>
<!-- Node13 -->
<g id="node4" class="node">
<title>Node13</title>
<g id="a_node4"><a xlink:href="ssolv_8f.html#a32c70775ea366af9242d4ae85dcc31f2" target="_top" xlink:title=" ">
<polygon fill="white" stroke="black" points="113.5,-152.5 113.5,-171.5 152.5,-171.5 152.5,-152.5 113.5,-152.5"/>
<text text-anchor="middle" x="133" y="-159.5" font-family="Helvetica,sans-Serif" font-size="10.00">filllag</text>
</a>
</g>
</g>
<!-- Node1&#45;&gt;Node13 -->
<g id="edge3" class="edge">
<title>Node1&#45;&gt;Node13</title>
<path fill="none" stroke="midnightblue" d="M190.66,-120.59C176.7,-130.79 158.92,-143.79 147.04,-152.47"/>
<polygon fill="midnightblue" stroke="midnightblue" points="192.76,-123.4 198.77,-114.67 188.63,-117.74 192.76,-123.4"/>
</g>
<!-- Node15 -->
<g id="node6" class="node">
<title>Node15</title>
<g id="a_node6"><a xlink:href="induct_8f.html#aa44a44eb5a5e3f510211f8fd8e6b12b7" target="_top" xlink:title=" ">
<polygon fill="white" stroke="black" points="111.5,-114.5 111.5,-133.5 154.5,-133.5 154.5,-114.5 111.5,-114.5"/>
<text text-anchor="middle" x="133" y="-121.5" font-family="Helvetica,sans-Serif" font-size="10.00">induct</text>
</a>
</g>
</g>
<!-- Node1&#45;&gt;Node15 -->
<g id="edge5" class="edge">
<title>Node1&#45;&gt;Node15</title>
<path fill="none" stroke="midnightblue" d="M181.98,-112.31C172.81,-114.55 162.95,-116.95 154.56,-118.99"/>
<polygon fill="midnightblue" stroke="midnightblue" points="183.03,-115.66 191.91,-109.89 181.37,-108.86 183.03,-115.66"/>
</g>
<!-- Node16 -->
<g id="node8" class="node">
<title>Node16</title>
<g id="a_node8"><a xlink:href="navier1_8f.html#a23e6343990072aa1a6b17109ccc7ba2b" target="_top" xlink:title=" ">
<polygon fill="white" stroke="red" points="113,-76.5 113,-95.5 153,-95.5 153,-76.5 113,-76.5"/>
<text text-anchor="middle" x="133" y="-83.5" font-family="Helvetica,sans-Serif" font-size="10.00">plan1</text>
</a>
</g>
</g>
<!-- Node1&#45;&gt;Node16 -->
<g id="edge7" class="edge">
<title>Node1&#45;&gt;Node16</title>
<path fill="none" stroke="midnightblue" d="M182.19,-97.74C172.47,-95.37 161.94,-92.81 153.21,-90.68"/>
<polygon fill="midnightblue" stroke="midnightblue" points="181.37,-101.14 191.91,-100.11 183.03,-94.34 181.37,-101.14"/>
</g>
<!-- Node17 -->
<g id="node9" class="node">
<title>Node17</title>
<g id="a_node9"><a xlink:href="plan4_8f.html#a247fc105464de543a464773054eb509e" target="_top" xlink:title=" ">
<polygon fill="white" stroke="red" points="113,-38.5 113,-57.5 153,-57.5 153,-38.5 113,-38.5"/>
<text text-anchor="middle" x="133" y="-45.5" font-family="Helvetica,sans-Serif" font-size="10.00">plan4</text>
</a>
</g>
</g>
<!-- Node1&#45;&gt;Node17 -->
<g id="edge8" class="edge">
<title>Node1&#45;&gt;Node17</title>
<path fill="none" stroke="midnightblue" d="M190.66,-89.41C176.7,-79.21 158.92,-66.21 147.04,-57.53"/>
<polygon fill="midnightblue" stroke="midnightblue" points="188.63,-92.26 198.77,-95.33 192.76,-86.6 188.63,-92.26"/>
</g>
<!-- Node18 -->
<g id="node10" class="node">
<title>Node18</title>
<g id="a_node10"><a xlink:href="ic_8f.html#acaefa33e86633e4a7a4b28347d4620d1" target="_top" xlink:title=" ">
<polygon fill="white" stroke="red" points="111.5,-0.5 111.5,-19.5 154.5,-19.5 154.5,-0.5 111.5,-0.5"/>
<text text-anchor="middle" x="133" y="-7.5" font-family="Helvetica,sans-Serif" font-size="10.00">setics</text>
</a>
</g>
</g>
<!-- Node1&#45;&gt;Node18 -->
<g id="edge9" class="edge">
<title>Node1&#45;&gt;Node18</title>
<path fill="none" stroke="midnightblue" d="M200.37,-86.92C189.7,-70.95 173.03,-47.4 156,-29 152.98,-25.74 149.44,-22.48 146.09,-19.6"/>
<polygon fill="midnightblue" stroke="midnightblue" points="197.49,-88.92 205.91,-95.35 203.34,-85.07 197.49,-88.92"/>
</g>
<!-- Node3 -->
<g id="node3" class="node">
<title>Node3</title>
<g id="a_node3"><a xlink:href="planx_8f.html#a142f9186a662d3de60f09bb0ee26782d" target="_top" xlink:title=" ">
<polygon fill="white" stroke="red" points="17,-190.5 17,-209.5 57,-209.5 57,-190.5 17,-190.5"/>
<text text-anchor="middle" x="37" y="-197.5" font-family="Helvetica,sans-Serif" font-size="10.00">plan3</text>
</a>
</g>
</g>
<!-- Node2&#45;&gt;Node3 -->
<g id="edge2" class="edge">
<title>Node2&#45;&gt;Node3</title>
<path fill="none" stroke="midnightblue" d="M99.43,-200C85.37,-200 69.39,-200 57.25,-200"/>
<polygon fill="midnightblue" stroke="midnightblue" points="99.72,-203.5 109.72,-200 99.72,-196.5 99.72,-203.5"/>
</g>
<!-- Node14 -->
<g id="node5" class="node">
<title>Node14</title>
<g id="a_node5"><a xlink:href="ssolv_8f.html#a5d7ad82993f1275f4d0e6536d90c4cab" target="_top" xlink:title=" ">
<polygon fill="white" stroke="black" points="14,-152.5 14,-171.5 60,-171.5 60,-152.5 14,-152.5"/>
<text text-anchor="middle" x="37" y="-159.5" font-family="Helvetica,sans-Serif" font-size="10.00">chkext</text>
</a>
</g>
</g>
<!-- Node13&#45;&gt;Node14 -->
<g id="edge4" class="edge">
<title>Node13&#45;&gt;Node14</title>
<path fill="none" stroke="midnightblue" d="M103.41,-162C89.52,-162 73.09,-162 60.17,-162"/>
<polygon fill="midnightblue" stroke="midnightblue" points="103.43,-165.5 113.43,-162 103.43,-158.5 103.43,-165.5"/>
</g>
<!-- Node8 -->
<g id="node7" class="node">
<title>Node8</title>
<g id="a_node7"><a xlink:href="drive1_8f.html#ae177ea7efac97f35241521b782a671c0" target="_top" xlink:title=" ">
<polygon fill="white" stroke="red" points="0,-114.5 0,-133.5 74,-133.5 74,-114.5 0,-114.5"/>
<text text-anchor="middle" x="37" y="-121.5" font-family="Helvetica,sans-Serif" font-size="10.00">nek_advance</text>
</a>
</g>
</g>
<!-- Node15&#45;&gt;Node8 -->
<g id="edge6" class="edge">
<title>Node15&#45;&gt;Node8</title>
<path fill="none" stroke="midnightblue" d="M100.89,-124C92.38,-124 83.09,-124 74.33,-124"/>
<polygon fill="midnightblue" stroke="midnightblue" points="101.14,-127.5 111.14,-124 101.14,-120.5 101.14,-127.5"/>
</g>
</g>
</svg>
