<?xml version="1.0" encoding="UTF-8" standalone="no"?>
<!DOCTYPE svg PUBLIC "-//W3C//DTD SVG 1.1//EN"
 "http://www.w3.org/Graphics/SVG/1.1/DTD/svg11.dtd">
<!-- Generated by graphviz version 2.46.0 (0)
 -->
<!-- Title: opamask Pages: 1 -->
<svg width="318pt" height="142pt"
 viewBox="0.00 0.00 318.00 142.00" xmlns="http://www.w3.org/2000/svg" xmlns:xlink="http://www.w3.org/1999/xlink">
<g id="graph0" class="graph" transform="scale(1 1) rotate(0) translate(4 138)">
<title>opamask</title>
<polygon fill="white" stroke="transparent" points="-4,4 -4,-138 314,-138 314,4 -4,4"/>
<!-- Node1 -->
<g id="node1" class="node">
<title>Node1</title>
<g id="a_node1"><a xlink:title=" ">
<polygon fill="#bfbfbf" stroke="black" points="0,-38.5 0,-57.5 56,-57.5 56,-38.5 0,-38.5"/>
<text text-anchor="middle" x="28" y="-45.5" font-family="Helvetica,sans-Serif" font-size="10.00">opamask</text>
</a>
</g>
</g>
<!-- Node2 -->
<g id="node2" class="node">
<title>Node2</title>
<g id="a_node2"><a xlink:href="subs2_8f.html#a02fee4f93841d69fae613b4ca25be81b" target="_top" xlink:title=" ">
<polygon fill="white" stroke="black" points="94.5,-57.5 94.5,-76.5 140.5,-76.5 140.5,-57.5 94.5,-57.5"/>
<text text-anchor="middle" x="117.5" y="-64.5" font-family="Helvetica,sans-Serif" font-size="10.00">amask</text>
</a>
</g>
</g>
<!-- Node1&#45;&gt;Node2 -->
<g id="edge1" class="edge">
<title>Node1&#45;&gt;Node2</title>
<path fill="none" stroke="midnightblue" d="M56.21,-53.91C65.1,-55.84 75.06,-58 84.29,-60.01"/>
<polygon fill="midnightblue" stroke="midnightblue" points="83.78,-63.48 94.3,-62.18 85.27,-56.64 83.78,-63.48"/>
</g>
<!-- Node18 -->
<g id="node10" class="node">
<title>Node18</title>
<g id="a_node10"><a xlink:href="navier1_8f.html#aa747da92305aebf6cb087f473bce2ba0" target="_top" xlink:title=" ">
<polygon fill="white" stroke="black" points="92,-19.5 92,-38.5 143,-38.5 143,-19.5 92,-19.5"/>
<text text-anchor="middle" x="117.5" y="-26.5" font-family="Helvetica,sans-Serif" font-size="10.00">antimsk</text>
</a>
</g>
</g>
<!-- Node1&#45;&gt;Node18 -->
<g id="edge10" class="edge">
<title>Node1&#45;&gt;Node18</title>
<path fill="none" stroke="midnightblue" d="M56.21,-42.09C64.43,-40.31 73.56,-38.32 82.18,-36.45"/>
<polygon fill="midnightblue" stroke="midnightblue" points="82.95,-39.87 91.98,-34.32 81.47,-33.03 82.95,-39.87"/>
</g>
<!-- Node3 -->
<g id="node3" class="node">
<title>Node3</title>
<g id="a_node3"><a xlink:href="math_8f.html#a3b43508554f14bdea8e14473d7d0803c" target="_top" xlink:title=" ">
<polygon fill="white" stroke="black" points="266.5,-114.5 266.5,-133.5 304.5,-133.5 304.5,-114.5 266.5,-114.5"/>
<text text-anchor="middle" x="285.5" y="-121.5" font-family="Helvetica,sans-Serif" font-size="10.00">copy</text>
</a>
</g>
</g>
<!-- Node2&#45;&gt;Node3 -->
<g id="edge2" class="edge">
<title>Node2&#45;&gt;Node3</title>
<path fill="none" stroke="midnightblue" d="M130.72,-76.67C142.44,-85.43 160.96,-98.01 179,-105 204.09,-114.72 234.49,-119.52 256.2,-121.86"/>
<polygon fill="midnightblue" stroke="midnightblue" points="256.1,-125.36 266.39,-122.84 256.77,-118.4 256.1,-125.36"/>
</g>
<!-- Node4 -->
<g id="node4" class="node">
<title>Node4</title>
<g id="a_node4"><a xlink:href="subs2_8f.html#a70dbc71f203381a03c32548c6a3d112e" target="_top" xlink:title=" ">
<polygon fill="white" stroke="red" points="179,-76.5 179,-95.5 225,-95.5 225,-76.5 179,-76.5"/>
<text text-anchor="middle" x="202" y="-83.5" font-family="Helvetica,sans-Serif" font-size="10.00">qmask</text>
</a>
</g>
</g>
<!-- Node2&#45;&gt;Node4 -->
<g id="edge3" class="edge">
<title>Node2&#45;&gt;Node4</title>
<path fill="none" stroke="midnightblue" d="M140.61,-72.09C149.3,-74.09 159.45,-76.43 168.92,-78.61"/>
<polygon fill="midnightblue" stroke="midnightblue" points="168.3,-82.06 178.83,-80.89 169.87,-75.24 168.3,-82.06"/>
</g>
<!-- Node16 -->
<g id="node8" class="node">
<title>Node16</title>
<g id="a_node8"><a xlink:href="math_8f.html#ae1294c8ac3b5b3c38bbcc250d252b9cb" target="_top" xlink:title=" ">
<polygon fill="white" stroke="black" points="184.5,-38.5 184.5,-57.5 219.5,-57.5 219.5,-38.5 184.5,-38.5"/>
<text text-anchor="middle" x="202" y="-45.5" font-family="Helvetica,sans-Serif" font-size="10.00">rone</text>
</a>
</g>
</g>
<!-- Node2&#45;&gt;Node16 -->
<g id="edge8" class="edge">
<title>Node2&#45;&gt;Node16</title>
<path fill="none" stroke="midnightblue" d="M140.61,-61.91C151.03,-59.51 163.54,-56.63 174.46,-54.11"/>
<polygon fill="midnightblue" stroke="midnightblue" points="175.37,-57.49 184.33,-51.84 173.8,-50.67 175.37,-57.49"/>
</g>
<!-- Node17 -->
<g id="node9" class="node">
<title>Node17</title>
<g id="a_node9"><a xlink:href="math_8f.html#acc66fa3dd9d846331bd95c9c8abe93ae" target="_top" xlink:title=" ">
<polygon fill="white" stroke="black" points="183,-0.5 183,-19.5 221,-19.5 221,-0.5 183,-0.5"/>
<text text-anchor="middle" x="202" y="-7.5" font-family="Helvetica,sans-Serif" font-size="10.00">sub3</text>
</a>
</g>
</g>
<!-- Node2&#45;&gt;Node17 -->
<g id="edge9" class="edge">
<title>Node2&#45;&gt;Node17</title>
<path fill="none" stroke="midnightblue" d="M132.5,-57.33C145.13,-48.6 163.95,-35.6 178.67,-25.43"/>
<polygon fill="midnightblue" stroke="midnightblue" points="180.97,-28.09 187.21,-19.53 176.99,-22.33 180.97,-28.09"/>
</g>
<!-- Node4&#45;&gt;Node3 -->
<g id="edge5" class="edge">
<title>Node4&#45;&gt;Node3</title>
<path fill="none" stroke="midnightblue" d="M223.57,-95.59C233.78,-100.35 246.25,-106.17 257.25,-111.29"/>
<polygon fill="midnightblue" stroke="midnightblue" points="255.9,-114.52 266.44,-115.58 258.85,-108.18 255.9,-114.52"/>
</g>
<!-- Node5 -->
<g id="node5" class="node">
<title>Node5</title>
<g id="a_node5"><a xlink:href="math_8f.html#a3470db04166d9ba91454a14cc17dbec2" target="_top" xlink:title=" ">
<polygon fill="white" stroke="red" points="268,-76.5 268,-95.5 303,-95.5 303,-76.5 268,-76.5"/>
<text text-anchor="middle" x="285.5" y="-83.5" font-family="Helvetica,sans-Serif" font-size="10.00">col2</text>
</a>
</g>
</g>
<!-- Node4&#45;&gt;Node5 -->
<g id="edge4" class="edge">
<title>Node4&#45;&gt;Node5</title>
<path fill="none" stroke="midnightblue" d="M225.27,-86C235.27,-86 247.16,-86 257.66,-86"/>
<polygon fill="midnightblue" stroke="midnightblue" points="257.95,-89.5 267.95,-86 257.95,-82.5 257.95,-89.5"/>
</g>
<!-- Node8 -->
<g id="node6" class="node">
<title>Node8</title>
<g id="a_node6"><a xlink:href="subs2_8f.html#a3e701744254052a0286c2b28981f63c3" target="_top" xlink:title=" ">
<polygon fill="white" stroke="black" points="261,-38.5 261,-57.5 310,-57.5 310,-38.5 261,-38.5"/>
<text text-anchor="middle" x="285.5" y="-45.5" font-family="Helvetica,sans-Serif" font-size="10.00">crmsk2</text>
</a>
</g>
</g>
<!-- Node4&#45;&gt;Node8 -->
<g id="edge6" class="edge">
<title>Node4&#45;&gt;Node8</title>
<path fill="none" stroke="midnightblue" d="M223.57,-76.41C233.03,-72 244.43,-66.69 254.79,-61.85"/>
<polygon fill="midnightblue" stroke="midnightblue" points="256.36,-64.98 263.94,-57.59 253.4,-58.64 256.36,-64.98"/>
</g>
<!-- Node9 -->
<g id="node7" class="node">
<title>Node9</title>
<g id="a_node7"><a xlink:href="subs2_8f.html#a0bc9f228fd207d905091f02d2be5ed3b" target="_top" xlink:title=" ">
<polygon fill="white" stroke="black" points="261,-0.5 261,-19.5 310,-19.5 310,-0.5 261,-0.5"/>
<text text-anchor="middle" x="285.5" y="-7.5" font-family="Helvetica,sans-Serif" font-size="10.00">crmsk3</text>
</a>
</g>
</g>
<!-- Node4&#45;&gt;Node9 -->
<g id="edge7" class="edge">
<title>Node4&#45;&gt;Node9</title>
<path fill="none" stroke="midnightblue" d="M214.84,-76.15C218.18,-73.27 221.79,-70.07 225,-67 241.82,-50.93 243.92,-44.79 261,-29 261.95,-28.12 262.94,-27.23 263.95,-26.34"/>
<polygon fill="midnightblue" stroke="midnightblue" points="266.39,-28.87 271.8,-19.76 261.89,-23.5 266.39,-28.87"/>
</g>
</g>
</svg>
