<?xml version="1.0" encoding="UTF-8" standalone="no"?>
<!DOCTYPE svg PUBLIC "-//W3C//DTD SVG 1.1//EN"
 "http://www.w3.org/Graphics/SVG/1.1/DTD/svg11.dtd">
<!-- Generated by graphviz version 2.46.0 (0)
 -->
<!-- Title: avg_all Pages: 1 -->
<svg width="301pt" height="256pt"
 viewBox="0.00 0.00 301.00 256.00" xmlns="http://www.w3.org/2000/svg" xmlns:xlink="http://www.w3.org/1999/xlink">
<g id="graph0" class="graph" transform="scale(1 1) rotate(0) translate(4 252)">
<title>avg_all</title>
<polygon fill="white" stroke="transparent" points="-4,4 -4,-252 297,-252 297,4 -4,4"/>
<!-- Node1 -->
<g id="node1" class="node">
<title>Node1</title>
<g id="a_node1"><a xlink:title=" ">
<polygon fill="#bfbfbf" stroke="black" points="0,-114.5 0,-133.5 47,-133.5 47,-114.5 0,-114.5"/>
<text text-anchor="middle" x="23.5" y="-121.5" font-family="Helvetica,sans-Serif" font-size="10.00">avg_all</text>
</a>
</g>
</g>
<!-- Node2 -->
<g id="node2" class="node">
<title>Node2</title>
<g id="a_node2"><a xlink:href="navier5_8f.html#a2853a4c928f7a75dc27bfc7dbfe9df58" target="_top" xlink:title=" ">
<polygon fill="white" stroke="black" points="88.5,-228.5 88.5,-247.5 126.5,-247.5 126.5,-228.5 88.5,-228.5"/>
<text text-anchor="middle" x="107.5" y="-235.5" font-family="Helvetica,sans-Serif" font-size="10.00">avg1</text>
</a>
</g>
</g>
<!-- Node1&#45;&gt;Node2 -->
<g id="edge1" class="edge">
<title>Node1&#45;&gt;Node2</title>
<path fill="none" stroke="midnightblue" d="M29.04,-133.61C37.81,-151.6 58.44,-191.08 83,-219 83.73,-219.83 84.49,-220.65 85.29,-221.45"/>
<polygon fill="midnightblue" stroke="midnightblue" points="83.1,-224.19 92.87,-228.28 87.78,-218.99 83.1,-224.19"/>
</g>
<!-- Node7 -->
<g id="node5" class="node">
<title>Node7</title>
<g id="a_node5"><a xlink:href="navier5_8f.html#ac0336bf0b2324b21a1ebfa6025bafa40" target="_top" xlink:title=" ">
<polygon fill="white" stroke="black" points="88.5,-190.5 88.5,-209.5 126.5,-209.5 126.5,-190.5 88.5,-190.5"/>
<text text-anchor="middle" x="107.5" y="-197.5" font-family="Helvetica,sans-Serif" font-size="10.00">avg2</text>
</a>
</g>
</g>
<!-- Node1&#45;&gt;Node7 -->
<g id="edge4" class="edge">
<title>Node1&#45;&gt;Node7</title>
<path fill="none" stroke="midnightblue" d="M33.77,-133.56C45.09,-145.11 64.98,-164.99 83,-181 83.97,-181.86 84.97,-182.74 85.99,-183.61"/>
<polygon fill="midnightblue" stroke="midnightblue" points="83.95,-186.46 93.88,-190.15 88.42,-181.07 83.95,-186.46"/>
</g>
<!-- Node8 -->
<g id="node6" class="node">
<title>Node8</title>
<g id="a_node6"><a xlink:href="navier5_8f.html#ae78a6079bfbfefe072e88d800caa9cd8" target="_top" xlink:title=" ">
<polygon fill="white" stroke="black" points="88.5,-152.5 88.5,-171.5 126.5,-171.5 126.5,-152.5 88.5,-152.5"/>
<text text-anchor="middle" x="107.5" y="-159.5" font-family="Helvetica,sans-Serif" font-size="10.00">avg3</text>
</a>
</g>
</g>
<!-- Node1&#45;&gt;Node8 -->
<g id="edge7" class="edge">
<title>Node1&#45;&gt;Node8</title>
<path fill="none" stroke="midnightblue" d="M45.19,-133.59C55.47,-138.35 68.02,-144.17 79.08,-149.29"/>
<polygon fill="midnightblue" stroke="midnightblue" points="77.78,-152.55 88.33,-153.58 80.73,-146.2 77.78,-152.55"/>
</g>
<!-- Node9 -->
<g id="node7" class="node">
<title>Node9</title>
<g id="a_node7"><a xlink:href="byte_8c.html#a2da8eeb074dfd3ffbfb3e9a4d301cda4" target="_top" xlink:title=" ">
<polygon fill="white" stroke="red" points="258,-95.5 258,-114.5 293,-114.5 293,-95.5 258,-95.5"/>
<text text-anchor="middle" x="275.5" y="-102.5" font-family="Helvetica,sans-Serif" font-size="10.00">exitt</text>
</a>
</g>
</g>
<!-- Node1&#45;&gt;Node9 -->
<g id="edge10" class="edge">
<title>Node1&#45;&gt;Node9</title>
<path fill="none" stroke="midnightblue" d="M47.13,-122.28C93.28,-118.77 198.08,-110.81 247.61,-107.04"/>
<polygon fill="midnightblue" stroke="midnightblue" points="248.15,-110.51 257.85,-106.27 247.62,-103.53 248.15,-110.51"/>
</g>
<!-- Node12 -->
<g id="node8" class="node">
<title>Node12</title>
<g id="a_node8"><a xlink:href="prepost_8f.html#aacb528c0b28bc79dff8db48d7ae9ac64" target="_top" xlink:title=" ">
<polygon fill="white" stroke="black" points="83,-76.5 83,-95.5 132,-95.5 132,-76.5 83,-76.5"/>
<text text-anchor="middle" x="107.5" y="-83.5" font-family="Helvetica,sans-Serif" font-size="10.00">outpost</text>
</a>
</g>
</g>
<!-- Node1&#45;&gt;Node12 -->
<g id="edge11" class="edge">
<title>Node1&#45;&gt;Node12</title>
<path fill="none" stroke="midnightblue" d="M45.19,-114.41C54.71,-110 66.18,-104.69 76.61,-99.85"/>
<polygon fill="midnightblue" stroke="midnightblue" points="78.21,-102.97 85.81,-95.59 75.27,-96.62 78.21,-102.97"/>
</g>
<!-- Node13 -->
<g id="node9" class="node">
<title>Node13</title>
<g id="a_node9"><a xlink:href="prepost_8f.html#aaf4c0f2e1790302116a4c719c2eb50ff" target="_top" xlink:title=" ">
<polygon fill="white" stroke="red" points="168,-76.5 168,-95.5 222,-95.5 222,-76.5 168,-76.5"/>
<text text-anchor="middle" x="195" y="-83.5" font-family="Helvetica,sans-Serif" font-size="10.00">outpost2</text>
</a>
</g>
</g>
<!-- Node1&#45;&gt;Node13 -->
<g id="edge14" class="edge">
<title>Node1&#45;&gt;Node13</title>
<path fill="none" stroke="midnightblue" d="M30.65,-114.45C40.04,-100.89 59.36,-76.61 83,-67 109.5,-56.22 141.98,-63.98 164.94,-72.6"/>
<polygon fill="midnightblue" stroke="midnightblue" points="163.87,-75.94 174.45,-76.42 166.48,-69.44 163.87,-75.94"/>
</g>
<!-- Node93 -->
<g id="node10" class="node">
<title>Node93</title>
<g id="a_node10"><a xlink:href="math_8f.html#af44de42b023a4a68cd98ea341204342d" target="_top" xlink:title=" ">
<polygon fill="white" stroke="black" points="88.5,-0.5 88.5,-19.5 126.5,-19.5 126.5,-0.5 88.5,-0.5"/>
<text text-anchor="middle" x="107.5" y="-7.5" font-family="Helvetica,sans-Serif" font-size="10.00">rzero</text>
</a>
</g>
</g>
<!-- Node1&#45;&gt;Node93 -->
<g id="edge15" class="edge">
<title>Node1&#45;&gt;Node93</title>
<path fill="none" stroke="midnightblue" d="M29.9,-114.38C39.58,-97.44 60.97,-61.48 83,-34 84.85,-31.7 86.88,-29.37 88.96,-27.11"/>
<polygon fill="midnightblue" stroke="midnightblue" points="91.53,-29.48 95.97,-19.86 86.5,-24.62 91.53,-29.48"/>
</g>
<!-- Node3 -->
<g id="node3" class="node">
<title>Node3</title>
<g id="a_node3"><a xlink:href="math_8f.html#af58b0d2ff8df811dc27c9e42460492b9" target="_top" xlink:title=" ">
<polygon fill="white" stroke="red" points="173.5,-209.5 173.5,-228.5 216.5,-228.5 216.5,-209.5 173.5,-209.5"/>
<text text-anchor="middle" x="195" y="-216.5" font-family="Helvetica,sans-Serif" font-size="10.00">glmax</text>
</a>
</g>
</g>
<!-- Node2&#45;&gt;Node3 -->
<g id="edge2" class="edge">
<title>Node2&#45;&gt;Node3</title>
<path fill="none" stroke="midnightblue" d="M126.63,-233.97C137.36,-231.59 151.21,-228.51 163.57,-225.76"/>
<polygon fill="midnightblue" stroke="midnightblue" points="164.49,-229.14 173.49,-223.56 162.97,-222.31 164.49,-229.14"/>
</g>
<!-- Node6 -->
<g id="node4" class="node">
<title>Node6</title>
<g id="a_node4"><a xlink:href="math_8f.html#a102af0dc870819a605ae55d60c59f84a" target="_top" xlink:title=" ">
<polygon fill="white" stroke="red" points="175,-171.5 175,-190.5 215,-190.5 215,-171.5 175,-171.5"/>
<text text-anchor="middle" x="195" y="-178.5" font-family="Helvetica,sans-Serif" font-size="10.00">glmin</text>
</a>
</g>
</g>
<!-- Node2&#45;&gt;Node6 -->
<g id="edge3" class="edge">
<title>Node2&#45;&gt;Node6</title>
<path fill="none" stroke="midnightblue" d="M123,-228.33C136.23,-219.52 155.97,-206.35 171.29,-196.14"/>
<polygon fill="midnightblue" stroke="midnightblue" points="173.33,-198.99 179.71,-190.53 169.45,-193.16 173.33,-198.99"/>
</g>
<!-- Node7&#45;&gt;Node3 -->
<g id="edge5" class="edge">
<title>Node7&#45;&gt;Node3</title>
<path fill="none" stroke="midnightblue" d="M126.63,-204.03C137.36,-206.41 151.21,-209.49 163.57,-212.24"/>
<polygon fill="midnightblue" stroke="midnightblue" points="162.97,-215.69 173.49,-214.44 164.49,-208.86 162.97,-215.69"/>
</g>
<!-- Node7&#45;&gt;Node6 -->
<g id="edge6" class="edge">
<title>Node7&#45;&gt;Node6</title>
<path fill="none" stroke="midnightblue" d="M126.63,-195.97C137.66,-193.52 152.01,-190.33 164.62,-187.53"/>
<polygon fill="midnightblue" stroke="midnightblue" points="165.7,-190.87 174.71,-185.29 164.18,-184.04 165.7,-190.87"/>
</g>
<!-- Node8&#45;&gt;Node3 -->
<g id="edge8" class="edge">
<title>Node8&#45;&gt;Node3</title>
<path fill="none" stroke="midnightblue" d="M123,-171.67C136.23,-180.48 155.97,-193.65 171.29,-203.86"/>
<polygon fill="midnightblue" stroke="midnightblue" points="169.45,-206.84 179.71,-209.47 173.33,-201.01 169.45,-206.84"/>
</g>
<!-- Node8&#45;&gt;Node6 -->
<g id="edge9" class="edge">
<title>Node8&#45;&gt;Node6</title>
<path fill="none" stroke="midnightblue" d="M126.63,-166.03C137.66,-168.48 152.01,-171.67 164.62,-174.47"/>
<polygon fill="midnightblue" stroke="midnightblue" points="164.18,-177.96 174.71,-176.71 165.7,-171.13 164.18,-177.96"/>
</g>
<!-- Node12&#45;&gt;Node13 -->
<g id="edge12" class="edge">
<title>Node12&#45;&gt;Node13</title>
<path fill="none" stroke="midnightblue" d="M132.32,-86C140.19,-86 149.13,-86 157.71,-86"/>
<polygon fill="midnightblue" stroke="midnightblue" points="157.91,-89.5 167.91,-86 157.91,-82.5 157.91,-89.5"/>
</g>
<!-- Node13&#45;&gt;Node9 -->
<g id="edge13" class="edge">
<title>Node13&#45;&gt;Node9</title>
<path fill="none" stroke="midnightblue" d="M222.14,-92.33C230.42,-94.33 239.58,-96.55 247.89,-98.56"/>
<polygon fill="midnightblue" stroke="midnightblue" points="247.29,-102.02 257.83,-100.97 248.94,-95.21 247.29,-102.02"/>
</g>
</g>
</svg>
