<?xml version="1.0" encoding="UTF-8" standalone="no"?>
<!DOCTYPE svg PUBLIC "-//W3C//DTD SVG 1.1//EN"
 "http://www.w3.org/Graphics/SVG/1.1/DTD/svg11.dtd">
<!-- Generated by graphviz version 2.46.0 (0)
 -->
<!-- Title: proj_get_ivar Pages: 1 -->
<svg width="446pt" height="161pt"
 viewBox="0.00 0.00 446.00 161.00" xmlns="http://www.w3.org/2000/svg" xmlns:xlink="http://www.w3.org/1999/xlink">
<g id="graph0" class="graph" transform="scale(1 1) rotate(0) translate(4 157)">
<title>proj_get_ivar</title>
<polygon fill="white" stroke="transparent" points="-4,4 -4,-157 442,-157 442,4 -4,4"/>
<!-- Node1 -->
<g id="node1" class="node">
<title>Node1</title>
<g id="a_node1"><a xlink:title=" ">
<polygon fill="#bfbfbf" stroke="black" points="366,-38.5 366,-57.5 438,-57.5 438,-38.5 366,-38.5"/>
<text text-anchor="middle" x="402" y="-45.5" font-family="Helvetica,sans-Serif" font-size="10.00">proj_get_ivar</text>
</a>
</g>
</g>
<!-- Node2 -->
<g id="node2" class="node">
<title>Node2</title>
<g id="a_node2"><a xlink:href="navier4_8f.html#a142a136172575274b25ce7f923c429fc" target="_top" xlink:title=" ">
<polygon fill="white" stroke="black" points="279,-57.5 279,-76.5 330,-76.5 330,-57.5 279,-57.5"/>
<text text-anchor="middle" x="304.5" y="-64.5" font-family="Helvetica,sans-Serif" font-size="10.00">project1</text>
</a>
</g>
</g>
<!-- Node1&#45;&gt;Node2 -->
<g id="edge1" class="edge">
<title>Node1&#45;&gt;Node2</title>
<path fill="none" stroke="midnightblue" d="M356.01,-56.95C347.07,-58.73 338,-60.53 330.06,-62.11"/>
<polygon fill="midnightblue" stroke="midnightblue" points="356.86,-60.35 365.98,-54.97 355.49,-53.49 356.86,-60.35"/>
</g>
<!-- Node64 -->
<g id="node10" class="node">
<title>Node64</title>
<g id="a_node10"><a xlink:href="navier4_8f.html#ac1700cca28238294c52879cb29424911" target="_top" xlink:title=" ">
<polygon fill="white" stroke="black" points="279,-19.5 279,-38.5 330,-38.5 330,-19.5 279,-19.5"/>
<text text-anchor="middle" x="304.5" y="-26.5" font-family="Helvetica,sans-Serif" font-size="10.00">project2</text>
</a>
</g>
</g>
<!-- Node1&#45;&gt;Node64 -->
<g id="edge10" class="edge">
<title>Node1&#45;&gt;Node64</title>
<path fill="none" stroke="midnightblue" d="M356.01,-39.05C347.07,-37.27 338,-35.47 330.06,-33.89"/>
<polygon fill="midnightblue" stroke="midnightblue" points="355.49,-42.51 365.98,-41.03 356.86,-35.65 355.49,-42.51"/>
</g>
<!-- Node3 -->
<g id="node3" class="node">
<title>Node3</title>
<g id="a_node3"><a xlink:href="navier4_8f.html#a2c8eef885087bb1ef49c29a936b96918" target="_top" xlink:title=" ">
<polygon fill="white" stroke="black" points="194,-76.5 194,-95.5 239,-95.5 239,-76.5 194,-76.5"/>
<text text-anchor="middle" x="216.5" y="-83.5" font-family="Helvetica,sans-Serif" font-size="10.00">hsolve</text>
</a>
</g>
</g>
<!-- Node2&#45;&gt;Node3 -->
<g id="edge2" class="edge">
<title>Node2&#45;&gt;Node3</title>
<path fill="none" stroke="midnightblue" d="M268.55,-74.72C258.59,-76.92 248.02,-79.26 239.11,-81.23"/>
<polygon fill="midnightblue" stroke="midnightblue" points="269.62,-78.07 278.63,-72.5 268.11,-71.24 269.62,-78.07"/>
</g>
<!-- Node59 -->
<g id="node7" class="node">
<title>Node59</title>
<g id="a_node7"><a xlink:href="meshsmoother_8f.html#a715c42ef301242c75f9ff6cbafe8b538" target="_top" xlink:title=" ">
<polygon fill="white" stroke="black" points="190,-38.5 190,-57.5 243,-57.5 243,-38.5 190,-38.5"/>
<text text-anchor="middle" x="216.5" y="-45.5" font-family="Helvetica,sans-Serif" font-size="10.00">laplaceh</text>
</a>
</g>
</g>
<!-- Node2&#45;&gt;Node59 -->
<g id="edge7" class="edge">
<title>Node2&#45;&gt;Node59</title>
<path fill="none" stroke="midnightblue" d="M268.59,-59.29C260.1,-57.41 251.18,-55.44 243.22,-53.68"/>
<polygon fill="midnightblue" stroke="midnightblue" points="268.11,-62.76 278.63,-61.5 269.62,-55.93 268.11,-62.76"/>
</g>
<!-- Node63 -->
<g id="node9" class="node">
<title>Node63</title>
<g id="a_node9"><a xlink:href="navier4_8f.html#a33e8c6704782f68ea31e02c93acbe495" target="_top" xlink:title=" ">
<polygon fill="white" stroke="black" points="190,-0.5 190,-19.5 243,-19.5 243,-0.5 190,-0.5"/>
<text text-anchor="middle" x="216.5" y="-7.5" font-family="Helvetica,sans-Serif" font-size="10.00">laplacep</text>
</a>
</g>
</g>
<!-- Node2&#45;&gt;Node63 -->
<g id="edge9" class="edge">
<title>Node2&#45;&gt;Node63</title>
<path fill="none" stroke="midnightblue" d="M280.41,-51.69C264.95,-41.45 245.1,-28.29 231.87,-19.53"/>
<polygon fill="midnightblue" stroke="midnightblue" points="278.64,-54.72 288.91,-57.33 282.51,-48.89 278.64,-54.72"/>
</g>
<!-- Node4 -->
<g id="node4" class="node">
<title>Node4</title>
<g id="a_node4"><a xlink:href="conduct_8f.html#a74a7f053381975ed36df8ea959f3aa01" target="_top" xlink:title=" ">
<polygon fill="white" stroke="red" points="92.5,-133.5 92.5,-152.5 137.5,-152.5 137.5,-133.5 92.5,-133.5"/>
<text text-anchor="middle" x="115" y="-140.5" font-family="Helvetica,sans-Serif" font-size="10.00">cdscal</text>
</a>
</g>
</g>
<!-- Node3&#45;&gt;Node4 -->
<g id="edge3" class="edge">
<title>Node3&#45;&gt;Node4</title>
<path fill="none" stroke="midnightblue" d="M189.78,-100.74C171.76,-111.05 148.22,-124.54 132.63,-133.47"/>
<polygon fill="midnightblue" stroke="midnightblue" points="191.68,-103.68 198.62,-95.67 188.2,-97.6 191.68,-103.68"/>
</g>
<!-- Node17 -->
<g id="node5" class="node">
<title>Node17</title>
<g id="a_node5"><a xlink:href="induct_8f.html#a1a8a16f24236d6e6f08fe4d60cb29d01" target="_top" xlink:title=" ">
<polygon fill="white" stroke="red" points="92.5,-57.5 92.5,-76.5 137.5,-76.5 137.5,-57.5 92.5,-57.5"/>
<text text-anchor="middle" x="115" y="-64.5" font-family="Helvetica,sans-Serif" font-size="10.00">ophinv</text>
</a>
</g>
</g>
<!-- Node3&#45;&gt;Node17 -->
<g id="edge4" class="edge">
<title>Node3&#45;&gt;Node17</title>
<path fill="none" stroke="midnightblue" d="M183.94,-79.97C168.82,-77.09 151.1,-73.7 137.55,-71.11"/>
<polygon fill="midnightblue" stroke="midnightblue" points="183.43,-83.44 193.91,-81.88 184.74,-76.56 183.43,-83.44"/>
</g>
<!-- Node56 -->
<g id="node6" class="node">
<title>Node56</title>
<g id="a_node6"><a xlink:href="plan4_8f.html#a247fc105464de543a464773054eb509e" target="_top" xlink:title=" ">
<polygon fill="white" stroke="red" points="0,-76.5 0,-95.5 40,-95.5 40,-76.5 0,-76.5"/>
<text text-anchor="middle" x="20" y="-83.5" font-family="Helvetica,sans-Serif" font-size="10.00">plan4</text>
</a>
</g>
</g>
<!-- Node3&#45;&gt;Node56 -->
<g id="edge6" class="edge">
<title>Node3&#45;&gt;Node56</title>
<path fill="none" stroke="midnightblue" d="M183.74,-86C142.96,-86 73.46,-86 40.05,-86"/>
<polygon fill="midnightblue" stroke="midnightblue" points="183.94,-89.5 193.94,-86 183.94,-82.5 183.94,-89.5"/>
</g>
<!-- Node17&#45;&gt;Node56 -->
<g id="edge5" class="edge">
<title>Node17&#45;&gt;Node56</title>
<path fill="none" stroke="midnightblue" d="M82.24,-73.49C68.29,-76.34 52.36,-79.59 40.24,-82.07"/>
<polygon fill="midnightblue" stroke="midnightblue" points="83.33,-76.84 92.43,-71.41 81.93,-69.98 83.33,-76.84"/>
</g>
<!-- Node60 -->
<g id="node8" class="node">
<title>Node60</title>
<g id="a_node8"><a xlink:href="meshsmoother_8f.html#a4c051a876df87615e1dca365b41f4aa3" target="_top" xlink:title=" ">
<polygon fill="white" stroke="red" points="76,-19.5 76,-38.5 154,-38.5 154,-19.5 76,-19.5"/>
<text text-anchor="middle" x="115" y="-26.5" font-family="Helvetica,sans-Serif" font-size="10.00">my_mv_mesh</text>
</a>
</g>
</g>
<!-- Node59&#45;&gt;Node60 -->
<g id="edge8" class="edge">
<title>Node59&#45;&gt;Node60</title>
<path fill="none" stroke="midnightblue" d="M179.78,-41.18C171.51,-39.6 162.68,-37.91 154.3,-36.31"/>
<polygon fill="midnightblue" stroke="midnightblue" points="179.4,-44.67 189.88,-43.11 180.71,-37.79 179.4,-44.67"/>
</g>
<!-- Node64&#45;&gt;Node3 -->
<g id="edge11" class="edge">
<title>Node64&#45;&gt;Node3</title>
<path fill="none" stroke="midnightblue" d="M280.41,-44.31C264.95,-54.55 245.1,-67.71 231.87,-76.47"/>
<polygon fill="midnightblue" stroke="midnightblue" points="282.51,-47.11 288.91,-38.67 278.64,-41.28 282.51,-47.11"/>
</g>
<!-- Node64&#45;&gt;Node59 -->
<g id="edge12" class="edge">
<title>Node64&#45;&gt;Node59</title>
<path fill="none" stroke="midnightblue" d="M268.59,-36.71C260.1,-38.59 251.18,-40.56 243.22,-42.32"/>
<polygon fill="midnightblue" stroke="midnightblue" points="269.62,-40.07 278.63,-34.5 268.11,-33.24 269.62,-40.07"/>
</g>
<!-- Node64&#45;&gt;Node63 -->
<g id="edge13" class="edge">
<title>Node64&#45;&gt;Node63</title>
<path fill="none" stroke="midnightblue" d="M268.59,-21.29C260.1,-19.41 251.18,-17.44 243.22,-15.68"/>
<polygon fill="midnightblue" stroke="midnightblue" points="268.11,-24.76 278.63,-23.5 269.62,-17.93 268.11,-24.76"/>
</g>
</g>
</svg>
