<?xml version="1.0" encoding="UTF-8" standalone="no"?>
<!DOCTYPE svg PUBLIC "-//W3C//DTD SVG 1.1//EN"
 "http://www.w3.org/Graphics/SVG/1.1/DTD/svg11.dtd">
<!-- Generated by graphviz version 2.46.0 (0)
 -->
<!-- Title: dd_solver Pages: 1 -->
<svg width="434pt" height="198pt"
 viewBox="0.00 0.00 434.00 198.41" xmlns="http://www.w3.org/2000/svg" xmlns:xlink="http://www.w3.org/1999/xlink">
<g id="graph0" class="graph" transform="scale(1 1) rotate(0) translate(4 194.41)">
<title>dd_solver</title>
<polygon fill="white" stroke="transparent" points="-4,4 -4,-194.41 430,-194.41 430,4 -4,4"/>
<!-- Node1 -->
<g id="node1" class="node">
<title>Node1</title>
<g id="a_node1"><a xlink:title=" ">
<polygon fill="#bfbfbf" stroke="black" points="0,-114.5 0,-133.5 59,-133.5 59,-114.5 0,-114.5"/>
<text text-anchor="middle" x="29.5" y="-121.5" font-family="Helvetica,sans-Serif" font-size="10.00">dd_solver</text>
</a>
</g>
</g>
<!-- Node2 -->
<g id="node2" class="node">
<title>Node2</title>
<g id="a_node2"><a xlink:href="math_8f.html#a34a2c89ac31311482e2ec34fbb7c5a7a" target="_top" xlink:title=" ">
<polygon fill="white" stroke="black" points="117,-152.5 117,-171.5 165,-171.5 165,-152.5 117,-152.5"/>
<text text-anchor="middle" x="141" y="-159.5" font-family="Helvetica,sans-Serif" font-size="10.00">add2s2</text>
</a>
</g>
</g>
<!-- Node1&#45;&gt;Node2 -->
<g id="edge1" class="edge">
<title>Node1&#45;&gt;Node2</title>
<path fill="none" stroke="midnightblue" d="M58.13,-133.59C73,-138.75 91.43,-145.14 107.04,-150.56"/>
<polygon fill="midnightblue" stroke="midnightblue" points="106.22,-153.98 116.82,-153.96 108.52,-147.37 106.22,-153.98"/>
</g>
<!-- Node3 -->
<g id="node3" class="node">
<title>Node3</title>
<g id="a_node3"><a xlink:href="comm__mpi_8f.html#af06ec29f06aac3f8809e19de2a7e8946" target="_top" xlink:title=" ">
<polygon fill="white" stroke="black" points="244,-152.5 244,-171.5 305,-171.5 305,-152.5 244,-152.5"/>
<text text-anchor="middle" x="274.5" y="-159.5" font-family="Helvetica,sans-Serif" font-size="10.00">dnekclock</text>
</a>
</g>
</g>
<!-- Node1&#45;&gt;Node3 -->
<g id="edge7" class="edge">
<title>Node1&#45;&gt;Node3</title>
<path fill="none" stroke="midnightblue" d="M37.53,-133.57C48.18,-147.17 69.84,-171.48 95,-181 142.56,-199 202,-186.34 238.86,-174.79"/>
<polygon fill="midnightblue" stroke="midnightblue" points="240.22,-178.03 248.63,-171.58 238.04,-171.37 240.22,-178.03"/>
</g>
<!-- Node5 -->
<g id="node5" class="node">
<title>Node5</title>
<g id="a_node5"><a xlink:href="navier8_8f.html#a79ba12ae05422c181379668b90e41d18" target="_top" xlink:title=" ">
<polygon fill="white" stroke="black" points="105.5,-38.5 105.5,-57.5 176.5,-57.5 176.5,-38.5 105.5,-38.5"/>
<text text-anchor="middle" x="141" y="-45.5" font-family="Helvetica,sans-Serif" font-size="10.00">crs_solve_l2</text>
</a>
</g>
</g>
<!-- Node1&#45;&gt;Node5 -->
<g id="edge4" class="edge">
<title>Node1&#45;&gt;Node5</title>
<path fill="none" stroke="midnightblue" d="M41.43,-114.12C53.88,-103.12 75.08,-85.17 95,-72 100.11,-68.62 105.74,-65.32 111.25,-62.29"/>
<polygon fill="midnightblue" stroke="midnightblue" points="113.08,-65.28 120.27,-57.5 109.79,-59.1 113.08,-65.28"/>
</g>
<!-- Node31 -->
<g id="node8" class="node">
<title>Node31</title>
<g id="a_node8"><a xlink:href="fasts_8f.html#adf929f1c8210a58914bda5771ed68098" target="_top" xlink:title=" ">
<polygon fill="white" stroke="red" points="95,-114.5 95,-133.5 187,-133.5 187,-114.5 95,-114.5"/>
<text text-anchor="middle" x="141" y="-121.5" font-family="Helvetica,sans-Serif" font-size="10.00">local_solves_fdm</text>
</a>
</g>
</g>
<!-- Node1&#45;&gt;Node31 -->
<g id="edge8" class="edge">
<title>Node1&#45;&gt;Node31</title>
<path fill="none" stroke="midnightblue" d="M59.27,-124C67.1,-124 75.86,-124 84.64,-124"/>
<polygon fill="midnightblue" stroke="midnightblue" points="84.9,-127.5 94.9,-124 84.9,-120.5 84.9,-127.5"/>
</g>
<!-- Node41 -->
<g id="node10" class="node">
<title>Node41</title>
<g id="a_node10"><a xlink:href="math_8f.html#af44de42b023a4a68cd98ea341204342d" target="_top" xlink:title=" ">
<polygon fill="white" stroke="black" points="255.5,-76.5 255.5,-95.5 293.5,-95.5 293.5,-76.5 255.5,-76.5"/>
<text text-anchor="middle" x="274.5" y="-83.5" font-family="Helvetica,sans-Serif" font-size="10.00">rzero</text>
</a>
</g>
</g>
<!-- Node1&#45;&gt;Node41 -->
<g id="edge12" class="edge">
<title>Node1&#45;&gt;Node41</title>
<path fill="none" stroke="midnightblue" d="M58.8,-114.46C69.97,-111.02 82.98,-107.39 95,-105 147.49,-94.56 209.89,-89.58 245.27,-87.43"/>
<polygon fill="midnightblue" stroke="midnightblue" points="245.57,-90.92 255.35,-86.85 245.16,-83.93 245.57,-90.92"/>
</g>
<!-- Node2&#45;&gt;Node3 -->
<g id="edge2" class="edge">
<title>Node2&#45;&gt;Node3</title>
<path fill="none" stroke="midnightblue" d="M165.21,-162C184.05,-162 211.06,-162 233.39,-162"/>
<polygon fill="midnightblue" stroke="midnightblue" points="233.59,-165.5 243.59,-162 233.59,-158.5 233.59,-165.5"/>
</g>
<!-- Node4 -->
<g id="node4" class="node">
<title>Node4</title>
<g id="a_node4"><a xlink:href="mpi__dummy_8f.html#ae6a5ef945f87c2c27849696b70f3af2a" target="_top" xlink:title=" ">
<polygon fill="white" stroke="black" points="362,-152.5 362,-171.5 426,-171.5 426,-152.5 362,-152.5"/>
<text text-anchor="middle" x="394" y="-159.5" font-family="Helvetica,sans-Serif" font-size="10.00">mpi_wtime</text>
</a>
</g>
</g>
<!-- Node3&#45;&gt;Node4 -->
<g id="edge3" class="edge">
<title>Node3&#45;&gt;Node4</title>
<path fill="none" stroke="midnightblue" d="M305.15,-162C319.18,-162 336.17,-162 351.46,-162"/>
<polygon fill="midnightblue" stroke="midnightblue" points="351.71,-165.5 361.71,-162 351.71,-158.5 351.71,-165.5"/>
</g>
<!-- Node6 -->
<g id="node6" class="node">
<title>Node6</title>
<g id="a_node6"><a xlink:href="navier8_8f.html#a0cc6cf6b9d80965b34c20d780b6dca65" target="_top" xlink:title=" ">
<polygon fill="white" stroke="red" points="223,-38.5 223,-57.5 326,-57.5 326,-38.5 223,-38.5"/>
<text text-anchor="middle" x="274.5" y="-45.5" font-family="Helvetica,sans-Serif" font-size="10.00">map_c_to_f_l2_bilin</text>
</a>
</g>
</g>
<!-- Node5&#45;&gt;Node6 -->
<g id="edge5" class="edge">
<title>Node5&#45;&gt;Node6</title>
<path fill="none" stroke="midnightblue" d="M176.55,-48C187.61,-48 200.2,-48 212.56,-48"/>
<polygon fill="midnightblue" stroke="midnightblue" points="212.85,-51.5 222.85,-48 212.85,-44.5 212.85,-51.5"/>
</g>
<!-- Node29 -->
<g id="node7" class="node">
<title>Node29</title>
<g id="a_node7"><a xlink:href="navier8_8f.html#a49675a40684e28d1d08580080aabb185" target="_top" xlink:title=" ">
<polygon fill="white" stroke="red" points="223,-0.5 223,-19.5 326,-19.5 326,-0.5 223,-0.5"/>
<text text-anchor="middle" x="274.5" y="-7.5" font-family="Helvetica,sans-Serif" font-size="10.00">map_f_to_c_l2_bilin</text>
</a>
</g>
</g>
<!-- Node5&#45;&gt;Node29 -->
<g id="edge6" class="edge">
<title>Node5&#45;&gt;Node29</title>
<path fill="none" stroke="midnightblue" d="M175.18,-38.41C192,-33.55 212.63,-27.59 230.63,-22.39"/>
<polygon fill="midnightblue" stroke="midnightblue" points="231.69,-25.72 240.33,-19.59 229.75,-19 231.69,-25.72"/>
</g>
<!-- Node31&#45;&gt;Node3 -->
<g id="edge10" class="edge">
<title>Node31&#45;&gt;Node3</title>
<path fill="none" stroke="midnightblue" d="M175.18,-133.59C193.11,-138.77 215.36,-145.2 234.16,-150.63"/>
<polygon fill="midnightblue" stroke="midnightblue" points="233.34,-154.04 243.92,-153.45 235.28,-147.31 233.34,-154.04"/>
</g>
<!-- Node32 -->
<g id="node9" class="node">
<title>Node32</title>
<g id="a_node9"><a xlink:href="fasts_8f.html#aa8fc56b441461ca7120172e9d0607497" target="_top" xlink:title=" ">
<polygon fill="white" stroke="black" points="237.5,-114.5 237.5,-133.5 311.5,-133.5 311.5,-114.5 237.5,-114.5"/>
<text text-anchor="middle" x="274.5" y="-121.5" font-family="Helvetica,sans-Serif" font-size="10.00">dface_add1si</text>
</a>
</g>
</g>
<!-- Node31&#45;&gt;Node32 -->
<g id="edge9" class="edge">
<title>Node31&#45;&gt;Node32</title>
<path fill="none" stroke="midnightblue" d="M187.25,-124C200.15,-124 214.22,-124 227.18,-124"/>
<polygon fill="midnightblue" stroke="midnightblue" points="227.29,-127.5 237.29,-124 227.29,-120.5 227.29,-127.5"/>
</g>
<!-- Node31&#45;&gt;Node41 -->
<g id="edge11" class="edge">
<title>Node31&#45;&gt;Node41</title>
<path fill="none" stroke="midnightblue" d="M175.18,-114.41C196.92,-108.13 225.02,-100.01 245.6,-94.06"/>
<polygon fill="midnightblue" stroke="midnightblue" points="246.69,-97.39 255.33,-91.25 244.75,-90.67 246.69,-97.39"/>
</g>
</g>
</svg>
