<?xml version="1.0" encoding="UTF-8" standalone="no"?>
<!DOCTYPE svg PUBLIC "-//W3C//DTD SVG 1.1//EN"
 "http://www.w3.org/Graphics/SVG/1.1/DTD/svg11.dtd">
<!-- Generated by graphviz version 2.46.0 (0)
 -->
<!-- Title: setbd Pages: 1 -->
<svg width="392pt" height="104pt"
 viewBox="0.00 0.00 392.00 104.00" xmlns="http://www.w3.org/2000/svg" xmlns:xlink="http://www.w3.org/1999/xlink">
<g id="graph0" class="graph" transform="scale(1 1) rotate(0) translate(4 100)">
<title>setbd</title>
<polygon fill="white" stroke="transparent" points="-4,4 -4,-100 388,-100 388,4 -4,4"/>
<!-- Node1 -->
<g id="node1" class="node">
<title>Node1</title>
<g id="a_node1"><a xlink:title=" ">
<polygon fill="#bfbfbf" stroke="black" points="0,-38.5 0,-57.5 41,-57.5 41,-38.5 0,-38.5"/>
<text text-anchor="middle" x="20.5" y="-45.5" font-family="Helvetica,sans-Serif" font-size="10.00">setbd</text>
</a>
</g>
</g>
<!-- Node2 -->
<g id="node2" class="node">
<title>Node2</title>
<g id="a_node2"><a xlink:href="navier1_8f.html#a835b4c94347f028b18f1decba7cbe80b" target="_top" xlink:title=" ">
<polygon fill="white" stroke="black" points="77,-76.5 77,-95.5 120,-95.5 120,-76.5 77,-76.5"/>
<text text-anchor="middle" x="98.5" y="-83.5" font-family="Helvetica,sans-Serif" font-size="10.00">bdsys</text>
</a>
</g>
</g>
<!-- Node1&#45;&gt;Node2 -->
<g id="edge1" class="edge">
<title>Node1&#45;&gt;Node2</title>
<path fill="none" stroke="midnightblue" d="M40.68,-57.59C49.32,-61.91 59.7,-67.1 69.21,-71.85"/>
<polygon fill="midnightblue" stroke="midnightblue" points="67.82,-75.07 78.33,-76.41 70.95,-68.81 67.82,-75.07"/>
</g>
<!-- Node4 -->
<g id="node4" class="node">
<title>Node4</title>
<g id="a_node4"><a xlink:href="gauss_8f.html#a56096d95369f48aa8e36034ede66f33b" target="_top" xlink:title=" ">
<polygon fill="white" stroke="black" points="84,-38.5 84,-57.5 113,-57.5 113,-38.5 84,-38.5"/>
<text text-anchor="middle" x="98.5" y="-45.5" font-family="Helvetica,sans-Serif" font-size="10.00">lu</text>
</a>
</g>
</g>
<!-- Node1&#45;&gt;Node4 -->
<g id="edge3" class="edge">
<title>Node1&#45;&gt;Node4</title>
<path fill="none" stroke="midnightblue" d="M41.07,-48C51,-48 63.13,-48 73.6,-48"/>
<polygon fill="midnightblue" stroke="midnightblue" points="73.75,-51.5 83.75,-48 73.75,-44.5 73.75,-51.5"/>
</g>
<!-- Node5 -->
<g id="node5" class="node">
<title>Node5</title>
<g id="a_node5"><a xlink:href="gauss_8f.html#a47ad19a4031a1ba83c34e96abab9476c" target="_top" xlink:title=" ">
<polygon fill="white" stroke="black" points="78.5,-0.5 78.5,-19.5 118.5,-19.5 118.5,-0.5 78.5,-0.5"/>
<text text-anchor="middle" x="98.5" y="-7.5" font-family="Helvetica,sans-Serif" font-size="10.00">solve</text>
</a>
</g>
</g>
<!-- Node1&#45;&gt;Node5 -->
<g id="edge4" class="edge">
<title>Node1&#45;&gt;Node5</title>
<path fill="none" stroke="midnightblue" d="M40.68,-38.41C49.32,-34.09 59.7,-28.9 69.21,-24.15"/>
<polygon fill="midnightblue" stroke="midnightblue" points="70.95,-27.19 78.33,-19.59 67.82,-20.93 70.95,-27.19"/>
</g>
<!-- Node3 -->
<g id="node3" class="node">
<title>Node3</title>
<g id="a_node3"><a xlink:href="math_8f.html#af44de42b023a4a68cd98ea341204342d" target="_top" xlink:title=" ">
<polygon fill="white" stroke="black" points="156,-76.5 156,-95.5 194,-95.5 194,-76.5 156,-76.5"/>
<text text-anchor="middle" x="175" y="-83.5" font-family="Helvetica,sans-Serif" font-size="10.00">rzero</text>
</a>
</g>
</g>
<!-- Node2&#45;&gt;Node3 -->
<g id="edge2" class="edge">
<title>Node2&#45;&gt;Node3</title>
<path fill="none" stroke="midnightblue" d="M120.25,-86C128.12,-86 137.23,-86 145.68,-86"/>
<polygon fill="midnightblue" stroke="midnightblue" points="145.89,-89.5 155.89,-86 145.89,-82.5 145.89,-89.5"/>
</g>
<!-- Node6 -->
<g id="node6" class="node">
<title>Node6</title>
<g id="a_node6"><a xlink:href="byte_8c.html#a2da8eeb074dfd3ffbfb3e9a4d301cda4" target="_top" xlink:title=" ">
<polygon fill="white" stroke="black" points="157.5,-0.5 157.5,-19.5 192.5,-19.5 192.5,-0.5 157.5,-0.5"/>
<text text-anchor="middle" x="175" y="-7.5" font-family="Helvetica,sans-Serif" font-size="10.00">exitt</text>
</a>
</g>
</g>
<!-- Node5&#45;&gt;Node6 -->
<g id="edge5" class="edge">
<title>Node5&#45;&gt;Node6</title>
<path fill="none" stroke="midnightblue" d="M118.69,-10C127.33,-10 137.69,-10 147.09,-10"/>
<polygon fill="midnightblue" stroke="midnightblue" points="147.16,-13.5 157.16,-10 147.16,-6.5 147.16,-13.5"/>
</g>
<!-- Node7 -->
<g id="node7" class="node">
<title>Node7</title>
<g id="a_node7"><a xlink:href="comm__mpi_8f.html#acc8803a3787828530843112e0c48941b" target="_top" xlink:title=" ">
<polygon fill="white" stroke="black" points="230,-0.5 230,-19.5 280,-19.5 280,-0.5 230,-0.5"/>
<text text-anchor="middle" x="255" y="-7.5" font-family="Helvetica,sans-Serif" font-size="10.00">nek_die</text>
</a>
</g>
</g>
<!-- Node6&#45;&gt;Node7 -->
<g id="edge6" class="edge">
<title>Node6&#45;&gt;Node7</title>
<path fill="none" stroke="midnightblue" d="M192.54,-10C200.49,-10 210.32,-10 219.78,-10"/>
<polygon fill="midnightblue" stroke="midnightblue" points="219.78,-13.5 229.78,-10 219.78,-6.5 219.78,-13.5"/>
</g>
<!-- Node8 -->
<g id="node8" class="node">
<title>Node8</title>
<g id="a_node8"><a xlink:href="mpi__dummy_8f.html#a55e9a1619aadb638b14211ce21d7d566" target="_top" xlink:title=" ">
<polygon fill="white" stroke="black" points="316,-0.5 316,-19.5 384,-19.5 384,-0.5 316,-0.5"/>
<text text-anchor="middle" x="350" y="-7.5" font-family="Helvetica,sans-Serif" font-size="10.00">mpi_finalize</text>
</a>
</g>
</g>
<!-- Node7&#45;&gt;Node8 -->
<g id="edge7" class="edge">
<title>Node7&#45;&gt;Node8</title>
<path fill="none" stroke="midnightblue" d="M280.43,-10C288.25,-10 297.14,-10 305.88,-10"/>
<polygon fill="midnightblue" stroke="midnightblue" points="305.99,-13.5 315.99,-10 305.99,-6.5 305.99,-13.5"/>
</g>
</g>
</svg>
