<?xml version="1.0" encoding="UTF-8" standalone="no"?>
<!DOCTYPE svg PUBLIC "-//W3C//DTD SVG 1.1//EN"
 "http://www.w3.org/Graphics/SVG/1.1/DTD/svg11.dtd">
<!-- Generated by graphviz version 2.46.0 (0)
 -->
<!-- Title: map_m_to_n Pages: 1 -->
<svg width="519pt" height="142pt"
 viewBox="0.00 0.00 519.00 142.00" xmlns="http://www.w3.org/2000/svg" xmlns:xlink="http://www.w3.org/1999/xlink">
<g id="graph0" class="graph" transform="scale(1 1) rotate(0) translate(4 138)">
<title>map_m_to_n</title>
<polygon fill="white" stroke="transparent" points="-4,4 -4,-138 515,-138 515,4 -4,4"/>
<!-- Node1 -->
<g id="node1" class="node">
<title>Node1</title>
<g id="a_node1"><a xlink:title=" ">
<polygon fill="#bfbfbf" stroke="black" points="0,-57.5 0,-76.5 73,-76.5 73,-57.5 0,-57.5"/>
<text text-anchor="middle" x="36.5" y="-64.5" font-family="Helvetica,sans-Serif" font-size="10.00">map_m_to_n</text>
</a>
</g>
</g>
<!-- Node2 -->
<g id="node2" class="node">
<title>Node2</title>
<g id="a_node2"><a xlink:href="byte_8c.html#a2da8eeb074dfd3ffbfb3e9a4d301cda4" target="_top" xlink:title=" ">
<polygon fill="white" stroke="black" points="281,-38.5 281,-57.5 316,-57.5 316,-38.5 281,-38.5"/>
<text text-anchor="middle" x="298.5" y="-45.5" font-family="Helvetica,sans-Serif" font-size="10.00">exitt</text>
</a>
</g>
</g>
<!-- Node1&#45;&gt;Node2 -->
<g id="edge1" class="edge">
<title>Node1&#45;&gt;Node2</title>
<path fill="none" stroke="midnightblue" d="M73.26,-70.41C113.93,-73.5 182.21,-76.3 240,-67 250.48,-65.31 261.63,-62 271.3,-58.61"/>
<polygon fill="midnightblue" stroke="midnightblue" points="272.59,-61.87 280.75,-55.11 270.15,-55.3 272.59,-61.87"/>
</g>
<!-- Node5 -->
<g id="node5" class="node">
<title>Node5</title>
<g id="a_node5"><a xlink:href="speclib_8f.html#ab14f01571bb13d5185f4a8b163c1958a" target="_top" xlink:title=" ">
<polygon fill="white" stroke="black" points="110,-114.5 110,-133.5 147,-133.5 147,-114.5 110,-114.5"/>
<text text-anchor="middle" x="128.5" y="-121.5" font-family="Helvetica,sans-Serif" font-size="10.00">igllm</text>
</a>
</g>
</g>
<!-- Node1&#45;&gt;Node5 -->
<g id="edge4" class="edge">
<title>Node1&#45;&gt;Node5</title>
<path fill="none" stroke="midnightblue" d="M52.77,-76.67C66.69,-85.48 87.47,-98.65 103.59,-108.86"/>
<polygon fill="midnightblue" stroke="midnightblue" points="102.14,-112.08 112.46,-114.47 105.88,-106.17 102.14,-112.08"/>
</g>
<!-- Node9 -->
<g id="node8" class="node">
<title>Node9</title>
<g id="a_node8"><a xlink:href="navier8_8f.html#a5c307bcd1af1a0036e75f65db3d06e39" target="_top" xlink:title=" ">
<polygon fill="white" stroke="black" points="184,-0.5 184,-19.5 240,-19.5 240,-0.5 184,-0.5"/>
<text text-anchor="middle" x="212" y="-7.5" font-family="Helvetica,sans-Serif" font-size="10.00">specmpn</text>
</a>
</g>
</g>
<!-- Node1&#45;&gt;Node9 -->
<g id="edge7" class="edge">
<title>Node1&#45;&gt;Node9</title>
<path fill="none" stroke="midnightblue" d="M52.23,-57.45C66.28,-48.77 88.3,-36.24 109,-29 129.76,-21.74 153.91,-17.09 173.5,-14.2"/>
<polygon fill="midnightblue" stroke="midnightblue" points="174.14,-17.65 183.57,-12.81 173.19,-10.71 174.14,-17.65"/>
</g>
<!-- Node10 -->
<g id="node9" class="node">
<title>Node10</title>
<g id="a_node9"><a xlink:href="speclib_8f.html#a3788ff93193b0428aad51e76c6ed2e18" target="_top" xlink:title=" ">
<polygon fill="white" stroke="black" points="109,-38.5 109,-57.5 148,-57.5 148,-38.5 109,-38.5"/>
<text text-anchor="middle" x="128.5" y="-45.5" font-family="Helvetica,sans-Serif" font-size="10.00">zwgll</text>
</a>
</g>
</g>
<!-- Node1&#45;&gt;Node10 -->
<g id="edge9" class="edge">
<title>Node1&#45;&gt;Node10</title>
<path fill="none" stroke="midnightblue" d="M73.07,-59.49C81.64,-57.68 90.68,-55.77 98.89,-54.04"/>
<polygon fill="midnightblue" stroke="midnightblue" points="99.67,-57.45 108.73,-51.96 98.22,-50.6 99.67,-57.45"/>
</g>
<!-- Node3 -->
<g id="node3" class="node">
<title>Node3</title>
<g id="a_node3"><a xlink:href="comm__mpi_8f.html#acc8803a3787828530843112e0c48941b" target="_top" xlink:title=" ">
<polygon fill="white" stroke="black" points="357,-38.5 357,-57.5 407,-57.5 407,-38.5 357,-38.5"/>
<text text-anchor="middle" x="382" y="-45.5" font-family="Helvetica,sans-Serif" font-size="10.00">nek_die</text>
</a>
</g>
</g>
<!-- Node2&#45;&gt;Node3 -->
<g id="edge2" class="edge">
<title>Node2&#45;&gt;Node3</title>
<path fill="none" stroke="midnightblue" d="M316.39,-48C325.13,-48 336.13,-48 346.57,-48"/>
<polygon fill="midnightblue" stroke="midnightblue" points="346.71,-51.5 356.71,-48 346.71,-44.5 346.71,-51.5"/>
</g>
<!-- Node4 -->
<g id="node4" class="node">
<title>Node4</title>
<g id="a_node4"><a xlink:href="mpi__dummy_8f.html#a55e9a1619aadb638b14211ce21d7d566" target="_top" xlink:title=" ">
<polygon fill="white" stroke="black" points="443,-38.5 443,-57.5 511,-57.5 511,-38.5 443,-38.5"/>
<text text-anchor="middle" x="477" y="-45.5" font-family="Helvetica,sans-Serif" font-size="10.00">mpi_finalize</text>
</a>
</g>
</g>
<!-- Node3&#45;&gt;Node4 -->
<g id="edge3" class="edge">
<title>Node3&#45;&gt;Node4</title>
<path fill="none" stroke="midnightblue" d="M407.43,-48C415.25,-48 424.14,-48 432.88,-48"/>
<polygon fill="midnightblue" stroke="midnightblue" points="432.99,-51.5 442.99,-48 432.99,-44.5 432.99,-51.5"/>
</g>
<!-- Node6 -->
<g id="node6" class="node">
<title>Node6</title>
<g id="a_node6"><a xlink:href="speclib_8f.html#ae5f9b93a0dc207fdd9614c38959e0a8f" target="_top" xlink:title=" ">
<polygon fill="white" stroke="red" points="196,-114.5 196,-133.5 228,-133.5 228,-114.5 196,-114.5"/>
<text text-anchor="middle" x="212" y="-121.5" font-family="Helvetica,sans-Serif" font-size="10.00">hgll</text>
</a>
</g>
</g>
<!-- Node5&#45;&gt;Node6 -->
<g id="edge5" class="edge">
<title>Node5&#45;&gt;Node6</title>
<path fill="none" stroke="midnightblue" d="M147.18,-124C158.41,-124 173.12,-124 185.58,-124"/>
<polygon fill="midnightblue" stroke="midnightblue" points="185.82,-127.5 195.82,-124 185.82,-120.5 185.82,-127.5"/>
</g>
<!-- Node7 -->
<g id="node7" class="node">
<title>Node7</title>
<g id="a_node7"><a xlink:href="speclib_8f.html#a04d6092caed3a484dc7ff9a6694e524e" target="_top" xlink:title=" ">
<polygon fill="white" stroke="black" points="276,-114.5 276,-133.5 321,-133.5 321,-114.5 276,-114.5"/>
<text text-anchor="middle" x="298.5" y="-121.5" font-family="Helvetica,sans-Serif" font-size="10.00">pndleg</text>
</a>
</g>
</g>
<!-- Node6&#45;&gt;Node7 -->
<g id="edge6" class="edge">
<title>Node6&#45;&gt;Node7</title>
<path fill="none" stroke="midnightblue" d="M228.11,-124C238.49,-124 252.67,-124 265.5,-124"/>
<polygon fill="midnightblue" stroke="midnightblue" points="265.86,-127.5 275.86,-124 265.86,-120.5 265.86,-127.5"/>
</g>
<!-- Node9&#45;&gt;Node2 -->
<g id="edge8" class="edge">
<title>Node9&#45;&gt;Node2</title>
<path fill="none" stroke="midnightblue" d="M234.32,-19.59C245.63,-24.67 259.61,-30.96 271.54,-36.33"/>
<polygon fill="midnightblue" stroke="midnightblue" points="270.43,-39.66 280.98,-40.57 273.3,-33.28 270.43,-39.66"/>
</g>
<!-- Node11 -->
<g id="node10" class="node">
<title>Node11</title>
<g id="a_node10"><a xlink:href="speclib_8f.html#a0a1a17375323b7ab32d6ebe1c52ab1c3" target="_top" xlink:title=" ">
<polygon fill="white" stroke="red" points="192.5,-38.5 192.5,-57.5 231.5,-57.5 231.5,-38.5 192.5,-38.5"/>
<text text-anchor="middle" x="212" y="-45.5" font-family="Helvetica,sans-Serif" font-size="10.00">zwglj</text>
</a>
</g>
</g>
<!-- Node10&#45;&gt;Node11 -->
<g id="edge10" class="edge">
<title>Node10&#45;&gt;Node11</title>
<path fill="none" stroke="midnightblue" d="M148.4,-48C158.45,-48 171.02,-48 182.25,-48"/>
<polygon fill="midnightblue" stroke="midnightblue" points="182.48,-51.5 192.48,-48 182.48,-44.5 182.48,-51.5"/>
</g>
<!-- Node11&#45;&gt;Node2 -->
<g id="edge11" class="edge">
<title>Node11&#45;&gt;Node2</title>
<path fill="none" stroke="midnightblue" d="M231.75,-48C243.23,-48 258.09,-48 270.78,-48"/>
<polygon fill="midnightblue" stroke="midnightblue" points="270.8,-51.5 280.8,-48 270.8,-44.5 270.8,-51.5"/>
</g>
</g>
</svg>
