<?xml version="1.0" encoding="UTF-8" standalone="no"?>
<!DOCTYPE svg PUBLIC "-//W3C//DTD SVG 1.1//EN"
 "http://www.w3.org/Graphics/SVG/1.1/DTD/svg11.dtd">
<!-- Generated by graphviz version 2.46.0 (0)
 -->
<!-- Title: setproj Pages: 1 -->
<svg width="489pt" height="142pt"
 viewBox="0.00 0.00 489.00 142.00" xmlns="http://www.w3.org/2000/svg" xmlns:xlink="http://www.w3.org/1999/xlink">
<g id="graph0" class="graph" transform="scale(1 1) rotate(0) translate(4 138)">
<title>setproj</title>
<polygon fill="white" stroke="transparent" points="-4,4 -4,-138 485,-138 485,4 -4,4"/>
<!-- Node1 -->
<g id="node1" class="node">
<title>Node1</title>
<g id="a_node1"><a xlink:title=" ">
<polygon fill="#bfbfbf" stroke="black" points="435,-76.5 435,-95.5 481,-95.5 481,-76.5 435,-76.5"/>
<text text-anchor="middle" x="458" y="-83.5" font-family="Helvetica,sans-Serif" font-size="10.00">setproj</text>
</a>
</g>
</g>
<!-- Node2 -->
<g id="node2" class="node">
<title>Node2</title>
<g id="a_node2"><a xlink:href="induct_8f.html#addce37653534d34a52ad5af30954029b" target="_top" xlink:title=" ">
<polygon fill="white" stroke="black" points="316,-95.5 316,-114.5 399,-114.5 399,-95.5 316,-95.5"/>
<text text-anchor="middle" x="357.5" y="-102.5" font-family="Helvetica,sans-Serif" font-size="10.00">lorentz_force_e</text>
</a>
</g>
</g>
<!-- Node1&#45;&gt;Node2 -->
<g id="edge1" class="edge">
<title>Node1&#45;&gt;Node2</title>
<path fill="none" stroke="midnightblue" d="M424.81,-92.21C416.68,-93.78 407.85,-95.48 399.35,-97.12"/>
<polygon fill="midnightblue" stroke="midnightblue" points="425.49,-95.64 434.65,-90.31 424.17,-88.77 425.49,-95.64"/>
</g>
<!-- Node4 -->
<g id="node4" class="node">
<title>Node4</title>
<g id="a_node4"><a xlink:href="navier1_8f.html#af66b0da5eb394cfc625e8099738e70a7" target="_top" xlink:title=" ">
<polygon fill="white" stroke="black" points="333.5,-57.5 333.5,-76.5 381.5,-76.5 381.5,-57.5 333.5,-57.5"/>
<text text-anchor="middle" x="357.5" y="-64.5" font-family="Helvetica,sans-Serif" font-size="10.00">mapwp</text>
</a>
</g>
</g>
<!-- Node1&#45;&gt;Node4 -->
<g id="edge3" class="edge">
<title>Node1&#45;&gt;Node4</title>
<path fill="none" stroke="midnightblue" d="M424.46,-79.72C410.51,-77.03 394.53,-73.95 381.79,-71.49"/>
<polygon fill="midnightblue" stroke="midnightblue" points="424.17,-83.23 434.65,-81.69 425.49,-76.36 424.17,-83.23"/>
</g>
<!-- Node3 -->
<g id="node3" class="node">
<title>Node3</title>
<g id="a_node3"><a xlink:href="induct_8f.html#ae2c7b4d279520db5bc587eaf1b536131" target="_top" xlink:title=" ">
<polygon fill="white" stroke="black" points="202,-95.5 202,-114.5 280,-114.5 280,-95.5 202,-95.5"/>
<text text-anchor="middle" x="241" y="-102.5" font-family="Helvetica,sans-Serif" font-size="10.00">lorentz_force2</text>
</a>
</g>
</g>
<!-- Node2&#45;&gt;Node3 -->
<g id="edge2" class="edge">
<title>Node2&#45;&gt;Node3</title>
<path fill="none" stroke="midnightblue" d="M305.58,-105C297.07,-105 288.38,-105 280.26,-105"/>
<polygon fill="midnightblue" stroke="midnightblue" points="305.81,-108.5 315.81,-105 305.81,-101.5 305.81,-108.5"/>
</g>
<!-- Node5 -->
<g id="node5" class="node">
<title>Node5</title>
<g id="a_node5"><a xlink:href="navier1_8f.html#a1b70ccf853606db85f73ee320f561274" target="_top" xlink:title=" ">
<polygon fill="white" stroke="black" points="217,-57.5 217,-76.5 265,-76.5 265,-57.5 217,-57.5"/>
<text text-anchor="middle" x="241" y="-64.5" font-family="Helvetica,sans-Serif" font-size="10.00">conv1d</text>
</a>
</g>
</g>
<!-- Node4&#45;&gt;Node5 -->
<g id="edge4" class="edge">
<title>Node4&#45;&gt;Node5</title>
<path fill="none" stroke="midnightblue" d="M323.19,-67C304.56,-67 281.81,-67 265.14,-67"/>
<polygon fill="midnightblue" stroke="midnightblue" points="323.33,-70.5 333.33,-67 323.33,-63.5 323.33,-70.5"/>
</g>
<!-- Node6 -->
<g id="node6" class="node">
<title>Node6</title>
<g id="a_node6"><a xlink:href="navier1_8f.html#a38ba376801cfa958294fae8c90db7680" target="_top" xlink:title=" ">
<polygon fill="white" stroke="red" points="118,-57.5 118,-76.5 166,-76.5 166,-57.5 118,-57.5"/>
<text text-anchor="middle" x="142" y="-64.5" font-family="Helvetica,sans-Serif" font-size="10.00">convop</text>
</a>
</g>
</g>
<!-- Node5&#45;&gt;Node6 -->
<g id="edge5" class="edge">
<title>Node5&#45;&gt;Node6</title>
<path fill="none" stroke="midnightblue" d="M206.35,-67C193.12,-67 178.26,-67 166.26,-67"/>
<polygon fill="midnightblue" stroke="midnightblue" points="206.52,-70.5 216.52,-67 206.52,-63.5 206.52,-70.5"/>
</g>
<!-- Node7 -->
<g id="node7" class="node">
<title>Node7</title>
<g id="a_node7"><a xlink:href="navier1_8f.html#a344ec731e4a89d0f136c91bc1963e8d5" target="_top" xlink:title=" ">
<polygon fill="white" stroke="red" points="19.5,-114.5 19.5,-133.5 62.5,-133.5 62.5,-114.5 19.5,-114.5"/>
<text text-anchor="middle" x="41" y="-121.5" font-family="Helvetica,sans-Serif" font-size="10.00">advab</text>
</a>
</g>
</g>
<!-- Node6&#45;&gt;Node7 -->
<g id="edge6" class="edge">
<title>Node6&#45;&gt;Node7</title>
<path fill="none" stroke="midnightblue" d="M118.78,-82.28C107.89,-89.51 94.48,-98.06 82,-105 75.82,-108.44 68.92,-111.86 62.61,-114.83"/>
<polygon fill="midnightblue" stroke="midnightblue" points="120.9,-85.07 127.24,-76.58 116.99,-79.26 120.9,-85.07"/>
</g>
<!-- Node21 -->
<g id="node8" class="node">
<title>Node21</title>
<g id="a_node8"><a xlink:href="perturb_8f.html#a57aed02316492f3059b70c7a98e4e2f9" target="_top" xlink:title=" ">
<polygon fill="white" stroke="red" points="17,-76.5 17,-95.5 65,-95.5 65,-76.5 17,-76.5"/>
<text text-anchor="middle" x="41" y="-83.5" font-family="Helvetica,sans-Serif" font-size="10.00">advabp</text>
</a>
</g>
</g>
<!-- Node6&#45;&gt;Node21 -->
<g id="edge7" class="edge">
<title>Node6&#45;&gt;Node21</title>
<path fill="none" stroke="midnightblue" d="M107.56,-73.42C93.59,-76.1 77.7,-79.15 65.07,-81.57"/>
<polygon fill="midnightblue" stroke="midnightblue" points="108.63,-76.78 117.79,-71.45 107.31,-69.9 108.63,-76.78"/>
</g>
<!-- Node25 -->
<g id="node9" class="node">
<title>Node25</title>
<g id="a_node9"><a xlink:href="perturb_8f.html#afb8592701ab3283a1c01ed23f1d0ff56" target="_top" xlink:title=" ">
<polygon fill="white" stroke="red" points="0,-38.5 0,-57.5 82,-57.5 82,-38.5 0,-38.5"/>
<text text-anchor="middle" x="41" y="-45.5" font-family="Helvetica,sans-Serif" font-size="10.00">advabp_adjoint</text>
</a>
</g>
</g>
<!-- Node6&#45;&gt;Node25 -->
<g id="edge8" class="edge">
<title>Node6&#45;&gt;Node25</title>
<path fill="none" stroke="midnightblue" d="M107.8,-60.63C99.56,-59.05 90.65,-57.34 82.12,-55.7"/>
<polygon fill="midnightblue" stroke="midnightblue" points="107.31,-64.1 117.79,-62.55 108.63,-57.22 107.31,-64.1"/>
</g>
<!-- Node26 -->
<g id="node10" class="node">
<title>Node26</title>
<g id="a_node10"><a xlink:href="avm_8f.html#a9e1209421d37bc600934cdb4974e3437" target="_top" xlink:title=" ">
<polygon fill="white" stroke="black" points="11.5,-0.5 11.5,-19.5 70.5,-19.5 70.5,-0.5 11.5,-0.5"/>
<text text-anchor="middle" x="41" y="-7.5" font-family="Helvetica,sans-Serif" font-size="10.00">avm_vdiff</text>
</a>
</g>
</g>
<!-- Node6&#45;&gt;Node26 -->
<g id="edge9" class="edge">
<title>Node6&#45;&gt;Node26</title>
<path fill="none" stroke="midnightblue" d="M118.78,-51.72C107.89,-44.49 94.48,-35.94 82,-29 76.09,-25.71 69.51,-22.44 63.43,-19.56"/>
<polygon fill="midnightblue" stroke="midnightblue" points="116.99,-54.74 127.24,-57.42 120.9,-48.93 116.99,-54.74"/>
</g>
</g>
</svg>
