<?xml version="1.0" encoding="UTF-8" standalone="no"?>
<!DOCTYPE svg PUBLIC "-//W3C//DTD SVG 1.1//EN"
 "http://www.w3.org/Graphics/SVG/1.1/DTD/svg11.dtd">
<!-- Generated by graphviz version 2.46.0 (0)
 -->
<!-- Title: opbinv1 Pages: 1 -->
<svg width="321pt" height="199pt"
 viewBox="0.00 0.00 321.00 199.00" xmlns="http://www.w3.org/2000/svg" xmlns:xlink="http://www.w3.org/1999/xlink">
<g id="graph0" class="graph" transform="scale(1 1) rotate(0) translate(4 195)">
<title>opbinv1</title>
<polygon fill="white" stroke="transparent" points="-4,4 -4,-195 317,-195 317,4 -4,4"/>
<!-- Node1 -->
<g id="node1" class="node">
<title>Node1</title>
<g id="a_node1"><a xlink:title=" ">
<polygon fill="#bfbfbf" stroke="black" points="0,-76.5 0,-95.5 50,-95.5 50,-76.5 0,-76.5"/>
<text text-anchor="middle" x="25" y="-83.5" font-family="Helvetica,sans-Serif" font-size="10.00">opbinv1</text>
</a>
</g>
</g>
<!-- Node2 -->
<g id="node2" class="node">
<title>Node2</title>
<g id="a_node2"><a xlink:href="navier1_8f.html#a2f89b54d1ceda6fb201432d7a61bc907" target="_top" xlink:title=" ">
<polygon fill="white" stroke="black" points="86,-133.5 86,-152.5 142,-152.5 142,-133.5 86,-133.5"/>
<text text-anchor="middle" x="114" y="-140.5" font-family="Helvetica,sans-Serif" font-size="10.00">opdssum</text>
</a>
</g>
</g>
<!-- Node1&#45;&gt;Node2 -->
<g id="edge1" class="edge">
<title>Node1&#45;&gt;Node2</title>
<path fill="none" stroke="midnightblue" d="M40.76,-95.67C54.21,-104.48 74.31,-117.65 89.89,-127.86"/>
<polygon fill="midnightblue" stroke="midnightblue" points="88.18,-130.92 98.46,-133.47 92.01,-125.07 88.18,-130.92"/>
</g>
<!-- Node11 -->
<g id="node5" class="node">
<title>Node11</title>
<g id="a_node5"><a xlink:href="navier1_8f.html#a791b4fc7ae0113967c5354b9e48d959f" target="_top" xlink:title=" ">
<polygon fill="white" stroke="black" points="88.5,-76.5 88.5,-95.5 139.5,-95.5 139.5,-76.5 88.5,-76.5"/>
<text text-anchor="middle" x="114" y="-83.5" font-family="Helvetica,sans-Serif" font-size="10.00">opmask</text>
</a>
</g>
</g>
<!-- Node1&#45;&gt;Node11 -->
<g id="edge4" class="edge">
<title>Node1&#45;&gt;Node11</title>
<path fill="none" stroke="midnightblue" d="M50.23,-86C58.86,-86 68.74,-86 78.08,-86"/>
<polygon fill="midnightblue" stroke="midnightblue" points="78.29,-89.5 88.29,-86 78.29,-82.5 78.29,-89.5"/>
</g>
<!-- Node22 -->
<g id="node8" class="node">
<title>Node22</title>
<g id="a_node8"><a xlink:href="connect2_8f.html#a6e862f603b59c81091476a690c5e94ee" target="_top" xlink:title=" ">
<polygon fill="white" stroke="red" points="94,-19.5 94,-38.5 134,-38.5 134,-19.5 94,-19.5"/>
<text text-anchor="middle" x="114" y="-26.5" font-family="Helvetica,sans-Serif" font-size="10.00">scale</text>
</a>
</g>
</g>
<!-- Node1&#45;&gt;Node22 -->
<g id="edge7" class="edge">
<title>Node1&#45;&gt;Node22</title>
<path fill="none" stroke="midnightblue" d="M40.76,-76.33C54.21,-67.52 74.31,-54.35 89.89,-44.14"/>
<polygon fill="midnightblue" stroke="midnightblue" points="92.01,-46.93 98.46,-38.53 88.18,-41.08 92.01,-46.93"/>
</g>
<!-- Node3 -->
<g id="node3" class="node">
<title>Node3</title>
<g id="a_node3"><a xlink:href="navier1_8f.html#a7dc78f2f7df7b41bdbfe8f1bb2d80b4d" target="_top" xlink:title=" ">
<polygon fill="white" stroke="red" points="180.5,-171.5 180.5,-190.5 242.5,-190.5 242.5,-171.5 180.5,-171.5"/>
<text text-anchor="middle" x="211.5" y="-178.5" font-family="Helvetica,sans-Serif" font-size="10.00">rotate_cyc</text>
</a>
</g>
</g>
<!-- Node2&#45;&gt;Node3 -->
<g id="edge2" class="edge">
<title>Node2&#45;&gt;Node3</title>
<path fill="none" stroke="midnightblue" d="M139.1,-152.59C150.52,-157.13 164.36,-162.64 176.8,-167.59"/>
<polygon fill="midnightblue" stroke="midnightblue" points="175.82,-170.97 186.41,-171.41 178.41,-164.46 175.82,-170.97"/>
</g>
<!-- Node6 -->
<g id="node4" class="node">
<title>Node6</title>
<g id="a_node4"><a xlink:href="dssum_8f.html#a04a475747f747981907f8e5203c421ed" target="_top" xlink:title=" ">
<polygon fill="white" stroke="red" points="178,-133.5 178,-152.5 245,-152.5 245,-133.5 178,-133.5"/>
<text text-anchor="middle" x="211.5" y="-140.5" font-family="Helvetica,sans-Serif" font-size="10.00">vec_dssum</text>
</a>
</g>
</g>
<!-- Node2&#45;&gt;Node6 -->
<g id="edge3" class="edge">
<title>Node2&#45;&gt;Node6</title>
<path fill="none" stroke="midnightblue" d="M142.11,-143C150.12,-143 159.08,-143 167.82,-143"/>
<polygon fill="midnightblue" stroke="midnightblue" points="167.9,-146.5 177.9,-143 167.9,-139.5 167.9,-146.5"/>
</g>
<!-- Node12 -->
<g id="node6" class="node">
<title>Node12</title>
<g id="a_node6"><a xlink:href="math_8f.html#a3470db04166d9ba91454a14cc17dbec2" target="_top" xlink:title=" ">
<polygon fill="white" stroke="red" points="194,-95.5 194,-114.5 229,-114.5 229,-95.5 194,-95.5"/>
<text text-anchor="middle" x="211.5" y="-102.5" font-family="Helvetica,sans-Serif" font-size="10.00">col2</text>
</a>
</g>
</g>
<!-- Node11&#45;&gt;Node12 -->
<g id="edge5" class="edge">
<title>Node11&#45;&gt;Node12</title>
<path fill="none" stroke="midnightblue" d="M139.59,-90.89C153.16,-93.59 170.01,-96.94 183.88,-99.7"/>
<polygon fill="midnightblue" stroke="midnightblue" points="183.32,-103.16 193.81,-101.68 184.68,-96.29 183.32,-103.16"/>
</g>
<!-- Node13 -->
<g id="node7" class="node">
<title>Node13</title>
<g id="a_node7"><a xlink:href="subs2_8f.html#ade5a2e2643d05a961263dc64a756f2f5" target="_top" xlink:title=" ">
<polygon fill="white" stroke="red" points="189.5,-57.5 189.5,-76.5 233.5,-76.5 233.5,-57.5 189.5,-57.5"/>
<text text-anchor="middle" x="211.5" y="-64.5" font-family="Helvetica,sans-Serif" font-size="10.00">rmask</text>
</a>
</g>
</g>
<!-- Node11&#45;&gt;Node13 -->
<g id="edge6" class="edge">
<title>Node11&#45;&gt;Node13</title>
<path fill="none" stroke="midnightblue" d="M139.59,-81.11C151.72,-78.7 166.47,-75.76 179.37,-73.19"/>
<polygon fill="midnightblue" stroke="midnightblue" points="180.11,-76.62 189.23,-71.23 178.74,-69.75 180.11,-76.62"/>
</g>
<!-- Node23 -->
<g id="node9" class="node">
<title>Node23</title>
<g id="a_node9"><a xlink:href="math_8f.html#ac231f0566c16504dadd6ba0f16a38bd9" target="_top" xlink:title=" ">
<polygon fill="white" stroke="black" points="190,-19.5 190,-38.5 233,-38.5 233,-19.5 190,-19.5"/>
<text text-anchor="middle" x="211.5" y="-26.5" font-family="Helvetica,sans-Serif" font-size="10.00">glsum</text>
</a>
</g>
</g>
<!-- Node22&#45;&gt;Node23 -->
<g id="edge8" class="edge">
<title>Node22&#45;&gt;Node23</title>
<path fill="none" stroke="midnightblue" d="M134.33,-29C147.31,-29 164.7,-29 179.58,-29"/>
<polygon fill="midnightblue" stroke="midnightblue" points="179.88,-32.5 189.88,-29 179.88,-25.5 179.88,-32.5"/>
</g>
<!-- Node24 -->
<g id="node10" class="node">
<title>Node24</title>
<g id="a_node10"><a xlink:href="gs__test__gop__blocking_8c.html#ab2e24f9857f6d1ded7e4d556c6bc5e49" target="_top" xlink:title=" ">
<polygon fill="white" stroke="red" points="281,-0.5 281,-19.5 313,-19.5 313,-0.5 281,-0.5"/>
<text text-anchor="middle" x="297" y="-7.5" font-family="Helvetica,sans-Serif" font-size="10.00">gop</text>
</a>
</g>
</g>
<!-- Node22&#45;&gt;Node24 -->
<g id="edge10" class="edge">
<title>Node22&#45;&gt;Node24</title>
<path fill="none" stroke="midnightblue" d="M134.25,-21.59C146.55,-17.26 162.97,-12.22 178,-10 209.81,-5.31 246.97,-6.37 270.97,-7.89"/>
<polygon fill="midnightblue" stroke="midnightblue" points="270.77,-11.39 281,-8.61 271.27,-4.41 270.77,-11.39"/>
</g>
<!-- Node23&#45;&gt;Node24 -->
<g id="edge9" class="edge">
<title>Node23&#45;&gt;Node24</title>
<path fill="none" stroke="midnightblue" d="M233.14,-24.3C244.57,-21.7 258.86,-18.45 270.93,-15.7"/>
<polygon fill="midnightblue" stroke="midnightblue" points="271.86,-19.08 280.84,-13.45 270.31,-12.26 271.86,-19.08"/>
</g>
</g>
</svg>
