<?xml version="1.0" encoding="UTF-8" standalone="no"?>
<!DOCTYPE svg PUBLIC "-//W3C//DTD SVG 1.1//EN"
 "http://www.w3.org/Graphics/SVG/1.1/DTD/svg11.dtd">
<!-- Generated by graphviz version 2.46.0 (0)
 -->
<!-- Title: gbtuple_rank Pages: 1 -->
<svg width="383pt" height="218pt"
 viewBox="0.00 0.00 383.00 218.00" xmlns="http://www.w3.org/2000/svg" xmlns:xlink="http://www.w3.org/1999/xlink">
<g id="graph0" class="graph" transform="scale(1 1) rotate(0) translate(4 214)">
<title>gbtuple_rank</title>
<polygon fill="white" stroke="transparent" points="-4,4 -4,-214 379,-214 379,4 -4,4"/>
<!-- Node1 -->
<g id="node1" class="node">
<title>Node1</title>
<g id="a_node1"><a xlink:title=" ">
<polygon fill="#bfbfbf" stroke="black" points="303,-95.5 303,-114.5 375,-114.5 375,-95.5 303,-95.5"/>
<text text-anchor="middle" x="339" y="-102.5" font-family="Helvetica,sans-Serif" font-size="10.00">gbtuple_rank</text>
</a>
</g>
</g>
<!-- Node2 -->
<g id="node2" class="node">
<title>Node2</title>
<g id="a_node2"><a xlink:href="navier8_8f.html#aacefc924fd8555d5a3b58b36c7eda2ad" target="_top" xlink:title=" ">
<polygon fill="white" stroke="black" points="210,-114.5 210,-133.5 267,-133.5 267,-114.5 210,-114.5"/>
<text text-anchor="middle" x="238.5" y="-121.5" font-family="Helvetica,sans-Serif" font-size="10.00">setvert2d</text>
</a>
</g>
</g>
<!-- Node1&#45;&gt;Node2 -->
<g id="edge1" class="edge">
<title>Node1&#45;&gt;Node2</title>
<path fill="none" stroke="midnightblue" d="M293.18,-113.65C284.35,-115.35 275.34,-117.09 267.28,-118.64"/>
<polygon fill="midnightblue" stroke="midnightblue" points="293.84,-117.08 303,-111.75 292.51,-110.21 293.84,-117.08"/>
</g>
<!-- Node82 -->
<g id="node10" class="node">
<title>Node82</title>
<g id="a_node10"><a xlink:href="navier8_8f.html#a928aff746415692c89ffdfbaf08fd98d" target="_top" xlink:title=" ">
<polygon fill="white" stroke="black" points="210,-76.5 210,-95.5 267,-95.5 267,-76.5 210,-76.5"/>
<text text-anchor="middle" x="238.5" y="-83.5" font-family="Helvetica,sans-Serif" font-size="10.00">setvert3d</text>
</a>
</g>
</g>
<!-- Node1&#45;&gt;Node82 -->
<g id="edge9" class="edge">
<title>Node1&#45;&gt;Node82</title>
<path fill="none" stroke="midnightblue" d="M293.18,-96.35C284.35,-94.65 275.34,-92.91 267.28,-91.36"/>
<polygon fill="midnightblue" stroke="midnightblue" points="292.51,-99.79 303,-98.25 293.84,-92.92 292.51,-99.79"/>
</g>
<!-- Node3 -->
<g id="node3" class="node">
<title>Node3</title>
<g id="a_node3"><a xlink:href="navier8_8f.html#a51b2c2d951e069b7ffa9a395b2def117" target="_top" xlink:title=" ">
<polygon fill="white" stroke="black" points="122,-95.5 122,-114.5 174,-114.5 174,-95.5 122,-95.5"/>
<text text-anchor="middle" x="148" y="-102.5" font-family="Helvetica,sans-Serif" font-size="10.00">set_vert</text>
</a>
</g>
</g>
<!-- Node2&#45;&gt;Node3 -->
<g id="edge2" class="edge">
<title>Node2&#45;&gt;Node3</title>
<path fill="none" stroke="midnightblue" d="M199.97,-115.94C191.24,-114.07 182.14,-112.11 174.09,-110.39"/>
<polygon fill="midnightblue" stroke="midnightblue" points="199.47,-119.42 209.98,-118.09 200.94,-112.57 199.47,-119.42"/>
</g>
<!-- Node4 -->
<g id="node4" class="node">
<title>Node4</title>
<g id="a_node4"><a xlink:href="navier8_8f.html#a809b9aa647f2046d09131be2f6074ff6" target="_top" xlink:title=" ">
<polygon fill="white" stroke="red" points="3,-190.5 3,-209.5 83,-209.5 83,-190.5 3,-190.5"/>
<text text-anchor="middle" x="43" y="-197.5" font-family="Helvetica,sans-Serif" font-size="10.00">set_up_h1_crs</text>
</a>
</g>
</g>
<!-- Node3&#45;&gt;Node4 -->
<g id="edge3" class="edge">
<title>Node3&#45;&gt;Node4</title>
<path fill="none" stroke="midnightblue" d="M135.79,-123.49C124.83,-140.3 106.79,-164.88 86,-181 81.32,-184.63 75.84,-187.75 70.4,-190.35"/>
<polygon fill="midnightblue" stroke="midnightblue" points="139.01,-124.94 141.39,-114.61 133.09,-121.2 139.01,-124.94"/>
</g>
<!-- Node9 -->
<g id="node5" class="node">
<title>Node9</title>
<g id="a_node5"><a xlink:href="subs1_8f.html#ad7ba016312892cc812c3bd71457cd7d0" target="_top" xlink:title=" ">
<polygon fill="white" stroke="red" points="6,-152.5 6,-171.5 80,-171.5 80,-152.5 6,-152.5"/>
<text text-anchor="middle" x="43" y="-159.5" font-family="Helvetica,sans-Serif" font-size="10.00">set_vert_strs</text>
</a>
</g>
</g>
<!-- Node3&#45;&gt;Node9 -->
<g id="edge4" class="edge">
<title>Node3&#45;&gt;Node9</title>
<path fill="none" stroke="midnightblue" d="M124.35,-120.1C113.04,-127.39 99.02,-136.04 86,-143 79.79,-146.32 72.89,-149.6 66.5,-152.48"/>
<polygon fill="midnightblue" stroke="midnightblue" points="126.31,-123.01 132.77,-114.61 122.49,-117.14 126.31,-123.01"/>
</g>
<!-- Node66 -->
<g id="node6" class="node">
<title>Node66</title>
<g id="a_node6"><a xlink:href="convect_8f.html#ae036baf441f94f93768933971b22ca5e" target="_top" xlink:title=" ">
<polygon fill="white" stroke="red" points="7,-114.5 7,-133.5 79,-133.5 79,-114.5 7,-114.5"/>
<text text-anchor="middle" x="43" y="-121.5" font-family="Helvetica,sans-Serif" font-size="10.00">setup_dg_gs</text>
</a>
</g>
</g>
<!-- Node3&#45;&gt;Node66 -->
<g id="edge5" class="edge">
<title>Node3&#45;&gt;Node66</title>
<path fill="none" stroke="midnightblue" d="M111.67,-111.52C101.12,-113.46 89.57,-115.59 79.05,-117.54"/>
<polygon fill="midnightblue" stroke="midnightblue" points="112.6,-114.9 121.8,-109.65 111.33,-108.02 112.6,-114.9"/>
</g>
<!-- Node68 -->
<g id="node7" class="node">
<title>Node68</title>
<g id="a_node7"><a xlink:href="dssum_8f.html#ac67af3a4cc3a2c90a8d596c8ab69e395" target="_top" xlink:title=" ">
<polygon fill="white" stroke="red" points="17.5,-76.5 17.5,-95.5 68.5,-95.5 68.5,-76.5 17.5,-76.5"/>
<text text-anchor="middle" x="43" y="-83.5" font-family="Helvetica,sans-Serif" font-size="10.00">setupds</text>
</a>
</g>
</g>
<!-- Node3&#45;&gt;Node68 -->
<g id="edge6" class="edge">
<title>Node3&#45;&gt;Node68</title>
<path fill="none" stroke="midnightblue" d="M111.84,-98.51C97.61,-95.89 81.52,-92.92 68.58,-90.53"/>
<polygon fill="midnightblue" stroke="midnightblue" points="111.33,-101.98 121.8,-100.35 112.6,-95.1 111.33,-101.98"/>
</g>
<!-- Node76 -->
<g id="node8" class="node">
<title>Node76</title>
<g id="a_node8"><a xlink:href="meshsmoother_8f.html#a0462602389036e142b4376691560cac7" target="_top" xlink:title=" ">
<polygon fill="white" stroke="red" points="1.5,-38.5 1.5,-57.5 84.5,-57.5 84.5,-38.5 1.5,-38.5"/>
<text text-anchor="middle" x="43" y="-45.5" font-family="Helvetica,sans-Serif" font-size="10.00">setupds_center</text>
</a>
</g>
</g>
<!-- Node3&#45;&gt;Node76 -->
<g id="edge7" class="edge">
<title>Node3&#45;&gt;Node76</title>
<path fill="none" stroke="midnightblue" d="M124.35,-89.9C113.04,-82.61 99.02,-73.96 86,-67 79.79,-63.68 72.89,-60.4 66.5,-57.52"/>
<polygon fill="midnightblue" stroke="midnightblue" points="122.49,-92.86 132.77,-95.39 126.31,-86.99 122.49,-92.86"/>
</g>
<!-- Node80 -->
<g id="node9" class="node">
<title>Node80</title>
<g id="a_node9"><a xlink:href="gmres_8f.html#a850278932a69c1656496f16b8d327281" target="_top" xlink:title=" ">
<polygon fill="white" stroke="red" points="0,-0.5 0,-19.5 86,-19.5 86,-0.5 0,-0.5"/>
<text text-anchor="middle" x="43" y="-7.5" font-family="Helvetica,sans-Serif" font-size="10.00">setupds_no_crn</text>
</a>
</g>
</g>
<!-- Node3&#45;&gt;Node80 -->
<g id="edge8" class="edge">
<title>Node3&#45;&gt;Node80</title>
<path fill="none" stroke="midnightblue" d="M135.79,-86.51C124.83,-69.7 106.79,-45.12 86,-29 81.32,-25.37 75.84,-22.25 70.4,-19.65"/>
<polygon fill="midnightblue" stroke="midnightblue" points="133.09,-88.8 141.39,-95.39 139.01,-85.06 133.09,-88.8"/>
</g>
<!-- Node82&#45;&gt;Node3 -->
<g id="edge10" class="edge">
<title>Node82&#45;&gt;Node3</title>
<path fill="none" stroke="midnightblue" d="M199.97,-94.06C191.24,-95.93 182.14,-97.89 174.09,-99.61"/>
<polygon fill="midnightblue" stroke="midnightblue" points="200.94,-97.43 209.98,-91.91 199.47,-90.58 200.94,-97.43"/>
</g>
</g>
</svg>
