<?xml version="1.0" encoding="UTF-8" standalone="no"?>
<!DOCTYPE svg PUBLIC "-//W3C//DTD SVG 1.1//EN"
 "http://www.w3.org/Graphics/SVG/1.1/DTD/svg11.dtd">
<!-- Generated by graphviz version 2.46.0 (0)
 -->
<!-- Title: cdabdtp Pages: 1 -->
<svg width="237pt" height="237pt"
 viewBox="0.00 0.00 237.00 237.00" xmlns="http://www.w3.org/2000/svg" xmlns:xlink="http://www.w3.org/1999/xlink">
<g id="graph0" class="graph" transform="scale(1 1) rotate(0) translate(4 233)">
<title>cdabdtp</title>
<polygon fill="white" stroke="transparent" points="-4,4 -4,-233 233,-233 233,4 -4,4"/>
<!-- Node1 -->
<g id="node1" class="node">
<title>Node1</title>
<g id="a_node1"><a xlink:title=" ">
<polygon fill="#bfbfbf" stroke="black" points="0,-76.5 0,-95.5 51,-95.5 51,-76.5 0,-76.5"/>
<text text-anchor="middle" x="25.5" y="-83.5" font-family="Helvetica,sans-Serif" font-size="10.00">cdabdtp</text>
</a>
</g>
</g>
<!-- Node2 -->
<g id="node2" class="node">
<title>Node2</title>
<g id="a_node2"><a xlink:href="navier1_8f.html#a4d7a006ce8ef086e842bc09f74169951" target="_top" xlink:title=" ">
<polygon fill="white" stroke="black" points="89.5,-152.5 89.5,-171.5 134.5,-171.5 134.5,-152.5 89.5,-152.5"/>
<text text-anchor="middle" x="112" y="-159.5" font-family="Helvetica,sans-Serif" font-size="10.00">opbinv</text>
</a>
</g>
</g>
<!-- Node1&#45;&gt;Node2 -->
<g id="edge1" class="edge">
<title>Node1&#45;&gt;Node2</title>
<path fill="none" stroke="midnightblue" d="M36.11,-95.55C47.85,-107.09 68.44,-126.96 87,-143 88,-143.86 89.02,-144.73 90.07,-145.6"/>
<polygon fill="midnightblue" stroke="midnightblue" points="88.16,-148.56 98.13,-152.14 92.57,-143.13 88.16,-148.56"/>
</g>
<!-- Node25 -->
<g id="node7" class="node">
<title>Node25</title>
<g id="a_node7"><a xlink:href="navier1_8f.html#a0c45c8e1d0afd819429c5e2ba2cb859c" target="_top" xlink:title=" ">
<polygon fill="white" stroke="red" points="87,-114.5 87,-133.5 137,-133.5 137,-114.5 87,-114.5"/>
<text text-anchor="middle" x="112" y="-121.5" font-family="Helvetica,sans-Serif" font-size="10.00">opbinv1</text>
</a>
</g>
</g>
<!-- Node1&#45;&gt;Node25 -->
<g id="edge6" class="edge">
<title>Node1&#45;&gt;Node25</title>
<path fill="none" stroke="midnightblue" d="M47.82,-95.59C57.73,-100.04 69.69,-105.42 80.53,-110.3"/>
<polygon fill="midnightblue" stroke="midnightblue" points="79.13,-113.5 89.68,-114.41 82,-107.12 79.13,-113.5"/>
</g>
<!-- Node33 -->
<g id="node8" class="node">
<title>Node33</title>
<g id="a_node8"><a xlink:href="navier1_8f.html#a58af49abaf1ee0cc07be356ad2721d90" target="_top" xlink:title=" ">
<polygon fill="white" stroke="red" points="92,-76.5 92,-95.5 132,-95.5 132,-76.5 92,-76.5"/>
<text text-anchor="middle" x="112" y="-83.5" font-family="Helvetica,sans-Serif" font-size="10.00">opdiv</text>
</a>
</g>
</g>
<!-- Node1&#45;&gt;Node33 -->
<g id="edge9" class="edge">
<title>Node1&#45;&gt;Node33</title>
<path fill="none" stroke="midnightblue" d="M51.4,-86C60.91,-86 71.84,-86 81.72,-86"/>
<polygon fill="midnightblue" stroke="midnightblue" points="81.91,-89.5 91.91,-86 81.91,-82.5 81.91,-89.5"/>
</g>
<!-- Node39 -->
<g id="node9" class="node">
<title>Node39</title>
<g id="a_node9"><a xlink:href="navier1_8f.html#a0319e77dcb754cfe343f5e1e0a54f8dd" target="_top" xlink:title=" ">
<polygon fill="white" stroke="red" points="87.5,-38.5 87.5,-57.5 136.5,-57.5 136.5,-38.5 87.5,-38.5"/>
<text text-anchor="middle" x="112" y="-45.5" font-family="Helvetica,sans-Serif" font-size="10.00">opgradt</text>
</a>
</g>
</g>
<!-- Node1&#45;&gt;Node39 -->
<g id="edge10" class="edge">
<title>Node1&#45;&gt;Node39</title>
<path fill="none" stroke="midnightblue" d="M47.82,-76.41C57.73,-71.96 69.69,-66.58 80.53,-61.7"/>
<polygon fill="midnightblue" stroke="midnightblue" points="82,-64.88 89.68,-57.59 79.13,-58.5 82,-64.88"/>
</g>
<!-- Node41 -->
<g id="node10" class="node">
<title>Node41</title>
<g id="a_node10"><a xlink:href="induct_8f.html#a1a8a16f24236d6e6f08fe4d60cb29d01" target="_top" xlink:title=" ">
<polygon fill="white" stroke="red" points="89.5,-0.5 89.5,-19.5 134.5,-19.5 134.5,-0.5 89.5,-0.5"/>
<text text-anchor="middle" x="112" y="-7.5" font-family="Helvetica,sans-Serif" font-size="10.00">ophinv</text>
</a>
</g>
</g>
<!-- Node1&#45;&gt;Node41 -->
<g id="edge11" class="edge">
<title>Node1&#45;&gt;Node41</title>
<path fill="none" stroke="midnightblue" d="M36.11,-76.45C47.85,-64.91 68.44,-45.04 87,-29 88,-28.14 89.02,-27.27 90.07,-26.4"/>
<polygon fill="midnightblue" stroke="midnightblue" points="92.57,-28.87 98.13,-19.86 88.16,-23.44 92.57,-28.87"/>
</g>
<!-- Node3 -->
<g id="node3" class="node">
<title>Node3</title>
<g id="a_node3"><a xlink:href="dssum_8f.html#ad67373714b1c3bafed536081167e2cd6" target="_top" xlink:title=" ">
<polygon fill="white" stroke="red" points="178,-209.5 178,-228.5 224,-228.5 224,-209.5 178,-209.5"/>
<text text-anchor="middle" x="201" y="-216.5" font-family="Helvetica,sans-Serif" font-size="10.00">dssum</text>
</a>
</g>
</g>
<!-- Node2&#45;&gt;Node3 -->
<g id="edge2" class="edge">
<title>Node2&#45;&gt;Node3</title>
<path fill="none" stroke="midnightblue" d="M127.76,-171.67C141.21,-180.48 161.31,-193.65 176.89,-203.86"/>
<polygon fill="midnightblue" stroke="midnightblue" points="175.18,-206.92 185.46,-209.47 179.01,-201.07 175.18,-206.92"/>
</g>
<!-- Node8 -->
<g id="node4" class="node">
<title>Node8</title>
<g id="a_node4"><a xlink:href="math_8f.html#ae862caef2bdf5a2cb039a725f5450db0" target="_top" xlink:title=" ">
<polygon fill="white" stroke="red" points="177.5,-171.5 177.5,-190.5 224.5,-190.5 224.5,-171.5 177.5,-171.5"/>
<text text-anchor="middle" x="201" y="-178.5" font-family="Helvetica,sans-Serif" font-size="10.00">invcol3</text>
</a>
</g>
</g>
<!-- Node2&#45;&gt;Node8 -->
<g id="edge3" class="edge">
<title>Node2&#45;&gt;Node8</title>
<path fill="none" stroke="midnightblue" d="M134.51,-166.7C144.34,-168.85 156.22,-171.44 167.14,-173.82"/>
<polygon fill="midnightblue" stroke="midnightblue" points="166.71,-177.31 177.22,-176.03 168.2,-170.47 166.71,-177.31"/>
</g>
<!-- Node9 -->
<g id="node5" class="node">
<title>Node9</title>
<g id="a_node5"><a xlink:href="navier1_8f.html#a2f89b54d1ceda6fb201432d7a61bc907" target="_top" xlink:title=" ">
<polygon fill="white" stroke="red" points="173,-133.5 173,-152.5 229,-152.5 229,-133.5 173,-133.5"/>
<text text-anchor="middle" x="201" y="-140.5" font-family="Helvetica,sans-Serif" font-size="10.00">opdssum</text>
</a>
</g>
</g>
<!-- Node2&#45;&gt;Node9 -->
<g id="edge4" class="edge">
<title>Node2&#45;&gt;Node9</title>
<path fill="none" stroke="midnightblue" d="M134.51,-157.3C143.1,-155.43 153.24,-153.21 162.94,-151.09"/>
<polygon fill="midnightblue" stroke="midnightblue" points="163.79,-154.49 172.81,-148.94 162.3,-147.65 163.79,-154.49"/>
</g>
<!-- Node14 -->
<g id="node6" class="node">
<title>Node14</title>
<g id="a_node6"><a xlink:href="navier1_8f.html#a791b4fc7ae0113967c5354b9e48d959f" target="_top" xlink:title=" ">
<polygon fill="white" stroke="red" points="175.5,-95.5 175.5,-114.5 226.5,-114.5 226.5,-95.5 175.5,-95.5"/>
<text text-anchor="middle" x="201" y="-102.5" font-family="Helvetica,sans-Serif" font-size="10.00">opmask</text>
</a>
</g>
</g>
<!-- Node2&#45;&gt;Node14 -->
<g id="edge5" class="edge">
<title>Node2&#45;&gt;Node14</title>
<path fill="none" stroke="midnightblue" d="M127.76,-152.33C141.21,-143.52 161.31,-130.35 176.89,-120.14"/>
<polygon fill="midnightblue" stroke="midnightblue" points="179.01,-122.93 185.46,-114.53 175.18,-117.08 179.01,-122.93"/>
</g>
<!-- Node25&#45;&gt;Node9 -->
<g id="edge7" class="edge">
<title>Node25&#45;&gt;Node9</title>
<path fill="none" stroke="midnightblue" d="M137.23,-129.29C145.18,-131.03 154.21,-133 162.89,-134.9"/>
<polygon fill="midnightblue" stroke="midnightblue" points="162.32,-138.35 172.83,-137.07 163.81,-131.51 162.32,-138.35"/>
</g>
<!-- Node25&#45;&gt;Node14 -->
<g id="edge8" class="edge">
<title>Node25&#45;&gt;Node14</title>
<path fill="none" stroke="midnightblue" d="M137.23,-118.71C145.95,-116.8 155.95,-114.62 165.38,-112.56"/>
<polygon fill="midnightblue" stroke="midnightblue" points="166.27,-115.95 175.29,-110.4 164.77,-109.11 166.27,-115.95"/>
</g>
</g>
</svg>
