<?xml version="1.0" encoding="UTF-8" standalone="no"?>
<!DOCTYPE svg PUBLIC "-//W3C//DTD SVG 1.1//EN"
 "http://www.w3.org/Graphics/SVG/1.1/DTD/svg11.dtd">
<!-- Generated by graphviz version 2.46.0 (0)
 -->
<!-- Title: setrhs Pages: 1 -->
<svg width="236pt" height="294pt"
 viewBox="0.00 0.00 236.00 294.00" xmlns="http://www.w3.org/2000/svg" xmlns:xlink="http://www.w3.org/1999/xlink">
<g id="graph0" class="graph" transform="scale(1 1) rotate(0) translate(4 290)">
<title>setrhs</title>
<polygon fill="white" stroke="transparent" points="-4,4 -4,-290 232,-290 232,4 -4,4"/>
<!-- Node1 -->
<g id="node1" class="node">
<title>Node1</title>
<g id="a_node1"><a xlink:title=" ">
<polygon fill="#bfbfbf" stroke="black" points="0,-133.5 0,-152.5 44,-152.5 44,-133.5 0,-133.5"/>
<text text-anchor="middle" x="22" y="-140.5" font-family="Helvetica,sans-Serif" font-size="10.00">setrhs</text>
</a>
</g>
</g>
<!-- Node2 -->
<g id="node2" class="node">
<title>Node2</title>
<g id="a_node2"><a xlink:href="math_8f.html#a34a2c89ac31311482e2ec34fbb7c5a7a" target="_top" xlink:title=" ">
<polygon fill="white" stroke="black" points="81.5,-266.5 81.5,-285.5 129.5,-285.5 129.5,-266.5 81.5,-266.5"/>
<text text-anchor="middle" x="105.5" y="-273.5" font-family="Helvetica,sans-Serif" font-size="10.00">add2s2</text>
</a>
</g>
</g>
<!-- Node1&#45;&gt;Node2 -->
<g id="edge1" class="edge">
<title>Node1&#45;&gt;Node2</title>
<path fill="none" stroke="midnightblue" d="M26.17,-152.69C33.31,-173.46 52.2,-223.14 80,-257 80.7,-257.85 81.45,-258.69 82.22,-259.51"/>
<polygon fill="midnightblue" stroke="midnightblue" points="80.03,-262.25 89.81,-266.33 84.71,-257.04 80.03,-262.25"/>
</g>
<!-- Node5 -->
<g id="node4" class="node">
<title>Node5</title>
<g id="a_node4"><a xlink:href="navier1_8f.html#a65f34d5a85fb540d8cb0fd1fbf1d2e6b" target="_top" xlink:title=" ">
<polygon fill="white" stroke="red" points="80,-228.5 80,-247.5 131,-247.5 131,-228.5 80,-228.5"/>
<text text-anchor="middle" x="105.5" y="-235.5" font-family="Helvetica,sans-Serif" font-size="10.00">cdabdtp</text>
</a>
</g>
</g>
<!-- Node1&#45;&gt;Node5 -->
<g id="edge3" class="edge">
<title>Node1&#45;&gt;Node5</title>
<path fill="none" stroke="midnightblue" d="M28.94,-152.52C38.58,-167.57 58.72,-197.37 80,-219 80.91,-219.93 81.87,-220.85 82.86,-221.76"/>
<polygon fill="midnightblue" stroke="midnightblue" points="80.82,-224.62 90.73,-228.36 85.32,-219.25 80.82,-224.62"/>
</g>
<!-- Node84 -->
<g id="node5" class="node">
<title>Node84</title>
<g id="a_node5"><a xlink:href="math_8f.html#a2e1d409e78d80b2a41ac715c2d5f607b" target="_top" xlink:title=" ">
<polygon fill="white" stroke="black" points="85.5,-190.5 85.5,-209.5 125.5,-209.5 125.5,-190.5 85.5,-190.5"/>
<text text-anchor="middle" x="105.5" y="-197.5" font-family="Helvetica,sans-Serif" font-size="10.00">glsc3</text>
</a>
</g>
</g>
<!-- Node1&#45;&gt;Node84 -->
<g id="edge4" class="edge">
<title>Node1&#45;&gt;Node84</title>
<path fill="none" stroke="midnightblue" d="M36.83,-152.67C49.31,-161.4 67.9,-174.4 82.44,-184.57"/>
<polygon fill="midnightblue" stroke="midnightblue" points="80.68,-187.61 90.88,-190.47 84.69,-181.87 80.68,-187.61"/>
</g>
<!-- Node30 -->
<g id="node6" class="node">
<title>Node30</title>
<g id="a_node6"><a xlink:href="gs__test__gop__blocking_8c.html#ab2e24f9857f6d1ded7e4d556c6bc5e49" target="_top" xlink:title=" ">
<polygon fill="white" stroke="red" points="181.5,-171.5 181.5,-190.5 213.5,-190.5 213.5,-171.5 181.5,-171.5"/>
<text text-anchor="middle" x="197.5" y="-178.5" font-family="Helvetica,sans-Serif" font-size="10.00">gop</text>
</a>
</g>
</g>
<!-- Node1&#45;&gt;Node30 -->
<g id="edge6" class="edge">
<title>Node1&#45;&gt;Node30</title>
<path fill="none" stroke="midnightblue" d="M44.27,-147.66C76.28,-154.67 136.72,-167.91 171.03,-175.42"/>
<polygon fill="midnightblue" stroke="midnightblue" points="170.66,-178.92 181.18,-177.64 172.16,-172.09 170.66,-178.92"/>
</g>
<!-- Node33 -->
<g id="node7" class="node">
<title>Node33</title>
<g id="a_node7"><a xlink:href="math_8f.html#af44de42b023a4a68cd98ea341204342d" target="_top" xlink:title=" ">
<polygon fill="white" stroke="black" points="86.5,-114.5 86.5,-133.5 124.5,-133.5 124.5,-114.5 86.5,-114.5"/>
<text text-anchor="middle" x="105.5" y="-121.5" font-family="Helvetica,sans-Serif" font-size="10.00">rzero</text>
</a>
</g>
</g>
<!-- Node1&#45;&gt;Node33 -->
<g id="edge7" class="edge">
<title>Node1&#45;&gt;Node33</title>
<path fill="none" stroke="midnightblue" d="M44.41,-138.01C54.18,-135.73 65.87,-133.01 76.33,-130.57"/>
<polygon fill="midnightblue" stroke="midnightblue" points="77.32,-133.93 86.27,-128.25 75.73,-127.11 77.32,-133.93"/>
</g>
<!-- Node321 -->
<g id="node8" class="node">
<title>Node321</title>
<g id="a_node8"><a xlink:href="math_8f.html#a0f22065d62634acdc3883ba95bfcc18a" target="_top" xlink:title=" ">
<polygon fill="white" stroke="black" points="86.5,-76.5 86.5,-95.5 124.5,-95.5 124.5,-76.5 86.5,-76.5"/>
<text text-anchor="middle" x="105.5" y="-83.5" font-family="Helvetica,sans-Serif" font-size="10.00">sub2</text>
</a>
</g>
</g>
<!-- Node1&#45;&gt;Node321 -->
<g id="edge8" class="edge">
<title>Node1&#45;&gt;Node321</title>
<path fill="none" stroke="midnightblue" d="M36.83,-133.33C49.31,-124.6 67.9,-111.6 82.44,-101.43"/>
<polygon fill="midnightblue" stroke="midnightblue" points="84.69,-104.13 90.88,-95.53 80.68,-98.39 84.69,-104.13"/>
</g>
<!-- Node371 -->
<g id="node9" class="node">
<title>Node371</title>
<g id="a_node9"><a xlink:href="navier4_8f.html#ac7850f94786af7a09038a0ccaccadd07" target="_top" xlink:title=" ">
<polygon fill="white" stroke="red" points="80,-38.5 80,-57.5 131,-57.5 131,-38.5 80,-38.5"/>
<text text-anchor="middle" x="105.5" y="-45.5" font-family="Helvetica,sans-Serif" font-size="10.00">updrhse</text>
</a>
</g>
</g>
<!-- Node1&#45;&gt;Node371 -->
<g id="edge9" class="edge">
<title>Node1&#45;&gt;Node371</title>
<path fill="none" stroke="midnightblue" d="M28.94,-133.48C38.58,-118.43 58.72,-88.63 80,-67 80.91,-66.07 81.87,-65.15 82.86,-64.24"/>
<polygon fill="midnightblue" stroke="midnightblue" points="85.32,-66.75 90.73,-57.64 80.82,-61.38 85.32,-66.75"/>
</g>
<!-- Node150 -->
<g id="node10" class="node">
<title>Node150</title>
<g id="a_node10"><a xlink:href="math_8f.html#ab07e2f3ed4f12e1651e80df2497ffaa2" target="_top" xlink:title=" ">
<polygon fill="white" stroke="black" points="85.5,-0.5 85.5,-19.5 125.5,-19.5 125.5,-0.5 85.5,-0.5"/>
<text text-anchor="middle" x="105.5" y="-7.5" font-family="Helvetica,sans-Serif" font-size="10.00">vlsc2</text>
</a>
</g>
</g>
<!-- Node1&#45;&gt;Node150 -->
<g id="edge10" class="edge">
<title>Node1&#45;&gt;Node150</title>
<path fill="none" stroke="midnightblue" d="M26.17,-133.31C33.31,-112.54 52.2,-62.86 80,-29 80.7,-28.15 81.45,-27.31 82.22,-26.49"/>
<polygon fill="midnightblue" stroke="midnightblue" points="84.71,-28.96 89.81,-19.67 80.03,-23.75 84.71,-28.96"/>
</g>
<!-- Node3 -->
<g id="node3" class="node">
<title>Node3</title>
<g id="a_node3"><a xlink:href="comm__mpi_8f.html#af06ec29f06aac3f8809e19de2a7e8946" target="_top" xlink:title=" ">
<polygon fill="white" stroke="red" points="167,-266.5 167,-285.5 228,-285.5 228,-266.5 167,-266.5"/>
<text text-anchor="middle" x="197.5" y="-273.5" font-family="Helvetica,sans-Serif" font-size="10.00">dnekclock</text>
</a>
</g>
</g>
<!-- Node2&#45;&gt;Node3 -->
<g id="edge2" class="edge">
<title>Node2&#45;&gt;Node3</title>
<path fill="none" stroke="midnightblue" d="M129.68,-276C137.93,-276 147.47,-276 156.71,-276"/>
<polygon fill="midnightblue" stroke="midnightblue" points="156.94,-279.5 166.94,-276 156.94,-272.5 156.94,-279.5"/>
</g>
<!-- Node84&#45;&gt;Node30 -->
<g id="edge5" class="edge">
<title>Node84&#45;&gt;Node30</title>
<path fill="none" stroke="midnightblue" d="M125.59,-195.97C138.96,-193.15 156.96,-189.35 171.47,-186.28"/>
<polygon fill="midnightblue" stroke="midnightblue" points="172.25,-189.7 181.32,-184.21 170.81,-182.85 172.25,-189.7"/>
</g>
</g>
</svg>
