<?xml version="1.0" encoding="UTF-8" standalone="no"?>
<!DOCTYPE svg PUBLIC "-//W3C//DTD SVG 1.1//EN"
 "http://www.w3.org/Graphics/SVG/1.1/DTD/svg11.dtd">
<!-- Generated by graphviz version 2.46.0 (0)
 -->
<!-- Title: rand_fld_h1 Pages: 1 -->
<svg width="528pt" height="142pt"
 viewBox="0.00 0.00 528.00 142.00" xmlns="http://www.w3.org/2000/svg" xmlns:xlink="http://www.w3.org/1999/xlink">
<g id="graph0" class="graph" transform="scale(1 1) rotate(0) translate(4 138)">
<title>rand_fld_h1</title>
<polygon fill="white" stroke="transparent" points="-4,4 -4,-138 524,-138 524,4 -4,4"/>
<!-- Node1 -->
<g id="node1" class="node">
<title>Node1</title>
<g id="a_node1"><a xlink:title=" ">
<polygon fill="#bfbfbf" stroke="black" points="453,-57.5 453,-76.5 520,-76.5 520,-57.5 453,-57.5"/>
<text text-anchor="middle" x="486.5" y="-64.5" font-family="Helvetica,sans-Serif" font-size="10.00">rand_fld_h1</text>
</a>
</g>
</g>
<!-- Node2 -->
<g id="node2" class="node">
<title>Node2</title>
<g id="a_node2"><a xlink:href="eigsolv_8f.html#a641903cf1502c362e017e07dcb6cae02" target="_top" xlink:title=" ">
<polygon fill="white" stroke="black" points="370,-57.5 370,-76.5 417,-76.5 417,-57.5 370,-57.5"/>
<text text-anchor="middle" x="393.5" y="-64.5" font-family="Helvetica,sans-Serif" font-size="10.00">startx1</text>
</a>
</g>
</g>
<!-- Node1&#45;&gt;Node2 -->
<g id="edge1" class="edge">
<title>Node1&#45;&gt;Node2</title>
<path fill="none" stroke="midnightblue" d="M442.7,-67C433.89,-67 424.94,-67 417.18,-67"/>
<polygon fill="midnightblue" stroke="midnightblue" points="442.9,-70.5 452.9,-67 442.9,-63.5 442.9,-70.5"/>
</g>
<!-- Node3 -->
<g id="node3" class="node">
<title>Node3</title>
<g id="a_node3"><a xlink:href="eigsolv_8f.html#a285ca4aa2354ca8584af31946d6761c2" target="_top" xlink:title=" ">
<polygon fill="white" stroke="black" points="276.5,-76.5 276.5,-95.5 329.5,-95.5 329.5,-76.5 276.5,-76.5"/>
<text text-anchor="middle" x="303" y="-83.5" font-family="Helvetica,sans-Serif" font-size="10.00">alpham1</text>
</a>
</g>
</g>
<!-- Node2&#45;&gt;Node3 -->
<g id="edge2" class="edge">
<title>Node2&#45;&gt;Node3</title>
<path fill="none" stroke="midnightblue" d="M359.71,-74.04C349.74,-76.18 338.94,-78.5 329.52,-80.52"/>
<polygon fill="midnightblue" stroke="midnightblue" points="360.67,-77.41 369.71,-71.89 359.2,-70.57 360.67,-77.41"/>
</g>
<!-- Node14 -->
<g id="node10" class="node">
<title>Node14</title>
<g id="a_node10"><a xlink:href="eigsolv_8f.html#a40aa959fb07551b7b3fe2e5bd7ed6fda" target="_top" xlink:title=" ">
<polygon fill="white" stroke="black" points="272,-38.5 272,-57.5 334,-57.5 334,-38.5 272,-38.5"/>
<text text-anchor="middle" x="303" y="-45.5" font-family="Helvetica,sans-Serif" font-size="10.00">gammam1</text>
</a>
</g>
</g>
<!-- Node2&#45;&gt;Node14 -->
<g id="edge9" class="edge">
<title>Node2&#45;&gt;Node14</title>
<path fill="none" stroke="midnightblue" d="M359.81,-59.98C351.38,-58.17 342.35,-56.23 334.06,-54.45"/>
<polygon fill="midnightblue" stroke="midnightblue" points="359.2,-63.43 369.71,-62.11 360.67,-56.59 359.2,-63.43"/>
</g>
<!-- Node4 -->
<g id="node4" class="node">
<title>Node4</title>
<g id="a_node4"><a xlink:href="eigsolv_8f.html#a91ddf7cb5ca6b19d1c736da5bf7386b3" target="_top" xlink:title=" ">
<polygon fill="white" stroke="black" points="191,-57.5 191,-76.5 236,-76.5 236,-57.5 191,-57.5"/>
<text text-anchor="middle" x="213.5" y="-64.5" font-family="Helvetica,sans-Serif" font-size="10.00">eigenv</text>
</a>
</g>
</g>
<!-- Node3&#45;&gt;Node4 -->
<g id="edge3" class="edge">
<title>Node3&#45;&gt;Node4</title>
<path fill="none" stroke="midnightblue" d="M266.32,-78.25C256.13,-76.04 245.34,-73.7 236.26,-71.72"/>
<polygon fill="midnightblue" stroke="midnightblue" points="265.71,-81.7 276.22,-80.4 267.19,-74.86 265.71,-81.7"/>
</g>
<!-- Node5 -->
<g id="node5" class="node">
<title>Node5</title>
<g id="a_node5"><a xlink:href="drive2_8f.html#a7f0d055bb47546a4859ac7d63339197e" target="_top" xlink:title=" ">
<polygon fill="white" stroke="black" points="110,-57.5 110,-76.5 155,-76.5 155,-57.5 110,-57.5"/>
<text text-anchor="middle" x="132.5" y="-64.5" font-family="Helvetica,sans-Serif" font-size="10.00">geneig</text>
</a>
</g>
</g>
<!-- Node4&#45;&gt;Node5 -->
<g id="edge4" class="edge">
<title>Node4&#45;&gt;Node5</title>
<path fill="none" stroke="midnightblue" d="M180.76,-67C172.13,-67 162.98,-67 155.06,-67"/>
<polygon fill="midnightblue" stroke="midnightblue" points="180.91,-70.5 190.91,-67 180.91,-63.5 180.91,-70.5"/>
</g>
<!-- Node6 -->
<g id="node6" class="node">
<title>Node6</title>
<g id="a_node6"><a xlink:href="ssolv_8f.html#a4bb42a5afabbba8c6518d83cbe481c17" target="_top" xlink:title=" ">
<polygon fill="white" stroke="black" points="11.5,-114.5 11.5,-133.5 62.5,-133.5 62.5,-114.5 11.5,-114.5"/>
<text text-anchor="middle" x="37" y="-121.5" font-family="Helvetica,sans-Serif" font-size="10.00">go1step</text>
</a>
</g>
</g>
<!-- Node5&#45;&gt;Node6 -->
<g id="edge5" class="edge">
<title>Node5&#45;&gt;Node6</title>
<path fill="none" stroke="midnightblue" d="M109.01,-82.6C98.53,-89.68 85.78,-98.02 74,-105 68.53,-108.24 62.45,-111.55 56.88,-114.48"/>
<polygon fill="midnightblue" stroke="midnightblue" points="111.28,-85.29 117.57,-76.76 107.34,-79.51 111.28,-85.29"/>
</g>
<!-- Node7 -->
<g id="node7" class="node">
<title>Node7</title>
<g id="a_node7"><a xlink:href="ssolv_8f.html#a2de8913c214fa083dcb088c57bd45272" target="_top" xlink:title=" ">
<polygon fill="white" stroke="red" points="14,-76.5 14,-95.5 60,-95.5 60,-76.5 14,-76.5"/>
<text text-anchor="middle" x="37" y="-83.5" font-family="Helvetica,sans-Serif" font-size="10.00">gostep</text>
</a>
</g>
</g>
<!-- Node5&#45;&gt;Node7 -->
<g id="edge6" class="edge">
<title>Node5&#45;&gt;Node7</title>
<path fill="none" stroke="midnightblue" d="M99.84,-73.43C86.82,-76.08 72.06,-79.08 60.22,-81.49"/>
<polygon fill="midnightblue" stroke="midnightblue" points="100.71,-76.83 109.81,-71.41 99.32,-69.97 100.71,-76.83"/>
</g>
<!-- Node9 -->
<g id="node8" class="node">
<title>Node9</title>
<g id="a_node8"><a xlink:href="drive1_8f.html#ae177ea7efac97f35241521b782a671c0" target="_top" xlink:title=" ">
<polygon fill="white" stroke="red" points="0,-38.5 0,-57.5 74,-57.5 74,-38.5 0,-38.5"/>
<text text-anchor="middle" x="37" y="-45.5" font-family="Helvetica,sans-Serif" font-size="10.00">nek_advance</text>
</a>
</g>
</g>
<!-- Node5&#45;&gt;Node9 -->
<g id="edge7" class="edge">
<title>Node5&#45;&gt;Node9</title>
<path fill="none" stroke="midnightblue" d="M99.84,-60.57C91.61,-58.89 82.67,-57.08 74.22,-55.36"/>
<polygon fill="midnightblue" stroke="midnightblue" points="99.32,-64.03 109.81,-62.59 100.71,-57.17 99.32,-64.03"/>
</g>
<!-- Node13 -->
<g id="node9" class="node">
<title>Node13</title>
<g id="a_node9"><a xlink:href="drive1_8f.html#a83f7c6d78ac4e68394f32533e847d0a3" target="_top" xlink:title=" ">
<polygon fill="white" stroke="red" points="12,-0.5 12,-19.5 62,-19.5 62,-0.5 12,-0.5"/>
<text text-anchor="middle" x="37" y="-7.5" font-family="Helvetica,sans-Serif" font-size="10.00">nek_init</text>
</a>
</g>
</g>
<!-- Node5&#45;&gt;Node13 -->
<g id="edge8" class="edge">
<title>Node5&#45;&gt;Node13</title>
<path fill="none" stroke="midnightblue" d="M109.01,-51.4C98.53,-44.32 85.78,-35.98 74,-29 68.53,-25.76 62.45,-22.45 56.88,-19.52"/>
<polygon fill="midnightblue" stroke="midnightblue" points="107.34,-54.49 117.57,-57.24 111.28,-48.71 107.34,-54.49"/>
</g>
<!-- Node14&#45;&gt;Node4 -->
<g id="edge10" class="edge">
<title>Node14&#45;&gt;Node4</title>
<path fill="none" stroke="midnightblue" d="M261.99,-56.69C253.07,-58.62 243.94,-60.61 236.11,-62.31"/>
<polygon fill="midnightblue" stroke="midnightblue" points="262.86,-60.08 271.89,-54.54 261.37,-53.24 262.86,-60.08"/>
</g>
</g>
</svg>
