<?xml version="1.0" encoding="UTF-8" standalone="no"?>
<!DOCTYPE svg PUBLIC "-//W3C//DTD SVG 1.1//EN"
 "http://www.w3.org/Graphics/SVG/1.1/DTD/svg11.dtd">
<!-- Generated by graphviz version 2.46.0 (0)
 -->
<!-- Title: get_local_crs Pages: 1 -->
<svg width="453pt" height="256pt"
 viewBox="0.00 0.00 453.00 256.00" xmlns="http://www.w3.org/2000/svg" xmlns:xlink="http://www.w3.org/1999/xlink">
<g id="graph0" class="graph" transform="scale(1 1) rotate(0) translate(4 252)">
<title>get_local_crs</title>
<polygon fill="white" stroke="transparent" points="-4,4 -4,-252 449,-252 449,4 -4,4"/>
<!-- Node1 -->
<g id="node1" class="node">
<title>Node1</title>
<g id="a_node1"><a xlink:title=" ">
<polygon fill="#bfbfbf" stroke="black" points="0,-114.5 0,-133.5 74,-133.5 74,-114.5 0,-114.5"/>
<text text-anchor="middle" x="37" y="-121.5" font-family="Helvetica,sans-Serif" font-size="10.00">get_local_crs</text>
</a>
</g>
</g>
<!-- Node2 -->
<g id="node2" class="node">
<title>Node2</title>
<g id="a_node2"><a xlink:href="navier8_8f.html#a63d86b9de1a2e04d10bea78d425bc3d7" target="_top" xlink:title=" ">
<polygon fill="white" stroke="black" points="110,-171.5 110,-190.5 193,-190.5 193,-171.5 110,-171.5"/>
<text text-anchor="middle" x="151.5" y="-178.5" font-family="Helvetica,sans-Serif" font-size="10.00">a_crs_enriched</text>
</a>
</g>
</g>
<!-- Node1&#45;&gt;Node2 -->
<g id="edge1" class="edge">
<title>Node1&#45;&gt;Node2</title>
<path fill="none" stroke="midnightblue" d="M56.83,-133.54C74.76,-142.62 101.97,-156.41 122.45,-166.79"/>
<polygon fill="midnightblue" stroke="midnightblue" points="121.11,-170.03 131.61,-171.43 124.27,-163.79 121.11,-170.03"/>
</g>
<!-- Node8 -->
<g id="node6" class="node">
<title>Node8</title>
<g id="a_node6"><a xlink:href="byte_8c.html#a2da8eeb074dfd3ffbfb3e9a4d301cda4" target="_top" xlink:title=" ">
<polygon fill="white" stroke="black" points="322.5,-76.5 322.5,-95.5 357.5,-95.5 357.5,-76.5 322.5,-76.5"/>
<text text-anchor="middle" x="340" y="-83.5" font-family="Helvetica,sans-Serif" font-size="10.00">exitt</text>
</a>
</g>
</g>
<!-- Node1&#45;&gt;Node8 -->
<g id="edge7" class="edge">
<title>Node1&#45;&gt;Node8</title>
<path fill="none" stroke="midnightblue" d="M74.01,-119.45C135.18,-111.73 258.01,-96.22 312.23,-89.38"/>
<polygon fill="midnightblue" stroke="midnightblue" points="312.94,-92.82 322.42,-88.09 312.06,-85.87 312.94,-92.82"/>
</g>
<!-- Node11 -->
<g id="node8" class="node">
<title>Node11</title>
<g id="a_node8"><a xlink:href="navier8_8f.html#a8b6e50cdeb42b0751c582c0e11893f99" target="_top" xlink:title=" ">
<polygon fill="white" stroke="red" points="115,-57.5 115,-76.5 188,-76.5 188,-57.5 115,-57.5"/>
<text text-anchor="middle" x="151.5" y="-64.5" font-family="Helvetica,sans-Serif" font-size="10.00">map_m_to_n</text>
</a>
</g>
</g>
<!-- Node1&#45;&gt;Node11 -->
<g id="edge9" class="edge">
<title>Node1&#45;&gt;Node11</title>
<path fill="none" stroke="midnightblue" d="M56.83,-114.46C74.76,-105.38 101.97,-91.59 122.45,-81.21"/>
<polygon fill="midnightblue" stroke="midnightblue" points="124.27,-84.21 131.61,-76.57 121.11,-77.97 124.27,-84.21"/>
</g>
<!-- Node3 -->
<g id="node3" class="node">
<title>Node3</title>
<g id="a_node3"><a xlink:href="navier8_8f.html#a592a459c40301b55f5a259c9228e712e" target="_top" xlink:title=" ">
<polygon fill="white" stroke="black" points="229,-228.5 229,-247.5 285,-247.5 285,-228.5 229,-228.5"/>
<text text-anchor="middle" x="257" y="-235.5" font-family="Helvetica,sans-Serif" font-size="10.00">a_crs_2d</text>
</a>
</g>
</g>
<!-- Node2&#45;&gt;Node3 -->
<g id="edge2" class="edge">
<title>Node2&#45;&gt;Node3</title>
<path fill="none" stroke="midnightblue" d="M170.06,-190.67C186.44,-199.69 211.09,-213.27 229.8,-223.57"/>
<polygon fill="midnightblue" stroke="midnightblue" points="228.25,-226.72 238.7,-228.47 231.63,-220.58 228.25,-226.72"/>
</g>
<!-- Node4 -->
<g id="node4" class="node">
<title>Node4</title>
<g id="a_node4"><a xlink:href="math_8f.html#af44de42b023a4a68cd98ea341204342d" target="_top" xlink:title=" ">
<polygon fill="white" stroke="black" points="321,-190.5 321,-209.5 359,-209.5 359,-190.5 321,-190.5"/>
<text text-anchor="middle" x="340" y="-197.5" font-family="Helvetica,sans-Serif" font-size="10.00">rzero</text>
</a>
</g>
</g>
<!-- Node2&#45;&gt;Node4 -->
<g id="edge6" class="edge">
<title>Node2&#45;&gt;Node4</title>
<path fill="none" stroke="midnightblue" d="M193.43,-185.17C228.92,-188.79 279.36,-193.92 310.58,-197.11"/>
<polygon fill="midnightblue" stroke="midnightblue" points="310.47,-200.61 320.77,-198.14 311.18,-193.65 310.47,-200.61"/>
</g>
<!-- Node5 -->
<g id="node5" class="node">
<title>Node5</title>
<g id="a_node5"><a xlink:href="navier8_8f.html#a3fbb7f88e8a03897afe11d2999b4d212" target="_top" xlink:title=" ">
<polygon fill="white" stroke="red" points="229,-152.5 229,-171.5 285,-171.5 285,-152.5 229,-152.5"/>
<text text-anchor="middle" x="257" y="-159.5" font-family="Helvetica,sans-Serif" font-size="10.00">a_crs_3d</text>
</a>
</g>
</g>
<!-- Node2&#45;&gt;Node5 -->
<g id="edge4" class="edge">
<title>Node2&#45;&gt;Node5</title>
<path fill="none" stroke="midnightblue" d="M193.11,-173.55C201.64,-171.98 210.6,-170.33 219,-168.79"/>
<polygon fill="midnightblue" stroke="midnightblue" points="219.69,-172.22 228.89,-166.98 218.43,-165.34 219.69,-172.22"/>
</g>
<!-- Node3&#45;&gt;Node4 -->
<g id="edge3" class="edge">
<title>Node3&#45;&gt;Node4</title>
<path fill="none" stroke="midnightblue" d="M278.44,-228.41C288.52,-223.68 300.81,-217.92 311.68,-212.82"/>
<polygon fill="midnightblue" stroke="midnightblue" points="313.21,-215.96 320.78,-208.55 310.24,-209.63 313.21,-215.96"/>
</g>
<!-- Node5&#45;&gt;Node4 -->
<g id="edge5" class="edge">
<title>Node5&#45;&gt;Node4</title>
<path fill="none" stroke="midnightblue" d="M278.44,-171.59C288.52,-176.32 300.81,-182.08 311.68,-187.18"/>
<polygon fill="midnightblue" stroke="midnightblue" points="310.24,-190.37 320.78,-191.45 313.21,-184.04 310.24,-190.37"/>
</g>
<!-- Node9 -->
<g id="node7" class="node">
<title>Node9</title>
<g id="a_node7"><a xlink:href="comm__mpi_8f.html#acc8803a3787828530843112e0c48941b" target="_top" xlink:title=" ">
<polygon fill="white" stroke="red" points="395,-76.5 395,-95.5 445,-95.5 445,-76.5 395,-76.5"/>
<text text-anchor="middle" x="420" y="-83.5" font-family="Helvetica,sans-Serif" font-size="10.00">nek_die</text>
</a>
</g>
</g>
<!-- Node8&#45;&gt;Node9 -->
<g id="edge8" class="edge">
<title>Node8&#45;&gt;Node9</title>
<path fill="none" stroke="midnightblue" d="M357.54,-86C365.49,-86 375.32,-86 384.78,-86"/>
<polygon fill="midnightblue" stroke="midnightblue" points="384.78,-89.5 394.78,-86 384.78,-82.5 384.78,-89.5"/>
</g>
<!-- Node11&#45;&gt;Node8 -->
<g id="edge10" class="edge">
<title>Node11&#45;&gt;Node8</title>
<path fill="none" stroke="midnightblue" d="M188.02,-70.62C224.1,-74.29 279.19,-79.91 311.9,-83.24"/>
<polygon fill="midnightblue" stroke="midnightblue" points="311.77,-86.74 322.08,-84.28 312.48,-79.78 311.77,-86.74"/>
</g>
<!-- Node12 -->
<g id="node9" class="node">
<title>Node12</title>
<g id="a_node9"><a xlink:href="speclib_8f.html#ab14f01571bb13d5185f4a8b163c1958a" target="_top" xlink:title=" ">
<polygon fill="white" stroke="red" points="238.5,-38.5 238.5,-57.5 275.5,-57.5 275.5,-38.5 238.5,-38.5"/>
<text text-anchor="middle" x="257" y="-45.5" font-family="Helvetica,sans-Serif" font-size="10.00">igllm</text>
</a>
</g>
</g>
<!-- Node11&#45;&gt;Node12 -->
<g id="edge11" class="edge">
<title>Node11&#45;&gt;Node12</title>
<path fill="none" stroke="midnightblue" d="M188.12,-60.46C201.23,-58.05 215.89,-55.36 228.21,-53.1"/>
<polygon fill="midnightblue" stroke="midnightblue" points="229.14,-56.49 238.35,-51.24 227.88,-49.6 229.14,-56.49"/>
</g>
<!-- Node16 -->
<g id="node10" class="node">
<title>Node16</title>
<g id="a_node10"><a xlink:href="navier8_8f.html#a5c307bcd1af1a0036e75f65db3d06e39" target="_top" xlink:title=" ">
<polygon fill="white" stroke="black" points="229,-0.5 229,-19.5 285,-19.5 285,-0.5 229,-0.5"/>
<text text-anchor="middle" x="257" y="-7.5" font-family="Helvetica,sans-Serif" font-size="10.00">specmpn</text>
</a>
</g>
</g>
<!-- Node11&#45;&gt;Node16 -->
<g id="edge12" class="edge">
<title>Node11&#45;&gt;Node16</title>
<path fill="none" stroke="midnightblue" d="M170.06,-57.33C186.44,-48.31 211.09,-34.73 229.8,-24.43"/>
<polygon fill="midnightblue" stroke="midnightblue" points="231.63,-27.42 238.7,-19.53 228.25,-21.28 231.63,-27.42"/>
</g>
<!-- Node16&#45;&gt;Node8 -->
<g id="edge13" class="edge">
<title>Node16&#45;&gt;Node8</title>
<path fill="none" stroke="midnightblue" d="M272.69,-19.55C276.8,-22.43 281.18,-25.7 285,-29 299.11,-41.19 313.56,-56.63 323.96,-68.37"/>
<polygon fill="midnightblue" stroke="midnightblue" points="321.54,-70.92 330.75,-76.15 326.81,-66.32 321.54,-70.92"/>
</g>
</g>
</svg>
