<?xml version="1.0" encoding="UTF-8" standalone="no"?>
<!DOCTYPE svg PUBLIC "-//W3C//DTD SVG 1.1//EN"
 "http://www.w3.org/Graphics/SVG/1.1/DTD/svg11.dtd">
<!-- Generated by graphviz version 2.46.0 (0)
 -->
<!-- Title: filter_d2 Pages: 1 -->
<svg width="251pt" height="256pt"
 viewBox="0.00 0.00 251.00 256.00" xmlns="http://www.w3.org/2000/svg" xmlns:xlink="http://www.w3.org/1999/xlink">
<g id="graph0" class="graph" transform="scale(1 1) rotate(0) translate(4 252)">
<title>filter_d2</title>
<polygon fill="white" stroke="transparent" points="-4,4 -4,-252 247,-252 247,4 -4,4"/>
<!-- Node1 -->
<g id="node1" class="node">
<title>Node1</title>
<g id="a_node1"><a xlink:title=" ">
<polygon fill="#bfbfbf" stroke="black" points="0,-95.5 0,-114.5 51,-114.5 51,-95.5 0,-95.5"/>
<text text-anchor="middle" x="25.5" y="-102.5" font-family="Helvetica,sans-Serif" font-size="10.00">filter_d2</text>
</a>
</g>
</g>
<!-- Node2 -->
<g id="node2" class="node">
<title>Node2</title>
<g id="a_node2"><a xlink:href="ic_8f.html#a12fbcc70f37b3490eeda7dfb002dcc7d" target="_top" xlink:title=" ">
<polygon fill="white" stroke="black" points="102.5,-190.5 102.5,-209.5 145.5,-209.5 145.5,-190.5 102.5,-190.5"/>
<text text-anchor="middle" x="124" y="-197.5" font-family="Helvetica,sans-Serif" font-size="10.00">dsavg</text>
</a>
</g>
</g>
<!-- Node1&#45;&gt;Node2 -->
<g id="edge1" class="edge">
<title>Node1&#45;&gt;Node2</title>
<path fill="none" stroke="midnightblue" d="M32.5,-114.95C42.31,-130.6 63.11,-161.2 87,-181 89,-182.66 91.17,-184.23 93.41,-185.71"/>
<polygon fill="midnightblue" stroke="midnightblue" points="91.88,-188.87 102.27,-190.92 95.43,-182.84 91.88,-188.87"/>
</g>
<!-- Node9 -->
<g id="node5" class="node">
<title>Node9</title>
<g id="a_node5"><a xlink:href="math_8f.html#ad52d460588be4ef01891806b14c0ecda" target="_top" xlink:title=" ">
<polygon fill="white" stroke="black" points="100,-152.5 100,-171.5 148,-171.5 148,-152.5 100,-152.5"/>
<text text-anchor="middle" x="124" y="-159.5" font-family="Helvetica,sans-Serif" font-size="10.00">glamax</text>
</a>
</g>
</g>
<!-- Node1&#45;&gt;Node9 -->
<g id="edge4" class="edge">
<title>Node1&#45;&gt;Node9</title>
<path fill="none" stroke="midnightblue" d="M41.23,-114.69C53.36,-122.56 71.1,-133.83 87,-143 89.67,-144.54 92.47,-146.11 95.29,-147.64"/>
<polygon fill="midnightblue" stroke="midnightblue" points="93.7,-150.77 104.17,-152.4 97.01,-144.6 93.7,-150.77"/>
</g>
<!-- Node12 -->
<g id="node7" class="node">
<title>Node12</title>
<g id="a_node7"><a xlink:href="navier5_8f.html#a53feb767cebebba399ab3c5a50f53155" target="_top" xlink:title=" ">
<polygon fill="white" stroke="black" points="91,-114.5 91,-133.5 157,-133.5 157,-114.5 91,-114.5"/>
<text text-anchor="middle" x="124" y="-121.5" font-family="Helvetica,sans-Serif" font-size="10.00">local_grad2</text>
</a>
</g>
</g>
<!-- Node1&#45;&gt;Node12 -->
<g id="edge6" class="edge">
<title>Node1&#45;&gt;Node12</title>
<path fill="none" stroke="midnightblue" d="M51.1,-109.84C60.15,-111.62 70.67,-113.7 80.82,-115.7"/>
<polygon fill="midnightblue" stroke="midnightblue" points="80.3,-119.16 90.79,-117.66 81.65,-112.29 80.3,-119.16"/>
</g>
<!-- Node13 -->
<g id="node8" class="node">
<title>Node13</title>
<g id="a_node8"><a xlink:href="navier1_8f.html#ae908e5bde6b07e75595edf098842ff9d" target="_top" xlink:title=" ">
<polygon fill="white" stroke="red" points="87,-76.5 87,-95.5 161,-95.5 161,-76.5 87,-76.5"/>
<text text-anchor="middle" x="124" y="-83.5" font-family="Helvetica,sans-Serif" font-size="10.00">local_grad2_t</text>
</a>
</g>
</g>
<!-- Node1&#45;&gt;Node13 -->
<g id="edge7" class="edge">
<title>Node1&#45;&gt;Node13</title>
<path fill="none" stroke="midnightblue" d="M51.1,-100.16C58.97,-98.61 67.96,-96.84 76.85,-95.09"/>
<polygon fill="midnightblue" stroke="midnightblue" points="77.65,-98.5 86.78,-93.13 76.29,-91.63 77.65,-98.5"/>
</g>
<!-- Node15 -->
<g id="node9" class="node">
<title>Node15</title>
<g id="a_node9"><a xlink:href="navier5_8f.html#ad24367e4a843f60b63a2205aef1ba551" target="_top" xlink:title=" ">
<polygon fill="white" stroke="black" points="91,-38.5 91,-57.5 157,-57.5 157,-38.5 91,-38.5"/>
<text text-anchor="middle" x="124" y="-45.5" font-family="Helvetica,sans-Serif" font-size="10.00">local_grad3</text>
</a>
</g>
</g>
<!-- Node1&#45;&gt;Node15 -->
<g id="edge8" class="edge">
<title>Node1&#45;&gt;Node15</title>
<path fill="none" stroke="midnightblue" d="M41.23,-95.31C53.36,-87.44 71.1,-76.17 87,-67 89.67,-65.46 92.47,-63.89 95.29,-62.36"/>
<polygon fill="midnightblue" stroke="midnightblue" points="97.01,-65.4 104.17,-57.6 93.7,-59.23 97.01,-65.4"/>
</g>
<!-- Node16 -->
<g id="node10" class="node">
<title>Node16</title>
<g id="a_node10"><a xlink:href="navier1_8f.html#a4da1f2ddd2e05506f058713df8079138" target="_top" xlink:title=" ">
<polygon fill="white" stroke="red" points="87,-0.5 87,-19.5 161,-19.5 161,-0.5 87,-0.5"/>
<text text-anchor="middle" x="124" y="-7.5" font-family="Helvetica,sans-Serif" font-size="10.00">local_grad3_t</text>
</a>
</g>
</g>
<!-- Node1&#45;&gt;Node16 -->
<g id="edge9" class="edge">
<title>Node1&#45;&gt;Node16</title>
<path fill="none" stroke="midnightblue" d="M32.5,-95.05C42.31,-79.4 63.11,-48.8 87,-29 88.72,-27.57 90.57,-26.2 92.49,-24.91"/>
<polygon fill="midnightblue" stroke="midnightblue" points="94.39,-27.85 101.15,-19.68 90.78,-21.85 94.39,-27.85"/>
</g>
<!-- Node3 -->
<g id="node3" class="node">
<title>Node3</title>
<g id="a_node3"><a xlink:href="math_8f.html#a3470db04166d9ba91454a14cc17dbec2" target="_top" xlink:title=" ">
<polygon fill="white" stroke="red" points="202.5,-228.5 202.5,-247.5 237.5,-247.5 237.5,-228.5 202.5,-228.5"/>
<text text-anchor="middle" x="220" y="-235.5" font-family="Helvetica,sans-Serif" font-size="10.00">col2</text>
</a>
</g>
</g>
<!-- Node2&#45;&gt;Node3 -->
<g id="edge2" class="edge">
<title>Node2&#45;&gt;Node3</title>
<path fill="none" stroke="midnightblue" d="M145.86,-208.43C159.66,-214.01 177.87,-221.37 192.66,-227.35"/>
<polygon fill="midnightblue" stroke="midnightblue" points="191.68,-230.73 202.27,-231.24 194.31,-224.24 191.68,-230.73"/>
</g>
<!-- Node6 -->
<g id="node4" class="node">
<title>Node6</title>
<g id="a_node4"><a xlink:href="dssum_8f.html#ad67373714b1c3bafed536081167e2cd6" target="_top" xlink:title=" ">
<polygon fill="white" stroke="red" points="197,-190.5 197,-209.5 243,-209.5 243,-190.5 197,-190.5"/>
<text text-anchor="middle" x="220" y="-197.5" font-family="Helvetica,sans-Serif" font-size="10.00">dssum</text>
</a>
</g>
</g>
<!-- Node2&#45;&gt;Node6 -->
<g id="edge3" class="edge">
<title>Node2&#45;&gt;Node6</title>
<path fill="none" stroke="midnightblue" d="M145.86,-200C157.81,-200 173.07,-200 186.55,-200"/>
<polygon fill="midnightblue" stroke="midnightblue" points="186.89,-203.5 196.89,-200 186.89,-196.5 186.89,-203.5"/>
</g>
<!-- Node10 -->
<g id="node6" class="node">
<title>Node10</title>
<g id="a_node6"><a xlink:href="gs__test__gop__blocking_8c.html#ab2e24f9857f6d1ded7e4d556c6bc5e49" target="_top" xlink:title=" ">
<polygon fill="white" stroke="red" points="204,-152.5 204,-171.5 236,-171.5 236,-152.5 204,-152.5"/>
<text text-anchor="middle" x="220" y="-159.5" font-family="Helvetica,sans-Serif" font-size="10.00">gop</text>
</a>
</g>
</g>
<!-- Node9&#45;&gt;Node10 -->
<g id="edge5" class="edge">
<title>Node9&#45;&gt;Node10</title>
<path fill="none" stroke="midnightblue" d="M148.24,-162C162.1,-162 179.71,-162 193.89,-162"/>
<polygon fill="midnightblue" stroke="midnightblue" points="193.95,-165.5 203.95,-162 193.95,-158.5 193.95,-165.5"/>
</g>
</g>
</svg>
