<?xml version="1.0" encoding="UTF-8" standalone="no"?>
<!DOCTYPE svg PUBLIC "-//W3C//DTD SVG 1.1//EN"
 "http://www.w3.org/Graphics/SVG/1.1/DTD/svg11.dtd">
<!-- Generated by graphviz version 2.46.0 (0)
 -->
<!-- Title: mappr Pages: 1 -->
<svg width="614pt" height="116pt"
 viewBox="0.00 0.00 614.00 115.73" xmlns="http://www.w3.org/2000/svg" xmlns:xlink="http://www.w3.org/1999/xlink">
<g id="graph0" class="graph" transform="scale(1 1) rotate(0) translate(4 111.73)">
<title>mappr</title>
<polygon fill="white" stroke="transparent" points="-4,4 -4,-111.73 610,-111.73 610,4 -4,4"/>
<!-- Node1 -->
<g id="node1" class="node">
<title>Node1</title>
<g id="a_node1"><a xlink:title=" ">
<polygon fill="#bfbfbf" stroke="black" points="562,-38.5 562,-57.5 606,-57.5 606,-38.5 562,-38.5"/>
<text text-anchor="middle" x="584" y="-45.5" font-family="Helvetica,sans-Serif" font-size="10.00">mappr</text>
</a>
</g>
</g>
<!-- Node2 -->
<g id="node2" class="node">
<title>Node2</title>
<g id="a_node2"><a xlink:href="multimesh_8f.html#ab824f6e230e0482379512f8c4bb2b459" target="_top" xlink:title=" ">
<polygon fill="white" stroke="black" points="431,-76.5 431,-95.5 526,-95.5 526,-76.5 431,-76.5"/>
<text text-anchor="middle" x="478.5" y="-83.5" font-family="Helvetica,sans-Serif" font-size="10.00">neknek_exchange</text>
</a>
</g>
</g>
<!-- Node1&#45;&gt;Node2 -->
<g id="edge1" class="edge">
<title>Node1&#45;&gt;Node2</title>
<path fill="none" stroke="midnightblue" d="M552.03,-59.37C537.18,-64.82 519.58,-71.29 505.44,-76.48"/>
<polygon fill="midnightblue" stroke="midnightblue" points="553.62,-62.51 561.81,-55.78 551.21,-55.94 553.62,-62.51"/>
</g>
<!-- Node8 -->
<g id="node8" class="node">
<title>Node8</title>
<g id="a_node8"><a xlink:href="navier5_8f.html#a452fc6ce45aa3c40dbc48fa0353cb965" target="_top" xlink:title=" ">
<polygon fill="white" stroke="black" points="434.5,-38.5 434.5,-57.5 522.5,-57.5 522.5,-38.5 434.5,-38.5"/>
<text text-anchor="middle" x="478.5" y="-45.5" font-family="Helvetica,sans-Serif" font-size="10.00">shear_calc_max</text>
</a>
</g>
</g>
<!-- Node1&#45;&gt;Node8 -->
<g id="edge9" class="edge">
<title>Node1&#45;&gt;Node8</title>
<path fill="none" stroke="midnightblue" d="M551.7,-48C542.62,-48 532.55,-48 522.88,-48"/>
<polygon fill="midnightblue" stroke="midnightblue" points="551.81,-51.5 561.81,-48 551.81,-44.5 551.81,-51.5"/>
</g>
<!-- Node9 -->
<g id="node9" class="node">
<title>Node9</title>
<g id="a_node9"><a xlink:href="navier5_8f.html#ae07d390b2886c4cf09b559441f55dd3f" target="_top" xlink:title=" ">
<polygon fill="white" stroke="black" points="445,-0.5 445,-19.5 512,-19.5 512,-0.5 445,-0.5"/>
<text text-anchor="middle" x="478.5" y="-7.5" font-family="Helvetica,sans-Serif" font-size="10.00">torque_calc</text>
</a>
</g>
</g>
<!-- Node1&#45;&gt;Node9 -->
<g id="edge10" class="edge">
<title>Node1&#45;&gt;Node9</title>
<path fill="none" stroke="midnightblue" d="M552.03,-36.63C537.18,-31.18 519.58,-24.71 505.44,-19.52"/>
<polygon fill="midnightblue" stroke="midnightblue" points="551.21,-40.06 561.81,-40.22 553.62,-33.49 551.21,-40.06"/>
</g>
<!-- Node3 -->
<g id="node3" class="node">
<title>Node3</title>
<g id="a_node3"><a xlink:href="drive1_8f.html#a18d3e839786263fc4cf91f7eeb714371" target="_top" xlink:title=" ">
<polygon fill="white" stroke="black" points="179,-76.5 179,-95.5 285,-95.5 285,-76.5 179,-76.5"/>
<text text-anchor="middle" x="232" y="-83.5" font-family="Helvetica,sans-Serif" font-size="10.00">nek__multi_advance</text>
</a>
</g>
</g>
<!-- Node2&#45;&gt;Node3 -->
<g id="edge2" class="edge">
<title>Node2&#45;&gt;Node3</title>
<path fill="none" stroke="midnightblue" d="M434.31,-97.88C421.73,-100.81 407.91,-103.53 395,-105 362.32,-108.71 353.7,-108.49 321,-105 303.59,-103.14 284.57,-99.27 268.68,-95.51"/>
<polygon fill="midnightblue" stroke="midnightblue" points="435.19,-101.27 444.08,-95.51 433.54,-94.47 435.19,-101.27"/>
</g>
<!-- Node6 -->
<g id="node6" class="node">
<title>Node6</title>
<g id="a_node6"><a xlink:href="drive1_8f.html#ae177ea7efac97f35241521b782a671c0" target="_top" xlink:title=" ">
<polygon fill="white" stroke="black" points="321,-76.5 321,-95.5 395,-95.5 395,-76.5 321,-76.5"/>
<text text-anchor="middle" x="358" y="-83.5" font-family="Helvetica,sans-Serif" font-size="10.00">nek_advance</text>
</a>
</g>
</g>
<!-- Node2&#45;&gt;Node6 -->
<g id="edge5" class="edge">
<title>Node2&#45;&gt;Node6</title>
<path fill="none" stroke="midnightblue" d="M420.61,-86C411.99,-86 403.29,-86 395.26,-86"/>
<polygon fill="midnightblue" stroke="midnightblue" points="420.67,-89.5 430.67,-86 420.67,-82.5 420.67,-89.5"/>
</g>
<!-- Node7 -->
<g id="node7" class="node">
<title>Node7</title>
<g id="a_node7"><a xlink:href="drive1_8f.html#a83f7c6d78ac4e68394f32533e847d0a3" target="_top" xlink:title=" ">
<polygon fill="white" stroke="black" points="207,-38.5 207,-57.5 257,-57.5 257,-38.5 207,-38.5"/>
<text text-anchor="middle" x="232" y="-45.5" font-family="Helvetica,sans-Serif" font-size="10.00">nek_init</text>
</a>
</g>
</g>
<!-- Node2&#45;&gt;Node7 -->
<g id="edge7" class="edge">
<title>Node2&#45;&gt;Node7</title>
<path fill="none" stroke="midnightblue" d="M430.08,-74.14C418.64,-71.54 406.43,-68.98 395,-67 346.45,-58.59 289.06,-52.83 257.27,-50.01"/>
<polygon fill="midnightblue" stroke="midnightblue" points="429.36,-77.57 439.89,-76.42 430.94,-70.75 429.36,-77.57"/>
</g>
<!-- Node4 -->
<g id="node4" class="node">
<title>Node4</title>
<g id="a_node4"><a xlink:href="drive1_8f.html#a6ad57e0cf728f343e371ef8c9a02cd8a" target="_top" xlink:title=" ">
<polygon fill="white" stroke="black" points="82,-76.5 82,-95.5 143,-95.5 143,-76.5 82,-76.5"/>
<text text-anchor="middle" x="112.5" y="-83.5" font-family="Helvetica,sans-Serif" font-size="10.00">nek_solve</text>
</a>
</g>
</g>
<!-- Node3&#45;&gt;Node4 -->
<g id="edge3" class="edge">
<title>Node3&#45;&gt;Node4</title>
<path fill="none" stroke="midnightblue" d="M168.68,-86C159.74,-86 150.91,-86 143.02,-86"/>
<polygon fill="midnightblue" stroke="midnightblue" points="168.78,-89.5 178.78,-86 168.78,-82.5 168.78,-89.5"/>
</g>
<!-- Node5 -->
<g id="node5" class="node">
<title>Node5</title>
<g id="a_node5"><a xlink:href="drive_8f.html#a13048bf28dd0734640412d69349e3857" target="_top" xlink:title=" ">
<polygon fill="white" stroke="black" points="0,-57.5 0,-76.5 46,-76.5 46,-57.5 0,-57.5"/>
<text text-anchor="middle" x="23" y="-64.5" font-family="Helvetica,sans-Serif" font-size="10.00">nekton</text>
</a>
</g>
</g>
<!-- Node4&#45;&gt;Node5 -->
<g id="edge4" class="edge">
<title>Node4&#45;&gt;Node5</title>
<path fill="none" stroke="midnightblue" d="M72.02,-77.43C63.13,-75.5 54,-73.51 46.12,-71.8"/>
<polygon fill="midnightblue" stroke="midnightblue" points="71.36,-80.87 81.88,-79.57 72.85,-74.03 71.36,-80.87"/>
</g>
<!-- Node6&#45;&gt;Node3 -->
<g id="edge6" class="edge">
<title>Node6&#45;&gt;Node3</title>
<path fill="none" stroke="midnightblue" d="M310.56,-86C302.27,-86 293.58,-86 285.14,-86"/>
<polygon fill="midnightblue" stroke="midnightblue" points="310.8,-89.5 320.8,-86 310.8,-82.5 310.8,-89.5"/>
</g>
<!-- Node7&#45;&gt;Node5 -->
<g id="edge8" class="edge">
<title>Node7&#45;&gt;Node5</title>
<path fill="none" stroke="midnightblue" d="M196.65,-51.15C153.91,-55.08 82.18,-61.66 46.11,-64.97"/>
<polygon fill="midnightblue" stroke="midnightblue" points="197.21,-54.62 206.85,-50.22 196.57,-47.65 197.21,-54.62"/>
</g>
</g>
</svg>
