<?xml version="1.0" encoding="UTF-8" standalone="no"?>
<!DOCTYPE svg PUBLIC "-//W3C//DTD SVG 1.1//EN"
 "http://www.w3.org/Graphics/SVG/1.1/DTD/svg11.dtd">
<!-- Generated by graphviz version 2.46.0 (0)
 -->
<!-- Title: oprzero Pages: 1 -->
<svg width="334pt" height="180pt"
 viewBox="0.00 0.00 334.00 180.00" xmlns="http://www.w3.org/2000/svg" xmlns:xlink="http://www.w3.org/1999/xlink">
<g id="graph0" class="graph" transform="scale(1 1) rotate(0) translate(4 176)">
<title>oprzero</title>
<polygon fill="white" stroke="transparent" points="-4,4 -4,-176 330,-176 330,4 -4,4"/>
<!-- Node1 -->
<g id="node1" class="node">
<title>Node1</title>
<g id="a_node1"><a xlink:title=" ">
<polygon fill="#bfbfbf" stroke="black" points="277,-114.5 277,-133.5 326,-133.5 326,-114.5 277,-114.5"/>
<text text-anchor="middle" x="301.5" y="-121.5" font-family="Helvetica,sans-Serif" font-size="10.00">oprzero</text>
</a>
</g>
</g>
<!-- Node2 -->
<g id="node2" class="node">
<title>Node2</title>
<g id="a_node2"><a xlink:href="plan4_8f.html#a5d742e26cc1633cc4148de40f621d590" target="_top" xlink:title=" ">
<polygon fill="white" stroke="black" points="161,-152.5 161,-171.5 241,-171.5 241,-152.5 161,-152.5"/>
<text text-anchor="middle" x="201" y="-159.5" font-family="Helvetica,sans-Serif" font-size="10.00">cresvsp_weak</text>
</a>
</g>
</g>
<!-- Node1&#45;&gt;Node2 -->
<g id="edge1" class="edge">
<title>Node1&#45;&gt;Node2</title>
<path fill="none" stroke="midnightblue" d="M267.2,-136.85C253.97,-141.95 239.02,-147.72 226.78,-152.44"/>
<polygon fill="midnightblue" stroke="midnightblue" points="268.84,-139.97 276.91,-133.1 266.32,-133.44 268.84,-139.97"/>
</g>
<!-- Node13 -->
<g id="node5" class="node">
<title>Node13</title>
<g id="a_node5"><a xlink:href="navier1_8f.html#abbeba34699e7eb589d0952b328169cbb" target="_top" xlink:title=" ">
<polygon fill="white" stroke="black" points="175.5,-114.5 175.5,-133.5 226.5,-133.5 226.5,-114.5 175.5,-114.5"/>
<text text-anchor="middle" x="201" y="-121.5" font-family="Helvetica,sans-Serif" font-size="10.00">cresvuz</text>
</a>
</g>
</g>
<!-- Node1&#45;&gt;Node13 -->
<g id="edge4" class="edge">
<title>Node1&#45;&gt;Node13</title>
<path fill="none" stroke="midnightblue" d="M266.81,-124C253.68,-124 238.9,-124 226.78,-124"/>
<polygon fill="midnightblue" stroke="midnightblue" points="266.91,-127.5 276.91,-124 266.91,-120.5 266.91,-127.5"/>
</g>
<!-- Node15 -->
<g id="node7" class="node">
<title>Node15</title>
<g id="a_node7"><a xlink:href="navier1_8f.html#acfa4c928e27d1e43ed8622586e4ed7e8" target="_top" xlink:title=" ">
<polygon fill="white" stroke="black" points="180.5,-57.5 180.5,-76.5 221.5,-76.5 221.5,-57.5 180.5,-57.5"/>
<text text-anchor="middle" x="201" y="-64.5" font-family="Helvetica,sans-Serif" font-size="10.00">nekuf</text>
</a>
</g>
</g>
<!-- Node1&#45;&gt;Node15 -->
<g id="edge7" class="edge">
<title>Node1&#45;&gt;Node15</title>
<path fill="none" stroke="midnightblue" d="M275.04,-109.26C257.2,-98.95 233.9,-85.46 218.46,-76.53"/>
<polygon fill="midnightblue" stroke="midnightblue" points="273.38,-112.35 283.79,-114.33 276.89,-106.29 273.38,-112.35"/>
</g>
<!-- Node3 -->
<g id="node3" class="node">
<title>Node3</title>
<g id="a_node3"><a xlink:href="plan4_8f.html#a247fc105464de543a464773054eb509e" target="_top" xlink:title=" ">
<polygon fill="white" stroke="black" points="78,-152.5 78,-171.5 118,-171.5 118,-152.5 78,-152.5"/>
<text text-anchor="middle" x="98" y="-159.5" font-family="Helvetica,sans-Serif" font-size="10.00">plan4</text>
</a>
</g>
</g>
<!-- Node2&#45;&gt;Node3 -->
<g id="edge2" class="edge">
<title>Node2&#45;&gt;Node3</title>
<path fill="none" stroke="midnightblue" d="M150.84,-162C139.24,-162 127.55,-162 118.21,-162"/>
<polygon fill="midnightblue" stroke="midnightblue" points="150.95,-165.5 160.95,-162 150.95,-158.5 150.95,-165.5"/>
</g>
<!-- Node4 -->
<g id="node4" class="node">
<title>Node4</title>
<g id="a_node4"><a xlink:href="drive2_8f.html#ab0aeca9ad3db8be87a01ba29d069d71e" target="_top" xlink:title=" ">
<polygon fill="white" stroke="red" points="0,-133.5 0,-152.5 35,-152.5 35,-133.5 0,-133.5"/>
<text text-anchor="middle" x="17.5" y="-140.5" font-family="Helvetica,sans-Serif" font-size="10.00">fluid</text>
</a>
</g>
</g>
<!-- Node3&#45;&gt;Node4 -->
<g id="edge3" class="edge">
<title>Node3&#45;&gt;Node4</title>
<path fill="none" stroke="midnightblue" d="M68.24,-155.04C57.13,-152.35 44.8,-149.37 35.2,-147.04"/>
<polygon fill="midnightblue" stroke="midnightblue" points="67.45,-158.45 78,-157.4 69.1,-151.65 67.45,-158.45"/>
</g>
<!-- Node14 -->
<g id="node6" class="node">
<title>Node14</title>
<g id="a_node6"><a xlink:href="navier1_8f.html#a23e6343990072aa1a6b17109ccc7ba2b" target="_top" xlink:title=" ">
<polygon fill="white" stroke="black" points="78,-114.5 78,-133.5 118,-133.5 118,-114.5 78,-114.5"/>
<text text-anchor="middle" x="98" y="-121.5" font-family="Helvetica,sans-Serif" font-size="10.00">plan1</text>
</a>
</g>
</g>
<!-- Node13&#45;&gt;Node14 -->
<g id="edge5" class="edge">
<title>Node13&#45;&gt;Node14</title>
<path fill="none" stroke="midnightblue" d="M164.85,-124C149.14,-124 131.24,-124 118.07,-124"/>
<polygon fill="midnightblue" stroke="midnightblue" points="165.29,-127.5 175.29,-124 165.29,-120.5 165.29,-127.5"/>
</g>
<!-- Node14&#45;&gt;Node4 -->
<g id="edge6" class="edge">
<title>Node14&#45;&gt;Node4</title>
<path fill="none" stroke="midnightblue" d="M68.24,-130.96C57.13,-133.65 44.8,-136.63 35.2,-138.96"/>
<polygon fill="midnightblue" stroke="midnightblue" points="69.1,-134.35 78,-128.6 67.45,-127.55 69.1,-134.35"/>
</g>
<!-- Node16 -->
<g id="node8" class="node">
<title>Node16</title>
<g id="a_node8"><a xlink:href="navier1_8f.html#a04edbb4ba3cfada4513a76a4e65a5561" target="_top" xlink:title=" ">
<polygon fill="white" stroke="red" points="73.5,-76.5 73.5,-95.5 122.5,-95.5 122.5,-76.5 73.5,-76.5"/>
<text text-anchor="middle" x="98" y="-83.5" font-family="Helvetica,sans-Serif" font-size="10.00">makeuf</text>
</a>
</g>
</g>
<!-- Node15&#45;&gt;Node16 -->
<g id="edge8" class="edge">
<title>Node15&#45;&gt;Node16</title>
<path fill="none" stroke="midnightblue" d="M170.15,-72.61C155.05,-75.46 136.98,-78.86 122.82,-81.52"/>
<polygon fill="midnightblue" stroke="midnightblue" points="170.87,-76.04 180.05,-70.75 169.57,-69.16 170.87,-76.04"/>
</g>
<!-- Node26 -->
<g id="node9" class="node">
<title>Node26</title>
<g id="a_node9"><a xlink:href="induct_8f.html#af5c5de95e9599a2310e45c43ccfec084" target="_top" xlink:title=" ">
<polygon fill="white" stroke="red" points="71,-38.5 71,-57.5 125,-57.5 125,-38.5 71,-38.5"/>
<text text-anchor="middle" x="98" y="-45.5" font-family="Helvetica,sans-Serif" font-size="10.00">makeufb</text>
</a>
</g>
</g>
<!-- Node15&#45;&gt;Node26 -->
<g id="edge9" class="edge">
<title>Node15&#45;&gt;Node26</title>
<path fill="none" stroke="midnightblue" d="M170.17,-61.39C155.85,-58.69 138.84,-55.49 125.04,-52.9"/>
<polygon fill="midnightblue" stroke="midnightblue" points="169.57,-64.84 180.05,-63.25 170.87,-57.96 169.57,-64.84"/>
</g>
<!-- Node27 -->
<g id="node10" class="node">
<title>Node27</title>
<g id="a_node10"><a xlink:href="perturb_8f.html#a3df8d1923cc08a86bdf74e31daea9826" target="_top" xlink:title=" ">
<polygon fill="white" stroke="red" points="71,-0.5 71,-19.5 125,-19.5 125,-0.5 71,-0.5"/>
<text text-anchor="middle" x="98" y="-7.5" font-family="Helvetica,sans-Serif" font-size="10.00">makeufp</text>
</a>
</g>
</g>
<!-- Node15&#45;&gt;Node27 -->
<g id="edge10" class="edge">
<title>Node15&#45;&gt;Node27</title>
<path fill="none" stroke="midnightblue" d="M174.14,-52.41C155.82,-42.07 131.78,-28.5 115.88,-19.53"/>
<polygon fill="midnightblue" stroke="midnightblue" points="172.44,-55.46 182.87,-57.33 175.88,-49.37 172.44,-55.46"/>
</g>
</g>
</svg>
