<?xml version="1.0" encoding="UTF-8" standalone="no"?>
<!DOCTYPE svg PUBLIC "-//W3C//DTD SVG 1.1//EN"
 "http://www.w3.org/Graphics/SVG/1.1/DTD/svg11.dtd">
<!-- Generated by graphviz version 2.46.0 (0)
 -->
<!-- Title: convprn Pages: 1 -->
<svg width="235pt" height="104pt"
 viewBox="0.00 0.00 235.00 104.00" xmlns="http://www.w3.org/2000/svg" xmlns:xlink="http://www.w3.org/1999/xlink">
<g id="graph0" class="graph" transform="scale(1 1) rotate(0) translate(4 100)">
<title>convprn</title>
<polygon fill="white" stroke="transparent" points="-4,4 -4,-100 231,-100 231,4 -4,4"/>
<!-- Node1 -->
<g id="node1" class="node">
<title>Node1</title>
<g id="a_node1"><a xlink:title=" ">
<polygon fill="#bfbfbf" stroke="black" points="0,-38.5 0,-57.5 51,-57.5 51,-38.5 0,-38.5"/>
<text text-anchor="middle" x="25.5" y="-45.5" font-family="Helvetica,sans-Serif" font-size="10.00">convprn</text>
</a>
</g>
</g>
<!-- Node2 -->
<g id="node2" class="node">
<title>Node2</title>
<g id="a_node2"><a xlink:href="gs__test__gop__blocking_8c.html#ab2e24f9857f6d1ded7e4d556c6bc5e49" target="_top" xlink:title=" ">
<polygon fill="white" stroke="black" points="93.5,-76.5 93.5,-95.5 125.5,-95.5 125.5,-76.5 93.5,-76.5"/>
<text text-anchor="middle" x="109.5" y="-83.5" font-family="Helvetica,sans-Serif" font-size="10.00">gop</text>
</a>
</g>
</g>
<!-- Node1&#45;&gt;Node2 -->
<g id="edge1" class="edge">
<title>Node1&#45;&gt;Node2</title>
<path fill="none" stroke="midnightblue" d="M47.19,-57.59C58.39,-62.78 72.28,-69.22 84.01,-74.65"/>
<polygon fill="midnightblue" stroke="midnightblue" points="82.71,-77.9 93.25,-78.93 85.65,-71.55 82.71,-77.9"/>
</g>
<!-- Node4 -->
<g id="node4" class="node">
<title>Node4</title>
<g id="a_node4"><a xlink:href="math_8f.html#ab07e2f3ed4f12e1651e80df2497ffaa2" target="_top" xlink:title=" ">
<polygon fill="white" stroke="black" points="89.5,-38.5 89.5,-57.5 129.5,-57.5 129.5,-38.5 89.5,-38.5"/>
<text text-anchor="middle" x="109.5" y="-45.5" font-family="Helvetica,sans-Serif" font-size="10.00">vlsc2</text>
</a>
</g>
</g>
<!-- Node1&#45;&gt;Node4 -->
<g id="edge3" class="edge">
<title>Node1&#45;&gt;Node4</title>
<path fill="none" stroke="midnightblue" d="M51.1,-48C59.92,-48 69.95,-48 79.12,-48"/>
<polygon fill="midnightblue" stroke="midnightblue" points="79.39,-51.5 89.39,-48 79.39,-44.5 79.39,-51.5"/>
</g>
<!-- Node5 -->
<g id="node5" class="node">
<title>Node5</title>
<g id="a_node5"><a xlink:href="math_8f.html#a2de547dad76b44d32b2654e43cc62c6a" target="_top" xlink:title=" ">
<polygon fill="white" stroke="black" points="87,-0.5 87,-19.5 132,-19.5 132,-0.5 87,-0.5"/>
<text text-anchor="middle" x="109.5" y="-7.5" font-family="Helvetica,sans-Serif" font-size="10.00">vlsc21</text>
</a>
</g>
</g>
<!-- Node1&#45;&gt;Node5 -->
<g id="edge4" class="edge">
<title>Node1&#45;&gt;Node5</title>
<path fill="none" stroke="midnightblue" d="M47.19,-38.41C56.71,-34 68.18,-28.69 78.61,-23.85"/>
<polygon fill="midnightblue" stroke="midnightblue" points="80.21,-26.97 87.81,-19.59 77.27,-20.62 80.21,-26.97"/>
</g>
<!-- Node3 -->
<g id="node3" class="node">
<title>Node3</title>
<g id="a_node3"><a xlink:href="math_8f.html#a17c0ecae12cc5c6096939885da90ad2b" target="_top" xlink:title=" ">
<polygon fill="white" stroke="black" points="168,-76.5 168,-95.5 227,-95.5 227,-76.5 168,-76.5"/>
<text text-anchor="middle" x="197.5" y="-83.5" font-family="Helvetica,sans-Serif" font-size="10.00">transpose</text>
</a>
</g>
</g>
<!-- Node2&#45;&gt;Node3 -->
<g id="edge2" class="edge">
<title>Node2&#45;&gt;Node3</title>
<path fill="none" stroke="midnightblue" d="M125.88,-86C134.75,-86 146.35,-86 157.58,-86"/>
<polygon fill="midnightblue" stroke="midnightblue" points="157.7,-89.5 167.7,-86 157.7,-82.5 157.7,-89.5"/>
</g>
</g>
</svg>
