<?xml version="1.0" encoding="UTF-8" standalone="no"?>
<!DOCTYPE svg PUBLIC "-//W3C//DTD SVG 1.1//EN"
 "http://www.w3.org/Graphics/SVG/1.1/DTD/svg11.dtd">
<!-- Generated by graphviz version 2.46.0 (0)
 -->
<!-- Title: project1 Pages: 1 -->
<svg width="272pt" height="256pt"
 viewBox="0.00 0.00 272.00 256.00" xmlns="http://www.w3.org/2000/svg" xmlns:xlink="http://www.w3.org/1999/xlink">
<g id="graph0" class="graph" transform="scale(1 1) rotate(0) translate(4 252)">
<title>project1</title>
<polygon fill="white" stroke="transparent" points="-4,4 -4,-252 268,-252 268,4 -4,4"/>
<!-- Node1 -->
<g id="node1" class="node">
<title>Node1</title>
<g id="a_node1"><a xlink:title=" ">
<polygon fill="#bfbfbf" stroke="black" points="0,-114.5 0,-133.5 51,-133.5 51,-114.5 0,-114.5"/>
<text text-anchor="middle" x="25.5" y="-121.5" font-family="Helvetica,sans-Serif" font-size="10.00">project1</text>
</a>
</g>
</g>
<!-- Node2 -->
<g id="node2" class="node">
<title>Node2</title>
<g id="a_node2"><a xlink:href="comm__mpi_8f.html#af06ec29f06aac3f8809e19de2a7e8946" target="_top" xlink:title=" ">
<polygon fill="white" stroke="black" points="95,-228.5 95,-247.5 156,-247.5 156,-228.5 95,-228.5"/>
<text text-anchor="middle" x="125.5" y="-235.5" font-family="Helvetica,sans-Serif" font-size="10.00">dnekclock</text>
</a>
</g>
</g>
<!-- Node1&#45;&gt;Node2 -->
<g id="edge1" class="edge">
<title>Node1&#45;&gt;Node2</title>
<path fill="none" stroke="midnightblue" d="M30.48,-133.53C38.64,-152.1 58.89,-193.52 87,-219 88.5,-220.36 90.12,-221.65 91.81,-222.87"/>
<polygon fill="midnightblue" stroke="midnightblue" points="90.31,-226.06 100.66,-228.34 94,-220.11 90.31,-226.06"/>
</g>
<!-- Node4 -->
<g id="node4" class="node">
<title>Node4</title>
<g id="a_node4"><a xlink:href="math_8f.html#a2e1d409e78d80b2a41ac715c2d5f607b" target="_top" xlink:title=" ">
<polygon fill="white" stroke="black" points="105.5,-190.5 105.5,-209.5 145.5,-209.5 145.5,-190.5 105.5,-190.5"/>
<text text-anchor="middle" x="125.5" y="-197.5" font-family="Helvetica,sans-Serif" font-size="10.00">glsc3</text>
</a>
</g>
</g>
<!-- Node1&#45;&gt;Node4 -->
<g id="edge3" class="edge">
<title>Node1&#45;&gt;Node4</title>
<path fill="none" stroke="midnightblue" d="M35.21,-133.78C46.36,-145.91 66.69,-166.73 87,-181 89.89,-183.03 93.04,-184.98 96.23,-186.79"/>
<polygon fill="midnightblue" stroke="midnightblue" points="94.72,-189.96 105.2,-191.54 98,-183.77 94.72,-189.96"/>
</g>
<!-- Node7 -->
<g id="node6" class="node">
<title>Node7</title>
<g id="a_node6"><a xlink:href="navier4_8f.html#a926cb6c005087de9f53c1c109e4da1c6" target="_top" xlink:title=" ">
<polygon fill="white" stroke="red" points="97.5,-152.5 97.5,-171.5 153.5,-171.5 153.5,-152.5 97.5,-152.5"/>
<text text-anchor="middle" x="125.5" y="-159.5" font-family="Helvetica,sans-Serif" font-size="10.00">iproj_chk</text>
</a>
</g>
</g>
<!-- Node1&#45;&gt;Node7 -->
<g id="edge5" class="edge">
<title>Node1&#45;&gt;Node7</title>
<path fill="none" stroke="midnightblue" d="M51.23,-133.59C63.07,-138.18 77.44,-143.75 90.3,-148.74"/>
<polygon fill="midnightblue" stroke="midnightblue" points="89.19,-152.06 99.78,-152.41 91.72,-145.54 89.19,-152.06"/>
</g>
<!-- Node10 -->
<g id="node7" class="node">
<title>Node10</title>
<g id="a_node7"><a xlink:href="navier4_8f.html#a109157a86111959641f7980516ecd3d0" target="_top" xlink:title=" ">
<polygon fill="white" stroke="black" points="89.5,-114.5 89.5,-133.5 161.5,-133.5 161.5,-114.5 89.5,-114.5"/>
<text text-anchor="middle" x="125.5" y="-121.5" font-family="Helvetica,sans-Serif" font-size="10.00">proj_get_ivar</text>
</a>
</g>
</g>
<!-- Node1&#45;&gt;Node10 -->
<g id="edge6" class="edge">
<title>Node1&#45;&gt;Node10</title>
<path fill="none" stroke="midnightblue" d="M51.23,-124C59.72,-124 69.52,-124 79.13,-124"/>
<polygon fill="midnightblue" stroke="midnightblue" points="79.41,-127.5 89.41,-124 79.41,-120.5 79.41,-127.5"/>
</g>
<!-- Node11 -->
<g id="node8" class="node">
<title>Node11</title>
<g id="a_node8"><a xlink:href="navier4_8f.html#af4b23fbc45dccb01483f8c2910388e3f" target="_top" xlink:title=" ">
<polygon fill="white" stroke="red" points="90.5,-76.5 90.5,-95.5 160.5,-95.5 160.5,-76.5 90.5,-76.5"/>
<text text-anchor="middle" x="125.5" y="-83.5" font-family="Helvetica,sans-Serif" font-size="10.00">proj_matvec</text>
</a>
</g>
</g>
<!-- Node1&#45;&gt;Node11 -->
<g id="edge7" class="edge">
<title>Node1&#45;&gt;Node11</title>
<path fill="none" stroke="midnightblue" d="M51.23,-114.41C63.07,-109.82 77.44,-104.25 90.3,-99.26"/>
<polygon fill="midnightblue" stroke="midnightblue" points="91.72,-102.46 99.78,-95.59 89.19,-95.94 91.72,-102.46"/>
</g>
<!-- Node29 -->
<g id="node9" class="node">
<title>Node29</title>
<g id="a_node9"><a xlink:href="navier4_8f.html#aba985c129d004858fb54cb2f76b52803" target="_top" xlink:title=" ">
<polygon fill="white" stroke="red" points="87,-38.5 87,-57.5 164,-57.5 164,-38.5 87,-38.5"/>
<text text-anchor="middle" x="125.5" y="-45.5" font-family="Helvetica,sans-Serif" font-size="10.00">proj_ortho_full</text>
</a>
</g>
</g>
<!-- Node1&#45;&gt;Node29 -->
<g id="edge8" class="edge">
<title>Node1&#45;&gt;Node29</title>
<path fill="none" stroke="midnightblue" d="M35.21,-114.22C46.36,-102.09 66.69,-81.27 87,-67 89.22,-65.44 91.58,-63.93 94.01,-62.5"/>
<polygon fill="midnightblue" stroke="midnightblue" points="95.78,-65.51 102.87,-57.63 92.42,-59.38 95.78,-65.51"/>
</g>
<!-- Node35 -->
<g id="node10" class="node">
<title>Node35</title>
<g id="a_node10"><a xlink:href="navier4_8f.html#a27e33c31307e6975268baa1be42b5c03" target="_top" xlink:title=" ">
<polygon fill="white" stroke="red" points="94.5,-0.5 94.5,-19.5 156.5,-19.5 156.5,-0.5 94.5,-0.5"/>
<text text-anchor="middle" x="125.5" y="-7.5" font-family="Helvetica,sans-Serif" font-size="10.00">project1_a</text>
</a>
</g>
</g>
<!-- Node1&#45;&gt;Node35 -->
<g id="edge9" class="edge">
<title>Node1&#45;&gt;Node35</title>
<path fill="none" stroke="midnightblue" d="M30.48,-114.47C38.64,-95.9 58.89,-54.48 87,-29 88.5,-27.64 90.12,-26.35 91.81,-25.13"/>
<polygon fill="midnightblue" stroke="midnightblue" points="94,-27.89 100.66,-19.66 90.31,-21.94 94,-27.89"/>
</g>
<!-- Node3 -->
<g id="node3" class="node">
<title>Node3</title>
<g id="a_node3"><a xlink:href="mpi__dummy_8f.html#ae6a5ef945f87c2c27849696b70f3af2a" target="_top" xlink:title=" ">
<polygon fill="white" stroke="black" points="200,-228.5 200,-247.5 264,-247.5 264,-228.5 200,-228.5"/>
<text text-anchor="middle" x="232" y="-235.5" font-family="Helvetica,sans-Serif" font-size="10.00">mpi_wtime</text>
</a>
</g>
</g>
<!-- Node2&#45;&gt;Node3 -->
<g id="edge2" class="edge">
<title>Node2&#45;&gt;Node3</title>
<path fill="none" stroke="midnightblue" d="M156.17,-238C166.61,-238 178.54,-238 189.76,-238"/>
<polygon fill="midnightblue" stroke="midnightblue" points="189.8,-241.5 199.8,-238 189.8,-234.5 189.8,-241.5"/>
</g>
<!-- Node5 -->
<g id="node5" class="node">
<title>Node5</title>
<g id="a_node5"><a xlink:href="gs__test__gop__blocking_8c.html#ab2e24f9857f6d1ded7e4d556c6bc5e49" target="_top" xlink:title=" ">
<polygon fill="white" stroke="red" points="216,-95.5 216,-114.5 248,-114.5 248,-95.5 216,-95.5"/>
<text text-anchor="middle" x="232" y="-102.5" font-family="Helvetica,sans-Serif" font-size="10.00">gop</text>
</a>
</g>
</g>
<!-- Node4&#45;&gt;Node5 -->
<g id="edge4" class="edge">
<title>Node4&#45;&gt;Node5</title>
<path fill="none" stroke="midnightblue" d="M145.64,-192.04C151.8,-189.03 158.46,-185.29 164,-181 185.6,-164.29 205.64,-139.89 218.07,-123.28"/>
<polygon fill="midnightblue" stroke="midnightblue" points="221.08,-125.09 224.16,-114.95 215.43,-120.96 221.08,-125.09"/>
</g>
<!-- Node35&#45;&gt;Node5 -->
<g id="edge10" class="edge">
<title>Node35&#45;&gt;Node5</title>
<path fill="none" stroke="midnightblue" d="M148.76,-19.53C153.99,-22.23 159.38,-25.43 164,-29 185.6,-45.71 205.64,-70.11 218.07,-86.72"/>
<polygon fill="midnightblue" stroke="midnightblue" points="215.43,-89.04 224.16,-95.05 221.08,-84.91 215.43,-89.04"/>
</g>
</g>
</svg>
