<?xml version="1.0" encoding="UTF-8" standalone="no"?>
<!DOCTYPE svg PUBLIC "-//W3C//DTD SVG 1.1//EN"
 "http://www.w3.org/Graphics/SVG/1.1/DTD/svg11.dtd">
<!-- Generated by graphviz version 2.46.0 (0)
 -->
<!-- Title: mapw Pages: 1 -->
<svg width="549pt" height="81pt"
 viewBox="0.00 0.00 549.00 81.30" xmlns="http://www.w3.org/2000/svg" xmlns:xlink="http://www.w3.org/1999/xlink">
<g id="graph0" class="graph" transform="scale(1 1) rotate(0) translate(4 77.3)">
<title>mapw</title>
<polygon fill="white" stroke="transparent" points="-4,4 -4,-77.3 545,-77.3 545,4 -4,4"/>
<!-- Node1 -->
<g id="node1" class="node">
<title>Node1</title>
<g id="a_node1"><a xlink:title=" ">
<polygon fill="#bfbfbf" stroke="black" points="0,-19.5 0,-38.5 43,-38.5 43,-19.5 0,-19.5"/>
<text text-anchor="middle" x="21.5" y="-26.5" font-family="Helvetica,sans-Serif" font-size="10.00">mapw</text>
</a>
</g>
</g>
<!-- Node2 -->
<g id="node2" class="node">
<title>Node2</title>
<g id="a_node2"><a xlink:href="navier1_8f.html#a9cf22f4fc159530c6bf3a970b2443ab6" target="_top" xlink:title=" ">
<polygon fill="white" stroke="black" points="80,-38.5 80,-57.5 129,-57.5 129,-38.5 80,-38.5"/>
<text text-anchor="middle" x="104.5" y="-45.5" font-family="Helvetica,sans-Serif" font-size="10.00">setmap</text>
</a>
</g>
</g>
<!-- Node1&#45;&gt;Node2 -->
<g id="edge1" class="edge">
<title>Node1&#45;&gt;Node2</title>
<path fill="none" stroke="midnightblue" d="M43.36,-33.89C51.47,-35.79 60.96,-38.02 69.97,-40.14"/>
<polygon fill="midnightblue" stroke="midnightblue" points="69.31,-43.58 79.85,-42.45 70.91,-36.76 69.31,-43.58"/>
</g>
<!-- Node21 -->
<g id="node10" class="node">
<title>Node21</title>
<g id="a_node10"><a xlink:href="navier1_8f.html#a20934009ab8a550857444068a025ba28" target="_top" xlink:title=" ">
<polygon fill="white" stroke="black" points="79,-0.5 79,-19.5 130,-19.5 130,-0.5 79,-0.5"/>
<text text-anchor="middle" x="104.5" y="-7.5" font-family="Helvetica,sans-Serif" font-size="10.00">specmp</text>
</a>
</g>
</g>
<!-- Node1&#45;&gt;Node21 -->
<g id="edge10" class="edge">
<title>Node1&#45;&gt;Node21</title>
<path fill="none" stroke="midnightblue" d="M43.36,-24.11C51.18,-22.27 60.28,-20.14 69,-18.09"/>
<polygon fill="midnightblue" stroke="midnightblue" points="70.03,-21.45 78.97,-15.75 68.44,-14.63 70.03,-21.45"/>
</g>
<!-- Node3 -->
<g id="node3" class="node">
<title>Node3</title>
<g id="a_node3"><a xlink:href="byte_8c.html#a2da8eeb074dfd3ffbfb3e9a4d301cda4" target="_top" xlink:title=" ">
<polygon fill="white" stroke="black" points="316,-38.5 316,-57.5 351,-57.5 351,-38.5 316,-38.5"/>
<text text-anchor="middle" x="333.5" y="-45.5" font-family="Helvetica,sans-Serif" font-size="10.00">exitt</text>
</a>
</g>
</g>
<!-- Node2&#45;&gt;Node3 -->
<g id="edge2" class="edge">
<title>Node2&#45;&gt;Node3</title>
<path fill="none" stroke="midnightblue" d="M129.24,-57.3C140.24,-61.12 153.59,-65.1 166,-67 216.08,-74.68 230.1,-75.75 280,-67 288.82,-65.45 298.12,-62.55 306.4,-59.46"/>
<polygon fill="midnightblue" stroke="midnightblue" points="307.88,-62.64 315.89,-55.7 305.3,-56.13 307.88,-62.64"/>
</g>
<!-- Node6 -->
<g id="node6" class="node">
<title>Node6</title>
<g id="a_node6"><a xlink:href="speclib_8f.html#ab14f01571bb13d5185f4a8b163c1958a" target="_top" xlink:title=" ">
<polygon fill="white" stroke="black" points="167,-38.5 167,-57.5 204,-57.5 204,-38.5 167,-38.5"/>
<text text-anchor="middle" x="185.5" y="-45.5" font-family="Helvetica,sans-Serif" font-size="10.00">igllm</text>
</a>
</g>
</g>
<!-- Node2&#45;&gt;Node6 -->
<g id="edge5" class="edge">
<title>Node2&#45;&gt;Node6</title>
<path fill="none" stroke="midnightblue" d="M129.2,-48C137.89,-48 147.8,-48 156.81,-48"/>
<polygon fill="midnightblue" stroke="midnightblue" points="156.84,-51.5 166.84,-48 156.84,-44.5 156.84,-51.5"/>
</g>
<!-- Node10 -->
<g id="node8" class="node">
<title>Node10</title>
<g id="a_node8"><a xlink:href="speclib_8f.html#a3788ff93193b0428aad51e76c6ed2e18" target="_top" xlink:title=" ">
<polygon fill="white" stroke="black" points="166,-0.5 166,-19.5 205,-19.5 205,-0.5 166,-0.5"/>
<text text-anchor="middle" x="185.5" y="-7.5" font-family="Helvetica,sans-Serif" font-size="10.00">zwgll</text>
</a>
</g>
</g>
<!-- Node2&#45;&gt;Node10 -->
<g id="edge7" class="edge">
<title>Node2&#45;&gt;Node10</title>
<path fill="none" stroke="midnightblue" d="M125.44,-38.41C134.95,-33.83 146.5,-28.28 156.85,-23.3"/>
<polygon fill="midnightblue" stroke="midnightblue" points="158.43,-26.42 165.93,-18.93 155.4,-20.11 158.43,-26.42"/>
</g>
<!-- Node4 -->
<g id="node4" class="node">
<title>Node4</title>
<g id="a_node4"><a xlink:href="comm__mpi_8f.html#acc8803a3787828530843112e0c48941b" target="_top" xlink:title=" ">
<polygon fill="white" stroke="black" points="387,-38.5 387,-57.5 437,-57.5 437,-38.5 387,-38.5"/>
<text text-anchor="middle" x="412" y="-45.5" font-family="Helvetica,sans-Serif" font-size="10.00">nek_die</text>
</a>
</g>
</g>
<!-- Node3&#45;&gt;Node4 -->
<g id="edge3" class="edge">
<title>Node3&#45;&gt;Node4</title>
<path fill="none" stroke="midnightblue" d="M351.1,-48C358.62,-48 367.8,-48 376.69,-48"/>
<polygon fill="midnightblue" stroke="midnightblue" points="376.88,-51.5 386.88,-48 376.88,-44.5 376.88,-51.5"/>
</g>
<!-- Node5 -->
<g id="node5" class="node">
<title>Node5</title>
<g id="a_node5"><a xlink:href="mpi__dummy_8f.html#a55e9a1619aadb638b14211ce21d7d566" target="_top" xlink:title=" ">
<polygon fill="white" stroke="black" points="473,-38.5 473,-57.5 541,-57.5 541,-38.5 473,-38.5"/>
<text text-anchor="middle" x="507" y="-45.5" font-family="Helvetica,sans-Serif" font-size="10.00">mpi_finalize</text>
</a>
</g>
</g>
<!-- Node4&#45;&gt;Node5 -->
<g id="edge4" class="edge">
<title>Node4&#45;&gt;Node5</title>
<path fill="none" stroke="midnightblue" d="M437.43,-48C445.25,-48 454.14,-48 462.88,-48"/>
<polygon fill="midnightblue" stroke="midnightblue" points="462.99,-51.5 472.99,-48 462.99,-44.5 462.99,-51.5"/>
</g>
<!-- Node7 -->
<g id="node7" class="node">
<title>Node7</title>
<g id="a_node7"><a xlink:href="speclib_8f.html#ae5f9b93a0dc207fdd9614c38959e0a8f" target="_top" xlink:title=" ">
<polygon fill="white" stroke="red" points="244.5,-38.5 244.5,-57.5 276.5,-57.5 276.5,-38.5 244.5,-38.5"/>
<text text-anchor="middle" x="260.5" y="-45.5" font-family="Helvetica,sans-Serif" font-size="10.00">hgll</text>
</a>
</g>
</g>
<!-- Node6&#45;&gt;Node7 -->
<g id="edge6" class="edge">
<title>Node6&#45;&gt;Node7</title>
<path fill="none" stroke="midnightblue" d="M204.17,-48C213.22,-48 224.39,-48 234.33,-48"/>
<polygon fill="midnightblue" stroke="midnightblue" points="234.46,-51.5 244.46,-48 234.46,-44.5 234.46,-51.5"/>
</g>
<!-- Node11 -->
<g id="node9" class="node">
<title>Node11</title>
<g id="a_node9"><a xlink:href="speclib_8f.html#a0a1a17375323b7ab32d6ebe1c52ab1c3" target="_top" xlink:title=" ">
<polygon fill="white" stroke="red" points="241,-0.5 241,-19.5 280,-19.5 280,-0.5 241,-0.5"/>
<text text-anchor="middle" x="260.5" y="-7.5" font-family="Helvetica,sans-Serif" font-size="10.00">zwglj</text>
</a>
</g>
</g>
<!-- Node10&#45;&gt;Node11 -->
<g id="edge8" class="edge">
<title>Node10&#45;&gt;Node11</title>
<path fill="none" stroke="midnightblue" d="M205.3,-10C213.05,-10 222.2,-10 230.76,-10"/>
<polygon fill="midnightblue" stroke="midnightblue" points="230.76,-13.5 240.76,-10 230.76,-6.5 230.76,-13.5"/>
</g>
<!-- Node11&#45;&gt;Node3 -->
<g id="edge9" class="edge">
<title>Node11&#45;&gt;Node3</title>
<path fill="none" stroke="midnightblue" d="M279.42,-19.59C287.71,-24.03 297.72,-29.38 306.79,-34.24"/>
<polygon fill="midnightblue" stroke="midnightblue" points="305.34,-37.43 315.81,-39.07 308.64,-31.26 305.34,-37.43"/>
</g>
</g>
</svg>
