<?xml version="1.0" encoding="UTF-8" standalone="no"?>
<!DOCTYPE svg PUBLIC "-//W3C//DTD SVG 1.1//EN"
 "http://www.w3.org/Graphics/SVG/1.1/DTD/svg11.dtd">
<!-- Generated by graphviz version 2.46.0 (0)
 -->
<!-- Title: opbinv Pages: 1 -->
<svg width="255pt" height="275pt"
 viewBox="0.00 0.00 255.00 275.00" xmlns="http://www.w3.org/2000/svg" xmlns:xlink="http://www.w3.org/1999/xlink">
<g id="graph0" class="graph" transform="scale(1 1) rotate(0) translate(4 271)">
<title>opbinv</title>
<polygon fill="white" stroke="transparent" points="-4,4 -4,-271 251,-271 251,4 -4,4"/>
<!-- Node1 -->
<g id="node1" class="node">
<title>Node1</title>
<g id="a_node1"><a xlink:title=" ">
<polygon fill="#bfbfbf" stroke="black" points="202,-114.5 202,-133.5 247,-133.5 247,-114.5 202,-114.5"/>
<text text-anchor="middle" x="224.5" y="-121.5" font-family="Helvetica,sans-Serif" font-size="10.00">opbinv</text>
</a>
</g>
</g>
<!-- Node2 -->
<g id="node2" class="node">
<title>Node2</title>
<g id="a_node2"><a xlink:href="navier1_8f.html#a65f34d5a85fb540d8cb0fd1fbf1d2e6b" target="_top" xlink:title=" ">
<polygon fill="white" stroke="red" points="102,-228.5 102,-247.5 153,-247.5 153,-228.5 102,-228.5"/>
<text text-anchor="middle" x="127.5" y="-235.5" font-family="Helvetica,sans-Serif" font-size="10.00">cdabdtp</text>
</a>
</g>
</g>
<!-- Node1&#45;&gt;Node2 -->
<g id="edge1" class="edge">
<title>Node1&#45;&gt;Node2</title>
<path fill="none" stroke="midnightblue" d="M215.87,-142.91C206.67,-163.77 189.46,-197.24 166,-219 162.04,-222.67 157.24,-225.81 152.41,-228.41"/>
<polygon fill="midnightblue" stroke="midnightblue" points="219.16,-144.12 219.84,-133.54 212.72,-141.39 219.16,-144.12"/>
</g>
<!-- Node46 -->
<g id="node5" class="node">
<title>Node46</title>
<g id="a_node5"><a xlink:href="navier1_8f.html#a9a81e8c08ce04d9d86d24c396518e583" target="_top" xlink:title=" ">
<polygon fill="white" stroke="red" points="102,-190.5 102,-209.5 153,-209.5 153,-190.5 102,-190.5"/>
<text text-anchor="middle" x="127.5" y="-197.5" font-family="Helvetica,sans-Serif" font-size="10.00">crespuz</text>
</a>
</g>
</g>
<!-- Node1&#45;&gt;Node46 -->
<g id="edge4" class="edge">
<title>Node1&#45;&gt;Node46</title>
<path fill="none" stroke="midnightblue" d="M208.55,-141.48C197.6,-153.58 181.93,-169.51 166,-181 161.15,-184.5 155.55,-187.71 150.2,-190.45"/>
<polygon fill="midnightblue" stroke="midnightblue" points="211.32,-143.63 215.32,-133.81 206.08,-138.99 211.32,-143.63"/>
</g>
<!-- Node18 -->
<g id="node6" class="node">
<title>Node18</title>
<g id="a_node6"><a xlink:href="induct_8f.html#aeb2c6d4ae2c98143118acce2419c034d" target="_top" xlink:title=" ">
<polygon fill="white" stroke="red" points="99.5,-152.5 99.5,-171.5 155.5,-171.5 155.5,-152.5 99.5,-152.5"/>
<text text-anchor="middle" x="127.5" y="-159.5" font-family="Helvetica,sans-Serif" font-size="10.00">incomprn</text>
</a>
</g>
</g>
<!-- Node1&#45;&gt;Node18 -->
<g id="edge5" class="edge">
<title>Node1&#45;&gt;Node18</title>
<path fill="none" stroke="midnightblue" d="M192.41,-136.43C179.37,-141.65 164.45,-147.62 152.31,-152.48"/>
<polygon fill="midnightblue" stroke="midnightblue" points="193.96,-139.59 201.94,-132.62 191.36,-133.09 193.96,-139.59"/>
</g>
<!-- Node34 -->
<g id="node7" class="node">
<title>Node34</title>
<g id="a_node7"><a xlink:href="perturb_8f.html#a0db1f2daa54855dae3938a53c1fd7a65" target="_top" xlink:title=" ">
<polygon fill="white" stroke="red" points="99.5,-114.5 99.5,-133.5 155.5,-133.5 155.5,-114.5 99.5,-114.5"/>
<text text-anchor="middle" x="127.5" y="-121.5" font-family="Helvetica,sans-Serif" font-size="10.00">incomprp</text>
</a>
</g>
</g>
<!-- Node1&#45;&gt;Node34 -->
<g id="edge6" class="edge">
<title>Node1&#45;&gt;Node34</title>
<path fill="none" stroke="midnightblue" d="M191.73,-124C180.07,-124 166.99,-124 155.76,-124"/>
<polygon fill="midnightblue" stroke="midnightblue" points="191.94,-127.5 201.94,-124 191.94,-120.5 191.94,-127.5"/>
</g>
<!-- Node37 -->
<g id="node8" class="node">
<title>Node37</title>
<g id="a_node8"><a xlink:href="drive2_8f.html#af4200cfe213ef1c8819f8a0f7b506a2d" target="_top" xlink:title=" ">
<polygon fill="white" stroke="red" points="98.5,-76.5 98.5,-95.5 156.5,-95.5 156.5,-76.5 98.5,-76.5"/>
<text text-anchor="middle" x="127.5" y="-83.5" font-family="Helvetica,sans-Serif" font-size="10.00">plan3_vol</text>
</a>
</g>
</g>
<!-- Node1&#45;&gt;Node37 -->
<g id="edge7" class="edge">
<title>Node1&#45;&gt;Node37</title>
<path fill="none" stroke="midnightblue" d="M192.41,-111.57C179.37,-106.35 164.45,-100.38 152.31,-95.52"/>
<polygon fill="midnightblue" stroke="midnightblue" points="191.36,-114.91 201.94,-115.38 193.96,-108.41 191.36,-114.91"/>
</g>
<!-- Node40 -->
<g id="node9" class="node">
<title>Node40</title>
<g id="a_node9"><a xlink:href="multimesh_8f.html#a496bf595bdb0c099877ab39e6236c027" target="_top" xlink:title=" ">
<polygon fill="white" stroke="red" points="89,-38.5 89,-57.5 166,-57.5 166,-38.5 89,-38.5"/>
<text text-anchor="middle" x="127.5" y="-45.5" font-family="Helvetica,sans-Serif" font-size="10.00">plan3_vol_ms</text>
</a>
</g>
</g>
<!-- Node1&#45;&gt;Node40 -->
<g id="edge8" class="edge">
<title>Node1&#45;&gt;Node40</title>
<path fill="none" stroke="midnightblue" d="M208.55,-106.52C197.6,-94.42 181.93,-78.49 166,-67 161.15,-63.5 155.55,-60.29 150.2,-57.55"/>
<polygon fill="midnightblue" stroke="midnightblue" points="206.08,-109.01 215.32,-114.19 211.32,-104.37 206.08,-109.01"/>
</g>
<!-- Node45 -->
<g id="node10" class="node">
<title>Node45</title>
<g id="a_node10"><a xlink:href="ssolv_8f.html#a1270dc473e4093bab5fb3ded240dd4bd" target="_top" xlink:title=" ">
<polygon fill="white" stroke="black" points="104.5,-0.5 104.5,-19.5 150.5,-19.5 150.5,-0.5 104.5,-0.5"/>
<text text-anchor="middle" x="127.5" y="-7.5" font-family="Helvetica,sans-Serif" font-size="10.00">project</text>
</a>
</g>
</g>
<!-- Node1&#45;&gt;Node45 -->
<g id="edge9" class="edge">
<title>Node1&#45;&gt;Node45</title>
<path fill="none" stroke="midnightblue" d="M215.87,-105.09C206.67,-84.23 189.46,-50.76 166,-29 161.61,-24.93 156.19,-21.52 150.84,-18.76"/>
<polygon fill="midnightblue" stroke="midnightblue" points="212.72,-106.61 219.84,-114.46 219.16,-103.88 212.72,-106.61"/>
</g>
<!-- Node3 -->
<g id="node3" class="node">
<title>Node3</title>
<g id="a_node3"><a xlink:href="eigsolv_8f.html#ae85b67491410da26b954f7e1257a7938" target="_top" xlink:title=" ">
<polygon fill="white" stroke="red" points="0,-247.5 0,-266.5 53,-266.5 53,-247.5 0,-247.5"/>
<text text-anchor="middle" x="26.5" y="-254.5" font-family="Helvetica,sans-Serif" font-size="10.00">alpham2</text>
</a>
</g>
</g>
<!-- Node2&#45;&gt;Node3 -->
<g id="edge2" class="edge">
<title>Node2&#45;&gt;Node3</title>
<path fill="none" stroke="midnightblue" d="M91.59,-244.7C78.98,-247.12 64.98,-249.81 53.29,-252.05"/>
<polygon fill="midnightblue" stroke="midnightblue" points="92.61,-248.07 101.77,-242.75 91.29,-241.19 92.61,-248.07"/>
</g>
<!-- Node14 -->
<g id="node4" class="node">
<title>Node14</title>
<g id="a_node4"><a xlink:href="navier4_8f.html#a06054dac336f2f8055223e0e77ae4c96" target="_top" xlink:title=" ">
<polygon fill="white" stroke="red" points="6.5,-209.5 6.5,-228.5 46.5,-228.5 46.5,-209.5 6.5,-209.5"/>
<text text-anchor="middle" x="26.5" y="-216.5" font-family="Helvetica,sans-Serif" font-size="10.00">econj</text>
</a>
</g>
</g>
<!-- Node2&#45;&gt;Node14 -->
<g id="edge3" class="edge">
<title>Node2&#45;&gt;Node14</title>
<path fill="none" stroke="midnightblue" d="M91.69,-231.32C76.56,-228.41 59.4,-225.12 46.63,-222.67"/>
<polygon fill="midnightblue" stroke="midnightblue" points="91.29,-234.81 101.77,-233.25 92.61,-227.93 91.29,-234.81"/>
</g>
</g>
</svg>
