<?xml version="1.0" encoding="UTF-8" standalone="no"?>
<!DOCTYPE svg PUBLIC "-//W3C//DTD SVG 1.1//EN"
 "http://www.w3.org/Graphics/SVG/1.1/DTD/svg11.dtd">
<!-- Generated by graphviz version 2.46.0 (0)
 -->
<!-- Title: get_dgll_ptr Pages: 1 -->
<svg width="441pt" height="161pt"
 viewBox="0.00 0.00 441.00 161.00" xmlns="http://www.w3.org/2000/svg" xmlns:xlink="http://www.w3.org/1999/xlink">
<g id="graph0" class="graph" transform="scale(1 1) rotate(0) translate(4 157)">
<title>get_dgll_ptr</title>
<polygon fill="white" stroke="transparent" points="-4,4 -4,-157 437,-157 437,4 -4,4"/>
<!-- Node1 -->
<g id="node1" class="node">
<title>Node1</title>
<g id="a_node1"><a xlink:title=" ">
<polygon fill="#bfbfbf" stroke="black" points="0,-95.5 0,-114.5 67,-114.5 67,-95.5 0,-95.5"/>
<text text-anchor="middle" x="33.5" y="-102.5" font-family="Helvetica,sans-Serif" font-size="10.00">get_dgll_ptr</text>
</a>
</g>
</g>
<!-- Node2 -->
<g id="node2" class="node">
<title>Node2</title>
<g id="a_node2"><a xlink:href="navier1_8f.html#af1704cf653d3009750549a91aa67693d" target="_top" xlink:title=" ">
<polygon fill="white" stroke="black" points="103,-76.5 103,-95.5 156,-95.5 156,-76.5 103,-76.5"/>
<text text-anchor="middle" x="129.5" y="-83.5" font-family="Helvetica,sans-Serif" font-size="10.00">gen_dgll</text>
</a>
</g>
</g>
<!-- Node1&#45;&gt;Node2 -->
<g id="edge1" class="edge">
<title>Node1&#45;&gt;Node2</title>
<path fill="none" stroke="midnightblue" d="M67.11,-98.41C75.41,-96.73 84.36,-94.92 92.8,-93.22"/>
<polygon fill="midnightblue" stroke="midnightblue" points="93.65,-96.62 102.76,-91.2 92.26,-89.75 93.65,-96.62"/>
</g>
<!-- Node4 -->
<g id="node4" class="node">
<title>Node4</title>
<g id="a_node4"><a xlink:href="convect_8f.html#aef5d48d354e9e03de35748eecb7e42f9" target="_top" xlink:title=" ">
<polygon fill="white" stroke="black" points="208,-114.5 208,-133.5 258,-133.5 258,-114.5 208,-114.5"/>
<text text-anchor="middle" x="233" y="-121.5" font-family="Helvetica,sans-Serif" font-size="10.00">lim_chk</text>
</a>
</g>
</g>
<!-- Node1&#45;&gt;Node4 -->
<g id="edge10" class="edge">
<title>Node1&#45;&gt;Node4</title>
<path fill="none" stroke="midnightblue" d="M67.11,-108.14C103.11,-111.6 160.81,-117.15 197.53,-120.68"/>
<polygon fill="midnightblue" stroke="midnightblue" points="197.47,-124.19 207.75,-121.67 198.14,-117.23 197.47,-124.19"/>
</g>
<!-- Node3 -->
<g id="node3" class="node">
<title>Node3</title>
<g id="a_node3"><a xlink:href="fast3d_8f.html#ad007f6eca12b1b9307f46e56bcc40a59" target="_top" xlink:title=" ">
<polygon fill="white" stroke="black" points="192,-76.5 192,-95.5 274,-95.5 274,-76.5 192,-76.5"/>
<text text-anchor="middle" x="233" y="-83.5" font-family="Helvetica,sans-Serif" font-size="10.00">fd_weights_full</text>
</a>
</g>
</g>
<!-- Node2&#45;&gt;Node3 -->
<g id="edge2" class="edge">
<title>Node2&#45;&gt;Node3</title>
<path fill="none" stroke="midnightblue" d="M156.11,-86C163.88,-86 172.7,-86 181.5,-86"/>
<polygon fill="midnightblue" stroke="midnightblue" points="181.78,-89.5 191.78,-86 181.78,-82.5 181.78,-89.5"/>
</g>
<!-- Node2&#45;&gt;Node4 -->
<g id="edge3" class="edge">
<title>Node2&#45;&gt;Node4</title>
<path fill="none" stroke="midnightblue" d="M156.11,-95.59C168.87,-100.37 184.47,-106.2 198.2,-111.34"/>
<polygon fill="midnightblue" stroke="midnightblue" points="197.2,-114.71 207.79,-114.94 199.66,-108.15 197.2,-114.71"/>
</g>
<!-- Node12 -->
<g id="node8" class="node">
<title>Node12</title>
<g id="a_node8"><a xlink:href="math_8f.html#a17c0ecae12cc5c6096939885da90ad2b" target="_top" xlink:title=" ">
<polygon fill="white" stroke="black" points="203.5,-38.5 203.5,-57.5 262.5,-57.5 262.5,-38.5 203.5,-38.5"/>
<text text-anchor="middle" x="233" y="-45.5" font-family="Helvetica,sans-Serif" font-size="10.00">transpose</text>
</a>
</g>
</g>
<!-- Node2&#45;&gt;Node12 -->
<g id="edge7" class="edge">
<title>Node2&#45;&gt;Node12</title>
<path fill="none" stroke="midnightblue" d="M156.11,-76.41C168.49,-71.78 183.55,-66.14 196.97,-61.11"/>
<polygon fill="midnightblue" stroke="midnightblue" points="198.26,-64.37 206.4,-57.59 195.8,-57.81 198.26,-64.37"/>
</g>
<!-- Node13 -->
<g id="node9" class="node">
<title>Node13</title>
<g id="a_node9"><a xlink:href="speclib_8f.html#a3788ff93193b0428aad51e76c6ed2e18" target="_top" xlink:title=" ">
<polygon fill="white" stroke="black" points="213.5,-0.5 213.5,-19.5 252.5,-19.5 252.5,-0.5 213.5,-0.5"/>
<text text-anchor="middle" x="233" y="-7.5" font-family="Helvetica,sans-Serif" font-size="10.00">zwgll</text>
</a>
</g>
</g>
<!-- Node2&#45;&gt;Node13 -->
<g id="edge8" class="edge">
<title>Node2&#45;&gt;Node13</title>
<path fill="none" stroke="midnightblue" d="M139.32,-76.15C150.63,-63.95 171.27,-43.04 192,-29 195.83,-26.41 200.06,-23.98 204.3,-21.79"/>
<polygon fill="midnightblue" stroke="midnightblue" points="205.95,-24.89 213.44,-17.4 202.91,-18.58 205.95,-24.89"/>
</g>
<!-- Node5 -->
<g id="node5" class="node">
<title>Node5</title>
<g id="a_node5"><a xlink:href="comm__mpi_8f.html#a59fcf8a02fe54ab37f61050e3ca6b197" target="_top" xlink:title=" ">
<polygon fill="white" stroke="red" points="310.5,-114.5 310.5,-133.5 348.5,-133.5 348.5,-114.5 310.5,-114.5"/>
<text text-anchor="middle" x="329.5" y="-121.5" font-family="Helvetica,sans-Serif" font-size="10.00">exitti</text>
</a>
</g>
</g>
<!-- Node4&#45;&gt;Node5 -->
<g id="edge4" class="edge">
<title>Node4&#45;&gt;Node5</title>
<path fill="none" stroke="midnightblue" d="M258.34,-124C271.11,-124 286.83,-124 300.15,-124"/>
<polygon fill="midnightblue" stroke="midnightblue" points="300.22,-127.5 310.22,-124 300.22,-120.5 300.22,-127.5"/>
</g>
<!-- Node6 -->
<g id="node6" class="node">
<title>Node6</title>
<g id="a_node6"><a xlink:href="math_8f.html#a692155d1d2ec380a9fdb2d81ef221625" target="_top" xlink:title=" ">
<polygon fill="white" stroke="black" points="389,-133.5 389,-152.5 429,-152.5 429,-133.5 389,-133.5"/>
<text text-anchor="middle" x="409" y="-140.5" font-family="Helvetica,sans-Serif" font-size="10.00">blank</text>
</a>
</g>
</g>
<!-- Node5&#45;&gt;Node6 -->
<g id="edge5" class="edge">
<title>Node5&#45;&gt;Node6</title>
<path fill="none" stroke="midnightblue" d="M348.87,-128.5C357.93,-130.72 369.07,-133.46 379.24,-135.95"/>
<polygon fill="midnightblue" stroke="midnightblue" points="378.41,-139.35 388.96,-138.33 380.08,-132.55 378.41,-139.35"/>
</g>
<!-- Node7 -->
<g id="node7" class="node">
<title>Node7</title>
<g id="a_node7"><a xlink:href="math_8f.html#ad7fb480cea001849621405f37167aab1" target="_top" xlink:title=" ">
<polygon fill="white" stroke="black" points="385,-95.5 385,-114.5 433,-114.5 433,-95.5 385,-95.5"/>
<text text-anchor="middle" x="409" y="-102.5" font-family="Helvetica,sans-Serif" font-size="10.00">chcopy</text>
</a>
</g>
</g>
<!-- Node5&#45;&gt;Node7 -->
<g id="edge6" class="edge">
<title>Node5&#45;&gt;Node7</title>
<path fill="none" stroke="midnightblue" d="M348.87,-119.5C356.67,-117.58 366.02,-115.29 374.95,-113.1"/>
<polygon fill="midnightblue" stroke="midnightblue" points="375.88,-116.48 384.76,-110.7 374.21,-109.68 375.88,-116.48"/>
</g>
<!-- Node14 -->
<g id="node10" class="node">
<title>Node14</title>
<g id="a_node10"><a xlink:href="speclib_8f.html#a0a1a17375323b7ab32d6ebe1c52ab1c3" target="_top" xlink:title=" ">
<polygon fill="white" stroke="red" points="310,-0.5 310,-19.5 349,-19.5 349,-0.5 310,-0.5"/>
<text text-anchor="middle" x="329.5" y="-7.5" font-family="Helvetica,sans-Serif" font-size="10.00">zwglj</text>
</a>
</g>
</g>
<!-- Node13&#45;&gt;Node14 -->
<g id="edge9" class="edge">
<title>Node13&#45;&gt;Node14</title>
<path fill="none" stroke="midnightblue" d="M252.67,-10C266.13,-10 284.55,-10 299.86,-10"/>
<polygon fill="midnightblue" stroke="midnightblue" points="299.87,-13.5 309.87,-10 299.87,-6.5 299.87,-13.5"/>
</g>
</g>
</svg>
