<?xml version="1.0" encoding="UTF-8" standalone="no"?>
<!DOCTYPE svg PUBLIC "-//W3C//DTD SVG 1.1//EN"
 "http://www.w3.org/Graphics/SVG/1.1/DTD/svg11.dtd">
<!-- Generated by graphviz version 2.46.0 (0)
 -->
<!-- Title: uzawa Pages: 1 -->
<svg width="255pt" height="180pt"
 viewBox="0.00 0.00 255.00 180.00" xmlns="http://www.w3.org/2000/svg" xmlns:xlink="http://www.w3.org/1999/xlink">
<g id="graph0" class="graph" transform="scale(1 1) rotate(0) translate(4 176)">
<title>uzawa</title>
<polygon fill="white" stroke="transparent" points="-4,4 -4,-176 251,-176 251,4 -4,4"/>
<!-- Node1 -->
<g id="node1" class="node">
<title>Node1</title>
<g id="a_node1"><a xlink:title=" ">
<polygon fill="#bfbfbf" stroke="black" points="202,-57.5 202,-76.5 247,-76.5 247,-57.5 202,-57.5"/>
<text text-anchor="middle" x="224.5" y="-64.5" font-family="Helvetica,sans-Serif" font-size="10.00">uzawa</text>
</a>
</g>
</g>
<!-- Node2 -->
<g id="node2" class="node">
<title>Node2</title>
<g id="a_node2"><a xlink:href="eigsolv_8f.html#ae85b67491410da26b954f7e1257a7938" target="_top" xlink:title=" ">
<polygon fill="white" stroke="black" points="113,-133.5 113,-152.5 166,-152.5 166,-133.5 113,-133.5"/>
<text text-anchor="middle" x="139.5" y="-140.5" font-family="Helvetica,sans-Serif" font-size="10.00">alpham2</text>
</a>
</g>
</g>
<!-- Node1&#45;&gt;Node2 -->
<g id="edge1" class="edge">
<title>Node1&#45;&gt;Node2</title>
<path fill="none" stroke="midnightblue" d="M205.49,-83.49C188.82,-98.76 164.6,-120.93 150.93,-133.45"/>
<polygon fill="midnightblue" stroke="midnightblue" points="207.98,-85.96 212.99,-76.63 203.25,-80.8 207.98,-85.96"/>
</g>
<!-- Node13 -->
<g id="node4" class="node">
<title>Node13</title>
<g id="a_node4"><a xlink:href="navier0_8f.html#aaba079db7e38db9800deef09526370ec" target="_top" xlink:title=" ">
<polygon fill="white" stroke="black" points="115.5,-76.5 115.5,-95.5 163.5,-95.5 163.5,-76.5 115.5,-76.5"/>
<text text-anchor="middle" x="139.5" y="-83.5" font-family="Helvetica,sans-Serif" font-size="10.00">esolver</text>
</a>
</g>
</g>
<!-- Node1&#45;&gt;Node13 -->
<g id="edge3" class="edge">
<title>Node1&#45;&gt;Node13</title>
<path fill="none" stroke="midnightblue" d="M191.88,-74.24C182.48,-76.39 172.36,-78.71 163.61,-80.71"/>
<polygon fill="midnightblue" stroke="midnightblue" points="192.73,-77.64 201.69,-71.99 191.16,-70.81 192.73,-77.64"/>
</g>
<!-- Node31 -->
<g id="node9" class="node">
<title>Node31</title>
<g id="a_node9"><a xlink:href="navier1_8f.html#a23e6343990072aa1a6b17109ccc7ba2b" target="_top" xlink:title=" ">
<polygon fill="white" stroke="red" points="119.5,-38.5 119.5,-57.5 159.5,-57.5 159.5,-38.5 119.5,-38.5"/>
<text text-anchor="middle" x="139.5" y="-45.5" font-family="Helvetica,sans-Serif" font-size="10.00">plan1</text>
</a>
</g>
</g>
<!-- Node1&#45;&gt;Node31 -->
<g id="edge8" class="edge">
<title>Node1&#45;&gt;Node31</title>
<path fill="none" stroke="midnightblue" d="M191.71,-59.72C180.89,-57.25 169.13,-54.55 159.62,-52.38"/>
<polygon fill="midnightblue" stroke="midnightblue" points="191.16,-63.19 201.69,-62.01 192.73,-56.36 191.16,-63.19"/>
</g>
<!-- Node32 -->
<g id="node10" class="node">
<title>Node32</title>
<g id="a_node10"><a xlink:href="ssolv_8f.html#a1270dc473e4093bab5fb3ded240dd4bd" target="_top" xlink:title=" ">
<polygon fill="white" stroke="black" points="116.5,-0.5 116.5,-19.5 162.5,-19.5 162.5,-0.5 116.5,-0.5"/>
<text text-anchor="middle" x="139.5" y="-7.5" font-family="Helvetica,sans-Serif" font-size="10.00">project</text>
</a>
</g>
</g>
<!-- Node1&#45;&gt;Node32 -->
<g id="edge9" class="edge">
<title>Node1&#45;&gt;Node32</title>
<path fill="none" stroke="midnightblue" d="M200.79,-51.41C185.94,-41.21 167.02,-28.21 154.37,-19.53"/>
<polygon fill="midnightblue" stroke="midnightblue" points="199.2,-54.55 209.42,-57.33 203.16,-48.78 199.2,-54.55"/>
</g>
<!-- Node3 -->
<g id="node3" class="node">
<title>Node3</title>
<g id="a_node3"><a xlink:href="eigsolv_8f.html#a91ddf7cb5ca6b19d1c736da5bf7386b3" target="_top" xlink:title=" ">
<polygon fill="white" stroke="red" points="16,-152.5 16,-171.5 61,-171.5 61,-152.5 16,-152.5"/>
<text text-anchor="middle" x="38.5" y="-159.5" font-family="Helvetica,sans-Serif" font-size="10.00">eigenv</text>
</a>
</g>
</g>
<!-- Node2&#45;&gt;Node3 -->
<g id="edge2" class="edge">
<title>Node2&#45;&gt;Node3</title>
<path fill="none" stroke="midnightblue" d="M102.92,-149.83C88.93,-152.51 73.34,-155.51 61.11,-157.85"/>
<polygon fill="midnightblue" stroke="midnightblue" points="103.59,-153.26 112.75,-147.94 102.27,-146.39 103.59,-153.26"/>
</g>
<!-- Node14 -->
<g id="node5" class="node">
<title>Node14</title>
<g id="a_node5"><a xlink:href="induct_8f.html#aeb2c6d4ae2c98143118acce2419c034d" target="_top" xlink:title=" ">
<polygon fill="white" stroke="red" points="10.5,-114.5 10.5,-133.5 66.5,-133.5 66.5,-114.5 10.5,-114.5"/>
<text text-anchor="middle" x="38.5" y="-121.5" font-family="Helvetica,sans-Serif" font-size="10.00">incomprn</text>
</a>
</g>
</g>
<!-- Node13&#45;&gt;Node14 -->
<g id="edge4" class="edge">
<title>Node13&#45;&gt;Node14</title>
<path fill="none" stroke="midnightblue" d="M105.84,-98.54C92.31,-103.73 76.87,-109.65 64.3,-114.48"/>
<polygon fill="midnightblue" stroke="midnightblue" points="107.21,-101.76 115.29,-94.91 104.7,-95.23 107.21,-101.76"/>
</g>
<!-- Node22 -->
<g id="node6" class="node">
<title>Node22</title>
<g id="a_node6"><a xlink:href="perturb_8f.html#a0db1f2daa54855dae3938a53c1fd7a65" target="_top" xlink:title=" ">
<polygon fill="white" stroke="red" points="10.5,-76.5 10.5,-95.5 66.5,-95.5 66.5,-76.5 10.5,-76.5"/>
<text text-anchor="middle" x="38.5" y="-83.5" font-family="Helvetica,sans-Serif" font-size="10.00">incomprp</text>
</a>
</g>
</g>
<!-- Node13&#45;&gt;Node22 -->
<g id="edge5" class="edge">
<title>Node13&#45;&gt;Node22</title>
<path fill="none" stroke="midnightblue" d="M105.23,-86C92.73,-86 78.68,-86 66.78,-86"/>
<polygon fill="midnightblue" stroke="midnightblue" points="105.29,-89.5 115.29,-86 105.29,-82.5 105.29,-89.5"/>
</g>
<!-- Node25 -->
<g id="node7" class="node">
<title>Node25</title>
<g id="a_node7"><a xlink:href="drive2_8f.html#af4200cfe213ef1c8819f8a0f7b506a2d" target="_top" xlink:title=" ">
<polygon fill="white" stroke="red" points="9.5,-38.5 9.5,-57.5 67.5,-57.5 67.5,-38.5 9.5,-38.5"/>
<text text-anchor="middle" x="38.5" y="-45.5" font-family="Helvetica,sans-Serif" font-size="10.00">plan3_vol</text>
</a>
</g>
</g>
<!-- Node13&#45;&gt;Node25 -->
<g id="edge6" class="edge">
<title>Node13&#45;&gt;Node25</title>
<path fill="none" stroke="midnightblue" d="M105.84,-73.46C92.31,-68.27 76.87,-62.35 64.3,-57.52"/>
<polygon fill="midnightblue" stroke="midnightblue" points="104.7,-76.77 115.29,-77.09 107.21,-70.24 104.7,-76.77"/>
</g>
<!-- Node28 -->
<g id="node8" class="node">
<title>Node28</title>
<g id="a_node8"><a xlink:href="multimesh_8f.html#a496bf595bdb0c099877ab39e6236c027" target="_top" xlink:title=" ">
<polygon fill="white" stroke="red" points="0,-0.5 0,-19.5 77,-19.5 77,-0.5 0,-0.5"/>
<text text-anchor="middle" x="38.5" y="-7.5" font-family="Helvetica,sans-Serif" font-size="10.00">plan3_vol_ms</text>
</a>
</g>
</g>
<!-- Node13&#45;&gt;Node28 -->
<g id="edge7" class="edge">
<title>Node13&#45;&gt;Node28</title>
<path fill="none" stroke="midnightblue" d="M116.53,-70.02C115.32,-69.02 114.14,-68.01 113,-67 95.61,-51.55 95.65,-42.91 77,-29 72.32,-25.51 66.9,-22.35 61.67,-19.64"/>
<polygon fill="midnightblue" stroke="midnightblue" points="114.62,-72.97 124.66,-76.36 118.93,-67.45 114.62,-72.97"/>
</g>
</g>
</svg>
