<?xml version="1.0" encoding="UTF-8" standalone="no"?>
<!DOCTYPE svg PUBLIC "-//W3C//DTD SVG 1.1//EN"
 "http://www.w3.org/Graphics/SVG/1.1/DTD/svg11.dtd">
<!-- Generated by graphviz version 2.46.0 (0)
 -->
<!-- Title: setvert2d Pages: 1 -->
<svg width="394pt" height="180pt"
 viewBox="0.00 0.00 394.00 180.00" xmlns="http://www.w3.org/2000/svg" xmlns:xlink="http://www.w3.org/1999/xlink">
<g id="graph0" class="graph" transform="scale(1 1) rotate(0) translate(4 176)">
<title>setvert2d</title>
<polygon fill="white" stroke="transparent" points="-4,4 -4,-176 390,-176 390,4 -4,4"/>
<!-- Node1 -->
<g id="node1" class="node">
<title>Node1</title>
<g id="a_node1"><a xlink:title=" ">
<polygon fill="#bfbfbf" stroke="black" points="0,-38.5 0,-57.5 57,-57.5 57,-38.5 0,-38.5"/>
<text text-anchor="middle" x="28.5" y="-45.5" font-family="Helvetica,sans-Serif" font-size="10.00">setvert2d</text>
</a>
</g>
</g>
<!-- Node2 -->
<g id="node2" class="node">
<title>Node2</title>
<g id="a_node2"><a xlink:href="navier8_8f.html#ad95667f017072090d261e5eaef823395" target="_top" xlink:title=" ">
<polygon fill="white" stroke="black" points="93,-66.5 93,-85.5 165,-85.5 165,-66.5 93,-66.5"/>
<text text-anchor="middle" x="129" y="-73.5" font-family="Helvetica,sans-Serif" font-size="10.00">gbtuple_rank</text>
</a>
</g>
</g>
<!-- Node1&#45;&gt;Node2 -->
<g id="edge1" class="edge">
<title>Node1&#45;&gt;Node2</title>
<path fill="none" stroke="midnightblue" d="M57.2,-55.87C65.82,-58.32 75.53,-61.08 84.93,-63.76"/>
<polygon fill="midnightblue" stroke="midnightblue" points="83.99,-67.13 94.56,-66.5 85.9,-60.39 83.99,-67.13"/>
</g>
<!-- Node12 -->
<g id="node7" class="node">
<title>Node12</title>
<g id="a_node7"><a xlink:href="math_8f.html#a8431e1799f5711943b2e061a602754ca" target="_top" xlink:title=" ">
<polygon fill="white" stroke="black" points="222,-0.5 222,-19.5 267,-19.5 267,-0.5 222,-0.5"/>
<text text-anchor="middle" x="244.5" y="-7.5" font-family="Helvetica,sans-Serif" font-size="10.00">iglmax</text>
</a>
</g>
</g>
<!-- Node1&#45;&gt;Node12 -->
<g id="edge11" class="edge">
<title>Node1&#45;&gt;Node12</title>
<path fill="none" stroke="midnightblue" d="M57.04,-43.11C96.79,-36.05 170.07,-23.04 211.95,-15.6"/>
<polygon fill="midnightblue" stroke="midnightblue" points="212.65,-19.03 221.88,-13.84 211.42,-12.14 212.65,-19.03"/>
</g>
<!-- Node3 -->
<g id="node3" class="node">
<title>Node3</title>
<g id="a_node3"><a xlink:href="byte_8c.html#a2da8eeb074dfd3ffbfb3e9a4d301cda4" target="_top" xlink:title=" ">
<polygon fill="white" stroke="black" points="227,-152.5 227,-171.5 262,-171.5 262,-152.5 227,-152.5"/>
<text text-anchor="middle" x="244.5" y="-159.5" font-family="Helvetica,sans-Serif" font-size="10.00">exitt</text>
</a>
</g>
</g>
<!-- Node2&#45;&gt;Node3 -->
<g id="edge2" class="edge">
<title>Node2&#45;&gt;Node3</title>
<path fill="none" stroke="midnightblue" d="M139.58,-85.5C152.75,-98.3 177.49,-121.36 201,-138 206.23,-141.7 212.07,-145.31 217.72,-148.56"/>
<polygon fill="midnightblue" stroke="midnightblue" points="216.44,-151.85 226.88,-153.63 219.83,-145.72 216.44,-151.85"/>
</g>
<!-- Node6 -->
<g id="node5" class="node">
<title>Node6</title>
<g id="a_node5"><a xlink:href="comm__mpi_8f.html#a1dc8c1bc7e3a04d6080d70922c6ad5be" target="_top" xlink:title=" ">
<polygon fill="white" stroke="black" points="201,-38.5 201,-57.5 288,-57.5 288,-38.5 201,-38.5"/>
<text text-anchor="middle" x="244.5" y="-45.5" font-family="Helvetica,sans-Serif" font-size="10.00">igl_running_sum</text>
</a>
</g>
</g>
<!-- Node2&#45;&gt;Node6 -->
<g id="edge4" class="edge">
<title>Node2&#45;&gt;Node6</title>
<path fill="none" stroke="midnightblue" d="M165.29,-67.29C174.66,-64.98 184.95,-62.44 194.89,-59.99"/>
<polygon fill="midnightblue" stroke="midnightblue" points="195.81,-63.37 204.68,-57.58 194.13,-56.57 195.81,-63.37"/>
</g>
<!-- Node2&#45;&gt;Node12 -->
<g id="edge6" class="edge">
<title>Node2&#45;&gt;Node12</title>
<path fill="none" stroke="midnightblue" d="M142.94,-66.49C156.87,-56.49 179.88,-40.61 201,-29 204.75,-26.94 208.76,-24.92 212.76,-23.02"/>
<polygon fill="midnightblue" stroke="midnightblue" points="214.34,-26.14 221.98,-18.8 211.43,-19.78 214.34,-26.14"/>
</g>
<!-- Node15 -->
<g id="node9" class="node">
<title>Node15</title>
<g id="a_node9"><a xlink:href="navier8_8f.html#ab45afa33532528c978fbfcf44355bb28" target="_top" xlink:title=" ">
<polygon fill="white" stroke="red" points="212.5,-76.5 212.5,-95.5 276.5,-95.5 276.5,-76.5 212.5,-76.5"/>
<text text-anchor="middle" x="244.5" y="-83.5" font-family="Helvetica,sans-Serif" font-size="10.00">irank_vecn</text>
</a>
</g>
</g>
<!-- Node2&#45;&gt;Node15 -->
<g id="edge8" class="edge">
<title>Node2&#45;&gt;Node15</title>
<path fill="none" stroke="midnightblue" d="M165.29,-79.11C176.97,-80.14 190.07,-81.29 202.15,-82.36"/>
<polygon fill="midnightblue" stroke="midnightblue" points="202.19,-85.87 212.46,-83.26 202.8,-78.9 202.19,-85.87"/>
</g>
<!-- Node16 -->
<g id="node10" class="node">
<title>Node16</title>
<g id="a_node10"><a xlink:href="navier8_8f.html#adcc31cd78dd8ff5e821a590c916e4506" target="_top" xlink:title=" ">
<polygon fill="white" stroke="red" points="324,-95.5 324,-114.5 386,-114.5 386,-95.5 324,-95.5"/>
<text text-anchor="middle" x="355" y="-102.5" font-family="Helvetica,sans-Serif" font-size="10.00">ituple_sort</text>
</a>
</g>
</g>
<!-- Node2&#45;&gt;Node16 -->
<g id="edge10" class="edge">
<title>Node2&#45;&gt;Node16</title>
<path fill="none" stroke="midnightblue" d="M147.78,-85.53C161.79,-92.47 182.06,-101.28 201,-105 238.7,-112.4 282.65,-111.44 313.74,-109.2"/>
<polygon fill="midnightblue" stroke="midnightblue" points="314.07,-112.69 323.77,-108.4 313.52,-105.71 314.07,-112.69"/>
</g>
<!-- Node4 -->
<g id="node4" class="node">
<title>Node4</title>
<g id="a_node4"><a xlink:href="comm__mpi_8f.html#acc8803a3787828530843112e0c48941b" target="_top" xlink:title=" ">
<polygon fill="white" stroke="red" points="330,-152.5 330,-171.5 380,-171.5 380,-152.5 330,-152.5"/>
<text text-anchor="middle" x="355" y="-159.5" font-family="Helvetica,sans-Serif" font-size="10.00">nek_die</text>
</a>
</g>
</g>
<!-- Node3&#45;&gt;Node4 -->
<g id="edge3" class="edge">
<title>Node3&#45;&gt;Node4</title>
<path fill="none" stroke="midnightblue" d="M262.45,-162C277.74,-162 300.69,-162 319.78,-162"/>
<polygon fill="midnightblue" stroke="midnightblue" points="319.92,-165.5 329.92,-162 319.92,-158.5 319.92,-165.5"/>
</g>
<!-- Node7 -->
<g id="node6" class="node">
<title>Node7</title>
<g id="a_node6"><a xlink:href="mpi__dummy_8f.html#a360ea2d5368e0651d29945de0f055d09" target="_top" xlink:title=" ">
<polygon fill="white" stroke="red" points="325.5,-38.5 325.5,-57.5 384.5,-57.5 384.5,-38.5 325.5,-38.5"/>
<text text-anchor="middle" x="355" y="-45.5" font-family="Helvetica,sans-Serif" font-size="10.00">mpi_scan</text>
</a>
</g>
</g>
<!-- Node6&#45;&gt;Node7 -->
<g id="edge5" class="edge">
<title>Node6&#45;&gt;Node7</title>
<path fill="none" stroke="midnightblue" d="M288.07,-48C297.03,-48 306.44,-48 315.25,-48"/>
<polygon fill="midnightblue" stroke="midnightblue" points="315.26,-51.5 325.26,-48 315.26,-44.5 315.26,-51.5"/>
</g>
<!-- Node13 -->
<g id="node8" class="node">
<title>Node13</title>
<g id="a_node8"><a xlink:href="gs__test__gop__nonblocking_8c.html#a9a5cca78c6f0fc8b3c6845a29e9113ce" target="_top" xlink:title=" ">
<polygon fill="white" stroke="red" points="337.5,-0.5 337.5,-19.5 372.5,-19.5 372.5,-0.5 337.5,-0.5"/>
<text text-anchor="middle" x="355" y="-7.5" font-family="Helvetica,sans-Serif" font-size="10.00">igop</text>
</a>
</g>
</g>
<!-- Node12&#45;&gt;Node13 -->
<g id="edge7" class="edge">
<title>Node12&#45;&gt;Node13</title>
<path fill="none" stroke="midnightblue" d="M267.2,-10C284.46,-10 308.71,-10 327.19,-10"/>
<polygon fill="midnightblue" stroke="midnightblue" points="327.31,-13.5 337.31,-10 327.31,-6.5 327.31,-13.5"/>
</g>
<!-- Node15&#45;&gt;Node16 -->
<g id="edge9" class="edge">
<title>Node15&#45;&gt;Node16</title>
<path fill="none" stroke="midnightblue" d="M276.59,-91.44C288.14,-93.47 301.41,-95.79 313.66,-97.94"/>
<polygon fill="midnightblue" stroke="midnightblue" points="313.2,-101.41 323.65,-99.69 314.41,-94.51 313.2,-101.41"/>
</g>
</g>
</svg>
