<?xml version="1.0" encoding="UTF-8" standalone="no"?>
<!DOCTYPE svg PUBLIC "-//W3C//DTD SVG 1.1//EN"
 "http://www.w3.org/Graphics/SVG/1.1/DTD/svg11.dtd">
<!-- Generated by graphviz version 2.46.0 (0)
 -->
<!-- Title: opcolv3 Pages: 1 -->
<svg width="351pt" height="104pt"
 viewBox="0.00 0.00 351.00 104.00" xmlns="http://www.w3.org/2000/svg" xmlns:xlink="http://www.w3.org/1999/xlink">
<g id="graph0" class="graph" transform="scale(1 1) rotate(0) translate(4 100)">
<title>opcolv3</title>
<polygon fill="white" stroke="transparent" points="-4,4 -4,-100 347,-100 347,4 -4,4"/>
<!-- Node1 -->
<g id="node1" class="node">
<title>Node1</title>
<g id="a_node1"><a xlink:title=" ">
<polygon fill="#bfbfbf" stroke="black" points="293,-38.5 293,-57.5 343,-57.5 343,-38.5 293,-38.5"/>
<text text-anchor="middle" x="318" y="-45.5" font-family="Helvetica,sans-Serif" font-size="10.00">opcolv3</text>
</a>
</g>
</g>
<!-- Node2 -->
<g id="node2" class="node">
<title>Node2</title>
<g id="a_node2"><a xlink:href="perturb_8f.html#afb8592701ab3283a1c01ed23f1d0ff56" target="_top" xlink:title=" ">
<polygon fill="white" stroke="black" points="175,-76.5 175,-95.5 257,-95.5 257,-76.5 175,-76.5"/>
<text text-anchor="middle" x="216" y="-83.5" font-family="Helvetica,sans-Serif" font-size="10.00">advabp_adjoint</text>
</a>
</g>
</g>
<!-- Node1&#45;&gt;Node2 -->
<g id="edge1" class="edge">
<title>Node1&#45;&gt;Node2</title>
<path fill="none" stroke="midnightblue" d="M283.34,-60.79C269.83,-65.93 254.53,-71.74 242.03,-76.49"/>
<polygon fill="midnightblue" stroke="midnightblue" points="284.69,-64.02 292.79,-57.2 282.2,-57.48 284.69,-64.02"/>
</g>
<!-- Node10 -->
<g id="node5" class="node">
<title>Node10</title>
<g id="a_node5"><a xlink:href="ssolv_8f.html#a8b37c01e0bc4d591edd93e01f68f6ba9" target="_top" xlink:title=" ">
<polygon fill="white" stroke="black" points="192,-38.5 192,-57.5 240,-57.5 240,-38.5 192,-38.5"/>
<text text-anchor="middle" x="216" y="-45.5" font-family="Helvetica,sans-Serif" font-size="10.00">chkssv</text>
</a>
</g>
</g>
<!-- Node1&#45;&gt;Node10 -->
<g id="edge4" class="edge">
<title>Node1&#45;&gt;Node10</title>
<path fill="none" stroke="midnightblue" d="M282.56,-48C268.6,-48 252.86,-48 240.3,-48"/>
<polygon fill="midnightblue" stroke="midnightblue" points="282.79,-51.5 292.79,-48 282.79,-44.5 282.79,-51.5"/>
</g>
<!-- Node15 -->
<g id="node9" class="node">
<title>Node15</title>
<g id="a_node9"><a xlink:href="navier1_8f.html#a3541733d6d302fdc632d504bb47a653b" target="_top" xlink:title=" ">
<polygon fill="white" stroke="black" points="192,-0.5 192,-19.5 240,-19.5 240,-0.5 192,-0.5"/>
<text text-anchor="middle" x="216" y="-7.5" font-family="Helvetica,sans-Serif" font-size="10.00">convuz</text>
</a>
</g>
</g>
<!-- Node1&#45;&gt;Node15 -->
<g id="edge8" class="edge">
<title>Node1&#45;&gt;Node15</title>
<path fill="none" stroke="midnightblue" d="M283.37,-35.22C269.22,-29.84 253.1,-23.72 240.3,-18.85"/>
<polygon fill="midnightblue" stroke="midnightblue" points="282.2,-38.52 292.79,-38.8 284.69,-31.98 282.2,-38.52"/>
</g>
<!-- Node3 -->
<g id="node3" class="node">
<title>Node3</title>
<g id="a_node3"><a xlink:href="perturb_8f.html#a807bd5cbc891f8c0a4a0bfa3e02375fa" target="_top" xlink:title=" ">
<polygon fill="white" stroke="black" points="89,-76.5 89,-95.5 138,-95.5 138,-76.5 89,-76.5"/>
<text text-anchor="middle" x="113.5" y="-83.5" font-family="Helvetica,sans-Serif" font-size="10.00">makefp</text>
</a>
</g>
</g>
<!-- Node2&#45;&gt;Node3 -->
<g id="edge2" class="edge">
<title>Node2&#45;&gt;Node3</title>
<path fill="none" stroke="midnightblue" d="M164.92,-86C155.58,-86 146.23,-86 138.17,-86"/>
<polygon fill="midnightblue" stroke="midnightblue" points="164.99,-89.5 174.99,-86 164.99,-82.5 164.99,-89.5"/>
</g>
<!-- Node4 -->
<g id="node4" class="node">
<title>Node4</title>
<g id="a_node4"><a xlink:href="perturb_8f.html#a4b77d7db844b723bd5ed857e918bc83f" target="_top" xlink:title=" ">
<polygon fill="white" stroke="red" points="0,-76.5 0,-95.5 52,-95.5 52,-76.5 0,-76.5"/>
<text text-anchor="middle" x="26" y="-83.5" font-family="Helvetica,sans-Serif" font-size="10.00">perturbv</text>
</a>
</g>
</g>
<!-- Node3&#45;&gt;Node4 -->
<g id="edge3" class="edge">
<title>Node3&#45;&gt;Node4</title>
<path fill="none" stroke="midnightblue" d="M78.66,-86C69.83,-86 60.47,-86 52.18,-86"/>
<polygon fill="midnightblue" stroke="midnightblue" points="78.68,-89.5 88.68,-86 78.68,-82.5 78.68,-89.5"/>
</g>
<!-- Node11 -->
<g id="node6" class="node">
<title>Node11</title>
<g id="a_node6"><a xlink:href="ssolv_8f.html#a74bc64398b67796fee9c14b71bb435f3" target="_top" xlink:title=" ">
<polygon fill="white" stroke="black" points="88,-38.5 88,-57.5 139,-57.5 139,-38.5 88,-38.5"/>
<text text-anchor="middle" x="113.5" y="-45.5" font-family="Helvetica,sans-Serif" font-size="10.00">chkssvt</text>
</a>
</g>
</g>
<!-- Node10&#45;&gt;Node11 -->
<g id="edge5" class="edge">
<title>Node10&#45;&gt;Node11</title>
<path fill="none" stroke="midnightblue" d="M181.79,-48C167.9,-48 152.04,-48 139.21,-48"/>
<polygon fill="midnightblue" stroke="midnightblue" points="181.94,-51.5 191.94,-48 181.94,-44.5 181.94,-51.5"/>
</g>
<!-- Node12 -->
<g id="node7" class="node">
<title>Node12</title>
<g id="a_node7"><a xlink:href="ssolv_8f.html#a4bb42a5afabbba8c6518d83cbe481c17" target="_top" xlink:title=" ">
<polygon fill="white" stroke="black" points="0.5,-38.5 0.5,-57.5 51.5,-57.5 51.5,-38.5 0.5,-38.5"/>
<text text-anchor="middle" x="26" y="-45.5" font-family="Helvetica,sans-Serif" font-size="10.00">go1step</text>
</a>
</g>
</g>
<!-- Node11&#45;&gt;Node12 -->
<g id="edge6" class="edge">
<title>Node11&#45;&gt;Node12</title>
<path fill="none" stroke="midnightblue" d="M77.51,-48C68.84,-48 59.73,-48 51.67,-48"/>
<polygon fill="midnightblue" stroke="midnightblue" points="77.77,-51.5 87.77,-48 77.77,-44.5 77.77,-51.5"/>
</g>
<!-- Node13 -->
<g id="node8" class="node">
<title>Node13</title>
<g id="a_node8"><a xlink:href="ssolv_8f.html#a2de8913c214fa083dcb088c57bd45272" target="_top" xlink:title=" ">
<polygon fill="white" stroke="red" points="3,-0.5 3,-19.5 49,-19.5 49,-0.5 3,-0.5"/>
<text text-anchor="middle" x="26" y="-7.5" font-family="Helvetica,sans-Serif" font-size="10.00">gostep</text>
</a>
</g>
</g>
<!-- Node11&#45;&gt;Node13 -->
<g id="edge7" class="edge">
<title>Node11&#45;&gt;Node13</title>
<path fill="none" stroke="midnightblue" d="M81.66,-34.29C70.69,-29.42 58.59,-24.04 48.57,-19.59"/>
<polygon fill="midnightblue" stroke="midnightblue" points="80.37,-37.55 90.92,-38.41 83.21,-31.15 80.37,-37.55"/>
</g>
<!-- Node16 -->
<g id="node10" class="node">
<title>Node16</title>
<g id="a_node10"><a xlink:href="navier1_8f.html#a23e6343990072aa1a6b17109ccc7ba2b" target="_top" xlink:title=" ">
<polygon fill="white" stroke="red" points="93.5,-0.5 93.5,-19.5 133.5,-19.5 133.5,-0.5 93.5,-0.5"/>
<text text-anchor="middle" x="113.5" y="-7.5" font-family="Helvetica,sans-Serif" font-size="10.00">plan1</text>
</a>
</g>
</g>
<!-- Node15&#45;&gt;Node16 -->
<g id="edge9" class="edge">
<title>Node15&#45;&gt;Node16</title>
<path fill="none" stroke="midnightblue" d="M181.91,-10C165.94,-10 147.35,-10 133.74,-10"/>
<polygon fill="midnightblue" stroke="midnightblue" points="181.94,-13.5 191.94,-10 181.94,-6.5 181.94,-13.5"/>
</g>
</g>
</svg>
