<?xml version="1.0" encoding="UTF-8" standalone="no"?>
<!DOCTYPE svg PUBLIC "-//W3C//DTD SVG 1.1//EN"
 "http://www.w3.org/Graphics/SVG/1.1/DTD/svg11.dtd">
<!-- Generated by graphviz version 2.46.0 (0)
 -->
<!-- Title: outfld2d Pages: 1 -->
<svg width="351pt" height="180pt"
 viewBox="0.00 0.00 351.00 180.00" xmlns="http://www.w3.org/2000/svg" xmlns:xlink="http://www.w3.org/1999/xlink">
<g id="graph0" class="graph" transform="scale(1 1) rotate(0) translate(4 176)">
<title>outfld2d</title>
<polygon fill="white" stroke="transparent" points="-4,4 -4,-176 347,-176 347,4 -4,4"/>
<!-- Node1 -->
<g id="node1" class="node">
<title>Node1</title>
<g id="a_node1"><a xlink:title=" ">
<polygon fill="#bfbfbf" stroke="black" points="0,-114.5 0,-133.5 51,-133.5 51,-114.5 0,-114.5"/>
<text text-anchor="middle" x="25.5" y="-121.5" font-family="Helvetica,sans-Serif" font-size="10.00">outfld2d</text>
</a>
</g>
</g>
<!-- Node2 -->
<g id="node2" class="node">
<title>Node2</title>
<g id="a_node2"><a xlink:href="math_8f.html#a692155d1d2ec380a9fdb2d81ef221625" target="_top" xlink:title=" ">
<polygon fill="white" stroke="black" points="213,-152.5 213,-171.5 253,-171.5 253,-152.5 213,-152.5"/>
<text text-anchor="middle" x="233" y="-159.5" font-family="Helvetica,sans-Serif" font-size="10.00">blank</text>
</a>
</g>
</g>
<!-- Node1&#45;&gt;Node2 -->
<g id="edge1" class="edge">
<title>Node1&#45;&gt;Node2</title>
<path fill="none" stroke="midnightblue" d="M51.26,-132.85C62.11,-136.44 75.07,-140.37 87,-143 126.52,-151.73 173.05,-156.95 202.54,-159.65"/>
<polygon fill="midnightblue" stroke="midnightblue" points="202.31,-163.15 212.58,-160.54 202.93,-156.17 202.31,-163.15"/>
</g>
<!-- Node3 -->
<g id="node3" class="node">
<title>Node3</title>
<g id="a_node3"><a xlink:href="navier5_8f.html#a65fc009edc773fa18c30b07586e8b366" target="_top" xlink:title=" ">
<polygon fill="white" stroke="black" points="87,-114.5 87,-133.5 173,-133.5 173,-114.5 87,-114.5"/>
<text text-anchor="middle" x="130" y="-121.5" font-family="Helvetica,sans-Serif" font-size="10.00">dump_header2d</text>
</a>
</g>
</g>
<!-- Node1&#45;&gt;Node3 -->
<g id="edge2" class="edge">
<title>Node1&#45;&gt;Node3</title>
<path fill="none" stroke="midnightblue" d="M51.05,-124C58.8,-124 67.67,-124 76.59,-124"/>
<polygon fill="midnightblue" stroke="midnightblue" points="76.63,-127.5 86.63,-124 76.63,-120.5 76.63,-127.5"/>
</g>
<!-- Node4 -->
<g id="node4" class="node">
<title>Node4</title>
<g id="a_node4"><a xlink:href="comm__mpi_8f.html#ae6a06eb6f47a6153825afb25e6cc49c7" target="_top" xlink:title=" ">
<polygon fill="white" stroke="black" points="105.5,-76.5 105.5,-95.5 154.5,-95.5 154.5,-76.5 105.5,-76.5"/>
<text text-anchor="middle" x="130" y="-83.5" font-family="Helvetica,sans-Serif" font-size="10.00">err_chk</text>
</a>
</g>
</g>
<!-- Node1&#45;&gt;Node4 -->
<g id="edge3" class="edge">
<title>Node1&#45;&gt;Node4</title>
<path fill="none" stroke="midnightblue" d="M51.05,-114.9C64.43,-109.94 81.17,-103.73 95.71,-98.34"/>
<polygon fill="midnightblue" stroke="midnightblue" points="97.19,-101.52 105.35,-94.77 94.76,-94.96 97.19,-101.52"/>
</g>
<!-- Node4&#45;&gt;Node2 -->
<g id="edge4" class="edge">
<title>Node4&#45;&gt;Node2</title>
<path fill="none" stroke="midnightblue" d="M154.55,-94.73C160.81,-97.55 167.39,-101.01 173,-105 191.95,-118.49 192,-127.12 209,-143 209.94,-143.88 210.91,-144.76 211.9,-145.64"/>
<polygon fill="midnightblue" stroke="midnightblue" points="209.71,-148.38 219.59,-152.21 214.26,-143.06 209.71,-148.38"/>
</g>
<!-- Node5 -->
<g id="node5" class="node">
<title>Node5</title>
<g id="a_node5"><a xlink:href="math_8f.html#ad7fb480cea001849621405f37167aab1" target="_top" xlink:title=" ">
<polygon fill="white" stroke="black" points="209,-114.5 209,-133.5 257,-133.5 257,-114.5 209,-114.5"/>
<text text-anchor="middle" x="233" y="-121.5" font-family="Helvetica,sans-Serif" font-size="10.00">chcopy</text>
</a>
</g>
</g>
<!-- Node4&#45;&gt;Node5 -->
<g id="edge5" class="edge">
<title>Node4&#45;&gt;Node5</title>
<path fill="none" stroke="midnightblue" d="M154.68,-94.91C167.94,-99.9 184.69,-106.2 199.2,-111.66"/>
<polygon fill="midnightblue" stroke="midnightblue" points="198.22,-115.03 208.82,-115.28 200.69,-108.48 198.22,-115.03"/>
</g>
<!-- Node6 -->
<g id="node6" class="node">
<title>Node6</title>
<g id="a_node6"><a xlink:href="byte_8c.html#a2da8eeb074dfd3ffbfb3e9a4d301cda4" target="_top" xlink:title=" ">
<polygon fill="white" stroke="black" points="215.5,-76.5 215.5,-95.5 250.5,-95.5 250.5,-76.5 215.5,-76.5"/>
<text text-anchor="middle" x="233" y="-83.5" font-family="Helvetica,sans-Serif" font-size="10.00">exitt</text>
</a>
</g>
</g>
<!-- Node4&#45;&gt;Node6 -->
<g id="edge6" class="edge">
<title>Node4&#45;&gt;Node6</title>
<path fill="none" stroke="midnightblue" d="M154.68,-86C169.84,-86 189.54,-86 205.26,-86"/>
<polygon fill="midnightblue" stroke="midnightblue" points="205.41,-89.5 215.41,-86 205.41,-82.5 205.41,-89.5"/>
</g>
<!-- Node9 -->
<g id="node8" class="node">
<title>Node9</title>
<g id="a_node8"><a xlink:href="math_8f.html#a269b9bcae973eb49454422b00e319706" target="_top" xlink:title=" ">
<polygon fill="white" stroke="black" points="210.5,-38.5 210.5,-57.5 255.5,-57.5 255.5,-38.5 210.5,-38.5"/>
<text text-anchor="middle" x="233" y="-45.5" font-family="Helvetica,sans-Serif" font-size="10.00">iglsum</text>
</a>
</g>
</g>
<!-- Node4&#45;&gt;Node9 -->
<g id="edge8" class="edge">
<title>Node4&#45;&gt;Node9</title>
<path fill="none" stroke="midnightblue" d="M154.68,-77.09C168.32,-71.96 185.65,-65.44 200.44,-59.88"/>
<polygon fill="midnightblue" stroke="midnightblue" points="202.07,-63 210.19,-56.2 199.6,-56.45 202.07,-63"/>
</g>
<!-- Node12 -->
<g id="node10" class="node">
<title>Node12</title>
<g id="a_node10"><a xlink:href="ic_8f.html#ada3a2c3283a9052e1fe4b7a90375b09b" target="_top" xlink:title=" ">
<polygon fill="white" stroke="black" points="213,-0.5 213,-19.5 253,-19.5 253,-0.5 213,-0.5"/>
<text text-anchor="middle" x="233" y="-7.5" font-family="Helvetica,sans-Serif" font-size="10.00">indx1</text>
</a>
</g>
</g>
<!-- Node4&#45;&gt;Node12 -->
<g id="edge10" class="edge">
<title>Node4&#45;&gt;Node12</title>
<path fill="none" stroke="midnightblue" d="M143.79,-76.37C160.79,-63.58 191.03,-40.83 211.3,-25.57"/>
<polygon fill="midnightblue" stroke="midnightblue" points="213.43,-28.36 219.31,-19.55 209.22,-22.76 213.43,-28.36"/>
</g>
<!-- Node7 -->
<g id="node7" class="node">
<title>Node7</title>
<g id="a_node7"><a xlink:href="comm__mpi_8f.html#acc8803a3787828530843112e0c48941b" target="_top" xlink:title=" ">
<polygon fill="white" stroke="red" points="293,-76.5 293,-95.5 343,-95.5 343,-76.5 293,-76.5"/>
<text text-anchor="middle" x="318" y="-83.5" font-family="Helvetica,sans-Serif" font-size="10.00">nek_die</text>
</a>
</g>
</g>
<!-- Node6&#45;&gt;Node7 -->
<g id="edge7" class="edge">
<title>Node6&#45;&gt;Node7</title>
<path fill="none" stroke="midnightblue" d="M250.8,-86C259.99,-86 271.72,-86 282.74,-86"/>
<polygon fill="midnightblue" stroke="midnightblue" points="282.99,-89.5 292.99,-86 282.99,-82.5 282.99,-89.5"/>
</g>
<!-- Node10 -->
<g id="node9" class="node">
<title>Node10</title>
<g id="a_node9"><a xlink:href="gs__test__gop__nonblocking_8c.html#a9a5cca78c6f0fc8b3c6845a29e9113ce" target="_top" xlink:title=" ">
<polygon fill="white" stroke="red" points="300.5,-38.5 300.5,-57.5 335.5,-57.5 335.5,-38.5 300.5,-38.5"/>
<text text-anchor="middle" x="318" y="-45.5" font-family="Helvetica,sans-Serif" font-size="10.00">igop</text>
</a>
</g>
</g>
<!-- Node9&#45;&gt;Node10 -->
<g id="edge9" class="edge">
<title>Node9&#45;&gt;Node10</title>
<path fill="none" stroke="midnightblue" d="M255.81,-48C266.36,-48 279.13,-48 290.27,-48"/>
<polygon fill="midnightblue" stroke="midnightblue" points="290.32,-51.5 300.32,-48 290.32,-44.5 290.32,-51.5"/>
</g>
</g>
</svg>
