<?xml version="1.0" encoding="UTF-8" standalone="no"?>
<!DOCTYPE svg PUBLIC "-//W3C//DTD SVG 1.1//EN"
 "http://www.w3.org/Graphics/SVG/1.1/DTD/svg11.dtd">
<!-- Generated by graphviz version 2.46.0 (0)
 -->
<!-- Title: conv2 Pages: 1 -->
<svg width="331pt" height="218pt"
 viewBox="0.00 0.00 331.00 218.00" xmlns="http://www.w3.org/2000/svg" xmlns:xlink="http://www.w3.org/1999/xlink">
<g id="graph0" class="graph" transform="scale(1 1) rotate(0) translate(4 214)">
<title>conv2</title>
<polygon fill="white" stroke="transparent" points="-4,4 -4,-214 327,-214 327,4 -4,4"/>
<!-- Node1 -->
<g id="node1" class="node">
<title>Node1</title>
<g id="a_node1"><a xlink:title=" ">
<polygon fill="#bfbfbf" stroke="black" points="0,-95.5 0,-114.5 43,-114.5 43,-95.5 0,-95.5"/>
<text text-anchor="middle" x="21.5" y="-102.5" font-family="Helvetica,sans-Serif" font-size="10.00">conv2</text>
</a>
</g>
</g>
<!-- Node2 -->
<g id="node2" class="node">
<title>Node2</title>
<g id="a_node2"><a xlink:href="math_8f.html#a30b83d516b6ab162d3fafe73e03a3e92" target="_top" xlink:title=" ">
<polygon fill="white" stroke="black" points="83.5,-190.5 83.5,-209.5 121.5,-209.5 121.5,-190.5 83.5,-190.5"/>
<text text-anchor="middle" x="102.5" y="-197.5" font-family="Helvetica,sans-Serif" font-size="10.00">add2</text>
</a>
</g>
</g>
<!-- Node1&#45;&gt;Node2 -->
<g id="edge1" class="edge">
<title>Node1&#45;&gt;Node2</title>
<path fill="none" stroke="midnightblue" d="M28.64,-114.67C38.38,-129.66 58.39,-159.08 79,-181 79.77,-181.82 80.57,-182.64 81.4,-183.45"/>
<polygon fill="midnightblue" stroke="midnightblue" points="79.36,-186.32 89.13,-190.43 84.05,-181.13 79.36,-186.32"/>
</g>
<!-- Node5 -->
<g id="node5" class="node">
<title>Node5</title>
<g id="a_node5"><a xlink:href="math_8f.html#a3470db04166d9ba91454a14cc17dbec2" target="_top" xlink:title=" ">
<polygon fill="white" stroke="black" points="85,-152.5 85,-171.5 120,-171.5 120,-152.5 85,-152.5"/>
<text text-anchor="middle" x="102.5" y="-159.5" font-family="Helvetica,sans-Serif" font-size="10.00">col2</text>
</a>
</g>
</g>
<!-- Node1&#45;&gt;Node5 -->
<g id="edge4" class="edge">
<title>Node1&#45;&gt;Node5</title>
<path fill="none" stroke="midnightblue" d="M35.9,-114.67C48,-123.4 66.02,-136.4 80.12,-146.57"/>
<polygon fill="midnightblue" stroke="midnightblue" points="78.14,-149.46 88.3,-152.47 82.24,-143.78 78.14,-149.46"/>
</g>
<!-- Node6 -->
<g id="node6" class="node">
<title>Node6</title>
<g id="a_node6"><a xlink:href="math_8f.html#a73c11da474d84d5c1ae59109d7ffbaa7" target="_top" xlink:title=" ">
<polygon fill="white" stroke="black" points="85,-114.5 85,-133.5 120,-133.5 120,-114.5 85,-114.5"/>
<text text-anchor="middle" x="102.5" y="-121.5" font-family="Helvetica,sans-Serif" font-size="10.00">col4</text>
</a>
</g>
</g>
<!-- Node1&#45;&gt;Node6 -->
<g id="edge6" class="edge">
<title>Node1&#45;&gt;Node6</title>
<path fill="none" stroke="midnightblue" d="M43.26,-109.99C52.99,-112.33 64.71,-115.15 75.07,-117.64"/>
<polygon fill="midnightblue" stroke="midnightblue" points="74.32,-121.06 84.86,-120 75.96,-114.26 74.32,-121.06"/>
</g>
<!-- Node7 -->
<g id="node7" class="node">
<title>Node7</title>
<g id="a_node7"><a xlink:href="math_8f.html#a3b43508554f14bdea8e14473d7d0803c" target="_top" xlink:title=" ">
<polygon fill="white" stroke="black" points="83.5,-76.5 83.5,-95.5 121.5,-95.5 121.5,-76.5 83.5,-76.5"/>
<text text-anchor="middle" x="102.5" y="-83.5" font-family="Helvetica,sans-Serif" font-size="10.00">copy</text>
</a>
</g>
</g>
<!-- Node1&#45;&gt;Node7 -->
<g id="edge7" class="edge">
<title>Node1&#45;&gt;Node7</title>
<path fill="none" stroke="midnightblue" d="M43.26,-100.01C52.49,-97.79 63.49,-95.14 73.44,-92.75"/>
<polygon fill="midnightblue" stroke="midnightblue" points="74.4,-96.12 83.3,-90.38 72.76,-89.31 74.4,-96.12"/>
</g>
<!-- Node8 -->
<g id="node8" class="node">
<title>Node8</title>
<g id="a_node8"><a xlink:href="math_8f.html#a12a3f9854732798780dfe93ecd4e38bf" target="_top" xlink:title=" ">
<polygon fill="white" stroke="black" points="79,-38.5 79,-57.5 126,-57.5 126,-38.5 79,-38.5"/>
<text text-anchor="middle" x="102.5" y="-45.5" font-family="Helvetica,sans-Serif" font-size="10.00">invcol2</text>
</a>
</g>
</g>
<!-- Node1&#45;&gt;Node8 -->
<g id="edge8" class="edge">
<title>Node1&#45;&gt;Node8</title>
<path fill="none" stroke="midnightblue" d="M35.9,-95.33C48,-86.6 66.02,-73.6 80.12,-63.43"/>
<polygon fill="midnightblue" stroke="midnightblue" points="82.24,-66.22 88.3,-57.53 78.14,-60.54 82.24,-66.22"/>
</g>
<!-- Node9 -->
<g id="node9" class="node">
<title>Node9</title>
<g id="a_node9"><a xlink:href="math_8f.html#af44de42b023a4a68cd98ea341204342d" target="_top" xlink:title=" ">
<polygon fill="white" stroke="black" points="83.5,-0.5 83.5,-19.5 121.5,-19.5 121.5,-0.5 83.5,-0.5"/>
<text text-anchor="middle" x="102.5" y="-7.5" font-family="Helvetica,sans-Serif" font-size="10.00">rzero</text>
</a>
</g>
</g>
<!-- Node1&#45;&gt;Node9 -->
<g id="edge10" class="edge">
<title>Node1&#45;&gt;Node9</title>
<path fill="none" stroke="midnightblue" d="M28.64,-95.33C38.38,-80.34 58.39,-50.92 79,-29 79.77,-28.18 80.57,-27.36 81.4,-26.55"/>
<polygon fill="midnightblue" stroke="midnightblue" points="84.05,-28.87 89.13,-19.57 79.36,-23.68 84.05,-28.87"/>
</g>
<!-- Node3 -->
<g id="node3" class="node">
<title>Node3</title>
<g id="a_node3"><a xlink:href="comm__mpi_8f.html#af06ec29f06aac3f8809e19de2a7e8946" target="_top" xlink:title=" ">
<polygon fill="white" stroke="black" points="162,-152.5 162,-171.5 223,-171.5 223,-152.5 162,-152.5"/>
<text text-anchor="middle" x="192.5" y="-159.5" font-family="Helvetica,sans-Serif" font-size="10.00">dnekclock</text>
</a>
</g>
</g>
<!-- Node2&#45;&gt;Node3 -->
<g id="edge2" class="edge">
<title>Node2&#45;&gt;Node3</title>
<path fill="none" stroke="midnightblue" d="M121.73,-192.13C132.73,-187.38 147.03,-181.2 159.82,-175.68"/>
<polygon fill="midnightblue" stroke="midnightblue" points="161.44,-178.79 169.23,-171.62 158.66,-172.37 161.44,-178.79"/>
</g>
<!-- Node4 -->
<g id="node4" class="node">
<title>Node4</title>
<g id="a_node4"><a xlink:href="mpi__dummy_8f.html#ae6a5ef945f87c2c27849696b70f3af2a" target="_top" xlink:title=" ">
<polygon fill="white" stroke="black" points="259,-152.5 259,-171.5 323,-171.5 323,-152.5 259,-152.5"/>
<text text-anchor="middle" x="291" y="-159.5" font-family="Helvetica,sans-Serif" font-size="10.00">mpi_wtime</text>
</a>
</g>
</g>
<!-- Node3&#45;&gt;Node4 -->
<g id="edge3" class="edge">
<title>Node3&#45;&gt;Node4</title>
<path fill="none" stroke="midnightblue" d="M223.24,-162C231.27,-162 240.11,-162 248.65,-162"/>
<polygon fill="midnightblue" stroke="midnightblue" points="248.85,-165.5 258.85,-162 248.85,-158.5 248.85,-165.5"/>
</g>
<!-- Node5&#45;&gt;Node3 -->
<g id="edge5" class="edge">
<title>Node5&#45;&gt;Node3</title>
<path fill="none" stroke="midnightblue" d="M120.05,-162C129.05,-162 140.59,-162 151.77,-162"/>
<polygon fill="midnightblue" stroke="midnightblue" points="151.84,-165.5 161.84,-162 151.84,-158.5 151.84,-165.5"/>
</g>
<!-- Node8&#45;&gt;Node3 -->
<g id="edge9" class="edge">
<title>Node8&#45;&gt;Node3</title>
<path fill="none" stroke="midnightblue" d="M115.95,-57.5C119.37,-60.38 122.98,-63.67 126,-67 148.2,-91.49 169,-123.87 180.97,-143.8"/>
<polygon fill="midnightblue" stroke="midnightblue" points="178.01,-145.67 186.11,-152.5 184.04,-142.11 178.01,-145.67"/>
</g>
</g>
</svg>
