<?xml version="1.0" encoding="UTF-8" standalone="no"?>
<!DOCTYPE svg PUBLIC "-//W3C//DTD SVG 1.1//EN"
 "http://www.w3.org/Graphics/SVG/1.1/DTD/svg11.dtd">
<!-- Generated by graphviz version 2.46.0 (0)
 -->
<!-- Title: dudxyz Pages: 1 -->
<svg width="367pt" height="142pt"
 viewBox="0.00 0.00 367.00 142.00" xmlns="http://www.w3.org/2000/svg" xmlns:xlink="http://www.w3.org/1999/xlink">
<g id="graph0" class="graph" transform="scale(1 1) rotate(0) translate(4 138)">
<title>dudxyz</title>
<polygon fill="white" stroke="transparent" points="-4,4 -4,-138 363,-138 363,4 -4,4"/>
<!-- Node1 -->
<g id="node1" class="node">
<title>Node1</title>
<g id="a_node1"><a xlink:title=" ">
<polygon fill="#bfbfbf" stroke="black" points="311,-38.5 311,-57.5 359,-57.5 359,-38.5 311,-38.5"/>
<text text-anchor="middle" x="335" y="-45.5" font-family="Helvetica,sans-Serif" font-size="10.00">dudxyz</text>
</a>
</g>
</g>
<!-- Node2 -->
<g id="node2" class="node">
<title>Node2</title>
<g id="a_node2"><a xlink:href="navier1_8f.html#a1b70ccf853606db85f73ee320f561274" target="_top" xlink:title=" ">
<polygon fill="white" stroke="black" points="227,-76.5 227,-95.5 275,-95.5 275,-76.5 227,-76.5"/>
<text text-anchor="middle" x="251" y="-83.5" font-family="Helvetica,sans-Serif" font-size="10.00">conv1d</text>
</a>
</g>
</g>
<!-- Node1&#45;&gt;Node2 -->
<g id="edge1" class="edge">
<title>Node1&#45;&gt;Node2</title>
<path fill="none" stroke="midnightblue" d="M304.1,-61.85C293.67,-66.69 282.2,-72 272.69,-76.41"/>
<polygon fill="midnightblue" stroke="midnightblue" points="305.71,-64.97 313.31,-57.59 302.76,-58.62 305.71,-64.97"/>
</g>
<!-- Node43 -->
<g id="node7" class="node">
<title>Node43</title>
<g id="a_node7"><a xlink:href="induct_8f.html#ae4aad436730b0ff07bdad407671e6fae" target="_top" xlink:title=" ">
<polygon fill="white" stroke="black" points="235,-38.5 235,-57.5 267,-57.5 267,-38.5 235,-38.5"/>
<text text-anchor="middle" x="251" y="-45.5" font-family="Helvetica,sans-Serif" font-size="10.00">curl</text>
</a>
</g>
</g>
<!-- Node1&#45;&gt;Node43 -->
<g id="edge6" class="edge">
<title>Node1&#45;&gt;Node43</title>
<path fill="none" stroke="midnightblue" d="M300.41,-48C288.82,-48 276.41,-48 267.05,-48"/>
<polygon fill="midnightblue" stroke="midnightblue" points="300.72,-51.5 310.72,-48 300.72,-44.5 300.72,-51.5"/>
</g>
<!-- Node45 -->
<g id="node9" class="node">
<title>Node45</title>
<g id="a_node9"><a xlink:href="plan4_8f.html#a133b5c2a8f266ecb811b8baf380f0b76" target="_top" xlink:title=" ">
<polygon fill="white" stroke="black" points="227,-0.5 227,-19.5 275,-19.5 275,-0.5 227,-0.5"/>
<text text-anchor="middle" x="251" y="-7.5" font-family="Helvetica,sans-Serif" font-size="10.00">op_curl</text>
</a>
</g>
</g>
<!-- Node1&#45;&gt;Node45 -->
<g id="edge8" class="edge">
<title>Node1&#45;&gt;Node45</title>
<path fill="none" stroke="midnightblue" d="M304.1,-34.15C293.67,-29.31 282.2,-24 272.69,-19.59"/>
<polygon fill="midnightblue" stroke="midnightblue" points="302.76,-37.38 313.31,-38.41 305.71,-31.03 302.76,-37.38"/>
</g>
<!-- Node3 -->
<g id="node3" class="node">
<title>Node3</title>
<g id="a_node3"><a xlink:href="navier1_8f.html#a38ba376801cfa958294fae8c90db7680" target="_top" xlink:title=" ">
<polygon fill="white" stroke="red" points="130.5,-76.5 130.5,-95.5 178.5,-95.5 178.5,-76.5 130.5,-76.5"/>
<text text-anchor="middle" x="154.5" y="-83.5" font-family="Helvetica,sans-Serif" font-size="10.00">convop</text>
</a>
</g>
</g>
<!-- Node2&#45;&gt;Node3 -->
<g id="edge2" class="edge">
<title>Node2&#45;&gt;Node3</title>
<path fill="none" stroke="midnightblue" d="M216.52,-86C203.97,-86 189.99,-86 178.59,-86"/>
<polygon fill="midnightblue" stroke="midnightblue" points="216.64,-89.5 226.64,-86 216.64,-82.5 216.64,-89.5"/>
</g>
<!-- Node4 -->
<g id="node4" class="node">
<title>Node4</title>
<g id="a_node4"><a xlink:href="navier1_8f.html#a344ec731e4a89d0f136c91bc1963e8d5" target="_top" xlink:title=" ">
<polygon fill="white" stroke="red" points="19.5,-114.5 19.5,-133.5 62.5,-133.5 62.5,-114.5 19.5,-114.5"/>
<text text-anchor="middle" x="41" y="-121.5" font-family="Helvetica,sans-Serif" font-size="10.00">advab</text>
</a>
</g>
</g>
<!-- Node3&#45;&gt;Node4 -->
<g id="edge3" class="edge">
<title>Node3&#45;&gt;Node4</title>
<path fill="none" stroke="midnightblue" d="M120.77,-97.16C102.04,-103.54 79.1,-111.36 62.82,-116.91"/>
<polygon fill="midnightblue" stroke="midnightblue" points="122.06,-100.41 130.4,-93.87 119.8,-93.79 122.06,-100.41"/>
</g>
<!-- Node18 -->
<g id="node5" class="node">
<title>Node18</title>
<g id="a_node5"><a xlink:href="perturb_8f.html#a57aed02316492f3059b70c7a98e4e2f9" target="_top" xlink:title=" ">
<polygon fill="white" stroke="red" points="17,-76.5 17,-95.5 65,-95.5 65,-76.5 17,-76.5"/>
<text text-anchor="middle" x="41" y="-83.5" font-family="Helvetica,sans-Serif" font-size="10.00">advabp</text>
</a>
</g>
</g>
<!-- Node3&#45;&gt;Node18 -->
<g id="edge4" class="edge">
<title>Node3&#45;&gt;Node18</title>
<path fill="none" stroke="midnightblue" d="M120.16,-86C102.39,-86 80.99,-86 65.07,-86"/>
<polygon fill="midnightblue" stroke="midnightblue" points="120.4,-89.5 130.4,-86 120.4,-82.5 120.4,-89.5"/>
</g>
<!-- Node22 -->
<g id="node6" class="node">
<title>Node22</title>
<g id="a_node6"><a xlink:href="perturb_8f.html#afb8592701ab3283a1c01ed23f1d0ff56" target="_top" xlink:title=" ">
<polygon fill="white" stroke="red" points="0,-38.5 0,-57.5 82,-57.5 82,-38.5 0,-38.5"/>
<text text-anchor="middle" x="41" y="-45.5" font-family="Helvetica,sans-Serif" font-size="10.00">advabp_adjoint</text>
</a>
</g>
</g>
<!-- Node3&#45;&gt;Node22 -->
<g id="edge5" class="edge">
<title>Node3&#45;&gt;Node22</title>
<path fill="none" stroke="midnightblue" d="M120.86,-74.88C104.8,-69.4 85.63,-62.87 70.21,-57.62"/>
<polygon fill="midnightblue" stroke="midnightblue" points="119.8,-78.21 130.4,-78.13 122.06,-71.59 119.8,-78.21"/>
</g>
<!-- Node44 -->
<g id="node8" class="node">
<title>Node44</title>
<g id="a_node8"><a xlink:href="induct_8f.html#aa6af45a9618c82ac68f50ec1339dc5cf" target="_top" xlink:title=" ">
<polygon fill="white" stroke="black" points="118,-38.5 118,-57.5 191,-57.5 191,-38.5 118,-38.5"/>
<text text-anchor="middle" x="154.5" y="-45.5" font-family="Helvetica,sans-Serif" font-size="10.00">lorentz_force</text>
</a>
</g>
</g>
<!-- Node43&#45;&gt;Node44 -->
<g id="edge7" class="edge">
<title>Node43&#45;&gt;Node44</title>
<path fill="none" stroke="midnightblue" d="M224.81,-48C214.46,-48 202.29,-48 191.06,-48"/>
<polygon fill="midnightblue" stroke="midnightblue" points="224.82,-51.5 234.82,-48 224.82,-44.5 224.82,-51.5"/>
</g>
<!-- Node46 -->
<g id="node10" class="node">
<title>Node46</title>
<g id="a_node10"><a xlink:href="plan4_8f.html#a0afe6a03f628b5d52eeb491f7baff5b6" target="_top" xlink:title=" ">
<polygon fill="white" stroke="red" points="129,-0.5 129,-19.5 180,-19.5 180,-0.5 129,-0.5"/>
<text text-anchor="middle" x="154.5" y="-7.5" font-family="Helvetica,sans-Serif" font-size="10.00">crespsp</text>
</a>
</g>
</g>
<!-- Node45&#45;&gt;Node46 -->
<g id="edge9" class="edge">
<title>Node45&#45;&gt;Node46</title>
<path fill="none" stroke="midnightblue" d="M216.55,-10C204.59,-10 191.34,-10 180.24,-10"/>
<polygon fill="midnightblue" stroke="midnightblue" points="216.64,-13.5 226.64,-10 216.64,-6.5 216.64,-13.5"/>
</g>
</g>
</svg>
