<?xml version="1.0" encoding="UTF-8" standalone="no"?>
<!DOCTYPE svg PUBLIC "-//W3C//DTD SVG 1.1//EN"
 "http://www.w3.org/Graphics/SVG/1.1/DTD/svg11.dtd">
<!-- Generated by graphviz version 2.46.0 (0)
 -->
<!-- Title: opmask Pages: 1 -->
<svg width="313pt" height="180pt"
 viewBox="0.00 0.00 313.00 180.00" xmlns="http://www.w3.org/2000/svg" xmlns:xlink="http://www.w3.org/1999/xlink">
<g id="graph0" class="graph" transform="scale(1 1) rotate(0) translate(4 176)">
<title>opmask</title>
<polygon fill="white" stroke="transparent" points="-4,4 -4,-176 309,-176 309,4 -4,4"/>
<!-- Node1 -->
<g id="node1" class="node">
<title>Node1</title>
<g id="a_node1"><a xlink:title=" ">
<polygon fill="#bfbfbf" stroke="black" points="254,-95.5 254,-114.5 305,-114.5 305,-95.5 254,-95.5"/>
<text text-anchor="middle" x="279.5" y="-102.5" font-family="Helvetica,sans-Serif" font-size="10.00">opmask</text>
</a>
</g>
</g>
<!-- Node2 -->
<g id="node2" class="node">
<title>Node2</title>
<g id="a_node2"><a xlink:href="ssolv_8f.html#a8b37c01e0bc4d591edd93e01f68f6ba9" target="_top" xlink:title=" ">
<polygon fill="white" stroke="black" points="169,-152.5 169,-171.5 217,-171.5 217,-152.5 169,-152.5"/>
<text text-anchor="middle" x="193" y="-159.5" font-family="Helvetica,sans-Serif" font-size="10.00">chkssv</text>
</a>
</g>
</g>
<!-- Node1&#45;&gt;Node2 -->
<g id="edge1" class="edge">
<title>Node1&#45;&gt;Node2</title>
<path fill="none" stroke="midnightblue" d="M255.81,-120.31C240.63,-130.55 221.12,-143.71 208.12,-152.47"/>
<polygon fill="midnightblue" stroke="midnightblue" points="257.83,-123.16 264.17,-114.67 253.92,-117.36 257.83,-123.16"/>
</g>
<!-- Node7 -->
<g id="node4" class="node">
<title>Node7</title>
<g id="a_node4"><a xlink:href="navier1_8f.html#a3541733d6d302fdc632d504bb47a653b" target="_top" xlink:title=" ">
<polygon fill="white" stroke="black" points="169,-114.5 169,-133.5 217,-133.5 217,-114.5 169,-114.5"/>
<text text-anchor="middle" x="193" y="-121.5" font-family="Helvetica,sans-Serif" font-size="10.00">convuz</text>
</a>
</g>
</g>
<!-- Node1&#45;&gt;Node7 -->
<g id="edge3" class="edge">
<title>Node1&#45;&gt;Node7</title>
<path fill="none" stroke="midnightblue" d="M243.8,-112.8C234.87,-114.81 225.47,-116.92 217.27,-118.77"/>
<polygon fill="midnightblue" stroke="midnightblue" points="244.62,-116.21 253.6,-110.6 243.08,-109.38 244.62,-116.21"/>
</g>
<!-- Node15 -->
<g id="node6" class="node">
<title>Node15</title>
<g id="a_node6"><a xlink:href="navier1_8f.html#a4d7a006ce8ef086e842bc09f74169951" target="_top" xlink:title=" ">
<polygon fill="white" stroke="red" points="170.5,-38.5 170.5,-57.5 215.5,-57.5 215.5,-38.5 170.5,-38.5"/>
<text text-anchor="middle" x="193" y="-45.5" font-family="Helvetica,sans-Serif" font-size="10.00">opbinv</text>
</a>
</g>
</g>
<!-- Node1&#45;&gt;Node15 -->
<g id="edge5" class="edge">
<title>Node1&#45;&gt;Node15</title>
<path fill="none" stroke="midnightblue" d="M255.81,-89.69C240.63,-79.45 221.12,-66.29 208.12,-57.53"/>
<polygon fill="midnightblue" stroke="midnightblue" points="253.92,-92.64 264.17,-95.33 257.83,-86.84 253.92,-92.64"/>
</g>
<!-- Node51 -->
<g id="node10" class="node">
<title>Node51</title>
<g id="a_node10"><a xlink:href="navier1_8f.html#a0c45c8e1d0afd819429c5e2ba2cb859c" target="_top" xlink:title=" ">
<polygon fill="white" stroke="black" points="168,-76.5 168,-95.5 218,-95.5 218,-76.5 168,-76.5"/>
<text text-anchor="middle" x="193" y="-83.5" font-family="Helvetica,sans-Serif" font-size="10.00">opbinv1</text>
</a>
</g>
</g>
<!-- Node1&#45;&gt;Node51 -->
<g id="edge10" class="edge">
<title>Node1&#45;&gt;Node51</title>
<path fill="none" stroke="midnightblue" d="M243.78,-97.19C235.16,-95.26 226.12,-93.22 218.14,-91.43"/>
<polygon fill="midnightblue" stroke="midnightblue" points="243.08,-100.62 253.6,-99.4 244.62,-93.79 243.08,-100.62"/>
</g>
<!-- Node3 -->
<g id="node3" class="node">
<title>Node3</title>
<g id="a_node3"><a xlink:href="ssolv_8f.html#a74bc64398b67796fee9c14b71bb435f3" target="_top" xlink:title=" ">
<polygon fill="white" stroke="red" points="78.5,-152.5 78.5,-171.5 129.5,-171.5 129.5,-152.5 78.5,-152.5"/>
<text text-anchor="middle" x="104" y="-159.5" font-family="Helvetica,sans-Serif" font-size="10.00">chkssvt</text>
</a>
</g>
</g>
<!-- Node2&#45;&gt;Node3 -->
<g id="edge2" class="edge">
<title>Node2&#45;&gt;Node3</title>
<path fill="none" stroke="midnightblue" d="M158.59,-162C148.95,-162 138.6,-162 129.6,-162"/>
<polygon fill="midnightblue" stroke="midnightblue" points="158.69,-165.5 168.69,-162 158.69,-158.5 158.69,-165.5"/>
</g>
<!-- Node8 -->
<g id="node5" class="node">
<title>Node8</title>
<g id="a_node5"><a xlink:href="navier1_8f.html#a23e6343990072aa1a6b17109ccc7ba2b" target="_top" xlink:title=" ">
<polygon fill="white" stroke="red" points="0,-76.5 0,-95.5 40,-95.5 40,-76.5 0,-76.5"/>
<text text-anchor="middle" x="20" y="-83.5" font-family="Helvetica,sans-Serif" font-size="10.00">plan1</text>
</a>
</g>
</g>
<!-- Node7&#45;&gt;Node8 -->
<g id="edge4" class="edge">
<title>Node7&#45;&gt;Node8</title>
<path fill="none" stroke="midnightblue" d="M158.57,-120.06C135.22,-116.94 103.45,-111.94 76,-105 63.85,-101.93 50.57,-97.38 40.1,-93.5"/>
<polygon fill="midnightblue" stroke="midnightblue" points="158.29,-123.55 168.65,-121.36 159.18,-116.61 158.29,-123.55"/>
</g>
<!-- Node16 -->
<g id="node7" class="node">
<title>Node16</title>
<g id="a_node7"><a xlink:href="navier1_8f.html#a65f34d5a85fb540d8cb0fd1fbf1d2e6b" target="_top" xlink:title=" ">
<polygon fill="white" stroke="red" points="78.5,-76.5 78.5,-95.5 129.5,-95.5 129.5,-76.5 78.5,-76.5"/>
<text text-anchor="middle" x="104" y="-83.5" font-family="Helvetica,sans-Serif" font-size="10.00">cdabdtp</text>
</a>
</g>
</g>
<!-- Node15&#45;&gt;Node16 -->
<g id="edge6" class="edge">
<title>Node15&#45;&gt;Node16</title>
<path fill="none" stroke="midnightblue" d="M161.32,-61.4C149.95,-66.37 137.29,-71.9 126.86,-76.45"/>
<polygon fill="midnightblue" stroke="midnightblue" points="162.73,-64.6 170.49,-57.39 159.93,-58.19 162.73,-64.6"/>
</g>
<!-- Node50 -->
<g id="node8" class="node">
<title>Node50</title>
<g id="a_node8"><a xlink:href="navier1_8f.html#a9a81e8c08ce04d9d86d24c396518e583" target="_top" xlink:title=" ">
<polygon fill="white" stroke="black" points="78.5,-38.5 78.5,-57.5 129.5,-57.5 129.5,-38.5 78.5,-38.5"/>
<text text-anchor="middle" x="104" y="-45.5" font-family="Helvetica,sans-Serif" font-size="10.00">crespuz</text>
</a>
</g>
</g>
<!-- Node15&#45;&gt;Node50 -->
<g id="edge7" class="edge">
<title>Node15&#45;&gt;Node50</title>
<path fill="none" stroke="midnightblue" d="M160.38,-48C150.25,-48 139.19,-48 129.64,-48"/>
<polygon fill="midnightblue" stroke="midnightblue" points="160.49,-51.5 170.49,-48 160.49,-44.5 160.49,-51.5"/>
</g>
<!-- Node25 -->
<g id="node9" class="node">
<title>Node25</title>
<g id="a_node9"><a xlink:href="induct_8f.html#aeb2c6d4ae2c98143118acce2419c034d" target="_top" xlink:title=" ">
<polygon fill="white" stroke="red" points="76,-0.5 76,-19.5 132,-19.5 132,-0.5 76,-0.5"/>
<text text-anchor="middle" x="104" y="-7.5" font-family="Helvetica,sans-Serif" font-size="10.00">incomprn</text>
</a>
</g>
</g>
<!-- Node15&#45;&gt;Node25 -->
<g id="edge9" class="edge">
<title>Node15&#45;&gt;Node25</title>
<path fill="none" stroke="midnightblue" d="M161.32,-34.6C149.95,-29.63 137.29,-24.1 126.86,-19.55"/>
<polygon fill="midnightblue" stroke="midnightblue" points="159.93,-37.81 170.49,-38.61 162.73,-31.4 159.93,-37.81"/>
</g>
<!-- Node50&#45;&gt;Node8 -->
<g id="edge8" class="edge">
<title>Node50&#45;&gt;Node8</title>
<path fill="none" stroke="midnightblue" d="M73.07,-61.87C62.13,-66.94 50.05,-72.54 40.28,-77.07"/>
<polygon fill="midnightblue" stroke="midnightblue" points="74.71,-64.97 82.31,-57.59 71.76,-58.62 74.71,-64.97"/>
</g>
<!-- Node51&#45;&gt;Node16 -->
<g id="edge11" class="edge">
<title>Node51&#45;&gt;Node16</title>
<path fill="none" stroke="midnightblue" d="M157.59,-86C148.27,-86 138.38,-86 129.71,-86"/>
<polygon fill="midnightblue" stroke="midnightblue" points="157.77,-89.5 167.77,-86 157.77,-82.5 157.77,-89.5"/>
</g>
</g>
</svg>
