<?xml version="1.0" encoding="UTF-8" standalone="no"?>
<!DOCTYPE svg PUBLIC "-//W3C//DTD SVG 1.1//EN"
 "http://www.w3.org/Graphics/SVG/1.1/DTD/svg11.dtd">
<!-- Generated by graphviz version 2.46.0 (0)
 -->
<!-- Title: map_f_to_c_h1_bilin Pages: 1 -->
<!--zoomable 104 -->
<svg id="main" version="1.1" xmlns="http://www.w3.org/2000/svg" xmlns:xlink="http://www.w3.org/1999/xlink" xml:space="preserve" onload="init(evt)">
<style type="text/css"><![CDATA[
.edge:hover path { stroke: red; }
.edge:hover polygon { stroke: red; fill: red; }
]]></style>
<script type="text/javascript"><![CDATA[
var edges = document.getElementsByTagName('g');
if (edges && edges.length) {
  for (var i=0;i<edges.length;i++) {
    if (edges[i].id.substr(0,4)=='edge') {
      edges[i].setAttribute('class','edge');
    }
  }
}
]]></script>
        <defs>
                <circle id="rim" cx="0" cy="0" r="7"/>
                <circle id="rim2" cx="0" cy="0" r="3.5"/>
                <g id="zoomPlus">
                        <use xlink:href="#rim" fill="#404040">
                                <set attributeName="fill" to="#808080" begin="zoomplus.mouseover" end="zoomplus.mouseout"/>
                        </use>
                        <path d="M-4,0h8M0,-4v8" fill="none" stroke="white" stroke-width="1.5" pointer-events="none"/>
                </g>
                <g id="zoomMin">
                        <use xlink:href="#rim" fill="#404040">
                                <set attributeName="fill" to="#808080" begin="zoomminus.mouseover" end="zoomminus.mouseout"/>
                        </use>
                        <path d="M-4,0h8" fill="none" stroke="white" stroke-width="1.5" pointer-events="none"/>
                </g>
                <g id="dirArrow">
                        <path fill="none" stroke="white" stroke-width="1.5" d="M0,-3.0v7 M-2.5,-0.5L0,-3.0L2.5,-0.5"/>
                </g>
               <g id="resetDef">
                       <use xlink:href="#rim2" fill="#404040">
                               <set attributeName="fill" to="#808080" begin="reset.mouseover" end="reset.mouseout"/>
                       </use>
               </g>
        </defs>

<script type="text/javascript">
var viewWidth = 589;
var viewHeight = 104;
var sectionId = 'dynsection-37';
</script>
<script xlink:href="svgpan.js"/>
<svg id="graph" class="graph">
<g id="viewport">
<title>map_f_to_c_h1_bilin</title>
<polygon fill="white" stroke="transparent" points="-4,4 -4,-100 585,-100 585,4 -4,4"/>
<!-- Node1 -->
<g id="node1" class="node">
<title>Node1</title>
<g id="a_node1"><a xlink:title=" ">
<polygon fill="#bfbfbf" stroke="black" points="475,-19.5 475,-38.5 581,-38.5 581,-19.5 475,-19.5"/>
<text text-anchor="middle" x="528" y="-26.5" font-family="Helvetica,sans-Serif" font-size="10.00">map_f_to_c_h1_bilin</text>
</a>
</g>
</g>
<!-- Node2 -->
<g id="node2" class="node">
<title>Node2</title>
<g id="a_node2"><a xlink:href="navier8_8f.html#a27cfa4bb425c4ed421e59ebc3ec94311" target="_top" xlink:title=" ">
<polygon fill="white" stroke="black" points="365,-38.5 365,-57.5 439,-57.5 439,-38.5 365,-38.5"/>
<text text-anchor="middle" x="402" y="-45.5" font-family="Helvetica,sans-Serif" font-size="10.00">crs_solve_h1</text>
</a>
</g>
</g>
<!-- Node1&#45;&gt;Node2 -->
<g id="edge1" class="edge">
<title>Node1&#45;&gt;Node2</title>
<path fill="none" stroke="midnightblue" d="M464.64,-38.55C455.98,-39.88 447.33,-41.21 439.37,-42.43"/>
<polygon fill="midnightblue" stroke="midnightblue" points="465.42,-41.98 474.77,-37 464.36,-35.06 465.42,-41.98"/>
</g>
<!-- Node73 -->
<g id="node8" class="node">
<title>Node73</title>
<g id="a_node8"><a xlink:href="subs1_8f.html#a67e502b31617d5ff9be230f1ce239133" target="_top" xlink:title=" ">
<polygon fill="white" stroke="black" points="376,-0.5 376,-19.5 428,-19.5 428,-0.5 376,-0.5"/>
<text text-anchor="middle" x="402" y="-7.5" font-family="Helvetica,sans-Serif" font-size="10.00">crs_strs</text>
</a>
</g>
</g>
<!-- Node1&#45;&gt;Node73 -->
<g id="edge8" class="edge">
<title>Node1&#45;&gt;Node73</title>
<path fill="none" stroke="midnightblue" d="M464.86,-19.48C451.84,-17.48 438.84,-15.49 428.13,-13.85"/>
<polygon fill="midnightblue" stroke="midnightblue" points="464.36,-22.94 474.77,-21 465.42,-16.02 464.36,-22.94"/>
</g>
<!-- Node3 -->
<g id="node3" class="node">
<title>Node3</title>
<g id="a_node3"><a xlink:href="hmholtz_8f.html#a8734f3cc2d37d6a2ccd1daa8db57513d" target="_top" xlink:title=" ">
<polygon fill="white" stroke="black" points="181.5,-57.5 181.5,-76.5 219.5,-76.5 219.5,-57.5 181.5,-57.5"/>
<text text-anchor="middle" x="200.5" y="-64.5" font-family="Helvetica,sans-Serif" font-size="10.00">cggo</text>
</a>
</g>
</g>
<!-- Node2&#45;&gt;Node3 -->
<g id="edge2" class="edge">
<title>Node2&#45;&gt;Node3</title>
<path fill="none" stroke="midnightblue" d="M362.08,-60.23C351.46,-63.02 339.88,-65.59 329,-67 290.37,-72.01 244.59,-70.13 219.75,-68.47"/>
<polygon fill="midnightblue" stroke="midnightblue" points="363.21,-63.55 371.91,-57.5 361.34,-56.8 363.21,-63.55"/>
</g>
<!-- Node72 -->
<g id="node7" class="node">
<title>Node72</title>
<g id="a_node7"><a xlink:href="gmres_8f.html#a377d8578c6ccd4fddffb699c7a18f603" target="_top" xlink:title=" ">
<polygon fill="white" stroke="black" points="261,-38.5 261,-57.5 329,-57.5 329,-38.5 261,-38.5"/>
<text text-anchor="middle" x="295" y="-45.5" font-family="Helvetica,sans-Serif" font-size="10.00">hmh_gmres</text>
</a>
</g>
</g>
<!-- Node2&#45;&gt;Node72 -->
<g id="edge6" class="edge">
<title>Node2&#45;&gt;Node72</title>
<path fill="none" stroke="midnightblue" d="M354.83,-48C346.14,-48 337.22,-48 329.03,-48"/>
<polygon fill="midnightblue" stroke="midnightblue" points="354.86,-51.5 364.86,-48 354.86,-44.5 354.86,-51.5"/>
</g>
<!-- Node4 -->
<g id="node4" class="node">
<title>Node4</title>
<g id="a_node4"><a xlink:href="hmholtz_8f.html#a52dcac1fe733719d4987d36aac022e4d" target="_top" xlink:title=" ">
<polygon fill="white" stroke="red" points="89,-76.5 89,-95.5 140,-95.5 140,-76.5 89,-76.5"/>
<text text-anchor="middle" x="114.5" y="-83.5" font-family="Helvetica,sans-Serif" font-size="10.00">hmholtz</text>
</a>
</g>
</g>
<!-- Node3&#45;&gt;Node4 -->
<g id="edge3" class="edge">
<title>Node3&#45;&gt;Node4</title>
<path fill="none" stroke="midnightblue" d="M171.28,-73.38C161.16,-75.67 149.85,-78.23 140.07,-80.44"/>
<polygon fill="midnightblue" stroke="midnightblue" points="172.29,-76.74 181.27,-71.12 170.75,-69.92 172.29,-76.74"/>
</g>
<!-- Node66 -->
<g id="node6" class="node">
<title>Node66</title>
<g id="a_node6"><a xlink:href="navier4_8f.html#abff3f3a3a3b301fbd3e883cb30d2d967" target="_top" xlink:title=" ">
<polygon fill="white" stroke="red" points="90,-38.5 90,-57.5 139,-57.5 139,-38.5 90,-38.5"/>
<text text-anchor="middle" x="114.5" y="-45.5" font-family="Helvetica,sans-Serif" font-size="10.00">hmhzpf</text>
</a>
</g>
</g>
<!-- Node3&#45;&gt;Node66 -->
<g id="edge5" class="edge">
<title>Node3&#45;&gt;Node66</title>
<path fill="none" stroke="midnightblue" d="M171.35,-60.63C160.89,-58.27 149.14,-55.61 139.12,-53.34"/>
<polygon fill="midnightblue" stroke="midnightblue" points="170.75,-64.08 181.27,-62.88 172.29,-57.26 170.75,-64.08"/>
</g>
<!-- Node5 -->
<g id="node5" class="node">
<title>Node5</title>
<g id="a_node5"><a xlink:href="eigsolv_8f.html#a285ca4aa2354ca8584af31946d6761c2" target="_top" xlink:title=" ">
<polygon fill="white" stroke="red" points="0,-76.5 0,-95.5 53,-95.5 53,-76.5 0,-76.5"/>
<text text-anchor="middle" x="26.5" y="-83.5" font-family="Helvetica,sans-Serif" font-size="10.00">alpham1</text>
</a>
</g>
</g>
<!-- Node4&#45;&gt;Node5 -->
<g id="edge4" class="edge">
<title>Node4&#45;&gt;Node5</title>
<path fill="none" stroke="midnightblue" d="M78.59,-86C70.1,-86 61.18,-86 53.22,-86"/>
<polygon fill="midnightblue" stroke="midnightblue" points="78.63,-89.5 88.63,-86 78.63,-82.5 78.63,-89.5"/>
</g>
<!-- Node72&#45;&gt;Node3 -->
<g id="edge7" class="edge">
<title>Node72&#45;&gt;Node3</title>
<path fill="none" stroke="midnightblue" d="M250.89,-56.86C239.87,-59.12 228.61,-61.43 219.63,-63.28"/>
<polygon fill="midnightblue" stroke="midnightblue" points="251.78,-60.25 260.87,-54.81 250.37,-53.39 251.78,-60.25"/>
</g>
<!-- Node74 -->
<g id="node9" class="node">
<title>Node74</title>
<g id="a_node9"><a xlink:href="subs1_8f.html#afbde33b8466b90206f1fa13b3800b7d5" target="_top" xlink:title=" ">
<polygon fill="white" stroke="black" points="272,-0.5 272,-19.5 318,-19.5 318,-0.5 272,-0.5"/>
<text text-anchor="middle" x="295" y="-7.5" font-family="Helvetica,sans-Serif" font-size="10.00">cggosf</text>
</a>
</g>
</g>
<!-- Node73&#45;&gt;Node74 -->
<g id="edge9" class="edge">
<title>Node73&#45;&gt;Node74</title>
<path fill="none" stroke="midnightblue" d="M365.43,-10C349.75,-10 331.81,-10 318.09,-10"/>
<polygon fill="midnightblue" stroke="midnightblue" points="365.85,-13.5 375.85,-10 365.85,-6.5 365.85,-13.5"/>
</g>
<!-- Node75 -->
<g id="node10" class="node">
<title>Node75</title>
<g id="a_node10"><a xlink:href="subs1_8f.html#aab6bde102bb9bd893cf1880c2d7746ad" target="_top" xlink:title=" ">
<polygon fill="white" stroke="red" points="176,-0.5 176,-19.5 225,-19.5 225,-0.5 176,-0.5"/>
<text text-anchor="middle" x="200.5" y="-7.5" font-family="Helvetica,sans-Serif" font-size="10.00">hmhzsf</text>
</a>
</g>
</g>
<!-- Node74&#45;&gt;Node75 -->
<g id="edge10" class="edge">
<title>Node74&#45;&gt;Node75</title>
<path fill="none" stroke="midnightblue" d="M261.56,-10C249.62,-10 236.34,-10 225.3,-10"/>
<polygon fill="midnightblue" stroke="midnightblue" points="261.61,-13.5 271.61,-10 261.61,-6.5 261.61,-13.5"/>
</g>
</g>
</svg>
        <g id="navigator" transform="translate(0 0)" fill="#404254">
                <rect fill="#f2f5e9" fill-opacity="0.5" stroke="#606060" stroke-width=".5" x="0" y="0" width="60" height="60"/>
                <use id="zoomplus" xlink:href="#zoomPlus" x="17" y="9" onmousedown="handleZoom(evt,'in')"/>
                <use id="zoomminus" xlink:href="#zoomMin" x="42" y="9" onmousedown="handleZoom(evt,'out')"/>
                <use id="reset" xlink:href="#resetDef" x="30" y="36" onmousedown="handleReset()"/>
                <g id="arrowUp" xlink:href="#dirArrow" transform="translate(30 24)" onmousedown="handlePan(0,-1)">
                  <use xlink:href="#rim" fill="#404040">
                        <set attributeName="fill" to="#808080" begin="arrowUp.mouseover" end="arrowUp.mouseout"/>
                  </use>
                  <path fill="none" stroke="white" stroke-width="1.5" d="M0,-3.0v7 M-2.5,-0.5L0,-3.0L2.5,-0.5"/>
                </g>
                <g id="arrowRight" xlink:href="#dirArrow" transform="rotate(90) translate(36 -43)" onmousedown="handlePan(1,0)">
                  <use xlink:href="#rim" fill="#404040">
                        <set attributeName="fill" to="#808080" begin="arrowRight.mouseover" end="arrowRight.mouseout"/>
                  </use>
                  <path fill="none" stroke="white" stroke-width="1.5" d="M0,-3.0v7 M-2.5,-0.5L0,-3.0L2.5,-0.5"/>
                </g>
                <g id="arrowDown" xlink:href="#dirArrow" transform="rotate(180) translate(-30 -48)" onmousedown="handlePan(0,1)">
                  <use xlink:href="#rim" fill="#404040">
                        <set attributeName="fill" to="#808080" begin="arrowDown.mouseover" end="arrowDown.mouseout"/>
                  </use>
                  <path fill="none" stroke="white" stroke-width="1.5" d="M0,-3.0v7 M-2.5,-0.5L0,-3.0L2.5,-0.5"/>
                </g>
                <g id="arrowLeft" xlink:href="#dirArrow" transform="rotate(270) translate(-36 17)" onmousedown="handlePan(-1,0)">
                  <use xlink:href="#rim" fill="#404040">
                        <set attributeName="fill" to="#808080" begin="arrowLeft.mouseover" end="arrowLeft.mouseout"/>
                  </use>
                  <path fill="none" stroke="white" stroke-width="1.5" d="M0,-3.0v7 M-2.5,-0.5L0,-3.0L2.5,-0.5"/>
                </g>
        </g>
        <svg viewBox="0 0 15 15" width="100%" height="30px" preserveAspectRatio="xMaxYMin meet">
         <g id="arrow_out" transform="scale(0.3 0.3)">
          <a xlink:href="navier8_8f_aa85ccf7fab58ee7647cd9f8817eb7d8d_icgraph_org.svg" target="_base">
           <rect id="button" ry="5" rx="5" y="6" x="6" height="38" width="38"
                fill="#f2f5e9" fill-opacity="0.5" stroke="#606060" stroke-width="1.0"/>
           <path id="arrow"
             d="M 11.500037,31.436501 C 11.940474,20.09759 22.043105,11.32322 32.158766,21.979434 L 37.068811,17.246167 C 37.068811,17.246167 37.088388,32 37.088388,32 L 22.160133,31.978069 C 22.160133,31.978069 26.997745,27.140456 26.997745,27.140456 C 18.528582,18.264221 13.291696,25.230495 11.500037,31.436501 z"
             style="fill:#404040;"/>
          </a>
         </g>
        </svg>
</svg>
