<?xml version="1.0" encoding="UTF-8" standalone="no"?>
<!DOCTYPE svg PUBLIC "-//W3C//DTD SVG 1.1//EN"
 "http://www.w3.org/Graphics/SVG/1.1/DTD/svg11.dtd">
<!-- Generated by graphviz version 2.46.0 (0)
 -->
<!-- Title: wgradm1 Pages: 1 -->
<svg width="240pt" height="142pt"
 viewBox="0.00 0.00 240.00 142.00" xmlns="http://www.w3.org/2000/svg" xmlns:xlink="http://www.w3.org/1999/xlink">
<g id="graph0" class="graph" transform="scale(1 1) rotate(0) translate(4 138)">
<title>wgradm1</title>
<polygon fill="white" stroke="transparent" points="-4,4 -4,-138 236,-138 236,4 -4,4"/>
<!-- Node1 -->
<g id="node1" class="node">
<title>Node1</title>
<g id="a_node1"><a xlink:title=" ">
<polygon fill="#bfbfbf" stroke="black" points="0,-57.5 0,-76.5 56,-76.5 56,-57.5 0,-57.5"/>
<text text-anchor="middle" x="28" y="-64.5" font-family="Helvetica,sans-Serif" font-size="10.00">wgradm1</text>
</a>
</g>
</g>
<!-- Node2 -->
<g id="node2" class="node">
<title>Node2</title>
<g id="a_node2"><a xlink:href="navier5_8f.html#a53feb767cebebba399ab3c5a50f53155" target="_top" xlink:title=" ">
<polygon fill="white" stroke="black" points="92,-114.5 92,-133.5 158,-133.5 158,-114.5 92,-114.5"/>
<text text-anchor="middle" x="125" y="-121.5" font-family="Helvetica,sans-Serif" font-size="10.00">local_grad2</text>
</a>
</g>
</g>
<!-- Node1&#45;&gt;Node2 -->
<g id="edge1" class="edge">
<title>Node1&#45;&gt;Node2</title>
<path fill="none" stroke="midnightblue" d="M44.78,-76.56C57.51,-84.26 75.89,-95.36 92,-105 94.23,-106.34 96.55,-107.72 98.88,-109.11"/>
<polygon fill="midnightblue" stroke="midnightblue" points="97.32,-112.25 107.71,-114.36 100.9,-106.24 97.32,-112.25"/>
</g>
<!-- Node3 -->
<g id="node3" class="node">
<title>Node3</title>
<g id="a_node3"><a xlink:href="navier5_8f.html#ad24367e4a843f60b63a2205aef1ba551" target="_top" xlink:title=" ">
<polygon fill="white" stroke="black" points="92,-76.5 92,-95.5 158,-95.5 158,-76.5 92,-76.5"/>
<text text-anchor="middle" x="125" y="-83.5" font-family="Helvetica,sans-Serif" font-size="10.00">local_grad3</text>
</a>
</g>
</g>
<!-- Node1&#45;&gt;Node3 -->
<g id="edge2" class="edge">
<title>Node1&#45;&gt;Node3</title>
<path fill="none" stroke="midnightblue" d="M56.22,-72.44C64.18,-74.04 73.08,-75.82 81.74,-77.55"/>
<polygon fill="midnightblue" stroke="midnightblue" points="81.24,-81.02 91.73,-79.55 82.61,-74.15 81.24,-81.02"/>
</g>
<!-- Node4 -->
<g id="node4" class="node">
<title>Node4</title>
<g id="a_node4"><a xlink:href="subs1_8f.html#a8a9da5a10943bfb2176353bd597f87ce" target="_top" xlink:title=" ">
<polygon fill="white" stroke="black" points="99.5,-38.5 99.5,-57.5 150.5,-57.5 150.5,-38.5 99.5,-38.5"/>
<text text-anchor="middle" x="125" y="-45.5" font-family="Helvetica,sans-Serif" font-size="10.00">setaxdy</text>
</a>
</g>
</g>
<!-- Node1&#45;&gt;Node4 -->
<g id="edge3" class="edge">
<title>Node1&#45;&gt;Node4</title>
<path fill="none" stroke="midnightblue" d="M56.22,-61.56C66.53,-59.49 78.4,-57.12 89.3,-54.94"/>
<polygon fill="midnightblue" stroke="midnightblue" points="90.25,-58.32 99.37,-52.93 88.88,-51.46 90.25,-58.32"/>
</g>
<!-- Node6 -->
<g id="node6" class="node">
<title>Node6</title>
<g id="a_node6"><a xlink:href="subs2_8f.html#ab6c03c3b67da0854276389163f29f49b" target="_top" xlink:title=" ">
<polygon fill="white" stroke="black" points="98.5,-0.5 98.5,-19.5 151.5,-19.5 151.5,-0.5 98.5,-0.5"/>
<text text-anchor="middle" x="125" y="-7.5" font-family="Helvetica,sans-Serif" font-size="10.00">setaxw1</text>
</a>
</g>
</g>
<!-- Node1&#45;&gt;Node6 -->
<g id="edge5" class="edge">
<title>Node1&#45;&gt;Node6</title>
<path fill="none" stroke="midnightblue" d="M44.78,-57.44C57.51,-49.74 75.89,-38.64 92,-29 94.23,-27.66 96.55,-26.28 98.88,-24.89"/>
<polygon fill="midnightblue" stroke="midnightblue" points="100.9,-27.76 107.71,-19.64 97.32,-21.75 100.9,-27.76"/>
</g>
<!-- Node5 -->
<g id="node5" class="node">
<title>Node5</title>
<g id="a_node5"><a xlink:href="math_8f.html#a3b43508554f14bdea8e14473d7d0803c" target="_top" xlink:title=" ">
<polygon fill="white" stroke="black" points="194,-19.5 194,-38.5 232,-38.5 232,-19.5 194,-19.5"/>
<text text-anchor="middle" x="213" y="-26.5" font-family="Helvetica,sans-Serif" font-size="10.00">copy</text>
</a>
</g>
</g>
<!-- Node4&#45;&gt;Node5 -->
<g id="edge4" class="edge">
<title>Node4&#45;&gt;Node5</title>
<path fill="none" stroke="midnightblue" d="M150.87,-42.5C161.14,-40.24 173.1,-37.59 183.7,-35.25"/>
<polygon fill="midnightblue" stroke="midnightblue" points="184.73,-38.61 193.74,-33.03 183.22,-31.77 184.73,-38.61"/>
</g>
<!-- Node6&#45;&gt;Node5 -->
<g id="edge6" class="edge">
<title>Node6&#45;&gt;Node5</title>
<path fill="none" stroke="midnightblue" d="M151.8,-15.7C161.97,-17.95 173.67,-20.53 184.04,-22.82"/>
<polygon fill="midnightblue" stroke="midnightblue" points="183.34,-26.25 193.86,-24.99 184.85,-19.42 183.34,-26.25"/>
</g>
</g>
</svg>
