<?xml version="1.0" encoding="UTF-8" standalone="no"?>
<!DOCTYPE svg PUBLIC "-//W3C//DTD SVG 1.1//EN"
 "http://www.w3.org/Graphics/SVG/1.1/DTD/svg11.dtd">
<!-- Generated by graphviz version 2.46.0 (0)
 -->
<!-- Title: makef Pages: 1 -->
<svg width="244pt" height="332pt"
 viewBox="0.00 0.00 244.00 332.00" xmlns="http://www.w3.org/2000/svg" xmlns:xlink="http://www.w3.org/1999/xlink">
<g id="graph0" class="graph" transform="scale(1 1) rotate(0) translate(4 328)">
<title>makef</title>
<polygon fill="white" stroke="transparent" points="-4,4 -4,-328 240,-328 240,4 -4,4"/>
<!-- Node1 -->
<g id="node1" class="node">
<title>Node1</title>
<g id="a_node1"><a xlink:title=" ">
<polygon fill="#bfbfbf" stroke="black" points="0,-152.5 0,-171.5 44,-171.5 44,-152.5 0,-152.5"/>
<text text-anchor="middle" x="22" y="-159.5" font-family="Helvetica,sans-Serif" font-size="10.00">makef</text>
</a>
</g>
</g>
<!-- Node2 -->
<g id="node2" class="node">
<title>Node2</title>
<g id="a_node2"><a xlink:href="mvmesh_8f.html#a1b9c194ae1f554f335f3d6c21eacded3" target="_top" xlink:title=" ">
<polygon fill="white" stroke="red" points="81.5,-304.5 81.5,-323.5 137.5,-323.5 137.5,-304.5 81.5,-304.5"/>
<text text-anchor="middle" x="109.5" y="-311.5" font-family="Helvetica,sans-Serif" font-size="10.00">admeshv</text>
</a>
</g>
</g>
<!-- Node1&#45;&gt;Node2 -->
<g id="edge1" class="edge">
<title>Node1&#45;&gt;Node2</title>
<path fill="none" stroke="midnightblue" d="M25.12,-171.7C30.65,-195.14 47.39,-255.79 80,-295 80.83,-296 81.73,-296.97 82.68,-297.91"/>
<polygon fill="midnightblue" stroke="midnightblue" points="80.67,-300.78 90.63,-304.39 85.09,-295.36 80.67,-300.78"/>
</g>
<!-- Node18 -->
<g id="node3" class="node">
<title>Node18</title>
<g id="a_node3"><a xlink:href="navier1_8f.html#a344ec731e4a89d0f136c91bc1963e8d5" target="_top" xlink:title=" ">
<polygon fill="white" stroke="red" points="88,-266.5 88,-285.5 131,-285.5 131,-266.5 88,-266.5"/>
<text text-anchor="middle" x="109.5" y="-273.5" font-family="Helvetica,sans-Serif" font-size="10.00">advab</text>
</a>
</g>
</g>
<!-- Node1&#45;&gt;Node18 -->
<g id="edge2" class="edge">
<title>Node1&#45;&gt;Node18</title>
<path fill="none" stroke="midnightblue" d="M27,-171.55C34.99,-189.78 54.38,-230.13 80,-257 81.05,-258.1 82.18,-259.18 83.35,-260.21"/>
<polygon fill="midnightblue" stroke="midnightblue" points="81.49,-263.2 91.56,-266.49 85.75,-257.64 81.49,-263.2"/>
</g>
<!-- Node159 -->
<g id="node4" class="node">
<title>Node159</title>
<g id="a_node4"><a xlink:href="convect_8f.html#afc0b2ce765c4ad0f0ec6f2a62536bf57" target="_top" xlink:title=" ">
<polygon fill="white" stroke="red" points="84,-228.5 84,-247.5 135,-247.5 135,-228.5 84,-228.5"/>
<text text-anchor="middle" x="109.5" y="-235.5" font-family="Helvetica,sans-Serif" font-size="10.00">advchar</text>
</a>
</g>
</g>
<!-- Node1&#45;&gt;Node159 -->
<g id="edge3" class="edge">
<title>Node1&#45;&gt;Node159</title>
<path fill="none" stroke="midnightblue" d="M33.39,-171.71C44.73,-182.25 63.48,-199.52 80,-214 82.89,-216.54 85.98,-219.19 89.02,-221.77"/>
<polygon fill="midnightblue" stroke="midnightblue" points="86.86,-224.53 96.76,-228.29 91.37,-219.18 86.86,-224.53"/>
</g>
<!-- Node4 -->
<g id="node5" class="node">
<title>Node4</title>
<g id="a_node5"><a xlink:href="comm__mpi_8f.html#af06ec29f06aac3f8809e19de2a7e8946" target="_top" xlink:title=" ">
<polygon fill="white" stroke="red" points="175,-209.5 175,-228.5 236,-228.5 236,-209.5 175,-209.5"/>
<text text-anchor="middle" x="205.5" y="-216.5" font-family="Helvetica,sans-Serif" font-size="10.00">dnekclock</text>
</a>
</g>
</g>
<!-- Node1&#45;&gt;Node4 -->
<g id="edge5" class="edge">
<title>Node1&#45;&gt;Node4</title>
<path fill="none" stroke="midnightblue" d="M44.07,-169.17C54.81,-172.78 68.08,-177.19 80,-181 108.38,-190.06 140.55,-199.87 165.08,-207.25"/>
<polygon fill="midnightblue" stroke="midnightblue" points="164.17,-210.63 174.75,-210.15 166.18,-203.92 164.17,-210.63"/>
</g>
<!-- Node176 -->
<g id="node6" class="node">
<title>Node176</title>
<g id="a_node6"><a xlink:href="hpf_8f.html#aa74c82c5e339de802f489470b23422a0" target="_top" xlink:title=" ">
<polygon fill="white" stroke="red" points="80,-152.5 80,-171.5 139,-171.5 139,-152.5 80,-152.5"/>
<text text-anchor="middle" x="109.5" y="-159.5" font-family="Helvetica,sans-Serif" font-size="10.00">make_hpf</text>
</a>
</g>
</g>
<!-- Node1&#45;&gt;Node176 -->
<g id="edge6" class="edge">
<title>Node1&#45;&gt;Node176</title>
<path fill="none" stroke="midnightblue" d="M44.13,-162C51.88,-162 60.92,-162 69.72,-162"/>
<polygon fill="midnightblue" stroke="midnightblue" points="69.87,-165.5 79.87,-162 69.87,-158.5 69.87,-165.5"/>
</g>
<!-- Node188 -->
<g id="node7" class="node">
<title>Node188</title>
<g id="a_node7"><a xlink:href="navier1_8f.html#ab907b0b4f57c160c86799b03de3cef19" target="_top" xlink:title=" ">
<polygon fill="white" stroke="red" points="82.5,-114.5 82.5,-133.5 136.5,-133.5 136.5,-114.5 82.5,-114.5"/>
<text text-anchor="middle" x="109.5" y="-121.5" font-family="Helvetica,sans-Serif" font-size="10.00">makeabf</text>
</a>
</g>
</g>
<!-- Node1&#45;&gt;Node188 -->
<g id="edge7" class="edge">
<title>Node1&#45;&gt;Node188</title>
<path fill="none" stroke="midnightblue" d="M44.13,-152.61C54.23,-148.12 66.51,-142.66 77.63,-137.72"/>
<polygon fill="midnightblue" stroke="midnightblue" points="79.3,-140.81 87.01,-133.55 76.45,-134.41 79.3,-140.81"/>
</g>
<!-- Node191 -->
<g id="node8" class="node">
<title>Node191</title>
<g id="a_node8"><a xlink:href="navier1_8f.html#a0510a60155ebc71a3acda4b1e7e507e5" target="_top" xlink:title=" ">
<polygon fill="white" stroke="red" points="82.5,-76.5 82.5,-95.5 136.5,-95.5 136.5,-76.5 82.5,-76.5"/>
<text text-anchor="middle" x="109.5" y="-83.5" font-family="Helvetica,sans-Serif" font-size="10.00">makebdf</text>
</a>
</g>
</g>
<!-- Node1&#45;&gt;Node191 -->
<g id="edge8" class="edge">
<title>Node1&#45;&gt;Node191</title>
<path fill="none" stroke="midnightblue" d="M31.75,-152.13C42.5,-140.27 61.6,-120.08 80,-105 81.52,-103.76 83.12,-102.52 84.75,-101.3"/>
<polygon fill="midnightblue" stroke="midnightblue" points="86.83,-104.12 93.02,-95.52 82.82,-98.39 86.83,-104.12"/>
</g>
<!-- Node195 -->
<g id="node9" class="node">
<title>Node195</title>
<g id="a_node9"><a xlink:href="navier1_8f.html#a04edbb4ba3cfada4513a76a4e65a5561" target="_top" xlink:title=" ">
<polygon fill="white" stroke="red" points="85,-38.5 85,-57.5 134,-57.5 134,-38.5 85,-38.5"/>
<text text-anchor="middle" x="109.5" y="-45.5" font-family="Helvetica,sans-Serif" font-size="10.00">makeuf</text>
</a>
</g>
</g>
<!-- Node1&#45;&gt;Node195 -->
<g id="edge9" class="edge">
<title>Node1&#45;&gt;Node195</title>
<path fill="none" stroke="midnightblue" d="M27,-152.45C34.99,-134.22 54.38,-93.87 80,-67 81.05,-65.9 82.18,-64.82 83.35,-63.79"/>
<polygon fill="midnightblue" stroke="midnightblue" points="85.75,-66.36 91.56,-57.51 81.49,-60.8 85.75,-66.36"/>
</g>
<!-- Node201 -->
<g id="node10" class="node">
<title>Node201</title>
<g id="a_node10"><a xlink:href="navier1_8f.html#ae6ed8f0409f034c9d0dff152a3445d90" target="_top" xlink:title=" ">
<polygon fill="white" stroke="red" points="83,-0.5 83,-19.5 136,-19.5 136,-0.5 83,-0.5"/>
<text text-anchor="middle" x="109.5" y="-7.5" font-family="Helvetica,sans-Serif" font-size="10.00">makevis</text>
</a>
</g>
</g>
<!-- Node1&#45;&gt;Node201 -->
<g id="edge10" class="edge">
<title>Node1&#45;&gt;Node201</title>
<path fill="none" stroke="midnightblue" d="M25.12,-152.3C30.65,-128.86 47.39,-68.21 80,-29 80.83,-28 81.73,-27.03 82.68,-26.09"/>
<polygon fill="midnightblue" stroke="midnightblue" points="85.09,-28.64 90.63,-19.61 80.67,-23.22 85.09,-28.64"/>
</g>
<!-- Node159&#45;&gt;Node4 -->
<g id="edge4" class="edge">
<title>Node159&#45;&gt;Node4</title>
<path fill="none" stroke="midnightblue" d="M135.2,-233.01C144.34,-231.16 154.94,-229.02 165.06,-226.97"/>
<polygon fill="midnightblue" stroke="midnightblue" points="165.84,-230.38 174.95,-224.97 164.46,-223.52 165.84,-230.38"/>
</g>
</g>
</svg>
