<?xml version="1.0" encoding="UTF-8" standalone="no"?>
<!DOCTYPE svg PUBLIC "-//W3C//DTD SVG 1.1//EN"
 "http://www.w3.org/Graphics/SVG/1.1/DTD/svg11.dtd">
<!-- Generated by graphviz version 2.46.0 (0)
 -->
<!-- Title: makevis Pages: 1 -->
<svg width="235pt" height="316pt"
 viewBox="0.00 0.00 235.00 315.60" xmlns="http://www.w3.org/2000/svg" xmlns:xlink="http://www.w3.org/1999/xlink">
<g id="graph0" class="graph" transform="scale(1 1) rotate(0) translate(4 311.6)">
<title>makevis</title>
<polygon fill="white" stroke="transparent" points="-4,4 -4,-311.6 231,-311.6 231,4 -4,4"/>
<!-- Node1 -->
<g id="node1" class="node">
<title>Node1</title>
<g id="a_node1"><a xlink:title=" ">
<polygon fill="#bfbfbf" stroke="black" points="0,-152.5 0,-171.5 53,-171.5 53,-152.5 0,-152.5"/>
<text text-anchor="middle" x="26.5" y="-159.5" font-family="Helvetica,sans-Serif" font-size="10.00">makevis</text>
</a>
</g>
</g>
<!-- Node2 -->
<g id="node2" class="node">
<title>Node2</title>
<g id="a_node2"><a xlink:href="math_8f.html#a30b83d516b6ab162d3fafe73e03a3e92" target="_top" xlink:title=" ">
<polygon fill="white" stroke="red" points="187.5,-171.5 187.5,-190.5 225.5,-190.5 225.5,-171.5 187.5,-171.5"/>
<text text-anchor="middle" x="206.5" y="-178.5" font-family="Helvetica,sans-Serif" font-size="10.00">add2</text>
</a>
</g>
</g>
<!-- Node1&#45;&gt;Node2 -->
<g id="edge1" class="edge">
<title>Node1&#45;&gt;Node2</title>
<path fill="none" stroke="midnightblue" d="M52.54,-171.6C63.54,-175.33 76.73,-179.15 89,-181 118.83,-185.5 153.45,-184.76 177.15,-183.35"/>
<polygon fill="midnightblue" stroke="midnightblue" points="177.47,-186.84 187.21,-182.68 177,-179.86 177.47,-186.84"/>
</g>
<!-- Node5 -->
<g id="node3" class="node">
<title>Node5</title>
<g id="a_node3"><a xlink:href="math_8f.html#ad2b51b68d370651f4f6d81952503e7be" target="_top" xlink:title=" ">
<polygon fill="white" stroke="black" points="186,-285.5 186,-304.5 227,-304.5 227,-285.5 186,-285.5"/>
<text text-anchor="middle" x="206.5" y="-292.5" font-family="Helvetica,sans-Serif" font-size="10.00">cmult</text>
</a>
</g>
</g>
<!-- Node1&#45;&gt;Node5 -->
<g id="edge2" class="edge">
<title>Node1&#45;&gt;Node5</title>
<path fill="none" stroke="midnightblue" d="M28.52,-171.64C31.81,-197.18 44.63,-266.63 89,-295 114.8,-311.49 150.82,-308.48 175.95,-303.26"/>
<polygon fill="midnightblue" stroke="midnightblue" points="177.04,-306.6 186,-300.94 175.47,-299.78 177.04,-306.6"/>
</g>
<!-- Node6 -->
<g id="node4" class="node">
<title>Node6</title>
<g id="a_node4"><a xlink:href="math_8f.html#a3470db04166d9ba91454a14cc17dbec2" target="_top" xlink:title=" ">
<polygon fill="white" stroke="red" points="189,-247.5 189,-266.5 224,-266.5 224,-247.5 189,-247.5"/>
<text text-anchor="middle" x="206.5" y="-254.5" font-family="Helvetica,sans-Serif" font-size="10.00">col2</text>
</a>
</g>
</g>
<!-- Node1&#45;&gt;Node6 -->
<g id="edge3" class="edge">
<title>Node1&#45;&gt;Node6</title>
<path fill="none" stroke="midnightblue" d="M44.67,-171.63C56.98,-178.5 73.96,-187.91 89,-196 120.1,-212.74 156.15,-231.52 179.82,-243.76"/>
<polygon fill="midnightblue" stroke="midnightblue" points="178.36,-246.95 188.85,-248.43 181.57,-240.73 178.36,-246.95"/>
</g>
<!-- Node7 -->
<g id="node5" class="node">
<title>Node7</title>
<g id="a_node5"><a xlink:href="navier1_8f.html#ab52075821cc389cd0adcff1c0fb9dcb1" target="_top" xlink:title=" ">
<polygon fill="white" stroke="red" points="89,-266.5 89,-285.5 150,-285.5 150,-266.5 89,-266.5"/>
<text text-anchor="middle" x="119.5" y="-273.5" font-family="Helvetica,sans-Serif" font-size="10.00">comp_siej</text>
</a>
</g>
</g>
<!-- Node1&#45;&gt;Node7 -->
<g id="edge4" class="edge">
<title>Node1&#45;&gt;Node7</title>
<path fill="none" stroke="midnightblue" d="M32.8,-171.58C42.57,-188.78 64.66,-225.54 89,-252 91.56,-254.79 94.46,-257.53 97.41,-260.11"/>
<polygon fill="midnightblue" stroke="midnightblue" points="95.21,-262.83 105.16,-266.47 99.65,-257.42 95.21,-262.83"/>
</g>
<!-- Node16 -->
<g id="node6" class="node">
<title>Node16</title>
<g id="a_node6"><a xlink:href="math_8f.html#a3b43508554f14bdea8e14473d7d0803c" target="_top" xlink:title=" ">
<polygon fill="white" stroke="black" points="187.5,-95.5 187.5,-114.5 225.5,-114.5 225.5,-95.5 187.5,-95.5"/>
<text text-anchor="middle" x="206.5" y="-102.5" font-family="Helvetica,sans-Serif" font-size="10.00">copy</text>
</a>
</g>
</g>
<!-- Node1&#45;&gt;Node16 -->
<g id="edge7" class="edge">
<title>Node1&#45;&gt;Node16</title>
<path fill="none" stroke="midnightblue" d="M34.09,-152.44C44.11,-138.86 64.6,-114.57 89,-105 117.54,-93.81 153.12,-95.87 177.41,-99.41"/>
<polygon fill="midnightblue" stroke="midnightblue" points="176.95,-102.88 187.38,-101.05 178.08,-95.98 176.95,-102.88"/>
</g>
<!-- Node17 -->
<g id="node7" class="node">
<title>Node17</title>
<g id="a_node7"><a xlink:href="navier1_8f.html#a968374df04841450c737483b598fa474" target="_top" xlink:title=" ">
<polygon fill="white" stroke="black" points="97,-114.5 97,-133.5 142,-133.5 142,-114.5 97,-114.5"/>
<text text-anchor="middle" x="119.5" y="-121.5" font-family="Helvetica,sans-Serif" font-size="10.00">opcolv</text>
</a>
</g>
</g>
<!-- Node1&#45;&gt;Node17 -->
<g id="edge8" class="edge">
<title>Node1&#45;&gt;Node17</title>
<path fill="none" stroke="midnightblue" d="M50.46,-152.41C61.68,-147.73 75.34,-142.02 87.47,-136.96"/>
<polygon fill="midnightblue" stroke="midnightblue" points="88.92,-140.15 96.8,-133.06 86.22,-133.69 88.92,-140.15"/>
</g>
<!-- Node18 -->
<g id="node8" class="node">
<title>Node18</title>
<g id="a_node8"><a xlink:href="navier1_8f.html#a58af49abaf1ee0cc07be356ad2721d90" target="_top" xlink:title=" ">
<polygon fill="white" stroke="red" points="99.5,-152.5 99.5,-171.5 139.5,-171.5 139.5,-152.5 99.5,-152.5"/>
<text text-anchor="middle" x="119.5" y="-159.5" font-family="Helvetica,sans-Serif" font-size="10.00">opdiv</text>
</a>
</g>
</g>
<!-- Node1&#45;&gt;Node18 -->
<g id="edge9" class="edge">
<title>Node1&#45;&gt;Node18</title>
<path fill="none" stroke="midnightblue" d="M53.33,-162C64.52,-162 77.66,-162 89.21,-162"/>
<polygon fill="midnightblue" stroke="midnightblue" points="89.26,-165.5 99.26,-162 89.26,-158.5 89.26,-165.5"/>
</g>
<!-- Node23 -->
<g id="node9" class="node">
<title>Node23</title>
<g id="a_node9"><a xlink:href="navier1_8f.html#a2f89b54d1ceda6fb201432d7a61bc907" target="_top" xlink:title=" ">
<polygon fill="white" stroke="red" points="91.5,-38.5 91.5,-57.5 147.5,-57.5 147.5,-38.5 91.5,-38.5"/>
<text text-anchor="middle" x="119.5" y="-45.5" font-family="Helvetica,sans-Serif" font-size="10.00">opdssum</text>
</a>
</g>
</g>
<!-- Node1&#45;&gt;Node23 -->
<g id="edge12" class="edge">
<title>Node1&#45;&gt;Node23</title>
<path fill="none" stroke="midnightblue" d="M32.8,-152.42C42.57,-135.22 64.66,-98.46 89,-72 91.56,-69.21 94.46,-66.47 97.41,-63.89"/>
<polygon fill="midnightblue" stroke="midnightblue" points="99.65,-66.58 105.16,-57.53 95.21,-61.17 99.65,-66.58"/>
</g>
<!-- Node30 -->
<g id="node10" class="node">
<title>Node30</title>
<g id="a_node10"><a xlink:href="math_8f.html#ae1294c8ac3b5b3c38bbcc250d252b9cb" target="_top" xlink:title=" ">
<polygon fill="white" stroke="black" points="102,-0.5 102,-19.5 137,-19.5 137,-0.5 102,-0.5"/>
<text text-anchor="middle" x="119.5" y="-7.5" font-family="Helvetica,sans-Serif" font-size="10.00">rone</text>
</a>
</g>
</g>
<!-- Node1&#45;&gt;Node30 -->
<g id="edge13" class="edge">
<title>Node1&#45;&gt;Node30</title>
<path fill="none" stroke="midnightblue" d="M29.96,-152.27C36.3,-128.76 55.11,-67.97 89,-29 90.35,-27.45 91.86,-25.98 93.45,-24.59"/>
<polygon fill="midnightblue" stroke="midnightblue" points="95.92,-27.12 101.91,-18.39 91.78,-21.48 95.92,-27.12"/>
</g>
<!-- Node7&#45;&gt;Node5 -->
<g id="edge5" class="edge">
<title>Node7&#45;&gt;Node5</title>
<path fill="none" stroke="midnightblue" d="M150.23,-282.65C158.51,-284.5 167.5,-286.51 175.78,-288.36"/>
<polygon fill="midnightblue" stroke="midnightblue" points="175.26,-291.83 185.78,-290.59 176.79,-285 175.26,-291.83"/>
</g>
<!-- Node7&#45;&gt;Node6 -->
<g id="edge6" class="edge">
<title>Node7&#45;&gt;Node6</title>
<path fill="none" stroke="midnightblue" d="M150.23,-269.35C159.45,-267.29 169.56,-265.03 178.58,-263.02"/>
<polygon fill="midnightblue" stroke="midnightblue" points="179.55,-266.39 188.55,-260.79 178.03,-259.56 179.55,-266.39"/>
</g>
<!-- Node18&#45;&gt;Node2 -->
<g id="edge10" class="edge">
<title>Node18&#45;&gt;Node2</title>
<path fill="none" stroke="midnightblue" d="M139.79,-166.31C150.96,-168.81 165.22,-172 177.6,-174.76"/>
<polygon fill="midnightblue" stroke="midnightblue" points="176.93,-178.2 187.45,-176.97 178.46,-171.37 176.93,-178.2"/>
</g>
<!-- Node18&#45;&gt;Node16 -->
<g id="edge11" class="edge">
<title>Node18&#45;&gt;Node16</title>
<path fill="none" stroke="midnightblue" d="M135.56,-152.42C140.21,-149.43 145.33,-146.1 150,-143 160.98,-135.7 173.08,-127.45 183.16,-120.5"/>
<polygon fill="midnightblue" stroke="midnightblue" points="185.19,-123.36 191.43,-114.79 181.21,-117.6 185.19,-123.36"/>
</g>
</g>
</svg>
