<?xml version="1.0" encoding="UTF-8" standalone="no"?>
<!DOCTYPE svg PUBLIC "-//W3C//DTD SVG 1.1//EN"
 "http://www.w3.org/Graphics/SVG/1.1/DTD/svg11.dtd">
<!-- Generated by graphviz version 2.46.0 (0)
 -->
<!-- Title: wlaplacian Pages: 1 -->
<svg width="245pt" height="256pt"
 viewBox="0.00 0.00 245.00 256.00" xmlns="http://www.w3.org/2000/svg" xmlns:xlink="http://www.w3.org/1999/xlink">
<g id="graph0" class="graph" transform="scale(1 1) rotate(0) translate(4 252)">
<title>wlaplacian</title>
<polygon fill="white" stroke="transparent" points="-4,4 -4,-252 241,-252 241,4 -4,4"/>
<!-- Node1 -->
<g id="node1" class="node">
<title>Node1</title>
<g id="a_node1"><a xlink:title=" ">
<polygon fill="#bfbfbf" stroke="black" points="0,-57.5 0,-76.5 62,-76.5 62,-57.5 0,-57.5"/>
<text text-anchor="middle" x="31" y="-64.5" font-family="Helvetica,sans-Serif" font-size="10.00">wlaplacian</text>
</a>
</g>
</g>
<!-- Node2 -->
<g id="node2" class="node">
<title>Node2</title>
<g id="a_node2"><a xlink:href="hmholtz_8f.html#aa576b5bd623cce50fd6323db12ba5376" target="_top" xlink:title=" ">
<polygon fill="white" stroke="red" points="100.5,-114.5 100.5,-133.5 148.5,-133.5 148.5,-114.5 100.5,-114.5"/>
<text text-anchor="middle" x="124.5" y="-121.5" font-family="Helvetica,sans-Serif" font-size="10.00">axhelm</text>
</a>
</g>
</g>
<!-- Node1&#45;&gt;Node2 -->
<g id="edge1" class="edge">
<title>Node1&#45;&gt;Node2</title>
<path fill="none" stroke="midnightblue" d="M47.52,-76.67C61.8,-85.57 83.2,-98.9 99.65,-109.14"/>
<polygon fill="midnightblue" stroke="midnightblue" points="97.87,-112.16 108.21,-114.47 101.57,-106.22 97.87,-112.16"/>
</g>
<!-- Node12 -->
<g id="node8" class="node">
<title>Node12</title>
<g id="a_node8"><a xlink:href="math_8f.html#af44de42b023a4a68cd98ea341204342d" target="_top" xlink:title=" ">
<polygon fill="white" stroke="black" points="193,-38.5 193,-57.5 231,-57.5 231,-38.5 193,-38.5"/>
<text text-anchor="middle" x="212" y="-45.5" font-family="Helvetica,sans-Serif" font-size="10.00">rzero</text>
</a>
</g>
</g>
<!-- Node1&#45;&gt;Node12 -->
<g id="edge10" class="edge">
<title>Node1&#45;&gt;Node12</title>
<path fill="none" stroke="midnightblue" d="M62.03,-69.52C86.2,-70.95 120.99,-71.64 151,-67 161.85,-65.32 173.43,-62.03 183.49,-58.66"/>
<polygon fill="midnightblue" stroke="midnightblue" points="184.7,-61.94 192.97,-55.31 182.37,-55.34 184.7,-61.94"/>
</g>
<!-- Node19 -->
<g id="node9" class="node">
<title>Node19</title>
<g id="a_node9"><a xlink:href="bdry_8f.html#a8988b35c52124e8bd28cae74f255e98d" target="_top" xlink:title=" ">
<polygon fill="white" stroke="red" points="98,-38.5 98,-57.5 151,-57.5 151,-38.5 98,-38.5"/>
<text text-anchor="middle" x="124.5" y="-45.5" font-family="Helvetica,sans-Serif" font-size="10.00">bcneusc</text>
</a>
</g>
</g>
<!-- Node1&#45;&gt;Node19 -->
<g id="edge8" class="edge">
<title>Node1&#45;&gt;Node19</title>
<path fill="none" stroke="midnightblue" d="M62.21,-60.73C70.43,-59.02 79.4,-57.16 87.89,-55.39"/>
<polygon fill="midnightblue" stroke="midnightblue" points="88.83,-58.77 97.91,-53.31 87.41,-51.92 88.83,-58.77"/>
</g>
<!-- Node22 -->
<g id="node10" class="node">
<title>Node22</title>
<g id="a_node10"><a xlink:href="math_8f.html#a0f22065d62634acdc3883ba95bfcc18a" target="_top" xlink:title=" ">
<polygon fill="white" stroke="black" points="105.5,-0.5 105.5,-19.5 143.5,-19.5 143.5,-0.5 105.5,-0.5"/>
<text text-anchor="middle" x="124.5" y="-7.5" font-family="Helvetica,sans-Serif" font-size="10.00">sub2</text>
</a>
</g>
</g>
<!-- Node1&#45;&gt;Node22 -->
<g id="edge11" class="edge">
<title>Node1&#45;&gt;Node22</title>
<path fill="none" stroke="midnightblue" d="M47.52,-57.33C61.8,-48.43 83.2,-35.1 99.65,-24.86"/>
<polygon fill="midnightblue" stroke="midnightblue" points="101.57,-27.78 108.21,-19.53 97.87,-21.84 101.57,-27.78"/>
</g>
<!-- Node3 -->
<g id="node3" class="node">
<title>Node3</title>
<g id="a_node3"><a xlink:href="math_8f.html#a30b83d516b6ab162d3fafe73e03a3e92" target="_top" xlink:title=" ">
<polygon fill="white" stroke="red" points="193,-228.5 193,-247.5 231,-247.5 231,-228.5 193,-228.5"/>
<text text-anchor="middle" x="212" y="-235.5" font-family="Helvetica,sans-Serif" font-size="10.00">add2</text>
</a>
</g>
</g>
<!-- Node2&#45;&gt;Node3 -->
<g id="edge2" class="edge">
<title>Node2&#45;&gt;Node3</title>
<path fill="none" stroke="midnightblue" d="M130.35,-133.61C139.72,-151.61 161.62,-191.09 187,-219 187.75,-219.83 188.54,-220.64 189.36,-221.45"/>
<polygon fill="midnightblue" stroke="midnightblue" points="187.3,-224.3 197.12,-228.27 191.92,-219.04 187.3,-224.3"/>
</g>
<!-- Node6 -->
<g id="node4" class="node">
<title>Node6</title>
<g id="a_node4"><a xlink:href="math_8f.html#a6d333c9b7537e63344c7162824904329" target="_top" xlink:title=" ">
<polygon fill="white" stroke="black" points="193,-190.5 193,-209.5 231,-209.5 231,-190.5 193,-190.5"/>
<text text-anchor="middle" x="212" y="-197.5" font-family="Helvetica,sans-Serif" font-size="10.00">add3</text>
</a>
</g>
</g>
<!-- Node2&#45;&gt;Node6 -->
<g id="edge3" class="edge">
<title>Node2&#45;&gt;Node6</title>
<path fill="none" stroke="midnightblue" d="M135.3,-133.52C147.25,-145.04 168.21,-164.9 187,-181 188,-181.86 189.03,-182.72 190.07,-183.59"/>
<polygon fill="midnightblue" stroke="midnightblue" points="188.17,-186.56 198.15,-190.12 192.57,-181.11 188.17,-186.56"/>
</g>
<!-- Node7 -->
<g id="node5" class="node">
<title>Node7</title>
<g id="a_node5"><a xlink:href="math_8f.html#a1f336314da3012286837ede20a0495c6" target="_top" xlink:title=" ">
<polygon fill="white" stroke="red" points="187,-152.5 187,-171.5 237,-171.5 237,-152.5 187,-152.5"/>
<text text-anchor="middle" x="212" y="-159.5" font-family="Helvetica,sans-Serif" font-size="10.00">addcol3</text>
</a>
</g>
</g>
<!-- Node2&#45;&gt;Node7 -->
<g id="edge4" class="edge">
<title>Node2&#45;&gt;Node7</title>
<path fill="none" stroke="midnightblue" d="M147.08,-133.59C157.1,-138.04 169.2,-143.42 180.17,-148.3"/>
<polygon fill="midnightblue" stroke="midnightblue" points="178.87,-151.55 189.43,-152.41 181.72,-145.15 178.87,-151.55"/>
</g>
<!-- Node8 -->
<g id="node6" class="node">
<title>Node8</title>
<g id="a_node6"><a xlink:href="math_8f.html#a40268d720140e9b00647213189f3144a" target="_top" xlink:title=" ">
<polygon fill="white" stroke="black" points="187,-114.5 187,-133.5 237,-133.5 237,-114.5 187,-114.5"/>
<text text-anchor="middle" x="212" y="-121.5" font-family="Helvetica,sans-Serif" font-size="10.00">addcol4</text>
</a>
</g>
</g>
<!-- Node2&#45;&gt;Node8 -->
<g id="edge5" class="edge">
<title>Node2&#45;&gt;Node8</title>
<path fill="none" stroke="midnightblue" d="M148.86,-124C157.41,-124 167.28,-124 176.59,-124"/>
<polygon fill="midnightblue" stroke="midnightblue" points="176.77,-127.5 186.77,-124 176.77,-120.5 176.77,-127.5"/>
</g>
<!-- Node9 -->
<g id="node7" class="node">
<title>Node9</title>
<g id="a_node7"><a xlink:href="math_8f.html#ad2b51b68d370651f4f6d81952503e7be" target="_top" xlink:title=" ">
<polygon fill="white" stroke="black" points="191.5,-76.5 191.5,-95.5 232.5,-95.5 232.5,-76.5 191.5,-76.5"/>
<text text-anchor="middle" x="212" y="-83.5" font-family="Helvetica,sans-Serif" font-size="10.00">cmult</text>
</a>
</g>
</g>
<!-- Node2&#45;&gt;Node9 -->
<g id="edge6" class="edge">
<title>Node2&#45;&gt;Node9</title>
<path fill="none" stroke="midnightblue" d="M147.08,-114.41C157.74,-109.67 170.76,-103.88 182.26,-98.77"/>
<polygon fill="midnightblue" stroke="midnightblue" points="183.76,-101.94 191.48,-94.68 180.92,-95.54 183.76,-101.94"/>
</g>
<!-- Node2&#45;&gt;Node12 -->
<g id="edge7" class="edge">
<title>Node2&#45;&gt;Node12</title>
<path fill="none" stroke="midnightblue" d="M135.91,-114.17C150.69,-100.24 177.05,-75.53 187,-67 188,-66.14 189.03,-65.28 190.07,-64.41"/>
<polygon fill="midnightblue" stroke="midnightblue" points="192.57,-66.89 198.15,-57.88 188.17,-61.44 192.57,-66.89"/>
</g>
<!-- Node19&#45;&gt;Node12 -->
<g id="edge9" class="edge">
<title>Node19&#45;&gt;Node12</title>
<path fill="none" stroke="midnightblue" d="M151.15,-48C161.16,-48 172.65,-48 182.88,-48"/>
<polygon fill="midnightblue" stroke="midnightblue" points="182.96,-51.5 192.96,-48 182.96,-44.5 182.96,-51.5"/>
</g>
</g>
</svg>
