<?xml version="1.0" encoding="UTF-8" standalone="no"?>
<!DOCTYPE svg PUBLIC "-//W3C//DTD SVG 1.1//EN"
 "http://www.w3.org/Graphics/SVG/1.1/DTD/svg11.dtd">
<!-- Generated by graphviz version 2.46.0 (0)
 -->
<!-- Title: lagvel Pages: 1 -->
<svg width="208pt" height="47pt"
 viewBox="0.00 0.00 208.00 47.00" xmlns="http://www.w3.org/2000/svg" xmlns:xlink="http://www.w3.org/1999/xlink">
<g id="graph0" class="graph" transform="scale(1 1) rotate(0) translate(4 43)">
<title>lagvel</title>
<polygon fill="white" stroke="transparent" points="-4,4 -4,-43 204,-43 204,4 -4,4"/>
<!-- Node1 -->
<g id="node1" class="node">
<title>Node1</title>
<g id="a_node1"><a xlink:title=" ">
<polygon fill="#bfbfbf" stroke="black" points="0,-19.5 0,-38.5 42,-38.5 42,-19.5 0,-19.5"/>
<text text-anchor="middle" x="21" y="-26.5" font-family="Helvetica,sans-Serif" font-size="10.00">lagvel</text>
</a>
</g>
</g>
<!-- Node2 -->
<g id="node2" class="node">
<title>Node2</title>
<g id="a_node2"><a xlink:href="math_8f.html#a3b43508554f14bdea8e14473d7d0803c" target="_top" xlink:title=" ">
<polygon fill="white" stroke="black" points="162,-19.5 162,-38.5 200,-38.5 200,-19.5 162,-19.5"/>
<text text-anchor="middle" x="181" y="-26.5" font-family="Helvetica,sans-Serif" font-size="10.00">copy</text>
</a>
</g>
</g>
<!-- Node1&#45;&gt;Node2 -->
<g id="edge1" class="edge">
<title>Node1&#45;&gt;Node2</title>
<path fill="none" stroke="midnightblue" d="M42.01,-29C69.64,-29 119.65,-29 151.27,-29"/>
<polygon fill="midnightblue" stroke="midnightblue" points="151.62,-32.5 161.62,-29 151.62,-25.5 151.62,-32.5"/>
</g>
<!-- Node3 -->
<g id="node3" class="node">
<title>Node3</title>
<g id="a_node3"><a xlink:href="navier1_8f.html#a55f0c02db80925df02a6998e17985478" target="_top" xlink:title=" ">
<polygon fill="white" stroke="black" points="78,-0.5 78,-19.5 126,-19.5 126,-0.5 78,-0.5"/>
<text text-anchor="middle" x="102" y="-7.5" font-family="Helvetica,sans-Serif" font-size="10.00">opcopy</text>
</a>
</g>
</g>
<!-- Node1&#45;&gt;Node3 -->
<g id="edge2" class="edge">
<title>Node1&#45;&gt;Node3</title>
<path fill="none" stroke="midnightblue" d="M42.34,-24.11C50.16,-22.23 59.31,-20.03 68.02,-17.93"/>
<polygon fill="midnightblue" stroke="midnightblue" points="69.03,-21.29 77.93,-15.55 67.39,-14.48 69.03,-21.29"/>
</g>
<!-- Node3&#45;&gt;Node2 -->
<g id="edge3" class="edge">
<title>Node3&#45;&gt;Node2</title>
<path fill="none" stroke="midnightblue" d="M126.1,-15.7C134.16,-17.69 143.31,-19.95 151.74,-22.03"/>
<polygon fill="midnightblue" stroke="midnightblue" points="151.01,-25.45 161.56,-24.45 152.69,-18.66 151.01,-25.45"/>
</g>
</g>
</svg>
