<?xml version="1.0" encoding="UTF-8" standalone="no"?>
<!DOCTYPE svg PUBLIC "-//W3C//DTD SVG 1.1//EN"
 "http://www.w3.org/Graphics/SVG/1.1/DTD/svg11.dtd">
<!-- Generated by graphviz version 2.46.0 (0)
 -->
<!-- Title: dd_solver Pages: 1 -->
<svg width="514pt" height="142pt"
 viewBox="0.00 0.00 514.00 142.00" xmlns="http://www.w3.org/2000/svg" xmlns:xlink="http://www.w3.org/1999/xlink">
<g id="graph0" class="graph" transform="scale(1 1) rotate(0) translate(4 138)">
<title>dd_solver</title>
<polygon fill="white" stroke="transparent" points="-4,4 -4,-138 510,-138 510,4 -4,4"/>
<!-- Node1 -->
<g id="node1" class="node">
<title>Node1</title>
<g id="a_node1"><a xlink:title=" ">
<polygon fill="#bfbfbf" stroke="black" points="447,-95.5 447,-114.5 506,-114.5 506,-95.5 447,-95.5"/>
<text text-anchor="middle" x="476.5" y="-102.5" font-family="Helvetica,sans-Serif" font-size="10.00">dd_solver</text>
</a>
</g>
</g>
<!-- Node2 -->
<g id="node2" class="node">
<title>Node2</title>
<g id="a_node2"><a xlink:href="navier3_8f.html#a7b3bc6faab84d98556026751dbf434ef" target="_top" xlink:title=" ">
<polygon fill="white" stroke="black" points="365,-95.5 365,-114.5 411,-114.5 411,-95.5 365,-95.5"/>
<text text-anchor="middle" x="388" y="-102.5" font-family="Helvetica,sans-Serif" font-size="10.00">eprec2</text>
</a>
</g>
</g>
<!-- Node1&#45;&gt;Node2 -->
<g id="edge1" class="edge">
<title>Node1&#45;&gt;Node2</title>
<path fill="none" stroke="midnightblue" d="M436.63,-105C427.88,-105 418.89,-105 411.11,-105"/>
<polygon fill="midnightblue" stroke="midnightblue" points="436.7,-108.5 446.7,-105 436.7,-101.5 436.7,-108.5"/>
</g>
<!-- Node3 -->
<g id="node3" class="node">
<title>Node3</title>
<g id="a_node3"><a xlink:href="navier1_8f.html#a437311d1b46ce62fc7b4d3b1dda969e2" target="_top" xlink:title=" ">
<polygon fill="white" stroke="black" points="283,-95.5 283,-114.5 329,-114.5 329,-95.5 283,-95.5"/>
<text text-anchor="middle" x="306" y="-102.5" font-family="Helvetica,sans-Serif" font-size="10.00">uzprec</text>
</a>
</g>
</g>
<!-- Node2&#45;&gt;Node3 -->
<g id="edge2" class="edge">
<title>Node2&#45;&gt;Node3</title>
<path fill="none" stroke="midnightblue" d="M354.63,-105C346.08,-105 337.04,-105 329.16,-105"/>
<polygon fill="midnightblue" stroke="midnightblue" points="354.72,-108.5 364.72,-105 354.72,-101.5 354.72,-108.5"/>
</g>
<!-- Node4 -->
<g id="node4" class="node">
<title>Node4</title>
<g id="a_node4"><a xlink:href="navier1_8f.html#a159801e9971330a0281ce3a6f984b7de" target="_top" xlink:title=" ">
<polygon fill="white" stroke="black" points="186,-76.5 186,-95.5 231,-95.5 231,-76.5 186,-76.5"/>
<text text-anchor="middle" x="208.5" y="-83.5" font-family="Helvetica,sans-Serif" font-size="10.00">uzawa</text>
</a>
</g>
</g>
<!-- Node3&#45;&gt;Node4 -->
<g id="edge3" class="edge">
<title>Node3&#45;&gt;Node4</title>
<path fill="none" stroke="midnightblue" d="M272.83,-98.6C259.13,-95.87 243.5,-92.76 231.2,-90.32"/>
<polygon fill="midnightblue" stroke="midnightblue" points="272.36,-102.07 282.85,-100.59 273.73,-95.21 272.36,-102.07"/>
</g>
<!-- Node36 -->
<g id="node10" class="node">
<title>Node36</title>
<g id="a_node10"><a xlink:href="gmres_8f.html#a7ddb9e8764ebf87db6b357ca39df2a08" target="_top" xlink:title=" ">
<polygon fill="white" stroke="black" points="170,-114.5 170,-133.5 247,-133.5 247,-114.5 170,-114.5"/>
<text text-anchor="middle" x="208.5" y="-121.5" font-family="Helvetica,sans-Serif" font-size="10.00">uzawa_gmres</text>
</a>
</g>
</g>
<!-- Node3&#45;&gt;Node36 -->
<g id="edge9" class="edge">
<title>Node3&#45;&gt;Node36</title>
<path fill="none" stroke="midnightblue" d="M272.88,-111.39C264.65,-113.03 255.73,-114.8 247.24,-116.49"/>
<polygon fill="midnightblue" stroke="midnightblue" points="273.73,-114.79 282.85,-109.41 272.36,-107.93 273.73,-114.79"/>
</g>
<!-- Node5 -->
<g id="node5" class="node">
<title>Node5</title>
<g id="a_node5"><a xlink:href="eigsolv_8f.html#ae85b67491410da26b954f7e1257a7938" target="_top" xlink:title=" ">
<polygon fill="white" stroke="black" points="81,-76.5 81,-95.5 134,-95.5 134,-76.5 81,-76.5"/>
<text text-anchor="middle" x="107.5" y="-83.5" font-family="Helvetica,sans-Serif" font-size="10.00">alpham2</text>
</a>
</g>
</g>
<!-- Node4&#45;&gt;Node5 -->
<g id="edge4" class="edge">
<title>Node4&#45;&gt;Node5</title>
<path fill="none" stroke="midnightblue" d="M175.35,-86C162.05,-86 146.82,-86 134.26,-86"/>
<polygon fill="midnightblue" stroke="midnightblue" points="175.53,-89.5 185.53,-86 175.53,-82.5 175.53,-89.5"/>
</g>
<!-- Node16 -->
<g id="node7" class="node">
<title>Node16</title>
<g id="a_node7"><a xlink:href="navier0_8f.html#aaba079db7e38db9800deef09526370ec" target="_top" xlink:title=" ">
<polygon fill="white" stroke="red" points="83.5,-114.5 83.5,-133.5 131.5,-133.5 131.5,-114.5 83.5,-114.5"/>
<text text-anchor="middle" x="107.5" y="-121.5" font-family="Helvetica,sans-Serif" font-size="10.00">esolver</text>
</a>
</g>
</g>
<!-- Node4&#45;&gt;Node16 -->
<g id="edge6" class="edge">
<title>Node4&#45;&gt;Node16</title>
<path fill="none" stroke="midnightblue" d="M176.04,-98.08C161.69,-103.59 144.99,-109.99 131.79,-115.06"/>
<polygon fill="midnightblue" stroke="midnightblue" points="177.45,-101.28 185.53,-94.43 174.94,-94.75 177.45,-101.28"/>
</g>
<!-- Node34 -->
<g id="node8" class="node">
<title>Node34</title>
<g id="a_node8"><a xlink:href="navier1_8f.html#a23e6343990072aa1a6b17109ccc7ba2b" target="_top" xlink:title=" ">
<polygon fill="white" stroke="red" points="87.5,-38.5 87.5,-57.5 127.5,-57.5 127.5,-38.5 87.5,-38.5"/>
<text text-anchor="middle" x="107.5" y="-45.5" font-family="Helvetica,sans-Serif" font-size="10.00">plan1</text>
</a>
</g>
</g>
<!-- Node4&#45;&gt;Node34 -->
<g id="edge7" class="edge">
<title>Node4&#45;&gt;Node34</title>
<path fill="none" stroke="midnightblue" d="M176.09,-73.94C160.21,-67.85 141.46,-60.65 127.73,-55.38"/>
<polygon fill="midnightblue" stroke="midnightblue" points="174.94,-77.25 185.53,-77.57 177.45,-70.72 174.94,-77.25"/>
</g>
<!-- Node35 -->
<g id="node9" class="node">
<title>Node35</title>
<g id="a_node9"><a xlink:href="ssolv_8f.html#a1270dc473e4093bab5fb3ded240dd4bd" target="_top" xlink:title=" ">
<polygon fill="white" stroke="black" points="84.5,-0.5 84.5,-19.5 130.5,-19.5 130.5,-0.5 84.5,-0.5"/>
<text text-anchor="middle" x="107.5" y="-7.5" font-family="Helvetica,sans-Serif" font-size="10.00">project</text>
</a>
</g>
</g>
<!-- Node4&#45;&gt;Node35 -->
<g id="edge8" class="edge">
<title>Node4&#45;&gt;Node35</title>
<path fill="none" stroke="midnightblue" d="M187.39,-70.24C172.66,-58.73 152.16,-42.81 134,-29 129.96,-25.93 125.53,-22.61 121.51,-19.62"/>
<polygon fill="midnightblue" stroke="midnightblue" points="185.3,-73.04 195.33,-76.45 189.61,-67.53 185.3,-73.04"/>
</g>
<!-- Node6 -->
<g id="node6" class="node">
<title>Node6</title>
<g id="a_node6"><a xlink:href="eigsolv_8f.html#a91ddf7cb5ca6b19d1c736da5bf7386b3" target="_top" xlink:title=" ">
<polygon fill="white" stroke="red" points="0,-76.5 0,-95.5 45,-95.5 45,-76.5 0,-76.5"/>
<text text-anchor="middle" x="22.5" y="-83.5" font-family="Helvetica,sans-Serif" font-size="10.00">eigenv</text>
</a>
</g>
</g>
<!-- Node5&#45;&gt;Node6 -->
<g id="edge5" class="edge">
<title>Node5&#45;&gt;Node6</title>
<path fill="none" stroke="midnightblue" d="M70.43,-86C61.79,-86 52.84,-86 45.1,-86"/>
<polygon fill="midnightblue" stroke="midnightblue" points="70.69,-89.5 80.69,-86 70.69,-82.5 70.69,-89.5"/>
</g>
<!-- Node36&#45;&gt;Node16 -->
<g id="edge10" class="edge">
<title>Node36&#45;&gt;Node16</title>
<path fill="none" stroke="midnightblue" d="M159.74,-124C150.01,-124 140.18,-124 131.78,-124"/>
<polygon fill="midnightblue" stroke="midnightblue" points="159.79,-127.5 169.79,-124 159.79,-120.5 159.79,-127.5"/>
</g>
</g>
</svg>
