<?xml version="1.0" encoding="UTF-8" standalone="no"?>
<!DOCTYPE svg PUBLIC "-//W3C//DTD SVG 1.1//EN"
 "http://www.w3.org/Graphics/SVG/1.1/DTD/svg11.dtd">
<!-- Generated by graphviz version 2.46.0 (0)
 -->
<!-- Title: rand_fld_h1 Pages: 1 -->
<svg width="434pt" height="85pt"
 viewBox="0.00 0.00 434.00 85.00" xmlns="http://www.w3.org/2000/svg" xmlns:xlink="http://www.w3.org/1999/xlink">
<g id="graph0" class="graph" transform="scale(1 1) rotate(0) translate(4 81)">
<title>rand_fld_h1</title>
<polygon fill="white" stroke="transparent" points="-4,4 -4,-81 430,-81 430,4 -4,4"/>
<!-- Node1 -->
<g id="node1" class="node">
<title>Node1</title>
<g id="a_node1"><a xlink:title=" ">
<polygon fill="#bfbfbf" stroke="black" points="0,-19.5 0,-38.5 67,-38.5 67,-19.5 0,-19.5"/>
<text text-anchor="middle" x="33.5" y="-26.5" font-family="Helvetica,sans-Serif" font-size="10.00">rand_fld_h1</text>
</a>
</g>
</g>
<!-- Node2 -->
<g id="node2" class="node">
<title>Node2</title>
<g id="a_node2"><a xlink:href="ic_8f.html#a12fbcc70f37b3490eeda7dfb002dcc7d" target="_top" xlink:title=" ">
<polygon fill="white" stroke="black" points="103,-38.5 103,-57.5 146,-57.5 146,-38.5 103,-38.5"/>
<text text-anchor="middle" x="124.5" y="-45.5" font-family="Helvetica,sans-Serif" font-size="10.00">dsavg</text>
</a>
</g>
</g>
<!-- Node1&#45;&gt;Node2 -->
<g id="edge1" class="edge">
<title>Node1&#45;&gt;Node2</title>
<path fill="none" stroke="midnightblue" d="M67.13,-35.97C75.51,-37.75 84.48,-39.67 92.76,-41.44"/>
<polygon fill="midnightblue" stroke="midnightblue" points="92.25,-44.91 102.76,-43.57 93.71,-38.06 92.25,-44.91"/>
</g>
<!-- Node9 -->
<g id="node9" class="node">
<title>Node9</title>
<g id="a_node9"><a xlink:href="navier5_8f.html#ad748dfe473aa1c135863bd7d04faf536" target="_top" xlink:title=" ">
<polygon fill="white" stroke="black" points="107,-0.5 107,-19.5 142,-19.5 142,-0.5 107,-0.5"/>
<text text-anchor="middle" x="124.5" y="-7.5" font-family="Helvetica,sans-Serif" font-size="10.00">ran1</text>
</a>
</g>
</g>
<!-- Node1&#45;&gt;Node9 -->
<g id="edge9" class="edge">
<title>Node1&#45;&gt;Node9</title>
<path fill="none" stroke="midnightblue" d="M67.13,-22.03C76.94,-19.94 87.57,-17.67 96.93,-15.67"/>
<polygon fill="midnightblue" stroke="midnightblue" points="97.8,-19.06 106.85,-13.55 96.34,-12.22 97.8,-19.06"/>
</g>
<!-- Node3 -->
<g id="node3" class="node">
<title>Node3</title>
<g id="a_node3"><a xlink:href="math_8f.html#a3470db04166d9ba91454a14cc17dbec2" target="_top" xlink:title=" ">
<polygon fill="white" stroke="black" points="187.5,-57.5 187.5,-76.5 222.5,-76.5 222.5,-57.5 187.5,-57.5"/>
<text text-anchor="middle" x="205" y="-64.5" font-family="Helvetica,sans-Serif" font-size="10.00">col2</text>
</a>
</g>
</g>
<!-- Node2&#45;&gt;Node3 -->
<g id="edge2" class="edge">
<title>Node2&#45;&gt;Node3</title>
<path fill="none" stroke="midnightblue" d="M146.12,-52.99C155.8,-55.33 167.44,-58.15 177.74,-60.64"/>
<polygon fill="midnightblue" stroke="midnightblue" points="176.92,-64.05 187.47,-63 178.57,-57.24 176.92,-64.05"/>
</g>
<!-- Node6 -->
<g id="node6" class="node">
<title>Node6</title>
<g id="a_node6"><a xlink:href="dssum_8f.html#ad67373714b1c3bafed536081167e2cd6" target="_top" xlink:title=" ">
<polygon fill="white" stroke="black" points="182,-19.5 182,-38.5 228,-38.5 228,-19.5 182,-19.5"/>
<text text-anchor="middle" x="205" y="-26.5" font-family="Helvetica,sans-Serif" font-size="10.00">dssum</text>
</a>
</g>
</g>
<!-- Node2&#45;&gt;Node6 -->
<g id="edge5" class="edge">
<title>Node2&#45;&gt;Node6</title>
<path fill="none" stroke="midnightblue" d="M146.12,-43.01C154.03,-41.1 163.24,-38.87 171.96,-36.76"/>
<polygon fill="midnightblue" stroke="midnightblue" points="172.97,-40.11 181.86,-34.36 171.32,-33.31 172.97,-40.11"/>
</g>
<!-- Node4 -->
<g id="node4" class="node">
<title>Node4</title>
<g id="a_node4"><a xlink:href="comm__mpi_8f.html#af06ec29f06aac3f8809e19de2a7e8946" target="_top" xlink:title=" ">
<polygon fill="white" stroke="black" points="264,-57.5 264,-76.5 325,-76.5 325,-57.5 264,-57.5"/>
<text text-anchor="middle" x="294.5" y="-64.5" font-family="Helvetica,sans-Serif" font-size="10.00">dnekclock</text>
</a>
</g>
</g>
<!-- Node3&#45;&gt;Node4 -->
<g id="edge3" class="edge">
<title>Node3&#45;&gt;Node4</title>
<path fill="none" stroke="midnightblue" d="M222.87,-67C231.68,-67 242.86,-67 253.71,-67"/>
<polygon fill="midnightblue" stroke="midnightblue" points="253.92,-70.5 263.92,-67 253.92,-63.5 253.92,-70.5"/>
</g>
<!-- Node5 -->
<g id="node5" class="node">
<title>Node5</title>
<g id="a_node5"><a xlink:href="mpi__dummy_8f.html#ae6a5ef945f87c2c27849696b70f3af2a" target="_top" xlink:title=" ">
<polygon fill="white" stroke="black" points="361.5,-57.5 361.5,-76.5 425.5,-76.5 425.5,-57.5 361.5,-57.5"/>
<text text-anchor="middle" x="393.5" y="-64.5" font-family="Helvetica,sans-Serif" font-size="10.00">mpi_wtime</text>
</a>
</g>
</g>
<!-- Node4&#45;&gt;Node5 -->
<g id="edge4" class="edge">
<title>Node4&#45;&gt;Node5</title>
<path fill="none" stroke="midnightblue" d="M325.13,-67C333.38,-67 342.49,-67 351.28,-67"/>
<polygon fill="midnightblue" stroke="midnightblue" points="351.37,-70.5 361.37,-67 351.37,-63.5 351.37,-70.5"/>
</g>
<!-- Node6&#45;&gt;Node4 -->
<g id="edge6" class="edge">
<title>Node6&#45;&gt;Node4</title>
<path fill="none" stroke="midnightblue" d="M228.08,-38.59C238.34,-43.04 250.73,-48.42 261.95,-53.3"/>
<polygon fill="midnightblue" stroke="midnightblue" points="260.86,-56.64 271.43,-57.41 263.65,-50.22 260.86,-56.64"/>
</g>
<!-- Node7 -->
<g id="node7" class="node">
<title>Node7</title>
<g id="a_node7"><a xlink:href="comm__mpi_8f.html#a4acb4d8e379294232e9219bec063d8f3" target="_top" xlink:title=" ">
<polygon fill="white" stroke="black" points="265,-19.5 265,-38.5 324,-38.5 324,-19.5 265,-19.5"/>
<text text-anchor="middle" x="294.5" y="-26.5" font-family="Helvetica,sans-Serif" font-size="10.00">nekgsync</text>
</a>
</g>
</g>
<!-- Node6&#45;&gt;Node7 -->
<g id="edge7" class="edge">
<title>Node6&#45;&gt;Node7</title>
<path fill="none" stroke="midnightblue" d="M228.08,-29C236.17,-29 245.59,-29 254.71,-29"/>
<polygon fill="midnightblue" stroke="midnightblue" points="254.8,-32.5 264.8,-29 254.8,-25.5 254.8,-32.5"/>
</g>
<!-- Node8 -->
<g id="node8" class="node">
<title>Node8</title>
<g id="a_node8"><a xlink:href="mpi__dummy_8f.html#a070afe564196eb48413dbf1a9fbc99aa" target="_top" xlink:title=" ">
<polygon fill="white" stroke="black" points="361,-19.5 361,-38.5 426,-38.5 426,-19.5 361,-19.5"/>
<text text-anchor="middle" x="393.5" y="-26.5" font-family="Helvetica,sans-Serif" font-size="10.00">mpi_barrier</text>
</a>
</g>
</g>
<!-- Node7&#45;&gt;Node8 -->
<g id="edge8" class="edge">
<title>Node7&#45;&gt;Node8</title>
<path fill="none" stroke="midnightblue" d="M324.08,-29C332.35,-29 341.56,-29 350.48,-29"/>
<polygon fill="midnightblue" stroke="midnightblue" points="350.73,-32.5 360.73,-29 350.73,-25.5 350.73,-32.5"/>
</g>
</g>
</svg>
