<?xml version="1.0" encoding="UTF-8" standalone="no"?>
<!DOCTYPE svg PUBLIC "-//W3C//DTD SVG 1.1//EN"
 "http://www.w3.org/Graphics/SVG/1.1/DTD/svg11.dtd">
<!-- Generated by graphviz version 2.46.0 (0)
 -->
<!-- Title: drgtrq Pages: 1 -->
<svg width="126pt" height="66pt"
 viewBox="0.00 0.00 126.00 66.00" xmlns="http://www.w3.org/2000/svg" xmlns:xlink="http://www.w3.org/1999/xlink">
<g id="graph0" class="graph" transform="scale(1 1) rotate(0) translate(4 62)">
<title>drgtrq</title>
<polygon fill="white" stroke="transparent" points="-4,4 -4,-62 122,-62 122,4 -4,4"/>
<!-- Node1 -->
<g id="node1" class="node">
<title>Node1</title>
<g id="a_node1"><a xlink:title=" ">
<polygon fill="#bfbfbf" stroke="black" points="0,-19.5 0,-38.5 41,-38.5 41,-19.5 0,-19.5"/>
<text text-anchor="middle" x="20.5" y="-26.5" font-family="Helvetica,sans-Serif" font-size="10.00">drgtrq</text>
</a>
</g>
</g>
<!-- Node2 -->
<g id="node2" class="node">
<title>Node2</title>
<g id="a_node2"><a xlink:href="connect1_8f.html#aa6d2ebf2dfdfeae458d41ef4cb6d9fae" target="_top" xlink:title=" ">
<polygon fill="white" stroke="black" points="77,-38.5 77,-57.5 118,-57.5 118,-38.5 77,-38.5"/>
<text text-anchor="middle" x="97.5" y="-45.5" font-family="Helvetica,sans-Serif" font-size="10.00">dsset</text>
</a>
</g>
</g>
<!-- Node1&#45;&gt;Node2 -->
<g id="edge1" class="edge">
<title>Node1&#45;&gt;Node2</title>
<path fill="none" stroke="midnightblue" d="M41.21,-33.99C49.13,-36 58.43,-38.36 67.12,-40.56"/>
<polygon fill="midnightblue" stroke="midnightblue" points="66.37,-43.98 76.93,-43.04 68.09,-37.19 66.37,-43.98"/>
</g>
<!-- Node3 -->
<g id="node3" class="node">
<title>Node3</title>
<g id="a_node3"><a xlink:href="math_8f.html#af44de42b023a4a68cd98ea341204342d" target="_top" xlink:title=" ">
<polygon fill="white" stroke="black" points="78.5,-0.5 78.5,-19.5 116.5,-19.5 116.5,-0.5 78.5,-0.5"/>
<text text-anchor="middle" x="97.5" y="-7.5" font-family="Helvetica,sans-Serif" font-size="10.00">rzero</text>
</a>
</g>
</g>
<!-- Node1&#45;&gt;Node3 -->
<g id="edge2" class="edge">
<title>Node1&#45;&gt;Node3</title>
<path fill="none" stroke="midnightblue" d="M41.21,-24.01C49.59,-21.88 59.53,-19.37 68.65,-17.06"/>
<polygon fill="midnightblue" stroke="midnightblue" points="69.63,-20.42 78.47,-14.57 67.91,-13.63 69.63,-20.42"/>
</g>
</g>
</svg>
