<?xml version="1.0" encoding="UTF-8" standalone="no"?>
<!DOCTYPE svg PUBLIC "-//W3C//DTD SVG 1.1//EN"
 "http://www.w3.org/Graphics/SVG/1.1/DTD/svg11.dtd">
<!-- Generated by graphviz version 2.46.0 (0)
 -->
<!-- Title: add_temp Pages: 1 -->
<svg width="265pt" height="256pt"
 viewBox="0.00 0.00 265.00 256.00" xmlns="http://www.w3.org/2000/svg" xmlns:xlink="http://www.w3.org/1999/xlink">
<g id="graph0" class="graph" transform="scale(1 1) rotate(0) translate(4 252)">
<title>add_temp</title>
<polygon fill="white" stroke="transparent" points="-4,4 -4,-252 261,-252 261,4 -4,4"/>
<!-- Node1 -->
<g id="node1" class="node">
<title>Node1</title>
<g id="a_node1"><a xlink:title=" ">
<polygon fill="#bfbfbf" stroke="black" points="0,-123.5 0,-142.5 59,-142.5 59,-123.5 0,-123.5"/>
<text text-anchor="middle" x="29.5" y="-130.5" font-family="Helvetica,sans-Serif" font-size="10.00">add_temp</text>
</a>
</g>
</g>
<!-- Node2 -->
<g id="node2" class="node">
<title>Node2</title>
<g id="a_node2"><a xlink:href="navier5_8f.html#af9922b7bd66d435606fc0791bda58bf9" target="_top" xlink:title=" ">
<polygon fill="white" stroke="black" points="95,-161.5 95,-180.5 165,-180.5 165,-161.5 95,-161.5"/>
<text text-anchor="middle" x="130" y="-168.5" font-family="Helvetica,sans-Serif" font-size="10.00">add_temp_1</text>
</a>
</g>
</g>
<!-- Node1&#45;&gt;Node2 -->
<g id="edge1" class="edge">
<title>Node1&#45;&gt;Node2</title>
<path fill="none" stroke="midnightblue" d="M55.36,-142.59C67.25,-147.18 81.69,-152.75 94.63,-157.74"/>
<polygon fill="midnightblue" stroke="midnightblue" points="93.56,-161.08 104.15,-161.41 96.08,-154.55 93.56,-161.08"/>
</g>
<!-- Node6 -->
<g id="node6" class="node">
<title>Node6</title>
<g id="a_node6"><a xlink:href="connect1_8f.html#a555c5112d24b342a7e0c9d0990c53ae2" target="_top" xlink:title=" ">
<polygon fill="white" stroke="red" points="97.5,-104.5 97.5,-123.5 162.5,-123.5 162.5,-104.5 97.5,-104.5"/>
<text text-anchor="middle" x="130" y="-111.5" font-family="Helvetica,sans-Serif" font-size="10.00">setup_topo</text>
</a>
</g>
</g>
<!-- Node1&#45;&gt;Node6 -->
<g id="edge5" class="edge">
<title>Node1&#45;&gt;Node6</title>
<path fill="none" stroke="midnightblue" d="M59.26,-127.45C68.01,-125.76 77.82,-123.87 87.26,-122.05"/>
<polygon fill="midnightblue" stroke="midnightblue" points="88.12,-125.45 97.28,-120.12 86.79,-118.58 88.12,-125.45"/>
</g>
<!-- Node3 -->
<g id="node3" class="node">
<title>Node3</title>
<g id="a_node3"><a xlink:href="math_8f.html#ad7fb480cea001849621405f37167aab1" target="_top" xlink:title=" ">
<polygon fill="white" stroke="black" points="205,-228.5 205,-247.5 253,-247.5 253,-228.5 205,-228.5"/>
<text text-anchor="middle" x="229" y="-235.5" font-family="Helvetica,sans-Serif" font-size="10.00">chcopy</text>
</a>
</g>
</g>
<!-- Node2&#45;&gt;Node3 -->
<g id="edge2" class="edge">
<title>Node2&#45;&gt;Node3</title>
<path fill="none" stroke="midnightblue" d="M144.9,-180.6C160.82,-191.59 187.11,-209.76 205.86,-222.71"/>
<polygon fill="midnightblue" stroke="midnightblue" points="203.91,-225.61 214.13,-228.42 207.89,-219.86 203.91,-225.61"/>
</g>
<!-- Node4 -->
<g id="node4" class="node">
<title>Node4</title>
<g id="a_node4"><a xlink:href="math_8f.html#a3b43508554f14bdea8e14473d7d0803c" target="_top" xlink:title=" ">
<polygon fill="white" stroke="black" points="210,-152.5 210,-171.5 248,-171.5 248,-152.5 210,-152.5"/>
<text text-anchor="middle" x="229" y="-159.5" font-family="Helvetica,sans-Serif" font-size="10.00">copy</text>
</a>
</g>
</g>
<!-- Node2&#45;&gt;Node4 -->
<g id="edge3" class="edge">
<title>Node2&#45;&gt;Node4</title>
<path fill="none" stroke="midnightblue" d="M165.2,-167.83C176.49,-166.78 188.92,-165.63 199.71,-164.62"/>
<polygon fill="midnightblue" stroke="midnightblue" points="200.23,-168.09 209.87,-163.68 199.59,-161.12 200.23,-168.09"/>
</g>
<!-- Node5 -->
<g id="node5" class="node">
<title>Node5</title>
<g id="a_node5"><a xlink:href="math_8f.html#a1e85d2406444243269f0d85c61a02dce" target="_top" xlink:title=" ">
<polygon fill="white" stroke="black" points="209,-190.5 209,-209.5 249,-209.5 249,-190.5 209,-190.5"/>
<text text-anchor="middle" x="229" y="-197.5" font-family="Helvetica,sans-Serif" font-size="10.00">icopy</text>
</a>
</g>
</g>
<!-- Node2&#45;&gt;Node5 -->
<g id="edge4" class="edge">
<title>Node2&#45;&gt;Node5</title>
<path fill="none" stroke="midnightblue" d="M163.03,-180.58C174.61,-184.04 187.6,-187.92 198.91,-191.3"/>
<polygon fill="midnightblue" stroke="midnightblue" points="198.15,-194.73 208.74,-194.24 200.16,-188.02 198.15,-194.73"/>
</g>
<!-- Node6&#45;&gt;Node4 -->
<g id="edge8" class="edge">
<title>Node6&#45;&gt;Node4</title>
<path fill="none" stroke="midnightblue" d="M150.63,-123.71C164.93,-130.79 184.5,-140.48 200.38,-148.33"/>
<polygon fill="midnightblue" stroke="midnightblue" points="199.2,-151.65 209.71,-152.95 202.3,-145.38 199.2,-151.65"/>
</g>
<!-- Node7 -->
<g id="node7" class="node">
<title>Node7</title>
<g id="a_node7"><a xlink:href="mvmesh_8f.html#a07e87edc7716a2266652952896517644" target="_top" xlink:title=" ">
<polygon fill="white" stroke="black" points="201,-114.5 201,-133.5 257,-133.5 257,-114.5 201,-114.5"/>
<text text-anchor="middle" x="229" y="-121.5" font-family="Helvetica,sans-Serif" font-size="10.00">cbcmesh</text>
</a>
</g>
</g>
<!-- Node6&#45;&gt;Node7 -->
<g id="edge6" class="edge">
<title>Node6&#45;&gt;Node7</title>
<path fill="none" stroke="midnightblue" d="M162.76,-117.27C171.67,-118.19 181.45,-119.2 190.65,-120.15"/>
<polygon fill="midnightblue" stroke="midnightblue" points="190.42,-123.64 200.73,-121.19 191.14,-116.68 190.42,-123.64"/>
</g>
<!-- Node8 -->
<g id="node8" class="node">
<title>Node8</title>
<g id="a_node8"><a xlink:href="bdry_8f.html#afb4cd81c482f0bed65fa2a751caf94c3" target="_top" xlink:title=" ">
<polygon fill="white" stroke="red" points="202.5,-76.5 202.5,-95.5 255.5,-95.5 255.5,-76.5 202.5,-76.5"/>
<text text-anchor="middle" x="229" y="-83.5" font-family="Helvetica,sans-Serif" font-size="10.00">chkaxcb</text>
</a>
</g>
</g>
<!-- Node6&#45;&gt;Node8 -->
<g id="edge7" class="edge">
<title>Node6&#45;&gt;Node8</title>
<path fill="none" stroke="midnightblue" d="M162.76,-104.83C172.28,-102.09 182.77,-99.06 192.51,-96.25"/>
<polygon fill="midnightblue" stroke="midnightblue" points="193.67,-99.55 202.31,-93.42 191.73,-92.83 193.67,-99.55"/>
</g>
<!-- Node12 -->
<g id="node9" class="node">
<title>Node12</title>
<g id="a_node9"><a xlink:href="connect1_8f.html#aa6d2ebf2dfdfeae458d41ef4cb6d9fae" target="_top" xlink:title=" ">
<polygon fill="white" stroke="black" points="208.5,-38.5 208.5,-57.5 249.5,-57.5 249.5,-38.5 208.5,-38.5"/>
<text text-anchor="middle" x="229" y="-45.5" font-family="Helvetica,sans-Serif" font-size="10.00">dsset</text>
</a>
</g>
</g>
<!-- Node6&#45;&gt;Node12 -->
<g id="edge9" class="edge">
<title>Node6&#45;&gt;Node12</title>
<path fill="none" stroke="midnightblue" d="M145.31,-104.26C161.16,-93.48 186.93,-75.95 205.49,-63.32"/>
<polygon fill="midnightblue" stroke="midnightblue" points="207.65,-66.08 213.94,-57.56 203.71,-60.3 207.65,-66.08"/>
</g>
<!-- Node13 -->
<g id="node10" class="node">
<title>Node13</title>
<g id="a_node10"><a xlink:href="dssum_8f.html#ad67373714b1c3bafed536081167e2cd6" target="_top" xlink:title=" ">
<polygon fill="white" stroke="red" points="206,-0.5 206,-19.5 252,-19.5 252,-0.5 206,-0.5"/>
<text text-anchor="middle" x="229" y="-7.5" font-family="Helvetica,sans-Serif" font-size="10.00">dssum</text>
</a>
</g>
</g>
<!-- Node6&#45;&gt;Node13 -->
<g id="edge10" class="edge">
<title>Node6&#45;&gt;Node13</title>
<path fill="none" stroke="midnightblue" d="M137.61,-104.37C149.25,-87.82 174.64,-53.43 201,-29 202.13,-27.95 203.32,-26.92 204.55,-25.9"/>
<polygon fill="midnightblue" stroke="midnightblue" points="207.03,-28.41 212.88,-19.57 202.8,-22.83 207.03,-28.41"/>
</g>
</g>
</svg>
