<?xml version="1.0" encoding="UTF-8" standalone="no"?>
<!DOCTYPE svg PUBLIC "-//W3C//DTD SVG 1.1//EN"
 "http://www.w3.org/Graphics/SVG/1.1/DTD/svg11.dtd">
<!-- Generated by graphviz version 2.46.0 (0)
 -->
<!-- Title: hypmsk3 Pages: 1 -->
<svg width="227pt" height="256pt"
 viewBox="0.00 0.00 227.00 256.00" xmlns="http://www.w3.org/2000/svg" xmlns:xlink="http://www.w3.org/1999/xlink">
<g id="graph0" class="graph" transform="scale(1 1) rotate(0) translate(4 252)">
<title>hypmsk3</title>
<polygon fill="white" stroke="transparent" points="-4,4 -4,-252 223,-252 223,4 -4,4"/>
<!-- Node1 -->
<g id="node1" class="node">
<title>Node1</title>
<g id="a_node1"><a xlink:title=" ">
<polygon fill="#bfbfbf" stroke="black" points="0,-114.5 0,-133.5 56,-133.5 56,-114.5 0,-114.5"/>
<text text-anchor="middle" x="28" y="-121.5" font-family="Helvetica,sans-Serif" font-size="10.00">hypmsk3</text>
</a>
</g>
</g>
<!-- Node2 -->
<g id="node2" class="node">
<title>Node2</title>
<g id="a_node2"><a xlink:href="math_8f.html#a3b43508554f14bdea8e14473d7d0803c" target="_top" xlink:title=" ">
<polygon fill="white" stroke="black" points="97,-228.5 97,-247.5 135,-247.5 135,-228.5 97,-228.5"/>
<text text-anchor="middle" x="116" y="-235.5" font-family="Helvetica,sans-Serif" font-size="10.00">copy</text>
</a>
</g>
</g>
<!-- Node1&#45;&gt;Node2 -->
<g id="edge1" class="edge">
<title>Node1&#45;&gt;Node2</title>
<path fill="none" stroke="midnightblue" d="M34.08,-133.55C43.85,-151.44 66.58,-190.76 92,-219 92.73,-219.81 93.49,-220.61 94.28,-221.41"/>
<polygon fill="midnightblue" stroke="midnightblue" points="91.99,-224.05 101.75,-228.17 96.69,-218.86 91.99,-224.05"/>
</g>
<!-- Node3 -->
<g id="node3" class="node">
<title>Node3</title>
<g id="a_node3"><a xlink:href="subs1_8f.html#ac031cc2389be2401847bfda335f228fd" target="_top" xlink:title=" ">
<polygon fill="white" stroke="black" points="94.5,-190.5 94.5,-209.5 137.5,-209.5 137.5,-190.5 94.5,-190.5"/>
<text text-anchor="middle" x="116" y="-197.5" font-family="Helvetica,sans-Serif" font-size="10.00">faccl3</text>
</a>
</g>
</g>
<!-- Node1&#45;&gt;Node3 -->
<g id="edge2" class="edge">
<title>Node1&#45;&gt;Node3</title>
<path fill="none" stroke="midnightblue" d="M39.57,-133.83C51.98,-145.31 73.26,-164.79 92,-181 93.13,-181.97 94.29,-182.97 95.47,-183.97"/>
<polygon fill="midnightblue" stroke="midnightblue" points="93.29,-186.71 103.21,-190.44 97.78,-181.34 93.29,-186.71"/>
</g>
<!-- Node5 -->
<g id="node5" class="node">
<title>Node5</title>
<g id="a_node5"><a xlink:href="connect1_8f.html#a1c96db1fac78d436aaab41482ed01aca" target="_top" xlink:title=" ">
<polygon fill="white" stroke="black" points="95.5,-76.5 95.5,-95.5 136.5,-95.5 136.5,-76.5 95.5,-76.5"/>
<text text-anchor="middle" x="116" y="-83.5" font-family="Helvetica,sans-Serif" font-size="10.00">facev</text>
</a>
</g>
</g>
<!-- Node1&#45;&gt;Node5 -->
<g id="edge4" class="edge">
<title>Node1&#45;&gt;Node5</title>
<path fill="none" stroke="midnightblue" d="M50.7,-114.41C61.43,-109.67 74.53,-103.88 86.09,-98.77"/>
<polygon fill="midnightblue" stroke="midnightblue" points="87.63,-101.92 95.36,-94.68 84.8,-95.52 87.63,-101.92"/>
</g>
<!-- Node7 -->
<g id="node7" class="node">
<title>Node7</title>
<g id="a_node7"><a xlink:href="subs1_8f.html#a300a6ec376ec9db6364ed826c08800f8" target="_top" xlink:title=" ">
<polygon fill="white" stroke="black" points="92,-152.5 92,-171.5 140,-171.5 140,-152.5 92,-152.5"/>
<text text-anchor="middle" x="116" y="-159.5" font-family="Helvetica,sans-Serif" font-size="10.00">faddcl3</text>
</a>
</g>
</g>
<!-- Node1&#45;&gt;Node7 -->
<g id="edge6" class="edge">
<title>Node1&#45;&gt;Node7</title>
<path fill="none" stroke="midnightblue" d="M50.7,-133.59C60.78,-138.04 72.96,-143.42 83.99,-148.3"/>
<polygon fill="midnightblue" stroke="midnightblue" points="82.74,-151.57 93.31,-152.41 85.57,-145.17 82.74,-151.57"/>
</g>
<!-- Node8 -->
<g id="node8" class="node">
<title>Node8</title>
<g id="a_node8"><a xlink:href="subs1_8f.html#a6238bd08ca72803d019b79f691a06b61" target="_top" xlink:title=" ">
<polygon fill="white" stroke="black" points="94,-114.5 94,-133.5 138,-133.5 138,-114.5 94,-114.5"/>
<text text-anchor="middle" x="116" y="-121.5" font-family="Helvetica,sans-Serif" font-size="10.00">fcaver</text>
</a>
</g>
</g>
<!-- Node1&#45;&gt;Node8 -->
<g id="edge8" class="edge">
<title>Node1&#45;&gt;Node8</title>
<path fill="none" stroke="midnightblue" d="M56.21,-124C64.98,-124 74.77,-124 83.81,-124"/>
<polygon fill="midnightblue" stroke="midnightblue" points="83.96,-127.5 93.96,-124 83.96,-120.5 83.96,-127.5"/>
</g>
<!-- Node9 -->
<g id="node9" class="node">
<title>Node9</title>
<g id="a_node9"><a xlink:href="math_8f.html#ae1294c8ac3b5b3c38bbcc250d252b9cb" target="_top" xlink:title=" ">
<polygon fill="white" stroke="black" points="98.5,-38.5 98.5,-57.5 133.5,-57.5 133.5,-38.5 98.5,-38.5"/>
<text text-anchor="middle" x="116" y="-45.5" font-family="Helvetica,sans-Serif" font-size="10.00">rone</text>
</a>
</g>
</g>
<!-- Node1&#45;&gt;Node9 -->
<g id="edge10" class="edge">
<title>Node1&#45;&gt;Node9</title>
<path fill="none" stroke="midnightblue" d="M39.57,-114.17C51.98,-102.69 73.26,-83.21 92,-67 93.13,-66.03 94.29,-65.03 95.47,-64.03"/>
<polygon fill="midnightblue" stroke="midnightblue" points="97.78,-66.66 103.21,-57.56 93.29,-61.29 97.78,-66.66"/>
</g>
<!-- Node10 -->
<g id="node10" class="node">
<title>Node10</title>
<g id="a_node10"><a xlink:href="math_8f.html#af44de42b023a4a68cd98ea341204342d" target="_top" xlink:title=" ">
<polygon fill="white" stroke="black" points="97,-0.5 97,-19.5 135,-19.5 135,-0.5 97,-0.5"/>
<text text-anchor="middle" x="116" y="-7.5" font-family="Helvetica,sans-Serif" font-size="10.00">rzero</text>
</a>
</g>
</g>
<!-- Node1&#45;&gt;Node10 -->
<g id="edge11" class="edge">
<title>Node1&#45;&gt;Node10</title>
<path fill="none" stroke="midnightblue" d="M34.08,-114.45C43.85,-96.56 66.58,-57.24 92,-29 92.73,-28.19 93.49,-27.39 94.28,-26.59"/>
<polygon fill="midnightblue" stroke="midnightblue" points="96.69,-29.14 101.75,-19.83 91.99,-23.95 96.69,-29.14"/>
</g>
<!-- Node4 -->
<g id="node4" class="node">
<title>Node4</title>
<g id="a_node4"><a xlink:href="connect1_8f.html#aa6d2ebf2dfdfeae458d41ef4cb6d9fae" target="_top" xlink:title=" ">
<polygon fill="white" stroke="black" points="177,-152.5 177,-171.5 218,-171.5 218,-152.5 177,-152.5"/>
<text text-anchor="middle" x="197.5" y="-159.5" font-family="Helvetica,sans-Serif" font-size="10.00">dsset</text>
</a>
</g>
</g>
<!-- Node3&#45;&gt;Node4 -->
<g id="edge3" class="edge">
<title>Node3&#45;&gt;Node4</title>
<path fill="none" stroke="midnightblue" d="M137.06,-190.41C146.33,-185.98 157.52,-180.63 167.67,-175.78"/>
<polygon fill="midnightblue" stroke="midnightblue" points="169.48,-178.79 176.99,-171.32 166.46,-172.48 169.48,-178.79"/>
</g>
<!-- Node6 -->
<g id="node6" class="node">
<title>Node6</title>
<g id="a_node6"><a xlink:href="connect1_8f.html#aa1c9016b4c28e8a8512be6f6d67eefce" target="_top" xlink:title=" ">
<polygon fill="white" stroke="black" points="176,-76.5 176,-95.5 219,-95.5 219,-76.5 176,-76.5"/>
<text text-anchor="middle" x="197.5" y="-83.5" font-family="Helvetica,sans-Serif" font-size="10.00">facind</text>
</a>
</g>
</g>
<!-- Node5&#45;&gt;Node6 -->
<g id="edge5" class="edge">
<title>Node5&#45;&gt;Node6</title>
<path fill="none" stroke="midnightblue" d="M136.65,-86C145.43,-86 155.99,-86 165.77,-86"/>
<polygon fill="midnightblue" stroke="midnightblue" points="165.97,-89.5 175.97,-86 165.97,-82.5 165.97,-89.5"/>
</g>
<!-- Node7&#45;&gt;Node4 -->
<g id="edge7" class="edge">
<title>Node7&#45;&gt;Node4</title>
<path fill="none" stroke="midnightblue" d="M140.42,-162C148.69,-162 158.11,-162 166.83,-162"/>
<polygon fill="midnightblue" stroke="midnightblue" points="166.99,-165.5 176.99,-162 166.99,-158.5 166.99,-165.5"/>
</g>
<!-- Node8&#45;&gt;Node4 -->
<g id="edge9" class="edge">
<title>Node8&#45;&gt;Node4</title>
<path fill="none" stroke="midnightblue" d="M137.06,-133.59C146.33,-138.02 157.52,-143.37 167.67,-148.22"/>
<polygon fill="midnightblue" stroke="midnightblue" points="166.46,-151.52 176.99,-152.68 169.48,-145.21 166.46,-151.52"/>
</g>
</g>
</svg>
