<?xml version="1.0" encoding="UTF-8" standalone="no"?>
<!DOCTYPE svg PUBLIC "-//W3C//DTD SVG 1.1//EN"
 "http://www.w3.org/Graphics/SVG/1.1/DTD/svg11.dtd">
<!-- Generated by graphviz version 2.46.0 (0)
 -->
<!-- Title: opdsop Pages: 1 -->
<svg width="350pt" height="66pt"
 viewBox="0.00 0.00 350.00 66.00" xmlns="http://www.w3.org/2000/svg" xmlns:xlink="http://www.w3.org/1999/xlink">
<g id="graph0" class="graph" transform="scale(1 1) rotate(0) translate(4 62)">
<title>opdsop</title>
<polygon fill="white" stroke="transparent" points="-4,4 -4,-62 346,-62 346,4 -4,4"/>
<!-- Node1 -->
<g id="node1" class="node">
<title>Node1</title>
<g id="a_node1"><a xlink:title=" ">
<polygon fill="#bfbfbf" stroke="black" points="0,-19.5 0,-38.5 48,-38.5 48,-19.5 0,-19.5"/>
<text text-anchor="middle" x="24" y="-26.5" font-family="Helvetica,sans-Serif" font-size="10.00">opdsop</text>
</a>
</g>
</g>
<!-- Node2 -->
<g id="node2" class="node">
<title>Node2</title>
<g id="a_node2"><a xlink:href="navier1_8f.html#a7dc78f2f7df7b41bdbfe8f1bb2d80b4d" target="_top" xlink:title=" ">
<polygon fill="white" stroke="black" points="84,-38.5 84,-57.5 146,-57.5 146,-38.5 84,-38.5"/>
<text text-anchor="middle" x="115" y="-45.5" font-family="Helvetica,sans-Serif" font-size="10.00">rotate_cyc</text>
</a>
</g>
</g>
<!-- Node1&#45;&gt;Node2 -->
<g id="edge1" class="edge">
<title>Node1&#45;&gt;Node2</title>
<path fill="none" stroke="midnightblue" d="M48.38,-33.99C56.16,-35.65 65.05,-37.55 73.73,-39.4"/>
<polygon fill="midnightblue" stroke="midnightblue" points="73.22,-42.87 83.73,-41.54 74.68,-36.03 73.22,-42.87"/>
</g>
<!-- Node5 -->
<g id="node5" class="node">
<title>Node5</title>
<g id="a_node5"><a xlink:href="dssum_8f.html#acf6d9ba408768ba9e372123ca673691a" target="_top" xlink:title=" ">
<polygon fill="white" stroke="black" points="85.5,-0.5 85.5,-19.5 144.5,-19.5 144.5,-0.5 85.5,-0.5"/>
<text text-anchor="middle" x="115" y="-7.5" font-family="Helvetica,sans-Serif" font-size="10.00">vec_dsop</text>
</a>
</g>
</g>
<!-- Node1&#45;&gt;Node5 -->
<g id="edge4" class="edge">
<title>Node1&#45;&gt;Node5</title>
<path fill="none" stroke="midnightblue" d="M48.38,-24.01C56.7,-22.23 66.31,-20.18 75.56,-18.21"/>
<polygon fill="midnightblue" stroke="midnightblue" points="76.32,-21.62 85.37,-16.11 74.86,-14.78 76.32,-21.62"/>
</g>
<!-- Node3 -->
<g id="node3" class="node">
<title>Node3</title>
<g id="a_node3"><a xlink:href="bdry_8f.html#adaa309873cbbbd3c117145741e3e41b3" target="_top" xlink:title=" ">
<polygon fill="white" stroke="black" points="187.5,-38.5 187.5,-57.5 235.5,-57.5 235.5,-38.5 187.5,-38.5"/>
<text text-anchor="middle" x="211.5" y="-45.5" font-family="Helvetica,sans-Serif" font-size="10.00">facind2</text>
</a>
</g>
</g>
<!-- Node2&#45;&gt;Node3 -->
<g id="edge2" class="edge">
<title>Node2&#45;&gt;Node3</title>
<path fill="none" stroke="midnightblue" d="M146.16,-48C156.02,-48 167.03,-48 177.12,-48"/>
<polygon fill="midnightblue" stroke="midnightblue" points="177.21,-51.5 187.21,-48 177.21,-44.5 177.21,-51.5"/>
</g>
<!-- Node4 -->
<g id="node4" class="node">
<title>Node4</title>
<g id="a_node4"><a xlink:href="connect1_8f.html#aa6d2ebf2dfdfeae458d41ef4cb6d9fae" target="_top" xlink:title=" ">
<polygon fill="white" stroke="black" points="289,-38.5 289,-57.5 330,-57.5 330,-38.5 289,-38.5"/>
<text text-anchor="middle" x="309.5" y="-45.5" font-family="Helvetica,sans-Serif" font-size="10.00">dsset</text>
</a>
</g>
</g>
<!-- Node3&#45;&gt;Node4 -->
<g id="edge3" class="edge">
<title>Node3&#45;&gt;Node4</title>
<path fill="none" stroke="midnightblue" d="M235.74,-48C248.65,-48 264.85,-48 278.69,-48"/>
<polygon fill="midnightblue" stroke="midnightblue" points="278.72,-51.5 288.72,-48 278.72,-44.5 278.72,-51.5"/>
</g>
<!-- Node6 -->
<g id="node6" class="node">
<title>Node6</title>
<g id="a_node6"><a xlink:href="comm__mpi_8f.html#a4acb4d8e379294232e9219bec063d8f3" target="_top" xlink:title=" ">
<polygon fill="white" stroke="black" points="182,-0.5 182,-19.5 241,-19.5 241,-0.5 182,-0.5"/>
<text text-anchor="middle" x="211.5" y="-7.5" font-family="Helvetica,sans-Serif" font-size="10.00">nekgsync</text>
</a>
</g>
</g>
<!-- Node5&#45;&gt;Node6 -->
<g id="edge5" class="edge">
<title>Node5&#45;&gt;Node6</title>
<path fill="none" stroke="midnightblue" d="M144.61,-10C153.21,-10 162.8,-10 171.94,-10"/>
<polygon fill="midnightblue" stroke="midnightblue" points="171.99,-13.5 181.99,-10 171.99,-6.5 171.99,-13.5"/>
</g>
<!-- Node7 -->
<g id="node7" class="node">
<title>Node7</title>
<g id="a_node7"><a xlink:href="mpi__dummy_8f.html#a070afe564196eb48413dbf1a9fbc99aa" target="_top" xlink:title=" ">
<polygon fill="white" stroke="black" points="277,-0.5 277,-19.5 342,-19.5 342,-0.5 277,-0.5"/>
<text text-anchor="middle" x="309.5" y="-7.5" font-family="Helvetica,sans-Serif" font-size="10.00">mpi_barrier</text>
</a>
</g>
</g>
<!-- Node6&#45;&gt;Node7 -->
<g id="edge6" class="edge">
<title>Node6&#45;&gt;Node7</title>
<path fill="none" stroke="midnightblue" d="M241.04,-10C249.15,-10 258.14,-10 266.85,-10"/>
<polygon fill="midnightblue" stroke="midnightblue" points="266.88,-13.5 276.88,-10 266.88,-6.5 266.88,-13.5"/>
</g>
</g>
</svg>
