<?xml version="1.0" encoding="UTF-8" standalone="no"?>
<!DOCTYPE svg PUBLIC "-//W3C//DTD SVG 1.1//EN"
 "http://www.w3.org/Graphics/SVG/1.1/DTD/svg11.dtd">
<!-- Generated by graphviz version 2.46.0 (0)
 -->
<!-- Title: esolver Pages: 1 -->
<svg width="523pt" height="142pt"
 viewBox="0.00 0.00 523.00 142.00" xmlns="http://www.w3.org/2000/svg" xmlns:xlink="http://www.w3.org/1999/xlink">
<g id="graph0" class="graph" transform="scale(1 1) rotate(0) translate(4 138)">
<title>esolver</title>
<polygon fill="white" stroke="transparent" points="-4,4 -4,-138 519,-138 519,4 -4,4"/>
<!-- Node1 -->
<g id="node1" class="node">
<title>Node1</title>
<g id="a_node1"><a xlink:title=" ">
<polygon fill="#bfbfbf" stroke="black" points="0,-38.5 0,-57.5 48,-57.5 48,-38.5 0,-38.5"/>
<text text-anchor="middle" x="24" y="-45.5" font-family="Helvetica,sans-Serif" font-size="10.00">esolver</text>
</a>
</g>
</g>
<!-- Node2 -->
<g id="node2" class="node">
<title>Node2</title>
<g id="a_node2"><a xlink:href="comm__mpi_8f.html#af06ec29f06aac3f8809e19de2a7e8946" target="_top" xlink:title=" ">
<polygon fill="white" stroke="black" points="197,-76.5 197,-95.5 258,-95.5 258,-76.5 197,-76.5"/>
<text text-anchor="middle" x="227.5" y="-83.5" font-family="Helvetica,sans-Serif" font-size="10.00">dnekclock</text>
</a>
</g>
</g>
<!-- Node1&#45;&gt;Node2 -->
<g id="edge1" class="edge">
<title>Node1&#45;&gt;Node2</title>
<path fill="none" stroke="midnightblue" d="M31.23,-57.55C40.72,-71.12 60.23,-95.39 84,-105 120.17,-119.62 165.31,-109.3 194.97,-99.05"/>
<polygon fill="midnightblue" stroke="midnightblue" points="196.2,-102.32 204.4,-95.61 193.8,-95.75 196.2,-102.32"/>
</g>
<!-- Node4 -->
<g id="node4" class="node">
<title>Node4</title>
<g id="a_node4"><a xlink:href="byte_8c.html#a2da8eeb074dfd3ffbfb3e9a4d301cda4" target="_top" xlink:title=" ">
<polygon fill="white" stroke="black" points="394,-0.5 394,-19.5 429,-19.5 429,-0.5 394,-0.5"/>
<text text-anchor="middle" x="411.5" y="-7.5" font-family="Helvetica,sans-Serif" font-size="10.00">exitt</text>
</a>
</g>
</g>
<!-- Node1&#45;&gt;Node4 -->
<g id="edge3" class="edge">
<title>Node1&#45;&gt;Node4</title>
<path fill="none" stroke="midnightblue" d="M41.44,-38.49C52.95,-32.33 68.92,-24.78 84,-21 192.31,6.14 327.13,-1.96 383.63,-7.15"/>
<polygon fill="midnightblue" stroke="midnightblue" points="383.56,-10.66 393.85,-8.13 384.24,-3.69 383.56,-10.66"/>
</g>
<!-- Node7 -->
<g id="node6" class="node">
<title>Node7</title>
<g id="a_node6"><a xlink:href="navier1_8f.html#a4905d51f51b57bfec184a6b44f858bdb" target="_top" xlink:title=" ">
<polygon fill="white" stroke="red" points="208.5,-38.5 208.5,-57.5 246.5,-57.5 246.5,-38.5 208.5,-38.5"/>
<text text-anchor="middle" x="227.5" y="-45.5" font-family="Helvetica,sans-Serif" font-size="10.00">ortho</text>
</a>
</g>
</g>
<!-- Node1&#45;&gt;Node7 -->
<g id="edge5" class="edge">
<title>Node1&#45;&gt;Node7</title>
<path fill="none" stroke="midnightblue" d="M48.13,-38.7C58.86,-34.88 71.88,-30.9 84,-29 117.81,-23.69 127.12,-24.19 161,-29 173.69,-30.8 187.37,-34.48 198.92,-38.12"/>
<polygon fill="midnightblue" stroke="midnightblue" points="197.86,-41.46 208.45,-41.27 200.05,-34.81 197.86,-41.46"/>
</g>
<!-- Node16 -->
<g id="node9" class="node">
<title>Node16</title>
<g id="a_node9"><a xlink:href="navier1_8f.html#a159801e9971330a0281ce3a6f984b7de" target="_top" xlink:title=" ">
<polygon fill="white" stroke="red" points="100,-38.5 100,-57.5 145,-57.5 145,-38.5 100,-38.5"/>
<text text-anchor="middle" x="122.5" y="-45.5" font-family="Helvetica,sans-Serif" font-size="10.00">uzawa</text>
</a>
</g>
</g>
<!-- Node1&#45;&gt;Node16 -->
<g id="edge9" class="edge">
<title>Node1&#45;&gt;Node16</title>
<path fill="none" stroke="midnightblue" d="M48.36,-48C60.68,-48 75.99,-48 89.41,-48"/>
<polygon fill="midnightblue" stroke="midnightblue" points="89.68,-51.5 99.68,-48 89.68,-44.5 89.68,-51.5"/>
</g>
<!-- Node399 -->
<g id="node10" class="node">
<title>Node399</title>
<g id="a_node10"><a xlink:href="gmres_8f.html#a7ddb9e8764ebf87db6b357ca39df2a08" target="_top" xlink:title=" ">
<polygon fill="white" stroke="red" points="84,-76.5 84,-95.5 161,-95.5 161,-76.5 84,-76.5"/>
<text text-anchor="middle" x="122.5" y="-83.5" font-family="Helvetica,sans-Serif" font-size="10.00">uzawa_gmres</text>
</a>
</g>
</g>
<!-- Node1&#45;&gt;Node399 -->
<g id="edge13" class="edge">
<title>Node1&#45;&gt;Node399</title>
<path fill="none" stroke="midnightblue" d="M48.36,-57.2C60.18,-61.85 74.75,-67.59 87.77,-72.72"/>
<polygon fill="midnightblue" stroke="midnightblue" points="86.76,-76.08 97.35,-76.49 89.33,-69.57 86.76,-76.08"/>
</g>
<!-- Node3 -->
<g id="node3" class="node">
<title>Node3</title>
<g id="a_node3"><a xlink:href="mpi__dummy_8f.html#ae6a5ef945f87c2c27849696b70f3af2a" target="_top" xlink:title=" ">
<polygon fill="white" stroke="black" points="294,-114.5 294,-133.5 358,-133.5 358,-114.5 294,-114.5"/>
<text text-anchor="middle" x="326" y="-121.5" font-family="Helvetica,sans-Serif" font-size="10.00">mpi_wtime</text>
</a>
</g>
</g>
<!-- Node2&#45;&gt;Node3 -->
<g id="edge2" class="edge">
<title>Node2&#45;&gt;Node3</title>
<path fill="none" stroke="midnightblue" d="M252.85,-95.59C264.51,-100.18 278.66,-105.75 291.32,-110.74"/>
<polygon fill="midnightblue" stroke="midnightblue" points="290.07,-114.01 300.66,-114.41 292.63,-107.49 290.07,-114.01"/>
</g>
<!-- Node5 -->
<g id="node5" class="node">
<title>Node5</title>
<g id="a_node5"><a xlink:href="comm__mpi_8f.html#acc8803a3787828530843112e0c48941b" target="_top" xlink:title=" ">
<polygon fill="white" stroke="red" points="465,-0.5 465,-19.5 515,-19.5 515,-0.5 465,-0.5"/>
<text text-anchor="middle" x="490" y="-7.5" font-family="Helvetica,sans-Serif" font-size="10.00">nek_die</text>
</a>
</g>
</g>
<!-- Node4&#45;&gt;Node5 -->
<g id="edge4" class="edge">
<title>Node4&#45;&gt;Node5</title>
<path fill="none" stroke="midnightblue" d="M429.1,-10C436.62,-10 445.8,-10 454.69,-10"/>
<polygon fill="midnightblue" stroke="midnightblue" points="454.88,-13.5 464.88,-10 454.88,-6.5 454.88,-13.5"/>
</g>
<!-- Node8 -->
<g id="node7" class="node">
<title>Node8</title>
<g id="a_node7"><a xlink:href="math_8f.html#a0c68692ff686bdf254efd74deff61b72" target="_top" xlink:title=" ">
<polygon fill="white" stroke="black" points="307,-38.5 307,-57.5 345,-57.5 345,-38.5 307,-38.5"/>
<text text-anchor="middle" x="326" y="-45.5" font-family="Helvetica,sans-Serif" font-size="10.00">cadd</text>
</a>
</g>
</g>
<!-- Node7&#45;&gt;Node8 -->
<g id="edge6" class="edge">
<title>Node7&#45;&gt;Node8</title>
<path fill="none" stroke="midnightblue" d="M246.65,-48C260.8,-48 280.71,-48 296.91,-48"/>
<polygon fill="midnightblue" stroke="midnightblue" points="296.93,-51.5 306.93,-48 296.93,-44.5 296.93,-51.5"/>
</g>
<!-- Node9 -->
<g id="node8" class="node">
<title>Node9</title>
<g id="a_node8"><a xlink:href="comm__mpi_8f.html#a59fcf8a02fe54ab37f61050e3ca6b197" target="_top" xlink:title=" ">
<polygon fill="white" stroke="red" points="307,-76.5 307,-95.5 345,-95.5 345,-76.5 307,-76.5"/>
<text text-anchor="middle" x="326" y="-83.5" font-family="Helvetica,sans-Serif" font-size="10.00">exitti</text>
</a>
</g>
</g>
<!-- Node7&#45;&gt;Node9 -->
<g id="edge7" class="edge">
<title>Node7&#45;&gt;Node9</title>
<path fill="none" stroke="midnightblue" d="M246.65,-55.15C260.94,-60.77 281.09,-68.71 297.38,-75.12"/>
<polygon fill="midnightblue" stroke="midnightblue" points="296.34,-78.48 306.93,-78.88 298.91,-71.96 296.34,-78.48"/>
</g>
<!-- Node9&#45;&gt;Node4 -->
<g id="edge8" class="edge">
<title>Node9&#45;&gt;Node4</title>
<path fill="none" stroke="midnightblue" d="M344.63,-76.36C349.16,-73.57 353.9,-70.37 358,-67 372.38,-55.17 386.56,-39.47 396.55,-27.55"/>
<polygon fill="midnightblue" stroke="midnightblue" points="399.4,-29.59 403.03,-19.64 393.98,-25.16 399.4,-29.59"/>
</g>
<!-- Node16&#45;&gt;Node2 -->
<g id="edge10" class="edge">
<title>Node16&#45;&gt;Node2</title>
<path fill="none" stroke="midnightblue" d="M145.34,-56.06C158.62,-60.96 175.88,-67.32 191.06,-72.93"/>
<polygon fill="midnightblue" stroke="midnightblue" points="190.09,-76.3 200.68,-76.48 192.51,-69.73 190.09,-76.3"/>
</g>
<!-- Node16&#45;&gt;Node4 -->
<g id="edge11" class="edge">
<title>Node16&#45;&gt;Node4</title>
<path fill="none" stroke="midnightblue" d="M145.17,-41.4C159.7,-37.22 179.34,-32.05 197,-29 263.51,-17.52 342.94,-12.77 383.6,-10.98"/>
<polygon fill="midnightblue" stroke="midnightblue" points="383.92,-14.47 393.77,-10.55 383.63,-7.47 383.92,-14.47"/>
</g>
<!-- Node16&#45;&gt;Node7 -->
<g id="edge12" class="edge">
<title>Node16&#45;&gt;Node7</title>
<path fill="none" stroke="midnightblue" d="M145.34,-48C160.75,-48 181.52,-48 198.2,-48"/>
<polygon fill="midnightblue" stroke="midnightblue" points="198.46,-51.5 208.46,-48 198.46,-44.5 198.46,-51.5"/>
</g>
<!-- Node399&#45;&gt;Node2 -->
<g id="edge14" class="edge">
<title>Node399&#45;&gt;Node2</title>
<path fill="none" stroke="midnightblue" d="M161.27,-86C169.5,-86 178.24,-86 186.56,-86"/>
<polygon fill="midnightblue" stroke="midnightblue" points="186.8,-89.5 196.8,-86 186.8,-82.5 186.8,-89.5"/>
</g>
<!-- Node399&#45;&gt;Node7 -->
<g id="edge15" class="edge">
<title>Node399&#45;&gt;Node7</title>
<path fill="none" stroke="midnightblue" d="M149.49,-76.41C164.55,-70.86 183.5,-63.86 198.83,-58.21"/>
<polygon fill="midnightblue" stroke="midnightblue" points="200.14,-61.46 208.31,-54.71 197.71,-54.89 200.14,-61.46"/>
</g>
</g>
</svg>
