<?xml version="1.0" encoding="UTF-8" standalone="no"?>
<!DOCTYPE svg PUBLIC "-//W3C//DTD SVG 1.1//EN"
 "http://www.w3.org/Graphics/SVG/1.1/DTD/svg11.dtd">
<!-- Generated by graphviz version 2.46.0 (0)
 -->
<!-- Title: comp_siej Pages: 1 -->
<svg width="333pt" height="180pt"
 viewBox="0.00 0.00 333.00 180.00" xmlns="http://www.w3.org/2000/svg" xmlns:xlink="http://www.w3.org/1999/xlink">
<g id="graph0" class="graph" transform="scale(1 1) rotate(0) translate(4 176)">
<title>comp_siej</title>
<polygon fill="white" stroke="transparent" points="-4,4 -4,-176 329,-176 329,4 -4,4"/>
<!-- Node1 -->
<g id="node1" class="node">
<title>Node1</title>
<g id="a_node1"><a xlink:title=" ">
<polygon fill="#bfbfbf" stroke="black" points="0,-76.5 0,-95.5 61,-95.5 61,-76.5 0,-76.5"/>
<text text-anchor="middle" x="30.5" y="-83.5" font-family="Helvetica,sans-Serif" font-size="10.00">comp_siej</text>
</a>
</g>
</g>
<!-- Node2 -->
<g id="node2" class="node">
<title>Node2</title>
<g id="a_node2"><a xlink:href="subs1_8f.html#ae0cc599056eebdd856f403ca0009375c" target="_top" xlink:title=" ">
<polygon fill="white" stroke="black" points="97,-152.5 97,-171.5 142,-171.5 142,-152.5 97,-152.5"/>
<text text-anchor="middle" x="119.5" y="-159.5" font-family="Helvetica,sans-Serif" font-size="10.00">axiezz</text>
</a>
</g>
</g>
<!-- Node1&#45;&gt;Node2 -->
<g id="edge1" class="edge">
<title>Node1&#45;&gt;Node2</title>
<path fill="none" stroke="midnightblue" d="M42.52,-95.63C56.9,-108.19 82.29,-130.37 99.73,-145.6"/>
<polygon fill="midnightblue" stroke="midnightblue" points="97.74,-148.51 107.57,-152.45 102.34,-143.24 97.74,-148.51"/>
</g>
<!-- Node6 -->
<g id="node5" class="node">
<title>Node6</title>
<g id="a_node5"><a xlink:href="math_8f.html#ad2b51b68d370651f4f6d81952503e7be" target="_top" xlink:title=" ">
<polygon fill="white" stroke="black" points="99,-114.5 99,-133.5 140,-133.5 140,-114.5 99,-114.5"/>
<text text-anchor="middle" x="119.5" y="-121.5" font-family="Helvetica,sans-Serif" font-size="10.00">cmult</text>
</a>
</g>
</g>
<!-- Node1&#45;&gt;Node6 -->
<g id="edge4" class="edge">
<title>Node1&#45;&gt;Node6</title>
<path fill="none" stroke="midnightblue" d="M53.45,-95.59C64.39,-100.36 77.75,-106.2 89.51,-111.34"/>
<polygon fill="midnightblue" stroke="midnightblue" points="88.36,-114.66 98.93,-115.45 91.17,-108.24 88.36,-114.66"/>
</g>
<!-- Node7 -->
<g id="node6" class="node">
<title>Node7</title>
<g id="a_node6"><a xlink:href="math_8f.html#a3470db04166d9ba91454a14cc17dbec2" target="_top" xlink:title=" ">
<polygon fill="white" stroke="black" points="185.5,-76.5 185.5,-95.5 220.5,-95.5 220.5,-76.5 185.5,-76.5"/>
<text text-anchor="middle" x="203" y="-83.5" font-family="Helvetica,sans-Serif" font-size="10.00">col2</text>
</a>
</g>
</g>
<!-- Node1&#45;&gt;Node7 -->
<g id="edge5" class="edge">
<title>Node1&#45;&gt;Node7</title>
<path fill="none" stroke="midnightblue" d="M61.2,-86C93.29,-86 143.98,-86 174.98,-86"/>
<polygon fill="midnightblue" stroke="midnightblue" points="175.07,-89.5 185.07,-86 175.07,-82.5 175.07,-89.5"/>
</g>
<!-- Node8 -->
<g id="node7" class="node">
<title>Node8</title>
<g id="a_node7"><a xlink:href="bdry_8f.html#ad5ba3cc7aa2e469bf6fefd0deaf3517a" target="_top" xlink:title=" ">
<polygon fill="white" stroke="black" points="97.5,-38.5 97.5,-57.5 141.5,-57.5 141.5,-38.5 97.5,-38.5"/>
<text text-anchor="middle" x="119.5" y="-45.5" font-family="Helvetica,sans-Serif" font-size="10.00">rzero3</text>
</a>
</g>
</g>
<!-- Node1&#45;&gt;Node8 -->
<g id="edge7" class="edge">
<title>Node1&#45;&gt;Node8</title>
<path fill="none" stroke="midnightblue" d="M53.45,-76.41C63.99,-71.81 76.79,-66.22 88.24,-61.22"/>
<polygon fill="midnightblue" stroke="midnightblue" points="89.69,-64.4 97.45,-57.19 86.89,-57.99 89.69,-64.4"/>
</g>
<!-- Node9 -->
<g id="node8" class="node">
<title>Node9</title>
<g id="a_node8"><a xlink:href="subs1_8f.html#ad07dd16f55bb8bcb730413f4dab5425d" target="_top" xlink:title=" ">
<polygon fill="white" stroke="black" points="100.5,-0.5 100.5,-19.5 138.5,-19.5 138.5,-0.5 100.5,-0.5"/>
<text text-anchor="middle" x="119.5" y="-7.5" font-family="Helvetica,sans-Serif" font-size="10.00">uxyz</text>
</a>
</g>
</g>
<!-- Node1&#45;&gt;Node9 -->
<g id="edge8" class="edge">
<title>Node1&#45;&gt;Node9</title>
<path fill="none" stroke="midnightblue" d="M42.52,-76.37C56.9,-63.81 82.29,-41.63 99.73,-26.4"/>
<polygon fill="midnightblue" stroke="midnightblue" points="102.34,-28.76 107.57,-19.55 97.74,-23.49 102.34,-28.76"/>
</g>
<!-- Node3 -->
<g id="node3" class="node">
<title>Node3</title>
<g id="a_node3"><a xlink:href="math_8f.html#ae862caef2bdf5a2cb039a725f5450db0" target="_top" xlink:title=" ">
<polygon fill="white" stroke="black" points="179.5,-133.5 179.5,-152.5 226.5,-152.5 226.5,-133.5 179.5,-133.5"/>
<text text-anchor="middle" x="203" y="-140.5" font-family="Helvetica,sans-Serif" font-size="10.00">invcol3</text>
</a>
</g>
</g>
<!-- Node2&#45;&gt;Node3 -->
<g id="edge2" class="edge">
<title>Node2&#45;&gt;Node3</title>
<path fill="none" stroke="midnightblue" d="M142.34,-156.91C150.63,-154.98 160.26,-152.73 169.34,-150.61"/>
<polygon fill="midnightblue" stroke="midnightblue" points="170.3,-153.98 179.25,-148.3 168.71,-147.17 170.3,-153.98"/>
</g>
<!-- Node4 -->
<g id="node4" class="node">
<title>Node4</title>
<g id="a_node4"><a xlink:href="comm__mpi_8f.html#af06ec29f06aac3f8809e19de2a7e8946" target="_top" xlink:title=" ">
<polygon fill="white" stroke="red" points="264,-76.5 264,-95.5 325,-95.5 325,-76.5 264,-76.5"/>
<text text-anchor="middle" x="294.5" y="-83.5" font-family="Helvetica,sans-Serif" font-size="10.00">dnekclock</text>
</a>
</g>
</g>
<!-- Node3&#45;&gt;Node4 -->
<g id="edge3" class="edge">
<title>Node3&#45;&gt;Node4</title>
<path fill="none" stroke="midnightblue" d="M219.18,-133.33C233.02,-124.52 253.7,-111.35 269.73,-101.14"/>
<polygon fill="midnightblue" stroke="midnightblue" points="271.99,-103.85 278.54,-95.53 268.23,-97.95 271.99,-103.85"/>
</g>
<!-- Node7&#45;&gt;Node4 -->
<g id="edge6" class="edge">
<title>Node7&#45;&gt;Node4</title>
<path fill="none" stroke="midnightblue" d="M220.83,-86C230.06,-86 241.92,-86 253.38,-86"/>
<polygon fill="midnightblue" stroke="midnightblue" points="253.7,-89.5 263.7,-86 253.7,-82.5 253.7,-89.5"/>
</g>
<!-- Node10 -->
<g id="node9" class="node">
<title>Node10</title>
<g id="a_node9"><a xlink:href="math_8f.html#a1f336314da3012286837ede20a0495c6" target="_top" xlink:title=" ">
<polygon fill="white" stroke="black" points="178,-38.5 178,-57.5 228,-57.5 228,-38.5 178,-38.5"/>
<text text-anchor="middle" x="203" y="-45.5" font-family="Helvetica,sans-Serif" font-size="10.00">addcol3</text>
</a>
</g>
</g>
<!-- Node9&#45;&gt;Node10 -->
<g id="edge9" class="edge">
<title>Node9&#45;&gt;Node10</title>
<path fill="none" stroke="midnightblue" d="M138.59,-18.43C148.48,-23.05 160.98,-28.88 172.27,-34.14"/>
<polygon fill="midnightblue" stroke="midnightblue" points="170.84,-37.33 181.38,-38.38 173.79,-30.99 170.84,-37.33"/>
</g>
<!-- Node11 -->
<g id="node10" class="node">
<title>Node11</title>
<g id="a_node10"><a xlink:href="subs1_8f.html#afc60c4d0a0e2a2a65de26a48a2bdb5f1" target="_top" xlink:title=" ">
<polygon fill="white" stroke="red" points="186.5,-0.5 186.5,-19.5 219.5,-19.5 219.5,-0.5 186.5,-0.5"/>
<text text-anchor="middle" x="203" y="-7.5" font-family="Helvetica,sans-Serif" font-size="10.00">urst</text>
</a>
</g>
</g>
<!-- Node9&#45;&gt;Node11 -->
<g id="edge11" class="edge">
<title>Node9&#45;&gt;Node11</title>
<path fill="none" stroke="midnightblue" d="M138.59,-10C149.69,-10 164.07,-10 176.34,-10"/>
<polygon fill="midnightblue" stroke="midnightblue" points="176.43,-13.5 186.43,-10 176.43,-6.5 176.43,-13.5"/>
</g>
<!-- Node10&#45;&gt;Node4 -->
<g id="edge10" class="edge">
<title>Node10&#45;&gt;Node4</title>
<path fill="none" stroke="midnightblue" d="M226.58,-57.59C237.18,-62.09 250,-67.53 261.57,-72.44"/>
<polygon fill="midnightblue" stroke="midnightblue" points="260.35,-75.73 270.92,-76.41 263.09,-69.28 260.35,-75.73"/>
</g>
</g>
</svg>
