<?xml version="1.0" encoding="UTF-8" standalone="no"?>
<!DOCTYPE svg PUBLIC "-//W3C//DTD SVG 1.1//EN"
 "http://www.w3.org/Graphics/SVG/1.1/DTD/svg11.dtd">
<!-- Generated by graphviz version 2.46.0 (0)
 -->
<!-- Title: gen_dgll Pages: 1 -->
<svg width="338pt" height="142pt"
 viewBox="0.00 0.00 338.00 142.00" xmlns="http://www.w3.org/2000/svg" xmlns:xlink="http://www.w3.org/1999/xlink">
<g id="graph0" class="graph" transform="scale(1 1) rotate(0) translate(4 138)">
<title>gen_dgll</title>
<polygon fill="white" stroke="transparent" points="-4,4 -4,-138 334,-138 334,4 -4,4"/>
<!-- Node1 -->
<g id="node1" class="node">
<title>Node1</title>
<g id="a_node1"><a xlink:title=" ">
<polygon fill="#bfbfbf" stroke="black" points="0,-57.5 0,-76.5 53,-76.5 53,-57.5 0,-57.5"/>
<text text-anchor="middle" x="26.5" y="-64.5" font-family="Helvetica,sans-Serif" font-size="10.00">gen_dgll</text>
</a>
</g>
</g>
<!-- Node2 -->
<g id="node2" class="node">
<title>Node2</title>
<g id="a_node2"><a xlink:href="fast3d_8f.html#ad007f6eca12b1b9307f46e56bcc40a59" target="_top" xlink:title=" ">
<polygon fill="white" stroke="black" points="89,-114.5 89,-133.5 171,-133.5 171,-114.5 89,-114.5"/>
<text text-anchor="middle" x="130" y="-121.5" font-family="Helvetica,sans-Serif" font-size="10.00">fd_weights_full</text>
</a>
</g>
</g>
<!-- Node1&#45;&gt;Node2 -->
<g id="edge1" class="edge">
<title>Node1&#45;&gt;Node2</title>
<path fill="none" stroke="midnightblue" d="M41.9,-76.52C54.19,-84.5 72.46,-96 89,-105 92.06,-106.67 95.3,-108.34 98.55,-109.97"/>
<polygon fill="midnightblue" stroke="midnightblue" points="97.08,-113.15 107.61,-114.37 100.14,-106.85 97.08,-113.15"/>
</g>
<!-- Node3 -->
<g id="node3" class="node">
<title>Node3</title>
<g id="a_node3"><a xlink:href="convect_8f.html#aef5d48d354e9e03de35748eecb7e42f9" target="_top" xlink:title=" ">
<polygon fill="white" stroke="black" points="105,-76.5 105,-95.5 155,-95.5 155,-76.5 105,-76.5"/>
<text text-anchor="middle" x="130" y="-83.5" font-family="Helvetica,sans-Serif" font-size="10.00">lim_chk</text>
</a>
</g>
</g>
<!-- Node1&#45;&gt;Node3 -->
<g id="edge2" class="edge">
<title>Node1&#45;&gt;Node3</title>
<path fill="none" stroke="midnightblue" d="M53.11,-71.79C65.75,-74.16 81.17,-77.05 94.79,-79.6"/>
<polygon fill="midnightblue" stroke="midnightblue" points="94.32,-83.07 104.79,-81.47 95.61,-76.19 94.32,-83.07"/>
</g>
<!-- Node11 -->
<g id="node8" class="node">
<title>Node11</title>
<g id="a_node8"><a xlink:href="math_8f.html#a17c0ecae12cc5c6096939885da90ad2b" target="_top" xlink:title=" ">
<polygon fill="white" stroke="black" points="100.5,-38.5 100.5,-57.5 159.5,-57.5 159.5,-38.5 100.5,-38.5"/>
<text text-anchor="middle" x="130" y="-45.5" font-family="Helvetica,sans-Serif" font-size="10.00">transpose</text>
</a>
</g>
</g>
<!-- Node1&#45;&gt;Node11 -->
<g id="edge7" class="edge">
<title>Node1&#45;&gt;Node11</title>
<path fill="none" stroke="midnightblue" d="M53.11,-62.21C64.31,-60.11 77.69,-57.61 90.07,-55.29"/>
<polygon fill="midnightblue" stroke="midnightblue" points="90.98,-58.68 100.17,-53.4 89.7,-51.8 90.98,-58.68"/>
</g>
<!-- Node12 -->
<g id="node9" class="node">
<title>Node12</title>
<g id="a_node9"><a xlink:href="speclib_8f.html#a3788ff93193b0428aad51e76c6ed2e18" target="_top" xlink:title=" ">
<polygon fill="white" stroke="black" points="110.5,-0.5 110.5,-19.5 149.5,-19.5 149.5,-0.5 110.5,-0.5"/>
<text text-anchor="middle" x="130" y="-7.5" font-family="Helvetica,sans-Serif" font-size="10.00">zwgll</text>
</a>
</g>
</g>
<!-- Node1&#45;&gt;Node12 -->
<g id="edge8" class="edge">
<title>Node1&#45;&gt;Node12</title>
<path fill="none" stroke="midnightblue" d="M41.9,-57.48C54.19,-49.5 72.46,-38 89,-29 92.87,-26.89 97.02,-24.77 101.12,-22.76"/>
<polygon fill="midnightblue" stroke="midnightblue" points="102.96,-25.76 110.47,-18.28 99.94,-19.44 102.96,-25.76"/>
</g>
<!-- Node4 -->
<g id="node4" class="node">
<title>Node4</title>
<g id="a_node4"><a xlink:href="comm__mpi_8f.html#a59fcf8a02fe54ab37f61050e3ca6b197" target="_top" xlink:title=" ">
<polygon fill="white" stroke="red" points="207.5,-73.5 207.5,-92.5 245.5,-92.5 245.5,-73.5 207.5,-73.5"/>
<text text-anchor="middle" x="226.5" y="-80.5" font-family="Helvetica,sans-Serif" font-size="10.00">exitti</text>
</a>
</g>
</g>
<!-- Node3&#45;&gt;Node4 -->
<g id="edge3" class="edge">
<title>Node3&#45;&gt;Node4</title>
<path fill="none" stroke="midnightblue" d="M155.34,-85.23C168.11,-84.82 183.83,-84.32 197.15,-83.9"/>
<polygon fill="midnightblue" stroke="midnightblue" points="197.33,-87.4 207.22,-83.58 197.11,-80.4 197.33,-87.4"/>
</g>
<!-- Node5 -->
<g id="node5" class="node">
<title>Node5</title>
<g id="a_node5"><a xlink:href="math_8f.html#a692155d1d2ec380a9fdb2d81ef221625" target="_top" xlink:title=" ">
<polygon fill="white" stroke="black" points="286,-109.5 286,-128.5 326,-128.5 326,-109.5 286,-109.5"/>
<text text-anchor="middle" x="306" y="-116.5" font-family="Helvetica,sans-Serif" font-size="10.00">blank</text>
</a>
</g>
</g>
<!-- Node4&#45;&gt;Node5 -->
<g id="edge4" class="edge">
<title>Node4&#45;&gt;Node5</title>
<path fill="none" stroke="midnightblue" d="M245.87,-91.53C255.12,-95.83 266.54,-101.13 276.87,-105.93"/>
<polygon fill="midnightblue" stroke="midnightblue" points="275.41,-109.12 285.96,-110.15 278.36,-102.77 275.41,-109.12"/>
</g>
<!-- Node6 -->
<g id="node6" class="node">
<title>Node6</title>
<g id="a_node6"><a xlink:href="math_8f.html#ad7fb480cea001849621405f37167aab1" target="_top" xlink:title=" ">
<polygon fill="white" stroke="black" points="282,-71.5 282,-90.5 330,-90.5 330,-71.5 282,-71.5"/>
<text text-anchor="middle" x="306" y="-78.5" font-family="Helvetica,sans-Serif" font-size="10.00">chcopy</text>
</a>
</g>
</g>
<!-- Node4&#45;&gt;Node6 -->
<g id="edge5" class="edge">
<title>Node4&#45;&gt;Node6</title>
<path fill="none" stroke="midnightblue" d="M245.87,-82.53C253.59,-82.33 262.82,-82.09 271.67,-81.86"/>
<polygon fill="midnightblue" stroke="midnightblue" points="271.85,-85.36 281.76,-81.6 271.67,-78.36 271.85,-85.36"/>
</g>
<!-- Node7 -->
<g id="node7" class="node">
<title>Node7</title>
<g id="a_node7"><a xlink:href="byte_8c.html#a2da8eeb074dfd3ffbfb3e9a4d301cda4" target="_top" xlink:title=" ">
<polygon fill="white" stroke="red" points="288.5,-28.5 288.5,-47.5 323.5,-47.5 323.5,-28.5 288.5,-28.5"/>
<text text-anchor="middle" x="306" y="-35.5" font-family="Helvetica,sans-Serif" font-size="10.00">exitt</text>
</a>
</g>
</g>
<!-- Node4&#45;&gt;Node7 -->
<g id="edge6" class="edge">
<title>Node4&#45;&gt;Node7</title>
<path fill="none" stroke="midnightblue" d="M243.94,-73.46C254.31,-67.43 267.93,-59.52 279.67,-52.71"/>
<polygon fill="midnightblue" stroke="midnightblue" points="281.7,-55.58 288.59,-47.53 278.18,-49.52 281.7,-55.58"/>
</g>
<!-- Node13 -->
<g id="node10" class="node">
<title>Node13</title>
<g id="a_node10"><a xlink:href="speclib_8f.html#a0a1a17375323b7ab32d6ebe1c52ab1c3" target="_top" xlink:title=" ">
<polygon fill="white" stroke="red" points="207,-19.5 207,-38.5 246,-38.5 246,-19.5 207,-19.5"/>
<text text-anchor="middle" x="226.5" y="-26.5" font-family="Helvetica,sans-Serif" font-size="10.00">zwglj</text>
</a>
</g>
</g>
<!-- Node12&#45;&gt;Node13 -->
<g id="edge9" class="edge">
<title>Node12&#45;&gt;Node13</title>
<path fill="none" stroke="midnightblue" d="M149.67,-13.75C163.13,-16.46 181.55,-20.16 196.86,-23.24"/>
<polygon fill="midnightblue" stroke="midnightblue" points="196.37,-26.71 206.87,-25.25 197.75,-19.85 196.37,-26.71"/>
</g>
<!-- Node13&#45;&gt;Node7 -->
<g id="edge10" class="edge">
<title>Node13&#45;&gt;Node7</title>
<path fill="none" stroke="midnightblue" d="M246.26,-31.18C255.87,-32.29 267.74,-33.67 278.28,-34.9"/>
<polygon fill="midnightblue" stroke="midnightblue" points="277.92,-38.38 288.26,-36.06 278.73,-31.43 277.92,-38.38"/>
</g>
</g>
</svg>
