<?xml version="1.0" encoding="UTF-8" standalone="no"?>
<!DOCTYPE svg PUBLIC "-//W3C//DTD SVG 1.1//EN"
 "http://www.w3.org/Graphics/SVG/1.1/DTD/svg11.dtd">
<!-- Generated by graphviz version 2.46.0 (0)
 -->
<!-- Title: p_outvec_ir Pages: 1 -->
<svg width="262pt" height="256pt"
 viewBox="0.00 0.00 262.00 256.00" xmlns="http://www.w3.org/2000/svg" xmlns:xlink="http://www.w3.org/1999/xlink">
<g id="graph0" class="graph" transform="scale(1 1) rotate(0) translate(4 252)">
<title>p_outvec_ir</title>
<polygon fill="white" stroke="transparent" points="-4,4 -4,-252 258,-252 258,4 -4,4"/>
<!-- Node1 -->
<g id="node1" class="node">
<title>Node1</title>
<g id="a_node1"><a xlink:title=" ">
<polygon fill="#bfbfbf" stroke="black" points="0,-114.5 0,-133.5 67,-133.5 67,-114.5 0,-114.5"/>
<text text-anchor="middle" x="33.5" y="-121.5" font-family="Helvetica,sans-Serif" font-size="10.00">p_outvec_ir</text>
</a>
</g>
</g>
<!-- Node2 -->
<g id="node2" class="node">
<title>Node2</title>
<g id="a_node2"><a xlink:href="math_8f.html#a3b43508554f14bdea8e14473d7d0803c" target="_top" xlink:title=" ">
<polygon fill="white" stroke="black" points="113.5,-228.5 113.5,-247.5 151.5,-247.5 151.5,-228.5 113.5,-228.5"/>
<text text-anchor="middle" x="132.5" y="-235.5" font-family="Helvetica,sans-Serif" font-size="10.00">copy</text>
</a>
</g>
</g>
<!-- Node1&#45;&gt;Node2 -->
<g id="edge1" class="edge">
<title>Node1&#45;&gt;Node2</title>
<path fill="none" stroke="midnightblue" d="M39.93,-133.76C50.41,-152.02 74.89,-191.91 103,-219 104.24,-220.19 105.56,-221.36 106.93,-222.48"/>
<polygon fill="midnightblue" stroke="midnightblue" points="104.94,-225.37 115.06,-228.49 109.09,-219.74 104.94,-225.37"/>
</g>
<!-- Node3 -->
<g id="node3" class="node">
<title>Node3</title>
<g id="a_node3"><a xlink:href="comm__mpi_8f.html#a0af9bbba11023702ef8c8dac4dd80677" target="_top" xlink:title=" ">
<polygon fill="white" stroke="black" points="109.5,-190.5 109.5,-209.5 155.5,-209.5 155.5,-190.5 109.5,-190.5"/>
<text text-anchor="middle" x="132.5" y="-197.5" font-family="Helvetica,sans-Serif" font-size="10.00">crecv2</text>
</a>
</g>
</g>
<!-- Node1&#45;&gt;Node3 -->
<g id="edge2" class="edge">
<title>Node1&#45;&gt;Node3</title>
<path fill="none" stroke="midnightblue" d="M45.36,-133.65C58.63,-145.3 81.92,-165.27 103,-181 104.61,-182.2 106.29,-183.41 107.99,-184.62"/>
<polygon fill="midnightblue" stroke="midnightblue" points="106.27,-187.68 116.5,-190.43 110.22,-181.9 106.27,-187.68"/>
</g>
<!-- Node8 -->
<g id="node6" class="node">
<title>Node8</title>
<g id="a_node6"><a xlink:href="comm__mpi_8f.html#abd95004b45059acdcc13614c52e60eae" target="_top" xlink:title=" ">
<polygon fill="white" stroke="red" points="111,-152.5 111,-171.5 154,-171.5 154,-152.5 111,-152.5"/>
<text text-anchor="middle" x="132.5" y="-159.5" font-family="Helvetica,sans-Serif" font-size="10.00">csend</text>
</a>
</g>
</g>
<!-- Node1&#45;&gt;Node8 -->
<g id="edge5" class="edge">
<title>Node1&#45;&gt;Node8</title>
<path fill="none" stroke="midnightblue" d="M58.98,-133.59C71.89,-138.65 87.85,-144.9 101.51,-150.25"/>
<polygon fill="midnightblue" stroke="midnightblue" points="100.38,-153.57 110.97,-153.96 102.93,-147.05 100.38,-153.57"/>
</g>
<!-- Node10 -->
<g id="node7" class="node">
<title>Node10</title>
<g id="a_node7"><a xlink:href="dprocmap_8f.html#a90fd349db1c16c4cb8108485b3c200e0" target="_top" xlink:title=" ">
<polygon fill="white" stroke="red" points="115.5,-114.5 115.5,-133.5 149.5,-133.5 149.5,-114.5 115.5,-114.5"/>
<text text-anchor="middle" x="132.5" y="-121.5" font-family="Helvetica,sans-Serif" font-size="10.00">gllel</text>
</a>
</g>
</g>
<!-- Node1&#45;&gt;Node10 -->
<g id="edge6" class="edge">
<title>Node1&#45;&gt;Node10</title>
<path fill="none" stroke="midnightblue" d="M67.07,-124C79.54,-124 93.6,-124 105.39,-124"/>
<polygon fill="midnightblue" stroke="midnightblue" points="105.47,-127.5 115.47,-124 105.47,-120.5 105.47,-127.5"/>
</g>
<!-- Node20 -->
<g id="node8" class="node">
<title>Node20</title>
<g id="a_node8"><a xlink:href="dprocmap_8f.html#aa8f8117aad966b2c1f877b334d9d407b" target="_top" xlink:title=" ">
<polygon fill="white" stroke="red" points="113,-76.5 113,-95.5 152,-95.5 152,-76.5 113,-76.5"/>
<text text-anchor="middle" x="132.5" y="-83.5" font-family="Helvetica,sans-Serif" font-size="10.00">gllnid</text>
</a>
</g>
</g>
<!-- Node1&#45;&gt;Node20 -->
<g id="edge7" class="edge">
<title>Node1&#45;&gt;Node20</title>
<path fill="none" stroke="midnightblue" d="M58.98,-114.41C72.44,-109.14 89.2,-102.57 103.21,-97.08"/>
<polygon fill="midnightblue" stroke="midnightblue" points="104.81,-100.21 112.85,-93.31 102.26,-93.7 104.81,-100.21"/>
</g>
<!-- Node17 -->
<g id="node9" class="node">
<title>Node17</title>
<g id="a_node9"><a xlink:href="math_8f.html#a1e85d2406444243269f0d85c61a02dce" target="_top" xlink:title=" ">
<polygon fill="white" stroke="black" points="112.5,-38.5 112.5,-57.5 152.5,-57.5 152.5,-38.5 112.5,-38.5"/>
<text text-anchor="middle" x="132.5" y="-45.5" font-family="Helvetica,sans-Serif" font-size="10.00">icopy</text>
</a>
</g>
</g>
<!-- Node1&#45;&gt;Node17 -->
<g id="edge8" class="edge">
<title>Node1&#45;&gt;Node17</title>
<path fill="none" stroke="midnightblue" d="M45.36,-114.35C58.63,-102.7 81.92,-82.73 103,-67 104.61,-65.8 106.29,-64.59 107.99,-63.38"/>
<polygon fill="midnightblue" stroke="midnightblue" points="110.22,-66.1 116.5,-57.57 106.27,-60.32 110.22,-66.1"/>
</g>
<!-- Node21 -->
<g id="node10" class="node">
<title>Node21</title>
<g id="a_node10"><a xlink:href="comm__mpi_8f.html#a4acb4d8e379294232e9219bec063d8f3" target="_top" xlink:title=" ">
<polygon fill="white" stroke="red" points="103,-0.5 103,-19.5 162,-19.5 162,-0.5 103,-0.5"/>
<text text-anchor="middle" x="132.5" y="-7.5" font-family="Helvetica,sans-Serif" font-size="10.00">nekgsync</text>
</a>
</g>
</g>
<!-- Node1&#45;&gt;Node21 -->
<g id="edge9" class="edge">
<title>Node1&#45;&gt;Node21</title>
<path fill="none" stroke="midnightblue" d="M39.93,-114.24C50.41,-95.98 74.89,-56.09 103,-29 104.24,-27.81 105.56,-26.64 106.93,-25.52"/>
<polygon fill="midnightblue" stroke="midnightblue" points="109.09,-28.26 115.06,-19.51 104.94,-22.63 109.09,-28.26"/>
</g>
<!-- Node4 -->
<g id="node4" class="node">
<title>Node4</title>
<g id="a_node4"><a xlink:href="byte_8c.html#a2da8eeb074dfd3ffbfb3e9a4d301cda4" target="_top" xlink:title=" ">
<polygon fill="white" stroke="red" points="208.5,-209.5 208.5,-228.5 243.5,-228.5 243.5,-209.5 208.5,-209.5"/>
<text text-anchor="middle" x="226" y="-216.5" font-family="Helvetica,sans-Serif" font-size="10.00">exitt</text>
</a>
</g>
</g>
<!-- Node3&#45;&gt;Node4 -->
<g id="edge3" class="edge">
<title>Node3&#45;&gt;Node4</title>
<path fill="none" stroke="midnightblue" d="M155.65,-204.6C168.42,-207.25 184.57,-210.6 198.07,-213.41"/>
<polygon fill="midnightblue" stroke="midnightblue" points="197.71,-216.91 208.21,-215.51 199.13,-210.05 197.71,-216.91"/>
</g>
<!-- Node7 -->
<g id="node5" class="node">
<title>Node7</title>
<g id="a_node5"><a xlink:href="mpi__dummy_8f.html#a709ef20e522dddac7afb17999141cfd4" target="_top" xlink:title=" ">
<polygon fill="white" stroke="black" points="198,-171.5 198,-190.5 254,-190.5 254,-171.5 198,-171.5"/>
<text text-anchor="middle" x="226" y="-178.5" font-family="Helvetica,sans-Serif" font-size="10.00">mpi_recv</text>
</a>
</g>
</g>
<!-- Node3&#45;&gt;Node7 -->
<g id="edge4" class="edge">
<title>Node3&#45;&gt;Node7</title>
<path fill="none" stroke="midnightblue" d="M155.65,-195.4C165.37,-193.38 177.04,-190.96 188.02,-188.68"/>
<polygon fill="midnightblue" stroke="midnightblue" points="188.75,-192.1 197.83,-186.64 187.32,-185.25 188.75,-192.1"/>
</g>
</g>
</svg>
