<?xml version="1.0" encoding="UTF-8" standalone="no"?>
<!DOCTYPE svg PUBLIC "-//W3C//DTD SVG 1.1//EN"
 "http://www.w3.org/Graphics/SVG/1.1/DTD/svg11.dtd">
<!-- Generated by graphviz version 2.46.0 (0)
 -->
<!-- Title: nekuf Pages: 1 -->
<svg width="373pt" height="142pt"
 viewBox="0.00 0.00 373.00 142.00" xmlns="http://www.w3.org/2000/svg" xmlns:xlink="http://www.w3.org/1999/xlink">
<g id="graph0" class="graph" transform="scale(1 1) rotate(0) translate(4 138)">
<title>nekuf</title>
<polygon fill="white" stroke="transparent" points="-4,4 -4,-138 369,-138 369,4 -4,4"/>
<!-- Node1 -->
<g id="node1" class="node">
<title>Node1</title>
<g id="a_node1"><a xlink:title=" ">
<polygon fill="#bfbfbf" stroke="black" points="0,-57.5 0,-76.5 41,-76.5 41,-57.5 0,-57.5"/>
<text text-anchor="middle" x="20.5" y="-64.5" font-family="Helvetica,sans-Serif" font-size="10.00">nekuf</text>
</a>
</g>
</g>
<!-- Node2 -->
<g id="node2" class="node">
<title>Node2</title>
<g id="a_node2"><a xlink:href="comm__mpi_8f.html#af06ec29f06aac3f8809e19de2a7e8946" target="_top" xlink:title=" ">
<polygon fill="white" stroke="black" points="90,-114.5 90,-133.5 151,-133.5 151,-114.5 90,-114.5"/>
<text text-anchor="middle" x="120.5" y="-121.5" font-family="Helvetica,sans-Serif" font-size="10.00">dnekclock</text>
</a>
</g>
</g>
<!-- Node1&#45;&gt;Node2 -->
<g id="edge1" class="edge">
<title>Node1&#45;&gt;Node2</title>
<path fill="none" stroke="midnightblue" d="M34.3,-76.75C45.29,-84.87 61.72,-96.44 77,-105 80.22,-106.8 83.65,-108.57 87.1,-110.25"/>
<polygon fill="midnightblue" stroke="midnightblue" points="85.65,-113.44 96.19,-114.48 88.6,-107.09 85.65,-113.44"/>
</g>
<!-- Node4 -->
<g id="node4" class="node">
<title>Node4</title>
<g id="a_node4"><a xlink:href="comm__mpi_8f.html#af434902df36175d2afdc00fbabc84b2c" target="_top" xlink:title=" ">
<polygon fill="white" stroke="black" points="77,-76.5 77,-95.5 164,-95.5 164,-76.5 77,-76.5"/>
<text text-anchor="middle" x="120.5" y="-83.5" font-family="Helvetica,sans-Serif" font-size="10.00">dnekclock_sync</text>
</a>
</g>
</g>
<!-- Node1&#45;&gt;Node4 -->
<g id="edge3" class="edge">
<title>Node1&#45;&gt;Node4</title>
<path fill="none" stroke="midnightblue" d="M41.33,-70.84C48.81,-72.29 57.71,-74.02 66.78,-75.78"/>
<polygon fill="midnightblue" stroke="midnightblue" points="66.14,-79.22 76.63,-77.69 67.48,-72.35 66.14,-79.22"/>
</g>
<!-- Node7 -->
<g id="node7" class="node">
<title>Node7</title>
<g id="a_node7"><a xlink:href="bdry_8f.html#acf4812f4cbef3ae2e11e539feacc97d6" target="_top" xlink:title=" ">
<polygon fill="white" stroke="black" points="94,-38.5 94,-57.5 147,-57.5 147,-38.5 94,-38.5"/>
<text text-anchor="middle" x="120.5" y="-45.5" font-family="Helvetica,sans-Serif" font-size="10.00">nekasgn</text>
</a>
</g>
</g>
<!-- Node1&#45;&gt;Node7 -->
<g id="edge7" class="edge">
<title>Node1&#45;&gt;Node7</title>
<path fill="none" stroke="midnightblue" d="M41.33,-63.16C53.48,-60.8 69.4,-57.71 83.69,-54.94"/>
<polygon fill="midnightblue" stroke="midnightblue" points="84.59,-58.33 93.74,-52.99 83.26,-51.46 84.59,-58.33"/>
</g>
<!-- Node8 -->
<g id="node8" class="node">
<title>Node8</title>
<g id="a_node8"><a xlink:href="navier1_8f.html#af6a98f46c53619f885acfdb9ad705de9" target="_top" xlink:title=" ">
<polygon fill="white" stroke="black" points="96,-0.5 96,-19.5 145,-19.5 145,-0.5 96,-0.5"/>
<text text-anchor="middle" x="120.5" y="-7.5" font-family="Helvetica,sans-Serif" font-size="10.00">oprzero</text>
</a>
</g>
</g>
<!-- Node1&#45;&gt;Node8 -->
<g id="edge8" class="edge">
<title>Node1&#45;&gt;Node8</title>
<path fill="none" stroke="midnightblue" d="M34.3,-57.25C45.29,-49.13 61.72,-37.56 77,-29 80.22,-27.2 83.65,-25.43 87.1,-23.75"/>
<polygon fill="midnightblue" stroke="midnightblue" points="88.6,-26.91 96.19,-19.52 85.65,-20.56 88.6,-26.91"/>
</g>
<!-- Node3 -->
<g id="node3" class="node">
<title>Node3</title>
<g id="a_node3"><a xlink:href="mpi__dummy_8f.html#ae6a5ef945f87c2c27849696b70f3af2a" target="_top" xlink:title=" ">
<polygon fill="white" stroke="black" points="200,-114.5 200,-133.5 264,-133.5 264,-114.5 200,-114.5"/>
<text text-anchor="middle" x="232" y="-121.5" font-family="Helvetica,sans-Serif" font-size="10.00">mpi_wtime</text>
</a>
</g>
</g>
<!-- Node2&#45;&gt;Node3 -->
<g id="edge2" class="edge">
<title>Node2&#45;&gt;Node3</title>
<path fill="none" stroke="midnightblue" d="M151.13,-124C163.03,-124 176.94,-124 189.79,-124"/>
<polygon fill="midnightblue" stroke="midnightblue" points="189.81,-127.5 199.81,-124 189.81,-120.5 189.81,-127.5"/>
</g>
<!-- Node4&#45;&gt;Node3 -->
<g id="edge4" class="edge">
<title>Node4&#45;&gt;Node3</title>
<path fill="none" stroke="midnightblue" d="M149.13,-95.59C162.62,-100.27 179.04,-105.97 193.63,-111.03"/>
<polygon fill="midnightblue" stroke="midnightblue" points="192.78,-114.44 203.38,-114.41 195.08,-107.83 192.78,-114.44"/>
</g>
<!-- Node5 -->
<g id="node5" class="node">
<title>Node5</title>
<g id="a_node5"><a xlink:href="comm__mpi_8f.html#a4acb4d8e379294232e9219bec063d8f3" target="_top" xlink:title=" ">
<polygon fill="white" stroke="black" points="202.5,-76.5 202.5,-95.5 261.5,-95.5 261.5,-76.5 202.5,-76.5"/>
<text text-anchor="middle" x="232" y="-83.5" font-family="Helvetica,sans-Serif" font-size="10.00">nekgsync</text>
</a>
</g>
</g>
<!-- Node4&#45;&gt;Node5 -->
<g id="edge5" class="edge">
<title>Node4&#45;&gt;Node5</title>
<path fill="none" stroke="midnightblue" d="M164.15,-86C173.49,-86 183.32,-86 192.48,-86"/>
<polygon fill="midnightblue" stroke="midnightblue" points="192.48,-89.5 202.48,-86 192.48,-82.5 192.48,-89.5"/>
</g>
<!-- Node6 -->
<g id="node6" class="node">
<title>Node6</title>
<g id="a_node6"><a xlink:href="mpi__dummy_8f.html#a070afe564196eb48413dbf1a9fbc99aa" target="_top" xlink:title=" ">
<polygon fill="white" stroke="black" points="300,-76.5 300,-95.5 365,-95.5 365,-76.5 300,-76.5"/>
<text text-anchor="middle" x="332.5" y="-83.5" font-family="Helvetica,sans-Serif" font-size="10.00">mpi_barrier</text>
</a>
</g>
</g>
<!-- Node5&#45;&gt;Node6 -->
<g id="edge6" class="edge">
<title>Node5&#45;&gt;Node6</title>
<path fill="none" stroke="midnightblue" d="M261.76,-86C270.51,-86 280.32,-86 289.76,-86"/>
<polygon fill="midnightblue" stroke="midnightblue" points="289.78,-89.5 299.78,-86 289.78,-82.5 289.78,-89.5"/>
</g>
<!-- Node9 -->
<g id="node9" class="node">
<title>Node9</title>
<g id="a_node9"><a xlink:href="math_8f.html#af44de42b023a4a68cd98ea341204342d" target="_top" xlink:title=" ">
<polygon fill="white" stroke="black" points="213,-0.5 213,-19.5 251,-19.5 251,-0.5 213,-0.5"/>
<text text-anchor="middle" x="232" y="-7.5" font-family="Helvetica,sans-Serif" font-size="10.00">rzero</text>
</a>
</g>
</g>
<!-- Node8&#45;&gt;Node9 -->
<g id="edge9" class="edge">
<title>Node8&#45;&gt;Node9</title>
<path fill="none" stroke="midnightblue" d="M145.26,-10C162.11,-10 184.8,-10 202.61,-10"/>
<polygon fill="midnightblue" stroke="midnightblue" points="202.71,-13.5 212.71,-10 202.71,-6.5 202.71,-13.5"/>
</g>
</g>
</svg>
