<?xml version="1.0" encoding="UTF-8" standalone="no"?>
<!DOCTYPE svg PUBLIC "-//W3C//DTD SVG 1.1//EN"
 "http://www.w3.org/Graphics/SVG/1.1/DTD/svg11.dtd">
<!-- Generated by graphviz version 2.46.0 (0)
 -->
<!-- Title: in_situ_init Pages: 1 -->
<svg width="303pt" height="104pt"
 viewBox="0.00 0.00 303.00 104.00" xmlns="http://www.w3.org/2000/svg" xmlns:xlink="http://www.w3.org/1999/xlink">
<g id="graph0" class="graph" transform="scale(1 1) rotate(0) translate(4 100)">
<title>in_situ_init</title>
<polygon fill="white" stroke="transparent" points="-4,4 -4,-100 299,-100 299,4 -4,4"/>
<!-- Node1 -->
<g id="node1" class="node">
<title>Node1</title>
<g id="a_node1"><a xlink:title=" ">
<polygon fill="#bfbfbf" stroke="black" points="0,-38.5 0,-57.5 63,-57.5 63,-38.5 0,-38.5"/>
<text text-anchor="middle" x="31.5" y="-45.5" font-family="Helvetica,sans-Serif" font-size="10.00">in_situ_init</text>
</a>
</g>
</g>
<!-- Node2 -->
<g id="node2" class="node">
<title>Node2</title>
<g id="a_node2"><a xlink:href="visit_8f.html#af13f954f4053cd7d857a77b8bb2a360f" target="_top" xlink:title=" ">
<polygon fill="white" stroke="black" points="99,-38.5 99,-57.5 152,-57.5 152,-38.5 99,-38.5"/>
<text text-anchor="middle" x="125.5" y="-45.5" font-family="Helvetica,sans-Serif" font-size="10.00">visit_init</text>
</a>
</g>
</g>
<!-- Node1&#45;&gt;Node2 -->
<g id="edge1" class="edge">
<title>Node1&#45;&gt;Node2</title>
<path fill="none" stroke="midnightblue" d="M63.13,-48C71.38,-48 80.38,-48 88.88,-48"/>
<polygon fill="midnightblue" stroke="midnightblue" points="88.91,-51.5 98.91,-48 88.91,-44.5 88.91,-51.5"/>
</g>
<!-- Node3 -->
<g id="node3" class="node">
<title>Node3</title>
<g id="a_node3"><a xlink:href="mpi__dummy_8f.html#aabc99956c6af4e66cc75f4247046594c" target="_top" xlink:title=" ">
<polygon fill="white" stroke="black" points="197,-76.5 197,-95.5 286,-95.5 286,-76.5 197,-76.5"/>
<text text-anchor="middle" x="241.5" y="-83.5" font-family="Helvetica,sans-Serif" font-size="10.00">mpi_comm_rank</text>
</a>
</g>
</g>
<!-- Node2&#45;&gt;Node3 -->
<g id="edge2" class="edge">
<title>Node2&#45;&gt;Node3</title>
<path fill="none" stroke="midnightblue" d="M152.08,-56.53C166.76,-61.42 185.48,-67.66 201.91,-73.14"/>
<polygon fill="midnightblue" stroke="midnightblue" points="201.2,-76.59 211.79,-76.43 203.41,-69.95 201.2,-76.59"/>
</g>
<!-- Node4 -->
<g id="node4" class="node">
<title>Node4</title>
<g id="a_node4"><a xlink:href="mpi__dummy_8f.html#ac160db4315dd0998ac7f60dd94f35c0e" target="_top" xlink:title=" ">
<polygon fill="white" stroke="black" points="197.5,-38.5 197.5,-57.5 285.5,-57.5 285.5,-38.5 197.5,-38.5"/>
<text text-anchor="middle" x="241.5" y="-45.5" font-family="Helvetica,sans-Serif" font-size="10.00">mpi_comm_size</text>
</a>
</g>
</g>
<!-- Node2&#45;&gt;Node4 -->
<g id="edge3" class="edge">
<title>Node2&#45;&gt;Node4</title>
<path fill="none" stroke="midnightblue" d="M152.08,-48C162.44,-48 174.82,-48 186.98,-48"/>
<polygon fill="midnightblue" stroke="midnightblue" points="187.1,-51.5 197.1,-48 187.1,-44.5 187.1,-51.5"/>
</g>
<!-- Node5 -->
<g id="node5" class="node">
<title>Node5</title>
<g id="a_node5"><a xlink:href="visit_8f.html#a562c040b04c63da063d17739869a30d9" target="_top" xlink:title=" ">
<polygon fill="white" stroke="black" points="188,-0.5 188,-19.5 295,-19.5 295,-0.5 188,-0.5"/>
<text text-anchor="middle" x="241.5" y="-7.5" font-family="Helvetica,sans-Serif" font-size="10.00">simulationarguments</text>
</a>
</g>
</g>
<!-- Node2&#45;&gt;Node5 -->
<g id="edge4" class="edge">
<title>Node2&#45;&gt;Node5</title>
<path fill="none" stroke="midnightblue" d="M152.08,-39.47C166.76,-34.58 185.48,-28.34 201.91,-22.86"/>
<polygon fill="midnightblue" stroke="midnightblue" points="203.41,-26.05 211.79,-19.57 201.2,-19.41 203.41,-26.05"/>
</g>
</g>
</svg>
