<?xml version="1.0" encoding="UTF-8" standalone="no"?>
<!DOCTYPE svg PUBLIC "-//W3C//DTD SVG 1.1//EN"
 "http://www.w3.org/Graphics/SVG/1.1/DTD/svg11.dtd">
<!-- Generated by graphviz version 2.46.0 (0)
 -->
<!-- Title: getflops_papi Pages: 1 -->
<!--zoomable 85 -->
<svg id="main" version="1.1" xmlns="http://www.w3.org/2000/svg" xmlns:xlink="http://www.w3.org/1999/xlink" xml:space="preserve" onload="init(evt)">
<style type="text/css"><![CDATA[
.edge:hover path { stroke: red; }
.edge:hover polygon { stroke: red; fill: red; }
]]></style>
<script type="text/javascript"><![CDATA[
var edges = document.getElementsByTagName('g');
if (edges && edges.length) {
  for (var i=0;i<edges.length;i++) {
    if (edges[i].id.substr(0,4)=='edge') {
      edges[i].setAttribute('class','edge');
    }
  }
}
]]></script>
        <defs>
                <circle id="rim" cx="0" cy="0" r="7"/>
                <circle id="rim2" cx="0" cy="0" r="3.5"/>
                <g id="zoomPlus">
                        <use xlink:href="#rim" fill="#404040">
                                <set attributeName="fill" to="#808080" begin="zoomplus.mouseover" end="zoomplus.mouseout"/>
                        </use>
                        <path d="M-4,0h8M0,-4v8" fill="none" stroke="white" stroke-width="1.5" pointer-events="none"/>
                </g>
                <g id="zoomMin">
                        <use xlink:href="#rim" fill="#404040">
                                <set attributeName="fill" to="#808080" begin="zoomminus.mouseover" end="zoomminus.mouseout"/>
                        </use>
                        <path d="M-4,0h8" fill="none" stroke="white" stroke-width="1.5" pointer-events="none"/>
                </g>
                <g id="dirArrow">
                        <path fill="none" stroke="white" stroke-width="1.5" d="M0,-3.0v7 M-2.5,-0.5L0,-3.0L2.5,-0.5"/>
                </g>
               <g id="resetDef">
                       <use xlink:href="#rim2" fill="#404040">
                               <set attributeName="fill" to="#808080" begin="reset.mouseover" end="reset.mouseout"/>
                       </use>
               </g>
        </defs>

<script type="text/javascript">
var viewWidth = 585;
var viewHeight = 85;
var sectionId = 'dynsection-3';
</script>
<script xlink:href="svgpan.js"/>
<svg id="graph" class="graph">
<g id="viewport">
<title>getflops_papi</title>
<polygon fill="white" stroke="transparent" points="-4,4 -4,-81 581,-81 581,4 -4,4"/>
<!-- Node1 -->
<g id="node1" class="node">
<title>Node1</title>
<g id="a_node1"><a xlink:title=" ">
<polygon fill="#bfbfbf" stroke="black" points="503,-19.5 503,-38.5 577,-38.5 577,-19.5 503,-19.5"/>
<text text-anchor="middle" x="540" y="-26.5" font-family="Helvetica,sans-Serif" font-size="10.00">getflops_papi</text>
</a>
</g>
</g>
<!-- Node2 -->
<g id="node2" class="node">
<title>Node2</title>
<g id="a_node2"><a xlink:href="papi_8f.html#a401adcc008e595bf3caeaf27a675bdb7" target="_top" xlink:title=" ">
<polygon fill="white" stroke="black" points="400.5,-38.5 400.5,-57.5 464.5,-57.5 464.5,-38.5 400.5,-38.5"/>
<text text-anchor="middle" x="432.5" y="-45.5" font-family="Helvetica,sans-Serif" font-size="10.00">dnekgflops</text>
</a>
</g>
</g>
<!-- Node1&#45;&gt;Node2 -->
<g id="edge1" class="edge">
<title>Node1&#45;&gt;Node2</title>
<path fill="none" stroke="midnightblue" d="M492.86,-37.31C483.37,-39.02 473.59,-40.78 464.77,-42.37"/>
<polygon fill="midnightblue" stroke="midnightblue" points="493.77,-40.7 502.99,-35.49 492.53,-33.81 493.77,-40.7"/>
</g>
<!-- Node8 -->
<g id="node8" class="node">
<title>Node8</title>
<g id="a_node8"><a xlink:href="papi_8f.html#a03e8f6edabb1a9e537e7bd6f62beff24" target="_top" xlink:title=" ">
<polygon fill="white" stroke="black" points="398,-0.5 398,-19.5 467,-19.5 467,-0.5 398,-0.5"/>
<text text-anchor="middle" x="432.5" y="-7.5" font-family="Helvetica,sans-Serif" font-size="10.00">dnekgflpops</text>
</a>
</g>
</g>
<!-- Node1&#45;&gt;Node8 -->
<g id="edge8" class="edge">
<title>Node1&#45;&gt;Node8</title>
<path fill="none" stroke="midnightblue" d="M492.99,-20.71C484.33,-19.15 475.42,-17.55 467.22,-16.07"/>
<polygon fill="midnightblue" stroke="midnightblue" points="492.53,-24.19 502.99,-22.51 493.77,-17.3 492.53,-24.19"/>
</g>
<!-- Node3 -->
<g id="node3" class="node">
<title>Node3</title>
<g id="a_node3"><a xlink:href="drive1_8f.html#a6ad57e0cf728f343e371ef8c9a02cd8a" target="_top" xlink:title=" ">
<polygon fill="white" stroke="black" points="171,-57.5 171,-76.5 232,-76.5 232,-57.5 171,-57.5"/>
<text text-anchor="middle" x="201.5" y="-64.5" font-family="Helvetica,sans-Serif" font-size="10.00">nek_solve</text>
</a>
</g>
</g>
<!-- Node2&#45;&gt;Node3 -->
<g id="edge2" class="edge">
<title>Node2&#45;&gt;Node3</title>
<path fill="none" stroke="midnightblue" d="M389.99,-51.44C344.36,-55.23 272.23,-61.21 232.03,-64.55"/>
<polygon fill="midnightblue" stroke="midnightblue" points="390.46,-54.92 400.14,-50.6 389.88,-47.94 390.46,-54.92"/>
</g>
<!-- Node5 -->
<g id="node5" class="node">
<title>Node5</title>
<g id="a_node5"><a xlink:href="comm__mpi_8f.html#aecb92a457f6ec83709a380299db794ed" target="_top" xlink:title=" ">
<polygon fill="white" stroke="black" points="268,-19.5 268,-38.5 362,-38.5 362,-19.5 268,-19.5"/>
<text text-anchor="middle" x="315" y="-26.5" font-family="Helvetica,sans-Serif" font-size="10.00">print_runtime_info</text>
</a>
</g>
</g>
<!-- Node2&#45;&gt;Node5 -->
<g id="edge4" class="edge">
<title>Node2&#45;&gt;Node5</title>
<path fill="none" stroke="midnightblue" d="M390.23,-41.21C381.09,-39.71 371.35,-38.11 362.03,-36.57"/>
<polygon fill="midnightblue" stroke="midnightblue" points="389.81,-44.69 400.24,-42.86 390.94,-37.78 389.81,-44.69"/>
</g>
<!-- Node4 -->
<g id="node4" class="node">
<title>Node4</title>
<g id="a_node4"><a xlink:href="drive_8f.html#a13048bf28dd0734640412d69349e3857" target="_top" xlink:title=" ">
<polygon fill="white" stroke="black" points="0,-38.5 0,-57.5 46,-57.5 46,-38.5 0,-38.5"/>
<text text-anchor="middle" x="23" y="-45.5" font-family="Helvetica,sans-Serif" font-size="10.00">nekton</text>
</a>
</g>
</g>
<!-- Node3&#45;&gt;Node4 -->
<g id="edge3" class="edge">
<title>Node3&#45;&gt;Node4</title>
<path fill="none" stroke="midnightblue" d="M160.94,-62.74C125.51,-58.93 74.82,-53.47 46.09,-50.38"/>
<polygon fill="midnightblue" stroke="midnightblue" points="160.64,-66.23 170.96,-63.82 161.39,-59.27 160.64,-66.23"/>
</g>
<!-- Node6 -->
<g id="node6" class="node">
<title>Node6</title>
<g id="a_node6"><a xlink:href="comm__mpi_8f.html#a7c71e890279f4933a841a2d97c7de4bd" target="_top" xlink:title=" ">
<polygon fill="white" stroke="black" points="181,-19.5 181,-38.5 222,-38.5 222,-19.5 181,-19.5"/>
<text text-anchor="middle" x="201.5" y="-26.5" font-family="Helvetica,sans-Serif" font-size="10.00">exitt0</text>
</a>
</g>
</g>
<!-- Node5&#45;&gt;Node6 -->
<g id="edge5" class="edge">
<title>Node5&#45;&gt;Node6</title>
<path fill="none" stroke="midnightblue" d="M257.52,-29C244.8,-29 232.13,-29 222.16,-29"/>
<polygon fill="midnightblue" stroke="midnightblue" points="257.68,-32.5 267.68,-29 257.68,-25.5 257.68,-32.5"/>
</g>
<!-- Node7 -->
<g id="node7" class="node">
<title>Node7</title>
<g id="a_node7"><a xlink:href="drive1_8f.html#a10055f031c0ac540cc534ab2b0363206" target="_top" xlink:title=" ">
<polygon fill="white" stroke="black" points="82,-19.5 82,-38.5 135,-38.5 135,-19.5 82,-19.5"/>
<text text-anchor="middle" x="108.5" y="-26.5" font-family="Helvetica,sans-Serif" font-size="10.00">nek_end</text>
</a>
</g>
</g>
<!-- Node6&#45;&gt;Node7 -->
<g id="edge6" class="edge">
<title>Node6&#45;&gt;Node7</title>
<path fill="none" stroke="midnightblue" d="M170.72,-29C159.21,-29 146.17,-29 135.09,-29"/>
<polygon fill="midnightblue" stroke="midnightblue" points="170.75,-32.5 180.75,-29 170.75,-25.5 170.75,-32.5"/>
</g>
<!-- Node7&#45;&gt;Node4 -->
<g id="edge7" class="edge">
<title>Node7&#45;&gt;Node4</title>
<path fill="none" stroke="midnightblue" d="M72,-37.08C63.26,-39.07 54.15,-41.14 46.24,-42.94"/>
<polygon fill="midnightblue" stroke="midnightblue" points="73.02,-40.44 81.99,-34.8 71.47,-33.61 73.02,-40.44"/>
</g>
</g>
</svg>
        <g id="navigator" transform="translate(0 0)" fill="#404254">
                <rect fill="#f2f5e9" fill-opacity="0.5" stroke="#606060" stroke-width=".5" x="0" y="0" width="60" height="60"/>
                <use id="zoomplus" xlink:href="#zoomPlus" x="17" y="9" onmousedown="handleZoom(evt,'in')"/>
                <use id="zoomminus" xlink:href="#zoomMin" x="42" y="9" onmousedown="handleZoom(evt,'out')"/>
                <use id="reset" xlink:href="#resetDef" x="30" y="36" onmousedown="handleReset()"/>
                <g id="arrowUp" xlink:href="#dirArrow" transform="translate(30 24)" onmousedown="handlePan(0,-1)">
                  <use xlink:href="#rim" fill="#404040">
                        <set attributeName="fill" to="#808080" begin="arrowUp.mouseover" end="arrowUp.mouseout"/>
                  </use>
                  <path fill="none" stroke="white" stroke-width="1.5" d="M0,-3.0v7 M-2.5,-0.5L0,-3.0L2.5,-0.5"/>
                </g>
                <g id="arrowRight" xlink:href="#dirArrow" transform="rotate(90) translate(36 -43)" onmousedown="handlePan(1,0)">
                  <use xlink:href="#rim" fill="#404040">
                        <set attributeName="fill" to="#808080" begin="arrowRight.mouseover" end="arrowRight.mouseout"/>
                  </use>
                  <path fill="none" stroke="white" stroke-width="1.5" d="M0,-3.0v7 M-2.5,-0.5L0,-3.0L2.5,-0.5"/>
                </g>
                <g id="arrowDown" xlink:href="#dirArrow" transform="rotate(180) translate(-30 -48)" onmousedown="handlePan(0,1)">
                  <use xlink:href="#rim" fill="#404040">
                        <set attributeName="fill" to="#808080" begin="arrowDown.mouseover" end="arrowDown.mouseout"/>
                  </use>
                  <path fill="none" stroke="white" stroke-width="1.5" d="M0,-3.0v7 M-2.5,-0.5L0,-3.0L2.5,-0.5"/>
                </g>
                <g id="arrowLeft" xlink:href="#dirArrow" transform="rotate(270) translate(-36 17)" onmousedown="handlePan(-1,0)">
                  <use xlink:href="#rim" fill="#404040">
                        <set attributeName="fill" to="#808080" begin="arrowLeft.mouseover" end="arrowLeft.mouseout"/>
                  </use>
                  <path fill="none" stroke="white" stroke-width="1.5" d="M0,-3.0v7 M-2.5,-0.5L0,-3.0L2.5,-0.5"/>
                </g>
        </g>
        <svg viewBox="0 0 15 15" width="100%" height="30px" preserveAspectRatio="xMaxYMin meet">
         <g id="arrow_out" transform="scale(0.3 0.3)">
          <a xlink:href="papi_8f_ab038e29629efc9322eb63fb616c8af6d_icgraph_org.svg" target="_base">
           <rect id="button" ry="5" rx="5" y="6" x="6" height="38" width="38"
                fill="#f2f5e9" fill-opacity="0.5" stroke="#606060" stroke-width="1.0"/>
           <path id="arrow"
             d="M 11.500037,31.436501 C 11.940474,20.09759 22.043105,11.32322 32.158766,21.979434 L 37.068811,17.246167 C 37.068811,17.246167 37.088388,32 37.088388,32 L 22.160133,31.978069 C 22.160133,31.978069 26.997745,27.140456 26.997745,27.140456 C 18.528582,18.264221 13.291696,25.230495 11.500037,31.436501 z"
             style="fill:#404040;"/>
          </a>
         </g>
        </svg>
</svg>
