<?xml version="1.0" encoding="UTF-8" standalone="no"?>
<!DOCTYPE svg PUBLIC "-//W3C//DTD SVG 1.1//EN"
 "http://www.w3.org/Graphics/SVG/1.1/DTD/svg11.dtd">
<!-- Generated by graphviz version 2.46.0 (0)
 -->
<!-- Title: computelyap1 Pages: 1 -->
<svg width="605pt" height="123pt"
 viewBox="0.00 0.00 605.00 123.00" xmlns="http://www.w3.org/2000/svg" xmlns:xlink="http://www.w3.org/1999/xlink">
<g id="graph0" class="graph" transform="scale(1 1) rotate(0) translate(4 119)">
<title>computelyap1</title>
<polygon fill="white" stroke="transparent" points="-4,4 -4,-119 601,-119 601,4 -4,4"/>
<!-- Node1 -->
<g id="node1" class="node">
<title>Node1</title>
<g id="a_node1"><a xlink:title=" ">
<polygon fill="#bfbfbf" stroke="black" points="0,-57.5 0,-76.5 77,-76.5 77,-57.5 0,-57.5"/>
<text text-anchor="middle" x="38.5" y="-64.5" font-family="Helvetica,sans-Serif" font-size="10.00">computelyap1</text>
</a>
</g>
</g>
<!-- Node2 -->
<g id="node2" class="node">
<title>Node2</title>
<g id="a_node2"><a xlink:href="perturb_8f.html#aa78f317d5293a3f9e9a0c4e80f5c72f7" target="_top" xlink:title=" ">
<polygon fill="white" stroke="black" points="128,-95.5 128,-114.5 185,-114.5 185,-95.5 128,-95.5"/>
<text text-anchor="middle" x="156.5" y="-102.5" font-family="Helvetica,sans-Serif" font-size="10.00">dmnorm1</text>
</a>
</g>
</g>
<!-- Node1&#45;&gt;Node2 -->
<g id="edge1" class="edge">
<title>Node1&#45;&gt;Node2</title>
<path fill="none" stroke="midnightblue" d="M68.77,-76.59C83.78,-81.51 102.22,-87.55 118.23,-92.79"/>
<polygon fill="midnightblue" stroke="midnightblue" points="117.24,-96.15 127.83,-95.94 119.42,-89.5 117.24,-96.15"/>
</g>
<!-- Node6 -->
<g id="node5" class="node">
<title>Node6</title>
<g id="a_node5"><a xlink:href="pertsupport_8f.html#ae34fb509f2c51abd7107f056adeb93be" target="_top" xlink:title=" ">
<polygon fill="white" stroke="black" points="113,-57.5 113,-76.5 200,-76.5 200,-57.5 113,-57.5"/>
<text text-anchor="middle" x="156.5" y="-64.5" font-family="Helvetica,sans-Serif" font-size="10.00">pert_ortho_norm</text>
</a>
</g>
</g>
<!-- Node1&#45;&gt;Node6 -->
<g id="edge4" class="edge">
<title>Node1&#45;&gt;Node6</title>
<path fill="none" stroke="midnightblue" d="M77.16,-67C85.34,-67 94.14,-67 102.78,-67"/>
<polygon fill="midnightblue" stroke="midnightblue" points="102.8,-70.5 112.8,-67 102.8,-63.5 102.8,-70.5"/>
</g>
<!-- Node18 -->
<g id="node8" class="node">
<title>Node18</title>
<g id="a_node8"><a xlink:href="pertsupport_8f.html#a7470089203075392ac82b6451c42dc0b" target="_top" xlink:title=" ">
<polygon fill="white" stroke="black" points="366.5,-19.5 366.5,-38.5 431.5,-38.5 431.5,-19.5 366.5,-19.5"/>
<text text-anchor="middle" x="399" y="-26.5" font-family="Helvetica,sans-Serif" font-size="10.00">rescalepert</text>
</a>
</g>
</g>
<!-- Node1&#45;&gt;Node18 -->
<g id="edge11" class="edge">
<title>Node1&#45;&gt;Node18</title>
<path fill="none" stroke="midnightblue" d="M71.06,-57.46C83.95,-53.93 99.08,-50.24 113,-48 198.55,-34.21 300.09,-30.4 355.94,-29.36"/>
<polygon fill="midnightblue" stroke="midnightblue" points="356.21,-32.86 366.15,-29.19 356.1,-25.86 356.21,-32.86"/>
</g>
<!-- Node3 -->
<g id="node3" class="node">
<title>Node3</title>
<g id="a_node3"><a xlink:href="math_8f.html#a2e1d409e78d80b2a41ac715c2d5f607b" target="_top" xlink:title=" ">
<polygon fill="white" stroke="black" points="262,-95.5 262,-114.5 302,-114.5 302,-95.5 262,-95.5"/>
<text text-anchor="middle" x="282" y="-102.5" font-family="Helvetica,sans-Serif" font-size="10.00">glsc3</text>
</a>
</g>
</g>
<!-- Node2&#45;&gt;Node3 -->
<g id="edge2" class="edge">
<title>Node2&#45;&gt;Node3</title>
<path fill="none" stroke="midnightblue" d="M185.22,-105C204.99,-105 231.53,-105 251.66,-105"/>
<polygon fill="midnightblue" stroke="midnightblue" points="251.82,-108.5 261.82,-105 251.82,-101.5 251.82,-108.5"/>
</g>
<!-- Node4 -->
<g id="node4" class="node">
<title>Node4</title>
<g id="a_node4"><a xlink:href="gs__test__gop__blocking_8c.html#ab2e24f9857f6d1ded7e4d556c6bc5e49" target="_top" xlink:title=" ">
<polygon fill="white" stroke="red" points="383,-95.5 383,-114.5 415,-114.5 415,-95.5 383,-95.5"/>
<text text-anchor="middle" x="399" y="-102.5" font-family="Helvetica,sans-Serif" font-size="10.00">gop</text>
</a>
</g>
</g>
<!-- Node3&#45;&gt;Node4 -->
<g id="edge3" class="edge">
<title>Node3&#45;&gt;Node4</title>
<path fill="none" stroke="midnightblue" d="M302.25,-105C321.52,-105 351.29,-105 372.52,-105"/>
<polygon fill="midnightblue" stroke="midnightblue" points="372.74,-108.5 382.74,-105 372.74,-101.5 372.74,-108.5"/>
</g>
<!-- Node7 -->
<g id="node6" class="node">
<title>Node7</title>
<g id="a_node6"><a xlink:href="pertsupport_8f.html#a20a5d268d2532526bd62be50a952184d" target="_top" xlink:title=" ">
<polygon fill="white" stroke="red" points="236,-57.5 236,-76.5 328,-76.5 328,-57.5 236,-57.5"/>
<text text-anchor="middle" x="282" y="-64.5" font-family="Helvetica,sans-Serif" font-size="10.00">pert_ortho_norm1</text>
</a>
</g>
</g>
<!-- Node6&#45;&gt;Node7 -->
<g id="edge5" class="edge">
<title>Node6&#45;&gt;Node7</title>
<path fill="none" stroke="midnightblue" d="M200,-67C208.33,-67 217.17,-67 225.84,-67"/>
<polygon fill="midnightblue" stroke="midnightblue" points="225.89,-70.5 235.89,-67 225.89,-63.5 225.89,-70.5"/>
</g>
<!-- Node8 -->
<g id="node7" class="node">
<title>Node8</title>
<g id="a_node7"><a xlink:href="pertsupport_8f.html#a9aba28e1b423ebf816cda4c4a9ef37e9" target="_top" xlink:title=" ">
<polygon fill="white" stroke="red" points="364,-57.5 364,-76.5 434,-76.5 434,-57.5 364,-57.5"/>
<text text-anchor="middle" x="399" y="-64.5" font-family="Helvetica,sans-Serif" font-size="10.00">pert_add2s2</text>
</a>
</g>
</g>
<!-- Node7&#45;&gt;Node8 -->
<g id="edge6" class="edge">
<title>Node7&#45;&gt;Node8</title>
<path fill="none" stroke="midnightblue" d="M328.12,-67C336.44,-67 345.12,-67 353.42,-67"/>
<polygon fill="midnightblue" stroke="midnightblue" points="353.68,-70.5 363.68,-67 353.68,-63.5 353.68,-70.5"/>
</g>
<!-- Node7&#45;&gt;Node18 -->
<g id="edge7" class="edge">
<title>Node7&#45;&gt;Node18</title>
<path fill="none" stroke="midnightblue" d="M312.02,-57.41C326.32,-52.69 343.76,-46.92 359.19,-41.82"/>
<polygon fill="midnightblue" stroke="midnightblue" points="360.59,-45.05 368.99,-38.59 358.4,-38.4 360.59,-45.05"/>
</g>
<!-- Node19 -->
<g id="node9" class="node">
<title>Node19</title>
<g id="a_node9"><a xlink:href="math_8f.html#ad2b51b68d370651f4f6d81952503e7be" target="_top" xlink:title=" ">
<polygon fill="white" stroke="black" points="556,-19.5 556,-38.5 597,-38.5 597,-19.5 556,-19.5"/>
<text text-anchor="middle" x="576.5" y="-26.5" font-family="Helvetica,sans-Serif" font-size="10.00">cmult</text>
</a>
</g>
</g>
<!-- Node18&#45;&gt;Node19 -->
<g id="edge8" class="edge">
<title>Node18&#45;&gt;Node19</title>
<path fill="none" stroke="midnightblue" d="M431.78,-29C464.12,-29 513.87,-29 545.54,-29"/>
<polygon fill="midnightblue" stroke="midnightblue" points="545.93,-32.5 555.93,-29 545.93,-25.5 545.93,-32.5"/>
</g>
<!-- Node20 -->
<g id="node10" class="node">
<title>Node20</title>
<g id="a_node10"><a xlink:href="pertsupport_8f.html#ad419d03b0c681e3dff7b1e914e830029" target="_top" xlink:title=" ">
<polygon fill="white" stroke="black" points="470,-0.5 470,-19.5 520,-19.5 520,-0.5 470,-0.5"/>
<text text-anchor="middle" x="495" y="-7.5" font-family="Helvetica,sans-Serif" font-size="10.00">opscale</text>
</a>
</g>
</g>
<!-- Node18&#45;&gt;Node20 -->
<g id="edge9" class="edge">
<title>Node18&#45;&gt;Node20</title>
<path fill="none" stroke="midnightblue" d="M431.56,-22.62C440.63,-20.79 450.56,-18.78 459.78,-16.92"/>
<polygon fill="midnightblue" stroke="midnightblue" points="460.7,-20.3 469.81,-14.89 459.31,-13.44 460.7,-20.3"/>
</g>
<!-- Node20&#45;&gt;Node19 -->
<g id="edge10" class="edge">
<title>Node20&#45;&gt;Node19</title>
<path fill="none" stroke="midnightblue" d="M520.28,-15.8C528.4,-17.74 537.54,-19.93 546,-21.95"/>
<polygon fill="midnightblue" stroke="midnightblue" points="545.35,-25.39 555.89,-24.31 546.98,-18.58 545.35,-25.39"/>
</g>
</g>
</svg>
