<?xml version="1.0" encoding="UTF-8" standalone="no"?>
<!DOCTYPE svg PUBLIC "-//W3C//DTD SVG 1.1//EN"
 "http://www.w3.org/Graphics/SVG/1.1/DTD/svg11.dtd">
<!-- Generated by graphviz version 2.46.0 (0)
 -->
<!-- Title: makeabqp Pages: 1 -->
<svg width="154pt" height="104pt"
 viewBox="0.00 0.00 154.00 104.00" xmlns="http://www.w3.org/2000/svg" xmlns:xlink="http://www.w3.org/1999/xlink">
<g id="graph0" class="graph" transform="scale(1 1) rotate(0) translate(4 100)">
<title>makeabqp</title>
<polygon fill="white" stroke="transparent" points="-4,4 -4,-100 150,-100 150,4 -4,4"/>
<!-- Node1 -->
<g id="node1" class="node">
<title>Node1</title>
<g id="a_node1"><a xlink:title=" ">
<polygon fill="#bfbfbf" stroke="black" points="0,-38.5 0,-57.5 62,-57.5 62,-38.5 0,-38.5"/>
<text text-anchor="middle" x="31" y="-45.5" font-family="Helvetica,sans-Serif" font-size="10.00">makeabqp</text>
</a>
</g>
</g>
<!-- Node2 -->
<g id="node2" class="node">
<title>Node2</title>
<g id="a_node2"><a xlink:href="math_8f.html#aeeb6d3ca3e70266452bcf92e16cb317d" target="_top" xlink:title=" ">
<polygon fill="white" stroke="black" points="98,-76.5 98,-95.5 146,-95.5 146,-76.5 98,-76.5"/>
<text text-anchor="middle" x="122" y="-83.5" font-family="Helvetica,sans-Serif" font-size="10.00">add2s1</text>
</a>
</g>
</g>
<!-- Node1&#45;&gt;Node2 -->
<g id="edge1" class="edge">
<title>Node1&#45;&gt;Node2</title>
<path fill="none" stroke="midnightblue" d="M54.46,-57.59C65,-62.09 77.75,-67.53 89.25,-72.44"/>
<polygon fill="midnightblue" stroke="midnightblue" points="87.98,-75.71 98.55,-76.41 90.73,-69.27 87.98,-75.71"/>
</g>
<!-- Node3 -->
<g id="node3" class="node">
<title>Node3</title>
<g id="a_node3"><a xlink:href="math_8f.html#ac62ce88420771d0183fa4e9182f250dc" target="_top" xlink:title=" ">
<polygon fill="white" stroke="black" points="98,-38.5 98,-57.5 146,-57.5 146,-38.5 98,-38.5"/>
<text text-anchor="middle" x="122" y="-45.5" font-family="Helvetica,sans-Serif" font-size="10.00">add3s2</text>
</a>
</g>
</g>
<!-- Node1&#45;&gt;Node3 -->
<g id="edge2" class="edge">
<title>Node1&#45;&gt;Node3</title>
<path fill="none" stroke="midnightblue" d="M62.13,-48C70.36,-48 79.32,-48 87.71,-48"/>
<polygon fill="midnightblue" stroke="midnightblue" points="87.94,-51.5 97.94,-48 87.94,-44.5 87.94,-51.5"/>
</g>
<!-- Node4 -->
<g id="node4" class="node">
<title>Node4</title>
<g id="a_node4"><a xlink:href="math_8f.html#a3b43508554f14bdea8e14473d7d0803c" target="_top" xlink:title=" ">
<polygon fill="white" stroke="black" points="103,-0.5 103,-19.5 141,-19.5 141,-0.5 103,-0.5"/>
<text text-anchor="middle" x="122" y="-7.5" font-family="Helvetica,sans-Serif" font-size="10.00">copy</text>
</a>
</g>
</g>
<!-- Node1&#45;&gt;Node4 -->
<g id="edge3" class="edge">
<title>Node1&#45;&gt;Node4</title>
<path fill="none" stroke="midnightblue" d="M54.46,-38.41C66.24,-33.38 80.78,-27.17 93.27,-21.84"/>
<polygon fill="midnightblue" stroke="midnightblue" points="94.92,-24.94 102.74,-17.8 92.17,-18.5 94.92,-24.94"/>
</g>
</g>
</svg>
