<?xml version="1.0" encoding="UTF-8" standalone="no"?>
<!DOCTYPE svg PUBLIC "-//W3C//DTD SVG 1.1//EN"
 "http://www.w3.org/Graphics/SVG/1.1/DTD/svg11.dtd">
<!-- Generated by graphviz version 2.46.0 (0)
 -->
<!-- Title: initialize Pages: 1 -->
<svg width="251pt" height="294pt"
 viewBox="0.00 0.00 251.00 294.00" xmlns="http://www.w3.org/2000/svg" xmlns:xlink="http://www.w3.org/1999/xlink">
<g id="graph0" class="graph" transform="scale(1 1) rotate(0) translate(4 290)">
<title>initialize</title>
<polygon fill="white" stroke="transparent" points="-4,4 -4,-290 247,-290 247,4 -4,4"/>
<!-- Node1 -->
<g id="node1" class="node">
<title>Node1</title>
<g id="a_node1"><a xlink:title=" ">
<polygon fill="#bfbfbf" stroke="black" points="0,-133.5 0,-152.5 52,-152.5 52,-133.5 0,-133.5"/>
<text text-anchor="middle" x="26" y="-140.5" font-family="Helvetica,sans-Serif" font-size="10.00">initialize</text>
</a>
</g>
</g>
<!-- Node2 -->
<g id="node2" class="node">
<title>Node2</title>
<g id="a_node2"><a xlink:href="pertsupport_8f.html#ab717a09e0eef53b83cb0020ed80d14eb" target="_top" xlink:title=" ">
<polygon fill="white" stroke="red" points="88,-133.5 88,-152.5 145,-152.5 145,-133.5 88,-133.5"/>
<text text-anchor="middle" x="116.5" y="-140.5" font-family="Helvetica,sans-Serif" font-size="10.00">initialize1</text>
</a>
</g>
</g>
<!-- Node1&#45;&gt;Node2 -->
<g id="edge1" class="edge">
<title>Node1&#45;&gt;Node2</title>
<path fill="none" stroke="midnightblue" d="M52.12,-143C60.04,-143 68.98,-143 77.58,-143"/>
<polygon fill="midnightblue" stroke="midnightblue" points="77.83,-146.5 87.83,-143 77.83,-139.5 77.83,-146.5"/>
</g>
<!-- Node3 -->
<g id="node3" class="node">
<title>Node3</title>
<g id="a_node3"><a xlink:href="comm__mpi_8f.html#ae425c1deb2e82d2007c97e1c4be990c8" target="_top" xlink:title=" ">
<polygon fill="white" stroke="red" points="191.5,-266.5 191.5,-285.5 232.5,-285.5 232.5,-266.5 191.5,-266.5"/>
<text text-anchor="middle" x="212" y="-273.5" font-family="Helvetica,sans-Serif" font-size="10.00">bcast</text>
</a>
</g>
</g>
<!-- Node2&#45;&gt;Node3 -->
<g id="edge2" class="edge">
<title>Node2&#45;&gt;Node3</title>
<path fill="none" stroke="midnightblue" d="M120.94,-152.57C128.84,-173.52 150.03,-224.24 181,-257 182.06,-258.12 183.2,-259.2 184.39,-260.24"/>
<polygon fill="midnightblue" stroke="midnightblue" points="182.65,-263.32 192.76,-266.49 186.84,-257.71 182.65,-263.32"/>
</g>
<!-- Node5 -->
<g id="node4" class="node">
<title>Node5</title>
<g id="a_node4"><a xlink:href="math_8f.html#a692155d1d2ec380a9fdb2d81ef221625" target="_top" xlink:title=" ">
<polygon fill="white" stroke="black" points="192,-228.5 192,-247.5 232,-247.5 232,-228.5 192,-228.5"/>
<text text-anchor="middle" x="212" y="-235.5" font-family="Helvetica,sans-Serif" font-size="10.00">blank</text>
</a>
</g>
</g>
<!-- Node2&#45;&gt;Node5 -->
<g id="edge3" class="edge">
<title>Node2&#45;&gt;Node5</title>
<path fill="none" stroke="midnightblue" d="M124.1,-152.71C134.81,-168.01 157.21,-198.15 181,-219 182.34,-220.17 183.76,-221.32 185.22,-222.44"/>
<polygon fill="midnightblue" stroke="midnightblue" points="183.63,-225.6 193.84,-228.42 187.62,-219.84 183.63,-225.6"/>
</g>
<!-- Node6 -->
<g id="node5" class="node">
<title>Node6</title>
<g id="a_node5"><a xlink:href="math_8f.html#ad7fb480cea001849621405f37167aab1" target="_top" xlink:title=" ">
<polygon fill="white" stroke="black" points="188,-190.5 188,-209.5 236,-209.5 236,-190.5 188,-190.5"/>
<text text-anchor="middle" x="212" y="-197.5" font-family="Helvetica,sans-Serif" font-size="10.00">chcopy</text>
</a>
</g>
</g>
<!-- Node2&#45;&gt;Node6 -->
<g id="edge4" class="edge">
<title>Node2&#45;&gt;Node6</title>
<path fill="none" stroke="midnightblue" d="M133.36,-152.67C147.96,-161.57 169.82,-174.9 186.63,-185.14"/>
<polygon fill="midnightblue" stroke="midnightblue" points="185.01,-188.26 195.37,-190.47 188.66,-182.28 185.01,-188.26"/>
</g>
<!-- Node7 -->
<g id="node6" class="node">
<title>Node7</title>
<g id="a_node6"><a xlink:href="byte_8c.html#a2da8eeb074dfd3ffbfb3e9a4d301cda4" target="_top" xlink:title=" ">
<polygon fill="white" stroke="red" points="194.5,-152.5 194.5,-171.5 229.5,-171.5 229.5,-152.5 194.5,-152.5"/>
<text text-anchor="middle" x="212" y="-159.5" font-family="Helvetica,sans-Serif" font-size="10.00">exitt</text>
</a>
</g>
</g>
<!-- Node2&#45;&gt;Node7 -->
<g id="edge5" class="edge">
<title>Node2&#45;&gt;Node7</title>
<path fill="none" stroke="midnightblue" d="M145.05,-148.6C157.46,-151.12 172.07,-154.09 184.37,-156.59"/>
<polygon fill="midnightblue" stroke="midnightblue" points="183.98,-160.08 194.48,-158.64 185.38,-153.22 183.98,-160.08"/>
</g>
<!-- Node10 -->
<g id="node7" class="node">
<title>Node10</title>
<g id="a_node7"><a xlink:href="pertsupport_8f.html#aad40c463837caf8f653650795e1eecda" target="_top" xlink:title=" ">
<polygon fill="white" stroke="black" points="181,-114.5 181,-133.5 243,-133.5 243,-114.5 181,-114.5"/>
<text text-anchor="middle" x="212" y="-121.5" font-family="Helvetica,sans-Serif" font-size="10.00">get_useric</text>
</a>
</g>
</g>
<!-- Node2&#45;&gt;Node10 -->
<g id="edge6" class="edge">
<title>Node2&#45;&gt;Node10</title>
<path fill="none" stroke="midnightblue" d="M145.05,-137.4C153.1,-135.77 162.07,-133.94 170.74,-132.18"/>
<polygon fill="midnightblue" stroke="midnightblue" points="171.61,-135.58 180.71,-130.16 170.21,-128.72 171.61,-135.58"/>
</g>
<!-- Node11 -->
<g id="node8" class="node">
<title>Node11</title>
<g id="a_node8"><a xlink:href="math_8f.html#ab9303bf1e4e8317c75da9a352a4276a1" target="_top" xlink:title=" ">
<polygon fill="white" stroke="black" points="191.5,-76.5 191.5,-95.5 232.5,-95.5 232.5,-76.5 191.5,-76.5"/>
<text text-anchor="middle" x="212" y="-83.5" font-family="Helvetica,sans-Serif" font-size="10.00">ltrunc</text>
</a>
</g>
</g>
<!-- Node2&#45;&gt;Node11 -->
<g id="edge7" class="edge">
<title>Node2&#45;&gt;Node11</title>
<path fill="none" stroke="midnightblue" d="M133.36,-133.33C147.96,-124.43 169.82,-111.1 186.63,-100.86"/>
<polygon fill="midnightblue" stroke="midnightblue" points="188.66,-103.72 195.37,-95.53 185.01,-97.74 188.66,-103.72"/>
</g>
<!-- Node12 -->
<g id="node9" class="node">
<title>Node12</title>
<g id="a_node9"><a xlink:href="pertsupport_8f.html#a01cb22efef6e1981159c362b93227e55" target="_top" xlink:title=" ">
<polygon fill="white" stroke="red" points="185,-38.5 185,-57.5 239,-57.5 239,-38.5 185,-38.5"/>
<text text-anchor="middle" x="212" y="-45.5" font-family="Helvetica,sans-Serif" font-size="10.00">opnorm2</text>
</a>
</g>
</g>
<!-- Node2&#45;&gt;Node12 -->
<g id="edge8" class="edge">
<title>Node2&#45;&gt;Node12</title>
<path fill="none" stroke="midnightblue" d="M124.1,-133.29C134.81,-117.99 157.21,-87.85 181,-67 182.34,-65.83 183.76,-64.68 185.22,-63.56"/>
<polygon fill="midnightblue" stroke="midnightblue" points="187.62,-66.16 193.84,-57.58 183.63,-60.4 187.62,-66.16"/>
</g>
<!-- Node16 -->
<g id="node10" class="node">
<title>Node16</title>
<g id="a_node10"><a xlink:href="induct_8f.html#a8328e7c49f8e758e4d914ae946839cdd" target="_top" xlink:title=" ">
<polygon fill="white" stroke="red" points="189,-0.5 189,-19.5 235,-19.5 235,-0.5 189,-0.5"/>
<text text-anchor="middle" x="212" y="-7.5" font-family="Helvetica,sans-Serif" font-size="10.00">opzero</text>
</a>
</g>
</g>
<!-- Node2&#45;&gt;Node16 -->
<g id="edge9" class="edge">
<title>Node2&#45;&gt;Node16</title>
<path fill="none" stroke="midnightblue" d="M120.94,-133.43C128.84,-112.48 150.03,-61.76 181,-29 182.06,-27.88 183.2,-26.8 184.39,-25.76"/>
<polygon fill="midnightblue" stroke="midnightblue" points="186.84,-28.29 192.76,-19.51 182.65,-22.68 186.84,-28.29"/>
</g>
</g>
</svg>
