<?xml version="1.0" encoding="UTF-8" standalone="no"?>
<!DOCTYPE svg PUBLIC "-//W3C//DTD SVG 1.1//EN"
 "http://www.w3.org/Graphics/SVG/1.1/DTD/svg11.dtd">
<!-- Generated by graphviz version 2.46.0 (0)
 -->
<!-- Title: out_pert Pages: 1 -->
<svg width="462pt" height="180pt"
 viewBox="0.00 0.00 462.00 180.00" xmlns="http://www.w3.org/2000/svg" xmlns:xlink="http://www.w3.org/1999/xlink">
<g id="graph0" class="graph" transform="scale(1 1) rotate(0) translate(4 176)">
<title>out_pert</title>
<polygon fill="white" stroke="transparent" points="-4,4 -4,-176 458,-176 458,4 -4,4"/>
<!-- Node1 -->
<g id="node1" class="node">
<title>Node1</title>
<g id="a_node1"><a xlink:title=" ">
<polygon fill="#bfbfbf" stroke="black" points="0,-114.5 0,-133.5 52,-133.5 52,-114.5 0,-114.5"/>
<text text-anchor="middle" x="26" y="-121.5" font-family="Helvetica,sans-Serif" font-size="10.00">out_pert</text>
</a>
</g>
</g>
<!-- Node2 -->
<g id="node2" class="node">
<title>Node2</title>
<g id="a_node2"><a xlink:href="prepost_8f.html#aaf4c0f2e1790302116a4c719c2eb50ff" target="_top" xlink:title=" ">
<polygon fill="white" stroke="black" points="88,-114.5 88,-133.5 142,-133.5 142,-114.5 88,-114.5"/>
<text text-anchor="middle" x="115" y="-121.5" font-family="Helvetica,sans-Serif" font-size="10.00">outpost2</text>
</a>
</g>
</g>
<!-- Node1&#45;&gt;Node2 -->
<g id="edge1" class="edge">
<title>Node1&#45;&gt;Node2</title>
<path fill="none" stroke="midnightblue" d="M52.16,-124C60.16,-124 69.16,-124 77.77,-124"/>
<polygon fill="midnightblue" stroke="midnightblue" points="77.99,-127.5 87.99,-124 77.99,-120.5 77.99,-127.5"/>
</g>
<!-- Node3 -->
<g id="node3" class="node">
<title>Node3</title>
<g id="a_node3"><a xlink:href="math_8f.html#a3b43508554f14bdea8e14473d7d0803c" target="_top" xlink:title=" ">
<polygon fill="white" stroke="black" points="401,-76.5 401,-95.5 439,-95.5 439,-76.5 401,-76.5"/>
<text text-anchor="middle" x="420" y="-83.5" font-family="Helvetica,sans-Serif" font-size="10.00">copy</text>
</a>
</g>
</g>
<!-- Node2&#45;&gt;Node3 -->
<g id="edge2" class="edge">
<title>Node2&#45;&gt;Node3</title>
<path fill="none" stroke="midnightblue" d="M142.17,-123.47C185.65,-122.24 275.34,-118.19 350,-105 363.67,-102.59 378.55,-98.66 390.98,-95"/>
<polygon fill="midnightblue" stroke="midnightblue" points="392.21,-98.29 400.76,-92.03 390.18,-91.59 392.21,-98.29"/>
</g>
<!-- Node4 -->
<g id="node4" class="node">
<title>Node4</title>
<g id="a_node4"><a xlink:href="byte_8c.html#a2da8eeb074dfd3ffbfb3e9a4d301cda4" target="_top" xlink:title=" ">
<polygon fill="white" stroke="black" points="185,-152.5 185,-171.5 220,-171.5 220,-152.5 185,-152.5"/>
<text text-anchor="middle" x="202.5" y="-159.5" font-family="Helvetica,sans-Serif" font-size="10.00">exitt</text>
</a>
</g>
</g>
<!-- Node2&#45;&gt;Node4 -->
<g id="edge3" class="edge">
<title>Node2&#45;&gt;Node4</title>
<path fill="none" stroke="midnightblue" d="M137.58,-133.59C149.13,-138.72 163.44,-145.09 175.6,-150.49"/>
<polygon fill="midnightblue" stroke="midnightblue" points="174.23,-153.71 184.79,-154.57 177.07,-147.31 174.23,-153.71"/>
</g>
<!-- Node7 -->
<g id="node7" class="node">
<title>Node7</title>
<g id="a_node7"><a xlink:href="prepost_8f.html#a4a3b0e4ce35b3381281c0839e5846370" target="_top" xlink:title=" ">
<polygon fill="white" stroke="black" points="178,-57.5 178,-76.5 227,-76.5 227,-57.5 178,-57.5"/>
<text text-anchor="middle" x="202.5" y="-64.5" font-family="Helvetica,sans-Serif" font-size="10.00">prepost</text>
</a>
</g>
</g>
<!-- Node2&#45;&gt;Node7 -->
<g id="edge6" class="edge">
<title>Node2&#45;&gt;Node7</title>
<path fill="none" stroke="midnightblue" d="M130.5,-114.33C143.73,-105.52 163.47,-92.35 178.79,-82.14"/>
<polygon fill="midnightblue" stroke="midnightblue" points="180.83,-84.99 187.21,-76.53 176.95,-79.16 180.83,-84.99"/>
</g>
<!-- Node5 -->
<g id="node5" class="node">
<title>Node5</title>
<g id="a_node5"><a xlink:href="comm__mpi_8f.html#acc8803a3787828530843112e0c48941b" target="_top" xlink:title=" ">
<polygon fill="white" stroke="black" points="281.5,-152.5 281.5,-171.5 331.5,-171.5 331.5,-152.5 281.5,-152.5"/>
<text text-anchor="middle" x="306.5" y="-159.5" font-family="Helvetica,sans-Serif" font-size="10.00">nek_die</text>
</a>
</g>
</g>
<!-- Node4&#45;&gt;Node5 -->
<g id="edge4" class="edge">
<title>Node4&#45;&gt;Node5</title>
<path fill="none" stroke="midnightblue" d="M220.34,-162C234.12,-162 254.05,-162 271.17,-162"/>
<polygon fill="midnightblue" stroke="midnightblue" points="271.38,-165.5 281.38,-162 271.38,-158.5 271.38,-165.5"/>
</g>
<!-- Node6 -->
<g id="node6" class="node">
<title>Node6</title>
<g id="a_node6"><a xlink:href="mpi__dummy_8f.html#a55e9a1619aadb638b14211ce21d7d566" target="_top" xlink:title=" ">
<polygon fill="white" stroke="black" points="386,-152.5 386,-171.5 454,-171.5 454,-152.5 386,-152.5"/>
<text text-anchor="middle" x="420" y="-159.5" font-family="Helvetica,sans-Serif" font-size="10.00">mpi_finalize</text>
</a>
</g>
</g>
<!-- Node5&#45;&gt;Node6 -->
<g id="edge5" class="edge">
<title>Node5&#45;&gt;Node6</title>
<path fill="none" stroke="midnightblue" d="M331.69,-162C344.6,-162 360.87,-162 375.86,-162"/>
<polygon fill="midnightblue" stroke="midnightblue" points="375.97,-165.5 385.97,-162 375.97,-158.5 375.97,-165.5"/>
</g>
<!-- Node8 -->
<g id="node8" class="node">
<title>Node8</title>
<g id="a_node8"><a xlink:href="comm__mpi_8f.html#af434902df36175d2afdc00fbabc84b2c" target="_top" xlink:title=" ">
<polygon fill="white" stroke="red" points="263,-0.5 263,-19.5 350,-19.5 350,-0.5 263,-0.5"/>
<text text-anchor="middle" x="306.5" y="-7.5" font-family="Helvetica,sans-Serif" font-size="10.00">dnekclock_sync</text>
</a>
</g>
</g>
<!-- Node7&#45;&gt;Node8 -->
<g id="edge7" class="edge">
<title>Node7&#45;&gt;Node8</title>
<path fill="none" stroke="midnightblue" d="M217.33,-57.34C229.17,-49.27 246.82,-37.72 263,-29 266.25,-27.25 269.69,-25.52 273.16,-23.85"/>
<polygon fill="midnightblue" stroke="midnightblue" points="274.65,-27.02 282.26,-19.64 271.72,-20.66 274.65,-27.02"/>
</g>
<!-- Node12 -->
<g id="node9" class="node">
<title>Node12</title>
<g id="a_node9"><a xlink:href="prepost_8f.html#a7e6b503691396e2ba24a32272da91f7a" target="_top" xlink:title=" ">
<polygon fill="white" stroke="red" points="286,-76.5 286,-95.5 327,-95.5 327,-76.5 286,-76.5"/>
<text text-anchor="middle" x="306.5" y="-83.5" font-family="Helvetica,sans-Serif" font-size="10.00">outfld</text>
</a>
</g>
</g>
<!-- Node7&#45;&gt;Node12 -->
<g id="edge8" class="edge">
<title>Node7&#45;&gt;Node12</title>
<path fill="none" stroke="midnightblue" d="M227.16,-71.41C241.6,-74.1 260.19,-77.56 275.64,-80.44"/>
<polygon fill="midnightblue" stroke="midnightblue" points="275.27,-83.93 285.74,-82.32 276.55,-77.05 275.27,-83.93"/>
</g>
<!-- Node88 -->
<g id="node10" class="node">
<title>Node88</title>
<g id="a_node10"><a xlink:href="prepost_8f.html#a68819f71d0d1730a93b44791fc50f171" target="_top" xlink:title=" ">
<polygon fill="white" stroke="red" points="270,-38.5 270,-57.5 343,-57.5 343,-38.5 270,-38.5"/>
<text text-anchor="middle" x="306.5" y="-45.5" font-family="Helvetica,sans-Serif" font-size="10.00">prepost_map</text>
</a>
</g>
</g>
<!-- Node7&#45;&gt;Node88 -->
<g id="edge9" class="edge">
<title>Node7&#45;&gt;Node88</title>
<path fill="none" stroke="midnightblue" d="M227.16,-62.59C236.99,-60.76 248.75,-58.57 260.12,-56.45"/>
<polygon fill="midnightblue" stroke="midnightblue" points="260.78,-59.89 269.97,-54.62 259.5,-53.01 260.78,-59.89"/>
</g>
<!-- Node88&#45;&gt;Node3 -->
<g id="edge10" class="edge">
<title>Node88&#45;&gt;Node3</title>
<path fill="none" stroke="midnightblue" d="M335.64,-57.59C352.52,-63.34 373.92,-70.64 390.81,-76.39"/>
<polygon fill="midnightblue" stroke="midnightblue" points="390.07,-79.84 400.67,-79.75 392.33,-73.21 390.07,-79.84"/>
</g>
</g>
</svg>
