<?xml version="1.0" encoding="UTF-8" standalone="no"?>
<!DOCTYPE svg PUBLIC "-//W3C//DTD SVG 1.1//EN"
 "http://www.w3.org/Graphics/SVG/1.1/DTD/svg11.dtd">
<!-- Generated by graphviz version 2.46.0 (0)
 -->
<!-- Title: computelyap Pages: 1 -->
<!--zoomable 142 -->
<svg id="main" version="1.1" xmlns="http://www.w3.org/2000/svg" xmlns:xlink="http://www.w3.org/1999/xlink" xml:space="preserve" onload="init(evt)">
<style type="text/css"><![CDATA[
.edge:hover path { stroke: red; }
.edge:hover polygon { stroke: red; fill: red; }
]]></style>
<script type="text/javascript"><![CDATA[
var edges = document.getElementsByTagName('g');
if (edges && edges.length) {
  for (var i=0;i<edges.length;i++) {
    if (edges[i].id.substr(0,4)=='edge') {
      edges[i].setAttribute('class','edge');
    }
  }
}
]]></script>
        <defs>
                <circle id="rim" cx="0" cy="0" r="7"/>
                <circle id="rim2" cx="0" cy="0" r="3.5"/>
                <g id="zoomPlus">
                        <use xlink:href="#rim" fill="#404040">
                                <set attributeName="fill" to="#808080" begin="zoomplus.mouseover" end="zoomplus.mouseout"/>
                        </use>
                        <path d="M-4,0h8M0,-4v8" fill="none" stroke="white" stroke-width="1.5" pointer-events="none"/>
                </g>
                <g id="zoomMin">
                        <use xlink:href="#rim" fill="#404040">
                                <set attributeName="fill" to="#808080" begin="zoomminus.mouseover" end="zoomminus.mouseout"/>
                        </use>
                        <path d="M-4,0h8" fill="none" stroke="white" stroke-width="1.5" pointer-events="none"/>
                </g>
                <g id="dirArrow">
                        <path fill="none" stroke="white" stroke-width="1.5" d="M0,-3.0v7 M-2.5,-0.5L0,-3.0L2.5,-0.5"/>
                </g>
               <g id="resetDef">
                       <use xlink:href="#rim2" fill="#404040">
                               <set attributeName="fill" to="#808080" begin="reset.mouseover" end="reset.mouseout"/>
                       </use>
               </g>
        </defs>

<script type="text/javascript">
var viewWidth = 708;
var viewHeight = 142;
var sectionId = 'dynsection-6';
</script>
<script xlink:href="svgpan.js"/>
<svg id="graph" class="graph">
<g id="viewport">
<title>computelyap</title>
<polygon fill="white" stroke="transparent" points="-4,4 -4,-138 704,-138 704,4 -4,4"/>
<!-- Node1 -->
<g id="node1" class="node">
<title>Node1</title>
<g id="a_node1"><a xlink:title=" ">
<polygon fill="#bfbfbf" stroke="black" points="0,-57.5 0,-76.5 72,-76.5 72,-57.5 0,-57.5"/>
<text text-anchor="middle" x="36" y="-64.5" font-family="Helvetica,sans-Serif" font-size="10.00">computelyap</text>
</a>
</g>
</g>
<!-- Node2 -->
<g id="node2" class="node">
<title>Node2</title>
<g id="a_node2"><a xlink:href="pertsupport_8f.html#a4a577b852caf72365480e31586613e74" target="_top" xlink:title=" ">
<polygon fill="white" stroke="black" points="108,-57.5 108,-76.5 185,-76.5 185,-57.5 108,-57.5"/>
<text text-anchor="middle" x="146.5" y="-64.5" font-family="Helvetica,sans-Serif" font-size="10.00">computelyap1</text>
</a>
</g>
</g>
<!-- Node1&#45;&gt;Node2 -->
<g id="edge1" class="edge">
<title>Node1&#45;&gt;Node2</title>
<path fill="none" stroke="midnightblue" d="M72.23,-67C80.32,-67 89.06,-67 97.59,-67"/>
<polygon fill="midnightblue" stroke="midnightblue" points="97.83,-70.5 107.83,-67 97.83,-63.5 97.83,-70.5"/>
</g>
<!-- Node3 -->
<g id="node3" class="node">
<title>Node3</title>
<g id="a_node3"><a xlink:href="pertsupport_8f.html#a4e2c229c1e8c59663b6ec268c17e2a4e" target="_top" xlink:title=" ">
<polygon fill="white" stroke="black" points="238.5,-114.5 238.5,-133.5 290.5,-133.5 290.5,-114.5 238.5,-114.5"/>
<text text-anchor="middle" x="264.5" y="-121.5" font-family="Helvetica,sans-Serif" font-size="10.00">dmnorm</text>
</a>
</g>
</g>
<!-- Node2&#45;&gt;Node3 -->
<g id="edge2" class="edge">
<title>Node2&#45;&gt;Node3</title>
<path fill="none" stroke="midnightblue" d="M165.48,-76.66C180.27,-84.52 201.85,-95.78 221,-105 224.58,-106.73 228.36,-108.49 232.12,-110.22"/>
<polygon fill="midnightblue" stroke="midnightblue" points="230.78,-113.45 241.33,-114.37 233.66,-107.07 230.78,-113.45"/>
</g>
<!-- Node7 -->
<g id="node5" class="node">
<title>Node7</title>
<g id="a_node5"><a xlink:href="pertsupport_8f.html#a57a85ec65c351377d3469541aa21dd8b" target="_top" xlink:title=" ">
<polygon fill="white" stroke="black" points="233.5,-76.5 233.5,-95.5 295.5,-95.5 295.5,-76.5 233.5,-76.5"/>
<text text-anchor="middle" x="264.5" y="-83.5" font-family="Helvetica,sans-Serif" font-size="10.00">flushbuffer</text>
</a>
</g>
</g>
<!-- Node2&#45;&gt;Node7 -->
<g id="edge4" class="edge">
<title>Node2&#45;&gt;Node7</title>
<path fill="none" stroke="midnightblue" d="M185.16,-73.17C197.36,-75.17 210.93,-77.39 223.3,-79.42"/>
<polygon fill="midnightblue" stroke="midnightblue" points="222.93,-82.9 233.36,-81.06 224.06,-75.99 222.93,-82.9"/>
</g>
<!-- Node8 -->
<g id="node6" class="node">
<title>Node8</title>
<g id="a_node6"><a xlink:href="pertsupport_8f.html#ae34fb509f2c51abd7107f056adeb93be" target="_top" xlink:title=" ">
<polygon fill="white" stroke="black" points="221,-38.5 221,-57.5 308,-57.5 308,-38.5 221,-38.5"/>
<text text-anchor="middle" x="264.5" y="-45.5" font-family="Helvetica,sans-Serif" font-size="10.00">pert_ortho_norm</text>
</a>
</g>
</g>
<!-- Node2&#45;&gt;Node8 -->
<g id="edge5" class="edge">
<title>Node2&#45;&gt;Node8</title>
<path fill="none" stroke="midnightblue" d="M185.16,-60.83C193.34,-59.49 202.14,-58.05 210.78,-56.64"/>
<polygon fill="midnightblue" stroke="midnightblue" points="211.49,-60.06 220.8,-54.99 210.36,-53.16 211.49,-60.06"/>
</g>
<!-- Node20 -->
<g id="node8" class="node">
<title>Node20</title>
<g id="a_node8"><a xlink:href="pertsupport_8f.html#a7470089203075392ac82b6451c42dc0b" target="_top" xlink:title=" ">
<polygon fill="white" stroke="black" points="472,-19.5 472,-38.5 537,-38.5 537,-19.5 472,-19.5"/>
<text text-anchor="middle" x="504.5" y="-26.5" font-family="Helvetica,sans-Serif" font-size="10.00">rescalepert</text>
</a>
</g>
</g>
<!-- Node2&#45;&gt;Node20 -->
<g id="edge11" class="edge">
<title>Node2&#45;&gt;Node20</title>
<path fill="none" stroke="midnightblue" d="M161.07,-57.44C175.25,-48.09 198.53,-34.47 221,-29 304.5,-8.69 406.03,-16.18 461.8,-22.93"/>
<polygon fill="midnightblue" stroke="midnightblue" points="461.63,-26.44 471.99,-24.22 462.51,-19.49 461.63,-26.44"/>
</g>
<!-- Node4 -->
<g id="node4" class="node">
<title>Node4</title>
<g id="a_node4"><a xlink:href="math_8f.html#a2e1d409e78d80b2a41ac715c2d5f607b" target="_top" xlink:title=" ">
<polygon fill="white" stroke="red" points="370,-114.5 370,-133.5 410,-133.5 410,-114.5 370,-114.5"/>
<text text-anchor="middle" x="390" y="-121.5" font-family="Helvetica,sans-Serif" font-size="10.00">glsc3</text>
</a>
</g>
</g>
<!-- Node3&#45;&gt;Node4 -->
<g id="edge3" class="edge">
<title>Node3&#45;&gt;Node4</title>
<path fill="none" stroke="midnightblue" d="M290.79,-124C310.74,-124 338.6,-124 359.56,-124"/>
<polygon fill="midnightblue" stroke="midnightblue" points="359.81,-127.5 369.81,-124 359.81,-120.5 359.81,-127.5"/>
</g>
<!-- Node9 -->
<g id="node7" class="node">
<title>Node9</title>
<g id="a_node7"><a xlink:href="pertsupport_8f.html#a20a5d268d2532526bd62be50a952184d" target="_top" xlink:title=" ">
<polygon fill="white" stroke="red" points="344,-38.5 344,-57.5 436,-57.5 436,-38.5 344,-38.5"/>
<text text-anchor="middle" x="390" y="-45.5" font-family="Helvetica,sans-Serif" font-size="10.00">pert_ortho_norm1</text>
</a>
</g>
</g>
<!-- Node8&#45;&gt;Node9 -->
<g id="edge6" class="edge">
<title>Node8&#45;&gt;Node9</title>
<path fill="none" stroke="midnightblue" d="M308,-48C316.33,-48 325.17,-48 333.84,-48"/>
<polygon fill="midnightblue" stroke="midnightblue" points="333.89,-51.5 343.89,-48 333.89,-44.5 333.89,-51.5"/>
</g>
<!-- Node9&#45;&gt;Node20 -->
<g id="edge7" class="edge">
<title>Node9&#45;&gt;Node20</title>
<path fill="none" stroke="midnightblue" d="M436.11,-40.38C444.63,-38.94 453.5,-37.44 461.9,-36.02"/>
<polygon fill="midnightblue" stroke="midnightblue" points="462.59,-39.46 471.87,-34.34 461.42,-32.56 462.59,-39.46"/>
</g>
<!-- Node21 -->
<g id="node9" class="node">
<title>Node21</title>
<g id="a_node9"><a xlink:href="math_8f.html#ad2b51b68d370651f4f6d81952503e7be" target="_top" xlink:title=" ">
<polygon fill="white" stroke="black" points="659,-19.5 659,-38.5 700,-38.5 700,-19.5 659,-19.5"/>
<text text-anchor="middle" x="679.5" y="-26.5" font-family="Helvetica,sans-Serif" font-size="10.00">cmult</text>
</a>
</g>
</g>
<!-- Node20&#45;&gt;Node21 -->
<g id="edge8" class="edge">
<title>Node20&#45;&gt;Node21</title>
<path fill="none" stroke="midnightblue" d="M537.23,-29C568.99,-29 617.49,-29 648.59,-29"/>
<polygon fill="midnightblue" stroke="midnightblue" points="648.81,-32.5 658.81,-29 648.81,-25.5 648.81,-32.5"/>
</g>
<!-- Node22 -->
<g id="node10" class="node">
<title>Node22</title>
<g id="a_node10"><a xlink:href="pertsupport_8f.html#ad419d03b0c681e3dff7b1e914e830029" target="_top" xlink:title=" ">
<polygon fill="white" stroke="black" points="573,-0.5 573,-19.5 623,-19.5 623,-0.5 573,-0.5"/>
<text text-anchor="middle" x="598" y="-7.5" font-family="Helvetica,sans-Serif" font-size="10.00">opscale</text>
</a>
</g>
</g>
<!-- Node20&#45;&gt;Node22 -->
<g id="edge9" class="edge">
<title>Node20&#45;&gt;Node22</title>
<path fill="none" stroke="midnightblue" d="M537.25,-22.41C545.54,-20.69 554.51,-18.82 562.92,-17.08"/>
<polygon fill="midnightblue" stroke="midnightblue" points="563.73,-20.48 572.81,-15.02 562.31,-13.63 563.73,-20.48"/>
</g>
<!-- Node22&#45;&gt;Node21 -->
<g id="edge10" class="edge">
<title>Node22&#45;&gt;Node21</title>
<path fill="none" stroke="midnightblue" d="M623.28,-15.8C631.4,-17.74 640.54,-19.93 649,-21.95"/>
<polygon fill="midnightblue" stroke="midnightblue" points="648.35,-25.39 658.89,-24.31 649.98,-18.58 648.35,-25.39"/>
</g>
</g>
</svg>
        <g id="navigator" transform="translate(0 0)" fill="#404254">
                <rect fill="#f2f5e9" fill-opacity="0.5" stroke="#606060" stroke-width=".5" x="0" y="0" width="60" height="60"/>
                <use id="zoomplus" xlink:href="#zoomPlus" x="17" y="9" onmousedown="handleZoom(evt,'in')"/>
                <use id="zoomminus" xlink:href="#zoomMin" x="42" y="9" onmousedown="handleZoom(evt,'out')"/>
                <use id="reset" xlink:href="#resetDef" x="30" y="36" onmousedown="handleReset()"/>
                <g id="arrowUp" xlink:href="#dirArrow" transform="translate(30 24)" onmousedown="handlePan(0,-1)">
                  <use xlink:href="#rim" fill="#404040">
                        <set attributeName="fill" to="#808080" begin="arrowUp.mouseover" end="arrowUp.mouseout"/>
                  </use>
                  <path fill="none" stroke="white" stroke-width="1.5" d="M0,-3.0v7 M-2.5,-0.5L0,-3.0L2.5,-0.5"/>
                </g>
                <g id="arrowRight" xlink:href="#dirArrow" transform="rotate(90) translate(36 -43)" onmousedown="handlePan(1,0)">
                  <use xlink:href="#rim" fill="#404040">
                        <set attributeName="fill" to="#808080" begin="arrowRight.mouseover" end="arrowRight.mouseout"/>
                  </use>
                  <path fill="none" stroke="white" stroke-width="1.5" d="M0,-3.0v7 M-2.5,-0.5L0,-3.0L2.5,-0.5"/>
                </g>
                <g id="arrowDown" xlink:href="#dirArrow" transform="rotate(180) translate(-30 -48)" onmousedown="handlePan(0,1)">
                  <use xlink:href="#rim" fill="#404040">
                        <set attributeName="fill" to="#808080" begin="arrowDown.mouseover" end="arrowDown.mouseout"/>
                  </use>
                  <path fill="none" stroke="white" stroke-width="1.5" d="M0,-3.0v7 M-2.5,-0.5L0,-3.0L2.5,-0.5"/>
                </g>
                <g id="arrowLeft" xlink:href="#dirArrow" transform="rotate(270) translate(-36 17)" onmousedown="handlePan(-1,0)">
                  <use xlink:href="#rim" fill="#404040">
                        <set attributeName="fill" to="#808080" begin="arrowLeft.mouseover" end="arrowLeft.mouseout"/>
                  </use>
                  <path fill="none" stroke="white" stroke-width="1.5" d="M0,-3.0v7 M-2.5,-0.5L0,-3.0L2.5,-0.5"/>
                </g>
        </g>
        <svg viewBox="0 0 15 15" width="100%" height="30px" preserveAspectRatio="xMaxYMin meet">
         <g id="arrow_out" transform="scale(0.3 0.3)">
          <a xlink:href="perturb_8f_a65e5beb91e11babfb59ffcd890e29f51_cgraph_org.svg" target="_base">
           <rect id="button" ry="5" rx="5" y="6" x="6" height="38" width="38"
                fill="#f2f5e9" fill-opacity="0.5" stroke="#606060" stroke-width="1.0"/>
           <path id="arrow"
             d="M 11.500037,31.436501 C 11.940474,20.09759 22.043105,11.32322 32.158766,21.979434 L 37.068811,17.246167 C 37.068811,17.246167 37.088388,32 37.088388,32 L 22.160133,31.978069 C 22.160133,31.978069 26.997745,27.140456 26.997745,27.140456 C 18.528582,18.264221 13.291696,25.230495 11.500037,31.436501 z"
             style="fill:#404040;"/>
          </a>
         </g>
        </svg>
</svg>
