<?xml version="1.0" encoding="UTF-8" standalone="no"?>
<!DOCTYPE svg PUBLIC "-//W3C//DTD SVG 1.1//EN"
 "http://www.w3.org/Graphics/SVG/1.1/DTD/svg11.dtd">
<!-- Generated by graphviz version 2.46.0 (0)
 -->
<!-- Title: convop_adj Pages: 1 -->
<svg width="479pt" height="161pt"
 viewBox="0.00 0.00 479.00 161.00" xmlns="http://www.w3.org/2000/svg" xmlns:xlink="http://www.w3.org/1999/xlink">
<g id="graph0" class="graph" transform="scale(1 1) rotate(0) translate(4 157)">
<title>convop_adj</title>
<polygon fill="white" stroke="transparent" points="-4,4 -4,-157 475,-157 475,4 -4,4"/>
<!-- Node1 -->
<g id="node1" class="node">
<title>Node1</title>
<g id="a_node1"><a xlink:title=" ">
<polygon fill="#bfbfbf" stroke="black" points="0,-57.5 0,-76.5 66,-76.5 66,-57.5 0,-57.5"/>
<text text-anchor="middle" x="33" y="-64.5" font-family="Helvetica,sans-Serif" font-size="10.00">convop_adj</text>
</a>
</g>
</g>
<!-- Node2 -->
<g id="node2" class="node">
<title>Node2</title>
<g id="a_node2"><a xlink:href="convect_8f.html#af2ed8cbbeeddc66bc8705dbf318b126d" target="_top" xlink:title=" ">
<polygon fill="white" stroke="black" points="116,-114.5 116,-133.5 168,-133.5 168,-114.5 116,-114.5"/>
<text text-anchor="middle" x="142" y="-121.5" font-family="Helvetica,sans-Serif" font-size="10.00">grad_rst</text>
</a>
</g>
</g>
<!-- Node1&#45;&gt;Node2 -->
<g id="edge1" class="edge">
<title>Node1&#45;&gt;Node2</title>
<path fill="none" stroke="midnightblue" d="M52.15,-76.67C69.16,-85.73 94.8,-99.39 114.18,-109.71"/>
<polygon fill="midnightblue" stroke="midnightblue" points="112.65,-112.86 123.12,-114.47 115.94,-106.68 112.65,-112.86"/>
</g>
<!-- Node25 -->
<g id="node7" class="node">
<title>Node25</title>
<g id="a_node7"><a xlink:href="convect_8f.html#a9560f353879de6e4a86926a9831842a3" target="_top" xlink:title=" ">
<polygon fill="white" stroke="red" points="224,-38.5 224,-57.5 278,-57.5 278,-38.5 224,-38.5"/>
<text text-anchor="middle" x="251" y="-45.5" font-family="Helvetica,sans-Serif" font-size="10.00">intp_rstd</text>
</a>
</g>
</g>
<!-- Node1&#45;&gt;Node25 -->
<g id="edge6" class="edge">
<title>Node1&#45;&gt;Node25</title>
<path fill="none" stroke="midnightblue" d="M66.22,-69.51C96.31,-71.26 142.42,-72.43 182,-67 192.57,-65.55 203.8,-62.89 214.04,-60.01"/>
<polygon fill="midnightblue" stroke="midnightblue" points="215.28,-63.3 223.87,-57.1 213.29,-56.59 215.28,-63.3"/>
</g>
<!-- Node34 -->
<g id="node9" class="node">
<title>Node34</title>
<g id="a_node9"><a xlink:href="math_8f.html#a12a3f9854732798780dfe93ecd4e38bf" target="_top" xlink:title=" ">
<polygon fill="white" stroke="red" points="118.5,-38.5 118.5,-57.5 165.5,-57.5 165.5,-38.5 118.5,-38.5"/>
<text text-anchor="middle" x="142" y="-45.5" font-family="Helvetica,sans-Serif" font-size="10.00">invcol2</text>
</a>
</g>
</g>
<!-- Node1&#45;&gt;Node34 -->
<g id="edge10" class="edge">
<title>Node1&#45;&gt;Node34</title>
<path fill="none" stroke="midnightblue" d="M66.1,-61.3C79.41,-58.94 94.84,-56.2 108.22,-53.82"/>
<polygon fill="midnightblue" stroke="midnightblue" points="109.19,-57.2 118.43,-52.01 107.97,-50.31 109.19,-57.2"/>
</g>
<!-- Node37 -->
<g id="node10" class="node">
<title>Node37</title>
<g id="a_node10"><a xlink:href="convect2_8f.html#adcae8f87adfb3b7c619cd72c46ccd4ac" target="_top" xlink:title=" ">
<polygon fill="white" stroke="red" points="102,-0.5 102,-19.5 182,-19.5 182,-0.5 102,-0.5"/>
<text text-anchor="middle" x="142" y="-7.5" font-family="Helvetica,sans-Serif" font-size="10.00">set_dealias_rx</text>
</a>
</g>
</g>
<!-- Node1&#45;&gt;Node37 -->
<g id="edge11" class="edge">
<title>Node1&#45;&gt;Node37</title>
<path fill="none" stroke="midnightblue" d="M50.62,-57.37C64.3,-49.52 84.26,-38.27 102,-29 105.1,-27.38 108.35,-25.73 111.61,-24.1"/>
<polygon fill="midnightblue" stroke="midnightblue" points="113.22,-27.2 120.65,-19.65 110.13,-20.92 113.22,-27.2"/>
</g>
<!-- Node3 -->
<g id="node3" class="node">
<title>Node3</title>
<g id="a_node3"><a xlink:href="convect_8f.html#a55af9c415691c88ebab5d5f4e2950397" target="_top" xlink:title=" ">
<polygon fill="white" stroke="red" points="320,-133.5 320,-152.5 385,-152.5 385,-133.5 320,-133.5"/>
<text text-anchor="middle" x="352.5" y="-140.5" font-family="Helvetica,sans-Serif" font-size="10.00">get_dgl_ptr</text>
</a>
</g>
</g>
<!-- Node2&#45;&gt;Node3 -->
<g id="edge2" class="edge">
<title>Node2&#45;&gt;Node3</title>
<path fill="none" stroke="midnightblue" d="M168.04,-132C182.48,-136.2 201.07,-140.89 218,-143 248.56,-146.81 283.36,-146.67 309.76,-145.64"/>
<polygon fill="midnightblue" stroke="midnightblue" points="309.97,-149.14 319.8,-145.2 309.66,-142.15 309.97,-149.14"/>
</g>
<!-- Node23 -->
<g id="node5" class="node">
<title>Node23</title>
<g id="a_node5"><a xlink:href="navier5_8f.html#a53feb767cebebba399ab3c5a50f53155" target="_top" xlink:title=" ">
<polygon fill="white" stroke="black" points="218,-114.5 218,-133.5 284,-133.5 284,-114.5 218,-114.5"/>
<text text-anchor="middle" x="251" y="-121.5" font-family="Helvetica,sans-Serif" font-size="10.00">local_grad2</text>
</a>
</g>
</g>
<!-- Node2&#45;&gt;Node23 -->
<g id="edge4" class="edge">
<title>Node2&#45;&gt;Node23</title>
<path fill="none" stroke="midnightblue" d="M168.09,-124C179.9,-124 194.32,-124 207.74,-124"/>
<polygon fill="midnightblue" stroke="midnightblue" points="207.76,-127.5 217.76,-124 207.76,-120.5 207.76,-127.5"/>
</g>
<!-- Node24 -->
<g id="node6" class="node">
<title>Node24</title>
<g id="a_node6"><a xlink:href="navier5_8f.html#ad24367e4a843f60b63a2205aef1ba551" target="_top" xlink:title=" ">
<polygon fill="white" stroke="black" points="218,-76.5 218,-95.5 284,-95.5 284,-76.5 218,-76.5"/>
<text text-anchor="middle" x="251" y="-83.5" font-family="Helvetica,sans-Serif" font-size="10.00">local_grad3</text>
</a>
</g>
</g>
<!-- Node2&#45;&gt;Node24 -->
<g id="edge5" class="edge">
<title>Node2&#45;&gt;Node24</title>
<path fill="none" stroke="midnightblue" d="M168.09,-115.09C181.67,-110.27 198.69,-104.22 213.69,-98.9"/>
<polygon fill="midnightblue" stroke="midnightblue" points="214.95,-102.16 223.2,-95.52 212.61,-95.57 214.95,-102.16"/>
</g>
<!-- Node6 -->
<g id="node4" class="node">
<title>Node6</title>
<g id="a_node4"><a xlink:href="convect_8f.html#aef5d48d354e9e03de35748eecb7e42f9" target="_top" xlink:title=" ">
<polygon fill="white" stroke="red" points="421,-76.5 421,-95.5 471,-95.5 471,-76.5 421,-76.5"/>
<text text-anchor="middle" x="446" y="-83.5" font-family="Helvetica,sans-Serif" font-size="10.00">lim_chk</text>
</a>
</g>
</g>
<!-- Node3&#45;&gt;Node6 -->
<g id="edge3" class="edge">
<title>Node3&#45;&gt;Node6</title>
<path fill="none" stroke="midnightblue" d="M369.02,-133.33C383.3,-124.43 404.7,-111.1 421.15,-100.86"/>
<polygon fill="midnightblue" stroke="midnightblue" points="423.07,-103.78 429.71,-95.53 419.37,-97.84 423.07,-103.78"/>
</g>
<!-- Node25&#45;&gt;Node6 -->
<g id="edge9" class="edge">
<title>Node25&#45;&gt;Node6</title>
<path fill="none" stroke="midnightblue" d="M278.29,-56.15C290.83,-59.83 306.1,-64.01 320,-67 350.42,-73.54 385.48,-78.66 410.71,-81.93"/>
<polygon fill="midnightblue" stroke="midnightblue" points="410.52,-85.43 420.88,-83.22 411.4,-78.49 410.52,-85.43"/>
</g>
<!-- Node26 -->
<g id="node8" class="node">
<title>Node26</title>
<g id="a_node8"><a xlink:href="convect_8f.html#a92eec6b22d330a307e543facfa634daa" target="_top" xlink:title=" ">
<polygon fill="white" stroke="red" points="321.5,-38.5 321.5,-57.5 383.5,-57.5 383.5,-38.5 321.5,-38.5"/>
<text text-anchor="middle" x="352.5" y="-45.5" font-family="Helvetica,sans-Serif" font-size="10.00">get_int_ptr</text>
</a>
</g>
</g>
<!-- Node25&#45;&gt;Node26 -->
<g id="edge7" class="edge">
<title>Node25&#45;&gt;Node26</title>
<path fill="none" stroke="midnightblue" d="M278.14,-48C288.28,-48 300.12,-48 311.3,-48"/>
<polygon fill="midnightblue" stroke="midnightblue" points="311.3,-51.5 321.3,-48 311.3,-44.5 311.3,-51.5"/>
</g>
<!-- Node26&#45;&gt;Node6 -->
<g id="edge8" class="edge">
<title>Node26&#45;&gt;Node6</title>
<path fill="none" stroke="midnightblue" d="M376.59,-57.59C387.43,-62.09 400.53,-67.53 412.36,-72.44"/>
<polygon fill="midnightblue" stroke="midnightblue" points="411.34,-75.81 421.92,-76.41 414.03,-69.35 411.34,-75.81"/>
</g>
<!-- Node37&#45;&gt;Node25 -->
<g id="edge12" class="edge">
<title>Node37&#45;&gt;Node25</title>
<path fill="none" stroke="midnightblue" d="M170,-19.59C183.38,-24.34 199.72,-30.14 214.14,-35.26"/>
<polygon fill="midnightblue" stroke="midnightblue" points="213.15,-38.63 223.75,-38.68 215.5,-32.03 213.15,-38.63"/>
</g>
</g>
</svg>
