<?xml version="1.0" encoding="UTF-8" standalone="no"?>
<!DOCTYPE svg PUBLIC "-//W3C//DTD SVG 1.1//EN"
 "http://www.w3.org/Graphics/SVG/1.1/DTD/svg11.dtd">
<!-- Generated by graphviz version 2.46.0 (0)
 -->
<!-- Title: computelyap1 Pages: 1 -->
<svg width="600pt" height="142pt"
 viewBox="0.00 0.00 600.00 142.00" xmlns="http://www.w3.org/2000/svg" xmlns:xlink="http://www.w3.org/1999/xlink">
<g id="graph0" class="graph" transform="scale(1 1) rotate(0) translate(4 138)">
<title>computelyap1</title>
<polygon fill="white" stroke="transparent" points="-4,4 -4,-138 596,-138 596,4 -4,4"/>
<!-- Node1 -->
<g id="node1" class="node">
<title>Node1</title>
<g id="a_node1"><a xlink:title=" ">
<polygon fill="#bfbfbf" stroke="black" points="0,-57.5 0,-76.5 77,-76.5 77,-57.5 0,-57.5"/>
<text text-anchor="middle" x="38.5" y="-64.5" font-family="Helvetica,sans-Serif" font-size="10.00">computelyap1</text>
</a>
</g>
</g>
<!-- Node2 -->
<g id="node2" class="node">
<title>Node2</title>
<g id="a_node2"><a xlink:href="pertsupport_8f.html#a4e2c229c1e8c59663b6ec268c17e2a4e" target="_top" xlink:title=" ">
<polygon fill="white" stroke="black" points="130.5,-114.5 130.5,-133.5 182.5,-133.5 182.5,-114.5 130.5,-114.5"/>
<text text-anchor="middle" x="156.5" y="-121.5" font-family="Helvetica,sans-Serif" font-size="10.00">dmnorm</text>
</a>
</g>
</g>
<!-- Node1&#45;&gt;Node2 -->
<g id="edge1" class="edge">
<title>Node1&#45;&gt;Node2</title>
<path fill="none" stroke="midnightblue" d="M57.48,-76.66C72.27,-84.52 93.85,-95.78 113,-105 116.58,-106.73 120.36,-108.49 124.12,-110.22"/>
<polygon fill="midnightblue" stroke="midnightblue" points="122.78,-113.45 133.33,-114.37 125.66,-107.07 122.78,-113.45"/>
</g>
<!-- Node6 -->
<g id="node5" class="node">
<title>Node6</title>
<g id="a_node5"><a xlink:href="pertsupport_8f.html#a57a85ec65c351377d3469541aa21dd8b" target="_top" xlink:title=" ">
<polygon fill="white" stroke="black" points="125.5,-76.5 125.5,-95.5 187.5,-95.5 187.5,-76.5 125.5,-76.5"/>
<text text-anchor="middle" x="156.5" y="-83.5" font-family="Helvetica,sans-Serif" font-size="10.00">flushbuffer</text>
</a>
</g>
</g>
<!-- Node1&#45;&gt;Node6 -->
<g id="edge4" class="edge">
<title>Node1&#45;&gt;Node6</title>
<path fill="none" stroke="midnightblue" d="M77.16,-73.17C89.36,-75.17 102.93,-77.39 115.3,-79.42"/>
<polygon fill="midnightblue" stroke="midnightblue" points="114.93,-82.9 125.36,-81.06 116.06,-75.99 114.93,-82.9"/>
</g>
<!-- Node7 -->
<g id="node6" class="node">
<title>Node7</title>
<g id="a_node6"><a xlink:href="pertsupport_8f.html#ae34fb509f2c51abd7107f056adeb93be" target="_top" xlink:title=" ">
<polygon fill="white" stroke="black" points="113,-38.5 113,-57.5 200,-57.5 200,-38.5 113,-38.5"/>
<text text-anchor="middle" x="156.5" y="-45.5" font-family="Helvetica,sans-Serif" font-size="10.00">pert_ortho_norm</text>
</a>
</g>
</g>
<!-- Node1&#45;&gt;Node7 -->
<g id="edge5" class="edge">
<title>Node1&#45;&gt;Node7</title>
<path fill="none" stroke="midnightblue" d="M77.16,-60.83C85.34,-59.49 94.14,-58.05 102.78,-56.64"/>
<polygon fill="midnightblue" stroke="midnightblue" points="103.49,-60.06 112.8,-54.99 102.36,-53.16 103.49,-60.06"/>
</g>
<!-- Node19 -->
<g id="node8" class="node">
<title>Node19</title>
<g id="a_node8"><a xlink:href="pertsupport_8f.html#a7470089203075392ac82b6451c42dc0b" target="_top" xlink:title=" ">
<polygon fill="white" stroke="black" points="364,-19.5 364,-38.5 429,-38.5 429,-19.5 364,-19.5"/>
<text text-anchor="middle" x="396.5" y="-26.5" font-family="Helvetica,sans-Serif" font-size="10.00">rescalepert</text>
</a>
</g>
</g>
<!-- Node1&#45;&gt;Node19 -->
<g id="edge11" class="edge">
<title>Node1&#45;&gt;Node19</title>
<path fill="none" stroke="midnightblue" d="M53.07,-57.44C67.25,-48.09 90.53,-34.47 113,-29 196.5,-8.69 298.03,-16.18 353.8,-22.93"/>
<polygon fill="midnightblue" stroke="midnightblue" points="353.63,-26.44 363.99,-24.22 354.51,-19.49 353.63,-26.44"/>
</g>
<!-- Node3 -->
<g id="node3" class="node">
<title>Node3</title>
<g id="a_node3"><a xlink:href="math_8f.html#a2e1d409e78d80b2a41ac715c2d5f607b" target="_top" xlink:title=" ">
<polygon fill="white" stroke="black" points="262,-114.5 262,-133.5 302,-133.5 302,-114.5 262,-114.5"/>
<text text-anchor="middle" x="282" y="-121.5" font-family="Helvetica,sans-Serif" font-size="10.00">glsc3</text>
</a>
</g>
</g>
<!-- Node2&#45;&gt;Node3 -->
<g id="edge2" class="edge">
<title>Node2&#45;&gt;Node3</title>
<path fill="none" stroke="midnightblue" d="M182.79,-124C202.74,-124 230.6,-124 251.56,-124"/>
<polygon fill="midnightblue" stroke="midnightblue" points="251.81,-127.5 261.81,-124 251.81,-120.5 251.81,-127.5"/>
</g>
<!-- Node4 -->
<g id="node4" class="node">
<title>Node4</title>
<g id="a_node4"><a xlink:href="gs__test__gop__blocking_8c.html#ab2e24f9857f6d1ded7e4d556c6bc5e49" target="_top" xlink:title=" ">
<polygon fill="white" stroke="red" points="380.5,-114.5 380.5,-133.5 412.5,-133.5 412.5,-114.5 380.5,-114.5"/>
<text text-anchor="middle" x="396.5" y="-121.5" font-family="Helvetica,sans-Serif" font-size="10.00">gop</text>
</a>
</g>
</g>
<!-- Node3&#45;&gt;Node4 -->
<g id="edge3" class="edge">
<title>Node3&#45;&gt;Node4</title>
<path fill="none" stroke="midnightblue" d="M302.08,-124C320.79,-124 349.42,-124 370.05,-124"/>
<polygon fill="midnightblue" stroke="midnightblue" points="370.3,-127.5 380.3,-124 370.3,-120.5 370.3,-127.5"/>
</g>
<!-- Node8 -->
<g id="node7" class="node">
<title>Node8</title>
<g id="a_node7"><a xlink:href="pertsupport_8f.html#a20a5d268d2532526bd62be50a952184d" target="_top" xlink:title=" ">
<polygon fill="white" stroke="red" points="236,-38.5 236,-57.5 328,-57.5 328,-38.5 236,-38.5"/>
<text text-anchor="middle" x="282" y="-45.5" font-family="Helvetica,sans-Serif" font-size="10.00">pert_ortho_norm1</text>
</a>
</g>
</g>
<!-- Node7&#45;&gt;Node8 -->
<g id="edge6" class="edge">
<title>Node7&#45;&gt;Node8</title>
<path fill="none" stroke="midnightblue" d="M200,-48C208.33,-48 217.17,-48 225.84,-48"/>
<polygon fill="midnightblue" stroke="midnightblue" points="225.89,-51.5 235.89,-48 225.89,-44.5 225.89,-51.5"/>
</g>
<!-- Node8&#45;&gt;Node19 -->
<g id="edge7" class="edge">
<title>Node8&#45;&gt;Node19</title>
<path fill="none" stroke="midnightblue" d="M328.11,-40.38C336.63,-38.94 345.5,-37.44 353.9,-36.02"/>
<polygon fill="midnightblue" stroke="midnightblue" points="354.59,-39.46 363.87,-34.34 353.42,-32.56 354.59,-39.46"/>
</g>
<!-- Node20 -->
<g id="node9" class="node">
<title>Node20</title>
<g id="a_node9"><a xlink:href="math_8f.html#ad2b51b68d370651f4f6d81952503e7be" target="_top" xlink:title=" ">
<polygon fill="white" stroke="black" points="551,-19.5 551,-38.5 592,-38.5 592,-19.5 551,-19.5"/>
<text text-anchor="middle" x="571.5" y="-26.5" font-family="Helvetica,sans-Serif" font-size="10.00">cmult</text>
</a>
</g>
</g>
<!-- Node19&#45;&gt;Node20 -->
<g id="edge8" class="edge">
<title>Node19&#45;&gt;Node20</title>
<path fill="none" stroke="midnightblue" d="M429.23,-29C460.99,-29 509.49,-29 540.59,-29"/>
<polygon fill="midnightblue" stroke="midnightblue" points="540.81,-32.5 550.81,-29 540.81,-25.5 540.81,-32.5"/>
</g>
<!-- Node21 -->
<g id="node10" class="node">
<title>Node21</title>
<g id="a_node10"><a xlink:href="pertsupport_8f.html#ad419d03b0c681e3dff7b1e914e830029" target="_top" xlink:title=" ">
<polygon fill="white" stroke="black" points="465,-0.5 465,-19.5 515,-19.5 515,-0.5 465,-0.5"/>
<text text-anchor="middle" x="490" y="-7.5" font-family="Helvetica,sans-Serif" font-size="10.00">opscale</text>
</a>
</g>
</g>
<!-- Node19&#45;&gt;Node21 -->
<g id="edge9" class="edge">
<title>Node19&#45;&gt;Node21</title>
<path fill="none" stroke="midnightblue" d="M429.25,-22.41C437.54,-20.69 446.51,-18.82 454.92,-17.08"/>
<polygon fill="midnightblue" stroke="midnightblue" points="455.73,-20.48 464.81,-15.02 454.31,-13.63 455.73,-20.48"/>
</g>
<!-- Node21&#45;&gt;Node20 -->
<g id="edge10" class="edge">
<title>Node21&#45;&gt;Node20</title>
<path fill="none" stroke="midnightblue" d="M515.28,-15.8C523.4,-17.74 532.54,-19.93 541,-21.95"/>
<polygon fill="midnightblue" stroke="midnightblue" points="540.35,-25.39 550.89,-24.31 541.98,-18.58 540.35,-25.39"/>
</g>
</g>
</svg>
