<?xml version="1.0" encoding="UTF-8" standalone="no"?>
<!DOCTYPE svg PUBLIC "-//W3C//DTD SVG 1.1//EN"
 "http://www.w3.org/Graphics/SVG/1.1/DTD/svg11.dtd">
<!-- Generated by graphviz version 2.46.0 (0)
 -->
<!-- Title: opadd2cm Pages: 1 -->
<svg width="407pt" height="142pt"
 viewBox="0.00 0.00 407.00 142.00" xmlns="http://www.w3.org/2000/svg" xmlns:xlink="http://www.w3.org/1999/xlink">
<g id="graph0" class="graph" transform="scale(1 1) rotate(0) translate(4 138)">
<title>opadd2cm</title>
<polygon fill="white" stroke="transparent" points="-4,4 -4,-138 403,-138 403,4 -4,4"/>
<!-- Node1 -->
<g id="node1" class="node">
<title>Node1</title>
<g id="a_node1"><a xlink:title=" ">
<polygon fill="#bfbfbf" stroke="black" points="337,-76.5 337,-95.5 399,-95.5 399,-76.5 337,-76.5"/>
<text text-anchor="middle" x="368" y="-83.5" font-family="Helvetica,sans-Serif" font-size="10.00">opadd2cm</text>
</a>
</g>
</g>
<!-- Node2 -->
<g id="node2" class="node">
<title>Node2</title>
<g id="a_node2"><a xlink:href="plan4_8f.html#a0afe6a03f628b5d52eeb491f7baff5b6" target="_top" xlink:title=" ">
<polygon fill="white" stroke="black" points="247.5,-104.5 247.5,-123.5 298.5,-123.5 298.5,-104.5 247.5,-104.5"/>
<text text-anchor="middle" x="273" y="-111.5" font-family="Helvetica,sans-Serif" font-size="10.00">crespsp</text>
</a>
</g>
</g>
<!-- Node1&#45;&gt;Node2 -->
<g id="edge1" class="edge">
<title>Node1&#45;&gt;Node2</title>
<path fill="none" stroke="midnightblue" d="M327.01,-98.04C317.41,-100.93 307.44,-103.93 298.77,-106.54"/>
<polygon fill="midnightblue" stroke="midnightblue" points="328.24,-101.33 336.81,-95.09 326.22,-94.62 328.24,-101.33"/>
</g>
<!-- Node13 -->
<g id="node5" class="node">
<title>Node13</title>
<g id="a_node5"><a xlink:href="induct_8f.html#aeb2c6d4ae2c98143118acce2419c034d" target="_top" xlink:title=" ">
<polygon fill="white" stroke="black" points="245,-57.5 245,-76.5 301,-76.5 301,-57.5 245,-57.5"/>
<text text-anchor="middle" x="273" y="-64.5" font-family="Helvetica,sans-Serif" font-size="10.00">incomprn</text>
</a>
</g>
</g>
<!-- Node1&#45;&gt;Node13 -->
<g id="edge4" class="edge">
<title>Node1&#45;&gt;Node13</title>
<path fill="none" stroke="midnightblue" d="M326.85,-77.8C318.2,-76.03 309.24,-74.2 301.22,-72.56"/>
<polygon fill="midnightblue" stroke="midnightblue" points="326.31,-81.26 336.81,-79.83 327.71,-74.4 326.31,-81.26"/>
</g>
<!-- Node3 -->
<g id="node3" class="node">
<title>Node3</title>
<g id="a_node3"><a xlink:href="plan4_8f.html#a247fc105464de543a464773054eb509e" target="_top" xlink:title=" ">
<polygon fill="white" stroke="black" points="72.5,-114.5 72.5,-133.5 112.5,-133.5 112.5,-114.5 72.5,-114.5"/>
<text text-anchor="middle" x="92.5" y="-121.5" font-family="Helvetica,sans-Serif" font-size="10.00">plan4</text>
</a>
</g>
</g>
<!-- Node2&#45;&gt;Node3 -->
<g id="edge2" class="edge">
<title>Node2&#45;&gt;Node3</title>
<path fill="none" stroke="midnightblue" d="M236.79,-115.97C199.57,-118.06 142.24,-121.27 112.64,-122.93"/>
<polygon fill="midnightblue" stroke="midnightblue" points="237.39,-119.44 247.18,-115.39 237,-112.46 237.39,-119.44"/>
</g>
<!-- Node4 -->
<g id="node4" class="node">
<title>Node4</title>
<g id="a_node4"><a xlink:href="drive2_8f.html#ab0aeca9ad3db8be87a01ba29d069d71e" target="_top" xlink:title=" ">
<polygon fill="white" stroke="red" points="0,-38.5 0,-57.5 35,-57.5 35,-38.5 0,-38.5"/>
<text text-anchor="middle" x="17.5" y="-45.5" font-family="Helvetica,sans-Serif" font-size="10.00">fluid</text>
</a>
</g>
</g>
<!-- Node3&#45;&gt;Node4 -->
<g id="edge3" class="edge">
<title>Node3&#45;&gt;Node4</title>
<path fill="none" stroke="midnightblue" d="M73.42,-107.4C72.6,-106.59 71.79,-105.79 71,-105 55.04,-88.99 37.42,-69.45 27.19,-57.9"/>
<polygon fill="midnightblue" stroke="midnightblue" points="71.25,-110.16 80.92,-114.49 76.06,-105.07 71.25,-110.16"/>
</g>
<!-- Node14 -->
<g id="node6" class="node">
<title>Node14</title>
<g id="a_node6"><a xlink:href="induct_8f.html#adef470718d07d8b4c7f6bf32b2a9ecb9" target="_top" xlink:title=" ">
<polygon fill="white" stroke="black" points="150,-76.5 150,-95.5 209,-95.5 209,-76.5 150,-76.5"/>
<text text-anchor="middle" x="179.5" y="-83.5" font-family="Helvetica,sans-Serif" font-size="10.00">elsasserh</text>
</a>
</g>
</g>
<!-- Node13&#45;&gt;Node14 -->
<g id="edge5" class="edge">
<title>Node13&#45;&gt;Node14</title>
<path fill="none" stroke="midnightblue" d="M234.51,-74.78C226.06,-76.54 217.23,-78.37 209.2,-80.04"/>
<polygon fill="midnightblue" stroke="midnightblue" points="235.47,-78.16 244.55,-72.7 234.04,-71.31 235.47,-78.16"/>
</g>
<!-- Node16 -->
<g id="node8" class="node">
<title>Node16</title>
<g id="a_node8"><a xlink:href="plan5_8f.html#a1c77871dc9883719557071c0006dc66e" target="_top" xlink:title=" ">
<polygon fill="white" stroke="black" points="154,-38.5 154,-57.5 205,-57.5 205,-38.5 154,-38.5"/>
<text text-anchor="middle" x="179.5" y="-45.5" font-family="Helvetica,sans-Serif" font-size="10.00">midstep</text>
</a>
</g>
</g>
<!-- Node13&#45;&gt;Node16 -->
<g id="edge7" class="edge">
<title>Node13&#45;&gt;Node16</title>
<path fill="none" stroke="midnightblue" d="M234.5,-59.21C224.6,-57.16 214.16,-54.99 205.13,-53.11"/>
<polygon fill="midnightblue" stroke="midnightblue" points="234.04,-62.69 244.55,-61.3 235.47,-55.84 234.04,-62.69"/>
</g>
<!-- Node18 -->
<g id="node10" class="node">
<title>Node18</title>
<g id="a_node10"><a xlink:href="planx_8f.html#a142f9186a662d3de60f09bb0ee26782d" target="_top" xlink:title=" ">
<polygon fill="white" stroke="black" points="159.5,-0.5 159.5,-19.5 199.5,-19.5 199.5,-0.5 159.5,-0.5"/>
<text text-anchor="middle" x="179.5" y="-7.5" font-family="Helvetica,sans-Serif" font-size="10.00">plan3</text>
</a>
</g>
</g>
<!-- Node13&#45;&gt;Node18 -->
<g id="edge10" class="edge">
<title>Node13&#45;&gt;Node18</title>
<path fill="none" stroke="midnightblue" d="M247.89,-51.98C231.38,-41.7 210,-28.38 195.79,-19.53"/>
<polygon fill="midnightblue" stroke="midnightblue" points="246.14,-55.01 256.48,-57.33 249.84,-49.07 246.14,-55.01"/>
</g>
<!-- Node15 -->
<g id="node7" class="node">
<title>Node15</title>
<g id="a_node7"><a xlink:href="induct_8f.html#aa44a44eb5a5e3f510211f8fd8e6b12b7" target="_top" xlink:title=" ">
<polygon fill="white" stroke="red" points="71,-76.5 71,-95.5 114,-95.5 114,-76.5 71,-76.5"/>
<text text-anchor="middle" x="92.5" y="-83.5" font-family="Helvetica,sans-Serif" font-size="10.00">induct</text>
</a>
</g>
</g>
<!-- Node14&#45;&gt;Node15 -->
<g id="edge6" class="edge">
<title>Node14&#45;&gt;Node15</title>
<path fill="none" stroke="midnightblue" d="M139.61,-86C130.84,-86 121.87,-86 114.19,-86"/>
<polygon fill="midnightblue" stroke="midnightblue" points="139.72,-89.5 149.72,-86 139.72,-82.5 139.72,-89.5"/>
</g>
<!-- Node17 -->
<g id="node9" class="node">
<title>Node17</title>
<g id="a_node9"><a xlink:href="plan5_8f.html#ae6f47947bd1a89d608ae3b90ac8f433d" target="_top" xlink:title=" ">
<polygon fill="white" stroke="black" points="72.5,-38.5 72.5,-57.5 112.5,-57.5 112.5,-38.5 72.5,-38.5"/>
<text text-anchor="middle" x="92.5" y="-45.5" font-family="Helvetica,sans-Serif" font-size="10.00">plan5</text>
</a>
</g>
</g>
<!-- Node16&#45;&gt;Node17 -->
<g id="edge8" class="edge">
<title>Node16&#45;&gt;Node17</title>
<path fill="none" stroke="midnightblue" d="M143.64,-48C133.04,-48 121.79,-48 112.63,-48"/>
<polygon fill="midnightblue" stroke="midnightblue" points="143.91,-51.5 153.91,-48 143.91,-44.5 143.91,-51.5"/>
</g>
<!-- Node17&#45;&gt;Node4 -->
<g id="edge9" class="edge">
<title>Node17&#45;&gt;Node4</title>
<path fill="none" stroke="midnightblue" d="M62.06,-48C52.96,-48 43.25,-48 35.32,-48"/>
<polygon fill="midnightblue" stroke="midnightblue" points="62.32,-51.5 72.32,-48 62.32,-44.5 62.32,-51.5"/>
</g>
<!-- Node18&#45;&gt;Node4 -->
<g id="edge11" class="edge">
<title>Node18&#45;&gt;Node4</title>
<path fill="none" stroke="midnightblue" d="M149.3,-13.77C127.51,-16.92 97.12,-22.02 71,-29 58.83,-32.25 45.48,-37.1 35.29,-41.09"/>
<polygon fill="midnightblue" stroke="midnightblue" points="149.83,-17.23 159.25,-12.38 148.86,-10.3 149.83,-17.23"/>
</g>
</g>
</svg>
