<?xml version="1.0" encoding="UTF-8" standalone="no"?>
<!DOCTYPE svg PUBLIC "-//W3C//DTD SVG 1.1//EN"
 "http://www.w3.org/Graphics/SVG/1.1/DTD/svg11.dtd">
<!-- Generated by graphviz version 2.46.0 (0)
 -->
<!-- Title: op_curl Pages: 1 -->
<svg width="319pt" height="294pt"
 viewBox="0.00 0.00 319.00 294.00" xmlns="http://www.w3.org/2000/svg" xmlns:xlink="http://www.w3.org/1999/xlink">
<g id="graph0" class="graph" transform="scale(1 1) rotate(0) translate(4 290)">
<title>op_curl</title>
<polygon fill="white" stroke="transparent" points="-4,4 -4,-290 315,-290 315,4 -4,4"/>
<!-- Node1 -->
<g id="node1" class="node">
<title>Node1</title>
<g id="a_node1"><a xlink:title=" ">
<polygon fill="#bfbfbf" stroke="black" points="0,-133.5 0,-152.5 48,-152.5 48,-133.5 0,-133.5"/>
<text text-anchor="middle" x="24" y="-140.5" font-family="Helvetica,sans-Serif" font-size="10.00">op_curl</text>
</a>
</g>
</g>
<!-- Node2 -->
<g id="node2" class="node">
<title>Node2</title>
<g id="a_node2"><a xlink:href="math_8f.html#a30b83d516b6ab162d3fafe73e03a3e92" target="_top" xlink:title=" ">
<polygon fill="white" stroke="black" points="176,-266.5 176,-285.5 214,-285.5 214,-266.5 176,-266.5"/>
<text text-anchor="middle" x="195" y="-273.5" font-family="Helvetica,sans-Serif" font-size="10.00">add2</text>
</a>
</g>
</g>
<!-- Node1&#45;&gt;Node2 -->
<g id="edge1" class="edge">
<title>Node1&#45;&gt;Node2</title>
<path fill="none" stroke="midnightblue" d="M28.17,-152.65C35.1,-172.25 53.45,-216.88 84,-241 107.73,-259.74 141.7,-268.55 165.6,-272.62"/>
<polygon fill="midnightblue" stroke="midnightblue" points="165.38,-276.13 175.8,-274.18 166.44,-269.21 165.38,-276.13"/>
</g>
<!-- Node5 -->
<g id="node4" class="node">
<title>Node5</title>
<g id="a_node4"><a xlink:href="math_8f.html#a3470db04166d9ba91454a14cc17dbec2" target="_top" xlink:title=" ">
<polygon fill="white" stroke="black" points="177.5,-228.5 177.5,-247.5 212.5,-247.5 212.5,-228.5 177.5,-228.5"/>
<text text-anchor="middle" x="195" y="-235.5" font-family="Helvetica,sans-Serif" font-size="10.00">col2</text>
</a>
</g>
</g>
<!-- Node1&#45;&gt;Node5 -->
<g id="edge3" class="edge">
<title>Node1&#45;&gt;Node5</title>
<path fill="none" stroke="midnightblue" d="M29.45,-152.55C37.68,-169.07 56.94,-202.75 84,-219 109.39,-234.25 143.66,-238.06 167.16,-238.66"/>
<polygon fill="midnightblue" stroke="midnightblue" points="167.42,-242.16 177.44,-238.73 167.47,-235.16 167.42,-242.16"/>
</g>
<!-- Node6 -->
<g id="node5" class="node">
<title>Node6</title>
<g id="a_node5"><a xlink:href="math_8f.html#a3b43508554f14bdea8e14473d7d0803c" target="_top" xlink:title=" ">
<polygon fill="white" stroke="black" points="93,-190.5 93,-209.5 131,-209.5 131,-190.5 93,-190.5"/>
<text text-anchor="middle" x="112" y="-197.5" font-family="Helvetica,sans-Serif" font-size="10.00">copy</text>
</a>
</g>
</g>
<!-- Node1&#45;&gt;Node6 -->
<g id="edge5" class="edge">
<title>Node1&#45;&gt;Node6</title>
<path fill="none" stroke="midnightblue" d="M39.59,-152.67C52.89,-161.48 72.75,-174.65 88.16,-184.86"/>
<polygon fill="midnightblue" stroke="midnightblue" points="86.36,-187.87 96.63,-190.47 90.22,-182.03 86.36,-187.87"/>
</g>
<!-- Node7 -->
<g id="node6" class="node">
<title>Node7</title>
<g id="a_node6"><a xlink:href="navier1_8f.html#aee3ef7096c2b505346f996daf6cf6cd3" target="_top" xlink:title=" ">
<polygon fill="white" stroke="red" points="88,-152.5 88,-171.5 136,-171.5 136,-152.5 88,-152.5"/>
<text text-anchor="middle" x="112" y="-159.5" font-family="Helvetica,sans-Serif" font-size="10.00">dudxyz</text>
</a>
</g>
</g>
<!-- Node1&#45;&gt;Node7 -->
<g id="edge6" class="edge">
<title>Node1&#45;&gt;Node7</title>
<path fill="none" stroke="midnightblue" d="M48.05,-148.09C57.2,-150.11 67.91,-152.48 77.88,-154.68"/>
<polygon fill="midnightblue" stroke="midnightblue" points="77.37,-158.15 87.89,-156.89 78.88,-151.32 77.37,-158.15"/>
</g>
<!-- Node10 -->
<g id="node7" class="node">
<title>Node10</title>
<g id="a_node7"><a xlink:href="navier1_8f.html#a968374df04841450c737483b598fa474" target="_top" xlink:title=" ">
<polygon fill="white" stroke="black" points="89.5,-114.5 89.5,-133.5 134.5,-133.5 134.5,-114.5 89.5,-114.5"/>
<text text-anchor="middle" x="112" y="-121.5" font-family="Helvetica,sans-Serif" font-size="10.00">opcolv</text>
</a>
</g>
</g>
<!-- Node1&#45;&gt;Node10 -->
<g id="edge8" class="edge">
<title>Node1&#45;&gt;Node10</title>
<path fill="none" stroke="midnightblue" d="M48.05,-137.91C57.67,-135.78 69.02,-133.28 79.4,-130.98"/>
<polygon fill="midnightblue" stroke="midnightblue" points="80.36,-134.35 89.37,-128.78 78.85,-127.52 80.36,-134.35"/>
</g>
<!-- Node11 -->
<g id="node8" class="node">
<title>Node11</title>
<g id="a_node8"><a xlink:href="navier1_8f.html#a2f89b54d1ceda6fb201432d7a61bc907" target="_top" xlink:title=" ">
<polygon fill="white" stroke="red" points="84,-76.5 84,-95.5 140,-95.5 140,-76.5 84,-76.5"/>
<text text-anchor="middle" x="112" y="-83.5" font-family="Helvetica,sans-Serif" font-size="10.00">opdssum</text>
</a>
</g>
</g>
<!-- Node1&#45;&gt;Node11 -->
<g id="edge9" class="edge">
<title>Node1&#45;&gt;Node11</title>
<path fill="none" stroke="midnightblue" d="M39.59,-133.33C52.89,-124.52 72.75,-111.35 88.16,-101.14"/>
<polygon fill="midnightblue" stroke="midnightblue" points="90.22,-103.97 96.63,-95.53 86.36,-98.13 90.22,-103.97"/>
</g>
<!-- Node18 -->
<g id="node9" class="node">
<title>Node18</title>
<g id="a_node9"><a xlink:href="math_8f.html#af44de42b023a4a68cd98ea341204342d" target="_top" xlink:title=" ">
<polygon fill="white" stroke="black" points="93,-38.5 93,-57.5 131,-57.5 131,-38.5 93,-38.5"/>
<text text-anchor="middle" x="112" y="-45.5" font-family="Helvetica,sans-Serif" font-size="10.00">rzero</text>
</a>
</g>
</g>
<!-- Node1&#45;&gt;Node18 -->
<g id="edge10" class="edge">
<title>Node1&#45;&gt;Node18</title>
<path fill="none" stroke="midnightblue" d="M31.1,-133.38C41.01,-118.2 61.76,-88.22 84,-67 85.11,-65.94 86.29,-64.89 87.51,-63.86"/>
<polygon fill="midnightblue" stroke="midnightblue" points="90,-66.36 95.81,-57.51 85.74,-60.8 90,-66.36"/>
</g>
<!-- Node19 -->
<g id="node10" class="node">
<title>Node19</title>
<g id="a_node10"><a xlink:href="math_8f.html#acc66fa3dd9d846331bd95c9c8abe93ae" target="_top" xlink:title=" ">
<polygon fill="white" stroke="black" points="93,-0.5 93,-19.5 131,-19.5 131,-0.5 93,-0.5"/>
<text text-anchor="middle" x="112" y="-7.5" font-family="Helvetica,sans-Serif" font-size="10.00">sub3</text>
</a>
</g>
</g>
<!-- Node1&#45;&gt;Node19 -->
<g id="edge11" class="edge">
<title>Node1&#45;&gt;Node19</title>
<path fill="none" stroke="midnightblue" d="M28.25,-133.22C35.56,-112.26 54.98,-62.24 84,-29 84.85,-28.03 85.76,-27.08 86.71,-26.16"/>
<polygon fill="midnightblue" stroke="midnightblue" points="89.05,-28.76 94.54,-19.69 84.6,-23.36 89.05,-28.76"/>
</g>
<!-- Node3 -->
<g id="node3" class="node">
<title>Node3</title>
<g id="a_node3"><a xlink:href="comm__mpi_8f.html#af06ec29f06aac3f8809e19de2a7e8946" target="_top" xlink:title=" ">
<polygon fill="white" stroke="red" points="250,-247.5 250,-266.5 311,-266.5 311,-247.5 250,-247.5"/>
<text text-anchor="middle" x="280.5" y="-254.5" font-family="Helvetica,sans-Serif" font-size="10.00">dnekclock</text>
</a>
</g>
</g>
<!-- Node2&#45;&gt;Node3 -->
<g id="edge2" class="edge">
<title>Node2&#45;&gt;Node3</title>
<path fill="none" stroke="midnightblue" d="M214.12,-271.88C221.72,-270.15 230.87,-268.07 239.89,-266.01"/>
<polygon fill="midnightblue" stroke="midnightblue" points="240.95,-269.36 249.93,-263.73 239.4,-262.54 240.95,-269.36"/>
</g>
<!-- Node5&#45;&gt;Node3 -->
<g id="edge4" class="edge">
<title>Node5&#45;&gt;Node3</title>
<path fill="none" stroke="midnightblue" d="M212.9,-241.84C220.75,-243.63 230.44,-245.84 239.98,-248.01"/>
<polygon fill="midnightblue" stroke="midnightblue" points="239.26,-251.43 249.79,-250.24 240.81,-244.61 239.26,-251.43"/>
</g>
<!-- Node7&#45;&gt;Node5 -->
<g id="edge7" class="edge">
<title>Node7&#45;&gt;Node5</title>
<path fill="none" stroke="midnightblue" d="M127.69,-171.55C131.8,-174.43 136.18,-177.7 140,-181 154.11,-193.19 168.56,-208.63 178.96,-220.37"/>
<polygon fill="midnightblue" stroke="midnightblue" points="176.54,-222.92 185.75,-228.15 181.81,-218.32 176.54,-222.92"/>
</g>
</g>
</svg>
