<?xml version="1.0" encoding="UTF-8" standalone="no"?>
<!DOCTYPE svg PUBLIC "-//W3C//DTD SVG 1.1//EN"
 "http://www.w3.org/Graphics/SVG/1.1/DTD/svg11.dtd">
<!-- Generated by graphviz version 2.46.0 (0)
 -->
<!-- Title: plan5 Pages: 1 -->
<svg width="322pt" height="271pt"
 viewBox="0.00 0.00 322.00 271.45" xmlns="http://www.w3.org/2000/svg" xmlns:xlink="http://www.w3.org/1999/xlink">
<g id="graph0" class="graph" transform="scale(1 1) rotate(0) translate(4 267.45)">
<title>plan5</title>
<polygon fill="white" stroke="transparent" points="-4,4 -4,-267.45 318,-267.45 318,4 -4,4"/>
<!-- Node1 -->
<g id="node1" class="node">
<title>Node1</title>
<g id="a_node1"><a xlink:title=" ">
<polygon fill="#bfbfbf" stroke="black" points="0,-95.5 0,-114.5 40,-114.5 40,-95.5 0,-95.5"/>
<text text-anchor="middle" x="20" y="-102.5" font-family="Helvetica,sans-Serif" font-size="10.00">plan5</text>
</a>
</g>
</g>
<!-- Node2 -->
<g id="node2" class="node">
<title>Node2</title>
<g id="a_node2"><a xlink:href="ic_8f.html#aaf47b255d1cfac3451a8473ee6876b4f" target="_top" xlink:title=" ">
<polygon fill="white" stroke="red" points="82,-209.5 82,-228.5 150,-228.5 150,-209.5 82,-209.5"/>
<text text-anchor="middle" x="116" y="-216.5" font-family="Helvetica,sans-Serif" font-size="10.00">geom_reset</text>
</a>
</g>
</g>
<!-- Node1&#45;&gt;Node2 -->
<g id="edge1" class="edge">
<title>Node1&#45;&gt;Node2</title>
<path fill="none" stroke="midnightblue" d="M27.27,-114.76C37,-129.62 56.62,-158.57 76,-181 82.4,-188.4 89.99,-196.03 96.78,-202.49"/>
<polygon fill="midnightblue" stroke="midnightblue" points="94.55,-205.2 104.25,-209.46 99.32,-200.08 94.55,-205.2"/>
</g>
<!-- Node149 -->
<g id="node6" class="node">
<title>Node149</title>
<g id="a_node6"><a xlink:href="plan5_8f.html#a1c77871dc9883719557071c0006dc66e" target="_top" xlink:title=" ">
<polygon fill="white" stroke="red" points="90.5,-152.5 90.5,-171.5 141.5,-171.5 141.5,-152.5 90.5,-152.5"/>
<text text-anchor="middle" x="116" y="-159.5" font-family="Helvetica,sans-Serif" font-size="10.00">midstep</text>
</a>
</g>
</g>
<!-- Node1&#45;&gt;Node149 -->
<g id="edge6" class="edge">
<title>Node1&#45;&gt;Node149</title>
<path fill="none" stroke="midnightblue" d="M36.95,-114.67C51.62,-123.57 73.6,-136.9 90.5,-147.14"/>
<polygon fill="midnightblue" stroke="midnightblue" points="88.92,-150.28 99.29,-152.47 92.55,-144.3 88.92,-150.28"/>
</g>
<!-- Node442 -->
<g id="node7" class="node">
<title>Node442</title>
<g id="a_node7"><a xlink:href="navier1_8f.html#a55f0c02db80925df02a6998e17985478" target="_top" xlink:title=" ">
<polygon fill="white" stroke="black" points="192,-114.5 192,-133.5 240,-133.5 240,-114.5 192,-114.5"/>
<text text-anchor="middle" x="216" y="-121.5" font-family="Helvetica,sans-Serif" font-size="10.00">opcopy</text>
</a>
</g>
</g>
<!-- Node1&#45;&gt;Node442 -->
<g id="edge10" class="edge">
<title>Node1&#45;&gt;Node442</title>
<path fill="none" stroke="midnightblue" d="M40.31,-106.89C73.37,-110.13 141.19,-116.77 181.91,-120.76"/>
<polygon fill="midnightblue" stroke="midnightblue" points="181.6,-124.25 191.89,-121.74 182.28,-117.28 181.6,-124.25"/>
</g>
<!-- Node303 -->
<g id="node8" class="node">
<title>Node303</title>
<g id="a_node8"><a xlink:href="navier1_8f.html#a4905d51f51b57bfec184a6b44f858bdb" target="_top" xlink:title=" ">
<polygon fill="white" stroke="red" points="97,-76.5 97,-95.5 135,-95.5 135,-76.5 97,-76.5"/>
<text text-anchor="middle" x="116" y="-83.5" font-family="Helvetica,sans-Serif" font-size="10.00">ortho</text>
</a>
</g>
</g>
<!-- Node1&#45;&gt;Node303 -->
<g id="edge11" class="edge">
<title>Node1&#45;&gt;Node303</title>
<path fill="none" stroke="midnightblue" d="M40.02,-101.16C53.53,-98.42 71.9,-94.71 87.07,-91.65"/>
<polygon fill="midnightblue" stroke="midnightblue" points="87.85,-95.06 96.96,-89.65 86.47,-88.2 87.85,-95.06"/>
</g>
<!-- Node578 -->
<g id="node9" class="node">
<title>Node578</title>
<g id="a_node9"><a xlink:href="subs1_8f.html#af114fff998975a6e77422a65106222ca" target="_top" xlink:title=" ">
<polygon fill="white" stroke="red" points="91.5,-38.5 91.5,-57.5 140.5,-57.5 140.5,-38.5 91.5,-38.5"/>
<text text-anchor="middle" x="116" y="-45.5" font-family="Helvetica,sans-Serif" font-size="10.00">setprop</text>
</a>
</g>
</g>
<!-- Node1&#45;&gt;Node578 -->
<g id="edge12" class="edge">
<title>Node1&#45;&gt;Node578</title>
<path fill="none" stroke="midnightblue" d="M33.75,-95.37C44.67,-87.32 60.97,-75.79 76,-67 78.71,-65.42 81.57,-63.85 84.46,-62.32"/>
<polygon fill="midnightblue" stroke="midnightblue" points="86.3,-65.32 93.64,-57.68 83.14,-59.07 86.3,-65.32"/>
</g>
<!-- Node581 -->
<g id="node10" class="node">
<title>Node581</title>
<g id="a_node10"><a xlink:href="convect2_8f.html#a9b58d62988f53102b490531b844a1891" target="_top" xlink:title=" ">
<polygon fill="white" stroke="red" points="76,-0.5 76,-19.5 156,-19.5 156,-0.5 76,-0.5"/>
<text text-anchor="middle" x="116" y="-7.5" font-family="Helvetica,sans-Serif" font-size="10.00">setup_convect</text>
</a>
</g>
</g>
<!-- Node1&#45;&gt;Node581 -->
<g id="edge13" class="edge">
<title>Node1&#45;&gt;Node581</title>
<path fill="none" stroke="midnightblue" d="M25.89,-95.43C34.28,-79.78 52.81,-48.49 76,-29 77.78,-27.5 79.7,-26.09 81.7,-24.77"/>
<polygon fill="midnightblue" stroke="midnightblue" points="83.87,-27.55 90.77,-19.51 80.36,-21.49 83.87,-27.55"/>
</g>
<!-- Node3 -->
<g id="node3" class="node">
<title>Node3</title>
<g id="a_node3"><a xlink:href="math_8f.html#a3b43508554f14bdea8e14473d7d0803c" target="_top" xlink:title=" ">
<polygon fill="white" stroke="black" points="276,-171.5 276,-190.5 314,-190.5 314,-171.5 276,-171.5"/>
<text text-anchor="middle" x="295" y="-178.5" font-family="Helvetica,sans-Serif" font-size="10.00">copy</text>
</a>
</g>
</g>
<!-- Node2&#45;&gt;Node3 -->
<g id="edge2" class="edge">
<title>Node2&#45;&gt;Node3</title>
<path fill="none" stroke="midnightblue" d="M129.07,-228.63C151.75,-245.47 201.87,-276.68 240,-257 262.95,-245.15 278.27,-218.55 286.56,-200.18"/>
<polygon fill="midnightblue" stroke="midnightblue" points="289.88,-201.31 290.53,-190.74 283.43,-198.6 289.88,-201.31"/>
</g>
<!-- Node4 -->
<g id="node4" class="node">
<title>Node4</title>
<g id="a_node4"><a xlink:href="coef_8f.html#a8cbb48eee5edaf128d65bb31ac49c3ff" target="_top" xlink:title=" ">
<polygon fill="white" stroke="red" points="193,-228.5 193,-247.5 239,-247.5 239,-228.5 193,-228.5"/>
<text text-anchor="middle" x="216" y="-235.5" font-family="Helvetica,sans-Serif" font-size="10.00">geom1</text>
</a>
</g>
</g>
<!-- Node2&#45;&gt;Node4 -->
<g id="edge3" class="edge">
<title>Node2&#45;&gt;Node4</title>
<path fill="none" stroke="midnightblue" d="M150.18,-225.43C160.76,-227.48 172.44,-229.75 182.93,-231.78"/>
<polygon fill="midnightblue" stroke="midnightblue" points="182.47,-235.26 192.95,-233.73 183.8,-228.39 182.47,-235.26"/>
</g>
<!-- Node126 -->
<g id="node5" class="node">
<title>Node126</title>
<g id="a_node5"><a xlink:href="coef_8f.html#aa1888ed007f00d368349e09888f324ca" target="_top" xlink:title=" ">
<polygon fill="white" stroke="red" points="193,-190.5 193,-209.5 239,-209.5 239,-190.5 193,-190.5"/>
<text text-anchor="middle" x="216" y="-197.5" font-family="Helvetica,sans-Serif" font-size="10.00">geom2</text>
</a>
</g>
</g>
<!-- Node2&#45;&gt;Node126 -->
<g id="edge4" class="edge">
<title>Node2&#45;&gt;Node126</title>
<path fill="none" stroke="midnightblue" d="M150.18,-212.57C160.76,-210.52 172.44,-208.25 182.93,-206.22"/>
<polygon fill="midnightblue" stroke="midnightblue" points="183.8,-209.61 192.95,-204.27 182.47,-202.74 183.8,-209.61"/>
</g>
<!-- Node126&#45;&gt;Node3 -->
<g id="edge5" class="edge">
<title>Node126&#45;&gt;Node3</title>
<path fill="none" stroke="midnightblue" d="M239.27,-194.5C247.64,-192.44 257.25,-190.07 266.06,-187.89"/>
<polygon fill="midnightblue" stroke="midnightblue" points="267.05,-191.25 275.92,-185.46 265.37,-184.46 267.05,-191.25"/>
</g>
<!-- Node149&#45;&gt;Node3 -->
<g id="edge7" class="edge">
<title>Node149&#45;&gt;Node3</title>
<path fill="none" stroke="midnightblue" d="M141.61,-164.64C174.1,-168.13 231.17,-174.26 265.5,-177.94"/>
<polygon fill="midnightblue" stroke="midnightblue" points="265.46,-181.46 275.78,-179.04 266.21,-174.5 265.46,-181.46"/>
</g>
<!-- Node149&#45;&gt;Node442 -->
<g id="edge8" class="edge">
<title>Node149&#45;&gt;Node442</title>
<path fill="none" stroke="midnightblue" d="M141.73,-152.41C154.02,-147.65 169.04,-141.82 182.27,-136.69"/>
<polygon fill="midnightblue" stroke="midnightblue" points="183.9,-139.81 191.96,-132.93 181.37,-133.29 183.9,-139.81"/>
</g>
<!-- Node442&#45;&gt;Node3 -->
<g id="edge9" class="edge">
<title>Node442&#45;&gt;Node3</title>
<path fill="none" stroke="midnightblue" d="M230.06,-133.67C241.75,-142.32 259.09,-155.16 272.77,-165.28"/>
<polygon fill="midnightblue" stroke="midnightblue" points="271.01,-168.34 281.13,-171.47 275.18,-162.71 271.01,-168.34"/>
</g>
</g>
</svg>
