<?xml version="1.0" encoding="UTF-8" standalone="no"?>
<!DOCTYPE svg PUBLIC "-//W3C//DTD SVG 1.1//EN"
 "http://www.w3.org/Graphics/SVG/1.1/DTD/svg11.dtd">
<!-- Generated by graphviz version 2.46.0 (0)
 -->
<!-- Title: plan3 Pages: 1 -->
<svg width="225pt" height="294pt"
 viewBox="0.00 0.00 225.00 294.00" xmlns="http://www.w3.org/2000/svg" xmlns:xlink="http://www.w3.org/1999/xlink">
<g id="graph0" class="graph" transform="scale(1 1) rotate(0) translate(4 290)">
<title>plan3</title>
<polygon fill="white" stroke="transparent" points="-4,4 -4,-290 221,-290 221,4 -4,4"/>
<!-- Node1 -->
<g id="node1" class="node">
<title>Node1</title>
<g id="a_node1"><a xlink:title=" ">
<polygon fill="#bfbfbf" stroke="black" points="0,-95.5 0,-114.5 40,-114.5 40,-95.5 0,-95.5"/>
<text text-anchor="middle" x="20" y="-102.5" font-family="Helvetica,sans-Serif" font-size="10.00">plan3</text>
</a>
</g>
</g>
<!-- Node2 -->
<g id="node2" class="node">
<title>Node2</title>
<g id="a_node2"><a xlink:href="planx_8f.html#a02873cc7b2b98973667aa8cb9f2cbadb" target="_top" xlink:title=" ">
<polygon fill="white" stroke="red" points="81,-190.5 81,-209.5 127,-209.5 127,-190.5 81,-190.5"/>
<text text-anchor="middle" x="104" y="-197.5" font-family="Helvetica,sans-Serif" font-size="10.00">cresvif</text>
</a>
</g>
</g>
<!-- Node1&#45;&gt;Node2 -->
<g id="edge1" class="edge">
<title>Node1&#45;&gt;Node2</title>
<path fill="none" stroke="midnightblue" d="M27.6,-114.64C37.43,-128.72 56.84,-155.5 76,-176 78.36,-178.52 80.94,-181.07 83.56,-183.51"/>
<polygon fill="midnightblue" stroke="midnightblue" points="81.48,-186.34 91.27,-190.4 86.15,-181.13 81.48,-186.34"/>
</g>
<!-- Node64 -->
<g id="node6" class="node">
<title>Node64</title>
<g id="a_node6"><a xlink:href="navier1_8f.html#ad1bbe02eb4b6eb1d16f7612e1947dac5" target="_top" xlink:title=" ">
<polygon fill="white" stroke="red" points="168.5,-152.5 168.5,-171.5 216.5,-171.5 216.5,-152.5 168.5,-152.5"/>
<text text-anchor="middle" x="192.5" y="-159.5" font-family="Helvetica,sans-Serif" font-size="10.00">opadd2</text>
</a>
</g>
</g>
<!-- Node1&#45;&gt;Node64 -->
<g id="edge8" class="edge">
<title>Node1&#45;&gt;Node64</title>
<path fill="none" stroke="midnightblue" d="M31.94,-114.76C42.46,-123.59 59.21,-136.22 76,-143 102.31,-153.62 134.27,-158.31 157.9,-160.38"/>
<polygon fill="midnightblue" stroke="midnightblue" points="157.88,-163.89 168.12,-161.15 158.42,-156.91 157.88,-163.89"/>
</g>
<!-- Node105 -->
<g id="node7" class="node">
<title>Node105</title>
<g id="a_node7"><a xlink:href="induct_8f.html#aeb2c6d4ae2c98143118acce2419c034d" target="_top" xlink:title=" ">
<polygon fill="white" stroke="red" points="76,-114.5 76,-133.5 132,-133.5 132,-114.5 76,-114.5"/>
<text text-anchor="middle" x="104" y="-121.5" font-family="Helvetica,sans-Serif" font-size="10.00">incomprn</text>
</a>
</g>
</g>
<!-- Node1&#45;&gt;Node105 -->
<g id="edge6" class="edge">
<title>Node1&#45;&gt;Node105</title>
<path fill="none" stroke="midnightblue" d="M40.02,-109.41C47.72,-111.19 56.89,-113.32 65.81,-115.38"/>
<polygon fill="midnightblue" stroke="midnightblue" points="65.16,-118.83 75.7,-117.67 66.74,-112.01 65.16,-118.83"/>
</g>
<!-- Node448 -->
<g id="node8" class="node">
<title>Node448</title>
<g id="a_node8"><a xlink:href="navier1_8f.html#a83189b3d1938d87f00ace2e7e05d9e4c" target="_top" xlink:title=" ">
<polygon fill="white" stroke="red" points="82,-76.5 82,-95.5 126,-95.5 126,-76.5 82,-76.5"/>
<text text-anchor="middle" x="104" y="-83.5" font-family="Helvetica,sans-Serif" font-size="10.00">makef</text>
</a>
</g>
</g>
<!-- Node1&#45;&gt;Node448 -->
<g id="edge7" class="edge">
<title>Node1&#45;&gt;Node448</title>
<path fill="none" stroke="midnightblue" d="M40.02,-100.59C49.48,-98.4 61.17,-95.69 71.89,-93.21"/>
<polygon fill="midnightblue" stroke="midnightblue" points="72.82,-96.58 81.78,-90.92 71.24,-89.77 72.82,-96.58"/>
</g>
<!-- Node130 -->
<g id="node9" class="node">
<title>Node130</title>
<g id="a_node9"><a xlink:href="induct_8f.html#a1a8a16f24236d6e6f08fe4d60cb29d01" target="_top" xlink:title=" ">
<polygon fill="white" stroke="red" points="81.5,-38.5 81.5,-57.5 126.5,-57.5 126.5,-38.5 81.5,-38.5"/>
<text text-anchor="middle" x="104" y="-45.5" font-family="Helvetica,sans-Serif" font-size="10.00">ophinv</text>
</a>
</g>
</g>
<!-- Node1&#45;&gt;Node130 -->
<g id="edge9" class="edge">
<title>Node1&#45;&gt;Node130</title>
<path fill="none" stroke="midnightblue" d="M34.91,-95.33C47.47,-86.6 66.18,-73.6 80.81,-63.43"/>
<polygon fill="midnightblue" stroke="midnightblue" points="83.08,-66.11 89.3,-57.53 79.09,-60.36 83.08,-66.11"/>
</g>
<!-- Node532 -->
<g id="node10" class="node">
<title>Node532</title>
<g id="a_node10"><a xlink:href="subs1_8f.html#ae2376b70f309c6118b4e43df9cbe66b1" target="_top" xlink:title=" ">
<polygon fill="white" stroke="red" points="81,-0.5 81,-19.5 127,-19.5 127,-0.5 81,-0.5"/>
<text text-anchor="middle" x="104" y="-7.5" font-family="Helvetica,sans-Serif" font-size="10.00">sethlm</text>
</a>
</g>
</g>
<!-- Node1&#45;&gt;Node532 -->
<g id="edge10" class="edge">
<title>Node1&#45;&gt;Node532</title>
<path fill="none" stroke="midnightblue" d="M26.54,-95.34C35.59,-80.1 54.67,-50.05 76,-29 77.07,-27.94 78.21,-26.9 79.38,-25.89"/>
<polygon fill="midnightblue" stroke="midnightblue" points="81.7,-28.52 87.45,-19.63 77.41,-22.99 81.7,-28.52"/>
</g>
<!-- Node3 -->
<g id="node3" class="node">
<title>Node3</title>
<g id="a_node3"><a xlink:href="bdry_8f.html#aaa0d4258b1292dd19b9fc931df83bd68" target="_top" xlink:title=" ">
<polygon fill="white" stroke="red" points="168.5,-266.5 168.5,-285.5 216.5,-285.5 216.5,-266.5 168.5,-266.5"/>
<text text-anchor="middle" x="192.5" y="-273.5" font-family="Helvetica,sans-Serif" font-size="10.00">bcdirvc</text>
</a>
</g>
</g>
<!-- Node2&#45;&gt;Node3 -->
<g id="edge2" class="edge">
<title>Node2&#45;&gt;Node3</title>
<path fill="none" stroke="midnightblue" d="M115.54,-209.87C127.92,-221.38 149.17,-240.89 168,-257 169.15,-257.98 170.33,-258.98 171.53,-259.98"/>
<polygon fill="midnightblue" stroke="midnightblue" points="169.49,-262.83 179.44,-266.46 173.92,-257.42 169.49,-262.83"/>
</g>
<!-- Node41 -->
<g id="node4" class="node">
<title>Node41</title>
<g id="a_node4"><a xlink:href="bdry_8f.html#aee3c4fa7540835700f9b1184f52bbdd7" target="_top" xlink:title=" ">
<polygon fill="white" stroke="red" points="168,-228.5 168,-247.5 217,-247.5 217,-228.5 168,-228.5"/>
<text text-anchor="middle" x="192.5" y="-235.5" font-family="Helvetica,sans-Serif" font-size="10.00">bcneutr</text>
</a>
</g>
</g>
<!-- Node2&#45;&gt;Node41 -->
<g id="edge3" class="edge">
<title>Node2&#45;&gt;Node41</title>
<path fill="none" stroke="midnightblue" d="M126.83,-209.59C136.97,-214.04 149.21,-219.42 160.31,-224.3"/>
<polygon fill="midnightblue" stroke="midnightblue" points="159.12,-227.6 169.68,-228.41 161.93,-221.19 159.12,-227.6"/>
</g>
<!-- Node61 -->
<g id="node5" class="node">
<title>Node61</title>
<g id="a_node5"><a xlink:href="induct_8f.html#a764e3ffe319c666d0c5ffebad5d6f2c0" target="_top" xlink:title=" ">
<polygon fill="white" stroke="red" points="168,-190.5 168,-209.5 217,-209.5 217,-190.5 168,-190.5"/>
<text text-anchor="middle" x="192.5" y="-197.5" font-family="Helvetica,sans-Serif" font-size="10.00">extrapp</text>
</a>
</g>
</g>
<!-- Node2&#45;&gt;Node61 -->
<g id="edge4" class="edge">
<title>Node2&#45;&gt;Node61</title>
<path fill="none" stroke="midnightblue" d="M127.28,-200C136.49,-200 147.38,-200 157.55,-200"/>
<polygon fill="midnightblue" stroke="midnightblue" points="157.78,-203.5 167.78,-200 157.78,-196.5 157.78,-203.5"/>
</g>
<!-- Node2&#45;&gt;Node64 -->
<g id="edge5" class="edge">
<title>Node2&#45;&gt;Node64</title>
<path fill="none" stroke="midnightblue" d="M126.83,-190.41C136.97,-185.96 149.21,-180.58 160.31,-175.7"/>
<polygon fill="midnightblue" stroke="midnightblue" points="161.93,-178.81 169.68,-171.59 159.12,-172.4 161.93,-178.81"/>
</g>
</g>
</svg>
