<?xml version="1.0" encoding="UTF-8" standalone="no"?>
<!DOCTYPE svg PUBLIC "-//W3C//DTD SVG 1.1//EN"
 "http://www.w3.org/Graphics/SVG/1.1/DTD/svg11.dtd">
<!-- Generated by graphviz version 2.46.0 (0)
 -->
<!-- Title: printdiverr Pages: 1 -->
<!--zoomable 142 -->
<svg id="main" version="1.1" xmlns="http://www.w3.org/2000/svg" xmlns:xlink="http://www.w3.org/1999/xlink" xml:space="preserve" onload="init(evt)">
<style type="text/css"><![CDATA[
.edge:hover path { stroke: red; }
.edge:hover polygon { stroke: red; fill: red; }
]]></style>
<script type="text/javascript"><![CDATA[
var edges = document.getElementsByTagName('g');
if (edges && edges.length) {
  for (var i=0;i<edges.length;i++) {
    if (edges[i].id.substr(0,4)=='edge') {
      edges[i].setAttribute('class','edge');
    }
  }
}
]]></script>
        <defs>
                <circle id="rim" cx="0" cy="0" r="7"/>
                <circle id="rim2" cx="0" cy="0" r="3.5"/>
                <g id="zoomPlus">
                        <use xlink:href="#rim" fill="#404040">
                                <set attributeName="fill" to="#808080" begin="zoomplus.mouseover" end="zoomplus.mouseout"/>
                        </use>
                        <path d="M-4,0h8M0,-4v8" fill="none" stroke="white" stroke-width="1.5" pointer-events="none"/>
                </g>
                <g id="zoomMin">
                        <use xlink:href="#rim" fill="#404040">
                                <set attributeName="fill" to="#808080" begin="zoomminus.mouseover" end="zoomminus.mouseout"/>
                        </use>
                        <path d="M-4,0h8" fill="none" stroke="white" stroke-width="1.5" pointer-events="none"/>
                </g>
                <g id="dirArrow">
                        <path fill="none" stroke="white" stroke-width="1.5" d="M0,-3.0v7 M-2.5,-0.5L0,-3.0L2.5,-0.5"/>
                </g>
               <g id="resetDef">
                       <use xlink:href="#rim2" fill="#404040">
                               <set attributeName="fill" to="#808080" begin="reset.mouseover" end="reset.mouseout"/>
                       </use>
               </g>
        </defs>

<script type="text/javascript">
var viewWidth = 569;
var viewHeight = 142;
var sectionId = 'dynsection-12';
</script>
<script xlink:href="svgpan.js"/>
<svg id="graph" class="graph">
<g id="viewport">
<title>printdiverr</title>
<polygon fill="white" stroke="transparent" points="-4,4 -4,-138 565,-138 565,4 -4,4"/>
<!-- Node1 -->
<g id="node1" class="node">
<title>Node1</title>
<g id="a_node1"><a xlink:title=" ">
<polygon fill="#bfbfbf" stroke="black" points="502,-57.5 502,-76.5 561,-76.5 561,-57.5 502,-57.5"/>
<text text-anchor="middle" x="531.5" y="-64.5" font-family="Helvetica,sans-Serif" font-size="10.00">printdiverr</text>
</a>
</g>
</g>
<!-- Node2 -->
<g id="node2" class="node">
<title>Node2</title>
<g id="a_node2"><a xlink:href="drive2_8f.html#ab0aeca9ad3db8be87a01ba29d069d71e" target="_top" xlink:title=" ">
<polygon fill="white" stroke="black" points="431,-57.5 431,-76.5 466,-76.5 466,-57.5 431,-57.5"/>
<text text-anchor="middle" x="448.5" y="-64.5" font-family="Helvetica,sans-Serif" font-size="10.00">fluid</text>
</a>
</g>
</g>
<!-- Node1&#45;&gt;Node2 -->
<g id="edge1" class="edge">
<title>Node1&#45;&gt;Node2</title>
<path fill="none" stroke="midnightblue" d="M491.49,-67C482.66,-67 473.74,-67 466.4,-67"/>
<polygon fill="midnightblue" stroke="midnightblue" points="491.71,-70.5 501.71,-67 491.71,-63.5 491.71,-70.5"/>
</g>
<!-- Node3 -->
<g id="node3" class="node">
<title>Node3</title>
<g id="a_node3"><a xlink:href="ssolv_8f.html#a4bb42a5afabbba8c6518d83cbe481c17" target="_top" xlink:title=" ">
<polygon fill="white" stroke="black" points="332.5,-114.5 332.5,-133.5 383.5,-133.5 383.5,-114.5 332.5,-114.5"/>
<text text-anchor="middle" x="358" y="-121.5" font-family="Helvetica,sans-Serif" font-size="10.00">go1step</text>
</a>
</g>
</g>
<!-- Node2&#45;&gt;Node3 -->
<g id="edge2" class="edge">
<title>Node2&#45;&gt;Node3</title>
<path fill="none" stroke="midnightblue" d="M427.23,-82.7C417.67,-89.83 405.97,-98.18 395,-105 389.72,-108.28 383.81,-111.55 378.34,-114.43"/>
<polygon fill="midnightblue" stroke="midnightblue" points="429.46,-85.39 435.32,-76.57 425.24,-79.81 429.46,-85.39"/>
</g>
<!-- Node4 -->
<g id="node4" class="node">
<title>Node4</title>
<g id="a_node4"><a xlink:href="ssolv_8f.html#a2de8913c214fa083dcb088c57bd45272" target="_top" xlink:title=" ">
<polygon fill="white" stroke="black" points="335,-76.5 335,-95.5 381,-95.5 381,-76.5 335,-76.5"/>
<text text-anchor="middle" x="358" y="-83.5" font-family="Helvetica,sans-Serif" font-size="10.00">gostep</text>
</a>
</g>
</g>
<!-- Node2&#45;&gt;Node4 -->
<g id="edge3" class="edge">
<title>Node2&#45;&gt;Node4</title>
<path fill="none" stroke="midnightblue" d="M420.88,-72.71C408.24,-75.43 393.29,-78.64 381.25,-81.22"/>
<polygon fill="midnightblue" stroke="midnightblue" points="421.81,-76.09 430.85,-70.57 420.34,-69.25 421.81,-76.09"/>
</g>
<!-- Node6 -->
<g id="node6" class="node">
<title>Node6</title>
<g id="a_node6"><a xlink:href="drive1_8f.html#ae177ea7efac97f35241521b782a671c0" target="_top" xlink:title=" ">
<polygon fill="white" stroke="black" points="321,-38.5 321,-57.5 395,-57.5 395,-38.5 321,-38.5"/>
<text text-anchor="middle" x="358" y="-45.5" font-family="Helvetica,sans-Serif" font-size="10.00">nek_advance</text>
</a>
</g>
</g>
<!-- Node2&#45;&gt;Node6 -->
<g id="edge5" class="edge">
<title>Node2&#45;&gt;Node6</title>
<path fill="none" stroke="midnightblue" d="M420.83,-61.27C412.71,-59.53 403.64,-57.58 395,-55.73"/>
<polygon fill="midnightblue" stroke="midnightblue" points="420.34,-64.75 430.85,-63.43 421.81,-57.91 420.34,-64.75"/>
</g>
<!-- Node10 -->
<g id="node10" class="node">
<title>Node10</title>
<g id="a_node10"><a xlink:href="ic_8f.html#ade71f6cf65c87da7fabee5c1fcfc4a36" target="_top" xlink:title=" ">
<polygon fill="white" stroke="black" points="334,-0.5 334,-19.5 382,-19.5 382,-0.5 334,-0.5"/>
<text text-anchor="middle" x="358" y="-7.5" font-family="Helvetica,sans-Serif" font-size="10.00">prsolvv</text>
</a>
</g>
</g>
<!-- Node2&#45;&gt;Node10 -->
<g id="edge9" class="edge">
<title>Node2&#45;&gt;Node10</title>
<path fill="none" stroke="midnightblue" d="M427.23,-51.3C417.67,-44.17 405.97,-35.82 395,-29 389.72,-25.72 383.81,-22.45 378.34,-19.57"/>
<polygon fill="midnightblue" stroke="midnightblue" points="425.24,-54.19 435.32,-57.43 429.46,-48.61 425.24,-54.19"/>
</g>
<!-- Node5 -->
<g id="node5" class="node">
<title>Node5</title>
<g id="a_node5"><a xlink:href="ssolv_8f.html#a4c61f5b12a3bb1945a465966ba14ff9b" target="_top" xlink:title=" ">
<polygon fill="white" stroke="black" points="206.5,-76.5 206.5,-95.5 257.5,-95.5 257.5,-76.5 206.5,-76.5"/>
<text text-anchor="middle" x="232" y="-83.5" font-family="Helvetica,sans-Serif" font-size="10.00">gonstep</text>
</a>
</g>
</g>
<!-- Node4&#45;&gt;Node5 -->
<g id="edge4" class="edge">
<title>Node4&#45;&gt;Node5</title>
<path fill="none" stroke="midnightblue" d="M324.76,-86C303.76,-86 276.78,-86 257.53,-86"/>
<polygon fill="midnightblue" stroke="midnightblue" points="324.83,-89.5 334.83,-86 324.83,-82.5 324.83,-89.5"/>
</g>
<!-- Node7 -->
<g id="node7" class="node">
<title>Node7</title>
<g id="a_node7"><a xlink:href="drive1_8f.html#a18d3e839786263fc4cf91f7eeb714371" target="_top" xlink:title=" ">
<polygon fill="white" stroke="black" points="179,-38.5 179,-57.5 285,-57.5 285,-38.5 179,-38.5"/>
<text text-anchor="middle" x="232" y="-45.5" font-family="Helvetica,sans-Serif" font-size="10.00">nek__multi_advance</text>
</a>
</g>
</g>
<!-- Node6&#45;&gt;Node7 -->
<g id="edge6" class="edge">
<title>Node6&#45;&gt;Node7</title>
<path fill="none" stroke="midnightblue" d="M310.56,-48C302.27,-48 293.58,-48 285.14,-48"/>
<polygon fill="midnightblue" stroke="midnightblue" points="310.8,-51.5 320.8,-48 310.8,-44.5 310.8,-51.5"/>
</g>
<!-- Node8 -->
<g id="node8" class="node">
<title>Node8</title>
<g id="a_node8"><a xlink:href="drive1_8f.html#a6ad57e0cf728f343e371ef8c9a02cd8a" target="_top" xlink:title=" ">
<polygon fill="white" stroke="black" points="82,-38.5 82,-57.5 143,-57.5 143,-38.5 82,-38.5"/>
<text text-anchor="middle" x="112.5" y="-45.5" font-family="Helvetica,sans-Serif" font-size="10.00">nek_solve</text>
</a>
</g>
</g>
<!-- Node7&#45;&gt;Node8 -->
<g id="edge7" class="edge">
<title>Node7&#45;&gt;Node8</title>
<path fill="none" stroke="midnightblue" d="M168.68,-48C159.74,-48 150.91,-48 143.02,-48"/>
<polygon fill="midnightblue" stroke="midnightblue" points="168.78,-51.5 178.78,-48 168.78,-44.5 168.78,-51.5"/>
</g>
<!-- Node9 -->
<g id="node9" class="node">
<title>Node9</title>
<g id="a_node9"><a xlink:href="drive_8f.html#a13048bf28dd0734640412d69349e3857" target="_top" xlink:title=" ">
<polygon fill="white" stroke="black" points="0,-38.5 0,-57.5 46,-57.5 46,-38.5 0,-38.5"/>
<text text-anchor="middle" x="23" y="-45.5" font-family="Helvetica,sans-Serif" font-size="10.00">nekton</text>
</a>
</g>
</g>
<!-- Node8&#45;&gt;Node9 -->
<g id="edge8" class="edge">
<title>Node8&#45;&gt;Node9</title>
<path fill="none" stroke="midnightblue" d="M71.73,-48C62.93,-48 53.92,-48 46.12,-48"/>
<polygon fill="midnightblue" stroke="midnightblue" points="71.88,-51.5 81.88,-48 71.88,-44.5 71.88,-51.5"/>
</g>
</g>
</svg>
        <g id="navigator" transform="translate(0 0)" fill="#404254">
                <rect fill="#f2f5e9" fill-opacity="0.5" stroke="#606060" stroke-width=".5" x="0" y="0" width="60" height="60"/>
                <use id="zoomplus" xlink:href="#zoomPlus" x="17" y="9" onmousedown="handleZoom(evt,'in')"/>
                <use id="zoomminus" xlink:href="#zoomMin" x="42" y="9" onmousedown="handleZoom(evt,'out')"/>
                <use id="reset" xlink:href="#resetDef" x="30" y="36" onmousedown="handleReset()"/>
                <g id="arrowUp" xlink:href="#dirArrow" transform="translate(30 24)" onmousedown="handlePan(0,-1)">
                  <use xlink:href="#rim" fill="#404040">
                        <set attributeName="fill" to="#808080" begin="arrowUp.mouseover" end="arrowUp.mouseout"/>
                  </use>
                  <path fill="none" stroke="white" stroke-width="1.5" d="M0,-3.0v7 M-2.5,-0.5L0,-3.0L2.5,-0.5"/>
                </g>
                <g id="arrowRight" xlink:href="#dirArrow" transform="rotate(90) translate(36 -43)" onmousedown="handlePan(1,0)">
                  <use xlink:href="#rim" fill="#404040">
                        <set attributeName="fill" to="#808080" begin="arrowRight.mouseover" end="arrowRight.mouseout"/>
                  </use>
                  <path fill="none" stroke="white" stroke-width="1.5" d="M0,-3.0v7 M-2.5,-0.5L0,-3.0L2.5,-0.5"/>
                </g>
                <g id="arrowDown" xlink:href="#dirArrow" transform="rotate(180) translate(-30 -48)" onmousedown="handlePan(0,1)">
                  <use xlink:href="#rim" fill="#404040">
                        <set attributeName="fill" to="#808080" begin="arrowDown.mouseover" end="arrowDown.mouseout"/>
                  </use>
                  <path fill="none" stroke="white" stroke-width="1.5" d="M0,-3.0v7 M-2.5,-0.5L0,-3.0L2.5,-0.5"/>
                </g>
                <g id="arrowLeft" xlink:href="#dirArrow" transform="rotate(270) translate(-36 17)" onmousedown="handlePan(-1,0)">
                  <use xlink:href="#rim" fill="#404040">
                        <set attributeName="fill" to="#808080" begin="arrowLeft.mouseover" end="arrowLeft.mouseout"/>
                  </use>
                  <path fill="none" stroke="white" stroke-width="1.5" d="M0,-3.0v7 M-2.5,-0.5L0,-3.0L2.5,-0.5"/>
                </g>
        </g>
        <svg viewBox="0 0 15 15" width="100%" height="30px" preserveAspectRatio="xMaxYMin meet">
         <g id="arrow_out" transform="scale(0.3 0.3)">
          <a xlink:href="plan4_8f_a7dc32896a9c8fafb6bcb0103e7507909_icgraph_org.svg" target="_base">
           <rect id="button" ry="5" rx="5" y="6" x="6" height="38" width="38"
                fill="#f2f5e9" fill-opacity="0.5" stroke="#606060" stroke-width="1.0"/>
           <path id="arrow"
             d="M 11.500037,31.436501 C 11.940474,20.09759 22.043105,11.32322 32.158766,21.979434 L 37.068811,17.246167 C 37.068811,17.246167 37.088388,32 37.088388,32 L 22.160133,31.978069 C 22.160133,31.978069 26.997745,27.140456 26.997745,27.140456 C 18.528582,18.264221 13.291696,25.230495 11.500037,31.436501 z"
             style="fill:#404040;"/>
          </a>
         </g>
        </svg>
</svg>
