<?xml version="1.0" encoding="UTF-8" standalone="no"?>
<!DOCTYPE svg PUBLIC "-//W3C//DTD SVG 1.1//EN"
 "http://www.w3.org/Graphics/SVG/1.1/DTD/svg11.dtd">
<!-- Generated by graphviz version 2.46.0 (0)
 -->
<!-- Title: gen_rea_bc Pages: 1 -->
<svg width="268pt" height="294pt"
 viewBox="0.00 0.00 268.00 294.00" xmlns="http://www.w3.org/2000/svg" xmlns:xlink="http://www.w3.org/1999/xlink">
<g id="graph0" class="graph" transform="scale(1 1) rotate(0) translate(4 290)">
<title>gen_rea_bc</title>
<polygon fill="white" stroke="transparent" points="-4,4 -4,-290 264,-290 264,4 -4,4"/>
<!-- Node1 -->
<g id="node1" class="node">
<title>Node1</title>
<g id="a_node1"><a xlink:title=" ">
<polygon fill="#bfbfbf" stroke="black" points="0,-133.5 0,-152.5 67,-152.5 67,-133.5 0,-133.5"/>
<text text-anchor="middle" x="33.5" y="-140.5" font-family="Helvetica,sans-Serif" font-size="10.00">gen_rea_bc</text>
</a>
</g>
</g>
<!-- Node2 -->
<g id="node2" class="node">
<title>Node2</title>
<g id="a_node2"><a xlink:href="math_8f.html#ad7fb480cea001849621405f37167aab1" target="_top" xlink:title=" ">
<polygon fill="white" stroke="black" points="103,-266.5 103,-285.5 151,-285.5 151,-266.5 103,-266.5"/>
<text text-anchor="middle" x="127" y="-273.5" font-family="Helvetica,sans-Serif" font-size="10.00">chcopy</text>
</a>
</g>
</g>
<!-- Node1&#45;&gt;Node2 -->
<g id="edge1" class="edge">
<title>Node1&#45;&gt;Node2</title>
<path fill="none" stroke="midnightblue" d="M38.86,-152.57C48.51,-173.1 73.18,-222.35 103,-257 103.71,-257.82 104.46,-258.64 105.23,-259.45"/>
<polygon fill="midnightblue" stroke="midnightblue" points="102.92,-262.07 112.65,-266.26 107.65,-256.92 102.92,-262.07"/>
</g>
<!-- Node3 -->
<g id="node3" class="node">
<title>Node3</title>
<g id="a_node3"><a xlink:href="math_8f.html#a3b43508554f14bdea8e14473d7d0803c" target="_top" xlink:title=" ">
<polygon fill="white" stroke="black" points="108,-228.5 108,-247.5 146,-247.5 146,-228.5 108,-228.5"/>
<text text-anchor="middle" x="127" y="-235.5" font-family="Helvetica,sans-Serif" font-size="10.00">copy</text>
</a>
</g>
</g>
<!-- Node1&#45;&gt;Node3 -->
<g id="edge2" class="edge">
<title>Node1&#45;&gt;Node3</title>
<path fill="none" stroke="midnightblue" d="M42.51,-152.77C54.88,-167.66 79.65,-196.64 103,-219 103.93,-219.89 104.89,-220.78 105.87,-221.67"/>
<polygon fill="midnightblue" stroke="midnightblue" points="103.67,-224.4 113.54,-228.27 108.24,-219.09 103.67,-224.4"/>
</g>
<!-- Node4 -->
<g id="node4" class="node">
<title>Node4</title>
<g id="a_node4"><a xlink:href="dprocmap_8f.html#a90fd349db1c16c4cb8108485b3c200e0" target="_top" xlink:title=" ">
<polygon fill="white" stroke="black" points="110,-190.5 110,-209.5 144,-209.5 144,-190.5 110,-190.5"/>
<text text-anchor="middle" x="127" y="-197.5" font-family="Helvetica,sans-Serif" font-size="10.00">gllel</text>
</a>
</g>
</g>
<!-- Node1&#45;&gt;Node4 -->
<g id="edge3" class="edge">
<title>Node1&#45;&gt;Node4</title>
<path fill="none" stroke="midnightblue" d="M50.02,-152.67C64.3,-161.57 85.7,-174.9 102.15,-185.14"/>
<polygon fill="midnightblue" stroke="midnightblue" points="100.37,-188.16 110.71,-190.47 104.07,-182.22 100.37,-188.16"/>
</g>
<!-- Node16 -->
<g id="node6" class="node">
<title>Node16</title>
<g id="a_node6"><a xlink:href="dprocmap_8f.html#aa8f8117aad966b2c1f877b334d9d407b" target="_top" xlink:title=" ">
<polygon fill="white" stroke="black" points="107.5,-152.5 107.5,-171.5 146.5,-171.5 146.5,-152.5 107.5,-152.5"/>
<text text-anchor="middle" x="127" y="-159.5" font-family="Helvetica,sans-Serif" font-size="10.00">gllnid</text>
</a>
</g>
</g>
<!-- Node1&#45;&gt;Node16 -->
<g id="edge5" class="edge">
<title>Node1&#45;&gt;Node16</title>
<path fill="none" stroke="midnightblue" d="M67.02,-149.75C76.98,-151.82 87.85,-154.08 97.52,-156.09"/>
<polygon fill="midnightblue" stroke="midnightblue" points="96.93,-159.54 107.44,-158.15 98.36,-152.68 96.93,-159.54"/>
</g>
<!-- Node17 -->
<g id="node7" class="node">
<title>Node17</title>
<g id="a_node7"><a xlink:href="gs__test__gop__blocking_8c.html#ab2e24f9857f6d1ded7e4d556c6bc5e49" target="_top" xlink:title=" ">
<polygon fill="white" stroke="red" points="111,-114.5 111,-133.5 143,-133.5 143,-114.5 111,-114.5"/>
<text text-anchor="middle" x="127" y="-121.5" font-family="Helvetica,sans-Serif" font-size="10.00">gop</text>
</a>
</g>
</g>
<!-- Node1&#45;&gt;Node17 -->
<g id="edge7" class="edge">
<title>Node1&#45;&gt;Node17</title>
<path fill="none" stroke="midnightblue" d="M67.02,-136.25C78.15,-133.94 90.43,-131.39 100.88,-129.22"/>
<polygon fill="midnightblue" stroke="midnightblue" points="101.92,-132.58 111,-127.12 100.49,-125.72 101.92,-132.58"/>
</g>
<!-- Node19 -->
<g id="node8" class="node">
<title>Node19</title>
<g id="a_node8"><a xlink:href="gs__test__gop__nonblocking_8c.html#a9a5cca78c6f0fc8b3c6845a29e9113ce" target="_top" xlink:title=" ">
<polygon fill="white" stroke="red" points="109.5,-76.5 109.5,-95.5 144.5,-95.5 144.5,-76.5 109.5,-76.5"/>
<text text-anchor="middle" x="127" y="-83.5" font-family="Helvetica,sans-Serif" font-size="10.00">igop</text>
</a>
</g>
</g>
<!-- Node1&#45;&gt;Node19 -->
<g id="edge8" class="edge">
<title>Node1&#45;&gt;Node19</title>
<path fill="none" stroke="midnightblue" d="M50.02,-133.33C64.3,-124.43 85.7,-111.1 102.15,-100.86"/>
<polygon fill="midnightblue" stroke="midnightblue" points="104.07,-103.78 110.71,-95.53 100.37,-97.84 104.07,-103.78"/>
</g>
<!-- Node20 -->
<g id="node9" class="node">
<title>Node20</title>
<g id="a_node9"><a xlink:href="math_8f.html#a943dc1fc319c98267fac3af1e8010e9a" target="_top" xlink:title=" ">
<polygon fill="white" stroke="black" points="108,-38.5 108,-57.5 146,-57.5 146,-38.5 108,-38.5"/>
<text text-anchor="middle" x="127" y="-45.5" font-family="Helvetica,sans-Serif" font-size="10.00">izero</text>
</a>
</g>
</g>
<!-- Node1&#45;&gt;Node20 -->
<g id="edge9" class="edge">
<title>Node1&#45;&gt;Node20</title>
<path fill="none" stroke="midnightblue" d="M42.51,-133.23C54.88,-118.34 79.65,-89.36 103,-67 103.93,-66.11 104.89,-65.22 105.87,-64.33"/>
<polygon fill="midnightblue" stroke="midnightblue" points="108.24,-66.91 113.54,-57.73 103.67,-61.6 108.24,-66.91"/>
</g>
<!-- Node21 -->
<g id="node10" class="node">
<title>Node21</title>
<g id="a_node10"><a xlink:href="math_8f.html#af44de42b023a4a68cd98ea341204342d" target="_top" xlink:title=" ">
<polygon fill="white" stroke="black" points="108,-0.5 108,-19.5 146,-19.5 146,-0.5 108,-0.5"/>
<text text-anchor="middle" x="127" y="-7.5" font-family="Helvetica,sans-Serif" font-size="10.00">rzero</text>
</a>
</g>
</g>
<!-- Node1&#45;&gt;Node21 -->
<g id="edge10" class="edge">
<title>Node1&#45;&gt;Node21</title>
<path fill="none" stroke="midnightblue" d="M38.86,-133.43C48.51,-112.9 73.18,-63.65 103,-29 103.71,-28.18 104.46,-27.36 105.23,-26.55"/>
<polygon fill="midnightblue" stroke="midnightblue" points="107.65,-29.08 112.65,-19.74 102.92,-23.93 107.65,-29.08"/>
</g>
<!-- Node5 -->
<g id="node5" class="node">
<title>Node5</title>
<g id="a_node5"><a xlink:href="dprocmap_8f.html#a311a5a8d89b7f42b1f539390ad6b2fb0" target="_top" xlink:title=" ">
<polygon fill="white" stroke="red" points="187,-171.5 187,-190.5 260,-190.5 260,-171.5 187,-171.5"/>
<text text-anchor="middle" x="223.5" y="-178.5" font-family="Helvetica,sans-Serif" font-size="10.00">dprocmapget</text>
</a>
</g>
</g>
<!-- Node4&#45;&gt;Node5 -->
<g id="edge4" class="edge">
<title>Node4&#45;&gt;Node5</title>
<path fill="none" stroke="midnightblue" d="M144.03,-196.78C153.16,-194.94 165.11,-192.54 176.92,-190.16"/>
<polygon fill="midnightblue" stroke="midnightblue" points="177.63,-193.59 186.75,-188.19 176.25,-186.73 177.63,-193.59"/>
</g>
<!-- Node16&#45;&gt;Node5 -->
<g id="edge6" class="edge">
<title>Node16&#45;&gt;Node5</title>
<path fill="none" stroke="midnightblue" d="M146.67,-165.75C155.31,-167.49 166,-169.64 176.59,-171.77"/>
<polygon fill="midnightblue" stroke="midnightblue" points="176.16,-175.25 186.65,-173.79 177.54,-168.39 176.16,-175.25"/>
</g>
</g>
</svg>
