<?xml version="1.0" encoding="UTF-8" standalone="no"?>
<!DOCTYPE svg PUBLIC "-//W3C//DTD SVG 1.1//EN"
 "http://www.w3.org/Graphics/SVG/1.1/DTD/svg11.dtd">
<!-- Generated by graphviz version 2.46.0 (0)
 -->
<!-- Title: map2reg_3di_e Pages: 1 -->
<svg width="539pt" height="104pt"
 viewBox="0.00 0.00 539.00 104.00" xmlns="http://www.w3.org/2000/svg" xmlns:xlink="http://www.w3.org/1999/xlink">
<g id="graph0" class="graph" transform="scale(1 1) rotate(0) translate(4 100)">
<title>map2reg_3di_e</title>
<polygon fill="white" stroke="transparent" points="-4,4 -4,-100 535,-100 535,4 -4,4"/>
<!-- Node1 -->
<g id="node1" class="node">
<title>Node1</title>
<g id="a_node1"><a xlink:title=" ">
<polygon fill="#bfbfbf" stroke="black" points="448,-19.5 448,-38.5 531,-38.5 531,-19.5 448,-19.5"/>
<text text-anchor="middle" x="489.5" y="-26.5" font-family="Helvetica,sans-Serif" font-size="10.00">map2reg_3di_e</text>
</a>
</g>
</g>
<!-- Node2 -->
<g id="node2" class="node">
<title>Node2</title>
<g id="a_node2"><a xlink:href="postpro_8f.html#adb277769447ac305f64a159c5de30021" target="_top" xlink:title=" ">
<polygon fill="white" stroke="black" points="358,-19.5 358,-38.5 412,-38.5 412,-19.5 358,-19.5"/>
<text text-anchor="middle" x="385" y="-26.5" font-family="Helvetica,sans-Serif" font-size="10.00">map2reg</text>
</a>
</g>
</g>
<!-- Node1&#45;&gt;Node2 -->
<g id="edge1" class="edge">
<title>Node1&#45;&gt;Node2</title>
<path fill="none" stroke="midnightblue" d="M437.95,-29C428.99,-29 420,-29 412.08,-29"/>
<polygon fill="midnightblue" stroke="midnightblue" points="437.99,-32.5 447.99,-29 437.99,-25.5 437.99,-32.5"/>
</g>
<!-- Node3 -->
<g id="node3" class="node">
<title>Node3</title>
<g id="a_node3"><a xlink:href="postpro_8f.html#a81ec64822ca4d65dd8858d58949a2997" target="_top" xlink:title=" ">
<polygon fill="white" stroke="black" points="221,-38.5 221,-57.5 322,-57.5 322,-38.5 221,-38.5"/>
<text text-anchor="middle" x="271.5" y="-45.5" font-family="Helvetica,sans-Serif" font-size="10.00">gen_rea_midside_e</text>
</a>
</g>
</g>
<!-- Node2&#45;&gt;Node3 -->
<g id="edge2" class="edge">
<title>Node2&#45;&gt;Node3</title>
<path fill="none" stroke="midnightblue" d="M347.87,-35.16C339.65,-36.56 330.79,-38.07 322.12,-39.54"/>
<polygon fill="midnightblue" stroke="midnightblue" points="348.59,-38.58 357.86,-33.45 347.41,-31.68 348.59,-38.58"/>
</g>
<!-- Node9 -->
<g id="node9" class="node">
<title>Node9</title>
<g id="a_node9"><a xlink:href="prepost_8f.html#a2b0ed536ab0284c398d7f2ac35622d88" target="_top" xlink:title=" ">
<polygon fill="white" stroke="black" points="240.5,-0.5 240.5,-19.5 302.5,-19.5 302.5,-0.5 240.5,-0.5"/>
<text text-anchor="middle" x="271.5" y="-7.5" font-family="Helvetica,sans-Serif" font-size="10.00">mfo_outfld</text>
</a>
</g>
</g>
<!-- Node2&#45;&gt;Node9 -->
<g id="edge8" class="edge">
<title>Node2&#45;&gt;Node9</title>
<path fill="none" stroke="midnightblue" d="M347.71,-22.82C333.2,-20.34 316.68,-17.53 302.82,-15.17"/>
<polygon fill="midnightblue" stroke="midnightblue" points="347.41,-26.32 357.86,-24.55 348.59,-19.42 347.41,-26.32"/>
</g>
<!-- Node4 -->
<g id="node4" class="node">
<title>Node4</title>
<g id="a_node4"><a xlink:href="postpro_8f.html#ad8bc1f902134949368ef44cd1e832e83" target="_top" xlink:title=" ">
<polygon fill="white" stroke="black" points="105,-76.5 105,-95.5 185,-95.5 185,-76.5 105,-76.5"/>
<text text-anchor="middle" x="145" y="-83.5" font-family="Helvetica,sans-Serif" font-size="10.00">gen_re2_curve</text>
</a>
</g>
</g>
<!-- Node3&#45;&gt;Node4 -->
<g id="edge3" class="edge">
<title>Node3&#45;&gt;Node4</title>
<path fill="none" stroke="midnightblue" d="M229.43,-60.54C212.49,-65.7 193.18,-71.6 177.41,-76.41"/>
<polygon fill="midnightblue" stroke="midnightblue" points="230.54,-63.86 239.08,-57.59 228.5,-57.16 230.54,-63.86"/>
</g>
<!-- Node6 -->
<g id="node6" class="node">
<title>Node6</title>
<g id="a_node6"><a xlink:href="postpro_8f.html#a65292a43f073835bc52cea698f7e42e7" target="_top" xlink:title=" ">
<polygon fill="white" stroke="black" points="105,-38.5 105,-57.5 185,-57.5 185,-38.5 105,-38.5"/>
<text text-anchor="middle" x="145" y="-45.5" font-family="Helvetica,sans-Serif" font-size="10.00">gen_rea_curve</text>
</a>
</g>
</g>
<!-- Node3&#45;&gt;Node6 -->
<g id="edge5" class="edge">
<title>Node3&#45;&gt;Node6</title>
<path fill="none" stroke="midnightblue" d="M210.75,-48C202.02,-48 193.22,-48 185.04,-48"/>
<polygon fill="midnightblue" stroke="midnightblue" points="210.94,-51.5 220.94,-48 210.94,-44.5 210.94,-51.5"/>
</g>
<!-- Node5 -->
<g id="node5" class="node">
<title>Node5</title>
<g id="a_node5"><a xlink:href="postpro_8f.html#a8bdd3e275563fb6fc53f63b9e78f3270" target="_top" xlink:title=" ">
<polygon fill="white" stroke="black" points="9,-76.5 9,-95.5 60,-95.5 60,-76.5 9,-76.5"/>
<text text-anchor="middle" x="34.5" y="-83.5" font-family="Helvetica,sans-Serif" font-size="10.00">gen_re2</text>
</a>
</g>
</g>
<!-- Node4&#45;&gt;Node5 -->
<g id="edge4" class="edge">
<title>Node4&#45;&gt;Node5</title>
<path fill="none" stroke="midnightblue" d="M94.48,-86C82.55,-86 70.32,-86 60.1,-86"/>
<polygon fill="midnightblue" stroke="midnightblue" points="94.83,-89.5 104.83,-86 94.83,-82.5 94.83,-89.5"/>
</g>
<!-- Node7 -->
<g id="node7" class="node">
<title>Node7</title>
<g id="a_node7"><a xlink:href="postpro_8f.html#aebe895d504a37ea0f190fdac2f0a463a" target="_top" xlink:title=" ">
<polygon fill="white" stroke="black" points="9,-38.5 9,-57.5 60,-57.5 60,-38.5 9,-38.5"/>
<text text-anchor="middle" x="34.5" y="-45.5" font-family="Helvetica,sans-Serif" font-size="10.00">gen_rea</text>
</a>
</g>
</g>
<!-- Node6&#45;&gt;Node7 -->
<g id="edge6" class="edge">
<title>Node6&#45;&gt;Node7</title>
<path fill="none" stroke="midnightblue" d="M94.48,-48C82.55,-48 70.32,-48 60.1,-48"/>
<polygon fill="midnightblue" stroke="midnightblue" points="94.83,-51.5 104.83,-48 94.83,-44.5 94.83,-51.5"/>
</g>
<!-- Node8 -->
<g id="node8" class="node">
<title>Node8</title>
<g id="a_node8"><a xlink:href="postpro_8f.html#a46fc0df41f73386895f2b3bb185d4a6a" target="_top" xlink:title=" ">
<polygon fill="white" stroke="black" points="0,-0.5 0,-19.5 69,-19.5 69,-0.5 0,-0.5"/>
<text text-anchor="middle" x="34.5" y="-7.5" font-family="Helvetica,sans-Serif" font-size="10.00">gen_rea_full</text>
</a>
</g>
</g>
<!-- Node6&#45;&gt;Node8 -->
<g id="edge7" class="edge">
<title>Node6&#45;&gt;Node8</title>
<path fill="none" stroke="midnightblue" d="M106.96,-35.03C92.51,-29.97 76.23,-24.27 62.87,-19.59"/>
<polygon fill="midnightblue" stroke="midnightblue" points="106.03,-38.41 116.62,-38.41 108.34,-31.8 106.03,-38.41"/>
</g>
<!-- Node10 -->
<g id="node10" class="node">
<title>Node10</title>
<g id="a_node10"><a xlink:href="prepost_8f.html#a7e6b503691396e2ba24a32272da91f7a" target="_top" xlink:title=" ">
<polygon fill="white" stroke="red" points="124.5,-0.5 124.5,-19.5 165.5,-19.5 165.5,-0.5 124.5,-0.5"/>
<text text-anchor="middle" x="145" y="-7.5" font-family="Helvetica,sans-Serif" font-size="10.00">outfld</text>
</a>
</g>
</g>
<!-- Node9&#45;&gt;Node10 -->
<g id="edge9" class="edge">
<title>Node9&#45;&gt;Node10</title>
<path fill="none" stroke="midnightblue" d="M230.16,-10C208.6,-10 183.02,-10 165.77,-10"/>
<polygon fill="midnightblue" stroke="midnightblue" points="230.36,-13.5 240.36,-10 230.36,-6.5 230.36,-13.5"/>
</g>
</g>
</svg>
