<?xml version="1.0" encoding="UTF-8" standalone="no"?>
<!DOCTYPE svg PUBLIC "-//W3C//DTD SVG 1.1//EN"
 "http://www.w3.org/Graphics/SVG/1.1/DTD/svg11.dtd">
<!-- Generated by graphviz version 2.46.0 (0)
 -->
<!-- Title: buffer_in Pages: 1 -->
<svg width="255pt" height="256pt"
 viewBox="0.00 0.00 255.00 256.00" xmlns="http://www.w3.org/2000/svg" xmlns:xlink="http://www.w3.org/1999/xlink">
<g id="graph0" class="graph" transform="scale(1 1) rotate(0) translate(4 252)">
<title>buffer_in</title>
<polygon fill="white" stroke="transparent" points="-4,4 -4,-252 251,-252 251,4 -4,4"/>
<!-- Node1 -->
<g id="node1" class="node">
<title>Node1</title>
<g id="a_node1"><a xlink:title=" ">
<polygon fill="#bfbfbf" stroke="black" points="0,-114.5 0,-133.5 54,-133.5 54,-114.5 0,-114.5"/>
<text text-anchor="middle" x="27" y="-121.5" font-family="Helvetica,sans-Serif" font-size="10.00">buffer_in</text>
</a>
</g>
</g>
<!-- Node2 -->
<g id="node2" class="node">
<title>Node2</title>
<g id="a_node2"><a xlink:href="comm__mpi_8f.html#ae425c1deb2e82d2007c97e1c4be990c8" target="_top" xlink:title=" ">
<polygon fill="white" stroke="black" points="99,-228.5 99,-247.5 140,-247.5 140,-228.5 99,-228.5"/>
<text text-anchor="middle" x="119.5" y="-235.5" font-family="Helvetica,sans-Serif" font-size="10.00">bcast</text>
</a>
</g>
</g>
<!-- Node1&#45;&gt;Node2 -->
<g id="edge1" class="edge">
<title>Node1&#45;&gt;Node2</title>
<path fill="none" stroke="midnightblue" d="M32.56,-133.52C41.6,-151.71 63.25,-191.99 90,-219 91.07,-220.08 92.22,-221.14 93.4,-222.16"/>
<polygon fill="midnightblue" stroke="midnightblue" points="91.57,-225.16 101.65,-228.4 95.79,-219.58 91.57,-225.16"/>
</g>
<!-- Node4 -->
<g id="node4" class="node">
<title>Node4</title>
<g id="a_node4"><a xlink:href="comm__mpi_8f.html#abd95004b45059acdcc13614c52e60eae" target="_top" xlink:title=" ">
<polygon fill="white" stroke="black" points="98,-190.5 98,-209.5 141,-209.5 141,-190.5 98,-190.5"/>
<text text-anchor="middle" x="119.5" y="-197.5" font-family="Helvetica,sans-Serif" font-size="10.00">csend</text>
</a>
</g>
</g>
<!-- Node1&#45;&gt;Node4 -->
<g id="edge3" class="edge">
<title>Node1&#45;&gt;Node4</title>
<path fill="none" stroke="midnightblue" d="M37.67,-133.78C49.52,-145.55 70.45,-165.65 90,-181 91.54,-182.21 93.16,-183.43 94.81,-184.62"/>
<polygon fill="midnightblue" stroke="midnightblue" points="92.89,-187.55 103.11,-190.37 96.88,-181.8 92.89,-187.55"/>
</g>
<!-- Node6 -->
<g id="node6" class="node">
<title>Node6</title>
<g id="a_node6"><a xlink:href="byte_8c.html#a2da8eeb074dfd3ffbfb3e9a4d301cda4" target="_top" xlink:title=" ">
<polygon fill="white" stroke="red" points="102,-152.5 102,-171.5 137,-171.5 137,-152.5 102,-152.5"/>
<text text-anchor="middle" x="119.5" y="-159.5" font-family="Helvetica,sans-Serif" font-size="10.00">exitt</text>
</a>
</g>
</g>
<!-- Node1&#45;&gt;Node6 -->
<g id="edge5" class="edge">
<title>Node1&#45;&gt;Node6</title>
<path fill="none" stroke="midnightblue" d="M50.84,-133.59C63.52,-138.92 79.35,-145.56 92.51,-151.09"/>
<polygon fill="midnightblue" stroke="midnightblue" points="91.38,-154.41 101.95,-155.05 94.09,-147.95 91.38,-154.41"/>
</g>
<!-- Node9 -->
<g id="node7" class="node">
<title>Node9</title>
<g id="a_node7"><a xlink:href="math_8f.html#a269b9bcae973eb49454422b00e319706" target="_top" xlink:title=" ">
<polygon fill="white" stroke="red" points="97,-114.5 97,-133.5 142,-133.5 142,-114.5 97,-114.5"/>
<text text-anchor="middle" x="119.5" y="-121.5" font-family="Helvetica,sans-Serif" font-size="10.00">iglsum</text>
</a>
</g>
</g>
<!-- Node1&#45;&gt;Node9 -->
<g id="edge6" class="edge">
<title>Node1&#45;&gt;Node9</title>
<path fill="none" stroke="midnightblue" d="M54.18,-124C64.36,-124 76.11,-124 86.77,-124"/>
<polygon fill="midnightblue" stroke="midnightblue" points="86.96,-127.5 96.96,-124 86.96,-120.5 86.96,-127.5"/>
</g>
<!-- Node12 -->
<g id="node8" class="node">
<title>Node12</title>
<g id="a_node8"><a xlink:href="comm__mpi_8f.html#ae679f95ac0933fe20197a868f1d4272b" target="_top" xlink:title=" ">
<polygon fill="white" stroke="red" points="100.5,-76.5 100.5,-95.5 138.5,-95.5 138.5,-76.5 100.5,-76.5"/>
<text text-anchor="middle" x="119.5" y="-83.5" font-family="Helvetica,sans-Serif" font-size="10.00">irecv</text>
</a>
</g>
</g>
<!-- Node1&#45;&gt;Node12 -->
<g id="edge7" class="edge">
<title>Node1&#45;&gt;Node12</title>
<path fill="none" stroke="midnightblue" d="M50.84,-114.41C63.02,-109.29 78.11,-102.96 90.94,-97.57"/>
<polygon fill="midnightblue" stroke="midnightblue" points="92.36,-100.77 100.23,-93.67 89.65,-94.32 92.36,-100.77"/>
</g>
<!-- Node14 -->
<g id="node9" class="node">
<title>Node14</title>
<g id="a_node9"><a xlink:href="comm__mpi_8f.html#a3b0be5279d427588484102fe8bac8ef0" target="_top" xlink:title=" ">
<polygon fill="white" stroke="red" points="93,-38.5 93,-57.5 146,-57.5 146,-38.5 93,-38.5"/>
<text text-anchor="middle" x="119.5" y="-45.5" font-family="Helvetica,sans-Serif" font-size="10.00">msgwait</text>
</a>
</g>
</g>
<!-- Node1&#45;&gt;Node14 -->
<g id="edge8" class="edge">
<title>Node1&#45;&gt;Node14</title>
<path fill="none" stroke="midnightblue" d="M37.67,-114.22C49.52,-102.45 70.45,-82.35 90,-67 91.54,-65.79 93.16,-64.57 94.81,-63.38"/>
<polygon fill="midnightblue" stroke="midnightblue" points="96.88,-66.2 103.11,-57.63 92.89,-60.45 96.88,-66.2"/>
</g>
<!-- Node16 -->
<g id="node10" class="node">
<title>Node16</title>
<g id="a_node10"><a xlink:href="comm__mpi_8f.html#a4acb4d8e379294232e9219bec063d8f3" target="_top" xlink:title=" ">
<polygon fill="white" stroke="red" points="90,-0.5 90,-19.5 149,-19.5 149,-0.5 90,-0.5"/>
<text text-anchor="middle" x="119.5" y="-7.5" font-family="Helvetica,sans-Serif" font-size="10.00">nekgsync</text>
</a>
</g>
</g>
<!-- Node1&#45;&gt;Node16 -->
<g id="edge9" class="edge">
<title>Node1&#45;&gt;Node16</title>
<path fill="none" stroke="midnightblue" d="M32.56,-114.48C41.6,-96.29 63.25,-56.01 90,-29 91.07,-27.92 92.22,-26.86 93.4,-25.84"/>
<polygon fill="midnightblue" stroke="midnightblue" points="95.79,-28.42 101.65,-19.6 91.57,-22.84 95.79,-28.42"/>
</g>
<!-- Node3 -->
<g id="node3" class="node">
<title>Node3</title>
<g id="a_node3"><a xlink:href="mpi__dummy_8f.html#ae0bd4baaea848988f45664ce0de33350" target="_top" xlink:title=" ">
<polygon fill="white" stroke="black" points="185,-228.5 185,-247.5 247,-247.5 247,-228.5 185,-228.5"/>
<text text-anchor="middle" x="216" y="-235.5" font-family="Helvetica,sans-Serif" font-size="10.00">mpi_bcast</text>
</a>
</g>
</g>
<!-- Node2&#45;&gt;Node3 -->
<g id="edge2" class="edge">
<title>Node2&#45;&gt;Node3</title>
<path fill="none" stroke="midnightblue" d="M140.08,-238C150.03,-238 162.51,-238 174.42,-238"/>
<polygon fill="midnightblue" stroke="midnightblue" points="174.65,-241.5 184.65,-238 174.65,-234.5 174.65,-241.5"/>
</g>
<!-- Node5 -->
<g id="node5" class="node">
<title>Node5</title>
<g id="a_node5"><a xlink:href="mpi__dummy_8f.html#af98c20c7332635506f852083f7ee504a" target="_top" xlink:title=" ">
<polygon fill="white" stroke="black" points="186.5,-190.5 186.5,-209.5 245.5,-209.5 245.5,-190.5 186.5,-190.5"/>
<text text-anchor="middle" x="216" y="-197.5" font-family="Helvetica,sans-Serif" font-size="10.00">mpi_send</text>
</a>
</g>
</g>
<!-- Node4&#45;&gt;Node5 -->
<g id="edge4" class="edge">
<title>Node4&#45;&gt;Node5</title>
<path fill="none" stroke="midnightblue" d="M141.01,-200C151.25,-200 163.99,-200 176.01,-200"/>
<polygon fill="midnightblue" stroke="midnightblue" points="176.29,-203.5 186.29,-200 176.29,-196.5 176.29,-203.5"/>
</g>
</g>
</svg>
