<?xml version="1.0" encoding="UTF-8" standalone="no"?>
<!DOCTYPE svg PUBLIC "-//W3C//DTD SVG 1.1//EN"
 "http://www.w3.org/Graphics/SVG/1.1/DTD/svg11.dtd">
<!-- Generated by graphviz version 2.46.0 (0)
 -->
<!-- Title: build_1d_filt Pages: 1 -->
<svg width="349pt" height="256pt"
 viewBox="0.00 0.00 349.00 256.00" xmlns="http://www.w3.org/2000/svg" xmlns:xlink="http://www.w3.org/1999/xlink">
<g id="graph0" class="graph" transform="scale(1 1) rotate(0) translate(4 252)">
<title>build_1d_filt</title>
<polygon fill="white" stroke="transparent" points="-4,4 -4,-252 345,-252 345,4 -4,4"/>
<!-- Node1 -->
<g id="node1" class="node">
<title>Node1</title>
<g id="a_node1"><a xlink:title=" ">
<polygon fill="#bfbfbf" stroke="black" points="0,-114.5 0,-133.5 68,-133.5 68,-114.5 0,-114.5"/>
<text text-anchor="middle" x="34" y="-121.5" font-family="Helvetica,sans-Serif" font-size="10.00">build_1d_filt</text>
</a>
</g>
</g>
<!-- Node2 -->
<g id="node2" class="node">
<title>Node2</title>
<g id="a_node2"><a xlink:href="math_8f.html#a3b43508554f14bdea8e14473d7d0803c" target="_top" xlink:title=" ">
<polygon fill="white" stroke="black" points="123.5,-228.5 123.5,-247.5 161.5,-247.5 161.5,-228.5 123.5,-228.5"/>
<text text-anchor="middle" x="142.5" y="-235.5" font-family="Helvetica,sans-Serif" font-size="10.00">copy</text>
</a>
</g>
</g>
<!-- Node1&#45;&gt;Node2 -->
<g id="edge1" class="edge">
<title>Node1&#45;&gt;Node2</title>
<path fill="none" stroke="midnightblue" d="M40.73,-133.54C51.53,-150.98 76.31,-188.56 104,-214 107.42,-217.14 111.31,-220.14 115.24,-222.87"/>
<polygon fill="midnightblue" stroke="midnightblue" points="113.5,-225.91 123.8,-228.42 117.31,-220.04 113.5,-225.91"/>
</g>
<!-- Node3 -->
<g id="node3" class="node">
<title>Node3</title>
<g id="a_node3"><a xlink:href="byte_8c.html#a2da8eeb074dfd3ffbfb3e9a4d301cda4" target="_top" xlink:title=" ">
<polygon fill="white" stroke="black" points="218.5,-190.5 218.5,-209.5 253.5,-209.5 253.5,-190.5 218.5,-190.5"/>
<text text-anchor="middle" x="236" y="-197.5" font-family="Helvetica,sans-Serif" font-size="10.00">exitt</text>
</a>
</g>
</g>
<!-- Node1&#45;&gt;Node3 -->
<g id="edge2" class="edge">
<title>Node1&#45;&gt;Node3</title>
<path fill="none" stroke="midnightblue" d="M43.27,-133.53C55.23,-146.61 78.72,-169.79 104,-181 137.79,-195.98 180.83,-199.64 208.16,-200.28"/>
<polygon fill="midnightblue" stroke="midnightblue" points="208.46,-203.79 218.5,-200.4 208.54,-196.79 208.46,-203.79"/>
</g>
<!-- Node6 -->
<g id="node5" class="node">
<title>Node6</title>
<g id="a_node5"><a xlink:href="navier5_8f.html#a433d25d905b7a824887d47406928b47b" target="_top" xlink:title=" ">
<polygon fill="white" stroke="black" points="117,-152.5 117,-171.5 168,-171.5 168,-152.5 117,-152.5"/>
<text text-anchor="middle" x="142.5" y="-159.5" font-family="Helvetica,sans-Serif" font-size="10.00">gaujordf</text>
</a>
</g>
</g>
<!-- Node1&#45;&gt;Node6 -->
<g id="edge4" class="edge">
<title>Node1&#45;&gt;Node6</title>
<path fill="none" stroke="midnightblue" d="M61.87,-133.59C75.59,-138.48 92.44,-144.49 107.09,-149.72"/>
<polygon fill="midnightblue" stroke="midnightblue" points="106.23,-153.13 116.82,-153.2 108.58,-146.54 106.23,-153.13"/>
</g>
<!-- Node8 -->
<g id="node7" class="node">
<title>Node8</title>
<g id="a_node7"><a xlink:href="navier5_8f.html#aa70d5b68f8013509276e16ae90a92720" target="_top" xlink:title=" ">
<polygon fill="white" stroke="black" points="104,-114.5 104,-133.5 181,-133.5 181,-114.5 104,-114.5"/>
<text text-anchor="middle" x="142.5" y="-121.5" font-family="Helvetica,sans-Serif" font-size="10.00">legendre_poly</text>
</a>
</g>
</g>
<!-- Node1&#45;&gt;Node8 -->
<g id="edge7" class="edge">
<title>Node1&#45;&gt;Node8</title>
<path fill="none" stroke="midnightblue" d="M68.11,-124C76.28,-124 85.18,-124 93.88,-124"/>
<polygon fill="midnightblue" stroke="midnightblue" points="93.95,-127.5 103.95,-124 93.95,-120.5 93.95,-127.5"/>
</g>
<!-- Node9 -->
<g id="node8" class="node">
<title>Node9</title>
<g id="a_node8"><a xlink:href="math_8f.html#af44de42b023a4a68cd98ea341204342d" target="_top" xlink:title=" ">
<polygon fill="white" stroke="black" points="123.5,-76.5 123.5,-95.5 161.5,-95.5 161.5,-76.5 123.5,-76.5"/>
<text text-anchor="middle" x="142.5" y="-83.5" font-family="Helvetica,sans-Serif" font-size="10.00">rzero</text>
</a>
</g>
</g>
<!-- Node1&#45;&gt;Node9 -->
<g id="edge8" class="edge">
<title>Node1&#45;&gt;Node9</title>
<path fill="none" stroke="midnightblue" d="M61.87,-114.41C77.65,-108.78 97.55,-101.68 113.51,-95.99"/>
<polygon fill="midnightblue" stroke="midnightblue" points="115.1,-99.14 123.34,-92.48 112.75,-92.54 115.1,-99.14"/>
</g>
<!-- Node10 -->
<g id="node9" class="node">
<title>Node10</title>
<g id="a_node9"><a xlink:href="math_8f.html#a17c0ecae12cc5c6096939885da90ad2b" target="_top" xlink:title=" ">
<polygon fill="white" stroke="black" points="113,-38.5 113,-57.5 172,-57.5 172,-38.5 113,-38.5"/>
<text text-anchor="middle" x="142.5" y="-45.5" font-family="Helvetica,sans-Serif" font-size="10.00">transpose</text>
</a>
</g>
</g>
<!-- Node1&#45;&gt;Node10 -->
<g id="edge9" class="edge">
<title>Node1&#45;&gt;Node10</title>
<path fill="none" stroke="midnightblue" d="M45.19,-114.35C58.18,-102.34 81.64,-81.64 104,-67 106.4,-65.43 108.96,-63.89 111.55,-62.41"/>
<polygon fill="midnightblue" stroke="midnightblue" points="113.25,-65.47 120.41,-57.66 109.94,-59.3 113.25,-65.47"/>
</g>
<!-- Node11 -->
<g id="node10" class="node">
<title>Node11</title>
<g id="a_node10"><a xlink:href="speclib_8f.html#a3788ff93193b0428aad51e76c6ed2e18" target="_top" xlink:title=" ">
<polygon fill="white" stroke="red" points="123,-0.5 123,-19.5 162,-19.5 162,-0.5 123,-0.5"/>
<text text-anchor="middle" x="142.5" y="-7.5" font-family="Helvetica,sans-Serif" font-size="10.00">zwgll</text>
</a>
</g>
</g>
<!-- Node1&#45;&gt;Node11 -->
<g id="edge10" class="edge">
<title>Node1&#45;&gt;Node11</title>
<path fill="none" stroke="midnightblue" d="M39.89,-114.5C49.8,-95.98 73.9,-54.65 104,-29 107.04,-26.41 110.49,-24.06 114.04,-21.97"/>
<polygon fill="midnightblue" stroke="midnightblue" points="115.68,-25.06 122.88,-17.29 112.41,-18.87 115.68,-25.06"/>
</g>
<!-- Node4 -->
<g id="node4" class="node">
<title>Node4</title>
<g id="a_node4"><a xlink:href="comm__mpi_8f.html#acc8803a3787828530843112e0c48941b" target="_top" xlink:title=" ">
<polygon fill="white" stroke="red" points="291,-190.5 291,-209.5 341,-209.5 341,-190.5 291,-190.5"/>
<text text-anchor="middle" x="316" y="-197.5" font-family="Helvetica,sans-Serif" font-size="10.00">nek_die</text>
</a>
</g>
</g>
<!-- Node3&#45;&gt;Node4 -->
<g id="edge3" class="edge">
<title>Node3&#45;&gt;Node4</title>
<path fill="none" stroke="midnightblue" d="M253.54,-200C261.49,-200 271.32,-200 280.78,-200"/>
<polygon fill="midnightblue" stroke="midnightblue" points="280.78,-203.5 290.78,-200 280.78,-196.5 280.78,-203.5"/>
</g>
<!-- Node6&#45;&gt;Node3 -->
<g id="edge5" class="edge">
<title>Node6&#45;&gt;Node3</title>
<path fill="none" stroke="midnightblue" d="M166.59,-171.59C179.41,-176.92 195.42,-183.56 208.72,-189.09"/>
<polygon fill="midnightblue" stroke="midnightblue" points="207.69,-192.45 218.27,-193.05 210.38,-185.98 207.69,-192.45"/>
</g>
<!-- Node7 -->
<g id="node6" class="node">
<title>Node7</title>
<g id="a_node6"><a xlink:href="math_8f.html#a943dc1fc319c98267fac3af1e8010e9a" target="_top" xlink:title=" ">
<polygon fill="white" stroke="black" points="217,-152.5 217,-171.5 255,-171.5 255,-152.5 217,-152.5"/>
<text text-anchor="middle" x="236" y="-159.5" font-family="Helvetica,sans-Serif" font-size="10.00">izero</text>
</a>
</g>
</g>
<!-- Node6&#45;&gt;Node7 -->
<g id="edge6" class="edge">
<title>Node6&#45;&gt;Node7</title>
<path fill="none" stroke="midnightblue" d="M168.02,-162C179.89,-162 194.22,-162 206.57,-162"/>
<polygon fill="midnightblue" stroke="midnightblue" points="206.8,-165.5 216.8,-162 206.8,-158.5 206.8,-165.5"/>
</g>
</g>
</svg>
