<?xml version="1.0" encoding="UTF-8" standalone="no"?>
<!DOCTYPE svg PUBLIC "-//W3C//DTD SVG 1.1//EN"
 "http://www.w3.org/Graphics/SVG/1.1/DTD/svg11.dtd">
<!-- Generated by graphviz version 2.46.0 (0)
 -->
<!-- Title: filter_s1 Pages: 1 -->
<svg width="347pt" height="276pt"
 viewBox="0.00 0.00 347.00 276.49" xmlns="http://www.w3.org/2000/svg" xmlns:xlink="http://www.w3.org/1999/xlink">
<g id="graph0" class="graph" transform="scale(1 1) rotate(0) translate(4 272.49)">
<title>filter_s1</title>
<polygon fill="white" stroke="transparent" points="-4,4 -4,-272.49 343,-272.49 343,4 -4,4"/>
<!-- Node1 -->
<g id="node1" class="node">
<title>Node1</title>
<g id="a_node1"><a xlink:title=" ">
<polygon fill="#bfbfbf" stroke="black" points="0,-134.99 0,-153.99 51,-153.99 51,-134.99 0,-134.99"/>
<text text-anchor="middle" x="25.5" y="-141.99" font-family="Helvetica,sans-Serif" font-size="10.00">filter_s1</text>
</a>
</g>
</g>
<!-- Node2 -->
<g id="node2" class="node">
<title>Node2</title>
<g id="a_node2"><a xlink:href="postpro_8f.html#a384436e1573243f4e088689bbea00453" target="_top" xlink:title=" ">
<polygon fill="white" stroke="black" points="87,-134.99 87,-153.99 155,-153.99 155,-134.99 87,-134.99"/>
<text text-anchor="middle" x="121" y="-141.99" font-family="Helvetica,sans-Serif" font-size="10.00">build_1d_filt</text>
</a>
</g>
</g>
<!-- Node1&#45;&gt;Node2 -->
<g id="edge1" class="edge">
<title>Node1&#45;&gt;Node2</title>
<path fill="none" stroke="midnightblue" d="M51.07,-144.49C58.92,-144.49 67.87,-144.49 76.65,-144.49"/>
<polygon fill="midnightblue" stroke="midnightblue" points="76.81,-147.99 86.81,-144.49 76.81,-140.99 76.81,-147.99"/>
</g>
<!-- Node3 -->
<g id="node3" class="node">
<title>Node3</title>
<g id="a_node3"><a xlink:href="math_8f.html#a3b43508554f14bdea8e14473d7d0803c" target="_top" xlink:title=" ">
<polygon fill="white" stroke="black" points="210.5,-248.99 210.5,-267.99 248.5,-267.99 248.5,-248.99 210.5,-248.99"/>
<text text-anchor="middle" x="229.5" y="-255.99" font-family="Helvetica,sans-Serif" font-size="10.00">copy</text>
</a>
</g>
</g>
<!-- Node1&#45;&gt;Node3 -->
<g id="edge10" class="edge">
<title>Node1&#45;&gt;Node3</title>
<path fill="none" stroke="midnightblue" d="M43.37,-154.01C78.72,-173.96 160.75,-220.25 202.73,-243.94"/>
<polygon fill="midnightblue" stroke="midnightblue" points="201.1,-247.04 211.53,-248.91 204.54,-240.95 201.1,-247.04"/>
</g>
<!-- Node23 -->
<g id="node10" class="node">
<title>Node23</title>
<g id="a_node10"><a xlink:href="postpro_8f.html#a2b64593a113feea75ebb2c0820824729" target="_top" xlink:title=" ">
<polygon fill="white" stroke="black" points="95.5,-39.99 95.5,-58.99 146.5,-58.99 146.5,-39.99 95.5,-39.99"/>
<text text-anchor="middle" x="121" y="-46.99" font-family="Helvetica,sans-Serif" font-size="10.00">tens3d1</text>
</a>
</g>
</g>
<!-- Node1&#45;&gt;Node23 -->
<g id="edge11" class="edge">
<title>Node1&#45;&gt;Node23</title>
<path fill="none" stroke="midnightblue" d="M36.15,-134.68C52.05,-118.52 83.93,-86.14 103.47,-66.28"/>
<polygon fill="midnightblue" stroke="midnightblue" points="106.02,-68.68 110.54,-59.1 101.03,-63.77 106.02,-68.68"/>
</g>
<!-- Node2&#45;&gt;Node3 -->
<g id="edge2" class="edge">
<title>Node2&#45;&gt;Node3</title>
<path fill="none" stroke="midnightblue" d="M127.73,-154.03C138.53,-171.47 163.31,-209.05 191,-234.49 194.42,-237.63 198.31,-240.62 202.24,-243.36"/>
<polygon fill="midnightblue" stroke="midnightblue" points="200.5,-246.4 210.8,-248.9 204.31,-240.53 200.5,-246.4"/>
</g>
<!-- Node4 -->
<g id="node4" class="node">
<title>Node4</title>
<g id="a_node4"><a xlink:href="byte_8c.html#a2da8eeb074dfd3ffbfb3e9a4d301cda4" target="_top" xlink:title=" ">
<polygon fill="white" stroke="red" points="304,-172.99 304,-191.99 339,-191.99 339,-172.99 304,-172.99"/>
<text text-anchor="middle" x="321.5" y="-179.99" font-family="Helvetica,sans-Serif" font-size="10.00">exitt</text>
</a>
</g>
</g>
<!-- Node2&#45;&gt;Node4 -->
<g id="edge3" class="edge">
<title>Node2&#45;&gt;Node4</title>
<path fill="none" stroke="midnightblue" d="M129.67,-154.07C141.26,-167.69 164.68,-192.02 191,-201.49 225.32,-213.83 267.51,-203.23 294.21,-193.6"/>
<polygon fill="midnightblue" stroke="midnightblue" points="295.54,-196.84 303.63,-190.01 293.04,-190.3 295.54,-196.84"/>
</g>
<!-- Node7 -->
<g id="node5" class="node">
<title>Node7</title>
<g id="a_node5"><a xlink:href="navier5_8f.html#a433d25d905b7a824887d47406928b47b" target="_top" xlink:title=" ">
<polygon fill="white" stroke="red" points="204,-172.99 204,-191.99 255,-191.99 255,-172.99 204,-172.99"/>
<text text-anchor="middle" x="229.5" y="-179.99" font-family="Helvetica,sans-Serif" font-size="10.00">gaujordf</text>
</a>
</g>
</g>
<!-- Node2&#45;&gt;Node7 -->
<g id="edge4" class="edge">
<title>Node2&#45;&gt;Node7</title>
<path fill="none" stroke="midnightblue" d="M148.87,-154.08C162.59,-158.97 179.44,-164.98 194.09,-170.21"/>
<polygon fill="midnightblue" stroke="midnightblue" points="193.23,-173.62 203.82,-173.68 195.58,-167.03 193.23,-173.62"/>
</g>
<!-- Node9 -->
<g id="node6" class="node">
<title>Node9</title>
<g id="a_node6"><a xlink:href="navier5_8f.html#aa70d5b68f8013509276e16ae90a92720" target="_top" xlink:title=" ">
<polygon fill="white" stroke="black" points="191,-134.99 191,-153.99 268,-153.99 268,-134.99 191,-134.99"/>
<text text-anchor="middle" x="229.5" y="-141.99" font-family="Helvetica,sans-Serif" font-size="10.00">legendre_poly</text>
</a>
</g>
</g>
<!-- Node2&#45;&gt;Node9 -->
<g id="edge6" class="edge">
<title>Node2&#45;&gt;Node9</title>
<path fill="none" stroke="midnightblue" d="M155.11,-144.49C163.28,-144.49 172.18,-144.49 180.88,-144.49"/>
<polygon fill="midnightblue" stroke="midnightblue" points="180.95,-147.99 190.95,-144.49 180.95,-140.99 180.95,-147.99"/>
</g>
<!-- Node10 -->
<g id="node7" class="node">
<title>Node10</title>
<g id="a_node7"><a xlink:href="math_8f.html#af44de42b023a4a68cd98ea341204342d" target="_top" xlink:title=" ">
<polygon fill="white" stroke="black" points="210.5,-96.99 210.5,-115.99 248.5,-115.99 248.5,-96.99 210.5,-96.99"/>
<text text-anchor="middle" x="229.5" y="-103.99" font-family="Helvetica,sans-Serif" font-size="10.00">rzero</text>
</a>
</g>
</g>
<!-- Node2&#45;&gt;Node10 -->
<g id="edge7" class="edge">
<title>Node2&#45;&gt;Node10</title>
<path fill="none" stroke="midnightblue" d="M148.87,-134.9C164.65,-129.27 184.55,-122.17 200.51,-116.48"/>
<polygon fill="midnightblue" stroke="midnightblue" points="202.1,-119.62 210.34,-112.97 199.75,-113.03 202.1,-119.62"/>
</g>
<!-- Node11 -->
<g id="node8" class="node">
<title>Node11</title>
<g id="a_node8"><a xlink:href="math_8f.html#a17c0ecae12cc5c6096939885da90ad2b" target="_top" xlink:title=" ">
<polygon fill="white" stroke="black" points="200,-58.99 200,-77.99 259,-77.99 259,-58.99 200,-58.99"/>
<text text-anchor="middle" x="229.5" y="-65.99" font-family="Helvetica,sans-Serif" font-size="10.00">transpose</text>
</a>
</g>
</g>
<!-- Node2&#45;&gt;Node11 -->
<g id="edge8" class="edge">
<title>Node2&#45;&gt;Node11</title>
<path fill="none" stroke="midnightblue" d="M132.19,-134.83C145.18,-122.83 168.64,-102.13 191,-87.49 193.4,-85.91 195.96,-84.37 198.55,-82.9"/>
<polygon fill="midnightblue" stroke="midnightblue" points="200.25,-85.96 207.41,-78.15 196.94,-79.79 200.25,-85.96"/>
</g>
<!-- Node12 -->
<g id="node9" class="node">
<title>Node12</title>
<g id="a_node9"><a xlink:href="speclib_8f.html#a3788ff93193b0428aad51e76c6ed2e18" target="_top" xlink:title=" ">
<polygon fill="white" stroke="red" points="210,-20.99 210,-39.99 249,-39.99 249,-20.99 210,-20.99"/>
<text text-anchor="middle" x="229.5" y="-27.99" font-family="Helvetica,sans-Serif" font-size="10.00">zwgll</text>
</a>
</g>
</g>
<!-- Node2&#45;&gt;Node12 -->
<g id="edge9" class="edge">
<title>Node2&#45;&gt;Node12</title>
<path fill="none" stroke="midnightblue" d="M126.89,-134.98C136.8,-116.47 160.9,-75.14 191,-49.49 194.04,-46.9 197.49,-44.55 201.04,-42.45"/>
<polygon fill="midnightblue" stroke="midnightblue" points="202.68,-45.55 209.88,-37.78 199.41,-39.36 202.68,-45.55"/>
</g>
<!-- Node7&#45;&gt;Node4 -->
<g id="edge5" class="edge">
<title>Node7&#45;&gt;Node4</title>
<path fill="none" stroke="midnightblue" d="M255.09,-182.49C267.09,-182.49 281.54,-182.49 293.8,-182.49"/>
<polygon fill="midnightblue" stroke="midnightblue" points="293.9,-185.99 303.9,-182.49 293.9,-178.99 293.9,-185.99"/>
</g>
<!-- Node23&#45;&gt;Node4 -->
<g id="edge12" class="edge">
<title>Node23&#45;&gt;Node4</title>
<path fill="none" stroke="midnightblue" d="M134.66,-39.77C161.76,-20.25 226.29,19.33 268,-11.49 316,-46.96 321.52,-125.56 321.29,-162.53"/>
<polygon fill="midnightblue" stroke="midnightblue" points="317.78,-162.89 321.06,-172.96 324.78,-163.04 317.78,-162.89"/>
</g>
</g>
</svg>
