<?xml version="1.0" encoding="UTF-8" standalone="no"?>
<!DOCTYPE svg PUBLIC "-//W3C//DTD SVG 1.1//EN"
 "http://www.w3.org/Graphics/SVG/1.1/DTD/svg11.dtd">
<!-- Generated by graphviz version 2.46.0 (0)
 -->
<!-- Title: gen_int_gz Pages: 1 -->
<svg width="621pt" height="104pt"
 viewBox="0.00 0.00 621.00 104.00" xmlns="http://www.w3.org/2000/svg" xmlns:xlink="http://www.w3.org/1999/xlink">
<g id="graph0" class="graph" transform="scale(1 1) rotate(0) translate(4 100)">
<title>gen_int_gz</title>
<polygon fill="white" stroke="transparent" points="-4,4 -4,-100 617,-100 617,4 -4,4"/>
<!-- Node1 -->
<g id="node1" class="node">
<title>Node1</title>
<g id="a_node1"><a xlink:title=" ">
<polygon fill="#bfbfbf" stroke="black" points="549,-19.5 549,-38.5 613,-38.5 613,-19.5 549,-19.5"/>
<text text-anchor="middle" x="581" y="-26.5" font-family="Helvetica,sans-Serif" font-size="10.00">gen_int_gz</text>
</a>
</g>
</g>
<!-- Node2 -->
<g id="node2" class="node">
<title>Node2</title>
<g id="a_node2"><a xlink:href="postpro_8f.html#aab3b9fddf7ee2fbed94e6f45f451d064" target="_top" xlink:title=" ">
<polygon fill="white" stroke="black" points="430,-38.5 430,-57.5 513,-57.5 513,-38.5 430,-38.5"/>
<text text-anchor="middle" x="471.5" y="-45.5" font-family="Helvetica,sans-Serif" font-size="10.00">map2reg_2di_e</text>
</a>
</g>
</g>
<!-- Node1&#45;&gt;Node2 -->
<g id="edge1" class="edge">
<title>Node1&#45;&gt;Node2</title>
<path fill="none" stroke="midnightblue" d="M538.89,-36.27C530.45,-37.76 521.56,-39.33 513.14,-40.82"/>
<polygon fill="midnightblue" stroke="midnightblue" points="539.67,-39.68 548.91,-34.5 538.45,-32.79 539.67,-39.68"/>
</g>
<!-- Node61 -->
<g id="node10" class="node">
<title>Node61</title>
<g id="a_node10"><a xlink:href="postpro_8f.html#a9ad2777b128b2659c9ec8fd710ebb095" target="_top" xlink:title=" ">
<polygon fill="white" stroke="black" points="430,-0.5 430,-19.5 513,-19.5 513,-0.5 430,-0.5"/>
<text text-anchor="middle" x="471.5" y="-7.5" font-family="Helvetica,sans-Serif" font-size="10.00">map2reg_3di_e</text>
</a>
</g>
</g>
<!-- Node1&#45;&gt;Node61 -->
<g id="edge9" class="edge">
<title>Node1&#45;&gt;Node61</title>
<path fill="none" stroke="midnightblue" d="M538.89,-21.73C530.45,-20.24 521.56,-18.67 513.14,-17.18"/>
<polygon fill="midnightblue" stroke="midnightblue" points="538.45,-25.21 548.91,-23.5 539.67,-18.32 538.45,-25.21"/>
</g>
<!-- Node3 -->
<g id="node3" class="node">
<title>Node3</title>
<g id="a_node3"><a xlink:href="postpro_8f.html#adb277769447ac305f64a159c5de30021" target="_top" xlink:title=" ">
<polygon fill="white" stroke="black" points="340,-19.5 340,-38.5 394,-38.5 394,-19.5 340,-19.5"/>
<text text-anchor="middle" x="367" y="-26.5" font-family="Helvetica,sans-Serif" font-size="10.00">map2reg</text>
</a>
</g>
</g>
<!-- Node2&#45;&gt;Node3 -->
<g id="edge2" class="edge">
<title>Node2&#45;&gt;Node3</title>
<path fill="none" stroke="midnightblue" d="M419.95,-38.63C410.99,-36.97 402,-35.3 394.08,-33.83"/>
<polygon fill="midnightblue" stroke="midnightblue" points="419.52,-42.11 429.99,-40.49 420.79,-35.23 419.52,-42.11"/>
</g>
<!-- Node4 -->
<g id="node4" class="node">
<title>Node4</title>
<g id="a_node4"><a xlink:href="postpro_8f.html#a81ec64822ca4d65dd8858d58949a2997" target="_top" xlink:title=" ">
<polygon fill="white" stroke="black" points="203,-38.5 203,-57.5 304,-57.5 304,-38.5 203,-38.5"/>
<text text-anchor="middle" x="253.5" y="-45.5" font-family="Helvetica,sans-Serif" font-size="10.00">gen_rea_midside_e</text>
</a>
</g>
</g>
<!-- Node3&#45;&gt;Node4 -->
<g id="edge3" class="edge">
<title>Node3&#45;&gt;Node4</title>
<path fill="none" stroke="midnightblue" d="M329.87,-35.16C321.65,-36.56 312.79,-38.07 304.12,-39.54"/>
<polygon fill="midnightblue" stroke="midnightblue" points="330.59,-38.58 339.86,-33.45 329.41,-31.68 330.59,-38.58"/>
</g>
<!-- Node10 -->
<g id="node8" class="node">
<title>Node10</title>
<g id="a_node8"><a xlink:href="prepost_8f.html#a2b0ed536ab0284c398d7f2ac35622d88" target="_top" xlink:title=" ">
<polygon fill="white" stroke="black" points="222.5,-0.5 222.5,-19.5 284.5,-19.5 284.5,-0.5 222.5,-0.5"/>
<text text-anchor="middle" x="253.5" y="-7.5" font-family="Helvetica,sans-Serif" font-size="10.00">mfo_outfld</text>
</a>
</g>
</g>
<!-- Node3&#45;&gt;Node10 -->
<g id="edge7" class="edge">
<title>Node3&#45;&gt;Node10</title>
<path fill="none" stroke="midnightblue" d="M329.71,-22.82C315.2,-20.34 298.68,-17.53 284.82,-15.17"/>
<polygon fill="midnightblue" stroke="midnightblue" points="329.41,-26.32 339.86,-24.55 330.59,-19.42 329.41,-26.32"/>
</g>
<!-- Node5 -->
<g id="node5" class="node">
<title>Node5</title>
<g id="a_node5"><a xlink:href="postpro_8f.html#ad8bc1f902134949368ef44cd1e832e83" target="_top" xlink:title=" ">
<polygon fill="white" stroke="black" points="87,-76.5 87,-95.5 167,-95.5 167,-76.5 87,-76.5"/>
<text text-anchor="middle" x="127" y="-83.5" font-family="Helvetica,sans-Serif" font-size="10.00">gen_re2_curve</text>
</a>
</g>
</g>
<!-- Node4&#45;&gt;Node5 -->
<g id="edge4" class="edge">
<title>Node4&#45;&gt;Node5</title>
<path fill="none" stroke="midnightblue" d="M211.43,-60.54C194.49,-65.7 175.18,-71.6 159.41,-76.41"/>
<polygon fill="midnightblue" stroke="midnightblue" points="212.54,-63.86 221.08,-57.59 210.5,-57.16 212.54,-63.86"/>
</g>
<!-- Node7 -->
<g id="node7" class="node">
<title>Node7</title>
<g id="a_node7"><a xlink:href="postpro_8f.html#a65292a43f073835bc52cea698f7e42e7" target="_top" xlink:title=" ">
<polygon fill="white" stroke="red" points="87,-38.5 87,-57.5 167,-57.5 167,-38.5 87,-38.5"/>
<text text-anchor="middle" x="127" y="-45.5" font-family="Helvetica,sans-Serif" font-size="10.00">gen_rea_curve</text>
</a>
</g>
</g>
<!-- Node4&#45;&gt;Node7 -->
<g id="edge6" class="edge">
<title>Node4&#45;&gt;Node7</title>
<path fill="none" stroke="midnightblue" d="M192.75,-48C184.02,-48 175.22,-48 167.04,-48"/>
<polygon fill="midnightblue" stroke="midnightblue" points="192.94,-51.5 202.94,-48 192.94,-44.5 192.94,-51.5"/>
</g>
<!-- Node6 -->
<g id="node6" class="node">
<title>Node6</title>
<g id="a_node6"><a xlink:href="postpro_8f.html#a8bdd3e275563fb6fc53f63b9e78f3270" target="_top" xlink:title=" ">
<polygon fill="white" stroke="black" points="0,-76.5 0,-95.5 51,-95.5 51,-76.5 0,-76.5"/>
<text text-anchor="middle" x="25.5" y="-83.5" font-family="Helvetica,sans-Serif" font-size="10.00">gen_re2</text>
</a>
</g>
</g>
<!-- Node5&#45;&gt;Node6 -->
<g id="edge5" class="edge">
<title>Node5&#45;&gt;Node6</title>
<path fill="none" stroke="midnightblue" d="M76.91,-86C67.94,-86 58.94,-86 51.08,-86"/>
<polygon fill="midnightblue" stroke="midnightblue" points="76.96,-89.5 86.96,-86 76.96,-82.5 76.96,-89.5"/>
</g>
<!-- Node11 -->
<g id="node9" class="node">
<title>Node11</title>
<g id="a_node9"><a xlink:href="prepost_8f.html#a7e6b503691396e2ba24a32272da91f7a" target="_top" xlink:title=" ">
<polygon fill="white" stroke="red" points="106.5,-0.5 106.5,-19.5 147.5,-19.5 147.5,-0.5 106.5,-0.5"/>
<text text-anchor="middle" x="127" y="-7.5" font-family="Helvetica,sans-Serif" font-size="10.00">outfld</text>
</a>
</g>
</g>
<!-- Node10&#45;&gt;Node11 -->
<g id="edge8" class="edge">
<title>Node10&#45;&gt;Node11</title>
<path fill="none" stroke="midnightblue" d="M212.16,-10C190.6,-10 165.02,-10 147.77,-10"/>
<polygon fill="midnightblue" stroke="midnightblue" points="212.36,-13.5 222.36,-10 212.36,-6.5 212.36,-13.5"/>
</g>
<!-- Node61&#45;&gt;Node3 -->
<g id="edge10" class="edge">
<title>Node61&#45;&gt;Node3</title>
<path fill="none" stroke="midnightblue" d="M419.95,-19.37C410.99,-21.03 402,-22.7 394.08,-24.17"/>
<polygon fill="midnightblue" stroke="midnightblue" points="420.79,-22.77 429.99,-17.51 419.52,-15.89 420.79,-22.77"/>
</g>
</g>
</svg>
