<?xml version="1.0" encoding="UTF-8" standalone="no"?>
<!DOCTYPE svg PUBLIC "-//W3C//DTD SVG 1.1//EN"
 "http://www.w3.org/Graphics/SVG/1.1/DTD/svg11.dtd">
<!-- Generated by graphviz version 2.46.0 (0)
 -->
<!-- Title: gen_rea_full Pages: 1 -->
<svg width="283pt" height="218pt"
 viewBox="0.00 0.00 283.00 218.00" xmlns="http://www.w3.org/2000/svg" xmlns:xlink="http://www.w3.org/1999/xlink">
<g id="graph0" class="graph" transform="scale(1 1) rotate(0) translate(4 214)">
<title>gen_rea_full</title>
<polygon fill="white" stroke="transparent" points="-4,4 -4,-214 279,-214 279,4 -4,4"/>
<!-- Node1 -->
<g id="node1" class="node">
<title>Node1</title>
<g id="a_node1"><a xlink:title=" ">
<polygon fill="#bfbfbf" stroke="black" points="0,-76.5 0,-95.5 69,-95.5 69,-76.5 0,-76.5"/>
<text text-anchor="middle" x="34.5" y="-83.5" font-family="Helvetica,sans-Serif" font-size="10.00">gen_rea_full</text>
</a>
</g>
</g>
<!-- Node2 -->
<g id="node2" class="node">
<title>Node2</title>
<g id="a_node2"><a xlink:href="postpro_8f.html#a5d0ddf2aef0f8ba7118f32941a4ff481" target="_top" xlink:title=" ">
<polygon fill="white" stroke="red" points="114.5,-152.5 114.5,-171.5 181.5,-171.5 181.5,-152.5 114.5,-152.5"/>
<text text-anchor="middle" x="148" y="-159.5" font-family="Helvetica,sans-Serif" font-size="10.00">gen_rea_bc</text>
</a>
</g>
</g>
<!-- Node1&#45;&gt;Node2 -->
<g id="edge1" class="edge">
<title>Node1&#45;&gt;Node2</title>
<path fill="none" stroke="midnightblue" d="M45.67,-95.81C58.66,-107.97 82.2,-128.84 105,-143 107.79,-144.73 110.76,-146.4 113.78,-147.97"/>
<polygon fill="midnightblue" stroke="midnightblue" points="112.37,-151.17 122.89,-152.4 115.43,-144.88 112.37,-151.17"/>
</g>
<!-- Node23 -->
<g id="node7" class="node">
<title>Node23</title>
<g id="a_node7"><a xlink:href="postpro_8f.html#a4f20a1f4a26ee6d6ebe608d1e3949574" target="_top" xlink:title=" ">
<polygon fill="white" stroke="black" points="105,-38.5 105,-57.5 191,-57.5 191,-38.5 105,-38.5"/>
<text text-anchor="middle" x="148" y="-45.5" font-family="Helvetica,sans-Serif" font-size="10.00">gen_rea_bottom</text>
</a>
</g>
</g>
<!-- Node1&#45;&gt;Node23 -->
<g id="edge6" class="edge">
<title>Node1&#45;&gt;Node23</title>
<path fill="none" stroke="midnightblue" d="M63.64,-76.41C77.5,-71.69 94.42,-65.92 109.38,-60.82"/>
<polygon fill="midnightblue" stroke="midnightblue" points="110.54,-64.12 118.87,-57.59 108.28,-57.5 110.54,-64.12"/>
</g>
<!-- Node24 -->
<g id="node8" class="node">
<title>Node24</title>
<g id="a_node8"><a xlink:href="postpro_8f.html#a65292a43f073835bc52cea698f7e42e7" target="_top" xlink:title=" ">
<polygon fill="white" stroke="red" points="108,-114.5 108,-133.5 188,-133.5 188,-114.5 108,-114.5"/>
<text text-anchor="middle" x="148" y="-121.5" font-family="Helvetica,sans-Serif" font-size="10.00">gen_rea_curve</text>
</a>
</g>
</g>
<!-- Node1&#45;&gt;Node24 -->
<g id="edge7" class="edge">
<title>Node1&#45;&gt;Node24</title>
<path fill="none" stroke="midnightblue" d="M63.64,-95.59C77.5,-100.31 94.42,-106.08 109.38,-111.18"/>
<polygon fill="midnightblue" stroke="midnightblue" points="108.28,-114.5 118.87,-114.41 110.54,-107.88 108.28,-114.5"/>
</g>
<!-- Node44 -->
<g id="node9" class="node">
<title>Node44</title>
<g id="a_node9"><a xlink:href="postpro_8f.html#a1764c74d199b23c7c60287230d00b222" target="_top" xlink:title=" ">
<polygon fill="white" stroke="red" points="113,-0.5 113,-19.5 183,-19.5 183,-0.5 113,-0.5"/>
<text text-anchor="middle" x="148" y="-7.5" font-family="Helvetica,sans-Serif" font-size="10.00">gen_rea_top</text>
</a>
</g>
</g>
<!-- Node1&#45;&gt;Node44 -->
<g id="edge11" class="edge">
<title>Node1&#45;&gt;Node44</title>
<path fill="none" stroke="midnightblue" d="M45.67,-76.19C58.66,-64.03 82.2,-43.16 105,-29 107.79,-27.27 110.76,-25.6 113.78,-24.03"/>
<polygon fill="midnightblue" stroke="midnightblue" points="115.43,-27.12 122.89,-19.6 112.37,-20.83 115.43,-27.12"/>
</g>
<!-- Node48 -->
<g id="node10" class="node">
<title>Node48</title>
<g id="a_node10"><a xlink:href="postpro_8f.html#aca9de929133c2949d115548cd8db78b1" target="_top" xlink:title=" ">
<polygon fill="white" stroke="red" points="112,-76.5 112,-95.5 184,-95.5 184,-76.5 112,-76.5"/>
<text text-anchor="middle" x="148" y="-83.5" font-family="Helvetica,sans-Serif" font-size="10.00">gen_rea_xyz</text>
</a>
</g>
</g>
<!-- Node1&#45;&gt;Node48 -->
<g id="edge12" class="edge">
<title>Node1&#45;&gt;Node48</title>
<path fill="none" stroke="midnightblue" d="M69.26,-86C79.46,-86 90.83,-86 101.65,-86"/>
<polygon fill="midnightblue" stroke="midnightblue" points="101.81,-89.5 111.81,-86 101.81,-82.5 101.81,-89.5"/>
</g>
<!-- Node3 -->
<g id="node3" class="node">
<title>Node3</title>
<g id="a_node3"><a xlink:href="math_8f.html#ad7fb480cea001849621405f37167aab1" target="_top" xlink:title=" ">
<polygon fill="white" stroke="black" points="227,-190.5 227,-209.5 275,-209.5 275,-190.5 227,-190.5"/>
<text text-anchor="middle" x="251" y="-197.5" font-family="Helvetica,sans-Serif" font-size="10.00">chcopy</text>
</a>
</g>
</g>
<!-- Node2&#45;&gt;Node3 -->
<g id="edge2" class="edge">
<title>Node2&#45;&gt;Node3</title>
<path fill="none" stroke="midnightblue" d="M174.49,-171.59C187.47,-176.47 203.39,-182.46 217.27,-187.69"/>
<polygon fill="midnightblue" stroke="midnightblue" points="216.35,-191.08 226.94,-191.32 218.81,-184.53 216.35,-191.08"/>
</g>
<!-- Node4 -->
<g id="node4" class="node">
<title>Node4</title>
<g id="a_node4"><a xlink:href="math_8f.html#a3b43508554f14bdea8e14473d7d0803c" target="_top" xlink:title=" ">
<polygon fill="white" stroke="black" points="232,-152.5 232,-171.5 270,-171.5 270,-152.5 232,-152.5"/>
<text text-anchor="middle" x="251" y="-159.5" font-family="Helvetica,sans-Serif" font-size="10.00">copy</text>
</a>
</g>
</g>
<!-- Node2&#45;&gt;Node4 -->
<g id="edge3" class="edge">
<title>Node2&#45;&gt;Node4</title>
<path fill="none" stroke="midnightblue" d="M181.51,-162C194.45,-162 209.19,-162 221.68,-162"/>
<polygon fill="midnightblue" stroke="midnightblue" points="221.97,-165.5 231.97,-162 221.97,-158.5 221.97,-165.5"/>
</g>
<!-- Node5 -->
<g id="node5" class="node">
<title>Node5</title>
<g id="a_node5"><a xlink:href="dprocmap_8f.html#a90fd349db1c16c4cb8108485b3c200e0" target="_top" xlink:title=" ">
<polygon fill="white" stroke="red" points="234,-114.5 234,-133.5 268,-133.5 268,-114.5 234,-114.5"/>
<text text-anchor="middle" x="251" y="-121.5" font-family="Helvetica,sans-Serif" font-size="10.00">gllel</text>
</a>
</g>
</g>
<!-- Node2&#45;&gt;Node5 -->
<g id="edge4" class="edge">
<title>Node2&#45;&gt;Node5</title>
<path fill="none" stroke="midnightblue" d="M174.49,-152.41C189.83,-146.64 209.29,-139.32 224.61,-133.55"/>
<polygon fill="midnightblue" stroke="midnightblue" points="225.87,-136.82 234,-130.02 223.4,-130.27 225.87,-136.82"/>
</g>
<!-- Node17 -->
<g id="node6" class="node">
<title>Node17</title>
<g id="a_node6"><a xlink:href="dprocmap_8f.html#aa8f8117aad966b2c1f877b334d9d407b" target="_top" xlink:title=" ">
<polygon fill="white" stroke="red" points="231.5,-76.5 231.5,-95.5 270.5,-95.5 270.5,-76.5 231.5,-76.5"/>
<text text-anchor="middle" x="251" y="-83.5" font-family="Helvetica,sans-Serif" font-size="10.00">gllnid</text>
</a>
</g>
</g>
<!-- Node2&#45;&gt;Node17 -->
<g id="edge5" class="edge">
<title>Node2&#45;&gt;Node17</title>
<path fill="none" stroke="midnightblue" d="M174.3,-152.47C180.03,-149.8 185.91,-146.62 191,-143 209.95,-129.51 210,-120.88 227,-105 227.94,-104.12 228.91,-103.24 229.9,-102.36"/>
<polygon fill="midnightblue" stroke="midnightblue" points="232.26,-104.94 237.59,-95.79 227.71,-99.62 232.26,-104.94"/>
</g>
<!-- Node24&#45;&gt;Node4 -->
<g id="edge8" class="edge">
<title>Node24&#45;&gt;Node4</title>
<path fill="none" stroke="midnightblue" d="M174.49,-133.59C189.02,-139.06 207.24,-145.91 222.15,-151.52"/>
<polygon fill="midnightblue" stroke="midnightblue" points="221.26,-154.93 231.85,-155.17 223.72,-148.37 221.26,-154.93"/>
</g>
<!-- Node24&#45;&gt;Node5 -->
<g id="edge9" class="edge">
<title>Node24&#45;&gt;Node5</title>
<path fill="none" stroke="midnightblue" d="M188.05,-124C200.04,-124 212.94,-124 223.85,-124"/>
<polygon fill="midnightblue" stroke="midnightblue" points="223.98,-127.5 233.98,-124 223.98,-120.5 223.98,-127.5"/>
</g>
<!-- Node24&#45;&gt;Node17 -->
<g id="edge10" class="edge">
<title>Node24&#45;&gt;Node17</title>
<path fill="none" stroke="midnightblue" d="M174.49,-114.41C188.83,-109.02 206.76,-102.27 221.56,-96.7"/>
<polygon fill="midnightblue" stroke="midnightblue" points="223.09,-99.86 231.22,-93.07 220.63,-93.31 223.09,-99.86"/>
</g>
<!-- Node48&#45;&gt;Node5 -->
<g id="edge13" class="edge">
<title>Node48&#45;&gt;Node5</title>
<path fill="none" stroke="midnightblue" d="M174.49,-95.59C189.83,-101.36 209.29,-108.68 224.61,-114.45"/>
<polygon fill="midnightblue" stroke="midnightblue" points="223.4,-117.73 234,-117.98 225.87,-111.18 223.4,-117.73"/>
</g>
<!-- Node48&#45;&gt;Node17 -->
<g id="edge14" class="edge">
<title>Node48&#45;&gt;Node17</title>
<path fill="none" stroke="midnightblue" d="M184.04,-86C196.26,-86 209.8,-86 221.43,-86"/>
<polygon fill="midnightblue" stroke="midnightblue" points="221.47,-89.5 231.47,-86 221.47,-82.5 221.47,-89.5"/>
</g>
</g>
</svg>
