<?xml version="1.0" encoding="UTF-8" standalone="no"?>
<!DOCTYPE svg PUBLIC "-//W3C//DTD SVG 1.1//EN"
 "http://www.w3.org/Graphics/SVG/1.1/DTD/svg11.dtd">
<!-- Generated by graphviz version 2.46.0 (0)
 -->
<!-- Title: gen_rea_top Pages: 1 -->
<svg width="348pt" height="180pt"
 viewBox="0.00 0.00 348.00 180.00" xmlns="http://www.w3.org/2000/svg" xmlns:xlink="http://www.w3.org/1999/xlink">
<g id="graph0" class="graph" transform="scale(1 1) rotate(0) translate(4 176)">
<title>gen_rea_top</title>
<polygon fill="white" stroke="transparent" points="-4,4 -4,-176 344,-176 344,4 -4,4"/>
<!-- Node1 -->
<g id="node1" class="node">
<title>Node1</title>
<g id="a_node1"><a xlink:title=" ">
<polygon fill="#bfbfbf" stroke="black" points="0,-76.5 0,-95.5 70,-95.5 70,-76.5 0,-76.5"/>
<text text-anchor="middle" x="35" y="-83.5" font-family="Helvetica,sans-Serif" font-size="10.00">gen_rea_top</text>
</a>
</g>
</g>
<!-- Node2 -->
<g id="node2" class="node">
<title>Node2</title>
<g id="a_node2"><a xlink:href="comm__mpi_8f.html#ae425c1deb2e82d2007c97e1c4be990c8" target="_top" xlink:title=" ">
<polygon fill="white" stroke="black" points="110.5,-133.5 110.5,-152.5 151.5,-152.5 151.5,-133.5 110.5,-133.5"/>
<text text-anchor="middle" x="131" y="-140.5" font-family="Helvetica,sans-Serif" font-size="10.00">bcast</text>
</a>
</g>
</g>
<!-- Node1&#45;&gt;Node2 -->
<g id="edge1" class="edge">
<title>Node1&#45;&gt;Node2</title>
<path fill="none" stroke="midnightblue" d="M51.95,-95.67C66.62,-104.57 88.6,-117.9 105.5,-128.14"/>
<polygon fill="midnightblue" stroke="midnightblue" points="103.92,-131.28 114.29,-133.47 107.55,-125.3 103.92,-131.28"/>
</g>
<!-- Node4 -->
<g id="node4" class="node">
<title>Node4</title>
<g id="a_node4"><a xlink:href="comm__mpi_8f.html#a59fcf8a02fe54ab37f61050e3ca6b197" target="_top" xlink:title=" ">
<polygon fill="white" stroke="black" points="112,-76.5 112,-95.5 150,-95.5 150,-76.5 112,-76.5"/>
<text text-anchor="middle" x="131" y="-83.5" font-family="Helvetica,sans-Serif" font-size="10.00">exitti</text>
</a>
</g>
</g>
<!-- Node1&#45;&gt;Node4 -->
<g id="edge3" class="edge">
<title>Node1&#45;&gt;Node4</title>
<path fill="none" stroke="midnightblue" d="M70.2,-86C80.53,-86 91.76,-86 101.66,-86"/>
<polygon fill="midnightblue" stroke="midnightblue" points="101.79,-89.5 111.79,-86 101.79,-82.5 101.79,-89.5"/>
</g>
<!-- Node11 -->
<g id="node10" class="node">
<title>Node11</title>
<g id="a_node10"><a xlink:href="subs1_8f.html#a339739b88994e5bb12bd923147f94983" target="_top" xlink:title=" ">
<polygon fill="white" stroke="black" points="106,-38.5 106,-57.5 156,-57.5 156,-38.5 106,-38.5"/>
<text text-anchor="middle" x="131" y="-45.5" font-family="Helvetica,sans-Serif" font-size="10.00">flush_io</text>
</a>
</g>
</g>
<!-- Node1&#45;&gt;Node11 -->
<g id="edge9" class="edge">
<title>Node1&#45;&gt;Node11</title>
<path fill="none" stroke="midnightblue" d="M59.72,-76.41C70.96,-71.87 84.59,-66.36 96.83,-61.41"/>
<polygon fill="midnightblue" stroke="midnightblue" points="98.33,-64.58 106.29,-57.59 95.7,-58.09 98.33,-64.58"/>
</g>
<!-- Node3 -->
<g id="node3" class="node">
<title>Node3</title>
<g id="a_node3"><a xlink:href="mpi__dummy_8f.html#ae0bd4baaea848988f45664ce0de33350" target="_top" xlink:title=" ">
<polygon fill="white" stroke="black" points="192,-152.5 192,-171.5 254,-171.5 254,-152.5 192,-152.5"/>
<text text-anchor="middle" x="223" y="-159.5" font-family="Helvetica,sans-Serif" font-size="10.00">mpi_bcast</text>
</a>
</g>
</g>
<!-- Node2&#45;&gt;Node3 -->
<g id="edge2" class="edge">
<title>Node2&#45;&gt;Node3</title>
<path fill="none" stroke="midnightblue" d="M151.53,-147.12C160.46,-149.01 171.39,-151.32 181.95,-153.55"/>
<polygon fill="midnightblue" stroke="midnightblue" points="181.38,-157 191.89,-155.64 182.83,-150.15 181.38,-157"/>
</g>
<!-- Node5 -->
<g id="node5" class="node">
<title>Node5</title>
<g id="a_node5"><a xlink:href="math_8f.html#a692155d1d2ec380a9fdb2d81ef221625" target="_top" xlink:title=" ">
<polygon fill="white" stroke="black" points="203,-114.5 203,-133.5 243,-133.5 243,-114.5 203,-114.5"/>
<text text-anchor="middle" x="223" y="-121.5" font-family="Helvetica,sans-Serif" font-size="10.00">blank</text>
</a>
</g>
</g>
<!-- Node4&#45;&gt;Node5 -->
<g id="edge4" class="edge">
<title>Node4&#45;&gt;Node5</title>
<path fill="none" stroke="midnightblue" d="M150.21,-93.69C162.65,-98.94 179.38,-106 193.56,-111.99"/>
<polygon fill="midnightblue" stroke="midnightblue" points="192.31,-115.26 202.88,-115.93 195.03,-108.81 192.31,-115.26"/>
</g>
<!-- Node6 -->
<g id="node6" class="node">
<title>Node6</title>
<g id="a_node6"><a xlink:href="math_8f.html#ad7fb480cea001849621405f37167aab1" target="_top" xlink:title=" ">
<polygon fill="white" stroke="black" points="199,-76.5 199,-95.5 247,-95.5 247,-76.5 199,-76.5"/>
<text text-anchor="middle" x="223" y="-83.5" font-family="Helvetica,sans-Serif" font-size="10.00">chcopy</text>
</a>
</g>
</g>
<!-- Node4&#45;&gt;Node6 -->
<g id="edge5" class="edge">
<title>Node4&#45;&gt;Node6</title>
<path fill="none" stroke="midnightblue" d="M150.21,-86C161.24,-86 175.63,-86 188.64,-86"/>
<polygon fill="midnightblue" stroke="midnightblue" points="188.68,-89.5 198.68,-86 188.68,-82.5 188.68,-89.5"/>
</g>
<!-- Node7 -->
<g id="node7" class="node">
<title>Node7</title>
<g id="a_node7"><a xlink:href="byte_8c.html#a2da8eeb074dfd3ffbfb3e9a4d301cda4" target="_top" xlink:title=" ">
<polygon fill="white" stroke="black" points="205.5,-38.5 205.5,-57.5 240.5,-57.5 240.5,-38.5 205.5,-38.5"/>
<text text-anchor="middle" x="223" y="-45.5" font-family="Helvetica,sans-Serif" font-size="10.00">exitt</text>
</a>
</g>
</g>
<!-- Node4&#45;&gt;Node7 -->
<g id="edge6" class="edge">
<title>Node4&#45;&gt;Node7</title>
<path fill="none" stroke="midnightblue" d="M150.21,-78.31C163.32,-72.78 181.19,-65.23 195.82,-59.05"/>
<polygon fill="midnightblue" stroke="midnightblue" points="197.48,-62.15 205.33,-55.04 194.76,-55.7 197.48,-62.15"/>
</g>
<!-- Node10 -->
<g id="node9" class="node">
<title>Node10</title>
<g id="a_node9"><a xlink:href="ic_8f.html#ada3a2c3283a9052e1fe4b7a90375b09b" target="_top" xlink:title=" ">
<polygon fill="white" stroke="black" points="203,-0.5 203,-19.5 243,-19.5 243,-0.5 203,-0.5"/>
<text text-anchor="middle" x="223" y="-7.5" font-family="Helvetica,sans-Serif" font-size="10.00">indx1</text>
</a>
</g>
</g>
<!-- Node4&#45;&gt;Node10 -->
<g id="edge8" class="edge">
<title>Node4&#45;&gt;Node10</title>
<path fill="none" stroke="midnightblue" d="M144.98,-76.27C148.64,-73.39 152.55,-70.16 156,-67 173.16,-51.3 174.04,-43.78 192,-29 193.54,-27.74 195.16,-26.49 196.83,-25.28"/>
<polygon fill="midnightblue" stroke="midnightblue" points="198.97,-28.05 205.3,-19.55 195.05,-22.25 198.97,-28.05"/>
</g>
<!-- Node8 -->
<g id="node8" class="node">
<title>Node8</title>
<g id="a_node8"><a xlink:href="comm__mpi_8f.html#acc8803a3787828530843112e0c48941b" target="_top" xlink:title=" ">
<polygon fill="white" stroke="red" points="290,-38.5 290,-57.5 340,-57.5 340,-38.5 290,-38.5"/>
<text text-anchor="middle" x="315" y="-45.5" font-family="Helvetica,sans-Serif" font-size="10.00">nek_die</text>
</a>
</g>
</g>
<!-- Node7&#45;&gt;Node8 -->
<g id="edge7" class="edge">
<title>Node7&#45;&gt;Node8</title>
<path fill="none" stroke="midnightblue" d="M240.51,-48C251.4,-48 266.07,-48 279.45,-48"/>
<polygon fill="midnightblue" stroke="midnightblue" points="279.79,-51.5 289.79,-48 279.79,-44.5 279.79,-51.5"/>
</g>
</g>
</svg>
