<?xml version="1.0" encoding="UTF-8" standalone="no"?>
<!DOCTYPE svg PUBLIC "-//W3C//DTD SVG 1.1//EN"
 "http://www.w3.org/Graphics/SVG/1.1/DTD/svg11.dtd">
<!-- Generated by graphviz version 2.46.0 (0)
 -->
<!-- Title: map2reg Pages: 1 -->
<svg width="420pt" height="142pt"
 viewBox="0.00 0.00 420.00 142.00" xmlns="http://www.w3.org/2000/svg" xmlns:xlink="http://www.w3.org/1999/xlink">
<g id="graph0" class="graph" transform="scale(1 1) rotate(0) translate(4 138)">
<title>map2reg</title>
<polygon fill="white" stroke="transparent" points="-4,4 -4,-138 416,-138 416,4 -4,4"/>
<!-- Node1 -->
<g id="node1" class="node">
<title>Node1</title>
<g id="a_node1"><a xlink:title=" ">
<polygon fill="#bfbfbf" stroke="black" points="358,-47.5 358,-66.5 412,-66.5 412,-47.5 358,-47.5"/>
<text text-anchor="middle" x="385" y="-54.5" font-family="Helvetica,sans-Serif" font-size="10.00">map2reg</text>
</a>
</g>
</g>
<!-- Node2 -->
<g id="node2" class="node">
<title>Node2</title>
<g id="a_node2"><a xlink:href="postpro_8f.html#a81ec64822ca4d65dd8858d58949a2997" target="_top" xlink:title=" ">
<polygon fill="white" stroke="black" points="221,-71.5 221,-90.5 322,-90.5 322,-71.5 221,-71.5"/>
<text text-anchor="middle" x="271.5" y="-78.5" font-family="Helvetica,sans-Serif" font-size="10.00">gen_rea_midside_e</text>
</a>
</g>
</g>
<!-- Node1&#45;&gt;Node2 -->
<g id="edge1" class="edge">
<title>Node1&#45;&gt;Node2</title>
<path fill="none" stroke="midnightblue" d="M347.93,-64.76C338.01,-66.9 327.13,-69.24 316.81,-71.46"/>
<polygon fill="midnightblue" stroke="midnightblue" points="348.82,-68.15 357.86,-62.63 347.35,-61.31 348.82,-68.15"/>
</g>
<!-- Node8 -->
<g id="node8" class="node">
<title>Node8</title>
<g id="a_node8"><a xlink:href="prepost_8f.html#a2b0ed536ab0284c398d7f2ac35622d88" target="_top" xlink:title=" ">
<polygon fill="white" stroke="black" points="240.5,-28.5 240.5,-47.5 302.5,-47.5 302.5,-28.5 240.5,-28.5"/>
<text text-anchor="middle" x="271.5" y="-35.5" font-family="Helvetica,sans-Serif" font-size="10.00">mfo_outfld</text>
</a>
</g>
</g>
<!-- Node1&#45;&gt;Node8 -->
<g id="edge7" class="edge">
<title>Node1&#45;&gt;Node8</title>
<path fill="none" stroke="midnightblue" d="M347.71,-50.82C333.2,-48.34 316.68,-45.53 302.82,-43.17"/>
<polygon fill="midnightblue" stroke="midnightblue" points="347.41,-54.32 357.86,-52.55 348.59,-47.42 347.41,-54.32"/>
</g>
<!-- Node3 -->
<g id="node3" class="node">
<title>Node3</title>
<g id="a_node3"><a xlink:href="postpro_8f.html#ad8bc1f902134949368ef44cd1e832e83" target="_top" xlink:title=" ">
<polygon fill="white" stroke="black" points="105,-111.5 105,-130.5 185,-130.5 185,-111.5 105,-111.5"/>
<text text-anchor="middle" x="145" y="-118.5" font-family="Helvetica,sans-Serif" font-size="10.00">gen_re2_curve</text>
</a>
</g>
</g>
<!-- Node2&#45;&gt;Node3 -->
<g id="edge2" class="edge">
<title>Node2&#45;&gt;Node3</title>
<path fill="none" stroke="midnightblue" d="M231.04,-93.68C213.08,-99.45 192.17,-106.17 175.58,-111.5"/>
<polygon fill="midnightblue" stroke="midnightblue" points="232.23,-96.97 240.68,-90.58 230.09,-90.31 232.23,-96.97"/>
</g>
<!-- Node5 -->
<g id="node5" class="node">
<title>Node5</title>
<g id="a_node5"><a xlink:href="postpro_8f.html#a65292a43f073835bc52cea698f7e42e7" target="_top" xlink:title=" ">
<polygon fill="white" stroke="black" points="105,-71.5 105,-90.5 185,-90.5 185,-71.5 105,-71.5"/>
<text text-anchor="middle" x="145" y="-78.5" font-family="Helvetica,sans-Serif" font-size="10.00">gen_rea_curve</text>
</a>
</g>
</g>
<!-- Node2&#45;&gt;Node5 -->
<g id="edge4" class="edge">
<title>Node2&#45;&gt;Node5</title>
<path fill="none" stroke="midnightblue" d="M210.75,-81C202.02,-81 193.22,-81 185.04,-81"/>
<polygon fill="midnightblue" stroke="midnightblue" points="210.94,-84.5 220.94,-81 210.94,-77.5 210.94,-84.5"/>
</g>
<!-- Node4 -->
<g id="node4" class="node">
<title>Node4</title>
<g id="a_node4"><a xlink:href="postpro_8f.html#a8bdd3e275563fb6fc53f63b9e78f3270" target="_top" xlink:title=" ">
<polygon fill="white" stroke="black" points="9,-114.5 9,-133.5 60,-133.5 60,-114.5 9,-114.5"/>
<text text-anchor="middle" x="34.5" y="-121.5" font-family="Helvetica,sans-Serif" font-size="10.00">gen_re2</text>
</a>
</g>
</g>
<!-- Node3&#45;&gt;Node4 -->
<g id="edge3" class="edge">
<title>Node3&#45;&gt;Node4</title>
<path fill="none" stroke="midnightblue" d="M94.48,-122.37C82.55,-122.7 70.32,-123.04 60.1,-123.32"/>
<polygon fill="midnightblue" stroke="midnightblue" points="94.93,-125.86 104.83,-122.08 94.74,-118.86 94.93,-125.86"/>
</g>
<!-- Node6 -->
<g id="node6" class="node">
<title>Node6</title>
<g id="a_node6"><a xlink:href="postpro_8f.html#aebe895d504a37ea0f190fdac2f0a463a" target="_top" xlink:title=" ">
<polygon fill="white" stroke="black" points="9,-76.5 9,-95.5 60,-95.5 60,-76.5 9,-76.5"/>
<text text-anchor="middle" x="34.5" y="-83.5" font-family="Helvetica,sans-Serif" font-size="10.00">gen_rea</text>
</a>
</g>
</g>
<!-- Node5&#45;&gt;Node6 -->
<g id="edge5" class="edge">
<title>Node5&#45;&gt;Node6</title>
<path fill="none" stroke="midnightblue" d="M94.48,-83.28C82.55,-83.83 70.32,-84.4 60.1,-84.87"/>
<polygon fill="midnightblue" stroke="midnightblue" points="95,-86.76 104.83,-82.81 94.68,-79.77 95,-86.76"/>
</g>
<!-- Node7 -->
<g id="node7" class="node">
<title>Node7</title>
<g id="a_node7"><a xlink:href="postpro_8f.html#a46fc0df41f73386895f2b3bb185d4a6a" target="_top" xlink:title=" ">
<polygon fill="white" stroke="black" points="0,-38.5 0,-57.5 69,-57.5 69,-38.5 0,-38.5"/>
<text text-anchor="middle" x="34.5" y="-45.5" font-family="Helvetica,sans-Serif" font-size="10.00">gen_rea_full</text>
</a>
</g>
</g>
<!-- Node5&#45;&gt;Node7 -->
<g id="edge6" class="edge">
<title>Node5&#45;&gt;Node7</title>
<path fill="none" stroke="midnightblue" d="M102.85,-68.48C90.9,-64.85 78.05,-60.94 66.81,-57.52"/>
<polygon fill="midnightblue" stroke="midnightblue" points="102.03,-71.89 112.62,-71.46 104.07,-65.2 102.03,-71.89"/>
</g>
<!-- Node9 -->
<g id="node9" class="node">
<title>Node9</title>
<g id="a_node9"><a xlink:href="prepost_8f.html#a7e6b503691396e2ba24a32272da91f7a" target="_top" xlink:title=" ">
<polygon fill="white" stroke="black" points="124.5,-19.5 124.5,-38.5 165.5,-38.5 165.5,-19.5 124.5,-19.5"/>
<text text-anchor="middle" x="145" y="-26.5" font-family="Helvetica,sans-Serif" font-size="10.00">outfld</text>
</a>
</g>
</g>
<!-- Node8&#45;&gt;Node9 -->
<g id="edge8" class="edge">
<title>Node8&#45;&gt;Node9</title>
<path fill="none" stroke="midnightblue" d="M230.16,-35.08C208.6,-33.52 183.02,-31.68 165.77,-30.43"/>
<polygon fill="midnightblue" stroke="midnightblue" points="230.14,-38.59 240.36,-35.82 230.64,-31.61 230.14,-38.59"/>
</g>
<!-- Node10 -->
<g id="node10" class="node">
<title>Node10</title>
<g id="a_node10"><a xlink:href="prepost_8f.html#a4a3b0e4ce35b3381281c0839e5846370" target="_top" xlink:title=" ">
<polygon fill="white" stroke="red" points="10,-0.5 10,-19.5 59,-19.5 59,-0.5 10,-0.5"/>
<text text-anchor="middle" x="34.5" y="-7.5" font-family="Helvetica,sans-Serif" font-size="10.00">prepost</text>
</a>
</g>
</g>
<!-- Node9&#45;&gt;Node10 -->
<g id="edge9" class="edge">
<title>Node9&#45;&gt;Node10</title>
<path fill="none" stroke="midnightblue" d="M114.19,-23.78C96.86,-20.74 75.32,-16.97 59.16,-14.14"/>
<polygon fill="midnightblue" stroke="midnightblue" points="113.9,-27.28 124.35,-25.56 115.11,-20.39 113.9,-27.28"/>
</g>
</g>
</svg>
