<?xml version="1.0" encoding="UTF-8" standalone="no"?>
<!DOCTYPE svg PUBLIC "-//W3C//DTD SVG 1.1//EN"
 "http://www.w3.org/Graphics/SVG/1.1/DTD/svg11.dtd">
<!-- Generated by graphviz version 2.46.0 (0)
 -->
<!-- Title: mfo_mdatas Pages: 1 -->
<svg width="354pt" height="256pt"
 viewBox="0.00 0.00 354.00 256.00" xmlns="http://www.w3.org/2000/svg" xmlns:xlink="http://www.w3.org/1999/xlink">
<g id="graph0" class="graph" transform="scale(1 1) rotate(0) translate(4 252)">
<title>mfo_mdatas</title>
<polygon fill="white" stroke="transparent" points="-4,4 -4,-252 350,-252 350,4 -4,4"/>
<!-- Node1 -->
<g id="node1" class="node">
<title>Node1</title>
<g id="a_node1"><a xlink:title=" ">
<polygon fill="#bfbfbf" stroke="black" points="0,-114.5 0,-133.5 71,-133.5 71,-114.5 0,-114.5"/>
<text text-anchor="middle" x="35.5" y="-121.5" font-family="Helvetica,sans-Serif" font-size="10.00">mfo_mdatas</text>
</a>
</g>
</g>
<!-- Node2 -->
<g id="node2" class="node">
<title>Node2</title>
<g id="a_node2"><a xlink:href="byte__mpi_8f.html#a7243a5d153454c75d56636681519a0bb" target="_top" xlink:title=" ">
<polygon fill="white" stroke="black" points="107,-228.5 107,-247.5 190,-247.5 190,-228.5 107,-228.5"/>
<text text-anchor="middle" x="148.5" y="-235.5" font-family="Helvetica,sans-Serif" font-size="10.00">byte_write_mpi</text>
</a>
</g>
</g>
<!-- Node1&#45;&gt;Node2 -->
<g id="edge1" class="edge">
<title>Node1&#45;&gt;Node2</title>
<path fill="none" stroke="midnightblue" d="M42.32,-133.62C53.29,-151.2 78.51,-188.98 107,-214 110.72,-217.27 114.95,-220.33 119.23,-223.1"/>
<polygon fill="midnightblue" stroke="midnightblue" points="117.59,-226.2 127.97,-228.37 121.21,-220.21 117.59,-226.2"/>
</g>
<!-- Node10 -->
<g id="node5" class="node">
<title>Node10</title>
<g id="a_node5"><a xlink:href="comm__mpi_8f.html#a243c9bed2592e7cd159fb36be4fda037" target="_top" xlink:title=" ">
<polygon fill="white" stroke="red" points="230,-190.5 230,-209.5 271,-209.5 271,-190.5 230,-190.5"/>
<text text-anchor="middle" x="250.5" y="-197.5" font-family="Helvetica,sans-Serif" font-size="10.00">crecv</text>
</a>
</g>
</g>
<!-- Node1&#45;&gt;Node10 -->
<g id="edge4" class="edge">
<title>Node1&#45;&gt;Node10</title>
<path fill="none" stroke="midnightblue" d="M44.98,-133.57C57.23,-146.7 81.26,-169.93 107,-181 143.55,-196.72 189.84,-200.23 219.57,-200.64"/>
<polygon fill="midnightblue" stroke="midnightblue" points="219.71,-204.14 229.72,-200.67 219.73,-197.14 219.71,-204.14"/>
</g>
<!-- Node12 -->
<g id="node6" class="node">
<title>Node12</title>
<g id="a_node6"><a xlink:href="comm__mpi_8f.html#abd95004b45059acdcc13614c52e60eae" target="_top" xlink:title=" ">
<polygon fill="white" stroke="red" points="127,-152.5 127,-171.5 170,-171.5 170,-152.5 127,-152.5"/>
<text text-anchor="middle" x="148.5" y="-159.5" font-family="Helvetica,sans-Serif" font-size="10.00">csend</text>
</a>
</g>
</g>
<!-- Node1&#45;&gt;Node12 -->
<g id="edge6" class="edge">
<title>Node1&#45;&gt;Node12</title>
<path fill="none" stroke="midnightblue" d="M64.51,-133.59C80.57,-139.09 100.74,-145.99 117.18,-151.62"/>
<polygon fill="midnightblue" stroke="midnightblue" points="116.26,-155.01 126.86,-154.93 118.53,-148.38 116.26,-155.01"/>
</g>
<!-- Node14 -->
<g id="node7" class="node">
<title>Node14</title>
<g id="a_node7"><a xlink:href="comm__mpi_8f.html#ae6a06eb6f47a6153825afb25e6cc49c7" target="_top" xlink:title=" ">
<polygon fill="white" stroke="red" points="226,-133.5 226,-152.5 275,-152.5 275,-133.5 226,-133.5"/>
<text text-anchor="middle" x="250.5" y="-140.5" font-family="Helvetica,sans-Serif" font-size="10.00">err_chk</text>
</a>
</g>
</g>
<!-- Node1&#45;&gt;Node14 -->
<g id="edge7" class="edge">
<title>Node1&#45;&gt;Node14</title>
<path fill="none" stroke="midnightblue" d="M71.2,-127.09C111.04,-130.65 175.99,-136.44 215.53,-139.97"/>
<polygon fill="midnightblue" stroke="midnightblue" points="215.45,-143.48 225.72,-140.88 216.07,-136.5 215.45,-143.48"/>
</g>
<!-- Node18 -->
<g id="node8" class="node">
<title>Node18</title>
<g id="a_node8"><a xlink:href="comm__mpi_8f.html#a4acb4d8e379294232e9219bec063d8f3" target="_top" xlink:title=" ">
<polygon fill="white" stroke="red" points="119,-76.5 119,-95.5 178,-95.5 178,-76.5 119,-76.5"/>
<text text-anchor="middle" x="148.5" y="-83.5" font-family="Helvetica,sans-Serif" font-size="10.00">nekgsync</text>
</a>
</g>
</g>
<!-- Node1&#45;&gt;Node18 -->
<g id="edge9" class="edge">
<title>Node1&#45;&gt;Node18</title>
<path fill="none" stroke="midnightblue" d="M64.51,-114.41C78.18,-109.73 94.83,-104.03 109.62,-98.97"/>
<polygon fill="midnightblue" stroke="midnightblue" points="111.17,-102.14 119.5,-95.59 108.9,-95.51 111.17,-102.14"/>
</g>
<!-- Node20 -->
<g id="node9" class="node">
<title>Node20</title>
<g id="a_node9"><a xlink:href="math_8f.html#a3a4077924e14ce175a0d9991f9006d16" target="_top" xlink:title=" ">
<polygon fill="white" stroke="black" points="127,-38.5 127,-57.5 170,-57.5 170,-38.5 127,-38.5"/>
<text text-anchor="middle" x="148.5" y="-45.5" font-family="Helvetica,sans-Serif" font-size="10.00">vlmax</text>
</a>
</g>
</g>
<!-- Node1&#45;&gt;Node20 -->
<g id="edge10" class="edge">
<title>Node1&#45;&gt;Node20</title>
<path fill="none" stroke="midnightblue" d="M46.88,-114.26C60.12,-102.16 84.05,-81.36 107,-67 110.38,-64.88 114.04,-62.85 117.73,-60.95"/>
<polygon fill="midnightblue" stroke="midnightblue" points="119.34,-64.06 126.81,-56.54 116.28,-57.76 119.34,-64.06"/>
</g>
<!-- Node21 -->
<g id="node10" class="node">
<title>Node21</title>
<g id="a_node10"><a xlink:href="math_8f.html#aefe89276b8a8ae8a9f1ea1ede71b142f" target="_top" xlink:title=" ">
<polygon fill="white" stroke="black" points="128.5,-0.5 128.5,-19.5 168.5,-19.5 168.5,-0.5 128.5,-0.5"/>
<text text-anchor="middle" x="148.5" y="-7.5" font-family="Helvetica,sans-Serif" font-size="10.00">vlmin</text>
</a>
</g>
</g>
<!-- Node1&#45;&gt;Node21 -->
<g id="edge11" class="edge">
<title>Node1&#45;&gt;Node21</title>
<path fill="none" stroke="midnightblue" d="M41.48,-114.42C51.57,-95.77 76.16,-54.22 107,-29 110.61,-26.04 114.77,-23.43 119,-21.16"/>
<polygon fill="midnightblue" stroke="midnightblue" points="120.73,-24.21 128.23,-16.73 117.7,-17.9 120.73,-24.21"/>
</g>
<!-- Node3 -->
<g id="node3" class="node">
<title>Node3</title>
<g id="a_node3"><a xlink:href="comm__mpi_8f.html#a59fcf8a02fe54ab37f61050e3ca6b197" target="_top" xlink:title=" ">
<polygon fill="white" stroke="red" points="231.5,-228.5 231.5,-247.5 269.5,-247.5 269.5,-228.5 231.5,-228.5"/>
<text text-anchor="middle" x="250.5" y="-235.5" font-family="Helvetica,sans-Serif" font-size="10.00">exitti</text>
</a>
</g>
</g>
<!-- Node2&#45;&gt;Node3 -->
<g id="edge2" class="edge">
<title>Node2&#45;&gt;Node3</title>
<path fill="none" stroke="midnightblue" d="M190.17,-238C200.55,-238 211.47,-238 221.08,-238"/>
<polygon fill="midnightblue" stroke="midnightblue" points="221.27,-241.5 231.27,-238 221.27,-234.5 221.27,-241.5"/>
</g>
<!-- Node6 -->
<g id="node4" class="node">
<title>Node6</title>
<g id="a_node4"><a xlink:href="byte_8c.html#a2da8eeb074dfd3ffbfb3e9a4d301cda4" target="_top" xlink:title=" ">
<polygon fill="white" stroke="red" points="311,-190.5 311,-209.5 346,-209.5 346,-190.5 311,-190.5"/>
<text text-anchor="middle" x="328.5" y="-197.5" font-family="Helvetica,sans-Serif" font-size="10.00">exitt</text>
</a>
</g>
</g>
<!-- Node3&#45;&gt;Node6 -->
<g id="edge3" class="edge">
<title>Node3&#45;&gt;Node6</title>
<path fill="none" stroke="midnightblue" d="M269.51,-228.99C279.12,-224.19 291.12,-218.19 301.7,-212.9"/>
<polygon fill="midnightblue" stroke="midnightblue" points="303.54,-215.89 310.92,-208.29 300.41,-209.63 303.54,-215.89"/>
</g>
<!-- Node10&#45;&gt;Node6 -->
<g id="edge5" class="edge">
<title>Node10&#45;&gt;Node6</title>
<path fill="none" stroke="midnightblue" d="M271.07,-200C280.12,-200 291,-200 300.78,-200"/>
<polygon fill="midnightblue" stroke="midnightblue" points="300.83,-203.5 310.83,-200 300.83,-196.5 300.83,-203.5"/>
</g>
<!-- Node14&#45;&gt;Node6 -->
<g id="edge8" class="edge">
<title>Node14&#45;&gt;Node6</title>
<path fill="none" stroke="midnightblue" d="M264.39,-152.67C275.93,-161.32 293.05,-174.16 306.54,-184.28"/>
<polygon fill="midnightblue" stroke="midnightblue" points="304.7,-187.27 314.8,-190.47 308.9,-181.67 304.7,-187.27"/>
</g>
</g>
</svg>
