<?xml version="1.0" encoding="UTF-8" standalone="no"?>
<!DOCTYPE svg PUBLIC "-//W3C//DTD SVG 1.1//EN"
 "http://www.w3.org/Graphics/SVG/1.1/DTD/svg11.dtd">
<!-- Generated by graphviz version 2.46.0 (0)
 -->
<!-- Title: outpost Pages: 1 -->
<svg width="459pt" height="180pt"
 viewBox="0.00 0.00 459.00 180.00" xmlns="http://www.w3.org/2000/svg" xmlns:xlink="http://www.w3.org/1999/xlink">
<g id="graph0" class="graph" transform="scale(1 1) rotate(0) translate(4 176)">
<title>outpost</title>
<polygon fill="white" stroke="transparent" points="-4,4 -4,-176 455,-176 455,4 -4,4"/>
<!-- Node1 -->
<g id="node1" class="node">
<title>Node1</title>
<g id="a_node1"><a xlink:title=" ">
<polygon fill="#bfbfbf" stroke="black" points="0,-114.5 0,-133.5 49,-133.5 49,-114.5 0,-114.5"/>
<text text-anchor="middle" x="24.5" y="-121.5" font-family="Helvetica,sans-Serif" font-size="10.00">outpost</text>
</a>
</g>
</g>
<!-- Node2 -->
<g id="node2" class="node">
<title>Node2</title>
<g id="a_node2"><a xlink:href="prepost_8f.html#aaf4c0f2e1790302116a4c719c2eb50ff" target="_top" xlink:title=" ">
<polygon fill="white" stroke="black" points="85,-114.5 85,-133.5 139,-133.5 139,-114.5 85,-114.5"/>
<text text-anchor="middle" x="112" y="-121.5" font-family="Helvetica,sans-Serif" font-size="10.00">outpost2</text>
</a>
</g>
</g>
<!-- Node1&#45;&gt;Node2 -->
<g id="edge1" class="edge">
<title>Node1&#45;&gt;Node2</title>
<path fill="none" stroke="midnightblue" d="M49.32,-124C57.19,-124 66.13,-124 74.71,-124"/>
<polygon fill="midnightblue" stroke="midnightblue" points="74.91,-127.5 84.91,-124 74.91,-120.5 74.91,-127.5"/>
</g>
<!-- Node3 -->
<g id="node3" class="node">
<title>Node3</title>
<g id="a_node3"><a xlink:href="math_8f.html#a3b43508554f14bdea8e14473d7d0803c" target="_top" xlink:title=" ">
<polygon fill="white" stroke="black" points="398,-76.5 398,-95.5 436,-95.5 436,-76.5 398,-76.5"/>
<text text-anchor="middle" x="417" y="-83.5" font-family="Helvetica,sans-Serif" font-size="10.00">copy</text>
</a>
</g>
</g>
<!-- Node2&#45;&gt;Node3 -->
<g id="edge2" class="edge">
<title>Node2&#45;&gt;Node3</title>
<path fill="none" stroke="midnightblue" d="M139.17,-123.47C182.65,-122.24 272.34,-118.19 347,-105 360.67,-102.59 375.55,-98.66 387.98,-95"/>
<polygon fill="midnightblue" stroke="midnightblue" points="389.21,-98.29 397.76,-92.03 387.18,-91.59 389.21,-98.29"/>
</g>
<!-- Node4 -->
<g id="node4" class="node">
<title>Node4</title>
<g id="a_node4"><a xlink:href="byte_8c.html#a2da8eeb074dfd3ffbfb3e9a4d301cda4" target="_top" xlink:title=" ">
<polygon fill="white" stroke="black" points="182,-152.5 182,-171.5 217,-171.5 217,-152.5 182,-152.5"/>
<text text-anchor="middle" x="199.5" y="-159.5" font-family="Helvetica,sans-Serif" font-size="10.00">exitt</text>
</a>
</g>
</g>
<!-- Node2&#45;&gt;Node4 -->
<g id="edge3" class="edge">
<title>Node2&#45;&gt;Node4</title>
<path fill="none" stroke="midnightblue" d="M134.58,-133.59C146.13,-138.72 160.44,-145.09 172.6,-150.49"/>
<polygon fill="midnightblue" stroke="midnightblue" points="171.23,-153.71 181.79,-154.57 174.07,-147.31 171.23,-153.71"/>
</g>
<!-- Node7 -->
<g id="node7" class="node">
<title>Node7</title>
<g id="a_node7"><a xlink:href="prepost_8f.html#a4a3b0e4ce35b3381281c0839e5846370" target="_top" xlink:title=" ">
<polygon fill="white" stroke="black" points="175,-57.5 175,-76.5 224,-76.5 224,-57.5 175,-57.5"/>
<text text-anchor="middle" x="199.5" y="-64.5" font-family="Helvetica,sans-Serif" font-size="10.00">prepost</text>
</a>
</g>
</g>
<!-- Node2&#45;&gt;Node7 -->
<g id="edge6" class="edge">
<title>Node2&#45;&gt;Node7</title>
<path fill="none" stroke="midnightblue" d="M127.5,-114.33C140.73,-105.52 160.47,-92.35 175.79,-82.14"/>
<polygon fill="midnightblue" stroke="midnightblue" points="177.83,-84.99 184.21,-76.53 173.95,-79.16 177.83,-84.99"/>
</g>
<!-- Node5 -->
<g id="node5" class="node">
<title>Node5</title>
<g id="a_node5"><a xlink:href="comm__mpi_8f.html#acc8803a3787828530843112e0c48941b" target="_top" xlink:title=" ">
<polygon fill="white" stroke="black" points="278.5,-152.5 278.5,-171.5 328.5,-171.5 328.5,-152.5 278.5,-152.5"/>
<text text-anchor="middle" x="303.5" y="-159.5" font-family="Helvetica,sans-Serif" font-size="10.00">nek_die</text>
</a>
</g>
</g>
<!-- Node4&#45;&gt;Node5 -->
<g id="edge4" class="edge">
<title>Node4&#45;&gt;Node5</title>
<path fill="none" stroke="midnightblue" d="M217.34,-162C231.12,-162 251.05,-162 268.17,-162"/>
<polygon fill="midnightblue" stroke="midnightblue" points="268.38,-165.5 278.38,-162 268.38,-158.5 268.38,-165.5"/>
</g>
<!-- Node6 -->
<g id="node6" class="node">
<title>Node6</title>
<g id="a_node6"><a xlink:href="mpi__dummy_8f.html#a55e9a1619aadb638b14211ce21d7d566" target="_top" xlink:title=" ">
<polygon fill="white" stroke="black" points="383,-152.5 383,-171.5 451,-171.5 451,-152.5 383,-152.5"/>
<text text-anchor="middle" x="417" y="-159.5" font-family="Helvetica,sans-Serif" font-size="10.00">mpi_finalize</text>
</a>
</g>
</g>
<!-- Node5&#45;&gt;Node6 -->
<g id="edge5" class="edge">
<title>Node5&#45;&gt;Node6</title>
<path fill="none" stroke="midnightblue" d="M328.69,-162C341.6,-162 357.87,-162 372.86,-162"/>
<polygon fill="midnightblue" stroke="midnightblue" points="372.97,-165.5 382.97,-162 372.97,-158.5 372.97,-165.5"/>
</g>
<!-- Node8 -->
<g id="node8" class="node">
<title>Node8</title>
<g id="a_node8"><a xlink:href="comm__mpi_8f.html#af434902df36175d2afdc00fbabc84b2c" target="_top" xlink:title=" ">
<polygon fill="white" stroke="red" points="260,-0.5 260,-19.5 347,-19.5 347,-0.5 260,-0.5"/>
<text text-anchor="middle" x="303.5" y="-7.5" font-family="Helvetica,sans-Serif" font-size="10.00">dnekclock_sync</text>
</a>
</g>
</g>
<!-- Node7&#45;&gt;Node8 -->
<g id="edge7" class="edge">
<title>Node7&#45;&gt;Node8</title>
<path fill="none" stroke="midnightblue" d="M214.33,-57.34C226.17,-49.27 243.82,-37.72 260,-29 263.25,-27.25 266.69,-25.52 270.16,-23.85"/>
<polygon fill="midnightblue" stroke="midnightblue" points="271.65,-27.02 279.26,-19.64 268.72,-20.66 271.65,-27.02"/>
</g>
<!-- Node12 -->
<g id="node9" class="node">
<title>Node12</title>
<g id="a_node9"><a xlink:href="prepost_8f.html#a7e6b503691396e2ba24a32272da91f7a" target="_top" xlink:title=" ">
<polygon fill="white" stroke="red" points="283,-76.5 283,-95.5 324,-95.5 324,-76.5 283,-76.5"/>
<text text-anchor="middle" x="303.5" y="-83.5" font-family="Helvetica,sans-Serif" font-size="10.00">outfld</text>
</a>
</g>
</g>
<!-- Node7&#45;&gt;Node12 -->
<g id="edge8" class="edge">
<title>Node7&#45;&gt;Node12</title>
<path fill="none" stroke="midnightblue" d="M224.16,-71.41C238.6,-74.1 257.19,-77.56 272.64,-80.44"/>
<polygon fill="midnightblue" stroke="midnightblue" points="272.27,-83.93 282.74,-82.32 273.55,-77.05 272.27,-83.93"/>
</g>
<!-- Node88 -->
<g id="node10" class="node">
<title>Node88</title>
<g id="a_node10"><a xlink:href="prepost_8f.html#a68819f71d0d1730a93b44791fc50f171" target="_top" xlink:title=" ">
<polygon fill="white" stroke="red" points="267,-38.5 267,-57.5 340,-57.5 340,-38.5 267,-38.5"/>
<text text-anchor="middle" x="303.5" y="-45.5" font-family="Helvetica,sans-Serif" font-size="10.00">prepost_map</text>
</a>
</g>
</g>
<!-- Node7&#45;&gt;Node88 -->
<g id="edge9" class="edge">
<title>Node7&#45;&gt;Node88</title>
<path fill="none" stroke="midnightblue" d="M224.16,-62.59C233.99,-60.76 245.75,-58.57 257.12,-56.45"/>
<polygon fill="midnightblue" stroke="midnightblue" points="257.78,-59.89 266.97,-54.62 256.5,-53.01 257.78,-59.89"/>
</g>
<!-- Node88&#45;&gt;Node3 -->
<g id="edge10" class="edge">
<title>Node88&#45;&gt;Node3</title>
<path fill="none" stroke="midnightblue" d="M332.64,-57.59C349.52,-63.34 370.92,-70.64 387.81,-76.39"/>
<polygon fill="midnightblue" stroke="midnightblue" points="387.07,-79.84 397.67,-79.75 389.33,-73.21 387.07,-79.84"/>
</g>
</g>
</svg>
