<?xml version="1.0" encoding="UTF-8" standalone="no"?>
<!DOCTYPE svg PUBLIC "-//W3C//DTD SVG 1.1//EN"
 "http://www.w3.org/Graphics/SVG/1.1/DTD/svg11.dtd">
<!-- Generated by graphviz version 2.46.0 (0)
 -->
<!-- Title: full_restart_save Pages: 1 -->
<svg width="576pt" height="166pt"
 viewBox="0.00 0.00 576.00 165.58" xmlns="http://www.w3.org/2000/svg" xmlns:xlink="http://www.w3.org/1999/xlink">
<g id="graph0" class="graph" transform="scale(1 1) rotate(0) translate(4 161.58)">
<title>full_restart_save</title>
<polygon fill="white" stroke="transparent" points="-4,4 -4,-161.58 572,-161.58 572,4 -4,4"/>
<!-- Node1 -->
<g id="node1" class="node">
<title>Node1</title>
<g id="a_node1"><a xlink:title=" ">
<polygon fill="#bfbfbf" stroke="black" points="0,-95.5 0,-114.5 89,-114.5 89,-95.5 0,-95.5"/>
<text text-anchor="middle" x="44.5" y="-102.5" font-family="Helvetica,sans-Serif" font-size="10.00">full_restart_save</text>
</a>
</g>
</g>
<!-- Node2 -->
<g id="node2" class="node">
<title>Node2</title>
<g id="a_node2"><a xlink:href="prepost_8f.html#a20be8b7a46f27d82014aa8b8dd1ba19a" target="_top" xlink:title=" ">
<polygon fill="white" stroke="black" points="125,-95.5 125,-114.5 196,-114.5 196,-95.5 125,-95.5"/>
<text text-anchor="middle" x="160.5" y="-102.5" font-family="Helvetica,sans-Serif" font-size="10.00">restart_save</text>
</a>
</g>
</g>
<!-- Node1&#45;&gt;Node2 -->
<g id="edge1" class="edge">
<title>Node1&#45;&gt;Node2</title>
<path fill="none" stroke="midnightblue" d="M89.25,-105C97.64,-105 106.44,-105 114.86,-105"/>
<polygon fill="midnightblue" stroke="midnightblue" points="114.89,-108.5 124.89,-105 114.89,-101.5 114.89,-108.5"/>
</g>
<!-- Node3 -->
<g id="node3" class="node">
<title>Node3</title>
<g id="a_node3"><a xlink:href="prepost_8f.html#aaf4c0f2e1790302116a4c719c2eb50ff" target="_top" xlink:title=" ">
<polygon fill="white" stroke="black" points="232,-114.5 232,-133.5 286,-133.5 286,-114.5 232,-114.5"/>
<text text-anchor="middle" x="259" y="-121.5" font-family="Helvetica,sans-Serif" font-size="10.00">outpost2</text>
</a>
</g>
</g>
<!-- Node2&#45;&gt;Node3 -->
<g id="edge2" class="edge">
<title>Node2&#45;&gt;Node3</title>
<path fill="none" stroke="midnightblue" d="M196.07,-111.81C204.45,-113.46 213.43,-115.22 221.88,-116.89"/>
<polygon fill="midnightblue" stroke="midnightblue" points="221.36,-120.35 231.85,-118.85 222.72,-113.49 221.36,-120.35"/>
</g>
<!-- Node8 -->
<g id="node7" class="node">
<title>Node8</title>
<g id="a_node7"><a xlink:href="prepost_8f.html#a4a3b0e4ce35b3381281c0839e5846370" target="_top" xlink:title=" ">
<polygon fill="white" stroke="black" points="322,-76.5 322,-95.5 371,-95.5 371,-76.5 322,-76.5"/>
<text text-anchor="middle" x="346.5" y="-83.5" font-family="Helvetica,sans-Serif" font-size="10.00">prepost</text>
</a>
</g>
</g>
<!-- Node2&#45;&gt;Node8 -->
<g id="edge11" class="edge">
<title>Node2&#45;&gt;Node8</title>
<path fill="none" stroke="midnightblue" d="M196.11,-101.43C229.27,-98 278.99,-92.87 311.83,-89.48"/>
<polygon fill="midnightblue" stroke="midnightblue" points="312.27,-92.95 321.86,-88.44 311.55,-85.99 312.27,-92.95"/>
</g>
<!-- Node4 -->
<g id="node4" class="node">
<title>Node4</title>
<g id="a_node4"><a xlink:href="math_8f.html#a3b43508554f14bdea8e14473d7d0803c" target="_top" xlink:title=" ">
<polygon fill="white" stroke="black" points="530,-76.5 530,-95.5 568,-95.5 568,-76.5 530,-76.5"/>
<text text-anchor="middle" x="549" y="-83.5" font-family="Helvetica,sans-Serif" font-size="10.00">copy</text>
</a>
</g>
</g>
<!-- Node3&#45;&gt;Node4 -->
<g id="edge3" class="edge">
<title>Node3&#45;&gt;Node4</title>
<path fill="none" stroke="midnightblue" d="M285.51,-133.6C329.91,-148.71 423.42,-173.36 494,-143 512.31,-135.12 527.33,-117.64 536.83,-104.1"/>
<polygon fill="midnightblue" stroke="midnightblue" points="539.91,-105.8 542.51,-95.52 534.07,-101.93 539.91,-105.8"/>
</g>
<!-- Node5 -->
<g id="node5" class="node">
<title>Node5</title>
<g id="a_node5"><a xlink:href="byte_8c.html#a2da8eeb074dfd3ffbfb3e9a4d301cda4" target="_top" xlink:title=" ">
<polygon fill="white" stroke="black" points="329,-114.5 329,-133.5 364,-133.5 364,-114.5 329,-114.5"/>
<text text-anchor="middle" x="346.5" y="-121.5" font-family="Helvetica,sans-Serif" font-size="10.00">exitt</text>
</a>
</g>
</g>
<!-- Node3&#45;&gt;Node5 -->
<g id="edge4" class="edge">
<title>Node3&#45;&gt;Node5</title>
<path fill="none" stroke="midnightblue" d="M286.12,-124C296.47,-124 308.36,-124 318.77,-124"/>
<polygon fill="midnightblue" stroke="midnightblue" points="318.96,-127.5 328.96,-124 318.96,-120.5 318.96,-127.5"/>
</g>
<!-- Node3&#45;&gt;Node8 -->
<g id="edge6" class="edge">
<title>Node3&#45;&gt;Node8</title>
<path fill="none" stroke="midnightblue" d="M281.58,-114.41C291.6,-109.96 303.7,-104.58 314.67,-99.7"/>
<polygon fill="midnightblue" stroke="midnightblue" points="316.22,-102.85 323.93,-95.59 313.37,-96.45 316.22,-102.85"/>
</g>
<!-- Node6 -->
<g id="node6" class="node">
<title>Node6</title>
<g id="a_node6"><a xlink:href="comm__mpi_8f.html#acc8803a3787828530843112e0c48941b" target="_top" xlink:title=" ">
<polygon fill="white" stroke="red" points="425.5,-114.5 425.5,-133.5 475.5,-133.5 475.5,-114.5 425.5,-114.5"/>
<text text-anchor="middle" x="450.5" y="-121.5" font-family="Helvetica,sans-Serif" font-size="10.00">nek_die</text>
</a>
</g>
</g>
<!-- Node5&#45;&gt;Node6 -->
<g id="edge5" class="edge">
<title>Node5&#45;&gt;Node6</title>
<path fill="none" stroke="midnightblue" d="M364.34,-124C378.12,-124 398.05,-124 415.17,-124"/>
<polygon fill="midnightblue" stroke="midnightblue" points="415.38,-127.5 425.38,-124 415.38,-120.5 415.38,-127.5"/>
</g>
<!-- Node9 -->
<g id="node8" class="node">
<title>Node9</title>
<g id="a_node8"><a xlink:href="comm__mpi_8f.html#af434902df36175d2afdc00fbabc84b2c" target="_top" xlink:title=" ">
<polygon fill="white" stroke="red" points="407,-76.5 407,-95.5 494,-95.5 494,-76.5 407,-76.5"/>
<text text-anchor="middle" x="450.5" y="-83.5" font-family="Helvetica,sans-Serif" font-size="10.00">dnekclock_sync</text>
</a>
</g>
</g>
<!-- Node8&#45;&gt;Node9 -->
<g id="edge7" class="edge">
<title>Node8&#45;&gt;Node9</title>
<path fill="none" stroke="midnightblue" d="M371.16,-86C378.85,-86 387.73,-86 396.68,-86"/>
<polygon fill="midnightblue" stroke="midnightblue" points="396.76,-89.5 406.76,-86 396.76,-82.5 396.76,-89.5"/>
</g>
<!-- Node13 -->
<g id="node9" class="node">
<title>Node13</title>
<g id="a_node9"><a xlink:href="prepost_8f.html#a7e6b503691396e2ba24a32272da91f7a" target="_top" xlink:title=" ">
<polygon fill="white" stroke="red" points="430,-38.5 430,-57.5 471,-57.5 471,-38.5 430,-38.5"/>
<text text-anchor="middle" x="450.5" y="-45.5" font-family="Helvetica,sans-Serif" font-size="10.00">outfld</text>
</a>
</g>
</g>
<!-- Node8&#45;&gt;Node13 -->
<g id="edge8" class="edge">
<title>Node8&#45;&gt;Node13</title>
<path fill="none" stroke="midnightblue" d="M371.16,-77.19C385.74,-71.75 404.55,-64.75 420.08,-58.96"/>
<polygon fill="midnightblue" stroke="midnightblue" points="421.59,-62.13 429.74,-55.36 419.15,-55.57 421.59,-62.13"/>
</g>
<!-- Node89 -->
<g id="node10" class="node">
<title>Node89</title>
<g id="a_node10"><a xlink:href="prepost_8f.html#a68819f71d0d1730a93b44791fc50f171" target="_top" xlink:title=" ">
<polygon fill="white" stroke="red" points="414,-0.5 414,-19.5 487,-19.5 487,-0.5 414,-0.5"/>
<text text-anchor="middle" x="450.5" y="-7.5" font-family="Helvetica,sans-Serif" font-size="10.00">prepost_map</text>
</a>
</g>
</g>
<!-- Node8&#45;&gt;Node89 -->
<g id="edge9" class="edge">
<title>Node8&#45;&gt;Node89</title>
<path fill="none" stroke="midnightblue" d="M355.55,-76.48C366.28,-64.23 386.35,-42.89 407,-29 409.53,-27.3 412.25,-25.68 415.03,-24.17"/>
<polygon fill="midnightblue" stroke="midnightblue" points="416.63,-27.28 424.02,-19.68 413.51,-21.01 416.63,-27.28"/>
</g>
<!-- Node89&#45;&gt;Node4 -->
<g id="edge10" class="edge">
<title>Node89&#45;&gt;Node4</title>
<path fill="none" stroke="midnightblue" d="M477.55,-19.7C483.21,-22.33 488.99,-25.45 494,-29 509.57,-40.03 524.27,-56.05 534.38,-68.3"/>
<polygon fill="midnightblue" stroke="midnightblue" points="531.9,-70.8 540.89,-76.42 537.37,-66.43 531.9,-70.8"/>
</g>
</g>
</svg>
