<?xml version="1.0" encoding="UTF-8" standalone="no"?>
<!DOCTYPE svg PUBLIC "-//W3C//DTD SVG 1.1//EN"
 "http://www.w3.org/Graphics/SVG/1.1/DTD/svg11.dtd">
<!-- Generated by graphviz version 2.46.0 (0)
 -->
<!-- Title: outfld Pages: 1 -->
<svg width="338pt" height="220pt"
 viewBox="0.00 0.00 338.00 219.92" xmlns="http://www.w3.org/2000/svg" xmlns:xlink="http://www.w3.org/1999/xlink">
<g id="graph0" class="graph" transform="scale(1 1) rotate(0) translate(4 215.92)">
<title>outfld</title>
<polygon fill="white" stroke="transparent" points="-4,4 -4,-215.92 334,-215.92 334,4 -4,4"/>
<!-- Node1 -->
<g id="node1" class="node">
<title>Node1</title>
<g id="a_node1"><a xlink:title=" ">
<polygon fill="#bfbfbf" stroke="black" points="289,-78.42 289,-97.42 330,-97.42 330,-78.42 289,-78.42"/>
<text text-anchor="middle" x="309.5" y="-85.42" font-family="Helvetica,sans-Serif" font-size="10.00">outfld</text>
</a>
</g>
</g>
<!-- Node2 -->
<g id="node2" class="node">
<title>Node2</title>
<g id="a_node2"><a xlink:href="prepost_8f.html#a4a3b0e4ce35b3381281c0839e5846370" target="_top" xlink:title=" ">
<polygon fill="white" stroke="black" points="204,-78.42 204,-97.42 253,-97.42 253,-78.42 204,-78.42"/>
<text text-anchor="middle" x="228.5" y="-85.42" font-family="Helvetica,sans-Serif" font-size="10.00">prepost</text>
</a>
</g>
</g>
<!-- Node1&#45;&gt;Node2 -->
<g id="edge1" class="edge">
<title>Node1&#45;&gt;Node2</title>
<path fill="none" stroke="midnightblue" d="M278.69,-87.92C270.2,-87.92 261.08,-87.92 253.02,-87.92"/>
<polygon fill="midnightblue" stroke="midnightblue" points="278.97,-91.42 288.97,-87.92 278.97,-84.42 278.97,-91.42"/>
</g>
<!-- Node3 -->
<g id="node3" class="node">
<title>Node3</title>
<g id="a_node3"><a xlink:href="subs2_8f.html#a3f343515acf6d98ae16eb940d9b9f70b" target="_top" xlink:title=" ">
<polygon fill="white" stroke="black" points="113,-173.42 113,-192.42 162,-192.42 162,-173.42 113,-173.42"/>
<text text-anchor="middle" x="137.5" y="-180.42" font-family="Helvetica,sans-Serif" font-size="10.00">emerxit</text>
</a>
</g>
</g>
<!-- Node2&#45;&gt;Node3 -->
<g id="edge2" class="edge">
<title>Node2&#45;&gt;Node3</title>
<path fill="none" stroke="midnightblue" d="M215.73,-106.28C204.68,-122.62 187.04,-146.56 168,-163.92 164.22,-167.37 159.74,-170.6 155.44,-173.39"/>
<polygon fill="midnightblue" stroke="midnightblue" points="218.84,-107.92 221.43,-97.65 213,-104.06 218.84,-107.92"/>
</g>
<!-- Node7 -->
<g id="node6" class="node">
<title>Node7</title>
<g id="a_node6"><a xlink:href="ssolv_8f.html#a4bb42a5afabbba8c6518d83cbe481c17" target="_top" xlink:title=" ">
<polygon fill="white" stroke="black" points="112,-135.42 112,-154.42 163,-154.42 163,-135.42 112,-135.42"/>
<text text-anchor="middle" x="137.5" y="-142.42" font-family="Helvetica,sans-Serif" font-size="10.00">go1step</text>
</a>
</g>
</g>
<!-- Node2&#45;&gt;Node7 -->
<g id="edge5" class="edge">
<title>Node2&#45;&gt;Node7</title>
<path fill="none" stroke="midnightblue" d="M203.6,-103.23C187.61,-113.47 167.06,-126.63 153.37,-135.4"/>
<polygon fill="midnightblue" stroke="midnightblue" points="205.87,-105.93 212.4,-97.59 202.09,-100.04 205.87,-105.93"/>
</g>
<!-- Node8 -->
<g id="node7" class="node">
<title>Node8</title>
<g id="a_node7"><a xlink:href="ssolv_8f.html#a2de8913c214fa083dcb088c57bd45272" target="_top" xlink:title=" ">
<polygon fill="white" stroke="red" points="114.5,-97.42 114.5,-116.42 160.5,-116.42 160.5,-97.42 114.5,-97.42"/>
<text text-anchor="middle" x="137.5" y="-104.42" font-family="Helvetica,sans-Serif" font-size="10.00">gostep</text>
</a>
</g>
</g>
<!-- Node2&#45;&gt;Node8 -->
<g id="edge6" class="edge">
<title>Node2&#45;&gt;Node8</title>
<path fill="none" stroke="midnightblue" d="M193.79,-95.12C182.68,-97.49 170.6,-100.07 160.58,-102.21"/>
<polygon fill="midnightblue" stroke="midnightblue" points="194.6,-98.53 203.65,-93.02 193.14,-91.68 194.6,-98.53"/>
</g>
<!-- Node12 -->
<g id="node8" class="node">
<title>Node12</title>
<g id="a_node8"><a xlink:href="drive1_8f.html#a6ad57e0cf728f343e371ef8c9a02cd8a" target="_top" xlink:title=" ">
<polygon fill="white" stroke="red" points="107,-59.42 107,-78.42 168,-78.42 168,-59.42 107,-59.42"/>
<text text-anchor="middle" x="137.5" y="-66.42" font-family="Helvetica,sans-Serif" font-size="10.00">nek_solve</text>
</a>
</g>
</g>
<!-- Node2&#45;&gt;Node12 -->
<g id="edge7" class="edge">
<title>Node2&#45;&gt;Node12</title>
<path fill="none" stroke="midnightblue" d="M193.74,-80.72C185.32,-78.92 176.35,-77 168.15,-75.25"/>
<polygon fill="midnightblue" stroke="midnightblue" points="193.14,-84.17 203.65,-82.83 194.6,-77.32 193.14,-84.17"/>
</g>
<!-- Node17 -->
<g id="node9" class="node">
<title>Node17</title>
<g id="a_node9"><a xlink:href="prepost_8f.html#aaf4c0f2e1790302116a4c719c2eb50ff" target="_top" xlink:title=" ">
<polygon fill="white" stroke="red" points="110.5,-21.42 110.5,-40.42 164.5,-40.42 164.5,-21.42 110.5,-21.42"/>
<text text-anchor="middle" x="137.5" y="-28.42" font-family="Helvetica,sans-Serif" font-size="10.00">outpost2</text>
</a>
</g>
</g>
<!-- Node2&#45;&gt;Node17 -->
<g id="edge8" class="edge">
<title>Node2&#45;&gt;Node17</title>
<path fill="none" stroke="midnightblue" d="M203.6,-72.62C187.61,-62.38 167.06,-49.22 153.37,-40.45"/>
<polygon fill="midnightblue" stroke="midnightblue" points="202.09,-75.81 212.4,-78.25 205.87,-69.91 202.09,-75.81"/>
</g>
<!-- Node49 -->
<g id="node10" class="node">
<title>Node49</title>
<g id="a_node10"><a xlink:href="prepost_8f.html#a20be8b7a46f27d82014aa8b8dd1ba19a" target="_top" xlink:title=" ">
<polygon fill="white" stroke="red" points="0,-2.42 0,-21.42 71,-21.42 71,-2.42 0,-2.42"/>
<text text-anchor="middle" x="35.5" y="-9.42" font-family="Helvetica,sans-Serif" font-size="10.00">restart_save</text>
</a>
</g>
</g>
<!-- Node2&#45;&gt;Node49 -->
<g id="edge10" class="edge">
<title>Node2&#45;&gt;Node49</title>
<path fill="none" stroke="midnightblue" d="M218.9,-68.94C209.39,-50.52 192.15,-23.69 168,-11.92 137.73,2.82 98.68,0.58 71.03,-3.98"/>
<polygon fill="midnightblue" stroke="midnightblue" points="215.86,-70.69 223.38,-78.15 222.15,-67.63 215.86,-70.69"/>
</g>
<!-- Node4 -->
<g id="node4" class="node">
<title>Node4</title>
<g id="a_node4"><a xlink:href="subs2_8f.html#ad8a6bc8a1f656abf763a97453f623f0f" target="_top" xlink:title=" ">
<polygon fill="white" stroke="red" points="7,-192.42 7,-211.42 64,-211.42 64,-192.42 7,-192.42"/>
<text text-anchor="middle" x="35.5" y="-199.42" font-family="Helvetica,sans-Serif" font-size="10.00">gammasf</text>
</a>
</g>
</g>
<!-- Node3&#45;&gt;Node4 -->
<g id="edge3" class="edge">
<title>Node3&#45;&gt;Node4</title>
<path fill="none" stroke="midnightblue" d="M102.73,-189.34C90.23,-191.72 76.2,-194.38 64.29,-196.64"/>
<polygon fill="midnightblue" stroke="midnightblue" points="103.63,-192.73 112.8,-187.43 102.32,-185.85 103.63,-192.73"/>
</g>
<!-- Node15 -->
<g id="node5" class="node">
<title>Node15</title>
<g id="a_node5"><a xlink:href="subs1_8f.html#a156860172f4c95a65ff7fb5b447d472e" target="_top" xlink:title=" ">
<polygon fill="white" stroke="red" points="16.5,-154.42 16.5,-173.42 54.5,-173.42 54.5,-154.42 16.5,-154.42"/>
<text text-anchor="middle" x="35.5" y="-161.42" font-family="Helvetica,sans-Serif" font-size="10.00">setdt</text>
</a>
</g>
</g>
<!-- Node3&#45;&gt;Node15 -->
<g id="edge4" class="edge">
<title>Node3&#45;&gt;Node15</title>
<path fill="none" stroke="midnightblue" d="M102.69,-176.5C86.64,-173.45 68.09,-169.92 54.71,-167.38"/>
<polygon fill="midnightblue" stroke="midnightblue" points="102.32,-179.99 112.8,-178.42 103.63,-173.12 102.32,-179.99"/>
</g>
<!-- Node17&#45;&gt;Node49 -->
<g id="edge9" class="edge">
<title>Node17&#45;&gt;Node49</title>
<path fill="none" stroke="midnightblue" d="M100.45,-24.07C90.87,-22.25 80.55,-20.29 71.05,-18.49"/>
<polygon fill="midnightblue" stroke="midnightblue" points="100.01,-27.55 110.49,-25.98 101.32,-20.68 100.01,-27.55"/>
</g>
</g>
</svg>
