<?xml version="1.0" encoding="UTF-8" standalone="no"?>
<!DOCTYPE svg PUBLIC "-//W3C//DTD SVG 1.1//EN"
 "http://www.w3.org/Graphics/SVG/1.1/DTD/svg11.dtd">
<!-- Generated by graphviz version 2.46.0 (0)
 -->
<!-- Title: mfo_write_hdr Pages: 1 -->
<svg width="366pt" height="280pt"
 viewBox="0.00 0.00 366.00 279.81" xmlns="http://www.w3.org/2000/svg" xmlns:xlink="http://www.w3.org/1999/xlink">
<g id="graph0" class="graph" transform="scale(1 1) rotate(0) translate(4 275.81)">
<title>mfo_write_hdr</title>
<polygon fill="white" stroke="transparent" points="-4,4 -4,-275.81 362,-275.81 362,4 -4,4"/>
<!-- Node1 -->
<g id="node1" class="node">
<title>Node1</title>
<g id="a_node1"><a xlink:title=" ">
<polygon fill="#bfbfbf" stroke="black" points="0,-133.5 0,-152.5 78,-152.5 78,-133.5 0,-133.5"/>
<text text-anchor="middle" x="39" y="-140.5" font-family="Helvetica,sans-Serif" font-size="10.00">mfo_write_hdr</text>
</a>
</g>
</g>
<!-- Node2 -->
<g id="node2" class="node">
<title>Node2</title>
<g id="a_node2"><a xlink:href="math_8f.html#a692155d1d2ec380a9fdb2d81ef221625" target="_top" xlink:title=" ">
<polygon fill="white" stroke="black" points="318,-209.5 318,-228.5 358,-228.5 358,-209.5 318,-209.5"/>
<text text-anchor="middle" x="338" y="-216.5" font-family="Helvetica,sans-Serif" font-size="10.00">blank</text>
</a>
</g>
</g>
<!-- Node1&#45;&gt;Node2 -->
<g id="edge1" class="edge">
<title>Node1&#45;&gt;Node2</title>
<path fill="none" stroke="midnightblue" d="M42.79,-152.7C50.04,-175.85 71.91,-234.14 114,-257 178.65,-292.11 268.1,-255.49 311.43,-233.31"/>
<polygon fill="midnightblue" stroke="midnightblue" points="313.22,-236.33 320.44,-228.57 309.96,-230.13 313.22,-236.33"/>
</g>
<!-- Node3 -->
<g id="node3" class="node">
<title>Node3</title>
<g id="a_node3"><a xlink:href="byte__mpi_8f.html#ad62e65c087d45367b00222a7b05890eb" target="_top" xlink:title=" ">
<polygon fill="white" stroke="black" points="115.5,-228.5 115.5,-247.5 195.5,-247.5 195.5,-228.5 115.5,-228.5"/>
<text text-anchor="middle" x="155.5" y="-235.5" font-family="Helvetica,sans-Serif" font-size="10.00">byte_set_view</text>
</a>
</g>
</g>
<!-- Node1&#45;&gt;Node3 -->
<g id="edge2" class="edge">
<title>Node1&#45;&gt;Node3</title>
<path fill="none" stroke="midnightblue" d="M47.72,-152.99C60.24,-168.68 86.4,-199.35 114,-219 116.24,-220.59 118.63,-222.11 121.09,-223.53"/>
<polygon fill="midnightblue" stroke="midnightblue" points="119.67,-226.74 130.15,-228.31 122.93,-220.55 119.67,-226.74"/>
</g>
<!-- Node10 -->
<g id="node5" class="node">
<title>Node10</title>
<g id="a_node5"><a xlink:href="byte__mpi_8f.html#a7243a5d153454c75d56636681519a0bb" target="_top" xlink:title=" ">
<polygon fill="white" stroke="black" points="114,-190.5 114,-209.5 197,-209.5 197,-190.5 114,-190.5"/>
<text text-anchor="middle" x="155.5" y="-197.5" font-family="Helvetica,sans-Serif" font-size="10.00">byte_write_mpi</text>
</a>
</g>
</g>
<!-- Node1&#45;&gt;Node10 -->
<g id="edge5" class="edge">
<title>Node1&#45;&gt;Node10</title>
<path fill="none" stroke="midnightblue" d="M58.15,-152.55C73.08,-160.35 94.81,-171.58 114,-181 117.41,-182.67 120.99,-184.4 124.56,-186.1"/>
<polygon fill="midnightblue" stroke="midnightblue" points="123.29,-189.37 133.83,-190.48 126.28,-183.04 123.29,-189.37"/>
</g>
<!-- Node11 -->
<g id="node6" class="node">
<title>Node11</title>
<g id="a_node6"><a xlink:href="comm__mpi_8f.html#a243c9bed2592e7cd159fb36be4fda037" target="_top" xlink:title=" ">
<polygon fill="white" stroke="red" points="135,-152.5 135,-171.5 176,-171.5 176,-152.5 135,-152.5"/>
<text text-anchor="middle" x="155.5" y="-159.5" font-family="Helvetica,sans-Serif" font-size="10.00">crecv</text>
</a>
</g>
</g>
<!-- Node1&#45;&gt;Node11 -->
<g id="edge7" class="edge">
<title>Node1&#45;&gt;Node11</title>
<path fill="none" stroke="midnightblue" d="M78.13,-149.33C93.26,-151.84 110.42,-154.68 124.63,-157.04"/>
<polygon fill="midnightblue" stroke="midnightblue" points="124.4,-160.55 134.84,-158.74 125.54,-153.65 124.4,-160.55"/>
</g>
<!-- Node13 -->
<g id="node7" class="node">
<title>Node13</title>
<g id="a_node7"><a xlink:href="comm__mpi_8f.html#abd95004b45059acdcc13614c52e60eae" target="_top" xlink:title=" ">
<polygon fill="white" stroke="red" points="134,-114.5 134,-133.5 177,-133.5 177,-114.5 134,-114.5"/>
<text text-anchor="middle" x="155.5" y="-121.5" font-family="Helvetica,sans-Serif" font-size="10.00">csend</text>
</a>
</g>
</g>
<!-- Node1&#45;&gt;Node13 -->
<g id="edge8" class="edge">
<title>Node1&#45;&gt;Node13</title>
<path fill="none" stroke="midnightblue" d="M78.13,-136.67C92.95,-134.21 109.71,-131.43 123.75,-129.1"/>
<polygon fill="midnightblue" stroke="midnightblue" points="124.58,-132.51 133.87,-127.42 123.43,-125.61 124.58,-132.51"/>
</g>
<!-- Node15 -->
<g id="node8" class="node">
<title>Node15</title>
<g id="a_node8"><a xlink:href="comm__mpi_8f.html#ae6a06eb6f47a6153825afb25e6cc49c7" target="_top" xlink:title=" ">
<polygon fill="white" stroke="red" points="233,-114.5 233,-133.5 282,-133.5 282,-114.5 233,-114.5"/>
<text text-anchor="middle" x="257.5" y="-121.5" font-family="Helvetica,sans-Serif" font-size="10.00">err_chk</text>
</a>
</g>
</g>
<!-- Node1&#45;&gt;Node15 -->
<g id="edge9" class="edge">
<title>Node1&#45;&gt;Node15</title>
<path fill="none" stroke="midnightblue" d="M53.67,-133.44C67.96,-124.09 91.4,-110.46 114,-105 149.86,-96.33 160.55,-99.32 197,-105 205.7,-106.36 214.87,-108.76 223.34,-111.42"/>
<polygon fill="midnightblue" stroke="midnightblue" points="222.28,-114.76 232.88,-114.6 224.5,-108.12 222.28,-114.76"/>
</g>
<!-- Node19 -->
<g id="node9" class="node">
<title>Node19</title>
<g id="a_node9"><a xlink:href="math_8f.html#a1e85d2406444243269f0d85c61a02dce" target="_top" xlink:title=" ">
<polygon fill="white" stroke="black" points="135.5,-38.5 135.5,-57.5 175.5,-57.5 175.5,-38.5 135.5,-38.5"/>
<text text-anchor="middle" x="155.5" y="-45.5" font-family="Helvetica,sans-Serif" font-size="10.00">icopy</text>
</a>
</g>
</g>
<!-- Node1&#45;&gt;Node19 -->
<g id="edge11" class="edge">
<title>Node1&#45;&gt;Node19</title>
<path fill="none" stroke="midnightblue" d="M48.95,-133.07C62.27,-118.61 88.48,-91.39 114,-72 118.2,-68.81 122.86,-65.7 127.48,-62.83"/>
<polygon fill="midnightblue" stroke="midnightblue" points="129.37,-65.78 136.19,-57.66 125.8,-59.76 129.37,-65.78"/>
</g>
<!-- Node20 -->
<g id="node10" class="node">
<title>Node20</title>
<g id="a_node10"><a xlink:href="comm__mpi_8f.html#a4acb4d8e379294232e9219bec063d8f3" target="_top" xlink:title=" ">
<polygon fill="white" stroke="red" points="126,-0.5 126,-19.5 185,-19.5 185,-0.5 126,-0.5"/>
<text text-anchor="middle" x="155.5" y="-7.5" font-family="Helvetica,sans-Serif" font-size="10.00">nekgsync</text>
</a>
</g>
</g>
<!-- Node1&#45;&gt;Node20 -->
<g id="edge12" class="edge">
<title>Node1&#45;&gt;Node20</title>
<path fill="none" stroke="midnightblue" d="M43.97,-133.47C53.27,-112.14 78.42,-60.01 114,-29 115.71,-27.51 117.56,-26.11 119.5,-24.8"/>
<polygon fill="midnightblue" stroke="midnightblue" points="121.47,-27.7 128.34,-19.64 117.94,-21.66 121.47,-27.7"/>
</g>
<!-- Node4 -->
<g id="node4" class="node">
<title>Node4</title>
<g id="a_node4"><a xlink:href="comm__mpi_8f.html#a59fcf8a02fe54ab37f61050e3ca6b197" target="_top" xlink:title=" ">
<polygon fill="white" stroke="red" points="238.5,-209.5 238.5,-228.5 276.5,-228.5 276.5,-209.5 238.5,-209.5"/>
<text text-anchor="middle" x="257.5" y="-216.5" font-family="Helvetica,sans-Serif" font-size="10.00">exitti</text>
</a>
</g>
</g>
<!-- Node3&#45;&gt;Node4 -->
<g id="edge3" class="edge">
<title>Node3&#45;&gt;Node4</title>
<path fill="none" stroke="midnightblue" d="M195.74,-230.55C206.62,-228.48 218.22,-226.27 228.33,-224.35"/>
<polygon fill="midnightblue" stroke="midnightblue" points="229.07,-227.77 238.24,-222.47 227.77,-220.9 229.07,-227.77"/>
</g>
<!-- Node4&#45;&gt;Node2 -->
<g id="edge4" class="edge">
<title>Node4&#45;&gt;Node2</title>
<path fill="none" stroke="midnightblue" d="M276.71,-219C285.85,-219 297.16,-219 307.5,-219"/>
<polygon fill="midnightblue" stroke="midnightblue" points="307.8,-222.5 317.8,-219 307.8,-215.5 307.8,-222.5"/>
</g>
<!-- Node10&#45;&gt;Node4 -->
<g id="edge6" class="edge">
<title>Node10&#45;&gt;Node4</title>
<path fill="none" stroke="midnightblue" d="M197.17,-207.73C207.66,-209.72 218.71,-211.82 228.39,-213.66"/>
<polygon fill="midnightblue" stroke="midnightblue" points="227.8,-217.11 238.27,-215.54 229.1,-210.23 227.8,-217.11"/>
</g>
<!-- Node15&#45;&gt;Node2 -->
<g id="edge10" class="edge">
<title>Node15&#45;&gt;Node2</title>
<path fill="none" stroke="midnightblue" d="M266.61,-133.81C279.78,-149.75 306.01,-181.49 322.47,-201.41"/>
<polygon fill="midnightblue" stroke="midnightblue" points="319.99,-203.91 329.06,-209.39 325.38,-199.45 319.99,-203.91"/>
</g>
</g>
</svg>
