<?xml version="1.0" encoding="UTF-8" standalone="no"?>
<!DOCTYPE svg PUBLIC "-//W3C//DTD SVG 1.1//EN"
 "http://www.w3.org/Graphics/SVG/1.1/DTD/svg11.dtd">
<!-- Generated by graphviz version 2.46.0 (0)
 -->
<!-- Title: copyx4 Pages: 1 -->
<svg width="432pt" height="170pt"
 viewBox="0.00 0.00 432.00 170.00" xmlns="http://www.w3.org/2000/svg" xmlns:xlink="http://www.w3.org/1999/xlink">
<g id="graph0" class="graph" transform="scale(1 1) rotate(0) translate(4 166)">
<title>copyx4</title>
<polygon fill="white" stroke="transparent" points="-4,4 -4,-166 428,-166 428,4 -4,4"/>
<!-- Node1 -->
<g id="node1" class="node">
<title>Node1</title>
<g id="a_node1"><a xlink:title=" ">
<polygon fill="#bfbfbf" stroke="black" points="376,-76.5 376,-95.5 424,-95.5 424,-76.5 376,-76.5"/>
<text text-anchor="middle" x="400" y="-83.5" font-family="Helvetica,sans-Serif" font-size="10.00">copyx4</text>
</a>
</g>
</g>
<!-- Node2 -->
<g id="node2" class="node">
<title>Node2</title>
<g id="a_node2"><a xlink:href="prepost_8f.html#ab4baaae20403cde046f846ef71ce011d" target="_top" xlink:title=" ">
<polygon fill="white" stroke="black" points="169,-142.5 169,-161.5 217,-161.5 217,-142.5 169,-142.5"/>
<text text-anchor="middle" x="193" y="-149.5" font-family="Helvetica,sans-Serif" font-size="10.00">fill_tmp</text>
</a>
</g>
</g>
<!-- Node1&#45;&gt;Node2 -->
<g id="edge1" class="edge">
<title>Node1&#45;&gt;Node2</title>
<path fill="none" stroke="midnightblue" d="M386.23,-103.88C375.55,-117.25 359.03,-134.62 340,-143 299.68,-160.76 246.95,-158.58 217.15,-155.33"/>
<polygon fill="midnightblue" stroke="midnightblue" points="389.1,-105.88 392.37,-95.8 383.53,-101.65 389.1,-105.88"/>
</g>
<!-- Node53 -->
<g id="node5" class="node">
<title>Node53</title>
<g id="a_node5"><a xlink:href="postpro_8f.html#a939497202a2bde542ad2190aace1b0d9" target="_top" xlink:title=" ">
<polygon fill="white" stroke="black" points="266.5,-114.5 266.5,-133.5 333.5,-133.5 333.5,-114.5 266.5,-114.5"/>
<text text-anchor="middle" x="300" y="-121.5" font-family="Helvetica,sans-Serif" font-size="10.00">gen_re2_bc</text>
</a>
</g>
</g>
<!-- Node1&#45;&gt;Node53 -->
<g id="edge4" class="edge">
<title>Node1&#45;&gt;Node53</title>
<path fill="none" stroke="midnightblue" d="M366.11,-98.75C352.93,-103.86 338.01,-109.65 325.77,-114.39"/>
<polygon fill="midnightblue" stroke="midnightblue" points="367.72,-101.88 375.78,-95.01 365.19,-95.36 367.72,-101.88"/>
</g>
<!-- Node55 -->
<g id="node7" class="node">
<title>Node55</title>
<g id="a_node7"><a xlink:href="postpro_8f.html#ad8bc1f902134949368ef44cd1e832e83" target="_top" xlink:title=" ">
<polygon fill="white" stroke="black" points="260,-76.5 260,-95.5 340,-95.5 340,-76.5 260,-76.5"/>
<text text-anchor="middle" x="300" y="-83.5" font-family="Helvetica,sans-Serif" font-size="10.00">gen_re2_curve</text>
</a>
</g>
</g>
<!-- Node1&#45;&gt;Node55 -->
<g id="edge6" class="edge">
<title>Node1&#45;&gt;Node55</title>
<path fill="none" stroke="midnightblue" d="M365.51,-86C357.35,-86 348.55,-86 340.15,-86"/>
<polygon fill="midnightblue" stroke="midnightblue" points="365.78,-89.5 375.78,-86 365.78,-82.5 365.78,-89.5"/>
</g>
<!-- Node56 -->
<g id="node8" class="node">
<title>Node56</title>
<g id="a_node8"><a xlink:href="prepost_8f.html#a719f53cbe469f5bf99a53892de48af29" target="_top" xlink:title=" ">
<polygon fill="white" stroke="black" points="271.5,-38.5 271.5,-57.5 328.5,-57.5 328.5,-38.5 271.5,-38.5"/>
<text text-anchor="middle" x="300" y="-45.5" font-family="Helvetica,sans-Serif" font-size="10.00">mfo_outs</text>
</a>
</g>
</g>
<!-- Node1&#45;&gt;Node56 -->
<g id="edge8" class="edge">
<title>Node1&#45;&gt;Node56</title>
<path fill="none" stroke="midnightblue" d="M366.11,-73.25C352.93,-68.14 338.01,-62.35 325.77,-57.61"/>
<polygon fill="midnightblue" stroke="midnightblue" points="365.19,-76.64 375.78,-76.99 367.72,-70.12 365.19,-76.64"/>
</g>
<!-- Node58 -->
<g id="node10" class="node">
<title>Node58</title>
<g id="a_node10"><a xlink:href="prepost_8f.html#a3f8a4c9fa971a0386d313d4c79e111f7" target="_top" xlink:title=" ">
<polygon fill="white" stroke="black" points="271.5,-0.5 271.5,-19.5 328.5,-19.5 328.5,-0.5 271.5,-0.5"/>
<text text-anchor="middle" x="300" y="-7.5" font-family="Helvetica,sans-Serif" font-size="10.00">mfo_outv</text>
</a>
</g>
</g>
<!-- Node1&#45;&gt;Node58 -->
<g id="edge11" class="edge">
<title>Node1&#45;&gt;Node58</title>
<path fill="none" stroke="midnightblue" d="M383.64,-68.47C372.39,-56.35 356.31,-40.41 340,-29 335.06,-25.54 329.4,-22.39 323.96,-19.69"/>
<polygon fill="midnightblue" stroke="midnightblue" points="381.29,-71.09 390.59,-76.15 386.47,-66.39 381.29,-71.09"/>
</g>
<!-- Node3 -->
<g id="node3" class="node">
<title>Node3</title>
<g id="a_node3"><a xlink:href="prepost_8f.html#a7e6b503691396e2ba24a32272da91f7a" target="_top" xlink:title=" ">
<polygon fill="white" stroke="black" points="85,-85.5 85,-104.5 126,-104.5 126,-85.5 85,-85.5"/>
<text text-anchor="middle" x="105.5" y="-92.5" font-family="Helvetica,sans-Serif" font-size="10.00">outfld</text>
</a>
</g>
</g>
<!-- Node2&#45;&gt;Node3 -->
<g id="edge2" class="edge">
<title>Node2&#45;&gt;Node3</title>
<path fill="none" stroke="midnightblue" d="M169.04,-136.69C153.68,-126.45 133.94,-113.29 120.79,-104.53"/>
<polygon fill="midnightblue" stroke="midnightblue" points="167.23,-139.7 177.5,-142.33 171.12,-133.87 167.23,-139.7"/>
</g>
<!-- Node4 -->
<g id="node4" class="node">
<title>Node4</title>
<g id="a_node4"><a xlink:href="prepost_8f.html#a4a3b0e4ce35b3381281c0839e5846370" target="_top" xlink:title=" ">
<polygon fill="white" stroke="red" points="0,-85.5 0,-104.5 49,-104.5 49,-85.5 0,-85.5"/>
<text text-anchor="middle" x="24.5" y="-92.5" font-family="Helvetica,sans-Serif" font-size="10.00">prepost</text>
</a>
</g>
</g>
<!-- Node3&#45;&gt;Node4 -->
<g id="edge3" class="edge">
<title>Node3&#45;&gt;Node4</title>
<path fill="none" stroke="midnightblue" d="M74.69,-95C66.2,-95 57.08,-95 49.02,-95"/>
<polygon fill="midnightblue" stroke="midnightblue" points="74.97,-98.5 84.97,-95 74.97,-91.5 74.97,-98.5"/>
</g>
<!-- Node54 -->
<g id="node6" class="node">
<title>Node54</title>
<g id="a_node6"><a xlink:href="postpro_8f.html#a8bdd3e275563fb6fc53f63b9e78f3270" target="_top" xlink:title=" ">
<polygon fill="white" stroke="black" points="167.5,-95.5 167.5,-114.5 218.5,-114.5 218.5,-95.5 167.5,-95.5"/>
<text text-anchor="middle" x="193" y="-102.5" font-family="Helvetica,sans-Serif" font-size="10.00">gen_re2</text>
</a>
</g>
</g>
<!-- Node53&#45;&gt;Node54 -->
<g id="edge5" class="edge">
<title>Node53&#45;&gt;Node54</title>
<path fill="none" stroke="midnightblue" d="M256.3,-116.27C243.48,-113.95 229.85,-111.49 218.62,-109.45"/>
<polygon fill="midnightblue" stroke="midnightblue" points="255.89,-119.76 266.35,-118.09 257.14,-112.87 255.89,-119.76"/>
</g>
<!-- Node55&#45;&gt;Node54 -->
<g id="edge7" class="edge">
<title>Node55&#45;&gt;Node54</title>
<path fill="none" stroke="midnightblue" d="M249.73,-94.92C239,-96.86 228.1,-98.83 218.81,-100.51"/>
<polygon fill="midnightblue" stroke="midnightblue" points="250.68,-98.3 259.9,-93.07 249.44,-91.41 250.68,-98.3"/>
</g>
<!-- Node57 -->
<g id="node9" class="node">
<title>Node57</title>
<g id="a_node9"><a xlink:href="prepost_8f.html#a2b0ed536ab0284c398d7f2ac35622d88" target="_top" xlink:title=" ">
<polygon fill="white" stroke="black" points="162,-38.5 162,-57.5 224,-57.5 224,-38.5 162,-38.5"/>
<text text-anchor="middle" x="193" y="-45.5" font-family="Helvetica,sans-Serif" font-size="10.00">mfo_outfld</text>
</a>
</g>
</g>
<!-- Node56&#45;&gt;Node57 -->
<g id="edge9" class="edge">
<title>Node56&#45;&gt;Node57</title>
<path fill="none" stroke="midnightblue" d="M261.15,-48C249.06,-48 235.84,-48 224.36,-48"/>
<polygon fill="midnightblue" stroke="midnightblue" points="261.41,-51.5 271.41,-48 261.41,-44.5 261.41,-51.5"/>
</g>
<!-- Node57&#45;&gt;Node3 -->
<g id="edge10" class="edge">
<title>Node57&#45;&gt;Node3</title>
<path fill="none" stroke="midnightblue" d="M165.82,-62.39C152.28,-69.84 136.11,-78.73 124.07,-85.34"/>
<polygon fill="midnightblue" stroke="midnightblue" points="167.62,-65.4 174.7,-57.51 164.25,-59.26 167.62,-65.4"/>
</g>
<!-- Node58&#45;&gt;Node57 -->
<g id="edge12" class="edge">
<title>Node58&#45;&gt;Node57</title>
<path fill="none" stroke="midnightblue" d="M262.75,-23.12C248.87,-28.14 233.29,-33.78 220.49,-38.41"/>
<polygon fill="midnightblue" stroke="midnightblue" points="264.29,-26.28 272.5,-19.59 261.91,-19.7 264.29,-26.28"/>
</g>
</g>
</svg>
