<?xml version="1.0" encoding="UTF-8" standalone="no"?>
<!DOCTYPE svg PUBLIC "-//W3C//DTD SVG 1.1//EN"
 "http://www.w3.org/Graphics/SVG/1.1/DTD/svg11.dtd">
<!-- Generated by graphviz version 2.46.0 (0)
 -->
<!-- Title: rans_komg_stndrd_compute_noreg Pages: 1 -->
<svg width="388pt" height="237pt"
 viewBox="0.00 0.00 388.00 237.00" xmlns="http://www.w3.org/2000/svg" xmlns:xlink="http://www.w3.org/1999/xlink">
<g id="graph0" class="graph" transform="scale(1 1) rotate(0) translate(4 233)">
<title>rans_komg_stndrd_compute_noreg</title>
<polygon fill="white" stroke="transparent" points="-4,4 -4,-233 384,-233 384,4 -4,4"/>
<!-- Node1 -->
<g id="node1" class="node">
<title>Node1</title>
<g id="a_node1"><a xlink:title=" ">
<polygon fill="#bfbfbf" stroke="black" points="0,-76.5 0,-95.5 169,-95.5 169,-76.5 0,-76.5"/>
<text text-anchor="middle" x="84.5" y="-83.5" font-family="Helvetica,sans-Serif" font-size="10.00">rans_komg_stndrd_compute_noreg</text>
</a>
</g>
</g>
<!-- Node2 -->
<g id="node2" class="node">
<title>Node2</title>
<g id="a_node2"><a xlink:href="rans__komg_8f.html#ac6e313118e7733ea603446276c221243" target="_top" xlink:title=" ">
<polygon fill="white" stroke="red" points="205,-152.5 205,-171.5 273,-171.5 273,-152.5 205,-152.5"/>
<text text-anchor="middle" x="239" y="-159.5" font-family="Helvetica,sans-Serif" font-size="10.00">comp_stom</text>
</a>
</g>
</g>
<!-- Node1&#45;&gt;Node2 -->
<g id="edge1" class="edge">
<title>Node1&#45;&gt;Node2</title>
<path fill="none" stroke="midnightblue" d="M104.81,-95.63C131.28,-108.82 179.02,-132.61 209.57,-147.83"/>
<polygon fill="midnightblue" stroke="midnightblue" points="208.33,-151.12 218.84,-152.45 211.45,-144.86 208.33,-151.12"/>
</g>
<!-- Node11 -->
<g id="node7" class="node">
<title>Node11</title>
<g id="a_node7"><a xlink:href="math_8f.html#a3b43508554f14bdea8e14473d7d0803c" target="_top" xlink:title=" ">
<polygon fill="white" stroke="black" points="220,-114.5 220,-133.5 258,-133.5 258,-114.5 220,-114.5"/>
<text text-anchor="middle" x="239" y="-121.5" font-family="Helvetica,sans-Serif" font-size="10.00">copy</text>
</a>
</g>
</g>
<!-- Node1&#45;&gt;Node11 -->
<g id="edge6" class="edge">
<title>Node1&#45;&gt;Node11</title>
<path fill="none" stroke="midnightblue" d="M123.98,-95.59C150.73,-102.25 185.77,-110.99 209.91,-117"/>
<polygon fill="midnightblue" stroke="midnightblue" points="209.3,-120.46 219.85,-119.48 210.99,-113.66 209.3,-120.46"/>
</g>
<!-- Node33 -->
<g id="node8" class="node">
<title>Node33</title>
<g id="a_node8"><a xlink:href="math_8f.html#a102af0dc870819a605ae55d60c59f84a" target="_top" xlink:title=" ">
<polygon fill="white" stroke="red" points="219,-76.5 219,-95.5 259,-95.5 259,-76.5 219,-76.5"/>
<text text-anchor="middle" x="239" y="-83.5" font-family="Helvetica,sans-Serif" font-size="10.00">glmin</text>
</a>
</g>
</g>
<!-- Node1&#45;&gt;Node33 -->
<g id="edge7" class="edge">
<title>Node1&#45;&gt;Node33</title>
<path fill="none" stroke="midnightblue" d="M169.33,-86C183.39,-86 197.1,-86 208.53,-86"/>
<polygon fill="midnightblue" stroke="midnightblue" points="208.72,-89.5 218.72,-86 208.72,-82.5 208.72,-89.5"/>
</g>
<!-- Node36 -->
<g id="node9" class="node">
<title>Node36</title>
<g id="a_node9"><a xlink:href="navier2_8f.html#af415a58b53b7da1a36132d8531de5ec7" target="_top" xlink:title=" ">
<polygon fill="white" stroke="red" points="212,-38.5 212,-57.5 266,-57.5 266,-38.5 212,-38.5"/>
<text text-anchor="middle" x="239" y="-45.5" font-family="Helvetica,sans-Serif" font-size="10.00">gradm11</text>
</a>
</g>
</g>
<!-- Node1&#45;&gt;Node36 -->
<g id="edge8" class="edge">
<title>Node1&#45;&gt;Node36</title>
<path fill="none" stroke="midnightblue" d="M123.98,-76.41C147.81,-70.47 178.22,-62.9 201.64,-57.06"/>
<polygon fill="midnightblue" stroke="midnightblue" points="202.68,-60.41 211.53,-54.59 200.98,-53.62 202.68,-60.41"/>
</g>
<!-- Node37 -->
<g id="node10" class="node">
<title>Node37</title>
<g id="a_node10"><a xlink:href="math_8f.html#a269b9bcae973eb49454422b00e319706" target="_top" xlink:title=" ">
<polygon fill="white" stroke="red" points="216.5,-0.5 216.5,-19.5 261.5,-19.5 261.5,-0.5 216.5,-0.5"/>
<text text-anchor="middle" x="239" y="-7.5" font-family="Helvetica,sans-Serif" font-size="10.00">iglsum</text>
</a>
</g>
</g>
<!-- Node1&#45;&gt;Node37 -->
<g id="edge9" class="edge">
<title>Node1&#45;&gt;Node37</title>
<path fill="none" stroke="midnightblue" d="M104.81,-76.37C131.28,-63.18 179.02,-39.39 209.57,-24.17"/>
<polygon fill="midnightblue" stroke="midnightblue" points="211.45,-27.14 218.84,-19.55 208.33,-20.88 211.45,-27.14"/>
</g>
<!-- Node3 -->
<g id="node3" class="node">
<title>Node3</title>
<g id="a_node3"><a xlink:href="math_8f.html#a30b83d516b6ab162d3fafe73e03a3e92" target="_top" xlink:title=" ">
<polygon fill="white" stroke="red" points="325.5,-209.5 325.5,-228.5 363.5,-228.5 363.5,-209.5 325.5,-209.5"/>
<text text-anchor="middle" x="344.5" y="-216.5" font-family="Helvetica,sans-Serif" font-size="10.00">add2</text>
</a>
</g>
</g>
<!-- Node2&#45;&gt;Node3 -->
<g id="edge2" class="edge">
<title>Node2&#45;&gt;Node3</title>
<path fill="none" stroke="midnightblue" d="M257.56,-171.67C273.94,-180.69 298.59,-194.27 317.3,-204.57"/>
<polygon fill="midnightblue" stroke="midnightblue" points="315.75,-207.72 326.2,-209.47 319.13,-201.58 315.75,-207.72"/>
</g>
<!-- Node6 -->
<g id="node4" class="node">
<title>Node6</title>
<g id="a_node4"><a xlink:href="math_8f.html#a6d333c9b7537e63344c7162824904329" target="_top" xlink:title=" ">
<polygon fill="white" stroke="black" points="325.5,-171.5 325.5,-190.5 363.5,-190.5 363.5,-171.5 325.5,-171.5"/>
<text text-anchor="middle" x="344.5" y="-178.5" font-family="Helvetica,sans-Serif" font-size="10.00">add3</text>
</a>
</g>
</g>
<!-- Node2&#45;&gt;Node6 -->
<g id="edge3" class="edge">
<title>Node2&#45;&gt;Node6</title>
<path fill="none" stroke="midnightblue" d="M273.03,-168.06C286.66,-170.57 302.3,-173.44 315.37,-175.84"/>
<polygon fill="midnightblue" stroke="midnightblue" points="314.75,-179.28 325.22,-177.64 316.01,-172.4 314.75,-179.28"/>
</g>
<!-- Node7 -->
<g id="node5" class="node">
<title>Node7</title>
<g id="a_node5"><a xlink:href="math_8f.html#ad2b51b68d370651f4f6d81952503e7be" target="_top" xlink:title=" ">
<polygon fill="white" stroke="black" points="324,-133.5 324,-152.5 365,-152.5 365,-133.5 324,-133.5"/>
<text text-anchor="middle" x="344.5" y="-140.5" font-family="Helvetica,sans-Serif" font-size="10.00">cmult</text>
</a>
</g>
</g>
<!-- Node2&#45;&gt;Node7 -->
<g id="edge4" class="edge">
<title>Node2&#45;&gt;Node7</title>
<path fill="none" stroke="midnightblue" d="M273.03,-155.94C286.07,-153.54 300.93,-150.81 313.64,-148.48"/>
<polygon fill="midnightblue" stroke="midnightblue" points="314.51,-151.88 323.72,-146.63 313.25,-145 314.51,-151.88"/>
</g>
<!-- Node8 -->
<g id="node6" class="node">
<title>Node8</title>
<g id="a_node6"><a xlink:href="rans__komg_8f.html#aac31781cd15a554b30c910dab080c47c" target="_top" xlink:title=" ">
<polygon fill="white" stroke="red" points="309,-95.5 309,-114.5 380,-114.5 380,-95.5 309,-95.5"/>
<text text-anchor="middle" x="344.5" y="-102.5" font-family="Helvetica,sans-Serif" font-size="10.00">comp_sij_oij</text>
</a>
</g>
</g>
<!-- Node2&#45;&gt;Node8 -->
<g id="edge5" class="edge">
<title>Node2&#45;&gt;Node8</title>
<path fill="none" stroke="midnightblue" d="M257.56,-152.33C273.94,-143.31 298.59,-129.73 317.3,-119.43"/>
<polygon fill="midnightblue" stroke="midnightblue" points="319.13,-122.42 326.2,-114.53 315.75,-116.28 319.13,-122.42"/>
</g>
</g>
</svg>
