<?xml version="1.0" encoding="UTF-8" standalone="no"?>
<!DOCTYPE svg PUBLIC "-//W3C//DTD SVG 1.1//EN"
 "http://www.w3.org/Graphics/SVG/1.1/DTD/svg11.dtd">
<!-- Generated by graphviz version 2.46.0 (0)
 -->
<!-- Title: rans_komg_init Pages: 1 -->
<svg width="359pt" height="294pt"
 viewBox="0.00 0.00 359.00 294.00" xmlns="http://www.w3.org/2000/svg" xmlns:xlink="http://www.w3.org/1999/xlink">
<g id="graph0" class="graph" transform="scale(1 1) rotate(0) translate(4 290)">
<title>rans_komg_init</title>
<polygon fill="white" stroke="transparent" points="-4,4 -4,-290 355,-290 355,4 -4,4"/>
<!-- Node1 -->
<g id="node1" class="node">
<title>Node1</title>
<g id="a_node1"><a xlink:title=" ">
<polygon fill="#bfbfbf" stroke="black" points="0,-133.5 0,-152.5 83,-152.5 83,-133.5 0,-133.5"/>
<text text-anchor="middle" x="41.5" y="-140.5" font-family="Helvetica,sans-Serif" font-size="10.00">rans_komg_init</text>
</a>
</g>
</g>
<!-- Node2 -->
<g id="node2" class="node">
<title>Node2</title>
<g id="a_node2"><a xlink:href="navier5_8f.html#a12de3df5d543b571f4f98be06fa4a9f7" target="_top" xlink:title=" ">
<polygon fill="white" stroke="red" points="166,-266.5 166,-285.5 230,-285.5 230,-266.5 166,-266.5"/>
<text text-anchor="middle" x="198" y="-273.5" font-family="Helvetica,sans-Serif" font-size="10.00">cheap_dist</text>
</a>
</g>
</g>
<!-- Node1&#45;&gt;Node2 -->
<g id="edge1" class="edge">
<title>Node1&#45;&gt;Node2</title>
<path fill="none" stroke="midnightblue" d="M46.14,-152.73C54.96,-174.94 79.71,-229.58 119,-257 129.82,-264.55 143.31,-269.12 156.01,-271.87"/>
<polygon fill="midnightblue" stroke="midnightblue" points="155.49,-275.34 165.96,-273.72 156.77,-268.45 155.49,-275.34"/>
</g>
<!-- Node15 -->
<g id="node4" class="node">
<title>Node15</title>
<g id="a_node4"><a xlink:href="math_8f.html#a3b43508554f14bdea8e14473d7d0803c" target="_top" xlink:title=" ">
<polygon fill="white" stroke="black" points="313,-209.5 313,-228.5 351,-228.5 351,-209.5 313,-209.5"/>
<text text-anchor="middle" x="332" y="-216.5" font-family="Helvetica,sans-Serif" font-size="10.00">copy</text>
</a>
</g>
</g>
<!-- Node1&#45;&gt;Node15 -->
<g id="edge3" class="edge">
<title>Node1&#45;&gt;Node15</title>
<path fill="none" stroke="midnightblue" d="M78.75,-152.55C136.94,-167.88 250,-197.66 302.69,-211.54"/>
<polygon fill="midnightblue" stroke="midnightblue" points="302.12,-215.01 312.69,-214.18 303.91,-208.24 302.12,-215.01"/>
</g>
<!-- Node16 -->
<g id="node5" class="node">
<title>Node16</title>
<g id="a_node5"><a xlink:href="navier5_8f.html#ae48a76075d2717a6c7fbb8d46d688fd5" target="_top" xlink:title=" ">
<polygon fill="white" stroke="red" points="180.5,-228.5 180.5,-247.5 215.5,-247.5 215.5,-228.5 180.5,-228.5"/>
<text text-anchor="middle" x="198" y="-235.5" font-family="Helvetica,sans-Serif" font-size="10.00">distf</text>
</a>
</g>
</g>
<!-- Node1&#45;&gt;Node16 -->
<g id="edge4" class="edge">
<title>Node1&#45;&gt;Node16</title>
<path fill="none" stroke="midnightblue" d="M50.4,-152.74C63.24,-167.95 90.12,-197.34 119,-214 134.85,-223.15 154.57,-229.17 170.21,-232.9"/>
<polygon fill="midnightblue" stroke="midnightblue" points="169.78,-236.39 180.3,-235.12 171.28,-229.55 169.78,-236.39"/>
</g>
<!-- Node18 -->
<g id="node6" class="node">
<title>Node18</title>
<g id="a_node6"><a xlink:href="byte_8c.html#a2da8eeb074dfd3ffbfb3e9a4d301cda4" target="_top" xlink:title=" ">
<polygon fill="white" stroke="red" points="314.5,-133.5 314.5,-152.5 349.5,-152.5 349.5,-133.5 314.5,-133.5"/>
<text text-anchor="middle" x="332" y="-140.5" font-family="Helvetica,sans-Serif" font-size="10.00">exitt</text>
</a>
</g>
</g>
<!-- Node1&#45;&gt;Node18 -->
<g id="edge7" class="edge">
<title>Node1&#45;&gt;Node18</title>
<path fill="none" stroke="midnightblue" d="M83.22,-143C143.13,-143 253.39,-143 304.14,-143"/>
<polygon fill="midnightblue" stroke="midnightblue" points="304.31,-146.5 314.31,-143 304.31,-139.5 304.31,-146.5"/>
</g>
<!-- Node21 -->
<g id="node7" class="node">
<title>Node21</title>
<g id="a_node7"><a xlink:href="comm__mpi_8f.html#a59fcf8a02fe54ab37f61050e3ca6b197" target="_top" xlink:title=" ">
<polygon fill="white" stroke="red" points="179,-114.5 179,-133.5 217,-133.5 217,-114.5 179,-114.5"/>
<text text-anchor="middle" x="198" y="-121.5" font-family="Helvetica,sans-Serif" font-size="10.00">exitti</text>
</a>
</g>
</g>
<!-- Node1&#45;&gt;Node21 -->
<g id="edge8" class="edge">
<title>Node1&#45;&gt;Node21</title>
<path fill="none" stroke="midnightblue" d="M83.09,-138.01C109.92,-134.71 144.42,-130.47 168.39,-127.52"/>
<polygon fill="midnightblue" stroke="midnightblue" points="169.1,-130.96 178.6,-126.26 168.25,-124.01 169.1,-130.96"/>
</g>
<!-- Node25 -->
<g id="node8" class="node">
<title>Node25</title>
<g id="a_node8"><a xlink:href="rans__komg_8f.html#ae8ed83e21c78d4df1fe0a63d3a5c11ab" target="_top" xlink:title=" ">
<polygon fill="white" stroke="red" points="138,-76.5 138,-95.5 258,-95.5 258,-76.5 138,-76.5"/>
<text text-anchor="middle" x="198" y="-83.5" font-family="Helvetica,sans-Serif" font-size="10.00">rans_komg_omegabase</text>
</a>
</g>
</g>
<!-- Node1&#45;&gt;Node25 -->
<g id="edge10" class="edge">
<title>Node1&#45;&gt;Node25</title>
<path fill="none" stroke="midnightblue" d="M59.04,-133.44C74.22,-124.99 97.55,-112.83 119,-105 125.84,-102.5 133.14,-100.23 140.42,-98.2"/>
<polygon fill="midnightblue" stroke="midnightblue" points="141.53,-101.53 150.3,-95.58 139.74,-94.76 141.53,-101.53"/>
</g>
<!-- Node42 -->
<g id="node9" class="node">
<title>Node42</title>
<g id="a_node9"><a xlink:href="rans__komg_8f.html#adce22044a8ce6c4a7d86f1ebf4c19f09" target="_top" xlink:title=" ">
<polygon fill="white" stroke="black" points="125.5,-38.5 125.5,-57.5 270.5,-57.5 270.5,-38.5 125.5,-38.5"/>
<text text-anchor="middle" x="198" y="-45.5" font-family="Helvetica,sans-Serif" font-size="10.00">rans_komg_set_defaultcoeffs</text>
</a>
</g>
</g>
<!-- Node1&#45;&gt;Node42 -->
<g id="edge11" class="edge">
<title>Node1&#45;&gt;Node42</title>
<path fill="none" stroke="midnightblue" d="M49.33,-133.4C61.43,-117.12 88.29,-84.2 119,-67 123.01,-64.76 127.28,-62.77 131.67,-61.03"/>
<polygon fill="midnightblue" stroke="midnightblue" points="133.19,-64.2 141.44,-57.56 130.85,-57.6 133.19,-64.2"/>
</g>
<!-- Node43 -->
<g id="node10" class="node">
<title>Node43</title>
<g id="a_node10"><a xlink:href="rans__komg_8f.html#acf5c10860c6c8e64759b64c33c439b59" target="_top" xlink:title=" ">
<polygon fill="white" stroke="black" points="119,-0.5 119,-19.5 277,-19.5 277,-0.5 119,-0.5"/>
<text text-anchor="middle" x="198" y="-7.5" font-family="Helvetica,sans-Serif" font-size="10.00">rans_komgsst_set_defaultcoeffs</text>
</a>
</g>
</g>
<!-- Node1&#45;&gt;Node43 -->
<g id="edge12" class="edge">
<title>Node1&#45;&gt;Node43</title>
<path fill="none" stroke="midnightblue" d="M46.14,-133.27C54.96,-111.06 79.71,-56.42 119,-29 121.89,-26.98 124.97,-25.18 128.17,-23.57"/>
<polygon fill="midnightblue" stroke="midnightblue" points="129.7,-26.72 137.46,-19.51 126.9,-20.3 129.7,-26.72"/>
</g>
<!-- Node3 -->
<g id="node3" class="node">
<title>Node3</title>
<g id="a_node3"><a xlink:href="math_8f.html#add7cf4f5279a2239cfd54f963a53e618" target="_top" xlink:title=" ">
<polygon fill="white" stroke="black" points="316,-256.5 316,-275.5 348,-275.5 348,-256.5 316,-256.5"/>
<text text-anchor="middle" x="332" y="-263.5" font-family="Helvetica,sans-Serif" font-size="10.00">cfill</text>
</a>
</g>
</g>
<!-- Node2&#45;&gt;Node3 -->
<g id="edge2" class="edge">
<title>Node2&#45;&gt;Node3</title>
<path fill="none" stroke="midnightblue" d="M230.28,-273.63C253.37,-271.88 284.38,-269.53 305.87,-267.9"/>
<polygon fill="midnightblue" stroke="midnightblue" points="306.15,-271.39 315.86,-267.15 305.62,-264.41 306.15,-271.39"/>
</g>
<!-- Node16&#45;&gt;Node3 -->
<g id="edge5" class="edge">
<title>Node16&#45;&gt;Node3</title>
<path fill="none" stroke="midnightblue" d="M215.72,-241.55C238.4,-246.36 279.12,-255 305.6,-260.61"/>
<polygon fill="midnightblue" stroke="midnightblue" points="305.14,-264.09 315.64,-262.74 306.59,-257.24 305.14,-264.09"/>
</g>
<!-- Node16&#45;&gt;Node15 -->
<g id="edge6" class="edge">
<title>Node16&#45;&gt;Node15</title>
<path fill="none" stroke="midnightblue" d="M215.72,-235.59C237.55,-232.45 276.08,-226.9 302.55,-223.1"/>
<polygon fill="midnightblue" stroke="midnightblue" points="303.33,-226.52 312.73,-221.63 302.33,-219.59 303.33,-226.52"/>
</g>
<!-- Node21&#45;&gt;Node18 -->
<g id="edge9" class="edge">
<title>Node21&#45;&gt;Node18</title>
<path fill="none" stroke="midnightblue" d="M217.08,-126.6C239.67,-129.85 278.51,-135.44 304.47,-139.18"/>
<polygon fill="midnightblue" stroke="midnightblue" points="303.99,-142.65 314.39,-140.61 304.99,-135.72 303.99,-142.65"/>
</g>
</g>
</svg>
