<?xml version="1.0" encoding="UTF-8" standalone="no"?>
<!DOCTYPE svg PUBLIC "-//W3C//DTD SVG 1.1//EN"
 "http://www.w3.org/Graphics/SVG/1.1/DTD/svg11.dtd">
<!-- Generated by graphviz version 2.46.0 (0)
 -->
<!-- Title: rans_komg_mut Pages: 1 -->
<svg width="386pt" height="180pt"
 viewBox="0.00 0.00 386.00 180.00" xmlns="http://www.w3.org/2000/svg" xmlns:xlink="http://www.w3.org/1999/xlink">
<g id="graph0" class="graph" transform="scale(1 1) rotate(0) translate(4 176)">
<title>rans_komg_mut</title>
<polygon fill="white" stroke="transparent" points="-4,4 -4,-176 382,-176 382,4 -4,4"/>
<!-- Node1 -->
<g id="node1" class="node">
<title>Node1</title>
<g id="a_node1"><a xlink:title=" ">
<polygon fill="#bfbfbf" stroke="black" points="0,-76.5 0,-95.5 86,-95.5 86,-76.5 0,-76.5"/>
<text text-anchor="middle" x="43" y="-83.5" font-family="Helvetica,sans-Serif" font-size="10.00">rans_komg_mut</text>
</a>
</g>
</g>
<!-- Node2 -->
<g id="node2" class="node">
<title>Node2</title>
<g id="a_node2"><a xlink:href="rans__komg_8f.html#a22b299f6cb7033a04153888b3db7bc24" target="_top" xlink:title=" ">
<polygon fill="white" stroke="black" points="138.5,-152.5 138.5,-171.5 257.5,-171.5 257.5,-152.5 138.5,-152.5"/>
<text text-anchor="middle" x="198" y="-159.5" font-family="Helvetica,sans-Serif" font-size="10.00">rans_komg_lowre_eddy</text>
</a>
</g>
</g>
<!-- Node1&#45;&gt;Node2 -->
<g id="edge1" class="edge">
<title>Node1&#45;&gt;Node2</title>
<path fill="none" stroke="midnightblue" d="M54.26,-95.54C68.44,-108.21 95.29,-130.44 122,-143 127.22,-145.45 132.79,-147.62 138.46,-149.52"/>
<polygon fill="midnightblue" stroke="midnightblue" points="137.45,-152.87 148.04,-152.49 139.52,-146.19 137.45,-152.87"/>
</g>
<!-- Node8 -->
<g id="node5" class="node">
<title>Node8</title>
<g id="a_node5"><a xlink:href="rans__komg_8f.html#aaa6abf41fe9db414e71480f7b69e4884" target="_top" xlink:title=" ">
<polygon fill="white" stroke="black" points="136.5,-114.5 136.5,-133.5 259.5,-133.5 259.5,-114.5 136.5,-114.5"/>
<text text-anchor="middle" x="198" y="-121.5" font-family="Helvetica,sans-Serif" font-size="10.00">rans_komg_stndrd_eddy</text>
</a>
</g>
</g>
<!-- Node1&#45;&gt;Node8 -->
<g id="edge4" class="edge">
<title>Node1&#45;&gt;Node8</title>
<path fill="none" stroke="midnightblue" d="M82.61,-95.59C102.71,-100.58 127.48,-106.73 148.82,-112.03"/>
<polygon fill="midnightblue" stroke="midnightblue" points="148.12,-115.47 158.67,-114.48 149.81,-108.67 148.12,-115.47"/>
</g>
<!-- Node9 -->
<g id="node6" class="node">
<title>Node9</title>
<g id="a_node6"><a xlink:href="rans__komg_8f.html#af62542654f5de4d6a623bb0d73db3bfe" target="_top" xlink:title=" ">
<polygon fill="white" stroke="black" points="122,-76.5 122,-95.5 274,-95.5 274,-76.5 122,-76.5"/>
<text text-anchor="middle" x="198" y="-83.5" font-family="Helvetica,sans-Serif" font-size="10.00">rans_komg_stndrd_eddy_noreg</text>
</a>
</g>
</g>
<!-- Node1&#45;&gt;Node9 -->
<g id="edge7" class="edge">
<title>Node1&#45;&gt;Node9</title>
<path fill="none" stroke="midnightblue" d="M86.21,-86C94.25,-86 102.92,-86 111.74,-86"/>
<polygon fill="midnightblue" stroke="midnightblue" points="111.75,-89.5 121.75,-86 111.75,-82.5 111.75,-89.5"/>
</g>
<!-- Node10 -->
<g id="node7" class="node">
<title>Node10</title>
<g id="a_node7"><a xlink:href="rans__komg_8f.html#a5f6555d892688a054c753b78eac6539a" target="_top" xlink:title=" ">
<polygon fill="white" stroke="black" points="131.5,-0.5 131.5,-19.5 264.5,-19.5 264.5,-0.5 131.5,-0.5"/>
<text text-anchor="middle" x="198" y="-7.5" font-family="Helvetica,sans-Serif" font-size="10.00">rans_komgsst_lowre_eddy</text>
</a>
</g>
</g>
<!-- Node1&#45;&gt;Node10 -->
<g id="edge10" class="edge">
<title>Node1&#45;&gt;Node10</title>
<path fill="none" stroke="midnightblue" d="M54.26,-76.46C68.44,-63.79 95.29,-41.56 122,-29 127.22,-26.55 132.79,-24.38 138.46,-22.48"/>
<polygon fill="midnightblue" stroke="midnightblue" points="139.52,-25.81 148.04,-19.51 137.45,-19.13 139.52,-25.81"/>
</g>
<!-- Node43 -->
<g id="node10" class="node">
<title>Node43</title>
<g id="a_node10"><a xlink:href="rans__komg_8f.html#ab81da29b4cbaa276af8dd9d963ac9fec" target="_top" xlink:title=" ">
<polygon fill="white" stroke="black" points="129.5,-38.5 129.5,-57.5 266.5,-57.5 266.5,-38.5 129.5,-38.5"/>
<text text-anchor="middle" x="198" y="-45.5" font-family="Helvetica,sans-Serif" font-size="10.00">rans_komgsst_stndrd_eddy</text>
</a>
</g>
</g>
<!-- Node1&#45;&gt;Node43 -->
<g id="edge15" class="edge">
<title>Node1&#45;&gt;Node43</title>
<path fill="none" stroke="midnightblue" d="M82.61,-76.41C102.71,-71.42 127.48,-65.27 148.82,-59.97"/>
<polygon fill="midnightblue" stroke="midnightblue" points="149.81,-63.33 158.67,-57.52 148.12,-56.53 149.81,-63.33"/>
</g>
<!-- Node3 -->
<g id="node3" class="node">
<title>Node3</title>
<g id="a_node3"><a xlink:href="math_8f.html#a102af0dc870819a605ae55d60c59f84a" target="_top" xlink:title=" ">
<polygon fill="white" stroke="red" points="324,-114.5 324,-133.5 364,-133.5 364,-114.5 324,-114.5"/>
<text text-anchor="middle" x="344" y="-121.5" font-family="Helvetica,sans-Serif" font-size="10.00">glmin</text>
</a>
</g>
</g>
<!-- Node2&#45;&gt;Node3 -->
<g id="edge2" class="edge">
<title>Node2&#45;&gt;Node3</title>
<path fill="none" stroke="midnightblue" d="M237.19,-152.49C249.01,-149.5 262.05,-146.16 274,-143 287.23,-139.5 301.85,-135.5 314.22,-132.07"/>
<polygon fill="midnightblue" stroke="midnightblue" points="315.3,-135.4 323.99,-129.35 313.42,-128.66 315.3,-135.4"/>
</g>
<!-- Node6 -->
<g id="node4" class="node">
<title>Node6</title>
<g id="a_node4"><a xlink:href="math_8f.html#a269b9bcae973eb49454422b00e319706" target="_top" xlink:title=" ">
<polygon fill="white" stroke="red" points="321.5,-76.5 321.5,-95.5 366.5,-95.5 366.5,-76.5 321.5,-76.5"/>
<text text-anchor="middle" x="344" y="-83.5" font-family="Helvetica,sans-Serif" font-size="10.00">iglsum</text>
</a>
</g>
</g>
<!-- Node2&#45;&gt;Node6 -->
<g id="edge3" class="edge">
<title>Node2&#45;&gt;Node6</title>
<path fill="none" stroke="midnightblue" d="M252.53,-152.43C260.01,-149.96 267.4,-146.87 274,-143 294.07,-131.23 291.73,-119.4 310,-105 311.77,-103.6 313.66,-102.24 315.6,-100.93"/>
<polygon fill="midnightblue" stroke="midnightblue" points="317.6,-103.81 324.23,-95.55 313.9,-97.87 317.6,-103.81"/>
</g>
<!-- Node8&#45;&gt;Node3 -->
<g id="edge5" class="edge">
<title>Node8&#45;&gt;Node3</title>
<path fill="none" stroke="midnightblue" d="M259.65,-124C278.39,-124 298.17,-124 313.77,-124"/>
<polygon fill="midnightblue" stroke="midnightblue" points="313.82,-127.5 323.82,-124 313.82,-120.5 313.82,-127.5"/>
</g>
<!-- Node8&#45;&gt;Node6 -->
<g id="edge6" class="edge">
<title>Node8&#45;&gt;Node6</title>
<path fill="none" stroke="midnightblue" d="M237.19,-114.49C249.01,-111.5 262.05,-108.16 274,-105 286.26,-101.76 299.72,-98.08 311.47,-94.83"/>
<polygon fill="midnightblue" stroke="midnightblue" points="312.58,-98.15 321.28,-92.1 310.71,-91.41 312.58,-98.15"/>
</g>
<!-- Node9&#45;&gt;Node3 -->
<g id="edge8" class="edge">
<title>Node9&#45;&gt;Node3</title>
<path fill="none" stroke="midnightblue" d="M237.19,-95.51C249.01,-98.5 262.05,-101.84 274,-105 287.23,-108.5 301.85,-112.5 314.22,-115.93"/>
<polygon fill="midnightblue" stroke="midnightblue" points="313.42,-119.34 323.99,-118.65 315.3,-112.6 313.42,-119.34"/>
</g>
<!-- Node9&#45;&gt;Node6 -->
<g id="edge9" class="edge">
<title>Node9&#45;&gt;Node6</title>
<path fill="none" stroke="midnightblue" d="M274.37,-86C287.34,-86 300.15,-86 311.14,-86"/>
<polygon fill="midnightblue" stroke="midnightblue" points="311.45,-89.5 321.45,-86 311.45,-82.5 311.45,-89.5"/>
</g>
<!-- Node10&#45;&gt;Node3 -->
<g id="edge12" class="edge">
<title>Node10&#45;&gt;Node3</title>
<path fill="none" stroke="midnightblue" d="M258.35,-19.62C263.99,-22.08 269.33,-25.16 274,-29 302.87,-52.74 284.65,-77.54 310,-105 311.57,-106.7 313.32,-108.29 315.18,-109.76"/>
<polygon fill="midnightblue" stroke="midnightblue" points="313.52,-112.86 323.77,-115.52 317.41,-107.04 313.52,-112.86"/>
</g>
<!-- Node10&#45;&gt;Node6 -->
<g id="edge14" class="edge">
<title>Node10&#45;&gt;Node6</title>
<path fill="none" stroke="midnightblue" d="M252.53,-19.57C260.01,-22.04 267.4,-25.13 274,-29 294.07,-40.77 291.73,-52.6 310,-67 311.77,-68.4 313.66,-69.76 315.6,-71.07"/>
<polygon fill="midnightblue" stroke="midnightblue" points="313.9,-74.13 324.23,-76.45 317.6,-68.19 313.9,-74.13"/>
</g>
<!-- Node11 -->
<g id="node8" class="node">
<title>Node11</title>
<g id="a_node8"><a xlink:href="rans__komg_8f.html#ac6e313118e7733ea603446276c221243" target="_top" xlink:title=" ">
<polygon fill="white" stroke="red" points="310,-38.5 310,-57.5 378,-57.5 378,-38.5 310,-38.5"/>
<text text-anchor="middle" x="344" y="-45.5" font-family="Helvetica,sans-Serif" font-size="10.00">comp_stom</text>
</a>
</g>
</g>
<!-- Node10&#45;&gt;Node11 -->
<g id="edge11" class="edge">
<title>Node10&#45;&gt;Node11</title>
<path fill="none" stroke="midnightblue" d="M237.19,-19.51C249.01,-22.5 262.05,-25.84 274,-29 282.37,-31.21 291.31,-33.63 299.87,-35.98"/>
<polygon fill="midnightblue" stroke="midnightblue" points="299.13,-39.4 309.7,-38.68 300.98,-32.65 299.13,-39.4"/>
</g>
<!-- Node42 -->
<g id="node9" class="node">
<title>Node42</title>
<g id="a_node9"><a xlink:href="navier2_8f.html#af415a58b53b7da1a36132d8531de5ec7" target="_top" xlink:title=" ">
<polygon fill="white" stroke="red" points="317,-0.5 317,-19.5 371,-19.5 371,-0.5 317,-0.5"/>
<text text-anchor="middle" x="344" y="-7.5" font-family="Helvetica,sans-Serif" font-size="10.00">gradm11</text>
</a>
</g>
</g>
<!-- Node10&#45;&gt;Node42 -->
<g id="edge13" class="edge">
<title>Node10&#45;&gt;Node42</title>
<path fill="none" stroke="midnightblue" d="M264.68,-10C279.05,-10 293.76,-10 306.5,-10"/>
<polygon fill="midnightblue" stroke="midnightblue" points="306.68,-13.5 316.68,-10 306.68,-6.5 306.68,-13.5"/>
</g>
<!-- Node43&#45;&gt;Node3 -->
<g id="edge17" class="edge">
<title>Node43&#45;&gt;Node3</title>
<path fill="none" stroke="midnightblue" d="M252.53,-57.57C260.01,-60.04 267.4,-63.13 274,-67 294.07,-78.77 291.73,-90.6 310,-105 311.77,-106.4 313.66,-107.76 315.6,-109.07"/>
<polygon fill="midnightblue" stroke="midnightblue" points="313.9,-112.13 324.23,-114.45 317.6,-106.19 313.9,-112.13"/>
</g>
<!-- Node43&#45;&gt;Node6 -->
<g id="edge19" class="edge">
<title>Node43&#45;&gt;Node6</title>
<path fill="none" stroke="midnightblue" d="M237.19,-57.51C249.01,-60.5 262.05,-63.84 274,-67 286.26,-70.24 299.72,-73.92 311.47,-77.17"/>
<polygon fill="midnightblue" stroke="midnightblue" points="310.71,-80.59 321.28,-79.9 312.58,-73.85 310.71,-80.59"/>
</g>
<!-- Node43&#45;&gt;Node11 -->
<g id="edge16" class="edge">
<title>Node43&#45;&gt;Node11</title>
<path fill="none" stroke="midnightblue" d="M266.78,-48C278.05,-48 289.46,-48 299.9,-48"/>
<polygon fill="midnightblue" stroke="midnightblue" points="299.97,-51.5 309.97,-48 299.97,-44.5 299.97,-51.5"/>
</g>
<!-- Node43&#45;&gt;Node42 -->
<g id="edge18" class="edge">
<title>Node43&#45;&gt;Node42</title>
<path fill="none" stroke="midnightblue" d="M237.19,-38.49C249.01,-35.5 262.05,-32.16 274,-29 284.74,-26.16 296.4,-22.99 307.02,-20.06"/>
<polygon fill="midnightblue" stroke="midnightblue" points="308.12,-23.39 316.82,-17.34 306.25,-16.64 308.12,-23.39"/>
</g>
</g>
</svg>
