<?xml version="1.0" encoding="UTF-8" standalone="no"?>
<!DOCTYPE svg PUBLIC "-//W3C//DTD SVG 1.1//EN"
 "http://www.w3.org/Graphics/SVG/1.1/DTD/svg11.dtd">
<!-- Generated by graphviz version 2.46.0 (0)
 -->
<!-- Title: rans_komg_lowre_compute Pages: 1 -->
<svg width="282pt" height="66pt"
 viewBox="0.00 0.00 282.00 66.00" xmlns="http://www.w3.org/2000/svg" xmlns:xlink="http://www.w3.org/1999/xlink">
<g id="graph0" class="graph" transform="scale(1 1) rotate(0) translate(4 62)">
<title>rans_komg_lowre_compute</title>
<polygon fill="white" stroke="transparent" points="-4,4 -4,-62 278,-62 278,4 -4,4"/>
<!-- Node1 -->
<g id="node1" class="node">
<title>Node1</title>
<g id="a_node1"><a xlink:title=" ">
<polygon fill="#bfbfbf" stroke="black" points="138,-19.5 138,-38.5 274,-38.5 274,-19.5 138,-19.5"/>
<text text-anchor="middle" x="206" y="-26.5" font-family="Helvetica,sans-Serif" font-size="10.00">rans_komg_lowre_compute</text>
</a>
</g>
</g>
<!-- Node2 -->
<g id="node2" class="node">
<title>Node2</title>
<g id="a_node2"><a xlink:href="rans__komg_8f.html#a15219ac5ee8d0ac16321c4195973ecea" target="_top" xlink:title=" ">
<polygon fill="white" stroke="black" points="6.5,-38.5 6.5,-57.5 95.5,-57.5 95.5,-38.5 6.5,-38.5"/>
<text text-anchor="middle" x="51" y="-45.5" font-family="Helvetica,sans-Serif" font-size="10.00">rans_komg_ksrc</text>
</a>
</g>
</g>
<!-- Node1&#45;&gt;Node2 -->
<g id="edge1" class="edge">
<title>Node1&#45;&gt;Node2</title>
<path fill="none" stroke="midnightblue" d="M127.8,-38.59C116.78,-39.96 105.78,-41.32 95.72,-42.57"/>
<polygon fill="midnightblue" stroke="midnightblue" points="128.4,-42.04 137.89,-37.33 127.54,-35.09 128.4,-42.04"/>
</g>
<!-- Node3 -->
<g id="node3" class="node">
<title>Node3</title>
<g id="a_node3"><a xlink:href="rans__komg_8f.html#a7ba7f638d2b317b33acfcafd64c32ea0" target="_top" xlink:title=" ">
<polygon fill="white" stroke="black" points="0,-0.5 0,-19.5 102,-19.5 102,-0.5 0,-0.5"/>
<text text-anchor="middle" x="51" y="-7.5" font-family="Helvetica,sans-Serif" font-size="10.00">rans_komg_omgsrc</text>
</a>
</g>
</g>
<!-- Node1&#45;&gt;Node3 -->
<g id="edge2" class="edge">
<title>Node1&#45;&gt;Node3</title>
<path fill="none" stroke="midnightblue" d="M127.97,-19.43C119.16,-18.34 110.36,-17.25 102.03,-16.21"/>
<polygon fill="midnightblue" stroke="midnightblue" points="127.54,-22.91 137.89,-20.67 128.4,-15.96 127.54,-22.91"/>
</g>
</g>
</svg>
