<?xml version="1.0" encoding="UTF-8" standalone="no"?>
<!DOCTYPE svg PUBLIC "-//W3C//DTD SVG 1.1//EN"
 "http://www.w3.org/Graphics/SVG/1.1/DTD/svg11.dtd">
<!-- Generated by graphviz version 2.46.0 (0)
 -->
<!-- Title: rans_komgsst_lowre_eddy Pages: 1 -->
<svg width="458pt" height="218pt"
 viewBox="0.00 0.00 458.00 218.00" xmlns="http://www.w3.org/2000/svg" xmlns:xlink="http://www.w3.org/1999/xlink">
<g id="graph0" class="graph" transform="scale(1 1) rotate(0) translate(4 214)">
<title>rans_komgsst_lowre_eddy</title>
<polygon fill="white" stroke="transparent" points="-4,4 -4,-214 454,-214 454,4 -4,4"/>
<!-- Node1 -->
<g id="node1" class="node">
<title>Node1</title>
<g id="a_node1"><a xlink:title=" ">
<polygon fill="#bfbfbf" stroke="black" points="0,-57.5 0,-76.5 133,-76.5 133,-57.5 0,-57.5"/>
<text text-anchor="middle" x="66.5" y="-64.5" font-family="Helvetica,sans-Serif" font-size="10.00">rans_komgsst_lowre_eddy</text>
</a>
</g>
</g>
<!-- Node2 -->
<g id="node2" class="node">
<title>Node2</title>
<g id="a_node2"><a xlink:href="rans__komg_8f.html#ac6e313118e7733ea603446276c221243" target="_top" xlink:title=" ">
<polygon fill="white" stroke="black" points="169,-114.5 169,-133.5 237,-133.5 237,-114.5 169,-114.5"/>
<text text-anchor="middle" x="203" y="-121.5" font-family="Helvetica,sans-Serif" font-size="10.00">comp_stom</text>
</a>
</g>
</g>
<!-- Node1&#45;&gt;Node2 -->
<g id="edge1" class="edge">
<title>Node1&#45;&gt;Node2</title>
<path fill="none" stroke="midnightblue" d="M90.01,-76.54C111.93,-85.83 145.45,-100.04 170.11,-110.49"/>
<polygon fill="midnightblue" stroke="midnightblue" points="168.84,-113.75 179.41,-114.43 171.57,-107.3 168.84,-113.75"/>
</g>
<!-- Node33 -->
<g id="node8" class="node">
<title>Node33</title>
<g id="a_node8"><a xlink:href="math_8f.html#a102af0dc870819a605ae55d60c59f84a" target="_top" xlink:title=" ">
<polygon fill="white" stroke="red" points="183,-76.5 183,-95.5 223,-95.5 223,-76.5 183,-76.5"/>
<text text-anchor="middle" x="203" y="-83.5" font-family="Helvetica,sans-Serif" font-size="10.00">glmin</text>
</a>
</g>
</g>
<!-- Node1&#45;&gt;Node33 -->
<g id="edge9" class="edge">
<title>Node1&#45;&gt;Node33</title>
<path fill="none" stroke="midnightblue" d="M133.17,-76.28C147.06,-78.24 161.04,-80.21 172.73,-81.87"/>
<polygon fill="midnightblue" stroke="midnightblue" points="172.37,-85.35 182.77,-83.28 173.35,-78.42 172.37,-85.35"/>
</g>
<!-- Node36 -->
<g id="node9" class="node">
<title>Node36</title>
<g id="a_node9"><a xlink:href="navier2_8f.html#af415a58b53b7da1a36132d8531de5ec7" target="_top" xlink:title=" ">
<polygon fill="white" stroke="red" points="176,-38.5 176,-57.5 230,-57.5 230,-38.5 176,-38.5"/>
<text text-anchor="middle" x="203" y="-45.5" font-family="Helvetica,sans-Serif" font-size="10.00">gradm11</text>
</a>
</g>
</g>
<!-- Node1&#45;&gt;Node36 -->
<g id="edge10" class="edge">
<title>Node1&#45;&gt;Node36</title>
<path fill="none" stroke="midnightblue" d="M133.17,-57.72C144.46,-56.13 155.8,-54.53 165.93,-53.1"/>
<polygon fill="midnightblue" stroke="midnightblue" points="166.59,-56.54 176,-51.67 165.61,-49.61 166.59,-56.54"/>
</g>
<!-- Node37 -->
<g id="node10" class="node">
<title>Node37</title>
<g id="a_node10"><a xlink:href="math_8f.html#a269b9bcae973eb49454422b00e319706" target="_top" xlink:title=" ">
<polygon fill="white" stroke="red" points="180.5,-0.5 180.5,-19.5 225.5,-19.5 225.5,-0.5 180.5,-0.5"/>
<text text-anchor="middle" x="203" y="-7.5" font-family="Helvetica,sans-Serif" font-size="10.00">iglsum</text>
</a>
</g>
</g>
<!-- Node1&#45;&gt;Node37 -->
<g id="edge11" class="edge">
<title>Node1&#45;&gt;Node37</title>
<path fill="none" stroke="midnightblue" d="M90.01,-57.46C112.19,-48.06 146.26,-33.62 171,-23.14"/>
<polygon fill="midnightblue" stroke="midnightblue" points="172.46,-26.32 180.31,-19.19 169.73,-19.87 172.46,-26.32"/>
</g>
<!-- Node3 -->
<g id="node3" class="node">
<title>Node3</title>
<g id="a_node3"><a xlink:href="math_8f.html#a30b83d516b6ab162d3fafe73e03a3e92" target="_top" xlink:title=" ">
<polygon fill="white" stroke="red" points="304,-190.5 304,-209.5 342,-209.5 342,-190.5 304,-190.5"/>
<text text-anchor="middle" x="323" y="-197.5" font-family="Helvetica,sans-Serif" font-size="10.00">add2</text>
</a>
</g>
</g>
<!-- Node2&#45;&gt;Node3 -->
<g id="edge2" class="edge">
<title>Node2&#45;&gt;Node3</title>
<path fill="none" stroke="midnightblue" d="M215.24,-133.54C228.52,-144.54 251.52,-162.81 273,-176 279.77,-180.16 287.36,-184.17 294.52,-187.68"/>
<polygon fill="midnightblue" stroke="midnightblue" points="293.34,-190.99 303.87,-192.13 296.34,-184.67 293.34,-190.99"/>
</g>
<!-- Node6 -->
<g id="node4" class="node">
<title>Node6</title>
<g id="a_node4"><a xlink:href="math_8f.html#a6d333c9b7537e63344c7162824904329" target="_top" xlink:title=" ">
<polygon fill="white" stroke="black" points="410.5,-133.5 410.5,-152.5 448.5,-152.5 448.5,-133.5 410.5,-133.5"/>
<text text-anchor="middle" x="429.5" y="-140.5" font-family="Helvetica,sans-Serif" font-size="10.00">add3</text>
</a>
</g>
</g>
<!-- Node2&#45;&gt;Node6 -->
<g id="edge3" class="edge">
<title>Node2&#45;&gt;Node6</title>
<path fill="none" stroke="midnightblue" d="M231.84,-133.5C244.28,-137.27 259.21,-141.14 273,-143 317.03,-148.95 368.73,-147.25 400.02,-145.28"/>
<polygon fill="midnightblue" stroke="midnightblue" points="400.46,-148.75 410.2,-144.58 399.98,-141.77 400.46,-148.75"/>
</g>
<!-- Node7 -->
<g id="node5" class="node">
<title>Node7</title>
<g id="a_node5"><a xlink:href="math_8f.html#ad2b51b68d370651f4f6d81952503e7be" target="_top" xlink:title=" ">
<polygon fill="white" stroke="black" points="409,-76.5 409,-95.5 450,-95.5 450,-76.5 409,-76.5"/>
<text text-anchor="middle" x="429.5" y="-83.5" font-family="Helvetica,sans-Serif" font-size="10.00">cmult</text>
</a>
</g>
</g>
<!-- Node2&#45;&gt;Node7 -->
<g id="edge4" class="edge">
<title>Node2&#45;&gt;Node7</title>
<path fill="none" stroke="midnightblue" d="M222.77,-114.45C227.59,-111.66 232.64,-108.44 237,-105 255.27,-90.6 251.63,-76.19 273,-67 314.26,-49.25 366.99,-62.31 399.23,-73.81"/>
<polygon fill="midnightblue" stroke="midnightblue" points="398.34,-77.22 408.93,-77.45 400.8,-70.66 398.34,-77.22"/>
</g>
<!-- Node8 -->
<g id="node6" class="node">
<title>Node8</title>
<g id="a_node6"><a xlink:href="rans__komg_8f.html#aac31781cd15a554b30c910dab080c47c" target="_top" xlink:title=" ">
<polygon fill="white" stroke="red" points="287.5,-76.5 287.5,-95.5 358.5,-95.5 358.5,-76.5 287.5,-76.5"/>
<text text-anchor="middle" x="323" y="-83.5" font-family="Helvetica,sans-Serif" font-size="10.00">comp_sij_oij</text>
</a>
</g>
</g>
<!-- Node2&#45;&gt;Node8 -->
<g id="edge5" class="edge">
<title>Node2&#45;&gt;Node8</title>
<path fill="none" stroke="midnightblue" d="M233.78,-114.41C248.59,-109.64 266.69,-103.81 282.63,-98.68"/>
<polygon fill="midnightblue" stroke="midnightblue" points="283.79,-101.98 292.23,-95.59 281.64,-95.32 283.79,-101.98"/>
</g>
<!-- Node24 -->
<g id="node7" class="node">
<title>Node24</title>
<g id="a_node7"><a xlink:href="rans__komg_8f.html#a996556b03edfee7694824705e831cb09" target="_top" xlink:title=" ">
<polygon fill="white" stroke="red" points="273,-114.5 273,-133.5 373,-133.5 373,-114.5 273,-114.5"/>
<text text-anchor="middle" x="323" y="-121.5" font-family="Helvetica,sans-Serif" font-size="10.00">comp_sij_oij_mag2</text>
</a>
</g>
</g>
<!-- Node2&#45;&gt;Node24 -->
<g id="edge6" class="edge">
<title>Node2&#45;&gt;Node24</title>
<path fill="none" stroke="midnightblue" d="M237.18,-124C245.12,-124 253.83,-124 262.56,-124"/>
<polygon fill="midnightblue" stroke="midnightblue" points="262.77,-127.5 272.77,-124 262.77,-120.5 262.77,-127.5"/>
</g>
<!-- Node24&#45;&gt;Node6 -->
<g id="edge7" class="edge">
<title>Node24&#45;&gt;Node6</title>
<path fill="none" stroke="midnightblue" d="M373.19,-132.94C382.42,-134.62 391.78,-136.32 400.11,-137.84"/>
<polygon fill="midnightblue" stroke="midnightblue" points="399.56,-141.29 410.02,-139.64 400.81,-134.41 399.56,-141.29"/>
</g>
<!-- Node24&#45;&gt;Node7 -->
<g id="edge8" class="edge">
<title>Node24&#45;&gt;Node7</title>
<path fill="none" stroke="midnightblue" d="M350.37,-114.41C365.25,-109 383.88,-102.23 399.21,-96.65"/>
<polygon fill="midnightblue" stroke="midnightblue" points="400.54,-99.89 408.74,-93.19 398.14,-93.31 400.54,-99.89"/>
</g>
</g>
</svg>
