<?xml version="1.0" encoding="UTF-8" standalone="no"?>
<!DOCTYPE svg PUBLIC "-//W3C//DTD SVG 1.1//EN"
 "http://www.w3.org/Graphics/SVG/1.1/DTD/svg11.dtd">
<!-- Generated by graphviz version 2.46.0 (0)
 -->
<!-- Title: buf_to_bc Pages: 1 -->
<svg width="453pt" height="168pt"
 viewBox="0.00 0.00 453.00 167.79" xmlns="http://www.w3.org/2000/svg" xmlns:xlink="http://www.w3.org/1999/xlink">
<g id="graph0" class="graph" transform="scale(1 1) rotate(0) translate(4 163.79)">
<title>buf_to_bc</title>
<polygon fill="white" stroke="transparent" points="-4,4 -4,-163.79 449,-163.79 449,4 -4,4"/>
<!-- Node1 -->
<g id="node1" class="node">
<title>Node1</title>
<g id="a_node1"><a xlink:title=" ">
<polygon fill="#bfbfbf" stroke="black" points="0,-76.5 0,-95.5 59,-95.5 59,-76.5 0,-76.5"/>
<text text-anchor="middle" x="29.5" y="-83.5" font-family="Helvetica,sans-Serif" font-size="10.00">buf_to_bc</text>
</a>
</g>
</g>
<!-- Node2 -->
<g id="node2" class="node">
<title>Node2</title>
<g id="a_node2"><a xlink:href="math_8f.html#ad7fb480cea001849621405f37167aab1" target="_top" xlink:title=" ">
<polygon fill="white" stroke="black" points="397,-100.5 397,-119.5 445,-119.5 445,-100.5 397,-100.5"/>
<text text-anchor="middle" x="421" y="-107.5" font-family="Helvetica,sans-Serif" font-size="10.00">chcopy</text>
</a>
</g>
</g>
<!-- Node1&#45;&gt;Node2 -->
<g id="edge1" class="edge">
<title>Node1&#45;&gt;Node2</title>
<path fill="none" stroke="midnightblue" d="M37.53,-95.57C48.18,-109.17 69.84,-133.48 95,-143 196.03,-181.25 326.65,-144.31 386.89,-122.89"/>
<polygon fill="midnightblue" stroke="midnightblue" points="388.42,-126.06 396.61,-119.35 386.02,-119.48 388.42,-126.06"/>
</g>
<!-- Node3 -->
<g id="node3" class="node">
<title>Node3</title>
<g id="a_node3"><a xlink:href="math_8f.html#a3b43508554f14bdea8e14473d7d0803c" target="_top" xlink:title=" ">
<polygon fill="white" stroke="black" points="99,-114.5 99,-133.5 137,-133.5 137,-114.5 99,-114.5"/>
<text text-anchor="middle" x="118" y="-121.5" font-family="Helvetica,sans-Serif" font-size="10.00">copy</text>
</a>
</g>
</g>
<!-- Node1&#45;&gt;Node3 -->
<g id="edge2" class="edge">
<title>Node1&#45;&gt;Node3</title>
<path fill="none" stroke="midnightblue" d="M52.33,-95.59C63.7,-100.59 77.72,-106.74 89.79,-112.05"/>
<polygon fill="midnightblue" stroke="midnightblue" points="88.41,-115.26 98.97,-116.08 91.22,-108.85 88.41,-115.26"/>
</g>
<!-- Node4 -->
<g id="node4" class="node">
<title>Node4</title>
<g id="a_node4"><a xlink:href="prepost_8f.html#a5802584ce57124068d1ee183348e3275" target="_top" xlink:title=" ">
<polygon fill="white" stroke="black" points="95,-76.5 95,-95.5 141,-95.5 141,-76.5 95,-76.5"/>
<text text-anchor="middle" x="118" y="-83.5" font-family="Helvetica,sans-Serif" font-size="10.00">copy4r</text>
</a>
</g>
</g>
<!-- Node1&#45;&gt;Node4 -->
<g id="edge3" class="edge">
<title>Node1&#45;&gt;Node4</title>
<path fill="none" stroke="midnightblue" d="M59.3,-86C67.46,-86 76.39,-86 84.73,-86"/>
<polygon fill="midnightblue" stroke="midnightblue" points="84.89,-89.5 94.89,-86 84.89,-82.5 84.89,-89.5"/>
</g>
<!-- Node5 -->
<g id="node5" class="node">
<title>Node5</title>
<g id="a_node5"><a xlink:href="math_8f.html#a26622755cad7162eab6e767526a9445d" target="_top" xlink:title=" ">
<polygon fill="white" stroke="black" points="95.5,-38.5 95.5,-57.5 140.5,-57.5 140.5,-38.5 95.5,-38.5"/>
<text text-anchor="middle" x="118" y="-45.5" font-family="Helvetica,sans-Serif" font-size="10.00">copyi4</text>
</a>
</g>
</g>
<!-- Node1&#45;&gt;Node5 -->
<g id="edge4" class="edge">
<title>Node1&#45;&gt;Node5</title>
<path fill="none" stroke="midnightblue" d="M52.33,-76.41C62.55,-71.92 74.9,-66.49 86.06,-61.59"/>
<polygon fill="midnightblue" stroke="midnightblue" points="87.73,-64.68 95.48,-57.45 84.92,-58.27 87.73,-64.68"/>
</g>
<!-- Node6 -->
<g id="node6" class="node">
<title>Node6</title>
<g id="a_node6"><a xlink:href="dprocmap_8f.html#a90fd349db1c16c4cb8108485b3c200e0" target="_top" xlink:title=" ">
<polygon fill="white" stroke="black" points="101,-0.5 101,-19.5 135,-19.5 135,-0.5 101,-0.5"/>
<text text-anchor="middle" x="118" y="-7.5" font-family="Helvetica,sans-Serif" font-size="10.00">gllel</text>
</a>
</g>
</g>
<!-- Node1&#45;&gt;Node6 -->
<g id="edge5" class="edge">
<title>Node1&#45;&gt;Node6</title>
<path fill="none" stroke="midnightblue" d="M41.42,-76.28C54.22,-64.9 76.09,-45.52 95,-29 95.98,-28.14 96.99,-27.26 98.01,-26.37"/>
<polygon fill="midnightblue" stroke="midnightblue" points="100.52,-28.83 105.79,-19.64 95.94,-23.54 100.52,-28.83"/>
</g>
<!-- Node7 -->
<g id="node7" class="node">
<title>Node7</title>
<g id="a_node7"><a xlink:href="dprocmap_8f.html#a311a5a8d89b7f42b1f539390ad6b2fb0" target="_top" xlink:title=" ">
<polygon fill="white" stroke="red" points="177,-29.5 177,-48.5 250,-48.5 250,-29.5 177,-29.5"/>
<text text-anchor="middle" x="213.5" y="-36.5" font-family="Helvetica,sans-Serif" font-size="10.00">dprocmapget</text>
</a>
</g>
</g>
<!-- Node6&#45;&gt;Node7 -->
<g id="edge6" class="edge">
<title>Node6&#45;&gt;Node7</title>
<path fill="none" stroke="midnightblue" d="M135.29,-15.05C145.46,-18.21 159.04,-22.42 171.98,-26.43"/>
<polygon fill="midnightblue" stroke="midnightblue" points="171.09,-29.82 181.67,-29.44 173.16,-23.13 171.09,-29.82"/>
</g>
<!-- Node8 -->
<g id="node8" class="node">
<title>Node8</title>
<g id="a_node8"><a xlink:href="dprocmap_8f.html#a6a1e00e712d066b755283763aae0e73b" target="_top" xlink:title=" ">
<polygon fill="white" stroke="black" points="286,-86.5 286,-105.5 361,-105.5 361,-86.5 286,-86.5"/>
<text text-anchor="middle" x="323.5" y="-93.5" font-family="Helvetica,sans-Serif" font-size="10.00">dprocmapfind</text>
</a>
</g>
</g>
<!-- Node7&#45;&gt;Node8 -->
<g id="edge7" class="edge">
<title>Node7&#45;&gt;Node8</title>
<path fill="none" stroke="midnightblue" d="M232.4,-48.57C246.85,-56.28 267.71,-67.38 286,-77 288.91,-78.53 291.95,-80.12 294.98,-81.71"/>
<polygon fill="midnightblue" stroke="midnightblue" points="293.43,-84.85 303.92,-86.36 296.67,-78.64 293.43,-84.85"/>
</g>
<!-- Node9 -->
<g id="node9" class="node">
<title>Node9</title>
<g id="a_node9"><a xlink:href="comm__mpi_8f.html#a59fcf8a02fe54ab37f61050e3ca6b197" target="_top" xlink:title=" ">
<polygon fill="white" stroke="red" points="304.5,-48.5 304.5,-67.5 342.5,-67.5 342.5,-48.5 304.5,-48.5"/>
<text text-anchor="middle" x="323.5" y="-55.5" font-family="Helvetica,sans-Serif" font-size="10.00">exitti</text>
</a>
</g>
</g>
<!-- Node7&#45;&gt;Node9 -->
<g id="edge8" class="edge">
<title>Node7&#45;&gt;Node9</title>
<path fill="none" stroke="midnightblue" d="M250.16,-45.27C264.51,-47.8 280.82,-50.67 294.32,-53.04"/>
<polygon fill="midnightblue" stroke="midnightblue" points="293.99,-56.54 304.45,-54.82 295.21,-49.64 293.99,-56.54"/>
</g>
<!-- Node15 -->
<g id="node10" class="node">
<title>Node15</title>
<g id="a_node10"><a xlink:href="math_8f.html#a1e85d2406444243269f0d85c61a02dce" target="_top" xlink:title=" ">
<polygon fill="white" stroke="black" points="303.5,-10.5 303.5,-29.5 343.5,-29.5 343.5,-10.5 303.5,-10.5"/>
<text text-anchor="middle" x="323.5" y="-17.5" font-family="Helvetica,sans-Serif" font-size="10.00">icopy</text>
</a>
</g>
</g>
<!-- Node7&#45;&gt;Node15 -->
<g id="edge10" class="edge">
<title>Node7&#45;&gt;Node15</title>
<path fill="none" stroke="midnightblue" d="M250.16,-32.73C264.13,-30.27 279.94,-27.49 293.22,-25.15"/>
<polygon fill="midnightblue" stroke="midnightblue" points="294,-28.57 303.24,-23.39 292.78,-21.67 294,-28.57"/>
</g>
<!-- Node9&#45;&gt;Node2 -->
<g id="edge9" class="edge">
<title>Node9&#45;&gt;Node2</title>
<path fill="none" stroke="midnightblue" d="M342.75,-67.36C348.6,-70.4 355.09,-73.81 361,-77 371.99,-82.93 384.04,-89.64 394.37,-95.44"/>
<polygon fill="midnightblue" stroke="midnightblue" points="392.86,-98.61 403.29,-100.48 396.3,-92.51 392.86,-98.61"/>
</g>
</g>
</svg>
