<?xml version="1.0" encoding="UTF-8" standalone="no"?>
<!DOCTYPE svg PUBLIC "-//W3C//DTD SVG 1.1//EN"
 "http://www.w3.org/Graphics/SVG/1.1/DTD/svg11.dtd">
<!-- Generated by graphviz version 2.46.0 (0)
 -->
<!-- Title: bin_rd1_curve Pages: 1 -->
<svg width="279pt" height="332pt"
 viewBox="0.00 0.00 279.00 332.00" xmlns="http://www.w3.org/2000/svg" xmlns:xlink="http://www.w3.org/1999/xlink">
<g id="graph0" class="graph" transform="scale(1 1) rotate(0) translate(4 328)">
<title>bin_rd1_curve</title>
<polygon fill="white" stroke="transparent" points="-4,4 -4,-328 275,-328 275,4 -4,4"/>
<!-- Node1 -->
<g id="node1" class="node">
<title>Node1</title>
<g id="a_node1"><a xlink:title=" ">
<polygon fill="#bfbfbf" stroke="black" points="0,-152.5 0,-171.5 77,-171.5 77,-152.5 0,-152.5"/>
<text text-anchor="middle" x="38.5" y="-159.5" font-family="Helvetica,sans-Serif" font-size="10.00">bin_rd1_curve</text>
</a>
</g>
</g>
<!-- Node2 -->
<g id="node2" class="node">
<title>Node2</title>
<g id="a_node2"><a xlink:href="reader__re2_8f.html#a4e0c7c71551475d8cdd6a140744e536b" target="_top" xlink:title=" ">
<polygon fill="white" stroke="black" points="113,-304.5 113,-323.5 190,-323.5 190,-304.5 113,-304.5"/>
<text text-anchor="middle" x="151.5" y="-311.5" font-family="Helvetica,sans-Serif" font-size="10.00">buf_close_out</text>
</a>
</g>
</g>
<!-- Node1&#45;&gt;Node2 -->
<g id="edge1" class="edge">
<title>Node1&#45;&gt;Node2</title>
<path fill="none" stroke="midnightblue" d="M43.16,-171.68C52.17,-194.5 77.29,-252.53 113,-290 116,-293.15 119.49,-296.07 123.11,-298.72"/>
<polygon fill="midnightblue" stroke="midnightblue" points="121.37,-301.76 131.64,-304.36 125.23,-295.92 121.37,-301.76"/>
</g>
<!-- Node3 -->
<g id="node3" class="node">
<title>Node3</title>
<g id="a_node3"><a xlink:href="comm__mpi_8f.html#abd95004b45059acdcc13614c52e60eae" target="_top" xlink:title=" ">
<polygon fill="white" stroke="red" points="227,-275.5 227,-294.5 270,-294.5 270,-275.5 227,-275.5"/>
<text text-anchor="middle" x="248.5" y="-282.5" font-family="Helvetica,sans-Serif" font-size="10.00">csend</text>
</a>
</g>
</g>
<!-- Node1&#45;&gt;Node3 -->
<g id="edge8" class="edge">
<title>Node1&#45;&gt;Node3</title>
<path fill="none" stroke="midnightblue" d="M44.01,-171.64C53.67,-191.16 78.34,-235.33 113,-257 144.56,-276.73 187.63,-282.81 216.44,-284.55"/>
<polygon fill="midnightblue" stroke="midnightblue" points="216.58,-288.06 226.73,-285.03 216.9,-281.07 216.58,-288.06"/>
</g>
<!-- Node5 -->
<g id="node4" class="node">
<title>Node5</title>
<g id="a_node4"><a xlink:href="reader__re2_8f.html#a637876278ed588a2f4d0c595ec4ea32c" target="_top" xlink:title=" ">
<polygon fill="white" stroke="red" points="115,-228.5 115,-247.5 188,-247.5 188,-228.5 115,-228.5"/>
<text text-anchor="middle" x="151.5" y="-235.5" font-family="Helvetica,sans-Serif" font-size="10.00">buf_to_curve</text>
</a>
</g>
</g>
<!-- Node1&#45;&gt;Node5 -->
<g id="edge3" class="edge">
<title>Node1&#45;&gt;Node5</title>
<path fill="none" stroke="midnightblue" d="M52.65,-171.58C67.26,-182.16 91.61,-199.6 113,-214 117.38,-216.95 122.08,-220.03 126.64,-222.96"/>
<polygon fill="midnightblue" stroke="midnightblue" points="124.76,-225.92 135.07,-228.35 128.53,-220.02 124.76,-225.92"/>
</g>
<!-- Node9 -->
<g id="node5" class="node">
<title>Node9</title>
<g id="a_node5"><a xlink:href="math_8f.html#a26622755cad7162eab6e767526a9445d" target="_top" xlink:title=" ">
<polygon fill="white" stroke="black" points="226,-218.5 226,-237.5 271,-237.5 271,-218.5 226,-218.5"/>
<text text-anchor="middle" x="248.5" y="-225.5" font-family="Helvetica,sans-Serif" font-size="10.00">copyi4</text>
</a>
</g>
</g>
<!-- Node1&#45;&gt;Node9 -->
<g id="edge5" class="edge">
<title>Node1&#45;&gt;Node9</title>
<path fill="none" stroke="midnightblue" d="M69.74,-171.6C108.82,-184 176.52,-205.48 216.13,-218.05"/>
<polygon fill="midnightblue" stroke="midnightblue" points="215.21,-221.43 225.8,-221.12 217.33,-214.75 215.21,-221.43"/>
</g>
<!-- Node22 -->
<g id="node6" class="node">
<title>Node22</title>
<g id="a_node6"><a xlink:href="comm__mpi_8f.html#a243c9bed2592e7cd159fb36be4fda037" target="_top" xlink:title=" ">
<polygon fill="white" stroke="red" points="131,-152.5 131,-171.5 172,-171.5 172,-152.5 131,-152.5"/>
<text text-anchor="middle" x="151.5" y="-159.5" font-family="Helvetica,sans-Serif" font-size="10.00">crecv</text>
</a>
</g>
</g>
<!-- Node1&#45;&gt;Node22 -->
<g id="edge6" class="edge">
<title>Node1&#45;&gt;Node22</title>
<path fill="none" stroke="midnightblue" d="M77.08,-162C91.27,-162 107.22,-162 120.61,-162"/>
<polygon fill="midnightblue" stroke="midnightblue" points="120.73,-165.5 130.73,-162 120.73,-158.5 120.73,-165.5"/>
</g>
<!-- Node15 -->
<g id="node7" class="node">
<title>Node15</title>
<g id="a_node7"><a xlink:href="byte_8c.html#a2da8eeb074dfd3ffbfb3e9a4d301cda4" target="_top" xlink:title=" ">
<polygon fill="white" stroke="red" points="231,-114.5 231,-133.5 266,-133.5 266,-114.5 231,-114.5"/>
<text text-anchor="middle" x="248.5" y="-121.5" font-family="Helvetica,sans-Serif" font-size="10.00">exitt</text>
</a>
</g>
</g>
<!-- Node1&#45;&gt;Node15 -->
<g id="edge11" class="edge">
<title>Node1&#45;&gt;Node15</title>
<path fill="none" stroke="midnightblue" d="M72.98,-152.5C85.47,-149.18 99.82,-145.63 113,-143 150,-135.63 193.27,-130.05 220.53,-126.9"/>
<polygon fill="midnightblue" stroke="midnightblue" points="221.29,-130.34 230.83,-125.74 220.5,-123.39 221.29,-130.34"/>
</g>
<!-- Node24 -->
<g id="node8" class="node">
<title>Node24</title>
<g id="a_node8"><a xlink:href="comm__mpi_8f.html#ae6a06eb6f47a6153825afb25e6cc49c7" target="_top" xlink:title=" ">
<polygon fill="white" stroke="red" points="127,-76.5 127,-95.5 176,-95.5 176,-76.5 127,-76.5"/>
<text text-anchor="middle" x="151.5" y="-83.5" font-family="Helvetica,sans-Serif" font-size="10.00">err_chk</text>
</a>
</g>
</g>
<!-- Node1&#45;&gt;Node24 -->
<g id="edge9" class="edge">
<title>Node1&#45;&gt;Node24</title>
<path fill="none" stroke="midnightblue" d="M52.65,-152.42C67.26,-141.84 91.61,-124.4 113,-110 117.38,-107.05 122.08,-103.97 126.64,-101.04"/>
<polygon fill="midnightblue" stroke="midnightblue" points="128.53,-103.98 135.07,-95.65 124.76,-98.08 128.53,-103.98"/>
</g>
<!-- Node28 -->
<g id="node9" class="node">
<title>Node28</title>
<g id="a_node9"><a xlink:href="dprocmap_8f.html#aa8f8117aad966b2c1f877b334d9d407b" target="_top" xlink:title=" ">
<polygon fill="white" stroke="red" points="132,-38.5 132,-57.5 171,-57.5 171,-38.5 132,-38.5"/>
<text text-anchor="middle" x="151.5" y="-45.5" font-family="Helvetica,sans-Serif" font-size="10.00">gllnid</text>
</a>
</g>
</g>
<!-- Node1&#45;&gt;Node28 -->
<g id="edge12" class="edge">
<title>Node1&#45;&gt;Node28</title>
<path fill="none" stroke="midnightblue" d="M45.03,-152.23C55.96,-133.61 81.98,-92.64 113,-67 116.08,-64.46 119.55,-62.13 123.11,-60.05"/>
<polygon fill="midnightblue" stroke="midnightblue" points="124.75,-63.15 131.96,-55.39 121.48,-56.95 124.75,-63.15"/>
</g>
<!-- Node29 -->
<g id="node10" class="node">
<title>Node29</title>
<g id="a_node10"><a xlink:href="comm__mpi_8f.html#a4acb4d8e379294232e9219bec063d8f3" target="_top" xlink:title=" ">
<polygon fill="white" stroke="red" points="122,-0.5 122,-19.5 181,-19.5 181,-0.5 122,-0.5"/>
<text text-anchor="middle" x="151.5" y="-7.5" font-family="Helvetica,sans-Serif" font-size="10.00">nekgsync</text>
</a>
</g>
</g>
<!-- Node1&#45;&gt;Node29 -->
<g id="edge13" class="edge">
<title>Node1&#45;&gt;Node29</title>
<path fill="none" stroke="midnightblue" d="M42.57,-152.39C50.59,-128.64 74.27,-66.37 113,-29 114.42,-27.63 115.95,-26.34 117.57,-25.13"/>
<polygon fill="midnightblue" stroke="midnightblue" points="119.55,-28.01 126.09,-19.68 115.78,-22.12 119.55,-28.01"/>
</g>
<!-- Node2&#45;&gt;Node3 -->
<g id="edge2" class="edge">
<title>Node2&#45;&gt;Node3</title>
<path fill="none" stroke="midnightblue" d="M183.87,-304.42C194.6,-301.15 206.58,-297.49 217.22,-294.24"/>
<polygon fill="midnightblue" stroke="midnightblue" points="218.39,-297.55 226.93,-291.28 216.35,-290.85 218.39,-297.55"/>
</g>
<!-- Node5&#45;&gt;Node9 -->
<g id="edge4" class="edge">
<title>Node5&#45;&gt;Node9</title>
<path fill="none" stroke="midnightblue" d="M188.14,-234.25C197.23,-233.29 206.93,-232.27 215.8,-231.34"/>
<polygon fill="midnightblue" stroke="midnightblue" points="216.16,-234.82 225.74,-230.29 215.43,-227.86 216.16,-234.82"/>
</g>
<!-- Node22&#45;&gt;Node15 -->
<g id="edge7" class="edge">
<title>Node22&#45;&gt;Node15</title>
<path fill="none" stroke="midnightblue" d="M172.18,-154.13C186.36,-148.46 205.64,-140.74 221.15,-134.54"/>
<polygon fill="midnightblue" stroke="midnightblue" points="222.71,-137.68 230.7,-130.72 220.11,-131.18 222.71,-137.68"/>
</g>
<!-- Node24&#45;&gt;Node15 -->
<g id="edge10" class="edge">
<title>Node24&#45;&gt;Node15</title>
<path fill="none" stroke="midnightblue" d="M176.47,-95.59C190.1,-101.04 207.17,-107.87 221.17,-113.47"/>
<polygon fill="midnightblue" stroke="midnightblue" points="220.14,-116.82 230.72,-117.29 222.74,-110.32 220.14,-116.82"/>
</g>
</g>
</svg>
