<?xml version="1.0" encoding="UTF-8" standalone="no"?>
<!DOCTYPE svg PUBLIC "-//W3C//DTD SVG 1.1//EN"
 "http://www.w3.org/Graphics/SVG/1.1/DTD/svg11.dtd">
<!-- Generated by graphviz version 2.46.0 (0)
 -->
<!-- Title: readp_re2_bc Pages: 1 -->
<svg width="287pt" height="318pt"
 viewBox="0.00 0.00 287.00 317.69" xmlns="http://www.w3.org/2000/svg" xmlns:xlink="http://www.w3.org/1999/xlink">
<g id="graph0" class="graph" transform="scale(1 1) rotate(0) translate(4 313.69)">
<title>readp_re2_bc</title>
<polygon fill="white" stroke="transparent" points="-4,4 -4,-313.69 283,-313.69 283,4 -4,4"/>
<!-- Node1 -->
<g id="node1" class="node">
<title>Node1</title>
<g id="a_node1"><a xlink:title=" ">
<polygon fill="#bfbfbf" stroke="black" points="0,-152.5 0,-171.5 75,-171.5 75,-152.5 0,-152.5"/>
<text text-anchor="middle" x="37.5" y="-159.5" font-family="Helvetica,sans-Serif" font-size="10.00">readp_re2_bc</text>
</a>
</g>
</g>
<!-- Node2 -->
<g id="node2" class="node">
<title>Node2</title>
<g id="a_node2"><a xlink:href="reader__re2_8f.html#a189e9cbe1eb8f139fb4274fc08ee13ee" target="_top" xlink:title=" ">
<polygon fill="white" stroke="red" points="125,-266.5 125,-285.5 184,-285.5 184,-266.5 125,-266.5"/>
<text text-anchor="middle" x="154.5" y="-273.5" font-family="Helvetica,sans-Serif" font-size="10.00">buf_to_bc</text>
</a>
</g>
</g>
<!-- Node1&#45;&gt;Node2 -->
<g id="edge1" class="edge">
<title>Node1&#45;&gt;Node2</title>
<path fill="none" stroke="midnightblue" d="M44.5,-171.67C55.8,-189.31 81.77,-227.21 111,-252 115.02,-255.41 119.59,-258.57 124.21,-261.42"/>
<polygon fill="midnightblue" stroke="midnightblue" points="122.6,-264.53 133.02,-266.46 126.08,-258.46 122.6,-264.53"/>
</g>
<!-- Node4 -->
<g id="node3" class="node">
<title>Node4</title>
<g id="a_node3"><a xlink:href="math_8f.html#a3b43508554f14bdea8e14473d7d0803c" target="_top" xlink:title=" ">
<polygon fill="white" stroke="black" points="237.5,-285.5 237.5,-304.5 275.5,-304.5 275.5,-285.5 237.5,-285.5"/>
<text text-anchor="middle" x="256.5" y="-292.5" font-family="Helvetica,sans-Serif" font-size="10.00">copy</text>
</a>
</g>
</g>
<!-- Node1&#45;&gt;Node4 -->
<g id="edge6" class="edge">
<title>Node1&#45;&gt;Node4</title>
<path fill="none" stroke="midnightblue" d="M40.31,-171.7C45.68,-197.4 64.19,-267.21 111,-295 146.5,-316.08 196.09,-310.06 226.97,-303.06"/>
<polygon fill="midnightblue" stroke="midnightblue" points="228.18,-306.37 237.06,-300.59 226.51,-299.57 228.18,-306.37"/>
</g>
<!-- Node6 -->
<g id="node4" class="node">
<title>Node6</title>
<g id="a_node4"><a xlink:href="math_8f.html#a26622755cad7162eab6e767526a9445d" target="_top" xlink:title=" ">
<polygon fill="white" stroke="black" points="234,-247.5 234,-266.5 279,-266.5 279,-247.5 234,-247.5"/>
<text text-anchor="middle" x="256.5" y="-254.5" font-family="Helvetica,sans-Serif" font-size="10.00">copyi4</text>
</a>
</g>
</g>
<!-- Node1&#45;&gt;Node6 -->
<g id="edge7" class="edge">
<title>Node1&#45;&gt;Node6</title>
<path fill="none" stroke="midnightblue" d="M47.92,-171.54C60.96,-184.21 85.77,-206.45 111,-219 147.56,-237.19 193.81,-247.38 223.99,-252.53"/>
<polygon fill="midnightblue" stroke="midnightblue" points="223.53,-256 233.96,-254.14 224.65,-249.09 223.53,-256"/>
</g>
<!-- Node19 -->
<g id="node5" class="node">
<title>Node19</title>
<g id="a_node5"><a xlink:href="byte__mpi_8f.html#a91adf5e8a4faef0ead93d4cd48e4ab00" target="_top" xlink:title=" ">
<polygon fill="white" stroke="red" points="114.5,-190.5 114.5,-209.5 194.5,-209.5 194.5,-190.5 114.5,-190.5"/>
<text text-anchor="middle" x="154.5" y="-197.5" font-family="Helvetica,sans-Serif" font-size="10.00">byte_read_mpi</text>
</a>
</g>
</g>
<!-- Node1&#45;&gt;Node19 -->
<g id="edge4" class="edge">
<title>Node1&#45;&gt;Node19</title>
<path fill="none" stroke="midnightblue" d="M67.52,-171.59C81.82,-176.31 99.26,-182.08 114.69,-187.18"/>
<polygon fill="midnightblue" stroke="midnightblue" points="113.9,-190.6 124.49,-190.41 116.09,-183.95 113.9,-190.6"/>
</g>
<!-- Node20 -->
<g id="node6" class="node">
<title>Node20</title>
<g id="a_node6"><a xlink:href="byte__mpi_8f.html#ad62e65c087d45367b00222a7b05890eb" target="_top" xlink:title=" ">
<polygon fill="white" stroke="red" points="114.5,-152.5 114.5,-171.5 194.5,-171.5 194.5,-152.5 114.5,-152.5"/>
<text text-anchor="middle" x="154.5" y="-159.5" font-family="Helvetica,sans-Serif" font-size="10.00">byte_set_view</text>
</a>
</g>
</g>
<!-- Node1&#45;&gt;Node20 -->
<g id="edge5" class="edge">
<title>Node1&#45;&gt;Node20</title>
<path fill="none" stroke="midnightblue" d="M75.2,-162C84.47,-162 94.58,-162 104.35,-162"/>
<polygon fill="midnightblue" stroke="midnightblue" points="104.37,-165.5 114.37,-162 104.37,-158.5 104.37,-165.5"/>
</g>
<!-- Node21 -->
<g id="node7" class="node">
<title>Node21</title>
<g id="a_node7"><a xlink:href="comm__mpi_8f.html#ae6a06eb6f47a6153825afb25e6cc49c7" target="_top" xlink:title=" ">
<polygon fill="white" stroke="red" points="130,-114.5 130,-133.5 179,-133.5 179,-114.5 130,-114.5"/>
<text text-anchor="middle" x="154.5" y="-121.5" font-family="Helvetica,sans-Serif" font-size="10.00">err_chk</text>
</a>
</g>
</g>
<!-- Node1&#45;&gt;Node21 -->
<g id="edge8" class="edge">
<title>Node1&#45;&gt;Node21</title>
<path fill="none" stroke="midnightblue" d="M67.52,-152.41C83.5,-147.13 103.4,-140.55 120.04,-135.06"/>
<polygon fill="midnightblue" stroke="midnightblue" points="121.51,-138.26 129.91,-131.8 119.31,-131.61 121.51,-138.26"/>
</g>
<!-- Node25 -->
<g id="node8" class="node">
<title>Node25</title>
<g id="a_node8"><a xlink:href="dprocmap_8f.html#aa8f8117aad966b2c1f877b334d9d407b" target="_top" xlink:title=" ">
<polygon fill="white" stroke="red" points="135,-76.5 135,-95.5 174,-95.5 174,-76.5 135,-76.5"/>
<text text-anchor="middle" x="154.5" y="-83.5" font-family="Helvetica,sans-Serif" font-size="10.00">gllnid</text>
</a>
</g>
</g>
<!-- Node1&#45;&gt;Node25 -->
<g id="edge9" class="edge">
<title>Node1&#45;&gt;Node25</title>
<path fill="none" stroke="midnightblue" d="M49.18,-152.22C62.8,-140.07 87.43,-119.24 111,-105 115.55,-102.25 120.57,-99.66 125.52,-97.33"/>
<polygon fill="midnightblue" stroke="midnightblue" points="127.1,-100.46 134.8,-93.18 124.24,-94.06 127.1,-100.46"/>
</g>
<!-- Node16 -->
<g id="node9" class="node">
<title>Node16</title>
<g id="a_node9"><a xlink:href="math_8f.html#a1e85d2406444243269f0d85c61a02dce" target="_top" xlink:title=" ">
<polygon fill="white" stroke="black" points="134.5,-38.5 134.5,-57.5 174.5,-57.5 174.5,-38.5 134.5,-38.5"/>
<text text-anchor="middle" x="154.5" y="-45.5" font-family="Helvetica,sans-Serif" font-size="10.00">icopy</text>
</a>
</g>
</g>
<!-- Node1&#45;&gt;Node16 -->
<g id="edge10" class="edge">
<title>Node1&#45;&gt;Node16</title>
<path fill="none" stroke="midnightblue" d="M43.64,-152.38C54.08,-133.66 79.44,-91.98 111,-67 115.17,-63.7 120.01,-60.84 124.89,-58.41"/>
<polygon fill="midnightblue" stroke="midnightblue" points="126.46,-61.54 134.17,-54.28 123.61,-55.15 126.46,-61.54"/>
</g>
<!-- Node26 -->
<g id="node10" class="node">
<title>Node26</title>
<g id="a_node10"><a xlink:href="comm__mpi_8f.html#a1dc8c1bc7e3a04d6080d70922c6ad5be" target="_top" xlink:title=" ">
<polygon fill="white" stroke="red" points="111,-0.5 111,-19.5 198,-19.5 198,-0.5 111,-0.5"/>
<text text-anchor="middle" x="154.5" y="-7.5" font-family="Helvetica,sans-Serif" font-size="10.00">igl_running_sum</text>
</a>
</g>
</g>
<!-- Node1&#45;&gt;Node26 -->
<g id="edge11" class="edge">
<title>Node1&#45;&gt;Node26</title>
<path fill="none" stroke="midnightblue" d="M41.38,-152.27C48.96,-128.25 71.6,-65.41 111,-29 112.64,-27.48 114.42,-26.07 116.29,-24.77"/>
<polygon fill="midnightblue" stroke="midnightblue" points="118.11,-27.76 124.93,-19.66 114.54,-21.73 118.11,-27.76"/>
</g>
<!-- Node2&#45;&gt;Node4 -->
<g id="edge2" class="edge">
<title>Node2&#45;&gt;Node4</title>
<path fill="none" stroke="midnightblue" d="M184.16,-281.44C197.64,-284.01 213.66,-287.05 227.11,-289.61"/>
<polygon fill="midnightblue" stroke="midnightblue" points="226.76,-293.1 237.24,-291.53 228.07,-286.23 226.76,-293.1"/>
</g>
<!-- Node2&#45;&gt;Node6 -->
<g id="edge3" class="edge">
<title>Node2&#45;&gt;Node6</title>
<path fill="none" stroke="midnightblue" d="M184.16,-270.56C196.51,-268.21 211.01,-265.45 223.69,-263.04"/>
<polygon fill="midnightblue" stroke="midnightblue" points="224.66,-266.42 233.84,-261.12 223.36,-259.54 224.66,-266.42"/>
</g>
</g>
</svg>
