<?xml version="1.0" encoding="UTF-8" standalone="no"?>
<!DOCTYPE svg PUBLIC "-//W3C//DTD SVG 1.1//EN"
 "http://www.w3.org/Graphics/SVG/1.1/DTD/svg11.dtd">
<!-- Generated by graphviz version 2.46.0 (0)
 -->
<!-- Title: rdcurve Pages: 1 -->
<svg width="353pt" height="180pt"
 viewBox="0.00 0.00 353.00 180.00" xmlns="http://www.w3.org/2000/svg" xmlns:xlink="http://www.w3.org/1999/xlink">
<g id="graph0" class="graph" transform="scale(1 1) rotate(0) translate(4 176)">
<title>rdcurve</title>
<polygon fill="white" stroke="transparent" points="-4,4 -4,-176 349,-176 349,4 -4,4"/>
<!-- Node1 -->
<g id="node1" class="node">
<title>Node1</title>
<g id="a_node1"><a xlink:title=" ">
<polygon fill="#bfbfbf" stroke="black" points="0,-76.5 0,-95.5 49,-95.5 49,-76.5 0,-76.5"/>
<text text-anchor="middle" x="24.5" y="-83.5" font-family="Helvetica,sans-Serif" font-size="10.00">rdcurve</text>
</a>
</g>
</g>
<!-- Node2 -->
<g id="node2" class="node">
<title>Node2</title>
<g id="a_node2"><a xlink:href="math_8f.html#a692155d1d2ec380a9fdb2d81ef221625" target="_top" xlink:title=" ">
<polygon fill="white" stroke="black" points="85,-152.5 85,-171.5 125,-171.5 125,-152.5 85,-152.5"/>
<text text-anchor="middle" x="105" y="-159.5" font-family="Helvetica,sans-Serif" font-size="10.00">blank</text>
</a>
</g>
</g>
<!-- Node1&#45;&gt;Node2 -->
<g id="edge1" class="edge">
<title>Node1&#45;&gt;Node2</title>
<path fill="none" stroke="midnightblue" d="M35.44,-95.63C48.3,-108.07 70.91,-129.96 86.63,-145.19"/>
<polygon fill="midnightblue" stroke="midnightblue" points="84.52,-148.01 94.14,-152.45 89.39,-142.98 84.52,-148.01"/>
</g>
<!-- Node3 -->
<g id="node3" class="node">
<title>Node3</title>
<g id="a_node3"><a xlink:href="byte_8c.html#a2da8eeb074dfd3ffbfb3e9a4d301cda4" target="_top" xlink:title=" ">
<polygon fill="white" stroke="black" points="87.5,-114.5 87.5,-133.5 122.5,-133.5 122.5,-114.5 87.5,-114.5"/>
<text text-anchor="middle" x="105" y="-121.5" font-family="Helvetica,sans-Serif" font-size="10.00">exitt</text>
</a>
</g>
</g>
<!-- Node1&#45;&gt;Node3 -->
<g id="edge2" class="edge">
<title>Node1&#45;&gt;Node3</title>
<path fill="none" stroke="midnightblue" d="M45.31,-95.59C55.25,-100.4 67.43,-106.3 78.1,-111.46"/>
<polygon fill="midnightblue" stroke="midnightblue" points="76.86,-114.75 87.38,-115.96 79.91,-108.45 76.86,-114.75"/>
</g>
<!-- Node6 -->
<g id="node6" class="node">
<title>Node6</title>
<g id="a_node6"><a xlink:href="dprocmap_8f.html#a90fd349db1c16c4cb8108485b3c200e0" target="_top" xlink:title=" ">
<polygon fill="white" stroke="black" points="88,-76.5 88,-95.5 122,-95.5 122,-76.5 88,-76.5"/>
<text text-anchor="middle" x="105" y="-83.5" font-family="Helvetica,sans-Serif" font-size="10.00">gllel</text>
</a>
</g>
</g>
<!-- Node1&#45;&gt;Node6 -->
<g id="edge5" class="edge">
<title>Node1&#45;&gt;Node6</title>
<path fill="none" stroke="midnightblue" d="M49.05,-86C58.01,-86 68.28,-86 77.49,-86"/>
<polygon fill="midnightblue" stroke="midnightblue" points="77.68,-89.5 87.68,-86 77.68,-82.5 77.68,-89.5"/>
</g>
<!-- Node15 -->
<g id="node9" class="node">
<title>Node15</title>
<g id="a_node9"><a xlink:href="dprocmap_8f.html#aa8f8117aad966b2c1f877b334d9d407b" target="_top" xlink:title=" ">
<polygon fill="white" stroke="black" points="85.5,-38.5 85.5,-57.5 124.5,-57.5 124.5,-38.5 85.5,-38.5"/>
<text text-anchor="middle" x="105" y="-45.5" font-family="Helvetica,sans-Serif" font-size="10.00">gllnid</text>
</a>
</g>
</g>
<!-- Node1&#45;&gt;Node15 -->
<g id="edge8" class="edge">
<title>Node1&#45;&gt;Node15</title>
<path fill="none" stroke="midnightblue" d="M45.31,-76.41C54.6,-71.91 65.84,-66.47 75.99,-61.56"/>
<polygon fill="midnightblue" stroke="midnightblue" points="77.8,-64.57 85.28,-57.06 74.75,-58.27 77.8,-64.57"/>
</g>
<!-- Node16 -->
<g id="node10" class="node">
<title>Node16</title>
<g id="a_node10"><a xlink:href="math_8f.html#af44de42b023a4a68cd98ea341204342d" target="_top" xlink:title=" ">
<polygon fill="white" stroke="black" points="86,-0.5 86,-19.5 124,-19.5 124,-0.5 86,-0.5"/>
<text text-anchor="middle" x="105" y="-7.5" font-family="Helvetica,sans-Serif" font-size="10.00">rzero</text>
</a>
</g>
</g>
<!-- Node1&#45;&gt;Node16 -->
<g id="edge10" class="edge">
<title>Node1&#45;&gt;Node16</title>
<path fill="none" stroke="midnightblue" d="M35.44,-76.37C48.3,-63.93 70.91,-42.04 86.63,-26.81"/>
<polygon fill="midnightblue" stroke="midnightblue" points="89.39,-29.02 94.14,-19.55 84.52,-23.99 89.39,-29.02"/>
</g>
<!-- Node4 -->
<g id="node4" class="node">
<title>Node4</title>
<g id="a_node4"><a xlink:href="comm__mpi_8f.html#acc8803a3787828530843112e0c48941b" target="_top" xlink:title=" ">
<polygon fill="white" stroke="black" points="172.5,-114.5 172.5,-133.5 222.5,-133.5 222.5,-114.5 172.5,-114.5"/>
<text text-anchor="middle" x="197.5" y="-121.5" font-family="Helvetica,sans-Serif" font-size="10.00">nek_die</text>
</a>
</g>
</g>
<!-- Node3&#45;&gt;Node4 -->
<g id="edge3" class="edge">
<title>Node3&#45;&gt;Node4</title>
<path fill="none" stroke="midnightblue" d="M122.6,-124C133.66,-124 148.6,-124 162.15,-124"/>
<polygon fill="midnightblue" stroke="midnightblue" points="162.16,-127.5 172.16,-124 162.16,-120.5 162.16,-127.5"/>
</g>
<!-- Node5 -->
<g id="node5" class="node">
<title>Node5</title>
<g id="a_node5"><a xlink:href="mpi__dummy_8f.html#a55e9a1619aadb638b14211ce21d7d566" target="_top" xlink:title=" ">
<polygon fill="white" stroke="black" points="273.5,-114.5 273.5,-133.5 341.5,-133.5 341.5,-114.5 273.5,-114.5"/>
<text text-anchor="middle" x="307.5" y="-121.5" font-family="Helvetica,sans-Serif" font-size="10.00">mpi_finalize</text>
</a>
</g>
</g>
<!-- Node4&#45;&gt;Node5 -->
<g id="edge4" class="edge">
<title>Node4&#45;&gt;Node5</title>
<path fill="none" stroke="midnightblue" d="M222.74,-124C234.63,-124 249.33,-124 263.07,-124"/>
<polygon fill="midnightblue" stroke="midnightblue" points="263.33,-127.5 273.33,-124 263.33,-120.5 263.33,-127.5"/>
</g>
<!-- Node7 -->
<g id="node7" class="node">
<title>Node7</title>
<g id="a_node7"><a xlink:href="dprocmap_8f.html#a311a5a8d89b7f42b1f539390ad6b2fb0" target="_top" xlink:title=" ">
<polygon fill="white" stroke="red" points="161,-57.5 161,-76.5 234,-76.5 234,-57.5 161,-57.5"/>
<text text-anchor="middle" x="197.5" y="-64.5" font-family="Helvetica,sans-Serif" font-size="10.00">dprocmapget</text>
</a>
</g>
</g>
<!-- Node6&#45;&gt;Node7 -->
<g id="edge6" class="edge">
<title>Node6&#45;&gt;Node7</title>
<path fill="none" stroke="midnightblue" d="M122.18,-82.6C130.35,-80.89 140.71,-78.71 151.08,-76.54"/>
<polygon fill="midnightblue" stroke="midnightblue" points="151.89,-79.94 160.96,-74.46 150.45,-73.09 151.89,-79.94"/>
</g>
<!-- Node8 -->
<g id="node8" class="node">
<title>Node8</title>
<g id="a_node8"><a xlink:href="dprocmap_8f.html#a6a1e00e712d066b755283763aae0e73b" target="_top" xlink:title=" ">
<polygon fill="white" stroke="black" points="270,-57.5 270,-76.5 345,-76.5 345,-57.5 270,-57.5"/>
<text text-anchor="middle" x="307.5" y="-64.5" font-family="Helvetica,sans-Serif" font-size="10.00">dprocmapfind</text>
</a>
</g>
</g>
<!-- Node7&#45;&gt;Node8 -->
<g id="edge7" class="edge">
<title>Node7&#45;&gt;Node8</title>
<path fill="none" stroke="midnightblue" d="M234.16,-67C242.29,-67 251.04,-67 259.56,-67"/>
<polygon fill="midnightblue" stroke="midnightblue" points="259.77,-70.5 269.77,-67 259.77,-63.5 259.77,-70.5"/>
</g>
<!-- Node15&#45;&gt;Node7 -->
<g id="edge9" class="edge">
<title>Node15&#45;&gt;Node7</title>
<path fill="none" stroke="midnightblue" d="M124.75,-51.94C132.43,-53.55 141.68,-55.49 150.95,-57.44"/>
<polygon fill="midnightblue" stroke="midnightblue" points="150.44,-60.91 160.95,-59.54 151.88,-54.06 150.44,-60.91"/>
</g>
</g>
</svg>
