<?xml version="1.0" encoding="UTF-8" standalone="no"?>
<!DOCTYPE svg PUBLIC "-//W3C//DTD SVG 1.1//EN"
 "http://www.w3.org/Graphics/SVG/1.1/DTD/svg11.dtd">
<!-- Generated by graphviz version 2.46.0 (0)
 -->
<!-- Title: buf_close_out Pages: 1 -->
<svg width="658pt" height="47pt"
 viewBox="0.00 0.00 658.00 47.00" xmlns="http://www.w3.org/2000/svg" xmlns:xlink="http://www.w3.org/1999/xlink">
<g id="graph0" class="graph" transform="scale(1 1) rotate(0) translate(4 43)">
<title>buf_close_out</title>
<polygon fill="white" stroke="transparent" points="-4,4 -4,-43 654,-43 654,4 -4,4"/>
<!-- Node1 -->
<g id="node1" class="node">
<title>Node1</title>
<g id="a_node1"><a xlink:title=" ">
<polygon fill="#bfbfbf" stroke="black" points="573,-19.5 573,-38.5 650,-38.5 650,-19.5 573,-19.5"/>
<text text-anchor="middle" x="611.5" y="-26.5" font-family="Helvetica,sans-Serif" font-size="10.00">buf_close_out</text>
</a>
</g>
</g>
<!-- Node2 -->
<g id="node2" class="node">
<title>Node2</title>
<g id="a_node2"><a xlink:href="reader__re2_8f.html#a02a2663bd073292a0684da670c1bb250" target="_top" xlink:title=" ">
<polygon fill="white" stroke="black" points="460,-19.5 460,-38.5 537,-38.5 537,-19.5 460,-19.5"/>
<text text-anchor="middle" x="498.5" y="-26.5" font-family="Helvetica,sans-Serif" font-size="10.00">bin_rd1_curve</text>
</a>
</g>
</g>
<!-- Node1&#45;&gt;Node2 -->
<g id="edge1" class="edge">
<title>Node1&#45;&gt;Node2</title>
<path fill="none" stroke="midnightblue" d="M562.65,-29C554.08,-29 545.27,-29 537.04,-29"/>
<polygon fill="midnightblue" stroke="midnightblue" points="562.92,-32.5 572.92,-29 562.92,-25.5 562.92,-32.5"/>
</g>
<!-- Node3 -->
<g id="node3" class="node">
<title>Node3</title>
<g id="a_node3"><a xlink:href="reader__re2_8f.html#afebb243824e6845e99b2f86817b84a71" target="_top" xlink:title=" ">
<polygon fill="white" stroke="black" points="346,-19.5 346,-38.5 424,-38.5 424,-19.5 346,-19.5"/>
<text text-anchor="middle" x="385" y="-26.5" font-family="Helvetica,sans-Serif" font-size="10.00">read_re2_data</text>
</a>
</g>
</g>
<!-- Node2&#45;&gt;Node3 -->
<g id="edge2" class="edge">
<title>Node2&#45;&gt;Node3</title>
<path fill="none" stroke="midnightblue" d="M449.55,-29C441.04,-29 432.28,-29 424.09,-29"/>
<polygon fill="midnightblue" stroke="midnightblue" points="449.75,-32.5 459.75,-29 449.75,-25.5 449.75,-32.5"/>
</g>
<!-- Node4 -->
<g id="node4" class="node">
<title>Node4</title>
<g id="a_node4"><a xlink:href="connect2_8f.html#a909eeac6dfc8f61a1c9d637c53cc970d" target="_top" xlink:title=" ">
<polygon fill="white" stroke="black" points="168,-19.5 168,-38.5 212,-38.5 212,-19.5 168,-19.5"/>
<text text-anchor="middle" x="190" y="-26.5" font-family="Helvetica,sans-Serif" font-size="10.00">readat</text>
</a>
</g>
</g>
<!-- Node3&#45;&gt;Node4 -->
<g id="edge3" class="edge">
<title>Node3&#45;&gt;Node4</title>
<path fill="none" stroke="midnightblue" d="M335.85,-29C296.09,-29 241.57,-29 212.05,-29"/>
<polygon fill="midnightblue" stroke="midnightblue" points="335.87,-32.5 345.87,-29 335.87,-25.5 335.87,-32.5"/>
</g>
<!-- Node7 -->
<g id="node7" class="node">
<title>Node7</title>
<g id="a_node7"><a xlink:href="reader__par_8f.html#a69b75d22fcf18a6c1038825b9f53bdb8" target="_top" xlink:title=" ">
<polygon fill="white" stroke="black" points="248,-0.5 248,-19.5 310,-19.5 310,-0.5 248,-0.5"/>
<text text-anchor="middle" x="279" y="-7.5" font-family="Helvetica,sans-Serif" font-size="10.00">readat_par</text>
</a>
</g>
</g>
<!-- Node3&#45;&gt;Node7 -->
<g id="edge6" class="edge">
<title>Node3&#45;&gt;Node7</title>
<path fill="none" stroke="midnightblue" d="M335.8,-20.19C327.13,-18.61 318.31,-17 310.32,-15.54"/>
<polygon fill="midnightblue" stroke="midnightblue" points="335.4,-23.68 345.86,-22.03 336.66,-16.79 335.4,-23.68"/>
</g>
<!-- Node5 -->
<g id="node5" class="node">
<title>Node5</title>
<g id="a_node5"><a xlink:href="drive1_8f.html#a83f7c6d78ac4e68394f32533e847d0a3" target="_top" xlink:title=" ">
<polygon fill="white" stroke="black" points="82,-19.5 82,-38.5 132,-38.5 132,-19.5 82,-19.5"/>
<text text-anchor="middle" x="107" y="-26.5" font-family="Helvetica,sans-Serif" font-size="10.00">nek_init</text>
</a>
</g>
</g>
<!-- Node4&#45;&gt;Node5 -->
<g id="edge4" class="edge">
<title>Node4&#45;&gt;Node5</title>
<path fill="none" stroke="midnightblue" d="M157.51,-29C149.14,-29 140.22,-29 132.29,-29"/>
<polygon fill="midnightblue" stroke="midnightblue" points="157.72,-32.5 167.72,-29 157.72,-25.5 157.72,-32.5"/>
</g>
<!-- Node6 -->
<g id="node6" class="node">
<title>Node6</title>
<g id="a_node6"><a xlink:href="drive_8f.html#a13048bf28dd0734640412d69349e3857" target="_top" xlink:title=" ">
<polygon fill="white" stroke="black" points="0,-19.5 0,-38.5 46,-38.5 46,-19.5 0,-19.5"/>
<text text-anchor="middle" x="23" y="-26.5" font-family="Helvetica,sans-Serif" font-size="10.00">nekton</text>
</a>
</g>
</g>
<!-- Node5&#45;&gt;Node6 -->
<g id="edge5" class="edge">
<title>Node5&#45;&gt;Node6</title>
<path fill="none" stroke="midnightblue" d="M71.59,-29C62.94,-29 53.89,-29 46.03,-29"/>
<polygon fill="midnightblue" stroke="midnightblue" points="71.84,-32.5 81.84,-29 71.84,-25.5 71.84,-32.5"/>
</g>
<!-- Node7&#45;&gt;Node4 -->
<g id="edge7" class="edge">
<title>Node7&#45;&gt;Node4</title>
<path fill="none" stroke="midnightblue" d="M237.77,-18.79C228.96,-20.71 219.96,-22.68 212.24,-24.36"/>
<polygon fill="midnightblue" stroke="midnightblue" points="238.55,-22.2 247.57,-16.65 237.06,-15.36 238.55,-22.2"/>
</g>
</g>
</svg>
