<?xml version="1.0" encoding="UTF-8" standalone="no"?>
<!DOCTYPE svg PUBLIC "-//W3C//DTD SVG 1.1//EN"
 "http://www.w3.org/Graphics/SVG/1.1/DTD/svg11.dtd">
<!-- Generated by graphviz version 2.46.0 (0)
 -->
<!-- Title: rdmesh Pages: 1 -->
<svg width="613pt" height="133pt"
 viewBox="0.00 0.00 613.00 133.33" xmlns="http://www.w3.org/2000/svg" xmlns:xlink="http://www.w3.org/1999/xlink">
<g id="graph0" class="graph" transform="scale(1 1) rotate(0) translate(4 129.33)">
<title>rdmesh</title>
<polygon fill="white" stroke="transparent" points="-4,4 -4,-129.33 609,-129.33 609,4 -4,4"/>
<!-- Node1 -->
<g id="node1" class="node">
<title>Node1</title>
<g id="a_node1"><a xlink:title=" ">
<polygon fill="#bfbfbf" stroke="black" points="0,-57.5 0,-76.5 49,-76.5 49,-57.5 0,-57.5"/>
<text text-anchor="middle" x="24.5" y="-64.5" font-family="Helvetica,sans-Serif" font-size="10.00">rdmesh</text>
</a>
</g>
</g>
<!-- Node2 -->
<g id="node2" class="node">
<title>Node2</title>
<g id="a_node2"><a xlink:href="byte_8c.html#a2da8eeb074dfd3ffbfb3e9a4d301cda4" target="_top" xlink:title=" ">
<polygon fill="white" stroke="black" points="380,-76.5 380,-95.5 415,-95.5 415,-76.5 380,-76.5"/>
<text text-anchor="middle" x="397.5" y="-83.5" font-family="Helvetica,sans-Serif" font-size="10.00">exitt</text>
</a>
</g>
</g>
<!-- Node1&#45;&gt;Node2 -->
<g id="edge1" class="edge">
<title>Node1&#45;&gt;Node2</title>
<path fill="none" stroke="midnightblue" d="M36.38,-76.7C47.64,-86.03 66.18,-99.5 85,-105 195.49,-137.27 230.62,-124.89 344,-105 352.82,-103.45 362.12,-100.55 370.4,-97.46"/>
<polygon fill="midnightblue" stroke="midnightblue" points="371.88,-100.64 379.89,-93.7 369.3,-94.13 371.88,-100.64"/>
</g>
<!-- Node5 -->
<g id="node5" class="node">
<title>Node5</title>
<g id="a_node5"><a xlink:href="dprocmap_8f.html#a90fd349db1c16c4cb8108485b3c200e0" target="_top" xlink:title=" ">
<polygon fill="white" stroke="black" points="87.5,-76.5 87.5,-95.5 121.5,-95.5 121.5,-76.5 87.5,-76.5"/>
<text text-anchor="middle" x="104.5" y="-83.5" font-family="Helvetica,sans-Serif" font-size="10.00">gllel</text>
</a>
</g>
</g>
<!-- Node1&#45;&gt;Node5 -->
<g id="edge4" class="edge">
<title>Node1&#45;&gt;Node5</title>
<path fill="none" stroke="midnightblue" d="M49.33,-72.8C58.31,-74.99 68.57,-77.49 77.72,-79.72"/>
<polygon fill="midnightblue" stroke="midnightblue" points="76.92,-83.13 87.46,-82.09 78.57,-76.33 76.92,-83.13"/>
</g>
<!-- Node15 -->
<g id="node9" class="node">
<title>Node15</title>
<g id="a_node9"><a xlink:href="dprocmap_8f.html#aa8f8117aad966b2c1f877b334d9d407b" target="_top" xlink:title=" ">
<polygon fill="white" stroke="black" points="85,-38.5 85,-57.5 124,-57.5 124,-38.5 85,-38.5"/>
<text text-anchor="middle" x="104.5" y="-45.5" font-family="Helvetica,sans-Serif" font-size="10.00">gllnid</text>
</a>
</g>
</g>
<!-- Node1&#45;&gt;Node15 -->
<g id="edge9" class="edge">
<title>Node1&#45;&gt;Node15</title>
<path fill="none" stroke="midnightblue" d="M49.33,-61.2C57.42,-59.23 66.54,-57 74.96,-54.95"/>
<polygon fill="midnightblue" stroke="midnightblue" points="75.88,-58.33 84.76,-52.56 74.22,-51.53 75.88,-58.33"/>
</g>
<!-- Node16 -->
<g id="node10" class="node">
<title>Node16</title>
<g id="a_node10"><a xlink:href="math_8f.html#af44de42b023a4a68cd98ea341204342d" target="_top" xlink:title=" ">
<polygon fill="white" stroke="black" points="85.5,-0.5 85.5,-19.5 123.5,-19.5 123.5,-0.5 85.5,-0.5"/>
<text text-anchor="middle" x="104.5" y="-7.5" font-family="Helvetica,sans-Serif" font-size="10.00">rzero</text>
</a>
</g>
</g>
<!-- Node1&#45;&gt;Node16 -->
<g id="edge11" class="edge">
<title>Node1&#45;&gt;Node16</title>
<path fill="none" stroke="midnightblue" d="M38.73,-57.33C50.68,-48.6 68.47,-35.6 82.39,-25.43"/>
<polygon fill="midnightblue" stroke="midnightblue" points="84.45,-28.25 90.46,-19.53 80.32,-22.6 84.45,-28.25"/>
</g>
<!-- Node3 -->
<g id="node3" class="node">
<title>Node3</title>
<g id="a_node3"><a xlink:href="comm__mpi_8f.html#acc8803a3787828530843112e0c48941b" target="_top" xlink:title=" ">
<polygon fill="white" stroke="black" points="451,-76.5 451,-95.5 501,-95.5 501,-76.5 451,-76.5"/>
<text text-anchor="middle" x="476" y="-83.5" font-family="Helvetica,sans-Serif" font-size="10.00">nek_die</text>
</a>
</g>
</g>
<!-- Node2&#45;&gt;Node3 -->
<g id="edge2" class="edge">
<title>Node2&#45;&gt;Node3</title>
<path fill="none" stroke="midnightblue" d="M415.1,-86C422.62,-86 431.8,-86 440.69,-86"/>
<polygon fill="midnightblue" stroke="midnightblue" points="440.88,-89.5 450.88,-86 440.88,-82.5 440.88,-89.5"/>
</g>
<!-- Node4 -->
<g id="node4" class="node">
<title>Node4</title>
<g id="a_node4"><a xlink:href="mpi__dummy_8f.html#a55e9a1619aadb638b14211ce21d7d566" target="_top" xlink:title=" ">
<polygon fill="white" stroke="black" points="537,-76.5 537,-95.5 605,-95.5 605,-76.5 537,-76.5"/>
<text text-anchor="middle" x="571" y="-83.5" font-family="Helvetica,sans-Serif" font-size="10.00">mpi_finalize</text>
</a>
</g>
</g>
<!-- Node3&#45;&gt;Node4 -->
<g id="edge3" class="edge">
<title>Node3&#45;&gt;Node4</title>
<path fill="none" stroke="midnightblue" d="M501.43,-86C509.25,-86 518.14,-86 526.88,-86"/>
<polygon fill="midnightblue" stroke="midnightblue" points="526.99,-89.5 536.99,-86 526.99,-82.5 526.99,-89.5"/>
</g>
<!-- Node6 -->
<g id="node6" class="node">
<title>Node6</title>
<g id="a_node6"><a xlink:href="dprocmap_8f.html#a311a5a8d89b7f42b1f539390ad6b2fb0" target="_top" xlink:title=" ">
<polygon fill="white" stroke="red" points="160,-57.5 160,-76.5 233,-76.5 233,-57.5 160,-57.5"/>
<text text-anchor="middle" x="196.5" y="-64.5" font-family="Helvetica,sans-Serif" font-size="10.00">dprocmapget</text>
</a>
</g>
</g>
<!-- Node5&#45;&gt;Node6 -->
<g id="edge5" class="edge">
<title>Node5&#45;&gt;Node6</title>
<path fill="none" stroke="midnightblue" d="M121.59,-82.6C129.55,-80.92 139.61,-78.8 149.72,-76.66"/>
<polygon fill="midnightblue" stroke="midnightblue" points="150.71,-80.03 159.77,-74.54 149.27,-73.18 150.71,-80.03"/>
</g>
<!-- Node7 -->
<g id="node7" class="node">
<title>Node7</title>
<g id="a_node7"><a xlink:href="dprocmap_8f.html#a6a1e00e712d066b755283763aae0e73b" target="_top" xlink:title=" ">
<polygon fill="white" stroke="black" points="269,-76.5 269,-95.5 344,-95.5 344,-76.5 269,-76.5"/>
<text text-anchor="middle" x="306.5" y="-83.5" font-family="Helvetica,sans-Serif" font-size="10.00">dprocmapfind</text>
</a>
</g>
</g>
<!-- Node6&#45;&gt;Node7 -->
<g id="edge6" class="edge">
<title>Node6&#45;&gt;Node7</title>
<path fill="none" stroke="midnightblue" d="M233.16,-73.27C241.38,-74.72 250.23,-76.28 258.84,-77.79"/>
<polygon fill="midnightblue" stroke="midnightblue" points="258.31,-81.25 268.77,-79.54 259.52,-74.36 258.31,-81.25"/>
</g>
<!-- Node8 -->
<g id="node8" class="node">
<title>Node8</title>
<g id="a_node8"><a xlink:href="comm__mpi_8f.html#a59fcf8a02fe54ab37f61050e3ca6b197" target="_top" xlink:title=" ">
<polygon fill="white" stroke="red" points="287.5,-38.5 287.5,-57.5 325.5,-57.5 325.5,-38.5 287.5,-38.5"/>
<text text-anchor="middle" x="306.5" y="-45.5" font-family="Helvetica,sans-Serif" font-size="10.00">exitti</text>
</a>
</g>
</g>
<!-- Node6&#45;&gt;Node8 -->
<g id="edge7" class="edge">
<title>Node6&#45;&gt;Node8</title>
<path fill="none" stroke="midnightblue" d="M233.16,-60.73C247.51,-58.2 263.82,-55.33 277.32,-52.96"/>
<polygon fill="midnightblue" stroke="midnightblue" points="278.21,-56.36 287.45,-51.18 276.99,-49.46 278.21,-56.36"/>
</g>
<!-- Node8&#45;&gt;Node2 -->
<g id="edge8" class="edge">
<title>Node8&#45;&gt;Node2</title>
<path fill="none" stroke="midnightblue" d="M325.51,-55.69C338.39,-61.19 355.91,-68.67 370.33,-74.83"/>
<polygon fill="midnightblue" stroke="midnightblue" points="369.15,-78.13 379.72,-78.84 371.9,-71.69 369.15,-78.13"/>
</g>
<!-- Node15&#45;&gt;Node6 -->
<g id="edge10" class="edge">
<title>Node15&#45;&gt;Node6</title>
<path fill="none" stroke="midnightblue" d="M124.15,-51.94C131.71,-53.53 140.81,-55.45 149.93,-57.38"/>
<polygon fill="midnightblue" stroke="midnightblue" points="149.27,-60.82 159.78,-59.46 150.71,-53.97 149.27,-60.82"/>
</g>
</g>
</svg>
