<?xml version="1.0" encoding="UTF-8" standalone="no"?>
<!DOCTYPE svg PUBLIC "-//W3C//DTD SVG 1.1//EN"
 "http://www.w3.org/Graphics/SVG/1.1/DTD/svg11.dtd">
<!-- Generated by graphviz version 2.46.0 (0)
 -->
<!-- Title: readp_re2_curve Pages: 1 -->
<svg width="301pt" height="317pt"
 viewBox="0.00 0.00 301.00 317.19" xmlns="http://www.w3.org/2000/svg" xmlns:xlink="http://www.w3.org/1999/xlink">
<g id="graph0" class="graph" transform="scale(1 1) rotate(0) translate(4 313.19)">
<title>readp_re2_curve</title>
<polygon fill="white" stroke="transparent" points="-4,4 -4,-313.19 297,-313.19 297,4 -4,4"/>
<!-- Node1 -->
<g id="node1" class="node">
<title>Node1</title>
<g id="a_node1"><a xlink:title=" ">
<polygon fill="#bfbfbf" stroke="black" points="0,-152.5 0,-171.5 89,-171.5 89,-152.5 0,-152.5"/>
<text text-anchor="middle" x="44.5" y="-159.5" font-family="Helvetica,sans-Serif" font-size="10.00">readp_re2_curve</text>
</a>
</g>
</g>
<!-- Node2 -->
<g id="node2" class="node">
<title>Node2</title>
<g id="a_node2"><a xlink:href="reader__re2_8f.html#a637876278ed588a2f4d0c595ec4ea32c" target="_top" xlink:title=" ">
<polygon fill="white" stroke="red" points="132,-266.5 132,-285.5 205,-285.5 205,-266.5 132,-266.5"/>
<text text-anchor="middle" x="168.5" y="-273.5" font-family="Helvetica,sans-Serif" font-size="10.00">buf_to_curve</text>
</a>
</g>
</g>
<!-- Node1&#45;&gt;Node2 -->
<g id="edge1" class="edge">
<title>Node1&#45;&gt;Node2</title>
<path fill="none" stroke="midnightblue" d="M52.29,-171.61C65.03,-189.18 94.05,-226.94 125,-252 129.09,-255.31 133.7,-258.43 138.34,-261.26"/>
<polygon fill="midnightblue" stroke="midnightblue" points="136.74,-264.37 147.16,-266.3 140.21,-258.3 136.74,-264.37"/>
</g>
<!-- Node4 -->
<g id="node3" class="node">
<title>Node4</title>
<g id="a_node3"><a xlink:href="math_8f.html#a3b43508554f14bdea8e14473d7d0803c" target="_top" xlink:title=" ">
<polygon fill="white" stroke="black" points="251.5,-285.5 251.5,-304.5 289.5,-304.5 289.5,-285.5 251.5,-285.5"/>
<text text-anchor="middle" x="270.5" y="-292.5" font-family="Helvetica,sans-Serif" font-size="10.00">copy</text>
</a>
</g>
</g>
<!-- Node1&#45;&gt;Node4 -->
<g id="edge6" class="edge">
<title>Node1&#45;&gt;Node4</title>
<path fill="none" stroke="midnightblue" d="M47.8,-171.73C54.48,-197.52 76.57,-267.52 125,-295 160.91,-315.37 210.38,-309.55 241.13,-302.79"/>
<polygon fill="midnightblue" stroke="midnightblue" points="242.25,-306.12 251.17,-300.4 240.63,-299.31 242.25,-306.12"/>
</g>
<!-- Node6 -->
<g id="node4" class="node">
<title>Node6</title>
<g id="a_node4"><a xlink:href="math_8f.html#a26622755cad7162eab6e767526a9445d" target="_top" xlink:title=" ">
<polygon fill="white" stroke="black" points="248,-247.5 248,-266.5 293,-266.5 293,-247.5 248,-247.5"/>
<text text-anchor="middle" x="270.5" y="-254.5" font-family="Helvetica,sans-Serif" font-size="10.00">copyi4</text>
</a>
</g>
</g>
<!-- Node1&#45;&gt;Node6 -->
<g id="edge7" class="edge">
<title>Node1&#45;&gt;Node6</title>
<path fill="none" stroke="midnightblue" d="M56.26,-171.71C70.83,-184.36 98.11,-206.35 125,-219 161.85,-236.33 207.85,-246.7 237.91,-252.12"/>
<polygon fill="midnightblue" stroke="midnightblue" points="237.39,-255.58 247.84,-253.84 238.58,-248.69 237.39,-255.58"/>
</g>
<!-- Node19 -->
<g id="node5" class="node">
<title>Node19</title>
<g id="a_node5"><a xlink:href="byte__mpi_8f.html#a91adf5e8a4faef0ead93d4cd48e4ab00" target="_top" xlink:title=" ">
<polygon fill="white" stroke="red" points="128.5,-190.5 128.5,-209.5 208.5,-209.5 208.5,-190.5 128.5,-190.5"/>
<text text-anchor="middle" x="168.5" y="-197.5" font-family="Helvetica,sans-Serif" font-size="10.00">byte_read_mpi</text>
</a>
</g>
</g>
<!-- Node1&#45;&gt;Node19 -->
<g id="edge4" class="edge">
<title>Node1&#45;&gt;Node19</title>
<path fill="none" stroke="midnightblue" d="M76.29,-171.59C91.6,-176.36 110.32,-182.19 126.8,-187.32"/>
<polygon fill="midnightblue" stroke="midnightblue" points="126.14,-190.78 136.72,-190.41 128.22,-184.1 126.14,-190.78"/>
</g>
<!-- Node20 -->
<g id="node6" class="node">
<title>Node20</title>
<g id="a_node6"><a xlink:href="byte__mpi_8f.html#ad62e65c087d45367b00222a7b05890eb" target="_top" xlink:title=" ">
<polygon fill="white" stroke="red" points="128.5,-152.5 128.5,-171.5 208.5,-171.5 208.5,-152.5 128.5,-152.5"/>
<text text-anchor="middle" x="168.5" y="-159.5" font-family="Helvetica,sans-Serif" font-size="10.00">byte_set_view</text>
</a>
</g>
</g>
<!-- Node1&#45;&gt;Node20 -->
<g id="edge5" class="edge">
<title>Node1&#45;&gt;Node20</title>
<path fill="none" stroke="midnightblue" d="M89.2,-162C98.54,-162 108.47,-162 118.01,-162"/>
<polygon fill="midnightblue" stroke="midnightblue" points="118.16,-165.5 128.16,-162 118.16,-158.5 118.16,-165.5"/>
</g>
<!-- Node21 -->
<g id="node7" class="node">
<title>Node21</title>
<g id="a_node7"><a xlink:href="comm__mpi_8f.html#ae6a06eb6f47a6153825afb25e6cc49c7" target="_top" xlink:title=" ">
<polygon fill="white" stroke="red" points="144,-114.5 144,-133.5 193,-133.5 193,-114.5 144,-114.5"/>
<text text-anchor="middle" x="168.5" y="-121.5" font-family="Helvetica,sans-Serif" font-size="10.00">err_chk</text>
</a>
</g>
</g>
<!-- Node1&#45;&gt;Node21 -->
<g id="edge8" class="edge">
<title>Node1&#45;&gt;Node21</title>
<path fill="none" stroke="midnightblue" d="M76.29,-152.41C93.92,-146.92 116.05,-140.03 134.1,-134.4"/>
<polygon fill="midnightblue" stroke="midnightblue" points="135.14,-137.74 143.65,-131.43 133.06,-131.06 135.14,-137.74"/>
</g>
<!-- Node25 -->
<g id="node8" class="node">
<title>Node25</title>
<g id="a_node8"><a xlink:href="dprocmap_8f.html#aa8f8117aad966b2c1f877b334d9d407b" target="_top" xlink:title=" ">
<polygon fill="white" stroke="red" points="149,-76.5 149,-95.5 188,-95.5 188,-76.5 149,-76.5"/>
<text text-anchor="middle" x="168.5" y="-83.5" font-family="Helvetica,sans-Serif" font-size="10.00">gllnid</text>
</a>
</g>
</g>
<!-- Node1&#45;&gt;Node25 -->
<g id="edge9" class="edge">
<title>Node1&#45;&gt;Node25</title>
<path fill="none" stroke="midnightblue" d="M57.38,-152.31C72.49,-140.28 99.67,-119.55 125,-105 129.61,-102.35 134.66,-99.81 139.62,-97.49"/>
<polygon fill="midnightblue" stroke="midnightblue" points="141.2,-100.62 148.9,-93.35 138.34,-94.23 141.2,-100.62"/>
</g>
<!-- Node16 -->
<g id="node9" class="node">
<title>Node16</title>
<g id="a_node9"><a xlink:href="math_8f.html#a1e85d2406444243269f0d85c61a02dce" target="_top" xlink:title=" ">
<polygon fill="white" stroke="black" points="148.5,-38.5 148.5,-57.5 188.5,-57.5 188.5,-38.5 148.5,-38.5"/>
<text text-anchor="middle" x="168.5" y="-45.5" font-family="Helvetica,sans-Serif" font-size="10.00">icopy</text>
</a>
</g>
</g>
<!-- Node1&#45;&gt;Node16 -->
<g id="edge10" class="edge">
<title>Node1&#45;&gt;Node16</title>
<path fill="none" stroke="midnightblue" d="M51.37,-152.41C63.22,-133.74 91.72,-92.16 125,-67 129.24,-63.79 134.11,-60.98 139.01,-58.57"/>
<polygon fill="midnightblue" stroke="midnightblue" points="140.58,-61.7 148.29,-54.43 137.73,-55.3 140.58,-61.7"/>
</g>
<!-- Node26 -->
<g id="node10" class="node">
<title>Node26</title>
<g id="a_node10"><a xlink:href="comm__mpi_8f.html#a1dc8c1bc7e3a04d6080d70922c6ad5be" target="_top" xlink:title=" ">
<polygon fill="white" stroke="red" points="125,-0.5 125,-19.5 212,-19.5 212,-0.5 125,-0.5"/>
<text text-anchor="middle" x="168.5" y="-7.5" font-family="Helvetica,sans-Serif" font-size="10.00">igl_running_sum</text>
</a>
</g>
</g>
<!-- Node1&#45;&gt;Node26 -->
<g id="edge11" class="edge">
<title>Node1&#45;&gt;Node26</title>
<path fill="none" stroke="midnightblue" d="M48.93,-152.28C57.85,-128.26 83.97,-65.44 125,-29 126.72,-27.47 128.58,-26.05 130.53,-24.73"/>
<polygon fill="midnightblue" stroke="midnightblue" points="132.58,-27.59 139.49,-19.57 129.08,-21.53 132.58,-27.59"/>
</g>
<!-- Node2&#45;&gt;Node4 -->
<g id="edge2" class="edge">
<title>Node2&#45;&gt;Node4</title>
<path fill="none" stroke="midnightblue" d="M205.04,-282.75C216.95,-285.02 230.06,-287.51 241.33,-289.65"/>
<polygon fill="midnightblue" stroke="midnightblue" points="240.99,-293.15 251.47,-291.57 242.3,-286.27 240.99,-293.15"/>
</g>
<!-- Node2&#45;&gt;Node6 -->
<g id="edge3" class="edge">
<title>Node2&#45;&gt;Node6</title>
<path fill="none" stroke="midnightblue" d="M205.04,-269.25C215.73,-267.22 227.39,-265 237.82,-263.02"/>
<polygon fill="midnightblue" stroke="midnightblue" points="238.58,-266.44 247.75,-261.13 237.28,-259.56 238.58,-266.44"/>
</g>
</g>
</svg>
