<?xml version="1.0" encoding="UTF-8" standalone="no"?>
<!DOCTYPE svg PUBLIC "-//W3C//DTD SVG 1.1//EN"
 "http://www.w3.org/Graphics/SVG/1.1/DTD/svg11.dtd">
<!-- Generated by graphviz version 2.46.0 (0)
 -->
<!-- Title: sarray_sort.c Pages: 1 -->
<svg width="568pt" height="84pt"
 viewBox="0.00 0.00 567.50 84.00" xmlns="http://www.w3.org/2000/svg" xmlns:xlink="http://www.w3.org/1999/xlink">
<g id="graph0" class="graph" transform="scale(1 1) rotate(0) translate(4 80)">
<title>sarray_sort.c</title>
<polygon fill="white" stroke="transparent" points="-4,4 -4,-80 563.5,-80 563.5,4 -4,4"/>
<!-- Node1 -->
<g id="node1" class="node">
<title>Node1</title>
<g id="a_node1"><a xlink:title=" ">
<polygon fill="#bfbfbf" stroke="black" points="250,-56.5 250,-75.5 324,-75.5 324,-56.5 250,-56.5"/>
<text text-anchor="middle" x="287" y="-63.5" font-family="Helvetica,sans-Serif" font-size="10.00">sarray_sort.c</text>
</a>
</g>
</g>
<!-- Node2 -->
<g id="node2" class="node">
<title>Node2</title>
<g id="a_node2"><a xlink:title=" ">
<polygon fill="white" stroke="#bfbfbf" points="0,-0.5 0,-19.5 52,-19.5 52,-0.5 0,-0.5"/>
<text text-anchor="middle" x="26" y="-7.5" font-family="Helvetica,sans-Serif" font-size="10.00">stddef.h</text>
</a>
</g>
</g>
<!-- Node1&#45;&gt;Node2 -->
<g id="edge1" class="edge">
<title>Node1&#45;&gt;Node2</title>
<path fill="none" stroke="midnightblue" d="M249.67,-58.22C206.77,-50.29 134.02,-36.39 62.43,-20.23"/>
<polygon fill="midnightblue" stroke="midnightblue" points="62.86,-16.74 52.34,-17.94 61.31,-23.57 62.86,-16.74"/>
</g>
<!-- Node3 -->
<g id="node3" class="node">
<title>Node3</title>
<g id="a_node3"><a xlink:title=" ">
<polygon fill="white" stroke="#bfbfbf" points="70,-0.5 70,-19.5 118,-19.5 118,-0.5 70,-0.5"/>
<text text-anchor="middle" x="94" y="-7.5" font-family="Helvetica,sans-Serif" font-size="10.00">stdlib.h</text>
</a>
</g>
</g>
<!-- Node1&#45;&gt;Node3 -->
<g id="edge2" class="edge">
<title>Node1&#45;&gt;Node3</title>
<path fill="none" stroke="midnightblue" d="M256.42,-56.44C221.35,-46.63 164.02,-30.59 127.69,-20.43"/>
<polygon fill="midnightblue" stroke="midnightblue" points="128.61,-17.05 118.04,-17.73 126.72,-23.79 128.61,-17.05"/>
</g>
<!-- Node4 -->
<g id="node4" class="node">
<title>Node4</title>
<g id="a_node4"><a xlink:title=" ">
<polygon fill="white" stroke="#bfbfbf" points="136.5,-0.5 136.5,-19.5 185.5,-19.5 185.5,-0.5 136.5,-0.5"/>
<text text-anchor="middle" x="161" y="-7.5" font-family="Helvetica,sans-Serif" font-size="10.00">string.h</text>
</a>
</g>
</g>
<!-- Node1&#45;&gt;Node4 -->
<g id="edge3" class="edge">
<title>Node1&#45;&gt;Node4</title>
<path fill="none" stroke="midnightblue" d="M267.03,-56.44C246.39,-47.6 213.94,-33.69 190.37,-23.59"/>
<polygon fill="midnightblue" stroke="midnightblue" points="191.44,-20.24 180.87,-19.52 188.68,-26.67 191.44,-20.24"/>
</g>
<!-- Node5 -->
<g id="node5" class="node">
<title>Node5</title>
<g id="a_node5"><a xlink:href="gslib_2src_2c99_8h.html" target="_top" xlink:title=" ">
<polygon fill="white" stroke="black" points="203.5,-0.5 203.5,-19.5 244.5,-19.5 244.5,-0.5 203.5,-0.5"/>
<text text-anchor="middle" x="224" y="-7.5" font-family="Helvetica,sans-Serif" font-size="10.00">c99.h</text>
</a>
</g>
</g>
<!-- Node1&#45;&gt;Node5 -->
<g id="edge4" class="edge">
<title>Node1&#45;&gt;Node5</title>
<path fill="none" stroke="midnightblue" d="M276.88,-56.32C267.47,-48.26 253.26,-36.08 241.93,-26.37"/>
<polygon fill="midnightblue" stroke="midnightblue" points="244.18,-23.68 234.31,-19.83 239.62,-29 244.18,-23.68"/>
</g>
<!-- Node6 -->
<g id="node6" class="node">
<title>Node6</title>
<g id="a_node6"><a xlink:href="3rd__party_2gslib_2gslib_2src_2name_8h.html" target="_top" xlink:title=" ">
<polygon fill="white" stroke="black" points="262.5,-0.5 262.5,-19.5 311.5,-19.5 311.5,-0.5 262.5,-0.5"/>
<text text-anchor="middle" x="287" y="-7.5" font-family="Helvetica,sans-Serif" font-size="10.00">name.h</text>
</a>
</g>
</g>
<!-- Node1&#45;&gt;Node6 -->
<g id="edge5" class="edge">
<title>Node1&#45;&gt;Node6</title>
<path fill="none" stroke="midnightblue" d="M287,-56.08C287,-49.01 287,-38.86 287,-29.99"/>
<polygon fill="midnightblue" stroke="midnightblue" points="290.5,-29.75 287,-19.75 283.5,-29.75 290.5,-29.75"/>
</g>
<!-- Node7 -->
<g id="node7" class="node">
<title>Node7</title>
<g id="a_node7"><a xlink:href="gslib_2src_2types_8h.html" target="_top" xlink:title=" ">
<polygon fill="white" stroke="red" points="329.5,-0.5 329.5,-19.5 378.5,-19.5 378.5,-0.5 329.5,-0.5"/>
<text text-anchor="middle" x="354" y="-7.5" font-family="Helvetica,sans-Serif" font-size="10.00">types.h</text>
</a>
</g>
</g>
<!-- Node1&#45;&gt;Node7 -->
<g id="edge6" class="edge">
<title>Node1&#45;&gt;Node7</title>
<path fill="none" stroke="midnightblue" d="M297.76,-56.32C307.77,-48.26 322.89,-36.08 334.93,-26.37"/>
<polygon fill="midnightblue" stroke="midnightblue" points="337.45,-28.83 343.04,-19.83 333.06,-23.38 337.45,-28.83"/>
</g>
<!-- Node9 -->
<g id="node8" class="node">
<title>Node9</title>
<g id="a_node8"><a xlink:href="gslib_2src_2fail_8h.html" target="_top" xlink:title=" ">
<polygon fill="white" stroke="black" points="397,-0.5 397,-19.5 435,-19.5 435,-0.5 397,-0.5"/>
<text text-anchor="middle" x="416" y="-7.5" font-family="Helvetica,sans-Serif" font-size="10.00">fail.h</text>
</a>
</g>
</g>
<!-- Node1&#45;&gt;Node9 -->
<g id="edge7" class="edge">
<title>Node1&#45;&gt;Node9</title>
<path fill="none" stroke="midnightblue" d="M307.44,-56.44C329.05,-47.4 363.28,-33.07 387.53,-22.92"/>
<polygon fill="midnightblue" stroke="midnightblue" points="389.04,-26.08 396.92,-18.99 386.34,-19.62 389.04,-26.08"/>
</g>
<!-- Node10 -->
<g id="node9" class="node">
<title>Node10</title>
<g id="a_node9"><a xlink:href="gslib_2src_2mem_8h.html" target="_top" xlink:title=" ">
<polygon fill="white" stroke="black" points="453.5,-0.5 453.5,-19.5 500.5,-19.5 500.5,-0.5 453.5,-0.5"/>
<text text-anchor="middle" x="477" y="-7.5" font-family="Helvetica,sans-Serif" font-size="10.00">mem.h</text>
</a>
</g>
</g>
<!-- Node1&#45;&gt;Node10 -->
<g id="edge8" class="edge">
<title>Node1&#45;&gt;Node10</title>
<path fill="none" stroke="midnightblue" d="M317.11,-56.44C351.49,-46.67 407.59,-30.73 443.37,-20.56"/>
<polygon fill="midnightblue" stroke="midnightblue" points="444.68,-23.83 453.34,-17.73 442.76,-17.09 444.68,-23.83"/>
</g>
<!-- Node11 -->
<g id="node10" class="node">
<title>Node11</title>
<g id="a_node10"><a xlink:href="gslib_2src_2sort_8h.html" target="_top" xlink:title=" ">
<polygon fill="white" stroke="black" points="518.5,-0.5 518.5,-19.5 559.5,-19.5 559.5,-0.5 518.5,-0.5"/>
<text text-anchor="middle" x="539" y="-7.5" font-family="Helvetica,sans-Serif" font-size="10.00">sort.h</text>
</a>
</g>
</g>
<!-- Node1&#45;&gt;Node11 -->
<g id="edge9" class="edge">
<title>Node1&#45;&gt;Node11</title>
<path fill="none" stroke="midnightblue" d="M324.35,-58.66C366.86,-51.19 438.52,-37.79 508.6,-20.17"/>
<polygon fill="midnightblue" stroke="midnightblue" points="509.65,-23.51 518.48,-17.65 507.92,-16.73 509.65,-23.51"/>
</g>
</g>
</svg>
