<?xml version="1.0" encoding="UTF-8" standalone="no"?>
<!DOCTYPE svg PUBLIC "-//W3C//DTD SVG 1.1//EN"
 "http://www.w3.org/Graphics/SVG/1.1/DTD/svg11.dtd">
<!-- Generated by graphviz version 2.46.0 (0)
 -->
<!-- Title: zwgljd Pages: 1 -->
<svg width="409pt" height="218pt"
 viewBox="0.00 0.00 409.00 218.00" xmlns="http://www.w3.org/2000/svg" xmlns:xlink="http://www.w3.org/1999/xlink">
<g id="graph0" class="graph" transform="scale(1 1) rotate(0) translate(4 214)">
<title>zwgljd</title>
<polygon fill="white" stroke="transparent" points="-4,4 -4,-214 405,-214 405,4 -4,4"/>
<!-- Node1 -->
<g id="node1" class="node">
<title>Node1</title>
<g id="a_node1"><a xlink:title=" ">
<polygon fill="#bfbfbf" stroke="black" points="357,-152.5 357,-171.5 401,-171.5 401,-152.5 357,-152.5"/>
<text text-anchor="middle" x="379" y="-159.5" font-family="Helvetica,sans-Serif" font-size="10.00">zwgljd</text>
</a>
</g>
</g>
<!-- Node2 -->
<g id="node2" class="node">
<title>Node2</title>
<g id="a_node2"><a xlink:href="speclib_8f.html#a0a1a17375323b7ab32d6ebe1c52ab1c3" target="_top" xlink:title=" ">
<polygon fill="white" stroke="black" points="282,-152.5 282,-171.5 321,-171.5 321,-152.5 282,-152.5"/>
<text text-anchor="middle" x="301.5" y="-159.5" font-family="Helvetica,sans-Serif" font-size="10.00">zwglj</text>
</a>
</g>
</g>
<!-- Node1&#45;&gt;Node2 -->
<g id="edge1" class="edge">
<title>Node1&#45;&gt;Node2</title>
<path fill="none" stroke="midnightblue" d="M346.71,-162C338.01,-162 328.83,-162 321.1,-162"/>
<polygon fill="midnightblue" stroke="midnightblue" points="346.97,-165.5 356.97,-162 346.97,-158.5 346.97,-165.5"/>
</g>
<!-- Node3 -->
<g id="node3" class="node">
<title>Node3</title>
<g id="a_node3"><a xlink:href="coef_8f.html#a0d49b1aee56670901cd4cdfde7245e6c" target="_top" xlink:title=" ">
<polygon fill="white" stroke="black" points="106,-190.5 106,-209.5 151,-209.5 151,-190.5 106,-190.5"/>
<text text-anchor="middle" x="128.5" y="-197.5" font-family="Helvetica,sans-Serif" font-size="10.00">genwz</text>
</a>
</g>
</g>
<!-- Node2&#45;&gt;Node3 -->
<g id="edge2" class="edge">
<title>Node2&#45;&gt;Node3</title>
<path fill="none" stroke="midnightblue" d="M272.16,-169.56C263.76,-171.72 254.53,-174.03 246,-176 213,-183.63 174.47,-191.34 151.04,-195.89"/>
<polygon fill="midnightblue" stroke="midnightblue" points="273.1,-172.93 281.89,-167.02 271.33,-166.16 273.1,-172.93"/>
</g>
<!-- Node6 -->
<g id="node5" class="node">
<title>Node6</title>
<g id="a_node5"><a xlink:href="coef_8f.html#af6c4221e29941365217a4e31b6b52020" target="_top" xlink:title=" ">
<polygon fill="white" stroke="black" points="106.5,-152.5 106.5,-171.5 150.5,-171.5 150.5,-152.5 106.5,-152.5"/>
<text text-anchor="middle" x="128.5" y="-159.5" font-family="Helvetica,sans-Serif" font-size="10.00">maprs</text>
</a>
</g>
</g>
<!-- Node2&#45;&gt;Node6 -->
<g id="edge4" class="edge">
<title>Node2&#45;&gt;Node6</title>
<path fill="none" stroke="midnightblue" d="M271.6,-162C237.39,-162 181.24,-162 150.77,-162"/>
<polygon fill="midnightblue" stroke="midnightblue" points="271.87,-165.5 281.87,-162 271.87,-158.5 271.87,-165.5"/>
</g>
<!-- Node7 -->
<g id="node6" class="node">
<title>Node7</title>
<g id="a_node6"><a xlink:href="speclib_8f.html#a3788ff93193b0428aad51e76c6ed2e18" target="_top" xlink:title=" ">
<polygon fill="white" stroke="red" points="207,-114.5 207,-133.5 246,-133.5 246,-114.5 207,-114.5"/>
<text text-anchor="middle" x="226.5" y="-121.5" font-family="Helvetica,sans-Serif" font-size="10.00">zwgll</text>
</a>
</g>
</g>
<!-- Node2&#45;&gt;Node7 -->
<g id="edge5" class="edge">
<title>Node2&#45;&gt;Node7</title>
<path fill="none" stroke="midnightblue" d="M273.03,-147.7C263.97,-142.99 254.13,-137.86 245.92,-133.59"/>
<polygon fill="midnightblue" stroke="midnightblue" points="271.59,-150.9 282.08,-152.41 274.82,-144.69 271.59,-150.9"/>
</g>
<!-- Node4 -->
<g id="node4" class="node">
<title>Node4</title>
<g id="a_node4"><a xlink:href="drive1_8f.html#a83f7c6d78ac4e68394f32533e847d0a3" target="_top" xlink:title=" ">
<polygon fill="white" stroke="red" points="0,-190.5 0,-209.5 50,-209.5 50,-190.5 0,-190.5"/>
<text text-anchor="middle" x="25" y="-197.5" font-family="Helvetica,sans-Serif" font-size="10.00">nek_init</text>
</a>
</g>
</g>
<!-- Node3&#45;&gt;Node4 -->
<g id="edge3" class="edge">
<title>Node3&#45;&gt;Node4</title>
<path fill="none" stroke="midnightblue" d="M95.82,-200C81.14,-200 63.98,-200 50.34,-200"/>
<polygon fill="midnightblue" stroke="midnightblue" points="95.97,-203.5 105.97,-200 95.97,-196.5 95.97,-203.5"/>
</g>
<!-- Node7&#45;&gt;Node3 -->
<g id="edge10" class="edge">
<title>Node7&#45;&gt;Node3</title>
<path fill="none" stroke="midnightblue" d="M211.69,-141.65C201.45,-153.88 186.62,-169.88 171,-181 164.93,-185.32 157.72,-189.03 151.03,-191.99"/>
<polygon fill="midnightblue" stroke="midnightblue" points="214.69,-143.51 218.28,-133.55 209.26,-139.1 214.69,-143.51"/>
</g>
<!-- Node7&#45;&gt;Node6 -->
<g id="edge11" class="edge">
<title>Node7&#45;&gt;Node6</title>
<path fill="none" stroke="midnightblue" d="M197.67,-135.01C182.67,-140.95 164.45,-148.16 150.63,-153.64"/>
<polygon fill="midnightblue" stroke="midnightblue" points="198.98,-138.26 206.99,-131.33 196.4,-131.75 198.98,-138.26"/>
</g>
<!-- Node8 -->
<g id="node7" class="node">
<title>Node8</title>
<g id="a_node7"><a xlink:href="postpro_8f.html#a384436e1573243f4e088689bbea00453" target="_top" xlink:title=" ">
<polygon fill="white" stroke="red" points="94.5,-38.5 94.5,-57.5 162.5,-57.5 162.5,-38.5 94.5,-38.5"/>
<text text-anchor="middle" x="128.5" y="-45.5" font-family="Helvetica,sans-Serif" font-size="10.00">build_1d_filt</text>
</a>
</g>
</g>
<!-- Node7&#45;&gt;Node8 -->
<g id="edge6" class="edge">
<title>Node7&#45;&gt;Node8</title>
<path fill="none" stroke="midnightblue" d="M211.69,-106.35C201.45,-94.12 186.62,-78.12 171,-67 165.96,-63.42 160.14,-60.25 154.49,-57.58"/>
<polygon fill="midnightblue" stroke="midnightblue" points="209.26,-108.9 218.28,-114.45 214.69,-104.49 209.26,-108.9"/>
</g>
<!-- Node10 -->
<g id="node8" class="node">
<title>Node10</title>
<g id="a_node8"><a xlink:href="navier5_8f.html#adccbae2fb9aecfc757b8e177948267db" target="_top" xlink:title=" ">
<polygon fill="white" stroke="red" points="98,-0.5 98,-19.5 159,-19.5 159,-0.5 98,-0.5"/>
<text text-anchor="middle" x="128.5" y="-7.5" font-family="Helvetica,sans-Serif" font-size="10.00">build_filter</text>
</a>
</g>
</g>
<!-- Node7&#45;&gt;Node10 -->
<g id="edge7" class="edge">
<title>Node7&#45;&gt;Node10</title>
<path fill="none" stroke="midnightblue" d="M218.67,-104.9C210.3,-83.89 194.31,-50.27 171,-29 166.9,-25.26 161.94,-22.15 156.9,-19.59"/>
<polygon fill="midnightblue" stroke="midnightblue" points="215.43,-106.25 222.25,-114.36 221.98,-103.77 215.43,-106.25"/>
</g>
<!-- Node13 -->
<g id="node9" class="node">
<title>Node13</title>
<g id="a_node9"><a xlink:href="navier8_8f.html#aae4a347bc7ce7b06fa7abf792db70953" target="_top" xlink:title=" ">
<polygon fill="white" stroke="red" points="88.5,-114.5 88.5,-133.5 168.5,-133.5 168.5,-114.5 88.5,-114.5"/>
<text text-anchor="middle" x="128.5" y="-121.5" font-family="Helvetica,sans-Serif" font-size="10.00">gen_crs_basis</text>
</a>
</g>
</g>
<!-- Node7&#45;&gt;Node13 -->
<g id="edge8" class="edge">
<title>Node7&#45;&gt;Node13</title>
<path fill="none" stroke="midnightblue" d="M196.81,-124C187.96,-124 178.05,-124 168.62,-124"/>
<polygon fill="midnightblue" stroke="midnightblue" points="196.99,-127.5 206.99,-124 196.99,-120.5 196.99,-127.5"/>
</g>
<!-- Node75 -->
<g id="node10" class="node">
<title>Node75</title>
<g id="a_node10"><a xlink:href="navier8_8f.html#a611202b10fe5ac7451e19d44b4749659" target="_top" xlink:title=" ">
<polygon fill="white" stroke="black" points="86,-76.5 86,-95.5 171,-95.5 171,-76.5 86,-76.5"/>
<text text-anchor="middle" x="128.5" y="-83.5" font-family="Helvetica,sans-Serif" font-size="10.00">gen_crs_basis2</text>
</a>
</g>
</g>
<!-- Node7&#45;&gt;Node75 -->
<g id="edge9" class="edge">
<title>Node7&#45;&gt;Node75</title>
<path fill="none" stroke="midnightblue" d="M197.47,-112.9C183.62,-107.42 167.07,-100.87 153.77,-95.61"/>
<polygon fill="midnightblue" stroke="midnightblue" points="196.4,-116.25 206.99,-116.67 198.98,-109.74 196.4,-116.25"/>
</g>
</g>
</svg>
