<?xml version="1.0" encoding="UTF-8" standalone="no"?>
<!DOCTYPE svg PUBLIC "-//W3C//DTD SVG 1.1//EN"
 "http://www.w3.org/Graphics/SVG/1.1/DTD/svg11.dtd">
<!-- Generated by graphviz version 2.46.0 (0)
 -->
<!-- Title: zwgll Pages: 1 -->
<svg width="552pt" height="161pt"
 viewBox="0.00 0.00 552.00 161.00" xmlns="http://www.w3.org/2000/svg" xmlns:xlink="http://www.w3.org/1999/xlink">
<g id="graph0" class="graph" transform="scale(1 1) rotate(0) translate(4 157)">
<title>zwgll</title>
<polygon fill="white" stroke="transparent" points="-4,4 -4,-157 548,-157 548,4 -4,4"/>
<!-- Node1 -->
<g id="node1" class="node">
<title>Node1</title>
<g id="a_node1"><a xlink:title=" ">
<polygon fill="#bfbfbf" stroke="black" points="0,-114.5 0,-133.5 39,-133.5 39,-114.5 0,-114.5"/>
<text text-anchor="middle" x="19.5" y="-121.5" font-family="Helvetica,sans-Serif" font-size="10.00">zwgll</text>
</a>
</g>
</g>
<!-- Node2 -->
<g id="node2" class="node">
<title>Node2</title>
<g id="a_node2"><a xlink:href="speclib_8f.html#a0a1a17375323b7ab32d6ebe1c52ab1c3" target="_top" xlink:title=" ">
<polygon fill="white" stroke="black" points="75,-114.5 75,-133.5 114,-133.5 114,-114.5 75,-114.5"/>
<text text-anchor="middle" x="94.5" y="-121.5" font-family="Helvetica,sans-Serif" font-size="10.00">zwglj</text>
</a>
</g>
</g>
<!-- Node1&#45;&gt;Node2 -->
<g id="edge1" class="edge">
<title>Node1&#45;&gt;Node2</title>
<path fill="none" stroke="midnightblue" d="M39.3,-124C47.05,-124 56.2,-124 64.76,-124"/>
<polygon fill="midnightblue" stroke="midnightblue" points="64.76,-127.5 74.76,-124 64.76,-120.5 64.76,-127.5"/>
</g>
<!-- Node3 -->
<g id="node3" class="node">
<title>Node3</title>
<g id="a_node3"><a xlink:href="byte_8c.html#a2da8eeb074dfd3ffbfb3e9a4d301cda4" target="_top" xlink:title=" ">
<polygon fill="white" stroke="black" points="315,-133.5 315,-152.5 350,-152.5 350,-133.5 315,-133.5"/>
<text text-anchor="middle" x="332.5" y="-140.5" font-family="Helvetica,sans-Serif" font-size="10.00">exitt</text>
</a>
</g>
</g>
<!-- Node2&#45;&gt;Node3 -->
<g id="edge2" class="edge">
<title>Node2&#45;&gt;Node3</title>
<path fill="none" stroke="midnightblue" d="M114.12,-127.66C139.98,-132.54 188.33,-140.92 230,-144 249.95,-145.47 255,-144.18 275,-144 284.59,-143.92 295.09,-143.75 304.42,-143.58"/>
<polygon fill="midnightblue" stroke="midnightblue" points="304.76,-147.07 314.69,-143.38 304.62,-140.07 304.76,-147.07"/>
</g>
<!-- Node6 -->
<g id="node6" class="node">
<title>Node6</title>
<g id="a_node6"><a xlink:href="speclib_8f.html#a1de21b6470e13421db7e4bafe58b6a20" target="_top" xlink:title=" ">
<polygon fill="white" stroke="black" points="150,-76.5 150,-95.5 194,-95.5 194,-76.5 150,-76.5"/>
<text text-anchor="middle" x="172" y="-83.5" font-family="Helvetica,sans-Serif" font-size="10.00">zwgljd</text>
</a>
</g>
</g>
<!-- Node2&#45;&gt;Node6 -->
<g id="edge5" class="edge">
<title>Node2&#45;&gt;Node6</title>
<path fill="none" stroke="midnightblue" d="M114.16,-114.61C122.81,-110.26 133.27,-104.99 142.84,-100.17"/>
<polygon fill="midnightblue" stroke="midnightblue" points="144.67,-103.17 152.03,-95.55 141.52,-96.92 144.67,-103.17"/>
</g>
<!-- Node4 -->
<g id="node4" class="node">
<title>Node4</title>
<g id="a_node4"><a xlink:href="comm__mpi_8f.html#acc8803a3787828530843112e0c48941b" target="_top" xlink:title=" ">
<polygon fill="white" stroke="black" points="390,-133.5 390,-152.5 440,-152.5 440,-133.5 390,-133.5"/>
<text text-anchor="middle" x="415" y="-140.5" font-family="Helvetica,sans-Serif" font-size="10.00">nek_die</text>
</a>
</g>
</g>
<!-- Node3&#45;&gt;Node4 -->
<g id="edge3" class="edge">
<title>Node3&#45;&gt;Node4</title>
<path fill="none" stroke="midnightblue" d="M350.18,-143C358.66,-143 369.29,-143 379.43,-143"/>
<polygon fill="midnightblue" stroke="midnightblue" points="379.7,-146.5 389.7,-143 379.7,-139.5 379.7,-146.5"/>
</g>
<!-- Node5 -->
<g id="node5" class="node">
<title>Node5</title>
<g id="a_node5"><a xlink:href="mpi__dummy_8f.html#a55e9a1619aadb638b14211ce21d7d566" target="_top" xlink:title=" ">
<polygon fill="white" stroke="black" points="476,-133.5 476,-152.5 544,-152.5 544,-133.5 476,-133.5"/>
<text text-anchor="middle" x="510" y="-140.5" font-family="Helvetica,sans-Serif" font-size="10.00">mpi_finalize</text>
</a>
</g>
</g>
<!-- Node4&#45;&gt;Node5 -->
<g id="edge4" class="edge">
<title>Node4&#45;&gt;Node5</title>
<path fill="none" stroke="midnightblue" d="M440.43,-143C448.25,-143 457.14,-143 465.88,-143"/>
<polygon fill="midnightblue" stroke="midnightblue" points="465.99,-146.5 475.99,-143 465.99,-139.5 465.99,-146.5"/>
</g>
<!-- Node6&#45;&gt;Node3 -->
<g id="edge8" class="edge">
<title>Node6&#45;&gt;Node3</title>
<path fill="none" stroke="midnightblue" d="M184.43,-95.66C195.41,-104.42 212.82,-117.01 230,-124 254.18,-133.84 283.69,-138.63 304.65,-140.94"/>
<polygon fill="midnightblue" stroke="midnightblue" points="304.46,-144.44 314.75,-141.93 305.14,-137.47 304.46,-144.44"/>
</g>
<!-- Node7 -->
<g id="node7" class="node">
<title>Node7</title>
<g id="a_node7"><a xlink:href="speclib_8f.html#a91eec848c820802e16160a8e3afaefe2" target="_top" xlink:title=" ">
<polygon fill="white" stroke="red" points="230,-95.5 230,-114.5 275,-114.5 275,-95.5 230,-95.5"/>
<text text-anchor="middle" x="252.5" y="-102.5" font-family="Helvetica,sans-Serif" font-size="10.00">endw1</text>
</a>
</g>
</g>
<!-- Node6&#45;&gt;Node7 -->
<g id="edge6" class="edge">
<title>Node6&#45;&gt;Node7</title>
<path fill="none" stroke="midnightblue" d="M194.04,-91.09C202,-93.02 211.25,-95.26 219.97,-97.37"/>
<polygon fill="midnightblue" stroke="midnightblue" points="219.32,-100.81 229.86,-99.76 220.96,-94.01 219.32,-100.81"/>
</g>
<!-- Node9 -->
<g id="node8" class="node">
<title>Node9</title>
<g id="a_node8"><a xlink:href="speclib_8f.html#adcb1c928c54b6d9a681b89921cf154e3" target="_top" xlink:title=" ">
<polygon fill="white" stroke="red" points="230,-57.5 230,-76.5 275,-76.5 275,-57.5 230,-57.5"/>
<text text-anchor="middle" x="252.5" y="-64.5" font-family="Helvetica,sans-Serif" font-size="10.00">endw2</text>
</a>
</g>
</g>
<!-- Node6&#45;&gt;Node9 -->
<g id="edge7" class="edge">
<title>Node6&#45;&gt;Node9</title>
<path fill="none" stroke="midnightblue" d="M194.04,-80.91C202,-78.98 211.25,-76.74 219.97,-74.63"/>
<polygon fill="midnightblue" stroke="midnightblue" points="220.96,-77.99 229.86,-72.24 219.32,-71.19 220.96,-77.99"/>
</g>
<!-- Node10 -->
<g id="node9" class="node">
<title>Node10</title>
<g id="a_node9"><a xlink:href="speclib_8f.html#a7b43921b3c1feee969a92fb929834312" target="_top" xlink:title=" ">
<polygon fill="white" stroke="black" points="311,-0.5 311,-19.5 354,-19.5 354,-0.5 311,-0.5"/>
<text text-anchor="middle" x="332.5" y="-7.5" font-family="Helvetica,sans-Serif" font-size="10.00">jacobf</text>
</a>
</g>
</g>
<!-- Node6&#45;&gt;Node10 -->
<g id="edge9" class="edge">
<title>Node6&#45;&gt;Node10</title>
<path fill="none" stroke="midnightblue" d="M176.82,-76.24C184.15,-59.09 201.97,-24.01 230,-10 251.84,0.92 279.78,0.02 300.82,-3.11"/>
<polygon fill="midnightblue" stroke="midnightblue" points="300.37,-6.58 310.82,-4.84 301.56,0.31 300.37,-6.58"/>
</g>
<!-- Node11 -->
<g id="node10" class="node">
<title>Node11</title>
<g id="a_node10"><a xlink:href="speclib_8f.html#a66d184d6cf0d520944c94caa7c86c03e" target="_top" xlink:title=" ">
<polygon fill="white" stroke="red" points="231.5,-19.5 231.5,-38.5 273.5,-38.5 273.5,-19.5 231.5,-19.5"/>
<text text-anchor="middle" x="252.5" y="-26.5" font-family="Helvetica,sans-Serif" font-size="10.00">zwgjd</text>
</a>
</g>
</g>
<!-- Node6&#45;&gt;Node11 -->
<g id="edge10" class="edge">
<title>Node6&#45;&gt;Node11</title>
<path fill="none" stroke="midnightblue" d="M186.32,-76.33C198.34,-67.6 216.25,-54.6 230.25,-44.43"/>
<polygon fill="midnightblue" stroke="midnightblue" points="232.34,-47.23 238.38,-38.53 228.23,-41.57 232.34,-47.23"/>
</g>
<!-- Node11&#45;&gt;Node3 -->
<g id="edge11" class="edge">
<title>Node11&#45;&gt;Node3</title>
<path fill="none" stroke="midnightblue" d="M265.96,-38.84C269.1,-41.62 272.33,-44.78 275,-48 295.11,-72.27 312.67,-104.51 322.68,-124.49"/>
<polygon fill="midnightblue" stroke="midnightblue" points="319.54,-126.04 327.08,-133.48 325.82,-122.96 319.54,-126.04"/>
</g>
<!-- Node11&#45;&gt;Node10 -->
<g id="edge12" class="edge">
<title>Node11&#45;&gt;Node10</title>
<path fill="none" stroke="midnightblue" d="M273.59,-24.11C281.92,-22.08 291.77,-19.68 300.96,-17.44"/>
<polygon fill="midnightblue" stroke="midnightblue" points="302.05,-20.78 310.94,-15.01 300.39,-13.97 302.05,-20.78"/>
</g>
</g>
</svg>
