<?xml version="1.0" encoding="UTF-8" standalone="no"?>
<!DOCTYPE svg PUBLIC "-//W3C//DTD SVG 1.1//EN"
 "http://www.w3.org/Graphics/SVG/1.1/DTD/svg11.dtd">
<!-- Generated by graphviz version 2.46.0 (0)
 -->
<!-- Title: jacg Pages: 1 -->
<svg width="122pt" height="66pt"
 viewBox="0.00 0.00 122.00 66.00" xmlns="http://www.w3.org/2000/svg" xmlns:xlink="http://www.w3.org/1999/xlink">
<g id="graph0" class="graph" transform="scale(1 1) rotate(0) translate(4 62)">
<title>jacg</title>
<polygon fill="white" stroke="transparent" points="-4,4 -4,-62 118,-62 118,4 -4,4"/>
<!-- Node1 -->
<g id="node1" class="node">
<title>Node1</title>
<g id="a_node1"><a xlink:title=" ">
<polygon fill="#bfbfbf" stroke="black" points="0,-19.5 0,-38.5 35,-38.5 35,-19.5 0,-19.5"/>
<text text-anchor="middle" x="17.5" y="-26.5" font-family="Helvetica,sans-Serif" font-size="10.00">jacg</text>
</a>
</g>
</g>
<!-- Node2 -->
<g id="node2" class="node">
<title>Node2</title>
<g id="a_node2"><a xlink:href="speclib_8f.html#a7b43921b3c1feee969a92fb929834312" target="_top" xlink:title=" ">
<polygon fill="white" stroke="black" points="71,-38.5 71,-57.5 114,-57.5 114,-38.5 71,-38.5"/>
<text text-anchor="middle" x="92.5" y="-45.5" font-family="Helvetica,sans-Serif" font-size="10.00">jacobf</text>
</a>
</g>
</g>
<!-- Node1&#45;&gt;Node2 -->
<g id="edge1" class="edge">
<title>Node1&#45;&gt;Node2</title>
<path fill="none" stroke="midnightblue" d="M35.06,-33.31C42.77,-35.32 52.18,-37.77 61.09,-40.08"/>
<polygon fill="midnightblue" stroke="midnightblue" points="60.26,-43.49 70.82,-42.62 62.03,-36.71 60.26,-43.49"/>
</g>
<!-- Node3 -->
<g id="node3" class="node">
<title>Node3</title>
<g id="a_node3"><a xlink:href="navier7_8f.html#ae5853d8199b3ec1ff454795153efde35" target="_top" xlink:title=" ">
<polygon fill="white" stroke="black" points="72.5,-0.5 72.5,-19.5 112.5,-19.5 112.5,-0.5 72.5,-0.5"/>
<text text-anchor="middle" x="92.5" y="-7.5" font-family="Helvetica,sans-Serif" font-size="10.00">swap</text>
</a>
</g>
</g>
<!-- Node1&#45;&gt;Node3 -->
<g id="edge2" class="edge">
<title>Node1&#45;&gt;Node3</title>
<path fill="none" stroke="midnightblue" d="M35.06,-24.69C43.22,-22.57 53.29,-19.94 62.66,-17.51"/>
<polygon fill="midnightblue" stroke="midnightblue" points="63.63,-20.87 72.42,-14.97 61.86,-14.1 63.63,-20.87"/>
</g>
</g>
</svg>
