<?xml version="1.0" encoding="UTF-8" standalone="no"?>
<!DOCTYPE svg PUBLIC "-//W3C//DTD SVG 1.1//EN"
 "http://www.w3.org/Graphics/SVG/1.1/DTD/svg11.dtd">
<!-- Generated by graphviz version 2.46.0 (0)
 -->
<!-- Title: iglm Pages: 1 -->
<!--zoomable 82 -->
<svg id="main" version="1.1" xmlns="http://www.w3.org/2000/svg" xmlns:xlink="http://www.w3.org/1999/xlink" xml:space="preserve" onload="init(evt)">
<style type="text/css"><![CDATA[
.edge:hover path { stroke: red; }
.edge:hover polygon { stroke: red; fill: red; }
]]></style>
<script type="text/javascript"><![CDATA[
var edges = document.getElementsByTagName('g');
if (edges && edges.length) {
  for (var i=0;i<edges.length;i++) {
    if (edges[i].id.substr(0,4)=='edge') {
      edges[i].setAttribute('class','edge');
    }
  }
}
]]></script>
        <defs>
                <circle id="rim" cx="0" cy="0" r="7"/>
                <circle id="rim2" cx="0" cy="0" r="3.5"/>
                <g id="zoomPlus">
                        <use xlink:href="#rim" fill="#404040">
                                <set attributeName="fill" to="#808080" begin="zoomplus.mouseover" end="zoomplus.mouseout"/>
                        </use>
                        <path d="M-4,0h8M0,-4v8" fill="none" stroke="white" stroke-width="1.5" pointer-events="none"/>
                </g>
                <g id="zoomMin">
                        <use xlink:href="#rim" fill="#404040">
                                <set attributeName="fill" to="#808080" begin="zoomminus.mouseover" end="zoomminus.mouseout"/>
                        </use>
                        <path d="M-4,0h8" fill="none" stroke="white" stroke-width="1.5" pointer-events="none"/>
                </g>
                <g id="dirArrow">
                        <path fill="none" stroke="white" stroke-width="1.5" d="M0,-3.0v7 M-2.5,-0.5L0,-3.0L2.5,-0.5"/>
                </g>
               <g id="resetDef">
                       <use xlink:href="#rim2" fill="#404040">
                               <set attributeName="fill" to="#808080" begin="reset.mouseover" end="reset.mouseout"/>
                       </use>
               </g>
        </defs>

<script type="text/javascript">
var viewWidth = 737;
var viewHeight = 82;
var sectionId = 'dynsection-38';
</script>
<script xlink:href="svgpan.js"/>
<svg id="graph" class="graph">
<g id="viewport">
<title>iglm</title>
<polygon fill="white" stroke="transparent" points="-4,4 -4,-78.03 733,-78.03 733,4 -4,4"/>
<!-- Node1 -->
<g id="node1" class="node">
<title>Node1</title>
<g id="a_node1"><a xlink:title=" ">
<polygon fill="#bfbfbf" stroke="black" points="694,-35.53 694,-54.53 729,-54.53 729,-35.53 694,-35.53"/>
<text text-anchor="middle" x="711.5" y="-42.53" font-family="Helvetica,sans-Serif" font-size="10.00">iglm</text>
</a>
</g>
</g>
<!-- Node2 -->
<g id="node2" class="node">
<title>Node2</title>
<g id="a_node2"><a xlink:href="coef_8f.html#a0d49b1aee56670901cd4cdfde7245e6c" target="_top" xlink:title=" ">
<polygon fill="white" stroke="black" points="612.5,-54.53 612.5,-73.53 657.5,-73.53 657.5,-54.53 612.5,-54.53"/>
<text text-anchor="middle" x="635" y="-61.53" font-family="Helvetica,sans-Serif" font-size="10.00">genwz</text>
</a>
</g>
</g>
<!-- Node1&#45;&gt;Node2 -->
<g id="edge1" class="edge">
<title>Node1&#45;&gt;Node2</title>
<path fill="none" stroke="midnightblue" d="M684.26,-51.73C675.53,-53.95 665.92,-56.41 657.58,-58.53"/>
<polygon fill="midnightblue" stroke="midnightblue" points="685.14,-55.11 693.97,-49.25 683.41,-48.33 685.14,-55.11"/>
</g>
<!-- Node5 -->
<g id="node5" class="node">
<title>Node5</title>
<g id="a_node5"><a xlink:href="navier5_8f.html#a519066c177fc94530849e83d3b9d4cfb" target="_top" xlink:title=" ">
<polygon fill="white" stroke="black" points="612,-16.53 612,-35.53 658,-35.53 658,-16.53 612,-16.53"/>
<text text-anchor="middle" x="635" y="-23.53" font-family="Helvetica,sans-Serif" font-size="10.00">q_filter</text>
</a>
</g>
</g>
<!-- Node1&#45;&gt;Node5 -->
<g id="edge4" class="edge">
<title>Node1&#45;&gt;Node5</title>
<path fill="none" stroke="midnightblue" d="M684.14,-38.31C675.64,-36.14 666.31,-33.76 658.14,-31.68"/>
<polygon fill="midnightblue" stroke="midnightblue" points="683.41,-41.74 693.97,-40.82 685.14,-34.96 683.41,-41.74"/>
</g>
<!-- Node3 -->
<g id="node3" class="node">
<title>Node3</title>
<g id="a_node3"><a xlink:href="drive1_8f.html#a83f7c6d78ac4e68394f32533e847d0a3" target="_top" xlink:title=" ">
<polygon fill="white" stroke="black" points="431,-54.53 431,-73.53 481,-73.53 481,-54.53 431,-54.53"/>
<text text-anchor="middle" x="456" y="-61.53" font-family="Helvetica,sans-Serif" font-size="10.00">nek_init</text>
</a>
</g>
</g>
<!-- Node2&#45;&gt;Node3 -->
<g id="edge2" class="edge">
<title>Node2&#45;&gt;Node3</title>
<path fill="none" stroke="midnightblue" d="M602.21,-64.03C567.45,-64.03 512.54,-64.03 481.15,-64.03"/>
<polygon fill="midnightblue" stroke="midnightblue" points="602.3,-67.54 612.3,-64.03 602.3,-60.54 602.3,-67.54"/>
</g>
<!-- Node4 -->
<g id="node4" class="node">
<title>Node4</title>
<g id="a_node4"><a xlink:href="drive_8f.html#a13048bf28dd0734640412d69349e3857" target="_top" xlink:title=" ">
<polygon fill="white" stroke="black" points="0,-35.53 0,-54.53 46,-54.53 46,-35.53 0,-35.53"/>
<text text-anchor="middle" x="23" y="-42.53" font-family="Helvetica,sans-Serif" font-size="10.00">nekton</text>
</a>
</g>
</g>
<!-- Node3&#45;&gt;Node4 -->
<g id="edge3" class="edge">
<title>Node3&#45;&gt;Node4</title>
<path fill="none" stroke="midnightblue" d="M420.74,-62.52C335.65,-58.77 116.47,-49.11 46.1,-46.01"/>
<polygon fill="midnightblue" stroke="midnightblue" points="420.76,-66.03 430.9,-62.97 421.07,-59.04 420.76,-66.03"/>
</g>
<!-- Node6 -->
<g id="node6" class="node">
<title>Node6</title>
<g id="a_node6"><a xlink:href="induct_8f.html#adef470718d07d8b4c7f6bf32b2a9ecb9" target="_top" xlink:title=" ">
<polygon fill="white" stroke="black" points="517,-16.53 517,-35.53 576,-35.53 576,-16.53 517,-16.53"/>
<text text-anchor="middle" x="546.5" y="-23.53" font-family="Helvetica,sans-Serif" font-size="10.00">elsasserh</text>
</a>
</g>
</g>
<!-- Node5&#45;&gt;Node6 -->
<g id="edge5" class="edge">
<title>Node5&#45;&gt;Node6</title>
<path fill="none" stroke="midnightblue" d="M601.59,-26.03C593.26,-26.03 584.36,-26.03 576.24,-26.03"/>
<polygon fill="midnightblue" stroke="midnightblue" points="601.72,-29.54 611.72,-26.03 601.72,-22.54 601.72,-29.54"/>
</g>
<!-- Node8 -->
<g id="node8" class="node">
<title>Node8</title>
<g id="a_node8"><a xlink:href="drive1_8f.html#ae177ea7efac97f35241521b782a671c0" target="_top" xlink:title=" ">
<polygon fill="white" stroke="black" points="321,-16.53 321,-35.53 395,-35.53 395,-16.53 321,-16.53"/>
<text text-anchor="middle" x="358" y="-23.53" font-family="Helvetica,sans-Serif" font-size="10.00">nek_advance</text>
</a>
</g>
</g>
<!-- Node5&#45;&gt;Node8 -->
<g id="edge11" class="edge">
<title>Node5&#45;&gt;Node8</title>
<path fill="none" stroke="midnightblue" d="M602.35,-13.67C593.92,-10.93 584.72,-8.43 576,-7.03 512.36,3.12 494.91,1.26 431,-7.03 416.64,-8.9 401.06,-12.77 388.09,-16.53"/>
<polygon fill="midnightblue" stroke="midnightblue" points="601.23,-16.98 611.82,-16.94 603.52,-10.37 601.23,-16.98"/>
</g>
<!-- Node7 -->
<g id="node7" class="node">
<title>Node7</title>
<g id="a_node7"><a xlink:href="induct_8f.html#aa44a44eb5a5e3f510211f8fd8e6b12b7" target="_top" xlink:title=" ">
<polygon fill="white" stroke="black" points="434.5,-16.53 434.5,-35.53 477.5,-35.53 477.5,-16.53 434.5,-16.53"/>
<text text-anchor="middle" x="456" y="-23.53" font-family="Helvetica,sans-Serif" font-size="10.00">induct</text>
</a>
</g>
</g>
<!-- Node6&#45;&gt;Node7 -->
<g id="edge6" class="edge">
<title>Node6&#45;&gt;Node7</title>
<path fill="none" stroke="midnightblue" d="M506.4,-26.03C496.48,-26.03 486.22,-26.03 477.63,-26.03"/>
<polygon fill="midnightblue" stroke="midnightblue" points="506.52,-29.54 516.52,-26.03 506.52,-22.54 506.52,-29.54"/>
</g>
<!-- Node7&#45;&gt;Node8 -->
<g id="edge7" class="edge">
<title>Node7&#45;&gt;Node8</title>
<path fill="none" stroke="midnightblue" d="M423.96,-26.03C414.82,-26.03 404.73,-26.03 395.28,-26.03"/>
<polygon fill="midnightblue" stroke="midnightblue" points="424.17,-29.54 434.17,-26.03 424.17,-22.54 424.17,-29.54"/>
</g>
<!-- Node9 -->
<g id="node9" class="node">
<title>Node9</title>
<g id="a_node9"><a xlink:href="drive1_8f.html#a18d3e839786263fc4cf91f7eeb714371" target="_top" xlink:title=" ">
<polygon fill="white" stroke="black" points="179,-16.53 179,-35.53 285,-35.53 285,-16.53 179,-16.53"/>
<text text-anchor="middle" x="232" y="-23.53" font-family="Helvetica,sans-Serif" font-size="10.00">nek__multi_advance</text>
</a>
</g>
</g>
<!-- Node8&#45;&gt;Node9 -->
<g id="edge8" class="edge">
<title>Node8&#45;&gt;Node9</title>
<path fill="none" stroke="midnightblue" d="M310.56,-26.03C302.27,-26.03 293.58,-26.03 285.14,-26.03"/>
<polygon fill="midnightblue" stroke="midnightblue" points="310.8,-29.54 320.8,-26.03 310.8,-22.54 310.8,-29.54"/>
</g>
<!-- Node10 -->
<g id="node10" class="node">
<title>Node10</title>
<g id="a_node10"><a xlink:href="drive1_8f.html#a6ad57e0cf728f343e371ef8c9a02cd8a" target="_top" xlink:title=" ">
<polygon fill="white" stroke="black" points="82,-16.53 82,-35.53 143,-35.53 143,-16.53 82,-16.53"/>
<text text-anchor="middle" x="112.5" y="-23.53" font-family="Helvetica,sans-Serif" font-size="10.00">nek_solve</text>
</a>
</g>
</g>
<!-- Node9&#45;&gt;Node10 -->
<g id="edge9" class="edge">
<title>Node9&#45;&gt;Node10</title>
<path fill="none" stroke="midnightblue" d="M168.68,-26.03C159.74,-26.03 150.91,-26.03 143.02,-26.03"/>
<polygon fill="midnightblue" stroke="midnightblue" points="168.78,-29.54 178.78,-26.03 168.78,-22.54 168.78,-29.54"/>
</g>
<!-- Node10&#45;&gt;Node4 -->
<g id="edge10" class="edge">
<title>Node10&#45;&gt;Node4</title>
<path fill="none" stroke="midnightblue" d="M72.02,-34.61C63.13,-36.54 54,-38.52 46.12,-40.23"/>
<polygon fill="midnightblue" stroke="midnightblue" points="72.85,-38.01 81.88,-32.47 71.36,-31.17 72.85,-38.01"/>
</g>
</g>
</svg>
        <g id="navigator" transform="translate(0 0)" fill="#404254">
                <rect fill="#f2f5e9" fill-opacity="0.5" stroke="#606060" stroke-width=".5" x="0" y="0" width="60" height="60"/>
                <use id="zoomplus" xlink:href="#zoomPlus" x="17" y="9" onmousedown="handleZoom(evt,'in')"/>
                <use id="zoomminus" xlink:href="#zoomMin" x="42" y="9" onmousedown="handleZoom(evt,'out')"/>
                <use id="reset" xlink:href="#resetDef" x="30" y="36" onmousedown="handleReset()"/>
                <g id="arrowUp" xlink:href="#dirArrow" transform="translate(30 24)" onmousedown="handlePan(0,-1)">
                  <use xlink:href="#rim" fill="#404040">
                        <set attributeName="fill" to="#808080" begin="arrowUp.mouseover" end="arrowUp.mouseout"/>
                  </use>
                  <path fill="none" stroke="white" stroke-width="1.5" d="M0,-3.0v7 M-2.5,-0.5L0,-3.0L2.5,-0.5"/>
                </g>
                <g id="arrowRight" xlink:href="#dirArrow" transform="rotate(90) translate(36 -43)" onmousedown="handlePan(1,0)">
                  <use xlink:href="#rim" fill="#404040">
                        <set attributeName="fill" to="#808080" begin="arrowRight.mouseover" end="arrowRight.mouseout"/>
                  </use>
                  <path fill="none" stroke="white" stroke-width="1.5" d="M0,-3.0v7 M-2.5,-0.5L0,-3.0L2.5,-0.5"/>
                </g>
                <g id="arrowDown" xlink:href="#dirArrow" transform="rotate(180) translate(-30 -48)" onmousedown="handlePan(0,1)">
                  <use xlink:href="#rim" fill="#404040">
                        <set attributeName="fill" to="#808080" begin="arrowDown.mouseover" end="arrowDown.mouseout"/>
                  </use>
                  <path fill="none" stroke="white" stroke-width="1.5" d="M0,-3.0v7 M-2.5,-0.5L0,-3.0L2.5,-0.5"/>
                </g>
                <g id="arrowLeft" xlink:href="#dirArrow" transform="rotate(270) translate(-36 17)" onmousedown="handlePan(-1,0)">
                  <use xlink:href="#rim" fill="#404040">
                        <set attributeName="fill" to="#808080" begin="arrowLeft.mouseover" end="arrowLeft.mouseout"/>
                  </use>
                  <path fill="none" stroke="white" stroke-width="1.5" d="M0,-3.0v7 M-2.5,-0.5L0,-3.0L2.5,-0.5"/>
                </g>
        </g>
        <svg viewBox="0 0 15 15" width="100%" height="30px" preserveAspectRatio="xMaxYMin meet">
         <g id="arrow_out" transform="scale(0.3 0.3)">
          <a xlink:href="speclib_8f_a42a761325e550f87058431518877e19b_icgraph_org.svg" target="_base">
           <rect id="button" ry="5" rx="5" y="6" x="6" height="38" width="38"
                fill="#f2f5e9" fill-opacity="0.5" stroke="#606060" stroke-width="1.0"/>
           <path id="arrow"
             d="M 11.500037,31.436501 C 11.940474,20.09759 22.043105,11.32322 32.158766,21.979434 L 37.068811,17.246167 C 37.068811,17.246167 37.088388,32 37.088388,32 L 22.160133,31.978069 C 22.160133,31.978069 26.997745,27.140456 26.997745,27.140456 C 18.528582,18.264221 13.291696,25.230495 11.500037,31.436501 z"
             style="fill:#404040;"/>
          </a>
         </g>
        </svg>
</svg>
