<?xml version="1.0" encoding="UTF-8" standalone="no"?>
<!DOCTYPE svg PUBLIC "-//W3C//DTD SVG 1.1//EN"
 "http://www.w3.org/Graphics/SVG/1.1/DTD/svg11.dtd">
<!-- Generated by graphviz version 2.46.0 (0)
 -->
<!-- Title: dgj Pages: 1 -->
<svg width="377pt" height="66pt"
 viewBox="0.00 0.00 377.00 66.00" xmlns="http://www.w3.org/2000/svg" xmlns:xlink="http://www.w3.org/1999/xlink">
<g id="graph0" class="graph" transform="scale(1 1) rotate(0) translate(4 62)">
<title>dgj</title>
<polygon fill="white" stroke="transparent" points="-4,4 -4,-62 373,-62 373,4 -4,4"/>
<!-- Node1 -->
<g id="node1" class="node">
<title>Node1</title>
<g id="a_node1"><a xlink:title=" ">
<polygon fill="#bfbfbf" stroke="black" points="0,-19.5 0,-38.5 29,-38.5 29,-19.5 0,-19.5"/>
<text text-anchor="middle" x="14.5" y="-26.5" font-family="Helvetica,sans-Serif" font-size="10.00">dgj</text>
</a>
</g>
</g>
<!-- Node2 -->
<g id="node2" class="node">
<title>Node2</title>
<g id="a_node2"><a xlink:href="speclib_8f.html#a3671e8447393162fe9902d245178c69a" target="_top" xlink:title=" ">
<polygon fill="white" stroke="black" points="65,-0.5 65,-19.5 100,-19.5 100,-0.5 65,-0.5"/>
<text text-anchor="middle" x="82.5" y="-7.5" font-family="Helvetica,sans-Serif" font-size="10.00">dgjd</text>
</a>
</g>
</g>
<!-- Node1&#45;&gt;Node2 -->
<g id="edge1" class="edge">
<title>Node1&#45;&gt;Node2</title>
<path fill="none" stroke="midnightblue" d="M29.18,-25.06C36.56,-22.94 45.93,-20.24 54.7,-17.72"/>
<polygon fill="midnightblue" stroke="midnightblue" points="55.92,-21.01 64.56,-14.88 53.98,-14.28 55.92,-21.01"/>
</g>
<!-- Node3 -->
<g id="node3" class="node">
<title>Node3</title>
<g id="a_node3"><a xlink:href="byte_8c.html#a2da8eeb074dfd3ffbfb3e9a4d301cda4" target="_top" xlink:title=" ">
<polygon fill="white" stroke="black" points="140,-38.5 140,-57.5 175,-57.5 175,-38.5 140,-38.5"/>
<text text-anchor="middle" x="157.5" y="-45.5" font-family="Helvetica,sans-Serif" font-size="10.00">exitt</text>
</a>
</g>
</g>
<!-- Node1&#45;&gt;Node3 -->
<g id="edge6" class="edge">
<title>Node1&#45;&gt;Node3</title>
<path fill="none" stroke="midnightblue" d="M29.02,-30.82C52.1,-33.93 99.52,-40.32 129.57,-44.37"/>
<polygon fill="midnightblue" stroke="midnightblue" points="129.4,-47.88 139.78,-45.75 130.34,-40.94 129.4,-47.88"/>
</g>
<!-- Node2&#45;&gt;Node3 -->
<g id="edge2" class="edge">
<title>Node2&#45;&gt;Node3</title>
<path fill="none" stroke="midnightblue" d="M100.06,-18.62C109.15,-23.35 120.61,-29.32 130.82,-34.63"/>
<polygon fill="midnightblue" stroke="midnightblue" points="129.26,-37.77 139.75,-39.28 132.49,-31.56 129.26,-37.77"/>
</g>
<!-- Node6 -->
<g id="node6" class="node">
<title>Node6</title>
<g id="a_node6"><a xlink:href="speclib_8f.html#a7b43921b3c1feee969a92fb929834312" target="_top" xlink:title=" ">
<polygon fill="white" stroke="black" points="136,-0.5 136,-19.5 179,-19.5 179,-0.5 136,-0.5"/>
<text text-anchor="middle" x="157.5" y="-7.5" font-family="Helvetica,sans-Serif" font-size="10.00">jacobf</text>
</a>
</g>
</g>
<!-- Node2&#45;&gt;Node6 -->
<g id="edge5" class="edge">
<title>Node2&#45;&gt;Node6</title>
<path fill="none" stroke="midnightblue" d="M100.06,-10C107.68,-10 116.98,-10 125.8,-10"/>
<polygon fill="midnightblue" stroke="midnightblue" points="125.82,-13.5 135.82,-10 125.82,-6.5 125.82,-13.5"/>
</g>
<!-- Node4 -->
<g id="node4" class="node">
<title>Node4</title>
<g id="a_node4"><a xlink:href="comm__mpi_8f.html#acc8803a3787828530843112e0c48941b" target="_top" xlink:title=" ">
<polygon fill="white" stroke="black" points="215,-38.5 215,-57.5 265,-57.5 265,-38.5 215,-38.5"/>
<text text-anchor="middle" x="240" y="-45.5" font-family="Helvetica,sans-Serif" font-size="10.00">nek_die</text>
</a>
</g>
</g>
<!-- Node3&#45;&gt;Node4 -->
<g id="edge3" class="edge">
<title>Node3&#45;&gt;Node4</title>
<path fill="none" stroke="midnightblue" d="M175.18,-48C183.66,-48 194.29,-48 204.43,-48"/>
<polygon fill="midnightblue" stroke="midnightblue" points="204.7,-51.5 214.7,-48 204.7,-44.5 204.7,-51.5"/>
</g>
<!-- Node5 -->
<g id="node5" class="node">
<title>Node5</title>
<g id="a_node5"><a xlink:href="mpi__dummy_8f.html#a55e9a1619aadb638b14211ce21d7d566" target="_top" xlink:title=" ">
<polygon fill="white" stroke="black" points="301,-38.5 301,-57.5 369,-57.5 369,-38.5 301,-38.5"/>
<text text-anchor="middle" x="335" y="-45.5" font-family="Helvetica,sans-Serif" font-size="10.00">mpi_finalize</text>
</a>
</g>
</g>
<!-- Node4&#45;&gt;Node5 -->
<g id="edge4" class="edge">
<title>Node4&#45;&gt;Node5</title>
<path fill="none" stroke="midnightblue" d="M265.43,-48C273.25,-48 282.14,-48 290.88,-48"/>
<polygon fill="midnightblue" stroke="midnightblue" points="290.99,-51.5 300.99,-48 290.99,-44.5 290.99,-51.5"/>
</g>
</g>
</svg>
