<?xml version="1.0" encoding="UTF-8" standalone="no"?>
<!DOCTYPE svg PUBLIC "-//W3C//DTD SVG 1.1//EN"
 "http://www.w3.org/Graphics/SVG/1.1/DTD/svg11.dtd">
<!-- Generated by graphviz version 2.46.0 (0)
 -->
<!-- Title: zwgj Pages: 1 -->
<svg width="315pt" height="256pt"
 viewBox="0.00 0.00 315.00 256.00" xmlns="http://www.w3.org/2000/svg" xmlns:xlink="http://www.w3.org/1999/xlink">
<g id="graph0" class="graph" transform="scale(1 1) rotate(0) translate(4 252)">
<title>zwgj</title>
<polygon fill="white" stroke="transparent" points="-4,4 -4,-252 311,-252 311,4 -4,4"/>
<!-- Node1 -->
<g id="node1" class="node">
<title>Node1</title>
<g id="a_node1"><a xlink:title=" ">
<polygon fill="#bfbfbf" stroke="black" points="270,-152.5 270,-171.5 307,-171.5 307,-152.5 270,-152.5"/>
<text text-anchor="middle" x="288.5" y="-159.5" font-family="Helvetica,sans-Serif" font-size="10.00">zwgj</text>
</a>
</g>
</g>
<!-- Node2 -->
<g id="node2" class="node">
<title>Node2</title>
<g id="a_node2"><a xlink:href="coef_8f.html#a0d49b1aee56670901cd4cdfde7245e6c" target="_top" xlink:title=" ">
<polygon fill="white" stroke="black" points="101,-228.5 101,-247.5 146,-247.5 146,-228.5 101,-228.5"/>
<text text-anchor="middle" x="123.5" y="-235.5" font-family="Helvetica,sans-Serif" font-size="10.00">genwz</text>
</a>
</g>
</g>
<!-- Node1&#45;&gt;Node2 -->
<g id="edge1" class="edge">
<title>Node1&#45;&gt;Node2</title>
<path fill="none" stroke="midnightblue" d="M260.4,-174.64C227.93,-189.77 174.27,-214.79 145.04,-228.42"/>
<polygon fill="midnightblue" stroke="midnightblue" points="262.16,-177.68 269.75,-170.28 259.2,-171.33 262.16,-177.68"/>
</g>
<!-- Node5 -->
<g id="node4" class="node">
<title>Node5</title>
<g id="a_node4"><a xlink:href="speclib_8f.html#a1aea25f2ddfcdcb1f50e66bbd4282fe2" target="_top" xlink:title=" ">
<polygon fill="white" stroke="red" points="197,-133.5 197,-152.5 234,-152.5 234,-133.5 197,-133.5"/>
<text text-anchor="middle" x="215.5" y="-140.5" font-family="Helvetica,sans-Serif" font-size="10.00">zwgl</text>
</a>
</g>
</g>
<!-- Node1&#45;&gt;Node5 -->
<g id="edge3" class="edge">
<title>Node1&#45;&gt;Node5</title>
<path fill="none" stroke="midnightblue" d="M260.22,-154.7C251.54,-152.38 242.17,-149.87 234.34,-147.77"/>
<polygon fill="midnightblue" stroke="midnightblue" points="259.38,-158.1 269.95,-157.3 261.19,-151.34 259.38,-158.1"/>
</g>
<!-- Node3 -->
<g id="node3" class="node">
<title>Node3</title>
<g id="a_node3"><a xlink:href="drive1_8f.html#a83f7c6d78ac4e68394f32533e847d0a3" target="_top" xlink:title=" ">
<polygon fill="white" stroke="red" points="0,-228.5 0,-247.5 50,-247.5 50,-228.5 0,-228.5"/>
<text text-anchor="middle" x="25" y="-235.5" font-family="Helvetica,sans-Serif" font-size="10.00">nek_init</text>
</a>
</g>
</g>
<!-- Node2&#45;&gt;Node3 -->
<g id="edge2" class="edge">
<title>Node2&#45;&gt;Node3</title>
<path fill="none" stroke="midnightblue" d="M90.53,-238C77.38,-238 62.4,-238 50.18,-238"/>
<polygon fill="midnightblue" stroke="midnightblue" points="90.6,-241.5 100.6,-238 90.6,-234.5 90.6,-241.5"/>
</g>
<!-- Node5&#45;&gt;Node2 -->
<g id="edge6" class="edge">
<title>Node5&#45;&gt;Node2</title>
<path fill="none" stroke="midnightblue" d="M204.97,-161.31C195.56,-177.99 179.88,-202.48 161,-219 156.59,-222.86 151.26,-226.19 146.05,-228.94"/>
<polygon fill="midnightblue" stroke="midnightblue" points="208.05,-162.96 209.75,-152.51 201.9,-159.62 208.05,-162.96"/>
</g>
<!-- Node6 -->
<g id="node5" class="node">
<title>Node6</title>
<g id="a_node5"><a xlink:href="convect_8f.html#aa262674ee97d23a029b59e09a9a985a6" target="_top" xlink:title=" ">
<polygon fill="white" stroke="red" points="98.5,-190.5 98.5,-209.5 148.5,-209.5 148.5,-190.5 98.5,-190.5"/>
<text text-anchor="middle" x="123.5" y="-197.5" font-family="Helvetica,sans-Serif" font-size="10.00">gen_dgl</text>
</a>
</g>
</g>
<!-- Node5&#45;&gt;Node6 -->
<g id="edge4" class="edge">
<title>Node5&#45;&gt;Node6</title>
<path fill="none" stroke="midnightblue" d="M193.82,-158.69C184.08,-165.83 172.16,-174.17 161,-181 155.64,-184.28 149.65,-187.55 144.1,-190.43"/>
<polygon fill="midnightblue" stroke="midnightblue" points="196.13,-161.34 202.08,-152.56 191.96,-155.72 196.13,-161.34"/>
</g>
<!-- Node69 -->
<g id="node6" class="node">
<title>Node69</title>
<g id="a_node6"><a xlink:href="convect_8f.html#a58f02ae257240ef90f8a1c9e5b092d1c" target="_top" xlink:title=" ">
<polygon fill="white" stroke="red" points="99.5,-152.5 99.5,-171.5 147.5,-171.5 147.5,-152.5 99.5,-152.5"/>
<text text-anchor="middle" x="123.5" y="-159.5" font-family="Helvetica,sans-Serif" font-size="10.00">gen_int</text>
</a>
</g>
</g>
<!-- Node5&#45;&gt;Node69 -->
<g id="edge5" class="edge">
<title>Node5&#45;&gt;Node69</title>
<path fill="none" stroke="midnightblue" d="M186.8,-148.85C174.28,-151.49 159.64,-154.58 147.71,-157.1"/>
<polygon fill="midnightblue" stroke="midnightblue" points="187.66,-152.24 196.72,-146.75 186.21,-145.39 187.66,-152.24"/>
</g>
<!-- Node82 -->
<g id="node7" class="node">
<title>Node82</title>
<g id="a_node7"><a xlink:href="navier8_8f.html#a2bd1cc6448942cf957a6f9639d6fb56b" target="_top" xlink:title=" ">
<polygon fill="white" stroke="red" points="87.5,-114.5 87.5,-133.5 159.5,-133.5 159.5,-114.5 87.5,-114.5"/>
<text text-anchor="middle" x="123.5" y="-121.5" font-family="Helvetica,sans-Serif" font-size="10.00">maph1_to_l2</text>
</a>
</g>
</g>
<!-- Node5&#45;&gt;Node82 -->
<g id="edge7" class="edge">
<title>Node5&#45;&gt;Node82</title>
<path fill="none" stroke="midnightblue" d="M186.87,-137.17C178.31,-135.36 168.75,-133.34 159.75,-131.44"/>
<polygon fill="midnightblue" stroke="midnightblue" points="186.21,-140.61 196.72,-139.25 187.66,-133.76 186.21,-140.61"/>
</g>
<!-- Node105 -->
<g id="node8" class="node">
<title>Node105</title>
<g id="a_node8"><a xlink:href="navier8_8f.html#a80bac11534f5628754e40e284138165f" target="_top" xlink:title=" ">
<polygon fill="white" stroke="red" points="86,-76.5 86,-95.5 161,-95.5 161,-76.5 86,-76.5"/>
<text text-anchor="middle" x="123.5" y="-83.5" font-family="Helvetica,sans-Serif" font-size="10.00">maph1_to_l2t</text>
</a>
</g>
</g>
<!-- Node5&#45;&gt;Node105 -->
<g id="edge8" class="edge">
<title>Node5&#45;&gt;Node105</title>
<path fill="none" stroke="midnightblue" d="M193.82,-127.31C184.08,-120.17 172.16,-111.83 161,-105 155.64,-101.72 149.65,-98.45 144.1,-95.57"/>
<polygon fill="midnightblue" stroke="midnightblue" points="191.96,-130.28 202.08,-133.44 196.13,-124.66 191.96,-130.28"/>
</g>
<!-- Node107 -->
<g id="node9" class="node">
<title>Node107</title>
<g id="a_node9"><a xlink:href="navier5_8f.html#a519066c177fc94530849e83d3b9d4cfb" target="_top" xlink:title=" ">
<polygon fill="white" stroke="red" points="100.5,-38.5 100.5,-57.5 146.5,-57.5 146.5,-38.5 100.5,-38.5"/>
<text text-anchor="middle" x="123.5" y="-45.5" font-family="Helvetica,sans-Serif" font-size="10.00">q_filter</text>
</a>
</g>
</g>
<!-- Node5&#45;&gt;Node107 -->
<g id="edge9" class="edge">
<title>Node5&#45;&gt;Node107</title>
<path fill="none" stroke="midnightblue" d="M204.97,-124.69C195.56,-108.01 179.88,-83.52 161,-67 156.81,-63.33 151.78,-60.13 146.82,-57.46"/>
<polygon fill="midnightblue" stroke="midnightblue" points="201.9,-126.38 209.75,-133.49 208.05,-123.04 201.9,-126.38"/>
</g>
<!-- Node108 -->
<g id="node10" class="node">
<title>Node108</title>
<g id="a_node10"><a xlink:href="fast3d_8f.html#a99894224741a84f40eaffab59f606087" target="_top" xlink:title=" ">
<polygon fill="white" stroke="red" points="99,-0.5 99,-19.5 148,-19.5 148,-0.5 99,-0.5"/>
<text text-anchor="middle" x="123.5" y="-7.5" font-family="Helvetica,sans-Serif" font-size="10.00">semhat</text>
</a>
</g>
</g>
<!-- Node5&#45;&gt;Node108 -->
<g id="edge10" class="edge">
<title>Node5&#45;&gt;Node108</title>
<path fill="none" stroke="midnightblue" d="M209.58,-123.57C202.48,-98.93 187.24,-56.34 161,-29 157.34,-25.19 152.75,-21.99 148.06,-19.37"/>
<polygon fill="midnightblue" stroke="midnightblue" points="206.2,-124.5 212.2,-133.23 212.96,-122.66 206.2,-124.5"/>
</g>
</g>
</svg>
