<?xml version="1.0" encoding="UTF-8" standalone="no"?>
<!DOCTYPE svg PUBLIC "-//W3C//DTD SVG 1.1//EN"
 "http://www.w3.org/Graphics/SVG/1.1/DTD/svg11.dtd">
<!-- Generated by graphviz version 2.46.0 (0)
 -->
<!-- Title: dgljgj Pages: 1 -->
<svg width="396pt" height="66pt"
 viewBox="0.00 0.00 396.00 66.00" xmlns="http://www.w3.org/2000/svg" xmlns:xlink="http://www.w3.org/1999/xlink">
<g id="graph0" class="graph" transform="scale(1 1) rotate(0) translate(4 62)">
<title>dgljgj</title>
<polygon fill="white" stroke="transparent" points="-4,4 -4,-62 392,-62 392,4 -4,4"/>
<!-- Node1 -->
<g id="node1" class="node">
<title>Node1</title>
<g id="a_node1"><a xlink:title=" ">
<polygon fill="#bfbfbf" stroke="black" points="0,-19.5 0,-38.5 39,-38.5 39,-19.5 0,-19.5"/>
<text text-anchor="middle" x="19.5" y="-26.5" font-family="Helvetica,sans-Serif" font-size="10.00">dgljgj</text>
</a>
</g>
</g>
<!-- Node2 -->
<g id="node2" class="node">
<title>Node2</title>
<g id="a_node2"><a xlink:href="speclib_8f.html#a20d51e5f6c1af29bf81d09ca8840480d" target="_top" xlink:title=" ">
<polygon fill="white" stroke="black" points="75,-0.5 75,-19.5 119,-19.5 119,-0.5 75,-0.5"/>
<text text-anchor="middle" x="97" y="-7.5" font-family="Helvetica,sans-Serif" font-size="10.00">dgljgjd</text>
</a>
</g>
</g>
<!-- Node1&#45;&gt;Node2 -->
<g id="edge1" class="edge">
<title>Node1&#45;&gt;Node2</title>
<path fill="none" stroke="midnightblue" d="M39.16,-24.3C46.95,-22.34 56.2,-20.02 64.96,-17.81"/>
<polygon fill="midnightblue" stroke="midnightblue" points="66.04,-21.15 74.89,-15.31 64.34,-14.36 66.04,-21.15"/>
</g>
<!-- Node3 -->
<g id="node3" class="node">
<title>Node3</title>
<g id="a_node3"><a xlink:href="byte_8c.html#a2da8eeb074dfd3ffbfb3e9a4d301cda4" target="_top" xlink:title=" ">
<polygon fill="white" stroke="black" points="159,-38.5 159,-57.5 194,-57.5 194,-38.5 159,-38.5"/>
<text text-anchor="middle" x="176.5" y="-45.5" font-family="Helvetica,sans-Serif" font-size="10.00">exitt</text>
</a>
</g>
</g>
<!-- Node1&#45;&gt;Node3 -->
<g id="edge6" class="edge">
<title>Node1&#45;&gt;Node3</title>
<path fill="none" stroke="midnightblue" d="M39.2,-31.29C66.42,-34.63 117.14,-40.85 148.44,-44.68"/>
<polygon fill="midnightblue" stroke="midnightblue" points="148.28,-48.19 158.63,-45.93 149.13,-41.24 148.28,-48.19"/>
</g>
<!-- Node2&#45;&gt;Node3 -->
<g id="edge2" class="edge">
<title>Node2&#45;&gt;Node3</title>
<path fill="none" stroke="midnightblue" d="M117.56,-19.59C127.31,-24.37 139.23,-30.21 149.71,-35.36"/>
<polygon fill="midnightblue" stroke="midnightblue" points="148.32,-38.57 158.84,-39.83 151.4,-32.29 148.32,-38.57"/>
</g>
<!-- Node6 -->
<g id="node6" class="node">
<title>Node6</title>
<g id="a_node6"><a xlink:href="speclib_8f.html#a7b43921b3c1feee969a92fb929834312" target="_top" xlink:title=" ">
<polygon fill="white" stroke="black" points="155,-0.5 155,-19.5 198,-19.5 198,-0.5 155,-0.5"/>
<text text-anchor="middle" x="176.5" y="-7.5" font-family="Helvetica,sans-Serif" font-size="10.00">jacobf</text>
</a>
</g>
</g>
<!-- Node2&#45;&gt;Node6 -->
<g id="edge5" class="edge">
<title>Node2&#45;&gt;Node6</title>
<path fill="none" stroke="midnightblue" d="M119.18,-10C127.08,-10 136.22,-10 144.8,-10"/>
<polygon fill="midnightblue" stroke="midnightblue" points="144.88,-13.5 154.88,-10 144.88,-6.5 144.88,-13.5"/>
</g>
<!-- Node4 -->
<g id="node4" class="node">
<title>Node4</title>
<g id="a_node4"><a xlink:href="comm__mpi_8f.html#acc8803a3787828530843112e0c48941b" target="_top" xlink:title=" ">
<polygon fill="white" stroke="black" points="234,-38.5 234,-57.5 284,-57.5 284,-38.5 234,-38.5"/>
<text text-anchor="middle" x="259" y="-45.5" font-family="Helvetica,sans-Serif" font-size="10.00">nek_die</text>
</a>
</g>
</g>
<!-- Node3&#45;&gt;Node4 -->
<g id="edge3" class="edge">
<title>Node3&#45;&gt;Node4</title>
<path fill="none" stroke="midnightblue" d="M194.18,-48C202.66,-48 213.29,-48 223.43,-48"/>
<polygon fill="midnightblue" stroke="midnightblue" points="223.7,-51.5 233.7,-48 223.7,-44.5 223.7,-51.5"/>
</g>
<!-- Node5 -->
<g id="node5" class="node">
<title>Node5</title>
<g id="a_node5"><a xlink:href="mpi__dummy_8f.html#a55e9a1619aadb638b14211ce21d7d566" target="_top" xlink:title=" ">
<polygon fill="white" stroke="black" points="320,-38.5 320,-57.5 388,-57.5 388,-38.5 320,-38.5"/>
<text text-anchor="middle" x="354" y="-45.5" font-family="Helvetica,sans-Serif" font-size="10.00">mpi_finalize</text>
</a>
</g>
</g>
<!-- Node4&#45;&gt;Node5 -->
<g id="edge4" class="edge">
<title>Node4&#45;&gt;Node5</title>
<path fill="none" stroke="midnightblue" d="M284.43,-48C292.25,-48 301.14,-48 309.88,-48"/>
<polygon fill="midnightblue" stroke="midnightblue" points="309.99,-51.5 319.99,-48 309.99,-44.5 309.99,-51.5"/>
</g>
</g>
</svg>
