<?xml version="1.0" encoding="UTF-8" standalone="no"?>
<!DOCTYPE svg PUBLIC "-//W3C//DTD SVG 1.1//EN"
 "http://www.w3.org/Graphics/SVG/1.1/DTD/svg11.dtd">
<!-- Generated by graphviz version 2.46.0 (0)
 -->
<!-- Title: igllm Pages: 1 -->
<svg width="194pt" height="66pt"
 viewBox="0.00 0.00 194.00 66.00" xmlns="http://www.w3.org/2000/svg" xmlns:xlink="http://www.w3.org/1999/xlink">
<g id="graph0" class="graph" transform="scale(1 1) rotate(0) translate(4 62)">
<title>igllm</title>
<polygon fill="white" stroke="transparent" points="-4,4 -4,-62 190,-62 190,4 -4,4"/>
<!-- Node1 -->
<g id="node1" class="node">
<title>Node1</title>
<g id="a_node1"><a xlink:title=" ">
<polygon fill="#bfbfbf" stroke="black" points="0,-19.5 0,-38.5 37,-38.5 37,-19.5 0,-19.5"/>
<text text-anchor="middle" x="18.5" y="-26.5" font-family="Helvetica,sans-Serif" font-size="10.00">igllm</text>
</a>
</g>
</g>
<!-- Node2 -->
<g id="node2" class="node">
<title>Node2</title>
<g id="a_node2"><a xlink:href="speclib_8f.html#ae5f9b93a0dc207fdd9614c38959e0a8f" target="_top" xlink:title=" ">
<polygon fill="white" stroke="black" points="73,-19.5 73,-38.5 105,-38.5 105,-19.5 73,-19.5"/>
<text text-anchor="middle" x="89" y="-26.5" font-family="Helvetica,sans-Serif" font-size="10.00">hgll</text>
</a>
</g>
</g>
<!-- Node1&#45;&gt;Node2 -->
<g id="edge1" class="edge">
<title>Node1&#45;&gt;Node2</title>
<path fill="none" stroke="midnightblue" d="M37.14,-29C44.94,-29 54.27,-29 62.79,-29"/>
<polygon fill="midnightblue" stroke="midnightblue" points="62.97,-32.5 72.97,-29 62.97,-25.5 62.97,-32.5"/>
</g>
<!-- Node3 -->
<g id="node3" class="node">
<title>Node3</title>
<g id="a_node3"><a xlink:href="speclib_8f.html#a04d6092caed3a484dc7ff9a6694e524e" target="_top" xlink:title=" ">
<polygon fill="white" stroke="black" points="141,-38.5 141,-57.5 186,-57.5 186,-38.5 141,-38.5"/>
<text text-anchor="middle" x="163.5" y="-45.5" font-family="Helvetica,sans-Serif" font-size="10.00">pndleg</text>
</a>
</g>
</g>
<!-- Node2&#45;&gt;Node3 -->
<g id="edge2" class="edge">
<title>Node2&#45;&gt;Node3</title>
<path fill="none" stroke="midnightblue" d="M105.02,-32.94C112.56,-34.91 121.98,-37.38 131,-39.75"/>
<polygon fill="midnightblue" stroke="midnightblue" points="130.34,-43.19 140.9,-42.34 132.11,-36.42 130.34,-43.19"/>
</g>
<!-- Node4 -->
<g id="node4" class="node">
<title>Node4</title>
<g id="a_node4"><a xlink:href="speclib_8f.html#aa1aef699466ae5e2ced9cbdd09a4f198" target="_top" xlink:title=" ">
<polygon fill="white" stroke="black" points="143.5,-0.5 143.5,-19.5 183.5,-19.5 183.5,-0.5 143.5,-0.5"/>
<text text-anchor="middle" x="163.5" y="-7.5" font-family="Helvetica,sans-Serif" font-size="10.00">pnleg</text>
</a>
</g>
</g>
<!-- Node2&#45;&gt;Node4 -->
<g id="edge3" class="edge">
<title>Node2&#45;&gt;Node4</title>
<path fill="none" stroke="midnightblue" d="M105.02,-25.06C113.27,-22.9 123.79,-20.15 133.56,-17.58"/>
<polygon fill="midnightblue" stroke="midnightblue" points="134.57,-20.94 143.35,-15.02 132.79,-14.17 134.57,-20.94"/>
</g>
</g>
</svg>
