<?xml version="1.0" encoding="UTF-8" standalone="no"?>
<!DOCTYPE svg PUBLIC "-//W3C//DTD SVG 1.1//EN"
 "http://www.w3.org/Graphics/SVG/1.1/DTD/svg11.dtd">
<!-- Generated by graphviz version 2.46.0 (0)
 -->
<!-- Title: endw2 Pages: 1 -->
<svg width="485pt" height="180pt"
 viewBox="0.00 0.00 485.00 180.00" xmlns="http://www.w3.org/2000/svg" xmlns:xlink="http://www.w3.org/1999/xlink">
<g id="graph0" class="graph" transform="scale(1 1) rotate(0) translate(4 176)">
<title>endw2</title>
<polygon fill="white" stroke="transparent" points="-4,4 -4,-176 481,-176 481,4 -4,4"/>
<!-- Node1 -->
<g id="node1" class="node">
<title>Node1</title>
<g id="a_node1"><a xlink:title=" ">
<polygon fill="#bfbfbf" stroke="black" points="432,-114.5 432,-133.5 477,-133.5 477,-114.5 432,-114.5"/>
<text text-anchor="middle" x="454.5" y="-121.5" font-family="Helvetica,sans-Serif" font-size="10.00">endw2</text>
</a>
</g>
</g>
<!-- Node2 -->
<g id="node2" class="node">
<title>Node2</title>
<g id="a_node2"><a xlink:href="speclib_8f.html#a1de21b6470e13421db7e4bafe58b6a20" target="_top" xlink:title=" ">
<polygon fill="white" stroke="black" points="352,-114.5 352,-133.5 396,-133.5 396,-114.5 352,-114.5"/>
<text text-anchor="middle" x="374" y="-121.5" font-family="Helvetica,sans-Serif" font-size="10.00">zwgljd</text>
</a>
</g>
</g>
<!-- Node1&#45;&gt;Node2 -->
<g id="edge1" class="edge">
<title>Node1&#45;&gt;Node2</title>
<path fill="none" stroke="midnightblue" d="M421.57,-124C413.03,-124 404.01,-124 396.21,-124"/>
<polygon fill="midnightblue" stroke="midnightblue" points="421.63,-127.5 431.63,-124 421.63,-120.5 421.63,-127.5"/>
</g>
<!-- Node3 -->
<g id="node3" class="node">
<title>Node3</title>
<g id="a_node3"><a xlink:href="speclib_8f.html#a0a1a17375323b7ab32d6ebe1c52ab1c3" target="_top" xlink:title=" ">
<polygon fill="white" stroke="black" points="277,-114.5 277,-133.5 316,-133.5 316,-114.5 277,-114.5"/>
<text text-anchor="middle" x="296.5" y="-121.5" font-family="Helvetica,sans-Serif" font-size="10.00">zwglj</text>
</a>
</g>
</g>
<!-- Node2&#45;&gt;Node3 -->
<g id="edge2" class="edge">
<title>Node2&#45;&gt;Node3</title>
<path fill="none" stroke="midnightblue" d="M341.71,-124C333.01,-124 323.83,-124 316.1,-124"/>
<polygon fill="midnightblue" stroke="midnightblue" points="341.97,-127.5 351.97,-124 341.97,-120.5 341.97,-127.5"/>
</g>
<!-- Node4 -->
<g id="node4" class="node">
<title>Node4</title>
<g id="a_node4"><a xlink:href="coef_8f.html#a0d49b1aee56670901cd4cdfde7245e6c" target="_top" xlink:title=" ">
<polygon fill="white" stroke="black" points="103.5,-152.5 103.5,-171.5 148.5,-171.5 148.5,-152.5 103.5,-152.5"/>
<text text-anchor="middle" x="126" y="-159.5" font-family="Helvetica,sans-Serif" font-size="10.00">genwz</text>
</a>
</g>
</g>
<!-- Node3&#45;&gt;Node4 -->
<g id="edge3" class="edge">
<title>Node3&#45;&gt;Node4</title>
<path fill="none" stroke="midnightblue" d="M267.15,-131.53C258.75,-133.7 249.52,-136.01 241,-138 209.09,-145.45 171.92,-153.08 148.92,-157.68"/>
<polygon fill="midnightblue" stroke="midnightblue" points="268.09,-134.91 276.88,-129 266.32,-128.13 268.09,-134.91"/>
</g>
<!-- Node7 -->
<g id="node6" class="node">
<title>Node7</title>
<g id="a_node6"><a xlink:href="coef_8f.html#af6c4221e29941365217a4e31b6b52020" target="_top" xlink:title=" ">
<polygon fill="white" stroke="black" points="104,-114.5 104,-133.5 148,-133.5 148,-114.5 104,-114.5"/>
<text text-anchor="middle" x="126" y="-121.5" font-family="Helvetica,sans-Serif" font-size="10.00">maprs</text>
</a>
</g>
</g>
<!-- Node3&#45;&gt;Node7 -->
<g id="edge5" class="edge">
<title>Node3&#45;&gt;Node7</title>
<path fill="none" stroke="midnightblue" d="M266.7,-124C233.02,-124 178.1,-124 148.13,-124"/>
<polygon fill="midnightblue" stroke="midnightblue" points="266.82,-127.5 276.82,-124 266.82,-120.5 266.82,-127.5"/>
</g>
<!-- Node8 -->
<g id="node7" class="node">
<title>Node8</title>
<g id="a_node7"><a xlink:href="speclib_8f.html#a3788ff93193b0428aad51e76c6ed2e18" target="_top" xlink:title=" ">
<polygon fill="white" stroke="red" points="202,-76.5 202,-95.5 241,-95.5 241,-76.5 202,-76.5"/>
<text text-anchor="middle" x="221.5" y="-83.5" font-family="Helvetica,sans-Serif" font-size="10.00">zwgll</text>
</a>
</g>
</g>
<!-- Node3&#45;&gt;Node8 -->
<g id="edge6" class="edge">
<title>Node3&#45;&gt;Node8</title>
<path fill="none" stroke="midnightblue" d="M268.03,-109.7C258.97,-104.99 249.13,-99.86 240.92,-95.59"/>
<polygon fill="midnightblue" stroke="midnightblue" points="266.59,-112.9 277.08,-114.41 269.82,-106.69 266.59,-112.9"/>
</g>
<!-- Node5 -->
<g id="node5" class="node">
<title>Node5</title>
<g id="a_node5"><a xlink:href="drive1_8f.html#a83f7c6d78ac4e68394f32533e847d0a3" target="_top" xlink:title=" ">
<polygon fill="white" stroke="red" points="0,-152.5 0,-171.5 50,-171.5 50,-152.5 0,-152.5"/>
<text text-anchor="middle" x="25" y="-159.5" font-family="Helvetica,sans-Serif" font-size="10.00">nek_init</text>
</a>
</g>
</g>
<!-- Node4&#45;&gt;Node5 -->
<g id="edge4" class="edge">
<title>Node4&#45;&gt;Node5</title>
<path fill="none" stroke="midnightblue" d="M92.94,-162C79.1,-162 63.18,-162 50.34,-162"/>
<polygon fill="midnightblue" stroke="midnightblue" points="93.03,-165.5 103.03,-162 93.03,-158.5 93.03,-165.5"/>
</g>
<!-- Node8&#45;&gt;Node4 -->
<g id="edge10" class="edge">
<title>Node8&#45;&gt;Node4</title>
<path fill="none" stroke="midnightblue" d="M206.25,-103.96C195.99,-116.07 181.31,-131.83 166,-143 160.77,-146.82 154.65,-150.22 148.83,-153.04"/>
<polygon fill="midnightblue" stroke="midnightblue" points="209.24,-105.84 212.89,-95.9 203.83,-101.39 209.24,-105.84"/>
</g>
<!-- Node8&#45;&gt;Node7 -->
<g id="edge11" class="edge">
<title>Node8&#45;&gt;Node7</title>
<path fill="none" stroke="midnightblue" d="M192.28,-97.47C178.11,-103.23 161.22,-110.09 148.18,-115.39"/>
<polygon fill="midnightblue" stroke="midnightblue" points="193.63,-100.7 201.58,-93.69 191,-94.21 193.63,-100.7"/>
</g>
<!-- Node9 -->
<g id="node8" class="node">
<title>Node9</title>
<g id="a_node8"><a xlink:href="postpro_8f.html#a384436e1573243f4e088689bbea00453" target="_top" xlink:title=" ">
<polygon fill="white" stroke="red" points="92,-76.5 92,-95.5 160,-95.5 160,-76.5 92,-76.5"/>
<text text-anchor="middle" x="126" y="-83.5" font-family="Helvetica,sans-Serif" font-size="10.00">build_1d_filt</text>
</a>
</g>
</g>
<!-- Node8&#45;&gt;Node9 -->
<g id="edge7" class="edge">
<title>Node8&#45;&gt;Node9</title>
<path fill="none" stroke="midnightblue" d="M191.45,-86C181.57,-86 170.46,-86 160.27,-86"/>
<polygon fill="midnightblue" stroke="midnightblue" points="191.58,-89.5 201.58,-86 191.58,-82.5 191.58,-89.5"/>
</g>
<!-- Node11 -->
<g id="node9" class="node">
<title>Node11</title>
<g id="a_node9"><a xlink:href="navier5_8f.html#adccbae2fb9aecfc757b8e177948267db" target="_top" xlink:title=" ">
<polygon fill="white" stroke="red" points="95.5,-38.5 95.5,-57.5 156.5,-57.5 156.5,-38.5 95.5,-38.5"/>
<text text-anchor="middle" x="126" y="-45.5" font-family="Helvetica,sans-Serif" font-size="10.00">build_filter</text>
</a>
</g>
</g>
<!-- Node8&#45;&gt;Node11 -->
<g id="edge8" class="edge">
<title>Node8&#45;&gt;Node11</title>
<path fill="none" stroke="midnightblue" d="M191.98,-74.41C178.71,-69.02 163.12,-62.68 150.54,-57.57"/>
<polygon fill="midnightblue" stroke="midnightblue" points="191,-77.79 201.58,-78.31 193.63,-71.3 191,-77.79"/>
</g>
<!-- Node14 -->
<g id="node10" class="node">
<title>Node14</title>
<g id="a_node10"><a xlink:href="navier8_8f.html#aae4a347bc7ce7b06fa7abf792db70953" target="_top" xlink:title=" ">
<polygon fill="white" stroke="red" points="86,-0.5 86,-19.5 166,-19.5 166,-0.5 86,-0.5"/>
<text text-anchor="middle" x="126" y="-7.5" font-family="Helvetica,sans-Serif" font-size="10.00">gen_crs_basis</text>
</a>
</g>
</g>
<!-- Node8&#45;&gt;Node14 -->
<g id="edge9" class="edge">
<title>Node8&#45;&gt;Node14</title>
<path fill="none" stroke="midnightblue" d="M206.25,-68.04C195.99,-55.93 181.31,-40.17 166,-29 161.13,-25.45 155.5,-22.26 150.05,-19.56"/>
<polygon fill="midnightblue" stroke="midnightblue" points="203.83,-70.61 212.89,-76.1 209.24,-66.16 203.83,-70.61"/>
</g>
</g>
</svg>
