<?xml version="1.0" encoding="UTF-8" standalone="no"?>
<!DOCTYPE svg PUBLIC "-//W3C//DTD SVG 1.1//EN"
 "http://www.w3.org/Graphics/SVG/1.1/DTD/svg11.dtd">
<!-- Generated by graphviz version 2.46.0 (0)
 -->
<!-- Title: chktolp Pages: 1 -->
<svg width="309pt" height="180pt"
 viewBox="0.00 0.00 309.00 180.00" xmlns="http://www.w3.org/2000/svg" xmlns:xlink="http://www.w3.org/1999/xlink">
<g id="graph0" class="graph" transform="scale(1 1) rotate(0) translate(4 176)">
<title>chktolp</title>
<polygon fill="white" stroke="transparent" points="-4,4 -4,-176 305,-176 305,4 -4,4"/>
<!-- Node1 -->
<g id="node1" class="node">
<title>Node1</title>
<g id="a_node1"><a xlink:title=" ">
<polygon fill="#bfbfbf" stroke="black" points="0,-76.5 0,-95.5 48,-95.5 48,-76.5 0,-76.5"/>
<text text-anchor="middle" x="24" y="-83.5" font-family="Helvetica,sans-Serif" font-size="10.00">chktolp</text>
</a>
</g>
</g>
<!-- Node2 -->
<g id="node2" class="node">
<title>Node2</title>
<g id="a_node2"><a xlink:href="math_8f.html#a3470db04166d9ba91454a14cc17dbec2" target="_top" xlink:title=" ">
<polygon fill="white" stroke="black" points="167.5,-152.5 167.5,-171.5 202.5,-171.5 202.5,-152.5 167.5,-152.5"/>
<text text-anchor="middle" x="185" y="-159.5" font-family="Helvetica,sans-Serif" font-size="10.00">col2</text>
</a>
</g>
</g>
<!-- Node1&#45;&gt;Node2 -->
<g id="edge1" class="edge">
<title>Node1&#45;&gt;Node2</title>
<path fill="none" stroke="midnightblue" d="M32.16,-95.84C42.2,-108.85 61.74,-131.47 84,-143 106.98,-154.91 136.4,-159.41 157.37,-161.08"/>
<polygon fill="midnightblue" stroke="midnightblue" points="157.28,-164.58 167.48,-161.72 157.72,-157.6 157.28,-164.58"/>
</g>
<!-- Node5 -->
<g id="node4" class="node">
<title>Node5</title>
<g id="a_node4"><a xlink:href="math_8f.html#a0d9af374781723c272547a185cb3da5e" target="_top" xlink:title=" ">
<polygon fill="white" stroke="black" points="89.5,-114.5 89.5,-133.5 124.5,-133.5 124.5,-114.5 89.5,-114.5"/>
<text text-anchor="middle" x="107" y="-121.5" font-family="Helvetica,sans-Serif" font-size="10.00">col3</text>
</a>
</g>
</g>
<!-- Node1&#45;&gt;Node5 -->
<g id="edge3" class="edge">
<title>Node1&#45;&gt;Node5</title>
<path fill="none" stroke="midnightblue" d="M45.44,-95.59C55.95,-100.52 68.88,-106.58 80.08,-111.84"/>
<polygon fill="midnightblue" stroke="midnightblue" points="78.84,-115.13 89.38,-116.2 81.82,-108.79 78.84,-115.13"/>
</g>
<!-- Node6 -->
<g id="node5" class="node">
<title>Node6</title>
<g id="a_node5"><a xlink:href="math_8f.html#ac231f0566c16504dadd6ba0f16a38bd9" target="_top" xlink:title=" ">
<polygon fill="white" stroke="black" points="85.5,-76.5 85.5,-95.5 128.5,-95.5 128.5,-76.5 85.5,-76.5"/>
<text text-anchor="middle" x="107" y="-83.5" font-family="Helvetica,sans-Serif" font-size="10.00">glsum</text>
</a>
</g>
</g>
<!-- Node1&#45;&gt;Node6 -->
<g id="edge5" class="edge">
<title>Node1&#45;&gt;Node6</title>
<path fill="none" stroke="midnightblue" d="M48.43,-86C56.82,-86 66.42,-86 75.33,-86"/>
<polygon fill="midnightblue" stroke="midnightblue" points="75.38,-89.5 85.38,-86 75.38,-82.5 75.38,-89.5"/>
</g>
<!-- Node9 -->
<g id="node7" class="node">
<title>Node9</title>
<g id="a_node7"><a xlink:href="navier1_8f.html#a58af49abaf1ee0cc07be356ad2721d90" target="_top" xlink:title=" ">
<polygon fill="white" stroke="red" points="87,-38.5 87,-57.5 127,-57.5 127,-38.5 87,-38.5"/>
<text text-anchor="middle" x="107" y="-45.5" font-family="Helvetica,sans-Serif" font-size="10.00">opdiv</text>
</a>
</g>
</g>
<!-- Node1&#45;&gt;Node9 -->
<g id="edge7" class="edge">
<title>Node1&#45;&gt;Node9</title>
<path fill="none" stroke="midnightblue" d="M45.44,-76.41C55.2,-71.83 67.04,-66.28 77.65,-61.3"/>
<polygon fill="midnightblue" stroke="midnightblue" points="79.39,-64.35 86.96,-56.93 76.42,-58.01 79.39,-64.35"/>
</g>
<!-- Node16 -->
<g id="node10" class="node">
<title>Node16</title>
<g id="a_node10"><a xlink:href="ssolv_8f.html#a2042097d2d5ef6c25e65f059e2c56756" target="_top" xlink:title=" ">
<polygon fill="white" stroke="red" points="84,-0.5 84,-19.5 130,-19.5 130,-0.5 84,-0.5"/>
<text text-anchor="middle" x="107" y="-7.5" font-family="Helvetica,sans-Serif" font-size="10.00">settolv</text>
</a>
</g>
</g>
<!-- Node1&#45;&gt;Node16 -->
<g id="edge11" class="edge">
<title>Node1&#45;&gt;Node16</title>
<path fill="none" stroke="midnightblue" d="M34.86,-76.15C46.45,-64.64 66.33,-45.14 84,-29 84.96,-28.12 85.96,-27.22 86.97,-26.32"/>
<polygon fill="midnightblue" stroke="midnightblue" points="89.49,-28.77 94.7,-19.55 84.87,-23.5 89.49,-28.77"/>
</g>
<!-- Node3 -->
<g id="node3" class="node">
<title>Node3</title>
<g id="a_node3"><a xlink:href="comm__mpi_8f.html#af06ec29f06aac3f8809e19de2a7e8946" target="_top" xlink:title=" ">
<polygon fill="white" stroke="red" points="240,-114.5 240,-133.5 301,-133.5 301,-114.5 240,-114.5"/>
<text text-anchor="middle" x="270.5" y="-121.5" font-family="Helvetica,sans-Serif" font-size="10.00">dnekclock</text>
</a>
</g>
</g>
<!-- Node2&#45;&gt;Node3 -->
<g id="edge2" class="edge">
<title>Node2&#45;&gt;Node3</title>
<path fill="none" stroke="midnightblue" d="M202.9,-154.31C213.28,-149.59 226.88,-143.4 239.08,-137.84"/>
<polygon fill="midnightblue" stroke="midnightblue" points="240.82,-140.9 248.48,-133.57 237.93,-134.52 240.82,-140.9"/>
</g>
<!-- Node5&#45;&gt;Node3 -->
<g id="edge4" class="edge">
<title>Node5&#45;&gt;Node3</title>
<path fill="none" stroke="midnightblue" d="M124.68,-124C149.29,-124 196.07,-124 229.81,-124"/>
<polygon fill="midnightblue" stroke="midnightblue" points="229.83,-127.5 239.83,-124 229.83,-120.5 229.83,-127.5"/>
</g>
<!-- Node7 -->
<g id="node6" class="node">
<title>Node7</title>
<g id="a_node6"><a xlink:href="gs__test__gop__blocking_8c.html#ab2e24f9857f6d1ded7e4d556c6bc5e49" target="_top" xlink:title=" ">
<polygon fill="white" stroke="red" points="169,-76.5 169,-95.5 201,-95.5 201,-76.5 169,-76.5"/>
<text text-anchor="middle" x="185" y="-83.5" font-family="Helvetica,sans-Serif" font-size="10.00">gop</text>
</a>
</g>
</g>
<!-- Node6&#45;&gt;Node7 -->
<g id="edge6" class="edge">
<title>Node6&#45;&gt;Node7</title>
<path fill="none" stroke="midnightblue" d="M128.77,-86C137.96,-86 148.87,-86 158.55,-86"/>
<polygon fill="midnightblue" stroke="midnightblue" points="158.8,-89.5 168.8,-86 158.8,-82.5 158.8,-89.5"/>
</g>
<!-- Node10 -->
<g id="node8" class="node">
<title>Node10</title>
<g id="a_node8"><a xlink:href="math_8f.html#a30b83d516b6ab162d3fafe73e03a3e92" target="_top" xlink:title=" ">
<polygon fill="white" stroke="black" points="166,-38.5 166,-57.5 204,-57.5 204,-38.5 166,-38.5"/>
<text text-anchor="middle" x="185" y="-45.5" font-family="Helvetica,sans-Serif" font-size="10.00">add2</text>
</a>
</g>
</g>
<!-- Node9&#45;&gt;Node10 -->
<g id="edge8" class="edge">
<title>Node9&#45;&gt;Node10</title>
<path fill="none" stroke="midnightblue" d="M127.18,-48C135.8,-48 146.16,-48 155.66,-48"/>
<polygon fill="midnightblue" stroke="midnightblue" points="155.87,-51.5 165.87,-48 155.87,-44.5 155.87,-51.5"/>
</g>
<!-- Node11 -->
<g id="node9" class="node">
<title>Node11</title>
<g id="a_node9"><a xlink:href="math_8f.html#a3b43508554f14bdea8e14473d7d0803c" target="_top" xlink:title=" ">
<polygon fill="white" stroke="black" points="166,-0.5 166,-19.5 204,-19.5 204,-0.5 166,-0.5"/>
<text text-anchor="middle" x="185" y="-7.5" font-family="Helvetica,sans-Serif" font-size="10.00">copy</text>
</a>
</g>
</g>
<!-- Node9&#45;&gt;Node11 -->
<g id="edge10" class="edge">
<title>Node9&#45;&gt;Node11</title>
<path fill="none" stroke="midnightblue" d="M127.18,-38.41C136.18,-33.91 147.06,-28.47 156.88,-23.56"/>
<polygon fill="midnightblue" stroke="midnightblue" points="158.5,-26.67 165.87,-19.06 155.37,-20.4 158.5,-26.67"/>
</g>
<!-- Node10&#45;&gt;Node3 -->
<g id="edge9" class="edge">
<title>Node10&#45;&gt;Node3</title>
<path fill="none" stroke="midnightblue" d="M196.58,-57.63C210.38,-70.19 234.74,-92.37 251.48,-107.6"/>
<polygon fill="midnightblue" stroke="midnightblue" points="249.26,-110.31 259.01,-114.45 253.97,-105.13 249.26,-110.31"/>
</g>
</g>
</svg>
