<?xml version="1.0" encoding="UTF-8" standalone="no"?>
<!DOCTYPE svg PUBLIC "-//W3C//DTD SVG 1.1//EN"
 "http://www.w3.org/Graphics/SVG/1.1/DTD/svg11.dtd">
<!-- Generated by graphviz version 2.46.0 (0)
 -->
<!-- Title: project Pages: 1 -->
<svg width="213pt" height="322pt"
 viewBox="0.00 0.00 213.00 322.00" xmlns="http://www.w3.org/2000/svg" xmlns:xlink="http://www.w3.org/1999/xlink">
<g id="graph0" class="graph" transform="scale(1 1) rotate(0) translate(4 318)">
<title>project</title>
<polygon fill="white" stroke="transparent" points="-4,4 -4,-318 209,-318 209,4 -4,4"/>
<!-- Node1 -->
<g id="node1" class="node">
<title>Node1</title>
<g id="a_node1"><a xlink:title=" ">
<polygon fill="#bfbfbf" stroke="black" points="0,-142.5 0,-161.5 46,-161.5 46,-142.5 0,-142.5"/>
<text text-anchor="middle" x="23" y="-149.5" font-family="Helvetica,sans-Serif" font-size="10.00">project</text>
</a>
</g>
</g>
<!-- Node2 -->
<g id="node2" class="node">
<title>Node2</title>
<g id="a_node2"><a xlink:href="math_8f.html#af75d691116fa36c290d6a2848b113928" target="_top" xlink:title=" ">
<polygon fill="white" stroke="black" points="84,-294.5 84,-313.5 129,-313.5 129,-294.5 84,-294.5"/>
<text text-anchor="middle" x="106.5" y="-301.5" font-family="Helvetica,sans-Serif" font-size="10.00">chsign</text>
</a>
</g>
</g>
<!-- Node1&#45;&gt;Node2 -->
<g id="edge1" class="edge">
<title>Node1&#45;&gt;Node2</title>
<path fill="none" stroke="midnightblue" d="M26.44,-161.51C32.7,-184.53 51.01,-244.32 82,-285 82.56,-285.73 83.15,-286.45 83.76,-287.16"/>
<polygon fill="midnightblue" stroke="midnightblue" points="81.41,-289.75 91.06,-294.14 86.26,-284.7 81.41,-289.75"/>
</g>
<!-- Node3 -->
<g id="node3" class="node">
<title>Node3</title>
<g id="a_node3"><a xlink:href="navier1_8f.html#ad1bbe02eb4b6eb1d16f7612e1947dac5" target="_top" xlink:title=" ">
<polygon fill="white" stroke="red" points="82.5,-256.5 82.5,-275.5 130.5,-275.5 130.5,-256.5 82.5,-256.5"/>
<text text-anchor="middle" x="106.5" y="-263.5" font-family="Helvetica,sans-Serif" font-size="10.00">opadd2</text>
</a>
</g>
</g>
<!-- Node1&#45;&gt;Node3 -->
<g id="edge2" class="edge">
<title>Node1&#45;&gt;Node3</title>
<path fill="none" stroke="midnightblue" d="M28.48,-161.61C37.15,-179.61 57.55,-219.09 82,-247 82.73,-247.83 83.49,-248.65 84.28,-249.46"/>
<polygon fill="midnightblue" stroke="midnightblue" points="82.09,-252.19 91.86,-256.28 86.77,-246.99 82.09,-252.19"/>
</g>
<!-- Node7 -->
<g id="node4" class="node">
<title>Node7</title>
<g id="a_node4"><a xlink:href="navier1_8f.html#a4d7a006ce8ef086e842bc09f74169951" target="_top" xlink:title=" ">
<polygon fill="white" stroke="red" points="84,-218.5 84,-237.5 129,-237.5 129,-218.5 84,-218.5"/>
<text text-anchor="middle" x="106.5" y="-225.5" font-family="Helvetica,sans-Serif" font-size="10.00">opbinv</text>
</a>
</g>
</g>
<!-- Node1&#45;&gt;Node7 -->
<g id="edge3" class="edge">
<title>Node1&#45;&gt;Node7</title>
<path fill="none" stroke="midnightblue" d="M33.17,-161.57C44.39,-173.13 64.09,-193.02 82,-209 82.97,-209.86 83.97,-210.74 84.99,-211.61"/>
<polygon fill="midnightblue" stroke="midnightblue" points="82.94,-214.47 92.87,-218.16 87.42,-209.08 82.94,-214.47"/>
</g>
<!-- Node28 -->
<g id="node5" class="node">
<title>Node28</title>
<g id="a_node5"><a xlink:href="navier1_8f.html#a58af49abaf1ee0cc07be356ad2721d90" target="_top" xlink:title=" ">
<polygon fill="white" stroke="red" points="86.5,-180.5 86.5,-199.5 126.5,-199.5 126.5,-180.5 86.5,-180.5"/>
<text text-anchor="middle" x="106.5" y="-187.5" font-family="Helvetica,sans-Serif" font-size="10.00">opdiv</text>
</a>
</g>
</g>
<!-- Node1&#45;&gt;Node28 -->
<g id="edge4" class="edge">
<title>Node1&#45;&gt;Node28</title>
<path fill="none" stroke="midnightblue" d="M44.57,-161.59C54.39,-166.17 66.3,-171.72 76.98,-176.7"/>
<polygon fill="midnightblue" stroke="midnightblue" points="75.8,-180.01 86.34,-181.07 78.76,-173.67 75.8,-180.01"/>
</g>
<!-- Node34 -->
<g id="node6" class="node">
<title>Node34</title>
<g id="a_node6"><a xlink:href="navier1_8f.html#a0319e77dcb754cfe343f5e1e0a54f8dd" target="_top" xlink:title=" ">
<polygon fill="white" stroke="red" points="82,-142.5 82,-161.5 131,-161.5 131,-142.5 82,-142.5"/>
<text text-anchor="middle" x="106.5" y="-149.5" font-family="Helvetica,sans-Serif" font-size="10.00">opgradt</text>
</a>
</g>
</g>
<!-- Node1&#45;&gt;Node34 -->
<g id="edge5" class="edge">
<title>Node1&#45;&gt;Node34</title>
<path fill="none" stroke="midnightblue" d="M46.27,-152C54.11,-152 63.11,-152 71.69,-152"/>
<polygon fill="midnightblue" stroke="midnightblue" points="71.83,-155.5 81.83,-152 71.83,-148.5 71.83,-155.5"/>
</g>
<!-- Node36 -->
<g id="node7" class="node">
<title>Node36</title>
<g id="a_node7"><a xlink:href="navier1_8f.html#a4905d51f51b57bfec184a6b44f858bdb" target="_top" xlink:title=" ">
<polygon fill="white" stroke="red" points="167,-47.5 167,-66.5 205,-66.5 205,-47.5 167,-47.5"/>
<text text-anchor="middle" x="186" y="-54.5" font-family="Helvetica,sans-Serif" font-size="10.00">ortho</text>
</a>
</g>
</g>
<!-- Node1&#45;&gt;Node36 -->
<g id="edge6" class="edge">
<title>Node1&#45;&gt;Node36</title>
<path fill="none" stroke="midnightblue" d="M43.73,-142.41C65.52,-131.61 101.42,-113.19 131,-95 142.21,-88.1 154.23,-79.75 164.08,-72.63"/>
<polygon fill="midnightblue" stroke="midnightblue" points="166.43,-75.25 172.43,-66.52 162.29,-69.6 166.43,-75.25"/>
</g>
<!-- Node48 -->
<g id="node8" class="node">
<title>Node48</title>
<g id="a_node8"><a xlink:href="math_8f.html#ae1294c8ac3b5b3c38bbcc250d252b9cb" target="_top" xlink:title=" ">
<polygon fill="white" stroke="black" points="89,-66.5 89,-85.5 124,-85.5 124,-66.5 89,-66.5"/>
<text text-anchor="middle" x="106.5" y="-73.5" font-family="Helvetica,sans-Serif" font-size="10.00">rone</text>
</a>
</g>
</g>
<!-- Node1&#45;&gt;Node48 -->
<g id="edge7" class="edge">
<title>Node1&#45;&gt;Node48</title>
<path fill="none" stroke="midnightblue" d="M34.32,-142.37C47.79,-129.81 71.58,-107.63 87.92,-92.4"/>
<polygon fill="midnightblue" stroke="midnightblue" points="90.34,-94.93 95.26,-85.55 85.56,-89.81 90.34,-94.93"/>
</g>
<!-- Node33 -->
<g id="node9" class="node">
<title>Node33</title>
<g id="a_node9"><a xlink:href="math_8f.html#af44de42b023a4a68cd98ea341204342d" target="_top" xlink:title=" ">
<polygon fill="white" stroke="black" points="167,-0.5 167,-19.5 205,-19.5 205,-0.5 167,-0.5"/>
<text text-anchor="middle" x="186" y="-7.5" font-family="Helvetica,sans-Serif" font-size="10.00">rzero</text>
</a>
</g>
</g>
<!-- Node1&#45;&gt;Node33 -->
<g id="edge8" class="edge">
<title>Node1&#45;&gt;Node33</title>
<path fill="none" stroke="midnightblue" d="M24.95,-142.23C27.99,-116.95 39.87,-49.29 82,-19 103.42,-3.6 134.19,-2.92 156.51,-5.13"/>
<polygon fill="midnightblue" stroke="midnightblue" points="156.36,-8.63 166.72,-6.39 157.22,-1.69 156.36,-8.63"/>
</g>
<!-- Node49 -->
<g id="node10" class="node">
<title>Node49</title>
<g id="a_node10"><a xlink:href="navier1_8f.html#a159801e9971330a0281ce3a6f984b7de" target="_top" xlink:title=" ">
<polygon fill="white" stroke="red" points="84,-28.5 84,-47.5 129,-47.5 129,-28.5 84,-28.5"/>
<text text-anchor="middle" x="106.5" y="-35.5" font-family="Helvetica,sans-Serif" font-size="10.00">uzawa</text>
</a>
</g>
</g>
<!-- Node1&#45;&gt;Node49 -->
<g id="edge9" class="edge">
<title>Node1&#45;&gt;Node49</title>
<path fill="none" stroke="midnightblue" d="M28.48,-142.39C37.15,-124.39 57.55,-84.91 82,-57 82.73,-56.17 83.49,-55.35 84.28,-54.54"/>
<polygon fill="midnightblue" stroke="midnightblue" points="86.77,-57.01 91.86,-47.72 82.09,-51.81 86.77,-57.01"/>
</g>
<!-- Node49&#45;&gt;Node36 -->
<g id="edge10" class="edge">
<title>Node49&#45;&gt;Node36</title>
<path fill="none" stroke="midnightblue" d="M129.09,-43.29C137.74,-45.41 147.83,-47.89 157.04,-50.14"/>
<polygon fill="midnightblue" stroke="midnightblue" points="156.39,-53.59 166.93,-52.57 158.05,-46.79 156.39,-53.59"/>
</g>
<!-- Node49&#45;&gt;Node33 -->
<g id="edge11" class="edge">
<title>Node49&#45;&gt;Node33</title>
<path fill="none" stroke="midnightblue" d="M129.09,-30.2C137.84,-27.04 148.05,-23.35 157.33,-20"/>
<polygon fill="midnightblue" stroke="midnightblue" points="158.72,-23.22 166.93,-16.53 156.34,-16.63 158.72,-23.22"/>
</g>
</g>
</svg>
