<?xml version="1.0" encoding="UTF-8" standalone="no"?>
<!DOCTYPE svg PUBLIC "-//W3C//DTD SVG 1.1//EN"
 "http://www.w3.org/Graphics/SVG/1.1/DTD/svg11.dtd">
<!-- Generated by graphviz version 2.46.0 (0)
 -->
<!-- Title: filllag Pages: 1 -->
<svg width="283pt" height="104pt"
 viewBox="0.00 0.00 283.00 104.00" xmlns="http://www.w3.org/2000/svg" xmlns:xlink="http://www.w3.org/1999/xlink">
<g id="graph0" class="graph" transform="scale(1 1) rotate(0) translate(4 100)">
<title>filllag</title>
<polygon fill="white" stroke="transparent" points="-4,4 -4,-100 279,-100 279,4 -4,4"/>
<!-- Node1 -->
<g id="node1" class="node">
<title>Node1</title>
<g id="a_node1"><a xlink:title=" ">
<polygon fill="#bfbfbf" stroke="black" points="0,-57.5 0,-76.5 39,-76.5 39,-57.5 0,-57.5"/>
<text text-anchor="middle" x="19.5" y="-64.5" font-family="Helvetica,sans-Serif" font-size="10.00">filllag</text>
</a>
</g>
</g>
<!-- Node2 -->
<g id="node2" class="node">
<title>Node2</title>
<g id="a_node2"><a xlink:href="conduct_8f.html#acb622305abc4fe92c813db8b4f298459" target="_top" xlink:title=" ">
<polygon fill="white" stroke="black" points="153.5,-76.5 153.5,-95.5 200.5,-95.5 200.5,-76.5 153.5,-76.5"/>
<text text-anchor="middle" x="177" y="-83.5" font-family="Helvetica,sans-Serif" font-size="10.00">lagscal</text>
</a>
</g>
</g>
<!-- Node1&#45;&gt;Node2 -->
<g id="edge1" class="edge">
<title>Node1&#45;&gt;Node2</title>
<path fill="none" stroke="midnightblue" d="M39.26,-69.29C65.02,-72.44 111.75,-78.15 143.33,-82.01"/>
<polygon fill="midnightblue" stroke="midnightblue" points="143.05,-85.5 153.4,-83.24 143.9,-78.55 143.05,-85.5"/>
</g>
<!-- Node4 -->
<g id="node4" class="node">
<title>Node4</title>
<g id="a_node4"><a xlink:href="navier1_8f.html#a83d718e9b1893670bcd6f299a7751366" target="_top" xlink:title=" ">
<polygon fill="white" stroke="black" points="75,-38.5 75,-57.5 117,-57.5 117,-38.5 75,-38.5"/>
<text text-anchor="middle" x="96" y="-45.5" font-family="Helvetica,sans-Serif" font-size="10.00">lagvel</text>
</a>
</g>
</g>
<!-- Node1&#45;&gt;Node4 -->
<g id="edge3" class="edge">
<title>Node1&#45;&gt;Node4</title>
<path fill="none" stroke="midnightblue" d="M39.3,-62.21C47.11,-60.21 56.36,-57.85 65.06,-55.64"/>
<polygon fill="midnightblue" stroke="midnightblue" points="66.08,-58.99 74.9,-53.13 64.35,-52.21 66.08,-58.99"/>
</g>
<!-- Node3 -->
<g id="node3" class="node">
<title>Node3</title>
<g id="a_node3"><a xlink:href="math_8f.html#a3b43508554f14bdea8e14473d7d0803c" target="_top" xlink:title=" ">
<polygon fill="white" stroke="black" points="237,-38.5 237,-57.5 275,-57.5 275,-38.5 237,-38.5"/>
<text text-anchor="middle" x="256" y="-45.5" font-family="Helvetica,sans-Serif" font-size="10.00">copy</text>
</a>
</g>
</g>
<!-- Node2&#45;&gt;Node3 -->
<g id="edge2" class="edge">
<title>Node2&#45;&gt;Node3</title>
<path fill="none" stroke="midnightblue" d="M197.43,-76.41C206.61,-71.88 217.73,-66.39 227.74,-61.45"/>
<polygon fill="midnightblue" stroke="midnightblue" points="229.48,-64.5 236.9,-56.93 226.38,-58.22 229.48,-64.5"/>
</g>
<!-- Node4&#45;&gt;Node3 -->
<g id="edge4" class="edge">
<title>Node4&#45;&gt;Node3</title>
<path fill="none" stroke="midnightblue" d="M117.01,-48C144.64,-48 194.65,-48 226.27,-48"/>
<polygon fill="midnightblue" stroke="midnightblue" points="226.62,-51.5 236.62,-48 226.62,-44.5 226.62,-51.5"/>
</g>
<!-- Node5 -->
<g id="node5" class="node">
<title>Node5</title>
<g id="a_node5"><a xlink:href="navier1_8f.html#a55f0c02db80925df02a6998e17985478" target="_top" xlink:title=" ">
<polygon fill="white" stroke="black" points="153,-0.5 153,-19.5 201,-19.5 201,-0.5 153,-0.5"/>
<text text-anchor="middle" x="177" y="-7.5" font-family="Helvetica,sans-Serif" font-size="10.00">opcopy</text>
</a>
</g>
</g>
<!-- Node4&#45;&gt;Node5 -->
<g id="edge5" class="edge">
<title>Node4&#45;&gt;Node5</title>
<path fill="none" stroke="midnightblue" d="M116.94,-38.41C126.01,-34.05 136.93,-28.79 146.9,-24"/>
<polygon fill="midnightblue" stroke="midnightblue" points="148.58,-27.07 156.07,-19.59 145.54,-20.77 148.58,-27.07"/>
</g>
<!-- Node5&#45;&gt;Node3 -->
<g id="edge6" class="edge">
<title>Node5&#45;&gt;Node3</title>
<path fill="none" stroke="midnightblue" d="M197.43,-19.59C206.61,-24.12 217.73,-29.61 227.74,-34.55"/>
<polygon fill="midnightblue" stroke="midnightblue" points="226.38,-37.78 236.9,-39.07 229.48,-31.5 226.38,-37.78"/>
</g>
</g>
</svg>
