<?xml version="1.0" encoding="UTF-8" standalone="no"?>
<!DOCTYPE svg PUBLIC "-//W3C//DTD SVG 1.1//EN"
 "http://www.w3.org/Graphics/SVG/1.1/DTD/svg11.dtd">
<!-- Generated by graphviz version 2.46.0 (0)
 -->
<!-- Title: crystal Pages: 1 -->
<svg width="108pt" height="106pt"
 viewBox="0.00 0.00 108.00 106.00" xmlns="http://www.w3.org/2000/svg" xmlns:xlink="http://www.w3.org/1999/xlink">
<g id="graph0" class="graph" transform="scale(1 1) rotate(0) translate(4 102)">
<title>crystal</title>
<polygon fill="white" stroke="transparent" points="-4,4 -4,-102 104,-102 104,4 -4,4"/>
<!-- Node1 -->
<g id="node1" class="node">
<title>Node1</title>
<g id="a_node1"><a xlink:title=" ">
<polygon fill="#bfbfbf" stroke="black" points="25,-0.5 25,-19.5 71,-19.5 71,-0.5 25,-0.5"/>
<text text-anchor="middle" x="48" y="-7.5" font-family="Helvetica,sans-Serif" font-size="10.00">crystal</text>
</a>
</g>
</g>
<!-- Node2 -->
<g id="node2" class="node">
<title>Node2</title>
<g id="a_node2"><a xlink:href="structarray.html" target="_top" xlink:title=" ">
<polygon fill="white" stroke="black" points="0,-78.5 0,-97.5 38,-97.5 38,-78.5 0,-78.5"/>
<text text-anchor="middle" x="19" y="-85.5" font-family="Helvetica,sans-Serif" font-size="10.00">array</text>
</a>
</g>
</g>
<!-- Node2&#45;&gt;Node1 -->
<g id="edge1" class="edge">
<title>Node2&#45;&gt;Node1</title>
<path fill="none" stroke="#9a32cd" stroke-dasharray="5,2" d="M23.83,-68.41C26.46,-59.14 29.99,-47.83 34,-38 36.56,-31.74 40.06,-24.99 42.92,-19.81"/>
<polygon fill="#9a32cd" stroke="#9a32cd" points="20.43,-67.59 21.19,-78.16 27.18,-69.42 20.43,-67.59"/>
<text text-anchor="middle" x="45" y="-52" font-family="Helvetica,sans-Serif" font-size="10.00"> data</text>
<text text-anchor="middle" x="45" y="-41" font-family="Helvetica,sans-Serif" font-size="10.00">work</text>
</g>
<!-- Node3 -->
<g id="node3" class="node">
<title>Node3</title>
<g id="a_node3"><a xlink:href="structcomm.html" target="_top" xlink:title=" ">
<polygon fill="white" stroke="black" points="56,-78.5 56,-97.5 100,-97.5 100,-78.5 56,-78.5"/>
<text text-anchor="middle" x="78" y="-85.5" font-family="Helvetica,sans-Serif" font-size="10.00">comm</text>
</a>
</g>
</g>
<!-- Node3&#45;&gt;Node1 -->
<g id="edge2" class="edge">
<title>Node3&#45;&gt;Node1</title>
<path fill="none" stroke="#9a32cd" stroke-dasharray="5,2" d="M70.77,-68.67C64.62,-53.11 56.08,-31.47 51.4,-19.62"/>
<polygon fill="#9a32cd" stroke="#9a32cd" points="67.63,-70.27 74.56,-78.28 74.14,-67.7 67.63,-70.27"/>
<text text-anchor="middle" x="81.5" y="-46.5" font-family="Helvetica,sans-Serif" font-size="10.00"> comm</text>
</g>
</g>
</svg>
