<?xml version="1.0" encoding="UTF-8" standalone="no"?>
<!DOCTYPE svg PUBLIC "-//W3C//DTD SVG 1.1//EN"
 "http://www.w3.org/Graphics/SVG/1.1/DTD/svg11.dtd">
<!-- Generated by graphviz version 2.46.0 (0)
 -->
<!-- Title: findpts_local_data_3 Pages: 1 -->
<svg width="548pt" height="162pt"
 viewBox="0.00 0.00 547.50 162.00" xmlns="http://www.w3.org/2000/svg" xmlns:xlink="http://www.w3.org/1999/xlink">
<g id="graph0" class="graph" transform="scale(1 1) rotate(0) translate(4 158)">
<title>findpts_local_data_3</title>
<polygon fill="white" stroke="transparent" points="-4,4 -4,-158 543.5,-158 543.5,4 -4,4"/>
<!-- Node1 -->
<g id="node1" class="node">
<title>Node1</title>
<g id="a_node1"><a xlink:title=" ">
<polygon fill="#bfbfbf" stroke="black" points="124,-0.5 124,-19.5 230,-19.5 230,-0.5 124,-0.5"/>
<text text-anchor="middle" x="177" y="-7.5" font-family="Helvetica,sans-Serif" font-size="10.00">findpts_local_data_3</text>
</a>
</g>
</g>
<!-- Node2 -->
<g id="node2" class="node">
<title>Node2</title>
<g id="a_node2"><a xlink:href="structfindpts__local__hash__data__3.html" target="_top" xlink:title=" ">
<polygon fill="white" stroke="black" points="0,-67.5 0,-86.5 132,-86.5 132,-67.5 0,-67.5"/>
<text text-anchor="middle" x="66" y="-74.5" font-family="Helvetica,sans-Serif" font-size="10.00">findpts_local_hash_data_3</text>
</a>
</g>
</g>
<!-- Node2&#45;&gt;Node1 -->
<g id="edge1" class="edge">
<title>Node2&#45;&gt;Node1</title>
<path fill="none" stroke="#9a32cd" stroke-dasharray="5,2" d="M89.71,-62.12C111.7,-49.24 143.74,-30.48 162.27,-19.63"/>
<polygon fill="#9a32cd" stroke="#9a32cd" points="87.83,-59.16 80.97,-67.23 91.37,-65.2 87.83,-59.16"/>
<text text-anchor="middle" x="136" y="-41" font-family="Helvetica,sans-Serif" font-size="10.00"> hd</text>
</g>
<!-- Node3 -->
<g id="node3" class="node">
<title>Node3</title>
<g id="a_node3"><a xlink:href="structdbl__range.html" target="_top" xlink:title=" ">
<polygon fill="white" stroke="black" points="36.5,-134.5 36.5,-153.5 95.5,-153.5 95.5,-134.5 36.5,-134.5"/>
<text text-anchor="middle" x="66" y="-141.5" font-family="Helvetica,sans-Serif" font-size="10.00">dbl_range</text>
</a>
</g>
</g>
<!-- Node3&#45;&gt;Node2 -->
<g id="edge2" class="edge">
<title>Node3&#45;&gt;Node2</title>
<path fill="none" stroke="#9a32cd" stroke-dasharray="5,2" d="M66,-124.04C66,-111.67 66,-96.12 66,-86.63"/>
<polygon fill="#9a32cd" stroke="#9a32cd" points="62.5,-124.23 66,-134.23 69.5,-124.23 62.5,-124.23"/>
<text text-anchor="middle" x="75.5" y="-108" font-family="Helvetica,sans-Serif" font-size="10.00"> bnd</text>
</g>
<!-- Node4 -->
<g id="node4" class="node">
<title>Node4</title>
<g id="a_node4"><a xlink:href="structobbox__3.html" target="_top" xlink:title=" ">
<polygon fill="white" stroke="black" points="150.5,-67.5 150.5,-86.5 203.5,-86.5 203.5,-67.5 150.5,-67.5"/>
<text text-anchor="middle" x="177" y="-74.5" font-family="Helvetica,sans-Serif" font-size="10.00">obbox_3</text>
</a>
</g>
</g>
<!-- Node3&#45;&gt;Node4 -->
<g id="edge4" class="edge">
<title>Node3&#45;&gt;Node4</title>
<path fill="none" stroke="#9a32cd" stroke-dasharray="5,2" d="M89.71,-129.12C111.7,-116.24 143.74,-97.48 162.27,-86.63"/>
<polygon fill="#9a32cd" stroke="#9a32cd" points="87.83,-126.16 80.97,-134.23 91.37,-132.2 87.83,-126.16"/>
<text text-anchor="middle" x="133.5" y="-108" font-family="Helvetica,sans-Serif" font-size="10.00"> x</text>
</g>
<!-- Node4&#45;&gt;Node1 -->
<g id="edge3" class="edge">
<title>Node4&#45;&gt;Node1</title>
<path fill="none" stroke="#9a32cd" stroke-dasharray="5,2" d="M177,-57.04C177,-44.67 177,-29.12 177,-19.63"/>
<polygon fill="#9a32cd" stroke="#9a32cd" points="173.5,-57.23 177,-67.23 180.5,-57.23 173.5,-57.23"/>
<text text-anchor="middle" x="186.5" y="-41" font-family="Helvetica,sans-Serif" font-size="10.00"> obb</text>
</g>
<!-- Node5 -->
<g id="node5" class="node">
<title>Node5</title>
<g id="a_node5"><a xlink:href="structfindpts__el__data__3.html" target="_top" xlink:title=" ">
<polygon fill="white" stroke="black" points="234.5,-67.5 234.5,-86.5 327.5,-86.5 327.5,-67.5 234.5,-67.5"/>
<text text-anchor="middle" x="281" y="-74.5" font-family="Helvetica,sans-Serif" font-size="10.00">findpts_el_data_3</text>
</a>
</g>
</g>
<!-- Node5&#45;&gt;Node1 -->
<g id="edge5" class="edge">
<title>Node5&#45;&gt;Node1</title>
<path fill="none" stroke="#9a32cd" stroke-dasharray="5,2" d="M258.23,-61.77C237.64,-48.9 208.01,-30.38 190.8,-19.63"/>
<polygon fill="#9a32cd" stroke="#9a32cd" points="256.64,-64.9 266.97,-67.23 260.35,-58.97 256.64,-64.9"/>
<text text-anchor="middle" x="244.5" y="-41" font-family="Helvetica,sans-Serif" font-size="10.00"> fed</text>
</g>
<!-- Node6 -->
<g id="node6" class="node">
<title>Node6</title>
<g id="a_node6"><a xlink:href="structfindpts__el__gface__3.html" target="_top" xlink:title=" ">
<polygon fill="white" stroke="black" points="114,-134.5 114,-153.5 212,-153.5 212,-134.5 114,-134.5"/>
<text text-anchor="middle" x="163" y="-141.5" font-family="Helvetica,sans-Serif" font-size="10.00">findpts_el_gface_3</text>
</a>
</g>
</g>
<!-- Node6&#45;&gt;Node5 -->
<g id="edge6" class="edge">
<title>Node6&#45;&gt;Node5</title>
<path fill="none" stroke="#9a32cd" stroke-dasharray="5,2" d="M187.89,-129.29C211.28,-116.4 245.56,-97.52 265.34,-86.63"/>
<polygon fill="#9a32cd" stroke="#9a32cd" points="185.98,-126.34 178.91,-134.23 189.36,-132.47 185.98,-126.34"/>
<text text-anchor="middle" x="241" y="-108" font-family="Helvetica,sans-Serif" font-size="10.00"> face</text>
</g>
<!-- Node7 -->
<g id="node7" class="node">
<title>Node7</title>
<g id="a_node7"><a xlink:href="structfindpts__el__gedge__3.html" target="_top" xlink:title=" ">
<polygon fill="white" stroke="black" points="230.5,-134.5 230.5,-153.5 331.5,-153.5 331.5,-134.5 230.5,-134.5"/>
<text text-anchor="middle" x="281" y="-141.5" font-family="Helvetica,sans-Serif" font-size="10.00">findpts_el_gedge_3</text>
</a>
</g>
</g>
<!-- Node7&#45;&gt;Node5 -->
<g id="edge7" class="edge">
<title>Node7&#45;&gt;Node5</title>
<path fill="none" stroke="#9a32cd" stroke-dasharray="5,2" d="M281,-124.04C281,-111.67 281,-96.12 281,-86.63"/>
<polygon fill="#9a32cd" stroke="#9a32cd" points="277.5,-124.23 281,-134.23 284.5,-124.23 277.5,-124.23"/>
<text text-anchor="middle" x="293.5" y="-108" font-family="Helvetica,sans-Serif" font-size="10.00"> edge</text>
</g>
<!-- Node8 -->
<g id="node8" class="node">
<title>Node8</title>
<g id="a_node8"><a xlink:href="structfindpts__el__gpt__3.html" target="_top" xlink:title=" ">
<polygon fill="white" stroke="black" points="350,-134.5 350,-153.5 438,-153.5 438,-134.5 350,-134.5"/>
<text text-anchor="middle" x="394" y="-141.5" font-family="Helvetica,sans-Serif" font-size="10.00">findpts_el_gpt_3</text>
</a>
</g>
</g>
<!-- Node8&#45;&gt;Node5 -->
<g id="edge8" class="edge">
<title>Node8&#45;&gt;Node5</title>
<path fill="none" stroke="#9a32cd" stroke-dasharray="5,2" d="M369.86,-129.12C347.47,-116.24 314.86,-97.48 296,-86.63"/>
<polygon fill="#9a32cd" stroke="#9a32cd" points="368.35,-132.28 378.76,-134.23 371.84,-126.21 368.35,-132.28"/>
<text text-anchor="middle" x="351" y="-108" font-family="Helvetica,sans-Serif" font-size="10.00"> pt</text>
</g>
<!-- Node9 -->
<g id="node9" class="node">
<title>Node9</title>
<g id="a_node9"><a xlink:href="structfindpts__el__pt__3.html" target="_top" xlink:title=" ">
<polygon fill="white" stroke="black" points="456.5,-134.5 456.5,-153.5 539.5,-153.5 539.5,-134.5 456.5,-134.5"/>
<text text-anchor="middle" x="498" y="-141.5" font-family="Helvetica,sans-Serif" font-size="10.00">findpts_el_pt_3</text>
</a>
</g>
</g>
<!-- Node9&#45;&gt;Node5 -->
<g id="edge9" class="edge">
<title>Node9&#45;&gt;Node5</title>
<path fill="none" stroke="#9a32cd" stroke-dasharray="5,2" d="M459.37,-131.43C416.4,-118.56 348,-98.07 309.59,-86.56"/>
<polygon fill="#9a32cd" stroke="#9a32cd" points="458.6,-134.85 469.18,-134.37 460.61,-128.15 458.6,-134.85"/>
<text text-anchor="middle" x="407.5" y="-108" font-family="Helvetica,sans-Serif" font-size="10.00"> p</text>
</g>
</g>
</svg>
