<?xml version="1.0" encoding="UTF-8" standalone="no"?>
<!DOCTYPE svg PUBLIC "-//W3C//DTD SVG 1.1//EN"
 "http://www.w3.org/Graphics/SVG/1.1/DTD/svg11.dtd">
<!-- Generated by graphviz version 2.46.0 (0)
 -->
<!-- Title: cvgnlps Pages: 1 -->
<svg width="378pt" height="246pt"
 viewBox="0.00 0.00 378.00 246.12" xmlns="http://www.w3.org/2000/svg" xmlns:xlink="http://www.w3.org/1999/xlink">
<g id="graph0" class="graph" transform="scale(1 1) rotate(0) translate(4 242.12)">
<title>cvgnlps</title>
<polygon fill="white" stroke="transparent" points="-4,4 -4,-242.12 374,-242.12 374,4 -4,4"/>
<!-- Node1 -->
<g id="node1" class="node">
<title>Node1</title>
<g id="a_node1"><a xlink:title=" ">
<polygon fill="#bfbfbf" stroke="black" points="0,-88.83 0,-107.83 50,-107.83 50,-88.83 0,-88.83"/>
<text text-anchor="middle" x="25" y="-95.83" font-family="Helvetica,sans-Serif" font-size="10.00">cvgnlps</text>
</a>
</g>
</g>
<!-- Node2 -->
<g id="node2" class="node">
<title>Node2</title>
<g id="a_node2"><a xlink:href="subs1_8f.html#a8f2e17fa9df4e1df865aa17b294f867c" target="_top" xlink:title=" ">
<polygon fill="white" stroke="black" points="86,-88.83 86,-107.83 130,-107.83 130,-88.83 86,-88.83"/>
<text text-anchor="middle" x="108" y="-95.83" font-family="Helvetica,sans-Serif" font-size="10.00">unorm</text>
</a>
</g>
</g>
<!-- Node1&#45;&gt;Node2 -->
<g id="edge1" class="edge">
<title>Node1&#45;&gt;Node2</title>
<path fill="none" stroke="midnightblue" d="M50.3,-98.33C58.23,-98.33 67.15,-98.33 75.53,-98.33"/>
<polygon fill="midnightblue" stroke="midnightblue" points="75.74,-101.84 85.74,-98.33 75.74,-94.84 75.74,-101.84"/>
</g>
<!-- Node3 -->
<g id="node3" class="node">
<title>Node3</title>
<g id="a_node3"><a xlink:href="navier1_8f.html#af8f288bd13e9077cfadcd76c95c59dc5" target="_top" xlink:title=" ">
<polygon fill="white" stroke="red" points="166,-126.83 166,-145.83 215,-145.83 215,-126.83 166,-126.83"/>
<text text-anchor="middle" x="190.5" y="-133.83" font-family="Helvetica,sans-Serif" font-size="10.00">normsc</text>
</a>
</g>
</g>
<!-- Node2&#45;&gt;Node3 -->
<g id="edge2" class="edge">
<title>Node2&#45;&gt;Node3</title>
<path fill="none" stroke="midnightblue" d="M129.31,-107.92C138.56,-112.29 149.69,-117.54 159.84,-122.34"/>
<polygon fill="midnightblue" stroke="midnightblue" points="158.66,-125.65 169.19,-126.75 161.64,-119.32 158.66,-125.65"/>
</g>
<!-- Node26 -->
<g id="node10" class="node">
<title>Node26</title>
<g id="a_node10"><a xlink:href="navier1_8f.html#a99a692f0ae41114b4725a9cf62458f1f" target="_top" xlink:title=" ">
<polygon fill="white" stroke="red" points="166,-69.83 166,-88.83 215,-88.83 215,-69.83 166,-69.83"/>
<text text-anchor="middle" x="190.5" y="-76.83" font-family="Helvetica,sans-Serif" font-size="10.00">normvc</text>
</a>
</g>
</g>
<!-- Node2&#45;&gt;Node26 -->
<g id="edge11" class="edge">
<title>Node2&#45;&gt;Node26</title>
<path fill="none" stroke="midnightblue" d="M130.15,-93.34C138.05,-91.48 147.23,-89.31 155.98,-87.25"/>
<polygon fill="midnightblue" stroke="midnightblue" points="157.01,-90.6 165.94,-84.9 155.4,-83.79 157.01,-90.6"/>
</g>
<!-- Node4 -->
<g id="node4" class="node">
<title>Node4</title>
<g id="a_node4"><a xlink:href="hmholtz_8f.html#aa576b5bd623cce50fd6323db12ba5376" target="_top" xlink:title=" ">
<polygon fill="white" stroke="red" points="251,-202.83 251,-221.83 299,-221.83 299,-202.83 251,-202.83"/>
<text text-anchor="middle" x="275" y="-209.83" font-family="Helvetica,sans-Serif" font-size="10.00">axhelm</text>
</a>
</g>
</g>
<!-- Node3&#45;&gt;Node4 -->
<g id="edge3" class="edge">
<title>Node3&#45;&gt;Node4</title>
<path fill="none" stroke="midnightblue" d="M201.95,-145.96C215.59,-158.52 239.66,-180.7 256.2,-195.94"/>
<polygon fill="midnightblue" stroke="midnightblue" points="253.91,-198.59 263.64,-202.79 258.65,-193.44 253.91,-198.59"/>
</g>
<!-- Node12 -->
<g id="node5" class="node">
<title>Node12</title>
<g id="a_node5"><a xlink:href="math_8f.html#a3470db04166d9ba91454a14cc17dbec2" target="_top" xlink:title=" ">
<polygon fill="white" stroke="red" points="335,-164.83 335,-183.83 370,-183.83 370,-164.83 335,-164.83"/>
<text text-anchor="middle" x="352.5" y="-171.83" font-family="Helvetica,sans-Serif" font-size="10.00">col2</text>
</a>
</g>
</g>
<!-- Node3&#45;&gt;Node12 -->
<g id="edge6" class="edge">
<title>Node3&#45;&gt;Node12</title>
<path fill="none" stroke="midnightblue" d="M215.05,-144.59C225.91,-148.2 239.02,-152.3 251,-155.33 275.66,-161.58 304.19,-166.78 324.54,-170.16"/>
<polygon fill="midnightblue" stroke="midnightblue" points="324.22,-173.65 334.65,-171.8 325.34,-166.74 324.22,-173.65"/>
</g>
<!-- Node13 -->
<g id="node6" class="node">
<title>Node13</title>
<g id="a_node6"><a xlink:href="math_8f.html#a0d9af374781723c272547a185cb3da5e" target="_top" xlink:title=" ">
<polygon fill="white" stroke="red" points="335,-202.83 335,-221.83 370,-221.83 370,-202.83 335,-202.83"/>
<text text-anchor="middle" x="352.5" y="-209.83" font-family="Helvetica,sans-Serif" font-size="10.00">col3</text>
</a>
</g>
</g>
<!-- Node3&#45;&gt;Node13 -->
<g id="edge7" class="edge">
<title>Node3&#45;&gt;Node13</title>
<path fill="none" stroke="midnightblue" d="M194.09,-145.88C200.13,-166.05 217.29,-212.67 251,-231.33 274.17,-244.16 304.46,-235.59 325.7,-226.2"/>
<polygon fill="midnightblue" stroke="midnightblue" points="327.23,-229.35 334.77,-221.91 324.23,-223.03 327.23,-229.35"/>
</g>
<!-- Node21 -->
<g id="node7" class="node">
<title>Node21</title>
<g id="a_node7"><a xlink:href="math_8f.html#ad52d460588be4ef01891806b14c0ecda" target="_top" xlink:title=" ">
<polygon fill="white" stroke="red" points="251,-88.83 251,-107.83 299,-107.83 299,-88.83 251,-88.83"/>
<text text-anchor="middle" x="275" y="-95.83" font-family="Helvetica,sans-Serif" font-size="10.00">glamax</text>
</a>
</g>
</g>
<!-- Node3&#45;&gt;Node21 -->
<g id="edge8" class="edge">
<title>Node3&#45;&gt;Node21</title>
<path fill="none" stroke="midnightblue" d="M212.32,-126.75C221.89,-122.34 233.43,-117.02 243.93,-112.19"/>
<polygon fill="midnightblue" stroke="midnightblue" points="245.57,-115.28 253.19,-107.92 242.64,-108.93 245.57,-115.28"/>
</g>
<!-- Node24 -->
<g id="node8" class="node">
<title>Node24</title>
<g id="a_node8"><a xlink:href="math_8f.html#ac231f0566c16504dadd6ba0f16a38bd9" target="_top" xlink:title=" ">
<polygon fill="white" stroke="red" points="253.5,-50.83 253.5,-69.83 296.5,-69.83 296.5,-50.83 253.5,-50.83"/>
<text text-anchor="middle" x="275" y="-57.83" font-family="Helvetica,sans-Serif" font-size="10.00">glsum</text>
</a>
</g>
</g>
<!-- Node3&#45;&gt;Node24 -->
<g id="edge9" class="edge">
<title>Node3&#45;&gt;Node24</title>
<path fill="none" stroke="midnightblue" d="M200.98,-126.83C212.56,-115.33 232.83,-95.5 251,-79.33 252.11,-78.35 253.27,-77.34 254.43,-76.33"/>
<polygon fill="midnightblue" stroke="midnightblue" points="256.76,-78.95 262.16,-69.84 252.25,-73.59 256.76,-78.95"/>
</g>
<!-- Node25 -->
<g id="node9" class="node">
<title>Node25</title>
<g id="a_node9"><a xlink:href="math_8f.html#ae1294c8ac3b5b3c38bbcc250d252b9cb" target="_top" xlink:title=" ">
<polygon fill="white" stroke="black" points="257.5,-126.83 257.5,-145.83 292.5,-145.83 292.5,-126.83 257.5,-126.83"/>
<text text-anchor="middle" x="275" y="-133.83" font-family="Helvetica,sans-Serif" font-size="10.00">rone</text>
</a>
</g>
</g>
<!-- Node3&#45;&gt;Node25 -->
<g id="edge10" class="edge">
<title>Node3&#45;&gt;Node25</title>
<path fill="none" stroke="midnightblue" d="M215.36,-136.33C225.32,-136.33 236.94,-136.33 247.19,-136.33"/>
<polygon fill="midnightblue" stroke="midnightblue" points="247.26,-139.84 257.26,-136.33 247.26,-132.84 247.26,-139.84"/>
</g>
<!-- Node4&#45;&gt;Node12 -->
<g id="edge4" class="edge">
<title>Node4&#45;&gt;Node12</title>
<path fill="none" stroke="midnightblue" d="M295.05,-202.75C304.32,-198.08 315.6,-192.4 325.64,-187.35"/>
<polygon fill="midnightblue" stroke="midnightblue" points="327.41,-190.38 334.77,-182.76 324.26,-184.13 327.41,-190.38"/>
</g>
<!-- Node4&#45;&gt;Node13 -->
<g id="edge5" class="edge">
<title>Node4&#45;&gt;Node13</title>
<path fill="none" stroke="midnightblue" d="M299.06,-212.33C307.11,-212.33 316.22,-212.33 324.56,-212.33"/>
<polygon fill="midnightblue" stroke="midnightblue" points="324.57,-215.84 334.57,-212.33 324.57,-208.84 324.57,-215.84"/>
</g>
<!-- Node26&#45;&gt;Node12 -->
<g id="edge12" class="edge">
<title>Node26&#45;&gt;Node12</title>
<path fill="none" stroke="midnightblue" d="M196.06,-69.67C204.36,-53.42 223.6,-21.12 251,-8.33 270.33,0.69 281.79,4.27 299,-8.33 345.65,-42.51 351.89,-118.3 352.07,-154.43"/>
<polygon fill="midnightblue" stroke="midnightblue" points="348.57,-154.63 351.96,-164.67 355.57,-154.7 348.57,-154.63"/>
</g>
<!-- Node26&#45;&gt;Node13 -->
<g id="edge13" class="edge">
<title>Node26&#45;&gt;Node13</title>
<path fill="none" stroke="midnightblue" d="M201.74,-69.81C222.2,-51.97 268.72,-17.39 299,-41.33 353.45,-84.4 303.32,-131.56 335,-193.33 335.16,-193.64 335.32,-193.95 335.49,-194.25"/>
<polygon fill="midnightblue" stroke="midnightblue" points="332.76,-196.46 341.43,-202.55 338.46,-192.38 332.76,-196.46"/>
</g>
<!-- Node26&#45;&gt;Node21 -->
<g id="edge14" class="edge">
<title>Node26&#45;&gt;Node21</title>
<path fill="none" stroke="midnightblue" d="M215.36,-84.83C223.37,-86.67 232.44,-88.76 241.01,-90.74"/>
<polygon fill="midnightblue" stroke="midnightblue" points="240.23,-94.15 250.76,-92.98 241.8,-87.33 240.23,-94.15"/>
</g>
<!-- Node26&#45;&gt;Node24 -->
<g id="edge15" class="edge">
<title>Node26&#45;&gt;Node24</title>
<path fill="none" stroke="midnightblue" d="M215.36,-73.84C224.08,-71.83 234.06,-69.53 243.28,-67.41"/>
<polygon fill="midnightblue" stroke="midnightblue" points="244.31,-70.76 253.27,-65.11 242.74,-63.94 244.31,-70.76"/>
</g>
<!-- Node26&#45;&gt;Node25 -->
<g id="edge16" class="edge">
<title>Node26&#45;&gt;Node25</title>
<path fill="none" stroke="midnightblue" d="M205.5,-89C218.13,-97.74 236.95,-110.74 251.67,-120.91"/>
<polygon fill="midnightblue" stroke="midnightblue" points="249.99,-124 260.21,-126.81 253.97,-118.24 249.99,-124"/>
</g>
</g>
</svg>
