<?xml version="1.0" encoding="UTF-8" standalone="no"?>
<!DOCTYPE svg PUBLIC "-//W3C//DTD SVG 1.1//EN"
 "http://www.w3.org/Graphics/SVG/1.1/DTD/svg11.dtd">
<!-- Generated by graphviz version 2.46.0 (0)
 -->
<!-- Title: set_up_h1_crs_strs Pages: 1 -->
<svg width="382pt" height="256pt"
 viewBox="0.00 0.00 382.00 256.00" xmlns="http://www.w3.org/2000/svg" xmlns:xlink="http://www.w3.org/1999/xlink">
<g id="graph0" class="graph" transform="scale(1 1) rotate(0) translate(4 252)">
<title>set_up_h1_crs_strs</title>
<polygon fill="white" stroke="transparent" points="-4,4 -4,-252 378,-252 378,4 -4,4"/>
<!-- Node1 -->
<g id="node1" class="node">
<title>Node1</title>
<g id="a_node1"><a xlink:title=" ">
<polygon fill="#bfbfbf" stroke="black" points="0,-114.5 0,-133.5 102,-133.5 102,-114.5 0,-114.5"/>
<text text-anchor="middle" x="51" y="-121.5" font-family="Helvetica,sans-Serif" font-size="10.00">set_up_h1_crs_strs</text>
</a>
</g>
</g>
<!-- Node2 -->
<g id="node2" class="node">
<title>Node2</title>
<g id="a_node2"><a xlink:href="comm__mpi_8f.html#af06ec29f06aac3f8809e19de2a7e8946" target="_top" xlink:title=" ">
<polygon fill="white" stroke="black" points="175,-228.5 175,-247.5 236,-247.5 236,-228.5 175,-228.5"/>
<text text-anchor="middle" x="205.5" y="-235.5" font-family="Helvetica,sans-Serif" font-size="10.00">dnekclock</text>
</a>
</g>
</g>
<!-- Node1&#45;&gt;Node2 -->
<g id="edge1" class="edge">
<title>Node1&#45;&gt;Node2</title>
<path fill="none" stroke="midnightblue" d="M58.05,-133.71C70.55,-152.96 101.17,-196.08 138,-219 146.16,-224.08 155.72,-227.84 165,-230.61"/>
<polygon fill="midnightblue" stroke="midnightblue" points="164.33,-234.05 174.89,-233.24 166.13,-227.29 164.33,-234.05"/>
</g>
<!-- Node4 -->
<g id="node4" class="node">
<title>Node4</title>
<g id="a_node4"><a xlink:href="subs1_8f.html#abeb3fbefdc0288bbebf73974c87c2433" target="_top" xlink:title=" ">
<polygon fill="white" stroke="red" points="138,-190.5 138,-209.5 273,-209.5 273,-190.5 138,-190.5"/>
<text text-anchor="middle" x="205.5" y="-197.5" font-family="Helvetica,sans-Serif" font-size="10.00">get_local_crs_galerkin_strs</text>
</a>
</g>
</g>
<!-- Node1&#45;&gt;Node4 -->
<g id="edge3" class="edge">
<title>Node1&#45;&gt;Node4</title>
<path fill="none" stroke="midnightblue" d="M63.83,-133.57C79.8,-146.06 109.53,-167.88 138,-181 143.04,-183.32 148.44,-185.43 153.88,-187.32"/>
<polygon fill="midnightblue" stroke="midnightblue" points="153.1,-190.74 163.69,-190.48 155.25,-184.08 153.1,-190.74"/>
</g>
<!-- Node73 -->
<g id="node6" class="node">
<title>Node73</title>
<g id="a_node6"><a xlink:href="subs1_8f.html#a5a4db467f17ead3eeec063f2fe25d429" target="_top" xlink:title=" ">
<polygon fill="white" stroke="black" points="165,-152.5 165,-171.5 246,-171.5 246,-152.5 165,-152.5"/>
<text text-anchor="middle" x="205.5" y="-159.5" font-family="Helvetica,sans-Serif" font-size="10.00">get_strs_mask</text>
</a>
</g>
</g>
<!-- Node1&#45;&gt;Node73 -->
<g id="edge5" class="edge">
<title>Node1&#45;&gt;Node73</title>
<path fill="none" stroke="midnightblue" d="M90.48,-133.59C110.52,-138.58 135.2,-144.73 156.48,-150.03"/>
<polygon fill="midnightblue" stroke="midnightblue" points="155.74,-153.46 166.29,-152.48 157.44,-146.67 155.74,-153.46"/>
</g>
<!-- Node74 -->
<g id="node7" class="node">
<title>Node74</title>
<g id="a_node7"><a xlink:href="navier8_8f.html#a3c68a6cfc47f9c2602ab5029cae20ac8" target="_top" xlink:title=" ">
<polygon fill="white" stroke="red" points="174.5,-114.5 174.5,-133.5 236.5,-133.5 236.5,-114.5 174.5,-114.5"/>
<text text-anchor="middle" x="205.5" y="-121.5" font-family="Helvetica,sans-Serif" font-size="10.00">get_vertex</text>
</a>
</g>
</g>
<!-- Node1&#45;&gt;Node74 -->
<g id="edge6" class="edge">
<title>Node1&#45;&gt;Node74</title>
<path fill="none" stroke="midnightblue" d="M102.36,-124C122.41,-124 145.18,-124 164.13,-124"/>
<polygon fill="midnightblue" stroke="midnightblue" points="164.22,-127.5 174.22,-124 164.22,-120.5 164.22,-127.5"/>
</g>
<!-- Node126 -->
<g id="node8" class="node">
<title>Node126</title>
<g id="a_node8"><a xlink:href="navier8_8f.html#af3415ba89435a722d569fd62b444255e" target="_top" xlink:title=" ">
<polygon fill="white" stroke="black" points="161.5,-76.5 161.5,-95.5 249.5,-95.5 249.5,-76.5 161.5,-76.5"/>
<text text-anchor="middle" x="205.5" y="-83.5" font-family="Helvetica,sans-Serif" font-size="10.00">set_jl_crs_mask</text>
</a>
</g>
</g>
<!-- Node1&#45;&gt;Node126 -->
<g id="edge7" class="edge">
<title>Node1&#45;&gt;Node126</title>
<path fill="none" stroke="midnightblue" d="M90.48,-114.41C110.52,-109.42 135.2,-103.27 156.48,-97.97"/>
<polygon fill="midnightblue" stroke="midnightblue" points="157.44,-101.33 166.29,-95.52 155.74,-94.54 157.44,-101.33"/>
</g>
<!-- Node127 -->
<g id="node9" class="node">
<title>Node127</title>
<g id="a_node9"><a xlink:href="navier8_8f.html#ad2c33128de1c346b8ab975efc32f9e72" target="_top" xlink:title=" ">
<polygon fill="white" stroke="black" points="174.5,-38.5 174.5,-57.5 236.5,-57.5 236.5,-38.5 174.5,-38.5"/>
<text text-anchor="middle" x="205.5" y="-45.5" font-family="Helvetica,sans-Serif" font-size="10.00">set_mat_ij</text>
</a>
</g>
</g>
<!-- Node1&#45;&gt;Node127 -->
<g id="edge8" class="edge">
<title>Node1&#45;&gt;Node127</title>
<path fill="none" stroke="midnightblue" d="M63.83,-114.43C79.8,-101.94 109.53,-80.12 138,-67 146.32,-63.17 155.59,-59.93 164.5,-57.28"/>
<polygon fill="midnightblue" stroke="midnightblue" points="165.65,-60.59 174.34,-54.53 163.76,-53.85 165.65,-60.59"/>
</g>
<!-- Node128 -->
<g id="node10" class="node">
<title>Node128</title>
<g id="a_node10"><a xlink:href="subs1_8f.html#ad7ba016312892cc812c3bd71457cd7d0" target="_top" xlink:title=" ">
<polygon fill="white" stroke="red" points="168.5,-0.5 168.5,-19.5 242.5,-19.5 242.5,-0.5 168.5,-0.5"/>
<text text-anchor="middle" x="205.5" y="-7.5" font-family="Helvetica,sans-Serif" font-size="10.00">set_vert_strs</text>
</a>
</g>
</g>
<!-- Node1&#45;&gt;Node128 -->
<g id="edge9" class="edge">
<title>Node1&#45;&gt;Node128</title>
<path fill="none" stroke="midnightblue" d="M58.05,-114.29C70.55,-95.04 101.17,-51.92 138,-29 144.31,-25.07 151.45,-21.94 158.66,-19.43"/>
<polygon fill="midnightblue" stroke="midnightblue" points="159.93,-22.7 168.45,-16.4 157.86,-16.02 159.93,-22.7"/>
</g>
<!-- Node3 -->
<g id="node3" class="node">
<title>Node3</title>
<g id="a_node3"><a xlink:href="mpi__dummy_8f.html#ae6a5ef945f87c2c27849696b70f3af2a" target="_top" xlink:title=" ">
<polygon fill="white" stroke="black" points="309.5,-228.5 309.5,-247.5 373.5,-247.5 373.5,-228.5 309.5,-228.5"/>
<text text-anchor="middle" x="341.5" y="-235.5" font-family="Helvetica,sans-Serif" font-size="10.00">mpi_wtime</text>
</a>
</g>
</g>
<!-- Node2&#45;&gt;Node3 -->
<g id="edge2" class="edge">
<title>Node2&#45;&gt;Node3</title>
<path fill="none" stroke="midnightblue" d="M236.24,-238C254.75,-238 278.84,-238 299.19,-238"/>
<polygon fill="midnightblue" stroke="midnightblue" points="299.45,-241.5 309.45,-238 299.45,-234.5 299.45,-241.5"/>
</g>
<!-- Node5 -->
<g id="node5" class="node">
<title>Node5</title>
<g id="a_node5"><a xlink:href="subs1_8f.html#aaa4835180deb5c6ac575a39c41f30a43" target="_top" xlink:title=" ">
<polygon fill="white" stroke="red" points="309,-190.5 309,-209.5 374,-209.5 374,-190.5 309,-190.5"/>
<text text-anchor="middle" x="341.5" y="-197.5" font-family="Helvetica,sans-Serif" font-size="10.00">axstrs_nds</text>
</a>
</g>
</g>
<!-- Node4&#45;&gt;Node5 -->
<g id="edge4" class="edge">
<title>Node4&#45;&gt;Node5</title>
<path fill="none" stroke="midnightblue" d="M273.11,-200C281.88,-200 290.67,-200 298.86,-200"/>
<polygon fill="midnightblue" stroke="midnightblue" points="298.87,-203.5 308.87,-200 298.87,-196.5 298.87,-203.5"/>
</g>
</g>
</svg>
