<?xml version="1.0" encoding="UTF-8" standalone="no"?>
<!DOCTYPE svg PUBLIC "-//W3C//DTD SVG 1.1//EN"
 "http://www.w3.org/Graphics/SVG/1.1/DTD/svg11.dtd">
<!-- Generated by graphviz version 2.46.0 (0)
 -->
<!-- Title: strs_orthok Pages: 1 -->
<svg width="259pt" height="332pt"
 viewBox="0.00 0.00 259.00 332.00" xmlns="http://www.w3.org/2000/svg" xmlns:xlink="http://www.w3.org/1999/xlink">
<g id="graph0" class="graph" transform="scale(1 1) rotate(0) translate(4 328)">
<title>strs_orthok</title>
<polygon fill="white" stroke="transparent" points="-4,4 -4,-328 255,-328 255,4 -4,4"/>
<!-- Node1 -->
<g id="node1" class="node">
<title>Node1</title>
<g id="a_node1"><a xlink:title=" ">
<polygon fill="#bfbfbf" stroke="black" points="0,-152.5 0,-171.5 65,-171.5 65,-152.5 0,-152.5"/>
<text text-anchor="middle" x="32.5" y="-159.5" font-family="Helvetica,sans-Serif" font-size="10.00">strs_orthok</text>
</a>
</g>
</g>
<!-- Node2 -->
<g id="node2" class="node">
<title>Node2</title>
<g id="a_node2"><a xlink:href="math_8f.html#a34a2c89ac31311482e2ec34fbb7c5a7a" target="_top" xlink:title=" ">
<polygon fill="white" stroke="red" points="112.5,-304.5 112.5,-323.5 160.5,-323.5 160.5,-304.5 112.5,-304.5"/>
<text text-anchor="middle" x="136.5" y="-311.5" font-family="Helvetica,sans-Serif" font-size="10.00">add2s2</text>
</a>
</g>
</g>
<!-- Node1&#45;&gt;Node2 -->
<g id="edge1" class="edge">
<title>Node1&#45;&gt;Node2</title>
<path fill="none" stroke="midnightblue" d="M36.18,-171.53C43.22,-195.12 64.28,-257.02 101,-295 102.21,-296.25 103.52,-297.44 104.9,-298.57"/>
<polygon fill="midnightblue" stroke="midnightblue" points="103.09,-301.58 113.31,-304.36 107.06,-295.81 103.09,-301.58"/>
</g>
<!-- Node5 -->
<g id="node3" class="node">
<title>Node5</title>
<g id="a_node3"><a xlink:href="subs1_8f.html#a47a832cdc015115f79e23f5f6d33324c" target="_top" xlink:title=" ">
<polygon fill="white" stroke="red" points="112,-266.5 112,-285.5 161,-285.5 161,-266.5 112,-266.5"/>
<text text-anchor="middle" x="136.5" y="-273.5" font-family="Helvetica,sans-Serif" font-size="10.00">axhmsf</text>
</a>
</g>
</g>
<!-- Node1&#45;&gt;Node5 -->
<g id="edge2" class="edge">
<title>Node1&#45;&gt;Node5</title>
<path fill="none" stroke="midnightblue" d="M38.46,-171.71C48.29,-190.21 71.86,-231.01 101,-257 102.49,-258.33 104.09,-259.61 105.76,-260.82"/>
<polygon fill="midnightblue" stroke="midnightblue" points="104.12,-263.93 114.43,-266.37 107.89,-258.03 104.12,-263.93"/>
</g>
<!-- Node21 -->
<g id="node4" class="node">
<title>Node21</title>
<g id="a_node4"><a xlink:href="math_8f.html#ad2b51b68d370651f4f6d81952503e7be" target="_top" xlink:title=" ">
<polygon fill="white" stroke="black" points="116,-228.5 116,-247.5 157,-247.5 157,-228.5 116,-228.5"/>
<text text-anchor="middle" x="136.5" y="-235.5" font-family="Helvetica,sans-Serif" font-size="10.00">cmult</text>
</a>
</g>
</g>
<!-- Node1&#45;&gt;Node21 -->
<g id="edge3" class="edge">
<title>Node1&#45;&gt;Node21</title>
<path fill="none" stroke="midnightblue" d="M45.8,-171.77C59.23,-182.36 81.43,-199.67 101,-214 104.81,-216.79 108.9,-219.71 112.89,-222.5"/>
<polygon fill="midnightblue" stroke="midnightblue" points="111.08,-225.51 121.29,-228.34 115.08,-219.76 111.08,-225.51"/>
</g>
<!-- Node45 -->
<g id="node5" class="node">
<title>Node45</title>
<g id="a_node5"><a xlink:href="math_8f.html#ac231f0566c16504dadd6ba0f16a38bd9" target="_top" xlink:title=" ">
<polygon fill="white" stroke="red" points="208,-152.5 208,-171.5 251,-171.5 251,-152.5 208,-152.5"/>
<text text-anchor="middle" x="229.5" y="-159.5" font-family="Helvetica,sans-Serif" font-size="10.00">glsum</text>
</a>
</g>
</g>
<!-- Node1&#45;&gt;Node45 -->
<g id="edge4" class="edge">
<title>Node1&#45;&gt;Node45</title>
<path fill="none" stroke="midnightblue" d="M60.72,-171.5C72.88,-175.27 87.49,-179.14 101,-181 132.26,-185.32 140.86,-186.1 172,-181 180.81,-179.56 190.1,-176.93 198.54,-174.08"/>
<polygon fill="midnightblue" stroke="midnightblue" points="199.75,-177.36 207.98,-170.69 197.39,-170.78 199.75,-177.36"/>
</g>
<!-- Node48 -->
<g id="node6" class="node">
<title>Node48</title>
<g id="a_node6"><a xlink:href="subs2_8f.html#a468eef66faa2ee9cec709e25128831d7" target="_top" xlink:title=" ">
<polygon fill="white" stroke="black" points="101,-152.5 101,-171.5 172,-171.5 172,-152.5 101,-152.5"/>
<text text-anchor="middle" x="136.5" y="-159.5" font-family="Helvetica,sans-Serif" font-size="10.00">op_glsc2_wt</text>
</a>
</g>
</g>
<!-- Node1&#45;&gt;Node48 -->
<g id="edge5" class="edge">
<title>Node1&#45;&gt;Node48</title>
<path fill="none" stroke="midnightblue" d="M65.21,-162C73.37,-162 82.29,-162 90.97,-162"/>
<polygon fill="midnightblue" stroke="midnightblue" points="90.97,-165.5 100.97,-162 90.97,-158.5 90.97,-165.5"/>
</g>
<!-- Node49 -->
<g id="node7" class="node">
<title>Node49</title>
<g id="a_node7"><a xlink:href="subs2_8f.html#ab24eadfee3bde6607c3a8eefc2ef0e64" target="_top" xlink:title=" ">
<polygon fill="white" stroke="black" points="101,-114.5 101,-133.5 172,-133.5 172,-114.5 101,-114.5"/>
<text text-anchor="middle" x="136.5" y="-121.5" font-family="Helvetica,sans-Serif" font-size="10.00">op_vlsc2_wt</text>
</a>
</g>
</g>
<!-- Node1&#45;&gt;Node49 -->
<g id="edge7" class="edge">
<title>Node1&#45;&gt;Node49</title>
<path fill="none" stroke="midnightblue" d="M59.24,-152.41C71.68,-147.78 86.81,-142.14 100.3,-137.11"/>
<polygon fill="midnightblue" stroke="midnightblue" points="101.62,-140.36 109.77,-133.59 99.18,-133.8 101.62,-140.36"/>
</g>
<!-- Node50 -->
<g id="node8" class="node">
<title>Node50</title>
<g id="a_node8"><a xlink:href="navier1_8f.html#a2f89b54d1ceda6fb201432d7a61bc907" target="_top" xlink:title=" ">
<polygon fill="white" stroke="red" points="108.5,-76.5 108.5,-95.5 164.5,-95.5 164.5,-76.5 108.5,-76.5"/>
<text text-anchor="middle" x="136.5" y="-83.5" font-family="Helvetica,sans-Serif" font-size="10.00">opdssum</text>
</a>
</g>
</g>
<!-- Node1&#45;&gt;Node50 -->
<g id="edge8" class="edge">
<title>Node1&#45;&gt;Node50</title>
<path fill="none" stroke="midnightblue" d="M43.51,-152.44C56.26,-140.54 79.26,-119.95 101,-105 103.12,-103.54 105.36,-102.1 107.64,-100.71"/>
<polygon fill="midnightblue" stroke="midnightblue" points="109.57,-103.64 116.47,-95.6 106.07,-97.58 109.57,-103.64"/>
</g>
<!-- Node57 -->
<g id="node9" class="node">
<title>Node57</title>
<g id="a_node9"><a xlink:href="subs2_8f.html#ade5a2e2643d05a961263dc64a756f2f5" target="_top" xlink:title=" ">
<polygon fill="white" stroke="red" points="114.5,-38.5 114.5,-57.5 158.5,-57.5 158.5,-38.5 114.5,-38.5"/>
<text text-anchor="middle" x="136.5" y="-45.5" font-family="Helvetica,sans-Serif" font-size="10.00">rmask</text>
</a>
</g>
</g>
<!-- Node1&#45;&gt;Node57 -->
<g id="edge9" class="edge">
<title>Node1&#45;&gt;Node57</title>
<path fill="none" stroke="midnightblue" d="M38.46,-152.29C48.29,-133.79 71.86,-92.99 101,-67 102.49,-65.67 104.09,-64.39 105.76,-63.18"/>
<polygon fill="midnightblue" stroke="midnightblue" points="107.89,-65.97 114.43,-57.63 104.12,-60.07 107.89,-65.97"/>
</g>
<!-- Node65 -->
<g id="node10" class="node">
<title>Node65</title>
<g id="a_node10"><a xlink:href="connect2_8f.html#a6e862f603b59c81091476a690c5e94ee" target="_top" xlink:title=" ">
<polygon fill="white" stroke="red" points="116.5,-0.5 116.5,-19.5 156.5,-19.5 156.5,-0.5 116.5,-0.5"/>
<text text-anchor="middle" x="136.5" y="-7.5" font-family="Helvetica,sans-Serif" font-size="10.00">scale</text>
</a>
</g>
</g>
<!-- Node1&#45;&gt;Node65 -->
<g id="edge10" class="edge">
<title>Node1&#45;&gt;Node65</title>
<path fill="none" stroke="midnightblue" d="M36.18,-152.47C43.22,-128.88 64.28,-66.98 101,-29 102.87,-27.06 104.98,-25.27 107.22,-23.63"/>
<polygon fill="midnightblue" stroke="midnightblue" points="109.56,-26.29 116.19,-18.03 105.85,-20.36 109.56,-26.29"/>
</g>
<!-- Node48&#45;&gt;Node45 -->
<g id="edge6" class="edge">
<title>Node48&#45;&gt;Node45</title>
<path fill="none" stroke="midnightblue" d="M172.16,-162C180.54,-162 189.45,-162 197.64,-162"/>
<polygon fill="midnightblue" stroke="midnightblue" points="197.9,-165.5 207.9,-162 197.9,-158.5 197.9,-165.5"/>
</g>
<!-- Node65&#45;&gt;Node45 -->
<g id="edge11" class="edge">
<title>Node65&#45;&gt;Node45</title>
<path fill="none" stroke="midnightblue" d="M156.64,-17.65C162.14,-20.56 167.78,-24.33 172,-29 202.28,-62.53 217.92,-114.71 224.53,-142.7"/>
<polygon fill="midnightblue" stroke="midnightblue" points="221.12,-143.46 226.7,-152.47 227.95,-141.95 221.12,-143.46"/>
</g>
</g>
</svg>
