<?xml version="1.0" encoding="UTF-8" standalone="no"?>
<!DOCTYPE svg PUBLIC "-//W3C//DTD SVG 1.1//EN"
 "http://www.w3.org/Graphics/SVG/1.1/DTD/svg11.dtd">
<!-- Generated by graphviz version 2.46.0 (0)
 -->
<!-- Title: aijuj Pages: 1 -->
<svg width="210pt" height="256pt"
 viewBox="0.00 0.00 210.00 256.00" xmlns="http://www.w3.org/2000/svg" xmlns:xlink="http://www.w3.org/1999/xlink">
<g id="graph0" class="graph" transform="scale(1 1) rotate(0) translate(4 252)">
<title>aijuj</title>
<polygon fill="white" stroke="transparent" points="-4,4 -4,-252 206,-252 206,4 -4,4"/>
<!-- Node1 -->
<g id="node1" class="node">
<title>Node1</title>
<g id="a_node1"><a xlink:title=" ">
<polygon fill="#bfbfbf" stroke="black" points="0,-114.5 0,-133.5 34,-133.5 34,-114.5 0,-114.5"/>
<text text-anchor="middle" x="17" y="-121.5" font-family="Helvetica,sans-Serif" font-size="10.00">aijuj</text>
</a>
</g>
</g>
<!-- Node2 -->
<g id="node2" class="node">
<title>Node2</title>
<g id="a_node2"><a xlink:href="subs1_8f.html#a29d541493de8064a64fb626112546c85" target="_top" xlink:title=" ">
<polygon fill="white" stroke="black" points="70,-171.5 70,-190.5 113,-190.5 113,-171.5 70,-171.5"/>
<text text-anchor="middle" x="91.5" y="-178.5" font-family="Helvetica,sans-Serif" font-size="10.00">axitzz</text>
</a>
</g>
</g>
<!-- Node1&#45;&gt;Node2 -->
<g id="edge1" class="edge">
<title>Node1&#45;&gt;Node2</title>
<path fill="none" stroke="midnightblue" d="M30.3,-133.67C41.3,-142.32 57.63,-155.16 70.51,-165.28"/>
<polygon fill="midnightblue" stroke="midnightblue" points="68.36,-168.04 78.38,-171.47 72.68,-162.54 68.36,-168.04"/>
</g>
<!-- Node9 -->
<g id="node6" class="node">
<title>Node9</title>
<g id="a_node6"><a xlink:href="subs1_8f.html#aeb943d7db9847298386c7791574f28bc" target="_top" xlink:title=" ">
<polygon fill="white" stroke="red" points="72.5,-76.5 72.5,-95.5 110.5,-95.5 110.5,-76.5 72.5,-76.5"/>
<text text-anchor="middle" x="91.5" y="-83.5" font-family="Helvetica,sans-Serif" font-size="10.00">ttxyz</text>
</a>
</g>
</g>
<!-- Node1&#45;&gt;Node9 -->
<g id="edge5" class="edge">
<title>Node1&#45;&gt;Node9</title>
<path fill="none" stroke="midnightblue" d="M34.09,-115.57C42.69,-111.06 53.51,-105.39 63.36,-100.22"/>
<polygon fill="midnightblue" stroke="midnightblue" points="65.18,-103.22 72.42,-95.48 61.93,-97.02 65.18,-103.22"/>
</g>
<!-- Node3 -->
<g id="node3" class="node">
<title>Node3</title>
<g id="a_node3"><a xlink:href="math_8f.html#a30b83d516b6ab162d3fafe73e03a3e92" target="_top" xlink:title=" ">
<polygon fill="white" stroke="red" points="156.5,-228.5 156.5,-247.5 194.5,-247.5 194.5,-228.5 156.5,-228.5"/>
<text text-anchor="middle" x="175.5" y="-235.5" font-family="Helvetica,sans-Serif" font-size="10.00">add2</text>
</a>
</g>
</g>
<!-- Node2&#45;&gt;Node3 -->
<g id="edge2" class="edge">
<title>Node2&#45;&gt;Node3</title>
<path fill="none" stroke="midnightblue" d="M106.41,-190.67C118.97,-199.4 137.68,-212.4 152.31,-222.57"/>
<polygon fill="midnightblue" stroke="midnightblue" points="150.59,-225.64 160.8,-228.47 154.58,-219.89 150.59,-225.64"/>
</g>
<!-- Node6 -->
<g id="node4" class="node">
<title>Node6</title>
<g id="a_node4"><a xlink:href="math_8f.html#a73c11da474d84d5c1ae59109d7ffbaa7" target="_top" xlink:title=" ">
<polygon fill="white" stroke="black" points="158,-190.5 158,-209.5 193,-209.5 193,-190.5 158,-190.5"/>
<text text-anchor="middle" x="175.5" y="-197.5" font-family="Helvetica,sans-Serif" font-size="10.00">col4</text>
</a>
</g>
</g>
<!-- Node2&#45;&gt;Node6 -->
<g id="edge3" class="edge">
<title>Node2&#45;&gt;Node6</title>
<path fill="none" stroke="midnightblue" d="M113.19,-185.79C123.8,-188.25 136.83,-191.27 148.15,-193.89"/>
<polygon fill="midnightblue" stroke="midnightblue" points="147.41,-197.32 157.94,-196.16 148.99,-190.5 147.41,-197.32"/>
</g>
<!-- Node7 -->
<g id="node5" class="node">
<title>Node7</title>
<g id="a_node5"><a xlink:href="subs2_8f.html#ab6c03c3b67da0854276389163f29f49b" target="_top" xlink:title=" ">
<polygon fill="white" stroke="red" points="149,-152.5 149,-171.5 202,-171.5 202,-152.5 149,-152.5"/>
<text text-anchor="middle" x="175.5" y="-159.5" font-family="Helvetica,sans-Serif" font-size="10.00">setaxw1</text>
</a>
</g>
</g>
<!-- Node2&#45;&gt;Node7 -->
<g id="edge4" class="edge">
<title>Node2&#45;&gt;Node7</title>
<path fill="none" stroke="midnightblue" d="M113.19,-176.21C120.97,-174.4 130.05,-172.3 138.8,-170.27"/>
<polygon fill="midnightblue" stroke="midnightblue" points="139.87,-173.62 148.82,-167.95 138.29,-166.8 139.87,-173.62"/>
</g>
<!-- Node10 -->
<g id="node7" class="node">
<title>Node10</title>
<g id="a_node7"><a xlink:href="math_8f.html#a1f336314da3012286837ede20a0495c6" target="_top" xlink:title=" ">
<polygon fill="white" stroke="red" points="150.5,-114.5 150.5,-133.5 200.5,-133.5 200.5,-114.5 150.5,-114.5"/>
<text text-anchor="middle" x="175.5" y="-121.5" font-family="Helvetica,sans-Serif" font-size="10.00">addcol3</text>
</a>
</g>
</g>
<!-- Node9&#45;&gt;Node10 -->
<g id="edge6" class="edge">
<title>Node9&#45;&gt;Node10</title>
<path fill="none" stroke="midnightblue" d="M110.7,-94.43C120.65,-99.05 133.23,-104.88 144.59,-110.14"/>
<polygon fill="midnightblue" stroke="midnightblue" points="143.21,-113.36 153.75,-114.38 146.15,-107 143.21,-113.36"/>
</g>
<!-- Node11 -->
<g id="node8" class="node">
<title>Node11</title>
<g id="a_node8"><a xlink:href="math_8f.html#a3470db04166d9ba91454a14cc17dbec2" target="_top" xlink:title=" ">
<polygon fill="white" stroke="red" points="158,-76.5 158,-95.5 193,-95.5 193,-76.5 158,-76.5"/>
<text text-anchor="middle" x="175.5" y="-83.5" font-family="Helvetica,sans-Serif" font-size="10.00">col2</text>
</a>
</g>
</g>
<!-- Node9&#45;&gt;Node11 -->
<g id="edge7" class="edge">
<title>Node9&#45;&gt;Node11</title>
<path fill="none" stroke="midnightblue" d="M110.7,-86C121.57,-86 135.59,-86 147.71,-86"/>
<polygon fill="midnightblue" stroke="midnightblue" points="147.75,-89.5 157.75,-86 147.75,-82.5 147.75,-89.5"/>
</g>
<!-- Node12 -->
<g id="node9" class="node">
<title>Node12</title>
<g id="a_node9"><a xlink:href="math_8f.html#a0d9af374781723c272547a185cb3da5e" target="_top" xlink:title=" ">
<polygon fill="white" stroke="red" points="158,-38.5 158,-57.5 193,-57.5 193,-38.5 158,-38.5"/>
<text text-anchor="middle" x="175.5" y="-45.5" font-family="Helvetica,sans-Serif" font-size="10.00">col3</text>
</a>
</g>
</g>
<!-- Node9&#45;&gt;Node12 -->
<g id="edge8" class="edge">
<title>Node9&#45;&gt;Node12</title>
<path fill="none" stroke="midnightblue" d="M110.7,-77.57C121.79,-72.43 136.15,-65.77 148.44,-60.08"/>
<polygon fill="midnightblue" stroke="midnightblue" points="150.15,-63.14 157.75,-55.76 147.2,-56.79 150.15,-63.14"/>
</g>
<!-- Node13 -->
<g id="node10" class="node">
<title>Node13</title>
<g id="a_node10"><a xlink:href="subs1_8f.html#a8a9da5a10943bfb2176353bd597f87ce" target="_top" xlink:title=" ">
<polygon fill="white" stroke="red" points="150,-0.5 150,-19.5 201,-19.5 201,-0.5 150,-0.5"/>
<text text-anchor="middle" x="175.5" y="-7.5" font-family="Helvetica,sans-Serif" font-size="10.00">setaxdy</text>
</a>
</g>
</g>
<!-- Node9&#45;&gt;Node13 -->
<g id="edge9" class="edge">
<title>Node9&#45;&gt;Node13</title>
<path fill="none" stroke="midnightblue" d="M101.29,-76.28C112.07,-64.57 131.12,-44.53 149,-29 150.15,-28 151.34,-27 152.56,-26.01"/>
<polygon fill="midnightblue" stroke="midnightblue" points="154.95,-28.59 160.71,-19.69 150.66,-23.05 154.95,-28.59"/>
</g>
</g>
</svg>
