<?xml version="1.0" encoding="UTF-8" standalone="no"?>
<!DOCTYPE svg PUBLIC "-//W3C//DTD SVG 1.1//EN"
 "http://www.w3.org/Graphics/SVG/1.1/DTD/svg11.dtd">
<!-- Generated by graphviz version 2.46.0 (0)
 -->
<!-- Title: hmhzsf Pages: 1 -->
<svg width="382pt" height="275pt"
 viewBox="0.00 0.00 382.00 275.04" xmlns="http://www.w3.org/2000/svg" xmlns:xlink="http://www.w3.org/1999/xlink">
<g id="graph0" class="graph" transform="scale(1 1) rotate(0) translate(4 271.04)">
<title>hmhzsf</title>
<polygon fill="white" stroke="transparent" points="-4,4 -4,-271.04 378,-271.04 378,4 -4,4"/>
<!-- Node1 -->
<g id="node1" class="node">
<title>Node1</title>
<g id="a_node1"><a xlink:title=" ">
<polygon fill="#bfbfbf" stroke="black" points="0,-114.54 0,-133.54 49,-133.54 49,-114.54 0,-114.54"/>
<text text-anchor="middle" x="24.5" y="-121.54" font-family="Helvetica,sans-Serif" font-size="10.00">hmhzsf</text>
</a>
</g>
</g>
<!-- Node2 -->
<g id="node2" class="node">
<title>Node2</title>
<g id="a_node2"><a xlink:href="subs1_8f.html#afbde33b8466b90206f1fa13b3800b7d5" target="_top" xlink:title=" ">
<polygon fill="white" stroke="red" points="101,-171.54 101,-190.54 147,-190.54 147,-171.54 101,-171.54"/>
<text text-anchor="middle" x="124" y="-178.54" font-family="Helvetica,sans-Serif" font-size="10.00">cggosf</text>
</a>
</g>
</g>
<!-- Node1&#45;&gt;Node2 -->
<g id="edge1" class="edge">
<title>Node1&#45;&gt;Node2</title>
<path fill="none" stroke="midnightblue" d="M42.04,-133.71C57.26,-142.61 80.06,-155.94 97.59,-166.19"/>
<polygon fill="midnightblue" stroke="midnightblue" points="96.31,-169.49 106.7,-171.52 99.84,-163.45 96.31,-169.49"/>
</g>
<!-- Node4 -->
<g id="node4" class="node">
<title>Node4</title>
<g id="a_node4"><a xlink:href="comm__mpi_8f.html#af06ec29f06aac3f8809e19de2a7e8946" target="_top" xlink:title=" ">
<polygon fill="white" stroke="red" points="313,-114.54 313,-133.54 374,-133.54 374,-114.54 313,-114.54"/>
<text text-anchor="middle" x="343.5" y="-121.54" font-family="Helvetica,sans-Serif" font-size="10.00">dnekclock</text>
</a>
</g>
</g>
<!-- Node1&#45;&gt;Node4 -->
<g id="edge7" class="edge">
<title>Node1&#45;&gt;Node4</title>
<path fill="none" stroke="midnightblue" d="M27.11,-114.43C31.54,-91.45 46.24,-33.54 85,-10.04 114.65,7.92 129.04,-3.06 163,-10.04 217.02,-21.16 231.29,-28.19 277,-59.04 296.98,-72.53 316.1,-92.62 328.47,-106.89"/>
<polygon fill="midnightblue" stroke="midnightblue" points="325.8,-109.15 334.93,-114.53 331.14,-104.63 325.8,-109.15"/>
</g>
<!-- Node67 -->
<g id="node5" class="node">
<title>Node67</title>
<g id="a_node5"><a xlink:href="navier1_8f.html#a2f89b54d1ceda6fb201432d7a61bc907" target="_top" xlink:title=" ">
<polygon fill="white" stroke="red" points="210,-209.54 210,-228.54 266,-228.54 266,-209.54 210,-209.54"/>
<text text-anchor="middle" x="238" y="-216.54" font-family="Helvetica,sans-Serif" font-size="10.00">opdssum</text>
</a>
</g>
</g>
<!-- Node1&#45;&gt;Node67 -->
<g id="edge8" class="edge">
<title>Node1&#45;&gt;Node67</title>
<path fill="none" stroke="midnightblue" d="M29.93,-133.73C38.15,-150.45 57.44,-184.43 85,-200.04 120.13,-219.95 167.06,-222.93 199.43,-222.05"/>
<polygon fill="midnightblue" stroke="midnightblue" points="199.97,-225.54 209.82,-221.63 199.68,-218.54 199.97,-225.54"/>
</g>
<!-- Node73 -->
<g id="node6" class="node">
<title>Node73</title>
<g id="a_node6"><a xlink:href="subs2_8f.html#ade5a2e2643d05a961263dc64a756f2f5" target="_top" xlink:title=" ">
<polygon fill="white" stroke="red" points="216,-133.54 216,-152.54 260,-152.54 260,-133.54 216,-133.54"/>
<text text-anchor="middle" x="238" y="-140.54" font-family="Helvetica,sans-Serif" font-size="10.00">rmask</text>
</a>
</g>
</g>
<!-- Node1&#45;&gt;Node73 -->
<g id="edge9" class="edge">
<title>Node1&#45;&gt;Node73</title>
<path fill="none" stroke="midnightblue" d="M49.35,-126.19C87.69,-129.63 163.05,-136.4 205.68,-140.23"/>
<polygon fill="midnightblue" stroke="midnightblue" points="205.5,-143.73 215.77,-141.14 206.12,-136.76 205.5,-143.73"/>
</g>
<!-- Node217 -->
<g id="node7" class="node">
<title>Node217</title>
<g id="a_node7"><a xlink:href="subs1_8f.html#a29d1fc90e6cddfc6443f71e8bb7c44ff" target="_top" xlink:title=" ">
<polygon fill="white" stroke="red" points="98.5,-95.54 98.5,-114.54 149.5,-114.54 149.5,-95.54 98.5,-95.54"/>
<text text-anchor="middle" x="124" y="-102.54" font-family="Helvetica,sans-Serif" font-size="10.00">chktcgs</text>
</a>
</g>
</g>
<!-- Node1&#45;&gt;Node217 -->
<g id="edge6" class="edge">
<title>Node1&#45;&gt;Node217</title>
<path fill="none" stroke="midnightblue" d="M49.1,-119.45C60.84,-117.16 75.26,-114.35 88.24,-111.82"/>
<polygon fill="midnightblue" stroke="midnightblue" points="89.11,-115.22 98.25,-109.87 87.77,-108.34 89.11,-115.22"/>
</g>
<!-- Node38 -->
<g id="node8" class="node">
<title>Node38</title>
<g id="a_node8"><a xlink:href="bdry_8f.html#ad5ba3cc7aa2e469bf6fefd0deaf3517a" target="_top" xlink:title=" ">
<polygon fill="white" stroke="black" points="102,-57.54 102,-76.54 146,-76.54 146,-57.54 102,-57.54"/>
<text text-anchor="middle" x="124" y="-64.54" font-family="Helvetica,sans-Serif" font-size="10.00">rzero3</text>
</a>
</g>
</g>
<!-- Node1&#45;&gt;Node38 -->
<g id="edge10" class="edge">
<title>Node1&#45;&gt;Node38</title>
<path fill="none" stroke="midnightblue" d="M39.91,-114.24C51.8,-106.3 69.22,-95 85,-86.04 87.73,-84.49 90.61,-82.93 93.51,-81.41"/>
<polygon fill="midnightblue" stroke="midnightblue" points="95.37,-84.39 102.68,-76.72 92.18,-78.15 95.37,-84.39"/>
</g>
<!-- Node219 -->
<g id="node9" class="node">
<title>Node219</title>
<g id="a_node9"><a xlink:href="subs1_8f.html#a36c4563e34db1fdc4cb050df0abd21e3" target="_top" xlink:title=" ">
<polygon fill="white" stroke="red" points="199,-247.54 199,-266.54 277,-266.54 277,-247.54 199,-247.54"/>
<text text-anchor="middle" x="238" y="-254.54" font-family="Helvetica,sans-Serif" font-size="10.00">strs_project_a</text>
</a>
</g>
</g>
<!-- Node1&#45;&gt;Node219 -->
<g id="edge11" class="edge">
<title>Node1&#45;&gt;Node219</title>
<path fill="none" stroke="midnightblue" d="M28.38,-133.83C34.88,-154.11 52.7,-200.79 85,-224.04 115.16,-245.75 156.81,-253.66 188.89,-256.33"/>
<polygon fill="midnightblue" stroke="midnightblue" points="188.73,-259.83 198.94,-257.02 189.21,-252.84 188.73,-259.83"/>
</g>
<!-- Node232 -->
<g id="node10" class="node">
<title>Node232</title>
<g id="a_node10"><a xlink:href="subs1_8f.html#a0df089fd888e184f7b7d3c13a0bc53a7" target="_top" xlink:title=" ">
<polygon fill="white" stroke="red" points="85,-19.54 85,-38.54 163,-38.54 163,-19.54 85,-19.54"/>
<text text-anchor="middle" x="124" y="-26.54" font-family="Helvetica,sans-Serif" font-size="10.00">strs_project_b</text>
</a>
</g>
</g>
<!-- Node1&#45;&gt;Node232 -->
<g id="edge13" class="edge">
<title>Node1&#45;&gt;Node232</title>
<path fill="none" stroke="midnightblue" d="M31,-114.53C40.39,-98.95 60.86,-67.77 85,-48.04 86.81,-46.57 88.75,-45.16 90.77,-43.84"/>
<polygon fill="midnightblue" stroke="midnightblue" points="93,-46.59 99.89,-38.55 89.49,-40.54 93,-46.59"/>
</g>
<!-- Node3 -->
<g id="node3" class="node">
<title>Node3</title>
<g id="a_node3"><a xlink:href="math_8f.html#a30b83d516b6ab162d3fafe73e03a3e92" target="_top" xlink:title=" ">
<polygon fill="white" stroke="black" points="219,-171.54 219,-190.54 257,-190.54 257,-171.54 219,-171.54"/>
<text text-anchor="middle" x="238" y="-178.54" font-family="Helvetica,sans-Serif" font-size="10.00">add2</text>
</a>
</g>
</g>
<!-- Node2&#45;&gt;Node3 -->
<g id="edge2" class="edge">
<title>Node2&#45;&gt;Node3</title>
<path fill="none" stroke="midnightblue" d="M147.13,-181.04C164.8,-181.04 189.67,-181.04 208.77,-181.04"/>
<polygon fill="midnightblue" stroke="midnightblue" points="208.98,-184.55 218.98,-181.04 208.98,-177.55 208.98,-184.55"/>
</g>
<!-- Node2&#45;&gt;Node67 -->
<g id="edge4" class="edge">
<title>Node2&#45;&gt;Node67</title>
<path fill="none" stroke="midnightblue" d="M147.13,-188.55C162.16,-193.65 182.4,-200.52 199.87,-206.45"/>
<polygon fill="midnightblue" stroke="midnightblue" points="199.18,-209.91 209.77,-209.81 201.42,-203.28 199.18,-209.91"/>
</g>
<!-- Node2&#45;&gt;Node73 -->
<g id="edge5" class="edge">
<title>Node2&#45;&gt;Node73</title>
<path fill="none" stroke="midnightblue" d="M147.13,-173.54C163.99,-167.82 187.41,-159.87 206.12,-153.52"/>
<polygon fill="midnightblue" stroke="midnightblue" points="207.33,-156.81 215.68,-150.28 205.08,-150.18 207.33,-156.81"/>
</g>
<!-- Node3&#45;&gt;Node4 -->
<g id="edge3" class="edge">
<title>Node3&#45;&gt;Node4</title>
<path fill="none" stroke="midnightblue" d="M257.29,-172.19C263.58,-169.07 270.64,-165.48 277,-162.04 290.65,-154.68 305.62,-146.04 317.8,-138.86"/>
<polygon fill="midnightblue" stroke="midnightblue" points="319.69,-141.81 326.51,-133.7 316.12,-135.79 319.69,-141.81"/>
</g>
<!-- Node219&#45;&gt;Node4 -->
<g id="edge12" class="edge">
<title>Node219&#45;&gt;Node4</title>
<path fill="none" stroke="midnightblue" d="M263.69,-247.36C268.44,-244.79 273.14,-241.69 277,-238.04 305.91,-210.77 325.79,-167.85 335.56,-143.2"/>
<polygon fill="midnightblue" stroke="midnightblue" points="338.83,-144.44 339.12,-133.85 332.29,-141.95 338.83,-144.44"/>
</g>
<!-- Node232&#45;&gt;Node4 -->
<g id="edge14" class="edge">
<title>Node232&#45;&gt;Node4</title>
<path fill="none" stroke="midnightblue" d="M147.05,-38.68C185.99,-55.68 267.01,-91.07 311.53,-110.52"/>
<polygon fill="midnightblue" stroke="midnightblue" points="310.15,-113.73 320.71,-114.53 312.95,-107.32 310.15,-113.73"/>
</g>
</g>
</svg>
