<?xml version="1.0" encoding="UTF-8" standalone="no"?>
<!DOCTYPE svg PUBLIC "-//W3C//DTD SVG 1.1//EN"
 "http://www.w3.org/Graphics/SVG/1.1/DTD/svg11.dtd">
<!-- Generated by graphviz version 2.46.0 (0)
 -->
<!-- Title: ttxyz Pages: 1 -->
<svg width="416pt" height="180pt"
 viewBox="0.00 0.00 416.00 180.00" xmlns="http://www.w3.org/2000/svg" xmlns:xlink="http://www.w3.org/1999/xlink">
<g id="graph0" class="graph" transform="scale(1 1) rotate(0) translate(4 176)">
<title>ttxyz</title>
<polygon fill="white" stroke="transparent" points="-4,4 -4,-176 412,-176 412,4 -4,4"/>
<!-- Node1 -->
<g id="node1" class="node">
<title>Node1</title>
<g id="a_node1"><a xlink:title=" ">
<polygon fill="#bfbfbf" stroke="black" points="0,-76.5 0,-95.5 38,-95.5 38,-76.5 0,-76.5"/>
<text text-anchor="middle" x="19" y="-83.5" font-family="Helvetica,sans-Serif" font-size="10.00">ttxyz</text>
</a>
</g>
</g>
<!-- Node2 -->
<g id="node2" class="node">
<title>Node2</title>
<g id="a_node2"><a xlink:href="math_8f.html#a1f336314da3012286837ede20a0495c6" target="_top" xlink:title=" ">
<polygon fill="white" stroke="black" points="161,-152.5 161,-171.5 211,-171.5 211,-152.5 161,-152.5"/>
<text text-anchor="middle" x="186" y="-159.5" font-family="Helvetica,sans-Serif" font-size="10.00">addcol3</text>
</a>
</g>
</g>
<!-- Node1&#45;&gt;Node2 -->
<g id="edge1" class="edge">
<title>Node1&#45;&gt;Node2</title>
<path fill="none" stroke="midnightblue" d="M31.81,-95.8C42.35,-104.17 58.48,-116.08 74,-124 98.71,-136.6 128.53,-146.54 151.04,-153.09"/>
<polygon fill="midnightblue" stroke="midnightblue" points="150.25,-156.51 160.82,-155.86 152.15,-149.77 150.25,-156.51"/>
</g>
<!-- Node5 -->
<g id="node5" class="node">
<title>Node5</title>
<g id="a_node5"><a xlink:href="math_8f.html#a3470db04166d9ba91454a14cc17dbec2" target="_top" xlink:title=" ">
<polygon fill="white" stroke="black" points="168.5,-114.5 168.5,-133.5 203.5,-133.5 203.5,-114.5 168.5,-114.5"/>
<text text-anchor="middle" x="186" y="-121.5" font-family="Helvetica,sans-Serif" font-size="10.00">col2</text>
</a>
</g>
</g>
<!-- Node1&#45;&gt;Node5 -->
<g id="edge4" class="edge">
<title>Node1&#45;&gt;Node5</title>
<path fill="none" stroke="midnightblue" d="M38.26,-93.29C48.61,-97.2 61.88,-101.85 74,-105 102.3,-112.34 135.41,-117.59 158.06,-120.69"/>
<polygon fill="midnightblue" stroke="midnightblue" points="157.89,-124.19 168.27,-122.03 158.81,-117.25 157.89,-124.19"/>
</g>
<!-- Node6 -->
<g id="node6" class="node">
<title>Node6</title>
<g id="a_node6"><a xlink:href="math_8f.html#a0d9af374781723c272547a185cb3da5e" target="_top" xlink:title=" ">
<polygon fill="white" stroke="black" points="82,-76.5 82,-95.5 117,-95.5 117,-76.5 82,-76.5"/>
<text text-anchor="middle" x="99.5" y="-83.5" font-family="Helvetica,sans-Serif" font-size="10.00">col3</text>
</a>
</g>
</g>
<!-- Node1&#45;&gt;Node6 -->
<g id="edge6" class="edge">
<title>Node1&#45;&gt;Node6</title>
<path fill="none" stroke="midnightblue" d="M38.21,-86C48.23,-86 60.85,-86 71.95,-86"/>
<polygon fill="midnightblue" stroke="midnightblue" points="72,-89.5 82,-86 72,-82.5 72,-89.5"/>
</g>
<!-- Node7 -->
<g id="node7" class="node">
<title>Node7</title>
<g id="a_node7"><a xlink:href="subs1_8f.html#a8a9da5a10943bfb2176353bd597f87ce" target="_top" xlink:title=" ">
<polygon fill="white" stroke="black" points="74,-38.5 74,-57.5 125,-57.5 125,-38.5 74,-38.5"/>
<text text-anchor="middle" x="99.5" y="-45.5" font-family="Helvetica,sans-Serif" font-size="10.00">setaxdy</text>
</a>
</g>
</g>
<!-- Node1&#45;&gt;Node7 -->
<g id="edge8" class="edge">
<title>Node1&#45;&gt;Node7</title>
<path fill="none" stroke="midnightblue" d="M38.21,-77.19C47.5,-72.69 59.03,-67.11 69.51,-62.03"/>
<polygon fill="midnightblue" stroke="midnightblue" points="71.27,-65.07 78.74,-57.56 68.22,-58.77 71.27,-65.07"/>
</g>
<!-- Node9 -->
<g id="node9" class="node">
<title>Node9</title>
<g id="a_node9"><a xlink:href="subs1_8f.html#a132a441eac3b42034cb35fd48b69dcea" target="_top" xlink:title=" ">
<polygon fill="white" stroke="black" points="82.5,-0.5 82.5,-19.5 116.5,-19.5 116.5,-0.5 82.5,-0.5"/>
<text text-anchor="middle" x="99.5" y="-7.5" font-family="Helvetica,sans-Serif" font-size="10.00">ttrst</text>
</a>
</g>
</g>
<!-- Node1&#45;&gt;Node9 -->
<g id="edge10" class="edge">
<title>Node1&#45;&gt;Node9</title>
<path fill="none" stroke="midnightblue" d="M28.37,-76.29C38.65,-64.59 56.83,-44.56 74,-29 75.12,-27.98 76.29,-26.96 77.49,-25.95"/>
<polygon fill="midnightblue" stroke="midnightblue" points="79.89,-28.5 85.48,-19.5 75.5,-23.05 79.89,-28.5"/>
</g>
<!-- Node3 -->
<g id="node3" class="node">
<title>Node3</title>
<g id="a_node3"><a xlink:href="comm__mpi_8f.html#af06ec29f06aac3f8809e19de2a7e8946" target="_top" xlink:title=" ">
<polygon fill="white" stroke="black" points="247,-95.5 247,-114.5 308,-114.5 308,-95.5 247,-95.5"/>
<text text-anchor="middle" x="277.5" y="-102.5" font-family="Helvetica,sans-Serif" font-size="10.00">dnekclock</text>
</a>
</g>
</g>
<!-- Node2&#45;&gt;Node3 -->
<g id="edge2" class="edge">
<title>Node2&#45;&gt;Node3</title>
<path fill="none" stroke="midnightblue" d="M202.18,-152.33C216.02,-143.52 236.7,-130.35 252.73,-120.14"/>
<polygon fill="midnightblue" stroke="midnightblue" points="254.99,-122.85 261.54,-114.53 251.23,-116.95 254.99,-122.85"/>
</g>
<!-- Node4 -->
<g id="node4" class="node">
<title>Node4</title>
<g id="a_node4"><a xlink:href="mpi__dummy_8f.html#ae6a5ef945f87c2c27849696b70f3af2a" target="_top" xlink:title=" ">
<polygon fill="white" stroke="black" points="344,-95.5 344,-114.5 408,-114.5 408,-95.5 344,-95.5"/>
<text text-anchor="middle" x="376" y="-102.5" font-family="Helvetica,sans-Serif" font-size="10.00">mpi_wtime</text>
</a>
</g>
</g>
<!-- Node3&#45;&gt;Node4 -->
<g id="edge3" class="edge">
<title>Node3&#45;&gt;Node4</title>
<path fill="none" stroke="midnightblue" d="M308.24,-105C316.27,-105 325.11,-105 333.65,-105"/>
<polygon fill="midnightblue" stroke="midnightblue" points="333.85,-108.5 343.85,-105 333.85,-101.5 333.85,-108.5"/>
</g>
<!-- Node5&#45;&gt;Node3 -->
<g id="edge5" class="edge">
<title>Node5&#45;&gt;Node3</title>
<path fill="none" stroke="midnightblue" d="M203.83,-120.43C213.16,-118.45 225.17,-115.9 236.73,-113.44"/>
<polygon fill="midnightblue" stroke="midnightblue" points="237.64,-116.83 246.7,-111.33 236.19,-109.98 237.64,-116.83"/>
</g>
<!-- Node6&#45;&gt;Node3 -->
<g id="edge7" class="edge">
<title>Node6&#45;&gt;Node3</title>
<path fill="none" stroke="midnightblue" d="M117.06,-87.79C144.2,-90.72 198.9,-96.62 236.6,-100.69"/>
<polygon fill="midnightblue" stroke="midnightblue" points="236.43,-104.19 246.75,-101.79 237.18,-97.23 236.43,-104.19"/>
</g>
<!-- Node8 -->
<g id="node8" class="node">
<title>Node8</title>
<g id="a_node8"><a xlink:href="math_8f.html#a3b43508554f14bdea8e14473d7d0803c" target="_top" xlink:title=" ">
<polygon fill="white" stroke="black" points="167,-38.5 167,-57.5 205,-57.5 205,-38.5 167,-38.5"/>
<text text-anchor="middle" x="186" y="-45.5" font-family="Helvetica,sans-Serif" font-size="10.00">copy</text>
</a>
</g>
</g>
<!-- Node7&#45;&gt;Node8 -->
<g id="edge9" class="edge">
<title>Node7&#45;&gt;Node8</title>
<path fill="none" stroke="midnightblue" d="M125.4,-48C135.3,-48 146.73,-48 156.93,-48"/>
<polygon fill="midnightblue" stroke="midnightblue" points="156.98,-51.5 166.98,-48 156.98,-44.5 156.98,-51.5"/>
</g>
<!-- Node10 -->
<g id="node10" class="node">
<title>Node10</title>
<g id="a_node10"><a xlink:href="math_8f.html#a30b83d516b6ab162d3fafe73e03a3e92" target="_top" xlink:title=" ">
<polygon fill="white" stroke="black" points="167,-0.5 167,-19.5 205,-19.5 205,-0.5 167,-0.5"/>
<text text-anchor="middle" x="186" y="-7.5" font-family="Helvetica,sans-Serif" font-size="10.00">add2</text>
</a>
</g>
</g>
<!-- Node9&#45;&gt;Node10 -->
<g id="edge11" class="edge">
<title>Node9&#45;&gt;Node10</title>
<path fill="none" stroke="midnightblue" d="M116.79,-10C128.07,-10 143.37,-10 156.63,-10"/>
<polygon fill="midnightblue" stroke="midnightblue" points="156.7,-13.5 166.7,-10 156.7,-6.5 156.7,-13.5"/>
</g>
<!-- Node10&#45;&gt;Node3 -->
<g id="edge12" class="edge">
<title>Node10&#45;&gt;Node3</title>
<path fill="none" stroke="midnightblue" d="M200.08,-19.63C203.73,-22.51 207.62,-25.76 211,-29 230.41,-47.62 250.23,-71.42 262.91,-87.39"/>
<polygon fill="midnightblue" stroke="midnightblue" points="260.24,-89.66 269.17,-95.37 265.75,-85.34 260.24,-89.66"/>
</g>
</g>
</svg>
