<?xml version="1.0" encoding="UTF-8" standalone="no"?>
<!DOCTYPE svg PUBLIC "-//W3C//DTD SVG 1.1//EN"
 "http://www.w3.org/Graphics/SVG/1.1/DTD/svg11.dtd">
<!-- Generated by graphviz version 2.46.0 (0)
 -->
<!-- Title: flush_io Pages: 1 -->
<svg width="464pt" height="142pt"
 viewBox="0.00 0.00 464.00 142.00" xmlns="http://www.w3.org/2000/svg" xmlns:xlink="http://www.w3.org/1999/xlink">
<g id="graph0" class="graph" transform="scale(1 1) rotate(0) translate(4 138)">
<title>flush_io</title>
<polygon fill="white" stroke="transparent" points="-4,4 -4,-138 460,-138 460,4 -4,4"/>
<!-- Node1 -->
<g id="node1" class="node">
<title>Node1</title>
<g id="a_node1"><a xlink:title=" ">
<polygon fill="#bfbfbf" stroke="black" points="406,-57.5 406,-76.5 456,-76.5 456,-57.5 406,-57.5"/>
<text text-anchor="middle" x="431" y="-64.5" font-family="Helvetica,sans-Serif" font-size="10.00">flush_io</text>
</a>
</g>
</g>
<!-- Node2 -->
<g id="node2" class="node">
<title>Node2</title>
<g id="a_node2"><a xlink:href="postpro_8f.html#a1764c74d199b23c7c60287230d00b222" target="_top" xlink:title=" ">
<polygon fill="white" stroke="black" points="288,-114.5 288,-133.5 358,-133.5 358,-114.5 288,-114.5"/>
<text text-anchor="middle" x="323" y="-121.5" font-family="Helvetica,sans-Serif" font-size="10.00">gen_rea_top</text>
</a>
</g>
</g>
<!-- Node1&#45;&gt;Node2 -->
<g id="edge1" class="edge">
<title>Node1&#45;&gt;Node2</title>
<path fill="none" stroke="midnightblue" d="M407.52,-82.54C396.49,-89.83 382.83,-98.35 370,-105 363.56,-108.34 356.39,-111.53 349.67,-114.32"/>
<polygon fill="midnightblue" stroke="midnightblue" points="409.76,-85.25 416.1,-76.77 405.85,-79.44 409.76,-85.25"/>
</g>
<!-- Node4 -->
<g id="node4" class="node">
<title>Node4</title>
<g id="a_node4"><a xlink:href="connect1_8f.html#a759a844722b0f2f205701c9523611344" target="_top" xlink:title=" ">
<polygon fill="white" stroke="black" points="297,-76.5 297,-95.5 349,-95.5 349,-76.5 297,-76.5"/>
<text text-anchor="middle" x="323" y="-83.5" font-family="Helvetica,sans-Serif" font-size="10.00">outmatp</text>
</a>
</g>
</g>
<!-- Node1&#45;&gt;Node4 -->
<g id="edge3" class="edge">
<title>Node1&#45;&gt;Node4</title>
<path fill="none" stroke="midnightblue" d="M395.87,-73.12C380.65,-75.85 363.04,-79 349.06,-81.51"/>
<polygon fill="midnightblue" stroke="midnightblue" points="396.72,-76.52 405.95,-71.31 395.49,-69.63 396.72,-76.52"/>
</g>
<!-- Node5 -->
<g id="node5" class="node">
<title>Node5</title>
<g id="a_node5"><a xlink:href="comm__mpi_8f.html#aecb92a457f6ec83709a380299db794ed" target="_top" xlink:title=" ">
<polygon fill="white" stroke="black" points="276,-38.5 276,-57.5 370,-57.5 370,-38.5 276,-38.5"/>
<text text-anchor="middle" x="323" y="-45.5" font-family="Helvetica,sans-Serif" font-size="10.00">print_runtime_info</text>
</a>
</g>
</g>
<!-- Node1&#45;&gt;Node5 -->
<g id="edge4" class="edge">
<title>Node1&#45;&gt;Node5</title>
<path fill="none" stroke="midnightblue" d="M395.96,-60.9C387.72,-59.42 378.78,-57.82 370.09,-56.26"/>
<polygon fill="midnightblue" stroke="midnightblue" points="395.49,-64.37 405.95,-62.69 396.72,-57.48 395.49,-64.37"/>
</g>
<!-- Node9 -->
<g id="node9" class="node">
<title>Node9</title>
<g id="a_node9"><a xlink:href="connect2_8f.html#a909eeac6dfc8f61a1c9d637c53cc970d" target="_top" xlink:title=" ">
<polygon fill="white" stroke="black" points="301,-0.5 301,-19.5 345,-19.5 345,-0.5 301,-0.5"/>
<text text-anchor="middle" x="323" y="-7.5" font-family="Helvetica,sans-Serif" font-size="10.00">readat</text>
</a>
</g>
</g>
<!-- Node1&#45;&gt;Node9 -->
<g id="edge8" class="edge">
<title>Node1&#45;&gt;Node9</title>
<path fill="none" stroke="midnightblue" d="M407.52,-51.46C396.49,-44.17 382.83,-35.65 370,-29 362.18,-24.94 353.28,-21.1 345.42,-17.95"/>
<polygon fill="midnightblue" stroke="midnightblue" points="405.85,-54.56 416.1,-57.23 409.76,-48.75 405.85,-54.56"/>
</g>
<!-- Node3 -->
<g id="node3" class="node">
<title>Node3</title>
<g id="a_node3"><a xlink:href="postpro_8f.html#a46fc0df41f73386895f2b3bb185d4a6a" target="_top" xlink:title=" ">
<polygon fill="white" stroke="black" points="171,-114.5 171,-133.5 240,-133.5 240,-114.5 171,-114.5"/>
<text text-anchor="middle" x="205.5" y="-121.5" font-family="Helvetica,sans-Serif" font-size="10.00">gen_rea_full</text>
</a>
</g>
</g>
<!-- Node2&#45;&gt;Node3 -->
<g id="edge2" class="edge">
<title>Node2&#45;&gt;Node3</title>
<path fill="none" stroke="midnightblue" d="M277.78,-124C265.34,-124 252.01,-124 240.29,-124"/>
<polygon fill="midnightblue" stroke="midnightblue" points="277.97,-127.5 287.97,-124 277.97,-120.5 277.97,-127.5"/>
</g>
<!-- Node6 -->
<g id="node6" class="node">
<title>Node6</title>
<g id="a_node6"><a xlink:href="comm__mpi_8f.html#a7c71e890279f4933a841a2d97c7de4bd" target="_top" xlink:title=" ">
<polygon fill="white" stroke="black" points="185,-38.5 185,-57.5 226,-57.5 226,-38.5 185,-38.5"/>
<text text-anchor="middle" x="205.5" y="-45.5" font-family="Helvetica,sans-Serif" font-size="10.00">exitt0</text>
</a>
</g>
</g>
<!-- Node5&#45;&gt;Node6 -->
<g id="edge5" class="edge">
<title>Node5&#45;&gt;Node6</title>
<path fill="none" stroke="midnightblue" d="M265.42,-48C251.24,-48 236.96,-48 226.01,-48"/>
<polygon fill="midnightblue" stroke="midnightblue" points="265.69,-51.5 275.69,-48 265.69,-44.5 265.69,-51.5"/>
</g>
<!-- Node7 -->
<g id="node7" class="node">
<title>Node7</title>
<g id="a_node7"><a xlink:href="drive1_8f.html#a10055f031c0ac540cc534ab2b0363206" target="_top" xlink:title=" ">
<polygon fill="white" stroke="black" points="82,-38.5 82,-57.5 135,-57.5 135,-38.5 82,-38.5"/>
<text text-anchor="middle" x="108.5" y="-45.5" font-family="Helvetica,sans-Serif" font-size="10.00">nek_end</text>
</a>
</g>
</g>
<!-- Node6&#45;&gt;Node7 -->
<g id="edge6" class="edge">
<title>Node6&#45;&gt;Node7</title>
<path fill="none" stroke="midnightblue" d="M174.75,-48C162.09,-48 147.48,-48 135.29,-48"/>
<polygon fill="midnightblue" stroke="midnightblue" points="174.82,-51.5 184.82,-48 174.82,-44.5 174.82,-51.5"/>
</g>
<!-- Node8 -->
<g id="node8" class="node">
<title>Node8</title>
<g id="a_node8"><a xlink:href="drive_8f.html#a13048bf28dd0734640412d69349e3857" target="_top" xlink:title=" ">
<polygon fill="white" stroke="black" points="0,-19.5 0,-38.5 46,-38.5 46,-19.5 0,-19.5"/>
<text text-anchor="middle" x="23" y="-26.5" font-family="Helvetica,sans-Serif" font-size="10.00">nekton</text>
</a>
</g>
</g>
<!-- Node7&#45;&gt;Node8 -->
<g id="edge7" class="edge">
<title>Node7&#45;&gt;Node8</title>
<path fill="none" stroke="midnightblue" d="M72,-39.92C63.26,-37.93 54.15,-35.86 46.24,-34.06"/>
<polygon fill="midnightblue" stroke="midnightblue" points="71.47,-43.39 81.99,-42.2 73.02,-36.56 71.47,-43.39"/>
</g>
<!-- Node10 -->
<g id="node10" class="node">
<title>Node10</title>
<g id="a_node10"><a xlink:href="drive1_8f.html#a83f7c6d78ac4e68394f32533e847d0a3" target="_top" xlink:title=" ">
<polygon fill="white" stroke="black" points="83.5,-0.5 83.5,-19.5 133.5,-19.5 133.5,-0.5 83.5,-0.5"/>
<text text-anchor="middle" x="108.5" y="-7.5" font-family="Helvetica,sans-Serif" font-size="10.00">nek_init</text>
</a>
</g>
</g>
<!-- Node9&#45;&gt;Node10 -->
<g id="edge9" class="edge">
<title>Node9&#45;&gt;Node10</title>
<path fill="none" stroke="midnightblue" d="M290.75,-10C248.09,-10 172.5,-10 133.81,-10"/>
<polygon fill="midnightblue" stroke="midnightblue" points="290.85,-13.5 300.85,-10 290.85,-6.5 290.85,-13.5"/>
</g>
<!-- Node10&#45;&gt;Node8 -->
<g id="edge10" class="edge">
<title>Node10&#45;&gt;Node8</title>
<path fill="none" stroke="midnightblue" d="M73.59,-17.72C64.32,-19.82 54.52,-22.06 46.1,-23.97"/>
<polygon fill="midnightblue" stroke="midnightblue" points="74.37,-21.13 83.35,-15.5 72.82,-14.3 74.37,-21.13"/>
</g>
</g>
</svg>
