<?xml version="1.0" encoding="UTF-8" standalone="no"?>
<!DOCTYPE svg PUBLIC "-//W3C//DTD SVG 1.1//EN"
 "http://www.w3.org/Graphics/SVG/1.1/DTD/svg11.dtd">
<!-- Generated by graphviz version 2.46.0 (0)
 -->
<!-- Title: faddcl3 Pages: 1 -->
<svg width="476pt" height="180pt"
 viewBox="0.00 0.00 476.00 180.00" xmlns="http://www.w3.org/2000/svg" xmlns:xlink="http://www.w3.org/1999/xlink">
<g id="graph0" class="graph" transform="scale(1 1) rotate(0) translate(4 176)">
<title>faddcl3</title>
<polygon fill="white" stroke="transparent" points="-4,4 -4,-176 472,-176 472,4 -4,4"/>
<!-- Node1 -->
<g id="node1" class="node">
<title>Node1</title>
<g id="a_node1"><a xlink:title=" ">
<polygon fill="#bfbfbf" stroke="black" points="420,-76.5 420,-95.5 468,-95.5 468,-76.5 420,-76.5"/>
<text text-anchor="middle" x="444" y="-83.5" font-family="Helvetica,sans-Serif" font-size="10.00">faddcl3</text>
</a>
</g>
</g>
<!-- Node2 -->
<g id="node2" class="node">
<title>Node2</title>
<g id="a_node2"><a xlink:href="navier1_8f.html#ad3dcbbad0824cbca34368e71fbf93b47" target="_top" xlink:title=" ">
<polygon fill="white" stroke="black" points="309,-152.5 309,-171.5 365,-171.5 365,-152.5 309,-152.5"/>
<text text-anchor="middle" x="337" y="-159.5" font-family="Helvetica,sans-Serif" font-size="10.00">hypmsk3</text>
</a>
</g>
</g>
<!-- Node1&#45;&gt;Node2 -->
<g id="edge1" class="edge">
<title>Node1&#45;&gt;Node2</title>
<path fill="none" stroke="midnightblue" d="M428.24,-103.41C417.08,-115.74 400.84,-131.97 384,-143 378.22,-146.79 371.56,-150.06 365.13,-152.78"/>
<polygon fill="midnightblue" stroke="midnightblue" points="431.12,-105.44 435.1,-95.62 425.86,-100.81 431.12,-105.44"/>
</g>
<!-- Node4 -->
<g id="node4" class="node">
<title>Node4</title>
<g id="a_node4"><a xlink:href="navier1_8f.html#ad655747e7751be3584f491e5caf7423d" target="_top" xlink:title=" ">
<polygon fill="white" stroke="black" points="306,-114.5 306,-133.5 368,-133.5 368,-114.5 306,-114.5"/>
<text text-anchor="middle" x="337" y="-121.5" font-family="Helvetica,sans-Serif" font-size="10.00">hypmsk3v</text>
</a>
</g>
</g>
<!-- Node1&#45;&gt;Node4 -->
<g id="edge3" class="edge">
<title>Node1&#45;&gt;Node4</title>
<path fill="none" stroke="midnightblue" d="M410.19,-97.87C395.42,-103.22 378.22,-109.44 364.32,-114.48"/>
<polygon fill="midnightblue" stroke="midnightblue" points="411.75,-101.03 419.96,-94.34 409.36,-94.45 411.75,-101.03"/>
</g>
<!-- Node5 -->
<g id="node5" class="node">
<title>Node5</title>
<g id="a_node5"><a xlink:href="convect2_8f.html#a01a29f5210c957bacaaa03e41d3d7db9" target="_top" xlink:title=" ">
<polygon fill="white" stroke="black" points="295.5,-76.5 295.5,-95.5 378.5,-95.5 378.5,-76.5 295.5,-76.5"/>
<text text-anchor="middle" x="337" y="-83.5" font-family="Helvetica,sans-Serif" font-size="10.00">set_char_mask</text>
</a>
</g>
</g>
<!-- Node1&#45;&gt;Node5 -->
<g id="edge4" class="edge">
<title>Node1&#45;&gt;Node5</title>
<path fill="none" stroke="midnightblue" d="M409.77,-86C399.92,-86 389.02,-86 378.76,-86"/>
<polygon fill="midnightblue" stroke="midnightblue" points="409.96,-89.5 419.96,-86 409.96,-82.5 409.96,-89.5"/>
</g>
<!-- Node6 -->
<g id="node6" class="node">
<title>Node6</title>
<g id="a_node6"><a xlink:href="navier5_8f.html#af67de067f8a8c759d76b1bfc18e62333" target="_top" xlink:title=" ">
<polygon fill="white" stroke="black" points="302,-38.5 302,-57.5 372,-57.5 372,-38.5 302,-38.5"/>
<text text-anchor="middle" x="337" y="-45.5" font-family="Helvetica,sans-Serif" font-size="10.00">surface_flux</text>
</a>
</g>
</g>
<!-- Node1&#45;&gt;Node6 -->
<g id="edge5" class="edge">
<title>Node1&#45;&gt;Node6</title>
<path fill="none" stroke="midnightblue" d="M410.19,-74.13C395.42,-68.78 378.22,-62.56 364.32,-57.52"/>
<polygon fill="midnightblue" stroke="midnightblue" points="409.36,-77.55 419.96,-77.66 411.75,-70.97 409.36,-77.55"/>
</g>
<!-- Node7 -->
<g id="node7" class="node">
<title>Node7</title>
<g id="a_node7"><a xlink:href="multimesh_8f.html#ad214f79bfdf225361d1523f0b6317621" target="_top" xlink:title=" ">
<polygon fill="white" stroke="black" points="290,-0.5 290,-19.5 384,-19.5 384,-0.5 290,-0.5"/>
<text text-anchor="middle" x="337" y="-7.5" font-family="Helvetica,sans-Serif" font-size="10.00">surface_flux_area</text>
</a>
</g>
</g>
<!-- Node1&#45;&gt;Node7 -->
<g id="edge6" class="edge">
<title>Node1&#45;&gt;Node7</title>
<path fill="none" stroke="midnightblue" d="M428.24,-68.59C417.08,-56.26 400.84,-40.03 384,-29 378.51,-25.4 372.22,-22.27 366.1,-19.63"/>
<polygon fill="midnightblue" stroke="midnightblue" points="425.86,-71.19 435.1,-76.38 431.12,-66.56 425.86,-71.19"/>
</g>
<!-- Node3 -->
<g id="node3" class="node">
<title>Node3</title>
<g id="a_node3"><a xlink:href="navier1_8f.html#a4d395aa421289d7ccb9d97fa87c63b22" target="_top" xlink:title=" ">
<polygon fill="white" stroke="black" points="185.5,-152.5 185.5,-171.5 236.5,-171.5 236.5,-152.5 185.5,-152.5"/>
<text text-anchor="middle" x="211" y="-159.5" font-family="Helvetica,sans-Serif" font-size="10.00">ophyprk</text>
</a>
</g>
</g>
<!-- Node2&#45;&gt;Node3 -->
<g id="edge2" class="edge">
<title>Node2&#45;&gt;Node3</title>
<path fill="none" stroke="midnightblue" d="M298.71,-162C278.61,-162 254.36,-162 236.62,-162"/>
<polygon fill="midnightblue" stroke="midnightblue" points="298.79,-165.5 308.79,-162 298.79,-158.5 298.79,-165.5"/>
</g>
<!-- Node8 -->
<g id="node8" class="node">
<title>Node8</title>
<g id="a_node8"><a xlink:href="multimesh_8f.html#a7e0a20f11f4dacdf3a9a729e6b9feef0" target="_top" xlink:title=" ">
<polygon fill="white" stroke="black" points="168,-0.5 168,-19.5 254,-19.5 254,-0.5 168,-0.5"/>
<text text-anchor="middle" x="211" y="-7.5" font-family="Helvetica,sans-Serif" font-size="10.00">fix_surface_flux</text>
</a>
</g>
</g>
<!-- Node7&#45;&gt;Node8 -->
<g id="edge7" class="edge">
<title>Node7&#45;&gt;Node8</title>
<path fill="none" stroke="midnightblue" d="M279.8,-10C271.16,-10 262.38,-10 254.12,-10"/>
<polygon fill="midnightblue" stroke="midnightblue" points="279.83,-13.5 289.83,-10 279.83,-6.5 279.83,-13.5"/>
</g>
<!-- Node9 -->
<g id="node9" class="node">
<title>Node9</title>
<g id="a_node9"><a xlink:href="bdry_8f.html#aaa0d4258b1292dd19b9fc931df83bd68" target="_top" xlink:title=" ">
<polygon fill="white" stroke="red" points="84,-0.5 84,-19.5 132,-19.5 132,-0.5 84,-0.5"/>
<text text-anchor="middle" x="108" y="-7.5" font-family="Helvetica,sans-Serif" font-size="10.00">bcdirvc</text>
</a>
</g>
</g>
<!-- Node8&#45;&gt;Node9 -->
<g id="edge8" class="edge">
<title>Node8&#45;&gt;Node9</title>
<path fill="none" stroke="midnightblue" d="M157.64,-10C148.66,-10 139.76,-10 132.08,-10"/>
<polygon fill="midnightblue" stroke="midnightblue" points="157.75,-13.5 167.75,-10 157.75,-6.5 157.75,-13.5"/>
</g>
<!-- Node10 -->
<g id="node10" class="node">
<title>Node10</title>
<g id="a_node10"><a xlink:href="induct_8f.html#ad20db92578e3e1c33995173b73b254d0" target="_top" xlink:title=" ">
<polygon fill="white" stroke="red" points="0,-0.5 0,-19.5 48,-19.5 48,-0.5 0,-0.5"/>
<text text-anchor="middle" x="24" y="-7.5" font-family="Helvetica,sans-Serif" font-size="10.00">cresvib</text>
</a>
</g>
</g>
<!-- Node9&#45;&gt;Node10 -->
<g id="edge9" class="edge">
<title>Node9&#45;&gt;Node10</title>
<path fill="none" stroke="midnightblue" d="M73.59,-10C65.01,-10 55.98,-10 48.05,-10"/>
<polygon fill="midnightblue" stroke="midnightblue" points="73.72,-13.5 83.72,-10 73.72,-6.5 73.72,-13.5"/>
</g>
</g>
</svg>
