<?xml version="1.0" encoding="UTF-8" standalone="no"?>
<!DOCTYPE svg PUBLIC "-//W3C//DTD SVG 1.1//EN"
 "http://www.w3.org/Graphics/SVG/1.1/DTD/svg11.dtd">
<!-- Generated by graphviz version 2.46.0 (0)
 -->
<!-- Title: unorm Pages: 1 -->
<svg width="295pt" height="307pt"
 viewBox="0.00 0.00 295.00 306.85" xmlns="http://www.w3.org/2000/svg" xmlns:xlink="http://www.w3.org/1999/xlink">
<g id="graph0" class="graph" transform="scale(1 1) rotate(0) translate(4 302.85)">
<title>unorm</title>
<polygon fill="white" stroke="transparent" points="-4,4 -4,-302.85 291,-302.85 291,4 -4,4"/>
<!-- Node1 -->
<g id="node1" class="node">
<title>Node1</title>
<g id="a_node1"><a xlink:title=" ">
<polygon fill="#bfbfbf" stroke="black" points="0,-127.35 0,-146.35 44,-146.35 44,-127.35 0,-127.35"/>
<text text-anchor="middle" x="22" y="-134.35" font-family="Helvetica,sans-Serif" font-size="10.00">unorm</text>
</a>
</g>
</g>
<!-- Node2 -->
<g id="node2" class="node">
<title>Node2</title>
<g id="a_node2"><a xlink:href="navier1_8f.html#af8f288bd13e9077cfadcd76c95c59dc5" target="_top" xlink:title=" ">
<polygon fill="white" stroke="black" points="80,-184.35 80,-203.35 129,-203.35 129,-184.35 80,-184.35"/>
<text text-anchor="middle" x="104.5" y="-191.35" font-family="Helvetica,sans-Serif" font-size="10.00">normsc</text>
</a>
</g>
</g>
<!-- Node1&#45;&gt;Node2 -->
<g id="edge1" class="edge">
<title>Node1&#45;&gt;Node2</title>
<path fill="none" stroke="midnightblue" d="M36.66,-146.52C48.99,-155.25 67.35,-168.25 81.71,-178.42"/>
<polygon fill="midnightblue" stroke="midnightblue" points="79.86,-181.4 90.05,-184.32 83.91,-175.69 79.86,-181.4"/>
</g>
<!-- Node25 -->
<g id="node10" class="node">
<title>Node25</title>
<g id="a_node10"><a xlink:href="navier1_8f.html#a99a692f0ae41114b4725a9cf62458f1f" target="_top" xlink:title=" ">
<polygon fill="white" stroke="red" points="80,-89.35 80,-108.35 129,-108.35 129,-89.35 80,-89.35"/>
<text text-anchor="middle" x="104.5" y="-96.35" font-family="Helvetica,sans-Serif" font-size="10.00">normvc</text>
</a>
</g>
</g>
<!-- Node1&#45;&gt;Node25 -->
<g id="edge12" class="edge">
<title>Node1&#45;&gt;Node25</title>
<path fill="none" stroke="midnightblue" d="M43.31,-127.26C52.56,-122.9 63.69,-117.64 73.84,-112.85"/>
<polygon fill="midnightblue" stroke="midnightblue" points="75.64,-115.87 83.19,-108.44 72.66,-109.54 75.64,-115.87"/>
</g>
<!-- Node3 -->
<g id="node3" class="node">
<title>Node3</title>
<g id="a_node3"><a xlink:href="hmholtz_8f.html#aa576b5bd623cce50fd6323db12ba5376" target="_top" xlink:title=" ">
<polygon fill="white" stroke="red" points="165,-241.35 165,-260.35 213,-260.35 213,-241.35 165,-241.35"/>
<text text-anchor="middle" x="189" y="-248.35" font-family="Helvetica,sans-Serif" font-size="10.00">axhelm</text>
</a>
</g>
</g>
<!-- Node2&#45;&gt;Node3 -->
<g id="edge2" class="edge">
<title>Node2&#45;&gt;Node3</title>
<path fill="none" stroke="midnightblue" d="M119.5,-203.52C132.13,-212.25 150.95,-225.25 165.67,-235.42"/>
<polygon fill="midnightblue" stroke="midnightblue" points="163.99,-238.52 174.21,-241.32 167.97,-232.76 163.99,-238.52"/>
</g>
<!-- Node11 -->
<g id="node4" class="node">
<title>Node11</title>
<g id="a_node4"><a xlink:href="math_8f.html#a3470db04166d9ba91454a14cc17dbec2" target="_top" xlink:title=" ">
<polygon fill="white" stroke="red" points="250.5,-241.35 250.5,-260.35 285.5,-260.35 285.5,-241.35 250.5,-241.35"/>
<text text-anchor="middle" x="268" y="-248.35" font-family="Helvetica,sans-Serif" font-size="10.00">col2</text>
</a>
</g>
</g>
<!-- Node2&#45;&gt;Node11 -->
<g id="edge6" class="edge">
<title>Node2&#45;&gt;Node11</title>
<path fill="none" stroke="midnightblue" d="M109.62,-203.62C117.47,-220.8 136.38,-255.91 165,-269.85 189.15,-281.62 219.79,-273.22 241.15,-264.16"/>
<polygon fill="midnightblue" stroke="midnightblue" points="242.6,-267.35 250.26,-260.03 239.71,-260.98 242.6,-267.35"/>
</g>
<!-- Node12 -->
<g id="node5" class="node">
<title>Node12</title>
<g id="a_node5"><a xlink:href="math_8f.html#a0d9af374781723c272547a185cb3da5e" target="_top" xlink:title=" ">
<polygon fill="white" stroke="red" points="250.5,-203.35 250.5,-222.35 285.5,-222.35 285.5,-203.35 250.5,-203.35"/>
<text text-anchor="middle" x="268" y="-210.35" font-family="Helvetica,sans-Serif" font-size="10.00">col3</text>
</a>
</g>
</g>
<!-- Node2&#45;&gt;Node12 -->
<g id="edge7" class="edge">
<title>Node2&#45;&gt;Node12</title>
<path fill="none" stroke="midnightblue" d="M129.33,-196.65C159,-200.14 209.52,-206.09 240.42,-209.72"/>
<polygon fill="midnightblue" stroke="midnightblue" points="240.12,-213.21 250.46,-210.9 240.94,-206.26 240.12,-213.21"/>
</g>
<!-- Node13 -->
<g id="node6" class="node">
<title>Node13</title>
<g id="a_node6"><a xlink:href="math_8f.html#af44de42b023a4a68cd98ea341204342d" target="_top" xlink:title=" ">
<polygon fill="white" stroke="black" points="249,-279.35 249,-298.35 287,-298.35 287,-279.35 249,-279.35"/>
<text text-anchor="middle" x="268" y="-286.35" font-family="Helvetica,sans-Serif" font-size="10.00">rzero</text>
</a>
</g>
</g>
<!-- Node2&#45;&gt;Node13 -->
<g id="edge11" class="edge">
<title>Node2&#45;&gt;Node13</title>
<path fill="none" stroke="midnightblue" d="M108.42,-203.63C114.9,-223.34 132.52,-267.55 165,-285.85 187.42,-298.48 217.23,-297.74 238.83,-294.74"/>
<polygon fill="midnightblue" stroke="midnightblue" points="239.4,-298.2 248.7,-293.14 238.27,-291.29 239.4,-298.2"/>
</g>
<!-- Node20 -->
<g id="node7" class="node">
<title>Node20</title>
<g id="a_node7"><a xlink:href="math_8f.html#ad52d460588be4ef01891806b14c0ecda" target="_top" xlink:title=" ">
<polygon fill="white" stroke="red" points="165,-127.35 165,-146.35 213,-146.35 213,-127.35 165,-127.35"/>
<text text-anchor="middle" x="189" y="-134.35" font-family="Helvetica,sans-Serif" font-size="10.00">glamax</text>
</a>
</g>
</g>
<!-- Node2&#45;&gt;Node20 -->
<g id="edge8" class="edge">
<title>Node2&#45;&gt;Node20</title>
<path fill="none" stroke="midnightblue" d="M119.5,-184.18C132.13,-175.45 150.95,-162.45 165.67,-152.28"/>
<polygon fill="midnightblue" stroke="midnightblue" points="167.97,-154.94 174.21,-146.38 163.99,-149.18 167.97,-154.94"/>
</g>
<!-- Node23 -->
<g id="node8" class="node">
<title>Node23</title>
<g id="a_node8"><a xlink:href="math_8f.html#ac231f0566c16504dadd6ba0f16a38bd9" target="_top" xlink:title=" ">
<polygon fill="white" stroke="red" points="167.5,-89.35 167.5,-108.35 210.5,-108.35 210.5,-89.35 167.5,-89.35"/>
<text text-anchor="middle" x="189" y="-96.35" font-family="Helvetica,sans-Serif" font-size="10.00">glsum</text>
</a>
</g>
</g>
<!-- Node2&#45;&gt;Node23 -->
<g id="edge9" class="edge">
<title>Node2&#45;&gt;Node23</title>
<path fill="none" stroke="midnightblue" d="M112.04,-184.19C122.39,-169.21 143.6,-139.82 165,-117.85 165.89,-116.93 166.83,-116.01 167.79,-115.1"/>
<polygon fill="midnightblue" stroke="midnightblue" points="170.18,-117.66 175.39,-108.44 165.57,-112.4 170.18,-117.66"/>
</g>
<!-- Node24 -->
<g id="node9" class="node">
<title>Node24</title>
<g id="a_node9"><a xlink:href="math_8f.html#ae1294c8ac3b5b3c38bbcc250d252b9cb" target="_top" xlink:title=" ">
<polygon fill="white" stroke="black" points="171.5,-165.35 171.5,-184.35 206.5,-184.35 206.5,-165.35 171.5,-165.35"/>
<text text-anchor="middle" x="189" y="-172.35" font-family="Helvetica,sans-Serif" font-size="10.00">rone</text>
</a>
</g>
</g>
<!-- Node2&#45;&gt;Node24 -->
<g id="edge10" class="edge">
<title>Node2&#45;&gt;Node24</title>
<path fill="none" stroke="midnightblue" d="M129.36,-188.35C139.32,-186.06 150.94,-183.39 161.19,-181.02"/>
<polygon fill="midnightblue" stroke="midnightblue" points="162.3,-184.36 171.26,-178.71 160.73,-177.54 162.3,-184.36"/>
</g>
<!-- Node3&#45;&gt;Node11 -->
<g id="edge3" class="edge">
<title>Node3&#45;&gt;Node11</title>
<path fill="none" stroke="midnightblue" d="M213.1,-250.85C221.54,-250.85 231.17,-250.85 239.92,-250.85"/>
<polygon fill="midnightblue" stroke="midnightblue" points="240.03,-254.35 250.03,-250.85 240.03,-247.35 240.03,-254.35"/>
</g>
<!-- Node3&#45;&gt;Node12 -->
<g id="edge4" class="edge">
<title>Node3&#45;&gt;Node12</title>
<path fill="none" stroke="midnightblue" d="M209.43,-241.26C219.12,-236.48 230.96,-230.64 241.38,-225.49"/>
<polygon fill="midnightblue" stroke="midnightblue" points="243.03,-228.58 250.45,-221.02 239.93,-222.31 243.03,-228.58"/>
</g>
<!-- Node3&#45;&gt;Node13 -->
<g id="edge5" class="edge">
<title>Node3&#45;&gt;Node13</title>
<path fill="none" stroke="midnightblue" d="M209.43,-260.44C218.61,-264.97 229.73,-270.46 239.74,-275.4"/>
<polygon fill="midnightblue" stroke="midnightblue" points="238.38,-278.63 248.9,-279.92 241.48,-272.35 238.38,-278.63"/>
</g>
<!-- Node25&#45;&gt;Node11 -->
<g id="edge13" class="edge">
<title>Node25&#45;&gt;Node11</title>
<path fill="none" stroke="midnightblue" d="M113.52,-89.33C132.43,-67.99 180.68,-20.22 213,-46.85 277.64,-100.12 210.67,-157.37 249,-231.85 249.22,-232.27 249.45,-232.7 249.69,-233.11"/>
<polygon fill="midnightblue" stroke="midnightblue" points="247.05,-235.42 255.91,-241.24 252.61,-231.17 247.05,-235.42"/>
</g>
<!-- Node25&#45;&gt;Node12 -->
<g id="edge14" class="edge">
<title>Node25&#45;&gt;Node12</title>
<path fill="none" stroke="midnightblue" d="M108.44,-89.2C114.97,-69.76 132.66,-26.24 165,-8.85 183.79,1.25 196.09,4.16 213,-8.85 242.5,-31.56 259.2,-146.79 264.82,-193.32"/>
<polygon fill="midnightblue" stroke="midnightblue" points="261.36,-193.81 265.99,-203.34 268.31,-193 261.36,-193.81"/>
</g>
<!-- Node25&#45;&gt;Node13 -->
<g id="edge18" class="edge">
<title>Node25&#45;&gt;Node13</title>
<path fill="none" stroke="midnightblue" d="M120.97,-89.28C143.78,-76.53 186.58,-57.97 213,-79.85 279.19,-134.68 209.86,-193.33 249,-269.85 249.22,-270.27 249.45,-270.7 249.69,-271.12"/>
<polygon fill="midnightblue" stroke="midnightblue" points="247.05,-273.42 255.9,-279.25 252.61,-269.17 247.05,-273.42"/>
</g>
<!-- Node25&#45;&gt;Node20 -->
<g id="edge15" class="edge">
<title>Node25&#45;&gt;Node20</title>
<path fill="none" stroke="midnightblue" d="M126.32,-108.44C135.89,-112.85 147.43,-118.16 157.93,-123"/>
<polygon fill="midnightblue" stroke="midnightblue" points="156.64,-126.26 167.19,-127.26 159.57,-119.9 156.64,-126.26"/>
</g>
<!-- Node25&#45;&gt;Node23 -->
<g id="edge16" class="edge">
<title>Node25&#45;&gt;Node23</title>
<path fill="none" stroke="midnightblue" d="M129.36,-98.85C137.98,-98.85 147.84,-98.85 156.98,-98.85"/>
<polygon fill="midnightblue" stroke="midnightblue" points="157.27,-102.35 167.27,-98.85 157.27,-95.35 157.27,-102.35"/>
</g>
<!-- Node25&#45;&gt;Node24 -->
<g id="edge17" class="edge">
<title>Node25&#45;&gt;Node24</title>
<path fill="none" stroke="midnightblue" d="M114.98,-108.35C126.56,-119.85 146.83,-139.68 165,-155.85 166.11,-156.84 167.27,-157.85 168.43,-158.86"/>
<polygon fill="midnightblue" stroke="midnightblue" points="166.25,-161.59 176.16,-165.35 170.76,-156.23 166.25,-161.59"/>
</g>
</g>
</svg>
