<?xml version="1.0" encoding="UTF-8" standalone="no"?>
<!DOCTYPE svg PUBLIC "-//W3C//DTD SVG 1.1//EN"
 "http://www.w3.org/Graphics/SVG/1.1/DTD/svg11.dtd">
<!-- Generated by graphviz version 2.46.0 (0)
 -->
<!-- Title: set_vert_strs Pages: 1 -->
<!--zoomable 142 -->
<svg id="main" version="1.1" xmlns="http://www.w3.org/2000/svg" xmlns:xlink="http://www.w3.org/1999/xlink" xml:space="preserve" onload="init(evt)">
<style type="text/css"><![CDATA[
.edge:hover path { stroke: red; }
.edge:hover polygon { stroke: red; fill: red; }
]]></style>
<script type="text/javascript"><![CDATA[
var edges = document.getElementsByTagName('g');
if (edges && edges.length) {
  for (var i=0;i<edges.length;i++) {
    if (edges[i].id.substr(0,4)=='edge') {
      edges[i].setAttribute('class','edge');
    }
  }
}
]]></script>
        <defs>
                <circle id="rim" cx="0" cy="0" r="7"/>
                <circle id="rim2" cx="0" cy="0" r="3.5"/>
                <g id="zoomPlus">
                        <use xlink:href="#rim" fill="#404040">
                                <set attributeName="fill" to="#808080" begin="zoomplus.mouseover" end="zoomplus.mouseout"/>
                        </use>
                        <path d="M-4,0h8M0,-4v8" fill="none" stroke="white" stroke-width="1.5" pointer-events="none"/>
                </g>
                <g id="zoomMin">
                        <use xlink:href="#rim" fill="#404040">
                                <set attributeName="fill" to="#808080" begin="zoomminus.mouseover" end="zoomminus.mouseout"/>
                        </use>
                        <path d="M-4,0h8" fill="none" stroke="white" stroke-width="1.5" pointer-events="none"/>
                </g>
                <g id="dirArrow">
                        <path fill="none" stroke="white" stroke-width="1.5" d="M0,-3.0v7 M-2.5,-0.5L0,-3.0L2.5,-0.5"/>
                </g>
               <g id="resetDef">
                       <use xlink:href="#rim2" fill="#404040">
                               <set attributeName="fill" to="#808080" begin="reset.mouseover" end="reset.mouseout"/>
                       </use>
               </g>
        </defs>

<script type="text/javascript">
var viewWidth = 560;
var viewHeight = 142;
var sectionId = 'dynsection-57';
</script>
<script xlink:href="svgpan.js"/>
<svg id="graph" class="graph">
<g id="viewport">
<title>set_vert_strs</title>
<polygon fill="white" stroke="transparent" points="-4,4 -4,-138 556,-138 556,4 -4,4"/>
<!-- Node1 -->
<g id="node1" class="node">
<title>Node1</title>
<g id="a_node1"><a xlink:title=" ">
<polygon fill="#bfbfbf" stroke="black" points="478,-57.5 478,-76.5 552,-76.5 552,-57.5 478,-57.5"/>
<text text-anchor="middle" x="515" y="-64.5" font-family="Helvetica,sans-Serif" font-size="10.00">set_vert_strs</text>
</a>
</g>
</g>
<!-- Node2 -->
<g id="node2" class="node">
<title>Node2</title>
<g id="a_node2"><a xlink:href="subs1_8f.html#a4a41bf250a5f224d28fa0e8ac216b40f" target="_top" xlink:title=" ">
<polygon fill="white" stroke="black" points="340,-57.5 340,-76.5 442,-76.5 442,-57.5 340,-57.5"/>
<text text-anchor="middle" x="391" y="-64.5" font-family="Helvetica,sans-Serif" font-size="10.00">set_up_h1_crs_strs</text>
</a>
</g>
</g>
<!-- Node1&#45;&gt;Node2 -->
<g id="edge1" class="edge">
<title>Node1&#45;&gt;Node2</title>
<path fill="none" stroke="midnightblue" d="M467.54,-67C459.31,-67 450.7,-67 442.36,-67"/>
<polygon fill="midnightblue" stroke="midnightblue" points="467.73,-70.5 477.73,-67 467.73,-63.5 467.73,-70.5"/>
</g>
<!-- Node3 -->
<g id="node3" class="node">
<title>Node3</title>
<g id="a_node3"><a xlink:href="subs1_8f.html#afbde33b8466b90206f1fa13b3800b7d5" target="_top" xlink:title=" ">
<polygon fill="white" stroke="black" points="258,-57.5 258,-76.5 304,-76.5 304,-57.5 258,-57.5"/>
<text text-anchor="middle" x="281" y="-64.5" font-family="Helvetica,sans-Serif" font-size="10.00">cggosf</text>
</a>
</g>
</g>
<!-- Node2&#45;&gt;Node3 -->
<g id="edge2" class="edge">
<title>Node2&#45;&gt;Node3</title>
<path fill="none" stroke="midnightblue" d="M329.78,-67C320.59,-67 311.64,-67 304.03,-67"/>
<polygon fill="midnightblue" stroke="midnightblue" points="329.79,-70.5 339.79,-67 329.79,-63.5 329.79,-70.5"/>
</g>
<!-- Node4 -->
<g id="node4" class="node">
<title>Node4</title>
<g id="a_node4"><a xlink:href="subs1_8f.html#aab6bde102bb9bd893cf1880c2d7746ad" target="_top" xlink:title=" ">
<polygon fill="white" stroke="black" points="173,-57.5 173,-76.5 222,-76.5 222,-57.5 173,-57.5"/>
<text text-anchor="middle" x="197.5" y="-64.5" font-family="Helvetica,sans-Serif" font-size="10.00">hmhzsf</text>
</a>
</g>
</g>
<!-- Node3&#45;&gt;Node4 -->
<g id="edge3" class="edge">
<title>Node3&#45;&gt;Node4</title>
<path fill="none" stroke="midnightblue" d="M247.7,-67C239.18,-67 230.14,-67 222.17,-67"/>
<polygon fill="midnightblue" stroke="midnightblue" points="247.73,-70.5 257.73,-67 247.73,-63.5 247.73,-70.5"/>
</g>
<!-- Node5 -->
<g id="node5" class="node">
<title>Node5</title>
<g id="a_node5"><a xlink:href="mvmesh_8f.html#afe758b960e97c23351436f63eb9d4eff" target="_top" xlink:title=" ">
<polygon fill="white" stroke="black" points="90,-76.5 90,-95.5 137,-95.5 137,-76.5 90,-76.5"/>
<text text-anchor="middle" x="113.5" y="-83.5" font-family="Helvetica,sans-Serif" font-size="10.00">elasolv</text>
</a>
</g>
</g>
<!-- Node4&#45;&gt;Node5 -->
<g id="edge4" class="edge">
<title>Node4&#45;&gt;Node5</title>
<path fill="none" stroke="midnightblue" d="M162.88,-74.79C154.18,-76.81 145.02,-78.93 137.04,-80.78"/>
<polygon fill="midnightblue" stroke="midnightblue" points="163.83,-78.16 172.78,-72.5 162.25,-71.34 163.83,-78.16"/>
</g>
<!-- Node18 -->
<g id="node8" class="node">
<title>Node18</title>
<g id="a_node8"><a xlink:href="induct_8f.html#a1a8a16f24236d6e6f08fe4d60cb29d01" target="_top" xlink:title=" ">
<polygon fill="white" stroke="red" points="91,-38.5 91,-57.5 136,-57.5 136,-38.5 91,-38.5"/>
<text text-anchor="middle" x="113.5" y="-45.5" font-family="Helvetica,sans-Serif" font-size="10.00">ophinv</text>
</a>
</g>
</g>
<!-- Node4&#45;&gt;Node18 -->
<g id="edge7" class="edge">
<title>Node4&#45;&gt;Node18</title>
<path fill="none" stroke="midnightblue" d="M162.91,-59.22C153.89,-57.13 144.38,-54.92 136.2,-53.03"/>
<polygon fill="midnightblue" stroke="midnightblue" points="162.25,-62.66 172.78,-61.5 163.83,-55.84 162.25,-62.66"/>
</g>
<!-- Node6 -->
<g id="node6" class="node">
<title>Node6</title>
<g id="a_node6"><a xlink:href="drive2_8f.html#aa4f676fe0a57e3cbdce8c8fe353edeb0" target="_top" xlink:title=" ">
<polygon fill="white" stroke="red" points="4,-114.5 4,-133.5 50,-133.5 50,-114.5 4,-114.5"/>
<text text-anchor="middle" x="27" y="-121.5" font-family="Helvetica,sans-Serif" font-size="10.00">meshv</text>
</a>
</g>
</g>
<!-- Node5&#45;&gt;Node6 -->
<g id="edge5" class="edge">
<title>Node5&#45;&gt;Node6</title>
<path fill="none" stroke="midnightblue" d="M82.02,-99.71C71.18,-104.58 59.22,-109.96 49.32,-114.41"/>
<polygon fill="midnightblue" stroke="midnightblue" points="83.49,-102.88 91.18,-95.59 80.62,-96.5 83.49,-102.88"/>
</g>
<!-- Node17 -->
<g id="node7" class="node">
<title>Node17</title>
<g id="a_node7"><a xlink:href="mvmesh_8f.html#a1c924aee9d9ada8ef173bf0f8a3168b9" target="_top" xlink:title=" ">
<polygon fill="white" stroke="red" points="0,-76.5 0,-95.5 54,-95.5 54,-76.5 0,-76.5"/>
<text text-anchor="middle" x="27" y="-83.5" font-family="Helvetica,sans-Serif" font-size="10.00">ptbgeom</text>
</a>
</g>
</g>
<!-- Node5&#45;&gt;Node17 -->
<g id="edge6" class="edge">
<title>Node5&#45;&gt;Node17</title>
<path fill="none" stroke="midnightblue" d="M79.61,-86C71.22,-86 62.31,-86 54.3,-86"/>
<polygon fill="midnightblue" stroke="midnightblue" points="79.86,-89.5 89.86,-86 79.86,-82.5 79.86,-89.5"/>
</g>
<!-- Node19 -->
<g id="node9" class="node">
<title>Node19</title>
<g id="a_node9"><a xlink:href="navier1_8f.html#a65f34d5a85fb540d8cb0fd1fbf1d2e6b" target="_top" xlink:title=" ">
<polygon fill="white" stroke="red" points="1.5,-38.5 1.5,-57.5 52.5,-57.5 52.5,-38.5 1.5,-38.5"/>
<text text-anchor="middle" x="27" y="-45.5" font-family="Helvetica,sans-Serif" font-size="10.00">cdabdtp</text>
</a>
</g>
</g>
<!-- Node18&#45;&gt;Node19 -->
<g id="edge8" class="edge">
<title>Node18&#45;&gt;Node19</title>
<path fill="none" stroke="midnightblue" d="M80.68,-48C71.41,-48 61.43,-48 52.67,-48"/>
<polygon fill="midnightblue" stroke="midnightblue" points="80.74,-51.5 90.74,-48 80.74,-44.5 80.74,-51.5"/>
</g>
<!-- Node55 -->
<g id="node10" class="node">
<title>Node55</title>
<g id="a_node10"><a xlink:href="navier1_8f.html#a9a81e8c08ce04d9d86d24c396518e583" target="_top" xlink:title=" ">
<polygon fill="white" stroke="red" points="1.5,-0.5 1.5,-19.5 52.5,-19.5 52.5,-0.5 1.5,-0.5"/>
<text text-anchor="middle" x="27" y="-7.5" font-family="Helvetica,sans-Serif" font-size="10.00">crespuz</text>
</a>
</g>
</g>
<!-- Node18&#45;&gt;Node55 -->
<g id="edge9" class="edge">
<title>Node18&#45;&gt;Node55</title>
<path fill="none" stroke="midnightblue" d="M82.02,-34.29C71.18,-29.42 59.22,-24.04 49.32,-19.59"/>
<polygon fill="midnightblue" stroke="midnightblue" points="80.62,-37.5 91.18,-38.41 83.49,-31.12 80.62,-37.5"/>
</g>
</g>
</svg>
        <g id="navigator" transform="translate(0 0)" fill="#404254">
                <rect fill="#f2f5e9" fill-opacity="0.5" stroke="#606060" stroke-width=".5" x="0" y="0" width="60" height="60"/>
                <use id="zoomplus" xlink:href="#zoomPlus" x="17" y="9" onmousedown="handleZoom(evt,'in')"/>
                <use id="zoomminus" xlink:href="#zoomMin" x="42" y="9" onmousedown="handleZoom(evt,'out')"/>
                <use id="reset" xlink:href="#resetDef" x="30" y="36" onmousedown="handleReset()"/>
                <g id="arrowUp" xlink:href="#dirArrow" transform="translate(30 24)" onmousedown="handlePan(0,-1)">
                  <use xlink:href="#rim" fill="#404040">
                        <set attributeName="fill" to="#808080" begin="arrowUp.mouseover" end="arrowUp.mouseout"/>
                  </use>
                  <path fill="none" stroke="white" stroke-width="1.5" d="M0,-3.0v7 M-2.5,-0.5L0,-3.0L2.5,-0.5"/>
                </g>
                <g id="arrowRight" xlink:href="#dirArrow" transform="rotate(90) translate(36 -43)" onmousedown="handlePan(1,0)">
                  <use xlink:href="#rim" fill="#404040">
                        <set attributeName="fill" to="#808080" begin="arrowRight.mouseover" end="arrowRight.mouseout"/>
                  </use>
                  <path fill="none" stroke="white" stroke-width="1.5" d="M0,-3.0v7 M-2.5,-0.5L0,-3.0L2.5,-0.5"/>
                </g>
                <g id="arrowDown" xlink:href="#dirArrow" transform="rotate(180) translate(-30 -48)" onmousedown="handlePan(0,1)">
                  <use xlink:href="#rim" fill="#404040">
                        <set attributeName="fill" to="#808080" begin="arrowDown.mouseover" end="arrowDown.mouseout"/>
                  </use>
                  <path fill="none" stroke="white" stroke-width="1.5" d="M0,-3.0v7 M-2.5,-0.5L0,-3.0L2.5,-0.5"/>
                </g>
                <g id="arrowLeft" xlink:href="#dirArrow" transform="rotate(270) translate(-36 17)" onmousedown="handlePan(-1,0)">
                  <use xlink:href="#rim" fill="#404040">
                        <set attributeName="fill" to="#808080" begin="arrowLeft.mouseover" end="arrowLeft.mouseout"/>
                  </use>
                  <path fill="none" stroke="white" stroke-width="1.5" d="M0,-3.0v7 M-2.5,-0.5L0,-3.0L2.5,-0.5"/>
                </g>
        </g>
        <svg viewBox="0 0 15 15" width="100%" height="30px" preserveAspectRatio="xMaxYMin meet">
         <g id="arrow_out" transform="scale(0.3 0.3)">
          <a xlink:href="subs1_8f_ad7ba016312892cc812c3bd71457cd7d0_icgraph_org.svg" target="_base">
           <rect id="button" ry="5" rx="5" y="6" x="6" height="38" width="38"
                fill="#f2f5e9" fill-opacity="0.5" stroke="#606060" stroke-width="1.0"/>
           <path id="arrow"
             d="M 11.500037,31.436501 C 11.940474,20.09759 22.043105,11.32322 32.158766,21.979434 L 37.068811,17.246167 C 37.068811,17.246167 37.088388,32 37.088388,32 L 22.160133,31.978069 C 22.160133,31.978069 26.997745,27.140456 26.997745,27.140456 C 18.528582,18.264221 13.291696,25.230495 11.500037,31.436501 z"
             style="fill:#404040;"/>
          </a>
         </g>
        </svg>
</svg>
