<?xml version="1.0" encoding="UTF-8" standalone="no"?>
<!DOCTYPE svg PUBLIC "-//W3C//DTD SVG 1.1//EN"
 "http://www.w3.org/Graphics/SVG/1.1/DTD/svg11.dtd">
<!-- Generated by graphviz version 2.46.0 (0)
 -->
<!-- Title: stress Pages: 1 -->
<svg width="409pt" height="256pt"
 viewBox="0.00 0.00 409.00 256.00" xmlns="http://www.w3.org/2000/svg" xmlns:xlink="http://www.w3.org/1999/xlink">
<g id="graph0" class="graph" transform="scale(1 1) rotate(0) translate(4 252)">
<title>stress</title>
<polygon fill="white" stroke="transparent" points="-4,4 -4,-252 405,-252 405,4 -4,4"/>
<!-- Node1 -->
<g id="node1" class="node">
<title>Node1</title>
<g id="a_node1"><a xlink:title=" ">
<polygon fill="#bfbfbf" stroke="black" points="357,-114.5 357,-133.5 401,-133.5 401,-114.5 357,-114.5"/>
<text text-anchor="middle" x="379" y="-121.5" font-family="Helvetica,sans-Serif" font-size="10.00">stress</text>
</a>
</g>
</g>
<!-- Node2 -->
<g id="node2" class="node">
<title>Node2</title>
<g id="a_node2"><a xlink:href="subs1_8f.html#a47a832cdc015115f79e23f5f6d33324c" target="_top" xlink:title=" ">
<polygon fill="white" stroke="black" points="272,-114.5 272,-133.5 321,-133.5 321,-114.5 272,-114.5"/>
<text text-anchor="middle" x="296.5" y="-121.5" font-family="Helvetica,sans-Serif" font-size="10.00">axhmsf</text>
</a>
</g>
</g>
<!-- Node1&#45;&gt;Node2 -->
<g id="edge1" class="edge">
<title>Node1&#45;&gt;Node2</title>
<path fill="none" stroke="midnightblue" d="M346.81,-124C338.25,-124 329.11,-124 321.06,-124"/>
<polygon fill="midnightblue" stroke="midnightblue" points="346.85,-127.5 356.85,-124 346.85,-120.5 346.85,-127.5"/>
</g>
<!-- Node3 -->
<g id="node3" class="node">
<title>Node3</title>
<g id="a_node3"><a xlink:href="subs1_8f.html#a93fcd12aed7544b1e1515e46699248a5" target="_top" xlink:title=" ">
<polygon fill="white" stroke="black" points="181.5,-228.5 181.5,-247.5 225.5,-247.5 225.5,-228.5 181.5,-228.5"/>
<text text-anchor="middle" x="203.5" y="-235.5" font-family="Helvetica,sans-Serif" font-size="10.00">axstrs</text>
</a>
</g>
</g>
<!-- Node2&#45;&gt;Node3 -->
<g id="edge2" class="edge">
<title>Node2&#45;&gt;Node3</title>
<path fill="none" stroke="midnightblue" d="M286.99,-142.9C277.02,-163.49 258.91,-196.47 236,-219 232.36,-222.58 227.91,-225.78 223.53,-228.49"/>
<polygon fill="midnightblue" stroke="midnightblue" points="290.25,-144.18 291.33,-133.64 283.92,-141.21 290.25,-144.18"/>
</g>
<!-- Node4 -->
<g id="node4" class="node">
<title>Node4</title>
<g id="a_node4"><a xlink:href="subs1_8f.html#aaa4835180deb5c6ac575a39c41f30a43" target="_top" xlink:title=" ">
<polygon fill="white" stroke="black" points="171,-190.5 171,-209.5 236,-209.5 236,-190.5 171,-190.5"/>
<text text-anchor="middle" x="203.5" y="-197.5" font-family="Helvetica,sans-Serif" font-size="10.00">axstrs_nds</text>
</a>
</g>
</g>
<!-- Node2&#45;&gt;Node4 -->
<g id="edge3" class="edge">
<title>Node2&#45;&gt;Node4</title>
<path fill="none" stroke="midnightblue" d="M279.66,-141.07C268.15,-152.98 251.87,-168.85 236,-181 231.64,-184.34 226.65,-187.58 221.95,-190.41"/>
<polygon fill="midnightblue" stroke="midnightblue" points="282.45,-143.21 286.8,-133.55 277.37,-138.39 282.45,-143.21"/>
</g>
<!-- Node7 -->
<g id="node6" class="node">
<title>Node7</title>
<g id="a_node6"><a xlink:href="subs1_8f.html#afbde33b8466b90206f1fa13b3800b7d5" target="_top" xlink:title=" ">
<polygon fill="white" stroke="red" points="180.5,-152.5 180.5,-171.5 226.5,-171.5 226.5,-152.5 180.5,-152.5"/>
<text text-anchor="middle" x="203.5" y="-159.5" font-family="Helvetica,sans-Serif" font-size="10.00">cggosf</text>
</a>
</g>
</g>
<!-- Node2&#45;&gt;Node7 -->
<g id="edge5" class="edge">
<title>Node2&#45;&gt;Node7</title>
<path fill="none" stroke="midnightblue" d="M263.17,-137.5C251.02,-142.57 237.51,-148.22 226.51,-152.81"/>
<polygon fill="midnightblue" stroke="midnightblue" points="264.66,-140.67 272.54,-133.59 261.96,-134.21 264.66,-140.67"/>
</g>
<!-- Node9 -->
<g id="node7" class="node">
<title>Node9</title>
<g id="a_node7"><a xlink:href="mvmesh_8f.html#afe758b960e97c23351436f63eb9d4eff" target="_top" xlink:title=" ">
<polygon fill="white" stroke="red" points="180,-114.5 180,-133.5 227,-133.5 227,-114.5 180,-114.5"/>
<text text-anchor="middle" x="203.5" y="-121.5" font-family="Helvetica,sans-Serif" font-size="10.00">elasolv</text>
</a>
</g>
</g>
<!-- Node2&#45;&gt;Node9 -->
<g id="edge6" class="edge">
<title>Node2&#45;&gt;Node9</title>
<path fill="none" stroke="midnightblue" d="M261.49,-124C250.09,-124 237.65,-124 227.31,-124"/>
<polygon fill="midnightblue" stroke="midnightblue" points="261.59,-127.5 271.59,-124 261.59,-120.5 261.59,-127.5"/>
</g>
<!-- Node64 -->
<g id="node8" class="node">
<title>Node64</title>
<g id="a_node8"><a xlink:href="subs2_8f.html#ad8a6bc8a1f656abf763a97453f623f0f" target="_top" xlink:title=" ">
<polygon fill="white" stroke="red" points="175,-76.5 175,-95.5 232,-95.5 232,-76.5 175,-76.5"/>
<text text-anchor="middle" x="203.5" y="-83.5" font-family="Helvetica,sans-Serif" font-size="10.00">gammasf</text>
</a>
</g>
</g>
<!-- Node2&#45;&gt;Node64 -->
<g id="edge7" class="edge">
<title>Node2&#45;&gt;Node64</title>
<path fill="none" stroke="midnightblue" d="M263.03,-110.44C251.27,-105.53 238.23,-100.09 227.46,-95.59"/>
<polygon fill="midnightblue" stroke="midnightblue" points="261.96,-113.79 272.54,-114.41 264.66,-107.33 261.96,-113.79"/>
</g>
<!-- Node65 -->
<g id="node9" class="node">
<title>Node65</title>
<g id="a_node9"><a xlink:href="navier1_8f.html#aaf82c7bf142ad5f9c363e3dc3c39fa3c" target="_top" xlink:title=" ">
<polygon fill="white" stroke="red" points="184.5,-38.5 184.5,-57.5 222.5,-57.5 222.5,-38.5 184.5,-38.5"/>
<text text-anchor="middle" x="203.5" y="-45.5" font-family="Helvetica,sans-Serif" font-size="10.00">ophx</text>
</a>
</g>
</g>
<!-- Node2&#45;&gt;Node65 -->
<g id="edge8" class="edge">
<title>Node2&#45;&gt;Node65</title>
<path fill="none" stroke="midnightblue" d="M279.66,-106.93C268.15,-95.02 251.87,-79.15 236,-67 231.64,-63.66 226.65,-60.42 221.95,-57.59"/>
<polygon fill="midnightblue" stroke="midnightblue" points="277.37,-109.61 286.8,-114.45 282.45,-104.79 277.37,-109.61"/>
</g>
<!-- Node91 -->
<g id="node10" class="node">
<title>Node91</title>
<g id="a_node10"><a xlink:href="subs1_8f.html#aa4e9d6b048f4130c133f86568f4f8c40" target="_top" xlink:title=" ">
<polygon fill="white" stroke="red" points="171,-0.5 171,-19.5 236,-19.5 236,-0.5 171,-0.5"/>
<text text-anchor="middle" x="203.5" y="-7.5" font-family="Helvetica,sans-Serif" font-size="10.00">strs_orthok</text>
</a>
</g>
</g>
<!-- Node2&#45;&gt;Node91 -->
<g id="edge9" class="edge">
<title>Node2&#45;&gt;Node91</title>
<path fill="none" stroke="midnightblue" d="M286.99,-105.1C277.02,-84.51 258.91,-51.53 236,-29 232.36,-25.42 227.91,-22.22 223.53,-19.51"/>
<polygon fill="midnightblue" stroke="midnightblue" points="283.92,-106.79 291.33,-114.36 290.25,-103.82 283.92,-106.79"/>
</g>
<!-- Node5 -->
<g id="node5" class="node">
<title>Node5</title>
<g id="a_node5"><a xlink:href="subs1_8f.html#abeb3fbefdc0288bbebf73974c87c2433" target="_top" xlink:title=" ">
<polygon fill="white" stroke="red" points="0,-190.5 0,-209.5 135,-209.5 135,-190.5 0,-190.5"/>
<text text-anchor="middle" x="67.5" y="-197.5" font-family="Helvetica,sans-Serif" font-size="10.00">get_local_crs_galerkin_strs</text>
</a>
</g>
</g>
<!-- Node4&#45;&gt;Node5 -->
<g id="edge4" class="edge">
<title>Node4&#45;&gt;Node5</title>
<path fill="none" stroke="midnightblue" d="M160.49,-200C152.4,-200 143.75,-200 135.1,-200"/>
<polygon fill="midnightblue" stroke="midnightblue" points="160.74,-203.5 170.74,-200 160.74,-196.5 160.74,-203.5"/>
</g>
</g>
</svg>
