<?xml version="1.0" encoding="UTF-8" standalone="no"?>
<!DOCTYPE svg PUBLIC "-//W3C//DTD SVG 1.1//EN"
 "http://www.w3.org/Graphics/SVG/1.1/DTD/svg11.dtd">
<!-- Generated by graphviz version 2.46.0 (0)
 -->
<!-- Title: fixmska Pages: 1 -->
<svg width="222pt" height="104pt"
 viewBox="0.00 0.00 222.00 104.00" xmlns="http://www.w3.org/2000/svg" xmlns:xlink="http://www.w3.org/1999/xlink">
<g id="graph0" class="graph" transform="scale(1 1) rotate(0) translate(4 100)">
<title>fixmska</title>
<polygon fill="white" stroke="transparent" points="-4,4 -4,-100 218,-100 218,4 -4,4"/>
<!-- Node1 -->
<g id="node1" class="node">
<title>Node1</title>
<g id="a_node1"><a xlink:title=" ">
<polygon fill="#bfbfbf" stroke="black" points="0,-38.5 0,-57.5 51,-57.5 51,-38.5 0,-38.5"/>
<text text-anchor="middle" x="25.5" y="-45.5" font-family="Helvetica,sans-Serif" font-size="10.00">fixmska</text>
</a>
</g>
</g>
<!-- Node2 -->
<g id="node2" class="node">
<title>Node2</title>
<g id="a_node2"><a xlink:href="subs2_8f.html#a98c5f040f1f45cbcb7561042b10521ea" target="_top" xlink:title=" ">
<polygon fill="white" stroke="black" points="92.5,-76.5 92.5,-95.5 129.5,-95.5 129.5,-76.5 92.5,-76.5"/>
<text text-anchor="middle" x="111" y="-83.5" font-family="Helvetica,sans-Serif" font-size="10.00">icol2</text>
</a>
</g>
</g>
<!-- Node1&#45;&gt;Node2 -->
<g id="edge1" class="edge">
<title>Node1&#45;&gt;Node2</title>
<path fill="none" stroke="midnightblue" d="M47.57,-57.59C58.37,-62.5 71.63,-68.54 83.15,-73.78"/>
<polygon fill="midnightblue" stroke="midnightblue" points="81.77,-77 92.32,-77.96 84.67,-70.63 81.77,-77"/>
</g>
<!-- Node3 -->
<g id="node3" class="node">
<title>Node3</title>
<g id="a_node3"><a xlink:href="subs2_8f.html#ae8f049d873a3a44d1e684a05b770adc2" target="_top" xlink:title=" ">
<polygon fill="white" stroke="black" points="87,-38.5 87,-57.5 135,-57.5 135,-38.5 87,-38.5"/>
<text text-anchor="middle" x="111" y="-45.5" font-family="Helvetica,sans-Serif" font-size="10.00">iface_e</text>
</a>
</g>
</g>
<!-- Node1&#45;&gt;Node3 -->
<g id="edge2" class="edge">
<title>Node1&#45;&gt;Node3</title>
<path fill="none" stroke="midnightblue" d="M51.1,-48C59.1,-48 68.12,-48 76.66,-48"/>
<polygon fill="midnightblue" stroke="midnightblue" points="76.72,-51.5 86.72,-48 76.72,-44.5 76.72,-51.5"/>
</g>
<!-- Node5 -->
<g id="node5" class="node">
<title>Node5</title>
<g id="a_node5"><a xlink:href="math_8f.html#a943dc1fc319c98267fac3af1e8010e9a" target="_top" xlink:title=" ">
<polygon fill="white" stroke="black" points="92,-0.5 92,-19.5 130,-19.5 130,-0.5 92,-0.5"/>
<text text-anchor="middle" x="111" y="-7.5" font-family="Helvetica,sans-Serif" font-size="10.00">izero</text>
</a>
</g>
</g>
<!-- Node1&#45;&gt;Node5 -->
<g id="edge4" class="edge">
<title>Node1&#45;&gt;Node5</title>
<path fill="none" stroke="midnightblue" d="M47.57,-38.41C58.21,-33.57 71.26,-27.63 82.66,-22.44"/>
<polygon fill="midnightblue" stroke="midnightblue" points="84.12,-25.62 91.77,-18.3 81.22,-19.25 84.12,-25.62"/>
</g>
<!-- Node4 -->
<g id="node4" class="node">
<title>Node4</title>
<g id="a_node4"><a xlink:href="connect1_8f.html#aa1c9016b4c28e8a8512be6f6d67eefce" target="_top" xlink:title=" ">
<polygon fill="white" stroke="black" points="171,-38.5 171,-57.5 214,-57.5 214,-38.5 171,-38.5"/>
<text text-anchor="middle" x="192.5" y="-45.5" font-family="Helvetica,sans-Serif" font-size="10.00">facind</text>
</a>
</g>
</g>
<!-- Node3&#45;&gt;Node4 -->
<g id="edge3" class="edge">
<title>Node3&#45;&gt;Node4</title>
<path fill="none" stroke="midnightblue" d="M135.42,-48C143.34,-48 152.31,-48 160.72,-48"/>
<polygon fill="midnightblue" stroke="midnightblue" points="160.94,-51.5 170.94,-48 160.94,-44.5 160.94,-51.5"/>
</g>
</g>
</svg>
