<?xml version="1.0" encoding="UTF-8" standalone="no"?>
<!DOCTYPE svg PUBLIC "-//W3C//DTD SVG 1.1//EN"
 "http://www.w3.org/Graphics/SVG/1.1/DTD/svg11.dtd">
<!-- Generated by graphviz version 2.46.0 (0)
 -->
<!-- Title: faccl3 Pages: 1 -->
<svg width="268pt" height="256pt"
 viewBox="0.00 0.00 268.00 256.00" xmlns="http://www.w3.org/2000/svg" xmlns:xlink="http://www.w3.org/1999/xlink">
<g id="graph0" class="graph" transform="scale(1 1) rotate(0) translate(4 252)">
<title>faccl3</title>
<polygon fill="white" stroke="transparent" points="-4,4 -4,-252 264,-252 264,4 -4,4"/>
<!-- Node1 -->
<g id="node1" class="node">
<title>Node1</title>
<g id="a_node1"><a xlink:title=" ">
<polygon fill="#bfbfbf" stroke="black" points="217,-114.5 217,-133.5 260,-133.5 260,-114.5 217,-114.5"/>
<text text-anchor="middle" x="238.5" y="-121.5" font-family="Helvetica,sans-Serif" font-size="10.00">faccl3</text>
</a>
</g>
</g>
<!-- Node2 -->
<g id="node2" class="node">
<title>Node2</title>
<g id="a_node2"><a xlink:href="plan4_8f.html#a0afe6a03f628b5d52eeb491f7baff5b6" target="_top" xlink:title=" ">
<polygon fill="white" stroke="black" points="108.5,-228.5 108.5,-247.5 159.5,-247.5 159.5,-228.5 108.5,-228.5"/>
<text text-anchor="middle" x="134" y="-235.5" font-family="Helvetica,sans-Serif" font-size="10.00">crespsp</text>
</a>
</g>
</g>
<!-- Node1&#45;&gt;Node2 -->
<g id="edge1" class="edge">
<title>Node1&#45;&gt;Node2</title>
<path fill="none" stroke="midnightblue" d="M230.39,-143.26C221.69,-164.42 205.09,-198.17 181,-219 174.86,-224.31 167.02,-228.29 159.57,-231.19"/>
<polygon fill="midnightblue" stroke="midnightblue" points="233.73,-144.32 234.12,-133.73 227.21,-141.77 233.73,-144.32"/>
</g>
<!-- Node13 -->
<g id="node4" class="node">
<title>Node13</title>
<g id="a_node4"><a xlink:href="navier1_8f.html#ad3dcbbad0824cbca34368e71fbf93b47" target="_top" xlink:title=" ">
<polygon fill="white" stroke="black" points="106,-190.5 106,-209.5 162,-209.5 162,-190.5 106,-190.5"/>
<text text-anchor="middle" x="134" y="-197.5" font-family="Helvetica,sans-Serif" font-size="10.00">hypmsk3</text>
</a>
</g>
</g>
<!-- Node1&#45;&gt;Node13 -->
<g id="edge3" class="edge">
<title>Node1&#45;&gt;Node13</title>
<path fill="none" stroke="midnightblue" d="M223.5,-141.45C212.88,-153.79 197.36,-170.03 181,-181 175.26,-184.85 168.61,-188.15 162.19,-190.87"/>
<polygon fill="midnightblue" stroke="midnightblue" points="226.3,-143.56 230.02,-133.64 220.93,-139.07 226.3,-143.56"/>
</g>
<!-- Node15 -->
<g id="node6" class="node">
<title>Node15</title>
<g id="a_node6"><a xlink:href="navier1_8f.html#ad655747e7751be3584f491e5caf7423d" target="_top" xlink:title=" ">
<polygon fill="white" stroke="black" points="103,-152.5 103,-171.5 165,-171.5 165,-152.5 103,-152.5"/>
<text text-anchor="middle" x="134" y="-159.5" font-family="Helvetica,sans-Serif" font-size="10.00">hypmsk3v</text>
</a>
</g>
</g>
<!-- Node1&#45;&gt;Node15 -->
<g id="edge5" class="edge">
<title>Node1&#45;&gt;Node15</title>
<path fill="none" stroke="midnightblue" d="M207.08,-135.28C192.36,-140.74 174.87,-147.22 160.81,-152.43"/>
<polygon fill="midnightblue" stroke="midnightblue" points="208.6,-138.45 216.76,-131.69 206.16,-131.88 208.6,-138.45"/>
</g>
<!-- Node16 -->
<g id="node7" class="node">
<title>Node16</title>
<g id="a_node7"><a xlink:href="multimesh_8f.html#a1abe8f51886fce3a30fb4f68c8c132b9" target="_top" xlink:title=" ">
<polygon fill="white" stroke="red" points="95.5,-114.5 95.5,-133.5 172.5,-133.5 172.5,-114.5 95.5,-114.5"/>
<text text-anchor="middle" x="134" y="-121.5" font-family="Helvetica,sans-Serif" font-size="10.00">plan4_vol_ms</text>
</a>
</g>
</g>
<!-- Node1&#45;&gt;Node16 -->
<g id="edge6" class="edge">
<title>Node1&#45;&gt;Node16</title>
<path fill="none" stroke="midnightblue" d="M206.64,-124C195.96,-124 183.88,-124 172.71,-124"/>
<polygon fill="midnightblue" stroke="midnightblue" points="206.76,-127.5 216.76,-124 206.76,-120.5 206.76,-127.5"/>
</g>
<!-- Node19 -->
<g id="node8" class="node">
<title>Node19</title>
<g id="a_node8"><a xlink:href="convect2_8f.html#a01a29f5210c957bacaaa03e41d3d7db9" target="_top" xlink:title=" ">
<polygon fill="white" stroke="black" points="92.5,-76.5 92.5,-95.5 175.5,-95.5 175.5,-76.5 92.5,-76.5"/>
<text text-anchor="middle" x="134" y="-83.5" font-family="Helvetica,sans-Serif" font-size="10.00">set_char_mask</text>
</a>
</g>
</g>
<!-- Node1&#45;&gt;Node19 -->
<g id="edge7" class="edge">
<title>Node1&#45;&gt;Node19</title>
<path fill="none" stroke="midnightblue" d="M207.08,-112.72C192.36,-107.26 174.87,-100.78 160.81,-95.57"/>
<polygon fill="midnightblue" stroke="midnightblue" points="206.16,-116.12 216.76,-116.31 208.6,-109.55 206.16,-116.12"/>
</g>
<!-- Node20 -->
<g id="node9" class="node">
<title>Node20</title>
<g id="a_node9"><a xlink:href="navier5_8f.html#af67de067f8a8c759d76b1bfc18e62333" target="_top" xlink:title=" ">
<polygon fill="white" stroke="black" points="99,-38.5 99,-57.5 169,-57.5 169,-38.5 99,-38.5"/>
<text text-anchor="middle" x="134" y="-45.5" font-family="Helvetica,sans-Serif" font-size="10.00">surface_flux</text>
</a>
</g>
</g>
<!-- Node1&#45;&gt;Node20 -->
<g id="edge8" class="edge">
<title>Node1&#45;&gt;Node20</title>
<path fill="none" stroke="midnightblue" d="M223.5,-106.55C212.88,-94.21 197.36,-77.97 181,-67 175.55,-63.34 169.28,-60.18 163.16,-57.55"/>
<polygon fill="midnightblue" stroke="midnightblue" points="220.93,-108.93 230.02,-114.36 226.3,-104.44 220.93,-108.93"/>
</g>
<!-- Node21 -->
<g id="node10" class="node">
<title>Node21</title>
<g id="a_node10"><a xlink:href="multimesh_8f.html#ad214f79bfdf225361d1523f0b6317621" target="_top" xlink:title=" ">
<polygon fill="white" stroke="red" points="87,-0.5 87,-19.5 181,-19.5 181,-0.5 87,-0.5"/>
<text text-anchor="middle" x="134" y="-7.5" font-family="Helvetica,sans-Serif" font-size="10.00">surface_flux_area</text>
</a>
</g>
</g>
<!-- Node1&#45;&gt;Node21 -->
<g id="edge9" class="edge">
<title>Node1&#45;&gt;Node21</title>
<path fill="none" stroke="midnightblue" d="M230.39,-104.74C221.69,-83.58 205.09,-49.83 181,-29 176.69,-25.27 171.54,-22.2 166.28,-19.7"/>
<polygon fill="midnightblue" stroke="midnightblue" points="227.21,-106.23 234.12,-114.27 233.73,-103.68 227.21,-106.23"/>
</g>
<!-- Node3 -->
<g id="node3" class="node">
<title>Node3</title>
<g id="a_node3"><a xlink:href="plan4_8f.html#a247fc105464de543a464773054eb509e" target="_top" xlink:title=" ">
<polygon fill="white" stroke="red" points="5.5,-228.5 5.5,-247.5 45.5,-247.5 45.5,-228.5 5.5,-228.5"/>
<text text-anchor="middle" x="25.5" y="-235.5" font-family="Helvetica,sans-Serif" font-size="10.00">plan4</text>
</a>
</g>
</g>
<!-- Node2&#45;&gt;Node3 -->
<g id="edge2" class="edge">
<title>Node2&#45;&gt;Node3</title>
<path fill="none" stroke="midnightblue" d="M97.94,-238C80.57,-238 60.27,-238 45.76,-238"/>
<polygon fill="midnightblue" stroke="midnightblue" points="98.3,-241.5 108.3,-238 98.3,-234.5 98.3,-241.5"/>
</g>
<!-- Node14 -->
<g id="node5" class="node">
<title>Node14</title>
<g id="a_node5"><a xlink:href="navier1_8f.html#a4d395aa421289d7ccb9d97fa87c63b22" target="_top" xlink:title=" ">
<polygon fill="white" stroke="black" points="0,-190.5 0,-209.5 51,-209.5 51,-190.5 0,-190.5"/>
<text text-anchor="middle" x="25.5" y="-197.5" font-family="Helvetica,sans-Serif" font-size="10.00">ophyprk</text>
</a>
</g>
</g>
<!-- Node13&#45;&gt;Node14 -->
<g id="edge4" class="edge">
<title>Node13&#45;&gt;Node14</title>
<path fill="none" stroke="midnightblue" d="M95.5,-200C80.75,-200 64.23,-200 51.05,-200"/>
<polygon fill="midnightblue" stroke="midnightblue" points="95.85,-203.5 105.85,-200 95.85,-196.5 95.85,-203.5"/>
</g>
</g>
</svg>
