<?xml version="1.0" encoding="UTF-8" standalone="no"?>
<!DOCTYPE svg PUBLIC "-//W3C//DTD SVG 1.1//EN"
 "http://www.w3.org/Graphics/SVG/1.1/DTD/svg11.dtd">
<!-- Generated by graphviz version 2.46.0 (0)
 -->
<!-- Title: unorm Pages: 1 -->
<svg width="381pt" height="256pt"
 viewBox="0.00 0.00 381.00 256.00" xmlns="http://www.w3.org/2000/svg" xmlns:xlink="http://www.w3.org/1999/xlink">
<g id="graph0" class="graph" transform="scale(1 1) rotate(0) translate(4 252)">
<title>unorm</title>
<polygon fill="white" stroke="transparent" points="-4,4 -4,-252 377,-252 377,4 -4,4"/>
<!-- Node1 -->
<g id="node1" class="node">
<title>Node1</title>
<g id="a_node1"><a xlink:title=" ">
<polygon fill="#bfbfbf" stroke="black" points="329,-114.5 329,-133.5 373,-133.5 373,-114.5 329,-114.5"/>
<text text-anchor="middle" x="351" y="-121.5" font-family="Helvetica,sans-Serif" font-size="10.00">unorm</text>
</a>
</g>
</g>
<!-- Node2 -->
<g id="node2" class="node">
<title>Node2</title>
<g id="a_node2"><a xlink:href="ssolv_8f.html#a5d7ad82993f1275f4d0e6536d90c4cab" target="_top" xlink:title=" ">
<polygon fill="white" stroke="black" points="243,-228.5 243,-247.5 289,-247.5 289,-228.5 243,-228.5"/>
<text text-anchor="middle" x="266" y="-235.5" font-family="Helvetica,sans-Serif" font-size="10.00">chkext</text>
</a>
</g>
</g>
<!-- Node1&#45;&gt;Node2 -->
<g id="edge1" class="edge">
<title>Node1&#45;&gt;Node2</title>
<path fill="none" stroke="midnightblue" d="M341.49,-142.87C331.73,-163.17 314.3,-195.67 293,-219 289.83,-222.47 285.95,-225.71 282.15,-228.49"/>
<polygon fill="midnightblue" stroke="midnightblue" points="344.7,-144.27 345.76,-133.73 338.36,-141.31 344.7,-144.27"/>
</g>
<!-- Node3 -->
<g id="node3" class="node">
<title>Node3</title>
<g id="a_node3"><a xlink:href="ic_8f.html#ac8820d49d1c765e44bf5bb9b055c8f8b" target="_top" xlink:title=" ">
<polygon fill="white" stroke="black" points="239,-190.5 239,-209.5 293,-209.5 293,-190.5 239,-190.5"/>
<text text-anchor="middle" x="266" y="-197.5" font-family="Helvetica,sans-Serif" font-size="10.00">chknorm</text>
</a>
</g>
</g>
<!-- Node1&#45;&gt;Node3 -->
<g id="edge2" class="edge">
<title>Node1&#45;&gt;Node3</title>
<path fill="none" stroke="midnightblue" d="M334.21,-141.13C323.11,-152.83 307.68,-168.43 293,-181 289.26,-184.2 285.02,-187.45 281.07,-190.33"/>
<polygon fill="midnightblue" stroke="midnightblue" points="336.86,-143.43 341.14,-133.74 331.75,-138.64 336.86,-143.43"/>
</g>
<!-- Node4 -->
<g id="node4" class="node">
<title>Node4</title>
<g id="a_node4"><a xlink:href="subs1_8f.html#a4a7a49f2b10c08dee56798c23dbfbe5a" target="_top" xlink:title=" ">
<polygon fill="white" stroke="black" points="241,-152.5 241,-171.5 291,-171.5 291,-152.5 241,-152.5"/>
<text text-anchor="middle" x="266" y="-159.5" font-family="Helvetica,sans-Serif" font-size="10.00">cvgnlps</text>
</a>
</g>
</g>
<!-- Node1&#45;&gt;Node4 -->
<g id="edge3" class="edge">
<title>Node1&#45;&gt;Node4</title>
<path fill="none" stroke="midnightblue" d="M319.74,-137.85C309.18,-142.69 297.57,-148 287.94,-152.41"/>
<polygon fill="midnightblue" stroke="midnightblue" points="321.42,-140.93 329.06,-133.59 318.51,-134.57 321.42,-140.93"/>
</g>
<!-- Node6 -->
<g id="node6" class="node">
<title>Node6</title>
<g id="a_node6"><a xlink:href="drive2_8f.html#acce80cd37f20e9b52729eb52d86a9c86" target="_top" xlink:title=" ">
<polygon fill="white" stroke="red" points="87,-114.5 87,-133.5 122,-133.5 122,-114.5 87,-114.5"/>
<text text-anchor="middle" x="104.5" y="-121.5" font-family="Helvetica,sans-Serif" font-size="10.00">heat</text>
</a>
</g>
</g>
<!-- Node1&#45;&gt;Node6 -->
<g id="edge9" class="edge">
<title>Node1&#45;&gt;Node6</title>
<path fill="none" stroke="midnightblue" d="M318.67,-124C266.29,-124 162.7,-124 122.24,-124"/>
<polygon fill="midnightblue" stroke="midnightblue" points="318.73,-127.5 328.73,-124 318.73,-120.5 318.73,-127.5"/>
</g>
<!-- Node18 -->
<g id="node8" class="node">
<title>Node18</title>
<g id="a_node8"><a xlink:href="drive2_8f.html#ab0aeca9ad3db8be87a01ba29d069d71e" target="_top" xlink:title=" ">
<polygon fill="white" stroke="red" points="163,-76.5 163,-95.5 198,-95.5 198,-76.5 163,-76.5"/>
<text text-anchor="middle" x="180.5" y="-83.5" font-family="Helvetica,sans-Serif" font-size="10.00">fluid</text>
</a>
</g>
</g>
<!-- Node1&#45;&gt;Node18 -->
<g id="edge7" class="edge">
<title>Node1&#45;&gt;Node18</title>
<path fill="none" stroke="midnightblue" d="M319.07,-116.23C310.63,-114.16 301.47,-111.95 293,-110 259.43,-102.27 219.98,-93.96 198.16,-89.43"/>
<polygon fill="midnightblue" stroke="midnightblue" points="318.37,-119.66 328.92,-118.67 320.05,-112.87 318.37,-119.66"/>
</g>
<!-- Node20 -->
<g id="node9" class="node">
<title>Node20</title>
<g id="a_node9"><a xlink:href="perturb_8f.html#ac353eeb6dfd3fec540b933d9c701b0e7" target="_top" xlink:title=" ">
<polygon fill="white" stroke="red" points="245.5,-38.5 245.5,-57.5 286.5,-57.5 286.5,-38.5 245.5,-38.5"/>
<text text-anchor="middle" x="266" y="-45.5" font-family="Helvetica,sans-Serif" font-size="10.00">heatp</text>
</a>
</g>
</g>
<!-- Node1&#45;&gt;Node20 -->
<g id="edge10" class="edge">
<title>Node1&#45;&gt;Node20</title>
<path fill="none" stroke="midnightblue" d="M331.99,-107.51C315.32,-92.24 291.1,-70.07 277.43,-57.55"/>
<polygon fill="midnightblue" stroke="midnightblue" points="329.75,-110.2 339.49,-114.37 334.48,-105.04 329.75,-110.2"/>
</g>
<!-- Node21 -->
<g id="node10" class="node">
<title>Node21</title>
<g id="a_node10"><a xlink:href="induct_8f.html#a833c0b7875059ba97cbc913ce63c939f" target="_top" xlink:title=" ">
<polygon fill="white" stroke="red" points="241.5,-0.5 241.5,-19.5 290.5,-19.5 290.5,-0.5 241.5,-0.5"/>
<text text-anchor="middle" x="266" y="-7.5" font-family="Helvetica,sans-Serif" font-size="10.00">opnorm</text>
</a>
</g>
</g>
<!-- Node1&#45;&gt;Node21 -->
<g id="edge11" class="edge">
<title>Node1&#45;&gt;Node21</title>
<path fill="none" stroke="midnightblue" d="M341.49,-105.13C331.73,-84.83 314.3,-52.33 293,-29 289.83,-25.53 285.95,-22.29 282.15,-19.51"/>
<polygon fill="midnightblue" stroke="midnightblue" points="338.36,-106.69 345.76,-114.27 344.7,-103.73 338.36,-106.69"/>
</g>
<!-- Node5 -->
<g id="node5" class="node">
<title>Node5</title>
<g id="a_node5"><a xlink:href="conduct_8f.html#a74a7f053381975ed36df8ea959f3aa01" target="_top" xlink:title=" ">
<polygon fill="white" stroke="black" points="158,-152.5 158,-171.5 203,-171.5 203,-152.5 158,-152.5"/>
<text text-anchor="middle" x="180.5" y="-159.5" font-family="Helvetica,sans-Serif" font-size="10.00">cdscal</text>
</a>
</g>
</g>
<!-- Node4&#45;&gt;Node5 -->
<g id="edge4" class="edge">
<title>Node4&#45;&gt;Node5</title>
<path fill="none" stroke="midnightblue" d="M230.63,-162C221.29,-162 211.44,-162 203.04,-162"/>
<polygon fill="midnightblue" stroke="midnightblue" points="230.85,-165.5 240.85,-162 230.85,-158.5 230.85,-165.5"/>
</g>
<!-- Node5&#45;&gt;Node6 -->
<g id="edge5" class="edge">
<title>Node5&#45;&gt;Node6</title>
<path fill="none" stroke="midnightblue" d="M151.75,-147.75C141.89,-142.68 131.08,-137.14 122.4,-132.68"/>
<polygon fill="midnightblue" stroke="midnightblue" points="150.33,-150.96 160.83,-152.41 153.53,-144.73 150.33,-150.96"/>
</g>
<!-- Node7 -->
<g id="node7" class="node">
<title>Node7</title>
<g id="a_node7"><a xlink:href="ssolv_8f.html#a4bb42a5afabbba8c6518d83cbe481c17" target="_top" xlink:title=" ">
<polygon fill="white" stroke="black" points="0,-95.5 0,-114.5 51,-114.5 51,-95.5 0,-95.5"/>
<text text-anchor="middle" x="25.5" y="-102.5" font-family="Helvetica,sans-Serif" font-size="10.00">go1step</text>
</a>
</g>
</g>
<!-- Node6&#45;&gt;Node7 -->
<g id="edge6" class="edge">
<title>Node6&#45;&gt;Node7</title>
<path fill="none" stroke="midnightblue" d="M77.07,-117.48C68.64,-115.4 59.36,-113.11 51.07,-111.06"/>
<polygon fill="midnightblue" stroke="midnightblue" points="76.24,-120.88 86.79,-119.88 77.92,-114.08 76.24,-120.88"/>
</g>
<!-- Node18&#45;&gt;Node7 -->
<g id="edge8" class="edge">
<title>Node18&#45;&gt;Node7</title>
<path fill="none" stroke="midnightblue" d="M152.73,-89.32C124.09,-92.88 79.03,-98.48 51.21,-101.93"/>
<polygon fill="midnightblue" stroke="midnightblue" points="153.34,-92.78 162.84,-88.07 152.48,-85.83 153.34,-92.78"/>
</g>
</g>
</svg>
