<?xml version="1.0" encoding="UTF-8" standalone="no"?>
<!DOCTYPE svg PUBLIC "-//W3C//DTD SVG 1.1//EN"
 "http://www.w3.org/Graphics/SVG/1.1/DTD/svg11.dtd">
<!-- Generated by graphviz version 2.46.0 (0)
 -->
<!-- Title: outm1 Pages: 1 -->
<svg width="131pt" height="66pt"
 viewBox="0.00 0.00 131.00 66.00" xmlns="http://www.w3.org/2000/svg" xmlns:xlink="http://www.w3.org/1999/xlink">
<g id="graph0" class="graph" transform="scale(1 1) rotate(0) translate(4 62)">
<title>outm1</title>
<polygon fill="white" stroke="transparent" points="-4,4 -4,-62 127,-62 127,4 -4,4"/>
<!-- Node1 -->
<g id="node1" class="node">
<title>Node1</title>
<g id="a_node1"><a xlink:title=" ">
<polygon fill="#bfbfbf" stroke="black" points="79,-19.5 79,-38.5 123,-38.5 123,-19.5 79,-19.5"/>
<text text-anchor="middle" x="101" y="-26.5" font-family="Helvetica,sans-Serif" font-size="10.00">outm1</text>
</a>
</g>
</g>
<!-- Node2 -->
<g id="node2" class="node">
<title>Node2</title>
<g id="a_node2"><a xlink:href="subs2_8f.html#a0aac4c0678cba7abcbf64fee56e64ca1" target="_top" xlink:title=" ">
<polygon fill="white" stroke="black" points="0,-38.5 0,-57.5 43,-57.5 43,-38.5 0,-38.5"/>
<text text-anchor="middle" x="21.5" y="-45.5" font-family="Helvetica,sans-Serif" font-size="10.00">printel</text>
</a>
</g>
</g>
<!-- Node1&#45;&gt;Node2 -->
<g id="edge1" class="edge">
<title>Node1&#45;&gt;Node2</title>
<path fill="none" stroke="midnightblue" d="M68.97,-36.61C60.28,-38.74 51.04,-41 43.12,-42.95"/>
<polygon fill="midnightblue" stroke="midnightblue" points="69.94,-39.97 78.82,-34.19 68.28,-33.17 69.94,-39.97"/>
</g>
<!-- Node3 -->
<g id="node3" class="node">
<title>Node3</title>
<g id="a_node3"><a xlink:href="subs2_8f.html#ab14c2741c258aec72ff09fa4568a06fa" target="_top" xlink:title=" ">
<polygon fill="white" stroke="black" points="1,-0.5 1,-19.5 42,-19.5 42,-0.5 1,-0.5"/>
<text text-anchor="middle" x="21.5" y="-7.5" font-family="Helvetica,sans-Serif" font-size="10.00">printv</text>
</a>
</g>
</g>
<!-- Node1&#45;&gt;Node3 -->
<g id="edge2" class="edge">
<title>Node1&#45;&gt;Node3</title>
<path fill="none" stroke="midnightblue" d="M68.94,-21.38C59.86,-19.16 50.2,-16.79 42.06,-14.79"/>
<polygon fill="midnightblue" stroke="midnightblue" points="68.28,-24.83 78.82,-23.81 69.94,-18.03 68.28,-24.83"/>
</g>
</g>
</svg>
