<?xml version="1.0" encoding="UTF-8" standalone="no"?>
<!DOCTYPE svg PUBLIC "-//W3C//DTD SVG 1.1//EN"
 "http://www.w3.org/Graphics/SVG/1.1/DTD/svg11.dtd">
<!-- Generated by graphviz version 2.46.0 (0)
 -->
<!-- Title: setcsys Pages: 1 -->
<svg width="353pt" height="180pt"
 viewBox="0.00 0.00 353.00 180.00" xmlns="http://www.w3.org/2000/svg" xmlns:xlink="http://www.w3.org/1999/xlink">
<g id="graph0" class="graph" transform="scale(1 1) rotate(0) translate(4 176)">
<title>setcsys</title>
<polygon fill="white" stroke="transparent" points="-4,4 -4,-176 349,-176 349,4 -4,4"/>
<!-- Node1 -->
<g id="node1" class="node">
<title>Node1</title>
<g id="a_node1"><a xlink:title=" ">
<polygon fill="#bfbfbf" stroke="black" points="294,-95.5 294,-114.5 345,-114.5 345,-95.5 294,-95.5"/>
<text text-anchor="middle" x="319.5" y="-102.5" font-family="Helvetica,sans-Serif" font-size="10.00">setcsys</text>
</a>
</g>
</g>
<!-- Node2 -->
<g id="node2" class="node">
<title>Node2</title>
<g id="a_node2"><a xlink:href="subs2_8f.html#a85491a75f21053030871913510734987" target="_top" xlink:title=" ">
<polygon fill="white" stroke="black" points="203,-133.5 203,-152.5 257,-152.5 257,-133.5 203,-133.5"/>
<text text-anchor="middle" x="230" y="-140.5" font-family="Helvetica,sans-Serif" font-size="10.00">stsmask</text>
</a>
</g>
</g>
<!-- Node1&#45;&gt;Node2 -->
<g id="edge1" class="edge">
<title>Node1&#45;&gt;Node2</title>
<path fill="none" stroke="midnightblue" d="M286.94,-118.71C275.72,-123.58 263.33,-128.96 253.07,-133.41"/>
<polygon fill="midnightblue" stroke="midnightblue" points="288.64,-121.78 296.42,-114.59 285.85,-115.36 288.64,-121.78"/>
</g>
<!-- Node6 -->
<g id="node5" class="node">
<title>Node6</title>
<g id="a_node5"><a xlink:href="subs2_8f.html#aa57451cc7f331b193194eadc074dbbba" target="_top" xlink:title=" ">
<polygon fill="white" stroke="black" points="202,-76.5 202,-95.5 258,-95.5 258,-76.5 202,-76.5"/>
<text text-anchor="middle" x="230" y="-83.5" font-family="Helvetica,sans-Serif" font-size="10.00">updmsys</text>
</a>
</g>
</g>
<!-- Node1&#45;&gt;Node6 -->
<g id="edge4" class="edge">
<title>Node1&#45;&gt;Node6</title>
<path fill="none" stroke="midnightblue" d="M283.89,-97.48C275.3,-95.62 266.22,-93.65 258.05,-91.87"/>
<polygon fill="midnightblue" stroke="midnightblue" points="283.15,-100.9 293.66,-99.61 284.63,-94.06 283.15,-100.9"/>
</g>
<!-- Node3 -->
<g id="node3" class="node">
<title>Node3</title>
<g id="a_node3"><a xlink:href="bdry_8f.html#aff6088943a1cc02fb036375d9008b4c7" target="_top" xlink:title=" ">
<polygon fill="white" stroke="black" points="106.5,-152.5 106.5,-171.5 157.5,-171.5 157.5,-152.5 106.5,-152.5"/>
<text text-anchor="middle" x="132" y="-159.5" font-family="Helvetica,sans-Serif" font-size="10.00">bcmask</text>
</a>
</g>
</g>
<!-- Node2&#45;&gt;Node3 -->
<g id="edge2" class="edge">
<title>Node2&#45;&gt;Node3</title>
<path fill="none" stroke="midnightblue" d="M192.77,-150.17C181.01,-152.5 168.25,-155.02 157.55,-157.14"/>
<polygon fill="midnightblue" stroke="midnightblue" points="193.64,-153.57 202.77,-148.19 192.28,-146.7 193.64,-153.57"/>
</g>
<!-- Node4 -->
<g id="node4" class="node">
<title>Node4</title>
<g id="a_node4"><a xlink:href="drive1_8f.html#a83f7c6d78ac4e68394f32533e847d0a3" target="_top" xlink:title=" ">
<polygon fill="white" stroke="red" points="6,-114.5 6,-133.5 56,-133.5 56,-114.5 6,-114.5"/>
<text text-anchor="middle" x="31" y="-121.5" font-family="Helvetica,sans-Serif" font-size="10.00">nek_init</text>
</a>
</g>
</g>
<!-- Node3&#45;&gt;Node4 -->
<g id="edge3" class="edge">
<title>Node3&#45;&gt;Node4</title>
<path fill="none" stroke="midnightblue" d="M96.85,-148.89C83.42,-143.74 68.32,-137.94 56.07,-133.24"/>
<polygon fill="midnightblue" stroke="midnightblue" points="95.68,-152.19 106.27,-152.51 98.19,-145.66 95.68,-152.19"/>
</g>
<!-- Node7 -->
<g id="node6" class="node">
<title>Node7</title>
<g id="a_node6"><a xlink:href="drive2_8f.html#aefc07385d7e7539fb57662470f694136" target="_top" xlink:title=" ">
<polygon fill="white" stroke="red" points="104,-76.5 104,-95.5 160,-95.5 160,-76.5 104,-76.5"/>
<text text-anchor="middle" x="132" y="-83.5" font-family="Helvetica,sans-Serif" font-size="10.00">gengeom</text>
</a>
</g>
</g>
<!-- Node6&#45;&gt;Node7 -->
<g id="edge5" class="edge">
<title>Node6&#45;&gt;Node7</title>
<path fill="none" stroke="midnightblue" d="M191.63,-86C181.19,-86 170.06,-86 160.32,-86"/>
<polygon fill="midnightblue" stroke="midnightblue" points="191.75,-89.5 201.75,-86 191.75,-82.5 191.75,-89.5"/>
</g>
<!-- Node19 -->
<g id="node8" class="node">
<title>Node19</title>
<g id="a_node8"><a xlink:href="ic_8f.html#aaf47b255d1cfac3451a8473ee6876b4f" target="_top" xlink:title=" ">
<polygon fill="white" stroke="red" points="98,-114.5 98,-133.5 166,-133.5 166,-114.5 98,-114.5"/>
<text text-anchor="middle" x="132" y="-121.5" font-family="Helvetica,sans-Serif" font-size="10.00">geom_reset</text>
</a>
</g>
</g>
<!-- Node6&#45;&gt;Node19 -->
<g id="edge8" class="edge">
<title>Node6&#45;&gt;Node19</title>
<path fill="none" stroke="midnightblue" d="M195.12,-99.41C182.61,-104.36 168.7,-109.87 157.22,-114.41"/>
<polygon fill="midnightblue" stroke="midnightblue" points="196.77,-102.52 204.78,-95.59 194.19,-96.02 196.77,-102.52"/>
</g>
<!-- Node30 -->
<g id="node9" class="node">
<title>Node30</title>
<g id="a_node9"><a xlink:href="drive2_8f.html#aa4f676fe0a57e3cbdce8c8fe353edeb0" target="_top" xlink:title=" ">
<polygon fill="white" stroke="red" points="109,-38.5 109,-57.5 155,-57.5 155,-38.5 109,-38.5"/>
<text text-anchor="middle" x="132" y="-45.5" font-family="Helvetica,sans-Serif" font-size="10.00">meshv</text>
</a>
</g>
</g>
<!-- Node6&#45;&gt;Node30 -->
<g id="edge10" class="edge">
<title>Node6&#45;&gt;Node30</title>
<path fill="none" stroke="midnightblue" d="M195.44,-72.71C182.12,-67.44 167.17,-61.53 155.24,-56.8"/>
<polygon fill="midnightblue" stroke="midnightblue" points="194.19,-75.98 204.78,-76.41 196.77,-69.48 194.19,-75.98"/>
</g>
<!-- Node31 -->
<g id="node10" class="node">
<title>Node31</title>
<g id="a_node10"><a xlink:href="mvmesh_8f.html#a1c924aee9d9ada8ef173bf0f8a3168b9" target="_top" xlink:title=" ">
<polygon fill="white" stroke="red" points="105,-0.5 105,-19.5 159,-19.5 159,-0.5 105,-0.5"/>
<text text-anchor="middle" x="132" y="-7.5" font-family="Helvetica,sans-Serif" font-size="10.00">ptbgeom</text>
</a>
</g>
</g>
<!-- Node6&#45;&gt;Node31 -->
<g id="edge11" class="edge">
<title>Node6&#45;&gt;Node31</title>
<path fill="none" stroke="midnightblue" d="M212.49,-69.26C200.24,-57.3 182.83,-41.24 166,-29 161.4,-25.66 156.17,-22.41 151.25,-19.58"/>
<polygon fill="midnightblue" stroke="midnightblue" points="210.16,-71.88 219.73,-76.44 215.09,-66.91 210.16,-71.88"/>
</g>
<!-- Node7&#45;&gt;Node4 -->
<g id="edge7" class="edge">
<title>Node7&#45;&gt;Node4</title>
<path fill="none" stroke="midnightblue" d="M96.68,-99.17C83.37,-104.28 68.45,-110.01 56.29,-114.68"/>
<polygon fill="midnightblue" stroke="midnightblue" points="97.94,-102.44 106.02,-95.59 95.43,-95.9 97.94,-102.44"/>
</g>
<!-- Node8 -->
<g id="node7" class="node">
<title>Node8</title>
<g id="a_node7"><a xlink:href="plan5_8f.html#a1f0ec8c2c9023166a911daec72f90239" target="_top" xlink:title=" ">
<polygon fill="white" stroke="red" points="0,-76.5 0,-95.5 62,-95.5 62,-76.5 0,-76.5"/>
<text text-anchor="middle" x="31" y="-83.5" font-family="Helvetica,sans-Serif" font-size="10.00">adv_geom</text>
</a>
</g>
</g>
<!-- Node7&#45;&gt;Node8 -->
<g id="edge6" class="edge">
<title>Node7&#45;&gt;Node8</title>
<path fill="none" stroke="midnightblue" d="M93.83,-86C83.38,-86 72.15,-86 62.16,-86"/>
<polygon fill="midnightblue" stroke="midnightblue" points="93.95,-89.5 103.95,-86 93.95,-82.5 93.95,-89.5"/>
</g>
<!-- Node19&#45;&gt;Node4 -->
<g id="edge9" class="edge">
<title>Node19&#45;&gt;Node4</title>
<path fill="none" stroke="midnightblue" d="M87.63,-124C76.86,-124 65.7,-124 56.23,-124"/>
<polygon fill="midnightblue" stroke="midnightblue" points="87.76,-127.5 97.76,-124 87.76,-120.5 87.76,-127.5"/>
</g>
</g>
</svg>
