<?xml version="1.0" encoding="UTF-8" standalone="no"?>
<!DOCTYPE svg PUBLIC "-//W3C//DTD SVG 1.1//EN"
 "http://www.w3.org/Graphics/SVG/1.1/DTD/svg11.dtd">
<!-- Generated by graphviz version 2.46.0 (0)
 -->
<!-- Title: stress Pages: 1 -->
<svg width="335pt" height="218pt"
 viewBox="0.00 0.00 335.00 218.00" xmlns="http://www.w3.org/2000/svg" xmlns:xlink="http://www.w3.org/1999/xlink">
<g id="graph0" class="graph" transform="scale(1 1) rotate(0) translate(4 214)">
<title>stress</title>
<polygon fill="white" stroke="transparent" points="-4,4 -4,-214 331,-214 331,4 -4,4"/>
<!-- Node1 -->
<g id="node1" class="node">
<title>Node1</title>
<g id="a_node1"><a xlink:title=" ">
<polygon fill="#bfbfbf" stroke="black" points="0,-95.5 0,-114.5 44,-114.5 44,-95.5 0,-95.5"/>
<text text-anchor="middle" x="22" y="-102.5" font-family="Helvetica,sans-Serif" font-size="10.00">stress</text>
</a>
</g>
</g>
<!-- Node2 -->
<g id="node2" class="node">
<title>Node2</title>
<g id="a_node2"><a xlink:href="subs2_8f.html#a98c733742dc75af776d7c09459fe7fd2" target="_top" xlink:title=" ">
<polygon fill="white" stroke="black" points="83.5,-190.5 83.5,-209.5 126.5,-209.5 126.5,-190.5 83.5,-190.5"/>
<text text-anchor="middle" x="105" y="-197.5" font-family="Helvetica,sans-Serif" font-size="10.00">add3s</text>
</a>
</g>
</g>
<!-- Node1&#45;&gt;Node2 -->
<g id="edge1" class="edge">
<title>Node1&#45;&gt;Node2</title>
<path fill="none" stroke="midnightblue" d="M29.12,-114.74C38.86,-129.83 58.94,-159.38 80,-181 80.78,-181.8 81.59,-182.6 82.43,-183.38"/>
<polygon fill="midnightblue" stroke="midnightblue" points="80.41,-186.26 90.27,-190.12 84.97,-180.95 80.41,-186.26"/>
</g>
<!-- Node3 -->
<g id="node3" class="node">
<title>Node3</title>
<g id="a_node3"><a xlink:href="math_8f.html#a1f336314da3012286837ede20a0495c6" target="_top" xlink:title=" ">
<polygon fill="white" stroke="black" points="80,-152.5 80,-171.5 130,-171.5 130,-152.5 80,-152.5"/>
<text text-anchor="middle" x="105" y="-159.5" font-family="Helvetica,sans-Serif" font-size="10.00">addcol3</text>
</a>
</g>
</g>
<!-- Node1&#45;&gt;Node3 -->
<g id="edge2" class="edge">
<title>Node1&#45;&gt;Node3</title>
<path fill="none" stroke="midnightblue" d="M36.74,-114.67C49.15,-123.4 67.63,-136.4 82.08,-146.57"/>
<polygon fill="midnightblue" stroke="midnightblue" points="80.27,-149.58 90.46,-152.47 84.3,-143.86 80.27,-149.58"/>
</g>
<!-- Node6 -->
<g id="node6" class="node">
<title>Node6</title>
<g id="a_node6"><a xlink:href="subs2_8f.html#a3c61e9653d5734accc15712a2f1b9c11" target="_top" xlink:title=" ">
<polygon fill="white" stroke="black" points="82,-114.5 82,-133.5 128,-133.5 128,-114.5 82,-114.5"/>
<text text-anchor="middle" x="105" y="-121.5" font-family="Helvetica,sans-Serif" font-size="10.00">cmult2</text>
</a>
</g>
</g>
<!-- Node1&#45;&gt;Node6 -->
<g id="edge5" class="edge">
<title>Node1&#45;&gt;Node6</title>
<path fill="none" stroke="midnightblue" d="M44.28,-109.99C52.75,-111.98 62.68,-114.31 71.98,-116.49"/>
<polygon fill="midnightblue" stroke="midnightblue" points="71.19,-119.9 81.73,-118.78 72.79,-113.08 71.19,-119.9"/>
</g>
<!-- Node7 -->
<g id="node7" class="node">
<title>Node7</title>
<g id="a_node7"><a xlink:href="math_8f.html#a3470db04166d9ba91454a14cc17dbec2" target="_top" xlink:title=" ">
<polygon fill="white" stroke="black" points="87.5,-76.5 87.5,-95.5 122.5,-95.5 122.5,-76.5 87.5,-76.5"/>
<text text-anchor="middle" x="105" y="-83.5" font-family="Helvetica,sans-Serif" font-size="10.00">col2</text>
</a>
</g>
</g>
<!-- Node1&#45;&gt;Node7 -->
<g id="edge6" class="edge">
<title>Node1&#45;&gt;Node7</title>
<path fill="none" stroke="midnightblue" d="M44.28,-100.01C54.51,-97.61 66.87,-94.71 77.69,-92.17"/>
<polygon fill="midnightblue" stroke="midnightblue" points="78.53,-95.57 87.46,-89.88 76.93,-88.76 78.53,-95.57"/>
</g>
<!-- Node8 -->
<g id="node8" class="node">
<title>Node8</title>
<g id="a_node8"><a xlink:href="math_8f.html#a0d9af374781723c272547a185cb3da5e" target="_top" xlink:title=" ">
<polygon fill="white" stroke="black" points="87.5,-38.5 87.5,-57.5 122.5,-57.5 122.5,-38.5 87.5,-38.5"/>
<text text-anchor="middle" x="105" y="-45.5" font-family="Helvetica,sans-Serif" font-size="10.00">col3</text>
</a>
</g>
</g>
<!-- Node1&#45;&gt;Node8 -->
<g id="edge8" class="edge">
<title>Node1&#45;&gt;Node8</title>
<path fill="none" stroke="midnightblue" d="M36.74,-95.33C49.15,-86.6 67.63,-73.6 82.08,-63.43"/>
<polygon fill="midnightblue" stroke="midnightblue" points="84.3,-66.14 90.46,-57.53 80.27,-60.42 84.3,-66.14"/>
</g>
<!-- Node9 -->
<g id="node9" class="node">
<title>Node9</title>
<g id="a_node9"><a xlink:href="math_8f.html#a3b43508554f14bdea8e14473d7d0803c" target="_top" xlink:title=" ">
<polygon fill="white" stroke="black" points="86,-0.5 86,-19.5 124,-19.5 124,-0.5 86,-0.5"/>
<text text-anchor="middle" x="105" y="-7.5" font-family="Helvetica,sans-Serif" font-size="10.00">copy</text>
</a>
</g>
</g>
<!-- Node1&#45;&gt;Node9 -->
<g id="edge10" class="edge">
<title>Node1&#45;&gt;Node9</title>
<path fill="none" stroke="midnightblue" d="M29.12,-95.26C38.86,-80.17 58.94,-50.62 80,-29 80.78,-28.2 81.59,-27.4 82.43,-26.62"/>
<polygon fill="midnightblue" stroke="midnightblue" points="84.97,-29.05 90.27,-19.88 80.41,-23.74 84.97,-29.05"/>
</g>
<!-- Node4 -->
<g id="node4" class="node">
<title>Node4</title>
<g id="a_node4"><a xlink:href="comm__mpi_8f.html#af06ec29f06aac3f8809e19de2a7e8946" target="_top" xlink:title=" ">
<polygon fill="white" stroke="black" points="166,-76.5 166,-95.5 227,-95.5 227,-76.5 166,-76.5"/>
<text text-anchor="middle" x="196.5" y="-83.5" font-family="Helvetica,sans-Serif" font-size="10.00">dnekclock</text>
</a>
</g>
</g>
<!-- Node3&#45;&gt;Node4 -->
<g id="edge3" class="edge">
<title>Node3&#45;&gt;Node4</title>
<path fill="none" stroke="midnightblue" d="M118.3,-152.44C122.08,-149.46 126.24,-146.12 130,-143 145.98,-129.73 163.74,-114.23 176.73,-102.74"/>
<polygon fill="midnightblue" stroke="midnightblue" points="179.35,-105.1 184.51,-95.84 174.71,-99.86 179.35,-105.1"/>
</g>
<!-- Node5 -->
<g id="node5" class="node">
<title>Node5</title>
<g id="a_node5"><a xlink:href="mpi__dummy_8f.html#ae6a5ef945f87c2c27849696b70f3af2a" target="_top" xlink:title=" ">
<polygon fill="white" stroke="black" points="263,-76.5 263,-95.5 327,-95.5 327,-76.5 263,-76.5"/>
<text text-anchor="middle" x="295" y="-83.5" font-family="Helvetica,sans-Serif" font-size="10.00">mpi_wtime</text>
</a>
</g>
</g>
<!-- Node4&#45;&gt;Node5 -->
<g id="edge4" class="edge">
<title>Node4&#45;&gt;Node5</title>
<path fill="none" stroke="midnightblue" d="M227.24,-86C235.27,-86 244.11,-86 252.65,-86"/>
<polygon fill="midnightblue" stroke="midnightblue" points="252.85,-89.5 262.85,-86 252.85,-82.5 252.85,-89.5"/>
</g>
<!-- Node7&#45;&gt;Node4 -->
<g id="edge7" class="edge">
<title>Node7&#45;&gt;Node4</title>
<path fill="none" stroke="midnightblue" d="M122.83,-86C132.06,-86 143.92,-86 155.38,-86"/>
<polygon fill="midnightblue" stroke="midnightblue" points="155.7,-89.5 165.7,-86 155.7,-82.5 155.7,-89.5"/>
</g>
<!-- Node8&#45;&gt;Node4 -->
<g id="edge9" class="edge">
<title>Node8&#45;&gt;Node4</title>
<path fill="none" stroke="midnightblue" d="M122.83,-55.15C134.24,-59.99 149.68,-66.55 163.4,-72.37"/>
<polygon fill="midnightblue" stroke="midnightblue" points="162.42,-75.76 172.99,-76.44 165.16,-69.31 162.42,-75.76"/>
</g>
</g>
</svg>
