<?xml version="1.0" encoding="UTF-8" standalone="no"?>
<!DOCTYPE svg PUBLIC "-//W3C//DTD SVG 1.1//EN"
 "http://www.w3.org/Graphics/SVG/1.1/DTD/svg11.dtd">
<!-- Generated by graphviz version 2.46.0 (0)
 -->
<!-- Title: facsub2 Pages: 1 -->
<svg width="476pt" height="142pt"
 viewBox="0.00 0.00 476.00 142.00" xmlns="http://www.w3.org/2000/svg" xmlns:xlink="http://www.w3.org/1999/xlink">
<g id="graph0" class="graph" transform="scale(1 1) rotate(0) translate(4 138)">
<title>facsub2</title>
<polygon fill="white" stroke="transparent" points="-4,4 -4,-138 472,-138 472,4 -4,4"/>
<!-- Node1 -->
<g id="node1" class="node">
<title>Node1</title>
<g id="a_node1"><a xlink:title=" ">
<polygon fill="#bfbfbf" stroke="black" points="417,-57.5 417,-76.5 468,-76.5 468,-57.5 417,-57.5"/>
<text text-anchor="middle" x="442.5" y="-64.5" font-family="Helvetica,sans-Serif" font-size="10.00">facsub2</text>
</a>
</g>
</g>
<!-- Node2 -->
<g id="node2" class="node">
<title>Node2</title>
<g id="a_node2"><a xlink:href="bdry_8f.html#aeec3df8d8fe062354f021cd1e5138ed6" target="_top" xlink:title=" ">
<polygon fill="white" stroke="black" points="340,-57.5 340,-76.5 381,-76.5 381,-57.5 340,-57.5"/>
<text text-anchor="middle" x="360.5" y="-64.5" font-family="Helvetica,sans-Serif" font-size="10.00">trst3d</text>
</a>
</g>
</g>
<!-- Node1&#45;&gt;Node2 -->
<g id="edge1" class="edge">
<title>Node1&#45;&gt;Node2</title>
<path fill="none" stroke="midnightblue" d="M406.59,-67C397.83,-67 388.73,-67 381.02,-67"/>
<polygon fill="midnightblue" stroke="midnightblue" points="406.63,-70.5 416.63,-67 406.63,-63.5 406.63,-70.5"/>
</g>
<!-- Node3 -->
<g id="node3" class="node">
<title>Node3</title>
<g id="a_node3"><a xlink:href="bdry_8f.html#aee3c4fa7540835700f9b1184f52bbdd7" target="_top" xlink:title=" ">
<polygon fill="white" stroke="black" points="255,-57.5 255,-76.5 304,-76.5 304,-57.5 255,-57.5"/>
<text text-anchor="middle" x="279.5" y="-64.5" font-family="Helvetica,sans-Serif" font-size="10.00">bcneutr</text>
</a>
</g>
</g>
<!-- Node2&#45;&gt;Node3 -->
<g id="edge2" class="edge">
<title>Node2&#45;&gt;Node3</title>
<path fill="none" stroke="midnightblue" d="M329.69,-67C321.2,-67 312.08,-67 304.02,-67"/>
<polygon fill="midnightblue" stroke="midnightblue" points="329.97,-70.5 339.97,-67 329.97,-63.5 329.97,-70.5"/>
</g>
<!-- Node4 -->
<g id="node4" class="node">
<title>Node4</title>
<g id="a_node4"><a xlink:href="induct_8f.html#abbae0312df5e89b7a6fe3f7f1dc8447b" target="_top" xlink:title=" ">
<polygon fill="white" stroke="black" points="166,-114.5 166,-133.5 219,-133.5 219,-114.5 166,-114.5"/>
<text text-anchor="middle" x="192.5" y="-121.5" font-family="Helvetica,sans-Serif" font-size="10.00">cresvibp</text>
</a>
</g>
</g>
<!-- Node3&#45;&gt;Node4 -->
<g id="edge3" class="edge">
<title>Node3&#45;&gt;Node4</title>
<path fill="none" stroke="midnightblue" d="M255.67,-82.31C240.4,-92.55 220.78,-105.71 207.71,-114.47"/>
<polygon fill="midnightblue" stroke="midnightblue" points="257.72,-85.15 264.08,-76.67 253.83,-79.33 257.72,-85.15"/>
</g>
<!-- Node11 -->
<g id="node6" class="node">
<title>Node11</title>
<g id="a_node6"><a xlink:href="planx_8f.html#a02873cc7b2b98973667aa8cb9f2cbadb" target="_top" xlink:title=" ">
<polygon fill="white" stroke="black" points="169.5,-76.5 169.5,-95.5 215.5,-95.5 215.5,-76.5 169.5,-76.5"/>
<text text-anchor="middle" x="192.5" y="-83.5" font-family="Helvetica,sans-Serif" font-size="10.00">cresvif</text>
</a>
</g>
</g>
<!-- Node3&#45;&gt;Node11 -->
<g id="edge5" class="edge">
<title>Node3&#45;&gt;Node11</title>
<path fill="none" stroke="midnightblue" d="M244.89,-74.51C235.05,-76.71 224.53,-79.06 215.59,-81.06"/>
<polygon fill="midnightblue" stroke="midnightblue" points="245.83,-77.89 254.82,-72.29 244.3,-71.06 245.83,-77.89"/>
</g>
<!-- Node18 -->
<g id="node9" class="node">
<title>Node18</title>
<g id="a_node9"><a xlink:href="navier1_8f.html#a23e6343990072aa1a6b17109ccc7ba2b" target="_top" xlink:title=" ">
<polygon fill="white" stroke="black" points="80.5,-38.5 80.5,-57.5 120.5,-57.5 120.5,-38.5 80.5,-38.5"/>
<text text-anchor="middle" x="100.5" y="-45.5" font-family="Helvetica,sans-Serif" font-size="10.00">plan1</text>
</a>
</g>
</g>
<!-- Node3&#45;&gt;Node18 -->
<g id="edge8" class="edge">
<title>Node3&#45;&gt;Node18</title>
<path fill="none" stroke="midnightblue" d="M244.77,-63.38C208.01,-59.43 150.49,-53.26 120.75,-50.07"/>
<polygon fill="midnightblue" stroke="midnightblue" points="244.68,-66.89 255,-64.48 245.43,-59.93 244.68,-66.89"/>
</g>
<!-- Node19 -->
<g id="node10" class="node">
<title>Node19</title>
<g id="a_node10"><a xlink:href="plan4_8f.html#a247fc105464de543a464773054eb509e" target="_top" xlink:title=" ">
<polygon fill="white" stroke="black" points="172.5,-0.5 172.5,-19.5 212.5,-19.5 212.5,-0.5 172.5,-0.5"/>
<text text-anchor="middle" x="192.5" y="-7.5" font-family="Helvetica,sans-Serif" font-size="10.00">plan4</text>
</a>
</g>
</g>
<!-- Node3&#45;&gt;Node19 -->
<g id="edge10" class="edge">
<title>Node3&#45;&gt;Node19</title>
<path fill="none" stroke="midnightblue" d="M255.67,-51.69C240.4,-41.45 220.78,-28.29 207.71,-19.53"/>
<polygon fill="midnightblue" stroke="midnightblue" points="253.83,-54.67 264.08,-57.33 257.72,-48.85 253.83,-54.67"/>
</g>
<!-- Node5 -->
<g id="node5" class="node">
<title>Node5</title>
<g id="a_node5"><a xlink:href="induct_8f.html#adef470718d07d8b4c7f6bf32b2a9ecb9" target="_top" xlink:title=" ">
<polygon fill="white" stroke="red" points="71,-114.5 71,-133.5 130,-133.5 130,-114.5 71,-114.5"/>
<text text-anchor="middle" x="100.5" y="-121.5" font-family="Helvetica,sans-Serif" font-size="10.00">elsasserh</text>
</a>
</g>
</g>
<!-- Node4&#45;&gt;Node5 -->
<g id="edge4" class="edge">
<title>Node4&#45;&gt;Node5</title>
<path fill="none" stroke="midnightblue" d="M155.9,-124C147.4,-124 138.43,-124 130.28,-124"/>
<polygon fill="midnightblue" stroke="midnightblue" points="155.95,-127.5 165.95,-124 155.95,-120.5 155.95,-127.5"/>
</g>
<!-- Node12 -->
<g id="node7" class="node">
<title>Node12</title>
<g id="a_node7"><a xlink:href="planx_8f.html#a142f9186a662d3de60f09bb0ee26782d" target="_top" xlink:title=" ">
<polygon fill="white" stroke="black" points="80.5,-76.5 80.5,-95.5 120.5,-95.5 120.5,-76.5 80.5,-76.5"/>
<text text-anchor="middle" x="100.5" y="-83.5" font-family="Helvetica,sans-Serif" font-size="10.00">plan3</text>
</a>
</g>
</g>
<!-- Node11&#45;&gt;Node12 -->
<g id="edge6" class="edge">
<title>Node11&#45;&gt;Node12</title>
<path fill="none" stroke="midnightblue" d="M158.94,-86C146.13,-86 131.86,-86 120.75,-86"/>
<polygon fill="midnightblue" stroke="midnightblue" points="159.25,-89.5 169.25,-86 159.25,-82.5 159.25,-89.5"/>
</g>
<!-- Node13 -->
<g id="node8" class="node">
<title>Node13</title>
<g id="a_node8"><a xlink:href="drive2_8f.html#ab0aeca9ad3db8be87a01ba29d069d71e" target="_top" xlink:title=" ">
<polygon fill="white" stroke="red" points="0,-38.5 0,-57.5 35,-57.5 35,-38.5 0,-38.5"/>
<text text-anchor="middle" x="17.5" y="-45.5" font-family="Helvetica,sans-Serif" font-size="10.00">fluid</text>
</a>
</g>
</g>
<!-- Node12&#45;&gt;Node13 -->
<g id="edge7" class="edge">
<title>Node12&#45;&gt;Node13</title>
<path fill="none" stroke="midnightblue" d="M71.08,-72.67C59.05,-67.02 45.45,-60.64 35.09,-55.78"/>
<polygon fill="midnightblue" stroke="midnightblue" points="69.76,-75.92 80.3,-76.99 72.74,-69.58 69.76,-75.92"/>
</g>
<!-- Node18&#45;&gt;Node13 -->
<g id="edge9" class="edge">
<title>Node18&#45;&gt;Node13</title>
<path fill="none" stroke="midnightblue" d="M70,-48C58.24,-48 45.14,-48 35.09,-48"/>
<polygon fill="midnightblue" stroke="midnightblue" points="70.3,-51.5 80.3,-48 70.3,-44.5 70.3,-51.5"/>
</g>
<!-- Node19&#45;&gt;Node13 -->
<g id="edge11" class="edge">
<title>Node19&#45;&gt;Node13</title>
<path fill="none" stroke="midnightblue" d="M162.37,-13.01C137.77,-15.93 101.73,-21.09 71,-29 58.8,-32.14 45.45,-36.99 35.27,-41"/>
<polygon fill="midnightblue" stroke="midnightblue" points="162.95,-16.47 172.49,-11.86 162.16,-9.52 162.95,-16.47"/>
</g>
</g>
</svg>
