<?xml version="1.0" encoding="UTF-8" standalone="no"?>
<!DOCTYPE svg PUBLIC "-//W3C//DTD SVG 1.1//EN"
 "http://www.w3.org/Graphics/SVG/1.1/DTD/svg11.dtd">
<!-- Generated by graphviz version 2.46.0 (0)
 -->
<!-- Title: strs_ortho_one Pages: 1 -->
<svg width="376pt" height="256pt"
 viewBox="0.00 0.00 376.00 256.00" xmlns="http://www.w3.org/2000/svg" xmlns:xlink="http://www.w3.org/1999/xlink">
<g id="graph0" class="graph" transform="scale(1 1) rotate(0) translate(4 252)">
<title>strs_ortho_one</title>
<polygon fill="white" stroke="transparent" points="-4,4 -4,-252 372,-252 372,4 -4,4"/>
<!-- Node1 -->
<g id="node1" class="node">
<title>Node1</title>
<g id="a_node1"><a xlink:title=" ">
<polygon fill="#bfbfbf" stroke="black" points="0,-133.5 0,-152.5 81,-152.5 81,-133.5 0,-133.5"/>
<text text-anchor="middle" x="40.5" y="-140.5" font-family="Helvetica,sans-Serif" font-size="10.00">strs_ortho_one</text>
</a>
</g>
</g>
<!-- Node2 -->
<g id="node2" class="node">
<title>Node2</title>
<g id="a_node2"><a xlink:href="math_8f.html#a3b43508554f14bdea8e14473d7d0803c" target="_top" xlink:title=" ">
<polygon fill="white" stroke="black" points="130.5,-152.5 130.5,-171.5 168.5,-171.5 168.5,-152.5 130.5,-152.5"/>
<text text-anchor="middle" x="149.5" y="-159.5" font-family="Helvetica,sans-Serif" font-size="10.00">copy</text>
</a>
</g>
</g>
<!-- Node1&#45;&gt;Node2 -->
<g id="edge1" class="edge">
<title>Node1&#45;&gt;Node2</title>
<path fill="none" stroke="midnightblue" d="M81.04,-150.02C94.12,-152.34 108.39,-154.88 120.42,-157.01"/>
<polygon fill="midnightblue" stroke="midnightblue" points="119.88,-160.47 130.34,-158.78 121.11,-153.58 119.88,-160.47"/>
</g>
<!-- Node3 -->
<g id="node3" class="node">
<title>Node3</title>
<g id="a_node3"><a xlink:href="subs1_8f.html#aa4e9d6b048f4130c133f86568f4f8c40" target="_top" xlink:title=" ">
<polygon fill="white" stroke="red" points="117,-114.5 117,-133.5 182,-133.5 182,-114.5 117,-114.5"/>
<text text-anchor="middle" x="149.5" y="-121.5" font-family="Helvetica,sans-Serif" font-size="10.00">strs_orthok</text>
</a>
</g>
</g>
<!-- Node1&#45;&gt;Node3 -->
<g id="edge2" class="edge">
<title>Node1&#45;&gt;Node3</title>
<path fill="none" stroke="midnightblue" d="M81.04,-135.98C89.42,-134.49 98.29,-132.92 106.75,-131.41"/>
<polygon fill="midnightblue" stroke="midnightblue" points="107.57,-134.82 116.8,-129.63 106.34,-127.93 107.57,-134.82"/>
</g>
<!-- Node4 -->
<g id="node4" class="node">
<title>Node4</title>
<g id="a_node4"><a xlink:href="math_8f.html#a34a2c89ac31311482e2ec34fbb7c5a7a" target="_top" xlink:title=" ">
<polygon fill="white" stroke="red" points="229.5,-228.5 229.5,-247.5 277.5,-247.5 277.5,-228.5 229.5,-228.5"/>
<text text-anchor="middle" x="253.5" y="-235.5" font-family="Helvetica,sans-Serif" font-size="10.00">add2s2</text>
</a>
</g>
</g>
<!-- Node3&#45;&gt;Node4 -->
<g id="edge3" class="edge">
<title>Node3&#45;&gt;Node4</title>
<path fill="none" stroke="midnightblue" d="M170.49,-133.63C174.65,-136.26 178.74,-139.4 182,-143 207.07,-170.72 192.39,-191.78 218,-219 219.19,-220.27 220.49,-221.47 221.85,-222.61"/>
<polygon fill="midnightblue" stroke="midnightblue" points="220.03,-225.6 230.24,-228.43 224.02,-219.85 220.03,-225.6"/>
</g>
<!-- Node7 -->
<g id="node5" class="node">
<title>Node7</title>
<g id="a_node5"><a xlink:href="subs1_8f.html#a47a832cdc015115f79e23f5f6d33324c" target="_top" xlink:title=" ">
<polygon fill="white" stroke="red" points="229,-190.5 229,-209.5 278,-209.5 278,-190.5 229,-190.5"/>
<text text-anchor="middle" x="253.5" y="-197.5" font-family="Helvetica,sans-Serif" font-size="10.00">axhmsf</text>
</a>
</g>
</g>
<!-- Node3&#45;&gt;Node7 -->
<g id="edge4" class="edge">
<title>Node3&#45;&gt;Node7</title>
<path fill="none" stroke="midnightblue" d="M168.39,-133.65C172.99,-136.44 177.82,-139.64 182,-143 200.13,-157.58 199.59,-166.77 218,-181 219.8,-182.39 221.72,-183.74 223.69,-185.04"/>
<polygon fill="midnightblue" stroke="midnightblue" points="222.13,-188.19 232.5,-190.35 225.74,-182.19 222.13,-188.19"/>
</g>
<!-- Node22 -->
<g id="node6" class="node">
<title>Node22</title>
<g id="a_node6"><a xlink:href="math_8f.html#ad2b51b68d370651f4f6d81952503e7be" target="_top" xlink:title=" ">
<polygon fill="white" stroke="black" points="233,-152.5 233,-171.5 274,-171.5 274,-152.5 233,-152.5"/>
<text text-anchor="middle" x="253.5" y="-159.5" font-family="Helvetica,sans-Serif" font-size="10.00">cmult</text>
</a>
</g>
</g>
<!-- Node3&#45;&gt;Node22 -->
<g id="edge5" class="edge">
<title>Node3&#45;&gt;Node22</title>
<path fill="none" stroke="midnightblue" d="M176.24,-133.59C190.53,-138.91 208.36,-145.55 223.18,-151.08"/>
<polygon fill="midnightblue" stroke="midnightblue" points="222.29,-154.48 232.89,-154.69 224.74,-147.92 222.29,-154.48"/>
</g>
<!-- Node46 -->
<g id="node7" class="node">
<title>Node46</title>
<g id="a_node7"><a xlink:href="math_8f.html#ac231f0566c16504dadd6ba0f16a38bd9" target="_top" xlink:title=" ">
<polygon fill="white" stroke="red" points="325,-95.5 325,-114.5 368,-114.5 368,-95.5 325,-95.5"/>
<text text-anchor="middle" x="346.5" y="-102.5" font-family="Helvetica,sans-Serif" font-size="10.00">glsum</text>
</a>
</g>
</g>
<!-- Node3&#45;&gt;Node46 -->
<g id="edge6" class="edge">
<title>Node3&#45;&gt;Node46</title>
<path fill="none" stroke="midnightblue" d="M182.26,-120.91C218.9,-117.34 278.72,-111.51 314.87,-107.98"/>
<polygon fill="midnightblue" stroke="midnightblue" points="315.23,-111.47 324.84,-107.01 314.55,-104.5 315.23,-111.47"/>
</g>
<!-- Node49 -->
<g id="node8" class="node">
<title>Node49</title>
<g id="a_node8"><a xlink:href="subs2_8f.html#a468eef66faa2ee9cec709e25128831d7" target="_top" xlink:title=" ">
<polygon fill="white" stroke="black" points="218,-76.5 218,-95.5 289,-95.5 289,-76.5 218,-76.5"/>
<text text-anchor="middle" x="253.5" y="-83.5" font-family="Helvetica,sans-Serif" font-size="10.00">op_glsc2_wt</text>
</a>
</g>
</g>
<!-- Node3&#45;&gt;Node49 -->
<g id="edge7" class="edge">
<title>Node3&#45;&gt;Node49</title>
<path fill="none" stroke="midnightblue" d="M176.24,-114.41C188.68,-109.78 203.81,-104.14 217.3,-99.11"/>
<polygon fill="midnightblue" stroke="midnightblue" points="218.62,-102.36 226.77,-95.59 216.18,-95.8 218.62,-102.36"/>
</g>
<!-- Node50 -->
<g id="node9" class="node">
<title>Node50</title>
<g id="a_node9"><a xlink:href="subs2_8f.html#ab24eadfee3bde6607c3a8eefc2ef0e64" target="_top" xlink:title=" ">
<polygon fill="white" stroke="black" points="218,-38.5 218,-57.5 289,-57.5 289,-38.5 218,-38.5"/>
<text text-anchor="middle" x="253.5" y="-45.5" font-family="Helvetica,sans-Serif" font-size="10.00">op_vlsc2_wt</text>
</a>
</g>
</g>
<!-- Node3&#45;&gt;Node50 -->
<g id="edge9" class="edge">
<title>Node3&#45;&gt;Node50</title>
<path fill="none" stroke="midnightblue" d="M160.51,-114.44C173.26,-102.54 196.26,-81.95 218,-67 220.12,-65.54 222.36,-64.1 224.64,-62.71"/>
<polygon fill="midnightblue" stroke="midnightblue" points="226.57,-65.64 233.47,-57.6 223.07,-59.58 226.57,-65.64"/>
</g>
<!-- Node51 -->
<g id="node10" class="node">
<title>Node51</title>
<g id="a_node10"><a xlink:href="navier1_8f.html#a2f89b54d1ceda6fb201432d7a61bc907" target="_top" xlink:title=" ">
<polygon fill="white" stroke="red" points="225.5,-0.5 225.5,-19.5 281.5,-19.5 281.5,-0.5 225.5,-0.5"/>
<text text-anchor="middle" x="253.5" y="-7.5" font-family="Helvetica,sans-Serif" font-size="10.00">opdssum</text>
</a>
</g>
</g>
<!-- Node3&#45;&gt;Node51 -->
<g id="edge10" class="edge">
<title>Node3&#45;&gt;Node51</title>
<path fill="none" stroke="midnightblue" d="M155.46,-114.29C165.29,-95.79 188.86,-54.99 218,-29 219.49,-27.67 221.09,-26.39 222.76,-25.18"/>
<polygon fill="midnightblue" stroke="midnightblue" points="224.89,-27.97 231.43,-19.63 221.12,-22.07 224.89,-27.97"/>
</g>
<!-- Node49&#45;&gt;Node46 -->
<g id="edge8" class="edge">
<title>Node49&#45;&gt;Node46</title>
<path fill="none" stroke="midnightblue" d="M289.16,-93.24C297.64,-95.01 306.65,-96.89 314.92,-98.61"/>
<polygon fill="midnightblue" stroke="midnightblue" points="314.4,-102.08 324.9,-100.7 315.83,-95.23 314.4,-102.08"/>
</g>
</g>
</svg>
