<?xml version="1.0" encoding="UTF-8" standalone="no"?>
<!DOCTYPE svg PUBLIC "-//W3C//DTD SVG 1.1//EN"
 "http://www.w3.org/Graphics/SVG/1.1/DTD/svg11.dtd">
<!-- Generated by graphviz version 2.46.0 (0)
 -->
<!-- Title: opnorm2w Pages: 1 -->
<svg width="312pt" height="66pt"
 viewBox="0.00 0.00 312.00 66.00" xmlns="http://www.w3.org/2000/svg" xmlns:xlink="http://www.w3.org/1999/xlink">
<g id="graph0" class="graph" transform="scale(1 1) rotate(0) translate(4 62)">
<title>opnorm2w</title>
<polygon fill="white" stroke="transparent" points="-4,4 -4,-62 308,-62 308,4 -4,4"/>
<!-- Node1 -->
<g id="node1" class="node">
<title>Node1</title>
<g id="a_node1"><a xlink:title=" ">
<polygon fill="#bfbfbf" stroke="black" points="0,-19.5 0,-38.5 62,-38.5 62,-19.5 0,-19.5"/>
<text text-anchor="middle" x="31" y="-26.5" font-family="Helvetica,sans-Serif" font-size="10.00">opnorm2w</text>
</a>
</g>
</g>
<!-- Node2 -->
<g id="node2" class="node">
<title>Node2</title>
<g id="a_node2"><a xlink:href="math_8f.html#ac231f0566c16504dadd6ba0f16a38bd9" target="_top" xlink:title=" ">
<polygon fill="white" stroke="black" points="98,-38.5 98,-57.5 141,-57.5 141,-38.5 98,-38.5"/>
<text text-anchor="middle" x="119.5" y="-45.5" font-family="Helvetica,sans-Serif" font-size="10.00">glsum</text>
</a>
</g>
</g>
<!-- Node1&#45;&gt;Node2 -->
<g id="edge1" class="edge">
<title>Node1&#45;&gt;Node2</title>
<path fill="none" stroke="midnightblue" d="M62.25,-35.65C70.64,-37.49 79.74,-39.49 88.12,-41.33"/>
<polygon fill="midnightblue" stroke="midnightblue" points="87.39,-44.75 97.91,-43.48 88.89,-37.91 87.39,-44.75"/>
</g>
<!-- Node5 -->
<g id="node5" class="node">
<title>Node5</title>
<g id="a_node5"><a xlink:href="navier4_8f.html#a6adc3e5d428cdceba2217edd727ab4ae" target="_top" xlink:title=" ">
<polygon fill="white" stroke="black" points="99.5,-0.5 99.5,-19.5 139.5,-19.5 139.5,-0.5 99.5,-0.5"/>
<text text-anchor="middle" x="119.5" y="-7.5" font-family="Helvetica,sans-Serif" font-size="10.00">vlsc3</text>
</a>
</g>
</g>
<!-- Node1&#45;&gt;Node5 -->
<g id="edge4" class="edge">
<title>Node1&#45;&gt;Node5</title>
<path fill="none" stroke="midnightblue" d="M62.25,-22.35C71.15,-20.4 80.85,-18.27 89.65,-16.34"/>
<polygon fill="midnightblue" stroke="midnightblue" points="90.46,-19.74 99.47,-14.18 88.96,-12.91 90.46,-19.74"/>
</g>
<!-- Node3 -->
<g id="node3" class="node">
<title>Node3</title>
<g id="a_node3"><a xlink:href="gs__test__gop__blocking_8c.html#ab2e24f9857f6d1ded7e4d556c6bc5e49" target="_top" xlink:title=" ">
<polygon fill="white" stroke="black" points="177,-38.5 177,-57.5 209,-57.5 209,-38.5 177,-38.5"/>
<text text-anchor="middle" x="193" y="-45.5" font-family="Helvetica,sans-Serif" font-size="10.00">gop</text>
</a>
</g>
</g>
<!-- Node2&#45;&gt;Node3 -->
<g id="edge2" class="edge">
<title>Node2&#45;&gt;Node3</title>
<path fill="none" stroke="midnightblue" d="M141.18,-48C149.18,-48 158.42,-48 166.81,-48"/>
<polygon fill="midnightblue" stroke="midnightblue" points="166.82,-51.5 176.82,-48 166.82,-44.5 166.82,-51.5"/>
</g>
<!-- Node4 -->
<g id="node4" class="node">
<title>Node4</title>
<g id="a_node4"><a xlink:href="math_8f.html#a17c0ecae12cc5c6096939885da90ad2b" target="_top" xlink:title=" ">
<polygon fill="white" stroke="black" points="245,-38.5 245,-57.5 304,-57.5 304,-38.5 245,-38.5"/>
<text text-anchor="middle" x="274.5" y="-45.5" font-family="Helvetica,sans-Serif" font-size="10.00">transpose</text>
</a>
</g>
</g>
<!-- Node3&#45;&gt;Node4 -->
<g id="edge3" class="edge">
<title>Node3&#45;&gt;Node4</title>
<path fill="none" stroke="midnightblue" d="M209.33,-48C216.61,-48 225.67,-48 234.67,-48"/>
<polygon fill="midnightblue" stroke="midnightblue" points="234.7,-51.5 244.7,-48 234.7,-44.5 234.7,-51.5"/>
</g>
</g>
</svg>
