<?xml version="1.0" encoding="UTF-8" standalone="no"?>
<!DOCTYPE svg PUBLIC "-//W3C//DTD SVG 1.1//EN"
 "http://www.w3.org/Graphics/SVG/1.1/DTD/svg11.dtd">
<!-- Generated by graphviz version 2.46.0 (0)
 -->
<!-- Title: strs_project_b Pages: 1 -->
<svg width="441pt" height="85pt"
 viewBox="0.00 0.00 441.00 85.00" xmlns="http://www.w3.org/2000/svg" xmlns:xlink="http://www.w3.org/1999/xlink">
<g id="graph0" class="graph" transform="scale(1 1) rotate(0) translate(4 81)">
<title>strs_project_b</title>
<polygon fill="white" stroke="transparent" points="-4,4 -4,-81 437,-81 437,4 -4,4"/>
<!-- Node1 -->
<g id="node1" class="node">
<title>Node1</title>
<g id="a_node1"><a xlink:title=" ">
<polygon fill="#bfbfbf" stroke="black" points="0,-38.5 0,-57.5 78,-57.5 78,-38.5 0,-38.5"/>
<text text-anchor="middle" x="39" y="-45.5" font-family="Helvetica,sans-Serif" font-size="10.00">strs_project_b</text>
</a>
</g>
</g>
<!-- Node2 -->
<g id="node2" class="node">
<title>Node2</title>
<g id="a_node2"><a xlink:href="comm__mpi_8f.html#af06ec29f06aac3f8809e19de2a7e8946" target="_top" xlink:title=" ">
<polygon fill="white" stroke="black" points="272,-57.5 272,-76.5 333,-76.5 333,-57.5 272,-57.5"/>
<text text-anchor="middle" x="302.5" y="-64.5" font-family="Helvetica,sans-Serif" font-size="10.00">dnekclock</text>
</a>
</g>
</g>
<!-- Node1&#45;&gt;Node2 -->
<g id="edge1" class="edge">
<title>Node1&#45;&gt;Node2</title>
<path fill="none" stroke="midnightblue" d="M69.91,-57.5C83.26,-61.27 99.26,-65.14 114,-67 164.63,-73.4 223.56,-71.96 261.64,-69.88"/>
<polygon fill="midnightblue" stroke="midnightblue" points="262.03,-73.37 271.8,-69.29 261.62,-66.38 262.03,-73.37"/>
</g>
<!-- Node4 -->
<g id="node4" class="node">
<title>Node4</title>
<g id="a_node4"><a xlink:href="navier1_8f.html#ad1bbe02eb4b6eb1d16f7612e1947dac5" target="_top" xlink:title=" ">
<polygon fill="white" stroke="black" points="114,-38.5 114,-57.5 162,-57.5 162,-38.5 114,-38.5"/>
<text text-anchor="middle" x="138" y="-45.5" font-family="Helvetica,sans-Serif" font-size="10.00">opadd2</text>
</a>
</g>
</g>
<!-- Node1&#45;&gt;Node4 -->
<g id="edge3" class="edge">
<title>Node1&#45;&gt;Node4</title>
<path fill="none" stroke="midnightblue" d="M78.06,-48C86.57,-48 95.53,-48 103.82,-48"/>
<polygon fill="midnightblue" stroke="midnightblue" points="103.88,-51.5 113.88,-48 103.88,-44.5 103.88,-51.5"/>
</g>
<!-- Node6 -->
<g id="node6" class="node">
<title>Node6</title>
<g id="a_node6"><a xlink:href="navier1_8f.html#a55f0c02db80925df02a6998e17985478" target="_top" xlink:title=" ">
<polygon fill="white" stroke="black" points="114,-0.5 114,-19.5 162,-19.5 162,-0.5 114,-0.5"/>
<text text-anchor="middle" x="138" y="-7.5" font-family="Helvetica,sans-Serif" font-size="10.00">opcopy</text>
</a>
</g>
</g>
<!-- Node1&#45;&gt;Node6 -->
<g id="edge6" class="edge">
<title>Node1&#45;&gt;Node6</title>
<path fill="none" stroke="midnightblue" d="M64.48,-38.41C76.55,-33.68 91.29,-27.91 104.31,-22.81"/>
<polygon fill="midnightblue" stroke="midnightblue" points="105.83,-25.97 113.87,-19.06 103.28,-19.45 105.83,-25.97"/>
</g>
<!-- Node3 -->
<g id="node3" class="node">
<title>Node3</title>
<g id="a_node3"><a xlink:href="mpi__dummy_8f.html#ae6a5ef945f87c2c27849696b70f3af2a" target="_top" xlink:title=" ">
<polygon fill="white" stroke="black" points="369,-57.5 369,-76.5 433,-76.5 433,-57.5 369,-57.5"/>
<text text-anchor="middle" x="401" y="-64.5" font-family="Helvetica,sans-Serif" font-size="10.00">mpi_wtime</text>
</a>
</g>
</g>
<!-- Node2&#45;&gt;Node3 -->
<g id="edge2" class="edge">
<title>Node2&#45;&gt;Node3</title>
<path fill="none" stroke="midnightblue" d="M333.24,-67C341.27,-67 350.11,-67 358.65,-67"/>
<polygon fill="midnightblue" stroke="midnightblue" points="358.85,-70.5 368.85,-67 358.85,-63.5 358.85,-70.5"/>
</g>
<!-- Node5 -->
<g id="node5" class="node">
<title>Node5</title>
<g id="a_node5"><a xlink:href="math_8f.html#a30b83d516b6ab162d3fafe73e03a3e92" target="_top" xlink:title=" ">
<polygon fill="white" stroke="black" points="198,-38.5 198,-57.5 236,-57.5 236,-38.5 198,-38.5"/>
<text text-anchor="middle" x="217" y="-45.5" font-family="Helvetica,sans-Serif" font-size="10.00">add2</text>
</a>
</g>
</g>
<!-- Node4&#45;&gt;Node5 -->
<g id="edge4" class="edge">
<title>Node4&#45;&gt;Node5</title>
<path fill="none" stroke="midnightblue" d="M162.1,-48C170.08,-48 179.1,-48 187.46,-48"/>
<polygon fill="midnightblue" stroke="midnightblue" points="187.56,-51.5 197.56,-48 187.56,-44.5 187.56,-51.5"/>
</g>
<!-- Node5&#45;&gt;Node2 -->
<g id="edge5" class="edge">
<title>Node5&#45;&gt;Node2</title>
<path fill="none" stroke="midnightblue" d="M236.12,-52.12C243.72,-53.85 252.87,-55.93 261.89,-57.99"/>
<polygon fill="midnightblue" stroke="midnightblue" points="261.4,-61.46 271.93,-60.27 262.95,-54.64 261.4,-61.46"/>
</g>
<!-- Node7 -->
<g id="node7" class="node">
<title>Node7</title>
<g id="a_node7"><a xlink:href="math_8f.html#a3b43508554f14bdea8e14473d7d0803c" target="_top" xlink:title=" ">
<polygon fill="white" stroke="black" points="198,-0.5 198,-19.5 236,-19.5 236,-0.5 198,-0.5"/>
<text text-anchor="middle" x="217" y="-7.5" font-family="Helvetica,sans-Serif" font-size="10.00">copy</text>
</a>
</g>
</g>
<!-- Node6&#45;&gt;Node7 -->
<g id="edge7" class="edge">
<title>Node6&#45;&gt;Node7</title>
<path fill="none" stroke="midnightblue" d="M162.1,-10C170.08,-10 179.1,-10 187.46,-10"/>
<polygon fill="midnightblue" stroke="midnightblue" points="187.56,-13.5 197.56,-10 187.56,-6.5 187.56,-13.5"/>
</g>
</g>
</svg>
