<?xml version="1.0" encoding="UTF-8" standalone="no"?>
<!DOCTYPE svg PUBLIC "-//W3C//DTD SVG 1.1//EN"
 "http://www.w3.org/Graphics/SVG/1.1/DTD/svg11.dtd">
<!-- Generated by graphviz version 2.46.0 (0)
 -->
<!-- Title: fdm_h1a Pages: 1 -->
<svg width="342pt" height="142pt"
 viewBox="0.00 0.00 342.00 142.00" xmlns="http://www.w3.org/2000/svg" xmlns:xlink="http://www.w3.org/1999/xlink">
<g id="graph0" class="graph" transform="scale(1 1) rotate(0) translate(4 138)">
<title>fdm_h1a</title>
<polygon fill="white" stroke="transparent" points="-4,4 -4,-138 338,-138 338,4 -4,4"/>
<!-- Node1 -->
<g id="node1" class="node">
<title>Node1</title>
<g id="a_node1"><a xlink:title=" ">
<polygon fill="#bfbfbf" stroke="black" points="0,-57.5 0,-76.5 54,-76.5 54,-57.5 0,-57.5"/>
<text text-anchor="middle" x="27" y="-64.5" font-family="Helvetica,sans-Serif" font-size="10.00">fdm_h1a</text>
</a>
</g>
</g>
<!-- Node2 -->
<g id="node2" class="node">
<title>Node2</title>
<g id="a_node2"><a xlink:href="math_8f.html#a3470db04166d9ba91454a14cc17dbec2" target="_top" xlink:title=" ">
<polygon fill="white" stroke="black" points="95.5,-114.5 95.5,-133.5 130.5,-133.5 130.5,-114.5 95.5,-114.5"/>
<text text-anchor="middle" x="113" y="-121.5" font-family="Helvetica,sans-Serif" font-size="10.00">col2</text>
</a>
</g>
</g>
<!-- Node1&#45;&gt;Node2 -->
<g id="edge1" class="edge">
<title>Node1&#45;&gt;Node2</title>
<path fill="none" stroke="midnightblue" d="M42.25,-76.67C55.12,-85.4 74.28,-98.4 89.26,-108.57"/>
<polygon fill="midnightblue" stroke="midnightblue" points="87.72,-111.75 97.96,-114.47 91.65,-105.96 87.72,-111.75"/>
</g>
<!-- Node5 -->
<g id="node5" class="node">
<title>Node5</title>
<g id="a_node5"><a xlink:href="math_8f.html#a0d9af374781723c272547a185cb3da5e" target="_top" xlink:title=" ">
<polygon fill="white" stroke="black" points="95.5,-76.5 95.5,-95.5 130.5,-95.5 130.5,-76.5 95.5,-76.5"/>
<text text-anchor="middle" x="113" y="-83.5" font-family="Helvetica,sans-Serif" font-size="10.00">col3</text>
</a>
</g>
</g>
<!-- Node1&#45;&gt;Node5 -->
<g id="edge4" class="edge">
<title>Node1&#45;&gt;Node5</title>
<path fill="none" stroke="midnightblue" d="M54.12,-72.91C64.13,-75.17 75.55,-77.75 85.58,-80.02"/>
<polygon fill="midnightblue" stroke="midnightblue" points="84.9,-83.46 95.42,-82.25 86.44,-76.63 84.9,-83.46"/>
</g>
<!-- Node6 -->
<g id="node6" class="node">
<title>Node6</title>
<g id="a_node6"><a xlink:href="math_8f.html#a3b43508554f14bdea8e14473d7d0803c" target="_top" xlink:title=" ">
<polygon fill="white" stroke="black" points="94,-38.5 94,-57.5 132,-57.5 132,-38.5 94,-38.5"/>
<text text-anchor="middle" x="113" y="-45.5" font-family="Helvetica,sans-Serif" font-size="10.00">copy</text>
</a>
</g>
</g>
<!-- Node1&#45;&gt;Node6 -->
<g id="edge6" class="edge">
<title>Node1&#45;&gt;Node6</title>
<path fill="none" stroke="midnightblue" d="M54.12,-61.09C63.6,-58.95 74.34,-56.52 83.98,-54.34"/>
<polygon fill="midnightblue" stroke="midnightblue" points="84.9,-57.72 93.89,-52.1 83.36,-50.89 84.9,-57.72"/>
</g>
<!-- Node7 -->
<g id="node7" class="node">
<title>Node7</title>
<g id="a_node7"><a xlink:href="dssum_8f.html#ad67373714b1c3bafed536081167e2cd6" target="_top" xlink:title=" ">
<polygon fill="white" stroke="black" points="90,-0.5 90,-19.5 136,-19.5 136,-0.5 90,-0.5"/>
<text text-anchor="middle" x="113" y="-7.5" font-family="Helvetica,sans-Serif" font-size="10.00">dssum</text>
</a>
</g>
</g>
<!-- Node1&#45;&gt;Node7 -->
<g id="edge7" class="edge">
<title>Node1&#45;&gt;Node7</title>
<path fill="none" stroke="midnightblue" d="M42.25,-57.33C55.12,-48.6 74.28,-35.6 89.26,-25.43"/>
<polygon fill="midnightblue" stroke="midnightblue" points="91.65,-28.04 97.96,-19.53 87.72,-22.25 91.65,-28.04"/>
</g>
<!-- Node3 -->
<g id="node3" class="node">
<title>Node3</title>
<g id="a_node3"><a xlink:href="comm__mpi_8f.html#af06ec29f06aac3f8809e19de2a7e8946" target="_top" xlink:title=" ">
<polygon fill="white" stroke="black" points="172,-76.5 172,-95.5 233,-95.5 233,-76.5 172,-76.5"/>
<text text-anchor="middle" x="202.5" y="-83.5" font-family="Helvetica,sans-Serif" font-size="10.00">dnekclock</text>
</a>
</g>
</g>
<!-- Node2&#45;&gt;Node3 -->
<g id="edge2" class="edge">
<title>Node2&#45;&gt;Node3</title>
<path fill="none" stroke="midnightblue" d="M130.87,-116.67C141.98,-111.85 156.86,-105.38 170.1,-99.63"/>
<polygon fill="midnightblue" stroke="midnightblue" points="171.6,-102.8 179.38,-95.61 168.81,-96.38 171.6,-102.8"/>
</g>
<!-- Node4 -->
<g id="node4" class="node">
<title>Node4</title>
<g id="a_node4"><a xlink:href="mpi__dummy_8f.html#ae6a5ef945f87c2c27849696b70f3af2a" target="_top" xlink:title=" ">
<polygon fill="white" stroke="black" points="269.5,-76.5 269.5,-95.5 333.5,-95.5 333.5,-76.5 269.5,-76.5"/>
<text text-anchor="middle" x="301.5" y="-83.5" font-family="Helvetica,sans-Serif" font-size="10.00">mpi_wtime</text>
</a>
</g>
</g>
<!-- Node3&#45;&gt;Node4 -->
<g id="edge3" class="edge">
<title>Node3&#45;&gt;Node4</title>
<path fill="none" stroke="midnightblue" d="M233.13,-86C241.38,-86 250.49,-86 259.28,-86"/>
<polygon fill="midnightblue" stroke="midnightblue" points="259.37,-89.5 269.37,-86 259.37,-82.5 259.37,-89.5"/>
</g>
<!-- Node5&#45;&gt;Node3 -->
<g id="edge5" class="edge">
<title>Node5&#45;&gt;Node3</title>
<path fill="none" stroke="midnightblue" d="M130.87,-86C139.68,-86 150.86,-86 161.71,-86"/>
<polygon fill="midnightblue" stroke="midnightblue" points="161.92,-89.5 171.92,-86 161.92,-82.5 161.92,-89.5"/>
</g>
<!-- Node7&#45;&gt;Node3 -->
<g id="edge8" class="edge">
<title>Node7&#45;&gt;Node3</title>
<path fill="none" stroke="midnightblue" d="M125.2,-19.66C128.66,-22.65 132.49,-25.96 136,-29 151.7,-42.61 169.48,-58.08 182.55,-69.47"/>
<polygon fill="midnightblue" stroke="midnightblue" points="180.55,-72.37 190.39,-76.31 185.15,-67.1 180.55,-72.37"/>
</g>
<!-- Node8 -->
<g id="node8" class="node">
<title>Node8</title>
<g id="a_node8"><a xlink:href="comm__mpi_8f.html#a4acb4d8e379294232e9219bec063d8f3" target="_top" xlink:title=" ">
<polygon fill="white" stroke="black" points="173,-0.5 173,-19.5 232,-19.5 232,-0.5 173,-0.5"/>
<text text-anchor="middle" x="202.5" y="-7.5" font-family="Helvetica,sans-Serif" font-size="10.00">nekgsync</text>
</a>
</g>
</g>
<!-- Node7&#45;&gt;Node8 -->
<g id="edge9" class="edge">
<title>Node7&#45;&gt;Node8</title>
<path fill="none" stroke="midnightblue" d="M136.08,-10C144.17,-10 153.59,-10 162.71,-10"/>
<polygon fill="midnightblue" stroke="midnightblue" points="162.8,-13.5 172.8,-10 162.8,-6.5 162.8,-13.5"/>
</g>
<!-- Node9 -->
<g id="node9" class="node">
<title>Node9</title>
<g id="a_node9"><a xlink:href="mpi__dummy_8f.html#a070afe564196eb48413dbf1a9fbc99aa" target="_top" xlink:title=" ">
<polygon fill="white" stroke="black" points="269,-0.5 269,-19.5 334,-19.5 334,-0.5 269,-0.5"/>
<text text-anchor="middle" x="301.5" y="-7.5" font-family="Helvetica,sans-Serif" font-size="10.00">mpi_barrier</text>
</a>
</g>
</g>
<!-- Node8&#45;&gt;Node9 -->
<g id="edge10" class="edge">
<title>Node8&#45;&gt;Node9</title>
<path fill="none" stroke="midnightblue" d="M232.08,-10C240.35,-10 249.56,-10 258.48,-10"/>
<polygon fill="midnightblue" stroke="midnightblue" points="258.73,-13.5 268.73,-10 258.73,-6.5 258.73,-13.5"/>
</g>
</g>
</svg>
