<?xml version="1.0" encoding="UTF-8" standalone="no"?>
<!DOCTYPE svg PUBLIC "-//W3C//DTD SVG 1.1//EN"
 "http://www.w3.org/Graphics/SVG/1.1/DTD/svg11.dtd">
<!-- Generated by graphviz version 2.46.0 (0)
 -->
<!-- Title: axhmsf Pages: 1 -->
<svg width="247pt" height="284pt"
 viewBox="0.00 0.00 247.00 284.00" xmlns="http://www.w3.org/2000/svg" xmlns:xlink="http://www.w3.org/1999/xlink">
<g id="graph0" class="graph" transform="scale(1 1) rotate(0) translate(4 280)">
<title>axhmsf</title>
<polygon fill="white" stroke="transparent" points="-4,4 -4,-280 243,-280 243,4 -4,4"/>
<!-- Node1 -->
<g id="node1" class="node">
<title>Node1</title>
<g id="a_node1"><a xlink:title=" ">
<polygon fill="#bfbfbf" stroke="black" points="0,-133.5 0,-152.5 49,-152.5 49,-133.5 0,-133.5"/>
<text text-anchor="middle" x="24.5" y="-140.5" font-family="Helvetica,sans-Serif" font-size="10.00">axhmsf</text>
</a>
</g>
</g>
<!-- Node2 -->
<g id="node2" class="node">
<title>Node2</title>
<g id="a_node2"><a xlink:href="math_8f.html#a40268d720140e9b00647213189f3144a" target="_top" xlink:title=" ">
<polygon fill="white" stroke="black" points="183.5,-256.5 183.5,-275.5 233.5,-275.5 233.5,-256.5 183.5,-256.5"/>
<text text-anchor="middle" x="208.5" y="-263.5" font-family="Helvetica,sans-Serif" font-size="10.00">addcol4</text>
</a>
</g>
</g>
<!-- Node1&#45;&gt;Node2 -->
<g id="edge1" class="edge">
<title>Node1&#45;&gt;Node2</title>
<path fill="none" stroke="midnightblue" d="M27.3,-152.77C32.06,-175.57 47.32,-232.23 85,-257 110.84,-273.99 146.72,-274.62 172.96,-271.97"/>
<polygon fill="midnightblue" stroke="midnightblue" points="173.71,-275.41 183.21,-270.72 172.86,-268.46 173.71,-275.41"/>
</g>
<!-- Node3 -->
<g id="node3" class="node">
<title>Node3</title>
<g id="a_node3"><a xlink:href="subs1_8f.html#acf906df7b860737774978539260db467" target="_top" xlink:title=" ">
<polygon fill="white" stroke="red" points="96.5,-114.5 96.5,-133.5 130.5,-133.5 130.5,-114.5 96.5,-114.5"/>
<text text-anchor="middle" x="113.5" y="-121.5" font-family="Helvetica,sans-Serif" font-size="10.00">aijuj</text>
</a>
</g>
</g>
<!-- Node1&#45;&gt;Node3 -->
<g id="edge2" class="edge">
<title>Node1&#45;&gt;Node3</title>
<path fill="none" stroke="midnightblue" d="M49.27,-137.81C60.75,-135.3 74.56,-132.29 86.33,-129.71"/>
<polygon fill="midnightblue" stroke="midnightblue" points="87.43,-133.06 96.45,-127.5 85.94,-126.22 87.43,-133.06"/>
</g>
<!-- Node17 -->
<g id="node5" class="node">
<title>Node17</title>
<g id="a_node5"><a xlink:href="hmholtz_8f.html#aa576b5bd623cce50fd6323db12ba5376" target="_top" xlink:title=" ">
<polygon fill="white" stroke="red" points="89.5,-228.5 89.5,-247.5 137.5,-247.5 137.5,-228.5 89.5,-228.5"/>
<text text-anchor="middle" x="113.5" y="-235.5" font-family="Helvetica,sans-Serif" font-size="10.00">axhelm</text>
</a>
</g>
</g>
<!-- Node1&#45;&gt;Node17 -->
<g id="edge4" class="edge">
<title>Node1&#45;&gt;Node17</title>
<path fill="none" stroke="midnightblue" d="M32.76,-152.59C43.55,-166.62 64.74,-193.33 85,-214 87.52,-216.57 90.27,-219.17 93.03,-221.68"/>
<polygon fill="midnightblue" stroke="midnightblue" points="90.8,-224.38 100.63,-228.34 95.42,-219.12 90.8,-224.38"/>
</g>
<!-- Node6 -->
<g id="node6" class="node">
<title>Node6</title>
<g id="a_node6"><a xlink:href="comm__mpi_8f.html#af06ec29f06aac3f8809e19de2a7e8946" target="_top" xlink:title=" ">
<polygon fill="white" stroke="red" points="178,-209.5 178,-228.5 239,-228.5 239,-209.5 178,-209.5"/>
<text text-anchor="middle" x="208.5" y="-216.5" font-family="Helvetica,sans-Serif" font-size="10.00">dnekclock</text>
</a>
</g>
</g>
<!-- Node1&#45;&gt;Node6 -->
<g id="edge9" class="edge">
<title>Node1&#45;&gt;Node6</title>
<path fill="none" stroke="midnightblue" d="M41.84,-152.64C53.61,-159.37 70,-168.32 85,-175 112.21,-187.12 143.89,-198.43 168.21,-206.55"/>
<polygon fill="midnightblue" stroke="midnightblue" points="167.22,-209.9 177.81,-209.71 169.41,-203.26 167.22,-209.9"/>
</g>
<!-- Node21 -->
<g id="node7" class="node">
<title>Node21</title>
<g id="a_node7"><a xlink:href="hmholtz_8f.html#a0f322d39d4bdffa3f9ba901f72d4a1d0" target="_top" xlink:title=" ">
<polygon fill="white" stroke="red" points="185,-171.5 185,-190.5 232,-190.5 232,-171.5 185,-171.5"/>
<text text-anchor="middle" x="208.5" y="-178.5" font-family="Helvetica,sans-Serif" font-size="10.00">setfast</text>
</a>
</g>
</g>
<!-- Node1&#45;&gt;Node21 -->
<g id="edge10" class="edge">
<title>Node1&#45;&gt;Node21</title>
<path fill="none" stroke="midnightblue" d="M49.29,-147.97C81.39,-154.67 138.69,-166.63 174.81,-174.18"/>
<polygon fill="midnightblue" stroke="midnightblue" points="174.34,-177.65 184.85,-176.27 175.77,-170.8 174.34,-177.65"/>
</g>
<!-- Node25 -->
<g id="node8" class="node">
<title>Node25</title>
<g id="a_node8"><a xlink:href="subs1_8f.html#aa5df429c313e067a476faa349080e7b8" target="_top" xlink:title=" ">
<polygon fill="white" stroke="red" points="85,-76.5 85,-95.5 142,-95.5 142,-76.5 85,-76.5"/>
<text text-anchor="middle" x="113.5" y="-83.5" font-family="Helvetica,sans-Serif" font-size="10.00">axsf_fast</text>
</a>
</g>
</g>
<!-- Node1&#45;&gt;Node25 -->
<g id="edge8" class="edge">
<title>Node1&#45;&gt;Node25</title>
<path fill="none" stroke="midnightblue" d="M40.26,-133.33C53.71,-124.52 73.81,-111.35 89.39,-101.14"/>
<polygon fill="midnightblue" stroke="midnightblue" points="91.51,-103.93 97.96,-95.53 87.68,-98.08 91.51,-103.93"/>
</g>
<!-- Node32 -->
<g id="node9" class="node">
<title>Node32</title>
<g id="a_node9"><a xlink:href="subs1_8f.html#abac8b0f11b57286fd4460829b044c2c3" target="_top" xlink:title=" ">
<polygon fill="white" stroke="red" points="90,-38.5 90,-57.5 137,-57.5 137,-38.5 90,-38.5"/>
<text text-anchor="middle" x="113.5" y="-45.5" font-family="Helvetica,sans-Serif" font-size="10.00">stnrate</text>
</a>
</g>
</g>
<!-- Node1&#45;&gt;Node32 -->
<g id="edge11" class="edge">
<title>Node1&#45;&gt;Node32</title>
<path fill="none" stroke="midnightblue" d="M31.65,-133.36C41.64,-118.15 62.56,-88.14 85,-67 86.11,-65.96 87.28,-64.93 88.49,-63.92"/>
<polygon fill="midnightblue" stroke="midnightblue" points="90.88,-66.5 96.74,-57.68 86.66,-60.91 90.88,-66.5"/>
</g>
<!-- Node40 -->
<g id="node10" class="node">
<title>Node40</title>
<g id="a_node10"><a xlink:href="subs1_8f.html#aeff12ff779aab3caaefd9db944547c14" target="_top" xlink:title=" ">
<polygon fill="white" stroke="red" points="91.5,-0.5 91.5,-19.5 135.5,-19.5 135.5,-0.5 91.5,-0.5"/>
<text text-anchor="middle" x="113.5" y="-7.5" font-family="Helvetica,sans-Serif" font-size="10.00">stress</text>
</a>
</g>
</g>
<!-- Node1&#45;&gt;Node40 -->
<g id="edge12" class="edge">
<title>Node1&#45;&gt;Node40</title>
<path fill="none" stroke="midnightblue" d="M28.77,-133.2C36.14,-112.21 55.73,-62.13 85,-29 85.86,-28.02 86.79,-27.07 87.76,-26.14"/>
<polygon fill="midnightblue" stroke="midnightblue" points="90.18,-28.68 95.74,-19.66 85.77,-23.25 90.18,-28.68"/>
</g>
<!-- Node4 -->
<g id="node4" class="node">
<title>Node4</title>
<g id="a_node4"><a xlink:href="subs1_8f.html#a29d541493de8064a64fb626112546c85" target="_top" xlink:title=" ">
<polygon fill="white" stroke="red" points="187,-114.5 187,-133.5 230,-133.5 230,-114.5 187,-114.5"/>
<text text-anchor="middle" x="208.5" y="-121.5" font-family="Helvetica,sans-Serif" font-size="10.00">axitzz</text>
</a>
</g>
</g>
<!-- Node3&#45;&gt;Node4 -->
<g id="edge3" class="edge">
<title>Node3&#45;&gt;Node4</title>
<path fill="none" stroke="midnightblue" d="M130.7,-124C143.38,-124 161.4,-124 176.79,-124"/>
<polygon fill="midnightblue" stroke="midnightblue" points="176.93,-127.5 186.93,-124 176.93,-120.5 176.93,-127.5"/>
</g>
<!-- Node17&#45;&gt;Node2 -->
<g id="edge5" class="edge">
<title>Node17&#45;&gt;Node2</title>
<path fill="none" stroke="midnightblue" d="M137.97,-245.07C148.81,-248.33 161.9,-252.27 173.77,-255.85"/>
<polygon fill="midnightblue" stroke="midnightblue" points="172.81,-259.21 183.39,-258.74 174.83,-252.51 172.81,-259.21"/>
</g>
<!-- Node17&#45;&gt;Node6 -->
<g id="edge6" class="edge">
<title>Node17&#45;&gt;Node6</title>
<path fill="none" stroke="midnightblue" d="M137.97,-233.21C147.01,-231.36 157.6,-229.19 167.76,-227.12"/>
<polygon fill="midnightblue" stroke="midnightblue" points="168.59,-230.52 177.69,-225.09 167.19,-223.66 168.59,-230.52"/>
</g>
<!-- Node17&#45;&gt;Node21 -->
<g id="edge7" class="edge">
<title>Node17&#45;&gt;Node21</title>
<path fill="none" stroke="midnightblue" d="M130.28,-228.33C144.79,-219.43 166.54,-206.1 183.26,-195.86"/>
<polygon fill="midnightblue" stroke="midnightblue" points="185.26,-198.74 191.96,-190.53 181.6,-192.77 185.26,-198.74"/>
</g>
</g>
</svg>
