<?xml version="1.0" encoding="UTF-8" standalone="no"?>
<!DOCTYPE svg PUBLIC "-//W3C//DTD SVG 1.1//EN"
 "http://www.w3.org/Graphics/SVG/1.1/DTD/svg11.dtd">
<!-- Generated by graphviz version 2.46.0 (0)
 -->
<!-- Title: visitgetvariable Pages: 1 -->
<svg width="464pt" height="180pt"
 viewBox="0.00 0.00 464.00 180.00" xmlns="http://www.w3.org/2000/svg" xmlns:xlink="http://www.w3.org/1999/xlink">
<g id="graph0" class="graph" transform="scale(1 1) rotate(0) translate(4 176)">
<title>visitgetvariable</title>
<polygon fill="white" stroke="transparent" points="-4,4 -4,-176 460,-176 460,4 -4,4"/>
<!-- Node1 -->
<g id="node1" class="node">
<title>Node1</title>
<g id="a_node1"><a xlink:title=" ">
<polygon fill="#bfbfbf" stroke="black" points="0,-76.5 0,-95.5 82,-95.5 82,-76.5 0,-76.5"/>
<text text-anchor="middle" x="41" y="-83.5" font-family="Helvetica,sans-Serif" font-size="10.00">visitgetvariable</text>
</a>
</g>
</g>
<!-- Node2 -->
<g id="node2" class="node">
<title>Node2</title>
<g id="a_node2"><a xlink:href="dprocmap_8f.html#a90fd349db1c16c4cb8108485b3c200e0" target="_top" xlink:title=" ">
<polygon fill="white" stroke="black" points="118,-76.5 118,-95.5 152,-95.5 152,-76.5 118,-76.5"/>
<text text-anchor="middle" x="135" y="-83.5" font-family="Helvetica,sans-Serif" font-size="10.00">gllel</text>
</a>
</g>
</g>
<!-- Node1&#45;&gt;Node2 -->
<g id="edge1" class="edge">
<title>Node1&#45;&gt;Node2</title>
<path fill="none" stroke="midnightblue" d="M82.08,-86C90.74,-86 99.68,-86 107.65,-86"/>
<polygon fill="midnightblue" stroke="midnightblue" points="107.8,-89.5 117.8,-86 107.8,-82.5 107.8,-89.5"/>
</g>
<!-- Node3 -->
<g id="node3" class="node">
<title>Node3</title>
<g id="a_node3"><a xlink:href="dprocmap_8f.html#a311a5a8d89b7f42b1f539390ad6b2fb0" target="_top" xlink:title=" ">
<polygon fill="white" stroke="black" points="188,-76.5 188,-95.5 261,-95.5 261,-76.5 188,-76.5"/>
<text text-anchor="middle" x="224.5" y="-83.5" font-family="Helvetica,sans-Serif" font-size="10.00">dprocmapget</text>
</a>
</g>
</g>
<!-- Node2&#45;&gt;Node3 -->
<g id="edge2" class="edge">
<title>Node2&#45;&gt;Node3</title>
<path fill="none" stroke="midnightblue" d="M152.05,-86C159.44,-86 168.62,-86 177.92,-86"/>
<polygon fill="midnightblue" stroke="midnightblue" points="177.97,-89.5 187.97,-86 177.97,-82.5 177.97,-89.5"/>
</g>
<!-- Node4 -->
<g id="node4" class="node">
<title>Node4</title>
<g id="a_node4"><a xlink:href="dprocmap_8f.html#a6a1e00e712d066b755283763aae0e73b" target="_top" xlink:title=" ">
<polygon fill="white" stroke="black" points="297,-152.5 297,-171.5 372,-171.5 372,-152.5 297,-152.5"/>
<text text-anchor="middle" x="334.5" y="-159.5" font-family="Helvetica,sans-Serif" font-size="10.00">dprocmapfind</text>
</a>
</g>
</g>
<!-- Node3&#45;&gt;Node4 -->
<g id="edge3" class="edge">
<title>Node3&#45;&gt;Node4</title>
<path fill="none" stroke="midnightblue" d="M236.15,-95.58C249.7,-107.5 274.11,-128.12 297,-143 299.41,-144.57 301.97,-146.12 304.57,-147.61"/>
<polygon fill="midnightblue" stroke="midnightblue" points="302.95,-150.71 313.4,-152.42 306.3,-144.56 302.95,-150.71"/>
</g>
<!-- Node5 -->
<g id="node5" class="node">
<title>Node5</title>
<g id="a_node5"><a xlink:href="comm__mpi_8f.html#a59fcf8a02fe54ab37f61050e3ca6b197" target="_top" xlink:title=" ">
<polygon fill="white" stroke="red" points="315.5,-114.5 315.5,-133.5 353.5,-133.5 353.5,-114.5 315.5,-114.5"/>
<text text-anchor="middle" x="334.5" y="-121.5" font-family="Helvetica,sans-Serif" font-size="10.00">exitti</text>
</a>
</g>
</g>
<!-- Node3&#45;&gt;Node5 -->
<g id="edge4" class="edge">
<title>Node3&#45;&gt;Node5</title>
<path fill="none" stroke="midnightblue" d="M252.75,-95.59C269,-101.31 289.57,-108.54 305.89,-114.28"/>
<polygon fill="midnightblue" stroke="midnightblue" points="304.82,-117.62 315.42,-117.64 307.14,-111.02 304.82,-117.62"/>
</g>
<!-- Node12 -->
<g id="node8" class="node">
<title>Node12</title>
<g id="a_node8"><a xlink:href="math_8f.html#a1e85d2406444243269f0d85c61a02dce" target="_top" xlink:title=" ">
<polygon fill="white" stroke="black" points="314.5,-76.5 314.5,-95.5 354.5,-95.5 354.5,-76.5 314.5,-76.5"/>
<text text-anchor="middle" x="334.5" y="-83.5" font-family="Helvetica,sans-Serif" font-size="10.00">icopy</text>
</a>
</g>
</g>
<!-- Node3&#45;&gt;Node12 -->
<g id="edge7" class="edge">
<title>Node3&#45;&gt;Node12</title>
<path fill="none" stroke="midnightblue" d="M261.16,-86C275.13,-86 290.94,-86 304.22,-86"/>
<polygon fill="midnightblue" stroke="midnightblue" points="304.24,-89.5 314.24,-86 304.24,-82.5 304.24,-89.5"/>
</g>
<!-- Node13 -->
<g id="node9" class="node">
<title>Node13</title>
<g id="a_node9"><a xlink:href="math_8f.html#a16c41e2c6a58c051aef77bab8374b652" target="_top" xlink:title=" ">
<polygon fill="white" stroke="black" points="320,-38.5 320,-57.5 349,-57.5 349,-38.5 320,-38.5"/>
<text text-anchor="middle" x="334.5" y="-45.5" font-family="Helvetica,sans-Serif" font-size="10.00">ifill</text>
</a>
</g>
</g>
<!-- Node3&#45;&gt;Node13 -->
<g id="edge8" class="edge">
<title>Node3&#45;&gt;Node13</title>
<path fill="none" stroke="midnightblue" d="M252.75,-76.41C270.45,-70.18 293.28,-62.15 310.14,-56.22"/>
<polygon fill="midnightblue" stroke="midnightblue" points="311.5,-59.45 319.77,-52.83 309.18,-52.85 311.5,-59.45"/>
</g>
<!-- Node14 -->
<g id="node10" class="node">
<title>Node14</title>
<g id="a_node10"><a xlink:href="dprocmap_8f.html#a3c6a96b4a945f5baaffd16961c698704" target="_top" xlink:title=" ">
<polygon fill="white" stroke="black" points="303.5,-0.5 303.5,-19.5 365.5,-19.5 365.5,-0.5 303.5,-0.5"/>
<text text-anchor="middle" x="334.5" y="-7.5" font-family="Helvetica,sans-Serif" font-size="10.00">lsearch_ur</text>
</a>
</g>
</g>
<!-- Node3&#45;&gt;Node14 -->
<g id="edge9" class="edge">
<title>Node3&#45;&gt;Node14</title>
<path fill="none" stroke="midnightblue" d="M236.15,-76.42C249.7,-64.5 274.11,-43.88 297,-29 299.41,-27.43 301.97,-25.88 304.57,-24.39"/>
<polygon fill="midnightblue" stroke="midnightblue" points="306.3,-27.44 313.4,-19.58 302.95,-21.29 306.3,-27.44"/>
</g>
<!-- Node6 -->
<g id="node6" class="node">
<title>Node6</title>
<g id="a_node6"><a xlink:href="math_8f.html#a692155d1d2ec380a9fdb2d81ef221625" target="_top" xlink:title=" ">
<polygon fill="white" stroke="black" points="412,-133.5 412,-152.5 452,-152.5 452,-133.5 412,-133.5"/>
<text text-anchor="middle" x="432" y="-140.5" font-family="Helvetica,sans-Serif" font-size="10.00">blank</text>
</a>
</g>
</g>
<!-- Node5&#45;&gt;Node6 -->
<g id="edge5" class="edge">
<title>Node5&#45;&gt;Node6</title>
<path fill="none" stroke="midnightblue" d="M353.91,-127.66C367.48,-130.36 386.2,-134.09 401.79,-137.19"/>
<polygon fill="midnightblue" stroke="midnightblue" points="401.5,-140.7 411.99,-139.22 402.86,-133.83 401.5,-140.7"/>
</g>
<!-- Node7 -->
<g id="node7" class="node">
<title>Node7</title>
<g id="a_node7"><a xlink:href="math_8f.html#ad7fb480cea001849621405f37167aab1" target="_top" xlink:title=" ">
<polygon fill="white" stroke="black" points="408,-95.5 408,-114.5 456,-114.5 456,-95.5 408,-95.5"/>
<text text-anchor="middle" x="432" y="-102.5" font-family="Helvetica,sans-Serif" font-size="10.00">chcopy</text>
</a>
</g>
</g>
<!-- Node5&#45;&gt;Node7 -->
<g id="edge6" class="edge">
<title>Node5&#45;&gt;Node7</title>
<path fill="none" stroke="midnightblue" d="M353.91,-120.34C366.42,-117.85 383.31,-114.49 398.09,-111.55"/>
<polygon fill="midnightblue" stroke="midnightblue" points="398.79,-114.98 407.91,-109.59 397.42,-108.11 398.79,-114.98"/>
</g>
</g>
</svg>
