<?xml version="1.0" encoding="UTF-8" standalone="no"?>
<!DOCTYPE svg PUBLIC "-//W3C//DTD SVG 1.1//EN"
 "http://www.w3.org/Graphics/SVG/1.1/DTD/svg11.dtd">
<!-- Generated by graphviz version 2.46.0 (0)
 -->
<!-- Title: visit_end Pages: 1 -->
<svg width="264pt" height="28pt"
 viewBox="0.00 0.00 264.00 28.00" xmlns="http://www.w3.org/2000/svg" xmlns:xlink="http://www.w3.org/1999/xlink">
<g id="graph0" class="graph" transform="scale(1 1) rotate(0) translate(4 24)">
<title>visit_end</title>
<polygon fill="white" stroke="transparent" points="-4,4 -4,-24 260,-24 260,4 -4,4"/>
<!-- Node1 -->
<g id="node1" class="node">
<title>Node1</title>
<g id="a_node1"><a xlink:title=" ">
<polygon fill="#bfbfbf" stroke="black" points="0,-0.5 0,-19.5 56,-19.5 56,-0.5 0,-0.5"/>
<text text-anchor="middle" x="28" y="-7.5" font-family="Helvetica,sans-Serif" font-size="10.00">visit_end</text>
</a>
</g>
</g>
<!-- Node2 -->
<g id="node2" class="node">
<title>Node2</title>
<g id="a_node2"><a xlink:href="visit_8f.html#a16c8f91a6006506964171a70d3a1f08e" target="_top" xlink:title=" ">
<polygon fill="white" stroke="black" points="92,-0.5 92,-19.5 158,-19.5 158,-0.5 92,-0.5"/>
<text text-anchor="middle" x="125" y="-7.5" font-family="Helvetica,sans-Serif" font-size="10.00">visit_check</text>
</a>
</g>
</g>
<!-- Node1&#45;&gt;Node2 -->
<g id="edge1" class="edge">
<title>Node1&#45;&gt;Node2</title>
<path fill="none" stroke="midnightblue" d="M56.22,-10C64.1,-10 72.89,-10 81.46,-10"/>
<polygon fill="midnightblue" stroke="midnightblue" points="81.73,-13.5 91.73,-10 81.73,-6.5 81.73,-13.5"/>
</g>
<!-- Node3 -->
<g id="node3" class="node">
<title>Node3</title>
<g id="a_node3"><a xlink:href="mpi__dummy_8f.html#ae0bd4baaea848988f45664ce0de33350" target="_top" xlink:title=" ">
<polygon fill="white" stroke="black" points="194,-0.5 194,-19.5 256,-19.5 256,-0.5 194,-0.5"/>
<text text-anchor="middle" x="225" y="-7.5" font-family="Helvetica,sans-Serif" font-size="10.00">mpi_bcast</text>
</a>
</g>
</g>
<!-- Node2&#45;&gt;Node3 -->
<g id="edge2" class="edge">
<title>Node2&#45;&gt;Node3</title>
<path fill="none" stroke="midnightblue" d="M158.09,-10C166.26,-10 175.16,-10 183.68,-10"/>
<polygon fill="midnightblue" stroke="midnightblue" points="183.83,-13.5 193.83,-10 183.83,-6.5 183.83,-13.5"/>
</g>
</g>
</svg>
