<?xml version="1.0" encoding="UTF-8" standalone="no"?>
<!DOCTYPE svg PUBLIC "-//W3C//DTD SVG 1.1//EN"
 "http://www.w3.org/Graphics/SVG/1.1/DTD/svg11.dtd">
<!-- Generated by graphviz version 2.46.0 (0)
 -->
<!-- Title: vprops Pages: 1 -->
<svg width="331pt" height="180pt"
 viewBox="0.00 0.00 331.00 180.00" xmlns="http://www.w3.org/2000/svg" xmlns:xlink="http://www.w3.org/1999/xlink">
<g id="graph0" class="graph" transform="scale(1 1) rotate(0) translate(4 176)">
<title>vprops</title>
<polygon fill="white" stroke="transparent" points="-4,4 -4,-176 327,-176 327,4 -4,4"/>
<!-- Node1 -->
<g id="node1" class="node">
<title>Node1</title>
<g id="a_node1"><a xlink:title=" ">
<polygon fill="#bfbfbf" stroke="black" points="0,-76.5 0,-95.5 46,-95.5 46,-76.5 0,-76.5"/>
<text text-anchor="middle" x="23" y="-83.5" font-family="Helvetica,sans-Serif" font-size="10.00">vprops</text>
</a>
</g>
</g>
<!-- Node2 -->
<g id="node2" class="node">
<title>Node2</title>
<g id="a_node2"><a xlink:href="math_8f.html#add7cf4f5279a2239cfd54f963a53e618" target="_top" xlink:title=" ">
<polygon fill="white" stroke="black" points="90,-152.5 90,-171.5 122,-171.5 122,-152.5 90,-152.5"/>
<text text-anchor="middle" x="106" y="-159.5" font-family="Helvetica,sans-Serif" font-size="10.00">cfill</text>
</a>
</g>
</g>
<!-- Node1&#45;&gt;Node2 -->
<g id="edge1" class="edge">
<title>Node1&#45;&gt;Node2</title>
<path fill="none" stroke="midnightblue" d="M33.2,-95.54C44.45,-107.07 64.17,-126.93 82,-143 82.95,-143.86 83.94,-144.73 84.93,-145.6"/>
<polygon fill="midnightblue" stroke="midnightblue" points="82.76,-148.35 92.66,-152.13 87.28,-143 82.76,-148.35"/>
</g>
<!-- Node3 -->
<g id="node3" class="node">
<title>Node3</title>
<g id="a_node3"><a xlink:href="byte_8c.html#a2da8eeb074dfd3ffbfb3e9a4d301cda4" target="_top" xlink:title=" ">
<polygon fill="white" stroke="black" points="88.5,-114.5 88.5,-133.5 123.5,-133.5 123.5,-114.5 88.5,-114.5"/>
<text text-anchor="middle" x="106" y="-121.5" font-family="Helvetica,sans-Serif" font-size="10.00">exitt</text>
</a>
</g>
</g>
<!-- Node1&#45;&gt;Node3 -->
<g id="edge2" class="edge">
<title>Node1&#45;&gt;Node3</title>
<path fill="none" stroke="midnightblue" d="M44.44,-95.59C54.95,-100.52 67.88,-106.58 79.08,-111.84"/>
<polygon fill="midnightblue" stroke="midnightblue" points="77.84,-115.13 88.38,-116.2 80.82,-108.79 77.84,-115.13"/>
</g>
<!-- Node6 -->
<g id="node6" class="node">
<title>Node6</title>
<g id="a_node6"><a xlink:href="math_8f.html#a8431e1799f5711943b2e061a602754ca" target="_top" xlink:title=" ">
<polygon fill="white" stroke="black" points="83.5,-76.5 83.5,-95.5 128.5,-95.5 128.5,-76.5 83.5,-76.5"/>
<text text-anchor="middle" x="106" y="-83.5" font-family="Helvetica,sans-Serif" font-size="10.00">iglmax</text>
</a>
</g>
</g>
<!-- Node1&#45;&gt;Node6 -->
<g id="edge5" class="edge">
<title>Node1&#45;&gt;Node6</title>
<path fill="none" stroke="midnightblue" d="M46.13,-86C54.48,-86 64.15,-86 73.21,-86"/>
<polygon fill="midnightblue" stroke="midnightblue" points="73.45,-89.5 83.45,-86 73.45,-82.5 73.45,-89.5"/>
</g>
<!-- Node9 -->
<g id="node8" class="node">
<title>Node9</title>
<g id="a_node8"><a xlink:href="subs1_8f.html#a3ddf6ac683902914ad5030ee9936c2e3" target="_top" xlink:title=" ">
<polygon fill="white" stroke="black" points="82,-38.5 82,-57.5 130,-57.5 130,-38.5 82,-38.5"/>
<text text-anchor="middle" x="106" y="-45.5" font-family="Helvetica,sans-Serif" font-size="10.00">nekuvp</text>
</a>
</g>
</g>
<!-- Node1&#45;&gt;Node9 -->
<g id="edge7" class="edge">
<title>Node1&#45;&gt;Node9</title>
<path fill="none" stroke="midnightblue" d="M44.44,-76.41C53.84,-72 65.17,-66.69 75.48,-61.85"/>
<polygon fill="midnightblue" stroke="midnightblue" points="77,-65 84.57,-57.59 74.03,-58.66 77,-65"/>
</g>
<!-- Node11 -->
<g id="node10" class="node">
<title>Node11</title>
<g id="a_node10"><a xlink:href="math_8f.html#aefe89276b8a8ae8a9f1ea1ede71b142f" target="_top" xlink:title=" ">
<polygon fill="white" stroke="black" points="86,-0.5 86,-19.5 126,-19.5 126,-0.5 86,-0.5"/>
<text text-anchor="middle" x="106" y="-7.5" font-family="Helvetica,sans-Serif" font-size="10.00">vlmin</text>
</a>
</g>
</g>
<!-- Node1&#45;&gt;Node11 -->
<g id="edge9" class="edge">
<title>Node1&#45;&gt;Node11</title>
<path fill="none" stroke="midnightblue" d="M33.2,-76.46C44.45,-64.93 64.17,-45.07 82,-29 82.95,-28.14 83.94,-27.27 84.93,-26.4"/>
<polygon fill="midnightblue" stroke="midnightblue" points="87.28,-29 92.66,-19.87 82.76,-23.65 87.28,-29"/>
</g>
<!-- Node4 -->
<g id="node4" class="node">
<title>Node4</title>
<g id="a_node4"><a xlink:href="comm__mpi_8f.html#acc8803a3787828530843112e0c48941b" target="_top" xlink:title=" ">
<polygon fill="white" stroke="black" points="167.5,-114.5 167.5,-133.5 217.5,-133.5 217.5,-114.5 167.5,-114.5"/>
<text text-anchor="middle" x="192.5" y="-121.5" font-family="Helvetica,sans-Serif" font-size="10.00">nek_die</text>
</a>
</g>
</g>
<!-- Node3&#45;&gt;Node4 -->
<g id="edge3" class="edge">
<title>Node3&#45;&gt;Node4</title>
<path fill="none" stroke="midnightblue" d="M123.69,-124C133.27,-124 145.65,-124 157.2,-124"/>
<polygon fill="midnightblue" stroke="midnightblue" points="157.48,-127.5 167.48,-124 157.48,-120.5 157.48,-127.5"/>
</g>
<!-- Node5 -->
<g id="node5" class="node">
<title>Node5</title>
<g id="a_node5"><a xlink:href="mpi__dummy_8f.html#a55e9a1619aadb638b14211ce21d7d566" target="_top" xlink:title=" ">
<polygon fill="white" stroke="black" points="255,-114.5 255,-133.5 323,-133.5 323,-114.5 255,-114.5"/>
<text text-anchor="middle" x="289" y="-121.5" font-family="Helvetica,sans-Serif" font-size="10.00">mpi_finalize</text>
</a>
</g>
</g>
<!-- Node4&#45;&gt;Node5 -->
<g id="edge4" class="edge">
<title>Node4&#45;&gt;Node5</title>
<path fill="none" stroke="midnightblue" d="M217.84,-124C226.02,-124 235.42,-124 244.62,-124"/>
<polygon fill="midnightblue" stroke="midnightblue" points="244.84,-127.5 254.84,-124 244.84,-120.5 244.84,-127.5"/>
</g>
<!-- Node7 -->
<g id="node7" class="node">
<title>Node7</title>
<g id="a_node7"><a xlink:href="gs__test__gop__nonblocking_8c.html#a9a5cca78c6f0fc8b3c6845a29e9113ce" target="_top" xlink:title=" ">
<polygon fill="white" stroke="red" points="175,-76.5 175,-95.5 210,-95.5 210,-76.5 175,-76.5"/>
<text text-anchor="middle" x="192.5" y="-83.5" font-family="Helvetica,sans-Serif" font-size="10.00">igop</text>
</a>
</g>
</g>
<!-- Node6&#45;&gt;Node7 -->
<g id="edge6" class="edge">
<title>Node6&#45;&gt;Node7</title>
<path fill="none" stroke="midnightblue" d="M128.76,-86C139.77,-86 153.22,-86 164.85,-86"/>
<polygon fill="midnightblue" stroke="midnightblue" points="164.88,-89.5 174.88,-86 164.88,-82.5 164.88,-89.5"/>
</g>
<!-- Node10 -->
<g id="node9" class="node">
<title>Node10</title>
<g id="a_node9"><a xlink:href="bdry_8f.html#acf4812f4cbef3ae2e11e539feacc97d6" target="_top" xlink:title=" ">
<polygon fill="white" stroke="black" points="166,-38.5 166,-57.5 219,-57.5 219,-38.5 166,-38.5"/>
<text text-anchor="middle" x="192.5" y="-45.5" font-family="Helvetica,sans-Serif" font-size="10.00">nekasgn</text>
</a>
</g>
</g>
<!-- Node9&#45;&gt;Node10 -->
<g id="edge8" class="edge">
<title>Node9&#45;&gt;Node10</title>
<path fill="none" stroke="midnightblue" d="M130.09,-48C137.94,-48 146.91,-48 155.53,-48"/>
<polygon fill="midnightblue" stroke="midnightblue" points="155.76,-51.5 165.76,-48 155.76,-44.5 155.76,-51.5"/>
</g>
</g>
</svg>
