<?xml version="1.0" encoding="UTF-8" standalone="no"?>
<!DOCTYPE svg PUBLIC "-//W3C//DTD SVG 1.1//EN"
 "http://www.w3.org/Graphics/SVG/1.1/DTD/svg11.dtd">
<!-- Generated by graphviz version 2.46.0 (0)
 -->
<!-- Title: vprops Pages: 1 -->
<svg width="249pt" height="256pt"
 viewBox="0.00 0.00 249.00 256.00" xmlns="http://www.w3.org/2000/svg" xmlns:xlink="http://www.w3.org/1999/xlink">
<g id="graph0" class="graph" transform="scale(1 1) rotate(0) translate(4 252)">
<title>vprops</title>
<polygon fill="white" stroke="transparent" points="-4,4 -4,-252 245,-252 245,4 -4,4"/>
<!-- Node1 -->
<g id="node1" class="node">
<title>Node1</title>
<g id="a_node1"><a xlink:title=" ">
<polygon fill="#bfbfbf" stroke="black" points="195,-133.5 195,-152.5 241,-152.5 241,-133.5 195,-133.5"/>
<text text-anchor="middle" x="218" y="-140.5" font-family="Helvetica,sans-Serif" font-size="10.00">vprops</text>
</a>
</g>
</g>
<!-- Node2 -->
<g id="node2" class="node">
<title>Node2</title>
<g id="a_node2"><a xlink:href="cvode__driver_8f.html#a3cf183edc142d3e93dc90e21bdadbc4e" target="_top" xlink:title=" ">
<polygon fill="white" stroke="black" points="112.5,-152.5 112.5,-171.5 156.5,-171.5 156.5,-152.5 112.5,-152.5"/>
<text text-anchor="middle" x="134.5" y="-159.5" font-family="Helvetica,sans-Serif" font-size="10.00">fcvfun</text>
</a>
</g>
</g>
<!-- Node1&#45;&gt;Node2 -->
<g id="edge1" class="edge">
<title>Node1&#45;&gt;Node2</title>
<path fill="none" stroke="midnightblue" d="M184.81,-150.51C175.33,-152.71 165.21,-155.07 156.62,-157.08"/>
<polygon fill="midnightblue" stroke="midnightblue" points="185.79,-153.87 194.73,-148.19 184.2,-147.05 185.79,-153.87"/>
</g>
<!-- Node3 -->
<g id="node3" class="node">
<title>Node3</title>
<g id="a_node3"><a xlink:href="subs1_8f.html#af114fff998975a6e77422a65106222ca" target="_top" xlink:title=" ">
<polygon fill="white" stroke="red" points="110,-114.5 110,-133.5 159,-133.5 159,-114.5 110,-114.5"/>
<text text-anchor="middle" x="134.5" y="-121.5" font-family="Helvetica,sans-Serif" font-size="10.00">setprop</text>
</a>
</g>
</g>
<!-- Node1&#45;&gt;Node3 -->
<g id="edge2" class="edge">
<title>Node1&#45;&gt;Node3</title>
<path fill="none" stroke="midnightblue" d="M184.98,-135.53C176.38,-133.53 167.23,-131.4 159.17,-129.52"/>
<polygon fill="midnightblue" stroke="midnightblue" points="184.2,-138.95 194.73,-137.81 185.79,-132.13 184.2,-138.95"/>
</g>
<!-- Node4 -->
<g id="node4" class="node">
<title>Node4</title>
<g id="a_node4"><a xlink:href="ic_8f.html#a193e553524144116aae8bae3b93a7c11" target="_top" xlink:title=" ">
<polygon fill="white" stroke="black" points="6,-228.5 6,-247.5 68,-247.5 68,-228.5 6,-228.5"/>
<text text-anchor="middle" x="37" y="-235.5" font-family="Helvetica,sans-Serif" font-size="10.00">full_restart</text>
</a>
</g>
</g>
<!-- Node3&#45;&gt;Node4 -->
<g id="edge3" class="edge">
<title>Node3&#45;&gt;Node4</title>
<path fill="none" stroke="midnightblue" d="M112.17,-140.45C111.41,-141.28 110.68,-142.13 110,-143 86.89,-172.37 99.85,-192.01 74,-219 70.48,-222.67 66.09,-225.79 61.6,-228.36"/>
<polygon fill="midnightblue" stroke="midnightblue" points="114.68,-142.89 119.62,-133.51 109.92,-137.77 114.68,-142.89"/>
</g>
<!-- Node5 -->
<g id="node5" class="node">
<title>Node5</title>
<g id="a_node5"><a xlink:href="ssolv_8f.html#a4bb42a5afabbba8c6518d83cbe481c17" target="_top" xlink:title=" ">
<polygon fill="white" stroke="black" points="11.5,-190.5 11.5,-209.5 62.5,-209.5 62.5,-190.5 11.5,-190.5"/>
<text text-anchor="middle" x="37" y="-197.5" font-family="Helvetica,sans-Serif" font-size="10.00">go1step</text>
</a>
</g>
</g>
<!-- Node3&#45;&gt;Node5 -->
<g id="edge4" class="edge">
<title>Node3&#45;&gt;Node5</title>
<path fill="none" stroke="midnightblue" d="M112.95,-140.34C111.94,-141.23 110.95,-142.12 110,-143 92.92,-158.79 92.53,-166.94 74,-181 69.38,-184.5 64.03,-187.71 58.89,-190.45"/>
<polygon fill="midnightblue" stroke="midnightblue" points="115.39,-142.87 120.8,-133.76 110.89,-137.5 115.39,-142.87"/>
</g>
<!-- Node6 -->
<g id="node6" class="node">
<title>Node6</title>
<g id="a_node6"><a xlink:href="ssolv_8f.html#a2de8913c214fa083dcb088c57bd45272" target="_top" xlink:title=" ">
<polygon fill="white" stroke="red" points="14,-152.5 14,-171.5 60,-171.5 60,-152.5 14,-152.5"/>
<text text-anchor="middle" x="37" y="-159.5" font-family="Helvetica,sans-Serif" font-size="10.00">gostep</text>
</a>
</g>
</g>
<!-- Node3&#45;&gt;Node6 -->
<g id="edge5" class="edge">
<title>Node3&#45;&gt;Node6</title>
<path fill="none" stroke="midnightblue" d="M100.52,-137.12C87.14,-142.45 72.03,-148.46 60.03,-153.24"/>
<polygon fill="midnightblue" stroke="midnightblue" points="101.9,-140.34 109.89,-133.39 99.31,-133.84 101.9,-140.34"/>
</g>
<!-- Node8 -->
<g id="node7" class="node">
<title>Node8</title>
<g id="a_node7"><a xlink:href="drive1_8f.html#ae177ea7efac97f35241521b782a671c0" target="_top" xlink:title=" ">
<polygon fill="white" stroke="red" points="0,-114.5 0,-133.5 74,-133.5 74,-114.5 0,-114.5"/>
<text text-anchor="middle" x="37" y="-121.5" font-family="Helvetica,sans-Serif" font-size="10.00">nek_advance</text>
</a>
</g>
</g>
<!-- Node3&#45;&gt;Node8 -->
<g id="edge6" class="edge">
<title>Node3&#45;&gt;Node8</title>
<path fill="none" stroke="midnightblue" d="M99.85,-124C91.6,-124 82.72,-124 74.35,-124"/>
<polygon fill="midnightblue" stroke="midnightblue" points="99.89,-127.5 109.89,-124 99.89,-120.5 99.89,-127.5"/>
</g>
<!-- Node12 -->
<g id="node8" class="node">
<title>Node12</title>
<g id="a_node8"><a xlink:href="drive1_8f.html#a83f7c6d78ac4e68394f32533e847d0a3" target="_top" xlink:title=" ">
<polygon fill="white" stroke="red" points="12,-76.5 12,-95.5 62,-95.5 62,-76.5 12,-76.5"/>
<text text-anchor="middle" x="37" y="-83.5" font-family="Helvetica,sans-Serif" font-size="10.00">nek_init</text>
</a>
</g>
</g>
<!-- Node3&#45;&gt;Node12 -->
<g id="edge7" class="edge">
<title>Node3&#45;&gt;Node12</title>
<path fill="none" stroke="midnightblue" d="M100.57,-110.9C87.9,-105.85 73.68,-100.2 62,-95.55"/>
<polygon fill="midnightblue" stroke="midnightblue" points="99.31,-114.16 109.89,-114.61 101.9,-107.66 99.31,-114.16"/>
</g>
<!-- Node13 -->
<g id="node9" class="node">
<title>Node13</title>
<g id="a_node9"><a xlink:href="plan5_8f.html#ae6f47947bd1a89d608ae3b90ac8f433d" target="_top" xlink:title=" ">
<polygon fill="white" stroke="red" points="17,-38.5 17,-57.5 57,-57.5 57,-38.5 17,-38.5"/>
<text text-anchor="middle" x="37" y="-45.5" font-family="Helvetica,sans-Serif" font-size="10.00">plan5</text>
</a>
</g>
</g>
<!-- Node3&#45;&gt;Node13 -->
<g id="edge8" class="edge">
<title>Node3&#45;&gt;Node13</title>
<path fill="none" stroke="midnightblue" d="M117.87,-106.65C106.46,-94.61 90.21,-78.69 74,-67 68.84,-63.28 62.86,-59.83 57.27,-56.91"/>
<polygon fill="midnightblue" stroke="midnightblue" points="115.57,-109.31 124.93,-114.27 120.7,-104.55 115.57,-109.31"/>
</g>
<!-- Node16 -->
<g id="node10" class="node">
<title>Node16</title>
<g id="a_node10"><a xlink:href="ic_8f.html#a0cc013924d0d5a37e36e63bc7c692fc3" target="_top" xlink:title=" ">
<polygon fill="white" stroke="red" points="14,-0.5 14,-19.5 60,-19.5 60,-0.5 14,-0.5"/>
<text text-anchor="middle" x="37" y="-7.5" font-family="Helvetica,sans-Serif" font-size="10.00">prsolvt</text>
</a>
</g>
</g>
<!-- Node3&#45;&gt;Node16 -->
<g id="edge9" class="edge">
<title>Node3&#45;&gt;Node16</title>
<path fill="none" stroke="midnightblue" d="M125.23,-104.85C115.47,-84.04 97.54,-50.86 74,-29 69.96,-25.25 65.04,-22.02 60.15,-19.34"/>
<polygon fill="midnightblue" stroke="midnightblue" points="122.16,-106.54 129.46,-114.22 128.53,-103.66 122.16,-106.54"/>
</g>
</g>
</svg>
