<?xml version="1.0" encoding="UTF-8" standalone="no"?>
<!DOCTYPE svg PUBLIC "-//W3C//DTD SVG 1.1//EN"
 "http://www.w3.org/Graphics/SVG/1.1/DTD/svg11.dtd">
<!-- Generated by graphviz version 2.46.0 (0)
 -->
<!-- Title: zgecon Pages: 1 -->
<svg width="218pt" height="218pt"
 viewBox="0.00 0.00 218.00 218.00" xmlns="http://www.w3.org/2000/svg" xmlns:xlink="http://www.w3.org/1999/xlink">
<g id="graph0" class="graph" transform="scale(1 1) rotate(0) translate(4 214)">
<title>zgecon</title>
<polygon fill="white" stroke="transparent" points="-4,4 -4,-214 214,-214 214,4 -4,4"/>
<!-- Node1 -->
<g id="node1" class="node">
<title>Node1</title>
<g id="a_node1"><a xlink:title=" ">
<polygon fill="#bfbfbf" stroke="black" points="0,-133.5 0,-152.5 48,-152.5 48,-133.5 0,-133.5"/>
<text text-anchor="middle" x="24" y="-140.5" font-family="Helvetica,sans-Serif" font-size="10.00">zgecon</text>
</a>
</g>
</g>
<!-- Node2 -->
<g id="node2" class="node">
<title>Node2</title>
<g id="a_node2"><a xlink:href="xerbla_8f.html#a377ee61015baf8dea7770b3a404b1c07" target="_top" xlink:title=" ">
<polygon fill="white" stroke="black" points="166,-190.5 166,-209.5 209,-209.5 209,-190.5 166,-190.5"/>
<text text-anchor="middle" x="187.5" y="-197.5" font-family="Helvetica,sans-Serif" font-size="10.00">xerbla</text>
</a>
</g>
</g>
<!-- Node1&#45;&gt;Node2 -->
<g id="edge1" class="edge">
<title>Node1&#45;&gt;Node2</title>
<path fill="none" stroke="midnightblue" d="M36.89,-152.66C48.29,-161.41 66.33,-173.99 84,-181 107.06,-190.15 134.82,-194.95 155.63,-197.43"/>
<polygon fill="midnightblue" stroke="midnightblue" points="155.5,-200.94 165.82,-198.53 156.25,-193.98 155.5,-200.94"/>
</g>
<!-- Node3 -->
<g id="node3" class="node">
<title>Node3</title>
<g id="a_node3"><a xlink:href="zdrscl_8f.html#ad73ec38e29df0385ee6fda7d832fd205" target="_top" xlink:title=" ">
<polygon fill="white" stroke="black" points="85,-152.5 85,-171.5 128,-171.5 128,-152.5 85,-152.5"/>
<text text-anchor="middle" x="106.5" y="-159.5" font-family="Helvetica,sans-Serif" font-size="10.00">zdrscl</text>
</a>
</g>
</g>
<!-- Node1&#45;&gt;Node3 -->
<g id="edge2" class="edge">
<title>Node1&#45;&gt;Node3</title>
<path fill="none" stroke="midnightblue" d="M48.28,-148.5C56.56,-150.45 66.01,-152.68 74.81,-154.76"/>
<polygon fill="midnightblue" stroke="midnightblue" points="74.2,-158.21 84.74,-157.1 75.81,-151.4 74.2,-158.21"/>
</g>
<!-- Node6 -->
<g id="node6" class="node">
<title>Node6</title>
<g id="a_node6"><a xlink:href="zlacon_8f.html#ab26035167de87cfb3508e37adb279f96" target="_top" xlink:title=" ">
<polygon fill="white" stroke="black" points="84,-38.5 84,-57.5 129,-57.5 129,-38.5 84,-38.5"/>
<text text-anchor="middle" x="106.5" y="-45.5" font-family="Helvetica,sans-Serif" font-size="10.00">zlacon</text>
</a>
</g>
</g>
<!-- Node1&#45;&gt;Node6 -->
<g id="edge5" class="edge">
<title>Node1&#45;&gt;Node6</title>
<path fill="none" stroke="midnightblue" d="M33.31,-133.19C46.88,-117.18 73.96,-85.22 90.82,-65.32"/>
<polygon fill="midnightblue" stroke="midnightblue" points="93.56,-67.51 97.35,-57.61 88.22,-62.98 93.56,-67.51"/>
</g>
<!-- Node8 -->
<g id="node8" class="node">
<title>Node8</title>
<g id="a_node8"><a xlink:href="zlatrs_8f.html#ab1dbea06bfa3c8dc0f7042a76dadd749" target="_top" xlink:title=" ">
<polygon fill="white" stroke="red" points="86,-114.5 86,-133.5 127,-133.5 127,-114.5 86,-114.5"/>
<text text-anchor="middle" x="106.5" y="-121.5" font-family="Helvetica,sans-Serif" font-size="10.00">zlatrs</text>
</a>
</g>
</g>
<!-- Node1&#45;&gt;Node8 -->
<g id="edge7" class="edge">
<title>Node1&#45;&gt;Node8</title>
<path fill="none" stroke="midnightblue" d="M48.28,-137.5C56.92,-135.47 66.83,-133.13 75.96,-130.97"/>
<polygon fill="midnightblue" stroke="midnightblue" points="76.88,-134.35 85.81,-128.65 75.27,-127.54 76.88,-134.35"/>
</g>
<!-- Node4 -->
<g id="node4" class="node">
<title>Node4</title>
<g id="a_node4"><a xlink:href="dlabad_8f.html#a57ac7409aedb2a380d5d0e625ffbeb7a" target="_top" xlink:title=" ">
<polygon fill="white" stroke="black" points="165,-152.5 165,-171.5 210,-171.5 210,-152.5 165,-152.5"/>
<text text-anchor="middle" x="187.5" y="-159.5" font-family="Helvetica,sans-Serif" font-size="10.00">dlabad</text>
</a>
</g>
</g>
<!-- Node3&#45;&gt;Node4 -->
<g id="edge3" class="edge">
<title>Node3&#45;&gt;Node4</title>
<path fill="none" stroke="midnightblue" d="M128.26,-162C136.34,-162 145.79,-162 154.69,-162"/>
<polygon fill="midnightblue" stroke="midnightblue" points="154.78,-165.5 164.78,-162 154.78,-158.5 154.78,-165.5"/>
</g>
<!-- Node5 -->
<g id="node5" class="node">
<title>Node5</title>
<g id="a_node5"><a xlink:href="zdscal_8f.html#a40d50a435a5fcf16cf41fa80d746819f" target="_top" xlink:title=" ">
<polygon fill="white" stroke="black" points="165,-114.5 165,-133.5 210,-133.5 210,-114.5 165,-114.5"/>
<text text-anchor="middle" x="187.5" y="-121.5" font-family="Helvetica,sans-Serif" font-size="10.00">zdscal</text>
</a>
</g>
</g>
<!-- Node3&#45;&gt;Node5 -->
<g id="edge4" class="edge">
<title>Node3&#45;&gt;Node5</title>
<path fill="none" stroke="midnightblue" d="M127.44,-152.41C136.51,-148.05 147.43,-142.79 157.4,-138"/>
<polygon fill="midnightblue" stroke="midnightblue" points="159.08,-141.07 166.57,-133.59 156.04,-134.77 159.08,-141.07"/>
</g>
<!-- Node7 -->
<g id="node7" class="node">
<title>Node7</title>
<g id="a_node7"><a xlink:href="zcopy_8f.html#aca1a115319081adeb0a9b80ec37ce626" target="_top" xlink:title=" ">
<polygon fill="white" stroke="black" points="166,-0.5 166,-19.5 209,-19.5 209,-0.5 166,-0.5"/>
<text text-anchor="middle" x="187.5" y="-7.5" font-family="Helvetica,sans-Serif" font-size="10.00">zcopy</text>
</a>
</g>
</g>
<!-- Node6&#45;&gt;Node7 -->
<g id="edge6" class="edge">
<title>Node6&#45;&gt;Node7</title>
<path fill="none" stroke="midnightblue" d="M127.44,-38.41C136.51,-34.05 147.43,-28.79 157.4,-24"/>
<polygon fill="midnightblue" stroke="midnightblue" points="159.08,-27.07 166.57,-19.59 156.04,-20.77 159.08,-27.07"/>
</g>
<!-- Node8&#45;&gt;Node2 -->
<g id="edge10" class="edge">
<title>Node8&#45;&gt;Node2</title>
<path fill="none" stroke="midnightblue" d="M119.05,-133.87C122.32,-136.76 125.85,-139.95 129,-143 145.73,-159.16 148.27,-164.84 165,-181 165.79,-181.76 166.6,-182.53 167.42,-183.31"/>
<polygon fill="midnightblue" stroke="midnightblue" points="165.19,-186 174.95,-190.13 169.89,-180.82 165.19,-186"/>
</g>
<!-- Node8&#45;&gt;Node4 -->
<g id="edge8" class="edge">
<title>Node8&#45;&gt;Node4</title>
<path fill="none" stroke="midnightblue" d="M127.03,-133.39C136.17,-137.79 147.25,-143.12 157.35,-147.98"/>
<polygon fill="midnightblue" stroke="midnightblue" points="156.12,-151.27 166.65,-152.45 159.15,-144.96 156.12,-151.27"/>
</g>
<!-- Node8&#45;&gt;Node5 -->
<g id="edge12" class="edge">
<title>Node8&#45;&gt;Node5</title>
<path fill="none" stroke="midnightblue" d="M127.03,-124C135.39,-124 145.38,-124 154.76,-124"/>
<polygon fill="midnightblue" stroke="midnightblue" points="154.97,-127.5 164.97,-124 154.97,-120.5 154.97,-127.5"/>
</g>
<!-- Node9 -->
<g id="node9" class="node">
<title>Node9</title>
<g id="a_node9"><a xlink:href="dscal_8f.html#a0590f8db475e11dc2c9137bb13887acf" target="_top" xlink:title=" ">
<polygon fill="white" stroke="black" points="167.5,-76.5 167.5,-95.5 207.5,-95.5 207.5,-76.5 167.5,-76.5"/>
<text text-anchor="middle" x="187.5" y="-83.5" font-family="Helvetica,sans-Serif" font-size="10.00">dscal</text>
</a>
</g>
</g>
<!-- Node8&#45;&gt;Node9 -->
<g id="edge9" class="edge">
<title>Node8&#45;&gt;Node9</title>
<path fill="none" stroke="midnightblue" d="M127.03,-114.61C136.47,-110.06 147.99,-104.53 158.36,-99.54"/>
<polygon fill="midnightblue" stroke="midnightblue" points="159.97,-102.64 167.47,-95.15 156.94,-96.33 159.97,-102.64"/>
</g>
<!-- Node10 -->
<g id="node10" class="node">
<title>Node10</title>
<g id="a_node10"><a xlink:href="zaxpy_8f.html#af603daa00d5c723d0e409d9b2d011bf4" target="_top" xlink:title=" ">
<polygon fill="white" stroke="black" points="166,-38.5 166,-57.5 209,-57.5 209,-38.5 166,-38.5"/>
<text text-anchor="middle" x="187.5" y="-45.5" font-family="Helvetica,sans-Serif" font-size="10.00">zaxpy</text>
</a>
</g>
</g>
<!-- Node8&#45;&gt;Node10 -->
<g id="edge11" class="edge">
<title>Node8&#45;&gt;Node10</title>
<path fill="none" stroke="midnightblue" d="M117.1,-114.15C128.38,-102.64 147.76,-83.14 165,-67 165.94,-66.12 166.91,-65.22 167.9,-64.32"/>
<polygon fill="midnightblue" stroke="midnightblue" points="170.34,-66.83 175.45,-57.55 165.67,-61.62 170.34,-66.83"/>
</g>
</g>
</svg>
