<?xml version="1.0" encoding="UTF-8" standalone="no"?>
<!DOCTYPE svg PUBLIC "-//W3C//DTD SVG 1.1//EN"
 "http://www.w3.org/Graphics/SVG/1.1/DTD/svg11.dtd">
<!-- Generated by graphviz version 2.46.0 (0)
 -->
<!-- Title: zgetf2 Pages: 1 -->
<svg width="212pt" height="123pt"
 viewBox="0.00 0.00 212.00 123.00" xmlns="http://www.w3.org/2000/svg" xmlns:xlink="http://www.w3.org/1999/xlink">
<g id="graph0" class="graph" transform="scale(1 1) rotate(0) translate(4 119)">
<title>zgetf2</title>
<polygon fill="white" stroke="transparent" points="-4,4 -4,-119 208,-119 208,4 -4,4"/>
<!-- Node1 -->
<g id="node1" class="node">
<title>Node1</title>
<g id="a_node1"><a xlink:title=" ">
<polygon fill="#bfbfbf" stroke="black" points="0,-57.5 0,-76.5 44,-76.5 44,-57.5 0,-57.5"/>
<text text-anchor="middle" x="22" y="-64.5" font-family="Helvetica,sans-Serif" font-size="10.00">zgetf2</text>
</a>
</g>
</g>
<!-- Node2 -->
<g id="node2" class="node">
<title>Node2</title>
<g id="a_node2"><a xlink:href="xerbla_8f.html#a377ee61015baf8dea7770b3a404b1c07" target="_top" xlink:title=" ">
<polygon fill="white" stroke="black" points="161,-95.5 161,-114.5 204,-114.5 204,-95.5 161,-95.5"/>
<text text-anchor="middle" x="182.5" y="-102.5" font-family="Helvetica,sans-Serif" font-size="10.00">xerbla</text>
</a>
</g>
</g>
<!-- Node1&#45;&gt;Node2 -->
<g id="edge1" class="edge">
<title>Node1&#45;&gt;Node2</title>
<path fill="none" stroke="midnightblue" d="M33.35,-76.7C44.07,-86.02 61.79,-99.49 80,-105 102.98,-111.96 130.25,-111.51 150.73,-109.57"/>
<polygon fill="midnightblue" stroke="midnightblue" points="151.22,-113.03 160.77,-108.45 150.44,-106.08 151.22,-113.03"/>
</g>
<!-- Node3 -->
<g id="node3" class="node">
<title>Node3</title>
<g id="a_node3"><a xlink:href="zgeru_8f.html#a7d9c75aa8d9865d271db9ced1d08d097" target="_top" xlink:title=" ">
<polygon fill="white" stroke="black" points="82,-76.5 82,-95.5 123,-95.5 123,-76.5 82,-76.5"/>
<text text-anchor="middle" x="102.5" y="-83.5" font-family="Helvetica,sans-Serif" font-size="10.00">zgeru</text>
</a>
</g>
</g>
<!-- Node1&#45;&gt;Node3 -->
<g id="edge2" class="edge">
<title>Node1&#45;&gt;Node3</title>
<path fill="none" stroke="midnightblue" d="M44.04,-72.09C52.55,-74.15 62.53,-76.57 71.77,-78.8"/>
<polygon fill="midnightblue" stroke="midnightblue" points="71.21,-82.27 81.76,-81.22 72.86,-75.47 71.21,-82.27"/>
</g>
<!-- Node4 -->
<g id="node4" class="node">
<title>Node4</title>
<g id="a_node4"><a xlink:href="zscal_8f.html#afac698034497c3148620e35c316d9ffb" target="_top" xlink:title=" ">
<polygon fill="white" stroke="black" points="82.5,-38.5 82.5,-57.5 122.5,-57.5 122.5,-38.5 82.5,-38.5"/>
<text text-anchor="middle" x="102.5" y="-45.5" font-family="Helvetica,sans-Serif" font-size="10.00">zscal</text>
</a>
</g>
</g>
<!-- Node1&#45;&gt;Node4 -->
<g id="edge4" class="edge">
<title>Node1&#45;&gt;Node4</title>
<path fill="none" stroke="midnightblue" d="M44.04,-61.91C52.77,-59.79 63.06,-57.3 72.5,-55.02"/>
<polygon fill="midnightblue" stroke="midnightblue" points="73.39,-58.4 82.29,-52.65 71.75,-51.6 73.39,-58.4"/>
</g>
<!-- Node5 -->
<g id="node5" class="node">
<title>Node5</title>
<g id="a_node5"><a xlink:href="zswap_8f.html#a8e324819e4cd92b6fde3ae40c83a5cb3" target="_top" xlink:title=" ">
<polygon fill="white" stroke="black" points="80,-0.5 80,-19.5 125,-19.5 125,-0.5 80,-0.5"/>
<text text-anchor="middle" x="102.5" y="-7.5" font-family="Helvetica,sans-Serif" font-size="10.00">zswap</text>
</a>
</g>
</g>
<!-- Node1&#45;&gt;Node5 -->
<g id="edge5" class="edge">
<title>Node1&#45;&gt;Node5</title>
<path fill="none" stroke="midnightblue" d="M36.32,-57.33C48.34,-48.6 66.25,-35.6 80.25,-25.43"/>
<polygon fill="midnightblue" stroke="midnightblue" points="82.34,-28.23 88.38,-19.53 78.23,-22.57 82.34,-28.23"/>
</g>
<!-- Node3&#45;&gt;Node2 -->
<g id="edge3" class="edge">
<title>Node3&#45;&gt;Node2</title>
<path fill="none" stroke="midnightblue" d="M123.18,-90.79C131.6,-92.85 141.63,-95.29 150.97,-97.56"/>
<polygon fill="midnightblue" stroke="midnightblue" points="150.19,-100.97 160.73,-99.94 151.84,-94.17 150.19,-100.97"/>
</g>
</g>
</svg>
